<?xml version="1.0" encoding="UTF-8"?>
<svg xmlns="http://www.w3.org/2000/svg" xmlns:xlink="http://www.w3.org/1999/xlink" width="750pt" height="3600pt" viewBox="0 0 750 3600" version="1.1">
<g id="surface1">
<path style="fill:none;stroke-width:0.01;stroke-linecap:butt;stroke-linejoin:miter;stroke:rgb(0%,0%,0%);stroke-opacity:1;stroke-miterlimit:10;" d="M 0.631523 0.376484 L 0.448477 0.234492 L 0.313477 0.299492 L 0.238477 0.0484375 L 0.184453 0.0694531 L 0.255469 0.272461 L 0.368477 0.180469 L 0.295469 0.285469 L 0.127461 0.215469 L 0.0454688 0.344492 L 0.247461 0.420508 L 0.185469 0.573516 L 0.376484 0.646523 L 0.207461 0.922539 L 0.269492 0.951563 L 0.3925 0.760508 L 0.340469 0.581523 L 0.631523 0.651523 L 0.748516 0.764531 L 0.954531 0.636523 L 0.938555 0.579492 L 0.782539 0.630508 L 0.747539 0.509492 L 0.750508 0.313477 L 0.946562 0.379492 L 0.937539 0.264492 L 0.689531 0.178477 Z M 0.631523 0.376484 " transform="matrix(100,0,0,100,0,200)"/>
<path style="fill:none;stroke-width:0.01;stroke-linecap:butt;stroke-linejoin:miter;stroke:rgb(0%,0%,0%);stroke-opacity:1;stroke-miterlimit:10;" d="M 0.4875 0.408477 L 0.276484 0.388477 L 0.229492 0.3225 L 0.0524609 0.254492 L 0.0454687 0.295469 L 0.192461 0.354492 L 0.198477 0.403477 L 0.166484 0.475508 L 0.0824609 0.481484 L 0.0734766 0.550508 L 0.173477 0.540508 L 0.179453 0.606523 L 0.270469 0.745508 L 0.119453 0.5975 L 0.142461 0.531484 L 0.313477 0.688516 L 0.274492 0.625508 L 0.4875 0.609492 L 0.717539 0.621523 L 0.912539 0.664531 L 0.925547 0.596523 L 0.753516 0.559492 L 0.599492 0.511484 L 0.760508 0.460508 L 0.882539 0.6375 L 0.954531 0.556523 L 0.799531 0.330469 Z M 0.4875 0.408477 " transform="matrix(100,0,0,100,150,200)"/>
<path style="fill:none;stroke-width:0.01;stroke-linecap:butt;stroke-linejoin:miter;stroke:rgb(0%,0%,0%);stroke-opacity:1;stroke-miterlimit:10;" d="M 0.5025 0.493516 L 0.318477 0.495508 L 0.264492 0.380469 L 0.0764453 0.230469 L 0.0454687 0.276484 L 0.197461 0.406484 L 0.228477 0.5075 L 0.227461 0.564492 L 0.115469 0.568516 L 0.113477 0.6375 L 0.220469 0.629531 L 0.222461 0.693516 L 0.320469 0.769531 L 0.159453 0.714531 L 0.167461 0.655508 L 0.333477 0.715508 L 0.288477 0.690508 L 0.5025 0.673516 L 0.713516 0.651523 L 0.954531 0.631523 L 0.936562 0.545508 L 0.739531 0.5825 L 0.580508 0.573516 L 0.710508 0.546523 L 0.892539 0.5825 L 0.904531 0.518516 L 0.716523 0.4775 Z M 0.5025 0.493516 " transform="matrix(100,0,0,100,300,200)"/>
<path style="fill:none;stroke-width:0.01;stroke-linecap:butt;stroke-linejoin:miter;stroke:rgb(0%,0%,0%);stroke-opacity:1;stroke-miterlimit:10;" d="M 0.5125 0.3975 L 0.369492 0.3825 L 0.229492 0.398477 L 0.0454688 0.433477 L 0.0634375 0.498516 L 0.288477 0.470508 L 0.310469 0.378477 L 0.3125 0.440508 L 0.173477 0.4625 L 0.186484 0.550508 L 0.330469 0.525508 L 0.3425 0.6125 L 0.371484 0.674531 L 0.339492 0.786523 L 0.371484 0.801523 L 0.414492 0.6875 L 0.405508 0.613516 L 0.5125 0.603516 L 0.584492 0.685508 L 0.717539 0.6175 L 0.715508 0.578516 L 0.6125 0.596523 L 0.5875 0.499492 L 0.755508 0.449492 L 0.771523 0.6875 L 0.954531 0.640508 L 0.847539 0.198477 Z M 0.5125 0.3975 " transform="matrix(100,0,0,100,450,200)"/>
<path style="fill:none;stroke-width:0.01;stroke-linecap:butt;stroke-linejoin:miter;stroke:rgb(0%,0%,0%);stroke-opacity:1;stroke-miterlimit:10;" d="M 0.548516 0.358477 L 0.329492 0.341484 L 0.227461 0.491484 L 0.0854688 0.293477 L 0.0454688 0.3225 L 0.149453 0.501484 L 0.217461 0.339492 L 0.224453 0.389492 L 0.102461 0.430508 L 0.129453 0.514492 L 0.239492 0.456484 L 0.262461 0.521484 L 0.385508 0.666523 L 0.568516 0.706523 L 0.589492 0.660508 L 0.4525 0.633516 L 0.3625 0.539492 L 0.548516 0.533516 L 0.767539 0.544492 L 0.881523 0.471484 L 0.837539 0.4225 L 0.763516 0.496484 L 0.6575 0.451484 L 0.782539 0.399492 L 0.954531 0.393477 L 0.953555 0.302461 L 0.761523 0.331484 Z M 0.548516 0.358477 " transform="matrix(100,0,0,100,600,200)"/>
<path style="fill:none;stroke-width:0.01;stroke-linecap:butt;stroke-linejoin:miter;stroke:rgb(0%,0%,0%);stroke-opacity:1;stroke-miterlimit:10;" d="M 0.469492 0.526484 L 0.266484 0.528516 L 0.283477 0.3825 L 0.227461 0.119453 L 0.151484 0.126445 L 0.196484 0.370469 L 0.126445 0.534492 L 0.137461 0.596523 L 0.0454688 0.643516 L 0.0714453 0.696523 L 0.162461 0.654531 L 0.182461 0.713516 L 0.270469 0.880547 L 0.480508 0.803516 L 0.459492 0.757539 L 0.303477 0.810547 L 0.280469 0.724531 L 0.469492 0.730508 L 0.723516 0.768516 L 0.909531 0.791523 L 0.922539 0.713516 L 0.735508 0.695508 L 0.5975 0.640508 L 0.755508 0.605508 L 0.954531 0.5275 L 0.912539 0.455508 L 0.728516 0.499492 Z M 0.469492 0.526484 " transform="matrix(100,0,0,100,0,350)"/>
<path style="fill:none;stroke-width:0.01;stroke-linecap:butt;stroke-linejoin:miter;stroke:rgb(0%,0%,0%);stroke-opacity:1;stroke-miterlimit:10;" d="M 0.4875 0.330469 L 0.3575 0.288477 L 0.3975 0.211484 L 0.464492 0.348477 L 0.505508 0.325469 L 0.390508 0.132461 L 0.265469 0.262461 L 0.200469 0.369492 L 0.0634375 0.338477 L 0.0454687 0.421484 L 0.192461 0.470508 L 0.224453 0.5575 L 0.271484 0.665508 L 0.210469 0.839531 L 0.267461 0.867539 L 0.339492 0.681523 L 0.318477 0.555508 L 0.4875 0.551523 L 0.754531 0.5375 L 0.944531 0.551523 L 0.954531 0.466484 L 0.767539 0.460508 L 0.5925 0.420508 L 0.703516 0.3625 L 0.886523 0.388477 L 0.887539 0.298477 L 0.704531 0.295469 Z M 0.4875 0.330469 " transform="matrix(100,0,0,100,150,350)"/>
<path style="fill:none;stroke-width:0.01;stroke-linecap:butt;stroke-linejoin:miter;stroke:rgb(0%,0%,0%);stroke-opacity:1;stroke-miterlimit:10;" d="M 0.499492 0.381484 L 0.280469 0.3575 L 0.326484 0.275469 L 0.3175 0.119453 L 0.277461 0.108477 L 0.240469 0.259492 L 0.200469 0.3525 L 0.181484 0.429492 L 0.0524609 0.413477 L 0.0454687 0.4875 L 0.171484 0.5075 L 0.157461 0.585508 L 0.277461 0.668516 L 0.274492 0.885547 L 0.3625 0.891523 L 0.356484 0.646523 L 0.244492 0.579492 L 0.499492 0.579492 L 0.735508 0.641523 L 0.954531 0.6625 L 0.952539 0.583516 L 0.750508 0.555508 L 0.590508 0.4925 L 0.739531 0.465508 L 0.910547 0.4825 L 0.915547 0.4175 L 0.739531 0.405508 Z M 0.499492 0.381484 " transform="matrix(100,0,0,100,300,350)"/>
<path style="fill:none;stroke-width:0.01;stroke-linecap:butt;stroke-linejoin:miter;stroke:rgb(0%,0%,0%);stroke-opacity:1;stroke-miterlimit:10;" d="M 0.486484 0.584492 L 0.3425 0.570508 L 0.289492 0.416484 L 0.107461 0.159453 L 0.0454688 0.190469 L 0.197461 0.4425 L 0.235469 0.575508 L 0.237461 0.620508 L 0.143477 0.629531 L 0.151484 0.6875 L 0.242461 0.679531 L 0.257461 0.715508 L 0.334492 0.840547 L 0.4975 0.762539 L 0.475508 0.723516 L 0.358477 0.784531 L 0.3375 0.720508 L 0.486484 0.735508 L 0.689531 0.764531 L 0.877539 0.767539 L 0.876523 0.700508 L 0.719531 0.711523 L 0.585508 0.664531 L 0.736523 0.6175 L 0.954531 0.5875 L 0.933555 0.4875 L 0.724531 0.5475 Z M 0.486484 0.584492 " transform="matrix(100,0,0,100,450,350)"/>
<path style="fill:none;stroke-width:0.01;stroke-linecap:butt;stroke-linejoin:miter;stroke:rgb(0%,0%,0%);stroke-opacity:1;stroke-miterlimit:10;" d="M 0.6025 0.465508 L 0.380469 0.521484 L 0.310469 0.426484 L 0.0594531 0.321484 L 0.0454688 0.384492 L 0.249492 0.4875 L 0.308477 0.556523 L 0.323477 0.598516 L 0.260469 0.618516 L 0.272461 0.650508 L 0.331484 0.639531 L 0.339492 0.678516 L 0.378477 0.6125 L 0.444492 0.656523 L 0.465508 0.6325 L 0.384492 0.566523 L 0.4325 0.674531 L 0.6025 0.636523 L 0.809531 0.633516 L 0.930547 0.668516 L 0.948555 0.620508 L 0.831523 0.578516 L 0.696523 0.553516 L 0.812539 0.524492 L 0.941562 0.544492 L 0.954531 0.4775 L 0.806523 0.4725 Z M 0.6025 0.465508 " transform="matrix(100,0,0,100,600,350)"/>
<path style="fill:none;stroke-width:0.01;stroke-linecap:butt;stroke-linejoin:miter;stroke:rgb(0%,0%,0%);stroke-opacity:1;stroke-miterlimit:10;" d="M 0.5025 0.556523 L 0.319492 0.540508 L 0.254492 0.368477 L 0.0944531 0.129453 L 0.0454688 0.154453 L 0.162461 0.389492 L 0.193477 0.541523 L 0.196484 0.601523 L 0.104453 0.641523 L 0.124453 0.702539 L 0.209453 0.661523 L 0.223477 0.719531 L 0.293477 0.870547 L 0.513516 0.833516 L 0.5025 0.763516 L 0.3475 0.816523 L 0.325469 0.730508 L 0.5025 0.737539 L 0.724531 0.745508 L 0.896523 0.764531 L 0.910547 0.714531 L 0.755508 0.6875 L 0.6075 0.648516 L 0.771523 0.604492 L 0.935547 0.631523 L 0.954531 0.559492 L 0.787539 0.546523 Z M 0.5025 0.556523 " transform="matrix(100,0,0,100,0,500)"/>
<path style="fill:none;stroke-width:0.01;stroke-linecap:butt;stroke-linejoin:miter;stroke:rgb(0%,0%,0%);stroke-opacity:1;stroke-miterlimit:10;" d="M 0.485508 0.355469 L 0.273477 0.385508 L 0.237461 0.324492 L 0.421484 0.224453 L 0.385508 0.165469 L 0.167461 0.278477 L 0.183477 0.384492 L 0.187461 0.449492 L 0.0454687 0.446484 L 0.0474609 0.533516 L 0.179453 0.521484 L 0.191484 0.599492 L 0.204453 0.697539 L 0.109453 0.802539 L 0.145469 0.834531 L 0.249492 0.727539 L 0.285469 0.604492 L 0.485508 0.586523 L 0.735508 0.586523 L 0.886523 0.5725 L 0.883555 0.511484 L 0.737539 0.521484 L 0.5875 0.476484 L 0.735508 0.441484 L 0.923555 0.494492 L 0.954531 0.406484 L 0.749531 0.360469 Z M 0.485508 0.355469 " transform="matrix(100,0,0,100,150,500)"/>
<path style="fill:none;stroke-width:0.01;stroke-linecap:butt;stroke-linejoin:miter;stroke:rgb(0%,0%,0%);stroke-opacity:1;stroke-miterlimit:10;" d="M 0.528516 0.406484 L 0.340469 0.406484 L 0.3475 0.326484 L 0.345469 0.171484 L 0.305469 0.176484 L 0.298477 0.3125 L 0.259492 0.410508 L 0.249492 0.466484 L 0.146445 0.474492 L 0.146445 0.536484 L 0.244492 0.526484 L 0.241484 0.5875 L 0.192461 0.674531 L 0.0454687 0.782539 L 0.0744531 0.828516 L 0.240469 0.722539 L 0.331484 0.610508 L 0.528516 0.5925 L 0.736523 0.585508 L 0.954531 0.514492 L 0.932539 0.454492 L 0.748516 0.511484 L 0.609492 0.496484 L 0.761523 0.460508 L 0.933555 0.464492 L 0.924531 0.398477 L 0.754531 0.406484 Z M 0.528516 0.406484 " transform="matrix(100,0,0,100,300,500)"/>
<path style="fill:none;stroke-width:0.01;stroke-linecap:butt;stroke-linejoin:miter;stroke:rgb(0%,0%,0%);stroke-opacity:1;stroke-miterlimit:10;" d="M 0.461484 0.394492 L 0.265469 0.365469 L 0.180469 0.469492 L 0.0774609 0.309492 L 0.0454688 0.328477 L 0.123477 0.460508 L 0.177461 0.3525 L 0.174453 0.413477 L 0.0744531 0.455508 L 0.0934766 0.519492 L 0.189453 0.473516 L 0.202461 0.538516 L 0.276484 0.699531 L 0.4875 0.6075 L 0.455508 0.553516 L 0.313477 0.630508 L 0.294492 0.548516 L 0.461484 0.570508 L 0.661523 0.578516 L 0.813516 0.585508 L 0.807539 0.529492 L 0.6725 0.525508 L 0.561523 0.485508 L 0.728516 0.441484 L 0.954531 0.405508 L 0.928555 0.300469 L 0.726523 0.365469 Z M 0.461484 0.394492 " transform="matrix(100,0,0,100,450,500)"/>
<path style="fill:none;stroke-width:0.01;stroke-linecap:butt;stroke-linejoin:miter;stroke:rgb(0%,0%,0%);stroke-opacity:1;stroke-miterlimit:10;" d="M 0.529492 0.4275 L 0.329492 0.408477 L 0.282461 0.304492 L 0.0584375 0.236484 L 0.0454688 0.287461 L 0.238477 0.343477 L 0.262461 0.4125 L 0.265469 0.4825 L 0.114453 0.470508 L 0.126445 0.5475 L 0.267461 0.548516 L 0.264492 0.598516 L 0.216484 0.666523 L 0.0554688 0.713516 L 0.0804688 0.763516 L 0.246484 0.714531 L 0.344492 0.628516 L 0.529492 0.595508 L 0.724531 0.615508 L 0.896523 0.636523 L 0.905547 0.5675 L 0.737539 0.551523 L 0.6075 0.505508 L 0.748516 0.465508 L 0.954531 0.458477 L 0.934531 0.363477 L 0.733516 0.396484 Z M 0.529492 0.4275 " transform="matrix(100,0,0,100,600,500)"/>
<path style="fill:none;stroke-width:0.01;stroke-linecap:butt;stroke-linejoin:miter;stroke:rgb(0%,0%,0%);stroke-opacity:1;stroke-miterlimit:10;" d="M 0.529492 0.3475 L 0.323477 0.3575 L 0.293477 0.241484 L 0.0634375 0.155469 L 0.0454688 0.210469 L 0.243477 0.276484 L 0.260469 0.361484 L 0.255469 0.429492 L 0.120469 0.416484 L 0.123477 0.495508 L 0.241484 0.501484 L 0.253477 0.583516 L 0.378477 0.726523 L 0.599492 0.844531 L 0.665508 0.741523 L 0.388477 0.641523 L 0.345469 0.569492 L 0.529492 0.525508 L 0.744531 0.526484 L 0.933555 0.5525 L 0.954531 0.471484 L 0.755508 0.461484 L 0.611523 0.4275 L 0.695508 0.298477 L 0.805547 0.208477 L 0.769531 0.167461 L 0.655508 0.248477 Z M 0.529492 0.3475 " transform="matrix(100,0,0,100,0,650)"/>
<path style="fill:none;stroke-width:0.01;stroke-linecap:butt;stroke-linejoin:miter;stroke:rgb(0%,0%,0%);stroke-opacity:1;stroke-miterlimit:10;" d="M 0.471484 0.300469 L 0.256484 0.292461 L 0.291484 0.227461 L 0.4125 0.389492 L 0.476484 0.3575 L 0.281484 0.148477 L 0.173477 0.268477 L 0.167461 0.3475 L 0.0454687 0.338477 L 0.0474609 0.414492 L 0.162461 0.425508 L 0.156484 0.5075 L 0.217461 0.599492 L 0.165469 0.810547 L 0.233477 0.851523 L 0.309492 0.634531 L 0.263477 0.513516 L 0.471484 0.509492 L 0.746523 0.536484 L 0.954531 0.535508 L 0.947539 0.461484 L 0.750508 0.450508 L 0.564492 0.403477 L 0.697539 0.359492 L 0.787539 0.485508 L 0.854531 0.433477 L 0.734531 0.240469 Z M 0.471484 0.300469 " transform="matrix(100,0,0,100,150,650)"/>
<path style="fill:none;stroke-width:0.01;stroke-linecap:butt;stroke-linejoin:miter;stroke:rgb(0%,0%,0%);stroke-opacity:1;stroke-miterlimit:10;" d="M 0.501484 0.391484 L 0.297461 0.360469 L 0.235469 0.263477 L 0.4725 0.127461 L 0.4275 0.0454688 L 0.133477 0.198477 L 0.151484 0.3575 L 0.152461 0.423477 L 0.0554688 0.438477 L 0.0654687 0.495508 L 0.158477 0.486484 L 0.169453 0.5525 L 0.203477 0.701523 L 0.0644531 0.909531 L 0.136445 0.954531 L 0.282461 0.729531 L 0.295469 0.573516 L 0.501484 0.5875 L 0.731523 0.580508 L 0.863555 0.5775 L 0.866523 0.5225 L 0.739531 0.5275 L 0.609492 0.486484 L 0.753516 0.441484 L 0.944531 0.4425 L 0.931563 0.345469 L 0.738516 0.376484 Z M 0.501484 0.391484 " transform="matrix(100,0,0,100,300,650)"/>
<path style="fill:none;stroke-width:0.01;stroke-linecap:butt;stroke-linejoin:miter;stroke:rgb(0%,0%,0%);stroke-opacity:1;stroke-miterlimit:10;" d="M 0.491484 0.541523 L 0.278477 0.539492 L 0.243477 0.413477 L 0.117461 0.241484 L 0.0814453 0.263477 L 0.172461 0.4325 L 0.180469 0.536484 L 0.166484 0.608516 L 0.0464453 0.600508 L 0.0454688 0.670508 L 0.153477 0.671523 L 0.161484 0.756523 L 0.131445 0.6375 L 0.0594531 0.4175 L 0.114453 0.378477 L 0.194453 0.595508 L 0.260469 0.747539 L 0.491484 0.758516 L 0.752539 0.732539 L 0.923555 0.689531 L 0.903555 0.623516 L 0.746523 0.669531 L 0.5825 0.6425 L 0.769531 0.603516 L 0.954531 0.5625 L 0.910547 0.498516 L 0.746523 0.514492 Z M 0.491484 0.541523 " transform="matrix(100,0,0,100,450,650)"/>
<path style="fill:none;stroke-width:0.01;stroke-linecap:butt;stroke-linejoin:miter;stroke:rgb(0%,0%,0%);stroke-opacity:1;stroke-miterlimit:10;" d="M 0.4525 0.420508 L 0.304492 0.398477 L 0.297461 0.353477 L 0.151484 0.430508 L 0.134453 0.385508 L 0.263477 0.319492 L 0.250469 0.380469 L 0.231484 0.428477 L 0.145469 0.396484 L 0.117461 0.476484 L 0.215469 0.483516 L 0.209453 0.5525 L 0.166484 0.616523 L 0.0454688 0.721523 L 0.0784766 0.763516 L 0.194453 0.661523 L 0.282461 0.581523 L 0.4525 0.5675 L 0.506484 0.628516 L 0.638516 0.5975 L 0.6275 0.546523 L 0.5325 0.565508 L 0.511484 0.4925 L 0.635508 0.463516 L 0.804531 0.701523 L 0.954531 0.600508 L 0.693516 0.236484 Z M 0.4525 0.420508 " transform="matrix(100,0,0,100,600,650)"/>
</g>
</svg>
