<?xml version="1.0" encoding="UTF-8"?>
<svg xmlns="http://www.w3.org/2000/svg" xmlns:xlink="http://www.w3.org/1999/xlink" width="750pt" height="3600pt" viewBox="0 0 750 3600" version="1.1">
<g id="surface1">
<path style="fill:none;stroke-width:0.01;stroke-linecap:butt;stroke-linejoin:miter;stroke:rgb(0%,0%,0%);stroke-opacity:1;stroke-miterlimit:10;" d="M 0.4875 0.550508 L 0.254492 0.518516 L 0.253477 0.3425 L 0.132461 0.0954688 L 0.0564453 0.135469 L 0.168477 0.361484 L 0.169453 0.518516 L 0.156484 0.5925 L 0.0504687 0.579492 L 0.0454688 0.6475 L 0.145469 0.661523 L 0.140469 0.734531 L 0.209453 0.904531 L 0.4225 0.822539 L 0.410508 0.757539 L 0.264492 0.835547 L 0.239492 0.755508 L 0.4875 0.779531 L 0.749531 0.804531 L 0.954531 0.788516 L 0.934531 0.718516 L 0.754531 0.697539 L 0.596523 0.6525 L 0.745508 0.599492 L 0.917539 0.601523 L 0.930547 0.524492 L 0.738516 0.521484 Z M 0.4875 0.550508 " transform="matrix(100,0,0,100,0,200)"/>
<path style="fill:none;stroke-width:0.01;stroke-linecap:butt;stroke-linejoin:miter;stroke:rgb(0%,0%,0%);stroke-opacity:1;stroke-miterlimit:10;" d="M 0.499492 0.449492 L 0.256484 0.464492 L 0.252461 0.339492 L 0.142461 0.134453 L 0.0934766 0.157461 L 0.169453 0.3375 L 0.168477 0.480508 L 0.167461 0.538516 L 0.0454687 0.549492 L 0.0484375 0.6175 L 0.165469 0.616523 L 0.171484 0.6875 L 0.262461 0.865547 L 0.458477 0.756523 L 0.473516 0.718516 L 0.3475 0.685508 L 0.259492 0.707539 L 0.499492 0.669531 L 0.727539 0.720508 L 0.928555 0.706523 L 0.933555 0.625508 L 0.773516 0.610508 L 0.600508 0.555508 L 0.757539 0.489492 L 0.944531 0.5125 L 0.954531 0.439492 L 0.757539 0.438477 Z M 0.499492 0.449492 " transform="matrix(100,0,0,100,150,200)"/>
<path style="fill:none;stroke-width:0.01;stroke-linecap:butt;stroke-linejoin:miter;stroke:rgb(0%,0%,0%);stroke-opacity:1;stroke-miterlimit:10;" d="M 0.549492 0.314492 L 0.315469 0.318477 L 0.3425 0.217461 L 0.494492 0.324492 L 0.519492 0.266484 L 0.294492 0.125469 L 0.201484 0.302461 L 0.187461 0.371484 L 0.0594531 0.353477 L 0.0454687 0.435508 L 0.181484 0.4525 L 0.188477 0.526484 L 0.181484 0.660508 L 0.0464453 0.815547 L 0.114453 0.874531 L 0.255469 0.695508 L 0.289492 0.558516 L 0.549492 0.535508 L 0.762539 0.520508 L 0.940547 0.494492 L 0.939531 0.436484 L 0.775547 0.4475 L 0.6425 0.420508 L 0.792539 0.381484 L 0.947539 0.400508 L 0.954531 0.3225 L 0.781523 0.313477 Z M 0.549492 0.314492 " transform="matrix(100,0,0,100,300,200)"/>
<path style="fill:none;stroke-width:0.01;stroke-linecap:butt;stroke-linejoin:miter;stroke:rgb(0%,0%,0%);stroke-opacity:1;stroke-miterlimit:10;" d="M 0.450508 0.348477 L 0.291484 0.335469 L 0.3225 0.226484 L 0.253477 0.0454687 L 0.218477 0.0594531 L 0.248477 0.222461 L 0.228477 0.323477 L 0.221484 0.4175 L 0.0834766 0.419492 L 0.0844531 0.509492 L 0.218477 0.508516 L 0.231484 0.588516 L 0.302461 0.729531 L 0.271484 0.954531 L 0.335469 0.951563 L 0.359492 0.727539 L 0.3125 0.5725 L 0.450508 0.560508 L 0.683516 0.548516 L 0.876523 0.526484 L 0.813516 0.450508 L 0.683516 0.5925 L 0.545508 0.455508 L 0.718516 0.421484 L 0.911523 0.454492 L 0.916523 0.370469 L 0.694531 0.350469 Z M 0.450508 0.348477 " transform="matrix(100,0,0,100,450,200)"/>
<path style="fill:none;stroke-width:0.01;stroke-linecap:butt;stroke-linejoin:miter;stroke:rgb(0%,0%,0%);stroke-opacity:1;stroke-miterlimit:10;" d="M 0.484492 0.548516 L 0.261484 0.5325 L 0.251484 0.414492 L 0.154453 0.227461 L 0.108477 0.243477 L 0.193477 0.4225 L 0.180469 0.540508 L 0.168477 0.601523 L 0.0464453 0.5875 L 0.0454688 0.664531 L 0.159453 0.669531 L 0.165469 0.730508 L 0.145469 0.608516 L 0.0554688 0.4125 L 0.122461 0.349492 L 0.187461 0.573516 L 0.281484 0.730508 L 0.484492 0.750508 L 0.703516 0.772539 L 0.855547 0.768516 L 0.865547 0.717539 L 0.715508 0.713516 L 0.579492 0.6475 L 0.764531 0.615508 L 0.954531 0.625508 L 0.943555 0.5525 L 0.744531 0.560508 Z M 0.484492 0.548516 " transform="matrix(100,0,0,100,600,200)"/>
<path style="fill:none;stroke-width:0.01;stroke-linecap:butt;stroke-linejoin:miter;stroke:rgb(0%,0%,0%);stroke-opacity:1;stroke-miterlimit:10;" d="M 0.484492 0.466484 L 0.242461 0.4725 L 0.224453 0.3575 L 0.108477 0.173477 L 0.0624609 0.201484 L 0.160469 0.3525 L 0.158477 0.479492 L 0.162461 0.5425 L 0.0454688 0.546523 L 0.0474609 0.619531 L 0.157461 0.618516 L 0.175469 0.683516 L 0.290469 0.826523 L 0.459492 0.698516 L 0.458477 0.6625 L 0.348477 0.661523 L 0.271484 0.691523 L 0.484492 0.670508 L 0.710508 0.690508 L 0.891523 0.681523 L 0.891523 0.629531 L 0.731523 0.609492 L 0.590508 0.5575 L 0.755508 0.499492 L 0.954531 0.4875 L 0.935547 0.4075 L 0.724531 0.436484 Z M 0.484492 0.466484 " transform="matrix(100,0,0,100,0,350)"/>
<path style="fill:none;stroke-width:0.01;stroke-linecap:butt;stroke-linejoin:miter;stroke:rgb(0%,0%,0%);stroke-opacity:1;stroke-miterlimit:10;" d="M 0.558516 0.490508 L 0.305469 0.484492 L 0.290469 0.321484 L 0.131445 0.0674609 L 0.0664453 0.0894531 L 0.178477 0.320469 L 0.200469 0.493516 L 0.190469 0.575508 L 0.0454687 0.5775 L 0.0564453 0.6775 L 0.193477 0.665508 L 0.212461 0.731523 L 0.371484 0.932539 L 0.5925 0.736523 L 0.590508 0.6825 L 0.434492 0.6925 L 0.3225 0.740508 L 0.558516 0.709531 L 0.779531 0.709531 L 0.954531 0.696523 L 0.949531 0.625508 L 0.792539 0.6275 L 0.645508 0.598516 L 0.752539 0.5525 L 0.914531 0.549492 L 0.902539 0.470508 L 0.751523 0.481484 Z M 0.558516 0.490508 " transform="matrix(100,0,0,100,150,350)"/>
<path style="fill:none;stroke-width:0.01;stroke-linecap:butt;stroke-linejoin:miter;stroke:rgb(0%,0%,0%);stroke-opacity:1;stroke-miterlimit:10;" d="M 0.575508 0.4275 L 0.338477 0.403477 L 0.303477 0.260469 L 0.132461 0.0454687 L 0.0834766 0.0844531 L 0.223477 0.284492 L 0.254492 0.421484 L 0.241484 0.4875 L 0.126445 0.484492 L 0.126445 0.563516 L 0.234492 0.565508 L 0.246484 0.6325 L 0.304492 0.748516 L 0.257461 0.954531 L 0.358477 0.919531 L 0.210469 0.6825 L 0.3375 0.638516 L 0.575508 0.621523 L 0.780547 0.619531 L 0.916523 0.583516 L 0.902539 0.541523 L 0.781523 0.5525 L 0.664531 0.518516 L 0.670508 0.374492 L 0.766523 0.4325 L 0.754531 0.385508 L 0.678516 0.3975 Z M 0.575508 0.4275 " transform="matrix(100,0,0,100,300,350)"/>
<path style="fill:none;stroke-width:0.01;stroke-linecap:butt;stroke-linejoin:miter;stroke:rgb(0%,0%,0%);stroke-opacity:1;stroke-miterlimit:10;" d="M 0.5175 0.381484 L 0.290469 0.374492 L 0.272461 0.253477 L 0.110469 0.0524609 L 0.0454688 0.0924609 L 0.178477 0.269492 L 0.203477 0.388477 L 0.200469 0.4525 L 0.0654687 0.448477 L 0.0764453 0.536484 L 0.201484 0.530508 L 0.214453 0.591523 L 0.241484 0.730508 L 0.131445 0.904531 L 0.183477 0.947539 L 0.297461 0.752539 L 0.316484 0.589492 L 0.5175 0.568516 L 0.732539 0.619531 L 0.906523 0.621523 L 0.909531 0.561523 L 0.751523 0.536484 L 0.609492 0.471484 L 0.761523 0.4525 L 0.929531 0.469492 L 0.954531 0.399492 L 0.763516 0.388477 Z M 0.5175 0.381484 " transform="matrix(100,0,0,100,450,350)"/>
<path style="fill:none;stroke-width:0.01;stroke-linecap:butt;stroke-linejoin:miter;stroke:rgb(0%,0%,0%);stroke-opacity:1;stroke-miterlimit:10;" d="M 0.496484 0.439492 L 0.264492 0.455508 L 0.179453 0.528516 L 0.100469 0.721523 L 0.0674609 0.679531 L 0.118477 0.520508 L 0.165469 0.4675 L 0.161484 0.5325 L 0.0454688 0.5275 L 0.0504688 0.600508 L 0.160469 0.600508 L 0.171484 0.665508 L 0.151484 0.545508 L 0.0724609 0.354492 L 0.122461 0.278477 L 0.162461 0.505508 L 0.290469 0.658516 L 0.496484 0.656523 L 0.743516 0.656523 L 0.954531 0.620508 L 0.929531 0.554492 L 0.753516 0.568516 L 0.594492 0.535508 L 0.727539 0.476484 L 0.893555 0.465508 L 0.872539 0.381484 L 0.716523 0.405508 Z M 0.496484 0.439492 " transform="matrix(100,0,0,100,600,350)"/>
<path style="fill:none;stroke-width:0.01;stroke-linecap:butt;stroke-linejoin:miter;stroke:rgb(0%,0%,0%);stroke-opacity:1;stroke-miterlimit:10;" d="M 0.519492 0.3325 L 0.323477 0.315469 L 0.291484 0.203477 L 0.163477 0.0454688 L 0.128477 0.0834766 L 0.217461 0.218477 L 0.248477 0.326484 L 0.237461 0.389492 L 0.135469 0.374492 L 0.127461 0.446484 L 0.231484 0.4525 L 0.230469 0.516484 L 0.258477 0.695508 L 0.133477 0.916523 L 0.211484 0.954531 L 0.334492 0.713516 L 0.326484 0.5275 L 0.519492 0.506484 L 0.718516 0.529492 L 0.865547 0.519492 L 0.860547 0.468516 L 0.722539 0.455508 L 0.605508 0.414492 L 0.716523 0.344492 L 0.872539 0.325469 L 0.860547 0.256484 L 0.719531 0.291484 Z M 0.519492 0.3325 " transform="matrix(100,0,0,100,0,500)"/>
<path style="fill:none;stroke-width:0.01;stroke-linecap:butt;stroke-linejoin:miter;stroke:rgb(0%,0%,0%);stroke-opacity:1;stroke-miterlimit:10;" d="M 0.501484 0.366484 L 0.299492 0.348477 L 0.299492 0.276484 L 0.443477 0.330469 L 0.466484 0.288477 L 0.266484 0.205469 L 0.195469 0.348477 L 0.196484 0.4125 L 0.0694531 0.415508 L 0.0714453 0.486484 L 0.191484 0.493516 L 0.199453 0.565508 L 0.173477 0.711523 L 0.0454687 0.854531 L 0.0844531 0.908555 L 0.239492 0.747539 L 0.292461 0.593516 L 0.501484 0.575508 L 0.743516 0.573516 L 0.936562 0.551523 L 0.863555 0.476484 L 0.717539 0.591523 L 0.593516 0.460508 L 0.734531 0.410508 L 0.890547 0.424492 L 0.954531 0.290469 L 0.6775 0.0914453 Z M 0.501484 0.366484 " transform="matrix(100,0,0,100,150,500)"/>
<path style="fill:none;stroke-width:0.01;stroke-linecap:butt;stroke-linejoin:miter;stroke:rgb(0%,0%,0%);stroke-opacity:1;stroke-miterlimit:10;" d="M 0.491484 0.403477 L 0.267461 0.376484 L 0.270469 0.274492 L 0.179453 0.0694531 L 0.115469 0.0774609 L 0.192461 0.270469 L 0.178477 0.378477 L 0.166484 0.446484 L 0.0454687 0.4575 L 0.0484375 0.525508 L 0.162461 0.524492 L 0.171484 0.594492 L 0.180469 0.733516 L 0.0804688 0.894531 L 0.146445 0.930547 L 0.242461 0.755508 L 0.261484 0.609492 L 0.491484 0.600508 L 0.712539 0.626523 L 0.874531 0.605508 L 0.877539 0.5375 L 0.724531 0.539492 L 0.585508 0.496484 L 0.716523 0.455508 L 0.893555 0.460508 L 0.954531 0.335469 L 0.679531 0.151484 Z M 0.491484 0.403477 " transform="matrix(100,0,0,100,300,500)"/>
<path style="fill:none;stroke-width:0.01;stroke-linecap:butt;stroke-linejoin:miter;stroke:rgb(0%,0%,0%);stroke-opacity:1;stroke-miterlimit:10;" d="M 0.4925 0.4525 L 0.254492 0.449492 L 0.225469 0.341484 L 0.0994531 0.197461 L 0.0694531 0.233477 L 0.167461 0.353477 L 0.184453 0.464492 L 0.170469 0.519492 L 0.0474609 0.515508 L 0.0454688 0.591523 L 0.167461 0.594492 L 0.179453 0.654531 L 0.272461 0.802539 L 0.4525 0.695508 L 0.4525 0.648516 L 0.345469 0.641523 L 0.269492 0.6625 L 0.4925 0.6475 L 0.680508 0.668516 L 0.834531 0.6425 L 0.841523 0.589492 L 0.719531 0.585508 L 0.589492 0.559492 L 0.753516 0.449492 L 0.954531 0.416484 L 0.942539 0.320469 L 0.755508 0.368477 Z M 0.4925 0.4525 " transform="matrix(100,0,0,100,450,500)"/>
<path style="fill:none;stroke-width:0.01;stroke-linecap:butt;stroke-linejoin:miter;stroke:rgb(0%,0%,0%);stroke-opacity:1;stroke-miterlimit:10;" d="M 0.526484 0.4075 L 0.287461 0.3925 L 0.264492 0.264492 L 0.120469 0.0824609 L 0.0834766 0.114453 L 0.198477 0.268477 L 0.208477 0.401484 L 0.183477 0.474492 L 0.0584375 0.453477 L 0.0454688 0.534492 L 0.173477 0.554492 L 0.174453 0.6225 L 0.190469 0.768516 L 0.0854688 0.917539 L 0.196484 0.910547 L 0.158477 0.634531 L 0.277461 0.643516 L 0.526484 0.629531 L 0.776523 0.638516 L 0.953555 0.629531 L 0.954531 0.569492 L 0.786523 0.568516 L 0.633516 0.513516 L 0.782539 0.485508 L 0.946562 0.485508 L 0.936562 0.408477 L 0.755508 0.406484 Z M 0.526484 0.4075 " transform="matrix(100,0,0,100,600,500)"/>
<path style="fill:none;stroke-width:0.01;stroke-linecap:butt;stroke-linejoin:miter;stroke:rgb(0%,0%,0%);stroke-opacity:1;stroke-miterlimit:10;" d="M 0.490508 0.479492 L 0.261484 0.468516 L 0.257461 0.346484 L 0.142461 0.166484 L 0.0954688 0.198477 L 0.174453 0.3575 L 0.175469 0.475508 L 0.162461 0.554492 L 0.0454688 0.554492 L 0.0504687 0.6275 L 0.159453 0.628516 L 0.164453 0.695508 L 0.275469 0.833516 L 0.429492 0.693516 L 0.430508 0.661523 L 0.339492 0.658516 L 0.264492 0.697539 L 0.490508 0.708516 L 0.744531 0.714531 L 0.936562 0.6825 L 0.931563 0.608516 L 0.763516 0.6275 L 0.598516 0.590508 L 0.763516 0.530508 L 0.954531 0.530508 L 0.952539 0.451484 L 0.763516 0.4575 Z M 0.490508 0.479492 " transform="matrix(100,0,0,100,0,650)"/>
<path style="fill:none;stroke-width:0.01;stroke-linecap:butt;stroke-linejoin:miter;stroke:rgb(0%,0%,0%);stroke-opacity:1;stroke-miterlimit:10;" d="M 0.5525 0.383477 L 0.321484 0.3975 L 0.278477 0.255469 L 0.114453 0.0454688 L 0.0734766 0.0734766 L 0.216484 0.264492 L 0.235469 0.4025 L 0.236484 0.461484 L 0.124453 0.464492 L 0.122461 0.540508 L 0.238477 0.534492 L 0.245469 0.5875 L 0.261484 0.738516 L 0.146445 0.910547 L 0.197461 0.954531 L 0.311484 0.782539 L 0.330469 0.594492 L 0.5525 0.575508 L 0.758516 0.589492 L 0.920547 0.585508 L 0.908555 0.526484 L 0.775547 0.514492 L 0.638516 0.474492 L 0.767539 0.4525 L 0.916523 0.476484 L 0.926523 0.420508 L 0.773516 0.3925 Z M 0.5525 0.383477 " transform="matrix(100,0,0,100,150,650)"/>
<path style="fill:none;stroke-width:0.01;stroke-linecap:butt;stroke-linejoin:miter;stroke:rgb(0%,0%,0%);stroke-opacity:1;stroke-miterlimit:10;" d="M 0.544492 0.4125 L 0.3325 0.404492 L 0.333477 0.263477 L 0.216484 0.0454688 L 0.163477 0.0784766 L 0.265469 0.287461 L 0.256484 0.410508 L 0.252461 0.473516 L 0.136445 0.483516 L 0.144453 0.5525 L 0.249492 0.545508 L 0.262461 0.6075 L 0.280469 0.742539 L 0.176484 0.916523 L 0.249492 0.954531 L 0.341484 0.769531 L 0.351484 0.615508 L 0.544492 0.5825 L 0.723516 0.5925 L 0.863555 0.571523 L 0.858555 0.525508 L 0.735508 0.525508 L 0.6225 0.488516 L 0.717539 0.463516 L 0.851523 0.461484 L 0.861523 0.390508 L 0.722539 0.391484 Z M 0.544492 0.4125 " transform="matrix(100,0,0,100,300,650)"/>
<path style="fill:none;stroke-width:0.01;stroke-linecap:butt;stroke-linejoin:miter;stroke:rgb(0%,0%,0%);stroke-opacity:1;stroke-miterlimit:10;" d="M 0.531484 0.499492 L 0.288477 0.460508 L 0.280469 0.328477 L 0.159453 0.109453 L 0.119453 0.144453 L 0.207461 0.331484 L 0.191484 0.4625 L 0.183477 0.538516 L 0.0544531 0.529492 L 0.0454688 0.610508 L 0.173477 0.6225 L 0.182461 0.700508 L 0.281484 0.890547 L 0.496484 0.755508 L 0.509492 0.710508 L 0.381484 0.689531 L 0.283477 0.721523 L 0.531484 0.716523 L 0.744531 0.772539 L 0.935547 0.768516 L 0.949531 0.700508 L 0.786523 0.668516 L 0.636523 0.606523 L 0.786523 0.575508 L 0.954531 0.595508 L 0.950547 0.515508 L 0.770508 0.5175 Z M 0.531484 0.499492 " transform="matrix(100,0,0,100,450,650)"/>
<path style="fill:none;stroke-width:0.01;stroke-linecap:butt;stroke-linejoin:miter;stroke:rgb(0%,0%,0%);stroke-opacity:1;stroke-miterlimit:10;" d="M 0.5125 0.495508 L 0.272461 0.489492 L 0.291484 0.359492 L 0.179453 0.124453 L 0.115469 0.159453 L 0.209453 0.364492 L 0.190469 0.4925 L 0.180469 0.564492 L 0.0534375 0.5625 L 0.0454688 0.644531 L 0.170469 0.644531 L 0.179453 0.726523 L 0.282461 0.875547 L 0.430508 0.762539 L 0.414492 0.715508 L 0.282461 0.797539 L 0.264492 0.731523 L 0.5125 0.707539 L 0.733516 0.756523 L 0.941562 0.747539 L 0.954531 0.686523 L 0.775547 0.6575 L 0.620508 0.588516 L 0.760508 0.5125 L 0.944531 0.518516 L 0.936562 0.444492 L 0.748516 0.458477 Z M 0.5125 0.495508 " transform="matrix(100,0,0,100,600,650)"/>
</g>
</svg>
