<?xml version="1.0" encoding="UTF-8"?>
<svg xmlns="http://www.w3.org/2000/svg" xmlns:xlink="http://www.w3.org/1999/xlink" width="750pt" height="3600pt" viewBox="0 0 750 3600" version="1.1">
<g id="surface1">
<path style="fill:none;stroke-width:0.01;stroke-linecap:butt;stroke-linejoin:miter;stroke:rgb(0%,0%,0%);stroke-opacity:1;stroke-miterlimit:10;" d="M 0.943555 0.721523 L 0.939531 0.720508 L 0.938555 0.718516 L 0.932539 0.714531 L 0.931563 0.716523 L 0.936562 0.718516 L 0.937539 0.720508 L 0.937539 0.722539 L 0.0454688 0.268477 L 0.935547 0.722539 L 0.937539 0.723516 L 0.936562 0.724531 L 0.936562 0.727539 L 0.937539 0.731523 L 0.938555 0.730508 L 0.938555 0.725508 L 0.954531 0.725508 L 0.954531 0.723516 L 0.945547 0.723516 L 0.946562 0.719531 L 0.948555 0.720508 L 0.948555 0.719531 L 0.945547 0.718516 Z M 0.943555 0.721523 " transform="matrix(100,0,0,100,0,200)"/>
<path style="fill:none;stroke-width:0.01;stroke-linecap:butt;stroke-linejoin:miter;stroke:rgb(0%,0%,0%);stroke-opacity:1;stroke-miterlimit:10;" d="M 0.375469 0.198477 L 0.374492 0.198477 L 0.868555 0.571523 L 0.954531 0.398477 L 0.374492 0.198477 L 0.373477 0.198477 L 0.373477 0.199453 L 0.0454687 0.446484 L 0.373477 0.199453 L 0.374492 0.199453 L 0.374492 0.202461 L 0.374492 0.200469 L 0.375469 0.200469 L 0.3775 0.199453 L 0.378477 0.199453 L 0.376484 0.199453 L 0.3775 0.199453 L 0.561523 0.801523 L 0.759531 0.6375 L 0.3775 0.198477 Z M 0.375469 0.198477 " transform="matrix(100,0,0,100,150,200)"/>
<path style="fill:none;stroke-width:0.01;stroke-linecap:butt;stroke-linejoin:miter;stroke:rgb(0%,0%,0%);stroke-opacity:1;stroke-miterlimit:10;" d="M 0.566523 0.361484 L 0.421484 0.319492 L 0.436484 0.217461 L 0.528516 0.310469 L 0.5725 0.237461 L 0.404492 0.138477 L 0.309492 0.309492 L 0.298477 0.3975 L 0.0454687 0.386484 L 0.0474609 0.5225 L 0.293477 0.5125 L 0.309492 0.5975 L 0.373477 0.693516 L 0.3525 0.861523 L 0.401484 0.860547 L 0.435508 0.703516 L 0.3975 0.591523 L 0.566523 0.559492 L 0.781523 0.533516 L 0.954531 0.5125 L 0.946563 0.446484 L 0.785547 0.473516 L 0.641523 0.449492 L 0.772539 0.429492 L 0.892539 0.465508 L 0.899531 0.400508 L 0.767539 0.376484 Z M 0.566523 0.361484 " transform="matrix(100,0,0,100,300,200)"/>
<path style="fill:none;stroke-width:0.01;stroke-linecap:butt;stroke-linejoin:miter;stroke:rgb(0%,0%,0%);stroke-opacity:1;stroke-miterlimit:10;" d="M 0.519492 0.235469 L 0.281484 0.251484 L 0.286484 0.168477 L 0.4425 0.121445 L 0.424492 0.0764453 L 0.249492 0.109453 L 0.183477 0.256484 L 0.183477 0.321484 L 0.0524609 0.305469 L 0.0454688 0.3825 L 0.173477 0.406484 L 0.173477 0.473516 L 0.231484 0.6175 L 0.0924609 0.847539 L 0.172461 0.923555 L 0.326484 0.661523 L 0.301484 0.4725 L 0.519492 0.4525 L 0.779531 0.474492 L 0.935547 0.4825 L 0.939531 0.423477 L 0.788516 0.403477 L 0.613516 0.354492 L 0.781523 0.294492 L 0.954531 0.268477 L 0.938555 0.190469 L 0.782539 0.228477 Z M 0.519492 0.235469 " transform="matrix(100,0,0,100,450,200)"/>
<path style="fill:none;stroke-width:0.01;stroke-linecap:butt;stroke-linejoin:miter;stroke:rgb(0%,0%,0%);stroke-opacity:1;stroke-miterlimit:10;" d="M 0.5925 0.0474609 L 0.591523 0.0474609 L 0.591523 0.0464453 L 0.589492 0.0454687 L 0.590508 0.0464453 L 0.590508 0.0474609 L 0.589492 0.0474609 L 0.589492 0.0484375 L 0.590508 0.0484375 L 0.591523 0.0494531 L 0.590508 0.0494531 L 0.590508 0.0484375 L 0.591523 0.0494531 L 0.591523 0.0484375 L 0.5925 0.0484375 L 0.594492 0.0494531 L 0.595508 0.0484375 L 0.403477 0.954531 L 0.594492 0.0484375 L 0.593516 0.0484375 L 0.594492 0.0484375 L 0.595508 0.0494531 L 0.596523 0.0494531 L 0.595508 0.0464453 Z M 0.5925 0.0474609 " transform="matrix(100,0,0,100,600,200)"/>
<path style="fill:none;stroke-width:0.01;stroke-linecap:butt;stroke-linejoin:miter;stroke:rgb(0%,0%,0%);stroke-opacity:1;stroke-miterlimit:10;" d="M 0.134453 0.951563 L 0.132461 0.951563 L 0.132461 0.950547 L 0.133477 0.950547 L 0.133477 0.949531 L 0.132461 0.950547 L 0.132461 0.951563 L 0.131445 0.952539 L 0.132461 0.952539 L 0.132461 0.954531 L 0.132461 0.952539 L 0.137461 0.952539 L 0.134453 0.952539 L 0.137461 0.952539 L 0.868555 0.0454687 L 0.135469 0.951563 Z M 0.134453 0.951563 " transform="matrix(100,0,0,100,0,350)"/>
<path style="fill:none;stroke-width:0.01;stroke-linecap:butt;stroke-linejoin:miter;stroke:rgb(0%,0%,0%);stroke-opacity:1;stroke-miterlimit:10;" d="M 0.3525 0.0474609 L 0.351484 0.0474609 L 0.351484 0.0454687 L 0.351484 0.0474609 L 0.350469 0.0474609 L 0.351484 0.0474609 L 0.351484 0.0484375 L 0.350469 0.0484375 L 0.354492 0.0484375 L 0.263477 0.952539 L 0.648516 0.954531 L 0.736523 0.117461 L 0.353477 0.0474609 L 0.354492 0.0474609 Z M 0.3525 0.0474609 " transform="matrix(100,0,0,100,150,350)"/>
<path style="fill:none;stroke-width:0.01;stroke-linecap:butt;stroke-linejoin:miter;stroke:rgb(0%,0%,0%);stroke-opacity:1;stroke-miterlimit:10;" d="M 0.153477 0.790547 L 0.153477 0.789531 L 0.152461 0.789531 L 0.152461 0.790547 L 0.153477 0.790547 L 0.525508 0.894531 L 0.822539 0.954531 L 0.847539 0.847539 L 0.564492 0.797539 L 0.3575 0.669531 L 0.378477 0.446484 L 0.438477 0.0934766 L 0.293477 0.0454687 L 0.240469 0.4275 Z M 0.153477 0.790547 " transform="matrix(100,0,0,100,300,350)"/>
<path style="fill:none;stroke-width:0.01;stroke-linecap:butt;stroke-linejoin:miter;stroke:rgb(0%,0%,0%);stroke-opacity:1;stroke-miterlimit:10;" d="M 0.529492 0.954531 L 0.529492 0.953555 L 0.470508 0.0454687 Z M 0.529492 0.954531 " transform="matrix(100,0,0,100,450,350)"/>
<path style="fill:none;stroke-width:0.01;stroke-linecap:butt;stroke-linejoin:miter;stroke:rgb(0%,0%,0%);stroke-opacity:1;stroke-miterlimit:10;" d="M 0.0494531 0.483516 L 0.0484375 0.484492 L 0.0474609 0.483516 L 0.0454688 0.481484 L 0.0454688 0.4825 L 0.0474609 0.483516 L 0.0474609 0.484492 L 0.0464453 0.484492 L 0.0464453 0.485508 L 0.0474609 0.485508 L 0.0474609 0.486484 L 0.954531 0.518516 L 0.0474609 0.486484 L 0.0484375 0.485508 L 0.0524609 0.485508 L 0.0514453 0.485508 L 0.0504688 0.484492 L 0.0524609 0.484492 L 0.0524609 0.483516 Z M 0.0494531 0.483516 " transform="matrix(100,0,0,100,600,350)"/>
<path style="fill:none;stroke-width:0.01;stroke-linecap:butt;stroke-linejoin:miter;stroke:rgb(0%,0%,0%);stroke-opacity:1;stroke-miterlimit:10;" d="M 0.500508 0.291484 L 0.245469 0.291484 L 0.203477 0.190469 L 0.0664453 0.129453 L 0.0454688 0.172461 L 0.142461 0.226484 L 0.180469 0.306484 L 0.177461 0.3675 L 0.0784766 0.3725 L 0.0804688 0.433477 L 0.171484 0.4275 L 0.174453 0.489492 L 0.293477 0.686523 L 0.456484 0.870547 L 0.520508 0.812539 L 0.335469 0.604492 L 0.291484 0.491484 L 0.500508 0.486484 L 0.744531 0.479492 L 0.951562 0.494492 L 0.954531 0.418477 L 0.771523 0.404492 L 0.603516 0.386484 L 0.736523 0.3275 L 0.886523 0.318477 L 0.883555 0.246484 L 0.738516 0.271484 Z M 0.500508 0.291484 " transform="matrix(100,0,0,100,0,500)"/>
<path style="fill:none;stroke-width:0.01;stroke-linecap:butt;stroke-linejoin:miter;stroke:rgb(0%,0%,0%);stroke-opacity:1;stroke-miterlimit:10;" d="M 0.393477 0.950547 L 0.3925 0.950547 L 0.3925 0.951563 L 0.391484 0.949531 L 0.609492 0.0454688 L 0.391484 0.951563 L 0.3925 0.950547 L 0.391484 0.951563 L 0.390508 0.951563 L 0.3925 0.953555 L 0.391484 0.954531 L 0.3925 0.954531 L 0.3925 0.952539 L 0.396484 0.952539 L 0.396484 0.951563 L 0.395508 0.952539 L 0.394492 0.951563 L 0.395508 0.951563 L 0.395508 0.952539 L 0.396484 0.952539 L 0.395508 0.950547 Z M 0.393477 0.950547 " transform="matrix(100,0,0,100,150,500)"/>
<path style="fill:none;stroke-width:0.01;stroke-linecap:butt;stroke-linejoin:miter;stroke:rgb(0%,0%,0%);stroke-opacity:1;stroke-miterlimit:10;" d="M 0.314492 0.0454688 L 0.376484 0.954531 L 0.685508 0.830547 Z M 0.314492 0.0454688 " transform="matrix(100,0,0,100,300,500)"/>
<path style="fill:none;stroke-width:0.01;stroke-linecap:butt;stroke-linejoin:miter;stroke:rgb(0%,0%,0%);stroke-opacity:1;stroke-miterlimit:10;" d="M 0.496484 0.4175 L 0.265469 0.411484 L 0.242461 0.267461 L 0.0754687 0.174453 L 0.0454688 0.227461 L 0.160469 0.297461 L 0.183477 0.409492 L 0.178477 0.463516 L 0.0634375 0.466484 L 0.0704687 0.525508 L 0.176484 0.533516 L 0.182461 0.5825 L 0.175469 0.664531 L 0.206484 0.825547 L 0.252461 0.811523 L 0.218477 0.706523 L 0.248477 0.6125 L 0.496484 0.620508 L 0.645508 0.732539 L 0.823516 0.604492 L 0.797539 0.544492 L 0.6575 0.628516 L 0.583516 0.5125 L 0.716523 0.485508 L 0.954531 0.434492 L 0.935547 0.348477 L 0.709531 0.4075 Z M 0.496484 0.4175 " transform="matrix(100,0,0,100,450,500)"/>
<path style="fill:none;stroke-width:0.01;stroke-linecap:butt;stroke-linejoin:miter;stroke:rgb(0%,0%,0%);stroke-opacity:1;stroke-miterlimit:10;" d="M 0.480508 0.580508 L 0.267461 0.560508 L 0.288477 0.424492 L 0.107461 0.107461 L 0.0894531 0.128477 L 0.196484 0.433477 L 0.190469 0.538516 L 0.181484 0.6175 L 0.0614453 0.581523 L 0.0454688 0.664531 L 0.162461 0.697539 L 0.159453 0.763516 L 0.286484 0.892539 L 0.100469 0.830547 L 0.0954688 0.768516 L 0.309492 0.826523 L 0.262461 0.778516 L 0.480508 0.770508 L 0.709531 0.803516 L 0.901523 0.847539 L 0.906523 0.774531 L 0.733516 0.744531 L 0.591523 0.676523 L 0.740508 0.646523 L 0.954531 0.630508 L 0.931563 0.540508 L 0.719531 0.576523 Z M 0.480508 0.580508 " transform="matrix(100,0,0,100,600,500)"/>
<path style="fill:none;stroke-width:0.01;stroke-linecap:butt;stroke-linejoin:miter;stroke:rgb(0%,0%,0%);stroke-opacity:1;stroke-miterlimit:10;" d="M 0.601523 0.458477 L 0.3975 0.4575 L 0.3375 0.361484 L 0.0614453 0.277461 L 0.0454688 0.341484 L 0.280469 0.409492 L 0.335469 0.480508 L 0.339492 0.534492 L 0.263477 0.529492 L 0.255469 0.586523 L 0.3375 0.583516 L 0.343477 0.641523 L 0.368477 0.5825 L 0.455508 0.6625 L 0.479492 0.643516 L 0.4075 0.583516 L 0.406484 0.668516 L 0.601523 0.643516 L 0.751523 0.722539 L 0.902539 0.601523 L 0.850547 0.551523 L 0.753516 0.6325 L 0.679531 0.539492 L 0.796523 0.495508 L 0.880547 0.624531 L 0.954531 0.559492 L 0.822539 0.375469 Z M 0.601523 0.458477 " transform="matrix(100,0,0,100,0,650)"/>
<path style="fill:none;stroke-width:0.01;stroke-linecap:butt;stroke-linejoin:miter;stroke:rgb(0%,0%,0%);stroke-opacity:1;stroke-miterlimit:10;" d="M 0.0554687 0.115469 L 0.0504688 0.115469 L 0.0494531 0.113477 L 0.0464453 0.107461 L 0.0454687 0.108477 L 0.0484375 0.113477 L 0.0494531 0.115469 L 0.0494531 0.117461 L 0.0474609 0.116445 L 0.0464453 0.118477 L 0.0484375 0.119453 L 0.0484375 0.120469 L 0.0484375 0.118477 L 0.0514453 0.119453 L 0.0524609 0.118477 L 0.0494531 0.117461 L 0.0504688 0.120469 L 0.0554687 0.119453 L 0.0574609 0.121445 L 0.0614453 0.120469 L 0.0614453 0.119453 L 0.0584375 0.119453 L 0.0574609 0.117461 L 0.0604688 0.116445 L 0.771523 0.892539 L 0.954531 0.405508 L 0.0604688 0.115469 Z M 0.0554687 0.115469 " transform="matrix(100,0,0,100,150,650)"/>
<path style="fill:none;stroke-width:0.01;stroke-linecap:butt;stroke-linejoin:miter;stroke:rgb(0%,0%,0%);stroke-opacity:1;stroke-miterlimit:10;" d="M 0.516484 0.359492 L 0.249492 0.333477 L 0.123477 0.278477 L 0.0894531 0.141445 L 0.0764453 0.153477 L 0.0864453 0.274492 L 0.165469 0.3725 L 0.158477 0.439492 L 0.0454687 0.4475 L 0.0544531 0.506484 L 0.151484 0.511484 L 0.155469 0.569492 L 0.159453 0.678516 L 0.200469 0.858555 L 0.250469 0.836523 L 0.208477 0.719531 L 0.232461 0.608516 L 0.516484 0.600508 L 0.784531 0.5725 L 0.954531 0.558516 L 0.951563 0.4925 L 0.789531 0.5075 L 0.614492 0.468516 L 0.683516 0.290469 L 0.821523 0.375469 L 0.855547 0.294492 L 0.6575 0.182461 Z M 0.516484 0.359492 " transform="matrix(100,0,0,100,300,650)"/>
<path style="fill:none;stroke-width:0.01;stroke-linecap:butt;stroke-linejoin:miter;stroke:rgb(0%,0%,0%);stroke-opacity:1;stroke-miterlimit:10;" d="M 0.535508 0.283477 L 0.3125 0.267461 L 0.280469 0.156484 L 0.150469 0.698516 L 0.222461 0.680508 L 0.206484 0.102461 L 0.210469 0.265469 L 0.201484 0.3375 L 0.0454688 0.353477 L 0.0614453 0.4375 L 0.209453 0.414492 L 0.224453 0.476484 L 0.305469 0.618516 L 0.253477 0.849531 L 0.3375 0.897539 L 0.394492 0.636523 L 0.336484 0.4675 L 0.535508 0.4775 L 0.766523 0.4675 L 0.950547 0.490508 L 0.954531 0.4225 L 0.785547 0.398477 L 0.611523 0.365469 L 0.739531 0.334492 L 0.853555 0.3575 L 0.870547 0.295469 L 0.735508 0.279492 Z M 0.535508 0.283477 " transform="matrix(100,0,0,100,450,650)"/>
<path style="fill:none;stroke-width:0.01;stroke-linecap:butt;stroke-linejoin:miter;stroke:rgb(0%,0%,0%);stroke-opacity:1;stroke-miterlimit:10;" d="M 0.0764453 0.870547 L 0.0624609 0.871523 L 0.0584375 0.863555 L 0.0474609 0.860547 L 0.0454688 0.863555 L 0.0534375 0.866523 L 0.0574609 0.873555 L 0.0564453 0.877539 L 0.0514453 0.877539 L 0.0514453 0.881523 L 0.0554688 0.882539 L 0.0564453 0.886523 L 0.0614453 0.894531 L 0.0594531 0.908555 L 0.0634375 0.908555 L 0.0664453 0.895547 L 0.0634375 0.885547 L 0.0764453 0.884531 L 0.0944531 0.885547 L 0.111445 0.886523 L 0.111445 0.880547 L 0.0964453 0.879531 L 0.0834766 0.877539 L 0.0934766 0.874531 L 0.954531 0.421484 L 0.625508 0.0914453 L 0.0924609 0.869531 Z M 0.0764453 0.870547 " transform="matrix(100,0,0,100,600,650)"/>
</g>
</svg>
