<?xml version="1.0" encoding="UTF-8"?>
<svg xmlns="http://www.w3.org/2000/svg" xmlns:xlink="http://www.w3.org/1999/xlink" width="750pt" height="3600pt" viewBox="0 0 750 3600" version="1.1">
<g id="surface1">
<path style="fill:none;stroke-width:0.01;stroke-linecap:butt;stroke-linejoin:miter;stroke:rgb(0%,0%,0%);stroke-opacity:1;stroke-miterlimit:10;" d="M 0.494492 0.0454687 L 0.419492 0.0484375 L 0.4225 0.176484 L 0.351484 0.214453 L 0.330469 0.4025 L 0.391484 0.604492 L 0.446484 0.586523 L 0.393477 0.431484 L 0.393477 0.291484 L 0.418477 0.5375 L 0.421484 0.782539 L 0.434492 0.954531 L 0.509492 0.939531 L 0.494492 0.772539 L 0.509492 0.6075 L 0.568516 0.756523 L 0.590508 0.921523 L 0.669531 0.905547 L 0.634531 0.731523 L 0.590508 0.5225 L 0.565508 0.297461 L 0.594492 0.4225 L 0.581523 0.553516 L 0.636523 0.576523 L 0.639531 0.408477 L 0.584492 0.207461 L 0.500508 0.178477 Z M 0.494492 0.0454687 " transform="matrix(100,0,0,100,0,200)"/>
<path style="fill:none;stroke-width:0.01;stroke-linecap:butt;stroke-linejoin:miter;stroke:rgb(0%,0%,0%);stroke-opacity:1;stroke-miterlimit:10;" d="M 0.543516 0.385508 L 0.569492 0.518516 L 0.629531 0.524492 L 0.5825 0.355469 L 0.471484 0.178477 L 0.379492 0.175469 L 0.333477 0.0454687 L 0.262461 0.0714453 L 0.301484 0.195469 L 0.243477 0.253477 L 0.276484 0.446484 L 0.395508 0.6325 L 0.446484 0.5975 L 0.346484 0.456484 L 0.304492 0.316484 L 0.403477 0.551523 L 0.476484 0.791523 L 0.543516 0.954531 L 0.611523 0.918555 L 0.5475 0.760508 L 0.5125 0.593516 L 0.613516 0.720508 L 0.683516 0.879531 L 0.756523 0.839531 L 0.671523 0.678516 L 0.566523 0.484492 L 0.479492 0.270469 Z M 0.543516 0.385508 " transform="matrix(100,0,0,100,150,200)"/>
<path style="fill:none;stroke-width:0.01;stroke-linecap:butt;stroke-linejoin:miter;stroke:rgb(0%,0%,0%);stroke-opacity:1;stroke-miterlimit:10;" d="M 0.413477 0.421484 L 0.543516 0.424492 L 0.560508 0.368477 L 0.393477 0.378477 L 0.202461 0.445508 L 0.178477 0.5325 L 0.0454687 0.5475 L 0.0544531 0.6225 L 0.181484 0.608516 L 0.223477 0.676523 L 0.413477 0.685508 L 0.611523 0.6125 L 0.586523 0.5575 L 0.434492 0.6225 L 0.296484 0.631523 L 0.540508 0.588516 L 0.783516 0.571523 L 0.954531 0.544492 L 0.934531 0.4725 L 0.768516 0.4975 L 0.604492 0.493516 L 0.748516 0.424492 L 0.913555 0.391484 L 0.891523 0.314492 L 0.718516 0.361484 L 0.5125 0.421484 L 0.291484 0.4575 Z M 0.413477 0.421484 " transform="matrix(100,0,0,100,300,200)"/>
<path style="fill:none;stroke-width:0.01;stroke-linecap:butt;stroke-linejoin:miter;stroke:rgb(0%,0%,0%);stroke-opacity:1;stroke-miterlimit:10;" d="M 0.581523 0.210469 L 0.494492 0.180469 L 0.489492 0.0454687 L 0.413477 0.0504687 L 0.419492 0.179453 L 0.349492 0.218477 L 0.329492 0.4075 L 0.390508 0.610508 L 0.446484 0.5925 L 0.391484 0.434492 L 0.391484 0.295469 L 0.4175 0.540508 L 0.420508 0.783516 L 0.434492 0.954531 L 0.508516 0.940547 L 0.494492 0.773516 L 0.5075 0.609492 L 0.5675 0.757539 L 0.590508 0.921523 L 0.670508 0.905547 L 0.633516 0.731523 L 0.5875 0.525508 L 0.563516 0.302461 L 0.593516 0.424492 L 0.581523 0.553516 L 0.636523 0.5775 L 0.638516 0.4075 Z M 0.581523 0.210469 " transform="matrix(100,0,0,100,450,200)"/>
<path style="fill:none;stroke-width:0.01;stroke-linecap:butt;stroke-linejoin:miter;stroke:rgb(0%,0%,0%);stroke-opacity:1;stroke-miterlimit:10;" d="M 0.811523 0.3425 L 0.763516 0.278477 L 0.570508 0.295469 L 0.381484 0.394492 L 0.410508 0.445508 L 0.554492 0.359492 L 0.691523 0.335469 L 0.455508 0.404492 L 0.212461 0.4575 L 0.0454688 0.505508 L 0.0744531 0.576523 L 0.236484 0.528516 L 0.400508 0.513516 L 0.265469 0.5975 L 0.108477 0.649531 L 0.138477 0.721523 L 0.302461 0.656523 L 0.500508 0.5725 L 0.719531 0.508516 L 0.601523 0.559492 L 0.471484 0.573516 L 0.4575 0.631523 L 0.625508 0.600508 L 0.811523 0.508516 L 0.823516 0.418477 L 0.954531 0.3875 L 0.937539 0.313477 Z M 0.811523 0.3425 " transform="matrix(100,0,0,100,600,200)"/>
<path style="fill:none;stroke-width:0.01;stroke-linecap:butt;stroke-linejoin:miter;stroke:rgb(0%,0%,0%);stroke-opacity:1;stroke-miterlimit:10;" d="M 0.779531 0.616523 L 0.5575 0.4325 L 0.3575 0.223477 L 0.204453 0.0914453 L 0.155469 0.163477 L 0.300469 0.292461 L 0.4225 0.440508 L 0.252461 0.363477 L 0.100469 0.240469 L 0.0454688 0.318477 L 0.217461 0.440508 L 0.425508 0.581523 L 0.625508 0.752539 L 0.501484 0.670508 L 0.410508 0.550508 L 0.3475 0.574492 L 0.4775 0.719531 L 0.683516 0.842539 L 0.779531 0.799531 L 0.892539 0.908555 L 0.954531 0.845547 L 0.846523 0.738516 L 0.875547 0.649531 L 0.740508 0.471484 L 0.524492 0.3475 L 0.491484 0.408477 L 0.6675 0.498516 Z M 0.779531 0.616523 " transform="matrix(100,0,0,100,0,350)"/>
<path style="fill:none;stroke-width:0.01;stroke-linecap:butt;stroke-linejoin:miter;stroke:rgb(0%,0%,0%);stroke-opacity:1;stroke-miterlimit:10;" d="M 0.539492 0.163477 L 0.425508 0.325469 L 0.381484 0.541523 L 0.4425 0.551523 L 0.465508 0.384492 L 0.5325 0.257461 L 0.438477 0.493516 L 0.318477 0.715508 L 0.244492 0.880547 L 0.319492 0.904531 L 0.391484 0.744531 L 0.4875 0.601523 L 0.466484 0.766523 L 0.403477 0.929531 L 0.483516 0.954531 L 0.539492 0.775547 L 0.6025 0.561523 L 0.693516 0.344492 L 0.655508 0.4725 L 0.579492 0.585508 L 0.620508 0.633516 L 0.705508 0.478516 L 0.755508 0.273477 L 0.6925 0.203477 L 0.753516 0.0804688 L 0.683516 0.0454687 L 0.6225 0.163477 Z M 0.539492 0.163477 " transform="matrix(100,0,0,100,150,350)"/>
<path style="fill:none;stroke-width:0.01;stroke-linecap:butt;stroke-linejoin:miter;stroke:rgb(0%,0%,0%);stroke-opacity:1;stroke-miterlimit:10;" d="M 0.609492 0.3925 L 0.5525 0.410508 L 0.609492 0.568516 L 0.610508 0.708516 L 0.583516 0.460508 L 0.578516 0.216484 L 0.561523 0.0454687 L 0.489492 0.0604688 L 0.504492 0.226484 L 0.489492 0.390508 L 0.428477 0.240469 L 0.4075 0.0734766 L 0.329492 0.0894531 L 0.363477 0.265469 L 0.409492 0.474492 L 0.435508 0.697539 L 0.4075 0.574492 L 0.418477 0.444492 L 0.3625 0.423477 L 0.359492 0.5925 L 0.414492 0.791523 L 0.499492 0.820547 L 0.505508 0.954531 L 0.580508 0.951563 L 0.576523 0.822539 L 0.648516 0.784531 L 0.670508 0.594492 Z M 0.609492 0.3925 " transform="matrix(100,0,0,100,300,350)"/>
<path style="fill:none;stroke-width:0.01;stroke-linecap:butt;stroke-linejoin:miter;stroke:rgb(0%,0%,0%);stroke-opacity:1;stroke-miterlimit:10;" d="M 0.519492 0.255469 L 0.358477 0.425508 L 0.4075 0.470508 L 0.526484 0.329492 L 0.661523 0.251484 L 0.440508 0.413477 L 0.205469 0.551523 L 0.0454688 0.665508 L 0.102461 0.728516 L 0.255469 0.621523 L 0.424492 0.538516 L 0.316484 0.679531 L 0.169453 0.794531 L 0.229492 0.860547 L 0.3775 0.729531 L 0.553516 0.568516 L 0.757539 0.4175 L 0.6525 0.516484 L 0.519492 0.5775 L 0.530508 0.6425 L 0.691523 0.549492 L 0.847539 0.3875 L 0.828516 0.290469 L 0.954531 0.209453 L 0.907539 0.139453 L 0.788516 0.214453 L 0.712539 0.168477 Z M 0.519492 0.255469 " transform="matrix(100,0,0,100,450,350)"/>
<path style="fill:none;stroke-width:0.01;stroke-linecap:butt;stroke-linejoin:miter;stroke:rgb(0%,0%,0%);stroke-opacity:1;stroke-miterlimit:10;" d="M 0.6575 0.4075 L 0.444492 0.381484 L 0.439492 0.441484 L 0.606523 0.453477 L 0.736523 0.510508 L 0.495508 0.431484 L 0.266484 0.331484 L 0.0964453 0.275469 L 0.0794531 0.3525 L 0.244492 0.4075 L 0.394492 0.486484 L 0.228477 0.481484 L 0.0634375 0.433477 L 0.0454688 0.513516 L 0.223477 0.554492 L 0.439492 0.599492 L 0.6575 0.671523 L 0.530508 0.646523 L 0.415508 0.580508 L 0.3725 0.6225 L 0.5275 0.694531 L 0.735508 0.724531 L 0.798516 0.658516 L 0.926523 0.709531 L 0.954531 0.6375 L 0.832539 0.588516 L 0.825547 0.505508 Z M 0.6575 0.4075 " transform="matrix(100,0,0,100,600,350)"/>
<path style="fill:none;stroke-width:0.01;stroke-linecap:butt;stroke-linejoin:miter;stroke:rgb(0%,0%,0%);stroke-opacity:1;stroke-miterlimit:10;" d="M 0.391484 0.0564453 L 0.398477 0.236484 L 0.4125 0.4525 L 0.399492 0.6875 L 0.391484 0.554492 L 0.4225 0.428477 L 0.371484 0.398477 L 0.344492 0.565508 L 0.370469 0.769531 L 0.450508 0.812539 L 0.435508 0.947539 L 0.511484 0.954531 L 0.525508 0.826523 L 0.603516 0.798516 L 0.655508 0.611523 L 0.623516 0.398477 L 0.564492 0.406484 L 0.596523 0.5725 L 0.576523 0.715508 L 0.586523 0.465508 L 0.621523 0.220469 L 0.631523 0.0454688 L 0.556523 0.0484375 L 0.544492 0.217461 L 0.506484 0.380469 L 0.469492 0.222461 L 0.4725 0.0514453 Z M 0.391484 0.0564453 " transform="matrix(100,0,0,100,0,500)"/>
<path style="fill:none;stroke-width:0.01;stroke-linecap:butt;stroke-linejoin:miter;stroke:rgb(0%,0%,0%);stroke-opacity:1;stroke-miterlimit:10;" d="M 0.605508 0.376484 L 0.554492 0.4075 L 0.645508 0.5475 L 0.681523 0.684531 L 0.596523 0.448477 L 0.530508 0.208477 L 0.474492 0.0454688 L 0.405508 0.0784766 L 0.464492 0.237461 L 0.491484 0.4025 L 0.396484 0.271484 L 0.333477 0.114453 L 0.258477 0.148477 L 0.3375 0.3125 L 0.4325 0.508516 L 0.515508 0.722539 L 0.455508 0.608516 L 0.4325 0.4775 L 0.371484 0.469492 L 0.411484 0.635508 L 0.515508 0.814531 L 0.605508 0.823516 L 0.641523 0.954531 L 0.713516 0.932539 L 0.680508 0.808516 L 0.741523 0.753516 L 0.715508 0.559492 Z M 0.605508 0.376484 " transform="matrix(100,0,0,100,150,500)"/>
<path style="fill:none;stroke-width:0.01;stroke-linecap:butt;stroke-linejoin:miter;stroke:rgb(0%,0%,0%);stroke-opacity:1;stroke-miterlimit:10;" d="M 0.459492 0.273477 L 0.354492 0.488516 L 0.416484 0.515508 L 0.489492 0.339492 L 0.5975 0.219453 L 0.429492 0.451484 L 0.244492 0.656523 L 0.125469 0.813516 L 0.197461 0.858555 L 0.314492 0.707539 L 0.456484 0.581523 L 0.3875 0.751523 L 0.277461 0.906523 L 0.354492 0.954531 L 0.459492 0.780547 L 0.584492 0.573516 L 0.738516 0.369492 L 0.664531 0.494492 L 0.554492 0.5925 L 0.584492 0.654531 L 0.715508 0.513516 L 0.823516 0.308477 L 0.775547 0.218477 L 0.874531 0.101445 L 0.810547 0.0454688 L 0.716523 0.155469 L 0.626523 0.131445 Z M 0.459492 0.273477 " transform="matrix(100,0,0,100,300,500)"/>
<path style="fill:none;stroke-width:0.01;stroke-linecap:butt;stroke-linejoin:miter;stroke:rgb(0%,0%,0%);stroke-opacity:1;stroke-miterlimit:10;" d="M 0.416484 0.484492 L 0.4525 0.707539 L 0.416484 0.584492 L 0.421484 0.453477 L 0.3675 0.434492 L 0.373477 0.603516 L 0.438477 0.797539 L 0.525508 0.822539 L 0.538516 0.954531 L 0.613516 0.947539 L 0.6025 0.819531 L 0.669531 0.778516 L 0.681523 0.590508 L 0.6125 0.388477 L 0.5575 0.411484 L 0.618516 0.565508 L 0.623516 0.706523 L 0.584492 0.463516 L 0.574492 0.216484 L 0.548516 0.0454688 L 0.476484 0.0644531 L 0.500508 0.229492 L 0.493516 0.394492 L 0.4275 0.247461 L 0.398477 0.0844531 L 0.318477 0.104453 L 0.361484 0.277461 Z M 0.416484 0.484492 " transform="matrix(100,0,0,100,450,500)"/>
<path style="fill:none;stroke-width:0.01;stroke-linecap:butt;stroke-linejoin:miter;stroke:rgb(0%,0%,0%);stroke-opacity:1;stroke-miterlimit:10;" d="M 0.626523 0.0744531 L 0.5475 0.0454688 L 0.4775 0.219453 L 0.401484 0.434492 L 0.298477 0.649531 L 0.341484 0.520508 L 0.423477 0.409492 L 0.386484 0.359492 L 0.289492 0.510508 L 0.226484 0.717539 L 0.287461 0.793516 L 0.216484 0.916523 L 0.285469 0.954531 L 0.350469 0.835547 L 0.435508 0.841523 L 0.563516 0.686523 L 0.624531 0.471484 L 0.564492 0.4575 L 0.529492 0.631523 L 0.449492 0.756523 L 0.568516 0.520508 L 0.701523 0.295469 L 0.783516 0.132461 L 0.707539 0.104453 L 0.626523 0.263477 L 0.519492 0.4025 L 0.550508 0.237461 Z M 0.626523 0.0744531 " transform="matrix(100,0,0,100,600,500)"/>
<path style="fill:none;stroke-width:0.01;stroke-linecap:butt;stroke-linejoin:miter;stroke:rgb(0%,0%,0%);stroke-opacity:1;stroke-miterlimit:10;" d="M 0.426484 0.199453 L 0.302461 0.0454688 L 0.242461 0.105469 L 0.360469 0.254492 L 0.448477 0.421484 L 0.300469 0.315469 L 0.176484 0.168477 L 0.109453 0.233477 L 0.252461 0.381484 L 0.426484 0.556523 L 0.588516 0.756523 L 0.484492 0.654531 L 0.411484 0.521484 L 0.346484 0.534492 L 0.450508 0.698516 L 0.6275 0.854531 L 0.730508 0.829531 L 0.820547 0.954531 L 0.890547 0.903555 L 0.804531 0.782539 L 0.847539 0.700508 L 0.749531 0.506484 L 0.564492 0.351484 L 0.523516 0.404492 L 0.673516 0.520508 L 0.759531 0.654531 L 0.581523 0.433477 Z M 0.426484 0.199453 " transform="matrix(100,0,0,100,0,650)"/>
<path style="fill:none;stroke-width:0.01;stroke-linecap:butt;stroke-linejoin:miter;stroke:rgb(0%,0%,0%);stroke-opacity:1;stroke-miterlimit:10;" d="M 0.504492 0.605508 L 0.575508 0.749531 L 0.609492 0.918555 L 0.689531 0.894531 L 0.640508 0.717539 L 0.578516 0.5125 L 0.5375 0.292461 L 0.575508 0.4125 L 0.573516 0.538516 L 0.6275 0.555508 L 0.6175 0.3925 L 0.546523 0.201484 L 0.459492 0.177461 L 0.444492 0.0454688 L 0.370469 0.0544531 L 0.384492 0.182461 L 0.3175 0.226484 L 0.310469 0.416484 L 0.3875 0.614492 L 0.441484 0.589492 L 0.374492 0.439492 L 0.361484 0.299492 L 0.409492 0.5425 L 0.431484 0.786523 L 0.4625 0.954531 L 0.533516 0.933555 L 0.504492 0.770508 Z M 0.504492 0.605508 " transform="matrix(100,0,0,100,150,650)"/>
<path style="fill:none;stroke-width:0.01;stroke-linecap:butt;stroke-linejoin:miter;stroke:rgb(0%,0%,0%);stroke-opacity:1;stroke-miterlimit:10;" d="M 0.548516 0.414492 L 0.594492 0.5725 L 0.5875 0.714531 L 0.573516 0.464492 L 0.586523 0.219453 L 0.5775 0.0454688 L 0.501484 0.0574609 L 0.511484 0.225469 L 0.489492 0.389492 L 0.435508 0.238477 L 0.424492 0.0714453 L 0.343477 0.0824609 L 0.369492 0.260469 L 0.401484 0.470508 L 0.413477 0.696523 L 0.393477 0.570508 L 0.414492 0.439492 L 0.359492 0.414492 L 0.346484 0.585508 L 0.391484 0.785547 L 0.474492 0.819531 L 0.473516 0.954531 L 0.548516 0.953555 L 0.551523 0.827539 L 0.624531 0.792539 L 0.656523 0.603516 L 0.606523 0.3975 Z M 0.548516 0.414492 " transform="matrix(100,0,0,100,300,650)"/>
<path style="fill:none;stroke-width:0.01;stroke-linecap:butt;stroke-linejoin:miter;stroke:rgb(0%,0%,0%);stroke-opacity:1;stroke-miterlimit:10;" d="M 0.414492 0.178477 L 0.345469 0.217461 L 0.326484 0.406484 L 0.391484 0.608516 L 0.446484 0.588516 L 0.389492 0.4325 L 0.391484 0.293477 L 0.414492 0.539492 L 0.423477 0.783516 L 0.441484 0.954531 L 0.514492 0.936562 L 0.499492 0.770508 L 0.510508 0.605508 L 0.570508 0.753516 L 0.593516 0.920547 L 0.673516 0.902539 L 0.634531 0.727539 L 0.586523 0.518516 L 0.555508 0.293477 L 0.5875 0.4175 L 0.579492 0.549492 L 0.636523 0.571523 L 0.635508 0.404492 L 0.576523 0.207461 L 0.490508 0.179453 L 0.483516 0.0454688 L 0.4075 0.0494531 Z M 0.414492 0.178477 " transform="matrix(100,0,0,100,450,650)"/>
<path style="fill:none;stroke-width:0.01;stroke-linecap:butt;stroke-linejoin:miter;stroke:rgb(0%,0%,0%);stroke-opacity:1;stroke-miterlimit:10;" d="M 0.560508 0.0624609 L 0.478516 0.0454688 L 0.440508 0.224453 L 0.400508 0.440508 L 0.3325 0.660508 L 0.356484 0.533516 L 0.420508 0.416484 L 0.379492 0.373477 L 0.310469 0.529492 L 0.282461 0.736523 L 0.349492 0.798516 L 0.299492 0.928555 L 0.3725 0.954531 L 0.418477 0.832539 L 0.5025 0.824531 L 0.598516 0.655508 L 0.620508 0.439492 L 0.560508 0.436484 L 0.551523 0.605508 L 0.493516 0.737539 L 0.570508 0.494492 L 0.663516 0.262461 L 0.717539 0.0924609 L 0.641523 0.0774609 L 0.590508 0.241484 L 0.510508 0.390508 L 0.514492 0.227461 Z M 0.560508 0.0624609 " transform="matrix(100,0,0,100,600,650)"/>
</g>
</svg>
