<?xml version="1.0" encoding="UTF-8"?>
<svg xmlns="http://www.w3.org/2000/svg" xmlns:xlink="http://www.w3.org/1999/xlink" width="750pt" height="3600pt" viewBox="0 0 750 3600" version="1.1">
<g id="surface1">
<path style="fill:none;stroke-width:0.01;stroke-linecap:butt;stroke-linejoin:miter;stroke:rgb(0%,0%,0%);stroke-opacity:1;stroke-miterlimit:10;" d="M 0.4925 0.4075 L 0.302461 0.383477 L 0.268477 0.276484 L 0.167461 0.0454687 L 0.113477 0.0624609 L 0.222461 0.249492 L 0.223477 0.384492 L 0.212461 0.446484 L 0.122461 0.436484 L 0.119453 0.493516 L 0.204453 0.504492 L 0.200469 0.566523 L 0.254492 0.720508 L 0.290469 0.954531 L 0.385508 0.937539 L 0.320469 0.720508 L 0.283477 0.581523 L 0.4925 0.601523 L 0.709531 0.625508 L 0.886523 0.609492 L 0.874531 0.539492 L 0.718516 0.543516 L 0.584492 0.494492 L 0.719531 0.234492 L 0.822539 0.448477 L 0.834531 0.379492 L 0.685508 0.364492 Z M 0.4925 0.4075 " transform="matrix(100,0,0,100,0,200)"/>
<path style="fill:none;stroke-width:0.01;stroke-linecap:butt;stroke-linejoin:miter;stroke:rgb(0%,0%,0%);stroke-opacity:1;stroke-miterlimit:10;" d="M 0.609492 0.390508 L 0.4175 0.389492 L 0.380469 0.300469 L 0.296484 0.100469 L 0.260469 0.120469 L 0.343477 0.284492 L 0.334492 0.4025 L 0.329492 0.448477 L 0.224453 0.444492 L 0.227461 0.511484 L 0.330469 0.514492 L 0.3375 0.575508 L 0.0454687 0.820547 L 0.454492 0.899531 L 0.525508 0.882539 L 0.448477 0.688516 L 0.410508 0.5925 L 0.609492 0.5625 L 0.792539 0.600508 L 0.940547 0.5925 L 0.946563 0.5325 L 0.815547 0.524492 L 0.6875 0.474492 L 0.847539 0.192461 L 0.938555 0.436484 L 0.954531 0.380469 L 0.800547 0.364492 Z M 0.609492 0.390508 " transform="matrix(100,0,0,100,150,200)"/>
<path style="fill:none;stroke-width:0.01;stroke-linecap:butt;stroke-linejoin:miter;stroke:rgb(0%,0%,0%);stroke-opacity:1;stroke-miterlimit:10;" d="M 0.629531 0.344492 L 0.445508 0.363477 L 0.625508 0.3975 L 0.338477 0.5775 L 0.289492 0.558516 L 0.334492 0.421484 L 0.364492 0.366484 L 0.363477 0.423477 L 0.265469 0.416484 L 0.263477 0.478516 L 0.358477 0.486484 L 0.363477 0.543516 L 0.0454687 0.6825 L 0.398477 0.866523 L 0.471484 0.845547 L 0.460508 0.664531 L 0.444492 0.5575 L 0.629531 0.526484 L 0.829531 0.5325 L 0.954531 0.500508 L 0.939531 0.4525 L 0.822539 0.466484 L 0.708516 0.431484 L 0.835547 0.166484 L 0.936562 0.374492 L 0.926523 0.3125 L 0.711523 0.133477 Z M 0.629531 0.344492 " transform="matrix(100,0,0,100,300,200)"/>
<path style="fill:none;stroke-width:0.01;stroke-linecap:butt;stroke-linejoin:miter;stroke:rgb(0%,0%,0%);stroke-opacity:1;stroke-miterlimit:10;" d="M 0.643516 0.358477 L 0.469492 0.363477 L 0.280469 0.489492 L 0.368477 0.0884766 L 0.3275 0.116445 L 0.403477 0.260469 L 0.399492 0.364492 L 0.3925 0.420508 L 0.306484 0.423477 L 0.308477 0.471484 L 0.390508 0.475508 L 0.3975 0.525508 L 0.0454688 0.792539 L 0.531484 0.911523 L 0.605508 0.883555 L 0.510508 0.659531 L 0.460508 0.5275 L 0.643516 0.514492 L 0.803516 0.523516 L 0.927539 0.5025 L 0.918555 0.4475 L 0.814531 0.471484 L 0.709531 0.4425 L 0.900547 0.232461 L 0.951563 0.453477 L 0.954531 0.390508 L 0.777539 0.170469 Z M 0.643516 0.358477 " transform="matrix(100,0,0,100,450,200)"/>
<path style="fill:none;stroke-width:0.01;stroke-linecap:butt;stroke-linejoin:miter;stroke:rgb(0%,0%,0%);stroke-opacity:1;stroke-miterlimit:10;" d="M 0.504492 0.365469 L 0.267461 0.3525 L 0.221484 0.267461 L 0.130469 0.0454687 L 0.0814453 0.0684375 L 0.182461 0.244492 L 0.179453 0.361484 L 0.173477 0.429492 L 0.0514453 0.4275 L 0.0564453 0.504492 L 0.170469 0.501484 L 0.174453 0.563516 L 0.243477 0.712539 L 0.326484 0.954531 L 0.414492 0.923555 L 0.301484 0.694531 L 0.271484 0.570508 L 0.504492 0.574492 L 0.710508 0.600508 L 0.876523 0.583516 L 0.862539 0.534492 L 0.730508 0.541523 L 0.5975 0.474492 L 0.765508 0.425508 L 0.941562 0.469492 L 0.948555 0.3775 L 0.6675 0.0614453 Z M 0.504492 0.365469 " transform="matrix(100,0,0,100,600,200)"/>
<path style="fill:none;stroke-width:0.01;stroke-linecap:butt;stroke-linejoin:miter;stroke:rgb(0%,0%,0%);stroke-opacity:1;stroke-miterlimit:10;" d="M 0.495508 0.338477 L 0.275469 0.331484 L 0.131445 0.446484 L 0.181484 0.123477 L 0.142461 0.144453 L 0.211484 0.255469 L 0.215469 0.3375 L 0.207461 0.398477 L 0.0934766 0.388477 L 0.0914453 0.458477 L 0.198477 0.469492 L 0.204453 0.529492 L 0.249492 0.690508 L 0.292461 0.954531 L 0.380469 0.925547 L 0.3125 0.673516 L 0.286484 0.538516 L 0.495508 0.533516 L 0.724531 0.549492 L 0.892539 0.5375 L 0.885547 0.4725 L 0.731523 0.4825 L 0.599492 0.4275 L 0.738516 0.351484 L 0.908555 0.3575 L 0.907539 0.275469 L 0.584492 0.0454687 Z M 0.495508 0.338477 " transform="matrix(100,0,0,100,0,350)"/>
<path style="fill:none;stroke-width:0.01;stroke-linecap:butt;stroke-linejoin:miter;stroke:rgb(0%,0%,0%);stroke-opacity:1;stroke-miterlimit:10;" d="M 0.519492 0.230469 L 0.282461 0.251484 L 0.486484 0.338477 L 0.0794531 0.4825 L 0.0454687 0.438477 L 0.132461 0.304492 L 0.188477 0.245469 L 0.188477 0.321484 L 0.0644531 0.321484 L 0.0624609 0.404492 L 0.186484 0.401484 L 0.189453 0.476484 L 0.277461 0.614492 L 0.385508 0.836523 L 0.445508 0.813516 L 0.341484 0.609492 L 0.281484 0.490508 L 0.519492 0.4475 L 0.754531 0.464492 L 0.954531 0.446484 L 0.944531 0.375469 L 0.777539 0.385508 L 0.615508 0.333477 L 0.727539 0.260469 L 0.876523 0.251484 L 0.877539 0.163477 L 0.707539 0.172461 Z M 0.519492 0.230469 " transform="matrix(100,0,0,100,150,350)"/>
<path style="fill:none;stroke-width:0.01;stroke-linecap:butt;stroke-linejoin:miter;stroke:rgb(0%,0%,0%);stroke-opacity:1;stroke-miterlimit:10;" d="M 0.499492 0.3475 L 0.305469 0.364492 L 0.246484 0.245469 L 0.455508 0.356484 L 0.478516 0.308477 L 0.300469 0.232461 L 0.215469 0.3525 L 0.207461 0.414492 L 0.106445 0.4075 L 0.104453 0.475508 L 0.199453 0.475508 L 0.206484 0.529492 L 0.242461 0.689531 L 0.3175 0.954531 L 0.3975 0.938555 L 0.326484 0.679531 L 0.289492 0.550508 L 0.499492 0.541523 L 0.708516 0.538516 L 0.856523 0.504492 L 0.843516 0.4525 L 0.715508 0.463516 L 0.5925 0.439492 L 0.721523 0.368477 L 0.888555 0.388477 L 0.895547 0.301484 L 0.584492 0.0454687 Z M 0.499492 0.3475 " transform="matrix(100,0,0,100,300,350)"/>
<path style="fill:none;stroke-width:0.01;stroke-linecap:butt;stroke-linejoin:miter;stroke:rgb(0%,0%,0%);stroke-opacity:1;stroke-miterlimit:10;" d="M 0.526484 0.343477 L 0.310469 0.329492 L 0.141445 0.5325 L 0.135469 0.0454687 L 0.0944531 0.0764453 L 0.209453 0.222461 L 0.233477 0.341484 L 0.225469 0.401484 L 0.0864453 0.394492 L 0.0774609 0.483516 L 0.212461 0.480508 L 0.218477 0.545508 L 0.231484 0.699531 L 0.229492 0.954531 L 0.346484 0.949531 L 0.3175 0.697539 L 0.313477 0.569492 L 0.526484 0.534492 L 0.736523 0.541523 L 0.922539 0.533516 L 0.921523 0.4675 L 0.762539 0.480508 L 0.614492 0.4325 L 0.736523 0.383477 L 0.893555 0.394492 L 0.913555 0.319492 L 0.651523 0.0664453 Z M 0.526484 0.343477 " transform="matrix(100,0,0,100,450,350)"/>
<path style="fill:none;stroke-width:0.01;stroke-linecap:butt;stroke-linejoin:miter;stroke:rgb(0%,0%,0%);stroke-opacity:1;stroke-miterlimit:10;" d="M 0.506484 0.313477 L 0.3275 0.3325 L 0.241484 0.195469 L 0.510508 0.273477 L 0.521484 0.206484 L 0.288477 0.158477 L 0.226484 0.334492 L 0.218477 0.395508 L 0.107461 0.383477 L 0.103477 0.460508 L 0.211484 0.4675 L 0.219453 0.534492 L 0.273477 0.707539 L 0.3475 0.954531 L 0.446484 0.926523 L 0.3575 0.689531 L 0.309492 0.5425 L 0.506484 0.513516 L 0.716523 0.525508 L 0.896523 0.543516 L 0.886523 0.480508 L 0.734531 0.474492 L 0.599492 0.409492 L 0.702539 0.348477 L 0.844531 0.345469 L 0.852539 0.268477 L 0.614492 0.0454687 Z M 0.506484 0.313477 " transform="matrix(100,0,0,100,600,350)"/>
<path style="fill:none;stroke-width:0.01;stroke-linecap:butt;stroke-linejoin:miter;stroke:rgb(0%,0%,0%);stroke-opacity:1;stroke-miterlimit:10;" d="M 0.5125 0.292461 L 0.311484 0.294492 L 0.268477 0.201484 L 0.163477 0.0454688 L 0.132461 0.0744531 L 0.234492 0.217461 L 0.237461 0.311484 L 0.234492 0.363477 L 0.138477 0.363477 L 0.133477 0.426484 L 0.237461 0.424492 L 0.248477 0.473516 L 0.251484 0.6625 L 0.264492 0.954531 L 0.366484 0.947539 L 0.326484 0.6475 L 0.325469 0.4925 L 0.5125 0.471484 L 0.704531 0.474492 L 0.862539 0.459492 L 0.855547 0.409492 L 0.719531 0.423477 L 0.601523 0.379492 L 0.711523 0.288477 L 0.867539 0.278477 L 0.858555 0.211484 L 0.581523 0.0474609 Z M 0.5125 0.292461 " transform="matrix(100,0,0,100,0,500)"/>
<path style="fill:none;stroke-width:0.01;stroke-linecap:butt;stroke-linejoin:miter;stroke:rgb(0%,0%,0%);stroke-opacity:1;stroke-miterlimit:10;" d="M 0.6125 0.384492 L 0.438477 0.381484 L 0.287461 0.520508 L 0.329492 0.159453 L 0.297461 0.177461 L 0.369492 0.291484 L 0.371484 0.3875 L 0.356484 0.434492 L 0.253477 0.4325 L 0.253477 0.5025 L 0.355469 0.498516 L 0.3625 0.548516 L 0.0454687 0.714531 L 0.4275 0.861523 L 0.5075 0.850547 L 0.451484 0.649531 L 0.434492 0.5525 L 0.6125 0.529492 L 0.778516 0.553516 L 0.898555 0.563516 L 0.906523 0.513516 L 0.779531 0.508516 L 0.6875 0.458477 L 0.809531 0.411484 L 0.939531 0.435508 L 0.954531 0.354492 L 0.707539 0.138477 Z M 0.6125 0.384492 " transform="matrix(100,0,0,100,150,500)"/>
<path style="fill:none;stroke-width:0.01;stroke-linecap:butt;stroke-linejoin:miter;stroke:rgb(0%,0%,0%);stroke-opacity:1;stroke-miterlimit:10;" d="M 0.629531 0.306484 L 0.468516 0.313477 L 0.4375 0.371484 L 0.353477 0.513516 L 0.316484 0.498516 L 0.374492 0.187461 L 0.393477 0.309492 L 0.385508 0.359492 L 0.3075 0.360469 L 0.3075 0.408477 L 0.380469 0.413477 L 0.3875 0.470508 L 0.0454687 0.6075 L 0.4225 0.812539 L 0.491484 0.800547 L 0.470508 0.604492 L 0.464492 0.485508 L 0.629531 0.458477 L 0.794531 0.4825 L 0.942539 0.475508 L 0.954531 0.426484 L 0.821523 0.436484 L 0.699531 0.378477 L 0.797539 0.336484 L 0.918555 0.346484 L 0.916523 0.296484 L 0.800547 0.283477 Z M 0.629531 0.306484 " transform="matrix(100,0,0,100,300,500)"/>
<path style="fill:none;stroke-width:0.01;stroke-linecap:butt;stroke-linejoin:miter;stroke:rgb(0%,0%,0%);stroke-opacity:1;stroke-miterlimit:10;" d="M 0.506484 0.297461 L 0.343477 0.262461 L 0.3875 0.270469 L 0.485508 0.296484 L 0.513516 0.261484 L 0.374492 0.141445 L 0.266484 0.234492 L 0.264492 0.3275 L 0.0984766 0.304492 L 0.0734766 0.404492 L 0.243477 0.435508 L 0.261484 0.5375 L 0.345469 0.678516 L 0.479492 0.954531 L 0.591523 0.899531 L 0.4525 0.6475 L 0.350469 0.516484 L 0.506484 0.5225 L 0.731523 0.509492 L 0.926523 0.466484 L 0.923555 0.403477 L 0.757539 0.440508 L 0.611523 0.396484 L 0.720508 0.0454688 L 0.912539 0.275469 L 0.903555 0.175469 L 0.723516 0.211484 Z M 0.506484 0.297461 " transform="matrix(100,0,0,100,450,500)"/>
<path style="fill:none;stroke-width:0.01;stroke-linecap:butt;stroke-linejoin:miter;stroke:rgb(0%,0%,0%);stroke-opacity:1;stroke-miterlimit:10;" d="M 0.499492 0.353477 L 0.267461 0.336484 L 0.239492 0.245469 L 0.163477 0.0454688 L 0.125469 0.0714453 L 0.211484 0.223477 L 0.194453 0.329492 L 0.184453 0.390508 L 0.0784766 0.3725 L 0.0664453 0.4375 L 0.174453 0.460508 L 0.183477 0.530508 L 0.238477 0.705508 L 0.304492 0.954531 L 0.396484 0.924531 L 0.3225 0.699531 L 0.282461 0.559492 L 0.499492 0.559492 L 0.735508 0.601523 L 0.931563 0.578516 L 0.933555 0.504492 L 0.776523 0.500508 L 0.6025 0.450508 L 0.754531 0.161484 L 0.875547 0.396484 L 0.870547 0.311484 L 0.6175 0.0704687 Z M 0.499492 0.353477 " transform="matrix(100,0,0,100,600,500)"/>
<path style="fill:none;stroke-width:0.01;stroke-linecap:butt;stroke-linejoin:miter;stroke:rgb(0%,0%,0%);stroke-opacity:1;stroke-miterlimit:10;" d="M 0.570508 0.395508 L 0.3475 0.390508 L 0.165469 0.558516 L 0.223477 0.119453 L 0.190469 0.145469 L 0.268477 0.290469 L 0.268477 0.401484 L 0.274492 0.465508 L 0.166484 0.478516 L 0.181484 0.539492 L 0.280469 0.5275 L 0.297461 0.583516 L 0.0454688 0.847539 L 0.456484 0.880547 L 0.5175 0.858555 L 0.434492 0.678516 L 0.379492 0.578516 L 0.570508 0.5775 L 0.782539 0.600508 L 0.954531 0.568516 L 0.951562 0.5125 L 0.808516 0.538516 L 0.664531 0.4775 L 0.801523 0.150469 L 0.930547 0.398477 L 0.920547 0.321484 L 0.754531 0.321484 Z M 0.570508 0.395508 " transform="matrix(100,0,0,100,0,650)"/>
<path style="fill:none;stroke-width:0.01;stroke-linecap:butt;stroke-linejoin:miter;stroke:rgb(0%,0%,0%);stroke-opacity:1;stroke-miterlimit:10;" d="M 0.5775 0.368477 L 0.425508 0.318477 L 0.251484 0.473516 L 0.3275 0.0684375 L 0.285469 0.0884766 L 0.369492 0.237461 L 0.366484 0.316484 L 0.359492 0.4025 L 0.224453 0.403477 L 0.232461 0.496484 L 0.364492 0.495508 L 0.379492 0.581523 L 0.0454687 0.864531 L 0.524492 0.931563 L 0.6025 0.882539 L 0.503516 0.684531 L 0.453477 0.570508 L 0.5775 0.5625 L 0.789531 0.6075 L 0.954531 0.595508 L 0.946563 0.534492 L 0.800547 0.526484 L 0.673516 0.4675 L 0.814531 0.175469 L 0.951563 0.408477 L 0.949531 0.331484 L 0.699531 0.0994531 Z M 0.5775 0.368477 " transform="matrix(100,0,0,100,150,650)"/>
<path style="fill:none;stroke-width:0.01;stroke-linecap:butt;stroke-linejoin:miter;stroke:rgb(0%,0%,0%);stroke-opacity:1;stroke-miterlimit:10;" d="M 0.526484 0.383477 L 0.319492 0.388477 L 0.277461 0.288477 L 0.143477 0.0454688 L 0.112461 0.100469 L 0.239492 0.275469 L 0.245469 0.3975 L 0.236484 0.4625 L 0.122461 0.469492 L 0.126445 0.539492 L 0.232461 0.531484 L 0.245469 0.5925 L 0.285469 0.730508 L 0.3425 0.954531 L 0.4175 0.938555 L 0.365469 0.716523 L 0.331484 0.5975 L 0.526484 0.566523 L 0.735508 0.574492 L 0.887539 0.563516 L 0.880547 0.4975 L 0.747539 0.513516 L 0.613516 0.466484 L 0.6775 0.227461 L 0.827539 0.400508 L 0.829531 0.3375 L 0.603516 0.151484 Z M 0.526484 0.383477 " transform="matrix(100,0,0,100,300,650)"/>
<path style="fill:none;stroke-width:0.01;stroke-linecap:butt;stroke-linejoin:miter;stroke:rgb(0%,0%,0%);stroke-opacity:1;stroke-miterlimit:10;" d="M 0.5125 0.3325 L 0.282461 0.3275 L 0.219453 0.249492 L 0.0974609 0.0504688 L 0.0754687 0.0974609 L 0.186484 0.238477 L 0.195469 0.345469 L 0.184453 0.419492 L 0.0734766 0.3975 L 0.0574609 0.469492 L 0.168477 0.4925 L 0.170469 0.5625 L 0.215469 0.712539 L 0.282461 0.954531 L 0.383477 0.947539 L 0.302461 0.716523 L 0.267461 0.583516 L 0.5125 0.5625 L 0.733516 0.610508 L 0.942539 0.598516 L 0.937539 0.525508 L 0.765508 0.515508 L 0.616523 0.445508 L 0.752539 0.376484 L 0.916523 0.390508 L 0.935547 0.306484 L 0.628516 0.0454688 Z M 0.5125 0.3325 " transform="matrix(100,0,0,100,450,650)"/>
<path style="fill:none;stroke-width:0.01;stroke-linecap:butt;stroke-linejoin:miter;stroke:rgb(0%,0%,0%);stroke-opacity:1;stroke-miterlimit:10;" d="M 0.566523 0.298477 L 0.414492 0.265469 L 0.555508 0.344492 L 0.277461 0.4325 L 0.243477 0.406484 L 0.348477 0.160469 L 0.3425 0.261484 L 0.3375 0.353477 L 0.193477 0.364492 L 0.194453 0.4675 L 0.340469 0.444492 L 0.3525 0.5275 L 0.0454688 0.927539 L 0.5625 0.910547 L 0.650508 0.874531 L 0.509492 0.650508 L 0.428477 0.5175 L 0.566523 0.508516 L 0.780547 0.526484 L 0.954531 0.506484 L 0.941562 0.440508 L 0.795547 0.445508 L 0.6575 0.390508 L 0.793516 0.131445 L 0.904531 0.3375 L 0.898555 0.257461 L 0.640508 0.0724609 Z M 0.566523 0.298477 " transform="matrix(100,0,0,100,600,650)"/>
</g>
</svg>
