<?xml version="1.0" encoding="UTF-8"?>
<svg xmlns="http://www.w3.org/2000/svg" xmlns:xlink="http://www.w3.org/1999/xlink" width="750pt" height="2800pt" viewBox="0 0 750 2800" version="1.1">
<g id="surface1">
<path style="fill:none;stroke-width:0.01;stroke-linecap:butt;stroke-linejoin:miter;stroke:rgb(0%,0%,0%);stroke-opacity:1;stroke-miterlimit:10;" d="M 0.0454688 0.483984 L 0.0494531 0.479961 L 0.0534766 0.479961 L 0.0574609 0.475977 L 0.0694922 0.475977 L 0.0734766 0.471953 L 0.101523 0.471953 L 0.105508 0.467969 L 0.109531 0.467969 L 0.113555 0.463945 L 0.12957 0.463945 L 0.133555 0.467969 L 0.141563 0.459961 L 0.145586 0.459961 L 0.14957 0.455938 L 0.161602 0.455938 L 0.165586 0.459961 L 0.173594 0.451953 L 0.185625 0.451953 L 0.189609 0.44793 L 0.193633 0.443945 L 0.189609 0.439922 L 0.189609 0.435938 L 0.193633 0.431914 L 0.197656 0.431914 L 0.201641 0.42793 L 0.209648 0.42793 L 0.213672 0.423906 L 0.213672 0.419922 L 0.217656 0.415898 L 0.217656 0.411875 L 0.213672 0.407891 L 0.213672 0.399883 L 0.217656 0.395859 L 0.22168 0.391875 L 0.225664 0.391875 L 0.229688 0.387852 L 0.229688 0.383867 L 0.233672 0.383867 L 0.24168 0.375859 L 0.237695 0.371836 L 0.233672 0.371836 L 0.225664 0.363828 L 0.225664 0.35582 L 0.229688 0.351836 L 0.233672 0.347812 L 0.237695 0.347812 L 0.24168 0.343828 L 0.24168 0.33582 L 0.245703 0.33582 L 0.249688 0.331797 L 0.253711 0.331797 L 0.257695 0.327812 L 0.257695 0.323789 L 0.253711 0.319766 L 0.253711 0.315781 L 0.245703 0.307773 L 0.245703 0.30375 L 0.24168 0.299766 L 0.24168 0.295742 L 0.245703 0.291758 L 0.249688 0.287734 L 0.253711 0.28375 L 0.257695 0.279727 L 0.269727 0.279727 L 0.273711 0.275742 L 0.273711 0.267734 L 0.289766 0.267734 L 0.29375 0.263711 L 0.297773 0.259727 L 0.297773 0.255703 L 0.29375 0.251719 L 0.29375 0.247695 L 0.285742 0.239688 L 0.285742 0.23168 L 0.289766 0.23168 L 0.29375 0.227656 L 0.297773 0.223672 L 0.301758 0.219648 L 0.313789 0.219648 L 0.317773 0.223672 L 0.321797 0.219648 L 0.321797 0.215664 L 0.325781 0.215664 L 0.329805 0.211641 L 0.333789 0.211641 L 0.337813 0.215664 L 0.341797 0.211641 L 0.34582 0.211641 L 0.349805 0.215664 L 0.353828 0.215664 L 0.357813 0.211641 L 0.357813 0.207656 L 0.353828 0.203633 L 0.353828 0.191641 L 0.357813 0.187617 L 0.369844 0.187617 L 0.373867 0.183633 L 0.377852 0.183633 L 0.381875 0.187617 L 0.385859 0.187617 L 0.389883 0.191641 L 0.393867 0.187617 L 0.397891 0.183633 L 0.401875 0.179609 L 0.405898 0.183633 L 0.409883 0.183633 L 0.413906 0.187617 L 0.421914 0.187617 L 0.425898 0.183633 L 0.425898 0.171602 L 0.429922 0.167617 L 0.441914 0.167617 L 0.445937 0.171602 L 0.461953 0.171602 L 0.465977 0.175625 L 0.469961 0.175625 L 0.473984 0.179609 L 0.477969 0.179609 L 0.481992 0.175625 L 0.485977 0.175625 L 0.49 0.179609 L 0.498008 0.179609 L 0.501992 0.183633 L 0.506016 0.187617 L 0.51 0.183633 L 0.51 0.179609 L 0.514023 0.175625 L 0.518008 0.175625 L 0.522031 0.171602 L 0.530039 0.171602 L 0.534023 0.175625 L 0.546055 0.175625 L 0.550078 0.179609 L 0.554063 0.179609 L 0.566094 0.191641 L 0.570078 0.187617 L 0.574102 0.183633 L 0.578086 0.183633 L 0.582109 0.187617 L 0.586094 0.191641 L 0.590117 0.195625 L 0.598125 0.195625 L 0.602109 0.199648 L 0.606133 0.203633 L 0.610117 0.207656 L 0.614141 0.211641 L 0.622148 0.203633 L 0.622148 0.199648 L 0.626133 0.195625 L 0.63418 0.195625 L 0.638164 0.199648 L 0.642188 0.199648 L 0.662188 0.219648 L 0.666211 0.219648 L 0.670195 0.215664 L 0.674219 0.219648 L 0.678203 0.223672 L 0.682227 0.227656 L 0.686211 0.23168 L 0.690234 0.235664 L 0.694219 0.239688 L 0.698242 0.235664 L 0.698242 0.23168 L 0.722266 0.23168 L 0.726289 0.235664 L 0.730273 0.239688 L 0.734297 0.243711 L 0.734297 0.247695 L 0.738281 0.251719 L 0.742305 0.255703 L 0.746289 0.251719 L 0.754297 0.251719 L 0.75832 0.255703 L 0.762305 0.259727 L 0.766328 0.263711 L 0.766328 0.267734 L 0.774336 0.275742 L 0.77832 0.275742 L 0.782344 0.271719 L 0.782344 0.267734 L 0.798359 0.267734 L 0.802344 0.271719 L 0.806367 0.271719 L 0.818398 0.28375 L 0.818398 0.287734 L 0.822383 0.291758 L 0.834414 0.291758 L 0.834414 0.295742 L 0.838398 0.299766 L 0.838398 0.30375 L 0.842422 0.307773 L 0.846406 0.307773 L 0.85043 0.311758 L 0.85043 0.315781 L 0.854414 0.319766 L 0.854414 0.323789 L 0.858437 0.327812 L 0.866445 0.327812 L 0.87043 0.323789 L 0.878437 0.323789 L 0.890469 0.33582 L 0.894492 0.33582 L 0.898477 0.339805 L 0.898477 0.343828 L 0.9025 0.347812 L 0.906484 0.351836 L 0.906484 0.35582 L 0.910508 0.359844 L 0.910508 0.367852 L 0.918516 0.375859 L 0.9225 0.375859 L 0.9225 0.387852 L 0.926523 0.391875 L 0.926523 0.399883 L 0.930508 0.403867 L 0.938516 0.403867 L 0.938516 0.411875 L 0.942539 0.415898 L 0.942539 0.419922 L 0.946523 0.423906 L 0.946523 0.451953 L 0.950547 0.455938 L 0.950547 0.463945 L 0.954531 0.467969 L 0.954531 0.471953 L 0.950547 0.475977 L 0.950547 0.479961 L 0.946523 0.483984 L 0.946523 0.487969 L 0.950547 0.491992 L 0.946523 0.495977 L 0.942539 0.5 L 0.942539 0.508008 L 0.946523 0.512031 L 0.950547 0.516016 L 0.950547 0.520039 L 0.954531 0.524023 L 0.954531 0.556055 L 0.950547 0.560078 L 0.950547 0.57207 L 0.942539 0.580078 L 0.938516 0.580078 L 0.934531 0.584102 L 0.934531 0.588125 L 0.930508 0.592109 L 0.930508 0.604141 L 0.926523 0.604141 L 0.9225 0.608125 L 0.910508 0.608125 L 0.906484 0.612148 L 0.906484 0.636172 L 0.9025 0.640156 L 0.898477 0.640156 L 0.894492 0.64418 L 0.894492 0.656172 L 0.890469 0.660195 L 0.886445 0.66418 L 0.882461 0.668203 L 0.878437 0.672188 L 0.866445 0.672188 L 0.862422 0.676211 L 0.862422 0.680234 L 0.858437 0.684219 L 0.858437 0.688242 L 0.854414 0.692227 L 0.854414 0.69625 L 0.85043 0.700234 L 0.846406 0.700234 L 0.842422 0.704258 L 0.842422 0.708242 L 0.834414 0.71625 L 0.830391 0.71625 L 0.826406 0.720273 L 0.822383 0.720273 L 0.818398 0.71625 L 0.810391 0.724258 L 0.810391 0.728281 L 0.806367 0.732266 L 0.802344 0.736289 L 0.794336 0.736289 L 0.790352 0.740273 L 0.790352 0.744297 L 0.786328 0.748281 L 0.782344 0.752305 L 0.77832 0.756289 L 0.774336 0.760312 L 0.770313 0.756289 L 0.766328 0.756289 L 0.762305 0.752305 L 0.75832 0.752305 L 0.754297 0.756289 L 0.754297 0.760312 L 0.750313 0.760312 L 0.742305 0.76832 L 0.734297 0.76832 L 0.730273 0.772344 L 0.726289 0.772344 L 0.722266 0.776328 L 0.718281 0.776328 L 0.714258 0.780352 L 0.714258 0.784336 L 0.70625 0.784336 L 0.702227 0.780352 L 0.698242 0.776328 L 0.698242 0.772344 L 0.694219 0.76832 L 0.690234 0.772344 L 0.686211 0.776328 L 0.682227 0.780352 L 0.678203 0.784336 L 0.670195 0.784336 L 0.666211 0.788359 L 0.662188 0.792344 L 0.658203 0.792344 L 0.65418 0.796367 L 0.642188 0.796367 L 0.638164 0.800352 L 0.63418 0.800352 L 0.630156 0.796367 L 0.630156 0.792344 L 0.626133 0.788359 L 0.622148 0.784336 L 0.618125 0.788359 L 0.618125 0.792344 L 0.614141 0.796367 L 0.610117 0.796367 L 0.602109 0.804375 L 0.594102 0.804375 L 0.582109 0.816367 L 0.578086 0.816367 L 0.574102 0.820391 L 0.56207 0.820391 L 0.558086 0.824375 L 0.554063 0.820391 L 0.554063 0.816367 L 0.550078 0.812383 L 0.546055 0.812383 L 0.542031 0.816367 L 0.538047 0.816367 L 0.534023 0.820391 L 0.530039 0.820391 L 0.526016 0.824375 L 0.522031 0.820391 L 0.518008 0.820391 L 0.506016 0.832383 L 0.473984 0.832383 L 0.473984 0.828398 L 0.469961 0.824375 L 0.469961 0.820391 L 0.465977 0.816367 L 0.461953 0.816367 L 0.457969 0.820391 L 0.449922 0.820391 L 0.445937 0.824375 L 0.441914 0.820391 L 0.409883 0.820391 L 0.409883 0.816367 L 0.401875 0.808359 L 0.397891 0.808359 L 0.393867 0.812383 L 0.389883 0.812383 L 0.385859 0.808359 L 0.381875 0.808359 L 0.377852 0.812383 L 0.373867 0.812383 L 0.369844 0.816367 L 0.357813 0.816367 L 0.353828 0.812383 L 0.341797 0.812383 L 0.337813 0.808359 L 0.341797 0.804375 L 0.341797 0.792344 L 0.337813 0.788359 L 0.317773 0.788359 L 0.313789 0.784336 L 0.313789 0.780352 L 0.309766 0.776328 L 0.289766 0.776328 L 0.285742 0.772344 L 0.281719 0.772344 L 0.277734 0.76832 L 0.273711 0.764336 L 0.273711 0.760312 L 0.281719 0.752305 L 0.281719 0.744297 L 0.277734 0.740273 L 0.273711 0.736289 L 0.265703 0.736289 L 0.261719 0.732266 L 0.261719 0.728281 L 0.257695 0.724258 L 0.249688 0.724258 L 0.245703 0.720273 L 0.24168 0.720273 L 0.237695 0.71625 L 0.233672 0.712266 L 0.233672 0.704258 L 0.237695 0.700234 L 0.24168 0.700234 L 0.245703 0.69625 L 0.249688 0.692227 L 0.249688 0.688242 L 0.253711 0.684219 L 0.253711 0.672188 L 0.249688 0.668203 L 0.245703 0.668203 L 0.245703 0.66418 L 0.24168 0.660195 L 0.237695 0.656172 L 0.229688 0.656172 L 0.225664 0.652188 L 0.225664 0.648164 L 0.22168 0.64418 L 0.225664 0.640156 L 0.225664 0.636172 L 0.229688 0.632148 L 0.229688 0.620156 L 0.225664 0.616133 L 0.22168 0.616133 L 0.217656 0.612148 L 0.213672 0.608125 L 0.217656 0.604141 L 0.213672 0.600117 L 0.205664 0.600117 L 0.201641 0.596133 L 0.197656 0.596133 L 0.197656 0.592109 L 0.193633 0.588125 L 0.189609 0.584102 L 0.189609 0.580078 L 0.193633 0.576094 L 0.197656 0.57207 L 0.197656 0.568086 L 0.193633 0.564062 L 0.189609 0.560078 L 0.185625 0.556055 L 0.181602 0.560078 L 0.177617 0.560078 L 0.169609 0.55207 L 0.169609 0.548047 L 0.165586 0.544062 L 0.169609 0.540039 L 0.169609 0.532031 L 0.165586 0.528047 L 0.161602 0.532031 L 0.157578 0.528047 L 0.153594 0.524023 L 0.14957 0.520039 L 0.145586 0.520039 L 0.141563 0.516016 L 0.137578 0.516016 L 0.133555 0.512031 L 0.117539 0.512031 L 0.113555 0.508008 L 0.105508 0.508008 L 0.101523 0.504023 L 0.0975 0.504023 L 0.0935156 0.5 L 0.0694922 0.5 L 0.0654688 0.495977 L 0.0614844 0.495977 L 0.0574609 0.491992 L 0.0494531 0.491992 L 0.0454688 0.487969 Z M 0.0454688 0.483984 " transform="matrix(100,0,0,100,0,200)"/>
<path style="fill:none;stroke-width:0.01;stroke-linecap:butt;stroke-linejoin:miter;stroke:rgb(0%,0%,0%);stroke-opacity:1;stroke-miterlimit:10;" d="M 0.0454687 0.422539 L 0.0984375 0.422539 L 0.102539 0.426602 L 0.106602 0.426602 L 0.110664 0.422539 L 0.114766 0.422539 L 0.118828 0.426602 L 0.12293 0.422539 L 0.12293 0.418477 L 0.143281 0.418477 L 0.147383 0.414375 L 0.159609 0.414375 L 0.163672 0.410312 L 0.163672 0.402148 L 0.167734 0.398086 L 0.171836 0.398086 L 0.175898 0.394023 L 0.184063 0.394023 L 0.188125 0.389922 L 0.18 0.381797 L 0.184063 0.377695 L 0.192227 0.377695 L 0.196289 0.373633 L 0.208516 0.373633 L 0.212578 0.369531 L 0.212578 0.365469 L 0.208516 0.361406 L 0.208516 0.353242 L 0.212578 0.34918 L 0.21668 0.34918 L 0.220742 0.345078 L 0.224844 0.341016 L 0.228906 0.341016 L 0.232969 0.336953 L 0.23707 0.336953 L 0.241133 0.332852 L 0.23707 0.328789 L 0.23707 0.320625 L 0.241133 0.316562 L 0.245195 0.312461 L 0.253359 0.312461 L 0.257422 0.308398 L 0.261523 0.308398 L 0.265586 0.304336 L 0.265586 0.300234 L 0.269688 0.296172 L 0.277813 0.296172 L 0.281914 0.292109 L 0.294141 0.292109 L 0.298203 0.288008 L 0.306367 0.279844 L 0.31043 0.279844 L 0.314531 0.275781 L 0.33082 0.275781 L 0.334883 0.279844 L 0.338984 0.279844 L 0.343047 0.275781 L 0.343047 0.267617 L 0.347109 0.267617 L 0.351211 0.263555 L 0.363438 0.263555 L 0.3675 0.267617 L 0.383828 0.267617 L 0.387891 0.263555 L 0.412344 0.263555 L 0.416445 0.267617 L 0.428672 0.267617 L 0.432734 0.263555 L 0.436797 0.263555 L 0.440898 0.259492 L 0.449023 0.259492 L 0.453125 0.263555 L 0.457188 0.263555 L 0.461289 0.259492 L 0.465352 0.263555 L 0.469414 0.263555 L 0.473516 0.267617 L 0.477578 0.263555 L 0.477578 0.259492 L 0.481641 0.255391 L 0.485742 0.259492 L 0.502031 0.259492 L 0.506133 0.263555 L 0.514258 0.263555 L 0.518359 0.267617 L 0.530586 0.267617 L 0.534648 0.271719 L 0.546875 0.271719 L 0.550977 0.275781 L 0.555039 0.271719 L 0.559102 0.275781 L 0.563203 0.279844 L 0.567266 0.283945 L 0.571328 0.288008 L 0.579492 0.288008 L 0.583555 0.292109 L 0.591719 0.292109 L 0.59582 0.296172 L 0.603945 0.296172 L 0.608047 0.300234 L 0.612109 0.304336 L 0.620273 0.304336 L 0.624336 0.308398 L 0.6325 0.308398 L 0.636563 0.312461 L 0.640625 0.316562 L 0.648789 0.316562 L 0.652891 0.312461 L 0.656953 0.316562 L 0.665117 0.316562 L 0.681406 0.332852 L 0.68957 0.332852 L 0.693633 0.336953 L 0.705859 0.336953 L 0.709961 0.341016 L 0.714023 0.345078 L 0.722187 0.345078 L 0.72625 0.34918 L 0.72625 0.357305 L 0.730313 0.361406 L 0.738477 0.361406 L 0.742578 0.365469 L 0.750703 0.365469 L 0.754805 0.369531 L 0.758867 0.373633 L 0.76293 0.373633 L 0.767031 0.377695 L 0.775156 0.377695 L 0.78332 0.385859 L 0.791484 0.385859 L 0.799648 0.394023 L 0.807773 0.394023 L 0.811875 0.398086 L 0.815937 0.398086 L 0.824102 0.40625 L 0.828164 0.40625 L 0.832266 0.410312 L 0.836328 0.414375 L 0.840391 0.418477 L 0.844492 0.422539 L 0.848555 0.426602 L 0.852617 0.426602 L 0.852617 0.434766 L 0.864844 0.446992 L 0.864844 0.451094 L 0.868945 0.455156 L 0.873008 0.459219 L 0.873008 0.46332 L 0.87707 0.467383 L 0.881172 0.471445 L 0.881172 0.475547 L 0.885234 0.479609 L 0.889336 0.475547 L 0.893398 0.475547 L 0.897461 0.471445 L 0.913789 0.471445 L 0.917852 0.475547 L 0.921914 0.479609 L 0.926016 0.479609 L 0.930078 0.483711 L 0.93418 0.483711 L 0.946406 0.495938 L 0.950469 0.495938 L 0.950469 0.508164 L 0.954531 0.512227 L 0.954531 0.55707 L 0.950469 0.561133 L 0.954531 0.565234 L 0.954531 0.581523 L 0.950469 0.585625 L 0.950469 0.597852 L 0.942305 0.597852 L 0.938242 0.601914 L 0.938242 0.618203 L 0.93418 0.622305 L 0.93418 0.626367 L 0.930078 0.630469 L 0.930078 0.634531 L 0.921914 0.642695 L 0.917852 0.642695 L 0.913789 0.646758 L 0.913789 0.65082 L 0.909687 0.654922 L 0.909687 0.658984 L 0.905625 0.663047 L 0.905625 0.667148 L 0.901563 0.671211 L 0.897461 0.671211 L 0.893398 0.675312 L 0.889336 0.679375 L 0.881172 0.679375 L 0.87707 0.683438 L 0.87707 0.687539 L 0.868945 0.695664 L 0.864844 0.695664 L 0.860781 0.699766 L 0.856719 0.703828 L 0.852617 0.699766 L 0.848555 0.703828 L 0.844492 0.703828 L 0.840391 0.699766 L 0.836328 0.699766 L 0.832266 0.703828 L 0.832266 0.707891 L 0.828164 0.711992 L 0.824102 0.711992 L 0.82 0.716055 L 0.815937 0.720156 L 0.803711 0.720156 L 0.799648 0.724219 L 0.791484 0.724219 L 0.787422 0.720156 L 0.78332 0.720156 L 0.779258 0.724219 L 0.775156 0.728281 L 0.76293 0.728281 L 0.758867 0.732383 L 0.754805 0.732383 L 0.750703 0.728281 L 0.738477 0.728281 L 0.734414 0.732383 L 0.722187 0.732383 L 0.718086 0.736445 L 0.709961 0.736445 L 0.705859 0.732383 L 0.693633 0.732383 L 0.68957 0.736445 L 0.677344 0.736445 L 0.673242 0.740508 L 0.66918 0.740508 L 0.665117 0.736445 L 0.661016 0.732383 L 0.652891 0.740508 L 0.644727 0.740508 L 0.640625 0.744609 L 0.620273 0.744609 L 0.620273 0.740508 L 0.616172 0.736445 L 0.612109 0.736445 L 0.608047 0.740508 L 0.583555 0.740508 L 0.583555 0.736445 L 0.579492 0.732383 L 0.57543 0.736445 L 0.567266 0.736445 L 0.563203 0.740508 L 0.559102 0.736445 L 0.555039 0.736445 L 0.550977 0.740508 L 0.546875 0.740508 L 0.542813 0.736445 L 0.530586 0.736445 L 0.530586 0.732383 L 0.526484 0.728281 L 0.522422 0.728281 L 0.518359 0.732383 L 0.485742 0.732383 L 0.481641 0.728281 L 0.485742 0.724219 L 0.481641 0.720156 L 0.473516 0.720156 L 0.469414 0.724219 L 0.465352 0.720156 L 0.461289 0.724219 L 0.440898 0.724219 L 0.440898 0.720156 L 0.436797 0.716055 L 0.432734 0.716055 L 0.428672 0.711992 L 0.412344 0.711992 L 0.412344 0.703828 L 0.408281 0.699766 L 0.40418 0.703828 L 0.383828 0.703828 L 0.379727 0.699766 L 0.375664 0.703828 L 0.363438 0.703828 L 0.359375 0.699766 L 0.355273 0.699766 L 0.355273 0.695664 L 0.351211 0.691602 L 0.318594 0.691602 L 0.318594 0.683438 L 0.314531 0.679375 L 0.302266 0.679375 L 0.298203 0.675312 L 0.290039 0.675312 L 0.290039 0.671211 L 0.294141 0.667148 L 0.294141 0.663047 L 0.290039 0.658984 L 0.285977 0.663047 L 0.281914 0.663047 L 0.277813 0.658984 L 0.265586 0.658984 L 0.261523 0.654922 L 0.257422 0.654922 L 0.257422 0.65082 L 0.249297 0.642695 L 0.23707 0.642695 L 0.228906 0.634531 L 0.224844 0.634531 L 0.220742 0.630469 L 0.224844 0.626367 L 0.224844 0.622305 L 0.220742 0.618203 L 0.21668 0.618203 L 0.212578 0.622305 L 0.208516 0.618203 L 0.204453 0.614141 L 0.200352 0.614141 L 0.196289 0.610078 L 0.196289 0.605977 L 0.200352 0.601914 L 0.200352 0.597852 L 0.196289 0.59375 L 0.192227 0.589688 L 0.188125 0.589688 L 0.184063 0.585625 L 0.18 0.585625 L 0.18 0.581523 L 0.175898 0.577461 L 0.175898 0.573398 L 0.18 0.569297 L 0.175898 0.565234 L 0.171836 0.561133 L 0.167734 0.561133 L 0.167734 0.55707 L 0.163672 0.553008 L 0.163672 0.544844 L 0.167734 0.540781 L 0.167734 0.53668 L 0.155508 0.524453 L 0.159609 0.520391 L 0.163672 0.516289 L 0.159609 0.512227 L 0.155508 0.512227 L 0.151445 0.508164 L 0.147383 0.504062 L 0.143281 0.504062 L 0.143281 0.495938 L 0.139219 0.491836 L 0.135156 0.487773 L 0.135156 0.479609 L 0.131055 0.475547 L 0.126992 0.475547 L 0.12293 0.471445 L 0.118828 0.471445 L 0.114766 0.467383 L 0.110664 0.46332 L 0.106602 0.46332 L 0.102539 0.459219 L 0.094375 0.459219 L 0.094375 0.455156 L 0.0903125 0.451094 L 0.0862109 0.451094 L 0.0821484 0.446992 L 0.0780859 0.446992 L 0.0739844 0.44293 L 0.0699219 0.44293 L 0.0658203 0.438867 L 0.0576953 0.438867 L 0.0495313 0.430703 L 0.0454687 0.430703 L 0.0454687 0.426602 Z M 0.0454687 0.422539 " transform="matrix(100,0,0,100,150,200)"/>
<path style="fill:none;stroke-width:0.01;stroke-linecap:butt;stroke-linejoin:miter;stroke:rgb(0%,0%,0%);stroke-opacity:1;stroke-miterlimit:10;" d="M 0.0454687 0.587656 L 0.0495313 0.583555 L 0.0535938 0.579492 L 0.0576953 0.579492 L 0.0617578 0.57543 L 0.0739844 0.57543 L 0.0780859 0.571328 L 0.0821484 0.571328 L 0.0862109 0.567266 L 0.0903125 0.567266 L 0.094375 0.563203 L 0.0984375 0.559102 L 0.102539 0.555039 L 0.114766 0.555039 L 0.12293 0.546875 L 0.12293 0.542813 L 0.126992 0.538711 L 0.131055 0.534648 L 0.135156 0.530586 L 0.135156 0.526484 L 0.155508 0.506133 L 0.151445 0.502031 L 0.143281 0.502031 L 0.147383 0.497969 L 0.151445 0.493867 L 0.155508 0.489805 L 0.155508 0.485742 L 0.163672 0.477578 L 0.163672 0.473516 L 0.159609 0.469414 L 0.159609 0.465352 L 0.163672 0.461289 L 0.163672 0.457187 L 0.167734 0.457187 L 0.171836 0.453125 L 0.175898 0.449023 L 0.175898 0.444961 L 0.18 0.444961 L 0.184063 0.440898 L 0.18 0.436797 L 0.18 0.432734 L 0.184063 0.428672 L 0.188125 0.42457 L 0.192227 0.42457 L 0.196289 0.420508 L 0.196289 0.416445 L 0.208516 0.416445 L 0.212578 0.412344 L 0.208516 0.408281 L 0.208516 0.400117 L 0.21668 0.400117 L 0.220742 0.396055 L 0.220742 0.391953 L 0.224844 0.387891 L 0.232969 0.387891 L 0.23707 0.383828 L 0.23707 0.371602 L 0.241133 0.371602 L 0.245195 0.3675 L 0.249297 0.3675 L 0.253359 0.363437 L 0.253359 0.359375 L 0.269687 0.359375 L 0.27375 0.355273 L 0.269687 0.351211 L 0.269687 0.347109 L 0.27375 0.347109 L 0.277813 0.343047 L 0.290039 0.343047 L 0.294141 0.338984 L 0.298203 0.338984 L 0.302266 0.334883 L 0.302266 0.33082 L 0.314531 0.33082 L 0.318594 0.326758 L 0.33082 0.326758 L 0.334883 0.322656 L 0.338984 0.326758 L 0.343047 0.322656 L 0.343047 0.31043 L 0.363437 0.31043 L 0.3675 0.306367 L 0.375664 0.306367 L 0.379727 0.31043 L 0.383828 0.306367 L 0.383828 0.298203 L 0.400117 0.298203 L 0.40418 0.294141 L 0.416445 0.294141 L 0.420508 0.290039 L 0.416445 0.285977 L 0.420508 0.281914 L 0.42457 0.285977 L 0.428672 0.281914 L 0.432734 0.281914 L 0.436797 0.285977 L 0.440898 0.281914 L 0.449023 0.281914 L 0.453125 0.285977 L 0.457187 0.290039 L 0.461289 0.285977 L 0.461289 0.27375 L 0.465352 0.27375 L 0.469414 0.277813 L 0.477578 0.277813 L 0.481641 0.27375 L 0.489805 0.27375 L 0.493867 0.277813 L 0.497969 0.277813 L 0.502031 0.27375 L 0.502031 0.269687 L 0.534648 0.269687 L 0.538711 0.27375 L 0.542813 0.269687 L 0.542813 0.265586 L 0.559102 0.265586 L 0.563203 0.269687 L 0.567266 0.265586 L 0.57543 0.265586 L 0.579492 0.269687 L 0.583555 0.269687 L 0.587656 0.265586 L 0.587656 0.261523 L 0.591719 0.261523 L 0.59582 0.265586 L 0.620273 0.265586 L 0.624336 0.269687 L 0.628398 0.269687 L 0.6325 0.265586 L 0.6325 0.261523 L 0.640625 0.261523 L 0.644727 0.265586 L 0.652891 0.265586 L 0.656953 0.269687 L 0.665117 0.269687 L 0.66918 0.27375 L 0.673242 0.27375 L 0.677344 0.269687 L 0.681406 0.265586 L 0.685469 0.265586 L 0.68957 0.269687 L 0.701797 0.269687 L 0.705859 0.27375 L 0.709961 0.27375 L 0.714023 0.277813 L 0.718086 0.277813 L 0.722187 0.27375 L 0.72625 0.269687 L 0.730313 0.27375 L 0.738477 0.27375 L 0.742578 0.277813 L 0.746641 0.277813 L 0.750703 0.281914 L 0.754805 0.281914 L 0.76293 0.290039 L 0.767031 0.285977 L 0.767031 0.281914 L 0.771094 0.281914 L 0.775156 0.285977 L 0.779258 0.285977 L 0.78332 0.290039 L 0.787422 0.290039 L 0.791484 0.294141 L 0.795547 0.298203 L 0.799648 0.302266 L 0.803711 0.302266 L 0.807773 0.306367 L 0.811875 0.302266 L 0.815937 0.306367 L 0.824102 0.306367 L 0.832266 0.314531 L 0.836328 0.314531 L 0.840391 0.318594 L 0.844492 0.322656 L 0.848555 0.326758 L 0.856719 0.326758 L 0.881172 0.351211 L 0.885234 0.347109 L 0.889336 0.347109 L 0.893398 0.351211 L 0.897461 0.351211 L 0.897461 0.355273 L 0.901563 0.359375 L 0.901563 0.363437 L 0.905625 0.3675 L 0.909687 0.371602 L 0.909687 0.375664 L 0.913789 0.379727 L 0.917852 0.383828 L 0.921914 0.383828 L 0.926016 0.387891 L 0.930078 0.391953 L 0.930078 0.400117 L 0.93418 0.40418 L 0.938242 0.408281 L 0.942305 0.412344 L 0.942305 0.420508 L 0.946406 0.42457 L 0.946406 0.444961 L 0.950469 0.449023 L 0.950469 0.465352 L 0.954531 0.469414 L 0.954531 0.473516 L 0.946406 0.481641 L 0.938242 0.481641 L 0.93418 0.485742 L 0.930078 0.485742 L 0.926016 0.489805 L 0.921914 0.493867 L 0.921914 0.502031 L 0.930078 0.510195 L 0.930078 0.518359 L 0.913789 0.518359 L 0.909687 0.514258 L 0.905625 0.514258 L 0.901563 0.510195 L 0.897461 0.510195 L 0.893398 0.506133 L 0.889336 0.506133 L 0.885234 0.510195 L 0.87707 0.518359 L 0.87707 0.522422 L 0.873008 0.526484 L 0.868945 0.530586 L 0.864844 0.534648 L 0.860781 0.538711 L 0.856719 0.542813 L 0.856719 0.546875 L 0.836328 0.567266 L 0.832266 0.567266 L 0.828164 0.571328 L 0.824102 0.57543 L 0.82 0.579492 L 0.815937 0.579492 L 0.807773 0.587656 L 0.803711 0.587656 L 0.795547 0.59582 L 0.791484 0.59582 L 0.787422 0.599883 L 0.78332 0.603945 L 0.779258 0.603945 L 0.775156 0.608047 L 0.767031 0.608047 L 0.76293 0.612109 L 0.754805 0.612109 L 0.750703 0.616172 L 0.746641 0.620273 L 0.742578 0.624336 L 0.738477 0.620273 L 0.734414 0.620273 L 0.730313 0.624336 L 0.72625 0.628398 L 0.722187 0.6325 L 0.718086 0.6325 L 0.714023 0.636563 L 0.705859 0.636563 L 0.701797 0.640625 L 0.697734 0.644727 L 0.693633 0.644727 L 0.685469 0.652891 L 0.677344 0.652891 L 0.673242 0.656953 L 0.66918 0.661016 L 0.665117 0.665117 L 0.661016 0.665117 L 0.652891 0.673242 L 0.648789 0.673242 L 0.644727 0.677344 L 0.628398 0.677344 L 0.620273 0.685469 L 0.616172 0.685469 L 0.612109 0.68957 L 0.603945 0.697734 L 0.599883 0.693633 L 0.59582 0.693633 L 0.591719 0.697734 L 0.591719 0.701797 L 0.587656 0.705859 L 0.579492 0.705859 L 0.57543 0.709961 L 0.571328 0.714023 L 0.563203 0.714023 L 0.559102 0.718086 L 0.550977 0.709961 L 0.546875 0.714023 L 0.542813 0.718086 L 0.538711 0.714023 L 0.534648 0.718086 L 0.526484 0.718086 L 0.522422 0.722187 L 0.518359 0.72625 L 0.514258 0.72625 L 0.510195 0.722187 L 0.506133 0.718086 L 0.497969 0.72625 L 0.493867 0.72625 L 0.489805 0.730313 L 0.481641 0.730313 L 0.477578 0.734414 L 0.473516 0.734414 L 0.469414 0.730313 L 0.465352 0.730313 L 0.461289 0.734414 L 0.457187 0.734414 L 0.453125 0.738477 L 0.440898 0.738477 L 0.440898 0.730313 L 0.436797 0.72625 L 0.432734 0.730313 L 0.42457 0.730313 L 0.420508 0.734414 L 0.416445 0.734414 L 0.412344 0.738477 L 0.391953 0.738477 L 0.387891 0.734414 L 0.383828 0.730313 L 0.375664 0.730313 L 0.371602 0.734414 L 0.359375 0.734414 L 0.355273 0.738477 L 0.355273 0.730313 L 0.351211 0.72625 L 0.347109 0.72625 L 0.343047 0.730313 L 0.338984 0.730313 L 0.334883 0.72625 L 0.322656 0.72625 L 0.322656 0.722187 L 0.318594 0.718086 L 0.302266 0.718086 L 0.298203 0.722187 L 0.290039 0.722187 L 0.285977 0.718086 L 0.277813 0.718086 L 0.277813 0.709961 L 0.27375 0.705859 L 0.269687 0.701797 L 0.257422 0.701797 L 0.253359 0.697734 L 0.249297 0.697734 L 0.249297 0.693633 L 0.253359 0.68957 L 0.249297 0.685469 L 0.241133 0.685469 L 0.23707 0.681406 L 0.232969 0.681406 L 0.228906 0.677344 L 0.220742 0.677344 L 0.21668 0.673242 L 0.220742 0.66918 L 0.21668 0.665117 L 0.208516 0.665117 L 0.204453 0.661016 L 0.196289 0.661016 L 0.192227 0.656953 L 0.188125 0.656953 L 0.184063 0.652891 L 0.188125 0.648789 L 0.188125 0.644727 L 0.184063 0.640625 L 0.18 0.640625 L 0.175898 0.636563 L 0.175898 0.6325 L 0.171836 0.628398 L 0.171836 0.624336 L 0.167734 0.620273 L 0.163672 0.620273 L 0.159609 0.616172 L 0.155508 0.612109 L 0.151445 0.608047 L 0.151445 0.603945 L 0.147383 0.599883 L 0.143281 0.59582 L 0.139219 0.591719 L 0.135156 0.591719 L 0.131055 0.587656 L 0.126992 0.591719 L 0.114766 0.591719 L 0.110664 0.587656 L 0.0821484 0.587656 L 0.0780859 0.591719 L 0.0617578 0.591719 L 0.0576953 0.587656 L 0.0535938 0.591719 L 0.0454687 0.591719 Z M 0.0454687 0.587656 " transform="matrix(100,0,0,100,300,200)"/>
<path style="fill:none;stroke-width:0.01;stroke-linecap:butt;stroke-linejoin:miter;stroke:rgb(0%,0%,0%);stroke-opacity:1;stroke-miterlimit:10;" d="M 0.0454688 0.435938 L 0.0494531 0.435938 L 0.0534766 0.439922 L 0.0654687 0.439922 L 0.0694922 0.443945 L 0.0734766 0.443945 L 0.0775 0.44793 L 0.0935156 0.44793 L 0.0975 0.451953 L 0.117539 0.451953 L 0.121563 0.455938 L 0.12957 0.455938 L 0.133555 0.459961 L 0.137578 0.463945 L 0.141563 0.467969 L 0.14957 0.467969 L 0.153594 0.471953 L 0.157578 0.467969 L 0.157578 0.451953 L 0.161602 0.44793 L 0.161602 0.443945 L 0.165586 0.439922 L 0.169609 0.435938 L 0.169609 0.419922 L 0.173594 0.415898 L 0.177617 0.415898 L 0.181602 0.411875 L 0.181602 0.407891 L 0.185625 0.407891 L 0.189609 0.403867 L 0.193633 0.399883 L 0.193633 0.395859 L 0.189609 0.391875 L 0.189609 0.387852 L 0.193633 0.383867 L 0.201641 0.375859 L 0.205664 0.375859 L 0.209648 0.371836 L 0.213672 0.367852 L 0.209648 0.363828 L 0.209648 0.35582 L 0.213672 0.351836 L 0.217656 0.347812 L 0.22168 0.347812 L 0.225664 0.343828 L 0.233672 0.343828 L 0.237695 0.339805 L 0.233672 0.33582 L 0.237695 0.331797 L 0.24168 0.331797 L 0.245703 0.327812 L 0.253711 0.327812 L 0.257695 0.323789 L 0.265703 0.323789 L 0.269727 0.319766 L 0.269727 0.311758 L 0.273711 0.311758 L 0.277734 0.307773 L 0.289766 0.307773 L 0.29375 0.30375 L 0.305781 0.30375 L 0.309766 0.299766 L 0.309766 0.295742 L 0.313789 0.295742 L 0.317773 0.291758 L 0.349805 0.291758 L 0.353828 0.287734 L 0.353828 0.28375 L 0.357813 0.279727 L 0.373867 0.279727 L 0.377852 0.275742 L 0.381875 0.275742 L 0.385859 0.279727 L 0.389883 0.279727 L 0.393867 0.275742 L 0.393867 0.271719 L 0.421914 0.271719 L 0.425898 0.275742 L 0.429922 0.275742 L 0.433906 0.271719 L 0.433906 0.267734 L 0.441914 0.267734 L 0.445938 0.263711 L 0.461953 0.263711 L 0.465977 0.267734 L 0.473984 0.267734 L 0.477969 0.263711 L 0.498008 0.263711 L 0.501992 0.267734 L 0.506016 0.267734 L 0.51 0.271719 L 0.514023 0.267734 L 0.526016 0.267734 L 0.530039 0.271719 L 0.538047 0.271719 L 0.542031 0.275742 L 0.546055 0.275742 L 0.550078 0.279727 L 0.554062 0.279727 L 0.558086 0.275742 L 0.566094 0.275742 L 0.570078 0.279727 L 0.582109 0.279727 L 0.586094 0.28375 L 0.590117 0.287734 L 0.594102 0.28375 L 0.610117 0.28375 L 0.614141 0.287734 L 0.618125 0.28375 L 0.622148 0.287734 L 0.626133 0.287734 L 0.630156 0.291758 L 0.63418 0.291758 L 0.638164 0.287734 L 0.650195 0.287734 L 0.65418 0.291758 L 0.662187 0.291758 L 0.666211 0.295742 L 0.670195 0.299766 L 0.674219 0.299766 L 0.678203 0.295742 L 0.678203 0.291758 L 0.682227 0.291758 L 0.686211 0.295742 L 0.690234 0.291758 L 0.698242 0.299766 L 0.70625 0.299766 L 0.710234 0.30375 L 0.714258 0.30375 L 0.718281 0.299766 L 0.734297 0.299766 L 0.738281 0.30375 L 0.746289 0.30375 L 0.754297 0.311758 L 0.77832 0.311758 L 0.786328 0.319766 L 0.790352 0.319766 L 0.794336 0.323789 L 0.802344 0.331797 L 0.806367 0.327812 L 0.814375 0.327812 L 0.818398 0.331797 L 0.822383 0.331797 L 0.838398 0.347812 L 0.842422 0.347812 L 0.846406 0.351836 L 0.846406 0.35582 L 0.854414 0.363828 L 0.858437 0.359844 L 0.862422 0.363828 L 0.866445 0.363828 L 0.87043 0.367852 L 0.874453 0.371836 L 0.874453 0.375859 L 0.890469 0.391875 L 0.894492 0.395859 L 0.894492 0.403867 L 0.898477 0.407891 L 0.9025 0.403867 L 0.906484 0.407891 L 0.910508 0.411875 L 0.910508 0.415898 L 0.914492 0.419922 L 0.918516 0.423906 L 0.918516 0.42793 L 0.9225 0.431914 L 0.9225 0.435938 L 0.926523 0.439922 L 0.930508 0.439922 L 0.930508 0.44793 L 0.934531 0.451953 L 0.934531 0.459961 L 0.938516 0.463945 L 0.938516 0.475977 L 0.942539 0.479961 L 0.942539 0.491992 L 0.946523 0.495977 L 0.946523 0.508008 L 0.950547 0.512031 L 0.954531 0.512031 L 0.950547 0.516016 L 0.950547 0.528047 L 0.946523 0.532031 L 0.942539 0.536055 L 0.946523 0.540039 L 0.942539 0.544062 L 0.938516 0.548047 L 0.938516 0.55207 L 0.934531 0.556055 L 0.930508 0.556055 L 0.926523 0.560078 L 0.910508 0.560078 L 0.906484 0.564062 L 0.9025 0.560078 L 0.898477 0.564062 L 0.894492 0.568086 L 0.882461 0.568086 L 0.882461 0.564062 L 0.878438 0.560078 L 0.874453 0.556055 L 0.87043 0.55207 L 0.866445 0.548047 L 0.862422 0.548047 L 0.858437 0.55207 L 0.858437 0.556055 L 0.854414 0.560078 L 0.854414 0.564062 L 0.85043 0.568086 L 0.85043 0.57207 L 0.842422 0.580078 L 0.842422 0.584102 L 0.830391 0.596133 L 0.830391 0.600117 L 0.826406 0.604141 L 0.822383 0.608125 L 0.818398 0.612148 L 0.818398 0.616133 L 0.814375 0.616133 L 0.810391 0.620156 L 0.806367 0.620156 L 0.802344 0.624141 L 0.798359 0.624141 L 0.794336 0.628164 L 0.790352 0.628164 L 0.786328 0.632148 L 0.782344 0.632148 L 0.77832 0.636172 L 0.770313 0.636172 L 0.766328 0.640156 L 0.754297 0.640156 L 0.750312 0.64418 L 0.746289 0.648164 L 0.742305 0.652188 L 0.734297 0.652188 L 0.730273 0.648164 L 0.726289 0.652188 L 0.722266 0.656172 L 0.714258 0.656172 L 0.710234 0.660195 L 0.70625 0.660195 L 0.702227 0.66418 L 0.694219 0.66418 L 0.690234 0.668203 L 0.686211 0.672188 L 0.682227 0.676211 L 0.678203 0.676211 L 0.674219 0.680234 L 0.666211 0.680234 L 0.662187 0.684219 L 0.658203 0.684219 L 0.65418 0.680234 L 0.650195 0.684219 L 0.642188 0.684219 L 0.638164 0.688242 L 0.63418 0.688242 L 0.630156 0.692227 L 0.626133 0.69625 L 0.614141 0.69625 L 0.610117 0.700234 L 0.606133 0.700234 L 0.602109 0.704258 L 0.590117 0.704258 L 0.586094 0.708242 L 0.582109 0.708242 L 0.578086 0.704258 L 0.570078 0.712266 L 0.566094 0.712266 L 0.56207 0.71625 L 0.558086 0.71625 L 0.554062 0.720273 L 0.550078 0.720273 L 0.546055 0.71625 L 0.542031 0.71625 L 0.538047 0.720273 L 0.526016 0.720273 L 0.522031 0.724258 L 0.51 0.724258 L 0.506016 0.728281 L 0.498008 0.728281 L 0.493984 0.732266 L 0.481992 0.732266 L 0.477969 0.728281 L 0.469961 0.728281 L 0.465977 0.732266 L 0.461953 0.728281 L 0.449922 0.728281 L 0.445938 0.732266 L 0.441914 0.732266 L 0.43793 0.728281 L 0.433906 0.728281 L 0.425898 0.736289 L 0.421914 0.732266 L 0.417891 0.736289 L 0.413906 0.736289 L 0.409883 0.732266 L 0.405898 0.732266 L 0.401875 0.728281 L 0.377852 0.728281 L 0.373867 0.724258 L 0.369844 0.720273 L 0.36582 0.720273 L 0.361836 0.71625 L 0.341797 0.71625 L 0.337813 0.712266 L 0.333789 0.712266 L 0.329805 0.708242 L 0.321797 0.708242 L 0.317773 0.704258 L 0.313789 0.704258 L 0.309766 0.708242 L 0.305781 0.708242 L 0.301758 0.704258 L 0.297773 0.700234 L 0.29375 0.700234 L 0.29375 0.692227 L 0.289766 0.688242 L 0.277734 0.688242 L 0.273711 0.684219 L 0.253711 0.684219 L 0.249688 0.680234 L 0.249688 0.676211 L 0.245703 0.672188 L 0.24168 0.672188 L 0.237695 0.668203 L 0.229687 0.668203 L 0.22168 0.660195 L 0.217656 0.660195 L 0.217656 0.656172 L 0.22168 0.652188 L 0.22168 0.648164 L 0.217656 0.64418 L 0.205664 0.64418 L 0.201641 0.640156 L 0.197656 0.640156 L 0.193633 0.636172 L 0.189609 0.632148 L 0.193633 0.628164 L 0.177617 0.612148 L 0.173594 0.612148 L 0.169609 0.608125 L 0.165586 0.608125 L 0.165586 0.604141 L 0.169609 0.600117 L 0.169609 0.596133 L 0.161602 0.588125 L 0.153594 0.588125 L 0.153594 0.584102 L 0.145586 0.576094 L 0.141563 0.576094 L 0.141563 0.564062 L 0.133555 0.556055 L 0.133555 0.55207 L 0.12957 0.548047 L 0.125547 0.544062 L 0.125547 0.532031 L 0.121563 0.528047 L 0.121563 0.520039 L 0.117539 0.516016 L 0.117539 0.512031 L 0.121563 0.508008 L 0.117539 0.504023 L 0.109531 0.504023 L 0.105508 0.5 L 0.105508 0.495977 L 0.101523 0.491992 L 0.101523 0.487969 L 0.0975 0.483984 L 0.0975 0.479961 L 0.0935156 0.475977 L 0.0855078 0.475977 L 0.0775 0.467969 L 0.0734766 0.467969 L 0.0694922 0.463945 L 0.0654687 0.459961 L 0.0614844 0.459961 L 0.0454688 0.443945 L 0.0454688 0.439922 Z M 0.0454688 0.435938 " transform="matrix(100,0,0,100,450,200)"/>
<path style="fill:none;stroke-width:0.01;stroke-linecap:butt;stroke-linejoin:miter;stroke:rgb(0%,0%,0%);stroke-opacity:1;stroke-miterlimit:10;" d="M 0.0454688 0.498008 L 0.0533594 0.498008 L 0.0573047 0.494063 L 0.073125 0.494063 L 0.0770703 0.490117 L 0.0968359 0.490117 L 0.100781 0.486172 L 0.108711 0.486172 L 0.112656 0.482227 L 0.116602 0.482227 L 0.120547 0.478242 L 0.120547 0.474297 L 0.128477 0.474297 L 0.132422 0.470352 L 0.140313 0.470352 L 0.144258 0.466406 L 0.144258 0.458516 L 0.148203 0.454531 L 0.152188 0.454531 L 0.164023 0.442695 L 0.160078 0.43875 L 0.160078 0.434766 L 0.167969 0.426875 L 0.171953 0.426875 L 0.179844 0.418984 L 0.175898 0.415039 L 0.171953 0.415039 L 0.175898 0.411055 L 0.179844 0.407109 L 0.179844 0.403164 L 0.187734 0.395273 L 0.187734 0.391289 L 0.183789 0.387344 L 0.183789 0.383398 L 0.187734 0.383398 L 0.191719 0.379453 L 0.195664 0.375508 L 0.199609 0.375508 L 0.203555 0.371523 L 0.211445 0.371523 L 0.21543 0.367578 L 0.21543 0.359688 L 0.219375 0.359688 L 0.22332 0.355742 L 0.231211 0.355742 L 0.235195 0.351797 L 0.239141 0.351797 L 0.243086 0.347812 L 0.247031 0.343867 L 0.239141 0.335977 L 0.243086 0.332031 L 0.247031 0.328047 L 0.250977 0.328047 L 0.254922 0.324102 L 0.258906 0.320156 L 0.262852 0.320156 L 0.266797 0.324102 L 0.270742 0.320156 L 0.274687 0.320156 L 0.278672 0.316211 L 0.278672 0.308281 L 0.286563 0.308281 L 0.290508 0.304336 L 0.302383 0.304336 L 0.310273 0.296445 L 0.310273 0.2925 L 0.314219 0.2925 L 0.318164 0.288555 L 0.322148 0.2925 L 0.33793 0.2925 L 0.341914 0.288555 L 0.345859 0.2925 L 0.349805 0.2925 L 0.35375 0.288555 L 0.35375 0.28457 L 0.381406 0.28457 L 0.385391 0.280625 L 0.389336 0.280625 L 0.393281 0.27668 L 0.401172 0.27668 L 0.405156 0.280625 L 0.416992 0.280625 L 0.420937 0.28457 L 0.424883 0.280625 L 0.428867 0.27668 L 0.432812 0.272734 L 0.436758 0.27668 L 0.452578 0.27668 L 0.456523 0.280625 L 0.460469 0.280625 L 0.464414 0.27668 L 0.468398 0.272734 L 0.480234 0.272734 L 0.48418 0.27668 L 0.488125 0.27668 L 0.492109 0.280625 L 0.496055 0.280625 L 0.5 0.28457 L 0.503945 0.28457 L 0.507891 0.280625 L 0.511875 0.280625 L 0.51582 0.28457 L 0.527656 0.28457 L 0.531602 0.288555 L 0.535586 0.2925 L 0.539531 0.2925 L 0.543477 0.288555 L 0.555352 0.288555 L 0.559297 0.2925 L 0.567188 0.2925 L 0.571133 0.296445 L 0.575117 0.300391 L 0.586953 0.300391 L 0.590898 0.304336 L 0.594844 0.304336 L 0.598828 0.308281 L 0.602773 0.308281 L 0.606719 0.312266 L 0.610664 0.316211 L 0.614609 0.312266 L 0.618594 0.312266 L 0.626484 0.320156 L 0.634375 0.320156 L 0.638359 0.324102 L 0.642305 0.324102 L 0.64625 0.320156 L 0.650195 0.324102 L 0.658086 0.324102 L 0.66207 0.328047 L 0.669961 0.328047 L 0.673906 0.332031 L 0.677852 0.328047 L 0.681836 0.332031 L 0.685781 0.332031 L 0.689727 0.335977 L 0.693672 0.335977 L 0.697617 0.339922 L 0.709492 0.339922 L 0.717383 0.347812 L 0.721328 0.347812 L 0.725313 0.351797 L 0.729258 0.351797 L 0.733203 0.355742 L 0.737148 0.355742 L 0.741094 0.359688 L 0.745078 0.359688 L 0.756914 0.371523 L 0.764805 0.371523 L 0.768789 0.375508 L 0.772734 0.375508 L 0.780625 0.383398 L 0.788555 0.383398 L 0.7925 0.387344 L 0.796445 0.387344 L 0.800391 0.391289 L 0.804336 0.395273 L 0.808281 0.399219 L 0.816211 0.399219 L 0.832031 0.415039 L 0.835977 0.415039 L 0.847812 0.426875 L 0.851797 0.426875 L 0.851797 0.43082 L 0.855742 0.434766 L 0.859687 0.434766 L 0.859687 0.442695 L 0.863633 0.446641 L 0.867578 0.446641 L 0.871523 0.450586 L 0.871523 0.454531 L 0.875508 0.458516 L 0.875508 0.462461 L 0.879453 0.466406 L 0.883398 0.466406 L 0.887344 0.462461 L 0.891289 0.462461 L 0.895273 0.458516 L 0.899219 0.454531 L 0.903164 0.450586 L 0.911055 0.450586 L 0.915039 0.454531 L 0.92293 0.454531 L 0.926875 0.458516 L 0.93082 0.462461 L 0.934766 0.462461 L 0.93875 0.466406 L 0.93875 0.474297 L 0.942695 0.478242 L 0.946641 0.478242 L 0.950586 0.482227 L 0.946641 0.486172 L 0.954531 0.494063 L 0.954531 0.529648 L 0.946641 0.537539 L 0.950586 0.541484 L 0.946641 0.545469 L 0.946641 0.56125 L 0.942695 0.56125 L 0.93875 0.565234 L 0.93875 0.57707 L 0.934766 0.581016 L 0.934766 0.584961 L 0.93082 0.588945 L 0.926875 0.588945 L 0.92293 0.592891 L 0.92293 0.596836 L 0.918984 0.600781 L 0.918984 0.604727 L 0.915039 0.608711 L 0.911055 0.612656 L 0.907109 0.616602 L 0.907109 0.620547 L 0.903164 0.620547 L 0.899219 0.624492 L 0.895273 0.624492 L 0.891289 0.628477 L 0.891289 0.632422 L 0.875508 0.648203 L 0.871523 0.644258 L 0.867578 0.648203 L 0.863633 0.652188 L 0.851797 0.664023 L 0.835977 0.664023 L 0.828047 0.671953 L 0.820156 0.671953 L 0.816211 0.675898 L 0.800391 0.675898 L 0.796445 0.679844 L 0.7925 0.679844 L 0.788555 0.683789 L 0.78457 0.683789 L 0.780625 0.687734 L 0.768789 0.687734 L 0.760859 0.695664 L 0.756914 0.695664 L 0.749023 0.703555 L 0.729258 0.703555 L 0.725313 0.7075 L 0.721328 0.711445 L 0.717383 0.711445 L 0.713438 0.71543 L 0.705547 0.71543 L 0.697617 0.7075 L 0.693672 0.711445 L 0.689727 0.711445 L 0.685781 0.71543 L 0.677852 0.71543 L 0.673906 0.719375 L 0.66207 0.719375 L 0.658086 0.72332 L 0.658086 0.719375 L 0.654141 0.71543 L 0.650195 0.71543 L 0.64625 0.719375 L 0.638359 0.719375 L 0.634375 0.72332 L 0.618594 0.72332 L 0.618594 0.719375 L 0.614609 0.71543 L 0.610664 0.719375 L 0.598828 0.719375 L 0.594844 0.72332 L 0.583008 0.72332 L 0.583008 0.719375 L 0.579063 0.71543 L 0.575117 0.71543 L 0.571133 0.719375 L 0.563242 0.719375 L 0.559297 0.72332 L 0.555352 0.719375 L 0.551367 0.72332 L 0.539531 0.72332 L 0.535586 0.719375 L 0.531602 0.719375 L 0.527656 0.72332 L 0.519766 0.72332 L 0.51582 0.727266 L 0.5 0.727266 L 0.5 0.72332 L 0.496055 0.719375 L 0.488125 0.719375 L 0.48418 0.72332 L 0.452578 0.72332 L 0.452578 0.71543 L 0.448633 0.711445 L 0.444648 0.71543 L 0.440703 0.71543 L 0.436758 0.711445 L 0.432812 0.71543 L 0.428867 0.711445 L 0.420937 0.711445 L 0.420937 0.703555 L 0.416992 0.699609 L 0.413047 0.703555 L 0.389336 0.703555 L 0.385391 0.699609 L 0.381406 0.695664 L 0.373516 0.695664 L 0.36957 0.699609 L 0.35375 0.699609 L 0.349805 0.695664 L 0.349805 0.691719 L 0.345859 0.687734 L 0.330039 0.687734 L 0.326094 0.683789 L 0.318164 0.683789 L 0.314219 0.679844 L 0.318164 0.675898 L 0.314219 0.671953 L 0.302383 0.671953 L 0.298438 0.667969 L 0.290508 0.667969 L 0.286563 0.664023 L 0.282617 0.664023 L 0.282617 0.660078 L 0.278672 0.656133 L 0.274687 0.652188 L 0.266797 0.652188 L 0.266797 0.644258 L 0.262852 0.640312 L 0.250977 0.640312 L 0.247031 0.636367 L 0.239141 0.636367 L 0.235195 0.632422 L 0.235195 0.624492 L 0.231211 0.620547 L 0.227266 0.620547 L 0.219375 0.612656 L 0.21543 0.612656 L 0.211445 0.608711 L 0.2075 0.608711 L 0.211445 0.604727 L 0.2075 0.600781 L 0.203555 0.600781 L 0.203555 0.596836 L 0.199609 0.592891 L 0.195664 0.592891 L 0.179844 0.57707 L 0.175898 0.57707 L 0.171953 0.573125 L 0.171953 0.56918 L 0.175898 0.565234 L 0.175898 0.56125 L 0.171953 0.557305 L 0.167969 0.557305 L 0.167969 0.553359 L 0.160078 0.545469 L 0.156133 0.545469 L 0.156133 0.537539 L 0.152188 0.533594 L 0.148203 0.533594 L 0.136367 0.521758 L 0.136367 0.517773 L 0.128477 0.509883 L 0.124492 0.505937 L 0.120547 0.509883 L 0.073125 0.509883 L 0.0691797 0.505937 L 0.06125 0.505937 L 0.0573047 0.501992 L 0.0494141 0.501992 Z M 0.0454688 0.498008 " transform="matrix(100,0,0,100,600,200)"/>
<path style="fill:none;stroke-width:0.01;stroke-linecap:butt;stroke-linejoin:miter;stroke:rgb(0%,0%,0%);stroke-opacity:1;stroke-miterlimit:10;" d="M 0.0454688 0.542422 L 0.0494922 0.538398 L 0.0535547 0.538398 L 0.0575781 0.534336 L 0.0696875 0.534336 L 0.07375 0.530312 L 0.0939453 0.530312 L 0.0979688 0.52625 L 0.114141 0.52625 L 0.118164 0.522227 L 0.12625 0.522227 L 0.130312 0.518164 L 0.142422 0.518164 L 0.146445 0.514141 L 0.150508 0.510117 L 0.158594 0.510117 L 0.162617 0.506055 L 0.162617 0.502031 L 0.178789 0.485859 L 0.178789 0.481836 L 0.174766 0.477773 L 0.174766 0.47375 L 0.178789 0.469688 L 0.190898 0.457578 L 0.186875 0.453555 L 0.186875 0.445469 L 0.190898 0.441406 L 0.194961 0.437383 L 0.203047 0.437383 L 0.20707 0.43332 L 0.211094 0.43332 L 0.215156 0.429297 L 0.20707 0.421211 L 0.215156 0.413125 L 0.21918 0.413125 L 0.223242 0.409102 L 0.231328 0.409102 L 0.235352 0.405039 L 0.239375 0.401016 L 0.239375 0.396953 L 0.235352 0.39293 L 0.239375 0.388906 L 0.243438 0.388906 L 0.247461 0.384844 L 0.251523 0.384844 L 0.255547 0.38082 L 0.263633 0.38082 L 0.271719 0.372734 L 0.271719 0.368672 L 0.275742 0.364648 L 0.287891 0.364648 L 0.295977 0.356562 L 0.295977 0.352539 L 0.3 0.348477 L 0.320195 0.348477 L 0.324258 0.344453 L 0.328281 0.340391 L 0.332305 0.340391 L 0.336367 0.336367 L 0.356563 0.336367 L 0.360625 0.332305 L 0.360625 0.328281 L 0.364648 0.324258 L 0.368672 0.324258 L 0.372734 0.320195 L 0.39293 0.320195 L 0.401016 0.312109 L 0.43332 0.312109 L 0.437383 0.308086 L 0.437383 0.304023 L 0.457578 0.304023 L 0.461602 0.308086 L 0.469688 0.308086 L 0.477773 0.3 L 0.493945 0.3 L 0.497969 0.304023 L 0.502031 0.3 L 0.510117 0.3 L 0.514141 0.304023 L 0.518164 0.304023 L 0.522227 0.3 L 0.522227 0.295977 L 0.530312 0.295977 L 0.534336 0.291914 L 0.538398 0.291914 L 0.542422 0.295977 L 0.550508 0.295977 L 0.554531 0.291914 L 0.554531 0.287891 L 0.558594 0.283828 L 0.570703 0.283828 L 0.574766 0.287891 L 0.586875 0.287891 L 0.590898 0.283828 L 0.598984 0.283828 L 0.603047 0.287891 L 0.611094 0.287891 L 0.615156 0.291914 L 0.623242 0.291914 L 0.627266 0.287891 L 0.627266 0.283828 L 0.639375 0.283828 L 0.643437 0.287891 L 0.647461 0.287891 L 0.651523 0.291914 L 0.655547 0.295977 L 0.659609 0.295977 L 0.663633 0.291914 L 0.679805 0.291914 L 0.683828 0.295977 L 0.691914 0.295977 L 0.695977 0.3 L 0.7 0.304023 L 0.704023 0.3 L 0.708086 0.295977 L 0.712109 0.295977 L 0.716172 0.3 L 0.720195 0.3 L 0.724258 0.304023 L 0.728281 0.308086 L 0.732305 0.308086 L 0.736367 0.312109 L 0.756563 0.312109 L 0.760625 0.316172 L 0.764648 0.316172 L 0.772734 0.324258 L 0.776758 0.324258 L 0.78082 0.320195 L 0.784844 0.320195 L 0.788906 0.324258 L 0.79293 0.324258 L 0.796953 0.328281 L 0.801016 0.332305 L 0.805039 0.332305 L 0.809102 0.336367 L 0.817188 0.336367 L 0.821211 0.340391 L 0.829297 0.340391 L 0.83332 0.344453 L 0.837383 0.348477 L 0.837383 0.352539 L 0.841406 0.356562 L 0.845469 0.356562 L 0.849492 0.360625 L 0.853555 0.364648 L 0.857578 0.368672 L 0.869688 0.368672 L 0.881836 0.38082 L 0.881836 0.384844 L 0.885859 0.388906 L 0.889883 0.39293 L 0.893945 0.39293 L 0.902031 0.401016 L 0.902031 0.405039 L 0.906055 0.409102 L 0.910117 0.413125 L 0.914141 0.417188 L 0.918164 0.421211 L 0.922227 0.425234 L 0.922227 0.429297 L 0.92625 0.43332 L 0.930312 0.43332 L 0.930312 0.437383 L 0.934336 0.441406 L 0.934336 0.445469 L 0.938398 0.449492 L 0.942422 0.453555 L 0.942422 0.457578 L 0.946445 0.461602 L 0.946445 0.47375 L 0.950508 0.477773 L 0.950508 0.489883 L 0.954531 0.493945 L 0.954531 0.497969 L 0.950508 0.502031 L 0.950508 0.506055 L 0.938398 0.518164 L 0.942422 0.522227 L 0.942422 0.52625 L 0.938398 0.52625 L 0.934336 0.530312 L 0.930312 0.530312 L 0.92625 0.52625 L 0.918164 0.52625 L 0.914141 0.522227 L 0.910117 0.522227 L 0.906055 0.518164 L 0.902031 0.522227 L 0.897969 0.52625 L 0.893945 0.52625 L 0.885859 0.534336 L 0.881836 0.534336 L 0.877773 0.538398 L 0.87375 0.538398 L 0.869688 0.542422 L 0.857578 0.554531 L 0.853555 0.558594 L 0.849492 0.562617 L 0.841406 0.562617 L 0.837383 0.56668 L 0.83332 0.570703 L 0.825234 0.570703 L 0.821211 0.574766 L 0.817188 0.574766 L 0.813125 0.578789 L 0.805039 0.586875 L 0.801016 0.586875 L 0.796953 0.590898 L 0.784844 0.590898 L 0.78082 0.594961 L 0.776758 0.594961 L 0.768672 0.603047 L 0.764648 0.603047 L 0.760625 0.60707 L 0.756563 0.611094 L 0.752539 0.615156 L 0.748477 0.61918 L 0.744453 0.61918 L 0.740391 0.623242 L 0.736367 0.61918 L 0.732305 0.61918 L 0.728281 0.623242 L 0.720195 0.631328 L 0.712109 0.631328 L 0.708086 0.635352 L 0.704023 0.639375 L 0.695977 0.639375 L 0.691914 0.643438 L 0.687891 0.643438 L 0.683828 0.647461 L 0.679805 0.647461 L 0.675742 0.643438 L 0.671719 0.647461 L 0.667695 0.651523 L 0.663633 0.651523 L 0.651523 0.663633 L 0.639375 0.663633 L 0.635352 0.667695 L 0.631328 0.671719 L 0.615156 0.671719 L 0.611094 0.675742 L 0.60707 0.675742 L 0.603047 0.679805 L 0.586875 0.679805 L 0.582813 0.683828 L 0.578789 0.687891 L 0.574766 0.687891 L 0.570703 0.691914 L 0.558594 0.691914 L 0.554531 0.687891 L 0.542422 0.7 L 0.538398 0.7 L 0.534336 0.704023 L 0.52625 0.704023 L 0.522227 0.7 L 0.514141 0.7 L 0.506055 0.708086 L 0.497969 0.708086 L 0.493945 0.712109 L 0.489883 0.712109 L 0.485859 0.708086 L 0.477773 0.708086 L 0.47375 0.712109 L 0.469688 0.712109 L 0.465664 0.716172 L 0.445469 0.716172 L 0.445469 0.712109 L 0.441406 0.708086 L 0.43332 0.708086 L 0.429297 0.712109 L 0.417187 0.712109 L 0.413125 0.716172 L 0.409102 0.716172 L 0.405039 0.712109 L 0.405039 0.708086 L 0.401016 0.704023 L 0.39293 0.704023 L 0.388906 0.708086 L 0.384844 0.708086 L 0.38082 0.704023 L 0.376758 0.708086 L 0.364648 0.708086 L 0.360625 0.704023 L 0.352539 0.704023 L 0.352539 0.7 L 0.348477 0.695977 L 0.324258 0.695977 L 0.320195 0.691914 L 0.308086 0.691914 L 0.304023 0.687891 L 0.304023 0.683828 L 0.308086 0.679805 L 0.304023 0.675742 L 0.283828 0.675742 L 0.279805 0.671719 L 0.275742 0.671719 L 0.275742 0.667695 L 0.279805 0.663633 L 0.275742 0.659609 L 0.255547 0.659609 L 0.251523 0.655547 L 0.247461 0.655547 L 0.247461 0.647461 L 0.239375 0.639375 L 0.231328 0.639375 L 0.227266 0.635352 L 0.227266 0.623242 L 0.223242 0.61918 L 0.21918 0.61918 L 0.215156 0.615156 L 0.211094 0.615156 L 0.20707 0.611094 L 0.20707 0.603047 L 0.203047 0.598984 L 0.198984 0.598984 L 0.190898 0.590898 L 0.186875 0.590898 L 0.182813 0.586875 L 0.186875 0.582813 L 0.182813 0.578789 L 0.174766 0.578789 L 0.170703 0.574766 L 0.16668 0.574766 L 0.162617 0.570703 L 0.16668 0.56668 L 0.162617 0.562617 L 0.158594 0.562617 L 0.154531 0.558594 L 0.150508 0.554531 L 0.146445 0.554531 L 0.142422 0.558594 L 0.142422 0.554531 L 0.138398 0.550508 L 0.118164 0.550508 L 0.114141 0.546445 L 0.106055 0.546445 L 0.102031 0.542422 L 0.0979688 0.542422 L 0.0939453 0.546445 L 0.0898828 0.546445 L 0.0858594 0.542422 L 0.0818359 0.542422 L 0.0777734 0.546445 L 0.0454688 0.546445 Z M 0.0454688 0.542422 " transform="matrix(100,0,0,100,0,350)"/>
<path style="fill:none;stroke-width:0.01;stroke-linecap:butt;stroke-linejoin:miter;stroke:rgb(0%,0%,0%);stroke-opacity:1;stroke-miterlimit:10;" d="M 0.0454687 0.568594 L 0.0540234 0.560039 L 0.0711719 0.560039 L 0.0754687 0.555742 L 0.0754687 0.551445 L 0.0797656 0.551445 L 0.0840625 0.555742 L 0.0883203 0.551445 L 0.0969141 0.551445 L 0.101211 0.555742 L 0.105508 0.555742 L 0.109766 0.560039 L 0.118359 0.560039 L 0.122656 0.564336 L 0.126914 0.560039 L 0.131211 0.555742 L 0.131211 0.551445 L 0.139805 0.551445 L 0.144102 0.547187 L 0.144102 0.542891 L 0.148359 0.538594 L 0.152656 0.534297 L 0.152656 0.53 L 0.156953 0.53 L 0.16125 0.525742 L 0.16125 0.521445 L 0.152656 0.512852 L 0.152656 0.504297 L 0.16125 0.495703 L 0.165508 0.495703 L 0.169805 0.491406 L 0.174102 0.487148 L 0.178398 0.487148 L 0.182695 0.482852 L 0.182695 0.478555 L 0.178398 0.474258 L 0.174102 0.474258 L 0.178398 0.47 L 0.182695 0.465703 L 0.186953 0.461406 L 0.186953 0.452813 L 0.19125 0.452813 L 0.195547 0.448555 L 0.199844 0.444258 L 0.199844 0.439961 L 0.195547 0.435664 L 0.195547 0.431406 L 0.199844 0.431406 L 0.204102 0.427109 L 0.208398 0.422813 L 0.212695 0.422813 L 0.216992 0.418516 L 0.22125 0.418516 L 0.225547 0.414219 L 0.229844 0.409961 L 0.229844 0.401367 L 0.234141 0.39707 L 0.234141 0.392813 L 0.238438 0.388516 L 0.246992 0.388516 L 0.251289 0.384219 L 0.259844 0.384219 L 0.264141 0.379922 L 0.264141 0.36707 L 0.272734 0.358477 L 0.285586 0.358477 L 0.289883 0.354219 L 0.298438 0.354219 L 0.307031 0.345625 L 0.307031 0.337031 L 0.311328 0.337031 L 0.315625 0.332773 L 0.319883 0.328477 L 0.332773 0.328477 L 0.337031 0.32418 L 0.341328 0.32418 L 0.345625 0.319883 L 0.345625 0.311328 L 0.358477 0.311328 L 0.362773 0.307031 L 0.388516 0.307031 L 0.392813 0.302734 L 0.392813 0.298437 L 0.405664 0.298437 L 0.409961 0.29418 L 0.414219 0.289883 L 0.418516 0.289883 L 0.422813 0.29418 L 0.431406 0.285586 L 0.435664 0.281289 L 0.439961 0.281289 L 0.444258 0.277031 L 0.478555 0.277031 L 0.482852 0.281289 L 0.487148 0.281289 L 0.491406 0.277031 L 0.491406 0.268438 L 0.512852 0.268438 L 0.517148 0.272734 L 0.521445 0.272734 L 0.525742 0.268438 L 0.525742 0.259844 L 0.555742 0.259844 L 0.560039 0.264141 L 0.568594 0.264141 L 0.572891 0.259844 L 0.572891 0.251289 L 0.577187 0.251289 L 0.581484 0.255586 L 0.585781 0.255586 L 0.590039 0.251289 L 0.594336 0.251289 L 0.598633 0.255586 L 0.607188 0.255586 L 0.611484 0.259844 L 0.615781 0.255586 L 0.615781 0.251289 L 0.650078 0.251289 L 0.654375 0.255586 L 0.658672 0.255586 L 0.662969 0.259844 L 0.671523 0.251289 L 0.671523 0.242695 L 0.680117 0.251289 L 0.688672 0.251289 L 0.692969 0.255586 L 0.701563 0.255586 L 0.710117 0.264141 L 0.714414 0.264141 L 0.718711 0.259844 L 0.722969 0.259844 L 0.727266 0.264141 L 0.731562 0.264141 L 0.735859 0.268438 L 0.744414 0.268438 L 0.744414 0.272734 L 0.748711 0.277031 L 0.753008 0.281289 L 0.757305 0.285586 L 0.761563 0.285586 L 0.765859 0.281289 L 0.770156 0.281289 L 0.77875 0.289883 L 0.787305 0.289883 L 0.791602 0.29418 L 0.795898 0.298437 L 0.800156 0.302734 L 0.80875 0.311328 L 0.813047 0.307031 L 0.821602 0.307031 L 0.825898 0.311328 L 0.830195 0.311328 L 0.834492 0.315625 L 0.83875 0.315625 L 0.843047 0.319883 L 0.843047 0.32418 L 0.855898 0.337031 L 0.860195 0.332773 L 0.864492 0.332773 L 0.868789 0.337031 L 0.873086 0.341328 L 0.873086 0.345625 L 0.877344 0.349922 L 0.881641 0.349922 L 0.881641 0.354219 L 0.885938 0.358477 L 0.885938 0.362773 L 0.890234 0.36707 L 0.894492 0.362773 L 0.903086 0.371367 L 0.907383 0.375625 L 0.91168 0.379922 L 0.91168 0.388516 L 0.915938 0.392813 L 0.915938 0.39707 L 0.924531 0.405664 L 0.928828 0.405664 L 0.933086 0.409961 L 0.937383 0.414219 L 0.937383 0.422813 L 0.94168 0.427109 L 0.94168 0.435664 L 0.937383 0.439961 L 0.937383 0.448555 L 0.94168 0.452813 L 0.945977 0.448555 L 0.945977 0.47 L 0.950273 0.474258 L 0.954531 0.478555 L 0.950273 0.482852 L 0.950273 0.508594 L 0.945977 0.512852 L 0.950273 0.517148 L 0.945977 0.521445 L 0.945977 0.525742 L 0.94168 0.53 L 0.945977 0.534297 L 0.945977 0.538594 L 0.94168 0.542891 L 0.94168 0.547187 L 0.937383 0.551445 L 0.937383 0.555742 L 0.933086 0.560039 L 0.928828 0.564336 L 0.924531 0.564336 L 0.920234 0.568594 L 0.898789 0.568594 L 0.894492 0.564336 L 0.890234 0.568594 L 0.890234 0.585781 L 0.885938 0.590039 L 0.877344 0.590039 L 0.873086 0.585781 L 0.864492 0.585781 L 0.860195 0.590039 L 0.855898 0.594336 L 0.855898 0.598633 L 0.851641 0.60293 L 0.851641 0.607188 L 0.83875 0.620078 L 0.834492 0.624375 L 0.834492 0.628633 L 0.825898 0.637227 L 0.821602 0.637227 L 0.817305 0.641523 L 0.80875 0.641523 L 0.804453 0.645781 L 0.804453 0.650078 L 0.800156 0.654375 L 0.795898 0.658672 L 0.795898 0.662969 L 0.791602 0.667227 L 0.787305 0.667227 L 0.783008 0.662969 L 0.774453 0.671523 L 0.770156 0.671523 L 0.765859 0.67582 L 0.761563 0.67582 L 0.757305 0.680117 L 0.757305 0.67582 L 0.753008 0.671523 L 0.735859 0.688672 L 0.731562 0.688672 L 0.727266 0.692969 L 0.714414 0.692969 L 0.710117 0.697266 L 0.70582 0.697266 L 0.701563 0.701562 L 0.697266 0.701562 L 0.692969 0.70582 L 0.684375 0.714414 L 0.684375 0.70582 L 0.680117 0.701562 L 0.67582 0.70582 L 0.671523 0.710117 L 0.662969 0.710117 L 0.658672 0.714414 L 0.637227 0.714414 L 0.63293 0.718711 L 0.628633 0.722969 L 0.620078 0.722969 L 0.615781 0.727266 L 0.611484 0.727266 L 0.611484 0.722969 L 0.607188 0.718711 L 0.60293 0.718711 L 0.598633 0.722969 L 0.590039 0.731562 L 0.585781 0.735859 L 0.581484 0.740156 L 0.577187 0.744414 L 0.572891 0.740156 L 0.564336 0.740156 L 0.560039 0.744414 L 0.555742 0.748711 L 0.534297 0.748711 L 0.53 0.753008 L 0.525742 0.753008 L 0.525742 0.748711 L 0.521445 0.744414 L 0.517148 0.748711 L 0.512852 0.748711 L 0.508594 0.753008 L 0.504297 0.753008 L 0.5 0.757305 L 0.478555 0.757305 L 0.474258 0.753008 L 0.465703 0.753008 L 0.461406 0.757305 L 0.457109 0.757305 L 0.452813 0.753008 L 0.444258 0.753008 L 0.439961 0.757305 L 0.435664 0.757305 L 0.431406 0.753008 L 0.431406 0.748711 L 0.427109 0.744414 L 0.418516 0.744414 L 0.414219 0.748711 L 0.409961 0.748711 L 0.405664 0.753008 L 0.39707 0.753008 L 0.392813 0.757305 L 0.388516 0.757305 L 0.388516 0.753008 L 0.384219 0.748711 L 0.362773 0.748711 L 0.358477 0.744414 L 0.354219 0.744414 L 0.354219 0.735859 L 0.349922 0.731562 L 0.341328 0.731562 L 0.337031 0.735859 L 0.307031 0.735859 L 0.307031 0.727266 L 0.302734 0.722969 L 0.289883 0.722969 L 0.285586 0.718711 L 0.272734 0.718711 L 0.268438 0.714414 L 0.264141 0.714414 L 0.264141 0.70582 L 0.259844 0.701562 L 0.251289 0.701562 L 0.246992 0.697266 L 0.242695 0.697266 L 0.238438 0.692969 L 0.234141 0.692969 L 0.234141 0.688672 L 0.238438 0.684375 L 0.234141 0.680117 L 0.229844 0.67582 L 0.22125 0.67582 L 0.216992 0.671523 L 0.208398 0.671523 L 0.204102 0.667227 L 0.204102 0.662969 L 0.208398 0.658672 L 0.204102 0.654375 L 0.199844 0.650078 L 0.19125 0.650078 L 0.178398 0.637227 L 0.178398 0.63293 L 0.174102 0.628633 L 0.169805 0.628633 L 0.165508 0.624375 L 0.16125 0.624375 L 0.156953 0.620078 L 0.152656 0.620078 L 0.152656 0.611484 L 0.148359 0.607188 L 0.131211 0.607188 L 0.126914 0.60293 L 0.118359 0.60293 L 0.109766 0.594336 L 0.101211 0.594336 L 0.0969141 0.590039 L 0.0883203 0.590039 L 0.0797656 0.581484 L 0.0711719 0.581484 L 0.0669141 0.577187 L 0.0583203 0.577187 L 0.0540234 0.572891 L 0.0454687 0.572891 Z M 0.0454687 0.568594 " transform="matrix(100,0,0,100,150,350)"/>
<path style="fill:none;stroke-width:0.01;stroke-linecap:butt;stroke-linejoin:miter;stroke:rgb(0%,0%,0%);stroke-opacity:1;stroke-miterlimit:10;" d="M 0.0454687 0.53668 L 0.0576953 0.53668 L 0.0617578 0.532617 L 0.0658203 0.532617 L 0.0699219 0.528555 L 0.0739844 0.528555 L 0.0780859 0.524453 L 0.0862109 0.524453 L 0.0903125 0.520391 L 0.094375 0.516289 L 0.102539 0.516289 L 0.110664 0.508164 L 0.118828 0.508164 L 0.126992 0.5 L 0.126992 0.495938 L 0.131055 0.491836 L 0.135156 0.487773 L 0.143281 0.487773 L 0.147383 0.483711 L 0.147383 0.475547 L 0.151445 0.471445 L 0.155508 0.471445 L 0.159609 0.467383 L 0.159609 0.46332 L 0.167734 0.46332 L 0.171836 0.459219 L 0.167734 0.455156 L 0.163672 0.455156 L 0.159609 0.451094 L 0.163672 0.446992 L 0.163672 0.44293 L 0.167734 0.44293 L 0.171836 0.438867 L 0.171836 0.434766 L 0.175898 0.430703 L 0.175898 0.418477 L 0.18 0.414375 L 0.184063 0.414375 L 0.188125 0.410313 L 0.192227 0.410313 L 0.196289 0.40625 L 0.196289 0.402148 L 0.200352 0.398086 L 0.204453 0.394023 L 0.208516 0.394023 L 0.212578 0.389922 L 0.208516 0.385859 L 0.208516 0.381797 L 0.212578 0.377695 L 0.21668 0.377695 L 0.220742 0.373633 L 0.220742 0.369531 L 0.232969 0.369531 L 0.23707 0.365469 L 0.232969 0.361406 L 0.232969 0.357305 L 0.23707 0.357305 L 0.245195 0.34918 L 0.249297 0.34918 L 0.253359 0.345078 L 0.261523 0.345078 L 0.265586 0.341016 L 0.265586 0.332852 L 0.269687 0.332852 L 0.27375 0.328789 L 0.298203 0.328789 L 0.302266 0.324688 L 0.306367 0.320625 L 0.302266 0.316562 L 0.302266 0.312461 L 0.31043 0.312461 L 0.314531 0.308398 L 0.343047 0.308398 L 0.347109 0.304336 L 0.347109 0.300234 L 0.355273 0.300234 L 0.359375 0.296172 L 0.371602 0.296172 L 0.375664 0.292109 L 0.383828 0.292109 L 0.387891 0.296172 L 0.396055 0.288008 L 0.40418 0.288008 L 0.408281 0.283945 L 0.412344 0.288008 L 0.416445 0.288008 L 0.420508 0.283945 L 0.42457 0.283945 L 0.428672 0.288008 L 0.432734 0.283945 L 0.432734 0.279844 L 0.440898 0.279844 L 0.444961 0.275781 L 0.453125 0.275781 L 0.457187 0.271719 L 0.461289 0.271719 L 0.465352 0.275781 L 0.469414 0.275781 L 0.473516 0.279844 L 0.477578 0.279844 L 0.481641 0.275781 L 0.481641 0.263555 L 0.493867 0.263555 L 0.497969 0.267617 L 0.506133 0.267617 L 0.510195 0.263555 L 0.514258 0.267617 L 0.518359 0.267617 L 0.522422 0.271719 L 0.526484 0.271719 L 0.530586 0.267617 L 0.530586 0.259492 L 0.534648 0.259492 L 0.538711 0.263555 L 0.546875 0.263555 L 0.550977 0.259492 L 0.555039 0.259492 L 0.559102 0.263555 L 0.563203 0.263555 L 0.567266 0.267617 L 0.571328 0.263555 L 0.571328 0.259492 L 0.591719 0.259492 L 0.59582 0.263555 L 0.599883 0.267617 L 0.616172 0.267617 L 0.616172 0.271719 L 0.620273 0.275781 L 0.624336 0.275781 L 0.628398 0.271719 L 0.648789 0.271719 L 0.652891 0.275781 L 0.656953 0.275781 L 0.661016 0.279844 L 0.665117 0.275781 L 0.681406 0.275781 L 0.68957 0.283945 L 0.693633 0.279844 L 0.701797 0.288008 L 0.705859 0.288008 L 0.709961 0.283945 L 0.722187 0.283945 L 0.72625 0.288008 L 0.730313 0.288008 L 0.734414 0.292109 L 0.738477 0.292109 L 0.742578 0.296172 L 0.746641 0.300234 L 0.750703 0.296172 L 0.754805 0.292109 L 0.76293 0.300234 L 0.771094 0.300234 L 0.775156 0.304336 L 0.779258 0.308398 L 0.78332 0.312461 L 0.787422 0.312461 L 0.791484 0.308398 L 0.795547 0.308398 L 0.799648 0.312461 L 0.803711 0.312461 L 0.807773 0.316562 L 0.811875 0.316562 L 0.811875 0.320625 L 0.815937 0.324688 L 0.82 0.324688 L 0.824102 0.328789 L 0.828164 0.328789 L 0.832266 0.332852 L 0.836328 0.336953 L 0.840391 0.341016 L 0.848555 0.341016 L 0.852617 0.345078 L 0.856719 0.345078 L 0.860781 0.34918 L 0.864844 0.353242 L 0.868945 0.357305 L 0.868945 0.361406 L 0.87707 0.369531 L 0.881172 0.369531 L 0.885234 0.373633 L 0.889336 0.377695 L 0.893398 0.381797 L 0.893398 0.385859 L 0.901563 0.394023 L 0.901563 0.398086 L 0.905625 0.402148 L 0.909687 0.40625 L 0.913789 0.410313 L 0.917852 0.410313 L 0.921914 0.414375 L 0.921914 0.418477 L 0.926016 0.422539 L 0.930078 0.426602 L 0.930078 0.430703 L 0.93418 0.434766 L 0.938242 0.438867 L 0.938242 0.44293 L 0.942305 0.446992 L 0.942305 0.455156 L 0.946406 0.459219 L 0.946406 0.475547 L 0.950469 0.479609 L 0.950469 0.5 L 0.954531 0.504062 L 0.954531 0.516289 L 0.950469 0.520391 L 0.950469 0.532617 L 0.942305 0.540781 L 0.938242 0.540781 L 0.93418 0.544844 L 0.926016 0.544844 L 0.921914 0.548906 L 0.921914 0.565234 L 0.909687 0.565234 L 0.905625 0.561133 L 0.901563 0.55707 L 0.897461 0.553008 L 0.893398 0.548906 L 0.889336 0.553008 L 0.885234 0.55707 L 0.885234 0.561133 L 0.881172 0.565234 L 0.87707 0.565234 L 0.873008 0.569297 L 0.868945 0.573398 L 0.864844 0.573398 L 0.860781 0.577461 L 0.860781 0.581523 L 0.856719 0.585625 L 0.852617 0.589688 L 0.848555 0.59375 L 0.844492 0.597852 L 0.844492 0.601914 L 0.840391 0.601914 L 0.836328 0.605977 L 0.828164 0.605977 L 0.824102 0.610078 L 0.82 0.614141 L 0.811875 0.614141 L 0.807773 0.618203 L 0.803711 0.618203 L 0.799648 0.614141 L 0.795547 0.618203 L 0.791484 0.618203 L 0.787422 0.622305 L 0.787422 0.626367 L 0.779258 0.626367 L 0.775156 0.630469 L 0.771094 0.630469 L 0.767031 0.634531 L 0.758867 0.634531 L 0.754805 0.638594 L 0.750703 0.638594 L 0.746641 0.642695 L 0.742578 0.646758 L 0.730313 0.646758 L 0.72625 0.65082 L 0.722187 0.654922 L 0.714023 0.654922 L 0.709961 0.658984 L 0.705859 0.658984 L 0.701797 0.663047 L 0.693633 0.663047 L 0.68957 0.667148 L 0.685469 0.667148 L 0.681406 0.671211 L 0.673242 0.671211 L 0.66918 0.675313 L 0.665117 0.679375 L 0.661016 0.679375 L 0.656953 0.683438 L 0.652891 0.683438 L 0.648789 0.679375 L 0.640625 0.687539 L 0.636563 0.687539 L 0.6325 0.691602 L 0.624336 0.691602 L 0.620273 0.695664 L 0.608047 0.695664 L 0.599883 0.703828 L 0.59582 0.703828 L 0.591719 0.707891 L 0.587656 0.707891 L 0.583555 0.711992 L 0.57543 0.711992 L 0.571328 0.707891 L 0.567266 0.711992 L 0.563203 0.716055 L 0.559102 0.716055 L 0.555039 0.720156 L 0.550977 0.724219 L 0.530586 0.724219 L 0.526484 0.720156 L 0.522422 0.720156 L 0.518359 0.724219 L 0.514258 0.724219 L 0.510195 0.728281 L 0.497969 0.728281 L 0.493867 0.732383 L 0.489805 0.732383 L 0.485742 0.728281 L 0.481641 0.728281 L 0.477578 0.732383 L 0.473516 0.732383 L 0.469414 0.736445 L 0.449023 0.736445 L 0.444961 0.732383 L 0.440898 0.732383 L 0.436797 0.736445 L 0.432734 0.740508 L 0.428672 0.740508 L 0.42457 0.736445 L 0.40418 0.736445 L 0.40418 0.732383 L 0.400117 0.728281 L 0.371602 0.728281 L 0.3675 0.724219 L 0.3675 0.720156 L 0.363437 0.716055 L 0.355273 0.716055 L 0.351211 0.720156 L 0.347109 0.720156 L 0.343047 0.716055 L 0.326758 0.716055 L 0.322656 0.711992 L 0.322656 0.707891 L 0.314531 0.699766 L 0.31043 0.703828 L 0.306367 0.703828 L 0.302266 0.699766 L 0.294141 0.699766 L 0.285977 0.691602 L 0.285977 0.683438 L 0.281914 0.679375 L 0.269687 0.679375 L 0.265586 0.675313 L 0.261523 0.675313 L 0.257422 0.671211 L 0.253359 0.671211 L 0.249297 0.667148 L 0.253359 0.663047 L 0.253359 0.658984 L 0.249297 0.654922 L 0.23707 0.654922 L 0.232969 0.65082 L 0.228906 0.65082 L 0.224844 0.646758 L 0.220742 0.642695 L 0.224844 0.638594 L 0.220742 0.634531 L 0.21668 0.630469 L 0.208516 0.630469 L 0.204453 0.626367 L 0.200352 0.626367 L 0.196289 0.622305 L 0.192227 0.622305 L 0.188125 0.618203 L 0.192227 0.614141 L 0.196289 0.610078 L 0.192227 0.605977 L 0.188125 0.601914 L 0.18 0.601914 L 0.18 0.597852 L 0.175898 0.59375 L 0.171836 0.59375 L 0.171836 0.589688 L 0.175898 0.585625 L 0.175898 0.581523 L 0.171836 0.577461 L 0.167734 0.573398 L 0.163672 0.569297 L 0.159609 0.569297 L 0.155508 0.565234 L 0.151445 0.561133 L 0.147383 0.55707 L 0.143281 0.553008 L 0.139219 0.553008 L 0.135156 0.548906 L 0.131055 0.544844 L 0.118828 0.544844 L 0.114766 0.540781 L 0.110664 0.540781 L 0.106602 0.544844 L 0.102539 0.540781 L 0.0739844 0.540781 L 0.0699219 0.544844 L 0.0658203 0.544844 L 0.0617578 0.540781 L 0.0495313 0.540781 Z M 0.0454687 0.53668 " transform="matrix(100,0,0,100,300,350)"/>
<path style="fill:none;stroke-width:0.01;stroke-linecap:butt;stroke-linejoin:miter;stroke:rgb(0%,0%,0%);stroke-opacity:1;stroke-miterlimit:10;" d="M 0.0454688 0.541133 L 0.049375 0.545078 L 0.0650391 0.545078 L 0.0689844 0.548984 L 0.0728906 0.548984 L 0.0767969 0.545078 L 0.0807031 0.548984 L 0.0846484 0.545078 L 0.108164 0.545078 L 0.11207 0.541133 L 0.123828 0.541133 L 0.127734 0.537227 L 0.15125 0.537227 L 0.155156 0.53332 L 0.155156 0.529375 L 0.163008 0.529375 L 0.166914 0.525469 L 0.174766 0.525469 L 0.186523 0.513711 L 0.19043 0.513711 L 0.194375 0.509805 L 0.202187 0.509805 L 0.206094 0.505859 L 0.202187 0.501953 L 0.202187 0.498047 L 0.210039 0.490195 L 0.213945 0.490195 L 0.217852 0.486289 L 0.217852 0.482383 L 0.213945 0.478438 L 0.217852 0.474531 L 0.221797 0.470625 L 0.225703 0.46668 L 0.229609 0.462773 L 0.233555 0.458867 L 0.237461 0.458867 L 0.241367 0.454922 L 0.237461 0.451016 L 0.237461 0.447109 L 0.233555 0.443164 L 0.233555 0.439258 L 0.237461 0.435352 L 0.241367 0.435352 L 0.245312 0.431445 L 0.249219 0.431445 L 0.253125 0.4275 L 0.25707 0.4275 L 0.264883 0.419688 L 0.264883 0.415742 L 0.25707 0.40793 L 0.25707 0.403984 L 0.260977 0.403984 L 0.264883 0.400078 L 0.268828 0.396172 L 0.272734 0.396172 L 0.276641 0.392227 L 0.280547 0.392227 L 0.284492 0.38832 L 0.288398 0.384414 L 0.288398 0.380469 L 0.284492 0.376562 L 0.284492 0.368711 L 0.288398 0.368711 L 0.292305 0.364805 L 0.304062 0.364805 L 0.308008 0.360898 L 0.31582 0.360898 L 0.319766 0.356992 L 0.323672 0.353047 L 0.323672 0.341289 L 0.331523 0.341289 L 0.33543 0.337383 L 0.339336 0.341289 L 0.343242 0.337383 L 0.351094 0.337383 L 0.355 0.333477 L 0.358945 0.333477 L 0.362852 0.329531 L 0.362852 0.325625 L 0.366758 0.321719 L 0.386367 0.321719 L 0.390273 0.317773 L 0.402031 0.317773 L 0.405938 0.313867 L 0.405938 0.309961 L 0.409883 0.306016 L 0.413789 0.306016 L 0.417695 0.302109 L 0.421641 0.302109 L 0.425547 0.306016 L 0.429453 0.306016 L 0.433398 0.302109 L 0.445156 0.302109 L 0.449063 0.298203 L 0.449063 0.294297 L 0.480391 0.294297 L 0.488242 0.286445 L 0.492148 0.286445 L 0.496094 0.282539 L 0.5 0.282539 L 0.503906 0.286445 L 0.527422 0.286445 L 0.531367 0.282539 L 0.531367 0.278594 L 0.53918 0.278594 L 0.543086 0.274688 L 0.550937 0.274688 L 0.554844 0.278594 L 0.570547 0.278594 L 0.574453 0.282539 L 0.582305 0.282539 L 0.586211 0.278594 L 0.594062 0.278594 L 0.597969 0.282539 L 0.605781 0.282539 L 0.609727 0.286445 L 0.613633 0.286445 L 0.617539 0.282539 L 0.617539 0.274688 L 0.637148 0.274688 L 0.641055 0.278594 L 0.652813 0.278594 L 0.656758 0.282539 L 0.660664 0.278594 L 0.668477 0.270781 L 0.672422 0.270781 L 0.676328 0.266836 L 0.680234 0.270781 L 0.688086 0.270781 L 0.691992 0.274688 L 0.699844 0.274688 L 0.707695 0.282539 L 0.711602 0.278594 L 0.711602 0.274688 L 0.719453 0.274688 L 0.723359 0.278594 L 0.731172 0.278594 L 0.735117 0.282539 L 0.739023 0.282539 L 0.74293 0.286445 L 0.746875 0.290352 L 0.754688 0.290352 L 0.758633 0.286445 L 0.766445 0.286445 L 0.770391 0.290352 L 0.774297 0.290352 L 0.778203 0.294297 L 0.782148 0.298203 L 0.786055 0.302109 L 0.793906 0.302109 L 0.793906 0.306016 L 0.797813 0.309961 L 0.801719 0.306016 L 0.80957 0.306016 L 0.813477 0.309961 L 0.817383 0.309961 L 0.821328 0.313867 L 0.825234 0.317773 L 0.829141 0.321719 L 0.833086 0.325625 L 0.836992 0.329531 L 0.840898 0.325625 L 0.84875 0.325625 L 0.852656 0.329531 L 0.856602 0.329531 L 0.860508 0.333477 L 0.876172 0.349141 L 0.876172 0.353047 L 0.880078 0.356992 L 0.88793 0.356992 L 0.891836 0.360898 L 0.895781 0.364805 L 0.899687 0.368711 L 0.899687 0.372656 L 0.903594 0.376562 L 0.907539 0.380469 L 0.911445 0.384414 L 0.911445 0.38832 L 0.915352 0.392227 L 0.919297 0.392227 L 0.923203 0.396172 L 0.923203 0.400078 L 0.927109 0.403984 L 0.931016 0.40793 L 0.931016 0.411836 L 0.934961 0.415742 L 0.934961 0.419688 L 0.938867 0.423594 L 0.938867 0.4275 L 0.942773 0.431445 L 0.942773 0.435352 L 0.946719 0.439258 L 0.946719 0.443164 L 0.950625 0.447109 L 0.950625 0.454922 L 0.954531 0.458867 L 0.954531 0.46668 L 0.950625 0.470625 L 0.950625 0.482383 L 0.946719 0.486289 L 0.942773 0.490195 L 0.938867 0.490195 L 0.934961 0.494141 L 0.931016 0.498047 L 0.927109 0.501953 L 0.927109 0.505859 L 0.923203 0.509805 L 0.907539 0.509805 L 0.899687 0.501953 L 0.891836 0.509805 L 0.891836 0.513711 L 0.88793 0.517617 L 0.88793 0.521562 L 0.884023 0.525469 L 0.880078 0.529375 L 0.880078 0.53332 L 0.876172 0.537227 L 0.872266 0.537227 L 0.86832 0.541133 L 0.864414 0.545078 L 0.856602 0.552891 L 0.852656 0.552891 L 0.84875 0.556836 L 0.844844 0.560742 L 0.840898 0.564648 L 0.836992 0.564648 L 0.825234 0.576406 L 0.821328 0.576406 L 0.817383 0.580312 L 0.813477 0.580312 L 0.80957 0.584258 L 0.805625 0.588164 L 0.801719 0.59207 L 0.797813 0.596016 L 0.793906 0.599922 L 0.789961 0.603828 L 0.774297 0.603828 L 0.770391 0.607773 L 0.766445 0.61168 L 0.758633 0.61168 L 0.754688 0.615586 L 0.750781 0.619531 L 0.746875 0.623437 L 0.739023 0.623437 L 0.727266 0.635195 L 0.723359 0.635195 L 0.719453 0.639102 L 0.715508 0.635195 L 0.695938 0.654766 L 0.680234 0.654766 L 0.676328 0.658711 L 0.672422 0.662617 L 0.668477 0.666523 L 0.66457 0.666523 L 0.660664 0.670469 L 0.656758 0.670469 L 0.652813 0.674375 L 0.648906 0.670469 L 0.645 0.670469 L 0.641055 0.674375 L 0.637148 0.678281 L 0.633242 0.678281 L 0.629297 0.682227 L 0.625391 0.682227 L 0.621484 0.686133 L 0.609727 0.686133 L 0.605781 0.690039 L 0.601875 0.693984 L 0.597969 0.693984 L 0.594062 0.697891 L 0.578359 0.697891 L 0.574453 0.693984 L 0.570547 0.697891 L 0.566602 0.697891 L 0.558789 0.705703 L 0.554844 0.705703 L 0.550937 0.709648 L 0.547031 0.713555 L 0.543086 0.713555 L 0.53918 0.717461 L 0.531367 0.717461 L 0.527422 0.713555 L 0.523516 0.713555 L 0.515664 0.721406 L 0.511758 0.721406 L 0.507852 0.725313 L 0.496094 0.725313 L 0.492148 0.721406 L 0.488242 0.721406 L 0.484336 0.725313 L 0.480391 0.725313 L 0.476484 0.729219 L 0.468633 0.729219 L 0.464727 0.733164 L 0.449063 0.733164 L 0.449063 0.729219 L 0.445156 0.725313 L 0.441211 0.725313 L 0.437305 0.729219 L 0.429453 0.729219 L 0.425547 0.725313 L 0.421641 0.729219 L 0.409883 0.729219 L 0.405938 0.725313 L 0.402031 0.721406 L 0.394219 0.721406 L 0.390273 0.725313 L 0.386367 0.721406 L 0.378516 0.721406 L 0.374609 0.725313 L 0.370703 0.725313 L 0.366758 0.721406 L 0.355 0.721406 L 0.355 0.717461 L 0.351094 0.713555 L 0.351094 0.709648 L 0.347188 0.705703 L 0.343242 0.705703 L 0.339336 0.701797 L 0.331523 0.701797 L 0.327578 0.697891 L 0.323672 0.697891 L 0.319766 0.701797 L 0.311914 0.701797 L 0.308008 0.697891 L 0.304062 0.697891 L 0.300156 0.693984 L 0.300156 0.682227 L 0.29625 0.678281 L 0.280547 0.678281 L 0.276641 0.674375 L 0.272734 0.674375 L 0.264883 0.666523 L 0.264883 0.662617 L 0.268828 0.658711 L 0.260977 0.650859 L 0.25707 0.650859 L 0.253125 0.646953 L 0.241367 0.646953 L 0.237461 0.643008 L 0.237461 0.631289 L 0.233555 0.627344 L 0.229609 0.627344 L 0.225703 0.623437 L 0.217852 0.623437 L 0.213945 0.619531 L 0.213945 0.615586 L 0.210039 0.61168 L 0.206094 0.607773 L 0.198281 0.607773 L 0.194375 0.603828 L 0.19043 0.603828 L 0.186523 0.599922 L 0.186523 0.596016 L 0.182617 0.59207 L 0.170859 0.59207 L 0.166914 0.588164 L 0.163008 0.584258 L 0.163008 0.580312 L 0.159102 0.576406 L 0.147344 0.576406 L 0.143398 0.580312 L 0.135586 0.5725 L 0.115977 0.5725 L 0.11207 0.568555 L 0.100313 0.568555 L 0.0964063 0.564648 L 0.0807031 0.564648 L 0.0767969 0.560742 L 0.0650391 0.560742 L 0.0611328 0.556836 L 0.0572266 0.556836 L 0.0454688 0.545078 Z M 0.0454688 0.541133 " transform="matrix(100,0,0,100,450,350)"/>
<path style="fill:none;stroke-width:0.01;stroke-linecap:butt;stroke-linejoin:miter;stroke:rgb(0%,0%,0%);stroke-opacity:1;stroke-miterlimit:10;" d="M 0.0454688 0.509688 L 0.0802734 0.509688 L 0.0841406 0.50582 L 0.091875 0.50582 L 0.0957422 0.501953 L 0.103477 0.501953 L 0.107344 0.498047 L 0.118945 0.498047 L 0.12668 0.490312 L 0.130547 0.490312 L 0.134414 0.486445 L 0.138281 0.486445 L 0.146016 0.478711 L 0.149922 0.478711 L 0.153789 0.474844 L 0.157656 0.474844 L 0.161523 0.470977 L 0.161523 0.459375 L 0.165391 0.459375 L 0.169258 0.455508 L 0.176992 0.455508 L 0.180859 0.451641 L 0.176992 0.447773 L 0.173125 0.447773 L 0.173125 0.443906 L 0.176992 0.443906 L 0.180859 0.440039 L 0.184727 0.440039 L 0.192461 0.432305 L 0.192461 0.428438 L 0.188594 0.42457 L 0.196328 0.416836 L 0.20793 0.416836 L 0.215664 0.409102 L 0.215664 0.401367 L 0.211797 0.3975 L 0.211797 0.393633 L 0.215664 0.393633 L 0.219531 0.389766 L 0.227266 0.389766 L 0.231133 0.385898 L 0.235 0.385898 L 0.238867 0.381992 L 0.238867 0.374258 L 0.235 0.370391 L 0.235 0.366523 L 0.242734 0.358789 L 0.250469 0.358789 L 0.254336 0.354922 L 0.26207 0.354922 L 0.265977 0.351055 L 0.269844 0.351055 L 0.273711 0.347187 L 0.273711 0.339453 L 0.277578 0.335586 L 0.28918 0.335586 L 0.293047 0.331719 L 0.304648 0.331719 L 0.308516 0.327852 L 0.308516 0.320117 L 0.320117 0.320117 L 0.323984 0.31625 L 0.327852 0.320117 L 0.34332 0.320117 L 0.347188 0.31625 L 0.347188 0.312383 L 0.381992 0.312383 L 0.385898 0.308516 L 0.389766 0.304648 L 0.42457 0.304648 L 0.428438 0.300781 L 0.459375 0.300781 L 0.463242 0.304648 L 0.467109 0.300781 L 0.490312 0.300781 L 0.49418 0.304648 L 0.501953 0.304648 L 0.50582 0.300781 L 0.521289 0.300781 L 0.525156 0.304648 L 0.529023 0.304648 L 0.532891 0.308516 L 0.540625 0.308516 L 0.544492 0.304648 L 0.548359 0.304648 L 0.552227 0.308516 L 0.563828 0.308516 L 0.571562 0.31625 L 0.57543 0.31625 L 0.579297 0.312383 L 0.587031 0.312383 L 0.590898 0.31625 L 0.598633 0.31625 L 0.6025 0.320117 L 0.606367 0.320117 L 0.610234 0.31625 L 0.614102 0.31625 L 0.618008 0.320117 L 0.625742 0.320117 L 0.629609 0.323984 L 0.633477 0.323984 L 0.637344 0.327852 L 0.641211 0.327852 L 0.645078 0.323984 L 0.660547 0.323984 L 0.664414 0.327852 L 0.668281 0.327852 L 0.672148 0.331719 L 0.68375 0.331719 L 0.687617 0.335586 L 0.691484 0.335586 L 0.699219 0.34332 L 0.703086 0.34332 L 0.706953 0.339453 L 0.714688 0.339453 L 0.722422 0.347187 L 0.726289 0.347187 L 0.730156 0.351055 L 0.741797 0.351055 L 0.749531 0.358789 L 0.753398 0.358789 L 0.757266 0.362656 L 0.768867 0.362656 L 0.772734 0.366523 L 0.776602 0.366523 L 0.784336 0.374258 L 0.788203 0.374258 L 0.79207 0.378125 L 0.803672 0.378125 L 0.807539 0.381992 L 0.815273 0.381992 L 0.819141 0.385898 L 0.823008 0.389766 L 0.826875 0.389766 L 0.830742 0.393633 L 0.834609 0.393633 L 0.842344 0.401367 L 0.846211 0.401367 L 0.850078 0.405234 L 0.853984 0.405234 L 0.857852 0.409102 L 0.861719 0.409102 L 0.884922 0.432305 L 0.884922 0.436172 L 0.888789 0.440039 L 0.892656 0.440039 L 0.900391 0.432305 L 0.904258 0.432305 L 0.908125 0.428438 L 0.911992 0.428438 L 0.915859 0.432305 L 0.919727 0.432305 L 0.927461 0.440039 L 0.931328 0.440039 L 0.935195 0.443906 L 0.939063 0.443906 L 0.950664 0.455508 L 0.950664 0.459375 L 0.954531 0.463242 L 0.954531 0.490312 L 0.946797 0.498047 L 0.946797 0.517422 L 0.94293 0.521289 L 0.939063 0.521289 L 0.935195 0.525156 L 0.935195 0.532891 L 0.931328 0.536758 L 0.931328 0.540625 L 0.923594 0.548359 L 0.919727 0.548359 L 0.915859 0.552227 L 0.915859 0.567695 L 0.911992 0.571562 L 0.911992 0.579297 L 0.908125 0.583164 L 0.904258 0.583164 L 0.896523 0.590898 L 0.896523 0.594766 L 0.892656 0.598633 L 0.892656 0.6025 L 0.888789 0.6025 L 0.877187 0.614102 L 0.869453 0.614102 L 0.865586 0.618008 L 0.865586 0.625742 L 0.857852 0.633477 L 0.853984 0.633477 L 0.850078 0.637344 L 0.846211 0.641211 L 0.842344 0.637344 L 0.838477 0.637344 L 0.819141 0.65668 L 0.815273 0.65668 L 0.807539 0.664414 L 0.795937 0.664414 L 0.79207 0.660547 L 0.780469 0.672148 L 0.776602 0.672148 L 0.772734 0.676016 L 0.761133 0.676016 L 0.757266 0.672148 L 0.753398 0.672148 L 0.745664 0.679883 L 0.741797 0.679883 L 0.73793 0.68375 L 0.734023 0.68375 L 0.730156 0.687617 L 0.718555 0.687617 L 0.714688 0.691484 L 0.71082 0.691484 L 0.71082 0.687617 L 0.706953 0.68375 L 0.699219 0.68375 L 0.695352 0.687617 L 0.691484 0.687617 L 0.687617 0.691484 L 0.679883 0.691484 L 0.676016 0.695352 L 0.672148 0.695352 L 0.668281 0.699219 L 0.652813 0.699219 L 0.652813 0.695352 L 0.648945 0.691484 L 0.633477 0.691484 L 0.629609 0.695352 L 0.621875 0.695352 L 0.618008 0.699219 L 0.6025 0.699219 L 0.6025 0.695352 L 0.598633 0.691484 L 0.590898 0.691484 L 0.587031 0.695352 L 0.57543 0.695352 L 0.571562 0.699219 L 0.559961 0.699219 L 0.559961 0.695352 L 0.556094 0.691484 L 0.552227 0.691484 L 0.548359 0.695352 L 0.525156 0.695352 L 0.521289 0.691484 L 0.509688 0.691484 L 0.50582 0.695352 L 0.486445 0.695352 L 0.478711 0.687617 L 0.474844 0.691484 L 0.470977 0.691484 L 0.467109 0.687617 L 0.463242 0.691484 L 0.447773 0.691484 L 0.447773 0.687617 L 0.443906 0.68375 L 0.440039 0.68375 L 0.436172 0.687617 L 0.432305 0.68375 L 0.428438 0.687617 L 0.409102 0.687617 L 0.405234 0.691484 L 0.401367 0.687617 L 0.401367 0.68375 L 0.3975 0.679883 L 0.385898 0.679883 L 0.381992 0.68375 L 0.358789 0.68375 L 0.358789 0.676016 L 0.354922 0.672148 L 0.347188 0.672148 L 0.34332 0.668281 L 0.339453 0.672148 L 0.335586 0.668281 L 0.323984 0.668281 L 0.323984 0.664414 L 0.31625 0.65668 L 0.285312 0.65668 L 0.285312 0.645078 L 0.281445 0.641211 L 0.250469 0.641211 L 0.250469 0.633477 L 0.254336 0.629609 L 0.254336 0.625742 L 0.250469 0.621875 L 0.238867 0.621875 L 0.235 0.618008 L 0.231133 0.618008 L 0.227266 0.614102 L 0.223398 0.614102 L 0.227266 0.610234 L 0.227266 0.6025 L 0.223398 0.598633 L 0.211797 0.598633 L 0.20793 0.594766 L 0.200195 0.594766 L 0.200195 0.590898 L 0.204063 0.587031 L 0.204063 0.57543 L 0.200195 0.571562 L 0.196328 0.571562 L 0.192461 0.567695 L 0.188594 0.567695 L 0.184727 0.563828 L 0.180859 0.563828 L 0.184727 0.559961 L 0.184727 0.552227 L 0.180859 0.548359 L 0.176992 0.548359 L 0.173125 0.544492 L 0.165391 0.544492 L 0.165391 0.540625 L 0.157656 0.532891 L 0.153789 0.532891 L 0.149922 0.536758 L 0.149922 0.529023 L 0.146016 0.525156 L 0.142148 0.525156 L 0.138281 0.529023 L 0.134414 0.525156 L 0.130547 0.529023 L 0.12668 0.525156 L 0.107344 0.525156 L 0.103477 0.521289 L 0.0609375 0.521289 L 0.0570703 0.517422 L 0.0532031 0.517422 L 0.0493359 0.513555 L 0.0454688 0.513555 Z M 0.0454688 0.509688 " transform="matrix(100,0,0,100,600,350)"/>
</g>
</svg>
