<?xml version="1.0" encoding="UTF-8"?>
<svg xmlns="http://www.w3.org/2000/svg" xmlns:xlink="http://www.w3.org/1999/xlink" width="750pt" height="2800pt" viewBox="0 0 750 2800" version="1.1">
<g id="surface1">
<path style="fill:none;stroke-width:0.01;stroke-linecap:butt;stroke-linejoin:miter;stroke:rgb(0%,0%,0%);stroke-opacity:1;stroke-miterlimit:10;" d="M 0.0454688 0.464688 L 0.0587109 0.451445 L 0.063125 0.451445 L 0.0675391 0.447031 L 0.0719141 0.447031 L 0.0763281 0.442617 L 0.0851563 0.442617 L 0.0939844 0.433789 L 0.0939844 0.407344 L 0.0983984 0.40293 L 0.107227 0.40293 L 0.111641 0.398516 L 0.151367 0.398516 L 0.155781 0.394102 L 0.155781 0.389687 L 0.151367 0.385273 L 0.151367 0.372031 L 0.146953 0.367617 L 0.146953 0.349961 L 0.151367 0.345547 L 0.155781 0.345547 L 0.160195 0.341133 L 0.173437 0.341133 L 0.177852 0.336719 L 0.182266 0.336719 L 0.18668 0.341133 L 0.20875 0.341133 L 0.213164 0.345547 L 0.221992 0.345547 L 0.226406 0.349961 L 0.23082 0.349961 L 0.235234 0.354375 L 0.244023 0.354375 L 0.248438 0.349961 L 0.248438 0.319063 L 0.244023 0.314648 L 0.248438 0.310234 L 0.248438 0.292578 L 0.252852 0.288164 L 0.252852 0.279336 L 0.257266 0.274922 L 0.26168 0.274922 L 0.266094 0.270508 L 0.310234 0.270508 L 0.314648 0.274922 L 0.323477 0.274922 L 0.327891 0.279336 L 0.332305 0.279336 L 0.336719 0.28375 L 0.341133 0.28375 L 0.354375 0.296992 L 0.358789 0.296992 L 0.376445 0.314648 L 0.380859 0.314648 L 0.394102 0.327891 L 0.398516 0.327891 L 0.40293 0.323477 L 0.40293 0.314648 L 0.407344 0.310234 L 0.407344 0.28375 L 0.411758 0.279336 L 0.411758 0.274922 L 0.416133 0.270508 L 0.416133 0.266094 L 0.420547 0.266094 L 0.424961 0.26168 L 0.424961 0.257266 L 0.429375 0.257266 L 0.433789 0.252852 L 0.438203 0.252852 L 0.442617 0.257266 L 0.455859 0.257266 L 0.460273 0.26168 L 0.469102 0.26168 L 0.473516 0.266094 L 0.47793 0.266094 L 0.482344 0.270508 L 0.486758 0.270508 L 0.517656 0.301406 L 0.52207 0.301406 L 0.526484 0.30582 L 0.526484 0.310234 L 0.544141 0.327891 L 0.544141 0.332305 L 0.561797 0.349961 L 0.561797 0.354375 L 0.566211 0.358789 L 0.566211 0.372031 L 0.570625 0.376445 L 0.570625 0.380859 L 0.575039 0.385273 L 0.575039 0.389687 L 0.579453 0.394102 L 0.583867 0.394102 L 0.588242 0.389687 L 0.592656 0.385273 L 0.592656 0.363203 L 0.59707 0.358789 L 0.59707 0.349961 L 0.601484 0.345547 L 0.601484 0.341133 L 0.605898 0.336719 L 0.605898 0.332305 L 0.610313 0.327891 L 0.614727 0.327891 L 0.619141 0.323477 L 0.623555 0.327891 L 0.641211 0.327891 L 0.645625 0.332305 L 0.650039 0.332305 L 0.654453 0.336719 L 0.658867 0.336719 L 0.676523 0.354375 L 0.676523 0.358789 L 0.680937 0.363203 L 0.680937 0.367617 L 0.685352 0.372031 L 0.685352 0.376445 L 0.69418 0.385273 L 0.69418 0.389687 L 0.698594 0.394102 L 0.698594 0.398516 L 0.703008 0.40293 L 0.703008 0.407344 L 0.707422 0.411758 L 0.707422 0.416133 L 0.720664 0.429375 L 0.720664 0.433789 L 0.725078 0.438203 L 0.725078 0.442617 L 0.729492 0.447031 L 0.729492 0.451445 L 0.733906 0.455859 L 0.733906 0.460273 L 0.73832 0.464688 L 0.747148 0.455859 L 0.747148 0.451445 L 0.755977 0.442617 L 0.76918 0.442617 L 0.773594 0.447031 L 0.778008 0.447031 L 0.782422 0.451445 L 0.786836 0.451445 L 0.795664 0.460273 L 0.804492 0.460273 L 0.808906 0.464688 L 0.81332 0.464688 L 0.817734 0.469102 L 0.830977 0.469102 L 0.835391 0.473516 L 0.839805 0.473516 L 0.844219 0.47793 L 0.848633 0.47793 L 0.853047 0.482344 L 0.857461 0.482344 L 0.861875 0.486758 L 0.861875 0.491172 L 0.866289 0.495586 L 0.866289 0.504414 L 0.875117 0.513242 L 0.901602 0.513242 L 0.906016 0.508828 L 0.928086 0.508828 L 0.932461 0.504414 L 0.941289 0.504414 L 0.945703 0.508828 L 0.950117 0.508828 L 0.954531 0.513242 L 0.954531 0.52207 L 0.945703 0.530898 L 0.932461 0.530898 L 0.928086 0.526484 L 0.875117 0.526484 L 0.870703 0.530898 L 0.870703 0.548555 L 0.866289 0.552969 L 0.866289 0.557383 L 0.857461 0.566211 L 0.853047 0.566211 L 0.848633 0.570625 L 0.839805 0.570625 L 0.835391 0.575039 L 0.830977 0.575039 L 0.826562 0.579453 L 0.817734 0.579453 L 0.81332 0.583867 L 0.804492 0.583867 L 0.800078 0.588242 L 0.795664 0.592656 L 0.79125 0.592656 L 0.786836 0.59707 L 0.782422 0.59707 L 0.778008 0.601484 L 0.742734 0.601484 L 0.73832 0.59707 L 0.73832 0.592656 L 0.733906 0.588242 L 0.729492 0.583867 L 0.725078 0.583867 L 0.720664 0.588242 L 0.71625 0.592656 L 0.711836 0.592656 L 0.707422 0.59707 L 0.703008 0.59707 L 0.69418 0.605898 L 0.689766 0.605898 L 0.685352 0.610313 L 0.680937 0.610313 L 0.676523 0.614727 L 0.672109 0.614727 L 0.663281 0.623555 L 0.654453 0.623555 L 0.650039 0.627969 L 0.645625 0.627969 L 0.641211 0.632383 L 0.619141 0.632383 L 0.614727 0.627969 L 0.610313 0.627969 L 0.610313 0.623555 L 0.605898 0.619141 L 0.605898 0.610313 L 0.601484 0.605898 L 0.592656 0.605898 L 0.588242 0.610313 L 0.588242 0.614727 L 0.583867 0.614727 L 0.579453 0.619141 L 0.579453 0.623555 L 0.570625 0.632383 L 0.570625 0.636797 L 0.566211 0.641211 L 0.566211 0.645625 L 0.561797 0.650039 L 0.561797 0.654453 L 0.548555 0.667695 L 0.548555 0.672109 L 0.495586 0.725078 L 0.491172 0.725078 L 0.482344 0.733906 L 0.47793 0.733906 L 0.473516 0.73832 L 0.460273 0.73832 L 0.455859 0.742734 L 0.447031 0.742734 L 0.442617 0.747148 L 0.394102 0.747148 L 0.389688 0.742734 L 0.389688 0.73832 L 0.385273 0.733906 L 0.385273 0.725078 L 0.380859 0.720664 L 0.380859 0.707422 L 0.376445 0.703008 L 0.376445 0.689766 L 0.380859 0.685352 L 0.380859 0.672109 L 0.376445 0.667695 L 0.372031 0.667695 L 0.367617 0.672109 L 0.363203 0.672109 L 0.354375 0.680938 L 0.354375 0.685352 L 0.349961 0.685352 L 0.336719 0.698594 L 0.332305 0.698594 L 0.327891 0.703008 L 0.323477 0.703008 L 0.319063 0.707422 L 0.301406 0.707422 L 0.296992 0.711836 L 0.292578 0.711836 L 0.288164 0.71625 L 0.221992 0.71625 L 0.217578 0.711836 L 0.213164 0.711836 L 0.20875 0.707422 L 0.204336 0.707422 L 0.204336 0.698594 L 0.199922 0.69418 L 0.199922 0.667695 L 0.204336 0.663281 L 0.204336 0.654453 L 0.20875 0.650039 L 0.20875 0.641211 L 0.213164 0.636797 L 0.213164 0.627969 L 0.217578 0.623555 L 0.213164 0.619141 L 0.182266 0.619141 L 0.177852 0.623555 L 0.124883 0.623555 L 0.120469 0.619141 L 0.111641 0.619141 L 0.102813 0.610313 L 0.102813 0.588242 L 0.107227 0.583867 L 0.107227 0.579453 L 0.111641 0.575039 L 0.111641 0.570625 L 0.120469 0.561797 L 0.120469 0.552969 L 0.111641 0.544141 L 0.107227 0.544141 L 0.102813 0.539727 L 0.0895703 0.539727 L 0.0851563 0.535312 L 0.0807422 0.535312 L 0.0763281 0.530898 L 0.0763281 0.526484 L 0.0719141 0.52207 L 0.0719141 0.517656 L 0.0675391 0.513242 L 0.0675391 0.508828 L 0.0498828 0.491172 L 0.0498828 0.486758 L 0.0454688 0.482344 L 0.0454688 0.469102 Z M 0.0454688 0.464688 " transform="matrix(100,0,0,100,0,200)"/>
<path style="fill:none;stroke-width:0.01;stroke-linecap:butt;stroke-linejoin:miter;stroke:rgb(0%,0%,0%);stroke-opacity:1;stroke-miterlimit:10;" d="M 0.0454687 0.485547 L 0.0495703 0.481406 L 0.0578516 0.481406 L 0.0661328 0.473125 L 0.0826563 0.473125 L 0.0867578 0.469023 L 0.0867578 0.464883 L 0.0908984 0.460742 L 0.0908984 0.456602 L 0.0867578 0.452461 L 0.0867578 0.444219 L 0.0826563 0.440078 L 0.0826563 0.431836 L 0.0867578 0.427695 L 0.0867578 0.423555 L 0.0908984 0.423555 L 0.0950391 0.419414 L 0.107422 0.419414 L 0.111563 0.415273 L 0.119844 0.415273 L 0.123984 0.419414 L 0.140508 0.419414 L 0.144609 0.415273 L 0.14875 0.411172 L 0.152891 0.407031 L 0.152891 0.394609 L 0.14875 0.390508 L 0.14875 0.386367 L 0.144609 0.382227 L 0.144609 0.373984 L 0.140508 0.369844 L 0.136367 0.365703 L 0.136367 0.340898 L 0.140508 0.340898 L 0.144609 0.336758 L 0.152891 0.336758 L 0.157031 0.332656 L 0.169414 0.332656 L 0.177695 0.324375 L 0.181836 0.324375 L 0.185938 0.328516 L 0.239688 0.328516 L 0.243789 0.332656 L 0.256211 0.332656 L 0.260312 0.336758 L 0.272734 0.336758 L 0.276875 0.340898 L 0.285117 0.340898 L 0.289258 0.336758 L 0.289258 0.324375 L 0.285117 0.320234 L 0.285117 0.316133 L 0.280977 0.311992 L 0.280977 0.303711 L 0.276875 0.29957 L 0.276875 0.295469 L 0.272734 0.291328 L 0.272734 0.270664 L 0.276875 0.266523 L 0.276875 0.262383 L 0.285117 0.254141 L 0.289258 0.254141 L 0.293398 0.25 L 0.326445 0.25 L 0.330586 0.254141 L 0.334727 0.254141 L 0.338828 0.258281 L 0.347109 0.258281 L 0.35125 0.262383 L 0.355391 0.266523 L 0.359492 0.270664 L 0.363633 0.270664 L 0.367773 0.274805 L 0.371914 0.278906 L 0.376016 0.278906 L 0.384297 0.287187 L 0.388437 0.287187 L 0.392578 0.291328 L 0.39668 0.295469 L 0.40082 0.29957 L 0.404961 0.303711 L 0.409102 0.303711 L 0.413242 0.307852 L 0.421484 0.307852 L 0.429766 0.316133 L 0.433867 0.316133 L 0.438008 0.320234 L 0.442148 0.320234 L 0.45043 0.328516 L 0.454531 0.328516 L 0.458672 0.332656 L 0.462813 0.332656 L 0.466953 0.336758 L 0.471094 0.336758 L 0.471094 0.340898 L 0.475195 0.345039 L 0.479336 0.34918 L 0.483477 0.34918 L 0.487617 0.35332 L 0.491719 0.35332 L 0.495859 0.357422 L 0.504141 0.365703 L 0.508281 0.365703 L 0.512383 0.361563 L 0.512383 0.340898 L 0.516523 0.336758 L 0.516523 0.332656 L 0.520664 0.328516 L 0.524805 0.328516 L 0.528906 0.324375 L 0.537187 0.324375 L 0.541328 0.320234 L 0.574375 0.320234 L 0.582656 0.328516 L 0.590898 0.328516 L 0.595039 0.332656 L 0.59918 0.332656 L 0.60332 0.336758 L 0.611563 0.336758 L 0.615703 0.340898 L 0.619844 0.340898 L 0.623984 0.345039 L 0.628086 0.34918 L 0.632227 0.35332 L 0.636367 0.35332 L 0.640508 0.357422 L 0.644609 0.357422 L 0.64875 0.361563 L 0.652891 0.361563 L 0.657031 0.365703 L 0.661172 0.365703 L 0.665273 0.369844 L 0.669414 0.369844 L 0.673555 0.373984 L 0.677695 0.378086 L 0.681836 0.382227 L 0.681836 0.386367 L 0.685938 0.390508 L 0.694219 0.390508 L 0.698359 0.386367 L 0.702461 0.382227 L 0.702461 0.373984 L 0.706602 0.369844 L 0.706602 0.365703 L 0.710742 0.361563 L 0.714883 0.361563 L 0.723125 0.35332 L 0.74793 0.35332 L 0.75207 0.357422 L 0.756211 0.357422 L 0.760312 0.361563 L 0.764453 0.365703 L 0.768594 0.365703 L 0.772734 0.369844 L 0.772734 0.373984 L 0.776875 0.378086 L 0.780977 0.382227 L 0.789258 0.390508 L 0.793398 0.390508 L 0.797539 0.386367 L 0.801641 0.386367 L 0.805781 0.382227 L 0.814062 0.382227 L 0.818164 0.386367 L 0.822305 0.382227 L 0.826445 0.382227 L 0.830586 0.378086 L 0.834727 0.378086 L 0.838828 0.373984 L 0.847109 0.373984 L 0.85125 0.378086 L 0.855391 0.378086 L 0.859492 0.382227 L 0.867773 0.390508 L 0.871914 0.394609 L 0.884297 0.394609 L 0.888438 0.39875 L 0.892578 0.39875 L 0.89668 0.402891 L 0.90082 0.407031 L 0.90082 0.411172 L 0.904961 0.415273 L 0.909102 0.415273 L 0.913242 0.411172 L 0.929766 0.411172 L 0.933867 0.407031 L 0.946289 0.407031 L 0.95043 0.411172 L 0.95043 0.415273 L 0.954531 0.419414 L 0.954531 0.423555 L 0.95043 0.427695 L 0.946289 0.427695 L 0.942148 0.431836 L 0.938008 0.431836 L 0.933867 0.427695 L 0.921484 0.427695 L 0.917344 0.431836 L 0.913242 0.431836 L 0.909102 0.435938 L 0.90082 0.444219 L 0.90082 0.448359 L 0.89668 0.452461 L 0.892578 0.456602 L 0.884297 0.464883 L 0.880156 0.464883 L 0.867773 0.477266 L 0.855391 0.477266 L 0.85125 0.481406 L 0.85125 0.485547 L 0.847109 0.489688 L 0.842969 0.493789 L 0.838828 0.493789 L 0.834727 0.49793 L 0.830586 0.49793 L 0.826445 0.50207 L 0.814062 0.50207 L 0.805781 0.493789 L 0.801641 0.49793 L 0.797539 0.50207 L 0.797539 0.510312 L 0.793398 0.514453 L 0.793398 0.522734 L 0.789258 0.526875 L 0.785117 0.530977 L 0.780977 0.535117 L 0.776875 0.539258 L 0.772734 0.543398 L 0.768594 0.543398 L 0.764453 0.547539 L 0.760312 0.551641 L 0.75207 0.551641 L 0.75207 0.547539 L 0.743789 0.539258 L 0.739688 0.535117 L 0.735547 0.530977 L 0.727266 0.530977 L 0.723125 0.535117 L 0.719023 0.535117 L 0.706602 0.547539 L 0.706602 0.555781 L 0.702461 0.559922 L 0.698359 0.564062 L 0.698359 0.613633 L 0.694219 0.617773 L 0.694219 0.630156 L 0.690078 0.634297 L 0.690078 0.642578 L 0.685938 0.64668 L 0.685938 0.65082 L 0.681836 0.654961 L 0.677695 0.659102 L 0.677695 0.663242 L 0.673555 0.667344 L 0.665273 0.675625 L 0.661172 0.679766 L 0.657031 0.683867 L 0.644609 0.696289 L 0.640508 0.696289 L 0.636367 0.70043 L 0.615703 0.70043 L 0.607422 0.692148 L 0.60332 0.688008 L 0.59918 0.683867 L 0.59918 0.679766 L 0.586758 0.667344 L 0.590898 0.663242 L 0.590898 0.65082 L 0.586758 0.64668 L 0.586758 0.634297 L 0.582656 0.630156 L 0.582656 0.617773 L 0.578516 0.613633 L 0.574375 0.613633 L 0.570234 0.609492 L 0.566133 0.613633 L 0.561992 0.617773 L 0.561992 0.621914 L 0.557852 0.626016 L 0.553711 0.630156 L 0.553711 0.634297 L 0.54957 0.638438 L 0.545469 0.642578 L 0.541328 0.64668 L 0.528906 0.659102 L 0.524805 0.663242 L 0.520664 0.667344 L 0.520664 0.671484 L 0.495859 0.696289 L 0.495859 0.70043 L 0.491719 0.704531 L 0.487617 0.704531 L 0.483477 0.708672 L 0.479336 0.708672 L 0.475195 0.712813 L 0.471094 0.716953 L 0.466953 0.721094 L 0.466953 0.729336 L 0.458672 0.737617 L 0.454531 0.741719 L 0.446289 0.741719 L 0.442148 0.745859 L 0.438008 0.745859 L 0.433867 0.75 L 0.40082 0.75 L 0.39668 0.745859 L 0.392578 0.745859 L 0.388437 0.741719 L 0.384297 0.737617 L 0.384297 0.733477 L 0.380156 0.729336 L 0.380156 0.692148 L 0.384297 0.688008 L 0.384297 0.679766 L 0.388437 0.675625 L 0.388437 0.659102 L 0.380156 0.65082 L 0.363633 0.65082 L 0.359492 0.654961 L 0.355391 0.654961 L 0.35125 0.659102 L 0.347109 0.659102 L 0.342969 0.663242 L 0.338828 0.663242 L 0.334727 0.667344 L 0.330586 0.667344 L 0.322305 0.675625 L 0.318164 0.675625 L 0.314063 0.679766 L 0.309922 0.679766 L 0.305781 0.683867 L 0.297539 0.683867 L 0.293398 0.688008 L 0.289258 0.688008 L 0.285117 0.692148 L 0.272734 0.692148 L 0.268594 0.696289 L 0.264453 0.692148 L 0.260312 0.696289 L 0.256211 0.696289 L 0.25207 0.692148 L 0.239688 0.692148 L 0.235547 0.696289 L 0.206602 0.696289 L 0.202461 0.692148 L 0.194219 0.692148 L 0.181836 0.679766 L 0.181836 0.675625 L 0.177695 0.671484 L 0.177695 0.667344 L 0.173555 0.663242 L 0.177695 0.659102 L 0.173555 0.654961 L 0.173555 0.638438 L 0.177695 0.634297 L 0.177695 0.630156 L 0.181836 0.630156 L 0.185938 0.626016 L 0.190078 0.621914 L 0.198359 0.613633 L 0.198359 0.588828 L 0.194219 0.584727 L 0.181836 0.584727 L 0.177695 0.580586 L 0.173555 0.584727 L 0.165273 0.584727 L 0.161172 0.588828 L 0.123984 0.588828 L 0.119844 0.584727 L 0.111563 0.584727 L 0.107422 0.580586 L 0.107422 0.559922 L 0.111563 0.555781 L 0.111563 0.543398 L 0.107422 0.539258 L 0.10332 0.535117 L 0.0702344 0.535117 L 0.0661328 0.530977 L 0.0619922 0.526875 L 0.0578516 0.526875 L 0.0495703 0.518594 L 0.0454687 0.514453 L 0.0454687 0.489688 Z M 0.0454687 0.485547 " transform="matrix(100,0,0,100,150,200)"/>
<path style="fill:none;stroke-width:0.01;stroke-linecap:butt;stroke-linejoin:miter;stroke:rgb(0%,0%,0%);stroke-opacity:1;stroke-miterlimit:10;" d="M 0.0454687 0.502188 L 0.0498437 0.497813 L 0.0541797 0.493438 L 0.0629297 0.484688 L 0.0673047 0.484688 L 0.0716797 0.480352 L 0.0804297 0.471602 L 0.0804297 0.445352 L 0.111016 0.445352 L 0.115391 0.441016 L 0.115391 0.427891 L 0.111016 0.423516 L 0.111016 0.414766 L 0.115391 0.410391 L 0.115391 0.40168 L 0.119766 0.397305 L 0.124141 0.397305 L 0.128516 0.39293 L 0.154727 0.39293 L 0.159102 0.397305 L 0.172188 0.397305 L 0.176563 0.40168 L 0.180938 0.40168 L 0.185313 0.406016 L 0.189688 0.406016 L 0.194063 0.410391 L 0.198438 0.406016 L 0.198438 0.39293 L 0.189688 0.38418 L 0.189688 0.379805 L 0.185313 0.37543 L 0.185313 0.371055 L 0.180938 0.36668 L 0.176563 0.362344 L 0.176563 0.327344 L 0.180938 0.323008 L 0.189688 0.314258 L 0.229023 0.314258 L 0.233398 0.318633 L 0.242148 0.318633 L 0.246484 0.323008 L 0.259609 0.323008 L 0.263984 0.327344 L 0.268359 0.327344 L 0.277109 0.336094 L 0.281484 0.336094 L 0.28582 0.340469 L 0.307695 0.362344 L 0.31207 0.362344 L 0.316445 0.357969 L 0.316445 0.340469 L 0.31207 0.336094 L 0.31207 0.331719 L 0.307695 0.327344 L 0.307695 0.318633 L 0.30332 0.314258 L 0.30332 0.296758 L 0.307695 0.292383 L 0.307695 0.283672 L 0.316445 0.274922 L 0.316445 0.270547 L 0.32082 0.270547 L 0.325156 0.266172 L 0.355781 0.266172 L 0.360156 0.270547 L 0.373242 0.270547 L 0.377617 0.274922 L 0.390742 0.274922 L 0.399492 0.283672 L 0.403828 0.283672 L 0.408203 0.288008 L 0.412578 0.288008 L 0.416953 0.292383 L 0.421328 0.292383 L 0.438828 0.309883 L 0.443164 0.314258 L 0.451914 0.323008 L 0.456289 0.327344 L 0.469414 0.340469 L 0.469414 0.344844 L 0.478164 0.353594 L 0.478164 0.357969 L 0.4825 0.362344 L 0.486875 0.36668 L 0.486875 0.371055 L 0.5 0.38418 L 0.50875 0.37543 L 0.50875 0.362344 L 0.513125 0.357969 L 0.513125 0.331719 L 0.5175 0.327344 L 0.5175 0.314258 L 0.521836 0.309883 L 0.530586 0.301133 L 0.530586 0.288008 L 0.534961 0.283672 L 0.539336 0.279297 L 0.552461 0.279297 L 0.556836 0.283672 L 0.569922 0.283672 L 0.574297 0.288008 L 0.578672 0.288008 L 0.596172 0.305508 L 0.600508 0.309883 L 0.613633 0.323008 L 0.618008 0.327344 L 0.631133 0.340469 L 0.631133 0.344844 L 0.635508 0.349219 L 0.635508 0.357969 L 0.639844 0.362344 L 0.644219 0.36668 L 0.644219 0.371055 L 0.648594 0.37543 L 0.648594 0.38418 L 0.666094 0.40168 L 0.670469 0.406016 L 0.674844 0.410391 L 0.67918 0.410391 L 0.683555 0.414766 L 0.68793 0.414766 L 0.692305 0.419141 L 0.69668 0.419141 L 0.71418 0.436641 L 0.71418 0.441016 L 0.718516 0.445352 L 0.718516 0.449727 L 0.727266 0.458477 L 0.753516 0.458477 L 0.757852 0.454102 L 0.766602 0.445352 L 0.779727 0.445352 L 0.788477 0.454102 L 0.792852 0.454102 L 0.797188 0.458477 L 0.805938 0.458477 L 0.810313 0.462852 L 0.814688 0.462852 L 0.819063 0.467227 L 0.836523 0.467227 L 0.840898 0.462852 L 0.849648 0.462852 L 0.858398 0.471602 L 0.862773 0.471602 L 0.867148 0.475977 L 0.880234 0.475977 L 0.884609 0.471602 L 0.893359 0.480352 L 0.897734 0.484688 L 0.902109 0.489063 L 0.906484 0.489063 L 0.906484 0.493438 L 0.91082 0.497813 L 0.923945 0.497813 L 0.932695 0.489063 L 0.93707 0.493438 L 0.941445 0.493438 L 0.94582 0.497813 L 0.954531 0.497813 L 0.950156 0.502188 L 0.94582 0.506563 L 0.941445 0.510938 L 0.93707 0.510938 L 0.932695 0.515312 L 0.915195 0.515312 L 0.91082 0.519648 L 0.906484 0.524023 L 0.897734 0.532773 L 0.888984 0.532773 L 0.884609 0.537148 L 0.880234 0.537148 L 0.875859 0.541523 L 0.862773 0.541523 L 0.858398 0.545898 L 0.845273 0.545898 L 0.836523 0.554648 L 0.823438 0.554648 L 0.819063 0.550273 L 0.805938 0.550273 L 0.801563 0.554648 L 0.797188 0.558984 L 0.792852 0.563359 L 0.770977 0.585234 L 0.766602 0.585234 L 0.749141 0.602695 L 0.744766 0.602695 L 0.740391 0.60707 L 0.718516 0.60707 L 0.71418 0.602695 L 0.71418 0.59832 L 0.709805 0.593984 L 0.709805 0.585234 L 0.70543 0.580859 L 0.70543 0.572109 L 0.701055 0.567734 L 0.68793 0.567734 L 0.67918 0.576484 L 0.674844 0.580859 L 0.674844 0.593984 L 0.670469 0.59832 L 0.661719 0.60707 L 0.661719 0.61582 L 0.652969 0.62457 L 0.652969 0.628945 L 0.648594 0.63332 L 0.644219 0.637656 L 0.639844 0.642031 L 0.635508 0.646406 L 0.609258 0.672656 L 0.604883 0.676992 L 0.600508 0.676992 L 0.596172 0.681367 L 0.591797 0.685742 L 0.583047 0.685742 L 0.578672 0.690117 L 0.561172 0.690117 L 0.556836 0.694492 L 0.543711 0.694492 L 0.539336 0.698867 L 0.530586 0.698867 L 0.526211 0.694492 L 0.526211 0.690117 L 0.521836 0.685742 L 0.521836 0.655156 L 0.5175 0.650781 L 0.513125 0.646406 L 0.504375 0.655156 L 0.504375 0.659531 L 0.495625 0.668281 L 0.495625 0.672656 L 0.49125 0.676992 L 0.486875 0.681367 L 0.486875 0.685742 L 0.4825 0.690117 L 0.478164 0.694492 L 0.473789 0.694492 L 0.469414 0.698867 L 0.465039 0.698867 L 0.460664 0.703242 L 0.456289 0.703242 L 0.451914 0.707617 L 0.434453 0.707617 L 0.430078 0.711992 L 0.421328 0.711992 L 0.412578 0.703242 L 0.412578 0.698867 L 0.408203 0.694492 L 0.408203 0.681367 L 0.395117 0.668281 L 0.390742 0.672656 L 0.390742 0.676992 L 0.368867 0.698867 L 0.368867 0.703242 L 0.364492 0.707617 L 0.360156 0.711992 L 0.355781 0.716328 L 0.351406 0.720703 L 0.333906 0.720703 L 0.329531 0.725078 L 0.307695 0.725078 L 0.30332 0.729453 L 0.29457 0.729453 L 0.290195 0.733828 L 0.281484 0.733828 L 0.277109 0.729453 L 0.268359 0.729453 L 0.263984 0.725078 L 0.259609 0.725078 L 0.259609 0.720703 L 0.255234 0.716328 L 0.255234 0.707617 L 0.250859 0.703242 L 0.250859 0.685742 L 0.259609 0.676992 L 0.259609 0.672656 L 0.263984 0.668281 L 0.263984 0.659531 L 0.259609 0.655156 L 0.250859 0.655156 L 0.246484 0.659531 L 0.242148 0.663906 L 0.237773 0.663906 L 0.233398 0.668281 L 0.229023 0.668281 L 0.224648 0.672656 L 0.220273 0.676992 L 0.215898 0.676992 L 0.207148 0.685742 L 0.202813 0.685742 L 0.198438 0.690117 L 0.185313 0.690117 L 0.180938 0.694492 L 0.163477 0.694492 L 0.159102 0.690117 L 0.145977 0.690117 L 0.137227 0.681367 L 0.132852 0.681367 L 0.132852 0.668281 L 0.128516 0.663906 L 0.132852 0.659531 L 0.132852 0.650781 L 0.137227 0.646406 L 0.137227 0.637656 L 0.141602 0.63332 L 0.145977 0.628945 L 0.145977 0.620195 L 0.150352 0.61582 L 0.141602 0.60707 L 0.137227 0.60707 L 0.132852 0.611445 L 0.0935156 0.611445 L 0.0891797 0.60707 L 0.0848047 0.60707 L 0.0804297 0.602695 L 0.0804297 0.572109 L 0.0673047 0.558984 L 0.0629297 0.558984 L 0.0585547 0.554648 L 0.0585547 0.541523 L 0.0541797 0.537148 L 0.0498437 0.532773 L 0.0454687 0.528398 L 0.0454687 0.510938 L 0.0498437 0.506563 Z M 0.0454687 0.502188 " transform="matrix(100,0,0,100,300,200)"/>
<path style="fill:none;stroke-width:0.01;stroke-linecap:butt;stroke-linejoin:miter;stroke:rgb(0%,0%,0%);stroke-opacity:1;stroke-miterlimit:10;" d="M 0.0454688 0.545469 L 0.0495703 0.541328 L 0.0495703 0.537187 L 0.0537109 0.533047 L 0.0537109 0.520664 L 0.0495703 0.516523 L 0.0495703 0.512383 L 0.0537109 0.508281 L 0.0537109 0.495859 L 0.0578516 0.491719 L 0.0578516 0.483477 L 0.0619922 0.479336 L 0.0661328 0.479336 L 0.0702344 0.475195 L 0.0702344 0.466953 L 0.0661328 0.462813 L 0.0661328 0.454531 L 0.0619922 0.45043 L 0.0619922 0.446289 L 0.0537109 0.438008 L 0.0537109 0.433867 L 0.0578516 0.429766 L 0.0578516 0.425625 L 0.0619922 0.421484 L 0.0661328 0.421484 L 0.0702344 0.417344 L 0.074375 0.417344 L 0.0785156 0.413242 L 0.0867578 0.413242 L 0.0950391 0.404961 L 0.0950391 0.39668 L 0.0908984 0.392578 L 0.0908984 0.388438 L 0.0867578 0.384297 L 0.0867578 0.380156 L 0.0826563 0.376016 L 0.0826563 0.363633 L 0.0785156 0.359492 L 0.0785156 0.342969 L 0.0908984 0.330586 L 0.0950391 0.330586 L 0.0991797 0.326445 L 0.136367 0.326445 L 0.140508 0.330586 L 0.169414 0.330586 L 0.173555 0.334727 L 0.177695 0.338828 L 0.181836 0.338828 L 0.185938 0.342969 L 0.190078 0.342969 L 0.198359 0.35125 L 0.202461 0.35125 L 0.206602 0.355391 L 0.210742 0.359492 L 0.219023 0.359492 L 0.227266 0.35125 L 0.227266 0.322305 L 0.223125 0.318164 L 0.223125 0.289258 L 0.227266 0.285117 L 0.227266 0.280977 L 0.231406 0.276875 L 0.235547 0.272734 L 0.239688 0.272734 L 0.243789 0.268594 L 0.268594 0.268594 L 0.272734 0.272734 L 0.276875 0.272734 L 0.280977 0.276875 L 0.285117 0.280977 L 0.289258 0.280977 L 0.297539 0.289258 L 0.301641 0.289258 L 0.309922 0.297539 L 0.314063 0.301641 L 0.318164 0.301641 L 0.330586 0.314062 L 0.334727 0.314062 L 0.342969 0.322305 L 0.347109 0.322305 L 0.35125 0.326445 L 0.355391 0.326445 L 0.359492 0.330586 L 0.359492 0.334727 L 0.363633 0.338828 L 0.371914 0.347109 L 0.376016 0.35125 L 0.384297 0.35125 L 0.388438 0.355391 L 0.392578 0.359492 L 0.392578 0.367773 L 0.39668 0.371914 L 0.40082 0.376016 L 0.409102 0.376016 L 0.413242 0.380156 L 0.417344 0.376016 L 0.421484 0.371914 L 0.425625 0.367773 L 0.425625 0.363633 L 0.429766 0.359492 L 0.429766 0.355391 L 0.433867 0.35125 L 0.446289 0.338828 L 0.458672 0.338828 L 0.462813 0.334727 L 0.475195 0.334727 L 0.479336 0.338828 L 0.479336 0.342969 L 0.483477 0.347109 L 0.483477 0.35125 L 0.487617 0.355391 L 0.487617 0.359492 L 0.491719 0.363633 L 0.5 0.371914 L 0.5 0.376016 L 0.508281 0.384297 L 0.512383 0.388438 L 0.516523 0.392578 L 0.520664 0.39668 L 0.524805 0.39668 L 0.528906 0.40082 L 0.533047 0.404961 L 0.537187 0.404961 L 0.541328 0.40082 L 0.545469 0.40082 L 0.54957 0.39668 L 0.54957 0.35125 L 0.553711 0.347109 L 0.553711 0.342969 L 0.557852 0.338828 L 0.561992 0.334727 L 0.566133 0.330586 L 0.582656 0.330586 L 0.586758 0.334727 L 0.590898 0.330586 L 0.595039 0.330586 L 0.59918 0.334727 L 0.60332 0.334727 L 0.628086 0.359492 L 0.632227 0.359492 L 0.640508 0.367773 L 0.640508 0.371914 L 0.64875 0.380156 L 0.64875 0.384297 L 0.652891 0.388438 L 0.652891 0.392578 L 0.657031 0.39668 L 0.661172 0.40082 L 0.665273 0.404961 L 0.669414 0.409102 L 0.673555 0.409102 L 0.681836 0.40082 L 0.681836 0.392578 L 0.685938 0.388438 L 0.685938 0.371914 L 0.694219 0.363633 L 0.698359 0.363633 L 0.702461 0.359492 L 0.723125 0.359492 L 0.727266 0.363633 L 0.735547 0.363633 L 0.739688 0.367773 L 0.739688 0.371914 L 0.74793 0.380156 L 0.75207 0.380156 L 0.756211 0.384297 L 0.760313 0.388438 L 0.768594 0.388438 L 0.772734 0.392578 L 0.776875 0.39668 L 0.785117 0.39668 L 0.789258 0.392578 L 0.797539 0.384297 L 0.797539 0.380156 L 0.801641 0.376016 L 0.805781 0.376016 L 0.809922 0.371914 L 0.814063 0.371914 L 0.818164 0.376016 L 0.822305 0.376016 L 0.826445 0.380156 L 0.830586 0.376016 L 0.847109 0.376016 L 0.85125 0.371914 L 0.85125 0.367773 L 0.855391 0.363633 L 0.855391 0.359492 L 0.859492 0.355391 L 0.871914 0.355391 L 0.876016 0.359492 L 0.888438 0.359492 L 0.892578 0.363633 L 0.89668 0.363633 L 0.904961 0.371914 L 0.909102 0.376016 L 0.909102 0.380156 L 0.913242 0.384297 L 0.921484 0.384297 L 0.925625 0.380156 L 0.933867 0.380156 L 0.938008 0.376016 L 0.942148 0.376016 L 0.946289 0.380156 L 0.95043 0.380156 L 0.954531 0.384297 L 0.954531 0.392578 L 0.946289 0.40082 L 0.938008 0.40082 L 0.933867 0.39668 L 0.929766 0.40082 L 0.925625 0.40082 L 0.917344 0.409102 L 0.913242 0.413242 L 0.909102 0.417344 L 0.904961 0.421484 L 0.90082 0.421484 L 0.89668 0.425625 L 0.892578 0.429766 L 0.888438 0.429766 L 0.884297 0.433867 L 0.876016 0.442148 L 0.871914 0.446289 L 0.863633 0.446289 L 0.859492 0.442148 L 0.855391 0.442148 L 0.85125 0.446289 L 0.85125 0.454531 L 0.855391 0.458672 L 0.859492 0.462813 L 0.855391 0.466953 L 0.855391 0.487617 L 0.85125 0.491719 L 0.85125 0.495859 L 0.847109 0.5 L 0.847109 0.504141 L 0.842969 0.504141 L 0.838828 0.5 L 0.834727 0.5 L 0.826445 0.491719 L 0.822305 0.487617 L 0.818164 0.487617 L 0.809922 0.495859 L 0.809922 0.5 L 0.805781 0.504141 L 0.805781 0.508281 L 0.801641 0.512383 L 0.801641 0.516523 L 0.797539 0.520664 L 0.793398 0.524805 L 0.789258 0.528906 L 0.785117 0.528906 L 0.780977 0.533047 L 0.776875 0.537187 L 0.768594 0.537187 L 0.764453 0.541328 L 0.75207 0.541328 L 0.74793 0.537187 L 0.743789 0.537187 L 0.739688 0.533047 L 0.735547 0.533047 L 0.731406 0.528906 L 0.727266 0.524805 L 0.719023 0.524805 L 0.714883 0.528906 L 0.706602 0.537187 L 0.706602 0.54957 L 0.702461 0.553711 L 0.702461 0.557852 L 0.698359 0.561992 L 0.694219 0.566133 L 0.694219 0.586758 L 0.685938 0.595039 L 0.681836 0.59918 L 0.677695 0.60332 L 0.665273 0.60332 L 0.661172 0.59918 L 0.652891 0.59918 L 0.64875 0.60332 L 0.644609 0.607422 L 0.640508 0.611563 L 0.636367 0.615703 L 0.632227 0.615703 L 0.628086 0.619844 L 0.623984 0.623984 L 0.619844 0.628086 L 0.590898 0.657031 L 0.586758 0.657031 L 0.582656 0.661172 L 0.578516 0.665273 L 0.570234 0.673555 L 0.566133 0.677695 L 0.561992 0.677695 L 0.557852 0.681836 L 0.553711 0.685938 L 0.54957 0.685938 L 0.545469 0.690078 L 0.541328 0.690078 L 0.537187 0.694219 L 0.533047 0.694219 L 0.528906 0.698359 L 0.524805 0.698359 L 0.520664 0.702461 L 0.512383 0.710742 L 0.508281 0.714883 L 0.504141 0.714883 L 0.5 0.719023 L 0.495859 0.719023 L 0.491719 0.723125 L 0.487617 0.723125 L 0.483477 0.727266 L 0.475195 0.727266 L 0.471094 0.731406 L 0.458672 0.731406 L 0.454531 0.727266 L 0.45043 0.727266 L 0.446289 0.723125 L 0.446289 0.719023 L 0.438008 0.710742 L 0.438008 0.702461 L 0.433867 0.698359 L 0.433867 0.681836 L 0.438008 0.677695 L 0.438008 0.673555 L 0.446289 0.665273 L 0.446289 0.657031 L 0.45043 0.652891 L 0.45043 0.632227 L 0.454531 0.628086 L 0.458672 0.623984 L 0.471094 0.611563 L 0.471094 0.607422 L 0.466953 0.60332 L 0.462813 0.59918 L 0.45043 0.59918 L 0.446289 0.60332 L 0.446289 0.607422 L 0.442148 0.607422 L 0.433867 0.615703 L 0.429766 0.619844 L 0.425625 0.623984 L 0.425625 0.628086 L 0.417344 0.636367 L 0.413242 0.640508 L 0.409102 0.644609 L 0.39668 0.657031 L 0.392578 0.661172 L 0.388438 0.665273 L 0.384297 0.665273 L 0.376016 0.673555 L 0.376016 0.677695 L 0.371914 0.681836 L 0.367773 0.681836 L 0.363633 0.685938 L 0.359492 0.685938 L 0.355391 0.690078 L 0.35125 0.694219 L 0.347109 0.694219 L 0.342969 0.698359 L 0.326445 0.698359 L 0.322305 0.694219 L 0.318164 0.694219 L 0.318164 0.690078 L 0.314063 0.685938 L 0.309922 0.681836 L 0.309922 0.677695 L 0.305781 0.673555 L 0.305781 0.652891 L 0.301641 0.64875 L 0.305781 0.644609 L 0.305781 0.640508 L 0.301641 0.636367 L 0.301641 0.628086 L 0.297539 0.623984 L 0.276875 0.623984 L 0.272734 0.628086 L 0.260313 0.640508 L 0.260313 0.644609 L 0.256211 0.64875 L 0.25207 0.64875 L 0.243789 0.657031 L 0.239688 0.661172 L 0.235547 0.661172 L 0.231406 0.665273 L 0.227266 0.665273 L 0.223125 0.669414 L 0.219023 0.669414 L 0.214883 0.673555 L 0.206602 0.673555 L 0.202461 0.677695 L 0.198359 0.681836 L 0.194219 0.685938 L 0.173555 0.685938 L 0.169414 0.681836 L 0.165273 0.677695 L 0.128086 0.677695 L 0.123984 0.673555 L 0.119844 0.673555 L 0.119844 0.669414 L 0.115703 0.665273 L 0.115703 0.652891 L 0.111562 0.64875 L 0.107422 0.64875 L 0.10332 0.644609 L 0.0991797 0.640508 L 0.0991797 0.615703 L 0.10332 0.611563 L 0.107422 0.607422 L 0.107422 0.60332 L 0.119844 0.590898 L 0.119844 0.586758 L 0.123984 0.582656 L 0.123984 0.566133 L 0.119844 0.561992 L 0.0619922 0.561992 L 0.0537109 0.553711 L 0.0495703 0.553711 L 0.0495703 0.54957 Z M 0.0454688 0.545469 " transform="matrix(100,0,0,100,450,200)"/>
<path style="fill:none;stroke-width:0.01;stroke-linecap:butt;stroke-linejoin:miter;stroke:rgb(0%,0%,0%);stroke-opacity:1;stroke-miterlimit:10;" d="M 0.0454688 0.44293 L 0.0496875 0.438672 L 0.0496875 0.434453 L 0.0539062 0.430234 L 0.0623828 0.430234 L 0.0666016 0.426016 L 0.0708203 0.426016 L 0.0750391 0.421758 L 0.0792969 0.417539 L 0.0877344 0.409102 L 0.0877344 0.400625 L 0.0835156 0.396406 L 0.0835156 0.383711 L 0.0877344 0.379492 L 0.0877344 0.375273 L 0.0962109 0.366797 L 0.104648 0.366797 L 0.108867 0.362578 L 0.113125 0.366797 L 0.121563 0.366797 L 0.125781 0.362578 L 0.130039 0.366797 L 0.146953 0.366797 L 0.151172 0.371055 L 0.155391 0.371055 L 0.159609 0.366797 L 0.163867 0.362578 L 0.163867 0.337227 L 0.159609 0.332969 L 0.159609 0.316055 L 0.163867 0.311836 L 0.163867 0.303398 L 0.168086 0.299141 L 0.168086 0.294922 L 0.176523 0.286484 L 0.180742 0.282227 L 0.185 0.282227 L 0.189219 0.278008 L 0.227266 0.278008 L 0.231484 0.282227 L 0.235742 0.282227 L 0.239961 0.286484 L 0.24418 0.286484 L 0.248398 0.290703 L 0.252656 0.294922 L 0.256875 0.294922 L 0.261094 0.299141 L 0.265313 0.303398 L 0.26957 0.307617 L 0.278008 0.316055 L 0.278008 0.320312 L 0.282227 0.324531 L 0.282227 0.32875 L 0.286484 0.332969 L 0.294922 0.332969 L 0.299141 0.32875 L 0.303398 0.324531 L 0.303398 0.252656 L 0.307617 0.248398 L 0.307617 0.24418 L 0.320312 0.231484 L 0.354141 0.231484 L 0.358359 0.235742 L 0.362578 0.235742 L 0.366797 0.239961 L 0.371055 0.24418 L 0.392188 0.24418 L 0.396406 0.248398 L 0.400625 0.252656 L 0.404844 0.256875 L 0.409102 0.261094 L 0.41332 0.265312 L 0.417539 0.26957 L 0.417539 0.273789 L 0.421758 0.278008 L 0.426016 0.282227 L 0.430234 0.282227 L 0.430234 0.286484 L 0.438672 0.294922 L 0.438672 0.303398 L 0.44293 0.307617 L 0.451367 0.316055 L 0.459844 0.316055 L 0.464062 0.320312 L 0.468281 0.324531 L 0.468281 0.32875 L 0.476758 0.337227 L 0.476758 0.341445 L 0.480977 0.345664 L 0.480977 0.354141 L 0.485195 0.358359 L 0.485195 0.379492 L 0.497891 0.392187 L 0.497891 0.400625 L 0.502109 0.404844 L 0.506328 0.400625 L 0.506328 0.396406 L 0.510586 0.392187 L 0.510586 0.375273 L 0.514805 0.371055 L 0.514805 0.362578 L 0.519023 0.358359 L 0.519023 0.354141 L 0.523242 0.349883 L 0.523242 0.345664 L 0.5275 0.341445 L 0.5275 0.337227 L 0.55707 0.337227 L 0.561328 0.341445 L 0.565547 0.341445 L 0.573984 0.349883 L 0.582461 0.349883 L 0.58668 0.354141 L 0.590898 0.354141 L 0.595156 0.358359 L 0.603594 0.366797 L 0.607813 0.371055 L 0.607813 0.375273 L 0.612031 0.379492 L 0.612031 0.383711 L 0.620508 0.392187 L 0.620508 0.396406 L 0.624727 0.400625 L 0.624727 0.404844 L 0.628945 0.409102 L 0.628945 0.41332 L 0.633203 0.417539 L 0.633203 0.421758 L 0.637422 0.426016 L 0.645859 0.434453 L 0.645859 0.438672 L 0.650117 0.44293 L 0.650117 0.447148 L 0.654336 0.451367 L 0.654336 0.455586 L 0.658555 0.459844 L 0.662773 0.459844 L 0.667031 0.464063 L 0.67125 0.464063 L 0.675469 0.468281 L 0.679688 0.468281 L 0.679688 0.4725 L 0.688164 0.480977 L 0.692383 0.480977 L 0.696602 0.485195 L 0.705078 0.485195 L 0.713516 0.476758 L 0.734687 0.476758 L 0.738906 0.480977 L 0.747344 0.480977 L 0.751602 0.485195 L 0.75582 0.489414 L 0.760039 0.493672 L 0.764258 0.497891 L 0.764258 0.502109 L 0.768516 0.506328 L 0.772734 0.510586 L 0.772734 0.514805 L 0.789648 0.531719 L 0.793867 0.531719 L 0.798086 0.5275 L 0.798086 0.523242 L 0.802344 0.519023 L 0.806563 0.514805 L 0.815 0.514805 L 0.819258 0.519023 L 0.827695 0.519023 L 0.831914 0.523242 L 0.836133 0.523242 L 0.840391 0.5275 L 0.840391 0.535938 L 0.844609 0.540156 L 0.848828 0.535938 L 0.853047 0.535938 L 0.857305 0.531719 L 0.861523 0.535938 L 0.874219 0.535938 L 0.878438 0.540156 L 0.882656 0.540156 L 0.886875 0.544414 L 0.891133 0.548633 L 0.895352 0.548633 L 0.89957 0.552852 L 0.908047 0.552852 L 0.912266 0.55707 L 0.916484 0.561328 L 0.920703 0.565547 L 0.924961 0.561328 L 0.920703 0.565547 L 0.920703 0.573984 L 0.92918 0.582461 L 0.941875 0.582461 L 0.950312 0.590898 L 0.954531 0.595156 L 0.954531 0.620508 L 0.946094 0.620508 L 0.941875 0.624727 L 0.937617 0.620508 L 0.92918 0.620508 L 0.92918 0.616289 L 0.924961 0.612031 L 0.920703 0.616289 L 0.916484 0.616289 L 0.912266 0.620508 L 0.908047 0.620508 L 0.903789 0.624727 L 0.89957 0.620508 L 0.895352 0.624727 L 0.891133 0.624727 L 0.886875 0.620508 L 0.865742 0.620508 L 0.861523 0.624727 L 0.848828 0.624727 L 0.844609 0.628945 L 0.831914 0.628945 L 0.823477 0.620508 L 0.798086 0.620508 L 0.789648 0.628945 L 0.78543 0.633203 L 0.781172 0.637422 L 0.772734 0.645859 L 0.768516 0.645859 L 0.764258 0.650117 L 0.75582 0.650117 L 0.751602 0.654336 L 0.747344 0.654336 L 0.743125 0.658555 L 0.738906 0.658555 L 0.734687 0.662773 L 0.726211 0.662773 L 0.717773 0.654336 L 0.717773 0.645859 L 0.713516 0.641641 L 0.705078 0.633203 L 0.700859 0.628945 L 0.696602 0.633203 L 0.692383 0.633203 L 0.683945 0.641641 L 0.679688 0.641641 L 0.675469 0.645859 L 0.67125 0.650117 L 0.667031 0.654336 L 0.667031 0.658555 L 0.662773 0.658555 L 0.658555 0.662773 L 0.654336 0.667031 L 0.654336 0.67125 L 0.650117 0.675469 L 0.650117 0.679688 L 0.624727 0.705078 L 0.624727 0.709297 L 0.620508 0.713516 L 0.616289 0.713516 L 0.603594 0.726211 L 0.595156 0.726211 L 0.590898 0.73043 L 0.582461 0.73043 L 0.578242 0.734688 L 0.569766 0.734688 L 0.565547 0.738906 L 0.55707 0.738906 L 0.552852 0.734688 L 0.548633 0.73043 L 0.544414 0.726211 L 0.540156 0.721992 L 0.540156 0.662773 L 0.531719 0.654336 L 0.523242 0.654336 L 0.519023 0.658555 L 0.514805 0.658555 L 0.506328 0.667031 L 0.506328 0.67125 L 0.502109 0.67125 L 0.493672 0.679688 L 0.493672 0.683945 L 0.489414 0.688164 L 0.485195 0.692383 L 0.485195 0.696602 L 0.480977 0.700859 L 0.476758 0.705078 L 0.4725 0.709297 L 0.4725 0.713516 L 0.468281 0.717773 L 0.459844 0.726211 L 0.455586 0.726211 L 0.451367 0.73043 L 0.447148 0.734688 L 0.44293 0.734688 L 0.438672 0.738906 L 0.434453 0.743125 L 0.430234 0.743125 L 0.426016 0.747344 L 0.404844 0.747344 L 0.400625 0.751602 L 0.396406 0.75582 L 0.387969 0.75582 L 0.383711 0.760039 L 0.379492 0.760039 L 0.375273 0.764258 L 0.371055 0.764258 L 0.366797 0.768516 L 0.337227 0.768516 L 0.324531 0.75582 L 0.324531 0.751602 L 0.320312 0.747344 L 0.320312 0.738906 L 0.316055 0.734688 L 0.320312 0.73043 L 0.320312 0.705078 L 0.324531 0.700859 L 0.32875 0.696602 L 0.332969 0.692383 L 0.332969 0.675469 L 0.32875 0.67125 L 0.320312 0.67125 L 0.316055 0.675469 L 0.311836 0.679688 L 0.303398 0.679688 L 0.299141 0.683945 L 0.290703 0.683945 L 0.286484 0.688164 L 0.282227 0.692383 L 0.26957 0.692383 L 0.265313 0.696602 L 0.252656 0.696602 L 0.248398 0.700859 L 0.24418 0.700859 L 0.239961 0.705078 L 0.231484 0.705078 L 0.227266 0.709297 L 0.206133 0.709297 L 0.201914 0.705078 L 0.193437 0.705078 L 0.189219 0.700859 L 0.185 0.696602 L 0.180742 0.696602 L 0.172305 0.688164 L 0.172305 0.658555 L 0.176523 0.654336 L 0.176523 0.650117 L 0.180742 0.645859 L 0.180742 0.641641 L 0.185 0.637422 L 0.185 0.628945 L 0.189219 0.624727 L 0.189219 0.607813 L 0.185 0.603594 L 0.176523 0.603594 L 0.172305 0.599375 L 0.159609 0.599375 L 0.155391 0.603594 L 0.142695 0.603594 L 0.138477 0.607813 L 0.134258 0.607813 L 0.130039 0.603594 L 0.108867 0.603594 L 0.104648 0.599375 L 0.10043 0.599375 L 0.0962109 0.595156 L 0.0919531 0.595156 L 0.0877344 0.590898 L 0.0877344 0.565547 L 0.0919531 0.561328 L 0.0919531 0.55707 L 0.0962109 0.552852 L 0.0962109 0.548633 L 0.10043 0.544414 L 0.104648 0.540156 L 0.104648 0.535938 L 0.108867 0.531719 L 0.113125 0.5275 L 0.117344 0.523242 L 0.113125 0.519023 L 0.108867 0.514805 L 0.0792969 0.514805 L 0.0750391 0.510586 L 0.0708203 0.506328 L 0.0666016 0.502109 L 0.0666016 0.493672 L 0.0708203 0.489414 L 0.0708203 0.485195 L 0.0750391 0.480977 L 0.0708203 0.476758 L 0.0666016 0.4725 L 0.0623828 0.4725 L 0.058125 0.468281 L 0.0539062 0.468281 L 0.0496875 0.464063 L 0.0496875 0.455586 L 0.0454688 0.451367 L 0.0454688 0.447148 Z M 0.0454688 0.44293 " transform="matrix(100,0,0,100,600,200)"/>
<path style="fill:none;stroke-width:0.01;stroke-linecap:butt;stroke-linejoin:miter;stroke:rgb(0%,0%,0%);stroke-opacity:1;stroke-miterlimit:10;" d="M 0.0454688 0.509805 L 0.049375 0.505859 L 0.049375 0.498047 L 0.0611328 0.486289 L 0.0650391 0.486289 L 0.0689844 0.482383 L 0.0728906 0.482383 L 0.0767969 0.478438 L 0.0807031 0.474531 L 0.0807031 0.451016 L 0.0846484 0.447109 L 0.0885547 0.443164 L 0.0964062 0.443164 L 0.100312 0.439258 L 0.104219 0.439258 L 0.108164 0.435352 L 0.11207 0.431445 L 0.11207 0.411836 L 0.115977 0.40793 L 0.115977 0.400078 L 0.119922 0.400078 L 0.123828 0.396172 L 0.147344 0.396172 L 0.15125 0.400078 L 0.174766 0.400078 L 0.178672 0.396172 L 0.178672 0.392227 L 0.174766 0.38832 L 0.174766 0.384414 L 0.170859 0.380469 L 0.170859 0.376562 L 0.166914 0.372656 L 0.166914 0.353047 L 0.170859 0.349141 L 0.174766 0.345234 L 0.178672 0.341289 L 0.186523 0.341289 L 0.19043 0.337383 L 0.194375 0.333477 L 0.249219 0.333477 L 0.253125 0.337383 L 0.260977 0.337383 L 0.264883 0.341289 L 0.272734 0.341289 L 0.276641 0.345234 L 0.288398 0.345234 L 0.292305 0.349141 L 0.29625 0.349141 L 0.300156 0.345234 L 0.300156 0.321719 L 0.29625 0.317773 L 0.29625 0.309961 L 0.300156 0.306016 L 0.300156 0.294297 L 0.304063 0.290352 L 0.308008 0.286445 L 0.311914 0.286445 L 0.31582 0.282539 L 0.327578 0.282539 L 0.331523 0.278594 L 0.374609 0.278594 L 0.378516 0.282539 L 0.382461 0.282539 L 0.386367 0.286445 L 0.390273 0.286445 L 0.394219 0.290352 L 0.398125 0.290352 L 0.402031 0.294297 L 0.405938 0.298203 L 0.409883 0.298203 L 0.421641 0.309961 L 0.425547 0.309961 L 0.429453 0.306016 L 0.429453 0.298203 L 0.433398 0.294297 L 0.437305 0.290352 L 0.441211 0.286445 L 0.456914 0.286445 L 0.46082 0.290352 L 0.476484 0.290352 L 0.480391 0.294297 L 0.496094 0.294297 L 0.5 0.298203 L 0.503906 0.298203 L 0.503906 0.302109 L 0.507852 0.306016 L 0.511758 0.306016 L 0.515664 0.309961 L 0.519609 0.313867 L 0.523516 0.317773 L 0.527422 0.321719 L 0.531367 0.325625 L 0.535273 0.329531 L 0.53918 0.333477 L 0.543086 0.337383 L 0.547031 0.341289 L 0.550937 0.345234 L 0.554844 0.349141 L 0.558789 0.349141 L 0.562695 0.345234 L 0.562695 0.329531 L 0.566602 0.325625 L 0.566602 0.321719 L 0.574453 0.313867 L 0.594063 0.313867 L 0.597969 0.317773 L 0.601875 0.317773 L 0.605781 0.321719 L 0.609727 0.325625 L 0.613633 0.325625 L 0.617539 0.329531 L 0.621484 0.329531 L 0.625391 0.333477 L 0.629297 0.333477 L 0.633242 0.337383 L 0.637148 0.341289 L 0.637148 0.349141 L 0.633242 0.353047 L 0.637148 0.356992 L 0.660664 0.356992 L 0.668477 0.364805 L 0.672422 0.368711 L 0.676328 0.368711 L 0.680234 0.372656 L 0.68418 0.372656 L 0.691992 0.380469 L 0.695937 0.380469 L 0.699844 0.384414 L 0.70375 0.384414 L 0.707695 0.38832 L 0.711602 0.38832 L 0.715508 0.384414 L 0.715508 0.380469 L 0.711602 0.376562 L 0.711602 0.372656 L 0.715508 0.368711 L 0.715508 0.364805 L 0.719453 0.360898 L 0.723359 0.356992 L 0.754688 0.356992 L 0.758633 0.360898 L 0.762539 0.364805 L 0.766445 0.364805 L 0.770391 0.368711 L 0.774297 0.372656 L 0.778203 0.372656 L 0.782148 0.376562 L 0.786055 0.380469 L 0.789961 0.380469 L 0.797813 0.38832 L 0.805625 0.38832 L 0.80957 0.392227 L 0.817383 0.392227 L 0.821328 0.396172 L 0.825234 0.396172 L 0.829141 0.400078 L 0.833086 0.403984 L 0.836992 0.40793 L 0.852656 0.40793 L 0.856602 0.411836 L 0.860508 0.415742 L 0.864414 0.419688 L 0.86832 0.423594 L 0.872266 0.4275 L 0.872266 0.431445 L 0.876172 0.435352 L 0.876172 0.443164 L 0.872266 0.443164 L 0.86832 0.447109 L 0.872266 0.451016 L 0.876172 0.454922 L 0.919297 0.454922 L 0.923203 0.451016 L 0.934961 0.451016 L 0.938867 0.447109 L 0.942773 0.447109 L 0.946719 0.451016 L 0.954531 0.451016 L 0.954531 0.458867 L 0.946719 0.46668 L 0.891836 0.46668 L 0.88793 0.470625 L 0.88793 0.474531 L 0.891836 0.478438 L 0.891836 0.482383 L 0.88793 0.486289 L 0.88793 0.490195 L 0.884023 0.494141 L 0.880078 0.498047 L 0.880078 0.501953 L 0.876172 0.501953 L 0.872266 0.505859 L 0.872266 0.509805 L 0.86832 0.509805 L 0.864414 0.513711 L 0.860508 0.513711 L 0.856602 0.517617 L 0.852656 0.517617 L 0.84875 0.521562 L 0.840898 0.521562 L 0.836992 0.525469 L 0.829141 0.525469 L 0.825234 0.529375 L 0.813477 0.529375 L 0.80957 0.53332 L 0.805625 0.53332 L 0.801719 0.537227 L 0.789961 0.537227 L 0.786055 0.541133 L 0.782148 0.537227 L 0.778203 0.541133 L 0.770391 0.541133 L 0.766445 0.545078 L 0.762539 0.545078 L 0.758633 0.548984 L 0.754688 0.548984 L 0.750781 0.552891 L 0.750781 0.556836 L 0.746875 0.560742 L 0.74293 0.564648 L 0.739023 0.564648 L 0.727266 0.576406 L 0.723359 0.576406 L 0.715508 0.584258 L 0.707695 0.584258 L 0.70375 0.588164 L 0.699844 0.588164 L 0.695937 0.59207 L 0.676328 0.59207 L 0.672422 0.588164 L 0.668477 0.584258 L 0.668477 0.580312 L 0.66457 0.576406 L 0.66457 0.548984 L 0.668477 0.545078 L 0.668477 0.53332 L 0.66457 0.529375 L 0.660664 0.529375 L 0.656758 0.53332 L 0.648906 0.53332 L 0.648906 0.521562 L 0.645 0.517617 L 0.641055 0.513711 L 0.637148 0.509805 L 0.637148 0.505859 L 0.633242 0.501953 L 0.621484 0.501953 L 0.617539 0.498047 L 0.613633 0.501953 L 0.609727 0.501953 L 0.605781 0.505859 L 0.601875 0.509805 L 0.601875 0.517617 L 0.597969 0.521562 L 0.594063 0.525469 L 0.590117 0.529375 L 0.590117 0.537227 L 0.594063 0.541133 L 0.594063 0.564648 L 0.590117 0.568555 L 0.586211 0.5725 L 0.582305 0.576406 L 0.570547 0.576406 L 0.566602 0.580312 L 0.562695 0.580312 L 0.558789 0.584258 L 0.554844 0.588164 L 0.554844 0.59207 L 0.566602 0.603828 L 0.566602 0.615586 L 0.578359 0.627344 L 0.582305 0.627344 L 0.586211 0.631289 L 0.586211 0.635195 L 0.582305 0.639102 L 0.582305 0.643008 L 0.578359 0.646953 L 0.578359 0.650859 L 0.574453 0.654766 L 0.570547 0.658711 L 0.570547 0.662617 L 0.566602 0.666523 L 0.562695 0.670469 L 0.558789 0.674375 L 0.554844 0.678281 L 0.550937 0.682227 L 0.550937 0.686133 L 0.547031 0.690039 L 0.543086 0.690039 L 0.53918 0.693984 L 0.531367 0.701797 L 0.527422 0.701797 L 0.523516 0.705703 L 0.515664 0.705703 L 0.511758 0.709648 L 0.507852 0.713555 L 0.5 0.713555 L 0.496094 0.717461 L 0.476484 0.717461 L 0.472578 0.713555 L 0.464727 0.713555 L 0.464727 0.709648 L 0.46082 0.705703 L 0.456914 0.701797 L 0.456914 0.697891 L 0.452969 0.693984 L 0.452969 0.682227 L 0.449063 0.678281 L 0.449063 0.646953 L 0.452969 0.643008 L 0.452969 0.627344 L 0.445156 0.619531 L 0.441211 0.623437 L 0.437305 0.627344 L 0.433398 0.631289 L 0.429453 0.635195 L 0.425547 0.639102 L 0.425547 0.643008 L 0.421641 0.646953 L 0.417695 0.650859 L 0.413789 0.654766 L 0.409883 0.658711 L 0.409883 0.662617 L 0.405938 0.666523 L 0.402031 0.670469 L 0.382461 0.690039 L 0.378516 0.690039 L 0.374609 0.693984 L 0.370703 0.697891 L 0.366758 0.701797 L 0.362852 0.705703 L 0.358945 0.705703 L 0.355 0.709648 L 0.351094 0.709648 L 0.347187 0.713555 L 0.343242 0.713555 L 0.339336 0.717461 L 0.331523 0.717461 L 0.327578 0.721406 L 0.276641 0.721406 L 0.272734 0.717461 L 0.268828 0.717461 L 0.264883 0.713555 L 0.260977 0.709648 L 0.260977 0.662617 L 0.264883 0.658711 L 0.264883 0.639102 L 0.260977 0.635195 L 0.25707 0.639102 L 0.249219 0.639102 L 0.245313 0.643008 L 0.237461 0.643008 L 0.233555 0.646953 L 0.229609 0.646953 L 0.225703 0.650859 L 0.221797 0.650859 L 0.217852 0.654766 L 0.210039 0.654766 L 0.206094 0.658711 L 0.159102 0.658711 L 0.15125 0.650859 L 0.15125 0.639102 L 0.147344 0.635195 L 0.15125 0.631289 L 0.15125 0.619531 L 0.155156 0.615586 L 0.155156 0.603828 L 0.15125 0.599922 L 0.104219 0.599922 L 0.100312 0.596016 L 0.0964062 0.596016 L 0.0924609 0.59207 L 0.0924609 0.576406 L 0.0964062 0.5725 L 0.0964062 0.556836 L 0.0924609 0.552891 L 0.0807031 0.552891 L 0.0767969 0.548984 L 0.0689844 0.548984 L 0.0650391 0.545078 L 0.0611328 0.545078 L 0.0572266 0.541133 L 0.0532813 0.537227 L 0.049375 0.53332 L 0.049375 0.525469 L 0.0454688 0.521562 L 0.0454688 0.513711 Z M 0.0454688 0.509805 " transform="matrix(100,0,0,100,0,350)"/>
<path style="fill:none;stroke-width:0.01;stroke-linecap:butt;stroke-linejoin:miter;stroke:rgb(0%,0%,0%);stroke-opacity:1;stroke-miterlimit:10;" d="M 0.0454687 0.428984 L 0.0495313 0.424922 L 0.0535547 0.420859 L 0.0576172 0.420859 L 0.0698047 0.408672 L 0.0698047 0.400586 L 0.0657422 0.396523 L 0.0657422 0.392461 L 0.0616797 0.388398 L 0.0616797 0.376211 L 0.0657422 0.372148 L 0.0657422 0.368086 L 0.0698047 0.368086 L 0.0738672 0.364023 L 0.0819922 0.364023 L 0.0860547 0.36 L 0.0982031 0.36 L 0.102266 0.364023 L 0.118516 0.364023 L 0.122578 0.368086 L 0.130664 0.368086 L 0.134727 0.372148 L 0.142852 0.364023 L 0.146914 0.36 L 0.146914 0.351875 L 0.150977 0.347813 L 0.150977 0.34375 L 0.155039 0.339688 L 0.150977 0.335625 L 0.159102 0.3275 L 0.159102 0.307227 L 0.167227 0.299102 L 0.17125 0.295039 L 0.175312 0.290977 L 0.232148 0.290977 L 0.236211 0.295039 L 0.244336 0.295039 L 0.248359 0.299102 L 0.252422 0.303164 L 0.256484 0.303164 L 0.260547 0.307227 L 0.264609 0.307227 L 0.268672 0.311289 L 0.288945 0.311289 L 0.293008 0.307227 L 0.293008 0.303164 L 0.29707 0.299102 L 0.29707 0.295039 L 0.305195 0.286914 L 0.309258 0.282891 L 0.317383 0.282891 L 0.321445 0.278828 L 0.325469 0.274766 L 0.325469 0.266641 L 0.333594 0.258516 L 0.333594 0.254453 L 0.341719 0.254453 L 0.345781 0.250391 L 0.357969 0.250391 L 0.362031 0.254453 L 0.366055 0.258516 L 0.370117 0.258516 L 0.378242 0.266641 L 0.386367 0.266641 L 0.394492 0.274766 L 0.394492 0.278828 L 0.398555 0.282891 L 0.398555 0.286914 L 0.402578 0.290977 L 0.402578 0.295039 L 0.406641 0.299102 L 0.410703 0.299102 L 0.414766 0.303164 L 0.418828 0.303164 L 0.422891 0.299102 L 0.435078 0.311289 L 0.435078 0.315352 L 0.439141 0.319414 L 0.443164 0.323477 L 0.447227 0.3275 L 0.447227 0.331562 L 0.451289 0.335625 L 0.451289 0.339688 L 0.455352 0.34375 L 0.455352 0.347813 L 0.467539 0.36 L 0.471602 0.36 L 0.475664 0.355938 L 0.475664 0.335625 L 0.479727 0.331562 L 0.479727 0.323477 L 0.48375 0.319414 L 0.48375 0.315352 L 0.487812 0.311289 L 0.491875 0.311289 L 0.5 0.303164 L 0.5 0.295039 L 0.504062 0.290977 L 0.524336 0.290977 L 0.528398 0.295039 L 0.536523 0.295039 L 0.556836 0.315352 L 0.556836 0.319414 L 0.560859 0.323477 L 0.560859 0.331562 L 0.564922 0.335625 L 0.564922 0.339688 L 0.573047 0.347813 L 0.585234 0.347813 L 0.585234 0.36 L 0.589297 0.364023 L 0.589297 0.368086 L 0.597422 0.376211 L 0.601445 0.380273 L 0.601445 0.392461 L 0.605508 0.396523 L 0.605508 0.404609 L 0.60957 0.408672 L 0.60957 0.412734 L 0.613633 0.416797 L 0.613633 0.420859 L 0.617695 0.424922 L 0.617695 0.445195 L 0.62582 0.45332 L 0.629883 0.449258 L 0.629883 0.437109 L 0.633945 0.433047 L 0.654219 0.433047 L 0.658281 0.437109 L 0.662344 0.437109 L 0.666406 0.441172 L 0.670469 0.441172 L 0.674531 0.445195 L 0.694805 0.445195 L 0.698867 0.449258 L 0.70293 0.449258 L 0.706992 0.45332 L 0.715078 0.45332 L 0.719141 0.457383 L 0.727266 0.457383 L 0.731328 0.461445 L 0.735391 0.461445 L 0.739453 0.465508 L 0.751641 0.465508 L 0.755664 0.46957 L 0.767852 0.46957 L 0.771914 0.465508 L 0.771914 0.461445 L 0.775977 0.457383 L 0.775977 0.45332 L 0.771914 0.449258 L 0.771914 0.445195 L 0.775977 0.441172 L 0.775977 0.437109 L 0.784102 0.428984 L 0.804375 0.428984 L 0.808438 0.433047 L 0.8125 0.433047 L 0.816562 0.437109 L 0.820625 0.437109 L 0.824688 0.441172 L 0.82875 0.445195 L 0.832773 0.449258 L 0.836836 0.45332 L 0.840898 0.45332 L 0.844961 0.457383 L 0.849023 0.457383 L 0.853086 0.45332 L 0.853086 0.449258 L 0.857148 0.45332 L 0.861211 0.449258 L 0.877422 0.449258 L 0.881484 0.45332 L 0.885547 0.45332 L 0.893672 0.461445 L 0.897734 0.461445 L 0.901797 0.465508 L 0.905859 0.465508 L 0.909922 0.46957 L 0.913945 0.473633 L 0.918008 0.473633 L 0.918008 0.477695 L 0.92207 0.481719 L 0.926133 0.485781 L 0.946445 0.485781 L 0.950469 0.489844 L 0.954531 0.489844 L 0.954531 0.506094 L 0.942383 0.506094 L 0.93832 0.502031 L 0.926133 0.502031 L 0.913945 0.514219 L 0.909922 0.518281 L 0.905859 0.522305 L 0.897734 0.53043 L 0.893672 0.53043 L 0.885547 0.538555 L 0.885547 0.542617 L 0.873359 0.542617 L 0.869336 0.538555 L 0.861211 0.54668 L 0.861211 0.550742 L 0.857148 0.554805 L 0.853086 0.558828 L 0.853086 0.562891 L 0.849023 0.566953 L 0.849023 0.571016 L 0.844961 0.571016 L 0.840898 0.575078 L 0.836836 0.575078 L 0.832773 0.579141 L 0.8125 0.579141 L 0.8125 0.575078 L 0.79625 0.558828 L 0.792227 0.562891 L 0.792227 0.566953 L 0.788164 0.571016 L 0.788164 0.575078 L 0.784102 0.579141 L 0.784102 0.583203 L 0.775977 0.591328 L 0.771914 0.591328 L 0.767852 0.595391 L 0.755664 0.595391 L 0.751641 0.591328 L 0.747578 0.587266 L 0.747578 0.583203 L 0.743516 0.579141 L 0.743516 0.566953 L 0.735391 0.558828 L 0.731328 0.562891 L 0.727266 0.562891 L 0.723203 0.566953 L 0.719141 0.566953 L 0.715078 0.571016 L 0.711055 0.575078 L 0.706992 0.579141 L 0.706992 0.583203 L 0.694805 0.595391 L 0.694805 0.603477 L 0.682617 0.615664 L 0.682617 0.619727 L 0.678555 0.623789 L 0.674531 0.627852 L 0.666406 0.635977 L 0.662344 0.64 L 0.658281 0.64 L 0.654219 0.644063 L 0.646094 0.644063 L 0.642031 0.648125 L 0.633945 0.648125 L 0.629883 0.652188 L 0.62582 0.652188 L 0.621758 0.648125 L 0.617695 0.648125 L 0.617695 0.644063 L 0.613633 0.64 L 0.613633 0.619727 L 0.60957 0.615664 L 0.597422 0.615664 L 0.593359 0.619727 L 0.589297 0.619727 L 0.585234 0.623789 L 0.581172 0.623789 L 0.573047 0.631914 L 0.573047 0.635977 L 0.568984 0.64 L 0.568984 0.648125 L 0.564922 0.652188 L 0.564922 0.660312 L 0.560859 0.664375 L 0.560859 0.668438 L 0.556836 0.6725 L 0.552773 0.676523 L 0.552773 0.680586 L 0.528398 0.704961 L 0.524336 0.704961 L 0.520273 0.709023 L 0.51625 0.713086 L 0.512188 0.713086 L 0.508125 0.717109 L 0.504062 0.717109 L 0.5 0.721172 L 0.487812 0.721172 L 0.475664 0.709023 L 0.475664 0.704961 L 0.471602 0.700898 L 0.471602 0.696836 L 0.463477 0.688711 L 0.463477 0.65625 L 0.459414 0.652188 L 0.455352 0.652188 L 0.443164 0.664375 L 0.443164 0.668438 L 0.439141 0.6725 L 0.435078 0.676523 L 0.426953 0.684648 L 0.426953 0.688711 L 0.422891 0.692773 L 0.422891 0.696836 L 0.418828 0.700898 L 0.414766 0.700898 L 0.410703 0.704961 L 0.410703 0.709023 L 0.406641 0.713086 L 0.402578 0.717109 L 0.398555 0.721172 L 0.394492 0.725234 L 0.39043 0.725234 L 0.370117 0.745547 L 0.366055 0.745547 L 0.362031 0.749609 L 0.325469 0.749609 L 0.321445 0.745547 L 0.31332 0.737422 L 0.309258 0.737422 L 0.309258 0.733359 L 0.305195 0.729297 L 0.305195 0.725234 L 0.301133 0.721172 L 0.301133 0.713086 L 0.29707 0.709023 L 0.29707 0.684648 L 0.301133 0.680586 L 0.301133 0.668438 L 0.305195 0.664375 L 0.305195 0.652188 L 0.301133 0.648125 L 0.29707 0.648125 L 0.288945 0.65625 L 0.284922 0.65625 L 0.280859 0.660312 L 0.272734 0.660312 L 0.268672 0.664375 L 0.264609 0.664375 L 0.260547 0.668438 L 0.248359 0.668438 L 0.244336 0.6725 L 0.240273 0.676523 L 0.1875 0.676523 L 0.183438 0.6725 L 0.179375 0.6725 L 0.175312 0.668438 L 0.17125 0.668438 L 0.17125 0.664375 L 0.167227 0.660312 L 0.167227 0.648125 L 0.163164 0.644063 L 0.163164 0.619727 L 0.167227 0.615664 L 0.17125 0.611602 L 0.175312 0.607539 L 0.175312 0.595391 L 0.179375 0.591328 L 0.17125 0.583203 L 0.167227 0.583203 L 0.163164 0.579141 L 0.118516 0.579141 L 0.114453 0.575078 L 0.102266 0.575078 L 0.0982031 0.571016 L 0.0941406 0.571016 L 0.0900781 0.566953 L 0.0860547 0.562891 L 0.0860547 0.558828 L 0.0819922 0.554805 L 0.0819922 0.542617 L 0.0860547 0.538555 L 0.0860547 0.534492 L 0.0900781 0.53043 L 0.0982031 0.522305 L 0.0982031 0.510156 L 0.102266 0.506094 L 0.0941406 0.497969 L 0.0819922 0.497969 L 0.0779297 0.493906 L 0.0779297 0.489844 L 0.0738672 0.485781 L 0.0738672 0.481719 L 0.0698047 0.477695 L 0.0616797 0.46957 L 0.0576172 0.46957 L 0.0576172 0.465508 L 0.0535547 0.461445 L 0.0495313 0.457383 L 0.0495313 0.449258 L 0.0454687 0.445195 L 0.0454687 0.433047 Z M 0.0454687 0.428984 " transform="matrix(100,0,0,100,150,350)"/>
<path style="fill:none;stroke-width:0.01;stroke-linecap:butt;stroke-linejoin:miter;stroke:rgb(0%,0%,0%);stroke-opacity:1;stroke-miterlimit:10;" d="M 0.0454687 0.554805 L 0.0500391 0.550234 L 0.0500391 0.545664 L 0.0546094 0.541133 L 0.0546094 0.536563 L 0.0591406 0.531992 L 0.0637109 0.527422 L 0.0637109 0.518281 L 0.0591406 0.513711 L 0.0591406 0.509141 L 0.0546094 0.50457 L 0.0546094 0.486289 L 0.0591406 0.481719 L 0.0682813 0.472578 L 0.0728516 0.472578 L 0.0774219 0.468008 L 0.0819922 0.468008 L 0.0865625 0.463437 L 0.113984 0.463437 L 0.118555 0.458867 L 0.123125 0.458867 L 0.127695 0.454336 L 0.127695 0.449766 L 0.132266 0.445195 L 0.132266 0.440625 L 0.127695 0.436055 L 0.127695 0.426914 L 0.109414 0.408633 L 0.104844 0.408633 L 0.0957031 0.399492 L 0.0957031 0.3675 L 0.100273 0.362969 L 0.127695 0.335547 L 0.155078 0.335547 L 0.159648 0.330977 L 0.164219 0.335547 L 0.168789 0.335547 L 0.173359 0.340117 L 0.1825 0.340117 L 0.18707 0.344688 L 0.205352 0.344688 L 0.209922 0.349258 L 0.219063 0.349258 L 0.223633 0.353828 L 0.237305 0.353828 L 0.241875 0.349258 L 0.246445 0.349258 L 0.251016 0.344688 L 0.255586 0.344688 L 0.260156 0.340117 L 0.260156 0.335547 L 0.255586 0.330977 L 0.255586 0.321836 L 0.251016 0.317266 L 0.251016 0.312695 L 0.246445 0.308125 L 0.246445 0.294414 L 0.241875 0.289844 L 0.241875 0.267031 L 0.251016 0.257891 L 0.255586 0.257891 L 0.260156 0.25332 L 0.269297 0.25332 L 0.273867 0.24875 L 0.296719 0.24875 L 0.301289 0.25332 L 0.31957 0.25332 L 0.324102 0.257891 L 0.342383 0.257891 L 0.346953 0.262461 L 0.356094 0.262461 L 0.360664 0.267031 L 0.369805 0.267031 L 0.374375 0.271602 L 0.378945 0.271602 L 0.383516 0.276172 L 0.388086 0.280703 L 0.392656 0.280703 L 0.397227 0.285273 L 0.406367 0.285273 L 0.410938 0.289844 L 0.415469 0.289844 L 0.420039 0.294414 L 0.424609 0.294414 L 0.43375 0.303555 L 0.43375 0.308125 L 0.43832 0.312695 L 0.43832 0.321836 L 0.442891 0.326406 L 0.442891 0.340117 L 0.447461 0.344688 L 0.447461 0.353828 L 0.456602 0.362969 L 0.461172 0.3675 L 0.470312 0.3675 L 0.474883 0.362969 L 0.479453 0.358398 L 0.479453 0.344688 L 0.474883 0.340117 L 0.474883 0.312695 L 0.470312 0.308125 L 0.470312 0.298984 L 0.474883 0.294414 L 0.474883 0.289844 L 0.484023 0.280703 L 0.488594 0.276172 L 0.497734 0.267031 L 0.502266 0.262461 L 0.538828 0.262461 L 0.547969 0.271602 L 0.552539 0.271602 L 0.552539 0.276172 L 0.557109 0.280703 L 0.584531 0.308125 L 0.589063 0.308125 L 0.607344 0.326406 L 0.607344 0.330977 L 0.616484 0.340117 L 0.616484 0.353828 L 0.625625 0.362969 L 0.625625 0.3675 L 0.630195 0.37207 L 0.634766 0.37207 L 0.643906 0.381211 L 0.643906 0.390352 L 0.666758 0.413203 L 0.671328 0.413203 L 0.675898 0.417773 L 0.68043 0.422344 L 0.68957 0.431484 L 0.698711 0.431484 L 0.703281 0.426914 L 0.703281 0.394922 L 0.707852 0.390352 L 0.707852 0.385781 L 0.712422 0.385781 L 0.716992 0.381211 L 0.739844 0.381211 L 0.744414 0.385781 L 0.748984 0.385781 L 0.753555 0.390352 L 0.758125 0.390352 L 0.762695 0.394922 L 0.762695 0.399492 L 0.767227 0.404063 L 0.771797 0.404063 L 0.790078 0.422344 L 0.803789 0.422344 L 0.808359 0.417773 L 0.840352 0.417773 L 0.849492 0.426914 L 0.854023 0.431484 L 0.858594 0.436055 L 0.876875 0.436055 L 0.881445 0.431484 L 0.886016 0.431484 L 0.908867 0.454336 L 0.913438 0.449766 L 0.922578 0.449766 L 0.927148 0.445195 L 0.931719 0.445195 L 0.936289 0.449766 L 0.940859 0.449766 L 0.940859 0.458867 L 0.945391 0.463437 L 0.954531 0.463437 L 0.954531 0.477148 L 0.945391 0.477148 L 0.940859 0.481719 L 0.931719 0.481719 L 0.918008 0.49543 L 0.918008 0.50457 L 0.904297 0.518281 L 0.899727 0.518281 L 0.895156 0.522852 L 0.890586 0.522852 L 0.886016 0.527422 L 0.876875 0.527422 L 0.872305 0.531992 L 0.863164 0.531992 L 0.854023 0.541133 L 0.849492 0.536563 L 0.844922 0.536563 L 0.840352 0.541133 L 0.835781 0.541133 L 0.831211 0.545664 L 0.826641 0.545664 L 0.81293 0.559375 L 0.808359 0.559375 L 0.794648 0.573086 L 0.794648 0.577656 L 0.790078 0.582227 L 0.790078 0.586797 L 0.785508 0.591367 L 0.780938 0.591367 L 0.767227 0.605078 L 0.744414 0.605078 L 0.735273 0.595937 L 0.730703 0.595937 L 0.716992 0.582227 L 0.707852 0.582227 L 0.703281 0.586797 L 0.698711 0.586797 L 0.694141 0.591367 L 0.694141 0.595937 L 0.68957 0.600508 L 0.68957 0.605078 L 0.685 0.609648 L 0.685 0.614219 L 0.68043 0.618789 L 0.68043 0.62793 L 0.675898 0.6325 L 0.675898 0.637031 L 0.671328 0.641602 L 0.671328 0.650742 L 0.662187 0.659883 L 0.662187 0.664453 L 0.643906 0.682734 L 0.639336 0.682734 L 0.634766 0.687305 L 0.630195 0.687305 L 0.625625 0.691875 L 0.616484 0.691875 L 0.611914 0.696445 L 0.584531 0.696445 L 0.579961 0.691875 L 0.57082 0.691875 L 0.547969 0.669023 L 0.547969 0.664453 L 0.543398 0.659883 L 0.543398 0.62793 L 0.538828 0.623359 L 0.529688 0.6325 L 0.525117 0.637031 L 0.520547 0.641602 L 0.520547 0.646172 L 0.515977 0.650742 L 0.515977 0.659883 L 0.502266 0.673594 L 0.497734 0.678164 L 0.493164 0.682734 L 0.493164 0.696445 L 0.497734 0.701016 L 0.493164 0.705586 L 0.493164 0.710156 L 0.484023 0.719297 L 0.479453 0.723828 L 0.470312 0.732969 L 0.461172 0.732969 L 0.456602 0.737539 L 0.447461 0.737539 L 0.442891 0.732969 L 0.43832 0.732969 L 0.43375 0.728398 L 0.42918 0.728398 L 0.424609 0.723828 L 0.424609 0.719297 L 0.415469 0.710156 L 0.410938 0.705586 L 0.401797 0.705586 L 0.397227 0.710156 L 0.392656 0.710156 L 0.388086 0.714727 L 0.378945 0.714727 L 0.374375 0.719297 L 0.365234 0.719297 L 0.360664 0.723828 L 0.356094 0.728398 L 0.351523 0.728398 L 0.346953 0.732969 L 0.342383 0.732969 L 0.337813 0.737539 L 0.333242 0.737539 L 0.328672 0.742109 L 0.324102 0.742109 L 0.31957 0.74668 L 0.31043 0.74668 L 0.305859 0.75125 L 0.292148 0.75125 L 0.287578 0.74668 L 0.278437 0.74668 L 0.273867 0.742109 L 0.269297 0.742109 L 0.264727 0.737539 L 0.264727 0.732969 L 0.260156 0.728398 L 0.260156 0.705586 L 0.255586 0.701016 L 0.255586 0.696445 L 0.251016 0.691875 L 0.251016 0.664453 L 0.246445 0.659883 L 0.241875 0.664453 L 0.237305 0.664453 L 0.232773 0.669023 L 0.219063 0.669023 L 0.214492 0.673594 L 0.200781 0.673594 L 0.196211 0.669023 L 0.168789 0.669023 L 0.164219 0.664453 L 0.159648 0.664453 L 0.155078 0.659883 L 0.132266 0.659883 L 0.118555 0.646172 L 0.118555 0.623359 L 0.123125 0.618789 L 0.123125 0.605078 L 0.113984 0.595937 L 0.0911328 0.595937 L 0.0865625 0.591367 L 0.0819922 0.591367 L 0.0774219 0.586797 L 0.0682813 0.586797 L 0.0591406 0.577656 L 0.0546094 0.573086 L 0.0500391 0.568516 L 0.0500391 0.563945 L 0.0454687 0.559375 Z M 0.0454687 0.554805 " transform="matrix(100,0,0,100,300,350)"/>
<path style="fill:none;stroke-width:0.01;stroke-linecap:butt;stroke-linejoin:miter;stroke:rgb(0%,0%,0%);stroke-opacity:1;stroke-miterlimit:10;" d="M 0.0454688 0.508086 L 0.0494922 0.504023 L 0.0535547 0.5 L 0.0575781 0.495977 L 0.0616016 0.491914 L 0.0616016 0.487891 L 0.0656641 0.483828 L 0.0656641 0.475742 L 0.0616016 0.471719 L 0.0616016 0.459609 L 0.0656641 0.455547 L 0.0656641 0.451523 L 0.0696875 0.451523 L 0.07375 0.447461 L 0.0979687 0.447461 L 0.102031 0.443437 L 0.110117 0.443437 L 0.114141 0.439375 L 0.114141 0.427266 L 0.106055 0.41918 L 0.106055 0.415156 L 0.102031 0.411094 L 0.102031 0.398984 L 0.106055 0.394961 L 0.106055 0.390898 L 0.110117 0.386875 L 0.114141 0.382812 L 0.118164 0.378789 L 0.12625 0.378789 L 0.130313 0.374766 L 0.134336 0.370703 L 0.162617 0.370703 L 0.16668 0.374766 L 0.186875 0.374766 L 0.190898 0.370703 L 0.190898 0.342422 L 0.186875 0.338398 L 0.186875 0.334336 L 0.182812 0.330313 L 0.182812 0.322227 L 0.178789 0.318164 L 0.178789 0.314141 L 0.174766 0.310117 L 0.174766 0.293945 L 0.178789 0.289883 L 0.182812 0.285859 L 0.186875 0.285859 L 0.190898 0.281836 L 0.203047 0.281836 L 0.20707 0.277773 L 0.211094 0.281836 L 0.215156 0.281836 L 0.21918 0.277773 L 0.243437 0.277773 L 0.247461 0.281836 L 0.255547 0.281836 L 0.259609 0.285859 L 0.275742 0.285859 L 0.279805 0.289883 L 0.283828 0.293945 L 0.291914 0.293945 L 0.295977 0.297969 L 0.3 0.302031 L 0.304023 0.302031 L 0.308086 0.306055 L 0.312109 0.310117 L 0.316172 0.310117 L 0.320195 0.314141 L 0.324258 0.314141 L 0.328281 0.318164 L 0.340391 0.318164 L 0.344453 0.314141 L 0.348477 0.310117 L 0.348477 0.306055 L 0.344453 0.302031 L 0.344453 0.293945 L 0.340391 0.289883 L 0.340391 0.261602 L 0.344453 0.257578 L 0.344453 0.253555 L 0.348477 0.249492 L 0.348477 0.245469 L 0.352539 0.241406 L 0.356562 0.241406 L 0.360625 0.237383 L 0.39293 0.237383 L 0.401016 0.245469 L 0.409102 0.245469 L 0.425234 0.261602 L 0.429297 0.261602 L 0.43332 0.265664 L 0.437383 0.269687 L 0.441406 0.269687 L 0.449492 0.277773 L 0.449492 0.281836 L 0.453555 0.285859 L 0.457578 0.289883 L 0.461602 0.293945 L 0.465664 0.297969 L 0.469688 0.302031 L 0.469688 0.306055 L 0.477773 0.314141 L 0.481836 0.314141 L 0.481836 0.318164 L 0.485859 0.322227 L 0.489883 0.322227 L 0.493945 0.318164 L 0.493945 0.297969 L 0.497969 0.293945 L 0.497969 0.285859 L 0.502031 0.281836 L 0.502031 0.277773 L 0.506055 0.27375 L 0.506055 0.269687 L 0.510117 0.265664 L 0.542422 0.265664 L 0.546445 0.269687 L 0.550508 0.269687 L 0.554531 0.27375 L 0.558594 0.277773 L 0.562617 0.277773 L 0.570703 0.285859 L 0.574766 0.289883 L 0.578789 0.293945 L 0.590898 0.306055 L 0.590898 0.310117 L 0.594961 0.314141 L 0.594961 0.318164 L 0.598984 0.322227 L 0.598984 0.32625 L 0.603047 0.330313 L 0.603047 0.334336 L 0.60707 0.338398 L 0.60707 0.342422 L 0.611094 0.346445 L 0.611094 0.350508 L 0.615156 0.354531 L 0.615156 0.36668 L 0.61918 0.370703 L 0.61918 0.374766 L 0.615156 0.378789 L 0.627266 0.390898 L 0.631328 0.386875 L 0.631328 0.382812 L 0.635352 0.378789 L 0.635352 0.36668 L 0.639375 0.362617 L 0.639375 0.358594 L 0.647461 0.350508 L 0.679805 0.350508 L 0.687891 0.358594 L 0.691914 0.358594 L 0.695977 0.362617 L 0.7 0.36668 L 0.712109 0.378789 L 0.716172 0.382812 L 0.720195 0.386875 L 0.720195 0.390898 L 0.728281 0.398984 L 0.728281 0.403047 L 0.732305 0.40707 L 0.736367 0.411094 L 0.740391 0.415156 L 0.744453 0.41918 L 0.748477 0.423242 L 0.752539 0.427266 L 0.756563 0.431328 L 0.760625 0.435352 L 0.764648 0.439375 L 0.768672 0.435352 L 0.768672 0.427266 L 0.772734 0.423242 L 0.772734 0.415156 L 0.776758 0.411094 L 0.796953 0.411094 L 0.801016 0.415156 L 0.805039 0.415156 L 0.809102 0.41918 L 0.813125 0.41918 L 0.817188 0.423242 L 0.821211 0.423242 L 0.825234 0.427266 L 0.837383 0.427266 L 0.841406 0.431328 L 0.845469 0.431328 L 0.849492 0.435352 L 0.853555 0.435352 L 0.857578 0.439375 L 0.861602 0.439375 L 0.865664 0.443437 L 0.869688 0.443437 L 0.87375 0.447461 L 0.877773 0.451523 L 0.881836 0.451523 L 0.885859 0.455547 L 0.889883 0.459609 L 0.893945 0.463633 L 0.893945 0.467695 L 0.897969 0.471719 L 0.897969 0.479805 L 0.902031 0.483828 L 0.906055 0.487891 L 0.918164 0.487891 L 0.922227 0.483828 L 0.930313 0.483828 L 0.934336 0.479805 L 0.938398 0.479805 L 0.942422 0.483828 L 0.950508 0.483828 L 0.954531 0.487891 L 0.942422 0.5 L 0.942422 0.504023 L 0.918164 0.504023 L 0.914141 0.5 L 0.881836 0.5 L 0.877773 0.504023 L 0.881836 0.508086 L 0.881836 0.520195 L 0.877773 0.524258 L 0.877773 0.528281 L 0.87375 0.532305 L 0.865664 0.532305 L 0.861602 0.528281 L 0.857578 0.528281 L 0.853555 0.532305 L 0.849492 0.532305 L 0.845469 0.536367 L 0.841406 0.536367 L 0.837383 0.540391 L 0.825234 0.540391 L 0.821211 0.544453 L 0.817188 0.544453 L 0.813125 0.548477 L 0.809102 0.548477 L 0.801016 0.556563 L 0.796953 0.556563 L 0.79293 0.560625 L 0.78082 0.560625 L 0.772734 0.552539 L 0.772734 0.544453 L 0.768672 0.540391 L 0.764648 0.540391 L 0.760625 0.544453 L 0.756563 0.548477 L 0.752539 0.548477 L 0.736367 0.564648 L 0.732305 0.568672 L 0.728281 0.572734 L 0.724258 0.576758 L 0.720195 0.576758 L 0.716172 0.58082 L 0.712109 0.584844 L 0.708086 0.588906 L 0.7 0.588906 L 0.695977 0.59293 L 0.687891 0.59293 L 0.683828 0.596953 L 0.679805 0.59293 L 0.671719 0.59293 L 0.671719 0.572734 L 0.667695 0.568672 L 0.659609 0.568672 L 0.651523 0.576758 L 0.651523 0.584844 L 0.643438 0.59293 L 0.639375 0.596953 L 0.639375 0.601016 L 0.635352 0.605039 L 0.631328 0.605039 L 0.623242 0.613125 L 0.61918 0.613125 L 0.615156 0.617188 L 0.60707 0.617188 L 0.603047 0.621211 L 0.598984 0.621211 L 0.594961 0.617188 L 0.586875 0.617188 L 0.586875 0.613125 L 0.582813 0.609102 L 0.582813 0.59293 L 0.578789 0.588906 L 0.574766 0.588906 L 0.570703 0.59293 L 0.558594 0.605039 L 0.558594 0.609102 L 0.554531 0.613125 L 0.554531 0.617188 L 0.550508 0.621211 L 0.546445 0.625234 L 0.546445 0.629297 L 0.542422 0.63332 L 0.542422 0.637383 L 0.530312 0.649492 L 0.530312 0.653555 L 0.52625 0.657578 L 0.514141 0.669688 L 0.514141 0.67375 L 0.502031 0.685859 L 0.497969 0.689883 L 0.493945 0.693945 L 0.489883 0.697969 L 0.485859 0.702031 L 0.481836 0.702031 L 0.477773 0.706055 L 0.47375 0.710117 L 0.465664 0.710117 L 0.461602 0.714141 L 0.43332 0.714141 L 0.429297 0.710117 L 0.425234 0.710117 L 0.421211 0.706055 L 0.421211 0.702031 L 0.417187 0.697969 L 0.417187 0.653555 L 0.413125 0.649492 L 0.409102 0.653555 L 0.405039 0.657578 L 0.39293 0.669688 L 0.39293 0.67375 L 0.38082 0.685859 L 0.376758 0.689883 L 0.376758 0.693945 L 0.364648 0.706055 L 0.360625 0.710117 L 0.356562 0.714141 L 0.344453 0.72625 L 0.340391 0.72625 L 0.336367 0.730313 L 0.332305 0.734336 L 0.328281 0.734336 L 0.324258 0.738398 L 0.320195 0.738398 L 0.316172 0.742422 L 0.312109 0.742422 L 0.304023 0.750508 L 0.3 0.750508 L 0.295977 0.754531 L 0.287891 0.754531 L 0.283828 0.758594 L 0.255547 0.758594 L 0.251523 0.762617 L 0.247461 0.758594 L 0.243437 0.758594 L 0.235352 0.750508 L 0.231328 0.746445 L 0.231328 0.697969 L 0.235352 0.693945 L 0.235352 0.689883 L 0.239375 0.685859 L 0.239375 0.669688 L 0.235352 0.665664 L 0.211094 0.665664 L 0.20707 0.669688 L 0.203047 0.669688 L 0.198984 0.67375 L 0.194961 0.67375 L 0.190898 0.677773 L 0.182812 0.677773 L 0.178789 0.681836 L 0.142422 0.681836 L 0.138398 0.677773 L 0.134336 0.677773 L 0.130313 0.67375 L 0.12625 0.67375 L 0.122227 0.669688 L 0.118164 0.665664 L 0.118164 0.645469 L 0.122227 0.641406 L 0.122227 0.63332 L 0.130313 0.625234 L 0.130313 0.617188 L 0.12625 0.613125 L 0.122227 0.613125 L 0.118164 0.609102 L 0.0939453 0.609102 L 0.0898828 0.605039 L 0.0858594 0.605039 L 0.0818359 0.601016 L 0.0777734 0.601016 L 0.0777734 0.596953 L 0.07375 0.59293 L 0.07375 0.588906 L 0.0777734 0.584844 L 0.0777734 0.58082 L 0.0818359 0.576758 L 0.0818359 0.572734 L 0.0858594 0.568672 L 0.0818359 0.564648 L 0.0777734 0.560625 L 0.07375 0.556563 L 0.0656641 0.556563 L 0.0616016 0.552539 L 0.0575781 0.548477 L 0.0454688 0.536367 L 0.0454688 0.512109 Z M 0.0454688 0.508086 " transform="matrix(100,0,0,100,450,350)"/>
<path style="fill:none;stroke-width:0.01;stroke-linecap:butt;stroke-linejoin:miter;stroke:rgb(0%,0%,0%);stroke-opacity:1;stroke-miterlimit:10;" d="M 0.0454688 0.514414 L 0.0495703 0.510273 L 0.0495703 0.506172 L 0.0578125 0.49793 L 0.0619141 0.49793 L 0.0701172 0.489727 L 0.0701172 0.485586 L 0.0619141 0.477383 L 0.0619141 0.473281 L 0.0578125 0.469141 L 0.0578125 0.452695 L 0.0619141 0.448594 L 0.0660156 0.444453 L 0.0701172 0.444453 L 0.0742578 0.440352 L 0.0783594 0.440352 L 0.0824609 0.43625 L 0.0907031 0.43625 L 0.0948047 0.432109 L 0.111289 0.432109 L 0.115391 0.428008 L 0.14418 0.428008 L 0.148281 0.423906 L 0.148281 0.40332 L 0.14418 0.399219 L 0.14418 0.390977 L 0.140078 0.386875 L 0.140078 0.349844 L 0.14418 0.345742 L 0.14418 0.341641 L 0.148281 0.3375 L 0.152422 0.333398 L 0.156523 0.329297 L 0.160625 0.325156 L 0.172969 0.325156 L 0.17707 0.321055 L 0.189414 0.321055 L 0.193555 0.316953 L 0.21 0.316953 L 0.214102 0.321055 L 0.218242 0.321055 L 0.222344 0.325156 L 0.230547 0.325156 L 0.234687 0.329297 L 0.247031 0.329297 L 0.251133 0.333398 L 0.255234 0.333398 L 0.259375 0.3375 L 0.263477 0.341641 L 0.267578 0.341641 L 0.27168 0.345742 L 0.27582 0.349844 L 0.279922 0.353984 L 0.284023 0.353984 L 0.288164 0.358086 L 0.292266 0.362188 L 0.300508 0.362188 L 0.304609 0.358086 L 0.304609 0.300508 L 0.308711 0.296367 L 0.308711 0.292266 L 0.312852 0.288164 L 0.312852 0.284023 L 0.321055 0.27582 L 0.325156 0.27168 L 0.329297 0.267578 L 0.333398 0.267578 L 0.3375 0.263477 L 0.362188 0.263477 L 0.366328 0.267578 L 0.378633 0.267578 L 0.382773 0.27168 L 0.386875 0.27168 L 0.390977 0.27582 L 0.395117 0.27582 L 0.399219 0.279922 L 0.407461 0.279922 L 0.411563 0.284023 L 0.419805 0.284023 L 0.423906 0.288164 L 0.432109 0.296367 L 0.440352 0.296367 L 0.444453 0.300508 L 0.444453 0.304609 L 0.448594 0.308711 L 0.452695 0.308711 L 0.456797 0.312852 L 0.460938 0.316953 L 0.460938 0.321055 L 0.465039 0.325156 L 0.469141 0.329297 L 0.469141 0.3375 L 0.473281 0.341641 L 0.473281 0.345742 L 0.477383 0.349844 L 0.477383 0.353984 L 0.49793 0.374531 L 0.50207 0.378633 L 0.50207 0.382773 L 0.514414 0.395117 L 0.518516 0.395117 L 0.530859 0.407461 L 0.534961 0.407461 L 0.539062 0.411563 L 0.547305 0.411563 L 0.555547 0.40332 L 0.555547 0.395117 L 0.559648 0.390977 L 0.559648 0.386875 L 0.56375 0.382773 L 0.56375 0.374531 L 0.567891 0.37043 L 0.567891 0.366328 L 0.571992 0.362188 L 0.584336 0.349844 L 0.588438 0.349844 L 0.592539 0.345742 L 0.617227 0.345742 L 0.621367 0.349844 L 0.625469 0.353984 L 0.62957 0.353984 L 0.633672 0.358086 L 0.637812 0.362188 L 0.641914 0.366328 L 0.646016 0.37043 L 0.650156 0.374531 L 0.654258 0.378633 L 0.654258 0.382773 L 0.658359 0.386875 L 0.658359 0.399219 L 0.6625 0.40332 L 0.6625 0.407461 L 0.670703 0.415664 L 0.670703 0.419805 L 0.674844 0.423906 L 0.674844 0.428008 L 0.678945 0.432109 L 0.683047 0.43625 L 0.687148 0.440352 L 0.691289 0.444453 L 0.691289 0.448594 L 0.707734 0.465039 L 0.711836 0.465039 L 0.715977 0.460938 L 0.715977 0.456797 L 0.72418 0.448594 L 0.72418 0.444453 L 0.72832 0.444453 L 0.736523 0.43625 L 0.761211 0.43625 L 0.765313 0.440352 L 0.769453 0.444453 L 0.773555 0.444453 L 0.777656 0.448594 L 0.781758 0.452695 L 0.785898 0.456797 L 0.79 0.460938 L 0.794102 0.465039 L 0.802344 0.465039 L 0.806445 0.469141 L 0.810586 0.469141 L 0.814687 0.473281 L 0.827031 0.473281 L 0.831133 0.477383 L 0.843477 0.477383 L 0.847578 0.481484 L 0.851719 0.485586 L 0.85582 0.489727 L 0.859922 0.493828 L 0.864063 0.49793 L 0.868164 0.49793 L 0.872266 0.50207 L 0.876406 0.50207 L 0.876406 0.514414 L 0.880508 0.518516 L 0.917539 0.518516 L 0.921641 0.522617 L 0.925742 0.522617 L 0.929883 0.518516 L 0.95043 0.518516 L 0.946328 0.522617 L 0.95043 0.526719 L 0.95043 0.530859 L 0.954531 0.534961 L 0.954531 0.539062 L 0.929883 0.539062 L 0.925742 0.534961 L 0.913398 0.534961 L 0.909297 0.530859 L 0.888711 0.530859 L 0.880508 0.539062 L 0.880508 0.543203 L 0.872266 0.543203 L 0.851719 0.56375 L 0.847578 0.56375 L 0.843477 0.559648 L 0.835234 0.559648 L 0.831133 0.56375 L 0.810586 0.56375 L 0.806445 0.559648 L 0.802344 0.555547 L 0.798242 0.551406 L 0.79 0.551406 L 0.785898 0.555547 L 0.781758 0.555547 L 0.777656 0.559648 L 0.752969 0.559648 L 0.748867 0.555547 L 0.744766 0.555547 L 0.740625 0.551406 L 0.720078 0.551406 L 0.715977 0.555547 L 0.711836 0.555547 L 0.707734 0.559648 L 0.707734 0.571992 L 0.703633 0.576094 L 0.703633 0.580195 L 0.678945 0.604883 L 0.674844 0.609023 L 0.670703 0.613125 L 0.666602 0.617227 L 0.6625 0.621367 L 0.658359 0.625469 L 0.641914 0.625469 L 0.62957 0.613125 L 0.62957 0.59668 L 0.625469 0.592539 L 0.625469 0.584336 L 0.621367 0.580195 L 0.621367 0.576094 L 0.617227 0.571992 L 0.613125 0.571992 L 0.609023 0.576094 L 0.604883 0.576094 L 0.600781 0.580195 L 0.59668 0.580195 L 0.592539 0.584336 L 0.592539 0.59668 L 0.588438 0.600781 L 0.588438 0.604883 L 0.584336 0.609023 L 0.584336 0.613125 L 0.580195 0.617227 L 0.580195 0.621367 L 0.571992 0.62957 L 0.571992 0.633672 L 0.567891 0.637812 L 0.56375 0.641914 L 0.56375 0.646016 L 0.559648 0.650156 L 0.555547 0.654258 L 0.551406 0.658359 L 0.547305 0.6625 L 0.543203 0.666602 L 0.539062 0.670703 L 0.534961 0.670703 L 0.530859 0.674844 L 0.526719 0.678945 L 0.522617 0.683047 L 0.514414 0.683047 L 0.510273 0.687148 L 0.493828 0.687148 L 0.489727 0.683047 L 0.485586 0.678945 L 0.481484 0.678945 L 0.477383 0.674844 L 0.473281 0.670703 L 0.469141 0.666602 L 0.469141 0.6625 L 0.465039 0.658359 L 0.465039 0.621367 L 0.460938 0.617227 L 0.452695 0.617227 L 0.448594 0.621367 L 0.444453 0.625469 L 0.43625 0.633672 L 0.43625 0.637812 L 0.432109 0.641914 L 0.428008 0.646016 L 0.423906 0.650156 L 0.419805 0.654258 L 0.415664 0.658359 L 0.411563 0.6625 L 0.407461 0.666602 L 0.40332 0.670703 L 0.399219 0.674844 L 0.395117 0.678945 L 0.390977 0.683047 L 0.390977 0.687148 L 0.386875 0.687148 L 0.382773 0.691289 L 0.382773 0.695391 L 0.378633 0.699492 L 0.374531 0.703633 L 0.362188 0.715977 L 0.358086 0.715977 L 0.353984 0.720078 L 0.341641 0.720078 L 0.3375 0.72418 L 0.333398 0.72418 L 0.329297 0.72832 L 0.325156 0.72832 L 0.321055 0.732422 L 0.316953 0.732422 L 0.312852 0.736523 L 0.300508 0.736523 L 0.296367 0.732422 L 0.288164 0.732422 L 0.284023 0.72832 L 0.279922 0.72832 L 0.27582 0.72418 L 0.267578 0.72418 L 0.267578 0.715977 L 0.263477 0.711836 L 0.263477 0.703633 L 0.267578 0.699492 L 0.267578 0.691289 L 0.263477 0.687148 L 0.263477 0.6625 L 0.259375 0.658359 L 0.251133 0.658359 L 0.247031 0.6625 L 0.242891 0.666602 L 0.238789 0.670703 L 0.234687 0.670703 L 0.230547 0.674844 L 0.226445 0.674844 L 0.222344 0.678945 L 0.218242 0.678945 L 0.214102 0.683047 L 0.21 0.687148 L 0.205898 0.691289 L 0.197656 0.691289 L 0.193555 0.695391 L 0.17707 0.695391 L 0.172969 0.691289 L 0.156523 0.691289 L 0.152422 0.687148 L 0.148281 0.687148 L 0.14418 0.683047 L 0.140078 0.683047 L 0.135937 0.678945 L 0.131836 0.674844 L 0.131836 0.670703 L 0.127734 0.666602 L 0.123594 0.6625 L 0.119492 0.658359 L 0.115391 0.654258 L 0.115391 0.625469 L 0.119492 0.621367 L 0.119492 0.617227 L 0.123594 0.613125 L 0.127734 0.609023 L 0.131836 0.604883 L 0.135937 0.600781 L 0.131836 0.59668 L 0.123594 0.59668 L 0.119492 0.600781 L 0.0866016 0.600781 L 0.0824609 0.59668 L 0.0742578 0.59668 L 0.0701172 0.592539 L 0.0660156 0.592539 L 0.0578125 0.584336 L 0.0578125 0.576094 L 0.0536719 0.571992 L 0.0536719 0.559648 L 0.0495703 0.555547 L 0.0495703 0.534961 L 0.0454688 0.530859 L 0.0454688 0.518516 Z M 0.0454688 0.514414 " transform="matrix(100,0,0,100,600,350)"/>
</g>
</svg>
