<?xml version="1.0" encoding="UTF-8"?>
<svg xmlns="http://www.w3.org/2000/svg" xmlns:xlink="http://www.w3.org/1999/xlink" width="750pt" height="2800pt" viewBox="0 0 750 2800" version="1.1">
<g id="surface1">
<path style="fill:none;stroke-width:0.01;stroke-linecap:butt;stroke-linejoin:miter;stroke:rgb(0%,0%,0%);stroke-opacity:1;stroke-miterlimit:10;" d="M 0.0454688 0.550977 L 0.0495312 0.546875 L 0.0535938 0.546875 L 0.0576953 0.542813 L 0.0658203 0.542813 L 0.0699219 0.538711 L 0.0739844 0.538711 L 0.0780859 0.534648 L 0.0821484 0.534648 L 0.0862109 0.530586 L 0.094375 0.530586 L 0.0984375 0.526484 L 0.102539 0.522422 L 0.106602 0.522422 L 0.118828 0.510195 L 0.12293 0.506133 L 0.126992 0.502031 L 0.131055 0.497969 L 0.135156 0.497969 L 0.139219 0.493867 L 0.139219 0.489805 L 0.143281 0.485742 L 0.143281 0.481641 L 0.147383 0.477578 L 0.147383 0.473516 L 0.151445 0.469414 L 0.151445 0.465352 L 0.163672 0.453125 L 0.167734 0.449023 L 0.171836 0.444961 L 0.192227 0.42457 L 0.192227 0.420508 L 0.196289 0.416445 L 0.200352 0.412344 L 0.200352 0.408281 L 0.208516 0.400117 L 0.212578 0.400117 L 0.21668 0.396055 L 0.21668 0.391953 L 0.220742 0.387891 L 0.228906 0.387891 L 0.232969 0.383828 L 0.232969 0.375664 L 0.23707 0.375664 L 0.241133 0.371602 L 0.241133 0.3675 L 0.245195 0.3675 L 0.249297 0.363437 L 0.257422 0.363437 L 0.261523 0.359375 L 0.261523 0.355273 L 0.265586 0.355273 L 0.269688 0.351211 L 0.27375 0.347109 L 0.277813 0.343047 L 0.281914 0.338984 L 0.290039 0.338984 L 0.294141 0.334883 L 0.294141 0.33082 L 0.298203 0.33082 L 0.302266 0.326758 L 0.306367 0.326758 L 0.31043 0.322656 L 0.314531 0.318594 L 0.318594 0.318594 L 0.322656 0.314531 L 0.322656 0.31043 L 0.33082 0.31043 L 0.338984 0.302266 L 0.355273 0.302266 L 0.359375 0.298203 L 0.359375 0.294141 L 0.3675 0.294141 L 0.371602 0.298203 L 0.375664 0.294141 L 0.379727 0.294141 L 0.391953 0.281914 L 0.40418 0.281914 L 0.412344 0.27375 L 0.428672 0.27375 L 0.432734 0.269687 L 0.449023 0.269687 L 0.453125 0.265586 L 0.457188 0.269687 L 0.461289 0.265586 L 0.481641 0.265586 L 0.485742 0.261523 L 0.489805 0.265586 L 0.493867 0.265586 L 0.497969 0.269687 L 0.502031 0.265586 L 0.506133 0.269687 L 0.530586 0.269687 L 0.534648 0.27375 L 0.555039 0.27375 L 0.559102 0.269687 L 0.563203 0.27375 L 0.57543 0.27375 L 0.579492 0.269687 L 0.583555 0.27375 L 0.612109 0.27375 L 0.616172 0.277813 L 0.6325 0.277813 L 0.636563 0.281914 L 0.640625 0.281914 L 0.644727 0.285977 L 0.661016 0.285977 L 0.665117 0.290039 L 0.66918 0.290039 L 0.673242 0.294141 L 0.697734 0.294141 L 0.705859 0.302266 L 0.718086 0.302266 L 0.722187 0.306367 L 0.72625 0.306367 L 0.730313 0.31043 L 0.738477 0.31043 L 0.750703 0.322656 L 0.758867 0.322656 L 0.76293 0.326758 L 0.767031 0.326758 L 0.771094 0.33082 L 0.779258 0.33082 L 0.791484 0.343047 L 0.795547 0.343047 L 0.799648 0.347109 L 0.803711 0.351211 L 0.811875 0.351211 L 0.815937 0.355273 L 0.82 0.359375 L 0.824102 0.359375 L 0.828164 0.363437 L 0.832266 0.3675 L 0.836328 0.371602 L 0.840391 0.371602 L 0.844492 0.375664 L 0.848555 0.379727 L 0.852617 0.383828 L 0.856719 0.387891 L 0.856719 0.391953 L 0.860781 0.396055 L 0.860781 0.400117 L 0.864844 0.40418 L 0.864844 0.440898 L 0.860781 0.444961 L 0.864844 0.449023 L 0.868945 0.449023 L 0.873008 0.444961 L 0.885234 0.444961 L 0.889336 0.440898 L 0.893398 0.436797 L 0.901563 0.436797 L 0.913789 0.42457 L 0.917852 0.42457 L 0.921914 0.420508 L 0.921914 0.416445 L 0.930078 0.408281 L 0.93418 0.408281 L 0.938242 0.40418 L 0.950469 0.40418 L 0.954531 0.408281 L 0.954531 0.420508 L 0.946406 0.420508 L 0.942305 0.42457 L 0.942305 0.428672 L 0.938242 0.428672 L 0.93418 0.432734 L 0.930078 0.436797 L 0.926016 0.440898 L 0.921914 0.444961 L 0.917852 0.444961 L 0.913789 0.449023 L 0.909687 0.449023 L 0.905625 0.453125 L 0.897461 0.453125 L 0.893398 0.457187 L 0.885234 0.457187 L 0.881172 0.461289 L 0.864844 0.461289 L 0.856719 0.469414 L 0.856719 0.473516 L 0.852617 0.477578 L 0.856719 0.481641 L 0.856719 0.493867 L 0.860781 0.497969 L 0.856719 0.502031 L 0.856719 0.518359 L 0.852617 0.522422 L 0.848555 0.526484 L 0.844492 0.530586 L 0.840391 0.534648 L 0.836328 0.538711 L 0.832266 0.542813 L 0.832266 0.546875 L 0.824102 0.555039 L 0.82 0.555039 L 0.815937 0.559102 L 0.815937 0.563203 L 0.811875 0.567266 L 0.799648 0.567266 L 0.795547 0.571328 L 0.795547 0.57543 L 0.799648 0.579492 L 0.799648 0.587656 L 0.795547 0.591719 L 0.791484 0.59582 L 0.787422 0.599883 L 0.78332 0.603945 L 0.779258 0.608047 L 0.771094 0.608047 L 0.767031 0.612109 L 0.76293 0.616172 L 0.758867 0.616172 L 0.754805 0.620273 L 0.750703 0.624336 L 0.746641 0.628398 L 0.742578 0.6325 L 0.734414 0.6325 L 0.730313 0.636563 L 0.72625 0.640625 L 0.722187 0.644727 L 0.718086 0.644727 L 0.714023 0.648789 L 0.714023 0.652891 L 0.709961 0.652891 L 0.705859 0.656953 L 0.701797 0.656953 L 0.693633 0.665117 L 0.68957 0.661016 L 0.677344 0.673242 L 0.66918 0.673242 L 0.665117 0.677344 L 0.661016 0.681406 L 0.652891 0.681406 L 0.648789 0.685469 L 0.644727 0.68957 L 0.640625 0.693633 L 0.628398 0.693633 L 0.624336 0.697734 L 0.620273 0.697734 L 0.616172 0.701797 L 0.612109 0.701797 L 0.608047 0.705859 L 0.603945 0.705859 L 0.599883 0.709961 L 0.59582 0.709961 L 0.591719 0.714023 L 0.583555 0.714023 L 0.579492 0.718086 L 0.57543 0.722187 L 0.571328 0.72625 L 0.567266 0.722187 L 0.563203 0.72625 L 0.550977 0.72625 L 0.546875 0.730313 L 0.542813 0.730313 L 0.538711 0.734414 L 0.534648 0.734414 L 0.530586 0.730313 L 0.526484 0.734414 L 0.465352 0.734414 L 0.461289 0.730313 L 0.453125 0.730313 L 0.449023 0.734414 L 0.420508 0.734414 L 0.416445 0.738477 L 0.383828 0.738477 L 0.379727 0.734414 L 0.363438 0.734414 L 0.359375 0.730313 L 0.355273 0.734414 L 0.338984 0.734414 L 0.338984 0.730313 L 0.334883 0.72625 L 0.33082 0.722187 L 0.326758 0.722187 L 0.322656 0.72625 L 0.318594 0.722187 L 0.314531 0.722187 L 0.31043 0.718086 L 0.306367 0.718086 L 0.302266 0.714023 L 0.285977 0.714023 L 0.277813 0.705859 L 0.27375 0.705859 L 0.269688 0.701797 L 0.265586 0.701797 L 0.261523 0.697734 L 0.253359 0.697734 L 0.253359 0.693633 L 0.249297 0.68957 L 0.245195 0.68957 L 0.245195 0.685469 L 0.241133 0.681406 L 0.232969 0.681406 L 0.228906 0.677344 L 0.224844 0.673242 L 0.21668 0.673242 L 0.212578 0.66918 L 0.208516 0.665117 L 0.204453 0.661016 L 0.200352 0.661016 L 0.200352 0.656953 L 0.196289 0.652891 L 0.192227 0.648789 L 0.188125 0.644727 L 0.18 0.644727 L 0.18 0.640625 L 0.175898 0.636563 L 0.171836 0.6325 L 0.167734 0.6325 L 0.163672 0.628398 L 0.159609 0.624336 L 0.159609 0.620273 L 0.151445 0.612109 L 0.143281 0.612109 L 0.139219 0.608047 L 0.135156 0.603945 L 0.131055 0.599883 L 0.126992 0.59582 L 0.12293 0.591719 L 0.118828 0.587656 L 0.114766 0.583555 L 0.110664 0.583555 L 0.102539 0.57543 L 0.0984375 0.57543 L 0.094375 0.571328 L 0.0821484 0.571328 L 0.0780859 0.567266 L 0.0699219 0.567266 L 0.0658203 0.563203 L 0.0535938 0.563203 L 0.0495312 0.559102 L 0.0454688 0.559102 L 0.0454688 0.555039 Z M 0.0454688 0.550977 " transform="matrix(100,0,0,100,0,200)"/>
<path style="fill:none;stroke-width:0.01;stroke-linecap:butt;stroke-linejoin:miter;stroke:rgb(0%,0%,0%);stroke-opacity:1;stroke-miterlimit:10;" d="M 0.0454687 0.471602 L 0.0495313 0.471602 L 0.0535547 0.467539 L 0.0576172 0.467539 L 0.0616797 0.463477 L 0.0900781 0.463477 L 0.0941406 0.459414 L 0.102266 0.459414 L 0.106328 0.455352 L 0.110391 0.455352 L 0.114453 0.451289 L 0.118516 0.451289 L 0.150977 0.418828 L 0.155039 0.418828 L 0.159102 0.414766 L 0.163164 0.414766 L 0.167227 0.410703 L 0.17125 0.406641 L 0.179375 0.406641 L 0.183438 0.402578 L 0.183438 0.398555 L 0.1875 0.398555 L 0.191563 0.394492 L 0.195625 0.394492 L 0.199688 0.39043 L 0.199688 0.386367 L 0.20375 0.382305 L 0.207773 0.378242 L 0.211836 0.37418 L 0.215898 0.37418 L 0.224023 0.366055 L 0.228086 0.362031 L 0.236211 0.362031 L 0.240273 0.357969 L 0.256484 0.357969 L 0.260547 0.353906 L 0.264609 0.357969 L 0.268672 0.353906 L 0.268672 0.349844 L 0.272734 0.345781 L 0.272734 0.341719 L 0.284922 0.329531 L 0.288945 0.325469 L 0.29707 0.325469 L 0.301133 0.321445 L 0.305195 0.317383 L 0.317383 0.317383 L 0.321445 0.31332 L 0.333594 0.31332 L 0.341719 0.305195 L 0.349844 0.305195 L 0.353906 0.301133 L 0.366055 0.301133 L 0.370117 0.29707 L 0.37418 0.29707 L 0.378242 0.293008 L 0.410703 0.293008 L 0.418828 0.301133 L 0.422891 0.301133 L 0.426953 0.29707 L 0.426953 0.288945 L 0.431016 0.288945 L 0.435078 0.284922 L 0.459414 0.284922 L 0.463477 0.280859 L 0.475664 0.280859 L 0.479727 0.284922 L 0.48375 0.280859 L 0.5 0.280859 L 0.504062 0.284922 L 0.508125 0.280859 L 0.512188 0.284922 L 0.524336 0.284922 L 0.528398 0.288945 L 0.536523 0.288945 L 0.540586 0.293008 L 0.556836 0.293008 L 0.560859 0.29707 L 0.568984 0.29707 L 0.577109 0.305195 L 0.581172 0.305195 L 0.585234 0.309258 L 0.593359 0.309258 L 0.597422 0.31332 L 0.601445 0.317383 L 0.613633 0.317383 L 0.617695 0.321445 L 0.621758 0.325469 L 0.629883 0.325469 L 0.633945 0.329531 L 0.637969 0.333594 L 0.646094 0.333594 L 0.654219 0.341719 L 0.658281 0.341719 L 0.662344 0.345781 L 0.674531 0.345781 L 0.678555 0.349844 L 0.682617 0.353906 L 0.68668 0.353906 L 0.694805 0.362031 L 0.70293 0.362031 L 0.706992 0.366055 L 0.711055 0.362031 L 0.715078 0.366055 L 0.719141 0.366055 L 0.727266 0.37418 L 0.735391 0.37418 L 0.747578 0.386367 L 0.755664 0.386367 L 0.755664 0.39043 L 0.759727 0.394492 L 0.763789 0.394492 L 0.767852 0.398555 L 0.771914 0.402578 L 0.775977 0.402578 L 0.792227 0.418828 L 0.792227 0.422891 L 0.79625 0.426953 L 0.800312 0.431016 L 0.800312 0.435078 L 0.804375 0.439141 L 0.804375 0.451289 L 0.800312 0.455352 L 0.800312 0.459414 L 0.79625 0.463477 L 0.792227 0.467539 L 0.792227 0.471602 L 0.79625 0.475664 L 0.79625 0.479727 L 0.800312 0.48375 L 0.804375 0.479727 L 0.816562 0.479727 L 0.820625 0.475664 L 0.840898 0.475664 L 0.844961 0.471602 L 0.861211 0.471602 L 0.865273 0.467539 L 0.873359 0.467539 L 0.877422 0.463477 L 0.885547 0.463477 L 0.889609 0.459414 L 0.901797 0.459414 L 0.905859 0.455352 L 0.913945 0.455352 L 0.918008 0.451289 L 0.92207 0.451289 L 0.926133 0.447227 L 0.946445 0.447227 L 0.950469 0.451289 L 0.954531 0.455352 L 0.954531 0.459414 L 0.950469 0.463477 L 0.946445 0.467539 L 0.942383 0.467539 L 0.93832 0.471602 L 0.930195 0.471602 L 0.926133 0.475664 L 0.92207 0.475664 L 0.918008 0.471602 L 0.913945 0.475664 L 0.897734 0.475664 L 0.893672 0.479727 L 0.869336 0.479727 L 0.865273 0.48375 L 0.857148 0.48375 L 0.853086 0.487812 L 0.844961 0.487812 L 0.840898 0.491875 L 0.82875 0.491875 L 0.820625 0.5 L 0.820625 0.504062 L 0.824688 0.508125 L 0.824688 0.524336 L 0.820625 0.528398 L 0.820625 0.540586 L 0.808438 0.552773 L 0.808438 0.556836 L 0.804375 0.560859 L 0.804375 0.564922 L 0.79625 0.573047 L 0.79625 0.577109 L 0.792227 0.581172 L 0.775977 0.597422 L 0.771914 0.601445 L 0.767852 0.605508 L 0.763789 0.605508 L 0.755664 0.613633 L 0.751641 0.613633 L 0.747578 0.617695 L 0.743516 0.617695 L 0.735391 0.62582 L 0.731328 0.62582 L 0.723203 0.633945 L 0.715078 0.633945 L 0.711055 0.637969 L 0.706992 0.637969 L 0.698867 0.646094 L 0.690742 0.646094 L 0.68668 0.650156 L 0.682617 0.650156 L 0.678555 0.654219 L 0.674531 0.654219 L 0.670469 0.658281 L 0.666406 0.658281 L 0.662344 0.662344 L 0.658281 0.662344 L 0.650156 0.670469 L 0.633945 0.670469 L 0.629883 0.674531 L 0.62582 0.678555 L 0.613633 0.678555 L 0.60957 0.682617 L 0.605508 0.682617 L 0.601445 0.68668 L 0.597422 0.690742 L 0.581172 0.690742 L 0.577109 0.694805 L 0.564922 0.694805 L 0.560859 0.698867 L 0.548711 0.698867 L 0.544648 0.70293 L 0.520273 0.70293 L 0.51625 0.706992 L 0.504062 0.706992 L 0.5 0.711055 L 0.491875 0.711055 L 0.487812 0.715078 L 0.467539 0.715078 L 0.463477 0.719141 L 0.447227 0.719141 L 0.443164 0.715078 L 0.426953 0.715078 L 0.422891 0.719141 L 0.418828 0.715078 L 0.386367 0.715078 L 0.382305 0.711055 L 0.378242 0.711055 L 0.37418 0.706992 L 0.362031 0.706992 L 0.357969 0.70293 L 0.345781 0.70293 L 0.341719 0.698867 L 0.337656 0.698867 L 0.333594 0.694805 L 0.325469 0.694805 L 0.321445 0.690742 L 0.31332 0.690742 L 0.31332 0.68668 L 0.309258 0.682617 L 0.305195 0.682617 L 0.301133 0.678555 L 0.288945 0.678555 L 0.280859 0.670469 L 0.268672 0.670469 L 0.256484 0.658281 L 0.248359 0.658281 L 0.244336 0.654219 L 0.240273 0.650156 L 0.236211 0.650156 L 0.232148 0.646094 L 0.228086 0.646094 L 0.219961 0.637969 L 0.215898 0.633945 L 0.207773 0.62582 L 0.20375 0.621758 L 0.183438 0.601445 L 0.179375 0.601445 L 0.175312 0.597422 L 0.17125 0.593359 L 0.167227 0.593359 L 0.159102 0.585234 L 0.159102 0.577109 L 0.142852 0.560859 L 0.142852 0.556836 L 0.138789 0.552773 L 0.134727 0.552773 L 0.130664 0.548711 L 0.126641 0.544648 L 0.102266 0.520273 L 0.0982031 0.51625 L 0.0982031 0.512188 L 0.0941406 0.508125 L 0.0900781 0.508125 L 0.0860547 0.504062 L 0.0738672 0.491875 L 0.0698047 0.491875 L 0.0657422 0.487812 L 0.0616797 0.487812 L 0.0576172 0.48375 L 0.0535547 0.48375 L 0.0454687 0.475664 Z M 0.0454687 0.471602 " transform="matrix(100,0,0,100,150,200)"/>
<path style="fill:none;stroke-width:0.01;stroke-linecap:butt;stroke-linejoin:miter;stroke:rgb(0%,0%,0%);stroke-opacity:1;stroke-miterlimit:10;" d="M 0.0454687 0.451445 L 0.0542969 0.442617 L 0.063125 0.442617 L 0.0675391 0.438203 L 0.0763281 0.438203 L 0.0851563 0.429375 L 0.0895703 0.429375 L 0.0983984 0.420547 L 0.102813 0.420547 L 0.107227 0.416133 L 0.111641 0.411758 L 0.116055 0.407344 L 0.120469 0.407344 L 0.129297 0.398516 L 0.129297 0.394102 L 0.133711 0.394102 L 0.138125 0.389687 L 0.142539 0.389687 L 0.151367 0.380859 L 0.151367 0.376445 L 0.155781 0.372031 L 0.160195 0.372031 L 0.164609 0.367617 L 0.164609 0.363203 L 0.169023 0.363203 L 0.173437 0.358789 L 0.177852 0.358789 L 0.18668 0.349961 L 0.191094 0.349961 L 0.199922 0.341133 L 0.204336 0.341133 L 0.20875 0.336719 L 0.20875 0.332305 L 0.217578 0.332305 L 0.221992 0.327891 L 0.23082 0.327891 L 0.235234 0.323477 L 0.239648 0.323477 L 0.244023 0.319063 L 0.257266 0.319063 L 0.26168 0.314648 L 0.266094 0.314648 L 0.270508 0.310234 L 0.274922 0.310234 L 0.279336 0.30582 L 0.288164 0.30582 L 0.292578 0.301406 L 0.296992 0.30582 L 0.301406 0.30582 L 0.30582 0.301406 L 0.319063 0.301406 L 0.323477 0.296992 L 0.336719 0.296992 L 0.341133 0.292578 L 0.358789 0.292578 L 0.363203 0.288164 L 0.367617 0.288164 L 0.372031 0.292578 L 0.380859 0.292578 L 0.385273 0.288164 L 0.411758 0.288164 L 0.416133 0.292578 L 0.420547 0.292578 L 0.424961 0.288164 L 0.429375 0.292578 L 0.433789 0.292578 L 0.438203 0.296992 L 0.451445 0.296992 L 0.455859 0.301406 L 0.460273 0.301406 L 0.464688 0.296992 L 0.469102 0.296992 L 0.473516 0.301406 L 0.508828 0.301406 L 0.513242 0.30582 L 0.526484 0.30582 L 0.530898 0.310234 L 0.535312 0.310234 L 0.539727 0.30582 L 0.544141 0.310234 L 0.548555 0.310234 L 0.552969 0.314648 L 0.566211 0.314648 L 0.570625 0.319063 L 0.575039 0.319063 L 0.579453 0.323477 L 0.583867 0.319063 L 0.588242 0.319063 L 0.601484 0.332305 L 0.614727 0.332305 L 0.619141 0.336719 L 0.632383 0.336719 L 0.636797 0.341133 L 0.641211 0.341133 L 0.654453 0.354375 L 0.663281 0.354375 L 0.667695 0.358789 L 0.672109 0.358789 L 0.676523 0.363203 L 0.680938 0.363203 L 0.685352 0.367617 L 0.689766 0.367617 L 0.703008 0.380859 L 0.707422 0.380859 L 0.71625 0.389687 L 0.720664 0.389687 L 0.729492 0.398516 L 0.733906 0.398516 L 0.747148 0.411758 L 0.751562 0.416133 L 0.755977 0.420547 L 0.760352 0.424961 L 0.764766 0.424961 L 0.76918 0.429375 L 0.76918 0.433789 L 0.782422 0.447031 L 0.786836 0.447031 L 0.804492 0.464688 L 0.804492 0.469102 L 0.81332 0.47793 L 0.81332 0.482344 L 0.817734 0.486758 L 0.817734 0.491172 L 0.822148 0.495586 L 0.822148 0.5 L 0.830977 0.508828 L 0.830977 0.517656 L 0.839805 0.526484 L 0.844219 0.52207 L 0.857461 0.52207 L 0.861875 0.517656 L 0.870703 0.517656 L 0.875117 0.513242 L 0.883945 0.513242 L 0.888359 0.508828 L 0.892773 0.508828 L 0.897188 0.504414 L 0.906016 0.504414 L 0.914844 0.495586 L 0.923672 0.495586 L 0.928086 0.491172 L 0.932461 0.491172 L 0.941289 0.482344 L 0.945703 0.482344 L 0.954531 0.491172 L 0.954531 0.495586 L 0.950117 0.5 L 0.945703 0.5 L 0.941289 0.504414 L 0.928086 0.504414 L 0.923672 0.508828 L 0.919258 0.508828 L 0.914844 0.513242 L 0.91043 0.513242 L 0.906016 0.517656 L 0.901602 0.517656 L 0.897188 0.52207 L 0.888359 0.52207 L 0.883945 0.526484 L 0.875117 0.526484 L 0.870703 0.530898 L 0.861875 0.530898 L 0.857461 0.535312 L 0.839805 0.535312 L 0.830977 0.544141 L 0.830977 0.557383 L 0.826563 0.561797 L 0.826563 0.566211 L 0.808906 0.583867 L 0.804492 0.588242 L 0.795664 0.59707 L 0.79125 0.59707 L 0.786836 0.601484 L 0.782422 0.601484 L 0.76918 0.614727 L 0.764766 0.614727 L 0.760352 0.619141 L 0.755977 0.623555 L 0.751562 0.623555 L 0.747148 0.627969 L 0.742734 0.627969 L 0.733906 0.636797 L 0.729492 0.636797 L 0.720664 0.645625 L 0.71625 0.645625 L 0.707422 0.654453 L 0.698594 0.654453 L 0.69418 0.658867 L 0.689766 0.658867 L 0.680938 0.667695 L 0.676523 0.667695 L 0.667695 0.676523 L 0.658867 0.676523 L 0.654453 0.680938 L 0.645625 0.680938 L 0.641211 0.685352 L 0.614727 0.685352 L 0.610313 0.689766 L 0.601484 0.689766 L 0.59707 0.69418 L 0.588242 0.69418 L 0.583867 0.698594 L 0.570625 0.698594 L 0.566211 0.703008 L 0.539727 0.703008 L 0.535312 0.707422 L 0.495586 0.707422 L 0.491172 0.711836 L 0.486758 0.707422 L 0.482344 0.707422 L 0.47793 0.711836 L 0.433789 0.711836 L 0.429375 0.707422 L 0.411758 0.707422 L 0.407344 0.703008 L 0.367617 0.703008 L 0.358789 0.69418 L 0.345547 0.69418 L 0.341133 0.689766 L 0.323477 0.689766 L 0.319063 0.685352 L 0.310234 0.685352 L 0.30582 0.680938 L 0.292578 0.680938 L 0.288164 0.676523 L 0.279336 0.676523 L 0.266094 0.663281 L 0.257266 0.663281 L 0.257266 0.658867 L 0.252852 0.654453 L 0.239648 0.654453 L 0.235234 0.650039 L 0.23082 0.650039 L 0.217578 0.636797 L 0.213164 0.636797 L 0.204336 0.627969 L 0.199922 0.627969 L 0.195508 0.623555 L 0.195508 0.619141 L 0.191094 0.614727 L 0.191094 0.610313 L 0.18668 0.605898 L 0.182266 0.605898 L 0.173437 0.59707 L 0.173437 0.592656 L 0.169023 0.588242 L 0.164609 0.583867 L 0.160195 0.583867 L 0.160195 0.575039 L 0.155781 0.570625 L 0.151367 0.570625 L 0.146953 0.566211 L 0.146953 0.561797 L 0.142539 0.557383 L 0.142539 0.552969 L 0.138125 0.548555 L 0.133711 0.548555 L 0.133711 0.539727 L 0.129297 0.535312 L 0.124883 0.535312 L 0.116055 0.526484 L 0.116055 0.52207 L 0.0983984 0.504414 L 0.0983984 0.495586 L 0.0939844 0.491172 L 0.0895703 0.491172 L 0.0895703 0.486758 L 0.0851563 0.482344 L 0.0807422 0.482344 L 0.0719141 0.473516 L 0.0675391 0.473516 L 0.063125 0.469102 L 0.0587109 0.469102 L 0.0587109 0.464688 L 0.0542969 0.460273 L 0.0498828 0.460273 L 0.0454687 0.455859 Z M 0.0454687 0.451445 " transform="matrix(100,0,0,100,300,200)"/>
<path style="fill:none;stroke-width:0.01;stroke-linecap:butt;stroke-linejoin:miter;stroke:rgb(0%,0%,0%);stroke-opacity:1;stroke-miterlimit:10;" d="M 0.0454688 0.530703 L 0.0495313 0.526602 L 0.0536328 0.522539 L 0.0536328 0.518438 L 0.0577344 0.514336 L 0.0618359 0.514336 L 0.0659375 0.510234 L 0.0659375 0.506133 L 0.0823047 0.489766 L 0.0823047 0.485664 L 0.0905078 0.477461 L 0.0946094 0.477461 L 0.0986719 0.473398 L 0.0986719 0.469297 L 0.110977 0.456992 L 0.110977 0.452891 L 0.115078 0.448828 L 0.115078 0.444727 L 0.11918 0.440625 L 0.123242 0.436523 L 0.127344 0.436523 L 0.131445 0.432422 L 0.131445 0.42832 L 0.135547 0.424258 L 0.135547 0.420156 L 0.139648 0.416055 L 0.139648 0.411953 L 0.14375 0.411953 L 0.147812 0.407852 L 0.147812 0.40375 L 0.151914 0.40375 L 0.156016 0.399688 L 0.16832 0.387383 L 0.172383 0.383281 L 0.176484 0.383281 L 0.180586 0.37918 L 0.188789 0.37918 L 0.192891 0.375117 L 0.196953 0.371016 L 0.196953 0.366914 L 0.201055 0.366914 L 0.205156 0.362812 L 0.209258 0.362812 L 0.213359 0.358711 L 0.217461 0.358711 L 0.221523 0.354609 L 0.225625 0.350547 L 0.229727 0.350547 L 0.23793 0.342344 L 0.246094 0.342344 L 0.250195 0.338242 L 0.254297 0.338242 L 0.258398 0.334141 L 0.2625 0.334141 L 0.270664 0.325977 L 0.278867 0.325977 L 0.282969 0.321875 L 0.28707 0.321875 L 0.291172 0.317773 L 0.299336 0.317773 L 0.303438 0.313672 L 0.307539 0.313672 L 0.311641 0.30957 L 0.319805 0.30957 L 0.323906 0.305469 L 0.328008 0.301406 L 0.336211 0.301406 L 0.340313 0.297305 L 0.348477 0.297305 L 0.352578 0.293203 L 0.364883 0.293203 L 0.368945 0.289102 L 0.373047 0.285 L 0.389453 0.285 L 0.393516 0.280898 L 0.414023 0.280898 L 0.418086 0.276836 L 0.532773 0.276836 L 0.536836 0.272734 L 0.565508 0.272734 L 0.569609 0.276836 L 0.585977 0.276836 L 0.590078 0.272734 L 0.59418 0.276836 L 0.598281 0.276836 L 0.602383 0.280898 L 0.614648 0.280898 L 0.61875 0.285 L 0.631055 0.285 L 0.635117 0.289102 L 0.639219 0.289102 L 0.64332 0.285 L 0.647422 0.285 L 0.651523 0.289102 L 0.663789 0.289102 L 0.667891 0.293203 L 0.671992 0.293203 L 0.676094 0.297305 L 0.692461 0.297305 L 0.696562 0.301406 L 0.704766 0.301406 L 0.708828 0.305469 L 0.71293 0.305469 L 0.717031 0.30957 L 0.721133 0.30957 L 0.725234 0.313672 L 0.729336 0.313672 L 0.733398 0.317773 L 0.741602 0.317773 L 0.745703 0.321875 L 0.757969 0.321875 L 0.76207 0.325977 L 0.766172 0.330039 L 0.770273 0.330039 L 0.774375 0.334141 L 0.778477 0.334141 L 0.782539 0.338242 L 0.786641 0.338242 L 0.794844 0.346445 L 0.798945 0.346445 L 0.807109 0.354609 L 0.811211 0.354609 L 0.819414 0.362812 L 0.823516 0.362812 L 0.827617 0.366914 L 0.83168 0.371016 L 0.835781 0.375117 L 0.835781 0.37918 L 0.843984 0.387383 L 0.843984 0.391484 L 0.852188 0.399688 L 0.852188 0.411953 L 0.85625 0.416055 L 0.85625 0.420156 L 0.852188 0.424258 L 0.85625 0.42832 L 0.860352 0.42832 L 0.864453 0.424258 L 0.876758 0.411953 L 0.884922 0.411953 L 0.889023 0.407852 L 0.893125 0.407852 L 0.897227 0.40375 L 0.901328 0.40375 L 0.905391 0.399688 L 0.909492 0.399688 L 0.913594 0.395586 L 0.917695 0.395586 L 0.921797 0.391484 L 0.929961 0.391484 L 0.934063 0.387383 L 0.942266 0.387383 L 0.946367 0.391484 L 0.950469 0.391484 L 0.954531 0.395586 L 0.954531 0.399688 L 0.950469 0.40375 L 0.950469 0.407852 L 0.929961 0.407852 L 0.925898 0.411953 L 0.921797 0.416055 L 0.913594 0.416055 L 0.909492 0.420156 L 0.905391 0.420156 L 0.901328 0.424258 L 0.897227 0.424258 L 0.893125 0.42832 L 0.889023 0.42832 L 0.884922 0.432422 L 0.88082 0.432422 L 0.876758 0.436523 L 0.872656 0.436523 L 0.864453 0.444727 L 0.864453 0.448828 L 0.868555 0.452891 L 0.872656 0.452891 L 0.876758 0.456992 L 0.88082 0.461094 L 0.88082 0.465195 L 0.884922 0.469297 L 0.884922 0.493867 L 0.88082 0.493867 L 0.876758 0.497969 L 0.876758 0.506133 L 0.868555 0.514336 L 0.868555 0.522539 L 0.864453 0.526602 L 0.860352 0.530703 L 0.864453 0.534805 L 0.860352 0.538906 L 0.860352 0.543008 L 0.85625 0.547109 L 0.85625 0.551172 L 0.852188 0.555273 L 0.852188 0.559375 L 0.848086 0.563477 L 0.848086 0.567578 L 0.843984 0.57168 L 0.839883 0.575742 L 0.835781 0.579844 L 0.835781 0.583945 L 0.83168 0.588047 L 0.827617 0.592148 L 0.823516 0.59625 L 0.819414 0.600313 L 0.807109 0.612617 L 0.803047 0.616719 L 0.798945 0.62082 L 0.794844 0.624883 L 0.790742 0.628984 L 0.786641 0.628984 L 0.782539 0.633086 L 0.778477 0.633086 L 0.766172 0.645391 L 0.76207 0.649453 L 0.757969 0.649453 L 0.753906 0.653555 L 0.749805 0.657656 L 0.7375 0.657656 L 0.733398 0.661758 L 0.729336 0.665859 L 0.717031 0.665859 L 0.71293 0.669961 L 0.704766 0.669961 L 0.700664 0.674023 L 0.688359 0.674023 L 0.684258 0.678125 L 0.680195 0.682227 L 0.667891 0.682227 L 0.663789 0.686328 L 0.651523 0.686328 L 0.64332 0.694531 L 0.635117 0.694531 L 0.631055 0.698594 L 0.626953 0.698594 L 0.622852 0.702695 L 0.610547 0.702695 L 0.606484 0.706797 L 0.577813 0.706797 L 0.573711 0.710898 L 0.561406 0.710898 L 0.557344 0.715 L 0.540938 0.715 L 0.536836 0.719102 L 0.532773 0.715 L 0.528672 0.715 L 0.52457 0.719102 L 0.508203 0.719102 L 0.504102 0.723164 L 0.450859 0.723164 L 0.446758 0.727266 L 0.442656 0.727266 L 0.438594 0.723164 L 0.426289 0.723164 L 0.422187 0.719102 L 0.389453 0.719102 L 0.385352 0.715 L 0.360781 0.715 L 0.35668 0.710898 L 0.352578 0.715 L 0.348477 0.710898 L 0.328008 0.710898 L 0.323906 0.706797 L 0.319805 0.706797 L 0.315742 0.702695 L 0.303438 0.702695 L 0.299336 0.698594 L 0.291172 0.698594 L 0.291172 0.694531 L 0.28707 0.69043 L 0.282969 0.69043 L 0.278867 0.686328 L 0.274766 0.686328 L 0.270664 0.682227 L 0.266602 0.682227 L 0.258398 0.674023 L 0.246094 0.674023 L 0.242031 0.669961 L 0.242031 0.665859 L 0.23793 0.661758 L 0.229727 0.661758 L 0.225625 0.657656 L 0.221523 0.657656 L 0.217461 0.653555 L 0.213359 0.653555 L 0.213359 0.649453 L 0.209258 0.645391 L 0.205156 0.645391 L 0.201055 0.641289 L 0.196953 0.641289 L 0.196953 0.637188 L 0.192891 0.633086 L 0.188789 0.628984 L 0.184687 0.628984 L 0.180586 0.624883 L 0.176484 0.624883 L 0.172383 0.62082 L 0.16832 0.616719 L 0.156016 0.604414 L 0.151914 0.604414 L 0.139648 0.592148 L 0.135547 0.592148 L 0.123242 0.579844 L 0.11918 0.575742 L 0.115078 0.575742 L 0.110977 0.57168 L 0.106875 0.57168 L 0.0986719 0.563477 L 0.0946094 0.563477 L 0.0905078 0.559375 L 0.0864063 0.559375 L 0.0823047 0.555273 L 0.0782031 0.555273 L 0.0700391 0.547109 L 0.0577344 0.547109 L 0.0536328 0.543008 L 0.0495313 0.543008 L 0.0454688 0.538906 L 0.0454688 0.534805 Z M 0.0454688 0.530703 " transform="matrix(100,0,0,100,450,200)"/>
<path style="fill:none;stroke-width:0.01;stroke-linecap:butt;stroke-linejoin:miter;stroke:rgb(0%,0%,0%);stroke-opacity:1;stroke-miterlimit:10;" d="M 0.0454688 0.454727 L 0.049375 0.45082 L 0.0572656 0.45082 L 0.0612109 0.446875 L 0.0730078 0.446875 L 0.0769531 0.44293 L 0.0966016 0.44293 L 0.100547 0.438984 L 0.104492 0.438984 L 0.108437 0.435078 L 0.112344 0.431133 L 0.116289 0.431133 L 0.120234 0.427188 L 0.12418 0.427188 L 0.128086 0.423242 L 0.132031 0.419336 L 0.132031 0.415391 L 0.139922 0.415391 L 0.143828 0.411445 L 0.147773 0.4075 L 0.151719 0.403594 L 0.151719 0.391758 L 0.155664 0.391758 L 0.15957 0.387852 L 0.15957 0.379961 L 0.163516 0.376016 L 0.171406 0.376016 L 0.175313 0.372109 L 0.171406 0.368164 L 0.175313 0.368164 L 0.179258 0.364219 L 0.179258 0.352422 L 0.187148 0.352422 L 0.191055 0.348477 L 0.195 0.348477 L 0.198945 0.344531 L 0.198945 0.340625 L 0.202891 0.33668 L 0.202891 0.332734 L 0.206797 0.332734 L 0.210742 0.328789 L 0.214688 0.328789 L 0.218633 0.324883 L 0.218633 0.320937 L 0.23043 0.320937 L 0.234375 0.316992 L 0.242227 0.316992 L 0.246172 0.313047 L 0.250117 0.309141 L 0.254023 0.305195 L 0.257969 0.305195 L 0.261914 0.30125 L 0.261914 0.297305 L 0.273711 0.297305 L 0.277656 0.293398 L 0.285508 0.293398 L 0.293398 0.285508 L 0.297305 0.289453 L 0.30125 0.285508 L 0.305195 0.281602 L 0.309141 0.281602 L 0.313047 0.277656 L 0.324883 0.277656 L 0.328789 0.273711 L 0.344531 0.273711 L 0.348477 0.269766 L 0.356367 0.269766 L 0.360273 0.265859 L 0.376016 0.265859 L 0.379961 0.261914 L 0.383906 0.261914 L 0.387852 0.265859 L 0.391758 0.265859 L 0.399648 0.257969 L 0.403594 0.261914 L 0.4075 0.261914 L 0.411445 0.257969 L 0.427188 0.257969 L 0.431133 0.254023 L 0.435078 0.257969 L 0.44293 0.257969 L 0.446875 0.254023 L 0.45082 0.257969 L 0.466563 0.257969 L 0.470469 0.254023 L 0.474414 0.257969 L 0.482305 0.257969 L 0.486211 0.254023 L 0.490156 0.254023 L 0.494102 0.257969 L 0.509844 0.257969 L 0.513789 0.254023 L 0.517695 0.257969 L 0.525586 0.265859 L 0.529531 0.261914 L 0.533437 0.261914 L 0.537383 0.265859 L 0.545273 0.265859 L 0.54918 0.269766 L 0.553125 0.269766 L 0.55707 0.273711 L 0.568867 0.273711 L 0.572813 0.277656 L 0.576758 0.277656 L 0.580664 0.281602 L 0.588555 0.281602 L 0.5925 0.285508 L 0.596406 0.289453 L 0.604297 0.289453 L 0.612148 0.297305 L 0.623984 0.297305 L 0.627891 0.30125 L 0.631836 0.305195 L 0.643633 0.305195 L 0.647578 0.309141 L 0.651523 0.309141 L 0.655469 0.313047 L 0.667266 0.313047 L 0.671211 0.316992 L 0.675117 0.320937 L 0.683008 0.320937 L 0.686953 0.324883 L 0.694805 0.324883 L 0.69875 0.328789 L 0.702695 0.332734 L 0.706602 0.328789 L 0.710547 0.328789 L 0.710547 0.332734 L 0.714492 0.33668 L 0.718398 0.340625 L 0.726289 0.340625 L 0.730234 0.344531 L 0.734141 0.344531 L 0.738086 0.348477 L 0.745977 0.348477 L 0.749883 0.352422 L 0.753828 0.356367 L 0.753828 0.360273 L 0.757773 0.364219 L 0.765625 0.364219 L 0.773516 0.372109 L 0.777461 0.376016 L 0.781367 0.379961 L 0.789258 0.387852 L 0.793203 0.391758 L 0.797109 0.395703 L 0.801055 0.399648 L 0.805 0.399648 L 0.805 0.403594 L 0.808945 0.4075 L 0.812852 0.403594 L 0.812852 0.4075 L 0.816797 0.411445 L 0.816797 0.415391 L 0.820742 0.419336 L 0.824688 0.419336 L 0.836484 0.431133 L 0.836484 0.435078 L 0.84043 0.438984 L 0.844336 0.438984 L 0.848281 0.44293 L 0.848281 0.446875 L 0.852227 0.45082 L 0.856172 0.454727 L 0.860078 0.458672 L 0.860078 0.462617 L 0.864023 0.466563 L 0.867969 0.470469 L 0.867969 0.478359 L 0.87582 0.486211 L 0.87582 0.505898 L 0.879766 0.509844 L 0.891563 0.509844 L 0.895508 0.505898 L 0.915195 0.505898 L 0.919141 0.501953 L 0.94668 0.501953 L 0.950625 0.505898 L 0.954531 0.509844 L 0.954531 0.517695 L 0.915195 0.517695 L 0.91125 0.521641 L 0.887656 0.521641 L 0.883711 0.525586 L 0.867969 0.525586 L 0.864023 0.529531 L 0.860078 0.533438 L 0.860078 0.541328 L 0.864023 0.545273 L 0.864023 0.54918 L 0.867969 0.553125 L 0.867969 0.55707 L 0.864023 0.561016 L 0.864023 0.564922 L 0.860078 0.568867 L 0.860078 0.580664 L 0.856172 0.580664 L 0.852227 0.584609 L 0.852227 0.588555 L 0.848281 0.5925 L 0.844336 0.596406 L 0.844336 0.600352 L 0.84043 0.604297 L 0.836484 0.608242 L 0.832539 0.612148 L 0.828594 0.612148 L 0.824688 0.616094 L 0.824688 0.620039 L 0.820742 0.623984 L 0.816797 0.627891 L 0.812852 0.631836 L 0.808945 0.631836 L 0.801055 0.639727 L 0.797109 0.639727 L 0.785312 0.651523 L 0.777461 0.651523 L 0.773516 0.655469 L 0.76957 0.659375 L 0.765625 0.659375 L 0.761719 0.66332 L 0.757773 0.66332 L 0.745977 0.675117 L 0.742031 0.675117 L 0.738086 0.679063 L 0.734141 0.679063 L 0.730234 0.683008 L 0.726289 0.686953 L 0.722344 0.690859 L 0.714492 0.690859 L 0.710547 0.694805 L 0.706602 0.694805 L 0.702695 0.69875 L 0.694805 0.69875 L 0.690859 0.702695 L 0.686953 0.702695 L 0.683008 0.706602 L 0.675117 0.706602 L 0.671211 0.710547 L 0.66332 0.710547 L 0.659375 0.714492 L 0.655469 0.714492 L 0.651523 0.718398 L 0.647578 0.718398 L 0.643633 0.722344 L 0.635781 0.722344 L 0.631836 0.726289 L 0.627891 0.726289 L 0.623984 0.730234 L 0.620039 0.726289 L 0.616094 0.726289 L 0.612148 0.730234 L 0.596406 0.730234 L 0.5925 0.734141 L 0.588555 0.730234 L 0.584609 0.730234 L 0.580664 0.734141 L 0.564922 0.734141 L 0.561016 0.738086 L 0.541328 0.738086 L 0.537383 0.742031 L 0.498047 0.742031 L 0.494102 0.745977 L 0.490156 0.742031 L 0.423242 0.742031 L 0.419336 0.745977 L 0.4075 0.745977 L 0.403594 0.742031 L 0.399648 0.738086 L 0.395703 0.738086 L 0.391758 0.742031 L 0.383906 0.742031 L 0.383906 0.738086 L 0.379961 0.734141 L 0.360273 0.734141 L 0.356367 0.730234 L 0.352422 0.730234 L 0.348477 0.726289 L 0.33668 0.726289 L 0.33668 0.722344 L 0.332734 0.718398 L 0.324883 0.718398 L 0.320938 0.714492 L 0.316992 0.710547 L 0.305195 0.710547 L 0.305195 0.706602 L 0.30125 0.702695 L 0.293398 0.702695 L 0.285508 0.694805 L 0.281602 0.694805 L 0.281602 0.690859 L 0.277656 0.686953 L 0.265859 0.686953 L 0.261914 0.683008 L 0.257969 0.683008 L 0.254023 0.679063 L 0.250117 0.679063 L 0.250117 0.675117 L 0.246172 0.671211 L 0.238281 0.66332 L 0.234375 0.66332 L 0.23043 0.659375 L 0.226484 0.655469 L 0.222539 0.651523 L 0.214688 0.651523 L 0.210742 0.647578 L 0.214688 0.643633 L 0.210742 0.639727 L 0.206797 0.639727 L 0.202891 0.635781 L 0.198945 0.631836 L 0.195 0.631836 L 0.191055 0.627891 L 0.191055 0.620039 L 0.187148 0.616094 L 0.183203 0.612148 L 0.179258 0.608242 L 0.179258 0.600352 L 0.167461 0.588555 L 0.167461 0.584609 L 0.163516 0.580664 L 0.15957 0.576758 L 0.155664 0.572812 L 0.151719 0.572812 L 0.151719 0.564922 L 0.147773 0.561016 L 0.147773 0.553125 L 0.143828 0.54918 L 0.143828 0.545273 L 0.139922 0.541328 L 0.135977 0.537383 L 0.132031 0.537383 L 0.132031 0.533438 L 0.128086 0.529531 L 0.12418 0.529531 L 0.12418 0.525586 L 0.116289 0.517695 L 0.112344 0.513789 L 0.108437 0.509844 L 0.104492 0.505898 L 0.104492 0.501953 L 0.100547 0.498047 L 0.0966016 0.498047 L 0.0926953 0.494102 L 0.0848047 0.494102 L 0.0808594 0.490156 L 0.0769531 0.490156 L 0.0730078 0.486211 L 0.0690625 0.482305 L 0.0651172 0.482305 L 0.0612109 0.478359 L 0.0533203 0.470469 L 0.049375 0.466563 L 0.0454688 0.462617 L 0.0454688 0.458672 Z M 0.0454688 0.454727 " transform="matrix(100,0,0,100,600,200)"/>
<path style="fill:none;stroke-width:0.01;stroke-linecap:butt;stroke-linejoin:miter;stroke:rgb(0%,0%,0%);stroke-opacity:1;stroke-miterlimit:10;" d="M 0.0454688 0.522617 L 0.0495703 0.522617 L 0.0536719 0.518516 L 0.0578125 0.518516 L 0.0619141 0.514414 L 0.0701172 0.514414 L 0.0742578 0.510273 L 0.0783594 0.510273 L 0.0824609 0.506172 L 0.0866016 0.506172 L 0.0907031 0.50207 L 0.0989453 0.50207 L 0.103047 0.49793 L 0.107148 0.493828 L 0.111289 0.489727 L 0.115391 0.485586 L 0.123594 0.477383 L 0.127734 0.473281 L 0.131836 0.469141 L 0.135938 0.465039 L 0.140078 0.460938 L 0.14418 0.456797 L 0.148281 0.452695 L 0.152422 0.448594 L 0.156523 0.444453 L 0.160625 0.440352 L 0.164766 0.440352 L 0.168867 0.43625 L 0.168867 0.432109 L 0.17707 0.423906 L 0.17707 0.419805 L 0.181211 0.419805 L 0.185312 0.415664 L 0.189414 0.411563 L 0.193555 0.407461 L 0.197656 0.40332 L 0.197656 0.399219 L 0.205898 0.390977 L 0.21 0.390977 L 0.214102 0.386875 L 0.214102 0.382773 L 0.218242 0.382773 L 0.222344 0.378633 L 0.230547 0.37043 L 0.234687 0.366328 L 0.238789 0.366328 L 0.242891 0.362188 L 0.247031 0.358086 L 0.251133 0.353984 L 0.259375 0.353984 L 0.263477 0.349844 L 0.27168 0.341641 L 0.27582 0.341641 L 0.279922 0.3375 L 0.284023 0.3375 L 0.288164 0.333398 L 0.292266 0.329297 L 0.296367 0.329297 L 0.300508 0.325156 L 0.304609 0.325156 L 0.308711 0.321055 L 0.316953 0.321055 L 0.325156 0.312852 L 0.329297 0.312852 L 0.333398 0.308711 L 0.3375 0.304609 L 0.345742 0.304609 L 0.353984 0.296367 L 0.358086 0.296367 L 0.362187 0.292266 L 0.366328 0.288164 L 0.374531 0.288164 L 0.378633 0.284023 L 0.390977 0.284023 L 0.395117 0.279922 L 0.399219 0.279922 L 0.40332 0.27582 L 0.407461 0.27582 L 0.411562 0.27168 L 0.419805 0.27168 L 0.423906 0.267578 L 0.43625 0.267578 L 0.440352 0.263477 L 0.448594 0.263477 L 0.452695 0.259375 L 0.460938 0.259375 L 0.465039 0.255234 L 0.477383 0.255234 L 0.481484 0.251133 L 0.506172 0.251133 L 0.510273 0.247031 L 0.514414 0.251133 L 0.518516 0.251133 L 0.522617 0.247031 L 0.567891 0.247031 L 0.571992 0.251133 L 0.59668 0.251133 L 0.600781 0.255234 L 0.633672 0.255234 L 0.637813 0.259375 L 0.654258 0.259375 L 0.658359 0.263477 L 0.670703 0.263477 L 0.674844 0.267578 L 0.678945 0.263477 L 0.683047 0.267578 L 0.687148 0.267578 L 0.691289 0.27168 L 0.695391 0.267578 L 0.699492 0.27168 L 0.703633 0.27168 L 0.707734 0.27582 L 0.711836 0.279922 L 0.720078 0.279922 L 0.72832 0.288164 L 0.732422 0.288164 L 0.736523 0.292266 L 0.744766 0.292266 L 0.748867 0.296367 L 0.752969 0.296367 L 0.757109 0.300508 L 0.761211 0.300508 L 0.765313 0.304609 L 0.769453 0.304609 L 0.773555 0.308711 L 0.777656 0.312852 L 0.781758 0.312852 L 0.785898 0.316953 L 0.79 0.316953 L 0.794102 0.321055 L 0.798242 0.321055 L 0.802344 0.325156 L 0.806445 0.329297 L 0.810586 0.333398 L 0.814688 0.3375 L 0.818789 0.3375 L 0.827031 0.345742 L 0.827031 0.349844 L 0.831133 0.353984 L 0.835234 0.358086 L 0.839375 0.358086 L 0.843477 0.362188 L 0.843477 0.366328 L 0.847578 0.37043 L 0.851719 0.374531 L 0.85582 0.378633 L 0.859922 0.382773 L 0.859922 0.386875 L 0.864063 0.390977 L 0.868164 0.390977 L 0.872266 0.395117 L 0.876406 0.399219 L 0.880508 0.40332 L 0.880508 0.407461 L 0.884609 0.411563 L 0.884609 0.415664 L 0.888711 0.419805 L 0.892852 0.423906 L 0.892852 0.428008 L 0.896953 0.432109 L 0.901055 0.432109 L 0.905195 0.428008 L 0.909297 0.428008 L 0.913398 0.423906 L 0.917539 0.419805 L 0.921641 0.419805 L 0.925742 0.415664 L 0.929883 0.415664 L 0.933984 0.411563 L 0.954531 0.411563 L 0.954531 0.423906 L 0.95043 0.428008 L 0.942188 0.428008 L 0.938086 0.432109 L 0.933984 0.43625 L 0.925742 0.43625 L 0.917539 0.444453 L 0.913398 0.444453 L 0.909297 0.448594 L 0.905195 0.452695 L 0.901055 0.452695 L 0.896953 0.456797 L 0.892852 0.460938 L 0.888711 0.460938 L 0.884609 0.465039 L 0.884609 0.469141 L 0.888711 0.473281 L 0.892852 0.473281 L 0.901055 0.481484 L 0.901055 0.489727 L 0.905195 0.493828 L 0.901055 0.49793 L 0.901055 0.518516 L 0.896953 0.522617 L 0.896953 0.534961 L 0.892852 0.539062 L 0.892852 0.543203 L 0.888711 0.547305 L 0.888711 0.551406 L 0.884609 0.555547 L 0.884609 0.559648 L 0.880508 0.56375 L 0.880508 0.567891 L 0.876406 0.571992 L 0.872266 0.576094 L 0.872266 0.580195 L 0.868164 0.584336 L 0.864063 0.588438 L 0.864063 0.592539 L 0.847578 0.609023 L 0.847578 0.613125 L 0.843477 0.617227 L 0.839375 0.617227 L 0.835234 0.621367 L 0.835234 0.625469 L 0.827031 0.633672 L 0.82293 0.637812 L 0.818789 0.641914 L 0.814688 0.646016 L 0.810586 0.650156 L 0.806445 0.650156 L 0.785898 0.670703 L 0.781758 0.670703 L 0.777656 0.674844 L 0.769453 0.674844 L 0.765313 0.678945 L 0.761211 0.678945 L 0.757109 0.683047 L 0.748867 0.683047 L 0.744766 0.687148 L 0.740625 0.687148 L 0.736523 0.691289 L 0.72418 0.691289 L 0.720078 0.695391 L 0.711836 0.695391 L 0.707734 0.699492 L 0.703633 0.699492 L 0.703633 0.695391 L 0.699492 0.691289 L 0.695391 0.695391 L 0.695391 0.707734 L 0.678945 0.707734 L 0.674844 0.711836 L 0.6625 0.711836 L 0.654258 0.720078 L 0.646016 0.720078 L 0.641914 0.715977 L 0.637813 0.715977 L 0.633672 0.720078 L 0.62957 0.720078 L 0.625469 0.72418 L 0.621367 0.72418 L 0.617227 0.72832 L 0.609023 0.72832 L 0.604883 0.732422 L 0.59668 0.732422 L 0.592539 0.736523 L 0.588438 0.740625 L 0.571992 0.740625 L 0.567891 0.744766 L 0.551406 0.744766 L 0.543203 0.752969 L 0.539062 0.752969 L 0.534961 0.748867 L 0.530859 0.748867 L 0.526719 0.752969 L 0.456797 0.752969 L 0.448594 0.744766 L 0.444453 0.748867 L 0.43625 0.748867 L 0.432109 0.744766 L 0.407461 0.744766 L 0.40332 0.740625 L 0.390977 0.740625 L 0.386875 0.736523 L 0.37043 0.736523 L 0.37043 0.732422 L 0.366328 0.72832 L 0.353984 0.72832 L 0.349844 0.72418 L 0.341641 0.72418 L 0.341641 0.720078 L 0.3375 0.715977 L 0.325156 0.715977 L 0.321055 0.711836 L 0.316953 0.707734 L 0.308711 0.707734 L 0.304609 0.703633 L 0.300508 0.699492 L 0.292266 0.699492 L 0.288164 0.695391 L 0.279922 0.695391 L 0.27168 0.687148 L 0.267578 0.687148 L 0.259375 0.678945 L 0.255234 0.674844 L 0.251133 0.674844 L 0.247031 0.670703 L 0.242891 0.666602 L 0.238789 0.6625 L 0.234687 0.658359 L 0.230547 0.658359 L 0.222344 0.650156 L 0.218242 0.646016 L 0.214102 0.646016 L 0.201758 0.633672 L 0.197656 0.633672 L 0.197656 0.62957 L 0.193555 0.625469 L 0.189414 0.621367 L 0.185312 0.617227 L 0.17707 0.617227 L 0.168867 0.609023 L 0.164766 0.604883 L 0.160625 0.604883 L 0.156523 0.600781 L 0.156523 0.59668 L 0.152422 0.592539 L 0.148281 0.588438 L 0.14418 0.584336 L 0.140078 0.580195 L 0.135938 0.576094 L 0.127734 0.567891 L 0.123594 0.567891 L 0.119492 0.56375 L 0.115391 0.56375 L 0.111289 0.559648 L 0.107148 0.555547 L 0.103047 0.555547 L 0.0989453 0.551406 L 0.0948047 0.551406 L 0.0907031 0.547305 L 0.0824609 0.547305 L 0.0783594 0.543203 L 0.0701172 0.543203 L 0.0660156 0.539062 L 0.0578125 0.539062 L 0.0536719 0.534961 L 0.0495703 0.534961 L 0.0454688 0.530859 L 0.0454688 0.526719 Z M 0.0454688 0.522617 " transform="matrix(100,0,0,100,0,350)"/>
<path style="fill:none;stroke-width:0.01;stroke-linecap:butt;stroke-linejoin:miter;stroke:rgb(0%,0%,0%);stroke-opacity:1;stroke-miterlimit:10;" d="M 0.0454687 0.481992 L 0.0494531 0.477969 L 0.0614844 0.477969 L 0.0654687 0.473984 L 0.0775 0.473984 L 0.0814844 0.469961 L 0.0855078 0.473984 L 0.0935156 0.473984 L 0.0975 0.469961 L 0.101523 0.465977 L 0.117539 0.465977 L 0.121563 0.461953 L 0.121563 0.457969 L 0.125547 0.453945 L 0.133555 0.445937 L 0.133555 0.441914 L 0.137578 0.43793 L 0.141563 0.433906 L 0.145586 0.429922 L 0.14957 0.425898 L 0.153594 0.421914 L 0.157578 0.417891 L 0.157578 0.413906 L 0.165586 0.405898 L 0.169609 0.405898 L 0.173594 0.401875 L 0.177617 0.401875 L 0.189609 0.389883 L 0.193633 0.389883 L 0.197656 0.385859 L 0.197656 0.381875 L 0.201641 0.381875 L 0.213672 0.369844 L 0.217656 0.36582 L 0.22168 0.36582 L 0.229688 0.357813 L 0.233672 0.357813 L 0.237695 0.353828 L 0.245703 0.353828 L 0.249688 0.349805 L 0.253711 0.34582 L 0.257695 0.34582 L 0.261719 0.341797 L 0.261719 0.337813 L 0.265703 0.337813 L 0.269727 0.333789 L 0.273711 0.333789 L 0.277734 0.329805 L 0.281719 0.325781 L 0.289766 0.325781 L 0.297773 0.317773 L 0.317773 0.317773 L 0.321797 0.313789 L 0.329805 0.313789 L 0.333789 0.309766 L 0.349805 0.309766 L 0.353828 0.305781 L 0.361836 0.305781 L 0.36582 0.301758 L 0.377852 0.301758 L 0.381875 0.305781 L 0.385859 0.301758 L 0.393867 0.301758 L 0.397891 0.297773 L 0.43793 0.297773 L 0.441914 0.29375 L 0.457969 0.29375 L 0.461953 0.289766 L 0.465977 0.29375 L 0.485977 0.29375 L 0.49 0.297773 L 0.506016 0.297773 L 0.51 0.301758 L 0.522031 0.301758 L 0.526016 0.305781 L 0.538047 0.305781 L 0.542031 0.309766 L 0.558086 0.309766 L 0.56207 0.313789 L 0.578086 0.313789 L 0.582109 0.317773 L 0.586094 0.317773 L 0.590117 0.321797 L 0.598125 0.321797 L 0.602109 0.325781 L 0.610117 0.325781 L 0.622148 0.337813 L 0.626133 0.337813 L 0.630156 0.341797 L 0.63418 0.341797 L 0.638164 0.34582 L 0.642187 0.349805 L 0.646172 0.349805 L 0.650195 0.353828 L 0.658203 0.353828 L 0.666211 0.361836 L 0.674219 0.361836 L 0.682227 0.369844 L 0.686211 0.369844 L 0.690234 0.373867 L 0.694219 0.373867 L 0.698242 0.377852 L 0.702227 0.381875 L 0.70625 0.385859 L 0.710234 0.385859 L 0.714258 0.389883 L 0.718281 0.393867 L 0.722266 0.393867 L 0.726289 0.397891 L 0.730273 0.397891 L 0.734297 0.401875 L 0.738281 0.405898 L 0.742305 0.405898 L 0.746289 0.409883 L 0.750313 0.409883 L 0.754297 0.413906 L 0.75832 0.417891 L 0.762305 0.417891 L 0.766328 0.421914 L 0.770313 0.421914 L 0.774336 0.425898 L 0.77832 0.425898 L 0.786328 0.433906 L 0.790352 0.433906 L 0.794336 0.43793 L 0.798359 0.441914 L 0.802344 0.445937 L 0.806367 0.449922 L 0.810391 0.449922 L 0.814375 0.453945 L 0.830391 0.469961 L 0.834414 0.469961 L 0.838398 0.473984 L 0.842422 0.477969 L 0.846406 0.481992 L 0.85043 0.485977 L 0.854414 0.485977 L 0.854414 0.49 L 0.858437 0.493984 L 0.862422 0.493984 L 0.862422 0.522031 L 0.858437 0.526016 L 0.862422 0.530039 L 0.866445 0.530039 L 0.87043 0.534023 L 0.894492 0.534023 L 0.898477 0.538047 L 0.930508 0.538047 L 0.934531 0.542031 L 0.946523 0.542031 L 0.950547 0.546055 L 0.954531 0.546055 L 0.954531 0.550078 L 0.950547 0.554062 L 0.950547 0.558086 L 0.926523 0.558086 L 0.9225 0.554062 L 0.9025 0.554062 L 0.898477 0.550078 L 0.87043 0.550078 L 0.866445 0.546055 L 0.862422 0.546055 L 0.858437 0.550078 L 0.858437 0.554062 L 0.854414 0.558086 L 0.854414 0.570078 L 0.85043 0.574102 L 0.846406 0.578086 L 0.842422 0.582109 L 0.838398 0.586094 L 0.834414 0.586094 L 0.830391 0.590117 L 0.826406 0.590117 L 0.822383 0.594102 L 0.818398 0.594102 L 0.810391 0.602109 L 0.806367 0.602109 L 0.802344 0.606133 L 0.794336 0.606133 L 0.786328 0.614141 L 0.782344 0.610117 L 0.77832 0.614141 L 0.774336 0.614141 L 0.770313 0.618125 L 0.766328 0.618125 L 0.762305 0.622148 L 0.750313 0.622148 L 0.746289 0.626133 L 0.742305 0.626133 L 0.738281 0.630156 L 0.734297 0.630156 L 0.730273 0.63418 L 0.722266 0.63418 L 0.718281 0.638164 L 0.714258 0.638164 L 0.710234 0.642188 L 0.702227 0.642188 L 0.698242 0.646172 L 0.690234 0.646172 L 0.686211 0.650195 L 0.678203 0.650195 L 0.674219 0.65418 L 0.670195 0.65418 L 0.666211 0.658203 L 0.658203 0.658203 L 0.65418 0.662187 L 0.646172 0.662187 L 0.642187 0.666211 L 0.638164 0.666211 L 0.63418 0.670195 L 0.626133 0.670195 L 0.622148 0.674219 L 0.614141 0.674219 L 0.610117 0.678203 L 0.602109 0.678203 L 0.598125 0.682227 L 0.586094 0.682227 L 0.582109 0.686211 L 0.574102 0.686211 L 0.570078 0.690234 L 0.566094 0.690234 L 0.56207 0.694219 L 0.554063 0.694219 L 0.550078 0.698242 L 0.534023 0.698242 L 0.530039 0.702227 L 0.518008 0.702227 L 0.514023 0.70625 L 0.498008 0.70625 L 0.493984 0.710234 L 0.449922 0.710234 L 0.445938 0.70625 L 0.441914 0.710234 L 0.425898 0.710234 L 0.421914 0.70625 L 0.405898 0.70625 L 0.401875 0.702227 L 0.373867 0.702227 L 0.369844 0.698242 L 0.36582 0.694219 L 0.361836 0.694219 L 0.357813 0.698242 L 0.353828 0.698242 L 0.349805 0.694219 L 0.341797 0.694219 L 0.333789 0.686211 L 0.329805 0.686211 L 0.325781 0.682227 L 0.321797 0.678203 L 0.309766 0.678203 L 0.305781 0.674219 L 0.297773 0.674219 L 0.29375 0.670195 L 0.289766 0.670195 L 0.285742 0.666211 L 0.281719 0.666211 L 0.277734 0.662187 L 0.269727 0.662187 L 0.265703 0.658203 L 0.261719 0.65418 L 0.249688 0.65418 L 0.249688 0.650195 L 0.245703 0.646172 L 0.24168 0.650195 L 0.237695 0.646172 L 0.233672 0.642188 L 0.229688 0.638164 L 0.225664 0.638164 L 0.217656 0.630156 L 0.213672 0.626133 L 0.209648 0.622148 L 0.205664 0.622148 L 0.205664 0.618125 L 0.201641 0.614141 L 0.197656 0.614141 L 0.193633 0.610117 L 0.193633 0.606133 L 0.189609 0.602109 L 0.189609 0.598125 L 0.185625 0.594102 L 0.181602 0.590117 L 0.181602 0.586094 L 0.169609 0.574102 L 0.165586 0.574102 L 0.161602 0.570078 L 0.157578 0.566094 L 0.153594 0.56207 L 0.153594 0.558086 L 0.14957 0.554062 L 0.14957 0.546055 L 0.145586 0.542031 L 0.145586 0.538047 L 0.137578 0.530039 L 0.137578 0.522031 L 0.133555 0.518008 L 0.133555 0.514023 L 0.12957 0.51 L 0.12957 0.506016 L 0.125547 0.501992 L 0.125547 0.498008 L 0.121563 0.493984 L 0.117539 0.49 L 0.113555 0.49 L 0.109531 0.493984 L 0.0935156 0.493984 L 0.0894922 0.498008 L 0.0814844 0.498008 L 0.0775 0.493984 L 0.0574609 0.493984 L 0.0534766 0.49 L 0.0494531 0.49 L 0.0494531 0.485977 Z M 0.0454687 0.481992 " transform="matrix(100,0,0,100,150,350)"/>
<path style="fill:none;stroke-width:0.01;stroke-linecap:butt;stroke-linejoin:miter;stroke:rgb(0%,0%,0%);stroke-opacity:1;stroke-miterlimit:10;" d="M 0.0454687 0.547422 L 0.0573047 0.535586 L 0.06125 0.531602 L 0.0691797 0.531602 L 0.073125 0.527656 L 0.0770703 0.527656 L 0.0849609 0.519766 L 0.0889453 0.51582 L 0.0928906 0.51582 L 0.0968359 0.511875 L 0.100781 0.507891 L 0.104727 0.503945 L 0.108711 0.5 L 0.112656 0.496055 L 0.116602 0.496055 L 0.120547 0.492109 L 0.120547 0.488125 L 0.124492 0.48418 L 0.128477 0.480234 L 0.128477 0.476289 L 0.132422 0.472344 L 0.132422 0.468398 L 0.136367 0.464414 L 0.148203 0.452578 L 0.152188 0.448633 L 0.156133 0.444648 L 0.164023 0.436758 L 0.164023 0.432813 L 0.167969 0.428867 L 0.167969 0.424883 L 0.171953 0.424883 L 0.175898 0.420937 L 0.175898 0.416992 L 0.179844 0.416992 L 0.183789 0.413047 L 0.183789 0.409102 L 0.187734 0.409102 L 0.191719 0.405156 L 0.195664 0.401172 L 0.203555 0.393281 L 0.203555 0.389336 L 0.211445 0.389336 L 0.21543 0.385391 L 0.219375 0.381406 L 0.219375 0.377461 L 0.22332 0.377461 L 0.231211 0.36957 L 0.235195 0.36957 L 0.239141 0.365625 L 0.243086 0.361641 L 0.250977 0.361641 L 0.254922 0.357695 L 0.258906 0.357695 L 0.270742 0.345859 L 0.274688 0.345859 L 0.278672 0.341914 L 0.282617 0.33793 L 0.286563 0.333984 L 0.294453 0.333984 L 0.298437 0.330039 L 0.298437 0.326094 L 0.306328 0.326094 L 0.310273 0.322148 L 0.330039 0.322148 L 0.333984 0.318164 L 0.345859 0.318164 L 0.349805 0.314219 L 0.357695 0.314219 L 0.361641 0.310273 L 0.36957 0.310273 L 0.373516 0.306328 L 0.385391 0.306328 L 0.389336 0.302383 L 0.389336 0.298437 L 0.409102 0.298437 L 0.413047 0.294453 L 0.420937 0.294453 L 0.424883 0.298437 L 0.428867 0.298437 L 0.432813 0.294453 L 0.440703 0.294453 L 0.444648 0.298437 L 0.448633 0.298437 L 0.452578 0.294453 L 0.456523 0.294453 L 0.460469 0.298437 L 0.464414 0.298437 L 0.468398 0.294453 L 0.472344 0.298437 L 0.476289 0.294453 L 0.48418 0.294453 L 0.488125 0.290508 L 0.523711 0.290508 L 0.527656 0.294453 L 0.535586 0.294453 L 0.539531 0.298437 L 0.543477 0.294453 L 0.547422 0.298437 L 0.555352 0.298437 L 0.559297 0.302383 L 0.563242 0.302383 L 0.567188 0.306328 L 0.583008 0.306328 L 0.586953 0.310273 L 0.602773 0.310273 L 0.606719 0.314219 L 0.610664 0.314219 L 0.614609 0.318164 L 0.626484 0.318164 L 0.63043 0.322148 L 0.634375 0.326094 L 0.642305 0.326094 L 0.650195 0.333984 L 0.658086 0.333984 L 0.66207 0.33793 L 0.666016 0.33793 L 0.669961 0.341914 L 0.677852 0.341914 L 0.681836 0.345859 L 0.685781 0.345859 L 0.693672 0.35375 L 0.701563 0.35375 L 0.705547 0.357695 L 0.709492 0.361641 L 0.717383 0.361641 L 0.721328 0.365625 L 0.725313 0.365625 L 0.733203 0.373516 L 0.737148 0.373516 L 0.741094 0.377461 L 0.745078 0.377461 L 0.749023 0.381406 L 0.752969 0.381406 L 0.756914 0.385391 L 0.764805 0.393281 L 0.768789 0.393281 L 0.77668 0.401172 L 0.780625 0.401172 L 0.78457 0.405156 L 0.788555 0.405156 L 0.796445 0.413047 L 0.800391 0.413047 L 0.808281 0.420937 L 0.812266 0.420937 L 0.816211 0.424883 L 0.820156 0.428867 L 0.828047 0.436758 L 0.832031 0.436758 L 0.832031 0.440703 L 0.835977 0.444648 L 0.839922 0.444648 L 0.839922 0.448633 L 0.847813 0.456523 L 0.847813 0.460469 L 0.851797 0.464414 L 0.851797 0.468398 L 0.855742 0.472344 L 0.855742 0.480234 L 0.851797 0.48418 L 0.851797 0.488125 L 0.855742 0.492109 L 0.859688 0.492109 L 0.863633 0.496055 L 0.879453 0.496055 L 0.883398 0.5 L 0.903164 0.5 L 0.907109 0.503945 L 0.915039 0.503945 L 0.918984 0.507891 L 0.934766 0.507891 L 0.93875 0.511875 L 0.942695 0.511875 L 0.946641 0.51582 L 0.950586 0.51582 L 0.954531 0.519766 L 0.954531 0.531602 L 0.93875 0.531602 L 0.934766 0.527656 L 0.93082 0.527656 L 0.926875 0.523711 L 0.92293 0.523711 L 0.918984 0.519766 L 0.907109 0.519766 L 0.903164 0.51582 L 0.887344 0.51582 L 0.883398 0.511875 L 0.875508 0.511875 L 0.871523 0.507891 L 0.855742 0.507891 L 0.851797 0.511875 L 0.851797 0.519766 L 0.847813 0.523711 L 0.847813 0.527656 L 0.843867 0.531602 L 0.843867 0.535586 L 0.832031 0.547422 L 0.828047 0.551367 L 0.824102 0.551367 L 0.820156 0.555352 L 0.812266 0.563242 L 0.808281 0.563242 L 0.804336 0.567188 L 0.800391 0.567188 L 0.796445 0.571133 L 0.7925 0.571133 L 0.788555 0.575117 L 0.78457 0.575117 L 0.77668 0.583008 L 0.772734 0.583008 L 0.768789 0.586953 L 0.764805 0.586953 L 0.756914 0.594844 L 0.752969 0.594844 L 0.749023 0.598828 L 0.745078 0.598828 L 0.741094 0.602773 L 0.737148 0.606719 L 0.729258 0.606719 L 0.725313 0.610664 L 0.721328 0.610664 L 0.717383 0.614609 L 0.713437 0.614609 L 0.709492 0.618594 L 0.701563 0.618594 L 0.693672 0.626484 L 0.689727 0.626484 L 0.681836 0.634375 L 0.677852 0.634375 L 0.673906 0.638359 L 0.669961 0.638359 L 0.66207 0.64625 L 0.658086 0.64625 L 0.650195 0.654141 L 0.642305 0.654141 L 0.634375 0.66207 L 0.626484 0.66207 L 0.622539 0.666016 L 0.618594 0.666016 L 0.614609 0.669961 L 0.606719 0.669961 L 0.598828 0.677852 L 0.590898 0.677852 L 0.586953 0.681836 L 0.575117 0.681836 L 0.571133 0.685781 L 0.563242 0.685781 L 0.559297 0.689727 L 0.543477 0.689727 L 0.539531 0.693672 L 0.535586 0.689727 L 0.531602 0.689727 L 0.527656 0.693672 L 0.51582 0.693672 L 0.511875 0.697617 L 0.496055 0.697617 L 0.492109 0.701562 L 0.472344 0.701562 L 0.468398 0.705547 L 0.464414 0.701562 L 0.440703 0.701562 L 0.436758 0.705547 L 0.416992 0.705547 L 0.413047 0.709492 L 0.405156 0.709492 L 0.401172 0.705547 L 0.393281 0.705547 L 0.389336 0.701562 L 0.373516 0.701562 L 0.36957 0.697617 L 0.357695 0.697617 L 0.349805 0.689727 L 0.341914 0.689727 L 0.33793 0.685781 L 0.330039 0.685781 L 0.326094 0.681836 L 0.322148 0.685781 L 0.318164 0.685781 L 0.314219 0.681836 L 0.302383 0.681836 L 0.298437 0.677852 L 0.294453 0.677852 L 0.290508 0.673906 L 0.282617 0.673906 L 0.278672 0.669961 L 0.278672 0.666016 L 0.274688 0.66207 L 0.266797 0.66207 L 0.266797 0.658086 L 0.262852 0.654141 L 0.258906 0.654141 L 0.254922 0.650195 L 0.250977 0.650195 L 0.247031 0.64625 L 0.243086 0.64625 L 0.239141 0.642305 L 0.231211 0.642305 L 0.227266 0.638359 L 0.22332 0.634375 L 0.219375 0.634375 L 0.21543 0.63043 L 0.211445 0.626484 L 0.2075 0.626484 L 0.199609 0.618594 L 0.195664 0.618594 L 0.191719 0.614609 L 0.187734 0.610664 L 0.175898 0.598828 L 0.171953 0.594844 L 0.171953 0.590898 L 0.167969 0.586953 L 0.156133 0.575117 L 0.152188 0.575117 L 0.144258 0.567188 L 0.144258 0.563242 L 0.136367 0.555352 L 0.132422 0.551367 L 0.132422 0.547422 L 0.128477 0.543477 L 0.124492 0.539531 L 0.120547 0.535586 L 0.116602 0.531602 L 0.100781 0.531602 L 0.0968359 0.535586 L 0.0889453 0.535586 L 0.0849609 0.539531 L 0.0810156 0.543477 L 0.073125 0.543477 L 0.0691797 0.547422 L 0.0652344 0.547422 L 0.06125 0.551367 L 0.0494141 0.551367 Z M 0.0454687 0.547422 " transform="matrix(100,0,0,100,300,350)"/>
<path style="fill:none;stroke-width:0.01;stroke-linecap:butt;stroke-linejoin:miter;stroke:rgb(0%,0%,0%);stroke-opacity:1;stroke-miterlimit:10;" d="M 0.0454688 0.469297 L 0.0495313 0.465195 L 0.0864063 0.465195 L 0.0905078 0.461094 L 0.0986719 0.461094 L 0.102773 0.456992 L 0.110977 0.456992 L 0.115078 0.452891 L 0.11918 0.452891 L 0.123242 0.448828 L 0.135547 0.448828 L 0.14375 0.440625 L 0.147812 0.436523 L 0.156016 0.42832 L 0.160117 0.424258 L 0.164219 0.424258 L 0.16832 0.420156 L 0.172383 0.416055 L 0.176484 0.411953 L 0.180586 0.411953 L 0.184687 0.407852 L 0.188789 0.407852 L 0.196953 0.399688 L 0.201055 0.399688 L 0.209258 0.391484 L 0.209258 0.387383 L 0.229727 0.366914 L 0.233828 0.366914 L 0.23793 0.362812 L 0.246094 0.362812 L 0.250195 0.358711 L 0.254297 0.358711 L 0.258398 0.354609 L 0.2625 0.354609 L 0.266602 0.350547 L 0.270664 0.350547 L 0.274766 0.346445 L 0.278867 0.346445 L 0.282969 0.342344 L 0.28707 0.342344 L 0.291172 0.338242 L 0.303438 0.338242 L 0.311641 0.330039 L 0.323906 0.330039 L 0.328008 0.325977 L 0.328008 0.321875 L 0.348477 0.321875 L 0.352578 0.317773 L 0.360781 0.317773 L 0.364883 0.313672 L 0.38125 0.313672 L 0.385352 0.30957 L 0.393516 0.30957 L 0.397617 0.313672 L 0.401719 0.30957 L 0.495898 0.30957 L 0.5 0.313672 L 0.504102 0.313672 L 0.508203 0.30957 L 0.512266 0.313672 L 0.516367 0.313672 L 0.520469 0.30957 L 0.52457 0.30957 L 0.528672 0.313672 L 0.532773 0.313672 L 0.536836 0.30957 L 0.540938 0.313672 L 0.549141 0.313672 L 0.553242 0.317773 L 0.573711 0.317773 L 0.577813 0.321875 L 0.590078 0.321875 L 0.59418 0.325977 L 0.598281 0.325977 L 0.602383 0.330039 L 0.614648 0.330039 L 0.61875 0.334141 L 0.626953 0.334141 L 0.631055 0.338242 L 0.639219 0.338242 L 0.64332 0.342344 L 0.655625 0.342344 L 0.659688 0.346445 L 0.663789 0.346445 L 0.667891 0.350547 L 0.671992 0.350547 L 0.676094 0.354609 L 0.680195 0.354609 L 0.684258 0.358711 L 0.692461 0.358711 L 0.696562 0.362812 L 0.700664 0.362812 L 0.704766 0.366914 L 0.708828 0.366914 L 0.71293 0.371016 L 0.717031 0.371016 L 0.721133 0.375117 L 0.725234 0.375117 L 0.729336 0.37918 L 0.733398 0.37918 L 0.7375 0.383281 L 0.741602 0.383281 L 0.745703 0.387383 L 0.749805 0.387383 L 0.753906 0.391484 L 0.757969 0.395586 L 0.766172 0.395586 L 0.770273 0.399688 L 0.774375 0.40375 L 0.778477 0.40375 L 0.782539 0.407852 L 0.786641 0.411953 L 0.790742 0.411953 L 0.803047 0.424258 L 0.807109 0.424258 L 0.811211 0.42832 L 0.827617 0.444727 L 0.83168 0.448828 L 0.835781 0.452891 L 0.852188 0.469297 L 0.852188 0.473398 L 0.85625 0.477461 L 0.85625 0.485664 L 0.860352 0.489766 L 0.860352 0.502031 L 0.85625 0.506133 L 0.85625 0.510234 L 0.860352 0.514336 L 0.864453 0.514336 L 0.868555 0.518438 L 0.872656 0.518438 L 0.876758 0.522539 L 0.88082 0.522539 L 0.884922 0.526602 L 0.893125 0.526602 L 0.897227 0.530703 L 0.905391 0.530703 L 0.909492 0.534805 L 0.921797 0.534805 L 0.925898 0.538906 L 0.946367 0.538906 L 0.950469 0.543008 L 0.954531 0.547109 L 0.954531 0.551172 L 0.950469 0.555273 L 0.946367 0.555273 L 0.942266 0.559375 L 0.929961 0.559375 L 0.925898 0.555273 L 0.917695 0.555273 L 0.913594 0.551172 L 0.909492 0.547109 L 0.893125 0.547109 L 0.889023 0.543008 L 0.884922 0.543008 L 0.88082 0.538906 L 0.876758 0.538906 L 0.872656 0.534805 L 0.864453 0.534805 L 0.85625 0.543008 L 0.852188 0.547109 L 0.852188 0.551172 L 0.827617 0.575742 L 0.823516 0.575742 L 0.807109 0.592148 L 0.803047 0.592148 L 0.798945 0.59625 L 0.794844 0.600313 L 0.790742 0.600313 L 0.782539 0.608516 L 0.778477 0.608516 L 0.770273 0.616719 L 0.76207 0.616719 L 0.753906 0.624883 L 0.749805 0.624883 L 0.741602 0.633086 L 0.7375 0.633086 L 0.733398 0.637188 L 0.725234 0.637188 L 0.721133 0.641289 L 0.717031 0.641289 L 0.71293 0.645391 L 0.708828 0.649453 L 0.704766 0.649453 L 0.700664 0.653555 L 0.696562 0.653555 L 0.692461 0.657656 L 0.684258 0.657656 L 0.680195 0.661758 L 0.676094 0.661758 L 0.671992 0.665859 L 0.663789 0.665859 L 0.659688 0.669961 L 0.655625 0.669961 L 0.651523 0.674023 L 0.631055 0.674023 L 0.626953 0.678125 L 0.61875 0.678125 L 0.614648 0.682227 L 0.602383 0.682227 L 0.598281 0.678125 L 0.59418 0.682227 L 0.565508 0.682227 L 0.561406 0.686328 L 0.557344 0.682227 L 0.553242 0.686328 L 0.528672 0.686328 L 0.52457 0.69043 L 0.520469 0.686328 L 0.5 0.686328 L 0.495898 0.69043 L 0.491797 0.686328 L 0.471328 0.686328 L 0.467227 0.682227 L 0.450859 0.682227 L 0.446758 0.678125 L 0.414023 0.678125 L 0.409922 0.674023 L 0.40582 0.678125 L 0.397617 0.678125 L 0.393516 0.674023 L 0.364883 0.674023 L 0.360781 0.669961 L 0.352578 0.669961 L 0.348477 0.665859 L 0.336211 0.665859 L 0.332109 0.661758 L 0.323906 0.661758 L 0.319805 0.657656 L 0.307539 0.657656 L 0.303438 0.653555 L 0.295234 0.653555 L 0.291172 0.649453 L 0.28707 0.645391 L 0.282969 0.645391 L 0.278867 0.641289 L 0.274766 0.641289 L 0.270664 0.637188 L 0.2625 0.637188 L 0.254297 0.628984 L 0.246094 0.628984 L 0.242031 0.624883 L 0.242031 0.62082 L 0.23793 0.616719 L 0.233828 0.616719 L 0.225625 0.608516 L 0.221523 0.608516 L 0.217461 0.604414 L 0.213359 0.604414 L 0.209258 0.600313 L 0.205156 0.59625 L 0.201055 0.59625 L 0.196953 0.592148 L 0.192891 0.588047 L 0.180586 0.575742 L 0.176484 0.57168 L 0.176484 0.567578 L 0.172383 0.563477 L 0.172383 0.559375 L 0.16832 0.555273 L 0.160117 0.555273 L 0.156016 0.551172 L 0.151914 0.547109 L 0.147812 0.543008 L 0.14375 0.538906 L 0.14375 0.530703 L 0.139648 0.526602 L 0.135547 0.522539 L 0.135547 0.518438 L 0.131445 0.514336 L 0.127344 0.514336 L 0.123242 0.510234 L 0.11918 0.506133 L 0.115078 0.502031 L 0.110977 0.502031 L 0.106875 0.497969 L 0.102773 0.497969 L 0.0986719 0.493867 L 0.0946094 0.489766 L 0.0864063 0.489766 L 0.0823047 0.485664 L 0.0782031 0.485664 L 0.0741016 0.481562 L 0.0618359 0.481562 L 0.0577344 0.477461 L 0.0536328 0.477461 L 0.0495313 0.473398 L 0.0454688 0.473398 Z M 0.0454688 0.469297 " transform="matrix(100,0,0,100,450,350)"/>
<path style="fill:none;stroke-width:0.01;stroke-linecap:butt;stroke-linejoin:miter;stroke:rgb(0%,0%,0%);stroke-opacity:1;stroke-miterlimit:10;" d="M 0.0454688 0.564648 L 0.0575781 0.552539 L 0.0616016 0.548477 L 0.0656641 0.544453 L 0.0696875 0.540391 L 0.07375 0.540391 L 0.0777734 0.536367 L 0.0818359 0.536367 L 0.0858594 0.532305 L 0.0858594 0.528281 L 0.0898828 0.524258 L 0.0898828 0.520195 L 0.0939453 0.520195 L 0.106055 0.508086 L 0.106055 0.504023 L 0.110117 0.5 L 0.114141 0.5 L 0.122227 0.491914 L 0.122227 0.487891 L 0.12625 0.483828 L 0.130313 0.479805 L 0.134336 0.475742 L 0.138398 0.471719 L 0.142422 0.467695 L 0.146445 0.463633 L 0.150508 0.459609 L 0.154531 0.455547 L 0.158594 0.451523 L 0.162617 0.451523 L 0.16668 0.447461 L 0.16668 0.443437 L 0.170703 0.439375 L 0.174766 0.435352 L 0.178789 0.431328 L 0.182812 0.427266 L 0.186875 0.423242 L 0.186875 0.41918 L 0.190898 0.415156 L 0.190898 0.411094 L 0.194961 0.411094 L 0.198984 0.40707 L 0.198984 0.403047 L 0.203047 0.403047 L 0.20707 0.398984 L 0.211094 0.394961 L 0.215156 0.394961 L 0.21918 0.390898 L 0.223242 0.386875 L 0.227266 0.382812 L 0.231328 0.378789 L 0.235352 0.374766 L 0.235352 0.370703 L 0.239375 0.36668 L 0.239375 0.362617 L 0.243437 0.362617 L 0.247461 0.358594 L 0.251523 0.358594 L 0.255547 0.354531 L 0.259609 0.350508 L 0.263633 0.346445 L 0.267695 0.346445 L 0.271719 0.342422 L 0.271719 0.338398 L 0.279805 0.338398 L 0.283828 0.334336 L 0.287891 0.330313 L 0.291914 0.330313 L 0.3 0.322227 L 0.304023 0.322227 L 0.308086 0.318164 L 0.312109 0.318164 L 0.316172 0.314141 L 0.320195 0.314141 L 0.324258 0.310117 L 0.348477 0.310117 L 0.352539 0.306055 L 0.356562 0.306055 L 0.360625 0.302031 L 0.364648 0.302031 L 0.368672 0.297969 L 0.376758 0.297969 L 0.38082 0.293945 L 0.396953 0.293945 L 0.401016 0.289883 L 0.437383 0.289883 L 0.441406 0.285859 L 0.47375 0.285859 L 0.477773 0.289883 L 0.586875 0.289883 L 0.590898 0.293945 L 0.603047 0.293945 L 0.60707 0.297969 L 0.611094 0.297969 L 0.615156 0.302031 L 0.61918 0.302031 L 0.623242 0.306055 L 0.635352 0.306055 L 0.639375 0.310117 L 0.655547 0.310117 L 0.659609 0.314141 L 0.667695 0.314141 L 0.671719 0.318164 L 0.675742 0.318164 L 0.683828 0.32625 L 0.687891 0.32625 L 0.691914 0.330313 L 0.695977 0.330313 L 0.7 0.334336 L 0.712109 0.334336 L 0.716172 0.338398 L 0.720195 0.338398 L 0.724258 0.342422 L 0.740391 0.342422 L 0.744453 0.346445 L 0.748477 0.346445 L 0.752539 0.350508 L 0.760625 0.350508 L 0.764648 0.354531 L 0.768672 0.354531 L 0.772734 0.358594 L 0.776758 0.358594 L 0.78082 0.362617 L 0.784844 0.36668 L 0.788906 0.370703 L 0.79293 0.374766 L 0.796953 0.374766 L 0.801016 0.378789 L 0.805039 0.382812 L 0.805039 0.386875 L 0.809102 0.390898 L 0.809102 0.394961 L 0.813125 0.398984 L 0.813125 0.41918 L 0.809102 0.423242 L 0.821211 0.435352 L 0.825234 0.435352 L 0.829297 0.431328 L 0.837383 0.431328 L 0.841406 0.435352 L 0.857578 0.435352 L 0.861602 0.439375 L 0.877773 0.439375 L 0.881836 0.443437 L 0.893945 0.443437 L 0.897969 0.447461 L 0.910117 0.447461 L 0.914141 0.451523 L 0.922227 0.451523 L 0.92625 0.455547 L 0.934336 0.455547 L 0.938398 0.451523 L 0.946445 0.451523 L 0.950508 0.455547 L 0.954531 0.459609 L 0.954531 0.467695 L 0.950508 0.467695 L 0.946445 0.471719 L 0.918164 0.471719 L 0.914141 0.467695 L 0.906055 0.467695 L 0.902031 0.463633 L 0.893945 0.463633 L 0.889883 0.459609 L 0.885859 0.459609 L 0.881836 0.455547 L 0.877773 0.459609 L 0.87375 0.459609 L 0.869688 0.455547 L 0.865664 0.455547 L 0.861602 0.451523 L 0.845469 0.451523 L 0.841406 0.455547 L 0.845469 0.459609 L 0.845469 0.467695 L 0.841406 0.471719 L 0.841406 0.475742 L 0.837383 0.479805 L 0.837383 0.483828 L 0.83332 0.483828 L 0.829297 0.487891 L 0.825234 0.491914 L 0.821211 0.495977 L 0.817188 0.5 L 0.813125 0.504023 L 0.809102 0.508086 L 0.805039 0.508086 L 0.79293 0.520195 L 0.788906 0.524258 L 0.784844 0.528281 L 0.776758 0.536367 L 0.772734 0.536367 L 0.768672 0.540391 L 0.764648 0.540391 L 0.760625 0.544453 L 0.756563 0.548477 L 0.752539 0.548477 L 0.744453 0.556563 L 0.740391 0.556563 L 0.736367 0.560625 L 0.732305 0.564648 L 0.724258 0.564648 L 0.720195 0.568672 L 0.720195 0.572734 L 0.716172 0.572734 L 0.712109 0.576758 L 0.708086 0.58082 L 0.704023 0.584844 L 0.7 0.588906 L 0.695977 0.588906 L 0.691914 0.59293 L 0.687891 0.596953 L 0.683828 0.596953 L 0.679805 0.601016 L 0.679805 0.605039 L 0.671719 0.605039 L 0.667695 0.609102 L 0.663633 0.609102 L 0.655547 0.617188 L 0.651523 0.617188 L 0.647461 0.621211 L 0.635352 0.63332 L 0.631328 0.637383 L 0.627266 0.637383 L 0.615156 0.649492 L 0.611094 0.649492 L 0.60707 0.653555 L 0.603047 0.653555 L 0.598984 0.657578 L 0.594961 0.657578 L 0.590898 0.661602 L 0.586875 0.661602 L 0.582813 0.665664 L 0.578789 0.665664 L 0.562617 0.681836 L 0.558594 0.681836 L 0.554531 0.685859 L 0.550508 0.689883 L 0.546445 0.689883 L 0.542422 0.693945 L 0.534336 0.693945 L 0.530312 0.697969 L 0.518164 0.697969 L 0.514141 0.702031 L 0.497969 0.702031 L 0.493945 0.706055 L 0.477773 0.706055 L 0.47375 0.710117 L 0.461602 0.710117 L 0.457578 0.714141 L 0.38082 0.714141 L 0.376758 0.710117 L 0.360625 0.710117 L 0.356562 0.706055 L 0.332305 0.706055 L 0.328281 0.702031 L 0.308086 0.702031 L 0.304023 0.697969 L 0.295977 0.697969 L 0.291914 0.693945 L 0.279805 0.693945 L 0.275742 0.689883 L 0.267695 0.689883 L 0.263633 0.685859 L 0.251523 0.685859 L 0.247461 0.681836 L 0.239375 0.681836 L 0.235352 0.677773 L 0.231328 0.67375 L 0.21918 0.67375 L 0.215156 0.669688 L 0.211094 0.665664 L 0.20707 0.665664 L 0.203047 0.661602 L 0.198984 0.657578 L 0.194961 0.657578 L 0.190898 0.653555 L 0.186875 0.649492 L 0.182812 0.645469 L 0.174766 0.645469 L 0.170703 0.641406 L 0.16668 0.641406 L 0.162617 0.637383 L 0.158594 0.637383 L 0.154531 0.63332 L 0.150508 0.63332 L 0.146445 0.629297 L 0.142422 0.625234 L 0.138398 0.621211 L 0.134336 0.617188 L 0.130313 0.617188 L 0.12625 0.613125 L 0.122227 0.613125 L 0.118164 0.609102 L 0.114141 0.609102 L 0.110117 0.605039 L 0.106055 0.605039 L 0.0979687 0.596953 L 0.0898828 0.596953 L 0.0818359 0.588906 L 0.0777734 0.588906 L 0.07375 0.584844 L 0.0696875 0.584844 L 0.0656641 0.58082 L 0.0616016 0.58082 L 0.0575781 0.576758 L 0.0535547 0.576758 L 0.0494922 0.572734 L 0.0454688 0.568672 Z M 0.0454688 0.564648 " transform="matrix(100,0,0,100,600,350)"/>
</g>
</svg>
