<?xml version="1.0" encoding="UTF-8"?>
<svg xmlns="http://www.w3.org/2000/svg" xmlns:xlink="http://www.w3.org/1999/xlink" width="750pt" height="2800pt" viewBox="0 0 750 2800" version="1.1">
<g id="surface1">
<path style="fill:none;stroke-width:0.01;stroke-linecap:butt;stroke-linejoin:miter;stroke:rgb(0%,0%,0%);stroke-opacity:1;stroke-miterlimit:10;" d="M 0.0454688 0.514063 L 0.0494922 0.514063 L 0.0535156 0.510039 L 0.0615625 0.510039 L 0.0655859 0.506016 L 0.0695703 0.506016 L 0.0735937 0.501992 L 0.0776172 0.501992 L 0.0816406 0.498008 L 0.0856641 0.493984 L 0.0856641 0.489961 L 0.0977344 0.477891 L 0.101758 0.477891 L 0.109805 0.469844 L 0.109805 0.46582 L 0.113828 0.461797 L 0.113828 0.457773 L 0.125898 0.445703 L 0.129922 0.445703 L 0.150039 0.425586 L 0.150039 0.417539 L 0.154062 0.417539 L 0.158086 0.413516 L 0.158086 0.409492 L 0.162109 0.405469 L 0.166133 0.405469 L 0.17418 0.397422 L 0.178203 0.397422 L 0.18625 0.389375 L 0.18625 0.385352 L 0.194297 0.377305 L 0.194297 0.373281 L 0.19832 0.369258 L 0.206367 0.369258 L 0.222461 0.353164 L 0.226484 0.353164 L 0.230508 0.349141 L 0.234531 0.349141 L 0.238555 0.345117 L 0.242539 0.341094 L 0.246563 0.341094 L 0.254609 0.333047 L 0.254609 0.329023 L 0.258633 0.325039 L 0.262656 0.325039 L 0.270703 0.316992 L 0.27875 0.316992 L 0.286797 0.308945 L 0.29082 0.308945 L 0.294844 0.304922 L 0.298867 0.304922 L 0.318984 0.284805 L 0.327031 0.284805 L 0.331055 0.280781 L 0.343125 0.280781 L 0.347148 0.276758 L 0.371289 0.276758 L 0.375312 0.272734 L 0.379336 0.272734 L 0.383359 0.268711 L 0.391406 0.268711 L 0.39543 0.264687 L 0.427578 0.264687 L 0.431602 0.260664 L 0.435625 0.264687 L 0.459766 0.264687 L 0.463789 0.268711 L 0.467813 0.264687 L 0.475859 0.264687 L 0.479883 0.268711 L 0.483906 0.264687 L 0.5 0.264687 L 0.504023 0.268711 L 0.51207 0.268711 L 0.516094 0.272734 L 0.524141 0.272734 L 0.528164 0.276758 L 0.536211 0.276758 L 0.540234 0.280781 L 0.544258 0.280781 L 0.556328 0.292852 L 0.560352 0.292852 L 0.564375 0.296875 L 0.596523 0.296875 L 0.600547 0.300898 L 0.608594 0.300898 L 0.612617 0.304922 L 0.616641 0.304922 L 0.620664 0.308945 L 0.628711 0.308945 L 0.636758 0.316992 L 0.640781 0.316992 L 0.644805 0.321016 L 0.648828 0.321016 L 0.652852 0.325039 L 0.656875 0.325039 L 0.660898 0.329023 L 0.693086 0.361211 L 0.697109 0.361211 L 0.729297 0.393398 L 0.73332 0.393398 L 0.749414 0.409492 L 0.753437 0.409492 L 0.757461 0.413516 L 0.761445 0.417539 L 0.773516 0.429609 L 0.777539 0.429609 L 0.793633 0.445703 L 0.797656 0.445703 L 0.845938 0.493984 L 0.870078 0.493984 L 0.874102 0.498008 L 0.890195 0.498008 L 0.894219 0.501992 L 0.922383 0.501992 L 0.926406 0.498008 L 0.93043 0.498008 L 0.934414 0.493984 L 0.946484 0.481914 L 0.950508 0.481914 L 0.954531 0.485937 L 0.954531 0.489961 L 0.950508 0.493984 L 0.950508 0.498008 L 0.946484 0.501992 L 0.942461 0.501992 L 0.938438 0.506016 L 0.934414 0.506016 L 0.93043 0.510039 L 0.902266 0.510039 L 0.898242 0.506016 L 0.878125 0.506016 L 0.874102 0.501992 L 0.849961 0.501992 L 0.845938 0.498008 L 0.817773 0.498008 L 0.81375 0.501992 L 0.809727 0.506016 L 0.805703 0.506016 L 0.789609 0.522109 L 0.785586 0.522109 L 0.773516 0.53418 L 0.769492 0.53418 L 0.761445 0.542227 L 0.757461 0.54625 L 0.737344 0.566367 L 0.73332 0.566367 L 0.72125 0.578438 L 0.717227 0.578438 L 0.689063 0.606602 L 0.685039 0.606602 L 0.672969 0.618672 L 0.668945 0.618672 L 0.624688 0.66293 L 0.620664 0.66293 L 0.616641 0.666953 L 0.612617 0.666953 L 0.608594 0.670977 L 0.60457 0.674961 L 0.600547 0.678984 L 0.5925 0.678984 L 0.588477 0.683008 L 0.584492 0.687031 L 0.576445 0.687031 L 0.572422 0.691055 L 0.564375 0.691055 L 0.560352 0.695078 L 0.552305 0.695078 L 0.548281 0.699102 L 0.536211 0.699102 L 0.528164 0.707148 L 0.524141 0.707148 L 0.520117 0.711172 L 0.516094 0.711172 L 0.51207 0.715195 L 0.508047 0.715195 L 0.504023 0.719219 L 0.5 0.719219 L 0.495977 0.723242 L 0.483906 0.723242 L 0.479883 0.727266 L 0.475859 0.727266 L 0.471836 0.731289 L 0.455742 0.731289 L 0.451719 0.735313 L 0.435625 0.735313 L 0.431602 0.739336 L 0.379336 0.739336 L 0.367266 0.727266 L 0.363242 0.727266 L 0.359219 0.723242 L 0.327031 0.723242 L 0.323008 0.719219 L 0.314961 0.719219 L 0.310938 0.715195 L 0.302891 0.715195 L 0.302891 0.711172 L 0.294844 0.703125 L 0.286797 0.703125 L 0.282773 0.699102 L 0.258633 0.699102 L 0.250586 0.691055 L 0.242539 0.691055 L 0.238555 0.687031 L 0.238555 0.683008 L 0.234531 0.678984 L 0.230508 0.678984 L 0.226484 0.674961 L 0.222461 0.670977 L 0.218438 0.670977 L 0.214414 0.666953 L 0.210391 0.666953 L 0.202344 0.658906 L 0.19832 0.658906 L 0.194297 0.654883 L 0.190273 0.654883 L 0.18625 0.650859 L 0.182227 0.650859 L 0.178203 0.646836 L 0.178203 0.642813 L 0.158086 0.622695 L 0.154062 0.622695 L 0.150039 0.618672 L 0.150039 0.614648 L 0.146016 0.610625 L 0.141992 0.610625 L 0.137969 0.606602 L 0.137969 0.602578 L 0.125898 0.590508 L 0.121875 0.590508 L 0.109805 0.578438 L 0.105781 0.578438 L 0.105781 0.574414 L 0.101758 0.570391 L 0.101758 0.562344 L 0.0977344 0.55832 L 0.0937109 0.55832 L 0.0856641 0.550273 L 0.0816406 0.550273 L 0.0816406 0.54625 L 0.0695703 0.53418 L 0.0655859 0.53418 L 0.0615625 0.530156 L 0.0535156 0.530156 L 0.0454688 0.522109 L 0.0454688 0.518086 Z M 0.0454688 0.514063 " transform="matrix(100,0,0,100,0,200)"/>
<path style="fill:none;stroke-width:0.01;stroke-linecap:butt;stroke-linejoin:miter;stroke:rgb(0%,0%,0%);stroke-opacity:1;stroke-miterlimit:10;" d="M 0.0454687 0.49793 L 0.0495703 0.493789 L 0.0537109 0.489688 L 0.0578516 0.485547 L 0.0578516 0.481406 L 0.0702344 0.469023 L 0.0702344 0.452461 L 0.074375 0.448359 L 0.0826563 0.440078 L 0.0867578 0.435938 L 0.0908984 0.435938 L 0.0950391 0.431836 L 0.10332 0.423555 L 0.107422 0.419414 L 0.107422 0.411172 L 0.115703 0.402891 L 0.115703 0.39875 L 0.119844 0.39875 L 0.128086 0.390508 L 0.132227 0.390508 L 0.140508 0.382227 L 0.144609 0.378086 L 0.144609 0.373984 L 0.14875 0.369844 L 0.152891 0.369844 L 0.161172 0.361563 L 0.165273 0.357422 L 0.169414 0.357422 L 0.173555 0.35332 L 0.177695 0.35332 L 0.181836 0.34918 L 0.185938 0.34918 L 0.194219 0.340898 L 0.194219 0.336758 L 0.198359 0.332656 L 0.202461 0.328516 L 0.210742 0.320234 L 0.214883 0.316133 L 0.219023 0.316133 L 0.223125 0.311992 L 0.231406 0.311992 L 0.239688 0.303711 L 0.243789 0.303711 L 0.24793 0.29957 L 0.25207 0.295469 L 0.256211 0.291328 L 0.256211 0.287187 L 0.260312 0.283047 L 0.264453 0.283047 L 0.268594 0.278906 L 0.276875 0.278906 L 0.280977 0.274805 L 0.334727 0.274805 L 0.338828 0.270664 L 0.342969 0.270664 L 0.347109 0.266523 L 0.347109 0.262383 L 0.35125 0.258281 L 0.371914 0.258281 L 0.376016 0.254141 L 0.39668 0.254141 L 0.40082 0.258281 L 0.409102 0.258281 L 0.413242 0.262383 L 0.475195 0.262383 L 0.479336 0.266523 L 0.495859 0.266523 L 0.5 0.270664 L 0.508281 0.270664 L 0.512383 0.274805 L 0.516523 0.274805 L 0.520664 0.278906 L 0.524805 0.278906 L 0.528906 0.283047 L 0.533047 0.283047 L 0.541328 0.291328 L 0.545469 0.291328 L 0.54957 0.295469 L 0.553711 0.295469 L 0.557852 0.29957 L 0.561992 0.29957 L 0.566133 0.303711 L 0.574375 0.303711 L 0.578516 0.307852 L 0.586758 0.307852 L 0.590898 0.311992 L 0.595039 0.311992 L 0.59918 0.316133 L 0.60332 0.316133 L 0.607422 0.320234 L 0.611563 0.320234 L 0.615703 0.324375 L 0.619844 0.324375 L 0.623984 0.328516 L 0.628086 0.332656 L 0.632227 0.336758 L 0.636367 0.340898 L 0.640508 0.340898 L 0.644609 0.345039 L 0.652891 0.35332 L 0.657031 0.357422 L 0.661172 0.361563 L 0.665273 0.365703 L 0.673555 0.373984 L 0.677695 0.378086 L 0.681836 0.378086 L 0.685938 0.382227 L 0.694219 0.390508 L 0.698359 0.394609 L 0.702461 0.394609 L 0.706602 0.39875 L 0.710742 0.394609 L 0.714883 0.39875 L 0.719023 0.39875 L 0.723125 0.402891 L 0.727266 0.402891 L 0.735547 0.411172 L 0.739688 0.411172 L 0.74793 0.419414 L 0.75207 0.419414 L 0.756211 0.423555 L 0.760312 0.427695 L 0.764453 0.431836 L 0.768594 0.431836 L 0.772734 0.435938 L 0.776875 0.440078 L 0.780977 0.444219 L 0.780977 0.448359 L 0.785117 0.452461 L 0.785117 0.456602 L 0.789258 0.460742 L 0.797539 0.460742 L 0.801641 0.464883 L 0.805781 0.469023 L 0.805781 0.473125 L 0.809922 0.477266 L 0.834727 0.477266 L 0.838828 0.473125 L 0.867773 0.473125 L 0.871914 0.469023 L 0.95043 0.469023 L 0.954531 0.473125 L 0.95043 0.473125 L 0.942148 0.481406 L 0.925625 0.481406 L 0.921484 0.477266 L 0.913242 0.477266 L 0.909102 0.481406 L 0.90082 0.481406 L 0.89668 0.477266 L 0.892578 0.477266 L 0.888438 0.481406 L 0.834727 0.481406 L 0.830586 0.485547 L 0.826445 0.485547 L 0.822305 0.489688 L 0.822305 0.493789 L 0.818164 0.49793 L 0.818164 0.50207 L 0.814062 0.506211 L 0.814062 0.510312 L 0.809922 0.514453 L 0.809922 0.518594 L 0.793398 0.535117 L 0.793398 0.543398 L 0.789258 0.547539 L 0.785117 0.551641 L 0.785117 0.555781 L 0.780977 0.559922 L 0.780977 0.564062 L 0.772734 0.572305 L 0.772734 0.576445 L 0.764453 0.584727 L 0.760312 0.588828 L 0.760312 0.592969 L 0.756211 0.597109 L 0.74793 0.605391 L 0.743789 0.609492 L 0.739688 0.613633 L 0.735547 0.617773 L 0.731406 0.617773 L 0.727266 0.621914 L 0.723125 0.621914 L 0.685938 0.659102 L 0.681836 0.663242 L 0.677695 0.667344 L 0.652891 0.692148 L 0.64875 0.692148 L 0.644609 0.696289 L 0.640508 0.70043 L 0.636367 0.704531 L 0.632227 0.704531 L 0.628086 0.708672 L 0.623984 0.708672 L 0.611563 0.721094 L 0.582656 0.721094 L 0.578516 0.725195 L 0.566133 0.725195 L 0.561992 0.729336 L 0.54957 0.729336 L 0.545469 0.733477 L 0.541328 0.737617 L 0.537187 0.741719 L 0.528906 0.741719 L 0.524805 0.745859 L 0.512383 0.745859 L 0.508281 0.741719 L 0.483477 0.741719 L 0.479336 0.737617 L 0.458672 0.737617 L 0.454531 0.741719 L 0.446289 0.741719 L 0.442148 0.745859 L 0.429766 0.745859 L 0.425625 0.741719 L 0.409102 0.741719 L 0.404961 0.737617 L 0.392578 0.737617 L 0.388437 0.733477 L 0.380156 0.733477 L 0.376016 0.729336 L 0.347109 0.729336 L 0.342969 0.725195 L 0.338828 0.721094 L 0.326445 0.721094 L 0.322305 0.716953 L 0.318164 0.716953 L 0.314063 0.712813 L 0.309922 0.712813 L 0.297539 0.70043 L 0.264453 0.70043 L 0.260312 0.696289 L 0.256211 0.696289 L 0.243789 0.683867 L 0.235547 0.683867 L 0.231406 0.679766 L 0.227266 0.679766 L 0.223125 0.675625 L 0.223125 0.671484 L 0.219023 0.667344 L 0.214883 0.663242 L 0.210742 0.663242 L 0.202461 0.654961 L 0.198359 0.65082 L 0.194219 0.65082 L 0.190078 0.64668 L 0.190078 0.642578 L 0.185938 0.638438 L 0.181836 0.634297 L 0.173555 0.626016 L 0.169414 0.621914 L 0.165273 0.617773 L 0.161172 0.613633 L 0.157031 0.609492 L 0.152891 0.605391 L 0.144609 0.597109 L 0.140508 0.597109 L 0.132227 0.588828 L 0.128086 0.588828 L 0.123984 0.584727 L 0.123984 0.580586 L 0.111563 0.568164 L 0.107422 0.564062 L 0.107422 0.559922 L 0.10332 0.555781 L 0.0991797 0.555781 L 0.0950391 0.551641 L 0.0908984 0.547539 L 0.0867578 0.547539 L 0.0867578 0.543398 L 0.0826563 0.539258 L 0.074375 0.530977 L 0.0702344 0.530977 L 0.0661328 0.526875 L 0.0661328 0.522734 L 0.0578516 0.514453 L 0.0495703 0.514453 L 0.0454687 0.510312 L 0.0454687 0.50207 Z M 0.0454687 0.49793 " transform="matrix(100,0,0,100,150,200)"/>
<path style="fill:none;stroke-width:0.01;stroke-linecap:butt;stroke-linejoin:miter;stroke:rgb(0%,0%,0%);stroke-opacity:1;stroke-miterlimit:10;" d="M 0.0454687 0.448047 L 0.0497656 0.443711 L 0.0541016 0.439375 L 0.0584375 0.435078 L 0.0714453 0.435078 L 0.0757422 0.430742 L 0.0800781 0.430742 L 0.0844141 0.426406 L 0.08875 0.426406 L 0.0930859 0.42207 L 0.0974219 0.42207 L 0.101719 0.417734 L 0.106055 0.413438 L 0.110391 0.409102 L 0.114727 0.409102 L 0.119063 0.404766 L 0.123359 0.404766 L 0.136367 0.391758 L 0.140703 0.387461 L 0.140703 0.383125 L 0.145039 0.378789 L 0.149336 0.378789 L 0.153672 0.374453 L 0.153672 0.370117 L 0.158008 0.36582 L 0.162344 0.36582 L 0.16668 0.361484 L 0.170977 0.357148 L 0.183984 0.344141 L 0.18832 0.339844 L 0.192656 0.335508 L 0.196953 0.331172 L 0.201289 0.331172 L 0.205625 0.326836 L 0.209961 0.326836 L 0.214297 0.3225 L 0.218633 0.3225 L 0.22293 0.318164 L 0.227266 0.313867 L 0.231602 0.313867 L 0.240273 0.305195 L 0.24457 0.300859 L 0.248906 0.296523 L 0.253242 0.292227 L 0.257578 0.287891 L 0.270547 0.287891 L 0.279219 0.279219 L 0.283555 0.279219 L 0.287891 0.274883 L 0.296523 0.274883 L 0.300859 0.270547 L 0.305195 0.270547 L 0.309531 0.26625 L 0.313867 0.26625 L 0.318164 0.261914 L 0.3225 0.257578 L 0.3225 0.253242 L 0.348477 0.253242 L 0.352813 0.248906 L 0.36582 0.248906 L 0.370117 0.24457 L 0.374453 0.24457 L 0.378789 0.240273 L 0.391758 0.240273 L 0.396094 0.235937 L 0.40043 0.235937 L 0.409102 0.227266 L 0.448047 0.227266 L 0.452383 0.231602 L 0.461055 0.231602 L 0.465352 0.235937 L 0.474023 0.235937 L 0.478359 0.240273 L 0.482695 0.240273 L 0.487031 0.24457 L 0.491328 0.24457 L 0.495664 0.248906 L 0.5 0.248906 L 0.504336 0.253242 L 0.538945 0.253242 L 0.543281 0.257578 L 0.547617 0.257578 L 0.556289 0.26625 L 0.560625 0.26625 L 0.569258 0.274883 L 0.573594 0.274883 L 0.57793 0.279219 L 0.582266 0.279219 L 0.586562 0.283555 L 0.590898 0.287891 L 0.59957 0.287891 L 0.603906 0.292227 L 0.608242 0.296523 L 0.612539 0.296523 L 0.629883 0.313867 L 0.63418 0.313867 L 0.638516 0.318164 L 0.655859 0.335508 L 0.660156 0.339844 L 0.664492 0.344141 L 0.6775 0.357148 L 0.681836 0.357148 L 0.686133 0.361484 L 0.690469 0.36582 L 0.694805 0.370117 L 0.699141 0.370117 L 0.703477 0.374453 L 0.707773 0.378789 L 0.716445 0.387461 L 0.720781 0.391758 L 0.725117 0.391758 L 0.729453 0.396094 L 0.73375 0.40043 L 0.738086 0.404766 L 0.742422 0.404766 L 0.746758 0.409102 L 0.751094 0.409102 L 0.781367 0.439375 L 0.781367 0.443711 L 0.794375 0.456719 L 0.794375 0.461055 L 0.798711 0.465352 L 0.798711 0.469688 L 0.803047 0.474023 L 0.807344 0.478359 L 0.81168 0.482695 L 0.81168 0.487031 L 0.816016 0.491328 L 0.820352 0.491328 L 0.824688 0.495664 L 0.867969 0.495664 L 0.872305 0.491328 L 0.898281 0.491328 L 0.902578 0.487031 L 0.915586 0.487031 L 0.919922 0.482695 L 0.945898 0.482695 L 0.950234 0.487031 L 0.954531 0.487031 L 0.954531 0.5 L 0.950234 0.504336 L 0.945898 0.504336 L 0.941563 0.5 L 0.941563 0.495664 L 0.937227 0.491328 L 0.932891 0.491328 L 0.928555 0.495664 L 0.91125 0.495664 L 0.906914 0.5 L 0.872305 0.5 L 0.867969 0.504336 L 0.837656 0.504336 L 0.824688 0.517305 L 0.824688 0.521641 L 0.820352 0.525977 L 0.820352 0.530312 L 0.816016 0.534648 L 0.816016 0.538945 L 0.807344 0.547617 L 0.807344 0.551953 L 0.803047 0.556289 L 0.803047 0.560625 L 0.798711 0.564922 L 0.798711 0.569258 L 0.785703 0.582266 L 0.785703 0.586562 L 0.781367 0.590898 L 0.781367 0.595234 L 0.77707 0.59957 L 0.768398 0.608242 L 0.764063 0.612539 L 0.759727 0.616875 L 0.759727 0.621211 L 0.75543 0.625547 L 0.751094 0.629883 L 0.746758 0.63418 L 0.73375 0.647188 L 0.729453 0.651523 L 0.725117 0.655859 L 0.720781 0.660156 L 0.707773 0.673164 L 0.703477 0.673164 L 0.694805 0.681836 L 0.690469 0.686133 L 0.686133 0.690469 L 0.681836 0.690469 L 0.668828 0.703477 L 0.660156 0.703477 L 0.655859 0.707773 L 0.647188 0.707773 L 0.642852 0.712109 L 0.638516 0.712109 L 0.63418 0.716445 L 0.625547 0.716445 L 0.621211 0.720781 L 0.612539 0.720781 L 0.608242 0.725117 L 0.59957 0.725117 L 0.595234 0.729453 L 0.590898 0.729453 L 0.586562 0.73375 L 0.582266 0.738086 L 0.573594 0.738086 L 0.569258 0.742422 L 0.564922 0.742422 L 0.560625 0.746758 L 0.556289 0.746758 L 0.551953 0.751094 L 0.543281 0.751094 L 0.538945 0.75543 L 0.534648 0.75543 L 0.530312 0.759727 L 0.517305 0.759727 L 0.512969 0.764063 L 0.495664 0.764063 L 0.491328 0.759727 L 0.469688 0.759727 L 0.465352 0.764063 L 0.452383 0.764063 L 0.448047 0.768398 L 0.439375 0.768398 L 0.435078 0.772734 L 0.430742 0.768398 L 0.409102 0.768398 L 0.404766 0.764063 L 0.383125 0.764063 L 0.378789 0.759727 L 0.374453 0.75543 L 0.370117 0.751094 L 0.36582 0.751094 L 0.357148 0.742422 L 0.352813 0.742422 L 0.348477 0.738086 L 0.344141 0.738086 L 0.339844 0.73375 L 0.335508 0.73375 L 0.331172 0.729453 L 0.318164 0.716445 L 0.309531 0.716445 L 0.305195 0.712109 L 0.305195 0.707773 L 0.300859 0.703477 L 0.296523 0.699141 L 0.292227 0.694805 L 0.287891 0.690469 L 0.283555 0.690469 L 0.279219 0.686133 L 0.274883 0.681836 L 0.270547 0.6775 L 0.26625 0.673164 L 0.261914 0.673164 L 0.257578 0.668828 L 0.253242 0.668828 L 0.22293 0.638516 L 0.218633 0.63418 L 0.214297 0.629883 L 0.214297 0.625547 L 0.201289 0.612539 L 0.196953 0.608242 L 0.192656 0.603906 L 0.192656 0.59957 L 0.179648 0.586562 L 0.175312 0.582266 L 0.170977 0.57793 L 0.16668 0.573594 L 0.158008 0.564922 L 0.158008 0.560625 L 0.149336 0.551953 L 0.145039 0.547617 L 0.145039 0.543281 L 0.140703 0.538945 L 0.140703 0.534648 L 0.136367 0.530312 L 0.132031 0.530312 L 0.127695 0.525977 L 0.127695 0.521641 L 0.123359 0.517305 L 0.119063 0.517305 L 0.114727 0.512969 L 0.110391 0.508672 L 0.106055 0.504336 L 0.106055 0.5 L 0.101719 0.495664 L 0.0974219 0.491328 L 0.0930859 0.487031 L 0.0757422 0.469688 L 0.0714453 0.465352 L 0.0671094 0.465352 L 0.0627734 0.461055 L 0.0584375 0.456719 L 0.0497656 0.456719 L 0.0454687 0.452383 Z M 0.0454687 0.448047 " transform="matrix(100,0,0,100,300,200)"/>
<path style="fill:none;stroke-width:0.01;stroke-linecap:butt;stroke-linejoin:miter;stroke:rgb(0%,0%,0%);stroke-opacity:1;stroke-miterlimit:10;" d="M 0.0454688 0.480781 L 0.0497266 0.476523 L 0.0838672 0.476523 L 0.088125 0.472266 L 0.0924219 0.472266 L 0.0966797 0.468008 L 0.100937 0.463711 L 0.105195 0.459453 L 0.109492 0.455195 L 0.118008 0.455195 L 0.122266 0.450898 L 0.126563 0.450898 L 0.135078 0.442383 L 0.135078 0.433828 L 0.139336 0.42957 L 0.139336 0.425312 L 0.143633 0.421055 L 0.147891 0.421055 L 0.152148 0.416758 L 0.156406 0.4125 L 0.156406 0.408242 L 0.160703 0.403984 L 0.164961 0.399688 L 0.169219 0.399688 L 0.173477 0.39543 L 0.177773 0.391172 L 0.182031 0.386914 L 0.186289 0.382617 L 0.190586 0.378359 L 0.203359 0.378359 L 0.207656 0.374102 L 0.211914 0.369844 L 0.211914 0.361289 L 0.216172 0.357031 L 0.22043 0.357031 L 0.241797 0.335664 L 0.246055 0.335664 L 0.250312 0.331406 L 0.263125 0.331406 L 0.267383 0.327148 L 0.27168 0.327148 L 0.275938 0.322891 L 0.280195 0.318594 L 0.284453 0.314336 L 0.284453 0.30582 L 0.293008 0.30582 L 0.297266 0.301523 L 0.301523 0.297266 L 0.318594 0.297266 L 0.322891 0.293008 L 0.327148 0.293008 L 0.331406 0.28875 L 0.339961 0.28875 L 0.344219 0.284453 L 0.348477 0.280195 L 0.361289 0.280195 L 0.365547 0.275937 L 0.369844 0.275937 L 0.374102 0.27168 L 0.391172 0.27168 L 0.39543 0.267383 L 0.408242 0.267383 L 0.4125 0.263125 L 0.450898 0.263125 L 0.455195 0.258867 L 0.485078 0.258867 L 0.489336 0.263125 L 0.502148 0.263125 L 0.506406 0.267383 L 0.531992 0.267383 L 0.536289 0.27168 L 0.544805 0.27168 L 0.549102 0.275937 L 0.557617 0.275937 L 0.561875 0.280195 L 0.608828 0.280195 L 0.613086 0.284453 L 0.621641 0.284453 L 0.625898 0.28875 L 0.630156 0.28875 L 0.634453 0.293008 L 0.638711 0.293008 L 0.642969 0.297266 L 0.647266 0.297266 L 0.651523 0.301523 L 0.655781 0.30582 L 0.660039 0.30582 L 0.664336 0.310078 L 0.672852 0.318594 L 0.677109 0.322891 L 0.681406 0.322891 L 0.724063 0.365547 L 0.72832 0.369844 L 0.732617 0.374102 L 0.732617 0.378359 L 0.736875 0.382617 L 0.741133 0.386914 L 0.74543 0.391172 L 0.753945 0.399688 L 0.758203 0.403984 L 0.758203 0.408242 L 0.7625 0.4125 L 0.766758 0.416758 L 0.766758 0.421055 L 0.775273 0.42957 L 0.775273 0.438125 L 0.77957 0.442383 L 0.77957 0.446641 L 0.783828 0.450898 L 0.783828 0.455195 L 0.788086 0.459453 L 0.788086 0.468008 L 0.792344 0.472266 L 0.792344 0.476523 L 0.796641 0.480781 L 0.796641 0.485078 L 0.800898 0.489336 L 0.800898 0.493594 L 0.805156 0.497852 L 0.805156 0.502148 L 0.809414 0.506406 L 0.809414 0.510664 L 0.813711 0.514922 L 0.813711 0.523477 L 0.817969 0.527734 L 0.817969 0.531992 L 0.822227 0.536289 L 0.826523 0.540547 L 0.835039 0.540547 L 0.839297 0.544805 L 0.864922 0.544805 L 0.86918 0.549102 L 0.881992 0.549102 L 0.88625 0.553359 L 0.890508 0.553359 L 0.894805 0.557617 L 0.928945 0.557617 L 0.941758 0.544805 L 0.946016 0.544805 L 0.950273 0.549102 L 0.954531 0.553359 L 0.950273 0.557617 L 0.950273 0.561875 L 0.946016 0.561875 L 0.941758 0.566172 L 0.894805 0.566172 L 0.890508 0.561875 L 0.88625 0.561875 L 0.881992 0.557617 L 0.864922 0.557617 L 0.860664 0.553359 L 0.843594 0.553359 L 0.839297 0.549102 L 0.822227 0.549102 L 0.817969 0.544805 L 0.800898 0.544805 L 0.796641 0.549102 L 0.796641 0.553359 L 0.792344 0.557617 L 0.788086 0.561875 L 0.788086 0.566172 L 0.783828 0.57043 L 0.783828 0.574688 L 0.775273 0.583242 L 0.775273 0.5875 L 0.766758 0.596016 L 0.7625 0.600313 L 0.758203 0.60457 L 0.749688 0.613086 L 0.74543 0.617383 L 0.741133 0.621641 L 0.719805 0.642969 L 0.715547 0.647266 L 0.71125 0.651523 L 0.706992 0.651523 L 0.698477 0.660039 L 0.69418 0.660039 L 0.689922 0.664336 L 0.685664 0.668594 L 0.681406 0.668594 L 0.677109 0.672852 L 0.668594 0.672852 L 0.655781 0.685664 L 0.647266 0.685664 L 0.642969 0.689922 L 0.638711 0.689922 L 0.634453 0.69418 L 0.630156 0.69418 L 0.625898 0.698477 L 0.617383 0.698477 L 0.613086 0.702734 L 0.608828 0.706992 L 0.600313 0.706992 L 0.596016 0.71125 L 0.561875 0.71125 L 0.557617 0.715547 L 0.549102 0.715547 L 0.544805 0.719805 L 0.540547 0.719805 L 0.536289 0.724063 L 0.523477 0.724063 L 0.519219 0.72832 L 0.506406 0.72832 L 0.502148 0.732617 L 0.489336 0.732617 L 0.485078 0.736875 L 0.472266 0.736875 L 0.468008 0.741133 L 0.421055 0.741133 L 0.416758 0.736875 L 0.4125 0.741133 L 0.408242 0.736875 L 0.344219 0.736875 L 0.339961 0.732617 L 0.322891 0.732617 L 0.318594 0.72832 L 0.310078 0.72832 L 0.30582 0.724063 L 0.301523 0.724063 L 0.293008 0.715547 L 0.28875 0.715547 L 0.284453 0.71125 L 0.27168 0.71125 L 0.267383 0.706992 L 0.263125 0.702734 L 0.258867 0.702734 L 0.25457 0.698477 L 0.250312 0.698477 L 0.246055 0.69418 L 0.241797 0.69418 L 0.2375 0.689922 L 0.233242 0.689922 L 0.224727 0.681406 L 0.224727 0.677109 L 0.22043 0.672852 L 0.22043 0.668594 L 0.216172 0.664336 L 0.211914 0.660039 L 0.199102 0.660039 L 0.194844 0.655781 L 0.190586 0.655781 L 0.186289 0.651523 L 0.182031 0.647266 L 0.177773 0.647266 L 0.164961 0.634453 L 0.160703 0.630156 L 0.156406 0.630156 L 0.156406 0.621641 L 0.152148 0.617383 L 0.152148 0.608828 L 0.147891 0.60457 L 0.147891 0.600313 L 0.143633 0.596016 L 0.139336 0.591758 L 0.135078 0.591758 L 0.135078 0.5875 L 0.13082 0.583242 L 0.126563 0.578945 L 0.122266 0.574688 L 0.118008 0.57043 L 0.118008 0.549102 L 0.11375 0.544805 L 0.109492 0.540547 L 0.109492 0.536289 L 0.105195 0.531992 L 0.105195 0.527734 L 0.100937 0.523477 L 0.100937 0.519219 L 0.0966797 0.514922 L 0.0924219 0.510664 L 0.0753125 0.510664 L 0.0667969 0.502148 L 0.0625391 0.502148 L 0.0454688 0.485078 Z M 0.0454688 0.480781 " transform="matrix(100,0,0,100,450,200)"/>
<path style="fill:none;stroke-width:0.01;stroke-linecap:butt;stroke-linejoin:miter;stroke:rgb(0%,0%,0%);stroke-opacity:1;stroke-miterlimit:10;" d="M 0.0454688 0.522422 L 0.0495313 0.518359 L 0.0535938 0.514258 L 0.0658203 0.514258 L 0.0699219 0.510195 L 0.0739844 0.510195 L 0.0780859 0.506133 L 0.0821484 0.502031 L 0.0862109 0.497969 L 0.0903125 0.497969 L 0.094375 0.493867 L 0.0984375 0.489805 L 0.102539 0.485742 L 0.102539 0.477578 L 0.106602 0.473516 L 0.110664 0.473516 L 0.114766 0.469414 L 0.114766 0.465352 L 0.118828 0.461289 L 0.118828 0.453125 L 0.12293 0.449023 L 0.12293 0.444961 L 0.126992 0.444961 L 0.135156 0.436797 L 0.139219 0.436797 L 0.143281 0.432734 L 0.143281 0.428672 L 0.155508 0.416445 L 0.155508 0.412344 L 0.159609 0.408281 L 0.159609 0.40418 L 0.163672 0.400117 L 0.163672 0.396055 L 0.167734 0.391953 L 0.171836 0.387891 L 0.175898 0.383828 L 0.175898 0.371602 L 0.196289 0.351211 L 0.200352 0.347109 L 0.208516 0.347109 L 0.212578 0.343047 L 0.21668 0.343047 L 0.224844 0.334883 L 0.228906 0.334883 L 0.232969 0.33082 L 0.23707 0.326758 L 0.241133 0.322656 L 0.245195 0.318594 L 0.245195 0.314531 L 0.249297 0.31043 L 0.257422 0.31043 L 0.261523 0.306367 L 0.265586 0.302266 L 0.269687 0.302266 L 0.27375 0.298203 L 0.277813 0.298203 L 0.281914 0.294141 L 0.285977 0.294141 L 0.290039 0.290039 L 0.294141 0.294141 L 0.302266 0.294141 L 0.306367 0.290039 L 0.314531 0.290039 L 0.318594 0.285977 L 0.322656 0.285977 L 0.326758 0.281914 L 0.33082 0.277813 L 0.33082 0.27375 L 0.351211 0.27375 L 0.355273 0.269687 L 0.359375 0.269687 L 0.363437 0.265586 L 0.3675 0.265586 L 0.371602 0.261523 L 0.396055 0.261523 L 0.400117 0.257422 L 0.432734 0.257422 L 0.436797 0.253359 L 0.465352 0.253359 L 0.469414 0.257422 L 0.497969 0.257422 L 0.502031 0.261523 L 0.514258 0.261523 L 0.518359 0.265586 L 0.530586 0.265586 L 0.534648 0.269687 L 0.559102 0.269687 L 0.563203 0.27375 L 0.583555 0.27375 L 0.587656 0.277813 L 0.59582 0.277813 L 0.599883 0.281914 L 0.603945 0.281914 L 0.608047 0.285977 L 0.612109 0.290039 L 0.616172 0.290039 L 0.624336 0.298203 L 0.628398 0.298203 L 0.6325 0.302266 L 0.636563 0.306367 L 0.640625 0.306367 L 0.644727 0.31043 L 0.648789 0.31043 L 0.652891 0.314531 L 0.656953 0.314531 L 0.661016 0.318594 L 0.665117 0.322656 L 0.66918 0.326758 L 0.673242 0.33082 L 0.677344 0.33082 L 0.681406 0.334883 L 0.681406 0.338984 L 0.685469 0.343047 L 0.68957 0.343047 L 0.701797 0.355273 L 0.705859 0.359375 L 0.709961 0.363437 L 0.714023 0.3675 L 0.718086 0.371602 L 0.722188 0.371602 L 0.722188 0.375664 L 0.72625 0.379727 L 0.730313 0.379727 L 0.738477 0.387891 L 0.738477 0.391953 L 0.758867 0.412344 L 0.758867 0.416445 L 0.76293 0.420508 L 0.767031 0.42457 L 0.767031 0.428672 L 0.771094 0.432734 L 0.771094 0.436797 L 0.775156 0.440898 L 0.775156 0.444961 L 0.779258 0.449023 L 0.779258 0.453125 L 0.787422 0.461289 L 0.787422 0.465352 L 0.791484 0.469414 L 0.795547 0.473516 L 0.795547 0.477578 L 0.799648 0.481641 L 0.803711 0.485742 L 0.803711 0.489805 L 0.807773 0.493867 L 0.807773 0.497969 L 0.811875 0.502031 L 0.811875 0.510195 L 0.815938 0.514258 L 0.82 0.518359 L 0.824102 0.522422 L 0.840391 0.522422 L 0.844492 0.526484 L 0.897461 0.526484 L 0.901562 0.530586 L 0.926016 0.530586 L 0.930078 0.534648 L 0.93418 0.534648 L 0.938242 0.530586 L 0.942305 0.526484 L 0.954531 0.526484 L 0.954531 0.538711 L 0.950469 0.542813 L 0.913789 0.542813 L 0.909688 0.538711 L 0.905625 0.542813 L 0.901562 0.538711 L 0.87707 0.538711 L 0.873008 0.534648 L 0.848555 0.534648 L 0.844492 0.530586 L 0.832266 0.530586 L 0.828164 0.526484 L 0.791484 0.526484 L 0.787422 0.530586 L 0.787422 0.538711 L 0.746641 0.579492 L 0.746641 0.583555 L 0.742578 0.587656 L 0.738477 0.591719 L 0.734414 0.59582 L 0.730313 0.599883 L 0.72625 0.603945 L 0.722188 0.608047 L 0.718086 0.612109 L 0.714023 0.616172 L 0.709961 0.620273 L 0.705859 0.620273 L 0.693633 0.6325 L 0.68957 0.6325 L 0.685469 0.636563 L 0.681406 0.640625 L 0.677344 0.644727 L 0.673242 0.648789 L 0.66918 0.648789 L 0.665117 0.652891 L 0.661016 0.656953 L 0.656953 0.656953 L 0.652891 0.661016 L 0.648789 0.661016 L 0.644727 0.665117 L 0.640625 0.665117 L 0.636563 0.66918 L 0.6325 0.66918 L 0.628398 0.673242 L 0.624336 0.677344 L 0.620273 0.677344 L 0.616172 0.681406 L 0.612109 0.681406 L 0.608047 0.685469 L 0.599883 0.685469 L 0.59582 0.68957 L 0.591719 0.693633 L 0.579492 0.693633 L 0.57543 0.697734 L 0.571328 0.697734 L 0.567266 0.701797 L 0.546875 0.701797 L 0.542813 0.705859 L 0.538711 0.705859 L 0.534648 0.709961 L 0.530586 0.709961 L 0.526484 0.714023 L 0.522422 0.714023 L 0.518359 0.718086 L 0.514258 0.718086 L 0.510195 0.722187 L 0.502031 0.722187 L 0.497969 0.72625 L 0.493867 0.72625 L 0.489805 0.730313 L 0.485742 0.730313 L 0.481641 0.734414 L 0.477578 0.734414 L 0.473516 0.738477 L 0.457187 0.738477 L 0.453125 0.742578 L 0.440898 0.742578 L 0.436797 0.746641 L 0.432734 0.742578 L 0.428672 0.746641 L 0.420508 0.746641 L 0.416445 0.742578 L 0.40418 0.742578 L 0.400117 0.738477 L 0.387891 0.738477 L 0.383828 0.742578 L 0.359375 0.742578 L 0.355273 0.746641 L 0.326758 0.746641 L 0.322656 0.742578 L 0.306367 0.742578 L 0.302266 0.738477 L 0.298203 0.738477 L 0.294141 0.734414 L 0.290039 0.734414 L 0.285977 0.730313 L 0.281914 0.72625 L 0.277813 0.722187 L 0.245195 0.722187 L 0.241133 0.718086 L 0.232969 0.718086 L 0.220742 0.705859 L 0.21668 0.705859 L 0.212578 0.701797 L 0.212578 0.697734 L 0.208516 0.693633 L 0.208516 0.68957 L 0.204453 0.685469 L 0.200352 0.681406 L 0.188125 0.681406 L 0.184063 0.677344 L 0.18 0.677344 L 0.175898 0.673242 L 0.167734 0.673242 L 0.143281 0.648789 L 0.143281 0.644727 L 0.139219 0.640625 L 0.139219 0.6325 L 0.135156 0.628398 L 0.135156 0.624336 L 0.131055 0.620273 L 0.126992 0.616172 L 0.12293 0.612109 L 0.12293 0.608047 L 0.118828 0.603945 L 0.118828 0.599883 L 0.114766 0.59582 L 0.110664 0.59582 L 0.106602 0.591719 L 0.106602 0.587656 L 0.102539 0.583555 L 0.102539 0.579492 L 0.0984375 0.57543 L 0.094375 0.571328 L 0.0903125 0.567266 L 0.0903125 0.563203 L 0.0821484 0.555039 L 0.0821484 0.550977 L 0.0780859 0.546875 L 0.0739844 0.546875 L 0.0658203 0.538711 L 0.0617578 0.538711 L 0.0576953 0.534648 L 0.0535938 0.534648 L 0.0495313 0.530586 L 0.0454688 0.530586 L 0.0454688 0.526484 Z M 0.0454688 0.522422 " transform="matrix(100,0,0,100,600,200)"/>
<path style="fill:none;stroke-width:0.01;stroke-linecap:butt;stroke-linejoin:miter;stroke:rgb(0%,0%,0%);stroke-opacity:1;stroke-miterlimit:10;" d="M 0.0454688 0.514414 L 0.0495703 0.510273 L 0.0495703 0.506172 L 0.0536719 0.50207 L 0.0578125 0.50207 L 0.0619141 0.49793 L 0.0660156 0.493828 L 0.0701172 0.493828 L 0.0742578 0.489727 L 0.0742578 0.485586 L 0.0783594 0.485586 L 0.0824609 0.481484 L 0.0907031 0.481484 L 0.0948047 0.477383 L 0.0989453 0.473281 L 0.103047 0.469141 L 0.107148 0.465039 L 0.111289 0.460938 L 0.115391 0.456797 L 0.119492 0.452695 L 0.123594 0.452695 L 0.127734 0.448594 L 0.131836 0.444453 L 0.135938 0.440352 L 0.140078 0.440352 L 0.14418 0.43625 L 0.148281 0.432109 L 0.148281 0.428008 L 0.152422 0.423906 L 0.156523 0.419805 L 0.160625 0.415664 L 0.160625 0.411563 L 0.164766 0.407461 L 0.172969 0.407461 L 0.17707 0.40332 L 0.181211 0.399219 L 0.185312 0.395117 L 0.189414 0.390977 L 0.193555 0.386875 L 0.197656 0.382773 L 0.201758 0.378633 L 0.205898 0.374531 L 0.205898 0.366328 L 0.21 0.366328 L 0.214102 0.362188 L 0.218242 0.358086 L 0.222344 0.353984 L 0.226445 0.353984 L 0.230547 0.349844 L 0.234687 0.349844 L 0.242891 0.341641 L 0.247031 0.341641 L 0.251133 0.3375 L 0.255234 0.3375 L 0.259375 0.333398 L 0.263477 0.329297 L 0.267578 0.325156 L 0.292266 0.325156 L 0.296367 0.321055 L 0.300508 0.321055 L 0.304609 0.316953 L 0.312852 0.316953 L 0.316953 0.312852 L 0.325156 0.312852 L 0.329297 0.308711 L 0.3375 0.308711 L 0.341641 0.304609 L 0.358086 0.304609 L 0.362187 0.300508 L 0.366328 0.300508 L 0.37043 0.296367 L 0.382773 0.296367 L 0.386875 0.292266 L 0.432109 0.292266 L 0.43625 0.288164 L 0.440352 0.288164 L 0.444453 0.292266 L 0.448594 0.292266 L 0.452695 0.296367 L 0.465039 0.296367 L 0.469141 0.300508 L 0.489727 0.300508 L 0.493828 0.304609 L 0.49793 0.300508 L 0.50207 0.304609 L 0.506172 0.304609 L 0.510273 0.300508 L 0.534961 0.300508 L 0.539062 0.304609 L 0.543203 0.304609 L 0.547305 0.308711 L 0.551406 0.312852 L 0.56375 0.312852 L 0.567891 0.316953 L 0.571992 0.316953 L 0.576094 0.321055 L 0.580195 0.321055 L 0.584336 0.325156 L 0.588438 0.325156 L 0.592539 0.329297 L 0.600781 0.329297 L 0.604883 0.333398 L 0.609023 0.3375 L 0.613125 0.3375 L 0.617227 0.341641 L 0.621367 0.345742 L 0.625469 0.349844 L 0.62957 0.349844 L 0.633672 0.353984 L 0.637813 0.358086 L 0.641914 0.358086 L 0.654258 0.37043 L 0.658359 0.37043 L 0.6625 0.374531 L 0.666602 0.378633 L 0.670703 0.378633 L 0.683047 0.390977 L 0.687148 0.390977 L 0.695391 0.399219 L 0.699492 0.399219 L 0.703633 0.40332 L 0.707734 0.407461 L 0.711836 0.411563 L 0.715977 0.415664 L 0.720078 0.415664 L 0.72418 0.419805 L 0.72832 0.423906 L 0.736523 0.432109 L 0.740625 0.43625 L 0.744766 0.440352 L 0.748867 0.444453 L 0.752969 0.444453 L 0.769453 0.460938 L 0.773555 0.460938 L 0.781758 0.469141 L 0.785898 0.469141 L 0.79 0.473281 L 0.794102 0.477383 L 0.798242 0.477383 L 0.806445 0.485586 L 0.810586 0.485586 L 0.814688 0.489727 L 0.818789 0.489727 L 0.82293 0.485586 L 0.938086 0.485586 L 0.942188 0.481484 L 0.954531 0.481484 L 0.954531 0.489727 L 0.95043 0.489727 L 0.946328 0.493828 L 0.785898 0.493828 L 0.781758 0.49793 L 0.777656 0.49793 L 0.773555 0.50207 L 0.769453 0.506172 L 0.765313 0.510273 L 0.761211 0.514414 L 0.757109 0.518516 L 0.752969 0.518516 L 0.732422 0.539062 L 0.72832 0.539062 L 0.711836 0.555547 L 0.707734 0.555547 L 0.703633 0.559648 L 0.699492 0.559648 L 0.695391 0.56375 L 0.691289 0.567891 L 0.687148 0.571992 L 0.683047 0.571992 L 0.670703 0.584336 L 0.666602 0.584336 L 0.6625 0.588438 L 0.658359 0.588438 L 0.654258 0.592539 L 0.650156 0.592539 L 0.646016 0.59668 L 0.641914 0.59668 L 0.637813 0.600781 L 0.633672 0.604883 L 0.62957 0.609023 L 0.625469 0.609023 L 0.621367 0.613125 L 0.617227 0.617227 L 0.613125 0.621367 L 0.609023 0.625469 L 0.604883 0.62957 L 0.600781 0.633672 L 0.59668 0.637812 L 0.592539 0.637812 L 0.588438 0.641914 L 0.584336 0.641914 L 0.580195 0.646016 L 0.576094 0.646016 L 0.571992 0.650156 L 0.56375 0.650156 L 0.559648 0.654258 L 0.555547 0.654258 L 0.551406 0.658359 L 0.534961 0.658359 L 0.530859 0.6625 L 0.518516 0.6625 L 0.514414 0.666602 L 0.510273 0.666602 L 0.506172 0.670703 L 0.50207 0.674844 L 0.49793 0.674844 L 0.489727 0.683047 L 0.485586 0.683047 L 0.481484 0.687148 L 0.473281 0.687148 L 0.469141 0.691289 L 0.465039 0.691289 L 0.460938 0.695391 L 0.452695 0.695391 L 0.448594 0.699492 L 0.432109 0.699492 L 0.428008 0.703633 L 0.423906 0.703633 L 0.419805 0.707734 L 0.378633 0.707734 L 0.374531 0.711836 L 0.321055 0.711836 L 0.316953 0.707734 L 0.312852 0.707734 L 0.308711 0.703633 L 0.296367 0.703633 L 0.292266 0.699492 L 0.279922 0.699492 L 0.27582 0.695391 L 0.27168 0.691289 L 0.267578 0.687148 L 0.251133 0.687148 L 0.247031 0.683047 L 0.242891 0.678945 L 0.238789 0.674844 L 0.234687 0.670703 L 0.230547 0.670703 L 0.226445 0.666602 L 0.222344 0.666602 L 0.218242 0.6625 L 0.21 0.6625 L 0.205898 0.658359 L 0.201758 0.658359 L 0.193555 0.650156 L 0.185312 0.650156 L 0.181211 0.646016 L 0.181211 0.641914 L 0.17707 0.637812 L 0.172969 0.633672 L 0.168867 0.633672 L 0.164766 0.62957 L 0.160625 0.625469 L 0.156523 0.621367 L 0.152422 0.617227 L 0.148281 0.613125 L 0.14418 0.609023 L 0.140078 0.604883 L 0.135938 0.600781 L 0.135938 0.592539 L 0.123594 0.580195 L 0.123594 0.576094 L 0.115391 0.567891 L 0.111289 0.56375 L 0.107148 0.56375 L 0.107148 0.559648 L 0.103047 0.555547 L 0.0989453 0.551406 L 0.0948047 0.547305 L 0.0907031 0.543203 L 0.0907031 0.539062 L 0.0866016 0.534961 L 0.0824609 0.530859 L 0.0742578 0.530859 L 0.0701172 0.526719 L 0.0660156 0.526719 L 0.0619141 0.522617 L 0.0495703 0.522617 L 0.0454688 0.518516 Z M 0.0454688 0.514414 " transform="matrix(100,0,0,100,0,350)"/>
<path style="fill:none;stroke-width:0.01;stroke-linecap:butt;stroke-linejoin:miter;stroke:rgb(0%,0%,0%);stroke-opacity:1;stroke-miterlimit:10;" d="M 0.0454687 0.449922 L 0.0494531 0.449922 L 0.0534766 0.445937 L 0.0574609 0.445937 L 0.0614844 0.441914 L 0.0814844 0.441914 L 0.0855078 0.43793 L 0.0894922 0.43793 L 0.0935156 0.433906 L 0.0935156 0.429922 L 0.0975 0.429922 L 0.101523 0.425898 L 0.105508 0.425898 L 0.109531 0.421914 L 0.113555 0.417891 L 0.117539 0.417891 L 0.121563 0.413906 L 0.125547 0.409883 L 0.125547 0.405898 L 0.137578 0.393867 L 0.141563 0.393867 L 0.145586 0.389883 L 0.14957 0.385859 L 0.153594 0.385859 L 0.157578 0.381875 L 0.157578 0.377852 L 0.161602 0.373867 L 0.161602 0.369844 L 0.165586 0.36582 L 0.169609 0.361836 L 0.173594 0.361836 L 0.177617 0.357813 L 0.181602 0.357813 L 0.185625 0.353828 L 0.189609 0.349805 L 0.193633 0.34582 L 0.197656 0.34582 L 0.201641 0.341797 L 0.201641 0.337813 L 0.213672 0.325781 L 0.217656 0.325781 L 0.22168 0.321797 L 0.22168 0.317773 L 0.225664 0.317773 L 0.229688 0.313789 L 0.233672 0.313789 L 0.24168 0.305781 L 0.245703 0.305781 L 0.249688 0.301758 L 0.253711 0.297773 L 0.257695 0.29375 L 0.261719 0.289766 L 0.265703 0.285742 L 0.269727 0.289766 L 0.273711 0.285742 L 0.277734 0.285742 L 0.281719 0.281719 L 0.285742 0.277734 L 0.289766 0.273711 L 0.305781 0.273711 L 0.309766 0.269727 L 0.313789 0.269727 L 0.317773 0.265703 L 0.321797 0.261719 L 0.325781 0.257695 L 0.329805 0.253711 L 0.34582 0.253711 L 0.349805 0.249688 L 0.36582 0.249688 L 0.369844 0.245703 L 0.373867 0.245703 L 0.377852 0.249688 L 0.389883 0.249688 L 0.393867 0.253711 L 0.461953 0.253711 L 0.465977 0.257695 L 0.477969 0.257695 L 0.481992 0.261719 L 0.485977 0.261719 L 0.49 0.265703 L 0.493984 0.269727 L 0.498008 0.269727 L 0.501992 0.273711 L 0.506016 0.273711 L 0.51 0.277734 L 0.514023 0.281719 L 0.522031 0.281719 L 0.526016 0.285742 L 0.542031 0.285742 L 0.546055 0.289766 L 0.550078 0.289766 L 0.554063 0.29375 L 0.56207 0.29375 L 0.570078 0.301758 L 0.574102 0.301758 L 0.578086 0.305781 L 0.582109 0.309766 L 0.586094 0.313789 L 0.590117 0.313789 L 0.594102 0.317773 L 0.598125 0.317773 L 0.602109 0.321797 L 0.606133 0.325781 L 0.610117 0.329805 L 0.614141 0.333789 L 0.618125 0.337813 L 0.622148 0.341797 L 0.626133 0.34582 L 0.630156 0.349805 L 0.650195 0.369844 L 0.65418 0.373867 L 0.658203 0.373867 L 0.686211 0.401875 L 0.690234 0.401875 L 0.694219 0.405898 L 0.698242 0.409883 L 0.702227 0.413906 L 0.70625 0.417891 L 0.710234 0.421914 L 0.714258 0.425898 L 0.718281 0.429922 L 0.722266 0.429922 L 0.726289 0.433906 L 0.730273 0.43793 L 0.734297 0.43793 L 0.750313 0.453945 L 0.754297 0.457969 L 0.75832 0.457969 L 0.774336 0.473984 L 0.77832 0.473984 L 0.782344 0.477969 L 0.786328 0.477969 L 0.798359 0.49 L 0.842422 0.49 L 0.846406 0.485977 L 0.858437 0.485977 L 0.862422 0.481992 L 0.882461 0.481992 L 0.886445 0.477969 L 0.9025 0.477969 L 0.906484 0.473984 L 0.942539 0.473984 L 0.954531 0.485977 L 0.954531 0.49 L 0.950547 0.493984 L 0.942539 0.493984 L 0.938516 0.49 L 0.934531 0.485977 L 0.930508 0.481992 L 0.926523 0.481992 L 0.9225 0.485977 L 0.918516 0.481992 L 0.914492 0.485977 L 0.886445 0.485977 L 0.882461 0.49 L 0.87043 0.49 L 0.866445 0.493984 L 0.838398 0.493984 L 0.834414 0.498008 L 0.830391 0.501992 L 0.826406 0.506016 L 0.822383 0.51 L 0.822383 0.514023 L 0.810391 0.526016 L 0.810391 0.530039 L 0.806367 0.534023 L 0.806367 0.538047 L 0.802344 0.542031 L 0.798359 0.546055 L 0.782344 0.56207 L 0.782344 0.566094 L 0.77832 0.570078 L 0.774336 0.574102 L 0.770313 0.578086 L 0.770313 0.582109 L 0.75832 0.594102 L 0.75832 0.598125 L 0.754297 0.602109 L 0.750313 0.606133 L 0.746289 0.610117 L 0.742305 0.614141 L 0.742305 0.618125 L 0.730273 0.630156 L 0.730273 0.63418 L 0.714258 0.650195 L 0.710234 0.65418 L 0.70625 0.65418 L 0.694219 0.666211 L 0.690234 0.666211 L 0.686211 0.670195 L 0.682227 0.674219 L 0.678203 0.674219 L 0.674219 0.678203 L 0.670195 0.678203 L 0.666211 0.682227 L 0.662187 0.682227 L 0.658203 0.686211 L 0.650195 0.686211 L 0.646172 0.690234 L 0.642187 0.690234 L 0.638164 0.694219 L 0.63418 0.694219 L 0.630156 0.698242 L 0.626133 0.702227 L 0.622148 0.702227 L 0.614141 0.710234 L 0.610117 0.710234 L 0.606133 0.714258 L 0.602109 0.714258 L 0.598125 0.718281 L 0.594102 0.722266 L 0.590117 0.726289 L 0.582109 0.726289 L 0.578086 0.730273 L 0.574102 0.730273 L 0.570078 0.734297 L 0.56207 0.734297 L 0.558086 0.738281 L 0.554063 0.738281 L 0.550078 0.742305 L 0.522031 0.742305 L 0.518008 0.746289 L 0.506016 0.746289 L 0.501992 0.742305 L 0.493984 0.742305 L 0.49 0.746289 L 0.485977 0.746289 L 0.481992 0.750312 L 0.469961 0.750312 L 0.465977 0.754297 L 0.413906 0.754297 L 0.409883 0.750312 L 0.405898 0.750312 L 0.397891 0.742305 L 0.381875 0.742305 L 0.377852 0.738281 L 0.373867 0.738281 L 0.369844 0.734297 L 0.357813 0.734297 L 0.353828 0.730273 L 0.333789 0.730273 L 0.317773 0.714258 L 0.313789 0.710234 L 0.309766 0.710234 L 0.305781 0.70625 L 0.301758 0.70625 L 0.297773 0.702227 L 0.29375 0.702227 L 0.285742 0.694219 L 0.273711 0.694219 L 0.269727 0.690234 L 0.265703 0.690234 L 0.261719 0.686211 L 0.261719 0.678203 L 0.257695 0.674219 L 0.253711 0.670195 L 0.249688 0.670195 L 0.245703 0.666211 L 0.245703 0.662187 L 0.24168 0.658203 L 0.237695 0.658203 L 0.229688 0.650195 L 0.225664 0.650195 L 0.22168 0.646172 L 0.217656 0.646172 L 0.209648 0.638164 L 0.209648 0.63418 L 0.205664 0.630156 L 0.201641 0.626133 L 0.197656 0.626133 L 0.197656 0.622148 L 0.193633 0.618125 L 0.189609 0.614141 L 0.185625 0.610117 L 0.181602 0.610117 L 0.181602 0.606133 L 0.177617 0.602109 L 0.173594 0.598125 L 0.169609 0.594102 L 0.165586 0.590117 L 0.161602 0.586094 L 0.161602 0.582109 L 0.157578 0.578086 L 0.157578 0.574102 L 0.153594 0.570078 L 0.14957 0.566094 L 0.145586 0.56207 L 0.141563 0.558086 L 0.137578 0.554062 L 0.133555 0.550078 L 0.12957 0.546055 L 0.12957 0.542031 L 0.125547 0.538047 L 0.121563 0.538047 L 0.121563 0.534023 L 0.117539 0.530039 L 0.113555 0.526016 L 0.109531 0.522031 L 0.101523 0.514023 L 0.101523 0.51 L 0.0975 0.506016 L 0.0935156 0.501992 L 0.0894922 0.501992 L 0.0894922 0.498008 L 0.0855078 0.493984 L 0.0855078 0.49 L 0.0734766 0.477969 L 0.0694922 0.477969 L 0.0654687 0.473984 L 0.0614844 0.473984 L 0.0574609 0.469961 L 0.0534766 0.469961 L 0.0494531 0.465977 L 0.0454687 0.461953 L 0.0454687 0.453945 Z M 0.0454687 0.449922 " transform="matrix(100,0,0,100,150,350)"/>
<path style="fill:none;stroke-width:0.01;stroke-linecap:butt;stroke-linejoin:miter;stroke:rgb(0%,0%,0%);stroke-opacity:1;stroke-miterlimit:10;" d="M 0.0454687 0.615195 L 0.0496484 0.611016 L 0.0496484 0.606836 L 0.0538281 0.602656 L 0.0538281 0.598438 L 0.0580078 0.598438 L 0.0622266 0.594258 L 0.0705859 0.585898 L 0.0747656 0.58168 L 0.0789844 0.5775 L 0.0831641 0.57332 L 0.0831641 0.552383 L 0.0873438 0.548164 L 0.0915234 0.543984 L 0.0915234 0.539805 L 0.0957422 0.535625 L 0.0957422 0.531406 L 0.0999219 0.527227 L 0.0999219 0.523047 L 0.104102 0.518867 L 0.104102 0.514648 L 0.108281 0.510469 L 0.1125 0.506289 L 0.1125 0.502109 L 0.11668 0.497891 L 0.125039 0.489531 L 0.125039 0.485352 L 0.129258 0.481133 L 0.133437 0.481133 L 0.137617 0.476953 L 0.137617 0.451836 L 0.141797 0.447617 L 0.146016 0.443437 L 0.146016 0.439258 L 0.150195 0.435078 L 0.150195 0.430859 L 0.158555 0.4225 L 0.162773 0.41832 L 0.166953 0.414102 L 0.171133 0.409922 L 0.171133 0.401563 L 0.175312 0.397344 L 0.175312 0.376406 L 0.179531 0.372227 L 0.183711 0.368047 L 0.187891 0.368047 L 0.19207 0.363828 L 0.196289 0.359648 L 0.204648 0.351289 L 0.208828 0.34707 L 0.213047 0.34707 L 0.221406 0.338711 L 0.225586 0.338711 L 0.229805 0.334531 L 0.233984 0.334531 L 0.238164 0.330313 L 0.242344 0.326133 L 0.242344 0.317773 L 0.246563 0.313555 L 0.246563 0.309375 L 0.250742 0.309375 L 0.254922 0.305195 L 0.26332 0.305195 L 0.2675 0.301016 L 0.27168 0.301016 L 0.275859 0.296797 L 0.280078 0.296797 L 0.284258 0.292617 L 0.292617 0.292617 L 0.296797 0.288438 L 0.305195 0.288438 L 0.313555 0.280078 L 0.317773 0.280078 L 0.321953 0.275859 L 0.326133 0.275859 L 0.330313 0.27168 L 0.334531 0.2675 L 0.338711 0.26332 L 0.338711 0.259102 L 0.342891 0.254922 L 0.351289 0.254922 L 0.355469 0.250742 L 0.380586 0.250742 L 0.384805 0.246563 L 0.42668 0.246563 L 0.430859 0.242344 L 0.435078 0.242344 L 0.439258 0.238164 L 0.506289 0.238164 L 0.510469 0.242344 L 0.523047 0.242344 L 0.527227 0.246563 L 0.535625 0.246563 L 0.539805 0.250742 L 0.548164 0.250742 L 0.552383 0.254922 L 0.556563 0.254922 L 0.560742 0.259102 L 0.569141 0.259102 L 0.57332 0.26332 L 0.58168 0.26332 L 0.585898 0.2675 L 0.598438 0.2675 L 0.602656 0.27168 L 0.619414 0.27168 L 0.623594 0.275859 L 0.640352 0.275859 L 0.644531 0.280078 L 0.673867 0.280078 L 0.678047 0.284258 L 0.690625 0.284258 L 0.698984 0.292617 L 0.707383 0.292617 L 0.711562 0.296797 L 0.715742 0.296797 L 0.719922 0.301016 L 0.724141 0.301016 L 0.72832 0.305195 L 0.7325 0.305195 L 0.73668 0.309375 L 0.745078 0.309375 L 0.749258 0.313555 L 0.753437 0.317773 L 0.757656 0.321953 L 0.761836 0.326133 L 0.766016 0.326133 L 0.770195 0.330313 L 0.774414 0.330313 L 0.778594 0.334531 L 0.782773 0.334531 L 0.786953 0.338711 L 0.791172 0.342891 L 0.795352 0.34707 L 0.799531 0.351289 L 0.803711 0.351289 L 0.80793 0.355469 L 0.812109 0.359648 L 0.824688 0.359648 L 0.833047 0.351289 L 0.849805 0.351289 L 0.853984 0.34707 L 0.862383 0.34707 L 0.866563 0.342891 L 0.870742 0.342891 L 0.874961 0.338711 L 0.8875 0.338711 L 0.891719 0.334531 L 0.895898 0.334531 L 0.900078 0.330313 L 0.912656 0.330313 L 0.916836 0.326133 L 0.921016 0.326133 L 0.925234 0.321953 L 0.929414 0.321953 L 0.933594 0.317773 L 0.937773 0.313555 L 0.941992 0.309375 L 0.941992 0.305195 L 0.946172 0.301016 L 0.950352 0.301016 L 0.954531 0.305195 L 0.954531 0.313555 L 0.950352 0.317773 L 0.941992 0.326133 L 0.937773 0.330313 L 0.933594 0.334531 L 0.925234 0.334531 L 0.921016 0.338711 L 0.912656 0.338711 L 0.908477 0.342891 L 0.895898 0.342891 L 0.891719 0.34707 L 0.874961 0.34707 L 0.866563 0.355469 L 0.858203 0.355469 L 0.853984 0.359648 L 0.845625 0.359648 L 0.837227 0.368047 L 0.837227 0.384805 L 0.833047 0.388984 L 0.833047 0.405742 L 0.828867 0.409922 L 0.828867 0.4225 L 0.824688 0.42668 L 0.824688 0.435078 L 0.820469 0.439258 L 0.824688 0.443437 L 0.820469 0.447617 L 0.820469 0.456016 L 0.816289 0.460195 L 0.816289 0.464375 L 0.812109 0.468594 L 0.812109 0.481133 L 0.80793 0.485352 L 0.80793 0.497891 L 0.799531 0.506289 L 0.799531 0.510469 L 0.795352 0.514648 L 0.795352 0.518867 L 0.791172 0.523047 L 0.791172 0.531406 L 0.778594 0.543984 L 0.778594 0.548164 L 0.774414 0.552383 L 0.774414 0.556563 L 0.770195 0.560742 L 0.766016 0.564922 L 0.766016 0.569141 L 0.761836 0.569141 L 0.757656 0.57332 L 0.757656 0.5775 L 0.753437 0.58168 L 0.749258 0.585898 L 0.740898 0.594258 L 0.740898 0.598438 L 0.7325 0.606836 L 0.7325 0.611016 L 0.72832 0.615195 L 0.724141 0.619414 L 0.724141 0.623594 L 0.719922 0.627773 L 0.715742 0.631953 L 0.711562 0.636172 L 0.711562 0.640352 L 0.703203 0.648711 L 0.703203 0.65293 L 0.698984 0.657109 L 0.690625 0.665469 L 0.686445 0.669688 L 0.682227 0.673867 L 0.673867 0.682227 L 0.669688 0.686445 L 0.665469 0.690625 L 0.657109 0.698984 L 0.65293 0.703203 L 0.648711 0.707383 L 0.644531 0.707383 L 0.640352 0.711563 L 0.631953 0.711563 L 0.627773 0.715742 L 0.615195 0.715742 L 0.611016 0.719922 L 0.602656 0.719922 L 0.585898 0.73668 L 0.58168 0.73668 L 0.5775 0.740898 L 0.5775 0.745078 L 0.57332 0.745078 L 0.569141 0.749258 L 0.556563 0.749258 L 0.548164 0.757656 L 0.543984 0.757656 L 0.539805 0.761836 L 0.510469 0.761836 L 0.506289 0.757656 L 0.493711 0.757656 L 0.489531 0.753438 L 0.485352 0.753438 L 0.481133 0.757656 L 0.468594 0.757656 L 0.464375 0.761836 L 0.41832 0.761836 L 0.414102 0.757656 L 0.409922 0.753438 L 0.405742 0.753438 L 0.401563 0.749258 L 0.368047 0.749258 L 0.363828 0.745078 L 0.351289 0.745078 L 0.34707 0.740898 L 0.342891 0.740898 L 0.338711 0.73668 L 0.321953 0.73668 L 0.317773 0.7325 L 0.313555 0.72832 L 0.309375 0.724141 L 0.296797 0.724141 L 0.292617 0.719922 L 0.26332 0.719922 L 0.259102 0.715742 L 0.250742 0.715742 L 0.246563 0.711563 L 0.242344 0.711563 L 0.242344 0.703203 L 0.238164 0.698984 L 0.233984 0.698984 L 0.229805 0.694805 L 0.225586 0.694805 L 0.221406 0.690625 L 0.200469 0.690625 L 0.19207 0.682227 L 0.179531 0.682227 L 0.175312 0.678047 L 0.166953 0.669688 L 0.166953 0.665469 L 0.162773 0.661289 L 0.158555 0.657109 L 0.154375 0.657109 L 0.150195 0.65293 L 0.146016 0.648711 L 0.141797 0.644531 L 0.137617 0.644531 L 0.133437 0.640352 L 0.129258 0.640352 L 0.125039 0.636172 L 0.120859 0.631953 L 0.11668 0.631953 L 0.1125 0.627773 L 0.108281 0.627773 L 0.104102 0.623594 L 0.0957422 0.623594 L 0.0915234 0.619414 L 0.0873438 0.619414 L 0.0831641 0.623594 L 0.0580078 0.623594 L 0.0538281 0.619414 L 0.0454687 0.619414 Z M 0.0454687 0.615195 " transform="matrix(100,0,0,100,300,350)"/>
<path style="fill:none;stroke-width:0.01;stroke-linecap:butt;stroke-linejoin:miter;stroke:rgb(0%,0%,0%);stroke-opacity:1;stroke-miterlimit:10;" d="M 0.0454688 0.528789 L 0.0536719 0.520586 L 0.0578125 0.520586 L 0.0619141 0.516445 L 0.0660156 0.516445 L 0.0701172 0.512344 L 0.0742578 0.508242 L 0.0742578 0.5 L 0.0783594 0.495898 L 0.0824609 0.495898 L 0.0948047 0.483555 L 0.0948047 0.479414 L 0.0989453 0.475313 L 0.111289 0.462969 L 0.111289 0.458867 L 0.115391 0.454766 L 0.115391 0.450625 L 0.119492 0.450625 L 0.123594 0.446523 L 0.127734 0.442422 L 0.131836 0.438281 L 0.131836 0.43418 L 0.135937 0.430078 L 0.14418 0.430078 L 0.148281 0.425938 L 0.148281 0.421836 L 0.152422 0.417734 L 0.156523 0.413633 L 0.156523 0.409492 L 0.160625 0.409492 L 0.164766 0.405391 L 0.168867 0.401289 L 0.172969 0.397148 L 0.17707 0.393047 L 0.181211 0.388945 L 0.185313 0.388945 L 0.189414 0.384805 L 0.193555 0.380703 L 0.197656 0.376602 L 0.201758 0.372461 L 0.201758 0.368359 L 0.205898 0.368359 L 0.226445 0.347813 L 0.226445 0.343672 L 0.230547 0.33957 L 0.234687 0.335469 L 0.238789 0.335469 L 0.242891 0.331328 L 0.251133 0.331328 L 0.255234 0.327227 L 0.259375 0.323125 L 0.263477 0.319023 L 0.27168 0.319023 L 0.27582 0.314883 L 0.279922 0.314883 L 0.284023 0.310781 L 0.288164 0.30668 L 0.292266 0.30668 L 0.296367 0.302539 L 0.300508 0.298437 L 0.300508 0.294336 L 0.304609 0.294336 L 0.308711 0.290195 L 0.329297 0.290195 L 0.333398 0.286094 L 0.341641 0.286094 L 0.345742 0.281992 L 0.362188 0.281992 L 0.378633 0.265547 L 0.407461 0.265547 L 0.411563 0.269648 L 0.415664 0.265547 L 0.419805 0.269648 L 0.43625 0.269648 L 0.440352 0.27375 L 0.444453 0.269648 L 0.448594 0.27375 L 0.452695 0.27375 L 0.456797 0.269648 L 0.460938 0.27375 L 0.465039 0.27375 L 0.469141 0.269648 L 0.489727 0.269648 L 0.493828 0.27375 L 0.522617 0.27375 L 0.526719 0.277852 L 0.534961 0.277852 L 0.539062 0.281992 L 0.543203 0.281992 L 0.547305 0.286094 L 0.555547 0.286094 L 0.559648 0.290195 L 0.580195 0.290195 L 0.584336 0.294336 L 0.588438 0.294336 L 0.592539 0.298437 L 0.600781 0.298437 L 0.609023 0.30668 L 0.617227 0.30668 L 0.621367 0.310781 L 0.625469 0.314883 L 0.62957 0.314883 L 0.633672 0.319023 L 0.637812 0.319023 L 0.641914 0.323125 L 0.646016 0.323125 L 0.650156 0.327227 L 0.654258 0.327227 L 0.666602 0.33957 L 0.670703 0.33957 L 0.674844 0.343672 L 0.678945 0.347813 L 0.683047 0.351914 L 0.687148 0.351914 L 0.691289 0.356016 L 0.695391 0.360156 L 0.699492 0.360156 L 0.703633 0.364258 L 0.707734 0.368359 L 0.711836 0.368359 L 0.715977 0.372461 L 0.720078 0.372461 L 0.72418 0.376602 L 0.72832 0.380703 L 0.732422 0.384805 L 0.736523 0.384805 L 0.740625 0.388945 L 0.744766 0.393047 L 0.748867 0.397148 L 0.752969 0.401289 L 0.752969 0.405391 L 0.757109 0.409492 L 0.761211 0.409492 L 0.761211 0.413633 L 0.765313 0.417734 L 0.769453 0.421836 L 0.773555 0.425938 L 0.777656 0.430078 L 0.777656 0.43418 L 0.781758 0.438281 L 0.781758 0.442422 L 0.785898 0.446523 L 0.79 0.450625 L 0.794102 0.454766 L 0.798242 0.458867 L 0.798242 0.467109 L 0.806445 0.475313 L 0.810586 0.479414 L 0.814687 0.483555 L 0.818789 0.487656 L 0.82293 0.491758 L 0.82293 0.495898 L 0.827031 0.5 L 0.827031 0.504102 L 0.831133 0.508242 L 0.85582 0.508242 L 0.859922 0.512344 L 0.888711 0.512344 L 0.892852 0.516445 L 0.896953 0.516445 L 0.901055 0.512344 L 0.929883 0.512344 L 0.933984 0.508242 L 0.938086 0.504102 L 0.938086 0.5 L 0.954531 0.5 L 0.954531 0.508242 L 0.942188 0.520586 L 0.938086 0.520586 L 0.933984 0.524687 L 0.896953 0.524687 L 0.892852 0.520586 L 0.843477 0.520586 L 0.839375 0.516445 L 0.818789 0.516445 L 0.814687 0.512344 L 0.806445 0.512344 L 0.802344 0.516445 L 0.798242 0.520586 L 0.794102 0.524687 L 0.781758 0.537031 L 0.777656 0.537031 L 0.765313 0.549375 L 0.761211 0.549375 L 0.757109 0.553477 L 0.752969 0.557578 L 0.748867 0.561719 L 0.744766 0.56582 L 0.740625 0.56582 L 0.736523 0.569922 L 0.732422 0.574063 L 0.72832 0.578164 L 0.72418 0.582266 L 0.720078 0.586367 L 0.715977 0.586367 L 0.707734 0.594609 L 0.703633 0.594609 L 0.699492 0.598711 L 0.695391 0.602852 L 0.691289 0.606953 L 0.687148 0.606953 L 0.683047 0.611055 L 0.678945 0.611055 L 0.674844 0.615195 L 0.670703 0.619297 L 0.666602 0.619297 L 0.6625 0.623398 L 0.658359 0.623398 L 0.654258 0.627539 L 0.650156 0.627539 L 0.646016 0.631641 L 0.641914 0.631641 L 0.637812 0.635742 L 0.633672 0.635742 L 0.62957 0.639844 L 0.625469 0.639844 L 0.621367 0.643984 L 0.617227 0.643984 L 0.609023 0.652188 L 0.604883 0.652188 L 0.600781 0.656328 L 0.59668 0.66043 L 0.592539 0.664531 L 0.588438 0.664531 L 0.584336 0.668672 L 0.580195 0.672773 L 0.576094 0.676875 L 0.571992 0.676875 L 0.567891 0.680977 L 0.56375 0.680977 L 0.559648 0.685117 L 0.555547 0.689219 L 0.551406 0.69332 L 0.547305 0.69332 L 0.543203 0.697461 L 0.539062 0.697461 L 0.534961 0.701562 L 0.530859 0.701562 L 0.526719 0.705664 L 0.522617 0.705664 L 0.518516 0.709805 L 0.514414 0.709805 L 0.510273 0.713906 L 0.485586 0.713906 L 0.481484 0.718008 L 0.477383 0.718008 L 0.473281 0.722148 L 0.465039 0.722148 L 0.460938 0.72625 L 0.452695 0.72625 L 0.448594 0.730352 L 0.440352 0.730352 L 0.43625 0.734453 L 0.37043 0.734453 L 0.366328 0.730352 L 0.304609 0.730352 L 0.300508 0.72625 L 0.296367 0.722148 L 0.292266 0.718008 L 0.288164 0.718008 L 0.284023 0.713906 L 0.255234 0.713906 L 0.251133 0.709805 L 0.247031 0.709805 L 0.242891 0.705664 L 0.238789 0.705664 L 0.234687 0.701562 L 0.230547 0.701562 L 0.226445 0.697461 L 0.222344 0.697461 L 0.218242 0.69332 L 0.214102 0.689219 L 0.21 0.685117 L 0.21 0.680977 L 0.205898 0.676875 L 0.201758 0.672773 L 0.189414 0.672773 L 0.185313 0.668672 L 0.181211 0.664531 L 0.17707 0.664531 L 0.168867 0.656328 L 0.164766 0.652188 L 0.160625 0.648086 L 0.160625 0.643984 L 0.156523 0.639844 L 0.156523 0.635742 L 0.152422 0.631641 L 0.148281 0.631641 L 0.14418 0.627539 L 0.140078 0.623398 L 0.135937 0.619297 L 0.131836 0.615195 L 0.127734 0.611055 L 0.123594 0.611055 L 0.115391 0.602852 L 0.111289 0.598711 L 0.111289 0.594609 L 0.107148 0.590508 L 0.103047 0.586367 L 0.103047 0.582266 L 0.0989453 0.578164 L 0.0948047 0.578164 L 0.0907031 0.574063 L 0.0907031 0.569922 L 0.0866016 0.56582 L 0.0824609 0.56582 L 0.0783594 0.561719 L 0.0742578 0.557578 L 0.0701172 0.553477 L 0.0660156 0.553477 L 0.0619141 0.549375 L 0.0578125 0.545234 L 0.0536719 0.541133 L 0.0495703 0.541133 L 0.0454688 0.537031 L 0.0454688 0.532891 Z M 0.0454688 0.528789 " transform="matrix(100,0,0,100,450,350)"/>
<path style="fill:none;stroke-width:0.01;stroke-linecap:butt;stroke-linejoin:miter;stroke:rgb(0%,0%,0%);stroke-opacity:1;stroke-miterlimit:10;" d="M 0.0454688 0.443672 L 0.0494922 0.439648 L 0.0535156 0.439648 L 0.0575391 0.435625 L 0.0655859 0.435625 L 0.0695703 0.431602 L 0.0735938 0.431602 L 0.0856641 0.419531 L 0.0896875 0.419531 L 0.0937109 0.415508 L 0.0977344 0.415508 L 0.101758 0.411523 L 0.105781 0.411523 L 0.109805 0.4075 L 0.113828 0.4075 L 0.117852 0.403477 L 0.117852 0.39543 L 0.129922 0.383359 L 0.137969 0.383359 L 0.146016 0.375313 L 0.150039 0.375313 L 0.154063 0.371289 L 0.166133 0.371289 L 0.17418 0.363242 L 0.17418 0.359219 L 0.178203 0.355195 L 0.182227 0.355195 L 0.190273 0.347148 L 0.194297 0.347148 L 0.214414 0.327031 L 0.218438 0.327031 L 0.222461 0.323008 L 0.222461 0.318984 L 0.226484 0.318984 L 0.238555 0.306914 L 0.246563 0.306914 L 0.250586 0.302891 L 0.254609 0.302891 L 0.26668 0.29082 L 0.270703 0.29082 L 0.282773 0.27875 L 0.306914 0.27875 L 0.310938 0.274727 L 0.314961 0.274727 L 0.318984 0.270703 L 0.323008 0.270703 L 0.327031 0.26668 L 0.331055 0.26668 L 0.335078 0.262656 L 0.343125 0.262656 L 0.351172 0.254609 L 0.355195 0.254609 L 0.359219 0.250586 L 0.363242 0.250586 L 0.367266 0.254609 L 0.387383 0.254609 L 0.391406 0.250586 L 0.431602 0.250586 L 0.435625 0.246563 L 0.439648 0.246563 L 0.443672 0.242539 L 0.471836 0.242539 L 0.475859 0.246563 L 0.491953 0.246563 L 0.495977 0.250586 L 0.5 0.250586 L 0.504023 0.254609 L 0.508047 0.254609 L 0.516094 0.262656 L 0.520117 0.262656 L 0.524141 0.26668 L 0.528164 0.26668 L 0.544258 0.282773 L 0.548281 0.282773 L 0.552305 0.286797 L 0.560352 0.286797 L 0.564375 0.29082 L 0.572422 0.29082 L 0.576445 0.294844 L 0.580469 0.294844 L 0.584492 0.298867 L 0.588477 0.298867 L 0.596523 0.306914 L 0.600547 0.306914 L 0.612617 0.318984 L 0.616641 0.318984 L 0.648828 0.351172 L 0.652852 0.351172 L 0.672969 0.371289 L 0.676992 0.371289 L 0.685039 0.379336 L 0.689063 0.379336 L 0.713203 0.403477 L 0.717227 0.403477 L 0.725273 0.411523 L 0.729297 0.415508 L 0.745391 0.431602 L 0.749414 0.431602 L 0.757461 0.439648 L 0.761445 0.443672 L 0.777539 0.459766 L 0.781562 0.459766 L 0.805703 0.483906 L 0.809727 0.483906 L 0.817773 0.491953 L 0.829844 0.491953 L 0.833867 0.48793 L 0.874102 0.48793 L 0.878125 0.483906 L 0.890195 0.483906 L 0.894219 0.479883 L 0.914336 0.479883 L 0.918359 0.475859 L 0.922383 0.479883 L 0.942461 0.479883 L 0.954531 0.491953 L 0.954531 0.504023 L 0.946484 0.504023 L 0.934414 0.491953 L 0.93043 0.48793 L 0.894219 0.48793 L 0.890195 0.491953 L 0.858008 0.491953 L 0.853984 0.495977 L 0.845937 0.495977 L 0.837891 0.504023 L 0.837891 0.508047 L 0.82582 0.520117 L 0.82582 0.524141 L 0.817773 0.532188 L 0.817773 0.536211 L 0.805703 0.548281 L 0.805703 0.552305 L 0.793633 0.564375 L 0.793633 0.568398 L 0.789609 0.572422 L 0.789609 0.576445 L 0.781562 0.584492 L 0.777539 0.588477 L 0.773516 0.5925 L 0.773516 0.596523 L 0.765469 0.60457 L 0.765469 0.608594 L 0.761445 0.612617 L 0.757461 0.616641 L 0.73332 0.640781 L 0.73332 0.644805 L 0.72125 0.656875 L 0.717227 0.656875 L 0.70918 0.664922 L 0.705156 0.664922 L 0.693086 0.676992 L 0.689063 0.676992 L 0.685039 0.681016 L 0.681016 0.681016 L 0.676992 0.685039 L 0.668945 0.685039 L 0.664922 0.689063 L 0.660898 0.689063 L 0.656875 0.693086 L 0.652852 0.693086 L 0.648828 0.697109 L 0.640781 0.697109 L 0.636758 0.701133 L 0.628711 0.701133 L 0.624688 0.705156 L 0.620664 0.705156 L 0.608594 0.717227 L 0.60457 0.717227 L 0.596523 0.725273 L 0.5925 0.725273 L 0.588477 0.729297 L 0.584492 0.73332 L 0.580469 0.73332 L 0.576445 0.737344 L 0.572422 0.737344 L 0.568398 0.741367 L 0.564375 0.741367 L 0.560352 0.745391 L 0.552305 0.745391 L 0.548281 0.749414 L 0.508047 0.749414 L 0.504023 0.745391 L 0.5 0.745391 L 0.495977 0.749414 L 0.491953 0.749414 L 0.48793 0.753438 L 0.443672 0.753438 L 0.439648 0.757461 L 0.431602 0.757461 L 0.423555 0.749414 L 0.419531 0.749414 L 0.415508 0.745391 L 0.411523 0.745391 L 0.4075 0.741367 L 0.399453 0.741367 L 0.39543 0.737344 L 0.367266 0.737344 L 0.363242 0.73332 L 0.355195 0.73332 L 0.351172 0.729297 L 0.339102 0.729297 L 0.339102 0.725273 L 0.331055 0.717227 L 0.327031 0.717227 L 0.323008 0.713203 L 0.323008 0.70918 L 0.318984 0.705156 L 0.310938 0.705156 L 0.306914 0.701133 L 0.294844 0.701133 L 0.286797 0.693086 L 0.282773 0.693086 L 0.27875 0.689063 L 0.26668 0.689063 L 0.262656 0.685039 L 0.258633 0.685039 L 0.242539 0.668945 L 0.238555 0.664922 L 0.234531 0.664922 L 0.206367 0.636758 L 0.202344 0.636758 L 0.19832 0.632734 L 0.19832 0.620664 L 0.18625 0.608594 L 0.18625 0.60457 L 0.182227 0.600547 L 0.178203 0.600547 L 0.166133 0.588477 L 0.162109 0.584492 L 0.154063 0.576445 L 0.154063 0.568398 L 0.129922 0.544258 L 0.129922 0.540234 L 0.121875 0.532188 L 0.121875 0.528164 L 0.113828 0.520117 L 0.113828 0.516094 L 0.109805 0.51207 L 0.105781 0.51207 L 0.105781 0.508047 L 0.0937109 0.495977 L 0.0937109 0.491953 L 0.0695703 0.467812 L 0.0655859 0.463789 L 0.0615625 0.463789 L 0.0535156 0.455742 L 0.0494922 0.455742 L 0.0494922 0.451719 L 0.0454688 0.447695 Z M 0.0454688 0.443672 " transform="matrix(100,0,0,100,600,350)"/>
</g>
</svg>
