<?xml version="1.0" encoding="UTF-8"?>
<svg xmlns="http://www.w3.org/2000/svg" xmlns:xlink="http://www.w3.org/1999/xlink" width="750pt" height="2800pt" viewBox="0 0 750 2800" version="1.1">
<g id="surface1">
<path style="fill:none;stroke-width:0.01;stroke-linecap:butt;stroke-linejoin:miter;stroke:rgb(0%,0%,0%);stroke-opacity:1;stroke-miterlimit:10;" d="M 0.0454688 0.521641 L 0.049375 0.517695 L 0.049375 0.509844 L 0.0572656 0.501953 L 0.0572656 0.498047 L 0.0612109 0.494102 L 0.0651172 0.490156 L 0.0651172 0.486211 L 0.0690625 0.482305 L 0.0730078 0.482305 L 0.0769531 0.478359 L 0.0808594 0.474414 L 0.0848047 0.474414 L 0.08875 0.470469 L 0.0926953 0.466563 L 0.0926953 0.45082 L 0.0966016 0.446875 L 0.104492 0.438984 L 0.108438 0.435078 L 0.112344 0.431133 L 0.116289 0.427188 L 0.116289 0.419336 L 0.120234 0.415391 L 0.120234 0.411445 L 0.12418 0.4075 L 0.12418 0.376016 L 0.132031 0.376016 L 0.135977 0.372109 L 0.139922 0.372109 L 0.143828 0.368164 L 0.147773 0.364219 L 0.151719 0.364219 L 0.15957 0.356367 L 0.15957 0.33668 L 0.163516 0.332734 L 0.187148 0.332734 L 0.191055 0.328789 L 0.191055 0.320937 L 0.195 0.316992 L 0.195 0.309141 L 0.218633 0.309141 L 0.222539 0.305195 L 0.226484 0.30125 L 0.226484 0.297305 L 0.242227 0.297305 L 0.246172 0.293398 L 0.250117 0.293398 L 0.254023 0.289453 L 0.257969 0.285508 L 0.261914 0.281602 L 0.265859 0.277656 L 0.265859 0.269766 L 0.269766 0.265859 L 0.269766 0.261914 L 0.273711 0.257969 L 0.289453 0.257969 L 0.293398 0.261914 L 0.305195 0.261914 L 0.309141 0.265859 L 0.320937 0.265859 L 0.324883 0.261914 L 0.328789 0.261914 L 0.332734 0.257969 L 0.33668 0.257969 L 0.340625 0.254023 L 0.340625 0.250117 L 0.344531 0.246172 L 0.344531 0.242227 L 0.356367 0.242227 L 0.360273 0.246172 L 0.364219 0.246172 L 0.368164 0.250117 L 0.376016 0.250117 L 0.379961 0.254023 L 0.387852 0.261914 L 0.391758 0.265859 L 0.395703 0.265859 L 0.399648 0.269766 L 0.403594 0.265859 L 0.4075 0.265859 L 0.415391 0.257969 L 0.415391 0.254023 L 0.419336 0.250117 L 0.435078 0.250117 L 0.466562 0.281602 L 0.474414 0.281602 L 0.478359 0.285508 L 0.482305 0.289453 L 0.482305 0.293398 L 0.486211 0.297305 L 0.486211 0.30125 L 0.494102 0.309141 L 0.498047 0.313047 L 0.501953 0.316992 L 0.505898 0.320937 L 0.521641 0.320937 L 0.525586 0.316992 L 0.529531 0.316992 L 0.533438 0.320937 L 0.537383 0.324883 L 0.537383 0.328789 L 0.541328 0.332734 L 0.541328 0.340625 L 0.545273 0.344531 L 0.545273 0.348477 L 0.54918 0.352422 L 0.553125 0.356367 L 0.55707 0.356367 L 0.561016 0.360273 L 0.564922 0.364219 L 0.564922 0.368164 L 0.568867 0.372109 L 0.568867 0.376016 L 0.572813 0.379961 L 0.572813 0.383906 L 0.576758 0.387852 L 0.576758 0.391758 L 0.580664 0.395703 L 0.580664 0.4075 L 0.584609 0.411445 L 0.584609 0.415391 L 0.588555 0.419336 L 0.588555 0.458672 L 0.5925 0.462617 L 0.5925 0.478359 L 0.596406 0.482305 L 0.600352 0.486211 L 0.616094 0.486211 L 0.620039 0.482305 L 0.639727 0.482305 L 0.643633 0.478359 L 0.651523 0.478359 L 0.655469 0.474414 L 0.66332 0.474414 L 0.667266 0.470469 L 0.675117 0.470469 L 0.679063 0.466563 L 0.683008 0.466563 L 0.686953 0.462617 L 0.694805 0.462617 L 0.69875 0.458672 L 0.706602 0.458672 L 0.710547 0.454727 L 0.714492 0.45082 L 0.722344 0.45082 L 0.726289 0.446875 L 0.730234 0.446875 L 0.734141 0.44293 L 0.738086 0.44293 L 0.742031 0.438984 L 0.745977 0.438984 L 0.753828 0.431133 L 0.757773 0.431133 L 0.761719 0.427188 L 0.765625 0.427188 L 0.76957 0.423242 L 0.773516 0.423242 L 0.777461 0.419336 L 0.781367 0.415391 L 0.789258 0.415391 L 0.793203 0.411445 L 0.797109 0.4075 L 0.801055 0.403594 L 0.805 0.403594 L 0.808945 0.399648 L 0.812852 0.399648 L 0.820742 0.391758 L 0.824688 0.387852 L 0.828594 0.383906 L 0.832539 0.383906 L 0.844336 0.372109 L 0.848281 0.372109 L 0.856172 0.364219 L 0.860078 0.360273 L 0.864023 0.356367 L 0.871914 0.348477 L 0.87582 0.344531 L 0.879766 0.340625 L 0.887656 0.332734 L 0.891563 0.328789 L 0.891563 0.324883 L 0.895508 0.320937 L 0.895508 0.316992 L 0.899453 0.313047 L 0.903398 0.309141 L 0.907305 0.305195 L 0.907305 0.30125 L 0.91125 0.297305 L 0.91125 0.293398 L 0.915195 0.289453 L 0.915195 0.285508 L 0.919141 0.281602 L 0.919141 0.269766 L 0.923047 0.265859 L 0.923047 0.261914 L 0.926992 0.257969 L 0.926992 0.254023 L 0.930937 0.250117 L 0.930937 0.246172 L 0.934883 0.242227 L 0.938789 0.242227 L 0.94668 0.250117 L 0.950625 0.250117 L 0.954531 0.254023 L 0.954531 0.261914 L 0.950625 0.265859 L 0.94668 0.269766 L 0.942734 0.269766 L 0.938789 0.273711 L 0.934883 0.277656 L 0.934883 0.281602 L 0.930937 0.285508 L 0.926992 0.289453 L 0.926992 0.293398 L 0.923047 0.297305 L 0.919141 0.30125 L 0.919141 0.305195 L 0.915195 0.309141 L 0.915195 0.313047 L 0.907305 0.320937 L 0.907305 0.324883 L 0.891563 0.340625 L 0.891563 0.344531 L 0.887656 0.344531 L 0.883711 0.348477 L 0.883711 0.352422 L 0.879766 0.356367 L 0.87582 0.360273 L 0.871914 0.364219 L 0.867969 0.368164 L 0.864023 0.368164 L 0.836484 0.395703 L 0.832539 0.395703 L 0.828594 0.399648 L 0.824688 0.403594 L 0.820742 0.403594 L 0.816797 0.4075 L 0.812852 0.411445 L 0.808945 0.411445 L 0.801055 0.419336 L 0.797109 0.423242 L 0.793203 0.423242 L 0.789258 0.427188 L 0.785312 0.427188 L 0.781367 0.431133 L 0.777461 0.431133 L 0.773516 0.435078 L 0.76957 0.438984 L 0.765625 0.438984 L 0.761719 0.44293 L 0.757773 0.44293 L 0.749883 0.45082 L 0.745977 0.45082 L 0.742031 0.454727 L 0.734141 0.454727 L 0.730234 0.458672 L 0.726289 0.462617 L 0.718398 0.462617 L 0.714492 0.466563 L 0.710547 0.470469 L 0.702695 0.470469 L 0.69875 0.474414 L 0.690859 0.474414 L 0.686953 0.478359 L 0.679063 0.478359 L 0.675117 0.482305 L 0.671211 0.482305 L 0.667266 0.486211 L 0.655469 0.486211 L 0.651523 0.490156 L 0.647578 0.490156 L 0.643633 0.494102 L 0.620039 0.494102 L 0.616094 0.498047 L 0.612148 0.494102 L 0.608242 0.494102 L 0.604297 0.498047 L 0.600352 0.494102 L 0.596406 0.494102 L 0.5925 0.498047 L 0.5925 0.537383 L 0.588555 0.541328 L 0.588555 0.572812 L 0.584609 0.576758 L 0.584609 0.580664 L 0.580664 0.584609 L 0.580664 0.5925 L 0.576758 0.596406 L 0.576758 0.600352 L 0.572813 0.604297 L 0.572813 0.608242 L 0.568867 0.612148 L 0.564922 0.616094 L 0.564922 0.623984 L 0.561016 0.627891 L 0.561016 0.639727 L 0.55707 0.643633 L 0.55707 0.651523 L 0.553125 0.655469 L 0.553125 0.659375 L 0.54918 0.66332 L 0.545273 0.667266 L 0.545273 0.671211 L 0.541328 0.675117 L 0.541328 0.679063 L 0.533438 0.686953 L 0.521641 0.686953 L 0.517695 0.683008 L 0.513789 0.683008 L 0.509844 0.686953 L 0.509844 0.694805 L 0.505898 0.69875 L 0.505898 0.702695 L 0.501953 0.706602 L 0.501953 0.710547 L 0.498047 0.714492 L 0.498047 0.718398 L 0.490156 0.726289 L 0.490156 0.730234 L 0.486211 0.730234 L 0.482305 0.734141 L 0.478359 0.734141 L 0.474414 0.738086 L 0.470469 0.738086 L 0.466562 0.734141 L 0.462617 0.730234 L 0.454727 0.722344 L 0.446875 0.722344 L 0.423242 0.745977 L 0.419336 0.745977 L 0.415391 0.749883 L 0.411445 0.753828 L 0.4075 0.753828 L 0.403594 0.757773 L 0.387852 0.757773 L 0.387852 0.753828 L 0.383906 0.749883 L 0.352422 0.749883 L 0.348477 0.753828 L 0.324883 0.753828 L 0.324883 0.749883 L 0.320937 0.745977 L 0.320937 0.742031 L 0.316992 0.738086 L 0.293398 0.738086 L 0.289453 0.742031 L 0.285508 0.742031 L 0.281602 0.738086 L 0.277656 0.734141 L 0.277656 0.730234 L 0.269766 0.722344 L 0.265859 0.722344 L 0.261914 0.718398 L 0.254023 0.718398 L 0.250117 0.722344 L 0.246172 0.718398 L 0.234375 0.718398 L 0.234375 0.69875 L 0.23043 0.694805 L 0.226484 0.694805 L 0.218633 0.686953 L 0.214688 0.686953 L 0.210742 0.683008 L 0.206797 0.683008 L 0.202891 0.679063 L 0.198945 0.675117 L 0.175313 0.675117 L 0.171406 0.671211 L 0.163516 0.671211 L 0.15957 0.667266 L 0.15957 0.659375 L 0.155664 0.655469 L 0.155664 0.631836 L 0.151719 0.627891 L 0.143828 0.627891 L 0.139922 0.623984 L 0.128086 0.623984 L 0.12418 0.620039 L 0.12418 0.616094 L 0.120234 0.612148 L 0.120234 0.604297 L 0.108438 0.5925 L 0.108438 0.584609 L 0.104492 0.580664 L 0.100547 0.576758 L 0.0966016 0.576758 L 0.0926953 0.572812 L 0.0926953 0.568867 L 0.08875 0.564922 L 0.08875 0.561016 L 0.0808594 0.553125 L 0.0769531 0.54918 L 0.0730078 0.545273 L 0.0651172 0.537383 L 0.0612109 0.537383 L 0.0572656 0.533438 L 0.0533203 0.529531 L 0.049375 0.525586 Z M 0.0454688 0.521641 " transform="matrix(100,0,0,100,0,200)"/>
<path style="fill:none;stroke-width:0.01;stroke-linecap:butt;stroke-linejoin:miter;stroke:rgb(0%,0%,0%);stroke-opacity:1;stroke-miterlimit:10;" d="M 0.0454687 0.473516 L 0.0495313 0.469414 L 0.0535938 0.465352 L 0.0576953 0.461289 L 0.0617578 0.461289 L 0.0658203 0.457187 L 0.0699219 0.457187 L 0.0739844 0.453125 L 0.0739844 0.444961 L 0.0780859 0.440898 L 0.0780859 0.436797 L 0.0862109 0.428672 L 0.0862109 0.420508 L 0.0903125 0.416445 L 0.0903125 0.400117 L 0.094375 0.400117 L 0.0984375 0.396055 L 0.102539 0.396055 L 0.106602 0.391953 L 0.110664 0.387891 L 0.110664 0.383828 L 0.114766 0.379727 L 0.114766 0.363437 L 0.110664 0.359375 L 0.110664 0.355273 L 0.106602 0.351211 L 0.110664 0.347109 L 0.114766 0.343047 L 0.118828 0.343047 L 0.12293 0.338984 L 0.126992 0.338984 L 0.131055 0.334883 L 0.135156 0.33082 L 0.139219 0.33082 L 0.143281 0.326758 L 0.143281 0.322656 L 0.147383 0.318594 L 0.151445 0.314531 L 0.155508 0.31043 L 0.155508 0.306367 L 0.159609 0.302266 L 0.159609 0.281914 L 0.18 0.281914 L 0.184063 0.277813 L 0.188125 0.277813 L 0.192227 0.27375 L 0.196289 0.269687 L 0.196289 0.261523 L 0.200352 0.257422 L 0.21668 0.257422 L 0.220742 0.253359 L 0.228906 0.253359 L 0.241133 0.241133 L 0.241133 0.23707 L 0.261523 0.23707 L 0.265586 0.241133 L 0.281914 0.241133 L 0.285977 0.23707 L 0.290039 0.232969 L 0.290039 0.228906 L 0.318594 0.228906 L 0.322656 0.232969 L 0.33082 0.232969 L 0.334883 0.23707 L 0.355273 0.23707 L 0.359375 0.241133 L 0.363438 0.23707 L 0.3675 0.23707 L 0.379727 0.224844 L 0.387891 0.224844 L 0.391953 0.228906 L 0.396055 0.228906 L 0.400117 0.232969 L 0.40418 0.23707 L 0.408281 0.241133 L 0.416445 0.249297 L 0.416445 0.253359 L 0.420508 0.257422 L 0.42457 0.261523 L 0.428672 0.265586 L 0.432734 0.269687 L 0.436797 0.265586 L 0.444961 0.265586 L 0.449023 0.269687 L 0.449023 0.27375 L 0.453125 0.277813 L 0.453125 0.294141 L 0.457188 0.298203 L 0.461289 0.302266 L 0.465352 0.306367 L 0.469414 0.306367 L 0.477578 0.298203 L 0.477578 0.294141 L 0.481641 0.294141 L 0.485742 0.298203 L 0.489805 0.302266 L 0.493867 0.306367 L 0.493867 0.314531 L 0.497969 0.318594 L 0.497969 0.33082 L 0.510195 0.343047 L 0.514258 0.343047 L 0.518359 0.347109 L 0.522422 0.343047 L 0.530586 0.343047 L 0.534648 0.347109 L 0.534648 0.351211 L 0.538711 0.355273 L 0.538711 0.363437 L 0.542813 0.3675 L 0.542813 0.396055 L 0.546875 0.400117 L 0.546875 0.40418 L 0.550977 0.408281 L 0.555039 0.408281 L 0.559102 0.412344 L 0.559102 0.477578 L 0.555039 0.481641 L 0.555039 0.497969 L 0.559102 0.502031 L 0.563203 0.497969 L 0.57543 0.497969 L 0.579492 0.493867 L 0.587656 0.493867 L 0.591719 0.489805 L 0.608047 0.489805 L 0.612109 0.485742 L 0.620273 0.485742 L 0.624336 0.481641 L 0.640625 0.481641 L 0.644727 0.477578 L 0.652891 0.477578 L 0.656953 0.473516 L 0.66918 0.473516 L 0.673242 0.469414 L 0.677344 0.469414 L 0.681406 0.465352 L 0.685469 0.465352 L 0.68957 0.461289 L 0.693633 0.461289 L 0.697734 0.457187 L 0.701797 0.457187 L 0.705859 0.453125 L 0.709961 0.453125 L 0.714023 0.449023 L 0.718086 0.444961 L 0.72625 0.444961 L 0.738477 0.432734 L 0.742578 0.432734 L 0.746641 0.428672 L 0.750703 0.428672 L 0.767031 0.412344 L 0.771094 0.412344 L 0.78332 0.400117 L 0.787422 0.400117 L 0.791484 0.396055 L 0.795547 0.391953 L 0.799648 0.387891 L 0.803711 0.383828 L 0.807773 0.383828 L 0.824102 0.3675 L 0.828164 0.3675 L 0.832266 0.363437 L 0.836328 0.359375 L 0.840391 0.355273 L 0.844492 0.351211 L 0.848555 0.347109 L 0.852617 0.343047 L 0.856719 0.338984 L 0.860781 0.334883 L 0.864844 0.33082 L 0.868945 0.326758 L 0.873008 0.322656 L 0.87707 0.318594 L 0.881172 0.314531 L 0.885234 0.31043 L 0.889336 0.306367 L 0.893398 0.302266 L 0.897461 0.298203 L 0.901563 0.294141 L 0.901563 0.290039 L 0.909687 0.281914 L 0.909687 0.277813 L 0.913789 0.27375 L 0.917852 0.269687 L 0.917852 0.265586 L 0.921914 0.261523 L 0.921914 0.257422 L 0.926016 0.253359 L 0.926016 0.249297 L 0.930078 0.245195 L 0.93418 0.241133 L 0.938242 0.23707 L 0.942305 0.23707 L 0.946406 0.241133 L 0.950469 0.241133 L 0.954531 0.245195 L 0.954531 0.261523 L 0.950469 0.265586 L 0.946406 0.265586 L 0.926016 0.285977 L 0.921914 0.290039 L 0.917852 0.294141 L 0.913789 0.298203 L 0.909687 0.302266 L 0.905625 0.306367 L 0.881172 0.33082 L 0.87707 0.334883 L 0.873008 0.338984 L 0.868945 0.343047 L 0.864844 0.347109 L 0.860781 0.351211 L 0.856719 0.351211 L 0.852617 0.355273 L 0.848555 0.359375 L 0.844492 0.363437 L 0.840391 0.363437 L 0.836328 0.3675 L 0.832266 0.371602 L 0.828164 0.375664 L 0.82 0.383828 L 0.815937 0.383828 L 0.811875 0.387891 L 0.807773 0.391953 L 0.803711 0.396055 L 0.799648 0.400117 L 0.795547 0.400117 L 0.791484 0.40418 L 0.787422 0.408281 L 0.78332 0.412344 L 0.779258 0.416445 L 0.775156 0.420508 L 0.771094 0.420508 L 0.758867 0.432734 L 0.754805 0.432734 L 0.750703 0.436797 L 0.746641 0.440898 L 0.742578 0.440898 L 0.738477 0.444961 L 0.734414 0.449023 L 0.730313 0.449023 L 0.72625 0.453125 L 0.722187 0.457187 L 0.718086 0.457187 L 0.714023 0.461289 L 0.709961 0.465352 L 0.705859 0.465352 L 0.701797 0.469414 L 0.697734 0.469414 L 0.693633 0.473516 L 0.68957 0.473516 L 0.685469 0.477578 L 0.681406 0.477578 L 0.677344 0.481641 L 0.673242 0.481641 L 0.66918 0.485742 L 0.661016 0.485742 L 0.656953 0.489805 L 0.652891 0.489805 L 0.648789 0.493867 L 0.636563 0.493867 L 0.6325 0.497969 L 0.616172 0.497969 L 0.612109 0.502031 L 0.603945 0.502031 L 0.599883 0.506133 L 0.571328 0.506133 L 0.567266 0.510195 L 0.563203 0.510195 L 0.559102 0.506133 L 0.555039 0.510195 L 0.555039 0.522422 L 0.559102 0.526484 L 0.559102 0.571328 L 0.555039 0.57543 L 0.550977 0.579492 L 0.550977 0.591719 L 0.546875 0.59582 L 0.546875 0.599883 L 0.542813 0.603945 L 0.542813 0.612109 L 0.538711 0.616172 L 0.538711 0.624336 L 0.534648 0.628398 L 0.534648 0.6325 L 0.530586 0.636563 L 0.530586 0.644727 L 0.526484 0.648789 L 0.526484 0.661016 L 0.522422 0.665117 L 0.522422 0.673242 L 0.518359 0.677344 L 0.514258 0.681406 L 0.506133 0.681406 L 0.502031 0.677344 L 0.497969 0.677344 L 0.493867 0.681406 L 0.489805 0.685469 L 0.485742 0.68957 L 0.485742 0.701797 L 0.481641 0.705859 L 0.481641 0.709961 L 0.473516 0.718086 L 0.469414 0.718086 L 0.465352 0.722187 L 0.461289 0.722187 L 0.453125 0.714023 L 0.453125 0.709961 L 0.449023 0.705859 L 0.444961 0.705859 L 0.440898 0.709961 L 0.440898 0.714023 L 0.436797 0.718086 L 0.432734 0.722187 L 0.432734 0.72625 L 0.42457 0.734414 L 0.42457 0.738477 L 0.420508 0.742578 L 0.416445 0.746641 L 0.412344 0.750703 L 0.400117 0.750703 L 0.396055 0.746641 L 0.396055 0.734414 L 0.391953 0.730313 L 0.383828 0.730313 L 0.375664 0.738477 L 0.371602 0.742578 L 0.371602 0.746641 L 0.3675 0.750703 L 0.363438 0.754805 L 0.359375 0.758867 L 0.351211 0.758867 L 0.347109 0.754805 L 0.338984 0.754805 L 0.334883 0.758867 L 0.33082 0.76293 L 0.326758 0.76293 L 0.322656 0.767031 L 0.318594 0.767031 L 0.314531 0.771094 L 0.31043 0.771094 L 0.306367 0.775156 L 0.302266 0.771094 L 0.298203 0.775156 L 0.294141 0.771094 L 0.290039 0.767031 L 0.290039 0.758867 L 0.285977 0.754805 L 0.281914 0.750703 L 0.232969 0.750703 L 0.232969 0.738477 L 0.228906 0.734414 L 0.224844 0.734414 L 0.220742 0.730313 L 0.196289 0.730313 L 0.192227 0.72625 L 0.192227 0.714023 L 0.188125 0.709961 L 0.184063 0.705859 L 0.163672 0.705859 L 0.159609 0.701797 L 0.159609 0.685469 L 0.155508 0.681406 L 0.151445 0.677344 L 0.147383 0.673242 L 0.143281 0.66918 L 0.139219 0.665117 L 0.135156 0.661016 L 0.131055 0.656953 L 0.126992 0.652891 L 0.12293 0.648789 L 0.118828 0.644727 L 0.114766 0.640625 L 0.110664 0.636563 L 0.106602 0.6325 L 0.102539 0.628398 L 0.0984375 0.624336 L 0.094375 0.624336 L 0.094375 0.612109 L 0.102539 0.603945 L 0.102539 0.59582 L 0.0984375 0.591719 L 0.0984375 0.587656 L 0.094375 0.583555 L 0.094375 0.579492 L 0.0862109 0.571328 L 0.0862109 0.563203 L 0.0821484 0.559102 L 0.0821484 0.550977 L 0.0780859 0.546875 L 0.0780859 0.534648 L 0.0739844 0.530586 L 0.0699219 0.526484 L 0.0658203 0.522422 L 0.0658203 0.514258 L 0.0617578 0.510195 L 0.0617578 0.506133 L 0.0576953 0.502031 L 0.0576953 0.493867 L 0.0535938 0.489805 L 0.0495313 0.485742 L 0.0454687 0.481641 L 0.0454687 0.477578 Z M 0.0454687 0.473516 " transform="matrix(100,0,0,100,150,200)"/>
<path style="fill:none;stroke-width:0.01;stroke-linecap:butt;stroke-linejoin:miter;stroke:rgb(0%,0%,0%);stroke-opacity:1;stroke-miterlimit:10;" d="M 0.0454687 0.494063 L 0.0494141 0.490117 L 0.0494141 0.482227 L 0.0533594 0.478242 L 0.0573047 0.474297 L 0.0573047 0.470352 L 0.06125 0.466406 L 0.0652344 0.462461 L 0.0652344 0.458516 L 0.0691797 0.454531 L 0.0810156 0.442695 L 0.0810156 0.43875 L 0.0770703 0.434766 L 0.0770703 0.426875 L 0.0810156 0.42293 L 0.0810156 0.411055 L 0.0849609 0.407109 L 0.0889453 0.407109 L 0.0968359 0.399219 L 0.0968359 0.391289 L 0.0928906 0.387344 L 0.100781 0.379453 L 0.112656 0.379453 L 0.116602 0.375508 L 0.120547 0.375508 L 0.124492 0.371523 L 0.124492 0.367578 L 0.128477 0.363633 L 0.136367 0.355742 L 0.136367 0.339922 L 0.140313 0.335977 L 0.160078 0.335977 L 0.164023 0.332031 L 0.167969 0.328047 L 0.167969 0.320156 L 0.191719 0.320156 L 0.195664 0.316211 L 0.195664 0.312266 L 0.199609 0.308281 L 0.199609 0.304336 L 0.203555 0.300391 L 0.203555 0.2925 L 0.2075 0.288555 L 0.211445 0.28457 L 0.254922 0.28457 L 0.258906 0.280625 L 0.266797 0.272734 L 0.274688 0.272734 L 0.278672 0.27668 L 0.290508 0.27668 L 0.294453 0.272734 L 0.294453 0.268789 L 0.298437 0.264805 L 0.298437 0.256914 L 0.302383 0.252969 L 0.322148 0.252969 L 0.326094 0.256914 L 0.330039 0.256914 L 0.333984 0.260859 L 0.345859 0.260859 L 0.349805 0.264805 L 0.365625 0.264805 L 0.373516 0.256914 L 0.385391 0.256914 L 0.393281 0.264805 L 0.397227 0.268789 L 0.401172 0.268789 L 0.405156 0.272734 L 0.416992 0.28457 L 0.420937 0.288555 L 0.424883 0.2925 L 0.428867 0.296445 L 0.440703 0.308281 L 0.444648 0.312266 L 0.452578 0.304336 L 0.464414 0.304336 L 0.468398 0.308281 L 0.468398 0.312266 L 0.476289 0.320156 L 0.476289 0.328047 L 0.480234 0.332031 L 0.48418 0.335977 L 0.48418 0.343867 L 0.488125 0.347812 L 0.488125 0.355742 L 0.492109 0.359688 L 0.492109 0.363633 L 0.496055 0.367578 L 0.5 0.367578 L 0.503945 0.371523 L 0.503945 0.375508 L 0.507891 0.379453 L 0.507891 0.383398 L 0.511875 0.387344 L 0.511875 0.395273 L 0.51582 0.399219 L 0.51582 0.407109 L 0.519766 0.411055 L 0.519766 0.415039 L 0.523711 0.418984 L 0.523711 0.426875 L 0.527656 0.43082 L 0.527656 0.494063 L 0.531602 0.498008 L 0.535586 0.498008 L 0.539531 0.501992 L 0.555352 0.501992 L 0.559297 0.505937 L 0.575117 0.505937 L 0.579063 0.509883 L 0.586953 0.509883 L 0.590898 0.513828 L 0.602773 0.513828 L 0.606719 0.517773 L 0.610664 0.517773 L 0.614609 0.521758 L 0.618594 0.521758 L 0.622539 0.525703 L 0.63043 0.525703 L 0.634375 0.529648 L 0.642305 0.529648 L 0.64625 0.533594 L 0.654141 0.533594 L 0.658086 0.537539 L 0.666016 0.537539 L 0.669961 0.541484 L 0.677852 0.541484 L 0.681836 0.545469 L 0.689727 0.545469 L 0.693672 0.549414 L 0.705547 0.549414 L 0.709492 0.553359 L 0.713437 0.553359 L 0.717383 0.557305 L 0.729258 0.557305 L 0.733203 0.56125 L 0.737148 0.56125 L 0.741094 0.565234 L 0.752969 0.565234 L 0.756914 0.56918 L 0.768789 0.56918 L 0.772734 0.573125 L 0.780625 0.573125 L 0.78457 0.57707 L 0.796445 0.57707 L 0.800391 0.581016 L 0.808281 0.581016 L 0.812266 0.584961 L 0.828047 0.584961 L 0.832031 0.588945 L 0.839922 0.588945 L 0.843867 0.592891 L 0.867578 0.592891 L 0.871523 0.596836 L 0.883398 0.596836 L 0.887344 0.600781 L 0.954531 0.600781 L 0.954531 0.604727 L 0.950586 0.608711 L 0.942695 0.616602 L 0.93875 0.616602 L 0.934766 0.612656 L 0.93082 0.612656 L 0.926875 0.608711 L 0.891289 0.608711 L 0.887344 0.604727 L 0.875508 0.604727 L 0.871523 0.600781 L 0.867578 0.604727 L 0.859688 0.604727 L 0.855742 0.600781 L 0.843867 0.600781 L 0.839922 0.596836 L 0.820156 0.596836 L 0.816211 0.592891 L 0.808281 0.592891 L 0.804336 0.588945 L 0.788555 0.588945 L 0.78457 0.584961 L 0.780625 0.584961 L 0.77668 0.581016 L 0.760859 0.581016 L 0.756914 0.57707 L 0.749023 0.57707 L 0.745078 0.573125 L 0.737148 0.573125 L 0.733203 0.56918 L 0.725313 0.56918 L 0.721328 0.565234 L 0.709492 0.565234 L 0.705547 0.56125 L 0.697617 0.56125 L 0.693672 0.557305 L 0.689727 0.557305 L 0.685781 0.553359 L 0.673906 0.553359 L 0.669961 0.549414 L 0.666016 0.549414 L 0.66207 0.545469 L 0.650195 0.545469 L 0.64625 0.541484 L 0.638359 0.541484 L 0.634375 0.537539 L 0.63043 0.537539 L 0.626484 0.533594 L 0.622539 0.533594 L 0.618594 0.529648 L 0.614609 0.529648 L 0.610664 0.525703 L 0.606719 0.525703 L 0.602773 0.521758 L 0.594844 0.521758 L 0.590898 0.517773 L 0.579063 0.517773 L 0.575117 0.513828 L 0.563242 0.513828 L 0.559297 0.509883 L 0.535586 0.509883 L 0.531602 0.513828 L 0.527656 0.517773 L 0.527656 0.525703 L 0.523711 0.525703 L 0.51582 0.533594 L 0.51582 0.541484 L 0.519766 0.545469 L 0.523711 0.541484 L 0.527656 0.541484 L 0.527656 0.57707 L 0.523711 0.581016 L 0.523711 0.596836 L 0.519766 0.600781 L 0.519766 0.616602 L 0.51582 0.620547 L 0.51582 0.628477 L 0.511875 0.632422 L 0.507891 0.636367 L 0.503945 0.636367 L 0.496055 0.644258 L 0.496055 0.648203 L 0.492109 0.652188 L 0.492109 0.656133 L 0.488125 0.660078 L 0.488125 0.664023 L 0.48418 0.667969 L 0.480234 0.671953 L 0.480234 0.675898 L 0.472344 0.683789 L 0.468398 0.683789 L 0.464414 0.687734 L 0.460469 0.687734 L 0.456523 0.683789 L 0.452578 0.683789 L 0.440703 0.695664 L 0.440703 0.699609 L 0.432813 0.7075 L 0.432813 0.71543 L 0.428867 0.719375 L 0.424883 0.72332 L 0.420937 0.727266 L 0.409102 0.727266 L 0.405156 0.72332 L 0.401172 0.719375 L 0.389336 0.719375 L 0.385391 0.72332 L 0.373516 0.72332 L 0.36957 0.727266 L 0.365625 0.727266 L 0.361641 0.731211 L 0.357695 0.735195 L 0.33793 0.735195 L 0.333984 0.739141 L 0.314219 0.739141 L 0.310273 0.743086 L 0.306328 0.743086 L 0.302383 0.747031 L 0.286563 0.747031 L 0.282617 0.743086 L 0.282617 0.739141 L 0.278672 0.735195 L 0.274688 0.735195 L 0.270742 0.731211 L 0.258906 0.731211 L 0.254922 0.735195 L 0.239141 0.735195 L 0.235195 0.731211 L 0.231211 0.727266 L 0.231211 0.719375 L 0.227266 0.71543 L 0.22332 0.711445 L 0.219375 0.711445 L 0.21543 0.7075 L 0.191719 0.7075 L 0.187734 0.703555 L 0.183789 0.699609 L 0.160078 0.699609 L 0.152188 0.691719 L 0.152188 0.667969 L 0.148203 0.664023 L 0.144258 0.660078 L 0.136367 0.660078 L 0.132422 0.656133 L 0.128477 0.656133 L 0.124492 0.652188 L 0.124492 0.644258 L 0.128477 0.640312 L 0.128477 0.636367 L 0.124492 0.632422 L 0.120547 0.628477 L 0.116602 0.624492 L 0.108711 0.616602 L 0.104727 0.616602 L 0.100781 0.612656 L 0.0968359 0.612656 L 0.0928906 0.608711 L 0.0889453 0.604727 L 0.0889453 0.600781 L 0.0928906 0.596836 L 0.0928906 0.592891 L 0.0968359 0.588945 L 0.0928906 0.584961 L 0.0928906 0.581016 L 0.0889453 0.57707 L 0.0849609 0.573125 L 0.0849609 0.56918 L 0.0810156 0.565234 L 0.0810156 0.545469 L 0.0770703 0.541484 L 0.073125 0.537539 L 0.0691797 0.537539 L 0.0652344 0.533594 L 0.06125 0.529648 L 0.0573047 0.525703 L 0.06125 0.521758 L 0.0573047 0.517773 L 0.0573047 0.513828 L 0.0533594 0.509883 L 0.0533594 0.505937 L 0.0494141 0.501992 L 0.0494141 0.498008 Z M 0.0454687 0.494063 " transform="matrix(100,0,0,100,300,200)"/>
<path style="fill:none;stroke-width:0.01;stroke-linecap:butt;stroke-linejoin:miter;stroke:rgb(0%,0%,0%);stroke-opacity:1;stroke-miterlimit:10;" d="M 0.0454688 0.564102 L 0.0493359 0.560234 L 0.0493359 0.552461 L 0.0532422 0.548555 L 0.0532422 0.540781 L 0.0571094 0.536914 L 0.0532422 0.533008 L 0.0532422 0.5175 L 0.0571094 0.513594 L 0.0571094 0.498047 L 0.0609766 0.49418 L 0.0609766 0.486406 L 0.06875 0.478633 L 0.0726563 0.474766 L 0.0726563 0.470859 L 0.0765234 0.466992 L 0.0765234 0.463086 L 0.06875 0.455313 L 0.0648828 0.455313 L 0.0609766 0.451445 L 0.0609766 0.447539 L 0.0571094 0.443672 L 0.0571094 0.439766 L 0.0609766 0.435898 L 0.0609766 0.432031 L 0.0804297 0.412578 L 0.0804297 0.408711 L 0.0842969 0.404805 L 0.0804297 0.400937 L 0.0765234 0.400937 L 0.0726563 0.397031 L 0.0726563 0.389297 L 0.0765234 0.385391 L 0.0765234 0.381523 L 0.0804297 0.381523 L 0.0842969 0.377617 L 0.0998437 0.377617 L 0.103711 0.37375 L 0.103711 0.311562 L 0.107617 0.307695 L 0.111484 0.307695 L 0.115391 0.303789 L 0.119258 0.303789 L 0.123164 0.299922 L 0.138711 0.299922 L 0.142578 0.296055 L 0.146445 0.292148 L 0.150352 0.288281 L 0.150352 0.261055 L 0.154219 0.261055 L 0.158125 0.257188 L 0.169766 0.257188 L 0.173672 0.261055 L 0.185313 0.261055 L 0.189219 0.257188 L 0.193086 0.25332 L 0.196953 0.249414 L 0.193086 0.245547 L 0.193086 0.233867 L 0.189219 0.23 L 0.189219 0.226094 L 0.193086 0.222227 L 0.193086 0.21832 L 0.196953 0.214453 L 0.200859 0.210586 L 0.228047 0.210586 L 0.231953 0.214453 L 0.239688 0.214453 L 0.243594 0.21832 L 0.247461 0.214453 L 0.251367 0.210586 L 0.251367 0.20668 L 0.247461 0.202812 L 0.247461 0.195039 L 0.251367 0.191133 L 0.251367 0.187266 L 0.255234 0.183359 L 0.278555 0.183359 L 0.282422 0.187266 L 0.286328 0.187266 L 0.290195 0.191133 L 0.294102 0.187266 L 0.297969 0.183359 L 0.297969 0.171719 L 0.301875 0.167852 L 0.305742 0.163945 L 0.329063 0.163945 L 0.33293 0.167852 L 0.336836 0.167852 L 0.340703 0.171719 L 0.348477 0.171719 L 0.352383 0.175586 L 0.367891 0.175586 L 0.371797 0.171719 L 0.375664 0.167852 L 0.387344 0.167852 L 0.391211 0.171719 L 0.395117 0.175586 L 0.395117 0.179492 L 0.398984 0.183359 L 0.398984 0.191133 L 0.402891 0.195039 L 0.406758 0.195039 L 0.414531 0.187266 L 0.414531 0.183359 L 0.418398 0.179492 L 0.418398 0.175586 L 0.422305 0.171719 L 0.426172 0.167852 L 0.437852 0.167852 L 0.441719 0.171719 L 0.445625 0.171719 L 0.453398 0.179492 L 0.453398 0.183359 L 0.457266 0.187266 L 0.461133 0.191133 L 0.461133 0.195039 L 0.465039 0.198906 L 0.465039 0.202812 L 0.468906 0.20668 L 0.480586 0.20668 L 0.484453 0.210586 L 0.484453 0.214453 L 0.488359 0.21832 L 0.488359 0.222227 L 0.496133 0.23 L 0.5 0.23 L 0.503867 0.226094 L 0.503867 0.222227 L 0.511641 0.214453 L 0.52332 0.214453 L 0.534961 0.226094 L 0.534961 0.23 L 0.538867 0.233867 L 0.542734 0.237773 L 0.542734 0.241641 L 0.546602 0.245547 L 0.546602 0.261055 L 0.550508 0.264961 L 0.550508 0.280508 L 0.554375 0.284375 L 0.562148 0.284375 L 0.566055 0.280508 L 0.569922 0.280508 L 0.573828 0.284375 L 0.577695 0.288281 L 0.581602 0.292148 L 0.581602 0.299922 L 0.585469 0.303789 L 0.585469 0.307695 L 0.589336 0.311562 L 0.589336 0.319336 L 0.593242 0.323242 L 0.593242 0.331016 L 0.597109 0.334883 L 0.597109 0.338789 L 0.601016 0.342656 L 0.604883 0.342656 L 0.608789 0.346523 L 0.608789 0.37375 L 0.604883 0.377617 L 0.601016 0.377617 L 0.597109 0.381523 L 0.593242 0.381523 L 0.589336 0.385391 L 0.585469 0.389297 L 0.585469 0.393164 L 0.593242 0.400937 L 0.597109 0.400937 L 0.601016 0.404805 L 0.601016 0.424258 L 0.597109 0.428125 L 0.597109 0.443672 L 0.593242 0.447539 L 0.593242 0.451445 L 0.597109 0.455313 L 0.604883 0.455313 L 0.608789 0.451445 L 0.612656 0.455313 L 0.616562 0.455313 L 0.62043 0.451445 L 0.639844 0.451445 L 0.64375 0.455313 L 0.66707 0.455313 L 0.670937 0.459219 L 0.690352 0.459219 L 0.694258 0.463086 L 0.713672 0.463086 L 0.717578 0.466992 L 0.729219 0.466992 L 0.733086 0.470859 L 0.740859 0.470859 L 0.744766 0.474766 L 0.756406 0.474766 L 0.760313 0.478633 L 0.768047 0.478633 L 0.771953 0.4825 L 0.783594 0.4825 L 0.7875 0.486406 L 0.795273 0.486406 L 0.799141 0.490273 L 0.806914 0.490273 L 0.810781 0.49418 L 0.822461 0.49418 L 0.826328 0.498047 L 0.830234 0.498047 L 0.834102 0.501953 L 0.841875 0.501953 L 0.845781 0.50582 L 0.849648 0.50582 L 0.853555 0.509727 L 0.861289 0.509727 L 0.865195 0.513594 L 0.869063 0.513594 L 0.872969 0.5175 L 0.880742 0.5175 L 0.884609 0.521367 L 0.888516 0.521367 L 0.892383 0.525234 L 0.900156 0.525234 L 0.904023 0.529141 L 0.90793 0.529141 L 0.911797 0.533008 L 0.91957 0.533008 L 0.923477 0.536914 L 0.946758 0.536914 L 0.950664 0.540781 L 0.954531 0.540781 L 0.954531 0.548555 L 0.950664 0.552461 L 0.950664 0.560234 L 0.954531 0.564102 L 0.950664 0.567969 L 0.942891 0.567969 L 0.939023 0.564102 L 0.93125 0.564102 L 0.927344 0.560234 L 0.923477 0.556328 L 0.91957 0.556328 L 0.904023 0.540781 L 0.900156 0.540781 L 0.896289 0.536914 L 0.892383 0.536914 L 0.888516 0.533008 L 0.884609 0.533008 L 0.880742 0.529141 L 0.872969 0.529141 L 0.869063 0.525234 L 0.865195 0.525234 L 0.861289 0.521367 L 0.857422 0.521367 L 0.853555 0.5175 L 0.845781 0.5175 L 0.841875 0.513594 L 0.830234 0.513594 L 0.826328 0.509727 L 0.818555 0.509727 L 0.814687 0.50582 L 0.806914 0.50582 L 0.803047 0.501953 L 0.795273 0.501953 L 0.791367 0.498047 L 0.779727 0.498047 L 0.77582 0.49418 L 0.760313 0.49418 L 0.756406 0.490273 L 0.744766 0.490273 L 0.740859 0.486406 L 0.725313 0.486406 L 0.721445 0.4825 L 0.709805 0.4825 L 0.705898 0.478633 L 0.698125 0.478633 L 0.694258 0.474766 L 0.682578 0.474766 L 0.678711 0.470859 L 0.663164 0.470859 L 0.659297 0.466992 L 0.639844 0.466992 L 0.635977 0.463086 L 0.601016 0.463086 L 0.593242 0.470859 L 0.593242 0.474766 L 0.597109 0.478633 L 0.597109 0.4825 L 0.601016 0.486406 L 0.601016 0.490273 L 0.604883 0.49418 L 0.604883 0.501953 L 0.608789 0.50582 L 0.608789 0.5175 L 0.612656 0.521367 L 0.612656 0.560234 L 0.616562 0.564102 L 0.616562 0.587422 L 0.612656 0.591289 L 0.612656 0.602969 L 0.608789 0.606836 L 0.604883 0.610703 L 0.601016 0.614609 L 0.597109 0.618477 L 0.597109 0.634023 L 0.593242 0.63793 L 0.593242 0.645703 L 0.589336 0.64957 L 0.589336 0.657344 L 0.585469 0.661211 L 0.585469 0.668984 L 0.581602 0.668984 L 0.577695 0.672891 L 0.573828 0.668984 L 0.569922 0.668984 L 0.566055 0.672891 L 0.566055 0.711719 L 0.562148 0.715625 L 0.562148 0.719492 L 0.558281 0.723398 L 0.558281 0.731172 L 0.554375 0.735039 L 0.554375 0.754453 L 0.550508 0.758359 L 0.550508 0.766133 L 0.546602 0.77 L 0.546602 0.773906 L 0.542734 0.777773 L 0.531094 0.777773 L 0.527188 0.773906 L 0.52332 0.773906 L 0.519414 0.77 L 0.507773 0.77 L 0.5 0.777773 L 0.496133 0.78168 L 0.496133 0.785547 L 0.492227 0.789414 L 0.488359 0.789414 L 0.484453 0.79332 L 0.484453 0.797188 L 0.480586 0.801094 L 0.480586 0.804961 L 0.47668 0.808867 L 0.47668 0.812734 L 0.472812 0.816641 L 0.468906 0.820508 L 0.465039 0.820508 L 0.461133 0.824414 L 0.449492 0.824414 L 0.445625 0.820508 L 0.445625 0.816641 L 0.441719 0.812734 L 0.437852 0.812734 L 0.433945 0.808867 L 0.430078 0.804961 L 0.422305 0.812734 L 0.422305 0.816641 L 0.418398 0.820508 L 0.414531 0.824414 L 0.410664 0.828281 L 0.406758 0.832148 L 0.398984 0.832148 L 0.395117 0.836055 L 0.383438 0.836055 L 0.37957 0.832148 L 0.375664 0.828281 L 0.375664 0.824414 L 0.371797 0.820508 L 0.367891 0.816641 L 0.364023 0.812734 L 0.360156 0.812734 L 0.344609 0.828281 L 0.329063 0.828281 L 0.325156 0.824414 L 0.321289 0.820508 L 0.321289 0.816641 L 0.317422 0.812734 L 0.317422 0.808867 L 0.309648 0.801094 L 0.301875 0.801094 L 0.297969 0.804961 L 0.294102 0.804961 L 0.290195 0.808867 L 0.286328 0.808867 L 0.282422 0.812734 L 0.266914 0.812734 L 0.263008 0.808867 L 0.255234 0.808867 L 0.255234 0.797188 L 0.251367 0.79332 L 0.251367 0.785547 L 0.247461 0.78168 L 0.239688 0.78168 L 0.23582 0.777773 L 0.228047 0.777773 L 0.22418 0.773906 L 0.220273 0.777773 L 0.216406 0.773906 L 0.185313 0.773906 L 0.181445 0.77 L 0.177539 0.77 L 0.177539 0.766133 L 0.173672 0.762227 L 0.173672 0.738945 L 0.169766 0.735039 L 0.150352 0.735039 L 0.146445 0.731172 L 0.134805 0.731172 L 0.130937 0.727266 L 0.127031 0.727266 L 0.123164 0.723398 L 0.123164 0.696211 L 0.127031 0.692305 L 0.127031 0.684531 L 0.130937 0.680664 L 0.134805 0.676758 L 0.115391 0.657344 L 0.123164 0.64957 L 0.123164 0.645703 L 0.119258 0.641797 L 0.119258 0.63793 L 0.115391 0.634023 L 0.107617 0.634023 L 0.103711 0.63793 L 0.0959766 0.63793 L 0.0959766 0.634023 L 0.0920703 0.630156 L 0.0920703 0.622383 L 0.0959766 0.618477 L 0.0959766 0.614609 L 0.0882031 0.606836 L 0.0842969 0.602969 L 0.0804297 0.602969 L 0.0765234 0.599063 L 0.0765234 0.591289 L 0.0726563 0.587422 L 0.06875 0.587422 L 0.0648828 0.583516 L 0.0571094 0.583516 L 0.0454688 0.571875 L 0.0454688 0.567969 Z M 0.0454688 0.564102 " transform="matrix(100,0,0,100,450,200)"/>
<path style="fill:none;stroke-width:0.01;stroke-linecap:butt;stroke-linejoin:miter;stroke:rgb(0%,0%,0%);stroke-opacity:1;stroke-miterlimit:10;" d="M 0.0454688 0.475195 L 0.0495703 0.471094 L 0.0578516 0.471094 L 0.0661328 0.462813 L 0.0702344 0.458672 L 0.074375 0.458672 L 0.0785156 0.454531 L 0.0826563 0.45043 L 0.0867578 0.446289 L 0.0908984 0.442148 L 0.0950391 0.442148 L 0.0991797 0.438008 L 0.0991797 0.429766 L 0.10332 0.425625 L 0.107422 0.425625 L 0.111562 0.421484 L 0.111562 0.417344 L 0.115703 0.413242 L 0.111562 0.409102 L 0.111562 0.392578 L 0.128086 0.392578 L 0.132227 0.388438 L 0.140508 0.388438 L 0.144609 0.384297 L 0.152891 0.376016 L 0.152891 0.347109 L 0.157031 0.342969 L 0.161172 0.342969 L 0.165273 0.338828 L 0.173555 0.338828 L 0.177695 0.334727 L 0.194219 0.334727 L 0.198359 0.330586 L 0.202461 0.326445 L 0.206602 0.322305 L 0.206602 0.318164 L 0.202461 0.314062 L 0.202461 0.301641 L 0.206602 0.301641 L 0.210742 0.297539 L 0.235547 0.297539 L 0.239688 0.293398 L 0.243789 0.289258 L 0.264453 0.289258 L 0.272734 0.280977 L 0.285117 0.280977 L 0.289258 0.276875 L 0.289258 0.272734 L 0.293398 0.268594 L 0.293398 0.260312 L 0.297539 0.256211 L 0.322305 0.256211 L 0.326445 0.260312 L 0.342969 0.260312 L 0.347109 0.256211 L 0.355391 0.24793 L 0.359492 0.243789 L 0.367773 0.243789 L 0.371914 0.24793 L 0.376016 0.24793 L 0.380156 0.25207 L 0.384297 0.25207 L 0.388438 0.256211 L 0.392578 0.260312 L 0.39668 0.264453 L 0.413242 0.264453 L 0.417344 0.260312 L 0.421484 0.256211 L 0.438008 0.256211 L 0.442148 0.260312 L 0.446289 0.264453 L 0.446289 0.268594 L 0.45043 0.272734 L 0.454531 0.276875 L 0.458672 0.280977 L 0.466953 0.280977 L 0.471094 0.285117 L 0.475195 0.289258 L 0.475195 0.293398 L 0.479336 0.297539 L 0.479336 0.305781 L 0.487617 0.314062 L 0.487617 0.318164 L 0.491719 0.322305 L 0.491719 0.326445 L 0.495859 0.330586 L 0.495859 0.334727 L 0.5 0.338828 L 0.504141 0.342969 L 0.508281 0.342969 L 0.512383 0.338828 L 0.516523 0.334727 L 0.520664 0.338828 L 0.524805 0.338828 L 0.528906 0.342969 L 0.528906 0.347109 L 0.533047 0.35125 L 0.533047 0.359492 L 0.537187 0.363633 L 0.537187 0.384297 L 0.541328 0.388438 L 0.541328 0.392578 L 0.545469 0.39668 L 0.54957 0.40082 L 0.553711 0.404961 L 0.557852 0.404961 L 0.557852 0.409102 L 0.561992 0.413242 L 0.561992 0.442148 L 0.566133 0.446289 L 0.566133 0.466953 L 0.570234 0.471094 L 0.570234 0.5 L 0.566133 0.504141 L 0.566133 0.520664 L 0.570234 0.524805 L 0.586758 0.524805 L 0.590898 0.528906 L 0.60332 0.528906 L 0.607422 0.533047 L 0.619844 0.533047 L 0.623984 0.537187 L 0.636367 0.537187 L 0.640508 0.541328 L 0.677695 0.541328 L 0.681836 0.545469 L 0.735547 0.545469 L 0.739688 0.54957 L 0.880156 0.54957 L 0.884297 0.553711 L 0.917344 0.553711 L 0.921484 0.54957 L 0.925625 0.545469 L 0.929766 0.541328 L 0.933867 0.537187 L 0.95043 0.537187 L 0.95043 0.541328 L 0.954531 0.545469 L 0.954531 0.54957 L 0.95043 0.553711 L 0.95043 0.561992 L 0.938008 0.561992 L 0.933867 0.566133 L 0.921484 0.566133 L 0.917344 0.570234 L 0.913242 0.566133 L 0.89668 0.566133 L 0.892578 0.561992 L 0.888438 0.561992 L 0.884297 0.557852 L 0.867773 0.557852 L 0.863633 0.553711 L 0.661172 0.553711 L 0.657031 0.54957 L 0.636367 0.54957 L 0.632227 0.545469 L 0.615703 0.545469 L 0.611562 0.541328 L 0.60332 0.541328 L 0.59918 0.537187 L 0.578516 0.537187 L 0.570234 0.528906 L 0.566133 0.533047 L 0.561992 0.537187 L 0.561992 0.578516 L 0.557852 0.582656 L 0.557852 0.590898 L 0.553711 0.595039 L 0.553711 0.60332 L 0.54957 0.607422 L 0.545469 0.611563 L 0.541328 0.615703 L 0.541328 0.619844 L 0.537187 0.623984 L 0.537187 0.632227 L 0.533047 0.636367 L 0.533047 0.644609 L 0.528906 0.64875 L 0.524805 0.652891 L 0.520664 0.657031 L 0.516523 0.657031 L 0.508281 0.665273 L 0.508281 0.669414 L 0.504141 0.673555 L 0.504141 0.681836 L 0.5 0.685938 L 0.5 0.690078 L 0.487617 0.702461 L 0.479336 0.702461 L 0.475195 0.698359 L 0.462813 0.698359 L 0.458672 0.702461 L 0.454531 0.706602 L 0.454531 0.710742 L 0.45043 0.714883 L 0.446289 0.719023 L 0.442148 0.723125 L 0.433867 0.731406 L 0.433867 0.735547 L 0.429766 0.739688 L 0.425625 0.743789 L 0.421484 0.74793 L 0.417344 0.74793 L 0.413242 0.75207 L 0.404961 0.75207 L 0.40082 0.74793 L 0.40082 0.743789 L 0.39668 0.739688 L 0.392578 0.735547 L 0.388438 0.739688 L 0.380156 0.739688 L 0.376016 0.743789 L 0.371914 0.74793 L 0.367773 0.74793 L 0.363633 0.75207 L 0.355391 0.75207 L 0.347109 0.743789 L 0.342969 0.743789 L 0.338828 0.74793 L 0.326445 0.74793 L 0.322305 0.75207 L 0.314063 0.75207 L 0.309922 0.756211 L 0.289258 0.756211 L 0.280977 0.74793 L 0.260313 0.74793 L 0.256211 0.743789 L 0.256211 0.739688 L 0.25207 0.735547 L 0.235547 0.735547 L 0.235547 0.731406 L 0.227266 0.723125 L 0.223125 0.719023 L 0.198359 0.719023 L 0.198359 0.714883 L 0.194219 0.710742 L 0.194219 0.702461 L 0.190078 0.698359 L 0.185938 0.694219 L 0.181836 0.694219 L 0.173555 0.685938 L 0.169414 0.681836 L 0.165273 0.681836 L 0.161172 0.677695 L 0.14875 0.677695 L 0.144609 0.673555 L 0.136367 0.673555 L 0.136367 0.64875 L 0.132227 0.644609 L 0.128086 0.640508 L 0.111562 0.640508 L 0.111562 0.628086 L 0.107422 0.623984 L 0.10332 0.619844 L 0.0991797 0.619844 L 0.0950391 0.615703 L 0.0908984 0.615703 L 0.0867578 0.611563 L 0.0867578 0.59918 L 0.0950391 0.590898 L 0.0950391 0.578516 L 0.0867578 0.570234 L 0.0867578 0.561992 L 0.0826563 0.557852 L 0.0785156 0.553711 L 0.0785156 0.54957 L 0.074375 0.545469 L 0.0702344 0.545469 L 0.0661328 0.541328 L 0.0661328 0.528906 L 0.0619922 0.524805 L 0.0619922 0.520664 L 0.0537109 0.512383 L 0.0537109 0.504141 L 0.0495703 0.5 L 0.0495703 0.495859 L 0.0454688 0.491719 L 0.0454688 0.479336 Z M 0.0454688 0.475195 " transform="matrix(100,0,0,100,600,200)"/>
<path style="fill:none;stroke-width:0.01;stroke-linecap:butt;stroke-linejoin:miter;stroke:rgb(0%,0%,0%);stroke-opacity:1;stroke-miterlimit:10;" d="M 0.0454688 0.487305 L 0.0623828 0.470391 L 0.0623828 0.466172 L 0.0666016 0.461953 L 0.0666016 0.457734 L 0.0708203 0.453477 L 0.0708203 0.436562 L 0.0750391 0.432344 L 0.0792969 0.428125 L 0.0792969 0.423906 L 0.0835156 0.419648 L 0.0835156 0.406992 L 0.0792969 0.402734 L 0.0792969 0.377383 L 0.0750391 0.373164 L 0.0750391 0.368906 L 0.0708203 0.364688 L 0.0708203 0.360469 L 0.0792969 0.351992 L 0.0835156 0.351992 L 0.0877344 0.347773 L 0.0919531 0.347773 L 0.0962109 0.343555 L 0.10043 0.339336 L 0.104648 0.335078 L 0.104648 0.330859 L 0.108867 0.326641 L 0.108867 0.313945 L 0.104648 0.309727 L 0.104648 0.297031 L 0.108867 0.292813 L 0.117344 0.292813 L 0.121563 0.288594 L 0.134258 0.288594 L 0.138477 0.284336 L 0.142695 0.280117 L 0.146953 0.275898 L 0.146953 0.258984 L 0.151172 0.254766 L 0.172305 0.254766 L 0.176523 0.250547 L 0.180742 0.246289 L 0.185 0.24207 L 0.185 0.233633 L 0.189219 0.229375 L 0.201914 0.229375 L 0.206133 0.233633 L 0.218828 0.233633 L 0.223047 0.229375 L 0.231484 0.220938 L 0.235742 0.216719 L 0.235742 0.204023 L 0.278008 0.204023 L 0.282227 0.208242 L 0.286484 0.208242 L 0.290703 0.212461 L 0.311836 0.212461 L 0.316055 0.216719 L 0.324531 0.216719 L 0.32875 0.212461 L 0.332969 0.212461 L 0.337227 0.208242 L 0.337227 0.199805 L 0.341445 0.195547 L 0.354141 0.195547 L 0.358359 0.199805 L 0.362578 0.199805 L 0.366797 0.204023 L 0.366797 0.208242 L 0.371055 0.212461 L 0.375273 0.216719 L 0.379492 0.220938 L 0.392188 0.220938 L 0.396406 0.225156 L 0.396406 0.229375 L 0.400625 0.233633 L 0.400625 0.237852 L 0.404844 0.24207 L 0.404844 0.246289 L 0.41332 0.254766 L 0.41332 0.258984 L 0.417539 0.263203 L 0.421758 0.267461 L 0.426016 0.27168 L 0.430234 0.27168 L 0.434453 0.267461 L 0.438672 0.263203 L 0.438672 0.258984 L 0.44293 0.258984 L 0.447148 0.254766 L 0.451367 0.254766 L 0.455586 0.258984 L 0.459844 0.263203 L 0.464062 0.267461 L 0.468281 0.27168 L 0.468281 0.280117 L 0.4725 0.284336 L 0.4725 0.292813 L 0.476758 0.297031 L 0.476758 0.30125 L 0.480977 0.305508 L 0.480977 0.309727 L 0.485195 0.313945 L 0.485195 0.318164 L 0.489414 0.322422 L 0.502109 0.322422 L 0.506328 0.318164 L 0.514805 0.326641 L 0.514805 0.364688 L 0.519023 0.368906 L 0.519023 0.377383 L 0.523242 0.381602 L 0.523242 0.38582 L 0.5275 0.390078 L 0.531719 0.390078 L 0.540156 0.398516 L 0.544414 0.402734 L 0.544414 0.406992 L 0.548633 0.411211 L 0.548633 0.461953 L 0.552852 0.466172 L 0.552852 0.470391 L 0.548633 0.474648 L 0.548633 0.495781 L 0.552852 0.5 L 0.55707 0.5 L 0.561328 0.504219 L 0.565547 0.504219 L 0.569766 0.5 L 0.582461 0.5 L 0.58668 0.495781 L 0.595156 0.495781 L 0.599375 0.491563 L 0.607812 0.491563 L 0.612031 0.487305 L 0.624727 0.487305 L 0.628945 0.483086 L 0.633203 0.483086 L 0.637422 0.478867 L 0.645859 0.478867 L 0.650117 0.474648 L 0.654336 0.474648 L 0.658555 0.470391 L 0.667031 0.470391 L 0.67125 0.466172 L 0.675469 0.466172 L 0.679688 0.461953 L 0.683945 0.461953 L 0.688164 0.457734 L 0.692383 0.457734 L 0.696602 0.453477 L 0.700859 0.453477 L 0.705078 0.449258 L 0.709297 0.449258 L 0.713516 0.445039 L 0.717773 0.445039 L 0.721992 0.44082 L 0.726211 0.44082 L 0.73043 0.436562 L 0.734688 0.432344 L 0.738906 0.432344 L 0.743125 0.428125 L 0.747344 0.428125 L 0.751602 0.423906 L 0.75582 0.423906 L 0.760039 0.419648 L 0.764258 0.41543 L 0.768516 0.41543 L 0.772734 0.411211 L 0.776953 0.411211 L 0.78543 0.402734 L 0.789648 0.402734 L 0.798086 0.394297 L 0.802344 0.394297 L 0.806563 0.390078 L 0.810781 0.38582 L 0.815 0.38582 L 0.819258 0.381602 L 0.823477 0.377383 L 0.827695 0.377383 L 0.831914 0.373164 L 0.836133 0.368906 L 0.840391 0.364688 L 0.848828 0.35625 L 0.853047 0.35625 L 0.865742 0.343555 L 0.869961 0.343555 L 0.874219 0.339336 L 0.874219 0.335078 L 0.878437 0.335078 L 0.886875 0.326641 L 0.886875 0.322422 L 0.908047 0.30125 L 0.908047 0.297031 L 0.912266 0.292813 L 0.912266 0.288594 L 0.916484 0.284336 L 0.916484 0.275898 L 0.920703 0.27168 L 0.920703 0.267461 L 0.924961 0.263203 L 0.924961 0.254766 L 0.92918 0.250547 L 0.92918 0.246289 L 0.950313 0.246289 L 0.954531 0.250547 L 0.954531 0.263203 L 0.950313 0.267461 L 0.941875 0.275898 L 0.937617 0.280117 L 0.933398 0.284336 L 0.933398 0.288594 L 0.924961 0.297031 L 0.920703 0.30125 L 0.920703 0.305508 L 0.869961 0.35625 L 0.865742 0.35625 L 0.857305 0.364688 L 0.853047 0.368906 L 0.848828 0.368906 L 0.844609 0.373164 L 0.840391 0.377383 L 0.836133 0.381602 L 0.831914 0.38582 L 0.827695 0.38582 L 0.823477 0.390078 L 0.819258 0.394297 L 0.815 0.394297 L 0.806563 0.402734 L 0.802344 0.406992 L 0.798086 0.406992 L 0.793867 0.411211 L 0.789648 0.411211 L 0.78543 0.41543 L 0.781172 0.419648 L 0.776953 0.419648 L 0.772734 0.423906 L 0.768516 0.423906 L 0.764258 0.428125 L 0.760039 0.432344 L 0.75582 0.432344 L 0.751602 0.436562 L 0.747344 0.436562 L 0.743125 0.44082 L 0.738906 0.44082 L 0.734688 0.445039 L 0.73043 0.449258 L 0.726211 0.449258 L 0.721992 0.453477 L 0.717773 0.453477 L 0.713516 0.457734 L 0.709297 0.457734 L 0.700859 0.466172 L 0.692383 0.466172 L 0.688164 0.470391 L 0.683945 0.474648 L 0.675469 0.474648 L 0.667031 0.483086 L 0.658555 0.483086 L 0.654336 0.487305 L 0.650117 0.487305 L 0.645859 0.491563 L 0.637422 0.491563 L 0.633203 0.495781 L 0.628945 0.495781 L 0.624727 0.5 L 0.616289 0.5 L 0.612031 0.504219 L 0.603594 0.504219 L 0.599375 0.508438 L 0.595156 0.504219 L 0.590898 0.508438 L 0.578242 0.508438 L 0.573984 0.512695 L 0.561328 0.512695 L 0.55707 0.508438 L 0.552852 0.508438 L 0.548633 0.512695 L 0.548633 0.546523 L 0.544414 0.550742 L 0.544414 0.567656 L 0.540156 0.571875 L 0.540156 0.609922 L 0.535938 0.61418 L 0.535938 0.622617 L 0.531719 0.626836 L 0.5275 0.626836 L 0.514805 0.639531 L 0.514805 0.673359 L 0.506328 0.681836 L 0.506328 0.686055 L 0.502109 0.686055 L 0.497891 0.690273 L 0.493672 0.686055 L 0.489414 0.686055 L 0.485195 0.690273 L 0.480977 0.690273 L 0.4725 0.69875 L 0.468281 0.69875 L 0.459844 0.707187 L 0.459844 0.711406 L 0.455586 0.715664 L 0.455586 0.724102 L 0.451367 0.72832 L 0.451367 0.732539 L 0.447148 0.736797 L 0.447148 0.741016 L 0.44293 0.745234 L 0.438672 0.749453 L 0.438672 0.753711 L 0.434453 0.753711 L 0.430234 0.75793 L 0.421758 0.75793 L 0.421758 0.753711 L 0.417539 0.749453 L 0.41332 0.745234 L 0.404844 0.745234 L 0.400625 0.749453 L 0.400625 0.753711 L 0.396406 0.75793 L 0.396406 0.762148 L 0.392188 0.766367 L 0.387969 0.770625 L 0.387969 0.779063 L 0.383711 0.783281 L 0.379492 0.787539 L 0.371055 0.787539 L 0.366797 0.791758 L 0.362578 0.787539 L 0.358359 0.783281 L 0.354141 0.787539 L 0.349883 0.787539 L 0.332969 0.804453 L 0.307617 0.804453 L 0.303398 0.800195 L 0.303398 0.791758 L 0.299141 0.787539 L 0.294922 0.787539 L 0.290703 0.783281 L 0.282227 0.783281 L 0.278008 0.779063 L 0.248398 0.779063 L 0.24418 0.783281 L 0.235742 0.783281 L 0.231484 0.787539 L 0.227266 0.783281 L 0.218828 0.783281 L 0.21457 0.779063 L 0.21457 0.770625 L 0.210352 0.766367 L 0.206133 0.766367 L 0.201914 0.762148 L 0.172305 0.762148 L 0.168086 0.75793 L 0.168086 0.749453 L 0.163867 0.745234 L 0.163867 0.741016 L 0.159609 0.736797 L 0.138477 0.736797 L 0.134258 0.732539 L 0.134258 0.715664 L 0.130039 0.711406 L 0.130039 0.707187 L 0.125781 0.702969 L 0.121563 0.702969 L 0.121563 0.69875 L 0.117344 0.694492 L 0.113125 0.690273 L 0.104648 0.690273 L 0.10043 0.686055 L 0.0962109 0.686055 L 0.0919531 0.681836 L 0.0877344 0.677578 L 0.0877344 0.664922 L 0.0919531 0.660664 L 0.0919531 0.656445 L 0.0962109 0.652227 L 0.0962109 0.64375 L 0.0919531 0.639531 L 0.0919531 0.631094 L 0.0877344 0.626836 L 0.0877344 0.618398 L 0.0835156 0.61418 L 0.0792969 0.609922 L 0.0750391 0.605703 L 0.0708203 0.601484 L 0.0708203 0.588789 L 0.0750391 0.58457 L 0.0792969 0.580352 L 0.0792969 0.550742 L 0.0750391 0.546523 L 0.0750391 0.542266 L 0.0666016 0.533828 L 0.0666016 0.521133 L 0.0708203 0.516914 L 0.0750391 0.516914 L 0.0792969 0.512695 L 0.0792969 0.508438 L 0.0750391 0.504219 L 0.0750391 0.495781 L 0.0708203 0.491563 L 0.0666016 0.487305 L 0.0623828 0.491563 L 0.0454688 0.491563 Z M 0.0454688 0.487305 " transform="matrix(100,0,0,100,0,350)"/>
<path style="fill:none;stroke-width:0.01;stroke-linecap:butt;stroke-linejoin:miter;stroke:rgb(0%,0%,0%);stroke-opacity:1;stroke-miterlimit:10;" d="M 0.0454687 0.477461 L 0.0495313 0.473398 L 0.0495313 0.465195 L 0.0618359 0.452891 L 0.0659375 0.448828 L 0.0659375 0.440625 L 0.0700391 0.436523 L 0.0700391 0.424258 L 0.0741016 0.424258 L 0.0782031 0.420156 L 0.0823047 0.420156 L 0.0905078 0.411953 L 0.0905078 0.395586 L 0.0864063 0.391484 L 0.0905078 0.387383 L 0.0905078 0.383281 L 0.0946094 0.383281 L 0.0986719 0.37918 L 0.102773 0.37918 L 0.106875 0.375117 L 0.115078 0.366914 L 0.115078 0.362812 L 0.11918 0.358711 L 0.11918 0.354609 L 0.127344 0.346445 L 0.127344 0.334141 L 0.123242 0.330039 L 0.123242 0.317773 L 0.131445 0.30957 L 0.147813 0.30957 L 0.151914 0.305469 L 0.160117 0.305469 L 0.164219 0.301406 L 0.16832 0.297305 L 0.172383 0.293203 L 0.180586 0.285 L 0.180586 0.272734 L 0.184688 0.268633 L 0.217461 0.268633 L 0.221523 0.264531 L 0.225625 0.264531 L 0.233828 0.256328 L 0.23793 0.252266 L 0.23793 0.244063 L 0.242031 0.239961 L 0.246094 0.235859 L 0.250195 0.235859 L 0.254297 0.239961 L 0.258398 0.239961 L 0.266602 0.231758 L 0.266602 0.227695 L 0.270664 0.223594 L 0.274766 0.219492 L 0.28707 0.219492 L 0.291172 0.223594 L 0.299336 0.223594 L 0.303438 0.227695 L 0.315742 0.227695 L 0.319805 0.223594 L 0.332109 0.211289 L 0.336211 0.207227 L 0.35668 0.207227 L 0.360781 0.211289 L 0.364883 0.215391 L 0.368945 0.219492 L 0.377148 0.227695 L 0.38125 0.227695 L 0.385352 0.231758 L 0.389453 0.231758 L 0.393516 0.235859 L 0.414023 0.235859 L 0.418086 0.231758 L 0.422187 0.227695 L 0.422187 0.215391 L 0.426289 0.211289 L 0.430391 0.211289 L 0.434492 0.207227 L 0.438594 0.211289 L 0.442656 0.211289 L 0.446758 0.215391 L 0.450859 0.215391 L 0.463164 0.227695 L 0.463164 0.231758 L 0.467227 0.235859 L 0.483633 0.252266 L 0.487734 0.252266 L 0.491797 0.256328 L 0.491797 0.26043 L 0.495898 0.264531 L 0.495898 0.285 L 0.5 0.289102 L 0.5 0.293203 L 0.504102 0.297305 L 0.504102 0.305469 L 0.508203 0.30957 L 0.512266 0.30957 L 0.516367 0.313672 L 0.520469 0.30957 L 0.536836 0.30957 L 0.536836 0.313672 L 0.540938 0.317773 L 0.540938 0.330039 L 0.549141 0.338242 L 0.549141 0.342344 L 0.553242 0.346445 L 0.553242 0.350547 L 0.557344 0.354609 L 0.565508 0.354609 L 0.573711 0.362812 L 0.573711 0.366914 L 0.577812 0.371016 L 0.577812 0.37918 L 0.573711 0.383281 L 0.573711 0.420156 L 0.577812 0.424258 L 0.581914 0.42832 L 0.581914 0.432422 L 0.585977 0.436523 L 0.585977 0.440625 L 0.581914 0.444727 L 0.581914 0.461094 L 0.577812 0.465195 L 0.577812 0.489766 L 0.573711 0.493867 L 0.573711 0.514336 L 0.577812 0.518438 L 0.581914 0.518438 L 0.585977 0.514336 L 0.610547 0.514336 L 0.614648 0.510234 L 0.651523 0.510234 L 0.655625 0.506133 L 0.667891 0.506133 L 0.671992 0.502031 L 0.684258 0.502031 L 0.688359 0.497969 L 0.696563 0.497969 L 0.700664 0.493867 L 0.704766 0.493867 L 0.708828 0.489766 L 0.71293 0.489766 L 0.717031 0.485664 L 0.721133 0.485664 L 0.725234 0.481562 L 0.729336 0.481562 L 0.733398 0.477461 L 0.7375 0.477461 L 0.741602 0.473398 L 0.745703 0.473398 L 0.749805 0.469297 L 0.753906 0.469297 L 0.757969 0.465195 L 0.76207 0.465195 L 0.766172 0.461094 L 0.774375 0.461094 L 0.778477 0.456992 L 0.782539 0.452891 L 0.786641 0.452891 L 0.790742 0.448828 L 0.794844 0.444727 L 0.798945 0.444727 L 0.803047 0.440625 L 0.807109 0.440625 L 0.811211 0.436523 L 0.815313 0.436523 L 0.823516 0.42832 L 0.827617 0.424258 L 0.83168 0.424258 L 0.839883 0.416055 L 0.843984 0.416055 L 0.852187 0.407852 L 0.85625 0.40375 L 0.860352 0.40375 L 0.864453 0.399688 L 0.876758 0.387383 L 0.88082 0.383281 L 0.884922 0.37918 L 0.889023 0.37918 L 0.893125 0.375117 L 0.901328 0.366914 L 0.905391 0.362812 L 0.909492 0.362812 L 0.917695 0.354609 L 0.921797 0.350547 L 0.925898 0.346445 L 0.929961 0.346445 L 0.934063 0.342344 L 0.950469 0.342344 L 0.954531 0.346445 L 0.954531 0.366914 L 0.950469 0.362812 L 0.925898 0.362812 L 0.921797 0.366914 L 0.917695 0.366914 L 0.909492 0.375117 L 0.905391 0.37918 L 0.901328 0.37918 L 0.889023 0.391484 L 0.884922 0.391484 L 0.88082 0.395586 L 0.876758 0.399688 L 0.872656 0.40375 L 0.864453 0.411953 L 0.860352 0.411953 L 0.85625 0.416055 L 0.852187 0.420156 L 0.848086 0.420156 L 0.843984 0.424258 L 0.839883 0.42832 L 0.83168 0.436523 L 0.827617 0.440625 L 0.823516 0.440625 L 0.815313 0.448828 L 0.811211 0.448828 L 0.807109 0.452891 L 0.803047 0.456992 L 0.798945 0.456992 L 0.794844 0.461094 L 0.790742 0.461094 L 0.782539 0.469297 L 0.778477 0.469297 L 0.774375 0.473398 L 0.770273 0.473398 L 0.766172 0.477461 L 0.76207 0.477461 L 0.757969 0.481562 L 0.753906 0.481562 L 0.749805 0.485664 L 0.745703 0.485664 L 0.741602 0.489766 L 0.7375 0.489766 L 0.733398 0.493867 L 0.729336 0.493867 L 0.725234 0.497969 L 0.717031 0.497969 L 0.71293 0.502031 L 0.708828 0.502031 L 0.704766 0.506133 L 0.696563 0.506133 L 0.692461 0.510234 L 0.688359 0.510234 L 0.684258 0.514336 L 0.671992 0.514336 L 0.667891 0.518438 L 0.663789 0.518438 L 0.659687 0.522539 L 0.635117 0.522539 L 0.631055 0.526602 L 0.581914 0.526602 L 0.573711 0.534805 L 0.577812 0.538906 L 0.577812 0.600313 L 0.573711 0.604414 L 0.573711 0.649453 L 0.569609 0.653555 L 0.569609 0.657656 L 0.561406 0.665859 L 0.553242 0.665859 L 0.549141 0.669961 L 0.545039 0.669961 L 0.540938 0.674023 L 0.536836 0.678125 L 0.532773 0.682227 L 0.532773 0.686328 L 0.528672 0.69043 L 0.528672 0.694531 L 0.52457 0.698594 L 0.52457 0.702695 L 0.520469 0.706797 L 0.520469 0.715 L 0.516367 0.719102 L 0.516367 0.723164 L 0.512266 0.727266 L 0.512266 0.731367 L 0.508203 0.731367 L 0.5 0.73957 L 0.495898 0.73957 L 0.491797 0.735469 L 0.487734 0.731367 L 0.483633 0.735469 L 0.479531 0.735469 L 0.471328 0.743672 L 0.471328 0.747734 L 0.467227 0.751836 L 0.463164 0.755937 L 0.459063 0.760039 L 0.459063 0.764141 L 0.454961 0.768242 L 0.450859 0.768242 L 0.446758 0.772305 L 0.434492 0.772305 L 0.434492 0.768242 L 0.426289 0.760039 L 0.422187 0.760039 L 0.418086 0.764141 L 0.414023 0.768242 L 0.409922 0.772305 L 0.393516 0.788711 L 0.389453 0.788711 L 0.385352 0.792773 L 0.368945 0.792773 L 0.368945 0.788711 L 0.364883 0.784609 L 0.35668 0.776406 L 0.348477 0.776406 L 0.344375 0.780508 L 0.332109 0.780508 L 0.328008 0.784609 L 0.323906 0.784609 L 0.319805 0.788711 L 0.307539 0.788711 L 0.303438 0.792773 L 0.299336 0.788711 L 0.28707 0.788711 L 0.282969 0.784609 L 0.282969 0.772305 L 0.278867 0.768242 L 0.270664 0.760039 L 0.233828 0.760039 L 0.229727 0.755937 L 0.225625 0.755937 L 0.221523 0.751836 L 0.221523 0.735469 L 0.217461 0.731367 L 0.213359 0.731367 L 0.209258 0.727266 L 0.205156 0.727266 L 0.201055 0.731367 L 0.192891 0.731367 L 0.184688 0.723164 L 0.184688 0.715 L 0.180586 0.710898 L 0.176484 0.710898 L 0.172383 0.706797 L 0.164219 0.706797 L 0.160117 0.702695 L 0.156016 0.702695 L 0.156016 0.686328 L 0.147813 0.678125 L 0.14375 0.678125 L 0.139648 0.674023 L 0.127344 0.674023 L 0.123242 0.669961 L 0.11918 0.665859 L 0.11918 0.633086 L 0.110977 0.624883 L 0.110977 0.62082 L 0.0986719 0.608516 L 0.0946094 0.604414 L 0.0905078 0.600313 L 0.0864063 0.59625 L 0.0823047 0.59625 L 0.0782031 0.592148 L 0.0782031 0.583945 L 0.0823047 0.579844 L 0.0823047 0.547109 L 0.0741016 0.538906 L 0.0741016 0.526602 L 0.0700391 0.522539 L 0.0700391 0.518438 L 0.0659375 0.514336 L 0.0659375 0.502031 L 0.0618359 0.497969 L 0.0536328 0.489766 L 0.0536328 0.485664 L 0.0495313 0.481562 Z M 0.0454687 0.477461 " transform="matrix(100,0,0,100,150,350)"/>
<path style="fill:none;stroke-width:0.01;stroke-linecap:butt;stroke-linejoin:miter;stroke:rgb(0%,0%,0%);stroke-opacity:1;stroke-miterlimit:10;" d="M 0.0454687 0.493906 L 0.0495313 0.489844 L 0.0495313 0.485781 L 0.0535547 0.481719 L 0.0576172 0.477695 L 0.0616797 0.473633 L 0.0616797 0.465508 L 0.0657422 0.461445 L 0.0657422 0.457383 L 0.0738672 0.449258 L 0.0738672 0.441172 L 0.0698047 0.437109 L 0.0698047 0.433047 L 0.0657422 0.428984 L 0.0657422 0.424922 L 0.0616797 0.420859 L 0.0616797 0.412734 L 0.0576172 0.408672 L 0.0576172 0.404609 L 0.0616797 0.400586 L 0.0698047 0.392461 L 0.0779297 0.392461 L 0.0819922 0.388398 L 0.0819922 0.372148 L 0.0860547 0.368086 L 0.0900781 0.364023 L 0.0900781 0.355938 L 0.0860547 0.351875 L 0.0860547 0.339688 L 0.0941406 0.339688 L 0.102266 0.331562 L 0.106328 0.331562 L 0.110391 0.3275 L 0.114453 0.323477 L 0.118516 0.319414 L 0.118516 0.311289 L 0.114453 0.307227 L 0.114453 0.286914 L 0.118516 0.282891 L 0.122578 0.282891 L 0.126641 0.278828 L 0.130664 0.278828 L 0.134727 0.274766 L 0.142852 0.274766 L 0.155039 0.262578 L 0.155039 0.23418 L 0.159102 0.230117 L 0.163164 0.230117 L 0.167227 0.226055 L 0.1875 0.226055 L 0.191562 0.230117 L 0.211836 0.230117 L 0.219961 0.221992 L 0.219961 0.21793 L 0.224023 0.213867 L 0.224023 0.209805 L 0.244336 0.209805 L 0.248359 0.213867 L 0.252422 0.21793 L 0.268672 0.21793 L 0.272734 0.213867 L 0.305195 0.213867 L 0.31332 0.221992 L 0.317383 0.221992 L 0.321445 0.226055 L 0.325469 0.221992 L 0.325469 0.209805 L 0.329531 0.205781 L 0.329531 0.201719 L 0.345781 0.201719 L 0.349844 0.205781 L 0.357969 0.205781 L 0.362031 0.209805 L 0.366055 0.209805 L 0.37418 0.21793 L 0.378242 0.21793 L 0.386367 0.226055 L 0.394492 0.226055 L 0.398555 0.230117 L 0.406641 0.230117 L 0.410703 0.23418 L 0.414766 0.23418 L 0.418828 0.238242 L 0.422891 0.238242 L 0.426953 0.242305 L 0.431016 0.242305 L 0.435078 0.246328 L 0.439141 0.250391 L 0.443164 0.254453 L 0.447227 0.258516 L 0.451289 0.258516 L 0.459414 0.250391 L 0.475664 0.250391 L 0.479727 0.254453 L 0.48375 0.258516 L 0.48375 0.262578 L 0.487812 0.266641 L 0.487812 0.270703 L 0.491875 0.274766 L 0.491875 0.290977 L 0.5 0.299102 L 0.51625 0.299102 L 0.520273 0.303164 L 0.524336 0.303164 L 0.532461 0.311289 L 0.532461 0.315352 L 0.540586 0.323477 L 0.540586 0.331562 L 0.544648 0.335625 L 0.544648 0.347813 L 0.548711 0.351875 L 0.548711 0.368086 L 0.552773 0.372148 L 0.552773 0.408672 L 0.556836 0.412734 L 0.556836 0.420859 L 0.560859 0.424922 L 0.560859 0.428984 L 0.564922 0.433047 L 0.573047 0.433047 L 0.577109 0.428984 L 0.581172 0.428984 L 0.593359 0.416797 L 0.597422 0.416797 L 0.601445 0.412734 L 0.601445 0.408672 L 0.605508 0.408672 L 0.60957 0.404609 L 0.613633 0.404609 L 0.617695 0.400586 L 0.621758 0.396523 L 0.62582 0.396523 L 0.629883 0.392461 L 0.633945 0.392461 L 0.637969 0.388398 L 0.642031 0.388398 L 0.646094 0.384336 L 0.654219 0.384336 L 0.658281 0.380273 L 0.666406 0.380273 L 0.670469 0.376211 L 0.678555 0.376211 L 0.682617 0.372148 L 0.698867 0.372148 L 0.70293 0.368086 L 0.711055 0.368086 L 0.715078 0.364023 L 0.719141 0.368086 L 0.723203 0.364023 L 0.743516 0.364023 L 0.747578 0.36 L 0.763789 0.36 L 0.767852 0.355938 L 0.840898 0.355938 L 0.844961 0.351875 L 0.893672 0.351875 L 0.897734 0.347813 L 0.934258 0.347813 L 0.93832 0.351875 L 0.946445 0.351875 L 0.950469 0.347813 L 0.954531 0.351875 L 0.954531 0.372148 L 0.950469 0.372148 L 0.946445 0.368086 L 0.942383 0.364023 L 0.93832 0.364023 L 0.934258 0.368086 L 0.930195 0.368086 L 0.92207 0.376211 L 0.913945 0.376211 L 0.909922 0.372148 L 0.905859 0.376211 L 0.901797 0.372148 L 0.893672 0.372148 L 0.889609 0.368086 L 0.873359 0.368086 L 0.869336 0.364023 L 0.788164 0.364023 L 0.784102 0.368086 L 0.747578 0.368086 L 0.743516 0.372148 L 0.727266 0.372148 L 0.723203 0.376211 L 0.711055 0.376211 L 0.706992 0.380273 L 0.690742 0.380273 L 0.682617 0.388398 L 0.674531 0.388398 L 0.670469 0.392461 L 0.666406 0.392461 L 0.662344 0.396523 L 0.658281 0.396523 L 0.654219 0.400586 L 0.650156 0.400586 L 0.646094 0.404609 L 0.642031 0.404609 L 0.637969 0.408672 L 0.633945 0.408672 L 0.629883 0.412734 L 0.62582 0.412734 L 0.621758 0.416797 L 0.617695 0.416797 L 0.605508 0.428984 L 0.601445 0.428984 L 0.597422 0.433047 L 0.593359 0.433047 L 0.585234 0.441172 L 0.573047 0.441172 L 0.568984 0.445195 L 0.568984 0.46957 L 0.573047 0.473633 L 0.573047 0.485781 L 0.577109 0.489844 L 0.577109 0.497969 L 0.581172 0.502031 L 0.581172 0.510156 L 0.585234 0.514219 L 0.585234 0.518281 L 0.589297 0.522305 L 0.589297 0.534492 L 0.593359 0.538555 L 0.593359 0.554805 L 0.589297 0.558828 L 0.589297 0.562891 L 0.585234 0.566953 L 0.585234 0.571016 L 0.581172 0.575078 L 0.585234 0.579141 L 0.585234 0.607539 L 0.589297 0.611602 L 0.589297 0.623789 L 0.585234 0.627852 L 0.585234 0.635977 L 0.581172 0.64 L 0.581172 0.644063 L 0.577109 0.644063 L 0.573047 0.648125 L 0.564922 0.648125 L 0.560859 0.644063 L 0.560859 0.635977 L 0.556836 0.631914 L 0.552773 0.627852 L 0.544648 0.635977 L 0.540586 0.64 L 0.544648 0.644063 L 0.544648 0.6725 L 0.540586 0.676523 L 0.540586 0.688711 L 0.536523 0.692773 L 0.536523 0.696836 L 0.532461 0.700898 L 0.532461 0.704961 L 0.528398 0.709023 L 0.51625 0.709023 L 0.504062 0.696836 L 0.495938 0.696836 L 0.487812 0.704961 L 0.495938 0.713086 L 0.495938 0.717109 L 0.487812 0.725234 L 0.487812 0.741484 L 0.48375 0.745547 L 0.48375 0.749609 L 0.479727 0.753672 L 0.475664 0.757695 L 0.451289 0.757695 L 0.447227 0.761758 L 0.443164 0.761758 L 0.439141 0.76582 L 0.431016 0.773945 L 0.422891 0.773945 L 0.418828 0.778008 L 0.410703 0.778008 L 0.406641 0.78207 L 0.406641 0.786133 L 0.398555 0.794219 L 0.394492 0.794219 L 0.39043 0.798281 L 0.378242 0.798281 L 0.37418 0.794219 L 0.37418 0.790195 L 0.370117 0.786133 L 0.353906 0.786133 L 0.349844 0.790195 L 0.345781 0.786133 L 0.341719 0.790195 L 0.337656 0.794219 L 0.333594 0.794219 L 0.329531 0.798281 L 0.321445 0.798281 L 0.317383 0.794219 L 0.317383 0.790195 L 0.309258 0.78207 L 0.219961 0.78207 L 0.215898 0.778008 L 0.215898 0.761758 L 0.211836 0.757695 L 0.211836 0.753672 L 0.207773 0.749609 L 0.20375 0.749609 L 0.199688 0.745547 L 0.191562 0.745547 L 0.1875 0.749609 L 0.163164 0.749609 L 0.159102 0.745547 L 0.155039 0.745547 L 0.146914 0.737422 L 0.150977 0.733359 L 0.150977 0.717109 L 0.146914 0.713086 L 0.142852 0.709023 L 0.142852 0.704961 L 0.138789 0.700898 L 0.138789 0.696836 L 0.134727 0.692773 L 0.130664 0.692773 L 0.126641 0.688711 L 0.118516 0.680586 L 0.102266 0.680586 L 0.0982031 0.676523 L 0.0982031 0.664375 L 0.102266 0.660312 L 0.102266 0.652188 L 0.0982031 0.648125 L 0.0982031 0.644063 L 0.0941406 0.64 L 0.0900781 0.635977 L 0.0819922 0.635977 L 0.0779297 0.631914 L 0.0779297 0.623789 L 0.0738672 0.619727 L 0.0738672 0.615664 L 0.0576172 0.599414 L 0.0495313 0.599414 L 0.0454687 0.595391 L 0.0454687 0.562891 L 0.0495313 0.558828 L 0.0495313 0.550742 L 0.0535547 0.54668 L 0.0535547 0.542617 L 0.0576172 0.538555 L 0.0576172 0.534492 L 0.0616797 0.53043 L 0.0616797 0.526367 L 0.0657422 0.522305 L 0.0657422 0.518281 L 0.0535547 0.506094 L 0.0495313 0.502031 L 0.0454687 0.497969 Z M 0.0454687 0.493906 " transform="matrix(100,0,0,100,300,350)"/>
<path style="fill:none;stroke-width:0.01;stroke-linecap:butt;stroke-linejoin:miter;stroke:rgb(0%,0%,0%);stroke-opacity:1;stroke-miterlimit:10;" d="M 0.0454688 0.531758 L 0.0494141 0.527773 L 0.0533984 0.527773 L 0.0573828 0.523828 L 0.0613281 0.519844 L 0.0613281 0.50793 L 0.0653125 0.503984 L 0.0653125 0.5 L 0.0692578 0.496016 L 0.0692578 0.49207 L 0.0772266 0.484102 L 0.0772266 0.476172 L 0.0732422 0.472227 L 0.0732422 0.460313 L 0.0772266 0.456328 L 0.0811719 0.456328 L 0.0851562 0.452344 L 0.0851562 0.444414 L 0.0811719 0.440469 L 0.0811719 0.4325 L 0.0732422 0.42457 L 0.0732422 0.420586 L 0.0692578 0.416641 L 0.0732422 0.412656 L 0.0732422 0.408711 L 0.0772266 0.404727 L 0.0851562 0.404727 L 0.0970703 0.392813 L 0.101016 0.388828 L 0.101016 0.384883 L 0.105 0.380898 L 0.105 0.376953 L 0.108984 0.372969 L 0.108984 0.361055 L 0.105 0.35707 L 0.105 0.341211 L 0.108984 0.341211 L 0.11293 0.337227 L 0.116914 0.333281 L 0.140742 0.333281 L 0.144687 0.329297 L 0.148672 0.325312 L 0.148672 0.313438 L 0.144687 0.309453 L 0.144687 0.293555 L 0.148672 0.293555 L 0.152656 0.289609 L 0.168516 0.289609 L 0.1725 0.285625 L 0.18043 0.285625 L 0.184414 0.281641 L 0.188359 0.281641 L 0.192344 0.277695 L 0.196289 0.273711 L 0.196289 0.265781 L 0.200273 0.261797 L 0.204258 0.261797 L 0.208203 0.257852 L 0.212187 0.257852 L 0.216172 0.253867 L 0.216172 0.245938 L 0.220117 0.241953 L 0.220117 0.238008 L 0.224102 0.238008 L 0.228086 0.234023 L 0.236016 0.234023 L 0.239961 0.238008 L 0.251875 0.238008 L 0.255859 0.241953 L 0.267773 0.241953 L 0.271719 0.238008 L 0.271719 0.230039 L 0.275703 0.226094 L 0.275703 0.218125 L 0.279688 0.21418 L 0.315391 0.21418 L 0.319375 0.210195 L 0.323359 0.20625 L 0.351133 0.20625 L 0.355117 0.210195 L 0.359063 0.21418 L 0.363047 0.218125 L 0.366992 0.218125 L 0.370977 0.222109 L 0.374961 0.222109 L 0.378906 0.226094 L 0.382891 0.230039 L 0.386875 0.234023 L 0.39082 0.234023 L 0.394805 0.230039 L 0.394805 0.222109 L 0.39875 0.222109 L 0.402734 0.218125 L 0.406719 0.218125 L 0.410664 0.222109 L 0.414648 0.222109 L 0.418633 0.226094 L 0.422578 0.226094 L 0.426563 0.230039 L 0.434492 0.230039 L 0.438477 0.234023 L 0.442422 0.234023 L 0.446406 0.238008 L 0.450391 0.238008 L 0.454336 0.241953 L 0.45832 0.241953 L 0.462305 0.245938 L 0.46625 0.245938 L 0.470234 0.241953 L 0.490078 0.241953 L 0.494063 0.245938 L 0.494063 0.249883 L 0.498008 0.253867 L 0.498008 0.257852 L 0.501992 0.261797 L 0.505937 0.265781 L 0.505937 0.273711 L 0.509922 0.277695 L 0.509922 0.289609 L 0.513906 0.293555 L 0.513906 0.297539 L 0.517852 0.301523 L 0.517852 0.305469 L 0.529766 0.317383 L 0.529766 0.321367 L 0.53375 0.325312 L 0.549609 0.325312 L 0.561523 0.337227 L 0.561523 0.341211 L 0.565508 0.345195 L 0.565508 0.353125 L 0.569453 0.35707 L 0.569453 0.368984 L 0.573437 0.372969 L 0.573437 0.464258 L 0.577422 0.468242 L 0.577422 0.476172 L 0.581367 0.480156 L 0.605195 0.480156 L 0.60918 0.476172 L 0.633008 0.476172 L 0.636953 0.472227 L 0.672695 0.472227 L 0.676641 0.468242 L 0.684609 0.468242 L 0.688555 0.464258 L 0.700469 0.464258 L 0.704453 0.460313 L 0.712383 0.460313 L 0.716367 0.456328 L 0.728281 0.456328 L 0.732227 0.452344 L 0.736211 0.452344 L 0.740156 0.448398 L 0.748125 0.448398 L 0.75207 0.444414 L 0.756055 0.444414 L 0.760039 0.440469 L 0.763984 0.440469 L 0.767969 0.436484 L 0.771914 0.436484 L 0.775898 0.4325 L 0.779883 0.4325 L 0.783828 0.428555 L 0.787813 0.428555 L 0.791797 0.42457 L 0.795742 0.42457 L 0.799727 0.420586 L 0.803711 0.416641 L 0.807656 0.416641 L 0.811641 0.412656 L 0.815586 0.412656 L 0.81957 0.408711 L 0.823555 0.404727 L 0.8275 0.404727 L 0.831484 0.400742 L 0.835469 0.396797 L 0.839414 0.392813 L 0.843398 0.388828 L 0.847344 0.388828 L 0.851328 0.384883 L 0.855313 0.380898 L 0.859258 0.380898 L 0.863242 0.376953 L 0.867227 0.372969 L 0.871172 0.368984 L 0.871172 0.365039 L 0.875156 0.361055 L 0.879102 0.35707 L 0.879102 0.349141 L 0.883086 0.349141 L 0.88707 0.345195 L 0.891016 0.345195 L 0.895 0.341211 L 0.90293 0.341211 L 0.906914 0.345195 L 0.918828 0.345195 L 0.922773 0.341211 L 0.950586 0.341211 L 0.954531 0.345195 L 0.954531 0.353125 L 0.946602 0.361055 L 0.926758 0.361055 L 0.922773 0.35707 L 0.918828 0.35707 L 0.910859 0.365039 L 0.910859 0.368984 L 0.906914 0.372969 L 0.90293 0.376953 L 0.891016 0.376953 L 0.88707 0.380898 L 0.879102 0.380898 L 0.875156 0.384883 L 0.871172 0.388828 L 0.867227 0.392813 L 0.863242 0.392813 L 0.859258 0.396797 L 0.855313 0.396797 L 0.851328 0.400742 L 0.847344 0.400742 L 0.843398 0.404727 L 0.839414 0.404727 L 0.835469 0.408711 L 0.831484 0.412656 L 0.8275 0.416641 L 0.823555 0.416641 L 0.81957 0.420586 L 0.815586 0.420586 L 0.811641 0.42457 L 0.807656 0.42457 L 0.803711 0.428555 L 0.799727 0.4325 L 0.795742 0.4325 L 0.791797 0.436484 L 0.787813 0.436484 L 0.783828 0.440469 L 0.779883 0.440469 L 0.775898 0.444414 L 0.771914 0.448398 L 0.767969 0.448398 L 0.763984 0.452344 L 0.756055 0.452344 L 0.75207 0.456328 L 0.748125 0.460313 L 0.740156 0.460313 L 0.736211 0.464258 L 0.732227 0.464258 L 0.728281 0.468242 L 0.716367 0.468242 L 0.712383 0.472227 L 0.704453 0.472227 L 0.700469 0.476172 L 0.692539 0.476172 L 0.688555 0.480156 L 0.676641 0.480156 L 0.672695 0.484102 L 0.656797 0.484102 L 0.652852 0.488086 L 0.629023 0.488086 L 0.625039 0.49207 L 0.585352 0.49207 L 0.581367 0.496016 L 0.581367 0.50793 L 0.585352 0.511914 L 0.585352 0.523828 L 0.589336 0.527773 L 0.589336 0.563516 L 0.593281 0.5675 L 0.593281 0.591289 L 0.589336 0.595273 L 0.589336 0.619102 L 0.585352 0.623047 L 0.585352 0.631016 L 0.581367 0.634961 L 0.581367 0.638945 L 0.577422 0.64293 L 0.573437 0.646875 L 0.565508 0.646875 L 0.553594 0.658789 L 0.553594 0.694531 L 0.549609 0.698477 L 0.545664 0.702461 L 0.545664 0.706445 L 0.54168 0.710391 L 0.54168 0.714375 L 0.537695 0.714375 L 0.53375 0.718359 L 0.52582 0.718359 L 0.521836 0.722305 L 0.517852 0.726289 L 0.513906 0.726289 L 0.509922 0.730234 L 0.509922 0.738203 L 0.505937 0.742148 L 0.505937 0.750117 L 0.490078 0.765977 L 0.482148 0.765977 L 0.478164 0.761992 L 0.47418 0.758047 L 0.46625 0.758047 L 0.462305 0.761992 L 0.462305 0.765977 L 0.45832 0.769961 L 0.454336 0.773906 L 0.454336 0.777891 L 0.450391 0.781875 L 0.450391 0.78582 L 0.446406 0.789805 L 0.442422 0.79375 L 0.426563 0.79375 L 0.422578 0.789805 L 0.418633 0.78582 L 0.414648 0.789805 L 0.406719 0.789805 L 0.402734 0.79375 L 0.382891 0.79375 L 0.382891 0.789805 L 0.374961 0.781875 L 0.366992 0.781875 L 0.363047 0.777891 L 0.323359 0.777891 L 0.319375 0.773906 L 0.315391 0.769961 L 0.311445 0.765977 L 0.287617 0.765977 L 0.283633 0.761992 L 0.283633 0.754062 L 0.279688 0.750117 L 0.263789 0.750117 L 0.259844 0.746133 L 0.255859 0.746133 L 0.24793 0.738203 L 0.243945 0.738203 L 0.239961 0.734219 L 0.220117 0.734219 L 0.216172 0.730234 L 0.216172 0.722305 L 0.212187 0.718359 L 0.184414 0.718359 L 0.18043 0.714375 L 0.168516 0.714375 L 0.164531 0.710391 L 0.160586 0.710391 L 0.156602 0.706445 L 0.156602 0.694531 L 0.152656 0.690547 L 0.152656 0.686562 L 0.148672 0.682617 L 0.148672 0.678633 L 0.144687 0.674688 L 0.144687 0.670703 L 0.140742 0.666719 L 0.136758 0.662773 L 0.132773 0.662773 L 0.128828 0.658789 L 0.120898 0.658789 L 0.116914 0.654805 L 0.11293 0.654805 L 0.108984 0.650859 L 0.105 0.650859 L 0.101016 0.646875 L 0.101016 0.638945 L 0.105 0.634961 L 0.105 0.623047 L 0.101016 0.619102 L 0.101016 0.611172 L 0.0970703 0.607188 L 0.0891406 0.599258 L 0.0851562 0.599258 L 0.0851562 0.595273 L 0.0811719 0.591289 L 0.0811719 0.587344 L 0.0772266 0.583359 L 0.0732422 0.579414 L 0.0692578 0.57543 L 0.0692578 0.571445 L 0.0653125 0.5675 L 0.0653125 0.559531 L 0.0613281 0.555586 L 0.0573828 0.551602 L 0.0533984 0.547656 L 0.0494141 0.543672 L 0.0454688 0.539688 L 0.0454688 0.535742 Z M 0.0454688 0.531758 " transform="matrix(100,0,0,100,450,350)"/>
<path style="fill:none;stroke-width:0.01;stroke-linecap:butt;stroke-linejoin:miter;stroke:rgb(0%,0%,0%);stroke-opacity:1;stroke-miterlimit:10;" d="M 0.0454688 0.493984 L 0.0494922 0.489961 L 0.0494922 0.477891 L 0.0535156 0.473867 L 0.0535156 0.469844 L 0.0615625 0.461797 L 0.0615625 0.457773 L 0.0655859 0.45375 L 0.0695703 0.449727 L 0.0776172 0.44168 L 0.0776172 0.437656 L 0.0735938 0.433633 L 0.0735938 0.421563 L 0.0816406 0.413516 L 0.0816406 0.409492 L 0.0856641 0.405469 L 0.0856641 0.397422 L 0.0896875 0.393398 L 0.0896875 0.389375 L 0.0856641 0.385352 L 0.0856641 0.381328 L 0.0776172 0.373281 L 0.0776172 0.365234 L 0.0896875 0.353164 L 0.101758 0.353164 L 0.105781 0.349141 L 0.105781 0.33707 L 0.0977344 0.329023 L 0.0977344 0.325039 L 0.101758 0.321016 L 0.101758 0.312969 L 0.109805 0.312969 L 0.117852 0.304922 L 0.121875 0.304922 L 0.125898 0.300898 L 0.133945 0.300898 L 0.146016 0.288828 L 0.146016 0.280781 L 0.141992 0.276758 L 0.141992 0.264687 L 0.146016 0.264687 L 0.150039 0.260664 L 0.170156 0.260664 L 0.17418 0.256641 L 0.182227 0.256641 L 0.190273 0.248594 L 0.190273 0.2325 L 0.18625 0.228477 L 0.190273 0.224453 L 0.190273 0.22043 L 0.194297 0.216406 L 0.206367 0.216406 L 0.210391 0.212383 L 0.218438 0.212383 L 0.222461 0.216406 L 0.242539 0.216406 L 0.246563 0.212383 L 0.246563 0.204336 L 0.250586 0.200312 L 0.26668 0.200312 L 0.270703 0.204336 L 0.274727 0.204336 L 0.27875 0.200312 L 0.27875 0.196289 L 0.282773 0.192266 L 0.282773 0.188242 L 0.286797 0.184219 L 0.286797 0.176172 L 0.29082 0.172148 L 0.314961 0.172148 L 0.318984 0.176172 L 0.323008 0.176172 L 0.327031 0.180195 L 0.331055 0.180195 L 0.335078 0.184219 L 0.339102 0.184219 L 0.343125 0.188242 L 0.347148 0.188242 L 0.351172 0.192266 L 0.355195 0.192266 L 0.359219 0.188242 L 0.363242 0.188242 L 0.367266 0.184219 L 0.367266 0.180195 L 0.375312 0.172148 L 0.387383 0.172148 L 0.391406 0.176172 L 0.39543 0.176172 L 0.399453 0.180195 L 0.403477 0.180195 L 0.411523 0.188242 L 0.411523 0.192266 L 0.415508 0.196289 L 0.427578 0.208359 L 0.447695 0.208359 L 0.455742 0.216406 L 0.455742 0.2325 L 0.459766 0.236523 L 0.459766 0.240547 L 0.463789 0.24457 L 0.463789 0.248594 L 0.467812 0.252617 L 0.467812 0.260664 L 0.475859 0.268711 L 0.491953 0.268711 L 0.495977 0.264687 L 0.495977 0.260664 L 0.5 0.256641 L 0.5 0.252617 L 0.504023 0.248594 L 0.516094 0.248594 L 0.528164 0.260664 L 0.528164 0.268711 L 0.532188 0.272734 L 0.532188 0.280781 L 0.536211 0.284805 L 0.536211 0.296875 L 0.564375 0.325039 L 0.568398 0.329023 L 0.572422 0.333047 L 0.572422 0.33707 L 0.576445 0.341094 L 0.576445 0.349141 L 0.580469 0.353164 L 0.580469 0.409492 L 0.584492 0.413516 L 0.584492 0.457773 L 0.588477 0.461797 L 0.5925 0.457773 L 0.60457 0.457773 L 0.608594 0.45375 L 0.612617 0.45375 L 0.616641 0.449727 L 0.624688 0.449727 L 0.628711 0.445703 L 0.632734 0.445703 L 0.636758 0.44168 L 0.644805 0.44168 L 0.648828 0.437656 L 0.652852 0.437656 L 0.656875 0.433633 L 0.660898 0.433633 L 0.664922 0.429609 L 0.668945 0.429609 L 0.672969 0.425586 L 0.676992 0.425586 L 0.681016 0.421563 L 0.685039 0.421563 L 0.689063 0.417539 L 0.693086 0.417539 L 0.701133 0.409492 L 0.705156 0.409492 L 0.70918 0.405469 L 0.713203 0.405469 L 0.717227 0.401445 L 0.72125 0.401445 L 0.729297 0.393398 L 0.73332 0.393398 L 0.737344 0.389375 L 0.741367 0.389375 L 0.749414 0.381328 L 0.753438 0.381328 L 0.757461 0.377305 L 0.761445 0.373281 L 0.765469 0.373281 L 0.777539 0.361211 L 0.781562 0.361211 L 0.793633 0.349141 L 0.797656 0.349141 L 0.805703 0.341094 L 0.809727 0.341094 L 0.821797 0.329023 L 0.82582 0.325039 L 0.829844 0.325039 L 0.853984 0.300898 L 0.858008 0.300898 L 0.898242 0.260664 L 0.898242 0.256641 L 0.910312 0.24457 L 0.910312 0.240547 L 0.914336 0.236523 L 0.914336 0.2325 L 0.918359 0.228477 L 0.918359 0.224453 L 0.93043 0.212383 L 0.942461 0.212383 L 0.950508 0.22043 L 0.950508 0.224453 L 0.954531 0.228477 L 0.954531 0.2325 L 0.950508 0.236523 L 0.946484 0.236523 L 0.942461 0.240547 L 0.938438 0.240547 L 0.934414 0.24457 L 0.93043 0.24457 L 0.849961 0.325039 L 0.845937 0.325039 L 0.841914 0.329023 L 0.829844 0.341094 L 0.82582 0.341094 L 0.809727 0.357188 L 0.805703 0.357188 L 0.793633 0.369258 L 0.789609 0.369258 L 0.777539 0.381328 L 0.773516 0.381328 L 0.765469 0.389375 L 0.761445 0.389375 L 0.757461 0.393398 L 0.753438 0.397422 L 0.749414 0.397422 L 0.745391 0.401445 L 0.741367 0.401445 L 0.729297 0.413516 L 0.725273 0.413516 L 0.72125 0.417539 L 0.717227 0.417539 L 0.70918 0.425586 L 0.705156 0.425586 L 0.701133 0.429609 L 0.697109 0.429609 L 0.693086 0.433633 L 0.689063 0.433633 L 0.685039 0.437656 L 0.681016 0.437656 L 0.676992 0.44168 L 0.672969 0.44168 L 0.668945 0.445703 L 0.664922 0.445703 L 0.660898 0.449727 L 0.656875 0.449727 L 0.652852 0.45375 L 0.648828 0.45375 L 0.644805 0.457773 L 0.636758 0.457773 L 0.632734 0.461797 L 0.628711 0.461797 L 0.624688 0.46582 L 0.620664 0.46582 L 0.616641 0.469844 L 0.608594 0.469844 L 0.60457 0.473867 L 0.5925 0.473867 L 0.588477 0.477891 L 0.584492 0.481914 L 0.588477 0.485937 L 0.588477 0.493984 L 0.5925 0.498008 L 0.5925 0.506016 L 0.596523 0.510039 L 0.596523 0.518086 L 0.600547 0.522109 L 0.600547 0.53418 L 0.60457 0.538203 L 0.60457 0.542227 L 0.608594 0.54625 L 0.608594 0.554297 L 0.612617 0.55832 L 0.612617 0.566367 L 0.616641 0.570391 L 0.616641 0.594531 L 0.612617 0.598555 L 0.612617 0.602578 L 0.608594 0.606602 L 0.60457 0.606602 L 0.596523 0.614648 L 0.596523 0.646836 L 0.5925 0.650859 L 0.5925 0.658906 L 0.588477 0.66293 L 0.588477 0.666953 L 0.584492 0.670977 L 0.584492 0.674961 L 0.580469 0.678984 L 0.568398 0.678984 L 0.568398 0.674961 L 0.564375 0.670977 L 0.560352 0.666953 L 0.556328 0.670977 L 0.552305 0.674961 L 0.552305 0.715195 L 0.548281 0.719219 L 0.548281 0.723242 L 0.532188 0.739336 L 0.532188 0.743359 L 0.528164 0.747383 L 0.528164 0.751406 L 0.520117 0.759453 L 0.520117 0.763477 L 0.508047 0.775547 L 0.504023 0.775547 L 0.5 0.77957 L 0.491953 0.77957 L 0.48793 0.775547 L 0.483906 0.775547 L 0.479883 0.771523 L 0.479883 0.7675 L 0.475859 0.763477 L 0.471836 0.763477 L 0.467812 0.7675 L 0.467812 0.775547 L 0.463789 0.77957 L 0.463789 0.783594 L 0.459766 0.787617 L 0.459766 0.791641 L 0.455742 0.791641 L 0.451719 0.795664 L 0.447695 0.795664 L 0.435625 0.807734 L 0.435625 0.811758 L 0.431602 0.815781 L 0.427578 0.815781 L 0.419531 0.823828 L 0.415508 0.823828 L 0.411523 0.827852 L 0.399453 0.827852 L 0.39543 0.823828 L 0.39543 0.819805 L 0.379336 0.803711 L 0.371289 0.803711 L 0.367266 0.799688 L 0.363242 0.799688 L 0.359219 0.803711 L 0.355195 0.803711 L 0.343125 0.815781 L 0.331055 0.815781 L 0.327031 0.811758 L 0.327031 0.807734 L 0.323008 0.803711 L 0.314961 0.803711 L 0.310938 0.807734 L 0.306914 0.807734 L 0.302891 0.811758 L 0.27875 0.811758 L 0.27875 0.807734 L 0.274727 0.803711 L 0.274727 0.799688 L 0.26668 0.791641 L 0.262656 0.791641 L 0.258633 0.795664 L 0.238555 0.795664 L 0.234531 0.791641 L 0.230508 0.791641 L 0.230508 0.787617 L 0.226484 0.783594 L 0.226484 0.7675 L 0.214414 0.75543 L 0.210391 0.75543 L 0.19832 0.743359 L 0.178203 0.743359 L 0.17418 0.739336 L 0.170156 0.739336 L 0.162109 0.731289 L 0.162109 0.719219 L 0.166133 0.715195 L 0.162109 0.711172 L 0.162109 0.703125 L 0.154063 0.695078 L 0.150039 0.695078 L 0.146016 0.699102 L 0.137969 0.699102 L 0.133945 0.695078 L 0.129922 0.695078 L 0.129922 0.691055 L 0.125898 0.687031 L 0.125898 0.683008 L 0.129922 0.678984 L 0.129922 0.674961 L 0.133945 0.670977 L 0.133945 0.658906 L 0.129922 0.654883 L 0.113828 0.654883 L 0.109805 0.650859 L 0.105781 0.650859 L 0.105781 0.634766 L 0.109805 0.630742 L 0.105781 0.626719 L 0.105781 0.618672 L 0.0977344 0.610625 L 0.0977344 0.606602 L 0.0856641 0.594531 L 0.0816406 0.594531 L 0.0776172 0.590508 L 0.0735938 0.590508 L 0.0695703 0.586484 L 0.0695703 0.582461 L 0.0655859 0.578437 L 0.0695703 0.574414 L 0.0695703 0.570391 L 0.0735938 0.566367 L 0.0735938 0.562344 L 0.0776172 0.55832 L 0.0776172 0.554297 L 0.0695703 0.54625 L 0.0655859 0.542227 L 0.0615625 0.542227 L 0.0615625 0.522109 L 0.0454688 0.506016 L 0.0454688 0.498008 Z M 0.0454688 0.493984 " transform="matrix(100,0,0,100,600,350)"/>
</g>
</svg>
