<?xml version="1.0" encoding="UTF-8"?>
<svg xmlns="http://www.w3.org/2000/svg" xmlns:xlink="http://www.w3.org/1999/xlink" width="750pt" height="2800pt" viewBox="0 0 750 2800" version="1.1">
<g id="surface1">
<path style="fill:none;stroke-width:0.01;stroke-linecap:butt;stroke-linejoin:miter;stroke:rgb(0%,0%,0%);stroke-opacity:1;stroke-miterlimit:10;" d="M 0.0454688 0.539883 L 0.0653906 0.539883 L 0.069375 0.535898 L 0.0733594 0.539883 L 0.0813281 0.539883 L 0.0853125 0.535898 L 0.0933203 0.535898 L 0.0973047 0.531914 L 0.105273 0.531914 L 0.109258 0.535898 L 0.113242 0.535898 L 0.121211 0.52793 L 0.125195 0.523906 L 0.125195 0.519922 L 0.121211 0.515938 L 0.121211 0.511953 L 0.137148 0.496016 L 0.133164 0.492031 L 0.133164 0.480078 L 0.137148 0.480078 L 0.141133 0.476094 L 0.145117 0.476094 L 0.153125 0.468086 L 0.149141 0.464102 L 0.145117 0.460117 L 0.149141 0.456133 L 0.149141 0.452148 L 0.153125 0.452148 L 0.157109 0.448164 L 0.161094 0.448164 L 0.165078 0.44418 L 0.165078 0.428242 L 0.169063 0.428242 L 0.177031 0.420273 L 0.181016 0.41625 L 0.177031 0.412266 L 0.181016 0.408281 L 0.188984 0.408281 L 0.192969 0.404297 L 0.196953 0.404297 L 0.200937 0.400313 L 0.196953 0.396328 L 0.196953 0.392344 L 0.200937 0.388359 L 0.204961 0.384375 L 0.21293 0.384375 L 0.220898 0.376406 L 0.21293 0.368438 L 0.21293 0.364453 L 0.216914 0.364453 L 0.220898 0.36043 L 0.228867 0.36043 L 0.236836 0.352461 L 0.236836 0.344492 L 0.264766 0.344492 L 0.26875 0.340508 L 0.264766 0.336523 L 0.264766 0.328555 L 0.288672 0.328555 L 0.292656 0.332539 L 0.296641 0.328555 L 0.296641 0.32457 L 0.288672 0.316602 L 0.284687 0.316602 L 0.284687 0.312617 L 0.288672 0.312617 L 0.292656 0.308594 L 0.300625 0.308594 L 0.304609 0.312617 L 0.308594 0.308594 L 0.316602 0.308594 L 0.320586 0.304609 L 0.32457 0.304609 L 0.328555 0.300625 L 0.328555 0.296641 L 0.344492 0.296641 L 0.352461 0.288672 L 0.352461 0.284687 L 0.356445 0.280703 L 0.368438 0.280703 L 0.372422 0.284687 L 0.376406 0.284687 L 0.380391 0.280703 L 0.380391 0.276719 L 0.384375 0.272734 L 0.408281 0.272734 L 0.412266 0.276719 L 0.420273 0.276719 L 0.424258 0.272734 L 0.420273 0.26875 L 0.424258 0.26875 L 0.428242 0.264766 L 0.440195 0.264766 L 0.44418 0.26875 L 0.448164 0.26875 L 0.452148 0.264766 L 0.452148 0.256797 L 0.464102 0.256797 L 0.468086 0.260781 L 0.5 0.260781 L 0.503984 0.264766 L 0.511953 0.264766 L 0.515938 0.26875 L 0.519922 0.26875 L 0.523906 0.264766 L 0.523906 0.256797 L 0.52793 0.252773 L 0.535898 0.252773 L 0.539883 0.256797 L 0.547852 0.256797 L 0.551836 0.260781 L 0.55582 0.260781 L 0.559805 0.256797 L 0.567773 0.256797 L 0.571758 0.260781 L 0.579727 0.260781 L 0.58375 0.264766 L 0.587734 0.264766 L 0.591719 0.260781 L 0.599688 0.260781 L 0.603672 0.264766 L 0.607656 0.264766 L 0.611641 0.26875 L 0.619609 0.260781 L 0.627578 0.260781 L 0.631563 0.264766 L 0.635547 0.260781 L 0.647539 0.260781 L 0.651523 0.264766 L 0.659492 0.264766 L 0.663477 0.260781 L 0.67543 0.260781 L 0.679414 0.264766 L 0.683398 0.264766 L 0.687383 0.260781 L 0.699375 0.260781 L 0.703359 0.264766 L 0.703359 0.26875 L 0.707344 0.272734 L 0.711328 0.272734 L 0.715313 0.26875 L 0.719297 0.26875 L 0.73125 0.280703 L 0.743203 0.280703 L 0.747227 0.284687 L 0.751211 0.288672 L 0.771133 0.288672 L 0.775117 0.292656 L 0.779102 0.292656 L 0.783086 0.296641 L 0.795039 0.296641 L 0.795039 0.300625 L 0.799063 0.304609 L 0.803047 0.304609 L 0.807031 0.308594 L 0.811016 0.312617 L 0.818984 0.312617 L 0.822969 0.316602 L 0.826953 0.316602 L 0.838906 0.328555 L 0.846875 0.328555 L 0.850859 0.332539 L 0.850859 0.336523 L 0.854883 0.340508 L 0.858867 0.340508 L 0.866836 0.348477 L 0.87082 0.348477 L 0.882773 0.36043 L 0.886758 0.364453 L 0.894727 0.364453 L 0.894727 0.368438 L 0.902695 0.376406 L 0.902695 0.384375 L 0.90668 0.388359 L 0.910703 0.388359 L 0.914687 0.392344 L 0.914687 0.400313 L 0.922656 0.408281 L 0.922656 0.412266 L 0.918672 0.41625 L 0.922656 0.420273 L 0.926641 0.424258 L 0.934609 0.424258 L 0.934609 0.428242 L 0.938594 0.432227 L 0.938594 0.448164 L 0.946562 0.456133 L 0.946562 0.47207 L 0.950547 0.476094 L 0.954531 0.480078 L 0.954531 0.484062 L 0.950547 0.488047 L 0.950547 0.492031 L 0.946562 0.496016 L 0.950547 0.5 L 0.950547 0.503984 L 0.946562 0.507969 L 0.946562 0.511953 L 0.942578 0.515938 L 0.938594 0.511953 L 0.926641 0.523906 L 0.926641 0.531914 L 0.918672 0.531914 L 0.914687 0.535898 L 0.902695 0.535898 L 0.898711 0.531914 L 0.886758 0.531914 L 0.882773 0.52793 L 0.878789 0.523906 L 0.874805 0.523906 L 0.87082 0.519922 L 0.866836 0.519922 L 0.862852 0.515938 L 0.858867 0.519922 L 0.858867 0.523906 L 0.854883 0.52793 L 0.850859 0.531914 L 0.850859 0.535898 L 0.842891 0.543867 L 0.838906 0.543867 L 0.830937 0.551836 L 0.830937 0.563789 L 0.826953 0.567773 L 0.826953 0.571758 L 0.818984 0.579727 L 0.818984 0.58375 L 0.815 0.58375 L 0.803047 0.595703 L 0.795039 0.595703 L 0.791055 0.599687 L 0.791055 0.603672 L 0.78707 0.607656 L 0.783086 0.607656 L 0.779102 0.611641 L 0.775117 0.611641 L 0.771133 0.615625 L 0.767148 0.615625 L 0.75918 0.623594 L 0.75918 0.627578 L 0.755195 0.627578 L 0.735234 0.647539 L 0.73125 0.647539 L 0.727266 0.651523 L 0.719297 0.651523 L 0.711328 0.659492 L 0.703359 0.659492 L 0.695391 0.667461 L 0.691406 0.667461 L 0.687383 0.671445 L 0.687383 0.67543 L 0.683398 0.67543 L 0.679414 0.679414 L 0.67543 0.679414 L 0.671445 0.683398 L 0.659492 0.683398 L 0.655508 0.687383 L 0.651523 0.687383 L 0.647539 0.691406 L 0.635547 0.691406 L 0.631563 0.695391 L 0.627578 0.695391 L 0.623594 0.699375 L 0.619609 0.699375 L 0.615625 0.703359 L 0.611641 0.703359 L 0.607656 0.699375 L 0.599688 0.699375 L 0.591719 0.707344 L 0.591719 0.711328 L 0.587734 0.715313 L 0.579727 0.715313 L 0.571758 0.723281 L 0.563789 0.723281 L 0.559805 0.719297 L 0.55582 0.723281 L 0.551836 0.723281 L 0.547852 0.727266 L 0.543867 0.727266 L 0.539883 0.73125 L 0.535898 0.73125 L 0.531914 0.727266 L 0.519922 0.727266 L 0.515938 0.73125 L 0.503984 0.73125 L 0.5 0.735234 L 0.488047 0.735234 L 0.484063 0.739219 L 0.47207 0.739219 L 0.468086 0.735234 L 0.464102 0.735234 L 0.460117 0.739219 L 0.456133 0.739219 L 0.452148 0.743203 L 0.448164 0.747227 L 0.436211 0.747227 L 0.432227 0.743203 L 0.420273 0.743203 L 0.41625 0.747227 L 0.408281 0.747227 L 0.404297 0.743203 L 0.404297 0.739219 L 0.400313 0.735234 L 0.392344 0.735234 L 0.388359 0.739219 L 0.380391 0.739219 L 0.376406 0.743203 L 0.372422 0.743203 L 0.364453 0.735234 L 0.36043 0.73125 L 0.356445 0.735234 L 0.344492 0.735234 L 0.344492 0.727266 L 0.340508 0.723281 L 0.308594 0.723281 L 0.304609 0.727266 L 0.300625 0.723281 L 0.296641 0.723281 L 0.288672 0.715313 L 0.284687 0.715313 L 0.280703 0.719297 L 0.26875 0.719297 L 0.264766 0.715313 L 0.264766 0.707344 L 0.260781 0.703359 L 0.256797 0.707344 L 0.248789 0.707344 L 0.24082 0.699375 L 0.236836 0.703359 L 0.232852 0.699375 L 0.228867 0.699375 L 0.224883 0.703359 L 0.220898 0.699375 L 0.216914 0.703359 L 0.196953 0.703359 L 0.192969 0.699375 L 0.188984 0.699375 L 0.188984 0.695391 L 0.192969 0.695391 L 0.196953 0.691406 L 0.200937 0.691406 L 0.208945 0.683398 L 0.208945 0.671445 L 0.204961 0.667461 L 0.192969 0.667461 L 0.188984 0.663477 L 0.188984 0.659492 L 0.196953 0.651523 L 0.188984 0.643555 L 0.181016 0.643555 L 0.181016 0.635547 L 0.177031 0.631563 L 0.169063 0.631563 L 0.165078 0.627578 L 0.169063 0.623594 L 0.169063 0.619609 L 0.173047 0.615625 L 0.169063 0.611641 L 0.161094 0.611641 L 0.157109 0.607656 L 0.153125 0.607656 L 0.153125 0.603672 L 0.157109 0.599687 L 0.153125 0.595703 L 0.149141 0.595703 L 0.145117 0.591719 L 0.141133 0.587734 L 0.141133 0.579727 L 0.137148 0.575742 L 0.133164 0.575742 L 0.125195 0.567773 L 0.125195 0.563789 L 0.117227 0.55582 L 0.113242 0.55582 L 0.105273 0.563789 L 0.0973047 0.563789 L 0.0933203 0.559805 L 0.0892969 0.559805 L 0.0813281 0.551836 L 0.0534375 0.551836 L 0.0454688 0.543867 Z M 0.0454688 0.539883 " transform="matrix(100,0,0,100,0,200)"/>
<path style="fill:none;stroke-width:0.01;stroke-linecap:butt;stroke-linejoin:miter;stroke:rgb(0%,0%,0%);stroke-opacity:1;stroke-miterlimit:10;" d="M 0.0454687 0.564062 L 0.0494531 0.560078 L 0.0494531 0.556055 L 0.0534766 0.55207 L 0.0574609 0.548047 L 0.0614844 0.548047 L 0.0654687 0.544062 L 0.0654687 0.540039 L 0.0734766 0.540039 L 0.0775 0.536055 L 0.0814844 0.532031 L 0.0855078 0.532031 L 0.0894922 0.528047 L 0.0894922 0.524023 L 0.0935156 0.524023 L 0.0975 0.520039 L 0.0975 0.516016 L 0.101523 0.512031 L 0.105508 0.508008 L 0.109531 0.508008 L 0.113555 0.504023 L 0.117539 0.5 L 0.117539 0.495977 L 0.121563 0.491992 L 0.125547 0.487969 L 0.12957 0.483984 L 0.133555 0.479961 L 0.12957 0.475977 L 0.133555 0.471953 L 0.137578 0.467969 L 0.141563 0.463945 L 0.14957 0.463945 L 0.153594 0.459961 L 0.14957 0.455938 L 0.14957 0.451953 L 0.153594 0.44793 L 0.157578 0.44793 L 0.161602 0.443945 L 0.165586 0.443945 L 0.169609 0.439922 L 0.169609 0.435938 L 0.173594 0.431914 L 0.173594 0.419922 L 0.177617 0.415898 L 0.181602 0.411875 L 0.193633 0.411875 L 0.197656 0.407891 L 0.193633 0.403867 L 0.189609 0.399883 L 0.193633 0.395859 L 0.197656 0.395859 L 0.209648 0.383867 L 0.209648 0.379844 L 0.213672 0.375859 L 0.213672 0.371836 L 0.22168 0.371836 L 0.233672 0.359844 L 0.233672 0.35582 L 0.237695 0.351836 L 0.24168 0.351836 L 0.245703 0.347812 L 0.253711 0.347812 L 0.257695 0.343828 L 0.253711 0.339805 L 0.261719 0.331797 L 0.269727 0.331797 L 0.277734 0.323789 L 0.277734 0.315781 L 0.281719 0.311758 L 0.289766 0.311758 L 0.29375 0.307773 L 0.305781 0.307773 L 0.309766 0.30375 L 0.313789 0.299766 L 0.317773 0.295742 L 0.325781 0.295742 L 0.329805 0.291758 L 0.333789 0.295742 L 0.337813 0.295742 L 0.341797 0.291758 L 0.341797 0.28375 L 0.34582 0.279727 L 0.36582 0.279727 L 0.369844 0.28375 L 0.373867 0.28375 L 0.377852 0.279727 L 0.381875 0.275742 L 0.397891 0.275742 L 0.401875 0.271719 L 0.409883 0.271719 L 0.413906 0.275742 L 0.421914 0.275742 L 0.425898 0.271719 L 0.429922 0.267734 L 0.433906 0.263711 L 0.43793 0.267734 L 0.445938 0.267734 L 0.449922 0.263711 L 0.457969 0.263711 L 0.461953 0.267734 L 0.465977 0.267734 L 0.469961 0.263711 L 0.469961 0.259727 L 0.501992 0.259727 L 0.506016 0.263711 L 0.51 0.263711 L 0.514023 0.259727 L 0.514023 0.255703 L 0.522031 0.255703 L 0.526016 0.259727 L 0.534023 0.259727 L 0.538047 0.263711 L 0.542031 0.263711 L 0.546055 0.259727 L 0.546055 0.255703 L 0.570078 0.255703 L 0.574102 0.259727 L 0.578086 0.259727 L 0.582109 0.263711 L 0.586094 0.263711 L 0.590117 0.259727 L 0.594102 0.255703 L 0.610117 0.255703 L 0.614141 0.259727 L 0.618125 0.259727 L 0.622148 0.263711 L 0.630156 0.255703 L 0.63418 0.255703 L 0.638164 0.259727 L 0.642187 0.263711 L 0.646172 0.263711 L 0.65418 0.271719 L 0.662187 0.271719 L 0.666211 0.267734 L 0.674219 0.267734 L 0.690234 0.28375 L 0.694219 0.279727 L 0.702227 0.279727 L 0.70625 0.28375 L 0.710234 0.28375 L 0.714258 0.287734 L 0.726289 0.287734 L 0.730273 0.291758 L 0.734297 0.295742 L 0.738281 0.295742 L 0.742305 0.299766 L 0.746289 0.299766 L 0.750313 0.30375 L 0.754297 0.30375 L 0.75832 0.307773 L 0.770313 0.307773 L 0.774336 0.311758 L 0.77832 0.311758 L 0.782344 0.315781 L 0.786328 0.311758 L 0.790352 0.311758 L 0.794336 0.315781 L 0.798359 0.319766 L 0.806367 0.319766 L 0.810391 0.323789 L 0.814375 0.327812 L 0.814375 0.331797 L 0.822383 0.339805 L 0.834414 0.339805 L 0.838398 0.343828 L 0.842422 0.347812 L 0.846406 0.351836 L 0.846406 0.35582 L 0.85043 0.359844 L 0.854414 0.35582 L 0.858437 0.35582 L 0.862422 0.359844 L 0.866445 0.363828 L 0.87043 0.367852 L 0.874453 0.371836 L 0.878437 0.375859 L 0.882461 0.375859 L 0.890469 0.383867 L 0.894492 0.387852 L 0.894492 0.391875 L 0.9025 0.399883 L 0.906484 0.399883 L 0.910508 0.403867 L 0.910508 0.407891 L 0.914492 0.411875 L 0.914492 0.415898 L 0.926523 0.42793 L 0.926523 0.435938 L 0.934531 0.443945 L 0.934531 0.44793 L 0.938516 0.451953 L 0.938516 0.471953 L 0.942539 0.475977 L 0.950547 0.475977 L 0.950547 0.487969 L 0.954531 0.491992 L 0.954531 0.5 L 0.950547 0.504023 L 0.950547 0.516016 L 0.938516 0.528047 L 0.938516 0.532031 L 0.934531 0.532031 L 0.930508 0.536055 L 0.926523 0.536055 L 0.9225 0.540039 L 0.9225 0.55207 L 0.918516 0.556055 L 0.910508 0.556055 L 0.906484 0.55207 L 0.9025 0.55207 L 0.894492 0.544062 L 0.886445 0.544062 L 0.882461 0.540039 L 0.878437 0.540039 L 0.874453 0.544062 L 0.87043 0.548047 L 0.87043 0.55207 L 0.866445 0.556055 L 0.862422 0.556055 L 0.858437 0.560078 L 0.858437 0.564062 L 0.854414 0.568086 L 0.85043 0.568086 L 0.846406 0.57207 L 0.846406 0.576094 L 0.838398 0.584102 L 0.834414 0.588125 L 0.830391 0.588125 L 0.814375 0.604141 L 0.810391 0.604141 L 0.806367 0.608125 L 0.802344 0.612148 L 0.798359 0.612148 L 0.794336 0.616133 L 0.790352 0.620156 L 0.786328 0.620156 L 0.782344 0.624141 L 0.77832 0.624141 L 0.774336 0.628164 L 0.770313 0.628164 L 0.762305 0.636172 L 0.75832 0.636172 L 0.754297 0.640156 L 0.746289 0.640156 L 0.742305 0.64418 L 0.738281 0.648164 L 0.734297 0.652188 L 0.722266 0.652188 L 0.714258 0.660195 L 0.710234 0.660195 L 0.702227 0.668203 L 0.690234 0.668203 L 0.686211 0.672188 L 0.682227 0.672188 L 0.678203 0.676211 L 0.666211 0.676211 L 0.662187 0.680234 L 0.658203 0.680234 L 0.65418 0.684219 L 0.642187 0.684219 L 0.638164 0.688242 L 0.63418 0.688242 L 0.630156 0.692227 L 0.626133 0.692227 L 0.622148 0.69625 L 0.610117 0.69625 L 0.606133 0.700234 L 0.602109 0.700234 L 0.598125 0.704258 L 0.590117 0.704258 L 0.586094 0.700234 L 0.582109 0.704258 L 0.578086 0.708242 L 0.574102 0.708242 L 0.570078 0.712266 L 0.566094 0.708242 L 0.56207 0.708242 L 0.558086 0.712266 L 0.554063 0.712266 L 0.550078 0.71625 L 0.550078 0.724258 L 0.546055 0.724258 L 0.542031 0.720273 L 0.530039 0.732266 L 0.506016 0.732266 L 0.501992 0.736289 L 0.49 0.736289 L 0.485977 0.740273 L 0.481992 0.736289 L 0.477969 0.736289 L 0.473984 0.732266 L 0.469961 0.728281 L 0.465977 0.732266 L 0.457969 0.732266 L 0.453945 0.736289 L 0.43793 0.736289 L 0.433906 0.740273 L 0.421914 0.740273 L 0.417891 0.744297 L 0.413906 0.740273 L 0.397891 0.740273 L 0.393867 0.744297 L 0.385859 0.744297 L 0.385859 0.736289 L 0.381875 0.732266 L 0.361836 0.732266 L 0.357813 0.736289 L 0.349805 0.736289 L 0.349805 0.728281 L 0.34582 0.724258 L 0.341797 0.720273 L 0.333789 0.720273 L 0.329805 0.724258 L 0.321797 0.724258 L 0.317773 0.720273 L 0.317773 0.71625 L 0.313789 0.712266 L 0.309766 0.712266 L 0.305781 0.708242 L 0.301758 0.704258 L 0.297773 0.700234 L 0.29375 0.69625 L 0.269727 0.69625 L 0.265703 0.692227 L 0.261719 0.692227 L 0.261719 0.684219 L 0.257695 0.680234 L 0.253711 0.680234 L 0.253711 0.676211 L 0.249688 0.672188 L 0.249688 0.66418 L 0.245703 0.660195 L 0.225664 0.660195 L 0.22168 0.656172 L 0.213672 0.656172 L 0.209648 0.652188 L 0.209648 0.64418 L 0.213672 0.640156 L 0.209648 0.636172 L 0.201641 0.636172 L 0.197656 0.632148 L 0.193633 0.628164 L 0.189609 0.624141 L 0.189609 0.620156 L 0.185625 0.616133 L 0.177617 0.616133 L 0.173594 0.612148 L 0.173594 0.600117 L 0.165586 0.592109 L 0.161602 0.592109 L 0.157578 0.588125 L 0.157578 0.584102 L 0.153594 0.580078 L 0.14957 0.576094 L 0.145586 0.576094 L 0.145586 0.568086 L 0.141563 0.564062 L 0.141563 0.560078 L 0.137578 0.556055 L 0.125547 0.556055 L 0.117539 0.548047 L 0.0935156 0.548047 L 0.0894922 0.55207 L 0.0775 0.55207 L 0.0734766 0.556055 L 0.0614844 0.556055 L 0.0534766 0.564062 L 0.0494531 0.564062 L 0.0454687 0.568086 Z M 0.0454687 0.564062 " transform="matrix(100,0,0,100,150,200)"/>
<path style="fill:none;stroke-width:0.01;stroke-linecap:butt;stroke-linejoin:miter;stroke:rgb(0%,0%,0%);stroke-opacity:1;stroke-miterlimit:10;" d="M 0.0454687 0.47375 L 0.0494922 0.47375 L 0.0535547 0.469688 L 0.0616016 0.469688 L 0.0656641 0.465664 L 0.0696875 0.461602 L 0.0777734 0.461602 L 0.0818359 0.457578 L 0.0979688 0.457578 L 0.102031 0.453555 L 0.102031 0.449492 L 0.110117 0.441406 L 0.118164 0.441406 L 0.122227 0.437383 L 0.122227 0.43332 L 0.118164 0.429297 L 0.122227 0.429297 L 0.12625 0.425234 L 0.130313 0.425234 L 0.134336 0.421211 L 0.138398 0.417188 L 0.134336 0.413125 L 0.138398 0.409102 L 0.142422 0.405039 L 0.150508 0.396953 L 0.150508 0.388906 L 0.154531 0.388906 L 0.158594 0.384844 L 0.162617 0.384844 L 0.16668 0.38082 L 0.174766 0.38082 L 0.178789 0.376758 L 0.174766 0.372734 L 0.174766 0.364648 L 0.178789 0.360625 L 0.182813 0.360625 L 0.186875 0.356562 L 0.190898 0.356562 L 0.194961 0.352539 L 0.194961 0.344453 L 0.198984 0.340391 L 0.20707 0.340391 L 0.211094 0.336367 L 0.215156 0.340391 L 0.21918 0.336367 L 0.21918 0.332305 L 0.215156 0.328281 L 0.215156 0.324258 L 0.21918 0.324258 L 0.223242 0.320195 L 0.231328 0.320195 L 0.235352 0.316172 L 0.235352 0.308086 L 0.239375 0.308086 L 0.243438 0.304023 L 0.255547 0.304023 L 0.259609 0.3 L 0.263633 0.295977 L 0.259609 0.291914 L 0.259609 0.287891 L 0.271719 0.287891 L 0.275742 0.291914 L 0.279805 0.291914 L 0.283828 0.287891 L 0.291914 0.287891 L 0.295977 0.283828 L 0.291914 0.279805 L 0.291914 0.275742 L 0.295977 0.271719 L 0.312109 0.271719 L 0.316172 0.267695 L 0.316172 0.259609 L 0.312109 0.255547 L 0.316172 0.255547 L 0.320195 0.251523 L 0.336367 0.251523 L 0.340391 0.255547 L 0.344453 0.251523 L 0.348477 0.247461 L 0.348477 0.243438 L 0.356562 0.243438 L 0.360625 0.247461 L 0.364648 0.243438 L 0.372734 0.243438 L 0.376758 0.239375 L 0.38082 0.239375 L 0.384844 0.243438 L 0.405039 0.243438 L 0.409102 0.239375 L 0.409102 0.235352 L 0.417188 0.235352 L 0.421211 0.239375 L 0.43332 0.239375 L 0.437383 0.235352 L 0.461602 0.235352 L 0.465664 0.239375 L 0.469688 0.243438 L 0.47375 0.243438 L 0.477773 0.239375 L 0.493945 0.239375 L 0.497969 0.243438 L 0.502031 0.243438 L 0.506055 0.247461 L 0.522227 0.247461 L 0.52625 0.251523 L 0.530312 0.255547 L 0.534336 0.251523 L 0.538398 0.255547 L 0.554531 0.255547 L 0.562617 0.263633 L 0.570703 0.263633 L 0.574766 0.267695 L 0.578789 0.267695 L 0.578789 0.275742 L 0.582813 0.279805 L 0.586875 0.283828 L 0.598984 0.271719 L 0.603047 0.275742 L 0.611094 0.275742 L 0.615156 0.279805 L 0.623242 0.279805 L 0.623242 0.283828 L 0.627266 0.287891 L 0.631328 0.287891 L 0.631328 0.291914 L 0.635352 0.295977 L 0.639375 0.3 L 0.643438 0.295977 L 0.647461 0.295977 L 0.651523 0.3 L 0.655547 0.3 L 0.659609 0.304023 L 0.667695 0.304023 L 0.671719 0.308086 L 0.675742 0.308086 L 0.679805 0.312109 L 0.683828 0.312109 L 0.683828 0.316172 L 0.687891 0.320195 L 0.691914 0.324258 L 0.695977 0.328281 L 0.704023 0.328281 L 0.708086 0.332305 L 0.716172 0.332305 L 0.720195 0.336367 L 0.724258 0.332305 L 0.728281 0.336367 L 0.732305 0.336367 L 0.736367 0.340391 L 0.740391 0.336367 L 0.744453 0.340391 L 0.748477 0.344453 L 0.752539 0.344453 L 0.760625 0.352539 L 0.768672 0.352539 L 0.768672 0.356562 L 0.776758 0.364648 L 0.78082 0.368672 L 0.784844 0.372734 L 0.788906 0.372734 L 0.79293 0.376758 L 0.796953 0.376758 L 0.813125 0.39293 L 0.817188 0.396953 L 0.821211 0.401016 L 0.825234 0.401016 L 0.829297 0.405039 L 0.83332 0.409102 L 0.837383 0.413125 L 0.837383 0.421211 L 0.857578 0.441406 L 0.861602 0.445469 L 0.865664 0.449492 L 0.865664 0.453555 L 0.869687 0.457578 L 0.87375 0.457578 L 0.885859 0.445469 L 0.889883 0.441406 L 0.893945 0.437383 L 0.897969 0.43332 L 0.902031 0.429297 L 0.906055 0.429297 L 0.910117 0.43332 L 0.914141 0.437383 L 0.914141 0.445469 L 0.918164 0.449492 L 0.92625 0.449492 L 0.930312 0.453555 L 0.934336 0.453555 L 0.938398 0.457578 L 0.942422 0.461602 L 0.942422 0.465664 L 0.950508 0.47375 L 0.950508 0.485859 L 0.954531 0.489883 L 0.954531 0.502031 L 0.950508 0.506055 L 0.954531 0.510117 L 0.954531 0.522227 L 0.950508 0.52625 L 0.950508 0.538398 L 0.946445 0.542422 L 0.946445 0.554531 L 0.942422 0.558594 L 0.942422 0.562617 L 0.938398 0.56668 L 0.938398 0.578789 L 0.934336 0.582813 L 0.930312 0.586875 L 0.930312 0.590898 L 0.922227 0.598984 L 0.922227 0.603047 L 0.918164 0.603047 L 0.914141 0.60707 L 0.914141 0.611094 L 0.910117 0.615156 L 0.910117 0.61918 L 0.902031 0.627266 L 0.897969 0.627266 L 0.893945 0.631328 L 0.893945 0.635352 L 0.889883 0.639375 L 0.885859 0.639375 L 0.881836 0.643438 L 0.877773 0.647461 L 0.87375 0.647461 L 0.857578 0.663633 L 0.853555 0.667695 L 0.841406 0.667695 L 0.837383 0.671719 L 0.83332 0.675742 L 0.829297 0.675742 L 0.821211 0.683828 L 0.817188 0.687891 L 0.813125 0.691914 L 0.809102 0.691914 L 0.801016 0.7 L 0.79293 0.7 L 0.788906 0.704023 L 0.788906 0.708086 L 0.78082 0.708086 L 0.776758 0.712109 L 0.772734 0.716172 L 0.768672 0.716172 L 0.764648 0.712109 L 0.760625 0.716172 L 0.756563 0.720195 L 0.752539 0.720195 L 0.748477 0.724258 L 0.740391 0.724258 L 0.736367 0.728281 L 0.712109 0.728281 L 0.708086 0.732305 L 0.704023 0.732305 L 0.7 0.728281 L 0.695977 0.732305 L 0.691914 0.728281 L 0.683828 0.736367 L 0.671719 0.736367 L 0.667695 0.740391 L 0.655547 0.740391 L 0.651523 0.744453 L 0.647461 0.744453 L 0.639375 0.752539 L 0.623242 0.752539 L 0.61918 0.748477 L 0.611094 0.748477 L 0.60707 0.752539 L 0.603047 0.756563 L 0.590898 0.756563 L 0.590898 0.752539 L 0.586875 0.748477 L 0.578789 0.756563 L 0.574766 0.760625 L 0.570703 0.756563 L 0.56668 0.760625 L 0.554531 0.760625 L 0.554531 0.756563 L 0.550508 0.752539 L 0.546445 0.752539 L 0.542422 0.756563 L 0.538398 0.756563 L 0.534336 0.752539 L 0.52625 0.760625 L 0.518164 0.760625 L 0.514141 0.764648 L 0.510117 0.764648 L 0.506055 0.760625 L 0.502031 0.756563 L 0.493945 0.764648 L 0.469688 0.764648 L 0.469688 0.756563 L 0.465664 0.752539 L 0.453555 0.752539 L 0.449492 0.756563 L 0.445469 0.752539 L 0.441406 0.752539 L 0.437383 0.756563 L 0.437383 0.744453 L 0.43332 0.740391 L 0.429297 0.744453 L 0.425234 0.748477 L 0.396953 0.748477 L 0.396953 0.740391 L 0.401016 0.736367 L 0.396953 0.732305 L 0.39293 0.732305 L 0.388906 0.736367 L 0.384844 0.732305 L 0.376758 0.732305 L 0.372734 0.736367 L 0.368672 0.732305 L 0.368672 0.728281 L 0.364648 0.724258 L 0.348477 0.724258 L 0.348477 0.716172 L 0.344453 0.712109 L 0.340391 0.712109 L 0.336367 0.708086 L 0.324258 0.708086 L 0.328281 0.704023 L 0.328281 0.7 L 0.324258 0.695977 L 0.320195 0.7 L 0.304023 0.7 L 0.3 0.695977 L 0.295977 0.695977 L 0.295977 0.687891 L 0.291914 0.683828 L 0.287891 0.683828 L 0.283828 0.679805 L 0.271719 0.679805 L 0.267695 0.675742 L 0.267695 0.671719 L 0.271719 0.667695 L 0.267695 0.663633 L 0.251523 0.663633 L 0.247461 0.659609 L 0.243438 0.659609 L 0.243438 0.651523 L 0.239375 0.647461 L 0.227266 0.647461 L 0.223242 0.643438 L 0.21918 0.643438 L 0.223242 0.639375 L 0.223242 0.631328 L 0.21918 0.627266 L 0.20707 0.627266 L 0.203047 0.623242 L 0.203047 0.60707 L 0.198984 0.603047 L 0.194961 0.598984 L 0.190898 0.598984 L 0.186875 0.594961 L 0.186875 0.582813 L 0.182813 0.578789 L 0.178789 0.574766 L 0.174766 0.574766 L 0.170703 0.570703 L 0.170703 0.558594 L 0.16668 0.554531 L 0.158594 0.554531 L 0.154531 0.550508 L 0.150508 0.546445 L 0.150508 0.538398 L 0.154531 0.534336 L 0.154531 0.530312 L 0.150508 0.52625 L 0.146445 0.522227 L 0.142422 0.522227 L 0.138398 0.518164 L 0.138398 0.514141 L 0.134336 0.510117 L 0.134336 0.506055 L 0.12625 0.497969 L 0.12625 0.493945 L 0.122227 0.489883 L 0.114141 0.489883 L 0.110117 0.485859 L 0.106055 0.485859 L 0.102031 0.481836 L 0.0777734 0.481836 L 0.07375 0.477773 L 0.0696875 0.481836 L 0.0454687 0.481836 L 0.0454687 0.477773 Z M 0.0454687 0.47375 " transform="matrix(100,0,0,100,300,200)"/>
<path style="fill:none;stroke-width:0.01;stroke-linecap:butt;stroke-linejoin:miter;stroke:rgb(0%,0%,0%);stroke-opacity:1;stroke-miterlimit:10;" d="M 0.0454688 0.541523 L 0.0496094 0.537344 L 0.05375 0.537344 L 0.0578906 0.533203 L 0.0662109 0.533203 L 0.0703516 0.529063 L 0.0786719 0.529063 L 0.0828125 0.524922 L 0.0869531 0.524922 L 0.0952734 0.516602 L 0.0994141 0.516602 L 0.103555 0.512461 L 0.107734 0.50832 L 0.111875 0.504141 L 0.116016 0.504141 L 0.120156 0.5 L 0.124336 0.495859 L 0.124336 0.487539 L 0.128477 0.487539 L 0.132617 0.483398 L 0.136797 0.483398 L 0.140937 0.479258 L 0.140937 0.475078 L 0.136797 0.470938 L 0.132617 0.470938 L 0.132617 0.466797 L 0.136797 0.462656 L 0.140937 0.458477 L 0.149219 0.450195 L 0.145078 0.446055 L 0.149219 0.441875 L 0.153398 0.437734 L 0.16168 0.437734 L 0.16582 0.433594 L 0.17 0.433594 L 0.174141 0.429414 L 0.17 0.425273 L 0.17 0.421133 L 0.16582 0.416992 L 0.174141 0.408672 L 0.178281 0.408672 L 0.182422 0.404531 L 0.186602 0.400391 L 0.186602 0.396211 L 0.199063 0.396211 L 0.207344 0.38793 L 0.207344 0.375469 L 0.211484 0.375469 L 0.215664 0.371328 L 0.219805 0.371328 L 0.223945 0.367148 L 0.223945 0.363008 L 0.228086 0.358867 L 0.228086 0.354727 L 0.232266 0.354727 L 0.236406 0.350547 L 0.240547 0.346406 L 0.244727 0.346406 L 0.248867 0.350547 L 0.253008 0.350547 L 0.257148 0.346406 L 0.257148 0.342266 L 0.253008 0.338125 L 0.257148 0.338125 L 0.261328 0.333945 L 0.265469 0.338125 L 0.269609 0.333945 L 0.27375 0.329805 L 0.27793 0.325664 L 0.286211 0.325664 L 0.290352 0.329805 L 0.294531 0.329805 L 0.298672 0.325664 L 0.302812 0.321484 L 0.306992 0.321484 L 0.311133 0.317344 L 0.311133 0.313203 L 0.315273 0.309063 L 0.336016 0.309063 L 0.340195 0.304883 L 0.340195 0.296602 L 0.344336 0.296602 L 0.348477 0.292461 L 0.348477 0.288281 L 0.356797 0.288281 L 0.365078 0.28 L 0.369258 0.28 L 0.373398 0.275859 L 0.373398 0.27168 L 0.377539 0.27168 L 0.38168 0.267539 L 0.385859 0.27168 L 0.39 0.27168 L 0.394141 0.267539 L 0.398281 0.27168 L 0.402461 0.27168 L 0.406602 0.267539 L 0.406602 0.263398 L 0.414922 0.263398 L 0.419062 0.259219 L 0.423203 0.263398 L 0.435664 0.263398 L 0.439805 0.267539 L 0.443945 0.267539 L 0.448125 0.263398 L 0.448125 0.259219 L 0.464727 0.259219 L 0.468867 0.255078 L 0.473008 0.255078 L 0.477188 0.250938 L 0.481328 0.255078 L 0.485469 0.250938 L 0.489609 0.255078 L 0.522812 0.255078 L 0.526992 0.259219 L 0.539453 0.259219 L 0.543594 0.263398 L 0.547734 0.259219 L 0.551875 0.255078 L 0.551875 0.250938 L 0.556055 0.250938 L 0.560195 0.255078 L 0.568477 0.255078 L 0.572656 0.259219 L 0.576797 0.259219 L 0.580938 0.263398 L 0.585078 0.259219 L 0.585078 0.255078 L 0.589258 0.255078 L 0.593398 0.259219 L 0.61832 0.259219 L 0.622461 0.255078 L 0.634922 0.255078 L 0.639063 0.259219 L 0.643203 0.259219 L 0.647383 0.255078 L 0.647383 0.250938 L 0.659805 0.250938 L 0.663984 0.255078 L 0.668125 0.255078 L 0.672266 0.259219 L 0.676406 0.263398 L 0.680586 0.259219 L 0.697188 0.259219 L 0.701328 0.263398 L 0.705469 0.263398 L 0.709648 0.267539 L 0.713789 0.267539 L 0.71793 0.27168 L 0.72207 0.267539 L 0.72625 0.267539 L 0.730391 0.27168 L 0.734531 0.275859 L 0.738672 0.275859 L 0.742852 0.28 L 0.746992 0.284141 L 0.751133 0.28 L 0.755273 0.28 L 0.759453 0.284141 L 0.763594 0.284141 L 0.771914 0.292461 L 0.776055 0.292461 L 0.784336 0.300742 L 0.788516 0.300742 L 0.792656 0.304883 L 0.796797 0.300742 L 0.800937 0.300742 L 0.805117 0.304883 L 0.809258 0.304883 L 0.809258 0.309063 L 0.813398 0.313203 L 0.817578 0.317344 L 0.83 0.317344 L 0.83418 0.321484 L 0.83418 0.325664 L 0.83832 0.329805 L 0.846602 0.329805 L 0.850781 0.333945 L 0.854922 0.338125 L 0.859063 0.342266 L 0.859063 0.346406 L 0.863203 0.350547 L 0.871523 0.350547 L 0.875664 0.354727 L 0.879844 0.358867 L 0.888125 0.367148 L 0.888125 0.371328 L 0.892266 0.375469 L 0.900586 0.375469 L 0.904727 0.379609 L 0.904727 0.38375 L 0.908867 0.38793 L 0.913047 0.39207 L 0.913047 0.396211 L 0.917187 0.400391 L 0.925469 0.400391 L 0.929648 0.404531 L 0.929648 0.412813 L 0.933789 0.416992 L 0.933789 0.421133 L 0.93793 0.425273 L 0.942109 0.425273 L 0.942109 0.446055 L 0.94625 0.450195 L 0.94625 0.475078 L 0.950391 0.479258 L 0.950391 0.495859 L 0.954531 0.5 L 0.954531 0.512461 L 0.950391 0.516602 L 0.950391 0.529063 L 0.94625 0.533203 L 0.94625 0.537344 L 0.942109 0.541523 L 0.93793 0.545664 L 0.929648 0.553945 L 0.929648 0.558125 L 0.921328 0.558125 L 0.913047 0.566406 L 0.900586 0.566406 L 0.896445 0.570586 L 0.896445 0.578867 L 0.883984 0.578867 L 0.879844 0.574727 L 0.875664 0.570586 L 0.871523 0.566406 L 0.867383 0.562266 L 0.863203 0.558125 L 0.859063 0.553945 L 0.854922 0.553945 L 0.850781 0.549805 L 0.846602 0.549805 L 0.842461 0.545664 L 0.83832 0.549805 L 0.83832 0.553945 L 0.83418 0.558125 L 0.83 0.562266 L 0.825859 0.566406 L 0.821719 0.570586 L 0.817578 0.574727 L 0.813398 0.578867 L 0.809258 0.583008 L 0.805117 0.583008 L 0.792656 0.595469 L 0.788516 0.591328 L 0.784336 0.591328 L 0.780195 0.587188 L 0.776055 0.587188 L 0.771914 0.591328 L 0.771914 0.595469 L 0.767734 0.599609 L 0.767734 0.603789 L 0.763594 0.60793 L 0.759453 0.60793 L 0.755273 0.61207 L 0.755273 0.620391 L 0.751133 0.624531 L 0.751133 0.628672 L 0.746992 0.632852 L 0.742852 0.632852 L 0.738672 0.636992 L 0.730391 0.645273 L 0.72625 0.649453 L 0.72207 0.653594 L 0.713789 0.653594 L 0.709648 0.657734 L 0.709648 0.661875 L 0.705469 0.661875 L 0.701328 0.666055 L 0.697188 0.670195 L 0.693008 0.670195 L 0.688867 0.674336 L 0.684727 0.678516 L 0.680586 0.678516 L 0.676406 0.682656 L 0.668125 0.682656 L 0.663984 0.686797 L 0.659805 0.686797 L 0.655664 0.690937 L 0.647383 0.690937 L 0.643203 0.695117 L 0.634922 0.695117 L 0.630742 0.699258 L 0.626602 0.703398 L 0.614141 0.703398 L 0.61 0.707539 L 0.605859 0.707539 L 0.601719 0.711719 L 0.597539 0.711719 L 0.593398 0.707539 L 0.589258 0.711719 L 0.585078 0.715859 L 0.580938 0.72 L 0.576797 0.72 L 0.572656 0.724141 L 0.551875 0.724141 L 0.547734 0.72832 L 0.539453 0.736602 L 0.539453 0.740781 L 0.522812 0.740781 L 0.518672 0.744922 L 0.514531 0.744922 L 0.510391 0.740781 L 0.506211 0.744922 L 0.50207 0.749062 L 0.485469 0.749062 L 0.477188 0.740781 L 0.452266 0.740781 L 0.448125 0.744922 L 0.443945 0.749062 L 0.439805 0.749062 L 0.435664 0.744922 L 0.431523 0.749062 L 0.419062 0.749062 L 0.419062 0.740781 L 0.414922 0.736602 L 0.406602 0.744922 L 0.394141 0.744922 L 0.39 0.749062 L 0.385859 0.749062 L 0.38168 0.744922 L 0.377539 0.740781 L 0.344336 0.740781 L 0.344336 0.736602 L 0.340195 0.732461 L 0.331875 0.732461 L 0.327734 0.72832 L 0.323594 0.72832 L 0.319414 0.732461 L 0.315273 0.732461 L 0.311133 0.72832 L 0.306992 0.72832 L 0.311133 0.724141 L 0.306992 0.72 L 0.302812 0.715859 L 0.298672 0.715859 L 0.294531 0.72 L 0.290352 0.715859 L 0.27793 0.715859 L 0.27375 0.711719 L 0.27375 0.707539 L 0.265469 0.699258 L 0.261328 0.699258 L 0.257148 0.695117 L 0.248867 0.695117 L 0.244727 0.690937 L 0.240547 0.686797 L 0.232266 0.678516 L 0.223945 0.678516 L 0.219805 0.674336 L 0.215664 0.670195 L 0.219805 0.670195 L 0.223945 0.666055 L 0.219805 0.661875 L 0.211484 0.661875 L 0.207344 0.657734 L 0.199063 0.657734 L 0.194883 0.653594 L 0.190742 0.653594 L 0.199063 0.645273 L 0.199063 0.641133 L 0.194883 0.636992 L 0.190742 0.632852 L 0.186602 0.628672 L 0.178281 0.628672 L 0.174141 0.624531 L 0.174141 0.620391 L 0.16168 0.60793 L 0.157539 0.60793 L 0.157539 0.599609 L 0.16168 0.599609 L 0.16582 0.595469 L 0.16582 0.591328 L 0.16168 0.587188 L 0.157539 0.587188 L 0.153398 0.583008 L 0.149219 0.583008 L 0.140937 0.574727 L 0.140937 0.570586 L 0.136797 0.566406 L 0.136797 0.562266 L 0.132617 0.558125 L 0.128477 0.558125 L 0.128477 0.549805 L 0.124336 0.545664 L 0.0994141 0.545664 L 0.0952734 0.541523 L 0.0828125 0.541523 L 0.0786719 0.545664 L 0.0745312 0.541523 L 0.0703516 0.545664 L 0.0662109 0.541523 L 0.0496094 0.541523 Z M 0.0454688 0.541523 " transform="matrix(100,0,0,100,450,200)"/>
<path style="fill:none;stroke-width:0.01;stroke-linecap:butt;stroke-linejoin:miter;stroke:rgb(0%,0%,0%);stroke-opacity:1;stroke-miterlimit:10;" d="M 0.0454688 0.480781 L 0.0497266 0.485078 L 0.0582422 0.485078 L 0.0625391 0.489336 L 0.109492 0.489336 L 0.11375 0.485078 L 0.118008 0.480781 L 0.122266 0.476523 L 0.126563 0.472266 L 0.135078 0.472266 L 0.139336 0.468008 L 0.143633 0.468008 L 0.147891 0.463711 L 0.143633 0.459453 L 0.143633 0.455195 L 0.152148 0.455195 L 0.156406 0.450898 L 0.160703 0.450898 L 0.164961 0.446641 L 0.164961 0.433828 L 0.169219 0.433828 L 0.173477 0.42957 L 0.173477 0.425312 L 0.177773 0.421055 L 0.182031 0.416758 L 0.186289 0.4125 L 0.190586 0.408242 L 0.194844 0.403984 L 0.194844 0.399688 L 0.190586 0.39543 L 0.194844 0.391172 L 0.194844 0.386914 L 0.199102 0.382617 L 0.203359 0.378359 L 0.207656 0.374102 L 0.207656 0.361289 L 0.216172 0.361289 L 0.224727 0.352734 L 0.228984 0.352734 L 0.233242 0.348477 L 0.233242 0.344219 L 0.2375 0.344219 L 0.241797 0.339961 L 0.246055 0.339961 L 0.250312 0.335664 L 0.25457 0.331406 L 0.25457 0.322891 L 0.258867 0.318594 L 0.267383 0.318594 L 0.27168 0.314336 L 0.27168 0.310078 L 0.275938 0.310078 L 0.280195 0.30582 L 0.280195 0.301523 L 0.284453 0.297266 L 0.284453 0.293008 L 0.28875 0.28875 L 0.314336 0.28875 L 0.318594 0.284453 L 0.318594 0.27168 L 0.331406 0.27168 L 0.335664 0.267383 L 0.339961 0.27168 L 0.348477 0.27168 L 0.352734 0.267383 L 0.361289 0.267383 L 0.365547 0.27168 L 0.369844 0.267383 L 0.369844 0.258867 L 0.378359 0.258867 L 0.382617 0.25457 L 0.386914 0.25457 L 0.391172 0.250313 L 0.399687 0.250313 L 0.403984 0.25457 L 0.408242 0.25457 L 0.4125 0.250313 L 0.4125 0.246055 L 0.442383 0.246055 L 0.446641 0.241797 L 0.450898 0.246055 L 0.472266 0.246055 L 0.476523 0.241797 L 0.489336 0.241797 L 0.493594 0.246055 L 0.497852 0.246055 L 0.502148 0.241797 L 0.502148 0.233242 L 0.506406 0.2375 L 0.514922 0.2375 L 0.519219 0.233242 L 0.523477 0.2375 L 0.527734 0.241797 L 0.531992 0.2375 L 0.536289 0.2375 L 0.540547 0.241797 L 0.544805 0.246055 L 0.549102 0.250313 L 0.557617 0.241797 L 0.557617 0.233242 L 0.561875 0.233242 L 0.566172 0.2375 L 0.578945 0.2375 L 0.583242 0.241797 L 0.5875 0.2375 L 0.600313 0.2375 L 0.60457 0.241797 L 0.608828 0.2375 L 0.613086 0.241797 L 0.625898 0.241797 L 0.630156 0.246055 L 0.634453 0.250313 L 0.638711 0.246055 L 0.638711 0.241797 L 0.647266 0.241797 L 0.651523 0.246055 L 0.655781 0.246055 L 0.660039 0.241797 L 0.664336 0.246055 L 0.668594 0.250313 L 0.685664 0.250313 L 0.689922 0.25457 L 0.698477 0.25457 L 0.702734 0.258867 L 0.706992 0.258867 L 0.71125 0.263125 L 0.715547 0.267383 L 0.719805 0.263125 L 0.72832 0.263125 L 0.732617 0.267383 L 0.74543 0.267383 L 0.74543 0.27168 L 0.753945 0.280195 L 0.758203 0.280195 L 0.7625 0.275937 L 0.7625 0.27168 L 0.783828 0.293008 L 0.792344 0.293008 L 0.796641 0.297266 L 0.800898 0.301523 L 0.805156 0.30582 L 0.809414 0.30582 L 0.813711 0.310078 L 0.817969 0.314336 L 0.826523 0.314336 L 0.830781 0.318594 L 0.835039 0.322891 L 0.839297 0.327148 L 0.843594 0.331406 L 0.847852 0.327148 L 0.847852 0.331406 L 0.852109 0.335664 L 0.856367 0.339961 L 0.860664 0.344219 L 0.864922 0.348477 L 0.864922 0.357031 L 0.86918 0.361289 L 0.873438 0.357031 L 0.877734 0.361289 L 0.881992 0.365547 L 0.881992 0.369844 L 0.88625 0.374102 L 0.890508 0.374102 L 0.890508 0.382617 L 0.894805 0.386914 L 0.899063 0.386914 L 0.907578 0.39543 L 0.911875 0.399688 L 0.911875 0.403984 L 0.920391 0.4125 L 0.920391 0.421055 L 0.924688 0.425312 L 0.933203 0.433828 L 0.933203 0.446641 L 0.937461 0.450898 L 0.937461 0.459453 L 0.941758 0.463711 L 0.941758 0.476523 L 0.946016 0.480781 L 0.946016 0.485078 L 0.941758 0.489336 L 0.946016 0.493594 L 0.950273 0.493594 L 0.950273 0.514922 L 0.954531 0.519219 L 0.954531 0.549102 L 0.950273 0.553359 L 0.950273 0.57043 L 0.946016 0.574688 L 0.946016 0.578945 L 0.941758 0.583242 L 0.937461 0.5875 L 0.928945 0.596016 L 0.924688 0.596016 L 0.920391 0.600313 L 0.907578 0.600313 L 0.90332 0.60457 L 0.907578 0.608828 L 0.911875 0.613086 L 0.911875 0.617383 L 0.916133 0.621641 L 0.916133 0.625898 L 0.911875 0.630156 L 0.911875 0.634453 L 0.907578 0.638711 L 0.90332 0.638711 L 0.899063 0.634453 L 0.894805 0.630156 L 0.890508 0.625898 L 0.890508 0.621641 L 0.88625 0.617383 L 0.881992 0.613086 L 0.877734 0.608828 L 0.873438 0.60457 L 0.86918 0.60457 L 0.860664 0.613086 L 0.860664 0.617383 L 0.856367 0.621641 L 0.852109 0.625898 L 0.852109 0.630156 L 0.847852 0.634453 L 0.843594 0.638711 L 0.839297 0.642969 L 0.839297 0.647266 L 0.835039 0.651523 L 0.830781 0.651523 L 0.826523 0.655781 L 0.822227 0.655781 L 0.817969 0.660039 L 0.813711 0.660039 L 0.809414 0.664336 L 0.809414 0.668594 L 0.800898 0.677109 L 0.796641 0.681406 L 0.792344 0.685664 L 0.77957 0.685664 L 0.775273 0.689922 L 0.771016 0.69418 L 0.7625 0.69418 L 0.753945 0.702734 L 0.741133 0.702734 L 0.732617 0.71125 L 0.732617 0.719805 L 0.715547 0.719805 L 0.71125 0.724063 L 0.706992 0.72832 L 0.702734 0.72832 L 0.698477 0.732617 L 0.69418 0.736875 L 0.689922 0.732617 L 0.681406 0.732617 L 0.677109 0.736875 L 0.672852 0.736875 L 0.668594 0.741133 L 0.642969 0.741133 L 0.638711 0.74543 L 0.634453 0.74543 L 0.630156 0.749687 L 0.621641 0.749687 L 0.617383 0.753945 L 0.613086 0.749687 L 0.596016 0.749687 L 0.591758 0.753945 L 0.5875 0.753945 L 0.583242 0.758203 L 0.578945 0.753945 L 0.566172 0.753945 L 0.561875 0.758203 L 0.557617 0.758203 L 0.553359 0.7625 L 0.493594 0.7625 L 0.489336 0.758203 L 0.485078 0.7625 L 0.468008 0.7625 L 0.463711 0.766758 L 0.459453 0.766758 L 0.450898 0.758203 L 0.446641 0.758203 L 0.442383 0.7625 L 0.4125 0.7625 L 0.408242 0.758203 L 0.403984 0.753945 L 0.399687 0.758203 L 0.391172 0.758203 L 0.386914 0.753945 L 0.382617 0.749687 L 0.378359 0.749687 L 0.374102 0.753945 L 0.369844 0.749687 L 0.357031 0.749687 L 0.352734 0.74543 L 0.348477 0.74543 L 0.348477 0.736875 L 0.344219 0.732617 L 0.335664 0.732617 L 0.331406 0.72832 L 0.327148 0.72832 L 0.322891 0.732617 L 0.318594 0.732617 L 0.314336 0.72832 L 0.297266 0.72832 L 0.301523 0.724063 L 0.301523 0.715547 L 0.297266 0.71125 L 0.284453 0.71125 L 0.280195 0.706992 L 0.275938 0.706992 L 0.27168 0.702734 L 0.275938 0.698477 L 0.275938 0.69418 L 0.27168 0.689922 L 0.267383 0.689922 L 0.263125 0.685664 L 0.250312 0.685664 L 0.246055 0.681406 L 0.246055 0.677109 L 0.250312 0.672852 L 0.246055 0.668594 L 0.241797 0.668594 L 0.2375 0.664336 L 0.233242 0.660039 L 0.228984 0.660039 L 0.224727 0.655781 L 0.22043 0.651523 L 0.22043 0.642969 L 0.211914 0.634453 L 0.207656 0.634453 L 0.199102 0.625898 L 0.194844 0.625898 L 0.203359 0.617383 L 0.203359 0.613086 L 0.199102 0.608828 L 0.186289 0.608828 L 0.177773 0.600313 L 0.173477 0.600313 L 0.169219 0.596016 L 0.173477 0.591758 L 0.164961 0.583242 L 0.160703 0.578945 L 0.156406 0.574688 L 0.147891 0.566172 L 0.143633 0.561875 L 0.139336 0.557617 L 0.143633 0.553359 L 0.143633 0.549102 L 0.139336 0.544805 L 0.135078 0.544805 L 0.126563 0.536289 L 0.13082 0.531992 L 0.126563 0.527734 L 0.122266 0.527734 L 0.118008 0.523477 L 0.105195 0.523477 L 0.105195 0.519219 L 0.100938 0.514922 L 0.0838672 0.514922 L 0.0796094 0.510664 L 0.0753125 0.506406 L 0.0625391 0.506406 L 0.0582422 0.502148 L 0.0539844 0.497852 L 0.0454688 0.489336 L 0.0454688 0.485078 Z M 0.0454688 0.480781 " transform="matrix(100,0,0,100,600,200)"/>
<path style="fill:none;stroke-width:0.01;stroke-linecap:butt;stroke-linejoin:miter;stroke:rgb(0%,0%,0%);stroke-opacity:1;stroke-miterlimit:10;" d="M 0.0454688 0.582852 L 0.0499219 0.578359 L 0.0499219 0.573906 L 0.0544141 0.573906 L 0.0589063 0.569414 L 0.0589063 0.564922 L 0.0678516 0.555977 L 0.0723437 0.555977 L 0.0767969 0.551484 L 0.0812891 0.547031 L 0.0902344 0.547031 L 0.0947266 0.542539 L 0.0991797 0.538047 L 0.103672 0.533594 L 0.112617 0.533594 L 0.117109 0.529102 L 0.117109 0.524648 L 0.121602 0.524648 L 0.126055 0.520156 L 0.130547 0.515664 L 0.126055 0.511211 L 0.143984 0.493281 L 0.148438 0.488789 L 0.15293 0.488789 L 0.157422 0.484336 L 0.15293 0.479844 L 0.166367 0.466406 L 0.170859 0.461953 L 0.175313 0.457461 L 0.175313 0.439531 L 0.170859 0.435078 L 0.175313 0.430586 L 0.179805 0.426094 L 0.184297 0.421641 L 0.18875 0.417148 L 0.193242 0.412656 L 0.197734 0.408203 L 0.202187 0.403711 L 0.197734 0.399258 L 0.197734 0.390273 L 0.193242 0.38582 L 0.197734 0.381328 L 0.202187 0.381328 L 0.215625 0.367891 L 0.229063 0.367891 L 0.238008 0.358945 L 0.233555 0.354453 L 0.233555 0.341016 L 0.238008 0.336523 L 0.2425 0.33207 L 0.246992 0.33207 L 0.251445 0.327578 L 0.255937 0.323125 L 0.255937 0.318633 L 0.269375 0.318633 L 0.273828 0.314141 L 0.273828 0.309687 L 0.269375 0.305195 L 0.269375 0.300703 L 0.282813 0.287266 L 0.291758 0.287266 L 0.29625 0.282812 L 0.300703 0.282812 L 0.314141 0.269375 L 0.314141 0.264883 L 0.318633 0.264883 L 0.323125 0.26043 L 0.336523 0.26043 L 0.345508 0.251445 L 0.363398 0.251445 L 0.367891 0.246992 L 0.367891 0.233555 L 0.38582 0.233555 L 0.390273 0.229062 L 0.390273 0.22457 L 0.399258 0.22457 L 0.403711 0.229062 L 0.408203 0.229062 L 0.412656 0.22457 L 0.412656 0.220117 L 0.417148 0.220117 L 0.421641 0.215625 L 0.439531 0.215625 L 0.444023 0.211133 L 0.448516 0.215625 L 0.452969 0.215625 L 0.457461 0.211133 L 0.457461 0.20668 L 0.461953 0.202187 L 0.479844 0.202187 L 0.484336 0.197734 L 0.511211 0.197734 L 0.515664 0.193242 L 0.520156 0.18875 L 0.547031 0.18875 L 0.551484 0.193242 L 0.555977 0.197734 L 0.560469 0.197734 L 0.564922 0.193242 L 0.587344 0.193242 L 0.591797 0.197734 L 0.61418 0.197734 L 0.618672 0.202187 L 0.623164 0.20668 L 0.627617 0.202187 L 0.632109 0.197734 L 0.636602 0.202187 L 0.641055 0.202187 L 0.645547 0.20668 L 0.663477 0.20668 L 0.663477 0.211133 L 0.66793 0.215625 L 0.672422 0.220117 L 0.676875 0.215625 L 0.681367 0.215625 L 0.685859 0.220117 L 0.690312 0.220117 L 0.694805 0.22457 L 0.708242 0.22457 L 0.708242 0.229062 L 0.717187 0.238008 L 0.72168 0.238008 L 0.726172 0.233555 L 0.730625 0.233555 L 0.735117 0.238008 L 0.73957 0.2425 L 0.748555 0.2425 L 0.753008 0.246992 L 0.7575 0.251445 L 0.761992 0.251445 L 0.766445 0.246992 L 0.770938 0.251445 L 0.77543 0.255937 L 0.779883 0.255937 L 0.784375 0.26043 L 0.788867 0.26043 L 0.788867 0.269375 L 0.79332 0.273828 L 0.797813 0.273828 L 0.802266 0.269375 L 0.802266 0.255937 L 0.797813 0.251445 L 0.797813 0.246992 L 0.81125 0.246992 L 0.81125 0.251445 L 0.815703 0.255937 L 0.820195 0.255937 L 0.833633 0.269375 L 0.833633 0.27832 L 0.838125 0.282812 L 0.838125 0.300703 L 0.842578 0.305195 L 0.84707 0.309687 L 0.851562 0.309687 L 0.856016 0.305195 L 0.860508 0.305195 L 0.864961 0.300703 L 0.869453 0.300703 L 0.873945 0.305195 L 0.896328 0.305195 L 0.90082 0.309687 L 0.905273 0.309687 L 0.905273 0.314141 L 0.909766 0.318633 L 0.914258 0.318633 L 0.918711 0.323125 L 0.923203 0.327578 L 0.923203 0.33207 L 0.932148 0.341016 L 0.932148 0.358945 L 0.936641 0.363398 L 0.936641 0.38582 L 0.941094 0.390273 L 0.941094 0.394766 L 0.945586 0.399258 L 0.945586 0.412656 L 0.950078 0.417148 L 0.950078 0.421641 L 0.954531 0.426094 L 0.954531 0.439531 L 0.950078 0.444023 L 0.950078 0.466406 L 0.945586 0.466406 L 0.941094 0.470898 L 0.945586 0.475352 L 0.945586 0.488789 L 0.941094 0.493281 L 0.941094 0.511211 L 0.932148 0.520156 L 0.932148 0.524648 L 0.936641 0.529102 L 0.932148 0.533594 L 0.932148 0.547031 L 0.927656 0.551484 L 0.927656 0.555977 L 0.923203 0.555977 L 0.918711 0.560469 L 0.918711 0.578359 L 0.914258 0.582852 L 0.909766 0.587344 L 0.905273 0.591797 L 0.905273 0.596289 L 0.90082 0.600742 L 0.896328 0.600742 L 0.891836 0.605234 L 0.891836 0.618672 L 0.887383 0.623164 L 0.887383 0.627617 L 0.864961 0.650039 L 0.860508 0.650039 L 0.856016 0.654492 L 0.856016 0.658984 L 0.851562 0.663477 L 0.851562 0.66793 L 0.84707 0.66793 L 0.842578 0.672422 L 0.842578 0.676875 L 0.838125 0.681367 L 0.829141 0.681367 L 0.824688 0.685859 L 0.824688 0.694805 L 0.820195 0.694805 L 0.806758 0.708242 L 0.788867 0.708242 L 0.784375 0.712734 L 0.784375 0.717187 L 0.779883 0.72168 L 0.770938 0.72168 L 0.7575 0.735117 L 0.753008 0.73957 L 0.744062 0.730625 L 0.735117 0.73957 L 0.735117 0.744063 L 0.730625 0.748555 L 0.72168 0.748555 L 0.717187 0.753008 L 0.712734 0.753008 L 0.70375 0.761992 L 0.699297 0.7575 L 0.694805 0.753008 L 0.690312 0.7575 L 0.690312 0.761992 L 0.685859 0.766445 L 0.676875 0.766445 L 0.672422 0.770938 L 0.672422 0.77543 L 0.658984 0.77543 L 0.654492 0.779883 L 0.650039 0.779883 L 0.645547 0.77543 L 0.641055 0.77543 L 0.627617 0.788867 L 0.623164 0.788867 L 0.618672 0.79332 L 0.61418 0.79332 L 0.609727 0.797813 L 0.605234 0.797813 L 0.596289 0.788867 L 0.591797 0.79332 L 0.587344 0.797813 L 0.582852 0.802266 L 0.578359 0.797813 L 0.569414 0.806758 L 0.551484 0.806758 L 0.547031 0.81125 L 0.542539 0.81125 L 0.538047 0.806758 L 0.533594 0.802266 L 0.529102 0.806758 L 0.524648 0.81125 L 0.515664 0.81125 L 0.511211 0.806758 L 0.506719 0.81125 L 0.484336 0.81125 L 0.479844 0.806758 L 0.479844 0.802266 L 0.475352 0.797813 L 0.470898 0.802266 L 0.466406 0.802266 L 0.461953 0.806758 L 0.452969 0.806758 L 0.448516 0.802266 L 0.426094 0.802266 L 0.421641 0.797813 L 0.421641 0.79332 L 0.417148 0.788867 L 0.412656 0.788867 L 0.408203 0.79332 L 0.403711 0.788867 L 0.399258 0.784375 L 0.394766 0.788867 L 0.381328 0.788867 L 0.376836 0.784375 L 0.376836 0.77543 L 0.372383 0.770938 L 0.367891 0.770938 L 0.363398 0.77543 L 0.33207 0.77543 L 0.33207 0.7575 L 0.327578 0.753008 L 0.323125 0.753008 L 0.318633 0.7575 L 0.314141 0.7575 L 0.309688 0.753008 L 0.287266 0.753008 L 0.282813 0.748555 L 0.27832 0.748555 L 0.27832 0.735117 L 0.282813 0.730625 L 0.27832 0.726172 L 0.273828 0.726172 L 0.269375 0.730625 L 0.264883 0.730625 L 0.264883 0.726172 L 0.26043 0.72168 L 0.255937 0.717187 L 0.238008 0.717187 L 0.233555 0.712734 L 0.233555 0.708242 L 0.238008 0.70375 L 0.238008 0.699297 L 0.233555 0.694805 L 0.215625 0.694805 L 0.215625 0.690313 L 0.211133 0.685859 L 0.20668 0.685859 L 0.202187 0.681367 L 0.197734 0.676875 L 0.197734 0.672422 L 0.202187 0.66793 L 0.202187 0.663477 L 0.197734 0.658984 L 0.193242 0.658984 L 0.193242 0.654492 L 0.18875 0.650039 L 0.184297 0.645547 L 0.179805 0.645547 L 0.175313 0.641055 L 0.170859 0.641055 L 0.170859 0.636602 L 0.175313 0.636602 L 0.179805 0.632109 L 0.179805 0.627617 L 0.184297 0.623164 L 0.179805 0.618672 L 0.166367 0.618672 L 0.157422 0.609727 L 0.15293 0.609727 L 0.148438 0.605234 L 0.148438 0.596289 L 0.143984 0.591797 L 0.139492 0.587344 L 0.135039 0.587344 L 0.130547 0.582852 L 0.126055 0.582852 L 0.121602 0.578359 L 0.117109 0.573906 L 0.108164 0.573906 L 0.103672 0.578359 L 0.0991797 0.578359 L 0.0947266 0.582852 L 0.0902344 0.587344 L 0.0857422 0.587344 L 0.0812891 0.582852 L 0.0767969 0.582852 L 0.0723437 0.587344 L 0.0633594 0.587344 L 0.0589063 0.591797 L 0.0544141 0.591797 L 0.0499219 0.596289 L 0.0499219 0.600742 L 0.0454688 0.596289 L 0.0454688 0.587344 Z M 0.0454688 0.582852 " transform="matrix(100,0,0,100,0,350)"/>
<path style="fill:none;stroke-width:0.01;stroke-linecap:butt;stroke-linejoin:miter;stroke:rgb(0%,0%,0%);stroke-opacity:1;stroke-miterlimit:10;" d="M 0.0454687 0.485391 L 0.0496094 0.48957 L 0.0537891 0.48957 L 0.0579688 0.49375 L 0.0829688 0.49375 L 0.0871484 0.49793 L 0.0913281 0.49793 L 0.0955078 0.49375 L 0.103828 0.49375 L 0.108008 0.48957 L 0.112188 0.48957 L 0.116328 0.485391 L 0.120508 0.48125 L 0.128867 0.472891 L 0.128867 0.46457 L 0.133047 0.46457 L 0.137188 0.460391 L 0.145547 0.452031 L 0.141367 0.447891 L 0.141367 0.443711 L 0.149727 0.435352 L 0.158047 0.435352 L 0.162227 0.431211 L 0.162227 0.427031 L 0.158047 0.422852 L 0.158047 0.418672 L 0.170547 0.418672 L 0.174727 0.414531 L 0.174727 0.410352 L 0.178906 0.406172 L 0.178906 0.393672 L 0.183086 0.389492 L 0.195586 0.389492 L 0.199766 0.385312 L 0.195586 0.381133 L 0.195586 0.372813 L 0.199766 0.372813 L 0.203906 0.368633 L 0.216445 0.368633 L 0.220586 0.364453 L 0.224766 0.360313 L 0.224766 0.347773 L 0.228945 0.347773 L 0.233125 0.343633 L 0.241445 0.343633 L 0.245625 0.339453 L 0.245625 0.335273 L 0.249805 0.331094 L 0.270625 0.331094 L 0.274805 0.326953 L 0.283164 0.326953 L 0.287305 0.331094 L 0.291484 0.326953 L 0.291484 0.322773 L 0.287305 0.318594 L 0.283164 0.314414 L 0.283164 0.306094 L 0.287305 0.301914 L 0.303984 0.301914 L 0.308164 0.297734 L 0.312344 0.293594 L 0.312344 0.289414 L 0.316523 0.289414 L 0.320703 0.285234 L 0.337383 0.285234 L 0.341523 0.281055 L 0.341523 0.272734 L 0.354062 0.272734 L 0.358203 0.276914 L 0.362383 0.272734 L 0.362383 0.264375 L 0.379063 0.264375 L 0.383242 0.268555 L 0.395742 0.268555 L 0.399922 0.264375 L 0.399922 0.256055 L 0.412422 0.256055 L 0.416602 0.260234 L 0.429102 0.260234 L 0.433281 0.256055 L 0.458281 0.256055 L 0.462461 0.251875 L 0.462461 0.243555 L 0.474961 0.243555 L 0.479141 0.247695 L 0.48332 0.247695 L 0.4875 0.243555 L 0.491641 0.243555 L 0.49582 0.247695 L 0.5 0.247695 L 0.50418 0.243555 L 0.50418 0.239375 L 0.520859 0.239375 L 0.525039 0.243555 L 0.52918 0.243555 L 0.533359 0.239375 L 0.537539 0.243555 L 0.541719 0.247695 L 0.550039 0.239375 L 0.554219 0.239375 L 0.558398 0.243555 L 0.562539 0.243555 L 0.566719 0.247695 L 0.570898 0.251875 L 0.579219 0.251875 L 0.583398 0.256055 L 0.587578 0.251875 L 0.591758 0.251875 L 0.595898 0.256055 L 0.600078 0.260234 L 0.616758 0.260234 L 0.620938 0.256055 L 0.625117 0.260234 L 0.629258 0.260234 L 0.633437 0.264375 L 0.637617 0.268555 L 0.650117 0.268555 L 0.658477 0.276914 L 0.662617 0.272734 L 0.662617 0.268555 L 0.666797 0.268555 L 0.670977 0.272734 L 0.675156 0.272734 L 0.679297 0.276914 L 0.683477 0.281055 L 0.687656 0.285234 L 0.704336 0.285234 L 0.712695 0.293594 L 0.716836 0.293594 L 0.721016 0.297734 L 0.725195 0.297734 L 0.729375 0.301914 L 0.733516 0.301914 L 0.737695 0.306094 L 0.737695 0.322773 L 0.741875 0.326953 L 0.746055 0.322773 L 0.750195 0.318594 L 0.750195 0.314414 L 0.754375 0.318594 L 0.762734 0.318594 L 0.766875 0.322773 L 0.771055 0.322773 L 0.775234 0.326953 L 0.791914 0.326953 L 0.796094 0.331094 L 0.800234 0.335273 L 0.804414 0.335273 L 0.808594 0.339453 L 0.825273 0.339453 L 0.829453 0.343633 L 0.833594 0.343633 L 0.837773 0.347773 L 0.841953 0.351953 L 0.841953 0.356133 L 0.846133 0.360313 L 0.850273 0.360313 L 0.854453 0.356133 L 0.858633 0.360313 L 0.862812 0.360313 L 0.866953 0.364453 L 0.871133 0.364453 L 0.871133 0.368633 L 0.875313 0.372813 L 0.879492 0.372813 L 0.896172 0.389492 L 0.896172 0.393672 L 0.900352 0.397813 L 0.904492 0.397813 L 0.908672 0.401992 L 0.908672 0.406172 L 0.912852 0.410352 L 0.912852 0.414531 L 0.917031 0.418672 L 0.917031 0.422852 L 0.921172 0.427031 L 0.925352 0.427031 L 0.925352 0.431211 L 0.929531 0.435352 L 0.929531 0.439531 L 0.933711 0.443711 L 0.937852 0.447891 L 0.937852 0.460391 L 0.942031 0.46457 L 0.942031 0.468711 L 0.946211 0.472891 L 0.946211 0.48125 L 0.950391 0.485391 L 0.946211 0.48957 L 0.950391 0.49375 L 0.950391 0.514609 L 0.954531 0.51875 L 0.954531 0.531289 L 0.950391 0.53543 L 0.950391 0.547969 L 0.946211 0.552109 L 0.946211 0.556289 L 0.942031 0.560469 L 0.942031 0.564648 L 0.937852 0.564648 L 0.933711 0.568789 L 0.929531 0.568789 L 0.925352 0.572969 L 0.921172 0.572969 L 0.917031 0.577148 L 0.917031 0.585469 L 0.921172 0.589648 L 0.921172 0.593828 L 0.917031 0.598008 L 0.912852 0.598008 L 0.908672 0.593828 L 0.904492 0.593828 L 0.900352 0.589648 L 0.900352 0.585469 L 0.896172 0.581328 L 0.887812 0.572969 L 0.883672 0.568789 L 0.879492 0.564648 L 0.875313 0.564648 L 0.871133 0.568789 L 0.866953 0.572969 L 0.862812 0.577148 L 0.858633 0.581328 L 0.858633 0.585469 L 0.854453 0.585469 L 0.850273 0.589648 L 0.846133 0.593828 L 0.837773 0.593828 L 0.833594 0.598008 L 0.829453 0.602188 L 0.825273 0.606328 L 0.821094 0.606328 L 0.816914 0.610508 L 0.812773 0.614688 L 0.800234 0.614688 L 0.796094 0.618867 L 0.779414 0.618867 L 0.775234 0.623008 L 0.766875 0.631367 L 0.766875 0.635547 L 0.762734 0.639687 L 0.762734 0.648047 L 0.758555 0.652227 L 0.758555 0.660547 L 0.750195 0.668906 L 0.750195 0.673047 L 0.746055 0.677227 L 0.737695 0.685586 L 0.729375 0.685586 L 0.725195 0.689727 L 0.716836 0.698086 L 0.712695 0.702266 L 0.708516 0.702266 L 0.704336 0.706406 L 0.700156 0.710586 L 0.696016 0.710586 L 0.691836 0.714766 L 0.679297 0.714766 L 0.675156 0.718945 L 0.670977 0.723086 L 0.666797 0.718945 L 0.662617 0.718945 L 0.654297 0.727266 L 0.637617 0.727266 L 0.629258 0.735625 L 0.625117 0.735625 L 0.620938 0.739766 L 0.616758 0.739766 L 0.616758 0.735625 L 0.612578 0.731445 L 0.604258 0.731445 L 0.600078 0.735625 L 0.591758 0.735625 L 0.587578 0.739766 L 0.570898 0.739766 L 0.566719 0.743945 L 0.554219 0.743945 L 0.550039 0.739766 L 0.537539 0.739766 L 0.533359 0.743945 L 0.52918 0.743945 L 0.525039 0.739766 L 0.520859 0.735625 L 0.51668 0.739766 L 0.508359 0.739766 L 0.5 0.748125 L 0.5 0.752305 L 0.49582 0.756445 L 0.491641 0.760625 L 0.474961 0.760625 L 0.47082 0.756445 L 0.454141 0.756445 L 0.449961 0.760625 L 0.445781 0.760625 L 0.441602 0.756445 L 0.441602 0.752305 L 0.437461 0.748125 L 0.433281 0.752305 L 0.424922 0.752305 L 0.420781 0.748125 L 0.416602 0.748125 L 0.412422 0.752305 L 0.395742 0.752305 L 0.395742 0.743945 L 0.391563 0.739766 L 0.379063 0.739766 L 0.374883 0.743945 L 0.366563 0.743945 L 0.362383 0.739766 L 0.358203 0.735625 L 0.354062 0.731445 L 0.329023 0.731445 L 0.324844 0.727266 L 0.320703 0.727266 L 0.316523 0.723086 L 0.312344 0.723086 L 0.312344 0.718945 L 0.308164 0.714766 L 0.295664 0.714766 L 0.291484 0.710586 L 0.283164 0.710586 L 0.283164 0.698086 L 0.278984 0.693906 L 0.274805 0.698086 L 0.266484 0.698086 L 0.266484 0.693906 L 0.262305 0.689727 L 0.249805 0.689727 L 0.249805 0.681406 L 0.253945 0.677227 L 0.249805 0.673047 L 0.241445 0.673047 L 0.237266 0.668906 L 0.228945 0.668906 L 0.220586 0.660547 L 0.224766 0.656367 L 0.224766 0.652227 L 0.220586 0.648047 L 0.212266 0.648047 L 0.208086 0.643867 L 0.203906 0.643867 L 0.199766 0.639687 L 0.195586 0.635547 L 0.187227 0.627187 L 0.183086 0.623008 L 0.178906 0.618867 L 0.178906 0.614688 L 0.166406 0.602188 L 0.162227 0.602188 L 0.153867 0.593828 L 0.158047 0.589648 L 0.158047 0.585469 L 0.153867 0.581328 L 0.149727 0.577148 L 0.145547 0.572969 L 0.141367 0.572969 L 0.141367 0.564648 L 0.137188 0.560469 L 0.133047 0.560469 L 0.124688 0.552109 L 0.120508 0.547969 L 0.116328 0.543789 L 0.112188 0.539609 L 0.108008 0.53543 L 0.103828 0.531289 L 0.0996484 0.531289 L 0.0996484 0.527109 L 0.0955078 0.52293 L 0.0829688 0.52293 L 0.0788281 0.51875 L 0.0704688 0.51875 L 0.0662891 0.514609 L 0.0621484 0.51043 L 0.0579688 0.51043 L 0.0579688 0.50625 L 0.0537891 0.50207 L 0.0496094 0.49793 L 0.0496094 0.49375 L 0.0454687 0.48957 Z M 0.0454687 0.485391 " transform="matrix(100,0,0,100,150,350)"/>
<path style="fill:none;stroke-width:0.01;stroke-linecap:butt;stroke-linejoin:miter;stroke:rgb(0%,0%,0%);stroke-opacity:1;stroke-miterlimit:10;" d="M 0.0454687 0.504531 L 0.0499609 0.5 L 0.0635547 0.5 L 0.0680859 0.495469 L 0.0771094 0.495469 L 0.0816406 0.490938 L 0.0861719 0.495469 L 0.0906641 0.490938 L 0.0951953 0.486445 L 0.104258 0.486445 L 0.108789 0.481914 L 0.108789 0.477383 L 0.117812 0.477383 L 0.122344 0.472852 L 0.131406 0.472852 L 0.135898 0.468359 L 0.131406 0.463828 L 0.135898 0.459297 L 0.144961 0.450234 L 0.144961 0.441211 L 0.149492 0.43668 L 0.153984 0.432148 L 0.158516 0.427617 L 0.163047 0.423125 L 0.167578 0.418594 L 0.167578 0.414062 L 0.172109 0.409531 L 0.185664 0.409531 L 0.190195 0.405039 L 0.194727 0.400508 L 0.199219 0.400508 L 0.20375 0.395977 L 0.199219 0.391445 L 0.194727 0.386914 L 0.212813 0.368828 L 0.217305 0.368828 L 0.221836 0.364297 L 0.217305 0.359805 L 0.217305 0.355273 L 0.221836 0.350742 L 0.226367 0.350742 L 0.230898 0.346211 L 0.23543 0.341719 L 0.239922 0.341719 L 0.244453 0.346211 L 0.248984 0.341719 L 0.253516 0.337188 L 0.253516 0.332656 L 0.244453 0.323594 L 0.248984 0.319102 L 0.262539 0.319102 L 0.271602 0.310039 L 0.271602 0.305508 L 0.280625 0.305508 L 0.285156 0.300977 L 0.280625 0.296484 L 0.285156 0.291953 L 0.289687 0.296484 L 0.294219 0.291953 L 0.303242 0.291953 L 0.307773 0.287422 L 0.321367 0.287422 L 0.325859 0.282891 L 0.325859 0.278398 L 0.321367 0.273867 L 0.321367 0.264805 L 0.325859 0.269336 L 0.330391 0.269336 L 0.334922 0.264805 L 0.343945 0.264805 L 0.348477 0.260273 L 0.371094 0.260273 L 0.375625 0.255781 L 0.380156 0.255781 L 0.38918 0.264805 L 0.393711 0.260273 L 0.393711 0.25125 L 0.411797 0.25125 L 0.416328 0.246719 L 0.420859 0.246719 L 0.425391 0.25125 L 0.429883 0.25125 L 0.434414 0.246719 L 0.434414 0.237656 L 0.443477 0.237656 L 0.447969 0.233164 L 0.4525 0.233164 L 0.457031 0.237656 L 0.461562 0.237656 L 0.466094 0.233164 L 0.470586 0.233164 L 0.475117 0.237656 L 0.48418 0.246719 L 0.493203 0.246719 L 0.502266 0.237656 L 0.511289 0.237656 L 0.51582 0.242188 L 0.520352 0.237656 L 0.529414 0.237656 L 0.533906 0.242188 L 0.5475 0.242188 L 0.552031 0.246719 L 0.561055 0.246719 L 0.565586 0.25125 L 0.588203 0.25125 L 0.592734 0.255781 L 0.624375 0.255781 L 0.628906 0.260273 L 0.633437 0.260273 L 0.63793 0.264805 L 0.642461 0.269336 L 0.656055 0.269336 L 0.660547 0.273867 L 0.665078 0.278398 L 0.669609 0.278398 L 0.674141 0.282891 L 0.683164 0.282891 L 0.692227 0.291953 L 0.710313 0.291953 L 0.714844 0.296484 L 0.719375 0.300977 L 0.723867 0.305508 L 0.728398 0.305508 L 0.737461 0.31457 L 0.741953 0.319102 L 0.746484 0.323594 L 0.755547 0.323594 L 0.760078 0.328125 L 0.76457 0.332656 L 0.769102 0.332656 L 0.778164 0.341719 L 0.782695 0.346211 L 0.787187 0.350742 L 0.79625 0.359805 L 0.800781 0.359805 L 0.832422 0.391445 L 0.836953 0.391445 L 0.836953 0.395977 L 0.850508 0.409531 L 0.855039 0.409531 L 0.855039 0.414062 L 0.85957 0.418594 L 0.85957 0.423125 L 0.864102 0.427617 L 0.868594 0.427617 L 0.873125 0.423125 L 0.886719 0.409531 L 0.886719 0.405039 L 0.891211 0.400508 L 0.900273 0.391445 L 0.904805 0.391445 L 0.909336 0.386914 L 0.913828 0.386914 L 0.918359 0.391445 L 0.918359 0.400508 L 0.913828 0.405039 L 0.913828 0.409531 L 0.918359 0.414062 L 0.922891 0.414062 L 0.927422 0.418594 L 0.931914 0.423125 L 0.936445 0.423125 L 0.940977 0.427617 L 0.945508 0.432148 L 0.945508 0.43668 L 0.950039 0.441211 L 0.950039 0.450234 L 0.954531 0.454766 L 0.954531 0.486445 L 0.950039 0.490938 L 0.950039 0.504531 L 0.945508 0.509062 L 0.945508 0.522617 L 0.940977 0.527148 L 0.945508 0.531641 L 0.945508 0.536172 L 0.940977 0.540703 L 0.940977 0.545234 L 0.936445 0.549766 L 0.931914 0.554258 L 0.931914 0.56332 L 0.927422 0.567852 L 0.927422 0.572383 L 0.922891 0.576875 L 0.913828 0.585938 L 0.913828 0.590469 L 0.904805 0.599492 L 0.904805 0.604023 L 0.900273 0.604023 L 0.895742 0.608555 L 0.895742 0.613086 L 0.891211 0.617578 L 0.891211 0.622109 L 0.886719 0.626641 L 0.882188 0.626641 L 0.877656 0.631172 L 0.877656 0.635703 L 0.873125 0.640195 L 0.868594 0.644727 L 0.864102 0.649258 L 0.855039 0.649258 L 0.850508 0.653789 L 0.850508 0.658281 L 0.846016 0.662813 L 0.841484 0.662813 L 0.823398 0.680898 L 0.818867 0.680898 L 0.814336 0.68543 L 0.814336 0.689961 L 0.805273 0.699023 L 0.79625 0.699023 L 0.791719 0.703516 L 0.787187 0.703516 L 0.782695 0.708047 L 0.778164 0.712578 L 0.769102 0.712578 L 0.76457 0.708047 L 0.760078 0.708047 L 0.751016 0.717109 L 0.746484 0.721602 L 0.741953 0.721602 L 0.737461 0.726133 L 0.73293 0.726133 L 0.728398 0.721602 L 0.723867 0.726133 L 0.719375 0.730664 L 0.719375 0.735195 L 0.714844 0.730664 L 0.710313 0.735195 L 0.705781 0.735195 L 0.70125 0.739727 L 0.696758 0.739727 L 0.692227 0.735195 L 0.687695 0.739727 L 0.678633 0.739727 L 0.669609 0.74875 L 0.660547 0.74875 L 0.656055 0.753281 L 0.651523 0.74875 L 0.642461 0.74875 L 0.63793 0.753281 L 0.633437 0.74875 L 0.628906 0.74875 L 0.624375 0.753281 L 0.619844 0.753281 L 0.615352 0.757812 L 0.606289 0.757812 L 0.601758 0.753281 L 0.597227 0.753281 L 0.592734 0.757812 L 0.583672 0.757812 L 0.579141 0.762344 L 0.574609 0.762344 L 0.570117 0.766836 L 0.565586 0.766836 L 0.561055 0.762344 L 0.556523 0.762344 L 0.552031 0.766836 L 0.5475 0.762344 L 0.538438 0.762344 L 0.533906 0.766836 L 0.51582 0.766836 L 0.51582 0.762344 L 0.511289 0.757812 L 0.506797 0.757812 L 0.502266 0.762344 L 0.493203 0.762344 L 0.488711 0.757812 L 0.479648 0.757812 L 0.475117 0.762344 L 0.470586 0.762344 L 0.466094 0.757812 L 0.461562 0.753281 L 0.457031 0.753281 L 0.447969 0.762344 L 0.443477 0.757812 L 0.438945 0.757812 L 0.434414 0.762344 L 0.420859 0.762344 L 0.420859 0.757812 L 0.416328 0.753281 L 0.407266 0.753281 L 0.402773 0.74875 L 0.380156 0.74875 L 0.380156 0.739727 L 0.375625 0.735195 L 0.366563 0.735195 L 0.36207 0.730664 L 0.343945 0.730664 L 0.343945 0.721602 L 0.339453 0.717109 L 0.307773 0.717109 L 0.307773 0.708047 L 0.303242 0.703516 L 0.294219 0.703516 L 0.289687 0.699023 L 0.285156 0.694492 L 0.276133 0.694492 L 0.271602 0.689961 L 0.276133 0.68543 L 0.276133 0.680898 L 0.271602 0.676406 L 0.26707 0.676406 L 0.26707 0.671875 L 0.262539 0.667344 L 0.248984 0.667344 L 0.244453 0.662813 L 0.239922 0.662813 L 0.239922 0.658281 L 0.23543 0.653789 L 0.230898 0.653789 L 0.217305 0.640195 L 0.212813 0.640195 L 0.212813 0.635703 L 0.217305 0.631172 L 0.221836 0.626641 L 0.217305 0.622109 L 0.199219 0.622109 L 0.194727 0.617578 L 0.190195 0.617578 L 0.185664 0.613086 L 0.185664 0.608555 L 0.190195 0.604023 L 0.190195 0.599492 L 0.185664 0.594961 L 0.181133 0.594961 L 0.176602 0.590469 L 0.176602 0.581406 L 0.172109 0.576875 L 0.167578 0.572383 L 0.158516 0.572383 L 0.158516 0.558789 L 0.153984 0.554258 L 0.14043 0.554258 L 0.14043 0.545234 L 0.135898 0.540703 L 0.131406 0.536172 L 0.122344 0.536172 L 0.117812 0.531641 L 0.113281 0.527148 L 0.108789 0.527148 L 0.0997266 0.518086 L 0.0951953 0.522617 L 0.0906641 0.522617 L 0.0861719 0.518086 L 0.0771094 0.518086 L 0.0725781 0.513555 L 0.0499609 0.513555 L 0.0454687 0.509062 Z M 0.0454687 0.504531 " transform="matrix(100,0,0,100,300,350)"/>
<path style="fill:none;stroke-width:0.01;stroke-linecap:butt;stroke-linejoin:miter;stroke:rgb(0%,0%,0%);stroke-opacity:1;stroke-miterlimit:10;" d="M 0.0454688 0.580664 L 0.0612109 0.564922 L 0.0651172 0.564922 L 0.0690625 0.561016 L 0.0730078 0.561016 L 0.0769531 0.55707 L 0.0808594 0.55707 L 0.0848047 0.553125 L 0.08875 0.553125 L 0.0926953 0.54918 L 0.0926953 0.545273 L 0.0966016 0.545273 L 0.100547 0.541328 L 0.100547 0.537383 L 0.104492 0.533437 L 0.108437 0.529531 L 0.108437 0.525586 L 0.112344 0.521641 L 0.116289 0.517695 L 0.116289 0.509844 L 0.12418 0.501953 L 0.128086 0.501953 L 0.132031 0.498047 L 0.135977 0.498047 L 0.139922 0.494102 L 0.139922 0.490156 L 0.135977 0.486211 L 0.132031 0.486211 L 0.132031 0.482305 L 0.135977 0.478359 L 0.139922 0.478359 L 0.143828 0.474414 L 0.151719 0.474414 L 0.155664 0.470469 L 0.151719 0.466563 L 0.147773 0.462617 L 0.147773 0.458672 L 0.151719 0.458672 L 0.15957 0.45082 L 0.15957 0.44293 L 0.163516 0.438984 L 0.167461 0.435078 L 0.171406 0.431133 L 0.171406 0.427188 L 0.175313 0.423242 L 0.175313 0.419336 L 0.183203 0.411445 L 0.191055 0.411445 L 0.195 0.4075 L 0.191055 0.403594 L 0.187148 0.399648 L 0.187148 0.395703 L 0.183203 0.391758 L 0.183203 0.387852 L 0.187148 0.387852 L 0.191055 0.383906 L 0.198945 0.376016 L 0.202891 0.376016 L 0.206797 0.372109 L 0.206797 0.360273 L 0.210742 0.356367 L 0.214688 0.356367 L 0.218633 0.352422 L 0.222539 0.348477 L 0.23043 0.348477 L 0.234375 0.344531 L 0.23043 0.340625 L 0.234375 0.33668 L 0.246172 0.33668 L 0.250117 0.332734 L 0.257969 0.332734 L 0.261914 0.328789 L 0.261914 0.324883 L 0.257969 0.320937 L 0.257969 0.316992 L 0.261914 0.316992 L 0.265859 0.313047 L 0.277656 0.313047 L 0.281602 0.309141 L 0.285508 0.309141 L 0.289453 0.305195 L 0.289453 0.30125 L 0.293398 0.297305 L 0.309141 0.297305 L 0.316992 0.289453 L 0.328789 0.289453 L 0.332734 0.285508 L 0.340625 0.285508 L 0.344531 0.281602 L 0.344531 0.273711 L 0.360273 0.273711 L 0.364219 0.269766 L 0.364219 0.257969 L 0.399648 0.257969 L 0.403594 0.254023 L 0.403594 0.246172 L 0.419336 0.246172 L 0.423242 0.242227 L 0.435078 0.242227 L 0.438984 0.238281 L 0.438984 0.234375 L 0.44293 0.234375 L 0.446875 0.23043 L 0.462617 0.23043 L 0.466563 0.234375 L 0.470469 0.23043 L 0.470469 0.226484 L 0.474414 0.222539 L 0.478359 0.226484 L 0.490156 0.226484 L 0.494102 0.23043 L 0.498047 0.23043 L 0.501953 0.226484 L 0.509844 0.226484 L 0.513789 0.222539 L 0.533437 0.222539 L 0.541328 0.23043 L 0.545273 0.226484 L 0.55707 0.226484 L 0.561016 0.23043 L 0.568867 0.23043 L 0.572813 0.226484 L 0.584609 0.226484 L 0.588555 0.23043 L 0.596406 0.23043 L 0.600352 0.226484 L 0.616094 0.226484 L 0.620039 0.23043 L 0.627891 0.23043 L 0.631836 0.234375 L 0.635781 0.234375 L 0.639727 0.23043 L 0.651523 0.23043 L 0.659375 0.238281 L 0.667266 0.238281 L 0.671211 0.242227 L 0.675117 0.242227 L 0.679062 0.238281 L 0.690859 0.238281 L 0.694805 0.242227 L 0.69875 0.242227 L 0.702695 0.246172 L 0.706602 0.246172 L 0.710547 0.242227 L 0.714492 0.242227 L 0.718398 0.246172 L 0.722344 0.246172 L 0.726289 0.250117 L 0.738086 0.250117 L 0.742031 0.254023 L 0.749883 0.254023 L 0.753828 0.257969 L 0.757773 0.254023 L 0.765625 0.254023 L 0.76957 0.257969 L 0.773516 0.257969 L 0.777461 0.261914 L 0.781367 0.265859 L 0.793203 0.265859 L 0.805 0.277656 L 0.820742 0.277656 L 0.828594 0.285508 L 0.832539 0.285508 L 0.84043 0.293398 L 0.852227 0.293398 L 0.856172 0.297305 L 0.860078 0.30125 L 0.860078 0.305195 L 0.864023 0.309141 L 0.867969 0.313047 L 0.87582 0.313047 L 0.899453 0.33668 L 0.903398 0.33668 L 0.907305 0.340625 L 0.91125 0.344531 L 0.91125 0.348477 L 0.915195 0.352422 L 0.919141 0.352422 L 0.923047 0.356367 L 0.923047 0.360273 L 0.926992 0.364219 L 0.926992 0.372109 L 0.930937 0.376016 L 0.934883 0.379961 L 0.934883 0.391758 L 0.938789 0.395703 L 0.938789 0.403594 L 0.942734 0.4075 L 0.94668 0.4075 L 0.94668 0.419336 L 0.950625 0.423242 L 0.94668 0.427188 L 0.94668 0.431133 L 0.950625 0.435078 L 0.954531 0.435078 L 0.954531 0.466563 L 0.950625 0.470469 L 0.950625 0.478359 L 0.94668 0.482305 L 0.942734 0.486211 L 0.942734 0.490156 L 0.938789 0.494102 L 0.934883 0.498047 L 0.926992 0.498047 L 0.923047 0.501953 L 0.919141 0.505898 L 0.919141 0.521641 L 0.915195 0.521641 L 0.91125 0.517695 L 0.903398 0.517695 L 0.899453 0.513789 L 0.895508 0.509844 L 0.891563 0.509844 L 0.887656 0.505898 L 0.879766 0.505898 L 0.871914 0.498047 L 0.867969 0.498047 L 0.864023 0.501953 L 0.864023 0.505898 L 0.860078 0.509844 L 0.860078 0.521641 L 0.856172 0.525586 L 0.856172 0.537383 L 0.852227 0.541328 L 0.852227 0.54918 L 0.848281 0.553125 L 0.848281 0.55707 L 0.836484 0.568867 L 0.836484 0.572813 L 0.832539 0.576758 L 0.828594 0.580664 L 0.828594 0.584609 L 0.824688 0.588555 L 0.820742 0.5925 L 0.816797 0.5925 L 0.812852 0.596406 L 0.812852 0.604297 L 0.808945 0.608242 L 0.805 0.608242 L 0.801055 0.612148 L 0.797109 0.616094 L 0.793203 0.620039 L 0.789258 0.623984 L 0.785312 0.627891 L 0.781367 0.627891 L 0.777461 0.631836 L 0.76957 0.639727 L 0.765625 0.643633 L 0.761719 0.647578 L 0.757773 0.651523 L 0.757773 0.655469 L 0.749883 0.655469 L 0.745977 0.651523 L 0.742031 0.655469 L 0.742031 0.659375 L 0.738086 0.659375 L 0.734141 0.66332 L 0.726289 0.66332 L 0.722344 0.667266 L 0.718398 0.667266 L 0.714492 0.671211 L 0.710547 0.671211 L 0.706602 0.675117 L 0.702695 0.679062 L 0.694805 0.679062 L 0.690859 0.683008 L 0.686953 0.686953 L 0.686953 0.690859 L 0.683008 0.690859 L 0.679062 0.694805 L 0.671211 0.694805 L 0.667266 0.69875 L 0.66332 0.69875 L 0.659375 0.702695 L 0.655469 0.702695 L 0.651523 0.706602 L 0.639727 0.718398 L 0.635781 0.718398 L 0.631836 0.722344 L 0.627891 0.722344 L 0.623984 0.726289 L 0.623984 0.730234 L 0.620039 0.730234 L 0.616094 0.734141 L 0.612148 0.734141 L 0.608242 0.730234 L 0.604297 0.734141 L 0.596406 0.742031 L 0.5925 0.745977 L 0.588555 0.745977 L 0.584609 0.749883 L 0.572813 0.749883 L 0.568867 0.753828 L 0.564922 0.753828 L 0.561016 0.757773 L 0.55707 0.757773 L 0.553125 0.761719 L 0.541328 0.761719 L 0.537383 0.765625 L 0.533437 0.765625 L 0.529531 0.76957 L 0.517695 0.76957 L 0.513789 0.765625 L 0.509844 0.765625 L 0.501953 0.773516 L 0.498047 0.76957 L 0.494102 0.76957 L 0.490156 0.773516 L 0.458672 0.773516 L 0.454727 0.777461 L 0.446875 0.777461 L 0.44293 0.773516 L 0.431133 0.773516 L 0.427188 0.777461 L 0.415391 0.777461 L 0.411445 0.773516 L 0.4075 0.777461 L 0.379961 0.777461 L 0.376016 0.773516 L 0.372109 0.76957 L 0.344531 0.76957 L 0.344531 0.765625 L 0.340625 0.761719 L 0.324883 0.761719 L 0.320938 0.757773 L 0.305195 0.757773 L 0.305195 0.745977 L 0.30125 0.742031 L 0.297305 0.742031 L 0.293398 0.745977 L 0.293398 0.742031 L 0.289453 0.738086 L 0.285508 0.738086 L 0.281602 0.742031 L 0.277656 0.742031 L 0.273711 0.738086 L 0.265859 0.738086 L 0.265859 0.726289 L 0.261914 0.722344 L 0.254023 0.722344 L 0.250117 0.718398 L 0.238281 0.718398 L 0.234375 0.714492 L 0.23043 0.714492 L 0.226484 0.710547 L 0.226484 0.706602 L 0.23043 0.702695 L 0.222539 0.694805 L 0.214688 0.694805 L 0.210742 0.690859 L 0.206797 0.686953 L 0.198945 0.686953 L 0.195 0.683008 L 0.195 0.679062 L 0.198945 0.675117 L 0.195 0.671211 L 0.191055 0.667266 L 0.187148 0.66332 L 0.175313 0.66332 L 0.171406 0.659375 L 0.167461 0.655469 L 0.171406 0.651523 L 0.171406 0.643633 L 0.167461 0.639727 L 0.163516 0.635781 L 0.15957 0.635781 L 0.155664 0.631836 L 0.155664 0.623984 L 0.15957 0.620039 L 0.15957 0.616094 L 0.155664 0.612148 L 0.151719 0.612148 L 0.151719 0.608242 L 0.147773 0.604297 L 0.143828 0.604297 L 0.139922 0.600352 L 0.135977 0.596406 L 0.135977 0.5925 L 0.128086 0.584609 L 0.12418 0.580664 L 0.120234 0.576758 L 0.116289 0.580664 L 0.116289 0.576758 L 0.112344 0.572813 L 0.108437 0.576758 L 0.0651172 0.576758 L 0.0612109 0.580664 L 0.0572656 0.580664 L 0.049375 0.588555 L 0.0454688 0.584609 Z M 0.0454688 0.580664 " transform="matrix(100,0,0,100,450,350)"/>
<path style="fill:none;stroke-width:0.01;stroke-linecap:butt;stroke-linejoin:miter;stroke:rgb(0%,0%,0%);stroke-opacity:1;stroke-miterlimit:10;" d="M 0.0454688 0.51668 L 0.0496094 0.520859 L 0.0537891 0.525039 L 0.0662891 0.525039 L 0.0704687 0.520859 L 0.0788281 0.520859 L 0.0829688 0.51668 L 0.0871484 0.520859 L 0.0996484 0.520859 L 0.108008 0.5125 L 0.112188 0.508359 L 0.116328 0.508359 L 0.120508 0.50418 L 0.120508 0.49582 L 0.128867 0.49582 L 0.137188 0.4875 L 0.141367 0.4875 L 0.145547 0.48332 L 0.145547 0.47082 L 0.149727 0.466641 L 0.149727 0.462461 L 0.153867 0.458281 L 0.153867 0.454141 L 0.158047 0.454141 L 0.166406 0.445781 L 0.170547 0.445781 L 0.174727 0.441602 L 0.174727 0.437461 L 0.170547 0.433281 L 0.170547 0.429102 L 0.174727 0.424922 L 0.178906 0.420781 L 0.183086 0.420781 L 0.187227 0.416602 L 0.191406 0.416602 L 0.195586 0.412422 L 0.191406 0.408242 L 0.191406 0.404102 L 0.195586 0.404102 L 0.199766 0.399922 L 0.203906 0.395742 L 0.208086 0.391563 L 0.212266 0.387422 L 0.212266 0.370742 L 0.216445 0.366563 L 0.220586 0.366563 L 0.224766 0.362383 L 0.228945 0.362383 L 0.237266 0.354062 L 0.237266 0.341523 L 0.233125 0.337383 L 0.237266 0.333203 L 0.249805 0.333203 L 0.253945 0.329023 L 0.253945 0.320703 L 0.258125 0.316523 L 0.262305 0.316523 L 0.266484 0.312344 L 0.274805 0.312344 L 0.278984 0.308164 L 0.291484 0.308164 L 0.295664 0.303984 L 0.295664 0.295664 L 0.299844 0.291484 L 0.303984 0.287305 L 0.316523 0.287305 L 0.320703 0.283164 L 0.324844 0.283164 L 0.329023 0.278984 L 0.329023 0.266484 L 0.337383 0.266484 L 0.341523 0.262305 L 0.358203 0.262305 L 0.362383 0.258125 L 0.370742 0.258125 L 0.374883 0.253945 L 0.379062 0.249805 L 0.383242 0.249805 L 0.387422 0.245625 L 0.395742 0.245625 L 0.399922 0.249805 L 0.404102 0.245625 L 0.420781 0.245625 L 0.424922 0.241445 L 0.424922 0.233125 L 0.429102 0.233125 L 0.433281 0.237266 L 0.437461 0.237266 L 0.445781 0.228945 L 0.449961 0.233125 L 0.458281 0.233125 L 0.462461 0.228945 L 0.48332 0.228945 L 0.4875 0.224766 L 0.491641 0.228945 L 0.49582 0.228945 L 0.5 0.224766 L 0.525039 0.224766 L 0.52918 0.228945 L 0.533359 0.228945 L 0.537539 0.224766 L 0.537539 0.220586 L 0.550039 0.220586 L 0.554219 0.224766 L 0.562539 0.224766 L 0.566719 0.228945 L 0.575078 0.228945 L 0.579219 0.224766 L 0.587578 0.224766 L 0.591758 0.228945 L 0.595898 0.228945 L 0.600078 0.233125 L 0.620938 0.233125 L 0.625117 0.237266 L 0.637617 0.237266 L 0.641797 0.241445 L 0.645938 0.245625 L 0.654297 0.245625 L 0.658477 0.241445 L 0.662617 0.241445 L 0.666797 0.245625 L 0.670977 0.245625 L 0.675156 0.249805 L 0.679297 0.249805 L 0.683477 0.245625 L 0.687656 0.249805 L 0.696016 0.249805 L 0.704336 0.258125 L 0.712695 0.258125 L 0.716836 0.262305 L 0.725195 0.262305 L 0.733516 0.270625 L 0.737695 0.270625 L 0.741875 0.266484 L 0.746055 0.270625 L 0.750195 0.274805 L 0.758555 0.274805 L 0.762734 0.278984 L 0.766875 0.283164 L 0.771055 0.287305 L 0.779414 0.287305 L 0.779414 0.291484 L 0.783555 0.295664 L 0.791914 0.295664 L 0.796094 0.299844 L 0.800234 0.299844 L 0.804414 0.303984 L 0.808594 0.308164 L 0.812773 0.308164 L 0.816914 0.312344 L 0.825273 0.312344 L 0.829453 0.316523 L 0.833594 0.320703 L 0.846133 0.320703 L 0.850273 0.324844 L 0.854453 0.324844 L 0.854453 0.329023 L 0.862813 0.337383 L 0.866953 0.337383 L 0.871133 0.341523 L 0.875312 0.345703 L 0.879492 0.345703 L 0.879492 0.349883 L 0.887812 0.358203 L 0.891992 0.358203 L 0.900352 0.366563 L 0.904492 0.370742 L 0.904492 0.379063 L 0.908672 0.383242 L 0.917031 0.383242 L 0.917031 0.387422 L 0.921172 0.391563 L 0.921172 0.404102 L 0.925352 0.408242 L 0.925352 0.412422 L 0.933711 0.420781 L 0.933711 0.433281 L 0.937852 0.437461 L 0.937852 0.441602 L 0.942031 0.445781 L 0.942031 0.458281 L 0.946211 0.462461 L 0.946211 0.466641 L 0.950391 0.47082 L 0.950391 0.479141 L 0.954531 0.48332 L 0.954531 0.50418 L 0.950391 0.508359 L 0.950391 0.520859 L 0.946211 0.525039 L 0.942031 0.52918 L 0.937852 0.533359 L 0.933711 0.533359 L 0.929531 0.537539 L 0.925352 0.537539 L 0.921172 0.541719 L 0.917031 0.541719 L 0.912852 0.545859 L 0.908672 0.550039 L 0.908672 0.570898 L 0.900352 0.570898 L 0.891992 0.562539 L 0.887812 0.558398 L 0.883672 0.558398 L 0.879492 0.554219 L 0.875312 0.554219 L 0.871133 0.558398 L 0.871133 0.562539 L 0.866953 0.566719 L 0.866953 0.570898 L 0.862813 0.575078 L 0.858633 0.579219 L 0.858633 0.583398 L 0.854453 0.587578 L 0.854453 0.591758 L 0.850273 0.595898 L 0.846133 0.600078 L 0.841953 0.604258 L 0.841953 0.608437 L 0.837773 0.612578 L 0.837773 0.616758 L 0.833594 0.620938 L 0.829453 0.625117 L 0.829453 0.629258 L 0.825273 0.629258 L 0.821094 0.633438 L 0.816914 0.633438 L 0.812773 0.637617 L 0.804414 0.637617 L 0.800234 0.641797 L 0.800234 0.650117 L 0.796094 0.650117 L 0.787734 0.658477 L 0.783555 0.662617 L 0.779414 0.666797 L 0.775234 0.670977 L 0.771055 0.670977 L 0.762734 0.679297 L 0.758555 0.679297 L 0.758555 0.675156 L 0.754375 0.670977 L 0.750195 0.675156 L 0.750195 0.679297 L 0.746055 0.683477 L 0.741875 0.687656 L 0.741875 0.691836 L 0.737695 0.696016 L 0.733516 0.700156 L 0.729375 0.696016 L 0.725195 0.700156 L 0.721016 0.704336 L 0.721016 0.708516 L 0.716836 0.708516 L 0.712695 0.712695 L 0.708516 0.716836 L 0.704336 0.716836 L 0.700156 0.712695 L 0.687656 0.725195 L 0.679297 0.725195 L 0.675156 0.729375 L 0.670977 0.733516 L 0.662617 0.733516 L 0.658477 0.737695 L 0.645938 0.737695 L 0.641797 0.741875 L 0.637617 0.741875 L 0.633438 0.746055 L 0.629258 0.746055 L 0.616758 0.758555 L 0.612578 0.758555 L 0.608437 0.762734 L 0.604258 0.762734 L 0.600078 0.758555 L 0.595898 0.762734 L 0.595898 0.766875 L 0.566719 0.766875 L 0.562539 0.771055 L 0.554219 0.771055 L 0.550039 0.775234 L 0.545859 0.775234 L 0.541719 0.779414 L 0.533359 0.779414 L 0.52918 0.775234 L 0.52918 0.771055 L 0.525039 0.766875 L 0.520859 0.771055 L 0.51668 0.771055 L 0.5125 0.775234 L 0.50418 0.775234 L 0.5 0.779414 L 0.48332 0.779414 L 0.479141 0.775234 L 0.474961 0.775234 L 0.47082 0.779414 L 0.445781 0.779414 L 0.441602 0.775234 L 0.441602 0.771055 L 0.437461 0.766875 L 0.433281 0.766875 L 0.424922 0.775234 L 0.416602 0.775234 L 0.412422 0.771055 L 0.408242 0.771055 L 0.408242 0.766875 L 0.404102 0.762734 L 0.399922 0.762734 L 0.395742 0.766875 L 0.391563 0.762734 L 0.387422 0.766875 L 0.383242 0.762734 L 0.379062 0.762734 L 0.374883 0.758555 L 0.370742 0.762734 L 0.358203 0.762734 L 0.354063 0.758555 L 0.341523 0.758555 L 0.341523 0.754375 L 0.337383 0.750195 L 0.337383 0.746055 L 0.333203 0.741875 L 0.320703 0.741875 L 0.316523 0.737695 L 0.308164 0.737695 L 0.299844 0.729375 L 0.303984 0.725195 L 0.299844 0.721016 L 0.295664 0.716836 L 0.291484 0.716836 L 0.287305 0.712695 L 0.278984 0.712695 L 0.274805 0.708516 L 0.270625 0.708516 L 0.266484 0.704336 L 0.270625 0.700156 L 0.274805 0.696016 L 0.274805 0.691836 L 0.270625 0.687656 L 0.253945 0.687656 L 0.249805 0.683477 L 0.241445 0.683477 L 0.233125 0.675156 L 0.228945 0.675156 L 0.228945 0.662617 L 0.224766 0.658477 L 0.220586 0.658477 L 0.216445 0.654297 L 0.212266 0.650117 L 0.208086 0.650117 L 0.199766 0.641797 L 0.199766 0.637617 L 0.191406 0.629258 L 0.187227 0.625117 L 0.195586 0.616758 L 0.191406 0.612578 L 0.183086 0.612578 L 0.178906 0.608437 L 0.170547 0.600078 L 0.166406 0.600078 L 0.162227 0.595898 L 0.162227 0.591758 L 0.153867 0.583398 L 0.149727 0.579219 L 0.145547 0.579219 L 0.141367 0.575078 L 0.137188 0.570898 L 0.128867 0.570898 L 0.128867 0.566719 L 0.124688 0.562539 L 0.120508 0.562539 L 0.116328 0.558398 L 0.103828 0.558398 L 0.0996484 0.554219 L 0.0955078 0.550039 L 0.0829688 0.550039 L 0.0788281 0.545859 L 0.0746484 0.545859 L 0.0704687 0.541719 L 0.0662891 0.541719 L 0.0621484 0.537539 L 0.0579688 0.537539 L 0.0454688 0.525039 L 0.0454688 0.520859 Z M 0.0454688 0.51668 " transform="matrix(100,0,0,100,600,350)"/>
</g>
</svg>
