<?xml version="1.0" encoding="UTF-8"?>
<svg xmlns="http://www.w3.org/2000/svg" xmlns:xlink="http://www.w3.org/1999/xlink" width="750pt" height="2800pt" viewBox="0 0 750 2800" version="1.1">
<g id="surface1">
<path style="fill:none;stroke-width:0.01;stroke-linecap:butt;stroke-linejoin:miter;stroke:rgb(0%,0%,0%);stroke-opacity:1;stroke-miterlimit:10;" d="M 0.0454688 0.5125 L 0.0496094 0.5125 L 0.0537891 0.508359 L 0.0579687 0.508359 L 0.0621484 0.50418 L 0.0621484 0.49582 L 0.0704687 0.49582 L 0.0746484 0.491641 L 0.0788281 0.4875 L 0.0829688 0.4875 L 0.0913281 0.479141 L 0.0913281 0.466641 L 0.0955078 0.466641 L 0.0996484 0.462461 L 0.103828 0.458281 L 0.108008 0.454141 L 0.112187 0.449961 L 0.116328 0.449961 L 0.120508 0.445781 L 0.120508 0.429102 L 0.124688 0.424922 L 0.128867 0.424922 L 0.133047 0.420781 L 0.137187 0.420781 L 0.145547 0.412422 L 0.145547 0.404102 L 0.149727 0.404102 L 0.153867 0.399922 L 0.162227 0.391563 L 0.162227 0.379062 L 0.166406 0.374883 L 0.170547 0.374883 L 0.174727 0.370742 L 0.178906 0.370742 L 0.183086 0.366563 L 0.187227 0.362383 L 0.187227 0.358203 L 0.191406 0.354062 L 0.203906 0.354062 L 0.208086 0.349883 L 0.208086 0.345703 L 0.212266 0.341523 L 0.216445 0.341523 L 0.228945 0.329023 L 0.228945 0.316523 L 0.233125 0.312344 L 0.241445 0.312344 L 0.245625 0.308164 L 0.249805 0.308164 L 0.253945 0.303984 L 0.258125 0.303984 L 0.262305 0.299844 L 0.278984 0.299844 L 0.283164 0.295664 L 0.283164 0.291484 L 0.312344 0.291484 L 0.316523 0.295664 L 0.320703 0.295664 L 0.324844 0.291484 L 0.324844 0.283164 L 0.333203 0.283164 L 0.337383 0.287305 L 0.341523 0.283164 L 0.349883 0.283164 L 0.354063 0.278984 L 0.354063 0.274805 L 0.366563 0.274805 L 0.370742 0.278984 L 0.383242 0.278984 L 0.387422 0.274805 L 0.399922 0.274805 L 0.404102 0.278984 L 0.408242 0.278984 L 0.412422 0.274805 L 0.420781 0.274805 L 0.424922 0.278984 L 0.429102 0.278984 L 0.433281 0.283164 L 0.437461 0.283164 L 0.441602 0.287305 L 0.458281 0.287305 L 0.462461 0.291484 L 0.466641 0.291484 L 0.47082 0.295664 L 0.474961 0.295664 L 0.479141 0.299844 L 0.48332 0.303984 L 0.4875 0.303984 L 0.491641 0.308164 L 0.5 0.308164 L 0.508359 0.316523 L 0.5125 0.320703 L 0.51668 0.324844 L 0.520859 0.329023 L 0.525039 0.329023 L 0.52918 0.333203 L 0.533359 0.333203 L 0.537539 0.337383 L 0.541719 0.337383 L 0.545859 0.341523 L 0.550039 0.341523 L 0.558398 0.349883 L 0.562539 0.354062 L 0.566719 0.354062 L 0.570898 0.358203 L 0.575078 0.362383 L 0.575078 0.366563 L 0.579219 0.370742 L 0.583398 0.374883 L 0.587578 0.374883 L 0.591758 0.379062 L 0.595898 0.383242 L 0.600078 0.387422 L 0.604258 0.391563 L 0.608437 0.395742 L 0.612578 0.399922 L 0.616758 0.399922 L 0.620938 0.404102 L 0.625117 0.408242 L 0.629258 0.412422 L 0.633437 0.412422 L 0.641797 0.420781 L 0.654297 0.420781 L 0.654297 0.424922 L 0.658477 0.429102 L 0.662617 0.433281 L 0.666797 0.437461 L 0.670977 0.437461 L 0.670977 0.445781 L 0.675156 0.449961 L 0.679297 0.454141 L 0.683477 0.449961 L 0.687656 0.454141 L 0.691836 0.458281 L 0.696016 0.462461 L 0.700156 0.466641 L 0.704336 0.47082 L 0.708516 0.47082 L 0.712695 0.474961 L 0.758555 0.474961 L 0.762734 0.47082 L 0.783555 0.47082 L 0.787734 0.466641 L 0.833594 0.466641 L 0.837773 0.462461 L 0.879492 0.462461 L 0.883672 0.466641 L 0.912852 0.466641 L 0.917031 0.47082 L 0.921172 0.47082 L 0.925352 0.474961 L 0.929531 0.474961 L 0.933711 0.479141 L 0.937852 0.48332 L 0.942031 0.48332 L 0.946211 0.4875 L 0.950391 0.491641 L 0.954531 0.49582 L 0.954531 0.50418 L 0.937852 0.50418 L 0.933711 0.5 L 0.925352 0.491641 L 0.921172 0.4875 L 0.917031 0.4875 L 0.912852 0.48332 L 0.908672 0.48332 L 0.904492 0.479141 L 0.891992 0.479141 L 0.887813 0.474961 L 0.816914 0.474961 L 0.812773 0.479141 L 0.791914 0.479141 L 0.787734 0.48332 L 0.729375 0.48332 L 0.725195 0.4875 L 0.708516 0.4875 L 0.704336 0.491641 L 0.700156 0.491641 L 0.696016 0.49582 L 0.683477 0.508359 L 0.679297 0.5125 L 0.675156 0.51668 L 0.666797 0.525039 L 0.662617 0.52918 L 0.658477 0.52918 L 0.616758 0.570898 L 0.612578 0.570898 L 0.608437 0.575078 L 0.604258 0.579219 L 0.595898 0.587578 L 0.591758 0.591758 L 0.587578 0.595898 L 0.579219 0.604258 L 0.575078 0.608437 L 0.570898 0.612578 L 0.562539 0.620938 L 0.558398 0.625117 L 0.558398 0.629258 L 0.554219 0.633437 L 0.554219 0.637617 L 0.550039 0.641797 L 0.545859 0.645938 L 0.541719 0.650117 L 0.533359 0.658477 L 0.52918 0.658477 L 0.51668 0.670977 L 0.50418 0.670977 L 0.5 0.675156 L 0.49582 0.675156 L 0.491641 0.679297 L 0.4875 0.683477 L 0.48332 0.687656 L 0.479141 0.687656 L 0.474961 0.691836 L 0.47082 0.691836 L 0.466641 0.696016 L 0.462461 0.696016 L 0.458281 0.700156 L 0.454141 0.704336 L 0.449961 0.704336 L 0.445781 0.700156 L 0.441602 0.700156 L 0.437461 0.704336 L 0.433281 0.704336 L 0.429102 0.708516 L 0.424922 0.708516 L 0.420781 0.712695 L 0.416602 0.712695 L 0.412422 0.716836 L 0.408242 0.721016 L 0.395742 0.721016 L 0.391563 0.716836 L 0.387422 0.716836 L 0.383242 0.721016 L 0.370742 0.721016 L 0.366563 0.725195 L 0.362383 0.725195 L 0.358203 0.721016 L 0.354063 0.716836 L 0.341523 0.716836 L 0.337383 0.712695 L 0.324844 0.712695 L 0.324844 0.704336 L 0.320703 0.700156 L 0.316523 0.696016 L 0.303984 0.696016 L 0.303984 0.691836 L 0.299844 0.687656 L 0.287305 0.687656 L 0.283164 0.691836 L 0.274805 0.683477 L 0.270625 0.683477 L 0.266484 0.679297 L 0.258125 0.679297 L 0.253945 0.675156 L 0.249805 0.670977 L 0.249805 0.666797 L 0.245625 0.662617 L 0.241445 0.658477 L 0.233125 0.658477 L 0.228945 0.654297 L 0.224766 0.654297 L 0.220586 0.650117 L 0.220586 0.645938 L 0.216445 0.641797 L 0.212266 0.641797 L 0.203906 0.633437 L 0.199766 0.629258 L 0.195586 0.629258 L 0.191406 0.625117 L 0.191406 0.604258 L 0.187227 0.600078 L 0.183086 0.595898 L 0.170547 0.595898 L 0.158047 0.583398 L 0.149727 0.583398 L 0.145547 0.579219 L 0.141367 0.579219 L 0.141367 0.566719 L 0.137187 0.562539 L 0.128867 0.562539 L 0.124688 0.558398 L 0.120508 0.558398 L 0.116328 0.554219 L 0.112187 0.554219 L 0.108008 0.550039 L 0.108008 0.541719 L 0.103828 0.537539 L 0.0955078 0.537539 L 0.0913281 0.533359 L 0.0829688 0.533359 L 0.0788281 0.52918 L 0.0746484 0.52918 L 0.0704687 0.525039 L 0.0537891 0.525039 L 0.0496094 0.520859 L 0.0454688 0.520859 L 0.0454688 0.51668 Z M 0.0454688 0.5125 " transform="matrix(100,0,0,100,0,200)"/>
<path style="fill:none;stroke-width:0.01;stroke-linecap:butt;stroke-linejoin:miter;stroke:rgb(0%,0%,0%);stroke-opacity:1;stroke-miterlimit:10;" d="M 0.0454687 0.364453 L 0.0496094 0.360313 L 0.0788281 0.360313 L 0.0829688 0.356133 L 0.124688 0.356133 L 0.128867 0.351953 L 0.128867 0.343633 L 0.133047 0.339453 L 0.137188 0.335273 L 0.158047 0.335273 L 0.162227 0.331094 L 0.166406 0.331094 L 0.170547 0.326953 L 0.178906 0.326953 L 0.183086 0.331094 L 0.191406 0.331094 L 0.195586 0.326953 L 0.199766 0.322773 L 0.203906 0.318594 L 0.208086 0.314414 L 0.228945 0.314414 L 0.233125 0.310273 L 0.241445 0.310273 L 0.245625 0.306094 L 0.283164 0.306094 L 0.287305 0.301914 L 0.287305 0.297734 L 0.291484 0.293594 L 0.295664 0.289414 L 0.303984 0.289414 L 0.308164 0.293594 L 0.324844 0.293594 L 0.329023 0.289414 L 0.337383 0.289414 L 0.341523 0.293594 L 0.358203 0.293594 L 0.362383 0.289414 L 0.370742 0.289414 L 0.374883 0.293594 L 0.383242 0.293594 L 0.387422 0.297734 L 0.391563 0.301914 L 0.395742 0.301914 L 0.399922 0.297734 L 0.404102 0.293594 L 0.412422 0.293594 L 0.416602 0.297734 L 0.420781 0.301914 L 0.429102 0.301914 L 0.433281 0.306094 L 0.441602 0.306094 L 0.445781 0.310273 L 0.449961 0.314414 L 0.454141 0.314414 L 0.458281 0.318594 L 0.462461 0.318594 L 0.466641 0.314414 L 0.47082 0.318594 L 0.474961 0.322773 L 0.479141 0.322773 L 0.479141 0.326953 L 0.48332 0.331094 L 0.4875 0.335273 L 0.491641 0.339453 L 0.49582 0.343633 L 0.5 0.347773 L 0.50418 0.347773 L 0.508359 0.351953 L 0.5125 0.351953 L 0.520859 0.360313 L 0.525039 0.364453 L 0.52918 0.368633 L 0.537539 0.376992 L 0.537539 0.381133 L 0.541719 0.385312 L 0.554219 0.385312 L 0.554219 0.397813 L 0.558398 0.401992 L 0.558398 0.406172 L 0.562539 0.410352 L 0.562539 0.414531 L 0.566719 0.418672 L 0.570898 0.422852 L 0.570898 0.427031 L 0.575078 0.431211 L 0.575078 0.443711 L 0.566719 0.443711 L 0.558398 0.452031 L 0.558398 0.456211 L 0.554219 0.460391 L 0.554219 0.46457 L 0.558398 0.468711 L 0.562539 0.472891 L 0.587578 0.472891 L 0.591758 0.47707 L 0.595898 0.48125 L 0.595898 0.485391 L 0.600078 0.48957 L 0.600078 0.49375 L 0.604258 0.49793 L 0.604258 0.50207 L 0.608437 0.50625 L 0.608437 0.514609 L 0.612578 0.51875 L 0.616758 0.51875 L 0.620938 0.52293 L 0.620938 0.531289 L 0.616758 0.53543 L 0.612578 0.53543 L 0.608437 0.539609 L 0.604258 0.543789 L 0.604258 0.560469 L 0.608437 0.564648 L 0.633437 0.564648 L 0.633437 0.581328 L 0.637617 0.585469 L 0.641797 0.589648 L 0.641797 0.593828 L 0.645938 0.598008 L 0.650117 0.602187 L 0.650117 0.606328 L 0.658477 0.614688 L 0.670977 0.614688 L 0.675156 0.618867 L 0.683477 0.618867 L 0.687656 0.623008 L 0.704336 0.623008 L 0.712695 0.631367 L 0.733516 0.631367 L 0.737695 0.635547 L 0.758555 0.635547 L 0.762734 0.639687 L 0.783555 0.639687 L 0.787734 0.643867 L 0.808594 0.643867 L 0.812773 0.648047 L 0.841953 0.648047 L 0.850273 0.656367 L 0.891992 0.656367 L 0.896172 0.660547 L 0.925352 0.660547 L 0.929531 0.664727 L 0.942031 0.664727 L 0.946211 0.668906 L 0.950391 0.673047 L 0.950391 0.677227 L 0.954531 0.681406 L 0.950391 0.685586 L 0.946211 0.689727 L 0.937852 0.689727 L 0.933711 0.685586 L 0.929531 0.685586 L 0.921172 0.677227 L 0.896172 0.677227 L 0.891992 0.673047 L 0.887812 0.668906 L 0.846133 0.668906 L 0.841953 0.664727 L 0.821094 0.664727 L 0.816914 0.660547 L 0.796094 0.660547 L 0.791914 0.656367 L 0.766875 0.656367 L 0.762734 0.652227 L 0.746055 0.652227 L 0.746055 0.648047 L 0.741875 0.643867 L 0.725195 0.643867 L 0.721016 0.639687 L 0.704336 0.639687 L 0.700156 0.635547 L 0.683477 0.635547 L 0.679297 0.631367 L 0.666797 0.631367 L 0.662617 0.627188 L 0.641797 0.627188 L 0.637617 0.631367 L 0.629258 0.631367 L 0.625117 0.635547 L 0.620938 0.639687 L 0.612578 0.639687 L 0.608437 0.643867 L 0.600078 0.643867 L 0.595898 0.648047 L 0.591758 0.652227 L 0.583398 0.652227 L 0.579219 0.656367 L 0.566719 0.656367 L 0.562539 0.660547 L 0.541719 0.660547 L 0.537539 0.664727 L 0.52918 0.664727 L 0.525039 0.668906 L 0.4875 0.668906 L 0.48332 0.673047 L 0.479141 0.677227 L 0.474961 0.677227 L 0.47082 0.681406 L 0.466641 0.681406 L 0.462461 0.685586 L 0.449961 0.685586 L 0.445781 0.689727 L 0.441602 0.693906 L 0.433281 0.693906 L 0.424922 0.702266 L 0.420781 0.702266 L 0.416602 0.706406 L 0.412422 0.706406 L 0.408242 0.710586 L 0.354062 0.710586 L 0.349883 0.706406 L 0.324844 0.706406 L 0.316523 0.698086 L 0.312344 0.698086 L 0.308164 0.702266 L 0.303984 0.702266 L 0.299844 0.698086 L 0.295664 0.693906 L 0.266484 0.693906 L 0.262305 0.689727 L 0.253945 0.689727 L 0.249805 0.685586 L 0.237266 0.685586 L 0.233125 0.681406 L 0.233125 0.664727 L 0.224766 0.656367 L 0.216445 0.656367 L 0.212266 0.652227 L 0.212266 0.648047 L 0.208086 0.643867 L 0.208086 0.639687 L 0.203906 0.635547 L 0.195586 0.635547 L 0.187227 0.627188 L 0.187227 0.618867 L 0.183086 0.614688 L 0.174727 0.606328 L 0.170547 0.602187 L 0.166406 0.598008 L 0.162227 0.593828 L 0.162227 0.589648 L 0.158047 0.585469 L 0.153867 0.581328 L 0.153867 0.577148 L 0.149727 0.572969 L 0.145547 0.568789 L 0.141367 0.568789 L 0.137188 0.564648 L 0.137188 0.560469 L 0.133047 0.556289 L 0.128867 0.552109 L 0.124688 0.547969 L 0.116328 0.539609 L 0.112188 0.53543 L 0.112188 0.527109 L 0.103828 0.51875 L 0.103828 0.50207 L 0.0996484 0.49793 L 0.0996484 0.48957 L 0.0955078 0.485391 L 0.0955078 0.472891 L 0.0913281 0.468711 L 0.0913281 0.46457 L 0.0871484 0.460391 L 0.0871484 0.456211 L 0.0913281 0.452031 L 0.0913281 0.439531 L 0.0871484 0.435352 L 0.0829688 0.431211 L 0.0788281 0.427031 L 0.0704688 0.418672 L 0.0704688 0.401992 L 0.0454687 0.376992 L 0.0454687 0.368633 Z M 0.0454687 0.364453 " transform="matrix(100,0,0,100,150,200)"/>
<path style="fill:none;stroke-width:0.01;stroke-linecap:butt;stroke-linejoin:miter;stroke:rgb(0%,0%,0%);stroke-opacity:1;stroke-miterlimit:10;" d="M 0.0454687 0.438984 L 0.0496484 0.438984 L 0.0580859 0.430547 L 0.0580859 0.426328 L 0.0623047 0.426328 L 0.0749219 0.413711 L 0.0791406 0.409531 L 0.0917578 0.409531 L 0.0959766 0.405312 L 0.108594 0.405312 L 0.112812 0.401094 L 0.116992 0.396875 L 0.116992 0.392695 L 0.121211 0.388477 L 0.121211 0.384258 L 0.12543 0.380039 L 0.133828 0.380039 L 0.138047 0.375859 L 0.142266 0.371641 L 0.146445 0.367422 L 0.146445 0.359023 L 0.154883 0.359023 L 0.159102 0.354805 L 0.1675 0.354805 L 0.171719 0.350586 L 0.171719 0.342188 L 0.175937 0.337969 L 0.175937 0.329531 L 0.196953 0.329531 L 0.201172 0.325352 L 0.205391 0.321133 L 0.209609 0.321133 L 0.213789 0.316914 L 0.218008 0.312695 L 0.226445 0.312695 L 0.230625 0.308516 L 0.230625 0.304297 L 0.234844 0.300078 L 0.239063 0.304297 L 0.243281 0.304297 L 0.247461 0.300078 L 0.25168 0.304297 L 0.255898 0.304297 L 0.260117 0.300078 L 0.264297 0.295859 L 0.268516 0.29168 L 0.276953 0.283242 L 0.297969 0.283242 L 0.302188 0.279023 L 0.306406 0.283242 L 0.310625 0.279023 L 0.331641 0.279023 L 0.335859 0.283242 L 0.352695 0.283242 L 0.356914 0.279023 L 0.361094 0.279023 L 0.365312 0.283242 L 0.37375 0.283242 L 0.37793 0.287461 L 0.382148 0.29168 L 0.386367 0.295859 L 0.411602 0.295859 L 0.424258 0.308516 L 0.432656 0.308516 L 0.436875 0.312695 L 0.436875 0.316914 L 0.441094 0.321133 L 0.45793 0.321133 L 0.462109 0.325352 L 0.466328 0.329531 L 0.474766 0.337969 L 0.478945 0.342188 L 0.483164 0.346367 L 0.483164 0.350586 L 0.5 0.367422 L 0.5 0.371641 L 0.516836 0.388477 L 0.521055 0.388477 L 0.521055 0.392695 L 0.525234 0.396875 L 0.525234 0.405312 L 0.529453 0.409531 L 0.533672 0.413711 L 0.537891 0.413711 L 0.537891 0.422148 L 0.554727 0.438984 L 0.554727 0.443164 L 0.558906 0.447383 L 0.567344 0.45582 L 0.571563 0.46 L 0.575742 0.464219 L 0.575742 0.468437 L 0.579961 0.472656 L 0.58418 0.476836 L 0.588398 0.481055 L 0.592578 0.485273 L 0.596797 0.489492 L 0.596797 0.493672 L 0.605234 0.502109 L 0.605234 0.506328 L 0.617852 0.518945 L 0.617852 0.523164 L 0.62207 0.527344 L 0.62207 0.535781 L 0.62625 0.54 L 0.630469 0.54418 L 0.630469 0.548398 L 0.647305 0.565234 L 0.651523 0.565234 L 0.655742 0.569453 L 0.659922 0.573672 L 0.664141 0.577852 L 0.689375 0.577852 L 0.693594 0.58207 L 0.714648 0.58207 L 0.718867 0.586289 L 0.744102 0.586289 L 0.74832 0.590469 L 0.773555 0.590469 L 0.781992 0.598906 L 0.815664 0.598906 L 0.819883 0.603125 L 0.857734 0.603125 L 0.861953 0.607305 L 0.891406 0.607305 L 0.895625 0.611523 L 0.920859 0.611523 L 0.925078 0.615742 L 0.933516 0.615742 L 0.937695 0.619961 L 0.941914 0.619961 L 0.946133 0.624141 L 0.950352 0.628359 L 0.954531 0.632578 L 0.954531 0.640977 L 0.950352 0.645195 L 0.946133 0.649414 L 0.941914 0.649414 L 0.937695 0.645195 L 0.933516 0.640977 L 0.929297 0.636797 L 0.925078 0.632578 L 0.91668 0.632578 L 0.912461 0.628359 L 0.887188 0.628359 L 0.883008 0.624141 L 0.866172 0.624141 L 0.861953 0.619961 L 0.857734 0.615742 L 0.828281 0.615742 L 0.824063 0.611523 L 0.794609 0.611523 L 0.790391 0.607305 L 0.765156 0.607305 L 0.760938 0.603125 L 0.735703 0.603125 L 0.731484 0.598906 L 0.71043 0.598906 L 0.706211 0.594688 L 0.685195 0.594688 L 0.685195 0.590469 L 0.680977 0.586289 L 0.664141 0.586289 L 0.659922 0.58207 L 0.655742 0.586289 L 0.643086 0.586289 L 0.630469 0.598906 L 0.62625 0.598906 L 0.62207 0.603125 L 0.617852 0.607305 L 0.609414 0.607305 L 0.605234 0.611523 L 0.601016 0.615742 L 0.596797 0.615742 L 0.588398 0.624141 L 0.58418 0.624141 L 0.579961 0.628359 L 0.575742 0.628359 L 0.571563 0.632578 L 0.558906 0.632578 L 0.554727 0.636797 L 0.546289 0.636797 L 0.54207 0.640977 L 0.537891 0.640977 L 0.529453 0.649414 L 0.525234 0.649414 L 0.521055 0.653633 L 0.508398 0.653633 L 0.504219 0.657812 L 0.5 0.657812 L 0.495781 0.662031 L 0.487383 0.662031 L 0.483164 0.66625 L 0.474766 0.66625 L 0.470547 0.670469 L 0.462109 0.670469 L 0.453711 0.678867 L 0.449492 0.678867 L 0.445273 0.683086 L 0.441094 0.687305 L 0.436875 0.687305 L 0.432656 0.691484 L 0.428438 0.695703 L 0.424258 0.699922 L 0.424258 0.704141 L 0.41582 0.704141 L 0.411602 0.70832 L 0.398984 0.70832 L 0.394766 0.712539 L 0.390586 0.716758 L 0.382148 0.716758 L 0.37793 0.720977 L 0.361094 0.720977 L 0.356914 0.716758 L 0.344258 0.716758 L 0.340078 0.720977 L 0.310625 0.720977 L 0.306406 0.716758 L 0.306406 0.712539 L 0.302188 0.70832 L 0.281133 0.70832 L 0.276953 0.704141 L 0.268516 0.704141 L 0.264297 0.699922 L 0.260117 0.695703 L 0.255898 0.695703 L 0.25168 0.691484 L 0.247461 0.695703 L 0.239063 0.695703 L 0.234844 0.691484 L 0.230625 0.687305 L 0.230625 0.683086 L 0.226445 0.678867 L 0.218008 0.678867 L 0.209609 0.670469 L 0.205391 0.670469 L 0.205391 0.66625 L 0.196953 0.657812 L 0.192773 0.657812 L 0.192773 0.653633 L 0.180117 0.640977 L 0.175937 0.640977 L 0.171719 0.636797 L 0.171719 0.632578 L 0.1675 0.628359 L 0.1675 0.624141 L 0.163281 0.619961 L 0.159102 0.615742 L 0.154883 0.611523 L 0.150664 0.611523 L 0.146445 0.607305 L 0.146445 0.603125 L 0.142266 0.598906 L 0.138047 0.594688 L 0.133828 0.594688 L 0.129648 0.590469 L 0.12543 0.586289 L 0.116992 0.577852 L 0.116992 0.565234 L 0.112812 0.561016 L 0.108594 0.556836 L 0.100156 0.548398 L 0.100156 0.54418 L 0.0959766 0.54 L 0.0959766 0.531563 L 0.0917578 0.527344 L 0.0875391 0.523164 L 0.0833203 0.518945 L 0.0791406 0.514727 L 0.0791406 0.510508 L 0.0875391 0.502109 L 0.0875391 0.497891 L 0.0791406 0.489492 L 0.0707031 0.489492 L 0.0664844 0.485273 L 0.0664844 0.468437 L 0.0623047 0.464219 L 0.0580859 0.464219 L 0.0580859 0.46 L 0.0538672 0.45582 L 0.0496484 0.451602 L 0.0454687 0.447383 L 0.0454687 0.443164 Z M 0.0454687 0.438984 " transform="matrix(100,0,0,100,300,200)"/>
<path style="fill:none;stroke-width:0.01;stroke-linecap:butt;stroke-linejoin:miter;stroke:rgb(0%,0%,0%);stroke-opacity:1;stroke-miterlimit:10;" d="M 0.0454688 0.61625 L 0.0496094 0.61207 L 0.05375 0.60793 L 0.05375 0.599609 L 0.0578906 0.595469 L 0.0620703 0.591328 L 0.0620703 0.587188 L 0.0662109 0.583008 L 0.0703516 0.578867 L 0.0745312 0.574727 L 0.0786719 0.570586 L 0.0786719 0.558125 L 0.0828125 0.553945 L 0.0869531 0.549805 L 0.0911328 0.545664 L 0.0952734 0.541523 L 0.0994141 0.537344 L 0.0994141 0.533203 L 0.103555 0.529063 L 0.107734 0.524922 L 0.103555 0.520742 L 0.103555 0.50832 L 0.116016 0.495859 L 0.120156 0.49168 L 0.124336 0.49168 L 0.128477 0.487539 L 0.128477 0.483398 L 0.140937 0.470938 L 0.140937 0.441875 L 0.145078 0.441875 L 0.149219 0.437734 L 0.153398 0.433594 L 0.157539 0.429414 L 0.16168 0.425273 L 0.16168 0.421133 L 0.16582 0.416992 L 0.16582 0.408672 L 0.17 0.404531 L 0.178281 0.404531 L 0.182422 0.400391 L 0.182422 0.38375 L 0.186602 0.379609 L 0.194883 0.371328 L 0.199063 0.371328 L 0.203203 0.367148 L 0.203203 0.363008 L 0.207344 0.358867 L 0.207344 0.350547 L 0.223945 0.350547 L 0.228086 0.346406 L 0.228086 0.338125 L 0.236406 0.329805 L 0.240547 0.329805 L 0.244727 0.325664 L 0.248867 0.325664 L 0.253008 0.321484 L 0.257148 0.317344 L 0.257148 0.313203 L 0.261328 0.309063 L 0.265469 0.304883 L 0.28207 0.304883 L 0.286211 0.300742 L 0.290352 0.300742 L 0.294531 0.296602 L 0.294531 0.284141 L 0.298672 0.284141 L 0.302812 0.28 L 0.331875 0.28 L 0.336016 0.275859 L 0.348477 0.275859 L 0.352617 0.27168 L 0.352617 0.263398 L 0.385859 0.263398 L 0.39 0.259219 L 0.39 0.255078 L 0.402461 0.255078 L 0.406602 0.259219 L 0.423203 0.259219 L 0.427344 0.263398 L 0.443945 0.263398 L 0.448125 0.259219 L 0.456406 0.259219 L 0.460547 0.263398 L 0.468867 0.263398 L 0.473008 0.267539 L 0.477188 0.27168 L 0.481328 0.275859 L 0.485469 0.28 L 0.489609 0.28 L 0.493789 0.284141 L 0.506211 0.284141 L 0.510391 0.288281 L 0.518672 0.288281 L 0.522812 0.292461 L 0.526992 0.296602 L 0.531133 0.296602 L 0.539453 0.288281 L 0.543594 0.292461 L 0.543594 0.296602 L 0.547734 0.300742 L 0.551875 0.300742 L 0.556055 0.304883 L 0.560195 0.309063 L 0.564336 0.309063 L 0.568477 0.313203 L 0.572656 0.317344 L 0.576797 0.317344 L 0.580938 0.321484 L 0.585078 0.321484 L 0.589258 0.325664 L 0.593398 0.325664 L 0.597539 0.329805 L 0.601719 0.329805 L 0.605859 0.333945 L 0.61 0.338125 L 0.61832 0.338125 L 0.622461 0.342266 L 0.630742 0.342266 L 0.634922 0.346406 L 0.643203 0.346406 L 0.647383 0.350547 L 0.655664 0.350547 L 0.655664 0.354727 L 0.659805 0.358867 L 0.668125 0.358867 L 0.672266 0.363008 L 0.676406 0.363008 L 0.680586 0.367148 L 0.684727 0.367148 L 0.688867 0.371328 L 0.697188 0.371328 L 0.705469 0.379609 L 0.709648 0.38375 L 0.713789 0.38793 L 0.71793 0.38793 L 0.72207 0.39207 L 0.72625 0.396211 L 0.746992 0.396211 L 0.755273 0.38793 L 0.759453 0.38793 L 0.763594 0.38375 L 0.776055 0.38375 L 0.780195 0.379609 L 0.792656 0.379609 L 0.796797 0.375469 L 0.796797 0.371328 L 0.809258 0.371328 L 0.813398 0.367148 L 0.821719 0.367148 L 0.825859 0.363008 L 0.83832 0.363008 L 0.842461 0.358867 L 0.854922 0.358867 L 0.859063 0.354727 L 0.863203 0.350547 L 0.875664 0.350547 L 0.879844 0.346406 L 0.888125 0.346406 L 0.892266 0.342266 L 0.913047 0.342266 L 0.917187 0.338125 L 0.933789 0.338125 L 0.93793 0.342266 L 0.94625 0.342266 L 0.950391 0.346406 L 0.954531 0.346406 L 0.954531 0.363008 L 0.942109 0.363008 L 0.93793 0.358867 L 0.900586 0.358867 L 0.896445 0.363008 L 0.879844 0.363008 L 0.875664 0.367148 L 0.871523 0.367148 L 0.867383 0.371328 L 0.863203 0.375469 L 0.846602 0.375469 L 0.842461 0.379609 L 0.83418 0.379609 L 0.83 0.38375 L 0.817578 0.38375 L 0.809258 0.39207 L 0.796797 0.39207 L 0.792656 0.396211 L 0.780195 0.396211 L 0.776055 0.400391 L 0.763594 0.400391 L 0.759453 0.404531 L 0.751133 0.404531 L 0.742852 0.412813 L 0.738672 0.412813 L 0.734531 0.416992 L 0.730391 0.421133 L 0.730391 0.425273 L 0.71793 0.437734 L 0.71793 0.446055 L 0.709648 0.454336 L 0.709648 0.462656 L 0.705469 0.466797 L 0.705469 0.470938 L 0.701328 0.475078 L 0.697188 0.479258 L 0.693008 0.483398 L 0.693008 0.487539 L 0.688867 0.49168 L 0.684727 0.495859 L 0.680586 0.5 L 0.676406 0.504141 L 0.676406 0.50832 L 0.672266 0.512461 L 0.672266 0.516602 L 0.668125 0.520742 L 0.668125 0.524922 L 0.663984 0.529063 L 0.659805 0.533203 L 0.659805 0.537344 L 0.655664 0.541523 L 0.651523 0.545664 L 0.651523 0.549805 L 0.639063 0.562266 L 0.639063 0.566406 L 0.634922 0.570586 L 0.634922 0.578867 L 0.630742 0.583008 L 0.626602 0.587188 L 0.626602 0.595469 L 0.622461 0.599609 L 0.61832 0.603789 L 0.61832 0.60793 L 0.614141 0.61207 L 0.61 0.61625 L 0.61 0.624531 L 0.605859 0.628672 L 0.601719 0.632852 L 0.597539 0.636992 L 0.597539 0.641133 L 0.593398 0.645273 L 0.593398 0.649453 L 0.589258 0.653594 L 0.580938 0.653594 L 0.560195 0.674336 L 0.556055 0.678516 L 0.551875 0.682656 L 0.547734 0.686797 L 0.547734 0.690937 L 0.543594 0.695117 L 0.539453 0.699258 L 0.535273 0.703398 L 0.531133 0.707539 L 0.514531 0.707539 L 0.510391 0.711719 L 0.506211 0.715859 L 0.49793 0.724141 L 0.493789 0.72832 L 0.489609 0.72832 L 0.485469 0.732461 L 0.468867 0.732461 L 0.460547 0.740781 L 0.456406 0.740781 L 0.452266 0.744922 L 0.448125 0.744922 L 0.443945 0.740781 L 0.435664 0.740781 L 0.431523 0.744922 L 0.410742 0.744922 L 0.406602 0.740781 L 0.402461 0.736602 L 0.398281 0.732461 L 0.38168 0.732461 L 0.377539 0.736602 L 0.373398 0.736602 L 0.369258 0.732461 L 0.336016 0.732461 L 0.331875 0.72832 L 0.323594 0.72832 L 0.319414 0.724141 L 0.298672 0.724141 L 0.294531 0.72 L 0.294531 0.711719 L 0.290352 0.707539 L 0.253008 0.707539 L 0.244727 0.699258 L 0.236406 0.699258 L 0.228086 0.690937 L 0.207344 0.690937 L 0.207344 0.686797 L 0.203203 0.682656 L 0.203203 0.678516 L 0.199063 0.674336 L 0.194883 0.670195 L 0.190742 0.666055 L 0.186602 0.666055 L 0.182422 0.661875 L 0.178281 0.661875 L 0.174141 0.657734 L 0.17 0.657734 L 0.16582 0.661875 L 0.16168 0.661875 L 0.153398 0.653594 L 0.153398 0.649453 L 0.136797 0.632852 L 0.111875 0.632852 L 0.107734 0.628672 L 0.103555 0.624531 L 0.0828125 0.624531 L 0.0786719 0.620391 L 0.0620703 0.620391 L 0.0578906 0.624531 L 0.0496094 0.624531 L 0.0454688 0.620391 Z M 0.0454688 0.61625 " transform="matrix(100,0,0,100,450,200)"/>
<path style="fill:none;stroke-width:0.01;stroke-linecap:butt;stroke-linejoin:miter;stroke:rgb(0%,0%,0%);stroke-opacity:1;stroke-miterlimit:10;" d="M 0.0454688 0.471875 L 0.0497656 0.467539 L 0.0584375 0.467539 L 0.0671094 0.458867 L 0.0800781 0.458867 L 0.0844141 0.454531 L 0.08875 0.454531 L 0.0930859 0.450234 L 0.0974219 0.445898 L 0.0974219 0.441562 L 0.106055 0.441562 L 0.110391 0.437227 L 0.119063 0.437227 L 0.123359 0.432891 L 0.127695 0.432891 L 0.132031 0.428555 L 0.132031 0.424258 L 0.136367 0.419922 L 0.136367 0.415586 L 0.140703 0.41125 L 0.153672 0.41125 L 0.162344 0.402578 L 0.170977 0.402578 L 0.175313 0.398281 L 0.179648 0.393945 L 0.179648 0.385273 L 0.183984 0.380937 L 0.18832 0.380937 L 0.192656 0.376641 L 0.196953 0.372305 L 0.209961 0.372305 L 0.218633 0.363633 L 0.22293 0.359297 L 0.235938 0.359297 L 0.240273 0.354961 L 0.240273 0.346328 L 0.24457 0.341992 L 0.257578 0.341992 L 0.270547 0.329023 L 0.283555 0.329023 L 0.292227 0.320352 L 0.309531 0.320352 L 0.313867 0.316016 L 0.318164 0.31168 L 0.318164 0.303047 L 0.339844 0.303047 L 0.344141 0.298711 L 0.352812 0.298711 L 0.357148 0.303047 L 0.361484 0.298711 L 0.387461 0.298711 L 0.391758 0.303047 L 0.396094 0.303047 L 0.40043 0.298711 L 0.409102 0.298711 L 0.413438 0.303047 L 0.42207 0.303047 L 0.426406 0.307344 L 0.435078 0.307344 L 0.439375 0.31168 L 0.452383 0.31168 L 0.456719 0.316016 L 0.461055 0.316016 L 0.465352 0.320352 L 0.482695 0.320352 L 0.487031 0.324688 L 0.491328 0.324688 L 0.495664 0.329023 L 0.5 0.33332 L 0.508672 0.341992 L 0.512969 0.346328 L 0.517305 0.350664 L 0.521641 0.354961 L 0.530312 0.363633 L 0.534648 0.363633 L 0.538945 0.367969 L 0.543281 0.372305 L 0.547617 0.372305 L 0.551953 0.376641 L 0.556289 0.376641 L 0.560625 0.380937 L 0.564922 0.385273 L 0.569258 0.385273 L 0.573594 0.389609 L 0.57793 0.389609 L 0.582266 0.393945 L 0.586563 0.398281 L 0.590898 0.402578 L 0.595234 0.402578 L 0.603906 0.41125 L 0.608242 0.41125 L 0.612539 0.415586 L 0.616875 0.419922 L 0.621211 0.419922 L 0.625547 0.424258 L 0.629883 0.424258 L 0.63418 0.428555 L 0.638516 0.428555 L 0.642852 0.432891 L 0.647188 0.432891 L 0.651523 0.437227 L 0.655859 0.437227 L 0.660156 0.441562 L 0.664492 0.445898 L 0.668828 0.445898 L 0.673164 0.450234 L 0.6775 0.454531 L 0.681836 0.454531 L 0.686133 0.458867 L 0.690469 0.463203 L 0.694805 0.463203 L 0.699141 0.467539 L 0.703477 0.467539 L 0.707773 0.471875 L 0.712109 0.471875 L 0.716445 0.476172 L 0.816016 0.476172 L 0.820352 0.480508 L 0.924258 0.480508 L 0.928555 0.476172 L 0.932891 0.476172 L 0.937227 0.471875 L 0.954531 0.471875 L 0.954531 0.480508 L 0.950234 0.484844 L 0.945898 0.48918 L 0.941562 0.48918 L 0.937227 0.493516 L 0.919922 0.493516 L 0.915586 0.497852 L 0.889609 0.497852 L 0.885273 0.493516 L 0.837656 0.493516 L 0.83332 0.48918 L 0.772734 0.48918 L 0.768398 0.484844 L 0.764063 0.484844 L 0.759727 0.48918 L 0.716445 0.48918 L 0.712109 0.493516 L 0.707773 0.493516 L 0.703477 0.497852 L 0.699141 0.502148 L 0.686133 0.515156 L 0.681836 0.519492 L 0.6775 0.523828 L 0.673164 0.528125 L 0.664492 0.536797 L 0.660156 0.536797 L 0.655859 0.541133 L 0.651523 0.545469 L 0.647188 0.549766 L 0.642852 0.549766 L 0.638516 0.554102 L 0.63418 0.554102 L 0.629883 0.558438 L 0.621211 0.567109 L 0.616875 0.567109 L 0.59957 0.584414 L 0.595234 0.584414 L 0.586563 0.593086 L 0.582266 0.597422 L 0.582266 0.601719 L 0.57793 0.601719 L 0.564922 0.614727 L 0.560625 0.619063 L 0.556289 0.623359 L 0.547617 0.632031 L 0.547617 0.636367 L 0.543281 0.636367 L 0.538945 0.640703 L 0.534648 0.645039 L 0.530312 0.649336 L 0.525977 0.653672 L 0.521641 0.653672 L 0.512969 0.662344 L 0.508672 0.66668 L 0.504336 0.66668 L 0.5 0.670977 L 0.495664 0.675312 L 0.491328 0.675312 L 0.487031 0.670977 L 0.482695 0.670977 L 0.478359 0.675312 L 0.469688 0.675312 L 0.465352 0.679648 L 0.461055 0.679648 L 0.456719 0.683984 L 0.448047 0.683984 L 0.443711 0.68832 L 0.439375 0.68832 L 0.435078 0.692656 L 0.430742 0.692656 L 0.426406 0.68832 L 0.417734 0.68832 L 0.413438 0.692656 L 0.404766 0.692656 L 0.40043 0.696953 L 0.331172 0.696953 L 0.326836 0.701289 L 0.3225 0.701289 L 0.318164 0.696953 L 0.318164 0.692656 L 0.313867 0.68832 L 0.309531 0.683984 L 0.292227 0.683984 L 0.292227 0.679648 L 0.287891 0.675312 L 0.274883 0.675312 L 0.270547 0.670977 L 0.26625 0.670977 L 0.26625 0.66668 L 0.261914 0.662344 L 0.24457 0.662344 L 0.240273 0.658008 L 0.231602 0.658008 L 0.231602 0.653672 L 0.227266 0.649336 L 0.227266 0.640703 L 0.22293 0.636367 L 0.214297 0.636367 L 0.209961 0.632031 L 0.205625 0.632031 L 0.205625 0.627695 L 0.201289 0.623359 L 0.196953 0.623359 L 0.192656 0.619063 L 0.183984 0.619063 L 0.179648 0.614727 L 0.179648 0.610391 L 0.175313 0.606055 L 0.170977 0.606055 L 0.16668 0.601719 L 0.16668 0.597422 L 0.162344 0.593086 L 0.162344 0.584414 L 0.153672 0.575742 L 0.149336 0.575742 L 0.145039 0.571445 L 0.145039 0.567109 L 0.136367 0.558438 L 0.132031 0.558438 L 0.127695 0.554102 L 0.123359 0.554102 L 0.119063 0.549766 L 0.114727 0.545469 L 0.119063 0.541133 L 0.119063 0.532461 L 0.114727 0.528125 L 0.110391 0.523828 L 0.106055 0.523828 L 0.101719 0.519492 L 0.0974219 0.519492 L 0.0930859 0.515156 L 0.08875 0.515156 L 0.0800781 0.506484 L 0.0800781 0.502148 L 0.0757422 0.497852 L 0.0714453 0.493516 L 0.0627734 0.493516 L 0.0584375 0.48918 L 0.0584375 0.484844 L 0.0541016 0.480508 L 0.0497656 0.480508 L 0.0454688 0.476172 Z M 0.0454688 0.471875 " transform="matrix(100,0,0,100,600,200)"/>
<path style="fill:none;stroke-width:0.01;stroke-linecap:butt;stroke-linejoin:miter;stroke:rgb(0%,0%,0%);stroke-opacity:1;stroke-miterlimit:10;" d="M 0.0454688 0.562773 L 0.0497656 0.562773 L 0.0584375 0.554102 L 0.0584375 0.541133 L 0.0627734 0.536797 L 0.0671094 0.536797 L 0.0714453 0.532461 L 0.0757422 0.528125 L 0.0757422 0.519492 L 0.0714453 0.515156 L 0.0757422 0.51082 L 0.0800781 0.506484 L 0.0800781 0.502148 L 0.0844141 0.497852 L 0.0930859 0.48918 L 0.0930859 0.484844 L 0.0974219 0.480508 L 0.101719 0.476172 L 0.106055 0.471875 L 0.106055 0.467539 L 0.101719 0.463203 L 0.0974219 0.458867 L 0.0974219 0.454531 L 0.119063 0.432891 L 0.119063 0.428555 L 0.123359 0.424258 L 0.127695 0.424258 L 0.136367 0.415586 L 0.136367 0.402578 L 0.132031 0.398281 L 0.132031 0.393945 L 0.140703 0.385273 L 0.140703 0.380937 L 0.145039 0.376641 L 0.149336 0.376641 L 0.158008 0.367969 L 0.158008 0.363633 L 0.16668 0.354961 L 0.170977 0.354961 L 0.175313 0.350664 L 0.179648 0.346328 L 0.175313 0.341992 L 0.175313 0.33332 L 0.179648 0.329023 L 0.18832 0.320352 L 0.18832 0.316016 L 0.192656 0.31168 L 0.196953 0.307344 L 0.201289 0.307344 L 0.205625 0.303047 L 0.205625 0.298711 L 0.214297 0.290039 L 0.22293 0.290039 L 0.227266 0.285703 L 0.235937 0.285703 L 0.240273 0.281367 L 0.24457 0.281367 L 0.248906 0.27707 L 0.248906 0.272734 L 0.253242 0.268398 L 0.26625 0.268398 L 0.270547 0.264063 L 0.283555 0.264063 L 0.287891 0.259727 L 0.287891 0.242422 L 0.309531 0.242422 L 0.313867 0.238086 L 0.326836 0.238086 L 0.331172 0.242422 L 0.335508 0.242422 L 0.339844 0.238086 L 0.339844 0.23375 L 0.348477 0.23375 L 0.352813 0.238086 L 0.361484 0.238086 L 0.36582 0.242422 L 0.374453 0.242422 L 0.378789 0.246758 L 0.383125 0.246758 L 0.387461 0.242422 L 0.396094 0.242422 L 0.40043 0.246758 L 0.404766 0.246758 L 0.409102 0.251094 L 0.417734 0.251094 L 0.42207 0.25543 L 0.435078 0.25543 L 0.439375 0.259727 L 0.443711 0.259727 L 0.448047 0.264063 L 0.452383 0.264063 L 0.456719 0.268398 L 0.461055 0.268398 L 0.465352 0.272734 L 0.469688 0.268398 L 0.474023 0.268398 L 0.478359 0.272734 L 0.482695 0.272734 L 0.491328 0.281367 L 0.495664 0.281367 L 0.504336 0.290039 L 0.508672 0.290039 L 0.512969 0.294375 L 0.521641 0.303047 L 0.525977 0.307344 L 0.530312 0.307344 L 0.534648 0.31168 L 0.538945 0.31168 L 0.547617 0.320352 L 0.564922 0.320352 L 0.573594 0.329023 L 0.57793 0.33332 L 0.582266 0.337656 L 0.586562 0.341992 L 0.590898 0.341992 L 0.59957 0.350664 L 0.603906 0.354961 L 0.608242 0.354961 L 0.612539 0.359297 L 0.616875 0.359297 L 0.621211 0.363633 L 0.625547 0.363633 L 0.629883 0.367969 L 0.63418 0.372305 L 0.638516 0.372305 L 0.642852 0.376641 L 0.647188 0.380937 L 0.651523 0.380937 L 0.655859 0.385273 L 0.660156 0.389609 L 0.664492 0.389609 L 0.673164 0.398281 L 0.6775 0.398281 L 0.681836 0.402578 L 0.686133 0.406914 L 0.690469 0.41125 L 0.694805 0.41125 L 0.699141 0.415586 L 0.703477 0.415586 L 0.703477 0.419922 L 0.707773 0.424258 L 0.712109 0.424258 L 0.716445 0.428555 L 0.720781 0.432891 L 0.725117 0.432891 L 0.729453 0.437227 L 0.742422 0.437227 L 0.746758 0.441563 L 0.759727 0.441563 L 0.764062 0.437227 L 0.794375 0.437227 L 0.798711 0.432891 L 0.829023 0.432891 L 0.83332 0.428555 L 0.863633 0.428555 L 0.867969 0.424258 L 0.885273 0.424258 L 0.889609 0.419922 L 0.902578 0.419922 L 0.906914 0.415586 L 0.91125 0.415586 L 0.919922 0.406914 L 0.919922 0.402578 L 0.924258 0.398281 L 0.924258 0.389609 L 0.932891 0.389609 L 0.937227 0.385273 L 0.937227 0.380937 L 0.945898 0.380937 L 0.950234 0.385273 L 0.954531 0.389609 L 0.954531 0.428555 L 0.945898 0.428555 L 0.941562 0.424258 L 0.937227 0.419922 L 0.932891 0.424258 L 0.928555 0.424258 L 0.924258 0.428555 L 0.919922 0.428555 L 0.915586 0.432891 L 0.902578 0.432891 L 0.898281 0.437227 L 0.876641 0.437227 L 0.872305 0.441563 L 0.859297 0.441563 L 0.854961 0.445898 L 0.846328 0.445898 L 0.841992 0.441563 L 0.837656 0.445898 L 0.807344 0.445898 L 0.803047 0.450234 L 0.759727 0.450234 L 0.75543 0.454531 L 0.738086 0.454531 L 0.73375 0.458867 L 0.729453 0.458867 L 0.716445 0.471875 L 0.712109 0.476172 L 0.707773 0.480508 L 0.703477 0.484844 L 0.703477 0.48918 L 0.694805 0.497852 L 0.690469 0.502148 L 0.686133 0.506484 L 0.681836 0.51082 L 0.668828 0.523828 L 0.664492 0.523828 L 0.660156 0.528125 L 0.660156 0.532461 L 0.655859 0.536797 L 0.647188 0.545469 L 0.642852 0.549766 L 0.638516 0.554102 L 0.63418 0.554102 L 0.629883 0.558438 L 0.616875 0.571445 L 0.612539 0.575742 L 0.608242 0.575742 L 0.595234 0.58875 L 0.590898 0.58875 L 0.586562 0.593086 L 0.582266 0.597422 L 0.57793 0.597422 L 0.573594 0.601719 L 0.564922 0.610391 L 0.560625 0.614727 L 0.556289 0.619063 L 0.551953 0.623359 L 0.538945 0.636367 L 0.538945 0.640703 L 0.534648 0.645039 L 0.530312 0.649336 L 0.521641 0.658008 L 0.521641 0.662344 L 0.517305 0.66668 L 0.512969 0.670977 L 0.508672 0.675313 L 0.5 0.675313 L 0.491328 0.683984 L 0.487031 0.68832 L 0.482695 0.692656 L 0.478359 0.696953 L 0.474023 0.701289 L 0.469688 0.701289 L 0.465352 0.705625 L 0.465352 0.709961 L 0.461055 0.709961 L 0.456719 0.705625 L 0.443711 0.718633 L 0.439375 0.72293 L 0.435078 0.72293 L 0.426406 0.731602 L 0.417734 0.731602 L 0.413438 0.727266 L 0.40043 0.740273 L 0.396094 0.74457 L 0.391758 0.748906 L 0.387461 0.748906 L 0.378789 0.757578 L 0.374453 0.757578 L 0.370117 0.753242 L 0.36582 0.757578 L 0.361484 0.757578 L 0.352813 0.76625 L 0.344141 0.76625 L 0.339844 0.761914 L 0.335508 0.761914 L 0.331172 0.76625 L 0.3225 0.76625 L 0.318164 0.761914 L 0.313867 0.761914 L 0.309531 0.76625 L 0.300859 0.76625 L 0.300859 0.74457 L 0.296523 0.740273 L 0.279219 0.740273 L 0.274883 0.735938 L 0.274883 0.727266 L 0.270547 0.72293 L 0.24457 0.72293 L 0.240273 0.718633 L 0.240273 0.709961 L 0.235937 0.705625 L 0.214297 0.705625 L 0.209961 0.701289 L 0.209961 0.683984 L 0.201289 0.675313 L 0.192656 0.675313 L 0.18832 0.670977 L 0.18832 0.66668 L 0.179648 0.658008 L 0.170977 0.658008 L 0.16668 0.653672 L 0.16668 0.649336 L 0.162344 0.645039 L 0.153672 0.636367 L 0.158008 0.632031 L 0.158008 0.627695 L 0.162344 0.623359 L 0.16668 0.619063 L 0.16668 0.614727 L 0.158008 0.606055 L 0.153672 0.606055 L 0.149336 0.601719 L 0.149336 0.597422 L 0.145039 0.593086 L 0.132031 0.580078 L 0.119063 0.580078 L 0.114727 0.584414 L 0.106055 0.584414 L 0.101719 0.580078 L 0.0974219 0.575742 L 0.0930859 0.571445 L 0.0844141 0.571445 L 0.0800781 0.575742 L 0.0714453 0.575742 L 0.0671094 0.571445 L 0.0627734 0.567109 L 0.0584375 0.571445 L 0.0541016 0.567109 L 0.0454688 0.567109 Z M 0.0454688 0.562773 " transform="matrix(100,0,0,100,0,350)"/>
<path style="fill:none;stroke-width:0.01;stroke-linecap:butt;stroke-linejoin:miter;stroke:rgb(0%,0%,0%);stroke-opacity:1;stroke-miterlimit:10;" d="M 0.0454687 0.527344 L 0.0496484 0.523164 L 0.0538672 0.523164 L 0.0580859 0.518945 L 0.0664844 0.518945 L 0.0707031 0.514727 L 0.0707031 0.510508 L 0.0749219 0.506328 L 0.0791406 0.506328 L 0.0833203 0.502109 L 0.0917578 0.502109 L 0.0959766 0.497891 L 0.0959766 0.489492 L 0.100156 0.485273 L 0.104375 0.481055 L 0.112812 0.481055 L 0.116992 0.476836 L 0.121211 0.472656 L 0.12543 0.472656 L 0.129648 0.468438 L 0.133828 0.468438 L 0.138047 0.464219 L 0.138047 0.45582 L 0.133828 0.451602 L 0.133828 0.447383 L 0.138047 0.443164 L 0.146445 0.443164 L 0.150664 0.438984 L 0.150664 0.434766 L 0.154883 0.430547 L 0.163281 0.430547 L 0.1675 0.426328 L 0.171719 0.422148 L 0.171719 0.413711 L 0.1675 0.409531 L 0.1675 0.405312 L 0.171719 0.401094 L 0.175938 0.401094 L 0.180117 0.396875 L 0.188555 0.396875 L 0.192773 0.392695 L 0.192773 0.388477 L 0.196953 0.384258 L 0.201172 0.384258 L 0.205391 0.380039 L 0.209609 0.375859 L 0.209609 0.371641 L 0.222227 0.371641 L 0.226445 0.367422 L 0.230625 0.363203 L 0.230625 0.359023 L 0.226445 0.354805 L 0.226445 0.350586 L 0.230625 0.346367 L 0.239062 0.346367 L 0.243281 0.342188 L 0.247461 0.337969 L 0.247461 0.33375 L 0.260117 0.33375 L 0.264297 0.329531 L 0.264297 0.325352 L 0.268516 0.321133 L 0.281133 0.321133 L 0.285352 0.316914 L 0.285352 0.312695 L 0.28957 0.308516 L 0.293789 0.304297 L 0.310625 0.304297 L 0.314805 0.300078 L 0.314805 0.287461 L 0.319023 0.283242 L 0.344258 0.283242 L 0.348477 0.279023 L 0.352695 0.283242 L 0.361094 0.283242 L 0.365312 0.279023 L 0.369531 0.274844 L 0.37375 0.279023 L 0.382148 0.279023 L 0.386367 0.283242 L 0.394766 0.283242 L 0.398984 0.279023 L 0.407422 0.279023 L 0.411602 0.283242 L 0.41582 0.283242 L 0.420039 0.287461 L 0.424258 0.287461 L 0.428438 0.29168 L 0.432656 0.29168 L 0.436875 0.295859 L 0.441094 0.295859 L 0.445273 0.300078 L 0.453711 0.300078 L 0.45793 0.304297 L 0.462109 0.304297 L 0.466328 0.308516 L 0.474766 0.308516 L 0.478945 0.304297 L 0.483164 0.308516 L 0.487383 0.312695 L 0.491602 0.316914 L 0.495781 0.321133 L 0.5 0.325352 L 0.504219 0.329531 L 0.508398 0.33375 L 0.516836 0.342188 L 0.521055 0.346367 L 0.525234 0.350586 L 0.533672 0.359023 L 0.537891 0.363203 L 0.54207 0.363203 L 0.546289 0.367422 L 0.550508 0.367422 L 0.554727 0.371641 L 0.558906 0.371641 L 0.563125 0.375859 L 0.567344 0.380039 L 0.571563 0.384258 L 0.575742 0.388477 L 0.579961 0.392695 L 0.58418 0.396875 L 0.588398 0.401094 L 0.588398 0.405312 L 0.592578 0.409531 L 0.596797 0.409531 L 0.601016 0.413711 L 0.605234 0.41793 L 0.609414 0.422148 L 0.613633 0.426328 L 0.617852 0.426328 L 0.62207 0.430547 L 0.62625 0.434766 L 0.630469 0.438984 L 0.634688 0.443164 L 0.638906 0.443164 L 0.643086 0.447383 L 0.651523 0.45582 L 0.655742 0.46 L 0.659922 0.464219 L 0.668359 0.472656 L 0.672578 0.476836 L 0.676758 0.481055 L 0.685195 0.489492 L 0.685195 0.493672 L 0.689375 0.497891 L 0.697812 0.506328 L 0.702031 0.510508 L 0.706211 0.514727 L 0.71043 0.514727 L 0.718867 0.523164 L 0.723047 0.523164 L 0.727266 0.527344 L 0.731484 0.531562 L 0.739883 0.531562 L 0.744102 0.535781 L 0.760938 0.535781 L 0.765156 0.54 L 0.781992 0.54 L 0.786211 0.54418 L 0.798828 0.54418 L 0.803047 0.548398 L 0.824063 0.548398 L 0.828281 0.552617 L 0.849336 0.552617 L 0.853555 0.556836 L 0.878789 0.556836 L 0.883008 0.561016 L 0.912461 0.561016 L 0.91668 0.556836 L 0.929297 0.556836 L 0.933516 0.552617 L 0.946133 0.552617 L 0.954531 0.561016 L 0.954531 0.565234 L 0.950352 0.569453 L 0.937695 0.569453 L 0.933516 0.573672 L 0.870352 0.573672 L 0.866172 0.569453 L 0.849336 0.569453 L 0.845117 0.565234 L 0.824063 0.565234 L 0.819883 0.561016 L 0.803047 0.561016 L 0.798828 0.556836 L 0.786211 0.556836 L 0.781992 0.552617 L 0.765156 0.552617 L 0.760938 0.548398 L 0.74832 0.548398 L 0.744102 0.54418 L 0.731484 0.54418 L 0.727266 0.54 L 0.706211 0.54 L 0.702031 0.54418 L 0.693594 0.54418 L 0.689375 0.548398 L 0.685195 0.552617 L 0.680977 0.556836 L 0.676758 0.561016 L 0.672578 0.561016 L 0.664141 0.569453 L 0.659922 0.569453 L 0.655742 0.573672 L 0.651523 0.573672 L 0.647305 0.577852 L 0.643086 0.577852 L 0.638906 0.58207 L 0.634688 0.58207 L 0.630469 0.586289 L 0.62625 0.586289 L 0.617852 0.594688 L 0.613633 0.594688 L 0.609414 0.598906 L 0.605234 0.598906 L 0.601016 0.603125 L 0.596797 0.607305 L 0.592578 0.607305 L 0.588398 0.611523 L 0.58418 0.615742 L 0.579961 0.615742 L 0.571563 0.624141 L 0.567344 0.624141 L 0.563125 0.628359 L 0.558906 0.628359 L 0.554727 0.632578 L 0.550508 0.632578 L 0.546289 0.636797 L 0.54207 0.640977 L 0.537891 0.640977 L 0.533672 0.645195 L 0.529453 0.645195 L 0.525234 0.649414 L 0.521055 0.653633 L 0.516836 0.657813 L 0.508398 0.66625 L 0.5 0.66625 L 0.491602 0.674648 L 0.487383 0.674648 L 0.478945 0.683086 L 0.466328 0.683086 L 0.462109 0.687305 L 0.45793 0.687305 L 0.453711 0.691484 L 0.449492 0.691484 L 0.445273 0.695703 L 0.441094 0.695703 L 0.436875 0.699922 L 0.432656 0.699922 L 0.428438 0.704141 L 0.420039 0.704141 L 0.41582 0.70832 L 0.411602 0.70832 L 0.407422 0.704141 L 0.403203 0.70832 L 0.398984 0.70832 L 0.394766 0.712539 L 0.390586 0.712539 L 0.386367 0.716758 L 0.382148 0.716758 L 0.37375 0.725156 L 0.369531 0.725156 L 0.365312 0.720977 L 0.352695 0.720977 L 0.348477 0.725156 L 0.344258 0.725156 L 0.335859 0.716758 L 0.314805 0.716758 L 0.314805 0.70832 L 0.306406 0.699922 L 0.28957 0.699922 L 0.285352 0.695703 L 0.276953 0.695703 L 0.272734 0.691484 L 0.268516 0.695703 L 0.264297 0.695703 L 0.260117 0.691484 L 0.255898 0.687305 L 0.25168 0.687305 L 0.247461 0.683086 L 0.243281 0.678867 L 0.230625 0.678867 L 0.230625 0.662031 L 0.226445 0.657813 L 0.218008 0.657813 L 0.213789 0.653633 L 0.209609 0.649414 L 0.209609 0.645195 L 0.205391 0.640977 L 0.201172 0.640977 L 0.196953 0.636797 L 0.192773 0.636797 L 0.196953 0.632578 L 0.192773 0.628359 L 0.188555 0.624141 L 0.184336 0.624141 L 0.180117 0.619961 L 0.175938 0.619961 L 0.175938 0.615742 L 0.180117 0.611523 L 0.180117 0.607305 L 0.175938 0.603125 L 0.171719 0.603125 L 0.1675 0.598906 L 0.159102 0.598906 L 0.159102 0.594688 L 0.154883 0.590469 L 0.150664 0.586289 L 0.146445 0.58207 L 0.138047 0.58207 L 0.133828 0.577852 L 0.133828 0.569453 L 0.129648 0.565234 L 0.121211 0.565234 L 0.116992 0.561016 L 0.100156 0.561016 L 0.100156 0.552617 L 0.0959766 0.548398 L 0.0791406 0.548398 L 0.0749219 0.54418 L 0.0707031 0.54418 L 0.0664844 0.54 L 0.0623047 0.535781 L 0.0496484 0.535781 L 0.0454687 0.531562 Z M 0.0454687 0.527344 " transform="matrix(100,0,0,100,150,350)"/>
<path style="fill:none;stroke-width:0.01;stroke-linecap:butt;stroke-linejoin:miter;stroke:rgb(0%,0%,0%);stroke-opacity:1;stroke-miterlimit:10;" d="M 0.0454687 0.508594 L 0.0497266 0.504297 L 0.0540234 0.5 L 0.0583203 0.5 L 0.0626172 0.495703 L 0.0669141 0.495703 L 0.0711719 0.491406 L 0.0754688 0.487148 L 0.0754688 0.478555 L 0.0797656 0.474258 L 0.0840625 0.47 L 0.0883203 0.47 L 0.0926172 0.465703 L 0.0969141 0.465703 L 0.105508 0.457109 L 0.109766 0.452813 L 0.114063 0.448555 L 0.118359 0.444258 L 0.114063 0.439961 L 0.114063 0.431406 L 0.118359 0.427109 L 0.122656 0.427109 L 0.126914 0.422813 L 0.131211 0.418516 L 0.135508 0.418516 L 0.139805 0.414219 L 0.139805 0.409961 L 0.144102 0.405664 L 0.152656 0.405664 L 0.16125 0.39707 L 0.16125 0.392813 L 0.156953 0.388516 L 0.156953 0.379922 L 0.16125 0.375625 L 0.165508 0.375625 L 0.169805 0.371367 L 0.174102 0.371367 L 0.178398 0.36707 L 0.178398 0.362773 L 0.182695 0.358477 L 0.186953 0.358477 L 0.19125 0.354219 L 0.195547 0.354219 L 0.199844 0.349922 L 0.204102 0.345625 L 0.212695 0.345625 L 0.216992 0.341328 L 0.22125 0.341328 L 0.225547 0.337031 L 0.225547 0.332773 L 0.229844 0.328477 L 0.229844 0.315625 L 0.238437 0.315625 L 0.242695 0.311328 L 0.251289 0.302734 L 0.259844 0.302734 L 0.264141 0.298437 L 0.268438 0.29418 L 0.298437 0.29418 L 0.307031 0.285586 L 0.307031 0.281289 L 0.332773 0.281289 L 0.337031 0.277031 L 0.337031 0.268438 L 0.341328 0.264141 L 0.349922 0.264141 L 0.354219 0.259844 L 0.36707 0.259844 L 0.371367 0.255586 L 0.388516 0.255586 L 0.392813 0.259844 L 0.39707 0.259844 L 0.401367 0.255586 L 0.405664 0.251289 L 0.409961 0.251289 L 0.414219 0.255586 L 0.418516 0.255586 L 0.422813 0.259844 L 0.427109 0.259844 L 0.431406 0.264141 L 0.439961 0.264141 L 0.448555 0.272734 L 0.452813 0.268438 L 0.457109 0.264141 L 0.465703 0.272734 L 0.47 0.272734 L 0.474258 0.277031 L 0.478555 0.277031 L 0.482852 0.281289 L 0.487148 0.285586 L 0.491406 0.285586 L 0.495703 0.289883 L 0.5 0.289883 L 0.504297 0.29418 L 0.521445 0.29418 L 0.521445 0.298437 L 0.525742 0.302734 L 0.53 0.302734 L 0.53 0.307031 L 0.534297 0.311328 L 0.538594 0.311328 L 0.542891 0.315625 L 0.547188 0.319883 L 0.547188 0.32418 L 0.551445 0.328477 L 0.555742 0.332773 L 0.560039 0.337031 L 0.564336 0.341328 L 0.568594 0.345625 L 0.577187 0.354219 L 0.581484 0.358477 L 0.585781 0.358477 L 0.590039 0.362773 L 0.594336 0.36707 L 0.598633 0.36707 L 0.60293 0.371367 L 0.607188 0.371367 L 0.611484 0.375625 L 0.624375 0.388516 L 0.628633 0.392813 L 0.63293 0.39707 L 0.641523 0.405664 L 0.645781 0.409961 L 0.650078 0.409961 L 0.654375 0.414219 L 0.662969 0.422813 L 0.667227 0.427109 L 0.671523 0.427109 L 0.67582 0.431406 L 0.680117 0.435664 L 0.684375 0.439961 L 0.688672 0.439961 L 0.697266 0.448555 L 0.701563 0.452813 L 0.70582 0.452813 L 0.718711 0.465703 L 0.722969 0.47 L 0.727266 0.474258 L 0.735859 0.482852 L 0.744414 0.482852 L 0.748711 0.487148 L 0.855898 0.487148 L 0.860195 0.482852 L 0.873086 0.482852 L 0.877344 0.478555 L 0.894492 0.478555 L 0.898789 0.474258 L 0.907383 0.474258 L 0.91168 0.47 L 0.915938 0.47 L 0.920234 0.465703 L 0.954531 0.465703 L 0.954531 0.478555 L 0.94168 0.478555 L 0.937383 0.482852 L 0.928828 0.482852 L 0.924531 0.487148 L 0.915938 0.487148 L 0.91168 0.491406 L 0.885938 0.491406 L 0.881641 0.495703 L 0.847344 0.495703 L 0.843047 0.5 L 0.800156 0.5 L 0.795898 0.495703 L 0.731562 0.495703 L 0.722969 0.504297 L 0.718711 0.508594 L 0.714414 0.512852 L 0.70582 0.521445 L 0.701563 0.525742 L 0.701563 0.53 L 0.688672 0.542891 L 0.684375 0.542891 L 0.680117 0.547187 L 0.67582 0.551445 L 0.671523 0.555742 L 0.667227 0.555742 L 0.662969 0.560039 L 0.658672 0.564336 L 0.654375 0.568594 L 0.645781 0.577187 L 0.641523 0.577187 L 0.63293 0.585781 L 0.628633 0.590039 L 0.624375 0.594336 L 0.615781 0.60293 L 0.611484 0.607188 L 0.607188 0.611484 L 0.60293 0.615781 L 0.598633 0.615781 L 0.572891 0.641523 L 0.568594 0.645781 L 0.564336 0.650078 L 0.534297 0.680117 L 0.53 0.680117 L 0.521445 0.688672 L 0.517148 0.684375 L 0.512852 0.684375 L 0.508594 0.688672 L 0.504297 0.692969 L 0.5 0.692969 L 0.495703 0.697266 L 0.478555 0.697266 L 0.47 0.70582 L 0.465703 0.70582 L 0.461406 0.710117 L 0.457109 0.710117 L 0.452813 0.714414 L 0.448555 0.714414 L 0.444258 0.718711 L 0.431406 0.718711 L 0.427109 0.722969 L 0.422813 0.722969 L 0.414219 0.731562 L 0.409961 0.731562 L 0.405664 0.735859 L 0.392813 0.735859 L 0.388516 0.731562 L 0.379922 0.740156 L 0.375625 0.740156 L 0.371367 0.744414 L 0.36707 0.744414 L 0.362773 0.748711 L 0.354219 0.748711 L 0.349922 0.744414 L 0.328477 0.744414 L 0.32418 0.740156 L 0.307031 0.740156 L 0.302734 0.735859 L 0.302734 0.722969 L 0.298437 0.718711 L 0.285586 0.718711 L 0.281289 0.714414 L 0.272734 0.714414 L 0.272734 0.710117 L 0.268438 0.70582 L 0.264141 0.701562 L 0.259844 0.70582 L 0.255586 0.70582 L 0.251289 0.701562 L 0.238437 0.701562 L 0.238437 0.697266 L 0.229844 0.688672 L 0.225547 0.688672 L 0.22125 0.684375 L 0.216992 0.688672 L 0.216992 0.684375 L 0.212695 0.680117 L 0.212695 0.667227 L 0.208398 0.662969 L 0.204102 0.658672 L 0.199844 0.654375 L 0.199844 0.650078 L 0.195547 0.645781 L 0.19125 0.641523 L 0.178398 0.641523 L 0.178398 0.637227 L 0.174102 0.63293 L 0.169805 0.63293 L 0.165508 0.628633 L 0.156953 0.628633 L 0.156953 0.611484 L 0.152656 0.607188 L 0.148359 0.60293 L 0.144102 0.60293 L 0.139805 0.598633 L 0.139805 0.594336 L 0.135508 0.590039 L 0.131211 0.585781 L 0.122656 0.585781 L 0.118359 0.581484 L 0.114063 0.581484 L 0.114063 0.577187 L 0.118359 0.572891 L 0.114063 0.568594 L 0.109766 0.564336 L 0.105508 0.564336 L 0.0926172 0.551445 L 0.0883203 0.547187 L 0.0840625 0.542891 L 0.0840625 0.525742 L 0.0797656 0.521445 L 0.0540234 0.521445 L 0.0497266 0.517148 L 0.0454687 0.517148 L 0.0454687 0.512852 Z M 0.0454687 0.508594 " transform="matrix(100,0,0,100,300,350)"/>
<path style="fill:none;stroke-width:0.01;stroke-linecap:butt;stroke-linejoin:miter;stroke:rgb(0%,0%,0%);stroke-opacity:1;stroke-miterlimit:10;" d="M 0.0454688 0.493555 L 0.0540234 0.485 L 0.0583203 0.485 L 0.0669141 0.476406 L 0.0711719 0.472109 L 0.0840625 0.472109 L 0.0969141 0.459258 L 0.0969141 0.454961 L 0.101211 0.454961 L 0.105508 0.450703 L 0.109766 0.446406 L 0.114063 0.442109 L 0.118359 0.442109 L 0.122656 0.437813 L 0.126914 0.433516 L 0.126914 0.424961 L 0.131211 0.420664 L 0.135508 0.420664 L 0.139805 0.416367 L 0.144102 0.412109 L 0.148359 0.412109 L 0.152656 0.407812 L 0.156953 0.407812 L 0.16125 0.403516 L 0.165508 0.403516 L 0.174102 0.394922 L 0.174102 0.38207 L 0.178398 0.377773 L 0.186953 0.377773 L 0.19125 0.373516 L 0.195547 0.369219 L 0.195547 0.364922 L 0.199844 0.364922 L 0.204102 0.360625 L 0.208398 0.360625 L 0.212695 0.356328 L 0.216992 0.35207 L 0.216992 0.347773 L 0.22125 0.343477 L 0.225547 0.33918 L 0.229844 0.33918 L 0.234141 0.334922 L 0.238437 0.334922 L 0.242695 0.330625 L 0.255586 0.330625 L 0.259844 0.326328 L 0.285586 0.326328 L 0.29418 0.317734 L 0.302734 0.317734 L 0.307031 0.313477 L 0.307031 0.304883 L 0.311328 0.300586 L 0.315625 0.300586 L 0.319883 0.296328 L 0.328477 0.296328 L 0.332773 0.292031 L 0.337031 0.287734 L 0.349922 0.287734 L 0.354219 0.292031 L 0.358477 0.292031 L 0.362773 0.287734 L 0.375625 0.287734 L 0.379922 0.292031 L 0.384219 0.292031 L 0.388516 0.296328 L 0.392812 0.292031 L 0.39707 0.292031 L 0.401367 0.287734 L 0.405664 0.292031 L 0.418516 0.292031 L 0.427109 0.283438 L 0.465703 0.283438 L 0.47 0.287734 L 0.474258 0.292031 L 0.487148 0.292031 L 0.491406 0.296328 L 0.495703 0.300586 L 0.5 0.300586 L 0.504297 0.304883 L 0.512852 0.304883 L 0.517148 0.30918 L 0.521445 0.30918 L 0.53 0.317734 L 0.534297 0.317734 L 0.538594 0.322031 L 0.551445 0.322031 L 0.555742 0.326328 L 0.560039 0.326328 L 0.564336 0.330625 L 0.568594 0.334922 L 0.572891 0.33918 L 0.577187 0.343477 L 0.577187 0.347773 L 0.581484 0.35207 L 0.585781 0.356328 L 0.590039 0.360625 L 0.594336 0.364922 L 0.598633 0.364922 L 0.598633 0.369219 L 0.620078 0.390664 L 0.620078 0.394922 L 0.624375 0.399219 L 0.628633 0.399219 L 0.645781 0.416367 L 0.650078 0.416367 L 0.658672 0.424961 L 0.662969 0.424961 L 0.667227 0.429258 L 0.671523 0.429258 L 0.67582 0.433516 L 0.680117 0.437813 L 0.684375 0.442109 L 0.688672 0.446406 L 0.692969 0.446406 L 0.697266 0.450703 L 0.701563 0.454961 L 0.70582 0.459258 L 0.714414 0.467852 L 0.718711 0.472109 L 0.718711 0.476406 L 0.722969 0.480703 L 0.727266 0.485 L 0.744414 0.485 L 0.748711 0.480703 L 0.761563 0.480703 L 0.765859 0.476406 L 0.774453 0.476406 L 0.77875 0.472109 L 0.791602 0.472109 L 0.795898 0.467852 L 0.804453 0.467852 L 0.80875 0.463555 L 0.825898 0.463555 L 0.830195 0.459258 L 0.834492 0.459258 L 0.83875 0.454961 L 0.851641 0.454961 L 0.855898 0.450703 L 0.877344 0.450703 L 0.881641 0.446406 L 0.885937 0.446406 L 0.890234 0.442109 L 0.898789 0.442109 L 0.903086 0.437813 L 0.907383 0.437813 L 0.915938 0.429258 L 0.920234 0.429258 L 0.924531 0.424961 L 0.928828 0.424961 L 0.933086 0.420664 L 0.937383 0.420664 L 0.94168 0.416367 L 0.950273 0.416367 L 0.954531 0.420664 L 0.954531 0.424961 L 0.950273 0.429258 L 0.950273 0.433516 L 0.945977 0.437813 L 0.94168 0.437813 L 0.937383 0.442109 L 0.928828 0.442109 L 0.924531 0.446406 L 0.920234 0.446406 L 0.915938 0.450703 L 0.907383 0.450703 L 0.903086 0.454961 L 0.898789 0.454961 L 0.894492 0.459258 L 0.877344 0.459258 L 0.873086 0.463555 L 0.860195 0.463555 L 0.855898 0.467852 L 0.83875 0.467852 L 0.834492 0.472109 L 0.817305 0.472109 L 0.813047 0.476406 L 0.80875 0.480703 L 0.787305 0.480703 L 0.783008 0.485 L 0.774453 0.485 L 0.770156 0.489297 L 0.748711 0.489297 L 0.744414 0.493555 L 0.740156 0.493555 L 0.727266 0.506445 L 0.722969 0.510703 L 0.722969 0.515 L 0.718711 0.519297 L 0.718711 0.523594 L 0.714414 0.527891 L 0.714414 0.532148 L 0.70582 0.540742 L 0.701563 0.545039 L 0.697266 0.549297 L 0.684375 0.562188 L 0.680117 0.566484 L 0.680117 0.570742 L 0.581484 0.669375 L 0.577187 0.669375 L 0.572891 0.673672 L 0.568594 0.673672 L 0.564336 0.677969 L 0.555742 0.677969 L 0.547187 0.686523 L 0.542891 0.686523 L 0.538594 0.69082 L 0.534297 0.69082 L 0.53 0.695117 L 0.525742 0.699414 L 0.5 0.699414 L 0.495703 0.703672 L 0.491406 0.707969 L 0.487148 0.707969 L 0.482852 0.712266 L 0.465703 0.712266 L 0.461406 0.716563 L 0.457109 0.712266 L 0.439961 0.712266 L 0.435664 0.716563 L 0.431406 0.712266 L 0.427109 0.712266 L 0.422813 0.716563 L 0.418516 0.712266 L 0.405664 0.712266 L 0.39707 0.703672 L 0.392812 0.703672 L 0.388516 0.699414 L 0.384219 0.699414 L 0.379922 0.695117 L 0.379922 0.686523 L 0.375625 0.682266 L 0.362773 0.682266 L 0.358477 0.677969 L 0.354219 0.677969 L 0.349922 0.673672 L 0.341328 0.673672 L 0.341328 0.669375 L 0.337031 0.665078 L 0.337031 0.66082 L 0.332773 0.656523 L 0.307031 0.656523 L 0.29418 0.643672 L 0.285586 0.643672 L 0.281289 0.639375 L 0.277031 0.639375 L 0.272734 0.635078 L 0.264141 0.635078 L 0.259844 0.630781 L 0.255586 0.626484 L 0.242695 0.626484 L 0.242695 0.622227 L 0.238437 0.61793 L 0.238437 0.613633 L 0.234141 0.609336 L 0.229844 0.605078 L 0.22125 0.605078 L 0.216992 0.600781 L 0.212695 0.596484 L 0.199844 0.596484 L 0.19125 0.587891 L 0.186953 0.583633 L 0.186953 0.570742 L 0.182695 0.566484 L 0.178398 0.566484 L 0.174102 0.562188 L 0.165508 0.562188 L 0.165508 0.557891 L 0.16125 0.553594 L 0.156953 0.549297 L 0.152656 0.549297 L 0.148359 0.545039 L 0.144102 0.540742 L 0.144102 0.532148 L 0.139805 0.527891 L 0.135508 0.523594 L 0.118359 0.523594 L 0.114063 0.519297 L 0.109766 0.519297 L 0.109766 0.515 L 0.105508 0.510703 L 0.101211 0.510703 L 0.0969141 0.506445 L 0.0754687 0.506445 L 0.0711719 0.502148 L 0.0583203 0.502148 L 0.0540234 0.497852 L 0.0497266 0.497852 Z M 0.0454688 0.493555 " transform="matrix(100,0,0,100,450,350)"/>
<path style="fill:none;stroke-width:0.01;stroke-linecap:butt;stroke-linejoin:miter;stroke:rgb(0%,0%,0%);stroke-opacity:1;stroke-miterlimit:10;" d="M 0.0454688 0.5 L 0.0497656 0.495664 L 0.0541016 0.495664 L 0.0584375 0.491328 L 0.0627734 0.487031 L 0.0627734 0.482695 L 0.0671094 0.478359 L 0.0757422 0.478359 L 0.0800781 0.474023 L 0.0844141 0.474023 L 0.0930859 0.465352 L 0.0974219 0.461055 L 0.0974219 0.452383 L 0.101719 0.448047 L 0.110391 0.448047 L 0.119063 0.439375 L 0.119063 0.435078 L 0.123359 0.435078 L 0.132031 0.426406 L 0.136367 0.426406 L 0.145039 0.417734 L 0.145039 0.409102 L 0.149336 0.409102 L 0.158008 0.40043 L 0.162344 0.40043 L 0.16668 0.396094 L 0.170977 0.391758 L 0.170977 0.387461 L 0.175313 0.383125 L 0.192656 0.383125 L 0.196953 0.378789 L 0.201289 0.374453 L 0.201289 0.361484 L 0.205625 0.357148 L 0.214297 0.357148 L 0.218633 0.352813 L 0.22293 0.348477 L 0.22293 0.344141 L 0.231602 0.344141 L 0.235938 0.339844 L 0.240273 0.339844 L 0.24457 0.335508 L 0.248906 0.331172 L 0.248906 0.3225 L 0.274883 0.3225 L 0.279219 0.318164 L 0.283555 0.313867 L 0.283555 0.305195 L 0.287891 0.300859 L 0.309531 0.300859 L 0.318164 0.292227 L 0.352812 0.292227 L 0.357148 0.287891 L 0.361484 0.292227 L 0.378789 0.292227 L 0.383125 0.296523 L 0.387461 0.300859 L 0.40043 0.300859 L 0.409102 0.309531 L 0.413438 0.309531 L 0.417734 0.305195 L 0.430742 0.305195 L 0.435078 0.309531 L 0.439375 0.309531 L 0.443711 0.313867 L 0.448047 0.318164 L 0.456719 0.326836 L 0.461055 0.326836 L 0.465352 0.331172 L 0.474023 0.339844 L 0.478359 0.344141 L 0.482695 0.344141 L 0.487031 0.348477 L 0.491328 0.352813 L 0.504336 0.36582 L 0.508672 0.370117 L 0.512969 0.374453 L 0.517305 0.374453 L 0.517305 0.378789 L 0.525977 0.387461 L 0.530312 0.391758 L 0.534648 0.396094 L 0.534648 0.40043 L 0.538945 0.404766 L 0.543281 0.404766 L 0.551953 0.413438 L 0.556289 0.417734 L 0.560625 0.42207 L 0.569258 0.42207 L 0.57793 0.430742 L 0.57793 0.435078 L 0.582266 0.439375 L 0.586563 0.443711 L 0.590898 0.443711 L 0.59957 0.452383 L 0.59957 0.461055 L 0.603906 0.465352 L 0.608242 0.469688 L 0.608242 0.474023 L 0.612539 0.478359 L 0.612539 0.482695 L 0.616875 0.487031 L 0.621211 0.491328 L 0.629883 0.5 L 0.629883 0.504336 L 0.63418 0.508672 L 0.638516 0.508672 L 0.642852 0.512969 L 0.647188 0.512969 L 0.651523 0.517305 L 0.664492 0.517305 L 0.668828 0.521641 L 0.6775 0.521641 L 0.681836 0.525977 L 0.694805 0.525977 L 0.703477 0.534648 L 0.720781 0.534648 L 0.725117 0.538945 L 0.738086 0.538945 L 0.742422 0.543281 L 0.850664 0.543281 L 0.854961 0.538945 L 0.937227 0.538945 L 0.941562 0.543281 L 0.950234 0.543281 L 0.950234 0.547617 L 0.954531 0.551953 L 0.954531 0.564922 L 0.950234 0.564922 L 0.945898 0.560625 L 0.937227 0.551953 L 0.924258 0.551953 L 0.919922 0.547617 L 0.889609 0.547617 L 0.885273 0.551953 L 0.829023 0.551953 L 0.824688 0.556289 L 0.772734 0.556289 L 0.768398 0.551953 L 0.738086 0.551953 L 0.73375 0.547617 L 0.716445 0.547617 L 0.712109 0.543281 L 0.699141 0.543281 L 0.694805 0.538945 L 0.681836 0.538945 L 0.6775 0.534648 L 0.660156 0.534648 L 0.655859 0.530312 L 0.651523 0.525977 L 0.647188 0.525977 L 0.638516 0.534648 L 0.63418 0.538945 L 0.625547 0.538945 L 0.612539 0.551953 L 0.608242 0.556289 L 0.603906 0.560625 L 0.59957 0.564922 L 0.590898 0.573594 L 0.586563 0.573594 L 0.582266 0.57793 L 0.57793 0.582266 L 0.573594 0.582266 L 0.569258 0.586563 L 0.564922 0.590898 L 0.560625 0.595234 L 0.556289 0.59957 L 0.551953 0.59957 L 0.543281 0.608242 L 0.538945 0.612539 L 0.534648 0.616875 L 0.521641 0.629883 L 0.517305 0.63418 L 0.512969 0.638516 L 0.508672 0.642852 L 0.5 0.651523 L 0.5 0.655859 L 0.495664 0.660156 L 0.491328 0.664492 L 0.487031 0.668828 L 0.478359 0.6775 L 0.474023 0.6775 L 0.469688 0.681836 L 0.465352 0.686133 L 0.443711 0.686133 L 0.439375 0.690469 L 0.435078 0.690469 L 0.426406 0.699141 L 0.42207 0.699141 L 0.417734 0.703477 L 0.413438 0.703477 L 0.409102 0.707773 L 0.404766 0.707773 L 0.40043 0.712109 L 0.396094 0.707773 L 0.370117 0.707773 L 0.36582 0.712109 L 0.361484 0.707773 L 0.335508 0.707773 L 0.331172 0.703477 L 0.326836 0.699141 L 0.300859 0.699141 L 0.296523 0.694805 L 0.296523 0.690469 L 0.292227 0.686133 L 0.287891 0.681836 L 0.283555 0.6775 L 0.26625 0.6775 L 0.26625 0.668828 L 0.257578 0.660156 L 0.248906 0.660156 L 0.24457 0.655859 L 0.24457 0.651523 L 0.240273 0.647188 L 0.235938 0.647188 L 0.231602 0.642852 L 0.209961 0.642852 L 0.205625 0.638516 L 0.205625 0.63418 L 0.201289 0.629883 L 0.196953 0.625547 L 0.192656 0.621211 L 0.170977 0.621211 L 0.170977 0.616875 L 0.16668 0.612539 L 0.153672 0.612539 L 0.149336 0.608242 L 0.145039 0.608242 L 0.140703 0.603906 L 0.140703 0.586563 L 0.136367 0.582266 L 0.123359 0.569258 L 0.114727 0.569258 L 0.114727 0.564922 L 0.110391 0.560625 L 0.101719 0.551953 L 0.101719 0.543281 L 0.0974219 0.538945 L 0.0930859 0.534648 L 0.0844141 0.525977 L 0.0800781 0.525977 L 0.0757422 0.521641 L 0.0714453 0.517305 L 0.0671094 0.512969 L 0.0627734 0.508672 L 0.0584375 0.508672 L 0.0541016 0.504336 L 0.0454688 0.504336 Z M 0.0454688 0.5 " transform="matrix(100,0,0,100,600,350)"/>
</g>
</svg>
