<?xml version="1.0" encoding="UTF-8"?>
<svg xmlns="http://www.w3.org/2000/svg" xmlns:xlink="http://www.w3.org/1999/xlink" width="750pt" height="2800pt" viewBox="0 0 750 2800" version="1.1">
<g id="surface1">
<path style="fill:none;stroke-width:0.01;stroke-linecap:butt;stroke-linejoin:miter;stroke:rgb(0%,0%,0%);stroke-opacity:1;stroke-miterlimit:10;" d="M 0.0454688 0.489961 L 0.0494922 0.485937 L 0.0615625 0.485937 L 0.0655859 0.481914 L 0.0856641 0.481914 L 0.0896875 0.477891 L 0.0937109 0.477891 L 0.0977344 0.481914 L 0.113828 0.481914 L 0.117852 0.477891 L 0.117852 0.469844 L 0.137969 0.469844 L 0.141992 0.46582 L 0.141992 0.457773 L 0.146016 0.45375 L 0.166133 0.45375 L 0.170156 0.449727 L 0.166133 0.445703 L 0.166133 0.437656 L 0.170156 0.437656 L 0.17418 0.433633 L 0.178203 0.433633 L 0.182227 0.429609 L 0.190273 0.429609 L 0.194297 0.425586 L 0.194297 0.421562 L 0.190273 0.417539 L 0.194297 0.413516 L 0.210391 0.413516 L 0.214414 0.409492 L 0.222461 0.409492 L 0.226484 0.405469 L 0.222461 0.401445 L 0.222461 0.393398 L 0.226484 0.389375 L 0.250586 0.389375 L 0.254609 0.393398 L 0.258633 0.393398 L 0.262656 0.389375 L 0.262656 0.385352 L 0.26668 0.381328 L 0.274727 0.381328 L 0.27875 0.385352 L 0.286797 0.385352 L 0.29082 0.381328 L 0.294844 0.385352 L 0.310938 0.385352 L 0.314961 0.381328 L 0.314961 0.377305 L 0.318984 0.373281 L 0.318984 0.369258 L 0.323008 0.369258 L 0.327031 0.373281 L 0.343125 0.373281 L 0.347148 0.377305 L 0.351172 0.373281 L 0.351172 0.365234 L 0.347148 0.361211 L 0.347148 0.349141 L 0.351172 0.345117 L 0.351172 0.341094 L 0.347148 0.33707 L 0.347148 0.333047 L 0.343125 0.329023 L 0.339102 0.325039 L 0.339102 0.321016 L 0.331055 0.312969 L 0.355195 0.312969 L 0.359219 0.316992 L 0.367266 0.316992 L 0.375312 0.325039 L 0.379336 0.325039 L 0.383359 0.329023 L 0.387383 0.325039 L 0.391406 0.321016 L 0.39543 0.321016 L 0.399453 0.325039 L 0.403477 0.329023 L 0.4075 0.333047 L 0.431602 0.333047 L 0.435625 0.329023 L 0.435625 0.321016 L 0.439648 0.321016 L 0.443672 0.325039 L 0.463789 0.325039 L 0.467813 0.321016 L 0.471836 0.321016 L 0.475859 0.325039 L 0.479883 0.325039 L 0.483906 0.329023 L 0.48793 0.325039 L 0.491953 0.329023 L 0.495977 0.329023 L 0.5 0.325039 L 0.5 0.312969 L 0.495977 0.308945 L 0.495977 0.304922 L 0.520117 0.304922 L 0.524141 0.308945 L 0.540234 0.308945 L 0.548281 0.316992 L 0.552305 0.312969 L 0.556328 0.312969 L 0.560352 0.316992 L 0.564375 0.316992 L 0.568398 0.312969 L 0.568398 0.304922 L 0.572422 0.300898 L 0.580469 0.300898 L 0.584492 0.304922 L 0.596523 0.304922 L 0.60457 0.312969 L 0.608594 0.312969 L 0.612617 0.308945 L 0.612617 0.304922 L 0.616641 0.300898 L 0.616641 0.296875 L 0.624688 0.296875 L 0.628711 0.300898 L 0.632734 0.300898 L 0.640781 0.308945 L 0.644805 0.304922 L 0.656875 0.316992 L 0.660898 0.316992 L 0.664922 0.312969 L 0.668945 0.312969 L 0.676992 0.321016 L 0.681016 0.321016 L 0.685039 0.325039 L 0.689063 0.325039 L 0.693086 0.329023 L 0.697109 0.333047 L 0.701133 0.333047 L 0.705156 0.329023 L 0.705156 0.325039 L 0.713203 0.325039 L 0.717227 0.329023 L 0.72125 0.329023 L 0.725273 0.333047 L 0.741367 0.333047 L 0.741367 0.33707 L 0.745391 0.341094 L 0.749414 0.341094 L 0.753437 0.345117 L 0.757461 0.345117 L 0.761445 0.341094 L 0.769492 0.333047 L 0.785586 0.349141 L 0.793633 0.349141 L 0.80168 0.357188 L 0.805703 0.357188 L 0.81375 0.365234 L 0.821797 0.357188 L 0.82582 0.357188 L 0.833867 0.365234 L 0.833867 0.369258 L 0.841914 0.377305 L 0.845938 0.377305 L 0.858008 0.389375 L 0.870078 0.389375 L 0.870078 0.393398 L 0.874102 0.397422 L 0.874102 0.401445 L 0.882148 0.409492 L 0.882148 0.413516 L 0.886172 0.417539 L 0.894219 0.417539 L 0.898242 0.421562 L 0.898242 0.425586 L 0.906289 0.433633 L 0.906289 0.437656 L 0.910312 0.44168 L 0.914336 0.44168 L 0.918359 0.445703 L 0.918359 0.46582 L 0.914336 0.469844 L 0.922383 0.477891 L 0.926406 0.477891 L 0.926406 0.481914 L 0.93043 0.485937 L 0.93043 0.498008 L 0.934414 0.501992 L 0.934414 0.510039 L 0.942461 0.518086 L 0.950508 0.518086 L 0.954531 0.522109 L 0.954531 0.538203 L 0.950508 0.542227 L 0.938438 0.542227 L 0.934414 0.54625 L 0.910312 0.54625 L 0.890195 0.566367 L 0.886172 0.566367 L 0.882148 0.570391 L 0.882148 0.574414 L 0.874102 0.582461 L 0.870078 0.582461 L 0.866055 0.586484 L 0.862031 0.586484 L 0.849961 0.598555 L 0.845938 0.598555 L 0.841914 0.594531 L 0.829844 0.606602 L 0.82582 0.606602 L 0.821797 0.610625 L 0.817773 0.610625 L 0.81375 0.606602 L 0.809727 0.606602 L 0.80168 0.614648 L 0.797656 0.614648 L 0.793633 0.618672 L 0.777539 0.618672 L 0.773516 0.622695 L 0.769492 0.622695 L 0.765469 0.626719 L 0.753437 0.626719 L 0.745391 0.634766 L 0.741367 0.634766 L 0.737344 0.638789 L 0.73332 0.638789 L 0.729297 0.634766 L 0.725273 0.634766 L 0.72125 0.638789 L 0.717227 0.638789 L 0.713203 0.642813 L 0.70918 0.642813 L 0.705156 0.646836 L 0.701133 0.646836 L 0.697109 0.642813 L 0.693086 0.642813 L 0.681016 0.654883 L 0.676992 0.654883 L 0.672969 0.650859 L 0.664922 0.650859 L 0.656875 0.658906 L 0.652852 0.658906 L 0.644805 0.666953 L 0.640781 0.666953 L 0.636758 0.670977 L 0.628711 0.66293 L 0.624688 0.66293 L 0.616641 0.670977 L 0.60457 0.670977 L 0.600547 0.674961 L 0.5925 0.674961 L 0.5925 0.670977 L 0.588477 0.666953 L 0.584492 0.666953 L 0.580469 0.670977 L 0.576445 0.674961 L 0.572422 0.674961 L 0.564375 0.683008 L 0.560352 0.683008 L 0.552305 0.674961 L 0.544258 0.674961 L 0.536211 0.683008 L 0.532188 0.683008 L 0.528164 0.687031 L 0.524141 0.687031 L 0.520117 0.691055 L 0.516094 0.691055 L 0.51207 0.695078 L 0.504023 0.695078 L 0.504023 0.687031 L 0.5 0.683008 L 0.495977 0.683008 L 0.491953 0.687031 L 0.48793 0.687031 L 0.483906 0.691055 L 0.467813 0.691055 L 0.463789 0.695078 L 0.459766 0.695078 L 0.455742 0.699102 L 0.451719 0.699102 L 0.447695 0.703125 L 0.443672 0.703125 L 0.439648 0.699102 L 0.439648 0.695078 L 0.431602 0.687031 L 0.427578 0.691055 L 0.415508 0.691055 L 0.411523 0.695078 L 0.403477 0.695078 L 0.399453 0.691055 L 0.39543 0.695078 L 0.371289 0.695078 L 0.367266 0.691055 L 0.367266 0.678984 L 0.363242 0.674961 L 0.359219 0.678984 L 0.351172 0.678984 L 0.347148 0.674961 L 0.335078 0.674961 L 0.331055 0.678984 L 0.323008 0.678984 L 0.318984 0.674961 L 0.318984 0.670977 L 0.314961 0.666953 L 0.306914 0.666953 L 0.302891 0.670977 L 0.298867 0.666953 L 0.274727 0.666953 L 0.274727 0.658906 L 0.270703 0.654883 L 0.26668 0.654883 L 0.262656 0.658906 L 0.258633 0.654883 L 0.246563 0.654883 L 0.242539 0.650859 L 0.242539 0.646836 L 0.246563 0.642813 L 0.242539 0.638789 L 0.226484 0.638789 L 0.218438 0.630742 L 0.210391 0.630742 L 0.206367 0.626719 L 0.206367 0.622695 L 0.214414 0.614648 L 0.210391 0.610625 L 0.202344 0.610625 L 0.194297 0.602578 L 0.190273 0.602578 L 0.18625 0.598555 L 0.182227 0.598555 L 0.182227 0.594531 L 0.18625 0.590508 L 0.18625 0.586484 L 0.178203 0.578438 L 0.170156 0.578438 L 0.162109 0.570391 L 0.158086 0.570391 L 0.158086 0.566367 L 0.166133 0.55832 L 0.158086 0.550273 L 0.154062 0.550273 L 0.150039 0.54625 L 0.146016 0.54625 L 0.141992 0.542227 L 0.141992 0.538203 L 0.133945 0.530156 L 0.125898 0.530156 L 0.121875 0.526133 L 0.125898 0.522109 L 0.117852 0.514063 L 0.113828 0.518086 L 0.109805 0.518086 L 0.105781 0.514063 L 0.105781 0.510039 L 0.101758 0.506016 L 0.0816406 0.506016 L 0.0776172 0.501992 L 0.0655859 0.501992 L 0.0615625 0.498008 L 0.0575391 0.498008 L 0.0535156 0.493984 L 0.0454688 0.493984 Z M 0.0454688 0.489961 " transform="matrix(100,0,0,100,0,200)"/>
<path style="fill:none;stroke-width:0.01;stroke-linecap:butt;stroke-linejoin:miter;stroke:rgb(0%,0%,0%);stroke-opacity:1;stroke-miterlimit:10;" d="M 0.0454687 0.557656 L 0.0498828 0.553203 L 0.0543359 0.553203 L 0.05875 0.548789 L 0.0632031 0.548789 L 0.0676172 0.544336 L 0.0720703 0.544336 L 0.0764844 0.539922 L 0.0809375 0.539922 L 0.0853516 0.535469 L 0.0942188 0.535469 L 0.0986719 0.531055 L 0.103086 0.526602 L 0.107539 0.522188 L 0.111992 0.522188 L 0.116406 0.517734 L 0.120859 0.51332 L 0.125273 0.51332 L 0.129727 0.508867 L 0.125273 0.504453 L 0.125273 0.5 L 0.129727 0.495547 L 0.134141 0.495547 L 0.138594 0.491133 L 0.151875 0.491133 L 0.156328 0.48668 L 0.151875 0.482266 L 0.151875 0.473398 L 0.160742 0.464531 L 0.178477 0.464531 L 0.18293 0.460078 L 0.178477 0.455664 L 0.178477 0.451211 L 0.174063 0.446797 L 0.178477 0.442344 L 0.18293 0.43793 L 0.187344 0.43793 L 0.191797 0.433477 L 0.19625 0.429063 L 0.19625 0.424609 L 0.200664 0.424609 L 0.205117 0.420195 L 0.213984 0.420195 L 0.218398 0.415742 L 0.213984 0.411289 L 0.218398 0.406875 L 0.231719 0.406875 L 0.236133 0.402422 L 0.236133 0.398008 L 0.240586 0.393555 L 0.245 0.393555 L 0.249453 0.389141 L 0.25832 0.389141 L 0.262734 0.393555 L 0.267188 0.389141 L 0.267188 0.380273 L 0.262734 0.37582 L 0.262734 0.371406 L 0.267188 0.366953 L 0.271602 0.371406 L 0.280469 0.362539 L 0.284922 0.362539 L 0.289375 0.366953 L 0.293789 0.366953 L 0.298242 0.362539 L 0.302656 0.358086 L 0.302656 0.353672 L 0.329258 0.353672 L 0.333711 0.349219 L 0.333711 0.344805 L 0.338125 0.344805 L 0.342578 0.340352 L 0.346992 0.344805 L 0.355859 0.335938 L 0.3825 0.335938 L 0.386914 0.331484 L 0.386914 0.322617 L 0.391367 0.322617 L 0.395781 0.318164 L 0.400234 0.322617 L 0.417969 0.322617 L 0.422383 0.318164 L 0.426836 0.31375 L 0.43125 0.309297 L 0.43125 0.304883 L 0.426836 0.30043 L 0.426836 0.296016 L 0.422383 0.291562 L 0.422383 0.287148 L 0.417969 0.282695 L 0.417969 0.273828 L 0.426836 0.273828 L 0.43125 0.278281 L 0.435703 0.278281 L 0.440117 0.282695 L 0.457891 0.282695 L 0.462305 0.287148 L 0.466758 0.287148 L 0.471172 0.282695 L 0.484492 0.282695 L 0.488906 0.287148 L 0.497773 0.287148 L 0.502227 0.282695 L 0.502227 0.278281 L 0.506641 0.273828 L 0.511094 0.273828 L 0.515508 0.278281 L 0.537695 0.278281 L 0.542109 0.282695 L 0.546562 0.282695 L 0.551016 0.278281 L 0.551016 0.269414 L 0.582031 0.269414 L 0.586484 0.273828 L 0.590898 0.273828 L 0.595352 0.269414 L 0.613086 0.269414 L 0.6175 0.273828 L 0.621953 0.273828 L 0.626367 0.269414 L 0.626367 0.264961 L 0.635273 0.264961 L 0.639687 0.260547 L 0.644141 0.264961 L 0.657422 0.264961 L 0.666289 0.273828 L 0.675156 0.273828 L 0.679609 0.269414 L 0.684023 0.269414 L 0.684023 0.273828 L 0.688477 0.278281 L 0.701758 0.278281 L 0.706211 0.282695 L 0.710625 0.278281 L 0.723945 0.278281 L 0.728398 0.282695 L 0.732813 0.287148 L 0.737266 0.287148 L 0.746133 0.296016 L 0.750547 0.291562 L 0.755 0.291562 L 0.759414 0.296016 L 0.763867 0.296016 L 0.772734 0.304883 L 0.772734 0.309297 L 0.777148 0.31375 L 0.794883 0.31375 L 0.799336 0.318164 L 0.80375 0.322617 L 0.808203 0.322617 L 0.812656 0.32707 L 0.812656 0.331484 L 0.81707 0.335938 L 0.821523 0.331484 L 0.830391 0.331484 L 0.834805 0.335938 L 0.839258 0.340352 L 0.839258 0.344805 L 0.843672 0.349219 L 0.856992 0.349219 L 0.861406 0.353672 L 0.861406 0.358086 L 0.865859 0.362539 L 0.865859 0.366953 L 0.870273 0.371406 L 0.874727 0.37582 L 0.883594 0.37582 L 0.883594 0.380273 L 0.888008 0.384688 L 0.888008 0.393555 L 0.892461 0.398008 L 0.892461 0.402422 L 0.896914 0.406875 L 0.901328 0.406875 L 0.905781 0.411289 L 0.905781 0.420195 L 0.914648 0.429063 L 0.914648 0.43793 L 0.919062 0.442344 L 0.923516 0.442344 L 0.92793 0.446797 L 0.92793 0.468945 L 0.932383 0.473398 L 0.932383 0.482266 L 0.936797 0.48668 L 0.936797 0.491133 L 0.932383 0.495547 L 0.932383 0.522188 L 0.92793 0.526602 L 0.92793 0.535469 L 0.932383 0.539922 L 0.945664 0.539922 L 0.945664 0.544336 L 0.954531 0.553203 L 0.950117 0.557656 L 0.950117 0.56207 L 0.945664 0.566523 L 0.92793 0.566523 L 0.923516 0.56207 L 0.919062 0.56207 L 0.914648 0.557656 L 0.910195 0.557656 L 0.905781 0.553203 L 0.901328 0.548789 L 0.896914 0.548789 L 0.892461 0.544336 L 0.888008 0.539922 L 0.879141 0.539922 L 0.874727 0.535469 L 0.870273 0.535469 L 0.865859 0.539922 L 0.861406 0.544336 L 0.861406 0.548789 L 0.825938 0.584258 L 0.825938 0.588711 L 0.821523 0.588711 L 0.81707 0.593125 L 0.812656 0.597578 L 0.812656 0.601992 L 0.808203 0.606445 L 0.80375 0.610859 L 0.799336 0.610859 L 0.790469 0.619727 L 0.790469 0.62418 L 0.786016 0.628594 L 0.781602 0.628594 L 0.772734 0.637461 L 0.772734 0.641914 L 0.768281 0.646328 L 0.763867 0.650781 L 0.755 0.650781 L 0.750547 0.655195 L 0.750547 0.659648 L 0.746133 0.664062 L 0.74168 0.664062 L 0.737266 0.668516 L 0.728398 0.668516 L 0.723945 0.67293 L 0.719531 0.677383 L 0.715078 0.681836 L 0.706211 0.681836 L 0.701758 0.68625 L 0.697344 0.68625 L 0.688477 0.695117 L 0.675156 0.695117 L 0.670742 0.69957 L 0.666289 0.703984 L 0.661875 0.703984 L 0.657422 0.708438 L 0.635273 0.708438 L 0.63082 0.712852 L 0.626367 0.717305 L 0.621953 0.717305 L 0.6175 0.721719 L 0.613086 0.721719 L 0.608633 0.717305 L 0.604219 0.717305 L 0.599766 0.721719 L 0.590898 0.721719 L 0.586484 0.726172 L 0.577617 0.726172 L 0.573164 0.730586 L 0.56875 0.726172 L 0.564297 0.726172 L 0.559883 0.730586 L 0.55543 0.730586 L 0.551016 0.726172 L 0.546562 0.730586 L 0.542109 0.735039 L 0.524375 0.735039 L 0.519961 0.730586 L 0.515508 0.735039 L 0.511094 0.735039 L 0.506641 0.730586 L 0.502227 0.735039 L 0.497773 0.735039 L 0.493359 0.739453 L 0.480039 0.739453 L 0.475625 0.735039 L 0.466758 0.735039 L 0.462305 0.730586 L 0.457891 0.735039 L 0.453437 0.739453 L 0.435703 0.739453 L 0.43125 0.735039 L 0.409102 0.735039 L 0.404648 0.739453 L 0.395781 0.739453 L 0.386914 0.730586 L 0.373633 0.730586 L 0.36918 0.735039 L 0.351445 0.735039 L 0.346992 0.730586 L 0.329258 0.730586 L 0.324844 0.735039 L 0.315977 0.726172 L 0.289375 0.726172 L 0.284922 0.721719 L 0.284922 0.717305 L 0.280469 0.712852 L 0.271602 0.712852 L 0.267188 0.708438 L 0.249453 0.708438 L 0.245 0.703984 L 0.236133 0.703984 L 0.236133 0.69957 L 0.231719 0.695117 L 0.222852 0.695117 L 0.222852 0.67293 L 0.218398 0.668516 L 0.213984 0.67293 L 0.209531 0.67293 L 0.205117 0.668516 L 0.19625 0.668516 L 0.191797 0.664062 L 0.191797 0.655195 L 0.187344 0.650781 L 0.18293 0.646328 L 0.178477 0.646328 L 0.174063 0.641914 L 0.169609 0.641914 L 0.169609 0.633047 L 0.165195 0.628594 L 0.156328 0.628594 L 0.156328 0.62418 L 0.151875 0.619727 L 0.147461 0.619727 L 0.147461 0.615312 L 0.151875 0.610859 L 0.151875 0.606445 L 0.147461 0.601992 L 0.134141 0.601992 L 0.129727 0.597578 L 0.125273 0.597578 L 0.125273 0.584258 L 0.120859 0.579805 L 0.116406 0.579805 L 0.107539 0.570937 L 0.103086 0.566523 L 0.0898047 0.566523 L 0.0853516 0.56207 L 0.0454687 0.56207 Z M 0.0454687 0.557656 " transform="matrix(100,0,0,100,150,200)"/>
<path style="fill:none;stroke-width:0.01;stroke-linecap:butt;stroke-linejoin:miter;stroke:rgb(0%,0%,0%);stroke-opacity:1;stroke-miterlimit:10;" d="M 0.0454687 0.445195 L 0.0495313 0.445195 L 0.0535547 0.441172 L 0.0819922 0.441172 L 0.0860547 0.437109 L 0.0941406 0.437109 L 0.0982031 0.441172 L 0.114453 0.424922 L 0.118516 0.424922 L 0.122578 0.420859 L 0.122578 0.416797 L 0.130664 0.416797 L 0.134727 0.412734 L 0.138789 0.412734 L 0.142852 0.408672 L 0.142852 0.400586 L 0.150977 0.392461 L 0.155039 0.392461 L 0.163164 0.384336 L 0.163164 0.380273 L 0.17125 0.380273 L 0.175312 0.376211 L 0.175312 0.368086 L 0.179375 0.364023 L 0.183438 0.364023 L 0.1875 0.36 L 0.191562 0.36 L 0.195625 0.355938 L 0.195625 0.347812 L 0.20375 0.339688 L 0.207773 0.335625 L 0.211836 0.339688 L 0.215898 0.339688 L 0.219961 0.335625 L 0.219961 0.3275 L 0.228086 0.3275 L 0.232148 0.323477 L 0.236211 0.319414 L 0.244336 0.319414 L 0.248359 0.315352 L 0.252422 0.311289 L 0.260547 0.311289 L 0.264609 0.307227 L 0.284922 0.307227 L 0.288945 0.303164 L 0.293008 0.303164 L 0.301133 0.295039 L 0.301133 0.290977 L 0.31332 0.290977 L 0.317383 0.286914 L 0.325469 0.286914 L 0.329531 0.290977 L 0.337656 0.290977 L 0.341719 0.286914 L 0.341719 0.278828 L 0.349844 0.278828 L 0.353906 0.274766 L 0.357969 0.278828 L 0.370117 0.278828 L 0.378242 0.270703 L 0.382305 0.270703 L 0.386367 0.266641 L 0.39043 0.266641 L 0.394492 0.270703 L 0.406641 0.270703 L 0.410703 0.274766 L 0.414766 0.274766 L 0.422891 0.266641 L 0.426953 0.270703 L 0.439141 0.270703 L 0.443164 0.274766 L 0.447227 0.274766 L 0.455352 0.266641 L 0.459414 0.270703 L 0.467539 0.270703 L 0.471602 0.274766 L 0.479727 0.274766 L 0.48375 0.278828 L 0.495938 0.278828 L 0.5 0.274766 L 0.512188 0.274766 L 0.51625 0.278828 L 0.520273 0.278828 L 0.524336 0.282891 L 0.528398 0.282891 L 0.532461 0.278828 L 0.540586 0.278828 L 0.544648 0.282891 L 0.552773 0.282891 L 0.556836 0.286914 L 0.573047 0.286914 L 0.577109 0.290977 L 0.589297 0.290977 L 0.593359 0.295039 L 0.597422 0.290977 L 0.601445 0.286914 L 0.605508 0.290977 L 0.617695 0.290977 L 0.629883 0.303164 L 0.633945 0.303164 L 0.637969 0.299102 L 0.646094 0.307227 L 0.658281 0.307227 L 0.658281 0.311289 L 0.662344 0.315352 L 0.666406 0.315352 L 0.670469 0.311289 L 0.670469 0.307227 L 0.674531 0.311289 L 0.678555 0.311289 L 0.68668 0.319414 L 0.698867 0.319414 L 0.70293 0.323477 L 0.706992 0.323477 L 0.711055 0.3275 L 0.715078 0.3275 L 0.723203 0.335625 L 0.727266 0.331562 L 0.739453 0.34375 L 0.743516 0.34375 L 0.747578 0.347812 L 0.751641 0.347812 L 0.755664 0.351875 L 0.755664 0.355938 L 0.759727 0.36 L 0.763789 0.36 L 0.763789 0.364023 L 0.788164 0.388398 L 0.788164 0.392461 L 0.792227 0.396523 L 0.79625 0.400586 L 0.79625 0.404609 L 0.808438 0.416797 L 0.808438 0.420859 L 0.8125 0.424922 L 0.8125 0.428984 L 0.820625 0.437109 L 0.820625 0.441172 L 0.824688 0.445195 L 0.82875 0.449258 L 0.832773 0.445195 L 0.836836 0.445195 L 0.840898 0.441172 L 0.844961 0.437109 L 0.849023 0.437109 L 0.857148 0.428984 L 0.865273 0.428984 L 0.869336 0.424922 L 0.877422 0.424922 L 0.881484 0.420859 L 0.885547 0.424922 L 0.897734 0.424922 L 0.901797 0.420859 L 0.901797 0.404609 L 0.905859 0.400586 L 0.905859 0.368086 L 0.913945 0.36 L 0.913945 0.355938 L 0.918008 0.351875 L 0.926133 0.351875 L 0.930195 0.347812 L 0.954531 0.347812 L 0.930195 0.347812 L 0.918008 0.36 L 0.913945 0.364023 L 0.909922 0.368086 L 0.909922 0.420859 L 0.913945 0.424922 L 0.913945 0.428984 L 0.918008 0.433047 L 0.913945 0.433047 L 0.909922 0.437109 L 0.909922 0.441172 L 0.905859 0.441172 L 0.901797 0.445195 L 0.897734 0.445195 L 0.893672 0.449258 L 0.885547 0.449258 L 0.881484 0.45332 L 0.881484 0.457383 L 0.885547 0.461445 L 0.885547 0.465508 L 0.889609 0.46957 L 0.889609 0.497969 L 0.893672 0.502031 L 0.893672 0.522305 L 0.889609 0.526367 L 0.889609 0.550742 L 0.885547 0.554805 L 0.885547 0.558828 L 0.881484 0.558828 L 0.877422 0.562891 L 0.881484 0.566953 L 0.881484 0.579141 L 0.877422 0.583203 L 0.877422 0.587266 L 0.873359 0.587266 L 0.869336 0.591328 L 0.869336 0.599414 L 0.865273 0.603477 L 0.865273 0.607539 L 0.861211 0.611602 L 0.861211 0.615664 L 0.853086 0.615664 L 0.849023 0.619727 L 0.849023 0.627852 L 0.844961 0.631914 L 0.844961 0.635977 L 0.840898 0.64 L 0.836836 0.644062 L 0.832773 0.644062 L 0.82875 0.64 L 0.824688 0.64 L 0.820625 0.644062 L 0.820625 0.648125 L 0.816562 0.652188 L 0.816562 0.65625 L 0.8125 0.660312 L 0.808438 0.660312 L 0.804375 0.664375 L 0.79625 0.664375 L 0.792227 0.660312 L 0.784102 0.668438 L 0.784102 0.6725 L 0.780039 0.676523 L 0.763789 0.692773 L 0.759727 0.692773 L 0.755664 0.688711 L 0.751641 0.684648 L 0.735391 0.700898 L 0.731328 0.700898 L 0.727266 0.704961 L 0.723203 0.704961 L 0.719141 0.709023 L 0.715078 0.704961 L 0.711055 0.700898 L 0.698867 0.713086 L 0.694805 0.713086 L 0.690742 0.717109 L 0.68668 0.717109 L 0.682617 0.713086 L 0.678555 0.717109 L 0.670469 0.717109 L 0.666406 0.713086 L 0.662344 0.709023 L 0.658281 0.713086 L 0.654219 0.717109 L 0.650156 0.721172 L 0.642031 0.721172 L 0.637969 0.725234 L 0.621758 0.725234 L 0.621758 0.721172 L 0.617695 0.717109 L 0.60957 0.725234 L 0.60957 0.729297 L 0.605508 0.729297 L 0.601445 0.725234 L 0.597422 0.729297 L 0.593359 0.733359 L 0.581172 0.733359 L 0.573047 0.725234 L 0.568984 0.725234 L 0.564922 0.729297 L 0.560859 0.729297 L 0.556836 0.733359 L 0.548711 0.733359 L 0.544648 0.729297 L 0.536523 0.729297 L 0.532461 0.733359 L 0.532461 0.729297 L 0.528398 0.725234 L 0.528398 0.721172 L 0.524336 0.717109 L 0.520273 0.721172 L 0.512188 0.721172 L 0.508125 0.725234 L 0.504062 0.725234 L 0.5 0.729297 L 0.495938 0.725234 L 0.475664 0.725234 L 0.471602 0.721172 L 0.471602 0.713086 L 0.467539 0.709023 L 0.463477 0.713086 L 0.459414 0.713086 L 0.455352 0.709023 L 0.451289 0.713086 L 0.439141 0.713086 L 0.439141 0.704961 L 0.435078 0.700898 L 0.431016 0.700898 L 0.426953 0.696836 L 0.422891 0.696836 L 0.418828 0.700898 L 0.410703 0.700898 L 0.402578 0.692773 L 0.398555 0.696836 L 0.394492 0.692773 L 0.386367 0.692773 L 0.382305 0.688711 L 0.37418 0.688711 L 0.370117 0.684648 L 0.370117 0.680586 L 0.366055 0.676523 L 0.362031 0.680586 L 0.353906 0.680586 L 0.349844 0.676523 L 0.345781 0.676523 L 0.341719 0.6725 L 0.337656 0.6725 L 0.333594 0.668438 L 0.337656 0.664375 L 0.333594 0.660312 L 0.305195 0.660312 L 0.301133 0.65625 L 0.301133 0.652188 L 0.29707 0.648125 L 0.293008 0.648125 L 0.288945 0.644062 L 0.280859 0.644062 L 0.276797 0.64 L 0.272734 0.635977 L 0.268672 0.631914 L 0.264609 0.635977 L 0.260547 0.635977 L 0.260547 0.631914 L 0.256484 0.627852 L 0.248359 0.627852 L 0.244336 0.623789 L 0.244336 0.615664 L 0.240273 0.611602 L 0.236211 0.611602 L 0.228086 0.603477 L 0.215898 0.603477 L 0.211836 0.599414 L 0.211836 0.591328 L 0.207773 0.587266 L 0.20375 0.583203 L 0.199688 0.579141 L 0.195625 0.579141 L 0.1875 0.571016 L 0.1875 0.562891 L 0.183438 0.558828 L 0.179375 0.554805 L 0.17125 0.554805 L 0.167227 0.550742 L 0.163164 0.54668 L 0.159102 0.54668 L 0.159102 0.542617 L 0.146914 0.53043 L 0.142852 0.53043 L 0.142852 0.526367 L 0.146914 0.522305 L 0.146914 0.514219 L 0.142852 0.510156 L 0.126641 0.510156 L 0.118516 0.502031 L 0.118516 0.493906 L 0.114453 0.489844 L 0.106328 0.489844 L 0.102266 0.485781 L 0.106328 0.481719 L 0.102266 0.477695 L 0.0941406 0.477695 L 0.0900781 0.473633 L 0.0860547 0.473633 L 0.0819922 0.46957 L 0.0779297 0.46957 L 0.0738672 0.465508 L 0.0698047 0.465508 L 0.0616797 0.457383 L 0.0535547 0.457383 L 0.0495313 0.45332 L 0.0495313 0.449258 Z M 0.0454687 0.445195 " transform="matrix(100,0,0,100,300,200)"/>
<path style="fill:none;stroke-width:0.01;stroke-linecap:butt;stroke-linejoin:miter;stroke:rgb(0%,0%,0%);stroke-opacity:1;stroke-miterlimit:10;" d="M 0.0454688 0.519844 L 0.0533984 0.511914 L 0.0653125 0.511914 L 0.0692578 0.50793 L 0.0772266 0.50793 L 0.0811719 0.503984 L 0.101016 0.503984 L 0.105 0.5 L 0.11293 0.5 L 0.116914 0.496016 L 0.120898 0.496016 L 0.124844 0.49207 L 0.124844 0.488086 L 0.128828 0.484102 L 0.136758 0.484102 L 0.140742 0.480156 L 0.144687 0.476172 L 0.152656 0.476172 L 0.156602 0.472227 L 0.156602 0.468242 L 0.160586 0.464258 L 0.164531 0.464258 L 0.168516 0.460313 L 0.18043 0.460313 L 0.184414 0.456328 L 0.184414 0.444414 L 0.192344 0.444414 L 0.196289 0.440469 L 0.204258 0.440469 L 0.208203 0.436484 L 0.208203 0.42457 L 0.228086 0.42457 L 0.232031 0.420586 L 0.236016 0.416641 L 0.251875 0.416641 L 0.255859 0.412656 L 0.255859 0.408711 L 0.259844 0.408711 L 0.263789 0.404727 L 0.267773 0.400742 L 0.271719 0.400742 L 0.275703 0.396797 L 0.275703 0.380898 L 0.279688 0.376953 L 0.287617 0.376953 L 0.291602 0.372969 L 0.299531 0.372969 L 0.303477 0.368984 L 0.303477 0.365039 L 0.307461 0.361055 L 0.327305 0.361055 L 0.331289 0.365039 L 0.335234 0.361055 L 0.335234 0.35707 L 0.359063 0.35707 L 0.363047 0.353125 L 0.363047 0.345195 L 0.374961 0.345195 L 0.378906 0.349141 L 0.382891 0.345195 L 0.386875 0.345195 L 0.39082 0.349141 L 0.394805 0.345195 L 0.394805 0.337227 L 0.39875 0.333281 L 0.422578 0.333281 L 0.426563 0.337227 L 0.434492 0.337227 L 0.438477 0.333281 L 0.438477 0.329297 L 0.462305 0.329297 L 0.46625 0.333281 L 0.470234 0.333281 L 0.47418 0.329297 L 0.470234 0.325312 L 0.470234 0.321367 L 0.478164 0.321367 L 0.482148 0.325312 L 0.498008 0.325312 L 0.501992 0.329297 L 0.505937 0.325312 L 0.505937 0.321367 L 0.509922 0.317383 L 0.521836 0.317383 L 0.52582 0.321367 L 0.537695 0.321367 L 0.54168 0.325312 L 0.545664 0.325312 L 0.553594 0.317383 L 0.561523 0.317383 L 0.565508 0.321367 L 0.573437 0.321367 L 0.577422 0.325312 L 0.581367 0.329297 L 0.593281 0.329297 L 0.597266 0.325312 L 0.60125 0.321367 L 0.605195 0.321367 L 0.60918 0.325312 L 0.613125 0.325312 L 0.617109 0.329297 L 0.625039 0.329297 L 0.629023 0.325312 L 0.629023 0.321367 L 0.625039 0.317383 L 0.625039 0.313438 L 0.621094 0.309453 L 0.625039 0.305469 L 0.629023 0.305469 L 0.633008 0.309453 L 0.636953 0.313438 L 0.640937 0.317383 L 0.644883 0.317383 L 0.644883 0.321367 L 0.648867 0.325312 L 0.652852 0.325312 L 0.656797 0.329297 L 0.660781 0.329297 L 0.664766 0.325312 L 0.668711 0.329297 L 0.672695 0.329297 L 0.676641 0.333281 L 0.680625 0.333281 L 0.684609 0.337227 L 0.688555 0.337227 L 0.704453 0.353125 L 0.708398 0.349141 L 0.712383 0.353125 L 0.716367 0.353125 L 0.720313 0.35707 L 0.724297 0.35707 L 0.728281 0.361055 L 0.728281 0.365039 L 0.724297 0.368984 L 0.724297 0.384883 L 0.728281 0.388828 L 0.728281 0.396797 L 0.732227 0.400742 L 0.736211 0.396797 L 0.744141 0.396797 L 0.748125 0.400742 L 0.75207 0.400742 L 0.75207 0.404727 L 0.756055 0.408711 L 0.760039 0.408711 L 0.767969 0.416641 L 0.767969 0.420586 L 0.771914 0.42457 L 0.775898 0.428555 L 0.779883 0.4325 L 0.787813 0.4325 L 0.791797 0.436484 L 0.795742 0.4325 L 0.795742 0.42457 L 0.791797 0.420586 L 0.787813 0.416641 L 0.787813 0.400742 L 0.791797 0.396797 L 0.795742 0.396797 L 0.799727 0.400742 L 0.803711 0.404727 L 0.807656 0.404727 L 0.81957 0.416641 L 0.81957 0.420586 L 0.823555 0.42457 L 0.835469 0.42457 L 0.839414 0.428555 L 0.839414 0.4325 L 0.843398 0.436484 L 0.843398 0.440469 L 0.839414 0.444414 L 0.835469 0.448398 L 0.835469 0.456328 L 0.839414 0.460313 L 0.843398 0.460313 L 0.847344 0.456328 L 0.851328 0.452344 L 0.855313 0.448398 L 0.859258 0.448398 L 0.863242 0.452344 L 0.863242 0.456328 L 0.867227 0.460313 L 0.871172 0.460313 L 0.871172 0.464258 L 0.875156 0.468242 L 0.879102 0.472227 L 0.883086 0.472227 L 0.88707 0.476172 L 0.891016 0.480156 L 0.891016 0.484102 L 0.895 0.488086 L 0.895 0.496016 L 0.898984 0.5 L 0.90293 0.5 L 0.906914 0.503984 L 0.906914 0.511914 L 0.910859 0.515898 L 0.910859 0.527773 L 0.914844 0.531758 L 0.914844 0.535742 L 0.918828 0.539687 L 0.918828 0.543672 L 0.922773 0.547656 L 0.922773 0.57543 L 0.918828 0.579414 L 0.918828 0.583359 L 0.922773 0.587344 L 0.934687 0.587344 L 0.938672 0.583359 L 0.946602 0.583359 L 0.954531 0.591289 L 0.954531 0.595273 L 0.950586 0.599258 L 0.946602 0.599258 L 0.942617 0.603203 L 0.938672 0.607188 L 0.930742 0.607188 L 0.926758 0.603203 L 0.922773 0.603203 L 0.918828 0.599258 L 0.914844 0.599258 L 0.910859 0.595273 L 0.906914 0.595273 L 0.90293 0.591289 L 0.898984 0.591289 L 0.895 0.587344 L 0.891016 0.587344 L 0.88707 0.583359 L 0.883086 0.583359 L 0.879102 0.579414 L 0.875156 0.579414 L 0.871172 0.57543 L 0.867227 0.579414 L 0.863242 0.579414 L 0.859258 0.583359 L 0.855313 0.587344 L 0.851328 0.587344 L 0.847344 0.591289 L 0.843398 0.595273 L 0.831484 0.595273 L 0.823555 0.603203 L 0.811641 0.603203 L 0.807656 0.607188 L 0.803711 0.607188 L 0.799727 0.611172 L 0.787813 0.611172 L 0.783828 0.615117 L 0.779883 0.619102 L 0.775898 0.619102 L 0.771914 0.623047 L 0.767969 0.619102 L 0.763984 0.623047 L 0.760039 0.627031 L 0.756055 0.627031 L 0.744141 0.638945 L 0.724297 0.638945 L 0.716367 0.646875 L 0.712383 0.646875 L 0.708398 0.650859 L 0.704453 0.646875 L 0.700469 0.646875 L 0.696523 0.650859 L 0.692539 0.650859 L 0.688555 0.654805 L 0.672695 0.654805 L 0.668711 0.658789 L 0.652852 0.658789 L 0.648867 0.662773 L 0.644883 0.662773 L 0.640937 0.666719 L 0.633008 0.666719 L 0.629023 0.670703 L 0.625039 0.666719 L 0.617109 0.666719 L 0.613125 0.670703 L 0.60125 0.670703 L 0.597266 0.666719 L 0.593281 0.666719 L 0.589336 0.670703 L 0.577422 0.670703 L 0.573437 0.674688 L 0.569453 0.674688 L 0.565508 0.678633 L 0.561523 0.678633 L 0.561523 0.674688 L 0.557578 0.670703 L 0.553594 0.674688 L 0.549609 0.678633 L 0.545664 0.678633 L 0.54168 0.682617 L 0.52582 0.682617 L 0.521836 0.678633 L 0.517852 0.678633 L 0.513906 0.682617 L 0.509922 0.686562 L 0.505937 0.682617 L 0.501992 0.686562 L 0.482148 0.686562 L 0.478164 0.682617 L 0.47418 0.682617 L 0.470234 0.686562 L 0.45832 0.686562 L 0.454336 0.690547 L 0.450391 0.694531 L 0.438477 0.694531 L 0.434492 0.690547 L 0.430547 0.690547 L 0.426563 0.686562 L 0.422578 0.690547 L 0.418633 0.694531 L 0.414648 0.694531 L 0.410664 0.690547 L 0.406719 0.686562 L 0.402734 0.690547 L 0.39082 0.690547 L 0.386875 0.694531 L 0.370977 0.694531 L 0.370977 0.690547 L 0.366992 0.686562 L 0.327305 0.686562 L 0.323359 0.682617 L 0.323359 0.678633 L 0.319375 0.674688 L 0.315391 0.678633 L 0.311445 0.678633 L 0.307461 0.674688 L 0.291602 0.674688 L 0.287617 0.670703 L 0.287617 0.666719 L 0.283633 0.662773 L 0.279688 0.658789 L 0.267773 0.658789 L 0.263789 0.654805 L 0.263789 0.650859 L 0.259844 0.646875 L 0.255859 0.64293 L 0.243945 0.64293 L 0.243945 0.631016 L 0.239961 0.627031 L 0.224102 0.627031 L 0.220117 0.623047 L 0.216172 0.623047 L 0.212187 0.619102 L 0.212187 0.615117 L 0.208203 0.611172 L 0.200273 0.611172 L 0.196289 0.607188 L 0.188359 0.607188 L 0.184414 0.603203 L 0.184414 0.599258 L 0.188359 0.595273 L 0.188359 0.591289 L 0.184414 0.587344 L 0.176445 0.587344 L 0.1725 0.583359 L 0.160586 0.583359 L 0.156602 0.579414 L 0.156602 0.57543 L 0.160586 0.571445 L 0.156602 0.5675 L 0.152656 0.5675 L 0.148672 0.563516 L 0.140742 0.563516 L 0.136758 0.559531 L 0.136758 0.555586 L 0.132773 0.551602 L 0.124844 0.551602 L 0.116914 0.543672 L 0.11293 0.543672 L 0.11293 0.539687 L 0.105 0.531758 L 0.101016 0.535742 L 0.0930859 0.535742 L 0.0891406 0.531758 L 0.0851562 0.531758 L 0.0811719 0.527773 L 0.0692578 0.527773 L 0.0653125 0.523828 L 0.0454688 0.523828 Z M 0.0454688 0.519844 " transform="matrix(100,0,0,100,450,200)"/>
<path style="fill:none;stroke-width:0.01;stroke-linecap:butt;stroke-linejoin:miter;stroke:rgb(0%,0%,0%);stroke-opacity:1;stroke-miterlimit:10;" d="M 0.0454688 0.528789 L 0.0495703 0.524688 L 0.0536719 0.524688 L 0.0578125 0.520586 L 0.0701172 0.520586 L 0.0742578 0.516445 L 0.0866016 0.516445 L 0.0907031 0.512344 L 0.0989453 0.512344 L 0.103047 0.508242 L 0.107148 0.512344 L 0.111289 0.508242 L 0.115391 0.504102 L 0.115391 0.495898 L 0.127734 0.495898 L 0.131836 0.5 L 0.135937 0.5 L 0.140078 0.495898 L 0.14418 0.495898 L 0.148281 0.491758 L 0.148281 0.479414 L 0.164766 0.479414 L 0.172969 0.471211 L 0.172969 0.467109 L 0.17707 0.462969 L 0.189414 0.462969 L 0.193555 0.458867 L 0.197656 0.458867 L 0.201758 0.454766 L 0.201758 0.450625 L 0.193555 0.442422 L 0.193555 0.438281 L 0.21 0.421836 L 0.218242 0.421836 L 0.226445 0.413633 L 0.226445 0.409492 L 0.222344 0.405391 L 0.222344 0.393047 L 0.230547 0.393047 L 0.234687 0.388945 L 0.238789 0.388945 L 0.242891 0.384805 L 0.247031 0.380703 L 0.255234 0.380703 L 0.259375 0.384805 L 0.263477 0.380703 L 0.267578 0.380703 L 0.27168 0.376602 L 0.267578 0.372461 L 0.259375 0.364258 L 0.259375 0.360156 L 0.263477 0.356016 L 0.267578 0.351914 L 0.27168 0.351914 L 0.27582 0.347812 L 0.288164 0.347812 L 0.292266 0.343672 L 0.296367 0.33957 L 0.316953 0.33957 L 0.321055 0.335469 L 0.321055 0.323125 L 0.325156 0.319023 L 0.325156 0.314883 L 0.341641 0.314883 L 0.345742 0.319023 L 0.349844 0.314883 L 0.366328 0.314883 L 0.37043 0.319023 L 0.378633 0.319023 L 0.382773 0.323125 L 0.386875 0.323125 L 0.390977 0.319023 L 0.390977 0.30668 L 0.411563 0.30668 L 0.415664 0.310781 L 0.43625 0.310781 L 0.440352 0.314883 L 0.444453 0.314883 L 0.448594 0.319023 L 0.452695 0.319023 L 0.456797 0.314883 L 0.456797 0.30668 L 0.477383 0.30668 L 0.485586 0.314883 L 0.493828 0.314883 L 0.49793 0.319023 L 0.50207 0.319023 L 0.506172 0.323125 L 0.514414 0.323125 L 0.518516 0.319023 L 0.522617 0.314883 L 0.534961 0.314883 L 0.539062 0.319023 L 0.543203 0.323125 L 0.547305 0.323125 L 0.551406 0.327227 L 0.555547 0.323125 L 0.567891 0.323125 L 0.571992 0.327227 L 0.584336 0.327227 L 0.588438 0.331328 L 0.592539 0.335469 L 0.59668 0.335469 L 0.600781 0.331328 L 0.613125 0.331328 L 0.617227 0.335469 L 0.621367 0.331328 L 0.621367 0.323125 L 0.633672 0.323125 L 0.637812 0.327227 L 0.646016 0.327227 L 0.650156 0.331328 L 0.654258 0.335469 L 0.658359 0.335469 L 0.6625 0.331328 L 0.6625 0.327227 L 0.674844 0.327227 L 0.678945 0.331328 L 0.683047 0.331328 L 0.687148 0.335469 L 0.691289 0.335469 L 0.695391 0.33957 L 0.699492 0.33957 L 0.703633 0.335469 L 0.707734 0.33957 L 0.715977 0.33957 L 0.720078 0.343672 L 0.72418 0.343672 L 0.732422 0.351914 L 0.736523 0.347812 L 0.740625 0.343672 L 0.744766 0.343672 L 0.748867 0.347812 L 0.757109 0.347812 L 0.761211 0.351914 L 0.769453 0.351914 L 0.773555 0.356016 L 0.781758 0.356016 L 0.785898 0.351914 L 0.79 0.351914 L 0.802344 0.364258 L 0.810586 0.364258 L 0.818789 0.372461 L 0.82293 0.368359 L 0.82293 0.364258 L 0.827031 0.364258 L 0.839375 0.376602 L 0.843477 0.376602 L 0.843477 0.380703 L 0.847578 0.384805 L 0.851719 0.384805 L 0.85582 0.380703 L 0.859922 0.384805 L 0.864063 0.384805 L 0.868164 0.388945 L 0.872266 0.393047 L 0.876406 0.397148 L 0.884609 0.397148 L 0.888711 0.401289 L 0.892852 0.405391 L 0.896953 0.409492 L 0.901055 0.413633 L 0.905195 0.413633 L 0.913398 0.421836 L 0.917539 0.425937 L 0.917539 0.430078 L 0.921641 0.43418 L 0.921641 0.438281 L 0.925742 0.442422 L 0.929883 0.442422 L 0.933984 0.438281 L 0.938086 0.442422 L 0.942188 0.446523 L 0.942188 0.450625 L 0.946328 0.454766 L 0.946328 0.458867 L 0.95043 0.462969 L 0.95043 0.467109 L 0.954531 0.471211 L 0.954531 0.479414 L 0.95043 0.483555 L 0.95043 0.495898 L 0.954531 0.5 L 0.95043 0.504102 L 0.946328 0.508242 L 0.946328 0.516445 L 0.938086 0.524688 L 0.933984 0.524688 L 0.929883 0.528789 L 0.929883 0.532891 L 0.925742 0.537031 L 0.925742 0.545234 L 0.921641 0.549375 L 0.913398 0.549375 L 0.901055 0.561719 L 0.901055 0.56582 L 0.896953 0.56582 L 0.884609 0.578164 L 0.880508 0.578164 L 0.876406 0.582266 L 0.872266 0.578164 L 0.868164 0.578164 L 0.864063 0.582266 L 0.859922 0.586367 L 0.85582 0.590508 L 0.851719 0.594609 L 0.847578 0.598711 L 0.835234 0.598711 L 0.831133 0.602852 L 0.818789 0.602852 L 0.814687 0.598711 L 0.810586 0.594609 L 0.794102 0.594609 L 0.79 0.598711 L 0.785898 0.602852 L 0.781758 0.606953 L 0.777656 0.611055 L 0.777656 0.619297 L 0.777656 0.606953 L 0.773555 0.602852 L 0.769453 0.606953 L 0.761211 0.606953 L 0.757109 0.611055 L 0.757109 0.627539 L 0.752969 0.631641 L 0.744766 0.639844 L 0.740625 0.639844 L 0.736523 0.635742 L 0.72832 0.635742 L 0.72832 0.631641 L 0.72418 0.627539 L 0.720078 0.627539 L 0.715977 0.623398 L 0.711836 0.623398 L 0.711836 0.619297 L 0.707734 0.615195 L 0.703633 0.611055 L 0.699492 0.611055 L 0.695391 0.615195 L 0.695391 0.639844 L 0.691289 0.643984 L 0.691289 0.648086 L 0.687148 0.652188 L 0.687148 0.66043 L 0.683047 0.664531 L 0.678945 0.668672 L 0.678945 0.672773 L 0.674844 0.672773 L 0.670703 0.676875 L 0.666602 0.680977 L 0.654258 0.680977 L 0.654258 0.676875 L 0.650156 0.672773 L 0.646016 0.668672 L 0.641914 0.668672 L 0.637812 0.672773 L 0.633672 0.672773 L 0.625469 0.680977 L 0.613125 0.680977 L 0.609023 0.685117 L 0.604883 0.689219 L 0.59668 0.689219 L 0.592539 0.69332 L 0.584336 0.69332 L 0.584336 0.680977 L 0.580195 0.676875 L 0.567891 0.676875 L 0.56375 0.680977 L 0.559648 0.685117 L 0.547305 0.685117 L 0.543203 0.689219 L 0.534961 0.689219 L 0.534961 0.685117 L 0.530859 0.680977 L 0.530859 0.676875 L 0.526719 0.672773 L 0.522617 0.672773 L 0.514414 0.680977 L 0.506172 0.680977 L 0.50207 0.676875 L 0.49793 0.676875 L 0.493828 0.680977 L 0.489727 0.685117 L 0.485586 0.685117 L 0.481484 0.689219 L 0.465039 0.689219 L 0.465039 0.680977 L 0.460938 0.676875 L 0.456797 0.672773 L 0.452695 0.676875 L 0.448594 0.676875 L 0.444453 0.680977 L 0.440352 0.680977 L 0.43625 0.685117 L 0.432109 0.680977 L 0.423906 0.680977 L 0.419805 0.685117 L 0.411563 0.685117 L 0.407461 0.680977 L 0.40332 0.680977 L 0.40332 0.664531 L 0.399219 0.66043 L 0.390977 0.66043 L 0.386875 0.664531 L 0.37043 0.664531 L 0.366328 0.66043 L 0.349844 0.66043 L 0.345742 0.664531 L 0.341641 0.664531 L 0.3375 0.66043 L 0.333398 0.66043 L 0.333398 0.648086 L 0.325156 0.639844 L 0.321055 0.643984 L 0.308711 0.643984 L 0.304609 0.648086 L 0.300508 0.648086 L 0.300508 0.643984 L 0.296367 0.639844 L 0.288164 0.639844 L 0.284023 0.635742 L 0.279922 0.635742 L 0.27582 0.631641 L 0.27168 0.631641 L 0.27168 0.627539 L 0.267578 0.623398 L 0.27168 0.619297 L 0.27582 0.615195 L 0.279922 0.611055 L 0.279922 0.606953 L 0.27582 0.602852 L 0.27168 0.602852 L 0.267578 0.598711 L 0.251133 0.598711 L 0.247031 0.594609 L 0.247031 0.590508 L 0.242891 0.586367 L 0.230547 0.586367 L 0.226445 0.582266 L 0.222344 0.586367 L 0.214102 0.586367 L 0.21 0.582266 L 0.21 0.574063 L 0.205898 0.569922 L 0.201758 0.574063 L 0.193555 0.574063 L 0.189414 0.569922 L 0.185313 0.574063 L 0.17707 0.574063 L 0.172969 0.569922 L 0.172969 0.561719 L 0.168867 0.557578 L 0.164766 0.553477 L 0.160625 0.549375 L 0.140078 0.549375 L 0.135937 0.545234 L 0.135937 0.537031 L 0.131836 0.532891 L 0.127734 0.532891 L 0.123594 0.537031 L 0.111289 0.537031 L 0.107148 0.532891 L 0.0989453 0.532891 L 0.0948047 0.537031 L 0.0824609 0.537031 L 0.0783594 0.532891 L 0.0495703 0.532891 Z M 0.0454688 0.528789 " transform="matrix(100,0,0,100,600,200)"/>
<path style="fill:none;stroke-width:0.01;stroke-linecap:butt;stroke-linejoin:miter;stroke:rgb(0%,0%,0%);stroke-opacity:1;stroke-miterlimit:10;" d="M 0.0454688 0.492148 L 0.0572266 0.492148 L 0.0611328 0.496094 L 0.0650391 0.492148 L 0.0689844 0.492148 L 0.0728906 0.496094 L 0.0767969 0.496094 L 0.0807031 0.492148 L 0.0885547 0.492148 L 0.0924609 0.496094 L 0.0964062 0.496094 L 0.100312 0.492148 L 0.100312 0.488242 L 0.119922 0.488242 L 0.123828 0.484336 L 0.123828 0.476484 L 0.127734 0.476484 L 0.13168 0.472578 L 0.135586 0.472578 L 0.139492 0.468633 L 0.139492 0.456914 L 0.143398 0.452969 L 0.147344 0.449063 L 0.15125 0.445156 L 0.159102 0.445156 L 0.163008 0.441211 L 0.163008 0.437305 L 0.15125 0.425547 L 0.15125 0.421641 L 0.155156 0.421641 L 0.159102 0.417695 L 0.163008 0.417695 L 0.166914 0.413789 L 0.170859 0.409883 L 0.174766 0.409883 L 0.178672 0.405938 L 0.178672 0.402031 L 0.174766 0.398125 L 0.178672 0.394219 L 0.182617 0.394219 L 0.186523 0.390273 L 0.19043 0.386367 L 0.194375 0.382461 L 0.194375 0.374609 L 0.198281 0.370703 L 0.202187 0.370703 L 0.206094 0.366758 L 0.210039 0.362852 L 0.210039 0.351094 L 0.213945 0.347187 L 0.221797 0.347187 L 0.225703 0.343242 L 0.233555 0.343242 L 0.237461 0.339336 L 0.233555 0.33543 L 0.229609 0.331523 L 0.229609 0.327578 L 0.233555 0.327578 L 0.237461 0.323672 L 0.253125 0.323672 L 0.25707 0.319766 L 0.25707 0.31582 L 0.260977 0.31582 L 0.264883 0.311914 L 0.264883 0.308008 L 0.268828 0.308008 L 0.272734 0.304063 L 0.280547 0.304063 L 0.284492 0.308008 L 0.288398 0.304063 L 0.288398 0.300156 L 0.300156 0.300156 L 0.304063 0.29625 L 0.304063 0.292305 L 0.308008 0.288398 L 0.327578 0.288398 L 0.331523 0.292305 L 0.33543 0.288398 L 0.347187 0.288398 L 0.351094 0.284492 L 0.351094 0.276641 L 0.362852 0.276641 L 0.366758 0.280547 L 0.374609 0.280547 L 0.378516 0.284492 L 0.386367 0.276641 L 0.390273 0.276641 L 0.394219 0.280547 L 0.402031 0.280547 L 0.405938 0.284492 L 0.409883 0.280547 L 0.413789 0.284492 L 0.421641 0.284492 L 0.425547 0.288398 L 0.433398 0.280547 L 0.472578 0.280547 L 0.476484 0.284492 L 0.480391 0.280547 L 0.480391 0.276641 L 0.484336 0.272734 L 0.488242 0.276641 L 0.496094 0.276641 L 0.5 0.280547 L 0.507852 0.280547 L 0.511758 0.284492 L 0.515664 0.284492 L 0.519609 0.280547 L 0.531367 0.280547 L 0.535273 0.284492 L 0.543086 0.284492 L 0.547031 0.288398 L 0.554844 0.288398 L 0.558789 0.284492 L 0.570547 0.284492 L 0.578359 0.292305 L 0.590117 0.292305 L 0.594063 0.29625 L 0.597969 0.29625 L 0.601875 0.292305 L 0.601875 0.288398 L 0.609727 0.288398 L 0.613633 0.292305 L 0.621484 0.292305 L 0.625391 0.29625 L 0.629297 0.300156 L 0.633242 0.29625 L 0.637148 0.29625 L 0.641055 0.300156 L 0.645 0.304063 L 0.648906 0.308008 L 0.652813 0.308008 L 0.656758 0.311914 L 0.660664 0.31582 L 0.66457 0.311914 L 0.668477 0.311914 L 0.672422 0.31582 L 0.676328 0.31582 L 0.680234 0.319766 L 0.68418 0.323672 L 0.688086 0.327578 L 0.691992 0.323672 L 0.699844 0.323672 L 0.715508 0.339336 L 0.731172 0.339336 L 0.735117 0.343242 L 0.739023 0.347187 L 0.74293 0.343242 L 0.750781 0.343242 L 0.754688 0.347187 L 0.758633 0.351094 L 0.762539 0.355 L 0.770391 0.355 L 0.774297 0.358945 L 0.782148 0.358945 L 0.786055 0.362852 L 0.793906 0.362852 L 0.797813 0.366758 L 0.801719 0.370703 L 0.805625 0.374609 L 0.80957 0.370703 L 0.813477 0.374609 L 0.817383 0.374609 L 0.821328 0.378516 L 0.825234 0.382461 L 0.829141 0.386367 L 0.833086 0.386367 L 0.836992 0.390273 L 0.844844 0.390273 L 0.84875 0.394219 L 0.852656 0.398125 L 0.856602 0.402031 L 0.860508 0.405938 L 0.86832 0.405938 L 0.872266 0.402031 L 0.876172 0.402031 L 0.880078 0.398125 L 0.884023 0.398125 L 0.88793 0.394219 L 0.891836 0.394219 L 0.895781 0.390273 L 0.899687 0.390273 L 0.903594 0.386367 L 0.915352 0.386367 L 0.919297 0.382461 L 0.927109 0.382461 L 0.931016 0.386367 L 0.931016 0.390273 L 0.938867 0.398125 L 0.942773 0.398125 L 0.946719 0.402031 L 0.954531 0.402031 L 0.946719 0.402031 L 0.942773 0.405938 L 0.938867 0.409883 L 0.934961 0.409883 L 0.931016 0.413789 L 0.927109 0.413789 L 0.923203 0.417695 L 0.927109 0.421641 L 0.927109 0.452969 L 0.923203 0.456914 L 0.923203 0.484336 L 0.919297 0.488242 L 0.915352 0.488242 L 0.911445 0.492148 L 0.911445 0.511758 L 0.907539 0.515664 L 0.907539 0.523516 L 0.895781 0.523516 L 0.891836 0.527422 L 0.891836 0.535273 L 0.88793 0.53918 L 0.88793 0.547031 L 0.884023 0.550937 L 0.884023 0.566602 L 0.880078 0.570547 L 0.86832 0.570547 L 0.864414 0.574453 L 0.864414 0.582305 L 0.860508 0.586211 L 0.860508 0.590117 L 0.856602 0.594062 L 0.852656 0.597969 L 0.852656 0.601875 L 0.84875 0.605781 L 0.844844 0.605781 L 0.840898 0.609727 L 0.836992 0.605781 L 0.829141 0.605781 L 0.825234 0.609727 L 0.825234 0.613633 L 0.817383 0.621484 L 0.817383 0.625391 L 0.813477 0.629297 L 0.80957 0.633242 L 0.805625 0.637148 L 0.801719 0.641055 L 0.797813 0.645 L 0.793906 0.648906 L 0.789961 0.648906 L 0.786055 0.645 L 0.782148 0.645 L 0.778203 0.648906 L 0.778203 0.652813 L 0.774297 0.652813 L 0.770391 0.656758 L 0.770391 0.660664 L 0.766445 0.66457 L 0.762539 0.66457 L 0.750781 0.676328 L 0.746875 0.676328 L 0.74293 0.672422 L 0.739023 0.668477 L 0.735117 0.672422 L 0.731172 0.676328 L 0.727266 0.680234 L 0.723359 0.68418 L 0.719453 0.688086 L 0.715508 0.688086 L 0.711602 0.68418 L 0.707695 0.680234 L 0.70375 0.680234 L 0.699844 0.68418 L 0.695937 0.688086 L 0.695937 0.691992 L 0.691992 0.695938 L 0.691992 0.699844 L 0.68418 0.699844 L 0.680234 0.70375 L 0.676328 0.70375 L 0.672422 0.707695 L 0.668477 0.707695 L 0.668477 0.70375 L 0.66457 0.699844 L 0.660664 0.70375 L 0.656758 0.70375 L 0.652813 0.707695 L 0.645 0.707695 L 0.641055 0.711602 L 0.629297 0.711602 L 0.625391 0.707695 L 0.621484 0.707695 L 0.617539 0.711602 L 0.613633 0.715508 L 0.609727 0.719453 L 0.601875 0.719453 L 0.597969 0.715508 L 0.594063 0.715508 L 0.590117 0.719453 L 0.578359 0.719453 L 0.570547 0.727266 L 0.566602 0.727266 L 0.566602 0.70375 L 0.562695 0.699844 L 0.558789 0.699844 L 0.554844 0.70375 L 0.550937 0.70375 L 0.547031 0.699844 L 0.543086 0.70375 L 0.535273 0.70375 L 0.535273 0.695938 L 0.531367 0.691992 L 0.527422 0.691992 L 0.523516 0.695938 L 0.519609 0.691992 L 0.515664 0.691992 L 0.511758 0.695938 L 0.503906 0.695938 L 0.5 0.691992 L 0.492148 0.691992 L 0.488242 0.695938 L 0.46082 0.695938 L 0.456914 0.699844 L 0.452969 0.699844 L 0.449063 0.695938 L 0.437305 0.695938 L 0.433398 0.699844 L 0.409883 0.699844 L 0.409883 0.695938 L 0.405938 0.691992 L 0.402031 0.695938 L 0.398125 0.695938 L 0.394219 0.699844 L 0.370703 0.699844 L 0.366758 0.70375 L 0.362852 0.70375 L 0.358945 0.699844 L 0.358945 0.695938 L 0.362852 0.691992 L 0.362852 0.688086 L 0.358945 0.68418 L 0.355 0.68418 L 0.351094 0.688086 L 0.33543 0.688086 L 0.331523 0.68418 L 0.292305 0.68418 L 0.288398 0.680234 L 0.288398 0.668477 L 0.284492 0.66457 L 0.25707 0.66457 L 0.25707 0.660664 L 0.253125 0.656758 L 0.249219 0.660664 L 0.241367 0.660664 L 0.237461 0.656758 L 0.221797 0.656758 L 0.221797 0.652813 L 0.225703 0.648906 L 0.225703 0.645 L 0.229609 0.641055 L 0.233555 0.637148 L 0.233555 0.625391 L 0.229609 0.621484 L 0.210039 0.621484 L 0.206094 0.617539 L 0.198281 0.617539 L 0.198281 0.613633 L 0.202187 0.609727 L 0.202187 0.605781 L 0.198281 0.601875 L 0.194375 0.601875 L 0.19043 0.597969 L 0.186523 0.597969 L 0.182617 0.594062 L 0.178672 0.594062 L 0.186523 0.586211 L 0.178672 0.578359 L 0.174766 0.578359 L 0.170859 0.574453 L 0.163008 0.574453 L 0.166914 0.570547 L 0.166914 0.562695 L 0.163008 0.558789 L 0.159102 0.558789 L 0.155156 0.554844 L 0.147344 0.554844 L 0.143398 0.550937 L 0.139492 0.547031 L 0.135586 0.547031 L 0.13168 0.543086 L 0.127734 0.543086 L 0.127734 0.53918 L 0.119922 0.531367 L 0.11207 0.531367 L 0.108164 0.527422 L 0.108164 0.523516 L 0.104219 0.519609 L 0.0885547 0.519609 L 0.0846484 0.515664 L 0.0807031 0.511758 L 0.0767969 0.515664 L 0.0728906 0.515664 L 0.0728906 0.511758 L 0.0689844 0.507852 L 0.0611328 0.507852 L 0.0572266 0.503906 L 0.0532813 0.503906 L 0.0454688 0.496094 Z M 0.0454688 0.492148 " transform="matrix(100,0,0,100,0,350)"/>
<path style="fill:none;stroke-width:0.01;stroke-linecap:butt;stroke-linejoin:miter;stroke:rgb(0%,0%,0%);stroke-opacity:1;stroke-miterlimit:10;" d="M 0.0454687 0.598555 L 0.0494922 0.594531 L 0.0494922 0.590508 L 0.0535156 0.590508 L 0.0575391 0.586484 L 0.0575391 0.582461 L 0.0655859 0.582461 L 0.0695703 0.578437 L 0.0735938 0.574414 L 0.0776172 0.574414 L 0.0856641 0.566367 L 0.0896875 0.566367 L 0.0937109 0.562344 L 0.0937109 0.55832 L 0.0977344 0.55832 L 0.101758 0.554297 L 0.105781 0.554297 L 0.113828 0.54625 L 0.113828 0.542227 L 0.117852 0.542227 L 0.125898 0.53418 L 0.133945 0.53418 L 0.137969 0.530156 L 0.137969 0.522109 L 0.133945 0.518086 L 0.133945 0.514062 L 0.137969 0.514062 L 0.141992 0.510039 L 0.150039 0.510039 L 0.154062 0.506016 L 0.154062 0.498008 L 0.158086 0.498008 L 0.162109 0.493984 L 0.166133 0.493984 L 0.170156 0.489961 L 0.170156 0.485937 L 0.17418 0.485937 L 0.182227 0.477891 L 0.182227 0.469844 L 0.194297 0.457773 L 0.206367 0.457773 L 0.210391 0.45375 L 0.210391 0.44168 L 0.214414 0.437656 L 0.222461 0.437656 L 0.226484 0.433633 L 0.226484 0.429609 L 0.234531 0.429609 L 0.238555 0.425586 L 0.238555 0.421563 L 0.242539 0.417539 L 0.250586 0.417539 L 0.254609 0.413516 L 0.258633 0.413516 L 0.270703 0.401445 L 0.270703 0.397422 L 0.27875 0.397422 L 0.282773 0.393398 L 0.286797 0.393398 L 0.29082 0.389375 L 0.294844 0.389375 L 0.298867 0.385352 L 0.306914 0.385352 L 0.310938 0.381328 L 0.310938 0.377305 L 0.318984 0.377305 L 0.323008 0.373281 L 0.331055 0.373281 L 0.339102 0.365234 L 0.339102 0.361211 L 0.343125 0.365234 L 0.347148 0.361211 L 0.347148 0.349141 L 0.351172 0.345117 L 0.367266 0.345117 L 0.371289 0.341094 L 0.371289 0.333047 L 0.375312 0.333047 L 0.379336 0.33707 L 0.383359 0.333047 L 0.383359 0.325039 L 0.387383 0.325039 L 0.391406 0.321016 L 0.399453 0.321016 L 0.403477 0.316992 L 0.4075 0.321016 L 0.411523 0.316992 L 0.411523 0.308945 L 0.415508 0.304922 L 0.439648 0.304922 L 0.443672 0.308945 L 0.447695 0.308945 L 0.451719 0.304922 L 0.451719 0.300898 L 0.455742 0.300898 L 0.459766 0.296875 L 0.471836 0.296875 L 0.475859 0.292852 L 0.479883 0.296875 L 0.483906 0.296875 L 0.48793 0.300898 L 0.491953 0.300898 L 0.495977 0.296875 L 0.5 0.296875 L 0.508047 0.288828 L 0.508047 0.284805 L 0.528164 0.284805 L 0.532188 0.280781 L 0.544258 0.280781 L 0.548281 0.284805 L 0.556328 0.276758 L 0.556328 0.268711 L 0.580469 0.268711 L 0.584492 0.264687 L 0.5925 0.264687 L 0.596523 0.268711 L 0.600547 0.268711 L 0.608594 0.260664 L 0.616641 0.260664 L 0.620664 0.264687 L 0.628711 0.264687 L 0.636758 0.272734 L 0.640781 0.272734 L 0.644805 0.268711 L 0.660898 0.268711 L 0.664922 0.272734 L 0.681016 0.272734 L 0.689062 0.280781 L 0.693086 0.280781 L 0.697109 0.276758 L 0.70918 0.276758 L 0.717227 0.284805 L 0.72125 0.284805 L 0.73332 0.296875 L 0.741367 0.288828 L 0.745391 0.292852 L 0.749414 0.292852 L 0.753437 0.296875 L 0.757461 0.296875 L 0.761445 0.300898 L 0.765469 0.300898 L 0.777539 0.312969 L 0.781563 0.312969 L 0.785586 0.308945 L 0.789609 0.308945 L 0.793633 0.312969 L 0.797656 0.312969 L 0.80168 0.316992 L 0.805703 0.316992 L 0.809727 0.321016 L 0.809727 0.325039 L 0.81375 0.329023 L 0.817773 0.333047 L 0.821797 0.333047 L 0.82582 0.329023 L 0.829844 0.329023 L 0.837891 0.33707 L 0.837891 0.341094 L 0.845938 0.349141 L 0.849961 0.345117 L 0.853984 0.349141 L 0.853984 0.353164 L 0.862031 0.361211 L 0.870078 0.361211 L 0.874102 0.365234 L 0.874102 0.369258 L 0.882148 0.377305 L 0.882148 0.385352 L 0.886172 0.389375 L 0.894219 0.389375 L 0.894219 0.393398 L 0.906289 0.405469 L 0.906289 0.417539 L 0.910312 0.421563 L 0.918359 0.421563 L 0.922383 0.425586 L 0.922383 0.449727 L 0.926406 0.45375 L 0.93043 0.45375 L 0.93043 0.46582 L 0.934414 0.469844 L 0.934414 0.485937 L 0.938438 0.489961 L 0.942461 0.489961 L 0.942461 0.522109 L 0.938438 0.526133 L 0.942461 0.530156 L 0.938438 0.53418 L 0.938438 0.542227 L 0.934414 0.54625 L 0.93043 0.550273 L 0.93043 0.554297 L 0.934414 0.55832 L 0.954531 0.55832 L 0.954531 0.566367 L 0.950508 0.570391 L 0.950508 0.578437 L 0.946484 0.582461 L 0.942461 0.582461 L 0.938438 0.578437 L 0.93043 0.578437 L 0.922383 0.570391 L 0.918359 0.570391 L 0.910312 0.562344 L 0.906289 0.562344 L 0.894219 0.550273 L 0.890195 0.550273 L 0.886172 0.54625 L 0.866055 0.566367 L 0.866055 0.570391 L 0.858008 0.570391 L 0.853984 0.574414 L 0.853984 0.578437 L 0.849961 0.582461 L 0.845938 0.582461 L 0.837891 0.590508 L 0.837891 0.594531 L 0.833867 0.598555 L 0.829844 0.598555 L 0.82582 0.602578 L 0.82582 0.606602 L 0.821797 0.610625 L 0.821797 0.614648 L 0.817773 0.618672 L 0.809727 0.618672 L 0.805703 0.622695 L 0.80168 0.622695 L 0.797656 0.626719 L 0.793633 0.626719 L 0.785586 0.634766 L 0.781563 0.634766 L 0.773516 0.642812 L 0.773516 0.646836 L 0.765469 0.654883 L 0.765469 0.658906 L 0.753437 0.658906 L 0.741367 0.670977 L 0.737344 0.674961 L 0.729297 0.674961 L 0.725273 0.670977 L 0.72125 0.674961 L 0.713203 0.674961 L 0.701133 0.687031 L 0.689062 0.687031 L 0.681016 0.695078 L 0.676992 0.695078 L 0.672969 0.699102 L 0.672969 0.703125 L 0.664922 0.703125 L 0.660898 0.699102 L 0.652852 0.699102 L 0.648828 0.703125 L 0.644805 0.703125 L 0.640781 0.707148 L 0.636758 0.707148 L 0.632734 0.711172 L 0.624687 0.703125 L 0.612617 0.715195 L 0.608594 0.715195 L 0.60457 0.719219 L 0.600547 0.719219 L 0.596523 0.723242 L 0.5925 0.723242 L 0.5925 0.719219 L 0.588477 0.715195 L 0.584492 0.715195 L 0.580469 0.719219 L 0.564375 0.719219 L 0.560352 0.715195 L 0.552305 0.723242 L 0.548281 0.723242 L 0.544258 0.727266 L 0.540234 0.723242 L 0.532188 0.723242 L 0.524141 0.731289 L 0.520117 0.731289 L 0.516094 0.727266 L 0.51207 0.727266 L 0.508047 0.731289 L 0.48793 0.731289 L 0.483906 0.735313 L 0.467812 0.735313 L 0.463789 0.731289 L 0.455742 0.731289 L 0.447695 0.739336 L 0.443672 0.735313 L 0.439648 0.735313 L 0.435625 0.739336 L 0.431602 0.735313 L 0.427578 0.735313 L 0.423555 0.739336 L 0.419531 0.739336 L 0.419531 0.735313 L 0.415508 0.731289 L 0.411523 0.727266 L 0.4075 0.727266 L 0.403477 0.731289 L 0.399453 0.731289 L 0.39543 0.735313 L 0.391406 0.735313 L 0.387383 0.731289 L 0.367266 0.731289 L 0.363242 0.727266 L 0.363242 0.723242 L 0.359219 0.719219 L 0.347148 0.719219 L 0.343125 0.715195 L 0.339102 0.719219 L 0.335078 0.715195 L 0.323008 0.715195 L 0.318984 0.719219 L 0.310938 0.711172 L 0.306914 0.711172 L 0.302891 0.715195 L 0.298867 0.711172 L 0.286797 0.711172 L 0.282773 0.707148 L 0.282773 0.703125 L 0.27875 0.699102 L 0.258633 0.699102 L 0.254609 0.695078 L 0.250586 0.695078 L 0.250586 0.691055 L 0.242539 0.683008 L 0.238555 0.687031 L 0.238555 0.683008 L 0.234531 0.678984 L 0.230508 0.683008 L 0.226484 0.683008 L 0.218438 0.674961 L 0.214414 0.674961 L 0.210391 0.678984 L 0.206367 0.674961 L 0.202344 0.670977 L 0.194297 0.670977 L 0.194297 0.666953 L 0.190273 0.66293 L 0.190273 0.658906 L 0.18625 0.654883 L 0.178203 0.654883 L 0.17418 0.650859 L 0.170156 0.650859 L 0.162109 0.642812 L 0.154062 0.642812 L 0.146016 0.634766 L 0.141992 0.634766 L 0.133945 0.626719 L 0.129922 0.626719 L 0.129922 0.622695 L 0.125898 0.618672 L 0.121875 0.618672 L 0.117852 0.614648 L 0.113828 0.614648 L 0.109805 0.610625 L 0.105781 0.610625 L 0.101758 0.606602 L 0.0977344 0.606602 L 0.0977344 0.602578 L 0.0937109 0.598555 L 0.0695703 0.598555 L 0.0655859 0.602578 L 0.0575391 0.602578 L 0.0535156 0.606602 L 0.0454687 0.606602 L 0.0454687 0.602578 Z M 0.0454687 0.598555 " transform="matrix(100,0,0,100,150,350)"/>
<path style="fill:none;stroke-width:0.01;stroke-linecap:butt;stroke-linejoin:miter;stroke:rgb(0%,0%,0%);stroke-opacity:1;stroke-miterlimit:10;" d="M 0.0454687 0.46625 L 0.0533984 0.45832 L 0.0772266 0.45832 L 0.0811719 0.454336 L 0.0891406 0.454336 L 0.0970703 0.446406 L 0.101016 0.446406 L 0.105 0.442422 L 0.11293 0.442422 L 0.116914 0.438477 L 0.120898 0.434492 L 0.124844 0.434492 L 0.128828 0.430547 L 0.132773 0.430547 L 0.136758 0.426563 L 0.140742 0.426563 L 0.144687 0.422578 L 0.144687 0.418633 L 0.140742 0.414648 L 0.144687 0.410664 L 0.148672 0.410664 L 0.152656 0.406719 L 0.156602 0.402734 L 0.156602 0.39875 L 0.160586 0.394805 L 0.160586 0.39082 L 0.164531 0.39082 L 0.168516 0.386875 L 0.1725 0.382891 L 0.1725 0.378906 L 0.18043 0.378906 L 0.184414 0.374961 L 0.188359 0.370977 L 0.188359 0.366992 L 0.184414 0.363047 L 0.184414 0.351133 L 0.192344 0.351133 L 0.196289 0.347148 L 0.200273 0.343203 L 0.212188 0.343203 L 0.216172 0.339219 L 0.216172 0.331289 L 0.220117 0.327305 L 0.224102 0.323359 L 0.232031 0.323359 L 0.236016 0.319375 L 0.239961 0.315391 L 0.243945 0.319375 L 0.24793 0.319375 L 0.251875 0.315391 L 0.251875 0.311445 L 0.255859 0.311445 L 0.259844 0.307461 L 0.263789 0.307461 L 0.271719 0.299531 L 0.275703 0.299531 L 0.287617 0.287617 L 0.299531 0.287617 L 0.303477 0.283633 L 0.303477 0.279688 L 0.307461 0.283633 L 0.315391 0.283633 L 0.319375 0.279688 L 0.319375 0.275703 L 0.323359 0.271719 L 0.327305 0.271719 L 0.331289 0.267773 L 0.339219 0.267773 L 0.343203 0.271719 L 0.347148 0.271719 L 0.351133 0.267773 L 0.355117 0.263789 L 0.374961 0.263789 L 0.378906 0.267773 L 0.382891 0.267773 L 0.386875 0.263789 L 0.39082 0.263789 L 0.394805 0.267773 L 0.39875 0.263789 L 0.39875 0.259844 L 0.418633 0.259844 L 0.422578 0.255859 L 0.426563 0.255859 L 0.430547 0.259844 L 0.434492 0.255859 L 0.438477 0.251875 L 0.470234 0.251875 L 0.47418 0.255859 L 0.478164 0.259844 L 0.486094 0.259844 L 0.490078 0.255859 L 0.494063 0.259844 L 0.513906 0.259844 L 0.517852 0.263789 L 0.521836 0.259844 L 0.52582 0.259844 L 0.529766 0.263789 L 0.54168 0.263789 L 0.545664 0.267773 L 0.561523 0.267773 L 0.565508 0.271719 L 0.569453 0.267773 L 0.573438 0.267773 L 0.577422 0.271719 L 0.589336 0.271719 L 0.593281 0.275703 L 0.597266 0.279688 L 0.60125 0.279688 L 0.605195 0.275703 L 0.60918 0.271719 L 0.60918 0.275703 L 0.613125 0.279688 L 0.613125 0.287617 L 0.617109 0.291602 L 0.625039 0.291602 L 0.629023 0.295547 L 0.633008 0.299531 L 0.648867 0.299531 L 0.652852 0.303477 L 0.656797 0.303477 L 0.660781 0.299531 L 0.664766 0.299531 L 0.668711 0.303477 L 0.688555 0.303477 L 0.692539 0.307461 L 0.696523 0.307461 L 0.700469 0.303477 L 0.708398 0.303477 L 0.712383 0.307461 L 0.716367 0.307461 L 0.720312 0.311445 L 0.724297 0.315391 L 0.728281 0.315391 L 0.732227 0.311445 L 0.740156 0.311445 L 0.744141 0.315391 L 0.748125 0.319375 L 0.756055 0.319375 L 0.767969 0.331289 L 0.783828 0.331289 L 0.787813 0.335234 L 0.791797 0.339219 L 0.795742 0.343203 L 0.799727 0.347148 L 0.799727 0.351133 L 0.803711 0.355117 L 0.803711 0.359063 L 0.807656 0.363047 L 0.811641 0.359063 L 0.815586 0.359063 L 0.81957 0.363047 L 0.823555 0.366992 L 0.831484 0.366992 L 0.835469 0.370977 L 0.839414 0.374961 L 0.839414 0.378906 L 0.843398 0.382891 L 0.847344 0.386875 L 0.851328 0.39082 L 0.855313 0.394805 L 0.855313 0.39875 L 0.859258 0.402734 L 0.863242 0.402734 L 0.88707 0.378906 L 0.891016 0.378906 L 0.895 0.374961 L 0.90293 0.374961 L 0.906914 0.370977 L 0.914844 0.370977 L 0.922773 0.378906 L 0.922773 0.39082 L 0.918828 0.394805 L 0.914844 0.39875 L 0.90293 0.39875 L 0.898984 0.402734 L 0.90293 0.406719 L 0.906914 0.410664 L 0.910859 0.410664 L 0.926758 0.426563 L 0.926758 0.430547 L 0.930742 0.434492 L 0.934687 0.438477 L 0.934687 0.442422 L 0.938672 0.446406 L 0.938672 0.450391 L 0.942617 0.454336 L 0.942617 0.45832 L 0.946602 0.462305 L 0.950586 0.46625 L 0.946602 0.46625 L 0.942617 0.462305 L 0.938672 0.46625 L 0.938672 0.470234 L 0.946602 0.478164 L 0.946602 0.490078 L 0.950586 0.494063 L 0.954531 0.490078 L 0.950586 0.494063 L 0.946602 0.498008 L 0.942617 0.498008 L 0.938672 0.501992 L 0.946602 0.509922 L 0.946602 0.529766 L 0.942617 0.53375 L 0.938672 0.53375 L 0.934687 0.537695 L 0.934687 0.549609 L 0.930742 0.553594 L 0.930742 0.565508 L 0.926758 0.569453 L 0.926758 0.573437 L 0.918828 0.573437 L 0.914844 0.577422 L 0.914844 0.597266 L 0.910859 0.60125 L 0.910859 0.605195 L 0.90293 0.605195 L 0.898984 0.60918 L 0.895 0.613125 L 0.895 0.617109 L 0.879102 0.633008 L 0.875156 0.633008 L 0.871172 0.636953 L 0.867227 0.640937 L 0.867227 0.644883 L 0.863242 0.648867 L 0.863242 0.652852 L 0.859258 0.656797 L 0.855313 0.660781 L 0.851328 0.660781 L 0.847344 0.656797 L 0.843398 0.660781 L 0.843398 0.664766 L 0.839414 0.668711 L 0.835469 0.668711 L 0.831484 0.672695 L 0.831484 0.676641 L 0.8275 0.676641 L 0.823555 0.680625 L 0.807656 0.680625 L 0.803711 0.684609 L 0.803711 0.688555 L 0.799727 0.688555 L 0.795742 0.692539 L 0.795742 0.696523 L 0.787813 0.696523 L 0.783828 0.700469 L 0.779883 0.700469 L 0.775898 0.696523 L 0.771914 0.696523 L 0.767969 0.700469 L 0.767969 0.704453 L 0.763984 0.708398 L 0.760039 0.708398 L 0.75207 0.716367 L 0.748125 0.716367 L 0.744141 0.720313 L 0.740156 0.716367 L 0.736211 0.716367 L 0.732227 0.720313 L 0.728281 0.724297 L 0.720312 0.724297 L 0.716367 0.720313 L 0.712383 0.724297 L 0.712383 0.728281 L 0.708398 0.732227 L 0.704453 0.736211 L 0.700469 0.732227 L 0.696523 0.732227 L 0.692539 0.736211 L 0.688555 0.732227 L 0.684609 0.732227 L 0.680625 0.728281 L 0.676641 0.728281 L 0.672695 0.732227 L 0.652852 0.732227 L 0.648867 0.728281 L 0.644883 0.732227 L 0.640938 0.736211 L 0.617109 0.736211 L 0.613125 0.732227 L 0.60918 0.732227 L 0.605195 0.736211 L 0.585352 0.736211 L 0.581367 0.732227 L 0.573438 0.732227 L 0.565508 0.740156 L 0.561523 0.740156 L 0.557578 0.736211 L 0.553594 0.740156 L 0.549609 0.744141 L 0.54168 0.744141 L 0.53375 0.736211 L 0.529766 0.740156 L 0.52582 0.744141 L 0.521836 0.744141 L 0.517852 0.740156 L 0.509922 0.740156 L 0.505937 0.744141 L 0.501992 0.740156 L 0.490078 0.740156 L 0.486094 0.744141 L 0.482148 0.748125 L 0.478164 0.744141 L 0.45832 0.744141 L 0.454336 0.740156 L 0.454336 0.736211 L 0.450391 0.732227 L 0.446406 0.736211 L 0.438477 0.736211 L 0.434492 0.732227 L 0.426563 0.732227 L 0.422578 0.728281 L 0.422578 0.724297 L 0.418633 0.720313 L 0.414648 0.720313 L 0.410664 0.724297 L 0.402734 0.724297 L 0.39875 0.720313 L 0.382891 0.720313 L 0.382891 0.716367 L 0.378906 0.712383 L 0.370977 0.712383 L 0.363047 0.704453 L 0.359063 0.704453 L 0.355117 0.708398 L 0.343203 0.708398 L 0.339219 0.704453 L 0.327305 0.704453 L 0.323359 0.700469 L 0.319375 0.696523 L 0.319375 0.676641 L 0.315391 0.672695 L 0.311445 0.676641 L 0.303477 0.676641 L 0.303477 0.672695 L 0.299531 0.668711 L 0.291602 0.668711 L 0.287617 0.664766 L 0.283633 0.660781 L 0.283633 0.652852 L 0.279688 0.648867 L 0.275703 0.644883 L 0.271719 0.644883 L 0.267773 0.640937 L 0.255859 0.640937 L 0.24793 0.633008 L 0.24793 0.625039 L 0.251875 0.621094 L 0.24793 0.617109 L 0.243945 0.613125 L 0.232031 0.613125 L 0.232031 0.60918 L 0.228086 0.605195 L 0.224102 0.60125 L 0.220117 0.60125 L 0.220117 0.593281 L 0.216172 0.589336 L 0.204258 0.589336 L 0.204258 0.581367 L 0.200273 0.577422 L 0.196289 0.573437 L 0.192344 0.577422 L 0.188359 0.573437 L 0.18043 0.573437 L 0.176445 0.569453 L 0.176445 0.565508 L 0.1725 0.561523 L 0.1725 0.545664 L 0.168516 0.54168 L 0.160586 0.54168 L 0.148672 0.529766 L 0.144687 0.52582 L 0.144687 0.521836 L 0.140742 0.517852 L 0.136758 0.517852 L 0.132773 0.513906 L 0.128828 0.509922 L 0.116914 0.498008 L 0.11293 0.494063 L 0.108984 0.494063 L 0.105 0.490078 L 0.105 0.486094 L 0.101016 0.482148 L 0.0851563 0.482148 L 0.0811719 0.478164 L 0.0772266 0.478164 L 0.0732422 0.47418 L 0.0533984 0.47418 L 0.0494141 0.470234 L 0.0454687 0.470234 Z M 0.0454687 0.46625 " transform="matrix(100,0,0,100,300,350)"/>
<path style="fill:none;stroke-width:0.01;stroke-linecap:butt;stroke-linejoin:miter;stroke:rgb(0%,0%,0%);stroke-opacity:1;stroke-miterlimit:10;" d="M 0.0454688 0.5 L 0.0496484 0.495781 L 0.0496484 0.483164 L 0.0538672 0.478945 L 0.0623047 0.478945 L 0.0707031 0.470547 L 0.0791406 0.470547 L 0.0833203 0.466328 L 0.0875391 0.466328 L 0.0917578 0.462109 L 0.0917578 0.45793 L 0.0833203 0.449492 L 0.0833203 0.441094 L 0.0875391 0.436875 L 0.0917578 0.436875 L 0.0959766 0.432656 L 0.100156 0.428438 L 0.104375 0.424258 L 0.116992 0.424258 L 0.12543 0.41582 L 0.12543 0.411602 L 0.121211 0.407422 L 0.121211 0.398984 L 0.12543 0.398984 L 0.129648 0.394766 L 0.138047 0.394766 L 0.142266 0.390586 L 0.146445 0.390586 L 0.150664 0.386367 L 0.171719 0.386367 L 0.175937 0.382148 L 0.175937 0.37375 L 0.171719 0.369531 L 0.175937 0.365312 L 0.180117 0.361094 L 0.184336 0.361094 L 0.188555 0.356914 L 0.196953 0.356914 L 0.201172 0.361094 L 0.205391 0.361094 L 0.209609 0.356914 L 0.213789 0.352695 L 0.239063 0.352695 L 0.243281 0.348477 L 0.247461 0.344258 L 0.247461 0.335859 L 0.25168 0.331641 L 0.264297 0.331641 L 0.268516 0.335859 L 0.285352 0.335859 L 0.28957 0.340078 L 0.293789 0.340078 L 0.297969 0.335859 L 0.331641 0.335859 L 0.335859 0.331641 L 0.335859 0.310625 L 0.386367 0.310625 L 0.390586 0.314805 L 0.394766 0.314805 L 0.398984 0.310625 L 0.398984 0.302188 L 0.403203 0.297969 L 0.407422 0.293789 L 0.41582 0.293789 L 0.420039 0.297969 L 0.424258 0.297969 L 0.428438 0.302188 L 0.432656 0.302188 L 0.436875 0.297969 L 0.441094 0.297969 L 0.445273 0.302188 L 0.449492 0.306406 L 0.453711 0.306406 L 0.45793 0.302188 L 0.45793 0.28957 L 0.478945 0.28957 L 0.483164 0.293789 L 0.487383 0.293789 L 0.491602 0.297969 L 0.495781 0.297969 L 0.5 0.302188 L 0.504219 0.297969 L 0.521055 0.297969 L 0.525234 0.302188 L 0.529453 0.302188 L 0.533672 0.306406 L 0.54207 0.306406 L 0.546289 0.302188 L 0.546289 0.28957 L 0.563125 0.28957 L 0.567344 0.293789 L 0.571562 0.297969 L 0.58418 0.297969 L 0.588398 0.302188 L 0.592578 0.306406 L 0.596797 0.306406 L 0.601016 0.302188 L 0.601016 0.297969 L 0.605234 0.293789 L 0.613633 0.293789 L 0.617852 0.297969 L 0.62207 0.297969 L 0.62625 0.302188 L 0.630469 0.302188 L 0.638906 0.310625 L 0.643086 0.310625 L 0.647305 0.306406 L 0.647305 0.302188 L 0.651523 0.302188 L 0.655742 0.306406 L 0.659922 0.306406 L 0.664141 0.310625 L 0.668359 0.314805 L 0.672578 0.319023 L 0.680977 0.319023 L 0.689375 0.327422 L 0.693594 0.323242 L 0.71043 0.323242 L 0.714648 0.327422 L 0.718867 0.331641 L 0.723047 0.331641 L 0.731484 0.340078 L 0.735703 0.340078 L 0.739883 0.335859 L 0.752539 0.335859 L 0.756719 0.340078 L 0.760937 0.340078 L 0.765156 0.344258 L 0.769375 0.344258 L 0.773555 0.348477 L 0.777773 0.352695 L 0.781992 0.352695 L 0.786211 0.348477 L 0.794609 0.348477 L 0.811445 0.365312 L 0.815664 0.365312 L 0.819883 0.369531 L 0.819883 0.37375 L 0.824063 0.37793 L 0.828281 0.37793 L 0.8325 0.37375 L 0.840898 0.37375 L 0.840898 0.37793 L 0.857734 0.394766 L 0.857734 0.398984 L 0.870352 0.411602 L 0.878789 0.411602 L 0.883008 0.41582 L 0.887188 0.420039 L 0.891406 0.424258 L 0.891406 0.428438 L 0.895625 0.432656 L 0.895625 0.436875 L 0.899844 0.441094 L 0.904023 0.441094 L 0.908242 0.445273 L 0.908242 0.449492 L 0.912461 0.453711 L 0.912461 0.45793 L 0.91668 0.462109 L 0.91668 0.466328 L 0.920859 0.470547 L 0.920859 0.487383 L 0.925078 0.491602 L 0.929297 0.495781 L 0.920859 0.504219 L 0.920859 0.516836 L 0.925078 0.521055 L 0.929297 0.525234 L 0.933516 0.521055 L 0.933516 0.516836 L 0.937695 0.521055 L 0.946133 0.521055 L 0.950352 0.525234 L 0.954531 0.525234 L 0.954531 0.537891 L 0.946133 0.546289 L 0.941914 0.546289 L 0.937695 0.550508 L 0.920859 0.550508 L 0.91668 0.546289 L 0.912461 0.546289 L 0.908242 0.54207 L 0.899844 0.54207 L 0.895625 0.537891 L 0.891406 0.54207 L 0.887188 0.546289 L 0.887188 0.550508 L 0.883008 0.554727 L 0.883008 0.558906 L 0.866172 0.575742 L 0.857734 0.575742 L 0.853555 0.579961 L 0.853555 0.588398 L 0.849336 0.592578 L 0.845117 0.596797 L 0.8325 0.596797 L 0.828281 0.601016 L 0.828281 0.605234 L 0.824063 0.609414 L 0.815664 0.609414 L 0.811445 0.613633 L 0.794609 0.613633 L 0.790391 0.617852 L 0.786211 0.617852 L 0.781992 0.62207 L 0.777773 0.62625 L 0.765156 0.62625 L 0.760937 0.62207 L 0.756719 0.62625 L 0.756719 0.630469 L 0.752539 0.630469 L 0.74832 0.634688 L 0.744102 0.634688 L 0.739883 0.638906 L 0.735703 0.638906 L 0.731484 0.643086 L 0.731484 0.638906 L 0.727266 0.634688 L 0.723047 0.634688 L 0.718867 0.638906 L 0.714648 0.643086 L 0.71043 0.643086 L 0.706211 0.647305 L 0.702031 0.647305 L 0.697813 0.651523 L 0.689375 0.651523 L 0.685195 0.647305 L 0.680977 0.647305 L 0.676758 0.651523 L 0.676758 0.655742 L 0.672578 0.655742 L 0.668359 0.659922 L 0.664141 0.659922 L 0.659922 0.664141 L 0.655742 0.664141 L 0.651523 0.668359 L 0.643086 0.659922 L 0.638906 0.659922 L 0.62625 0.672578 L 0.613633 0.672578 L 0.609414 0.676758 L 0.605234 0.680977 L 0.588398 0.680977 L 0.588398 0.676758 L 0.58418 0.672578 L 0.579961 0.676758 L 0.575742 0.676758 L 0.571562 0.680977 L 0.567344 0.685195 L 0.563125 0.689375 L 0.558906 0.689375 L 0.554727 0.685195 L 0.550508 0.689375 L 0.546289 0.689375 L 0.54207 0.693594 L 0.537891 0.697813 L 0.529453 0.697813 L 0.525234 0.693594 L 0.525234 0.685195 L 0.521055 0.680977 L 0.516836 0.680977 L 0.512617 0.685195 L 0.508398 0.689375 L 0.495781 0.689375 L 0.491602 0.693594 L 0.487383 0.697813 L 0.487383 0.702031 L 0.462109 0.702031 L 0.462109 0.689375 L 0.45793 0.685195 L 0.453711 0.689375 L 0.445273 0.689375 L 0.441094 0.693594 L 0.432656 0.702031 L 0.424258 0.702031 L 0.420039 0.697813 L 0.41582 0.702031 L 0.411602 0.706211 L 0.407422 0.71043 L 0.382148 0.71043 L 0.382148 0.702031 L 0.37793 0.697813 L 0.37375 0.693594 L 0.369531 0.697813 L 0.361094 0.697813 L 0.356914 0.702031 L 0.331641 0.702031 L 0.327422 0.706211 L 0.302188 0.706211 L 0.302188 0.685195 L 0.297969 0.680977 L 0.293789 0.680977 L 0.28957 0.685195 L 0.272734 0.685195 L 0.268516 0.689375 L 0.264297 0.685195 L 0.260117 0.680977 L 0.239063 0.680977 L 0.234844 0.676758 L 0.234844 0.664141 L 0.226445 0.655742 L 0.222227 0.659922 L 0.213789 0.659922 L 0.213789 0.655742 L 0.209609 0.651523 L 0.205391 0.647305 L 0.201172 0.651523 L 0.180117 0.651523 L 0.175937 0.647305 L 0.171719 0.647305 L 0.1675 0.643086 L 0.1675 0.634688 L 0.171719 0.630469 L 0.171719 0.62625 L 0.1675 0.62207 L 0.163281 0.617852 L 0.146445 0.617852 L 0.146445 0.613633 L 0.142266 0.609414 L 0.133828 0.609414 L 0.129648 0.605234 L 0.12543 0.605234 L 0.116992 0.596797 L 0.116992 0.588398 L 0.12543 0.579961 L 0.12543 0.575742 L 0.121211 0.571562 L 0.112813 0.571562 L 0.108594 0.567344 L 0.108594 0.563125 L 0.104375 0.558906 L 0.104375 0.554727 L 0.100156 0.550508 L 0.100156 0.546289 L 0.0959766 0.54207 L 0.0959766 0.529453 L 0.0917578 0.525234 L 0.0875391 0.521055 L 0.0791406 0.521055 L 0.0749219 0.516836 L 0.0538672 0.516836 L 0.0496484 0.512617 L 0.0496484 0.508398 L 0.0454688 0.504219 Z M 0.0454688 0.5 " transform="matrix(100,0,0,100,450,350)"/>
<path style="fill:none;stroke-width:0.01;stroke-linecap:butt;stroke-linejoin:miter;stroke:rgb(0%,0%,0%);stroke-opacity:1;stroke-miterlimit:10;" d="M 0.0454688 0.434492 L 0.0494141 0.430547 L 0.0613281 0.430547 L 0.0653125 0.426563 L 0.0930859 0.426563 L 0.0970703 0.430547 L 0.101016 0.430547 L 0.105 0.426563 L 0.116914 0.426563 L 0.120898 0.422578 L 0.120898 0.418633 L 0.128828 0.418633 L 0.132773 0.414648 L 0.132773 0.410664 L 0.136758 0.406719 L 0.140742 0.410664 L 0.144687 0.410664 L 0.148672 0.406719 L 0.148672 0.39875 L 0.152656 0.394805 L 0.156602 0.394805 L 0.160586 0.39082 L 0.176445 0.39082 L 0.18043 0.386875 L 0.18043 0.378906 L 0.192344 0.378906 L 0.196289 0.374961 L 0.200273 0.374961 L 0.204258 0.370977 L 0.204258 0.366992 L 0.208203 0.363047 L 0.212187 0.363047 L 0.216172 0.359063 L 0.220117 0.359063 L 0.224102 0.355117 L 0.228086 0.351133 L 0.232031 0.355117 L 0.236016 0.355117 L 0.239961 0.351133 L 0.239961 0.343203 L 0.243945 0.339219 L 0.259844 0.339219 L 0.263789 0.335234 L 0.263789 0.331289 L 0.267773 0.335234 L 0.275703 0.335234 L 0.279688 0.331289 L 0.279688 0.323359 L 0.291602 0.323359 L 0.295547 0.319375 L 0.299531 0.315391 L 0.303477 0.315391 L 0.307461 0.319375 L 0.311445 0.319375 L 0.315391 0.323359 L 0.319375 0.319375 L 0.319375 0.307461 L 0.323359 0.303477 L 0.335234 0.303477 L 0.339219 0.299531 L 0.347148 0.299531 L 0.351133 0.303477 L 0.355117 0.303477 L 0.359063 0.299531 L 0.359063 0.291602 L 0.382891 0.291602 L 0.386875 0.287617 L 0.394805 0.287617 L 0.39875 0.291602 L 0.402734 0.291602 L 0.406719 0.287617 L 0.406719 0.283633 L 0.434492 0.283633 L 0.438477 0.287617 L 0.442422 0.291602 L 0.446406 0.291602 L 0.450391 0.287617 L 0.45832 0.287617 L 0.462305 0.291602 L 0.470234 0.291602 L 0.47418 0.295547 L 0.482148 0.295547 L 0.486094 0.291602 L 0.486094 0.287617 L 0.490078 0.287617 L 0.494063 0.291602 L 0.505937 0.291602 L 0.509922 0.295547 L 0.521836 0.295547 L 0.52582 0.299531 L 0.529766 0.295547 L 0.53375 0.291602 L 0.537695 0.291602 L 0.54168 0.295547 L 0.545664 0.299531 L 0.553594 0.299531 L 0.557578 0.303477 L 0.569453 0.303477 L 0.577422 0.311445 L 0.581367 0.307461 L 0.585352 0.303477 L 0.593281 0.303477 L 0.60125 0.311445 L 0.60918 0.311445 L 0.613125 0.315391 L 0.617109 0.311445 L 0.621094 0.307461 L 0.625039 0.311445 L 0.629023 0.315391 L 0.633008 0.319375 L 0.640937 0.319375 L 0.644883 0.323359 L 0.648867 0.327305 L 0.652852 0.327305 L 0.656797 0.323359 L 0.664766 0.323359 L 0.676641 0.335234 L 0.680625 0.335234 L 0.684609 0.339219 L 0.692539 0.339219 L 0.696523 0.335234 L 0.700469 0.335234 L 0.704453 0.339219 L 0.708398 0.343203 L 0.712383 0.347148 L 0.716367 0.351133 L 0.728281 0.351133 L 0.732227 0.355117 L 0.736211 0.359063 L 0.740156 0.363047 L 0.744141 0.366992 L 0.748125 0.370977 L 0.75207 0.374961 L 0.756055 0.370977 L 0.767969 0.382891 L 0.771914 0.386875 L 0.779883 0.386875 L 0.787813 0.394805 L 0.791797 0.39875 L 0.795742 0.402734 L 0.803711 0.402734 L 0.807656 0.406719 L 0.807656 0.410664 L 0.811641 0.414648 L 0.815586 0.418633 L 0.81957 0.422578 L 0.823555 0.426563 L 0.8275 0.430547 L 0.831484 0.434492 L 0.835469 0.438477 L 0.839414 0.438477 L 0.839414 0.442422 L 0.843398 0.446406 L 0.847344 0.450391 L 0.851328 0.454336 L 0.855313 0.45832 L 0.859258 0.462305 L 0.863242 0.462305 L 0.867227 0.46625 L 0.871172 0.470234 L 0.875156 0.470234 L 0.875156 0.47418 L 0.879102 0.478164 L 0.883086 0.482148 L 0.88707 0.482148 L 0.891016 0.478164 L 0.895 0.478164 L 0.898984 0.47418 L 0.90293 0.47418 L 0.906914 0.470234 L 0.910859 0.470234 L 0.914844 0.46625 L 0.918828 0.462305 L 0.922773 0.45832 L 0.926758 0.454336 L 0.930742 0.450391 L 0.942617 0.450391 L 0.946602 0.454336 L 0.950586 0.454336 L 0.954531 0.45832 L 0.954531 0.470234 L 0.950586 0.47418 L 0.946602 0.470234 L 0.942617 0.470234 L 0.938672 0.47418 L 0.930742 0.47418 L 0.922773 0.482148 L 0.926758 0.486094 L 0.926758 0.490078 L 0.930742 0.494063 L 0.930742 0.537695 L 0.926758 0.54168 L 0.926758 0.561523 L 0.922773 0.565508 L 0.922773 0.561523 L 0.914844 0.553594 L 0.914844 0.549609 L 0.910859 0.545664 L 0.906914 0.54168 L 0.895 0.54168 L 0.891016 0.545664 L 0.88707 0.54168 L 0.883086 0.54168 L 0.879102 0.545664 L 0.879102 0.557578 L 0.883086 0.561523 L 0.883086 0.565508 L 0.879102 0.569453 L 0.879102 0.577422 L 0.883086 0.581367 L 0.88707 0.581367 L 0.891016 0.585352 L 0.891016 0.589336 L 0.895 0.593281 L 0.895 0.597266 L 0.88707 0.605195 L 0.88707 0.60918 L 0.883086 0.613125 L 0.875156 0.613125 L 0.871172 0.617109 L 0.871172 0.621094 L 0.859258 0.633008 L 0.847344 0.633008 L 0.831484 0.648867 L 0.8275 0.648867 L 0.823555 0.652852 L 0.81957 0.648867 L 0.815586 0.648867 L 0.811641 0.652852 L 0.807656 0.656797 L 0.803711 0.660781 L 0.799727 0.660781 L 0.791797 0.668711 L 0.775898 0.668711 L 0.771914 0.672695 L 0.771914 0.676641 L 0.767969 0.676641 L 0.763984 0.680625 L 0.760039 0.680625 L 0.756055 0.684609 L 0.75207 0.684609 L 0.748125 0.680625 L 0.744141 0.680625 L 0.736211 0.688555 L 0.728281 0.688555 L 0.720313 0.696523 L 0.716367 0.696523 L 0.712383 0.700469 L 0.708398 0.700469 L 0.700469 0.692539 L 0.696523 0.692539 L 0.692539 0.696523 L 0.688555 0.696523 L 0.684609 0.700469 L 0.672695 0.700469 L 0.660781 0.712383 L 0.648867 0.712383 L 0.640937 0.704453 L 0.636953 0.708398 L 0.633008 0.712383 L 0.617109 0.712383 L 0.613125 0.716367 L 0.605195 0.716367 L 0.605195 0.712383 L 0.60125 0.708398 L 0.597266 0.708398 L 0.593281 0.712383 L 0.577422 0.712383 L 0.573437 0.716367 L 0.569453 0.716367 L 0.565508 0.712383 L 0.561523 0.708398 L 0.537695 0.708398 L 0.529766 0.700469 L 0.517852 0.700469 L 0.513906 0.704453 L 0.509922 0.704453 L 0.509922 0.700469 L 0.505937 0.696523 L 0.501992 0.700469 L 0.498008 0.700469 L 0.494063 0.704453 L 0.490078 0.704453 L 0.486094 0.700469 L 0.462305 0.700469 L 0.462305 0.696523 L 0.45832 0.692539 L 0.442422 0.692539 L 0.438477 0.688555 L 0.418633 0.688555 L 0.418633 0.684609 L 0.414648 0.680625 L 0.414648 0.676641 L 0.410664 0.672695 L 0.406719 0.676641 L 0.394805 0.676641 L 0.39082 0.672695 L 0.382891 0.672695 L 0.378906 0.676641 L 0.370977 0.668711 L 0.363047 0.668711 L 0.363047 0.664766 L 0.359063 0.660781 L 0.355117 0.656797 L 0.343203 0.656797 L 0.339219 0.652852 L 0.331289 0.652852 L 0.327305 0.648867 L 0.319375 0.648867 L 0.319375 0.640937 L 0.315391 0.636953 L 0.299531 0.636953 L 0.295547 0.633008 L 0.283633 0.633008 L 0.279688 0.629023 L 0.275703 0.625039 L 0.275703 0.617109 L 0.279688 0.613125 L 0.275703 0.60918 L 0.267773 0.60918 L 0.259844 0.60125 L 0.255859 0.60125 L 0.251875 0.597266 L 0.24793 0.593281 L 0.243945 0.589336 L 0.239961 0.585352 L 0.236016 0.581367 L 0.228086 0.581367 L 0.224102 0.577422 L 0.224102 0.569453 L 0.220117 0.565508 L 0.216172 0.569453 L 0.212187 0.569453 L 0.208203 0.565508 L 0.204258 0.565508 L 0.200273 0.561523 L 0.192344 0.561523 L 0.192344 0.549609 L 0.188359 0.545664 L 0.18043 0.545664 L 0.176445 0.54168 L 0.1725 0.537695 L 0.168516 0.537695 L 0.168516 0.53375 L 0.1725 0.529766 L 0.1725 0.52582 L 0.168516 0.521836 L 0.160586 0.521836 L 0.156602 0.517852 L 0.148672 0.517852 L 0.148672 0.505937 L 0.144687 0.501992 L 0.132773 0.501992 L 0.128828 0.498008 L 0.124844 0.498008 L 0.120898 0.494063 L 0.120898 0.486094 L 0.116914 0.482148 L 0.11293 0.482148 L 0.108984 0.478164 L 0.105 0.47418 L 0.101016 0.470234 L 0.0970703 0.46625 L 0.0930859 0.46625 L 0.0851562 0.45832 L 0.0811719 0.45832 L 0.0811719 0.454336 L 0.0772266 0.450391 L 0.0692578 0.450391 L 0.0653125 0.446406 L 0.0613281 0.442422 L 0.0533984 0.442422 L 0.0494141 0.438477 Z M 0.0454688 0.434492 " transform="matrix(100,0,0,100,600,350)"/>
</g>
</svg>
