<?xml version="1.0" encoding="UTF-8"?>
<svg xmlns="http://www.w3.org/2000/svg" xmlns:xlink="http://www.w3.org/1999/xlink" width="750pt" height="2800pt" viewBox="0 0 750 2800" version="1.1">
<g id="surface1">
<path style="fill:none;stroke-width:0.01;stroke-linecap:butt;stroke-linejoin:miter;stroke:rgb(0%,0%,0%);stroke-opacity:1;stroke-miterlimit:10;" d="M 0.0454688 0.372148 L 0.0495312 0.368086 L 0.0535547 0.368086 L 0.0576172 0.364023 L 0.0616797 0.368086 L 0.0982031 0.368086 L 0.102266 0.364023 L 0.110391 0.364023 L 0.114453 0.368086 L 0.118516 0.368086 L 0.122578 0.364023 L 0.126641 0.364023 L 0.130664 0.36 L 0.138789 0.36 L 0.142852 0.364023 L 0.150977 0.364023 L 0.155039 0.368086 L 0.167227 0.368086 L 0.17125 0.364023 L 0.175313 0.36 L 0.183438 0.36 L 0.1875 0.355938 L 0.199688 0.355938 L 0.20375 0.351875 L 0.199688 0.347812 L 0.20375 0.34375 L 0.211836 0.34375 L 0.215898 0.339688 L 0.219961 0.339688 L 0.224023 0.335625 L 0.228086 0.339688 L 0.232148 0.335625 L 0.232148 0.331562 L 0.236211 0.3275 L 0.240273 0.323477 L 0.244336 0.319414 L 0.244336 0.315352 L 0.248359 0.315352 L 0.256484 0.307227 L 0.268672 0.307227 L 0.272734 0.303164 L 0.272734 0.290977 L 0.276797 0.286914 L 0.293008 0.286914 L 0.29707 0.282891 L 0.29707 0.278828 L 0.309258 0.278828 L 0.31332 0.274766 L 0.329531 0.274766 L 0.337656 0.266641 L 0.341719 0.270703 L 0.345781 0.266641 L 0.345781 0.262578 L 0.349844 0.258516 L 0.353906 0.258516 L 0.357969 0.254453 L 0.362031 0.254453 L 0.366055 0.258516 L 0.370117 0.254453 L 0.370117 0.250391 L 0.378242 0.250391 L 0.382305 0.254453 L 0.39043 0.246328 L 0.402578 0.246328 L 0.406641 0.250391 L 0.410703 0.250391 L 0.414766 0.246328 L 0.431016 0.246328 L 0.435078 0.250391 L 0.439141 0.246328 L 0.447227 0.246328 L 0.451289 0.250391 L 0.455352 0.246328 L 0.471602 0.246328 L 0.475664 0.250391 L 0.48375 0.250391 L 0.487813 0.254453 L 0.495938 0.254453 L 0.5 0.258516 L 0.504062 0.258516 L 0.508125 0.262578 L 0.512188 0.258516 L 0.51625 0.262578 L 0.524336 0.262578 L 0.528398 0.266641 L 0.532461 0.266641 L 0.540586 0.274766 L 0.548711 0.274766 L 0.560859 0.286914 L 0.568984 0.286914 L 0.577109 0.295039 L 0.589297 0.295039 L 0.597422 0.303164 L 0.601445 0.303164 L 0.601445 0.307227 L 0.60957 0.315352 L 0.613633 0.315352 L 0.613633 0.319414 L 0.617695 0.323477 L 0.617695 0.3275 L 0.621758 0.331562 L 0.62582 0.331562 L 0.629883 0.335625 L 0.629883 0.339688 L 0.633945 0.34375 L 0.633945 0.347812 L 0.637969 0.351875 L 0.646094 0.351875 L 0.650156 0.355938 L 0.650156 0.36 L 0.654219 0.364023 L 0.654219 0.368086 L 0.670469 0.384336 L 0.670469 0.400586 L 0.674531 0.404609 L 0.678555 0.408672 L 0.678555 0.420859 L 0.68668 0.428984 L 0.682617 0.433047 L 0.682617 0.441172 L 0.68668 0.445195 L 0.68668 0.465508 L 0.678555 0.473633 L 0.678555 0.477695 L 0.658281 0.497969 L 0.658281 0.502031 L 0.654219 0.506094 L 0.654219 0.514219 L 0.650156 0.518281 L 0.650156 0.526367 L 0.646094 0.53043 L 0.646094 0.538555 L 0.642031 0.542617 L 0.642031 0.554805 L 0.637969 0.558828 L 0.646094 0.566953 L 0.650156 0.566953 L 0.662344 0.579141 L 0.666406 0.579141 L 0.670469 0.583203 L 0.674531 0.583203 L 0.678555 0.587266 L 0.68668 0.587266 L 0.690742 0.591328 L 0.698867 0.591328 L 0.70293 0.595391 L 0.711055 0.595391 L 0.715078 0.599414 L 0.719141 0.599414 L 0.723203 0.603477 L 0.731328 0.603477 L 0.735391 0.607539 L 0.743516 0.607539 L 0.747578 0.611602 L 0.755664 0.611602 L 0.759727 0.615664 L 0.771914 0.615664 L 0.775977 0.619727 L 0.784102 0.619727 L 0.788164 0.623789 L 0.792227 0.623789 L 0.79625 0.627852 L 0.808438 0.627852 L 0.8125 0.631914 L 0.816562 0.631914 L 0.820625 0.635977 L 0.82875 0.635977 L 0.832773 0.64 L 0.840898 0.64 L 0.844961 0.644062 L 0.853086 0.644062 L 0.857148 0.648125 L 0.861211 0.648125 L 0.865273 0.652188 L 0.873359 0.652188 L 0.877422 0.65625 L 0.893672 0.65625 L 0.897734 0.660312 L 0.905859 0.660312 L 0.909922 0.664375 L 0.92207 0.664375 L 0.926133 0.668438 L 0.93832 0.668438 L 0.942383 0.664375 L 0.950469 0.664375 L 0.954531 0.668438 L 0.954531 0.6725 L 0.950469 0.676523 L 0.913945 0.676523 L 0.909922 0.6725 L 0.905859 0.6725 L 0.901797 0.668438 L 0.897734 0.668438 L 0.893672 0.664375 L 0.889609 0.664375 L 0.885547 0.660312 L 0.877422 0.660312 L 0.873359 0.65625 L 0.865273 0.65625 L 0.861211 0.652188 L 0.853086 0.652188 L 0.849023 0.648125 L 0.840898 0.648125 L 0.836836 0.644062 L 0.82875 0.644062 L 0.824688 0.64 L 0.820625 0.64 L 0.816562 0.635977 L 0.804375 0.635977 L 0.800312 0.631914 L 0.79625 0.631914 L 0.792227 0.627852 L 0.784102 0.627852 L 0.780039 0.623789 L 0.771914 0.623789 L 0.767852 0.619727 L 0.759727 0.619727 L 0.755664 0.615664 L 0.747578 0.615664 L 0.743516 0.611602 L 0.731328 0.611602 L 0.727266 0.607539 L 0.723203 0.607539 L 0.719141 0.603477 L 0.711055 0.603477 L 0.706992 0.599414 L 0.694805 0.599414 L 0.690742 0.595391 L 0.682617 0.595391 L 0.678555 0.591328 L 0.670469 0.591328 L 0.666406 0.587266 L 0.662344 0.587266 L 0.658281 0.583203 L 0.654219 0.583203 L 0.650156 0.579141 L 0.646094 0.579141 L 0.642031 0.575078 L 0.637969 0.579141 L 0.637969 0.591328 L 0.633945 0.595391 L 0.633945 0.619727 L 0.637969 0.623789 L 0.633945 0.627852 L 0.633945 0.64 L 0.637969 0.644062 L 0.637969 0.676523 L 0.633945 0.680586 L 0.633945 0.684648 L 0.629883 0.688711 L 0.629883 0.692773 L 0.621758 0.700898 L 0.617695 0.700898 L 0.613633 0.704961 L 0.605508 0.704961 L 0.601445 0.700898 L 0.597422 0.696836 L 0.593359 0.696836 L 0.589297 0.692773 L 0.585234 0.696836 L 0.585234 0.700898 L 0.589297 0.704961 L 0.585234 0.709023 L 0.577109 0.709023 L 0.573047 0.713086 L 0.568984 0.713086 L 0.564922 0.717109 L 0.564922 0.721172 L 0.560859 0.725234 L 0.556836 0.725234 L 0.552773 0.729297 L 0.552773 0.733359 L 0.540586 0.733359 L 0.536523 0.737422 L 0.524336 0.737422 L 0.520273 0.741484 L 0.51625 0.745547 L 0.512188 0.745547 L 0.508125 0.749609 L 0.504062 0.749609 L 0.5 0.745547 L 0.495938 0.745547 L 0.491875 0.749609 L 0.479727 0.749609 L 0.475664 0.753672 L 0.471602 0.749609 L 0.459414 0.749609 L 0.455352 0.745547 L 0.451289 0.745547 L 0.447227 0.749609 L 0.431016 0.749609 L 0.426953 0.745547 L 0.410703 0.745547 L 0.406641 0.741484 L 0.402578 0.745547 L 0.394492 0.745547 L 0.39043 0.741484 L 0.386367 0.741484 L 0.37418 0.729297 L 0.357969 0.729297 L 0.357969 0.725234 L 0.353906 0.721172 L 0.345781 0.721172 L 0.345781 0.717109 L 0.341719 0.713086 L 0.337656 0.713086 L 0.333594 0.709023 L 0.329531 0.709023 L 0.329531 0.700898 L 0.325469 0.696836 L 0.31332 0.696836 L 0.31332 0.692773 L 0.309258 0.688711 L 0.301133 0.688711 L 0.293008 0.680586 L 0.29707 0.676523 L 0.293008 0.6725 L 0.280859 0.6725 L 0.280859 0.668438 L 0.272734 0.660312 L 0.268672 0.660312 L 0.264609 0.65625 L 0.264609 0.652188 L 0.260547 0.648125 L 0.252422 0.648125 L 0.248359 0.644062 L 0.244336 0.64 L 0.240273 0.635977 L 0.236211 0.635977 L 0.228086 0.627852 L 0.228086 0.623789 L 0.219961 0.615664 L 0.219961 0.611602 L 0.215898 0.607539 L 0.219961 0.603477 L 0.215898 0.599414 L 0.211836 0.599414 L 0.207773 0.595391 L 0.207773 0.591328 L 0.20375 0.587266 L 0.199688 0.583203 L 0.20375 0.579141 L 0.195625 0.571016 L 0.195625 0.558828 L 0.191562 0.554805 L 0.1875 0.550742 L 0.1875 0.54668 L 0.191562 0.542617 L 0.191562 0.538555 L 0.1875 0.534492 L 0.1875 0.53043 L 0.191562 0.526367 L 0.1875 0.522305 L 0.1875 0.514219 L 0.183438 0.510156 L 0.183438 0.497969 L 0.179375 0.493906 L 0.179375 0.489844 L 0.175313 0.485781 L 0.175313 0.481719 L 0.17125 0.477695 L 0.167227 0.473633 L 0.167227 0.46957 L 0.163164 0.465508 L 0.163164 0.461445 L 0.155039 0.45332 L 0.150977 0.45332 L 0.150977 0.449258 L 0.146914 0.445195 L 0.146914 0.441172 L 0.142852 0.437109 L 0.146914 0.433047 L 0.146914 0.428984 L 0.142852 0.424922 L 0.138789 0.424922 L 0.134727 0.420859 L 0.130664 0.420859 L 0.130664 0.408672 L 0.126641 0.404609 L 0.110391 0.404609 L 0.110391 0.400586 L 0.102266 0.392461 L 0.0982031 0.392461 L 0.0941406 0.388398 L 0.0900781 0.388398 L 0.0860547 0.384336 L 0.0738672 0.384336 L 0.0698047 0.380273 L 0.0616797 0.380273 L 0.0576172 0.376211 L 0.0495312 0.376211 Z M 0.0454688 0.372148 " transform="matrix(100,0,0,100,0,200)"/>
<path style="fill:none;stroke-width:0.01;stroke-linecap:butt;stroke-linejoin:miter;stroke:rgb(0%,0%,0%);stroke-opacity:1;stroke-miterlimit:10;" d="M 0.0454687 0.510273 L 0.0495703 0.510273 L 0.0536719 0.506172 L 0.0578125 0.506172 L 0.0619141 0.50207 L 0.0660156 0.49793 L 0.0783594 0.49793 L 0.0824609 0.493828 L 0.0907031 0.493828 L 0.0989453 0.485586 L 0.103047 0.485586 L 0.107148 0.489727 L 0.131836 0.489727 L 0.135938 0.485586 L 0.135938 0.477383 L 0.140078 0.473281 L 0.156523 0.473281 L 0.160625 0.469141 L 0.160625 0.465039 L 0.164766 0.460938 L 0.168867 0.456797 L 0.172969 0.456797 L 0.17707 0.452695 L 0.17707 0.444453 L 0.181211 0.440352 L 0.185312 0.43625 L 0.189414 0.432109 L 0.189414 0.428008 L 0.193555 0.423906 L 0.197656 0.423906 L 0.201758 0.419805 L 0.201758 0.415664 L 0.197656 0.411563 L 0.201758 0.407461 L 0.205898 0.407461 L 0.21 0.40332 L 0.214102 0.399219 L 0.214102 0.395117 L 0.226445 0.395117 L 0.230547 0.390977 L 0.230547 0.382773 L 0.234687 0.382773 L 0.238789 0.378633 L 0.234687 0.374531 L 0.234687 0.349844 L 0.247031 0.349844 L 0.255234 0.341641 L 0.251133 0.3375 L 0.255234 0.333398 L 0.259375 0.329297 L 0.267578 0.329297 L 0.27168 0.325156 L 0.267578 0.321055 L 0.27168 0.316953 L 0.27582 0.316953 L 0.279922 0.312852 L 0.284023 0.312852 L 0.288164 0.308711 L 0.288164 0.300508 L 0.292266 0.296367 L 0.292266 0.292266 L 0.288164 0.288164 L 0.288164 0.284023 L 0.284023 0.279922 L 0.284023 0.27582 L 0.288164 0.27168 L 0.296367 0.27168 L 0.300508 0.267578 L 0.300508 0.255234 L 0.304609 0.251133 L 0.308711 0.251133 L 0.312852 0.247031 L 0.316953 0.242891 L 0.329297 0.242891 L 0.333398 0.238789 L 0.329297 0.234688 L 0.333398 0.234688 L 0.3375 0.230547 L 0.341641 0.226445 L 0.349844 0.226445 L 0.353984 0.222344 L 0.353984 0.218242 L 0.358086 0.218242 L 0.362188 0.222344 L 0.366328 0.218242 L 0.382773 0.218242 L 0.386875 0.214102 L 0.390977 0.21 L 0.40332 0.21 L 0.407461 0.205898 L 0.419805 0.205898 L 0.423906 0.201758 L 0.428008 0.201758 L 0.432109 0.197656 L 0.43625 0.201758 L 0.440352 0.201758 L 0.444453 0.197656 L 0.448594 0.197656 L 0.452695 0.201758 L 0.456797 0.201758 L 0.460938 0.197656 L 0.465039 0.193555 L 0.485586 0.193555 L 0.493828 0.185313 L 0.506172 0.185313 L 0.510273 0.189414 L 0.514414 0.185313 L 0.518516 0.185313 L 0.522617 0.189414 L 0.539062 0.189414 L 0.543203 0.193555 L 0.547305 0.193555 L 0.551406 0.197656 L 0.567891 0.197656 L 0.571992 0.201758 L 0.576094 0.205898 L 0.584336 0.205898 L 0.588437 0.21 L 0.59668 0.21 L 0.600781 0.214102 L 0.604883 0.218242 L 0.609023 0.218242 L 0.613125 0.222344 L 0.617227 0.222344 L 0.621367 0.226445 L 0.625469 0.230547 L 0.62957 0.234688 L 0.637812 0.234688 L 0.650156 0.247031 L 0.654258 0.242891 L 0.658359 0.247031 L 0.6625 0.247031 L 0.678945 0.263477 L 0.678945 0.267578 L 0.683047 0.27168 L 0.687148 0.27582 L 0.687148 0.279922 L 0.691289 0.284023 L 0.695391 0.288164 L 0.699492 0.292266 L 0.699492 0.296367 L 0.703633 0.300508 L 0.703633 0.304609 L 0.707734 0.308711 L 0.711836 0.312852 L 0.715977 0.316953 L 0.715977 0.325156 L 0.720078 0.329297 L 0.720078 0.345742 L 0.72418 0.349844 L 0.72418 0.40332 L 0.720078 0.407461 L 0.720078 0.411563 L 0.715977 0.415664 L 0.715977 0.428008 L 0.711836 0.432109 L 0.711836 0.444453 L 0.707734 0.448594 L 0.707734 0.452695 L 0.703633 0.456797 L 0.703633 0.465039 L 0.699492 0.469141 L 0.699492 0.473281 L 0.695391 0.477383 L 0.695391 0.481484 L 0.691289 0.485586 L 0.691289 0.489727 L 0.695391 0.493828 L 0.707734 0.493828 L 0.711836 0.489727 L 0.715977 0.493828 L 0.720078 0.489727 L 0.72418 0.489727 L 0.72832 0.493828 L 0.798242 0.493828 L 0.802344 0.49793 L 0.847578 0.49793 L 0.851719 0.50207 L 0.872266 0.50207 L 0.876406 0.506172 L 0.896953 0.506172 L 0.901055 0.510273 L 0.925742 0.510273 L 0.929883 0.514414 L 0.942188 0.514414 L 0.946328 0.518516 L 0.95043 0.518516 L 0.954531 0.522617 L 0.954531 0.530859 L 0.95043 0.530859 L 0.946328 0.534961 L 0.942188 0.530859 L 0.938086 0.526719 L 0.933984 0.526719 L 0.929883 0.522617 L 0.917539 0.522617 L 0.913398 0.518516 L 0.901055 0.518516 L 0.896953 0.514414 L 0.884609 0.514414 L 0.880508 0.510273 L 0.864063 0.510273 L 0.859922 0.506172 L 0.835234 0.506172 L 0.831133 0.50207 L 0.781758 0.50207 L 0.777656 0.49793 L 0.72418 0.49793 L 0.720078 0.50207 L 0.699492 0.50207 L 0.695391 0.506172 L 0.711836 0.522617 L 0.715977 0.522617 L 0.720078 0.526719 L 0.72418 0.530859 L 0.72418 0.534961 L 0.72832 0.539062 L 0.732422 0.543203 L 0.744766 0.543203 L 0.748867 0.547305 L 0.752969 0.547305 L 0.757109 0.551406 L 0.761211 0.555547 L 0.761211 0.559648 L 0.769453 0.567891 L 0.769453 0.576094 L 0.773555 0.580195 L 0.773555 0.584336 L 0.777656 0.588437 L 0.777656 0.613125 L 0.773555 0.617227 L 0.773555 0.625469 L 0.769453 0.62957 L 0.765312 0.633672 L 0.761211 0.637812 L 0.757109 0.641914 L 0.752969 0.646016 L 0.752969 0.658359 L 0.761211 0.666602 L 0.761211 0.674844 L 0.757109 0.678945 L 0.757109 0.683047 L 0.752969 0.687148 L 0.752969 0.691289 L 0.744766 0.699492 L 0.740625 0.699492 L 0.736523 0.703633 L 0.736523 0.707734 L 0.732422 0.711836 L 0.72832 0.715977 L 0.72832 0.720078 L 0.72418 0.72418 L 0.720078 0.72418 L 0.715977 0.72832 L 0.711836 0.732422 L 0.707734 0.736523 L 0.707734 0.740625 L 0.703633 0.744766 L 0.699492 0.740625 L 0.695391 0.744766 L 0.691289 0.748867 L 0.691289 0.752969 L 0.687148 0.757109 L 0.678945 0.757109 L 0.674844 0.761211 L 0.674844 0.765312 L 0.670703 0.765312 L 0.666602 0.769453 L 0.6625 0.773555 L 0.650156 0.773555 L 0.646016 0.777656 L 0.641914 0.781758 L 0.62957 0.781758 L 0.625469 0.785898 L 0.621367 0.79 L 0.609023 0.79 L 0.604883 0.794102 L 0.588437 0.794102 L 0.584336 0.798242 L 0.576094 0.798242 L 0.571992 0.802344 L 0.551406 0.802344 L 0.547305 0.806445 L 0.539062 0.806445 L 0.534961 0.810586 L 0.514414 0.810586 L 0.510273 0.814688 L 0.506172 0.814688 L 0.50207 0.810586 L 0.49793 0.810586 L 0.493828 0.814688 L 0.485586 0.814688 L 0.481484 0.810586 L 0.473281 0.810586 L 0.469141 0.806445 L 0.465039 0.806445 L 0.460938 0.810586 L 0.456797 0.810586 L 0.452695 0.806445 L 0.448594 0.802344 L 0.444453 0.806445 L 0.440352 0.806445 L 0.43625 0.810586 L 0.432109 0.810586 L 0.432109 0.806445 L 0.428008 0.802344 L 0.423906 0.806445 L 0.415664 0.806445 L 0.411563 0.802344 L 0.399219 0.802344 L 0.390977 0.794102 L 0.386875 0.794102 L 0.382773 0.79 L 0.37043 0.79 L 0.366328 0.785898 L 0.349844 0.785898 L 0.349844 0.781758 L 0.345742 0.777656 L 0.3375 0.777656 L 0.333398 0.773555 L 0.329297 0.773555 L 0.325156 0.769453 L 0.321055 0.765312 L 0.312852 0.765312 L 0.308711 0.761211 L 0.304609 0.757109 L 0.292266 0.757109 L 0.288164 0.752969 L 0.288164 0.748867 L 0.284023 0.744766 L 0.279922 0.744766 L 0.27582 0.740625 L 0.27168 0.736523 L 0.27582 0.732422 L 0.279922 0.72832 L 0.279922 0.72418 L 0.27582 0.720078 L 0.27168 0.720078 L 0.27168 0.711836 L 0.27582 0.707734 L 0.27582 0.703633 L 0.27168 0.699492 L 0.27582 0.695391 L 0.27168 0.691289 L 0.267578 0.691289 L 0.267578 0.687148 L 0.263477 0.683047 L 0.263477 0.678945 L 0.255234 0.670703 L 0.247031 0.670703 L 0.247031 0.666602 L 0.251133 0.6625 L 0.247031 0.658359 L 0.242891 0.658359 L 0.238789 0.654258 L 0.230547 0.654258 L 0.230547 0.637812 L 0.226445 0.633672 L 0.222344 0.62957 L 0.218242 0.62957 L 0.214102 0.625469 L 0.21 0.625469 L 0.21 0.613125 L 0.193555 0.59668 L 0.193555 0.584336 L 0.189414 0.580195 L 0.189414 0.576094 L 0.168867 0.555547 L 0.164766 0.551406 L 0.160625 0.547305 L 0.156523 0.547305 L 0.152422 0.543203 L 0.14418 0.543203 L 0.140078 0.539062 L 0.135938 0.539062 L 0.135938 0.534961 L 0.131836 0.530859 L 0.107148 0.530859 L 0.107148 0.526719 L 0.0989453 0.518516 L 0.0948047 0.518516 L 0.0907031 0.514414 L 0.0824609 0.514414 L 0.0783594 0.518516 L 0.0578125 0.518516 L 0.0536719 0.514414 L 0.0454687 0.514414 Z M 0.0454687 0.510273 " transform="matrix(100,0,0,100,150,200)"/>
<path style="fill:none;stroke-width:0.01;stroke-linecap:butt;stroke-linejoin:miter;stroke:rgb(0%,0%,0%);stroke-opacity:1;stroke-miterlimit:10;" d="M 0.0454687 0.462969 L 0.0701172 0.462969 L 0.0742578 0.467109 L 0.0948047 0.467109 L 0.0989453 0.462969 L 0.0989453 0.458867 L 0.107148 0.458867 L 0.111289 0.462969 L 0.119492 0.462969 L 0.123594 0.458867 L 0.123594 0.454766 L 0.135938 0.454766 L 0.140078 0.458867 L 0.14418 0.458867 L 0.148281 0.454766 L 0.148281 0.450625 L 0.152422 0.446523 L 0.160625 0.446523 L 0.164766 0.442422 L 0.168867 0.442422 L 0.172969 0.438281 L 0.17707 0.43418 L 0.181211 0.430078 L 0.181211 0.425937 L 0.189414 0.417734 L 0.193555 0.417734 L 0.197656 0.413633 L 0.197656 0.409492 L 0.193555 0.405391 L 0.193555 0.401289 L 0.197656 0.397148 L 0.201758 0.393047 L 0.205898 0.393047 L 0.21 0.388945 L 0.214102 0.388945 L 0.218242 0.384805 L 0.218242 0.380703 L 0.214102 0.376602 L 0.218242 0.372461 L 0.222344 0.372461 L 0.230547 0.364258 L 0.226445 0.360156 L 0.222344 0.360156 L 0.226445 0.356016 L 0.230547 0.351914 L 0.230547 0.347812 L 0.234688 0.347812 L 0.238789 0.343672 L 0.238789 0.331328 L 0.242891 0.327227 L 0.247031 0.327227 L 0.251133 0.323125 L 0.255234 0.323125 L 0.259375 0.319023 L 0.259375 0.314883 L 0.255234 0.310781 L 0.259375 0.30668 L 0.267578 0.30668 L 0.27168 0.302539 L 0.279922 0.302539 L 0.284023 0.298437 L 0.284023 0.290195 L 0.279922 0.286094 L 0.288164 0.286094 L 0.292266 0.281992 L 0.296367 0.277852 L 0.300508 0.27375 L 0.304609 0.269648 L 0.304609 0.265547 L 0.300508 0.261406 L 0.300508 0.257305 L 0.304609 0.257305 L 0.308711 0.253203 L 0.316953 0.253203 L 0.321055 0.249062 L 0.325156 0.244961 L 0.329297 0.240859 L 0.329297 0.236719 L 0.333398 0.236719 L 0.3375 0.232617 L 0.345742 0.232617 L 0.349844 0.228516 L 0.353984 0.228516 L 0.358086 0.224375 L 0.358086 0.220273 L 0.37043 0.220273 L 0.374531 0.216172 L 0.374531 0.203828 L 0.390977 0.203828 L 0.395117 0.199727 L 0.395117 0.195586 L 0.40332 0.195586 L 0.407461 0.199727 L 0.411563 0.199727 L 0.415664 0.195586 L 0.423906 0.195586 L 0.428008 0.191484 L 0.428008 0.187383 L 0.444453 0.187383 L 0.452695 0.179141 L 0.460938 0.179141 L 0.465039 0.175039 L 0.481484 0.175039 L 0.485586 0.170898 L 0.49793 0.170898 L 0.50207 0.166797 L 0.514414 0.166797 L 0.518516 0.170898 L 0.522617 0.166797 L 0.522617 0.158594 L 0.543203 0.158594 L 0.547305 0.162695 L 0.551406 0.162695 L 0.555547 0.158594 L 0.559648 0.158594 L 0.56375 0.162695 L 0.567891 0.166797 L 0.571992 0.166797 L 0.576094 0.162695 L 0.580195 0.166797 L 0.584336 0.166797 L 0.588437 0.170898 L 0.592539 0.175039 L 0.59668 0.170898 L 0.609023 0.170898 L 0.613125 0.175039 L 0.617227 0.179141 L 0.621367 0.179141 L 0.625469 0.183242 L 0.637812 0.183242 L 0.641914 0.187383 L 0.646016 0.191484 L 0.650156 0.187383 L 0.654258 0.187383 L 0.658359 0.191484 L 0.6625 0.195586 L 0.666602 0.199727 L 0.670703 0.203828 L 0.674844 0.20793 L 0.683047 0.20793 L 0.687148 0.21207 L 0.691289 0.216172 L 0.695391 0.220273 L 0.703633 0.220273 L 0.707734 0.224375 L 0.711836 0.228516 L 0.715977 0.232617 L 0.720078 0.236719 L 0.720078 0.240859 L 0.72418 0.244961 L 0.732422 0.244961 L 0.732422 0.249062 L 0.736523 0.253203 L 0.740625 0.257305 L 0.748867 0.257305 L 0.757109 0.265547 L 0.757109 0.269648 L 0.761211 0.27375 L 0.769453 0.27375 L 0.773555 0.277852 L 0.773555 0.281992 L 0.781758 0.290195 L 0.785898 0.290195 L 0.785898 0.298437 L 0.79 0.302539 L 0.794102 0.302539 L 0.806445 0.314883 L 0.806445 0.323125 L 0.810586 0.327227 L 0.814688 0.327227 L 0.814688 0.331328 L 0.818789 0.335469 L 0.818789 0.356016 L 0.827031 0.364258 L 0.827031 0.384805 L 0.82293 0.388945 L 0.82293 0.397148 L 0.818789 0.401289 L 0.82293 0.405391 L 0.827031 0.405391 L 0.827031 0.409492 L 0.82293 0.413633 L 0.82293 0.417734 L 0.818789 0.421836 L 0.814688 0.425937 L 0.814688 0.430078 L 0.810586 0.43418 L 0.806445 0.438281 L 0.806445 0.442422 L 0.781758 0.467109 L 0.777656 0.467109 L 0.769453 0.475313 L 0.765313 0.479414 L 0.761211 0.483555 L 0.757109 0.483555 L 0.752969 0.487656 L 0.748867 0.487656 L 0.740625 0.495898 L 0.736523 0.495898 L 0.732422 0.5 L 0.72832 0.5 L 0.72418 0.504102 L 0.720078 0.508242 L 0.72418 0.512344 L 0.72832 0.512344 L 0.732422 0.516445 L 0.748867 0.516445 L 0.752969 0.520586 L 0.765313 0.520586 L 0.769453 0.524688 L 0.773555 0.524688 L 0.777656 0.528789 L 0.794102 0.528789 L 0.798242 0.532891 L 0.806445 0.532891 L 0.810586 0.537031 L 0.82293 0.537031 L 0.827031 0.541133 L 0.835234 0.541133 L 0.839375 0.545234 L 0.847578 0.545234 L 0.851719 0.549375 L 0.864063 0.549375 L 0.868164 0.553477 L 0.876406 0.553477 L 0.880508 0.557578 L 0.892852 0.557578 L 0.896953 0.561719 L 0.905195 0.561719 L 0.909297 0.56582 L 0.917539 0.56582 L 0.921641 0.569922 L 0.929883 0.569922 L 0.933984 0.574063 L 0.938086 0.574063 L 0.942188 0.578164 L 0.946328 0.578164 L 0.954531 0.586367 L 0.954531 0.594609 L 0.95043 0.598711 L 0.946328 0.598711 L 0.942188 0.602852 L 0.938086 0.598711 L 0.921641 0.582266 L 0.917539 0.582266 L 0.913398 0.578164 L 0.909297 0.578164 L 0.905195 0.574063 L 0.896953 0.574063 L 0.892852 0.569922 L 0.888711 0.569922 L 0.884609 0.56582 L 0.876406 0.56582 L 0.872266 0.561719 L 0.859922 0.561719 L 0.85582 0.557578 L 0.851719 0.557578 L 0.847578 0.553477 L 0.839375 0.553477 L 0.835234 0.549375 L 0.827031 0.549375 L 0.82293 0.545234 L 0.810586 0.545234 L 0.806445 0.541133 L 0.794102 0.541133 L 0.79 0.537031 L 0.785898 0.537031 L 0.781758 0.532891 L 0.761211 0.532891 L 0.757109 0.528789 L 0.744766 0.528789 L 0.740625 0.524688 L 0.720078 0.524688 L 0.715977 0.528789 L 0.715977 0.532891 L 0.720078 0.537031 L 0.720078 0.541133 L 0.72832 0.549375 L 0.72832 0.553477 L 0.732422 0.557578 L 0.736523 0.561719 L 0.736523 0.56582 L 0.740625 0.569922 L 0.740625 0.574063 L 0.744766 0.578164 L 0.744766 0.594609 L 0.748867 0.598711 L 0.748867 0.611055 L 0.752969 0.615195 L 0.752969 0.623398 L 0.757109 0.627539 L 0.757109 0.656328 L 0.761211 0.66043 L 0.761211 0.676875 L 0.752969 0.685117 L 0.752969 0.705664 L 0.748867 0.709805 L 0.744766 0.709805 L 0.740625 0.713906 L 0.740625 0.734453 L 0.736523 0.738594 L 0.736523 0.746797 L 0.732422 0.746797 L 0.72832 0.750938 L 0.72418 0.755039 L 0.72418 0.767383 L 0.720078 0.767383 L 0.703633 0.783828 L 0.699492 0.78793 L 0.695391 0.79207 L 0.687148 0.79207 L 0.678945 0.800273 L 0.678945 0.804414 L 0.674844 0.808516 L 0.670703 0.812617 L 0.6625 0.812617 L 0.654258 0.820859 L 0.654258 0.824961 L 0.650156 0.824961 L 0.646016 0.829102 L 0.646016 0.824961 L 0.641914 0.820859 L 0.637812 0.824961 L 0.633672 0.824961 L 0.62957 0.829102 L 0.621367 0.829102 L 0.617227 0.833203 L 0.609023 0.833203 L 0.604883 0.829102 L 0.600781 0.829102 L 0.59668 0.833203 L 0.592539 0.829102 L 0.584336 0.829102 L 0.580195 0.833203 L 0.576094 0.833203 L 0.571992 0.829102 L 0.567891 0.833203 L 0.56375 0.837305 L 0.551406 0.837305 L 0.547305 0.841406 L 0.539062 0.841406 L 0.534961 0.837305 L 0.530859 0.837305 L 0.526719 0.841406 L 0.510273 0.841406 L 0.510273 0.837305 L 0.506172 0.833203 L 0.49793 0.833203 L 0.493828 0.837305 L 0.489727 0.833203 L 0.485586 0.833203 L 0.485586 0.829102 L 0.489727 0.824961 L 0.485586 0.820859 L 0.481484 0.820859 L 0.477383 0.824961 L 0.465039 0.824961 L 0.460938 0.829102 L 0.456797 0.829102 L 0.456797 0.820859 L 0.452695 0.816758 L 0.448594 0.816758 L 0.444453 0.820859 L 0.440352 0.820859 L 0.440352 0.816758 L 0.43625 0.812617 L 0.411563 0.812617 L 0.411563 0.804414 L 0.407461 0.800273 L 0.390977 0.800273 L 0.390977 0.796172 L 0.386875 0.79207 L 0.378633 0.79207 L 0.374531 0.78793 L 0.362188 0.78793 L 0.362188 0.771484 L 0.358086 0.767383 L 0.345742 0.767383 L 0.341641 0.763281 L 0.3375 0.763281 L 0.333398 0.759141 L 0.329297 0.759141 L 0.333398 0.755039 L 0.333398 0.750938 L 0.329297 0.746797 L 0.321055 0.746797 L 0.316953 0.742695 L 0.312852 0.742695 L 0.308711 0.738594 L 0.304609 0.738594 L 0.308711 0.734453 L 0.312852 0.730352 L 0.312852 0.72625 L 0.308711 0.722148 L 0.296367 0.722148 L 0.296367 0.709805 L 0.300508 0.705664 L 0.300508 0.701563 L 0.304609 0.697461 L 0.304609 0.69332 L 0.300508 0.689219 L 0.292266 0.689219 L 0.292266 0.685117 L 0.288164 0.680977 L 0.284023 0.680977 L 0.279922 0.676875 L 0.279922 0.672773 L 0.288164 0.664531 L 0.284023 0.66043 L 0.27582 0.66043 L 0.27168 0.656328 L 0.27168 0.648086 L 0.267578 0.643984 L 0.263477 0.643984 L 0.263477 0.639844 L 0.259375 0.635742 L 0.251133 0.635742 L 0.247031 0.631641 L 0.247031 0.623398 L 0.251133 0.619297 L 0.251133 0.615195 L 0.247031 0.611055 L 0.242891 0.615195 L 0.238789 0.615195 L 0.234688 0.611055 L 0.238789 0.606953 L 0.234688 0.602852 L 0.226445 0.602852 L 0.222344 0.598711 L 0.218242 0.594609 L 0.218242 0.590508 L 0.21 0.582266 L 0.205898 0.582266 L 0.205898 0.578164 L 0.21 0.574063 L 0.21 0.569922 L 0.205898 0.56582 L 0.201758 0.561719 L 0.197656 0.557578 L 0.193555 0.553477 L 0.189414 0.553477 L 0.189414 0.549375 L 0.185313 0.545234 L 0.181211 0.545234 L 0.17707 0.541133 L 0.172969 0.541133 L 0.168867 0.537031 L 0.164766 0.532891 L 0.160625 0.532891 L 0.156523 0.528789 L 0.140078 0.528789 L 0.135938 0.524688 L 0.127734 0.524688 L 0.123594 0.520586 L 0.123594 0.516445 L 0.127734 0.512344 L 0.123594 0.508242 L 0.119492 0.504102 L 0.111289 0.504102 L 0.107148 0.5 L 0.0989453 0.5 L 0.0948047 0.495898 L 0.0907031 0.495898 L 0.0866016 0.491758 L 0.0783594 0.491758 L 0.0742578 0.487656 L 0.0660156 0.487656 L 0.0619141 0.483555 L 0.0578125 0.479414 L 0.0536719 0.479414 L 0.0495703 0.475313 L 0.0495703 0.471211 L 0.0454687 0.467109 Z M 0.0454687 0.462969 " transform="matrix(100,0,0,100,300,200)"/>
<path style="fill:none;stroke-width:0.01;stroke-linecap:butt;stroke-linejoin:miter;stroke:rgb(0%,0%,0%);stroke-opacity:1;stroke-miterlimit:10;" d="M 0.0454688 0.548906 L 0.0576953 0.548906 L 0.0617578 0.544844 L 0.0862109 0.544844 L 0.0903125 0.540781 L 0.094375 0.540781 L 0.0984375 0.53668 L 0.106602 0.53668 L 0.110664 0.532617 L 0.114766 0.528555 L 0.114766 0.524453 L 0.118828 0.524453 L 0.12293 0.528555 L 0.126992 0.524453 L 0.139219 0.524453 L 0.143281 0.520391 L 0.139219 0.516289 L 0.139219 0.512227 L 0.143281 0.512227 L 0.147383 0.508164 L 0.155508 0.508164 L 0.163672 0.5 L 0.163672 0.491836 L 0.167734 0.491836 L 0.171836 0.487773 L 0.175898 0.487773 L 0.18 0.483711 L 0.184063 0.483711 L 0.188125 0.479609 L 0.184063 0.475547 L 0.188125 0.471445 L 0.192227 0.467383 L 0.192227 0.46332 L 0.196289 0.459219 L 0.196289 0.455156 L 0.204453 0.446992 L 0.204453 0.438867 L 0.208516 0.434766 L 0.220742 0.422539 L 0.224844 0.422539 L 0.228906 0.418477 L 0.228906 0.410312 L 0.232969 0.40625 L 0.23707 0.40625 L 0.241133 0.402148 L 0.241133 0.394023 L 0.245195 0.389922 L 0.249297 0.389922 L 0.257422 0.381797 L 0.253359 0.377695 L 0.245195 0.369531 L 0.249297 0.365469 L 0.253359 0.361406 L 0.257422 0.361406 L 0.265586 0.353242 L 0.265586 0.345078 L 0.269687 0.345078 L 0.27375 0.341016 L 0.277813 0.341016 L 0.281914 0.336953 L 0.285977 0.336953 L 0.290039 0.332852 L 0.285977 0.328789 L 0.281914 0.324688 L 0.281914 0.316562 L 0.277813 0.312461 L 0.277813 0.308398 L 0.281914 0.308398 L 0.285977 0.304336 L 0.290039 0.304336 L 0.294141 0.300234 L 0.290039 0.296172 L 0.290039 0.292109 L 0.294141 0.292109 L 0.298203 0.288008 L 0.306367 0.288008 L 0.31043 0.283945 L 0.31043 0.279844 L 0.306367 0.275781 L 0.31043 0.271719 L 0.314531 0.271719 L 0.318594 0.267617 L 0.322656 0.267617 L 0.326758 0.263555 L 0.334883 0.263555 L 0.338984 0.259492 L 0.338984 0.251328 L 0.359375 0.251328 L 0.363437 0.247266 L 0.363437 0.243164 L 0.371602 0.243164 L 0.375664 0.239102 L 0.375664 0.235 L 0.379727 0.230938 L 0.391953 0.230938 L 0.396055 0.226875 L 0.400117 0.226875 L 0.40418 0.222773 L 0.400117 0.218711 L 0.400117 0.214648 L 0.416445 0.214648 L 0.420508 0.210547 L 0.420508 0.202422 L 0.440898 0.202422 L 0.444961 0.19832 L 0.453125 0.19832 L 0.457187 0.202422 L 0.461289 0.19832 L 0.461289 0.190156 L 0.485742 0.190156 L 0.489805 0.186094 L 0.489805 0.17793 L 0.502031 0.17793 L 0.506133 0.182031 L 0.518359 0.182031 L 0.522422 0.17793 L 0.526484 0.182031 L 0.530586 0.182031 L 0.534648 0.186094 L 0.538711 0.182031 L 0.538711 0.17793 L 0.555039 0.17793 L 0.559102 0.182031 L 0.563203 0.182031 L 0.567266 0.17793 L 0.571328 0.17793 L 0.583555 0.190156 L 0.587656 0.186094 L 0.591719 0.186094 L 0.59582 0.190156 L 0.599883 0.190156 L 0.599883 0.194258 L 0.608047 0.202422 L 0.616172 0.202422 L 0.620273 0.206484 L 0.624336 0.206484 L 0.6325 0.214648 L 0.636563 0.214648 L 0.640625 0.218711 L 0.640625 0.222773 L 0.644727 0.226875 L 0.648789 0.226875 L 0.652891 0.230938 L 0.656953 0.235 L 0.661016 0.239102 L 0.665117 0.243164 L 0.66918 0.247266 L 0.673242 0.251328 L 0.673242 0.255391 L 0.677344 0.259492 L 0.681406 0.259492 L 0.681406 0.263555 L 0.685469 0.267617 L 0.685469 0.271719 L 0.68957 0.275781 L 0.693633 0.279844 L 0.693633 0.288008 L 0.697734 0.292109 L 0.697734 0.296172 L 0.701797 0.300234 L 0.701797 0.304336 L 0.705859 0.308398 L 0.705859 0.324688 L 0.709961 0.328789 L 0.709961 0.332852 L 0.714023 0.336953 L 0.714023 0.369531 L 0.718086 0.373633 L 0.718086 0.398086 L 0.722188 0.402148 L 0.718086 0.40625 L 0.718086 0.426602 L 0.714023 0.430703 L 0.714023 0.44293 L 0.709961 0.446992 L 0.709961 0.459219 L 0.705859 0.46332 L 0.705859 0.467383 L 0.701797 0.471445 L 0.697734 0.475547 L 0.697734 0.479609 L 0.701797 0.483711 L 0.705859 0.483711 L 0.709961 0.479609 L 0.775156 0.479609 L 0.779258 0.475547 L 0.803711 0.475547 L 0.807773 0.471445 L 0.824102 0.471445 L 0.828164 0.467383 L 0.852617 0.467383 L 0.856719 0.46332 L 0.885234 0.46332 L 0.889336 0.459219 L 0.901562 0.459219 L 0.905625 0.455156 L 0.93418 0.455156 L 0.938242 0.451094 L 0.942305 0.451094 L 0.946406 0.446992 L 0.950469 0.446992 L 0.954531 0.451094 L 0.954531 0.459219 L 0.950469 0.46332 L 0.946406 0.46332 L 0.942305 0.467383 L 0.897461 0.467383 L 0.893398 0.471445 L 0.852617 0.471445 L 0.848555 0.475547 L 0.82 0.475547 L 0.815938 0.479609 L 0.803711 0.479609 L 0.799648 0.483711 L 0.767031 0.483711 L 0.76293 0.487773 L 0.730313 0.487773 L 0.72625 0.491836 L 0.714023 0.491836 L 0.709961 0.495938 L 0.722188 0.508164 L 0.72625 0.508164 L 0.730313 0.512227 L 0.734414 0.516289 L 0.738477 0.516289 L 0.746641 0.524453 L 0.750703 0.528555 L 0.754805 0.528555 L 0.758867 0.532617 L 0.758867 0.53668 L 0.76293 0.540781 L 0.76293 0.544844 L 0.767031 0.548906 L 0.771094 0.553008 L 0.775156 0.553008 L 0.779258 0.55707 L 0.78332 0.561133 L 0.78332 0.565234 L 0.787422 0.569297 L 0.791484 0.573398 L 0.795547 0.577461 L 0.795547 0.581523 L 0.799648 0.585625 L 0.799648 0.589688 L 0.803711 0.59375 L 0.803711 0.597852 L 0.807773 0.601914 L 0.807773 0.605977 L 0.811875 0.610078 L 0.811875 0.622305 L 0.815938 0.626367 L 0.815938 0.638594 L 0.811875 0.642695 L 0.811875 0.65082 L 0.807773 0.654922 L 0.807773 0.658984 L 0.803711 0.663047 L 0.803711 0.671211 L 0.799648 0.675312 L 0.799648 0.679375 L 0.795547 0.683438 L 0.791484 0.683438 L 0.787422 0.687539 L 0.787422 0.711992 L 0.779258 0.711992 L 0.775156 0.716055 L 0.775156 0.728281 L 0.771094 0.732383 L 0.767031 0.732383 L 0.76293 0.736445 L 0.758867 0.740508 L 0.758867 0.744609 L 0.754805 0.744609 L 0.750703 0.748672 L 0.746641 0.752734 L 0.738477 0.752734 L 0.734414 0.756836 L 0.734414 0.760898 L 0.72625 0.769062 L 0.722188 0.769062 L 0.718086 0.765 L 0.714023 0.769062 L 0.714023 0.773125 L 0.709961 0.777227 L 0.705859 0.773125 L 0.701797 0.777227 L 0.697734 0.781289 L 0.693633 0.781289 L 0.68957 0.785352 L 0.685469 0.785352 L 0.681406 0.781289 L 0.677344 0.785352 L 0.673242 0.785352 L 0.66918 0.781289 L 0.661016 0.789453 L 0.652891 0.789453 L 0.648789 0.793516 L 0.644727 0.797578 L 0.640625 0.797578 L 0.636563 0.793516 L 0.628398 0.80168 L 0.624336 0.80168 L 0.620273 0.805742 L 0.608047 0.805742 L 0.603945 0.809844 L 0.599883 0.809844 L 0.59582 0.813906 L 0.591719 0.817969 L 0.587656 0.817969 L 0.583555 0.813906 L 0.579492 0.817969 L 0.57543 0.82207 L 0.567266 0.82207 L 0.563203 0.817969 L 0.559102 0.817969 L 0.555039 0.82207 L 0.542813 0.82207 L 0.538711 0.817969 L 0.538711 0.813906 L 0.534648 0.809844 L 0.530586 0.813906 L 0.522422 0.813906 L 0.518359 0.817969 L 0.514258 0.817969 L 0.514258 0.813906 L 0.510195 0.809844 L 0.506133 0.813906 L 0.502031 0.813906 L 0.497969 0.817969 L 0.489805 0.817969 L 0.489805 0.813906 L 0.485742 0.809844 L 0.481641 0.813906 L 0.473516 0.813906 L 0.469414 0.809844 L 0.465352 0.809844 L 0.461289 0.813906 L 0.457187 0.813906 L 0.457187 0.805742 L 0.453125 0.80168 L 0.449023 0.805742 L 0.440898 0.805742 L 0.440898 0.80168 L 0.436797 0.797578 L 0.432734 0.797578 L 0.428672 0.80168 L 0.42457 0.805742 L 0.420508 0.805742 L 0.412344 0.797578 L 0.396055 0.797578 L 0.396055 0.793516 L 0.391953 0.789453 L 0.387891 0.789453 L 0.383828 0.793516 L 0.379727 0.789453 L 0.375664 0.785352 L 0.359375 0.785352 L 0.355273 0.781289 L 0.351211 0.781289 L 0.351211 0.777227 L 0.347109 0.773125 L 0.343047 0.777227 L 0.334883 0.777227 L 0.33082 0.773125 L 0.322656 0.773125 L 0.318594 0.769062 L 0.314531 0.769062 L 0.318594 0.765 L 0.318594 0.756836 L 0.314531 0.752734 L 0.31043 0.752734 L 0.306367 0.748672 L 0.31043 0.744609 L 0.31043 0.740508 L 0.306367 0.736445 L 0.294141 0.736445 L 0.294141 0.732383 L 0.298203 0.728281 L 0.298203 0.720156 L 0.294141 0.716055 L 0.290039 0.716055 L 0.285977 0.711992 L 0.281914 0.711992 L 0.277813 0.707891 L 0.281914 0.703828 L 0.277813 0.699766 L 0.27375 0.699766 L 0.269687 0.695664 L 0.261523 0.695664 L 0.257422 0.691602 L 0.257422 0.687539 L 0.253359 0.683438 L 0.249297 0.679375 L 0.245195 0.679375 L 0.241133 0.675312 L 0.23707 0.671211 L 0.241133 0.667148 L 0.245195 0.663047 L 0.23707 0.654922 L 0.232969 0.654922 L 0.232969 0.65082 L 0.228906 0.646758 L 0.224844 0.646758 L 0.220742 0.642695 L 0.220742 0.638594 L 0.21668 0.634531 L 0.21668 0.626367 L 0.212578 0.622305 L 0.208516 0.622305 L 0.204453 0.618203 L 0.200352 0.618203 L 0.196289 0.614141 L 0.188125 0.614141 L 0.184063 0.610078 L 0.18 0.610078 L 0.171836 0.601914 L 0.159609 0.601914 L 0.155508 0.597852 L 0.147383 0.597852 L 0.143281 0.59375 L 0.139219 0.59375 L 0.139219 0.589688 L 0.135156 0.585625 L 0.118828 0.585625 L 0.118828 0.581523 L 0.114766 0.577461 L 0.110664 0.573398 L 0.106602 0.569297 L 0.0780859 0.569297 L 0.0739844 0.565234 L 0.0495313 0.565234 L 0.0454688 0.561133 L 0.0454688 0.553008 Z M 0.0454688 0.548906 " transform="matrix(100,0,0,100,450,200)"/>
<path style="fill:none;stroke-width:0.01;stroke-linecap:butt;stroke-linejoin:miter;stroke:rgb(0%,0%,0%);stroke-opacity:1;stroke-miterlimit:10;" d="M 0.0454688 0.454141 L 0.0494531 0.454141 L 0.0534375 0.450156 L 0.0614063 0.450156 L 0.0653906 0.446172 L 0.069375 0.446172 L 0.0733594 0.442188 L 0.0813281 0.442188 L 0.0853125 0.438203 L 0.0933203 0.438203 L 0.0973047 0.442188 L 0.101289 0.442188 L 0.105273 0.446172 L 0.113242 0.438203 L 0.117227 0.442188 L 0.121211 0.442188 L 0.125195 0.446172 L 0.12918 0.446172 L 0.133164 0.442188 L 0.133164 0.438203 L 0.145117 0.438203 L 0.149141 0.434219 L 0.153125 0.434219 L 0.157109 0.430234 L 0.161094 0.430234 L 0.165078 0.42625 L 0.173047 0.42625 L 0.177031 0.422266 L 0.173047 0.418242 L 0.192969 0.39832 L 0.188984 0.394336 L 0.192969 0.390352 L 0.192969 0.386367 L 0.196953 0.386367 L 0.200938 0.382383 L 0.200938 0.374414 L 0.208945 0.374414 L 0.216914 0.366445 L 0.21293 0.362422 L 0.21293 0.358437 L 0.220898 0.358437 L 0.224883 0.354453 L 0.224883 0.350469 L 0.216914 0.3425 L 0.216914 0.338516 L 0.220898 0.338516 L 0.228867 0.330547 L 0.228867 0.326563 L 0.232852 0.326563 L 0.244805 0.314609 L 0.248789 0.314609 L 0.260781 0.302617 L 0.256797 0.298633 L 0.260781 0.294648 L 0.264766 0.294648 L 0.272734 0.28668 L 0.272734 0.282695 L 0.276719 0.282695 L 0.280703 0.278711 L 0.280703 0.274727 L 0.276719 0.270742 L 0.276719 0.266758 L 0.284688 0.266758 L 0.288672 0.262773 L 0.292656 0.262773 L 0.296641 0.258789 L 0.296641 0.254766 L 0.292656 0.250781 L 0.296641 0.246797 L 0.304609 0.246797 L 0.308594 0.242812 L 0.312617 0.238828 L 0.312617 0.234844 L 0.32457 0.234844 L 0.328555 0.230859 L 0.32457 0.226875 L 0.332539 0.226875 L 0.336523 0.222891 L 0.336523 0.218906 L 0.344492 0.218906 L 0.348477 0.214922 L 0.36043 0.214922 L 0.364453 0.210938 L 0.368437 0.210938 L 0.372422 0.214922 L 0.376406 0.210938 L 0.376406 0.206953 L 0.400313 0.206953 L 0.404297 0.202969 L 0.408281 0.202969 L 0.412266 0.206953 L 0.41625 0.206953 L 0.420273 0.202969 L 0.428242 0.202969 L 0.432227 0.206953 L 0.436211 0.202969 L 0.440195 0.202969 L 0.44418 0.206953 L 0.448164 0.202969 L 0.452148 0.206953 L 0.460117 0.206953 L 0.464102 0.202969 L 0.468086 0.206953 L 0.484063 0.206953 L 0.488047 0.202969 L 0.496016 0.202969 L 0.5 0.206953 L 0.503984 0.206953 L 0.507969 0.202969 L 0.515937 0.210938 L 0.519922 0.206953 L 0.523906 0.206953 L 0.52793 0.210938 L 0.531914 0.210938 L 0.535898 0.214922 L 0.539883 0.210938 L 0.543867 0.210938 L 0.547852 0.214922 L 0.563789 0.214922 L 0.567773 0.218906 L 0.571758 0.214922 L 0.575742 0.214922 L 0.579727 0.218906 L 0.595703 0.218906 L 0.599687 0.222891 L 0.607656 0.222891 L 0.611641 0.226875 L 0.623594 0.226875 L 0.627578 0.230859 L 0.635547 0.230859 L 0.63957 0.234844 L 0.643555 0.238828 L 0.655508 0.238828 L 0.659492 0.242812 L 0.663477 0.242812 L 0.671445 0.250781 L 0.67543 0.250781 L 0.679414 0.254766 L 0.683398 0.258789 L 0.687383 0.262773 L 0.691406 0.266758 L 0.695391 0.270742 L 0.703359 0.270742 L 0.703359 0.274727 L 0.711328 0.282695 L 0.719297 0.282695 L 0.723281 0.28668 L 0.723281 0.290664 L 0.73125 0.298633 L 0.73125 0.306602 L 0.735234 0.310625 L 0.735234 0.318594 L 0.739219 0.322578 L 0.739219 0.346484 L 0.743203 0.350469 L 0.747227 0.354453 L 0.747227 0.362422 L 0.751211 0.366445 L 0.751211 0.37043 L 0.755195 0.374414 L 0.751211 0.378398 L 0.751211 0.382383 L 0.747227 0.382383 L 0.743203 0.386367 L 0.739219 0.386367 L 0.727266 0.39832 L 0.727266 0.410273 L 0.723281 0.414258 L 0.723281 0.42625 L 0.719297 0.430234 L 0.719297 0.438203 L 0.715313 0.442188 L 0.715313 0.446172 L 0.711328 0.450156 L 0.711328 0.454141 L 0.703359 0.462109 L 0.703359 0.466094 L 0.707344 0.470078 L 0.715313 0.462109 L 0.719297 0.462109 L 0.723281 0.458125 L 0.727266 0.458125 L 0.73125 0.454141 L 0.735234 0.454141 L 0.743203 0.446172 L 0.747227 0.446172 L 0.751211 0.442188 L 0.755195 0.442188 L 0.763164 0.434219 L 0.767148 0.434219 L 0.771133 0.430234 L 0.775117 0.430234 L 0.779102 0.42625 L 0.783086 0.42625 L 0.78707 0.422266 L 0.791055 0.422266 L 0.795039 0.418242 L 0.799062 0.414258 L 0.803047 0.414258 L 0.807031 0.410273 L 0.811016 0.410273 L 0.815 0.406289 L 0.818984 0.406289 L 0.826953 0.39832 L 0.830938 0.39832 L 0.834922 0.394336 L 0.838906 0.394336 L 0.842891 0.390352 L 0.846875 0.390352 L 0.850859 0.386367 L 0.854883 0.386367 L 0.858867 0.382383 L 0.862852 0.382383 L 0.87082 0.374414 L 0.874805 0.374414 L 0.878789 0.37043 L 0.882773 0.37043 L 0.886758 0.366445 L 0.890742 0.366445 L 0.894727 0.362422 L 0.898711 0.362422 L 0.902695 0.358437 L 0.90668 0.358437 L 0.910703 0.354453 L 0.914688 0.354453 L 0.918672 0.350469 L 0.926641 0.350469 L 0.930625 0.346484 L 0.938594 0.346484 L 0.942578 0.3425 L 0.946562 0.3425 L 0.954531 0.350469 L 0.950547 0.350469 L 0.946562 0.354453 L 0.942578 0.354453 L 0.938594 0.358437 L 0.930625 0.358437 L 0.926641 0.362422 L 0.918672 0.362422 L 0.914688 0.366445 L 0.90668 0.366445 L 0.902695 0.37043 L 0.894727 0.37043 L 0.890742 0.374414 L 0.886758 0.374414 L 0.882773 0.378398 L 0.878789 0.378398 L 0.874805 0.382383 L 0.87082 0.382383 L 0.866836 0.386367 L 0.862852 0.386367 L 0.858867 0.390352 L 0.854883 0.390352 L 0.850859 0.394336 L 0.846875 0.394336 L 0.838906 0.402305 L 0.834922 0.402305 L 0.830938 0.406289 L 0.826953 0.406289 L 0.822969 0.410273 L 0.818984 0.410273 L 0.811016 0.418242 L 0.803047 0.418242 L 0.799062 0.422266 L 0.795039 0.42625 L 0.791055 0.42625 L 0.78707 0.430234 L 0.783086 0.430234 L 0.779102 0.434219 L 0.775117 0.434219 L 0.767148 0.442188 L 0.763164 0.442188 L 0.75918 0.446172 L 0.755195 0.446172 L 0.751211 0.450156 L 0.747227 0.450156 L 0.743203 0.454141 L 0.739219 0.458125 L 0.735234 0.458125 L 0.727266 0.466094 L 0.723281 0.466094 L 0.719297 0.470078 L 0.715313 0.474102 L 0.711328 0.478086 L 0.707344 0.478086 L 0.695391 0.490039 L 0.691406 0.490039 L 0.687383 0.494023 L 0.683398 0.494023 L 0.679414 0.498008 L 0.67543 0.498008 L 0.667461 0.505977 L 0.67543 0.513945 L 0.67543 0.521914 L 0.679414 0.525898 L 0.679414 0.537891 L 0.683398 0.541875 L 0.683398 0.577734 L 0.687383 0.581758 L 0.687383 0.649531 L 0.683398 0.653516 L 0.683398 0.6575 L 0.67543 0.665469 L 0.67543 0.681406 L 0.667461 0.689375 L 0.663477 0.693398 L 0.663477 0.705352 L 0.659492 0.705352 L 0.655508 0.709336 L 0.655508 0.71332 L 0.647539 0.721289 L 0.647539 0.725273 L 0.643555 0.725273 L 0.63957 0.729258 L 0.635547 0.729258 L 0.623594 0.741211 L 0.619609 0.745234 L 0.615625 0.745234 L 0.607656 0.753203 L 0.603672 0.753203 L 0.595703 0.761172 L 0.591719 0.761172 L 0.587734 0.765156 L 0.58375 0.765156 L 0.579727 0.761172 L 0.563789 0.777109 L 0.547852 0.777109 L 0.539883 0.785078 L 0.535898 0.785078 L 0.531914 0.789062 L 0.52793 0.785078 L 0.523906 0.789062 L 0.519922 0.789062 L 0.511953 0.797031 L 0.507969 0.797031 L 0.503984 0.793047 L 0.480078 0.793047 L 0.476094 0.789062 L 0.452148 0.789062 L 0.448164 0.793047 L 0.440195 0.793047 L 0.436211 0.789062 L 0.424258 0.789062 L 0.420273 0.785078 L 0.408281 0.785078 L 0.404297 0.781094 L 0.380391 0.781094 L 0.376406 0.777109 L 0.368437 0.777109 L 0.364453 0.781094 L 0.36043 0.777109 L 0.344492 0.777109 L 0.344492 0.769141 L 0.340508 0.765156 L 0.336523 0.769141 L 0.328555 0.769141 L 0.328555 0.765156 L 0.32457 0.761172 L 0.320586 0.765156 L 0.316602 0.765156 L 0.312617 0.761172 L 0.308594 0.757188 L 0.304609 0.757188 L 0.304609 0.749219 L 0.300625 0.745234 L 0.292656 0.745234 L 0.292656 0.741211 L 0.280703 0.729258 L 0.276719 0.729258 L 0.276719 0.721289 L 0.272734 0.717305 L 0.26875 0.717305 L 0.264766 0.71332 L 0.26875 0.709336 L 0.26875 0.705352 L 0.260781 0.697383 L 0.260781 0.689375 L 0.264766 0.685391 L 0.264766 0.681406 L 0.260781 0.677422 L 0.252773 0.677422 L 0.248789 0.673437 L 0.244805 0.673437 L 0.24082 0.669453 L 0.244805 0.665469 L 0.244805 0.661484 L 0.232852 0.649531 L 0.228867 0.649531 L 0.228867 0.645547 L 0.236836 0.637578 L 0.232852 0.633555 L 0.228867 0.633555 L 0.224883 0.62957 L 0.216914 0.62957 L 0.220898 0.625586 L 0.220898 0.621602 L 0.224883 0.617617 L 0.224883 0.613633 L 0.216914 0.605664 L 0.21293 0.605664 L 0.208945 0.60168 L 0.21293 0.597695 L 0.21293 0.593711 L 0.208945 0.589727 L 0.200938 0.589727 L 0.204961 0.585742 L 0.204961 0.581758 L 0.200938 0.577734 L 0.196953 0.577734 L 0.196953 0.561797 L 0.192969 0.557813 L 0.188984 0.557813 L 0.185 0.553828 L 0.185 0.549844 L 0.173047 0.537891 L 0.169062 0.537891 L 0.169062 0.533906 L 0.165078 0.529922 L 0.161094 0.525898 L 0.157109 0.525898 L 0.149141 0.51793 L 0.149141 0.509961 L 0.145117 0.505977 L 0.141133 0.501992 L 0.137148 0.501992 L 0.133164 0.498008 L 0.125195 0.498008 L 0.125195 0.494023 L 0.117227 0.486055 L 0.109258 0.486055 L 0.0973047 0.474102 L 0.0933203 0.470078 L 0.0892969 0.470078 L 0.0853125 0.466094 L 0.0653906 0.466094 L 0.0614063 0.462109 L 0.0534375 0.462109 L 0.0494531 0.458125 Z M 0.0454688 0.454141 " transform="matrix(100,0,0,100,600,200)"/>
<path style="fill:none;stroke-width:0.01;stroke-linecap:butt;stroke-linejoin:miter;stroke:rgb(0%,0%,0%);stroke-opacity:1;stroke-miterlimit:10;" d="M 0.0454688 0.50207 L 0.0495703 0.49793 L 0.0536719 0.493828 L 0.0578125 0.489727 L 0.0578125 0.481484 L 0.0619141 0.477383 L 0.0660156 0.477383 L 0.0701172 0.473281 L 0.0783594 0.473281 L 0.0824609 0.469141 L 0.0989453 0.469141 L 0.103047 0.465039 L 0.119492 0.465039 L 0.123594 0.460938 L 0.135938 0.460938 L 0.140078 0.456797 L 0.140078 0.452695 L 0.14418 0.448594 L 0.148281 0.448594 L 0.152422 0.444453 L 0.156523 0.444453 L 0.160625 0.440352 L 0.164766 0.43625 L 0.164766 0.432109 L 0.168867 0.428008 L 0.172969 0.428008 L 0.17707 0.423906 L 0.17707 0.419805 L 0.181211 0.415664 L 0.185312 0.415664 L 0.189414 0.411563 L 0.185312 0.407461 L 0.185312 0.40332 L 0.189414 0.399219 L 0.189414 0.395117 L 0.201758 0.382773 L 0.201758 0.378633 L 0.205898 0.378633 L 0.21 0.374531 L 0.21 0.362188 L 0.214102 0.362188 L 0.218242 0.358086 L 0.218242 0.353984 L 0.222344 0.349844 L 0.230547 0.341641 L 0.238789 0.341641 L 0.242891 0.3375 L 0.242891 0.329297 L 0.251133 0.329297 L 0.255234 0.325156 L 0.259375 0.321055 L 0.267578 0.312852 L 0.27168 0.312852 L 0.279922 0.304609 L 0.279922 0.300508 L 0.284023 0.296367 L 0.288164 0.296367 L 0.292266 0.292266 L 0.296367 0.292266 L 0.300508 0.288164 L 0.300508 0.284023 L 0.308711 0.284023 L 0.312852 0.279922 L 0.316953 0.27582 L 0.329297 0.27582 L 0.333398 0.27168 L 0.3375 0.27168 L 0.341641 0.267578 L 0.353984 0.267578 L 0.358086 0.263477 L 0.382773 0.263477 L 0.386875 0.259375 L 0.390977 0.259375 L 0.395117 0.263477 L 0.399219 0.259375 L 0.40332 0.255234 L 0.407461 0.259375 L 0.411562 0.259375 L 0.415664 0.255234 L 0.452695 0.255234 L 0.456797 0.259375 L 0.460938 0.255234 L 0.465039 0.255234 L 0.469141 0.259375 L 0.473281 0.255234 L 0.489727 0.255234 L 0.493828 0.259375 L 0.49793 0.255234 L 0.50207 0.255234 L 0.506172 0.259375 L 0.522617 0.259375 L 0.526719 0.263477 L 0.530859 0.263477 L 0.534961 0.267578 L 0.543203 0.267578 L 0.547305 0.27168 L 0.551406 0.27168 L 0.551406 0.27582 L 0.555547 0.279922 L 0.559648 0.284023 L 0.56375 0.288164 L 0.571992 0.288164 L 0.576094 0.292266 L 0.584336 0.292266 L 0.588438 0.288164 L 0.592539 0.288164 L 0.59668 0.292266 L 0.600781 0.296367 L 0.600781 0.300508 L 0.604883 0.304609 L 0.604883 0.312852 L 0.609023 0.316953 L 0.609023 0.321055 L 0.613125 0.325156 L 0.617227 0.321055 L 0.621367 0.316953 L 0.625469 0.312852 L 0.637813 0.312852 L 0.641914 0.316953 L 0.646016 0.312852 L 0.650156 0.316953 L 0.6625 0.329297 L 0.6625 0.3375 L 0.666602 0.341641 L 0.670703 0.345742 L 0.670703 0.349844 L 0.674844 0.353984 L 0.678945 0.353984 L 0.683047 0.358086 L 0.683047 0.37043 L 0.687148 0.374531 L 0.691289 0.374531 L 0.691289 0.386875 L 0.687148 0.390977 L 0.687148 0.399219 L 0.683047 0.40332 L 0.683047 0.407461 L 0.678945 0.411563 L 0.678945 0.419805 L 0.674844 0.423906 L 0.674844 0.428008 L 0.670703 0.432109 L 0.674844 0.43625 L 0.674844 0.440352 L 0.670703 0.444453 L 0.670703 0.448594 L 0.666602 0.452695 L 0.666602 0.456797 L 0.6625 0.460938 L 0.6625 0.465039 L 0.658359 0.469141 L 0.658359 0.473281 L 0.654258 0.477383 L 0.654258 0.485586 L 0.658359 0.489727 L 0.6625 0.485586 L 0.666602 0.485586 L 0.670703 0.481484 L 0.674844 0.481484 L 0.678945 0.477383 L 0.687148 0.477383 L 0.691289 0.473281 L 0.695391 0.469141 L 0.703633 0.469141 L 0.711836 0.460938 L 0.720078 0.460938 L 0.72418 0.456797 L 0.72832 0.456797 L 0.732422 0.452695 L 0.736523 0.452695 L 0.740625 0.448594 L 0.744766 0.448594 L 0.748867 0.444453 L 0.752969 0.444453 L 0.757109 0.440352 L 0.769453 0.440352 L 0.773555 0.43625 L 0.777656 0.43625 L 0.781758 0.432109 L 0.79 0.432109 L 0.794102 0.428008 L 0.810586 0.428008 L 0.814688 0.423906 L 0.82293 0.423906 L 0.827031 0.419805 L 0.843477 0.419805 L 0.847578 0.415664 L 0.876406 0.415664 L 0.880508 0.411563 L 0.913398 0.411563 L 0.917539 0.407461 L 0.925742 0.407461 L 0.938086 0.395117 L 0.942188 0.390977 L 0.942188 0.386875 L 0.954531 0.386875 L 0.954531 0.395117 L 0.938086 0.411563 L 0.929883 0.411563 L 0.925742 0.415664 L 0.876406 0.415664 L 0.872266 0.419805 L 0.851719 0.419805 L 0.847578 0.423906 L 0.827031 0.423906 L 0.82293 0.428008 L 0.810586 0.428008 L 0.806445 0.432109 L 0.794102 0.432109 L 0.79 0.43625 L 0.785898 0.43625 L 0.781758 0.440352 L 0.769453 0.440352 L 0.765313 0.444453 L 0.761211 0.444453 L 0.757109 0.448594 L 0.748867 0.448594 L 0.744766 0.452695 L 0.740625 0.452695 L 0.736523 0.456797 L 0.732422 0.456797 L 0.72832 0.460938 L 0.72418 0.460938 L 0.720078 0.465039 L 0.715977 0.465039 L 0.711836 0.469141 L 0.707734 0.469141 L 0.703633 0.473281 L 0.699492 0.477383 L 0.695391 0.477383 L 0.691289 0.481484 L 0.687148 0.481484 L 0.683047 0.485586 L 0.678945 0.485586 L 0.674844 0.489727 L 0.670703 0.493828 L 0.6625 0.493828 L 0.658359 0.49793 L 0.646016 0.49793 L 0.641914 0.50207 L 0.641914 0.514414 L 0.637813 0.518516 L 0.637813 0.59668 L 0.633672 0.600781 L 0.633672 0.604883 L 0.62957 0.609023 L 0.62957 0.62957 L 0.625469 0.633672 L 0.625469 0.650156 L 0.621367 0.654258 L 0.617227 0.658359 L 0.613125 0.6625 L 0.609023 0.658359 L 0.59668 0.670703 L 0.59668 0.678945 L 0.592539 0.683047 L 0.588438 0.687148 L 0.584336 0.691289 L 0.584336 0.695391 L 0.580195 0.699492 L 0.576094 0.699492 L 0.571992 0.703633 L 0.567891 0.707734 L 0.56375 0.711836 L 0.559648 0.711836 L 0.555547 0.715977 L 0.551406 0.720078 L 0.547305 0.720078 L 0.543203 0.72418 L 0.539062 0.72418 L 0.534961 0.72832 L 0.526719 0.72832 L 0.522617 0.72418 L 0.518516 0.72832 L 0.514414 0.72832 L 0.510273 0.732422 L 0.49793 0.732422 L 0.493828 0.736523 L 0.489727 0.736523 L 0.485586 0.740625 L 0.481484 0.736523 L 0.477383 0.740625 L 0.473281 0.744766 L 0.469141 0.744766 L 0.465039 0.740625 L 0.460938 0.744766 L 0.448594 0.744766 L 0.444453 0.740625 L 0.411562 0.740625 L 0.407461 0.736523 L 0.390977 0.736523 L 0.386875 0.732422 L 0.374531 0.732422 L 0.37043 0.72832 L 0.358086 0.72832 L 0.353984 0.72418 L 0.341641 0.72418 L 0.341641 0.720078 L 0.3375 0.715977 L 0.329297 0.715977 L 0.325156 0.711836 L 0.312852 0.711836 L 0.308711 0.707734 L 0.304609 0.707734 L 0.296367 0.699492 L 0.292266 0.699492 L 0.288164 0.695391 L 0.284023 0.695391 L 0.279922 0.691289 L 0.27582 0.687148 L 0.267578 0.687148 L 0.263477 0.683047 L 0.263477 0.678945 L 0.259375 0.674844 L 0.255234 0.674844 L 0.251133 0.670703 L 0.247031 0.666602 L 0.247031 0.658359 L 0.242891 0.654258 L 0.238789 0.654258 L 0.234687 0.650156 L 0.230547 0.650156 L 0.226445 0.646016 L 0.226445 0.637812 L 0.222344 0.633672 L 0.218242 0.633672 L 0.214102 0.62957 L 0.218242 0.625469 L 0.218242 0.621367 L 0.21 0.613125 L 0.205898 0.613125 L 0.201758 0.609023 L 0.201758 0.604883 L 0.205898 0.600781 L 0.205898 0.59668 L 0.201758 0.592539 L 0.197656 0.592539 L 0.193555 0.588438 L 0.193555 0.584336 L 0.185312 0.576094 L 0.181211 0.576094 L 0.181211 0.571992 L 0.17707 0.567891 L 0.172969 0.56375 L 0.172969 0.555547 L 0.168867 0.551406 L 0.164766 0.551406 L 0.160625 0.547305 L 0.156523 0.547305 L 0.152422 0.543203 L 0.152422 0.534961 L 0.148281 0.530859 L 0.14418 0.526719 L 0.140078 0.522617 L 0.135938 0.522617 L 0.131836 0.518516 L 0.131836 0.514414 L 0.127734 0.510273 L 0.119492 0.510273 L 0.111289 0.50207 L 0.0948047 0.50207 L 0.0948047 0.49793 L 0.0907031 0.493828 L 0.0701172 0.493828 L 0.0660156 0.49793 L 0.0578125 0.49793 L 0.0495703 0.506172 L 0.0454688 0.506172 Z M 0.0454688 0.50207 " transform="matrix(100,0,0,100,0,350)"/>
<path style="fill:none;stroke-width:0.01;stroke-linecap:butt;stroke-linejoin:miter;stroke:rgb(0%,0%,0%);stroke-opacity:1;stroke-miterlimit:10;" d="M 0.0454687 0.47375 L 0.0494922 0.469688 L 0.0696875 0.469688 L 0.07375 0.47375 L 0.0898828 0.47375 L 0.0979687 0.465664 L 0.0979687 0.461602 L 0.114141 0.461602 L 0.118164 0.457578 L 0.122227 0.453555 L 0.12625 0.453555 L 0.130313 0.449492 L 0.150508 0.449492 L 0.154531 0.445469 L 0.154531 0.441406 L 0.174766 0.441406 L 0.178789 0.437383 L 0.182813 0.43332 L 0.182813 0.429297 L 0.186875 0.425234 L 0.194961 0.425234 L 0.198984 0.421211 L 0.211094 0.421211 L 0.215156 0.417188 L 0.215156 0.409102 L 0.211094 0.405039 L 0.211094 0.396953 L 0.215156 0.396953 L 0.21918 0.39293 L 0.223242 0.388906 L 0.227266 0.384844 L 0.227266 0.376758 L 0.231328 0.376758 L 0.235352 0.372734 L 0.231328 0.368672 L 0.231328 0.356562 L 0.235352 0.356562 L 0.243437 0.348477 L 0.243437 0.344453 L 0.239375 0.340391 L 0.239375 0.336367 L 0.243437 0.332305 L 0.251523 0.332305 L 0.255547 0.328281 L 0.259609 0.324258 L 0.259609 0.316172 L 0.263633 0.316172 L 0.267695 0.312109 L 0.271719 0.312109 L 0.275742 0.308086 L 0.283828 0.308086 L 0.291914 0.3 L 0.287891 0.295977 L 0.287891 0.283828 L 0.291914 0.279805 L 0.295977 0.279805 L 0.3 0.275742 L 0.3 0.271719 L 0.295977 0.267695 L 0.295977 0.263633 L 0.291914 0.259609 L 0.291914 0.255547 L 0.295977 0.251523 L 0.3 0.251523 L 0.304023 0.247461 L 0.308086 0.247461 L 0.316172 0.239375 L 0.312109 0.235352 L 0.308086 0.231328 L 0.312109 0.227266 L 0.316172 0.227266 L 0.320195 0.223242 L 0.332305 0.223242 L 0.336367 0.21918 L 0.336367 0.215156 L 0.332305 0.211094 L 0.336367 0.20707 L 0.348477 0.20707 L 0.352539 0.203047 L 0.352539 0.194961 L 0.348477 0.190898 L 0.352539 0.186875 L 0.368672 0.186875 L 0.372734 0.182813 L 0.372734 0.174766 L 0.384844 0.174766 L 0.388906 0.178789 L 0.39293 0.178789 L 0.396953 0.174766 L 0.396953 0.170703 L 0.39293 0.16668 L 0.396953 0.162617 L 0.417188 0.162617 L 0.421211 0.16668 L 0.425234 0.16668 L 0.429297 0.170703 L 0.437383 0.162617 L 0.43332 0.158594 L 0.43332 0.154531 L 0.449492 0.154531 L 0.453555 0.150508 L 0.453555 0.146445 L 0.47375 0.146445 L 0.477773 0.150508 L 0.481836 0.146445 L 0.481836 0.142422 L 0.485859 0.142422 L 0.489883 0.146445 L 0.502031 0.146445 L 0.506055 0.150508 L 0.510117 0.146445 L 0.510117 0.142422 L 0.518164 0.142422 L 0.522227 0.146445 L 0.530312 0.146445 L 0.534336 0.142422 L 0.538398 0.142422 L 0.542422 0.146445 L 0.546445 0.146445 L 0.550508 0.142422 L 0.550508 0.134336 L 0.558594 0.134336 L 0.562617 0.138398 L 0.574766 0.138398 L 0.578789 0.142422 L 0.582813 0.142422 L 0.586875 0.138398 L 0.586875 0.134336 L 0.594961 0.134336 L 0.598984 0.138398 L 0.603047 0.142422 L 0.60707 0.146445 L 0.611094 0.142422 L 0.615156 0.142422 L 0.61918 0.146445 L 0.623242 0.146445 L 0.627266 0.150508 L 0.631328 0.154531 L 0.635352 0.158594 L 0.639375 0.158594 L 0.643438 0.154531 L 0.647461 0.158594 L 0.655547 0.158594 L 0.659609 0.162617 L 0.663633 0.162617 L 0.671719 0.170703 L 0.683828 0.170703 L 0.691914 0.178789 L 0.695977 0.182813 L 0.7 0.186875 L 0.708086 0.194961 L 0.708086 0.198984 L 0.712109 0.203047 L 0.716172 0.20707 L 0.720195 0.203047 L 0.720195 0.211094 L 0.724258 0.215156 L 0.724258 0.21918 L 0.728281 0.223242 L 0.732305 0.227266 L 0.736367 0.227266 L 0.740391 0.231328 L 0.744453 0.235352 L 0.752539 0.243438 L 0.756563 0.243438 L 0.756563 0.247461 L 0.760625 0.251523 L 0.760625 0.255547 L 0.764648 0.259609 L 0.768672 0.263633 L 0.768672 0.267695 L 0.772734 0.271719 L 0.772734 0.279805 L 0.776758 0.283828 L 0.784844 0.283828 L 0.788906 0.287891 L 0.788906 0.291914 L 0.79293 0.295977 L 0.796953 0.3 L 0.796953 0.308086 L 0.801016 0.312109 L 0.801016 0.316172 L 0.805039 0.320195 L 0.809102 0.320195 L 0.809102 0.332305 L 0.805039 0.336367 L 0.805039 0.348477 L 0.809102 0.352539 L 0.809102 0.356562 L 0.813125 0.360625 L 0.813125 0.364648 L 0.809102 0.368672 L 0.809102 0.372734 L 0.805039 0.376758 L 0.801016 0.38082 L 0.796953 0.384844 L 0.796953 0.388906 L 0.79293 0.39293 L 0.79293 0.401016 L 0.788906 0.405039 L 0.788906 0.409102 L 0.784844 0.413125 L 0.78082 0.417188 L 0.78082 0.421211 L 0.776758 0.425234 L 0.776758 0.429297 L 0.772734 0.43332 L 0.772734 0.437383 L 0.768672 0.441406 L 0.764648 0.445469 L 0.764648 0.449492 L 0.760625 0.453555 L 0.756563 0.457578 L 0.748477 0.465664 L 0.744453 0.465664 L 0.740391 0.469688 L 0.732305 0.469688 L 0.728281 0.47375 L 0.724258 0.47375 L 0.720195 0.477773 L 0.716172 0.481836 L 0.712109 0.485859 L 0.708086 0.489883 L 0.712109 0.493945 L 0.716172 0.493945 L 0.720195 0.489883 L 0.732305 0.489883 L 0.736367 0.485859 L 0.740391 0.485859 L 0.744453 0.481836 L 0.752539 0.481836 L 0.756563 0.477773 L 0.760625 0.477773 L 0.764648 0.47375 L 0.772734 0.47375 L 0.776758 0.469688 L 0.78082 0.469688 L 0.784844 0.465664 L 0.788906 0.465664 L 0.79293 0.461602 L 0.796953 0.461602 L 0.801016 0.457578 L 0.805039 0.457578 L 0.809102 0.453555 L 0.813125 0.453555 L 0.817188 0.449492 L 0.821211 0.449492 L 0.825234 0.445469 L 0.829297 0.445469 L 0.83332 0.441406 L 0.837383 0.441406 L 0.841406 0.437383 L 0.845469 0.437383 L 0.849492 0.43332 L 0.853555 0.43332 L 0.857578 0.429297 L 0.861602 0.429297 L 0.865664 0.425234 L 0.869687 0.425234 L 0.87375 0.421211 L 0.877773 0.417188 L 0.881836 0.417188 L 0.885859 0.413125 L 0.889883 0.413125 L 0.893945 0.409102 L 0.897969 0.405039 L 0.902031 0.405039 L 0.906055 0.401016 L 0.910117 0.401016 L 0.914141 0.396953 L 0.918164 0.39293 L 0.922227 0.39293 L 0.930312 0.384844 L 0.930312 0.38082 L 0.934336 0.376758 L 0.934336 0.372734 L 0.938398 0.368672 L 0.942422 0.368672 L 0.946445 0.372734 L 0.950508 0.376758 L 0.954531 0.38082 L 0.954531 0.384844 L 0.950508 0.388906 L 0.946445 0.39293 L 0.942422 0.396953 L 0.938398 0.401016 L 0.934336 0.405039 L 0.930312 0.405039 L 0.92625 0.409102 L 0.922227 0.409102 L 0.918164 0.413125 L 0.910117 0.413125 L 0.902031 0.421211 L 0.897969 0.421211 L 0.893945 0.425234 L 0.885859 0.425234 L 0.881836 0.429297 L 0.877773 0.429297 L 0.869687 0.437383 L 0.861602 0.437383 L 0.857578 0.441406 L 0.853555 0.441406 L 0.849492 0.445469 L 0.845469 0.445469 L 0.841406 0.449492 L 0.837383 0.449492 L 0.83332 0.453555 L 0.829297 0.453555 L 0.825234 0.457578 L 0.821211 0.457578 L 0.817188 0.461602 L 0.813125 0.461602 L 0.809102 0.465664 L 0.805039 0.465664 L 0.801016 0.469688 L 0.796953 0.469688 L 0.79293 0.47375 L 0.784844 0.47375 L 0.776758 0.481836 L 0.772734 0.481836 L 0.768672 0.485859 L 0.760625 0.485859 L 0.756563 0.489883 L 0.752539 0.493945 L 0.748477 0.493945 L 0.744453 0.497969 L 0.740391 0.497969 L 0.736367 0.502031 L 0.728281 0.502031 L 0.720195 0.510117 L 0.716172 0.510117 L 0.712109 0.514141 L 0.708086 0.518164 L 0.712109 0.522227 L 0.732305 0.522227 L 0.736367 0.52625 L 0.740391 0.52625 L 0.744453 0.530312 L 0.748477 0.530312 L 0.752539 0.534336 L 0.756563 0.538398 L 0.764648 0.538398 L 0.768672 0.542422 L 0.776758 0.542422 L 0.78082 0.546445 L 0.784844 0.550508 L 0.788906 0.554531 L 0.79293 0.554531 L 0.796953 0.558594 L 0.801016 0.558594 L 0.805039 0.562617 L 0.809102 0.562617 L 0.813125 0.56668 L 0.817188 0.570703 L 0.821211 0.574766 L 0.821211 0.578789 L 0.825234 0.582813 L 0.825234 0.586875 L 0.829297 0.590898 L 0.829297 0.598984 L 0.83332 0.603047 L 0.83332 0.623242 L 0.829297 0.627266 L 0.829297 0.639375 L 0.83332 0.643438 L 0.83332 0.671719 L 0.825234 0.679805 L 0.825234 0.695977 L 0.821211 0.7 L 0.821211 0.708086 L 0.817188 0.704023 L 0.813125 0.708086 L 0.813125 0.712109 L 0.809102 0.716172 L 0.809102 0.720195 L 0.805039 0.724258 L 0.805039 0.728281 L 0.801016 0.728281 L 0.796953 0.732305 L 0.79293 0.736367 L 0.788906 0.740391 L 0.784844 0.740391 L 0.78082 0.744453 L 0.78082 0.748477 L 0.776758 0.752539 L 0.772734 0.752539 L 0.768672 0.756563 L 0.764648 0.760625 L 0.764648 0.764648 L 0.760625 0.768672 L 0.756563 0.768672 L 0.752539 0.772734 L 0.748477 0.776758 L 0.748477 0.78082 L 0.740391 0.788906 L 0.736367 0.788906 L 0.732305 0.79293 L 0.732305 0.796953 L 0.728281 0.796953 L 0.724258 0.801016 L 0.720195 0.805039 L 0.716172 0.809102 L 0.712109 0.809102 L 0.708086 0.805039 L 0.7 0.813125 L 0.7 0.817188 L 0.695977 0.821211 L 0.691914 0.825234 L 0.687891 0.825234 L 0.683828 0.821211 L 0.679805 0.825234 L 0.679805 0.829297 L 0.675742 0.83332 L 0.663633 0.83332 L 0.659609 0.837383 L 0.659609 0.841406 L 0.655547 0.841406 L 0.651523 0.845469 L 0.643438 0.845469 L 0.639375 0.841406 L 0.635352 0.845469 L 0.627266 0.853555 L 0.61918 0.853555 L 0.615156 0.857578 L 0.60707 0.857578 L 0.603047 0.861602 L 0.598984 0.861602 L 0.594961 0.857578 L 0.586875 0.857578 L 0.582813 0.861602 L 0.574766 0.861602 L 0.570703 0.857578 L 0.558594 0.857578 L 0.554531 0.861602 L 0.542422 0.861602 L 0.546445 0.857578 L 0.542422 0.853555 L 0.538398 0.853555 L 0.534336 0.857578 L 0.522227 0.857578 L 0.518164 0.861602 L 0.506055 0.861602 L 0.502031 0.857578 L 0.497969 0.853555 L 0.493945 0.857578 L 0.489883 0.861602 L 0.481836 0.861602 L 0.477773 0.865664 L 0.47375 0.865664 L 0.469688 0.861602 L 0.461602 0.861602 L 0.457578 0.865664 L 0.453555 0.861602 L 0.449492 0.865664 L 0.441406 0.865664 L 0.441406 0.861602 L 0.437383 0.857578 L 0.425234 0.857578 L 0.421211 0.853555 L 0.421211 0.849492 L 0.413125 0.841406 L 0.409102 0.841406 L 0.405039 0.845469 L 0.39293 0.845469 L 0.388906 0.841406 L 0.388906 0.837383 L 0.384844 0.83332 L 0.364648 0.83332 L 0.360625 0.829297 L 0.360625 0.825234 L 0.356563 0.821211 L 0.352539 0.821211 L 0.348477 0.817188 L 0.340391 0.817188 L 0.336367 0.813125 L 0.328281 0.813125 L 0.328281 0.809102 L 0.332305 0.805039 L 0.336367 0.801016 L 0.336367 0.796953 L 0.332305 0.79293 L 0.316172 0.79293 L 0.312109 0.788906 L 0.308086 0.788906 L 0.308086 0.78082 L 0.3 0.772734 L 0.295977 0.768672 L 0.291914 0.764648 L 0.291914 0.760625 L 0.295977 0.756563 L 0.295977 0.744453 L 0.291914 0.740391 L 0.275742 0.740391 L 0.275742 0.728281 L 0.279805 0.724258 L 0.279805 0.720195 L 0.275742 0.716172 L 0.275742 0.708086 L 0.279805 0.704023 L 0.279805 0.7 L 0.275742 0.695977 L 0.271719 0.695977 L 0.267695 0.691914 L 0.263633 0.687891 L 0.267695 0.683828 L 0.267695 0.679805 L 0.263633 0.675742 L 0.259609 0.675742 L 0.255547 0.671719 L 0.247461 0.671719 L 0.243437 0.667695 L 0.243437 0.655547 L 0.239375 0.651523 L 0.235352 0.647461 L 0.231328 0.643438 L 0.227266 0.643438 L 0.227266 0.635352 L 0.231328 0.631328 L 0.235352 0.627266 L 0.239375 0.623242 L 0.235352 0.61918 L 0.227266 0.61918 L 0.21918 0.611094 L 0.223242 0.60707 L 0.223242 0.603047 L 0.20707 0.586875 L 0.203047 0.586875 L 0.198984 0.582813 L 0.203047 0.578789 L 0.20707 0.574766 L 0.20707 0.570703 L 0.198984 0.562617 L 0.194961 0.562617 L 0.190898 0.558594 L 0.186875 0.558594 L 0.186875 0.554531 L 0.182813 0.550508 L 0.178789 0.546445 L 0.174766 0.542422 L 0.162617 0.542422 L 0.158594 0.538398 L 0.154531 0.538398 L 0.158594 0.534336 L 0.154531 0.530312 L 0.150508 0.52625 L 0.118164 0.52625 L 0.114141 0.522227 L 0.114141 0.518164 L 0.110117 0.514141 L 0.106055 0.514141 L 0.0979687 0.506055 L 0.0939453 0.506055 L 0.0898828 0.502031 L 0.0858594 0.502031 L 0.0818359 0.497969 L 0.07375 0.497969 L 0.0696875 0.493945 L 0.0656641 0.493945 L 0.0616016 0.489883 L 0.0575781 0.489883 L 0.0535547 0.485859 L 0.0494922 0.481836 L 0.0494922 0.477773 Z M 0.0454687 0.47375 " transform="matrix(100,0,0,100,150,350)"/>
<path style="fill:none;stroke-width:0.01;stroke-linecap:butt;stroke-linejoin:miter;stroke:rgb(0%,0%,0%);stroke-opacity:1;stroke-miterlimit:10;" d="M 0.0454687 0.477969 L 0.0534766 0.469961 L 0.0694922 0.469961 L 0.0734766 0.465977 L 0.0775 0.465977 L 0.0814844 0.461953 L 0.0855078 0.457969 L 0.0935156 0.457969 L 0.0975 0.453945 L 0.101523 0.453945 L 0.105508 0.449922 L 0.105508 0.445937 L 0.125547 0.445937 L 0.133555 0.43793 L 0.137578 0.43793 L 0.141563 0.433906 L 0.14957 0.433906 L 0.153594 0.43793 L 0.157578 0.433906 L 0.157578 0.429922 L 0.153594 0.425898 L 0.161602 0.417891 L 0.173594 0.417891 L 0.177617 0.413906 L 0.181602 0.409883 L 0.185625 0.405898 L 0.189609 0.401875 L 0.193633 0.401875 L 0.197656 0.397891 L 0.197656 0.393867 L 0.201641 0.389883 L 0.205664 0.389883 L 0.209648 0.385859 L 0.205664 0.381875 L 0.209648 0.377852 L 0.213672 0.373867 L 0.213672 0.369844 L 0.217656 0.369844 L 0.22168 0.36582 L 0.22168 0.361836 L 0.225664 0.361836 L 0.233672 0.353828 L 0.233672 0.34582 L 0.24168 0.34582 L 0.245703 0.341797 L 0.245703 0.333789 L 0.249688 0.333789 L 0.253711 0.329805 L 0.261719 0.329805 L 0.265703 0.325781 L 0.265703 0.317773 L 0.273711 0.317773 L 0.277734 0.313789 L 0.277734 0.309766 L 0.285742 0.309766 L 0.289766 0.305781 L 0.289766 0.301758 L 0.29375 0.301758 L 0.297773 0.297773 L 0.29375 0.29375 L 0.297773 0.289766 L 0.301758 0.285742 L 0.305781 0.285742 L 0.309766 0.281719 L 0.313789 0.277734 L 0.313789 0.265703 L 0.317773 0.261719 L 0.317773 0.253711 L 0.329805 0.253711 L 0.333789 0.249688 L 0.333789 0.237695 L 0.337813 0.237695 L 0.341797 0.233672 L 0.34582 0.233672 L 0.349805 0.229688 L 0.353828 0.229688 L 0.357813 0.225664 L 0.357813 0.22168 L 0.36582 0.22168 L 0.369844 0.217656 L 0.373867 0.213672 L 0.377852 0.213672 L 0.381875 0.217656 L 0.385859 0.213672 L 0.393867 0.213672 L 0.397891 0.209648 L 0.409883 0.209648 L 0.413906 0.205664 L 0.421914 0.205664 L 0.425898 0.201641 L 0.43793 0.201641 L 0.441914 0.205664 L 0.445937 0.205664 L 0.449922 0.201641 L 0.453945 0.201641 L 0.457969 0.205664 L 0.461953 0.205664 L 0.465977 0.201641 L 0.473984 0.201641 L 0.477969 0.205664 L 0.481992 0.205664 L 0.485977 0.201641 L 0.49 0.205664 L 0.493984 0.205664 L 0.498008 0.201641 L 0.506016 0.201641 L 0.51 0.205664 L 0.514023 0.201641 L 0.530039 0.201641 L 0.534023 0.197656 L 0.546055 0.197656 L 0.550078 0.201641 L 0.554063 0.201641 L 0.558086 0.197656 L 0.566094 0.197656 L 0.574102 0.205664 L 0.586094 0.205664 L 0.590117 0.209648 L 0.594102 0.209648 L 0.602109 0.217656 L 0.610117 0.217656 L 0.614141 0.22168 L 0.618125 0.22168 L 0.622148 0.225664 L 0.626133 0.225664 L 0.626133 0.229688 L 0.630156 0.233672 L 0.63418 0.233672 L 0.63418 0.237695 L 0.638164 0.24168 L 0.646172 0.24168 L 0.658203 0.253711 L 0.666211 0.253711 L 0.670195 0.257695 L 0.670195 0.261719 L 0.674219 0.265703 L 0.678203 0.265703 L 0.678203 0.269727 L 0.682227 0.273711 L 0.682227 0.277734 L 0.690234 0.285742 L 0.694219 0.289766 L 0.698242 0.289766 L 0.698242 0.29375 L 0.702227 0.297773 L 0.702227 0.301758 L 0.714258 0.313789 L 0.714258 0.325781 L 0.722266 0.333789 L 0.722266 0.349805 L 0.730273 0.357813 L 0.730273 0.377852 L 0.726289 0.381875 L 0.726289 0.421914 L 0.722266 0.425898 L 0.722266 0.43793 L 0.718281 0.441914 L 0.718281 0.453945 L 0.714258 0.457969 L 0.714258 0.469961 L 0.710234 0.473984 L 0.710234 0.481992 L 0.702227 0.49 L 0.702227 0.493984 L 0.698242 0.498008 L 0.694219 0.501992 L 0.694219 0.506016 L 0.690234 0.51 L 0.690234 0.514023 L 0.686211 0.518008 L 0.682227 0.522031 L 0.678203 0.526016 L 0.674219 0.530039 L 0.682227 0.538047 L 0.686211 0.538047 L 0.690234 0.542031 L 0.698242 0.542031 L 0.702227 0.546055 L 0.714258 0.546055 L 0.718281 0.550078 L 0.726289 0.550078 L 0.730273 0.554062 L 0.742305 0.554062 L 0.746289 0.558086 L 0.75832 0.558086 L 0.762305 0.56207 L 0.770313 0.56207 L 0.774336 0.566094 L 0.782344 0.566094 L 0.786328 0.570078 L 0.798359 0.570078 L 0.802344 0.574102 L 0.810391 0.574102 L 0.814375 0.578086 L 0.826406 0.578086 L 0.830391 0.582109 L 0.838398 0.582109 L 0.842422 0.586094 L 0.85043 0.586094 L 0.854414 0.590117 L 0.862422 0.590117 L 0.866445 0.594102 L 0.874453 0.594102 L 0.878437 0.598125 L 0.890469 0.598125 L 0.894492 0.602109 L 0.9025 0.602109 L 0.906484 0.606133 L 0.914492 0.606133 L 0.918516 0.610117 L 0.926523 0.610117 L 0.930508 0.614141 L 0.942539 0.614141 L 0.946523 0.618125 L 0.950547 0.618125 L 0.954531 0.622148 L 0.946523 0.630156 L 0.942539 0.630156 L 0.938516 0.626133 L 0.930508 0.626133 L 0.926523 0.622148 L 0.918516 0.622148 L 0.914492 0.618125 L 0.906484 0.618125 L 0.9025 0.614141 L 0.898477 0.614141 L 0.894492 0.610117 L 0.890469 0.610117 L 0.886445 0.606133 L 0.882461 0.606133 L 0.878437 0.602109 L 0.874453 0.602109 L 0.87043 0.598125 L 0.858437 0.598125 L 0.854414 0.594102 L 0.846406 0.594102 L 0.842422 0.590117 L 0.834414 0.590117 L 0.830391 0.586094 L 0.822383 0.586094 L 0.818398 0.582109 L 0.810391 0.582109 L 0.806367 0.578086 L 0.794336 0.578086 L 0.790352 0.574102 L 0.77832 0.574102 L 0.774336 0.570078 L 0.766328 0.570078 L 0.762305 0.566094 L 0.750313 0.566094 L 0.746289 0.56207 L 0.730273 0.56207 L 0.726289 0.558086 L 0.714258 0.558086 L 0.710234 0.554062 L 0.702227 0.554062 L 0.698242 0.550078 L 0.686211 0.550078 L 0.682227 0.546055 L 0.678203 0.550078 L 0.678203 0.558086 L 0.682227 0.56207 L 0.686211 0.566094 L 0.686211 0.570078 L 0.690234 0.574102 L 0.690234 0.582109 L 0.702227 0.594102 L 0.702227 0.598125 L 0.70625 0.602109 L 0.710234 0.606133 L 0.710234 0.614141 L 0.714258 0.618125 L 0.714258 0.622148 L 0.718281 0.626133 L 0.718281 0.638164 L 0.722266 0.642188 L 0.722266 0.65418 L 0.718281 0.658203 L 0.718281 0.686211 L 0.722266 0.690234 L 0.726289 0.694219 L 0.726289 0.698242 L 0.722266 0.698242 L 0.718281 0.702227 L 0.718281 0.70625 L 0.722266 0.710234 L 0.722266 0.714258 L 0.718281 0.718281 L 0.718281 0.722266 L 0.714258 0.726289 L 0.714258 0.730273 L 0.694219 0.750312 L 0.686211 0.750312 L 0.678203 0.75832 L 0.674219 0.75832 L 0.670195 0.762305 L 0.666211 0.766328 L 0.662187 0.770313 L 0.658203 0.770313 L 0.650195 0.77832 L 0.646172 0.77832 L 0.642187 0.782344 L 0.630156 0.782344 L 0.626133 0.786328 L 0.622148 0.786328 L 0.618125 0.790352 L 0.614141 0.786328 L 0.610117 0.790352 L 0.606133 0.790352 L 0.602109 0.794336 L 0.586094 0.794336 L 0.582109 0.798359 L 0.566094 0.798359 L 0.56207 0.802344 L 0.558086 0.798359 L 0.550078 0.798359 L 0.546055 0.802344 L 0.534023 0.802344 L 0.530039 0.798359 L 0.514023 0.798359 L 0.51 0.802344 L 0.481992 0.802344 L 0.477969 0.798359 L 0.473984 0.802344 L 0.469961 0.802344 L 0.465977 0.798359 L 0.425898 0.798359 L 0.421914 0.794336 L 0.413906 0.794336 L 0.409883 0.790352 L 0.405898 0.790352 L 0.401875 0.794336 L 0.393867 0.794336 L 0.389883 0.790352 L 0.381875 0.790352 L 0.377852 0.786328 L 0.373867 0.786328 L 0.369844 0.782344 L 0.36582 0.782344 L 0.361836 0.77832 L 0.349805 0.77832 L 0.349805 0.774336 L 0.34582 0.770313 L 0.341797 0.774336 L 0.317773 0.774336 L 0.317773 0.770313 L 0.309766 0.762305 L 0.305781 0.762305 L 0.301758 0.75832 L 0.297773 0.75832 L 0.297773 0.754297 L 0.29375 0.750312 L 0.289766 0.754297 L 0.285742 0.750312 L 0.281719 0.750312 L 0.277734 0.746289 L 0.273711 0.742305 L 0.273711 0.738281 L 0.265703 0.730273 L 0.261719 0.730273 L 0.257695 0.726289 L 0.257695 0.718281 L 0.253711 0.714258 L 0.249688 0.714258 L 0.249688 0.702227 L 0.24168 0.694219 L 0.237695 0.694219 L 0.237695 0.690234 L 0.24168 0.686211 L 0.24168 0.678203 L 0.237695 0.674219 L 0.237695 0.670195 L 0.233672 0.666211 L 0.229688 0.662187 L 0.225664 0.658203 L 0.225664 0.650195 L 0.22168 0.646172 L 0.22168 0.642188 L 0.217656 0.638164 L 0.22168 0.63418 L 0.22168 0.630156 L 0.217656 0.626133 L 0.217656 0.622148 L 0.213672 0.618125 L 0.209648 0.618125 L 0.209648 0.614141 L 0.213672 0.610117 L 0.213672 0.606133 L 0.205664 0.598125 L 0.201641 0.598125 L 0.197656 0.594102 L 0.193633 0.590117 L 0.193633 0.586094 L 0.189609 0.582109 L 0.185625 0.578086 L 0.181602 0.574102 L 0.181602 0.558086 L 0.177617 0.554062 L 0.173594 0.550078 L 0.177617 0.546055 L 0.173594 0.542031 L 0.169609 0.542031 L 0.169609 0.538047 L 0.153594 0.522031 L 0.157578 0.518008 L 0.153594 0.514023 L 0.14957 0.514023 L 0.145586 0.51 L 0.141563 0.506016 L 0.137578 0.501992 L 0.137578 0.498008 L 0.133555 0.493984 L 0.125547 0.493984 L 0.125547 0.49 L 0.121563 0.485977 L 0.117539 0.481992 L 0.109531 0.481992 L 0.105508 0.485977 L 0.101523 0.49 L 0.0975 0.485977 L 0.0894922 0.485977 L 0.0855078 0.49 L 0.0694922 0.49 L 0.0654687 0.485977 L 0.0494531 0.485977 L 0.0454687 0.481992 Z M 0.0454687 0.477969 " transform="matrix(100,0,0,100,300,350)"/>
<path style="fill:none;stroke-width:0.01;stroke-linecap:butt;stroke-linejoin:miter;stroke:rgb(0%,0%,0%);stroke-opacity:1;stroke-miterlimit:10;" d="M 0.0454688 0.609648 L 0.0494531 0.605664 L 0.0494531 0.60168 L 0.0534375 0.597695 L 0.0534375 0.589727 L 0.0574219 0.589727 L 0.0653906 0.581758 L 0.069375 0.577734 L 0.0733594 0.577734 L 0.0773437 0.57375 L 0.0892969 0.57375 L 0.0933203 0.569766 L 0.0933203 0.561797 L 0.113242 0.561797 L 0.117227 0.557812 L 0.117227 0.553828 L 0.125195 0.545859 L 0.133164 0.545859 L 0.141133 0.537891 L 0.141133 0.533906 L 0.157109 0.51793 L 0.153125 0.513945 L 0.153125 0.509961 L 0.169062 0.494023 L 0.169062 0.48207 L 0.173047 0.478086 L 0.173047 0.474102 L 0.169062 0.470078 L 0.169062 0.466094 L 0.173047 0.462109 L 0.173047 0.458125 L 0.177031 0.458125 L 0.181016 0.454141 L 0.181016 0.446172 L 0.185 0.446172 L 0.188984 0.442188 L 0.185 0.438203 L 0.185 0.434219 L 0.181016 0.430234 L 0.188984 0.422266 L 0.188984 0.402305 L 0.185 0.39832 L 0.188984 0.394336 L 0.196953 0.394336 L 0.200938 0.390352 L 0.200938 0.386367 L 0.196953 0.382383 L 0.196953 0.378398 L 0.200938 0.374414 L 0.204961 0.37043 L 0.204961 0.366445 L 0.208945 0.362422 L 0.21293 0.362422 L 0.216914 0.358437 L 0.21293 0.354453 L 0.208945 0.354453 L 0.204961 0.350469 L 0.216914 0.338516 L 0.21293 0.334531 L 0.216914 0.334531 L 0.224883 0.326563 L 0.224883 0.310625 L 0.228867 0.306602 L 0.232852 0.302617 L 0.236836 0.302617 L 0.24082 0.298633 L 0.24082 0.294648 L 0.244805 0.290664 L 0.244805 0.282695 L 0.252773 0.274727 L 0.256797 0.274727 L 0.26875 0.262773 L 0.284688 0.262773 L 0.288672 0.258789 L 0.296641 0.258789 L 0.300625 0.254766 L 0.296641 0.250781 L 0.300625 0.246797 L 0.308594 0.246797 L 0.312617 0.242812 L 0.32457 0.242812 L 0.328555 0.238828 L 0.336523 0.238828 L 0.340508 0.242812 L 0.344492 0.242812 L 0.348477 0.238828 L 0.344492 0.234844 L 0.348477 0.234844 L 0.356445 0.226875 L 0.36043 0.226875 L 0.364453 0.222891 L 0.380391 0.222891 L 0.384375 0.218906 L 0.392344 0.218906 L 0.396328 0.214922 L 0.400313 0.218906 L 0.412266 0.218906 L 0.41625 0.214922 L 0.412266 0.210938 L 0.412266 0.206953 L 0.424258 0.206953 L 0.428242 0.202969 L 0.432227 0.198945 L 0.436211 0.198945 L 0.440195 0.202969 L 0.44418 0.198945 L 0.44418 0.194961 L 0.452148 0.194961 L 0.456133 0.198945 L 0.464102 0.198945 L 0.468086 0.194961 L 0.480078 0.194961 L 0.484063 0.198945 L 0.488047 0.198945 L 0.492031 0.194961 L 0.496016 0.198945 L 0.5 0.198945 L 0.503984 0.194961 L 0.507969 0.194961 L 0.511953 0.198945 L 0.523906 0.198945 L 0.52793 0.202969 L 0.535898 0.202969 L 0.547852 0.214922 L 0.55582 0.214922 L 0.571758 0.230859 L 0.575742 0.226875 L 0.579727 0.226875 L 0.58375 0.230859 L 0.599687 0.246797 L 0.607656 0.246797 L 0.611641 0.250781 L 0.615625 0.250781 L 0.619609 0.254766 L 0.623594 0.258789 L 0.627578 0.262773 L 0.631563 0.262773 L 0.631563 0.266758 L 0.635547 0.270742 L 0.63957 0.274727 L 0.643555 0.274727 L 0.647539 0.278711 L 0.647539 0.282695 L 0.651523 0.28668 L 0.651523 0.290664 L 0.659492 0.298633 L 0.663477 0.298633 L 0.667461 0.302617 L 0.667461 0.306602 L 0.671445 0.310625 L 0.67543 0.314609 L 0.67543 0.322578 L 0.679414 0.326563 L 0.679414 0.330547 L 0.683398 0.334531 L 0.683398 0.366445 L 0.687383 0.37043 L 0.687383 0.390352 L 0.683398 0.394336 L 0.683398 0.414258 L 0.679414 0.418242 L 0.679414 0.446172 L 0.67543 0.450156 L 0.67543 0.470078 L 0.671445 0.474102 L 0.671445 0.48207 L 0.667461 0.486055 L 0.667461 0.490039 L 0.671445 0.494023 L 0.699375 0.494023 L 0.703359 0.490039 L 0.707344 0.494023 L 0.711328 0.490039 L 0.723281 0.490039 L 0.727266 0.486055 L 0.743203 0.486055 L 0.747227 0.48207 L 0.771133 0.48207 L 0.775117 0.478086 L 0.791055 0.478086 L 0.795039 0.474102 L 0.803047 0.474102 L 0.807031 0.470078 L 0.815 0.470078 L 0.818984 0.466094 L 0.834922 0.466094 L 0.838906 0.462109 L 0.850859 0.462109 L 0.854883 0.458125 L 0.866836 0.458125 L 0.87082 0.454141 L 0.878789 0.454141 L 0.882773 0.450156 L 0.894727 0.450156 L 0.898711 0.446172 L 0.90668 0.446172 L 0.910703 0.442188 L 0.914688 0.442188 L 0.918672 0.438203 L 0.926641 0.438203 L 0.930625 0.434219 L 0.954531 0.434219 L 0.954531 0.438203 L 0.946562 0.446172 L 0.930625 0.446172 L 0.926641 0.450156 L 0.918672 0.450156 L 0.914688 0.454141 L 0.910703 0.450156 L 0.90668 0.454141 L 0.898711 0.454141 L 0.894727 0.458125 L 0.878789 0.458125 L 0.874805 0.462109 L 0.862852 0.462109 L 0.858867 0.466094 L 0.842891 0.466094 L 0.838906 0.470078 L 0.830938 0.470078 L 0.826953 0.474102 L 0.815 0.474102 L 0.811016 0.478086 L 0.799062 0.478086 L 0.795039 0.48207 L 0.775117 0.48207 L 0.771133 0.486055 L 0.75918 0.486055 L 0.755195 0.490039 L 0.743203 0.490039 L 0.739219 0.494023 L 0.723281 0.494023 L 0.719297 0.498008 L 0.699375 0.498008 L 0.695391 0.501992 L 0.679414 0.501992 L 0.671445 0.509961 L 0.691406 0.529922 L 0.691406 0.533906 L 0.703359 0.545859 L 0.703359 0.549844 L 0.707344 0.553828 L 0.707344 0.557812 L 0.711328 0.561797 L 0.711328 0.569766 L 0.715313 0.57375 L 0.715313 0.577734 L 0.719297 0.581758 L 0.719297 0.589727 L 0.723281 0.593711 L 0.723281 0.597695 L 0.719297 0.60168 L 0.719297 0.617617 L 0.715313 0.621602 L 0.715313 0.62957 L 0.719297 0.633555 L 0.719297 0.645547 L 0.723281 0.649531 L 0.723281 0.661484 L 0.715313 0.669453 L 0.715313 0.677422 L 0.711328 0.681406 L 0.711328 0.685391 L 0.707344 0.689375 L 0.703359 0.693398 L 0.703359 0.701367 L 0.691406 0.71332 L 0.691406 0.717305 L 0.687383 0.717305 L 0.671445 0.733242 L 0.663477 0.733242 L 0.659492 0.737227 L 0.659492 0.741211 L 0.655508 0.741211 L 0.651523 0.745234 L 0.643555 0.745234 L 0.63957 0.749219 L 0.631563 0.749219 L 0.627578 0.753203 L 0.623594 0.753203 L 0.619609 0.757187 L 0.615625 0.757187 L 0.611641 0.761172 L 0.611641 0.765156 L 0.607656 0.765156 L 0.603672 0.769141 L 0.599687 0.769141 L 0.595703 0.773125 L 0.591719 0.773125 L 0.587734 0.769141 L 0.58375 0.773125 L 0.579727 0.777109 L 0.575742 0.777109 L 0.571758 0.781094 L 0.571758 0.785078 L 0.567773 0.789062 L 0.559805 0.789062 L 0.55582 0.793047 L 0.535898 0.793047 L 0.531914 0.789062 L 0.52793 0.793047 L 0.523906 0.793047 L 0.519922 0.797031 L 0.5 0.797031 L 0.496016 0.801055 L 0.492031 0.805039 L 0.488047 0.801055 L 0.484063 0.805039 L 0.480078 0.805039 L 0.476094 0.801055 L 0.468086 0.801055 L 0.464102 0.805039 L 0.460117 0.801055 L 0.440195 0.801055 L 0.436211 0.805039 L 0.432227 0.805039 L 0.428242 0.801055 L 0.412266 0.801055 L 0.408281 0.805039 L 0.404297 0.801055 L 0.400313 0.797031 L 0.396328 0.797031 L 0.392344 0.793047 L 0.376406 0.793047 L 0.372422 0.789062 L 0.372422 0.785078 L 0.368437 0.781094 L 0.352461 0.781094 L 0.348477 0.777109 L 0.336523 0.777109 L 0.332539 0.773125 L 0.332539 0.769141 L 0.328555 0.765156 L 0.32457 0.765156 L 0.320586 0.761172 L 0.320586 0.757187 L 0.316602 0.753203 L 0.308594 0.753203 L 0.300625 0.745234 L 0.292656 0.745234 L 0.292656 0.741211 L 0.284688 0.733242 L 0.276719 0.733242 L 0.272734 0.729258 L 0.26875 0.729258 L 0.264766 0.725273 L 0.252773 0.725273 L 0.252773 0.721289 L 0.244805 0.71332 L 0.244805 0.709336 L 0.24082 0.705352 L 0.232852 0.705352 L 0.236836 0.701367 L 0.236836 0.689375 L 0.232852 0.685391 L 0.224883 0.685391 L 0.220898 0.681406 L 0.216914 0.681406 L 0.216914 0.673438 L 0.21293 0.669453 L 0.208945 0.669453 L 0.204961 0.665469 L 0.204961 0.661484 L 0.200938 0.6575 L 0.196953 0.653516 L 0.196953 0.649531 L 0.185 0.637578 L 0.181016 0.633555 L 0.177031 0.62957 L 0.177031 0.625586 L 0.169062 0.617617 L 0.161094 0.617617 L 0.157109 0.613633 L 0.149141 0.613633 L 0.145117 0.609648 L 0.121211 0.609648 L 0.117227 0.605664 L 0.113242 0.605664 L 0.109258 0.609648 L 0.101289 0.609648 L 0.0933203 0.60168 L 0.0892969 0.597695 L 0.0853125 0.60168 L 0.0773437 0.60168 L 0.0653906 0.613633 L 0.0614063 0.613633 L 0.0574219 0.617617 L 0.0494531 0.617617 L 0.0494531 0.613633 Z M 0.0454688 0.609648 " transform="matrix(100,0,0,100,450,350)"/>
<path style="fill:none;stroke-width:0.01;stroke-linecap:butt;stroke-linejoin:miter;stroke:rgb(0%,0%,0%);stroke-opacity:1;stroke-miterlimit:10;" d="M 0.0454688 0.613125 L 0.0613281 0.613125 L 0.0653125 0.617109 L 0.0692578 0.613125 L 0.0732422 0.613125 L 0.0772266 0.60918 L 0.0772266 0.60125 L 0.0891406 0.60125 L 0.0930859 0.597266 L 0.0970703 0.593281 L 0.0970703 0.585352 L 0.108984 0.585352 L 0.11293 0.581367 L 0.11293 0.577422 L 0.108984 0.573437 L 0.11293 0.569453 L 0.11293 0.561523 L 0.116914 0.557578 L 0.120898 0.553594 L 0.124844 0.549609 L 0.124844 0.53375 L 0.128828 0.529766 L 0.128828 0.521836 L 0.132773 0.517852 L 0.136758 0.513906 L 0.140742 0.509922 L 0.136758 0.505937 L 0.128828 0.505937 L 0.128828 0.498008 L 0.132773 0.494063 L 0.132773 0.486094 L 0.136758 0.482148 L 0.140742 0.478164 L 0.140742 0.46625 L 0.152656 0.454336 L 0.152656 0.450391 L 0.148672 0.446406 L 0.160586 0.434492 L 0.156602 0.430547 L 0.160586 0.426563 L 0.164531 0.426563 L 0.168516 0.422578 L 0.168516 0.418633 L 0.1725 0.414648 L 0.176445 0.410664 L 0.176445 0.406719 L 0.204258 0.378906 L 0.204258 0.374961 L 0.208203 0.374961 L 0.212187 0.370977 L 0.212187 0.366992 L 0.208203 0.363047 L 0.212187 0.363047 L 0.228086 0.347148 L 0.228086 0.343203 L 0.236016 0.343203 L 0.239961 0.339219 L 0.243945 0.335234 L 0.24793 0.335234 L 0.251875 0.331289 L 0.255859 0.331289 L 0.263789 0.323359 L 0.267773 0.327305 L 0.275703 0.319375 L 0.283633 0.319375 L 0.287617 0.315391 L 0.291602 0.315391 L 0.295547 0.311445 L 0.303477 0.311445 L 0.311445 0.303477 L 0.315391 0.303477 L 0.319375 0.299531 L 0.331289 0.299531 L 0.335234 0.295547 L 0.343203 0.295547 L 0.347148 0.291602 L 0.355117 0.291602 L 0.359063 0.287617 L 0.363047 0.283633 L 0.370977 0.283633 L 0.374961 0.279688 L 0.378906 0.283633 L 0.382891 0.283633 L 0.386875 0.279688 L 0.386875 0.275703 L 0.39082 0.275703 L 0.394805 0.279688 L 0.39875 0.275703 L 0.39875 0.271719 L 0.414648 0.271719 L 0.418633 0.267773 L 0.418633 0.263789 L 0.430547 0.263789 L 0.434492 0.267773 L 0.442422 0.267773 L 0.446406 0.271719 L 0.45832 0.271719 L 0.462305 0.275703 L 0.470234 0.275703 L 0.47418 0.279688 L 0.478164 0.283633 L 0.486094 0.283633 L 0.490078 0.287617 L 0.494063 0.287617 L 0.498008 0.291602 L 0.501992 0.291602 L 0.509922 0.299531 L 0.513906 0.299531 L 0.52582 0.311445 L 0.529766 0.311445 L 0.53375 0.315391 L 0.537695 0.319375 L 0.54168 0.319375 L 0.553594 0.331289 L 0.557578 0.331289 L 0.565508 0.339219 L 0.569453 0.343203 L 0.573437 0.347148 L 0.577422 0.347148 L 0.577422 0.351133 L 0.581367 0.355117 L 0.585352 0.359063 L 0.585352 0.366992 L 0.589336 0.370977 L 0.589336 0.418633 L 0.585352 0.422578 L 0.585352 0.450391 L 0.581367 0.454336 L 0.581367 0.462305 L 0.585352 0.46625 L 0.60918 0.46625 L 0.613125 0.470234 L 0.692539 0.470234 L 0.696523 0.47418 L 0.791797 0.47418 L 0.795742 0.470234 L 0.906914 0.470234 L 0.910859 0.46625 L 0.934687 0.46625 L 0.938672 0.462305 L 0.942617 0.462305 L 0.946602 0.45832 L 0.950586 0.45832 L 0.954531 0.462305 L 0.954531 0.46625 L 0.950586 0.470234 L 0.942617 0.470234 L 0.938672 0.47418 L 0.926758 0.47418 L 0.922773 0.478164 L 0.895 0.478164 L 0.891016 0.47418 L 0.823555 0.47418 L 0.81957 0.478164 L 0.613125 0.478164 L 0.60918 0.47418 L 0.589336 0.47418 L 0.585352 0.478164 L 0.581367 0.478164 L 0.577422 0.482148 L 0.577422 0.513906 L 0.581367 0.517852 L 0.581367 0.53375 L 0.585352 0.537695 L 0.585352 0.54168 L 0.589336 0.545664 L 0.589336 0.553594 L 0.593281 0.557578 L 0.593281 0.561523 L 0.597266 0.565508 L 0.597266 0.60125 L 0.593281 0.605195 L 0.593281 0.60918 L 0.589336 0.613125 L 0.589336 0.617109 L 0.585352 0.621094 L 0.581367 0.625039 L 0.581367 0.640937 L 0.577422 0.640937 L 0.573437 0.644883 L 0.573437 0.656797 L 0.569453 0.660781 L 0.569453 0.664766 L 0.565508 0.668711 L 0.565508 0.672695 L 0.561523 0.676641 L 0.557578 0.680625 L 0.553594 0.680625 L 0.545664 0.688555 L 0.537695 0.688555 L 0.53375 0.692539 L 0.529766 0.692539 L 0.52582 0.696523 L 0.521836 0.696523 L 0.517852 0.700469 L 0.513906 0.704453 L 0.505937 0.704453 L 0.501992 0.708398 L 0.498008 0.708398 L 0.494063 0.712383 L 0.490078 0.712383 L 0.486094 0.716367 L 0.482148 0.712383 L 0.478164 0.716367 L 0.47418 0.716367 L 0.470234 0.720313 L 0.462305 0.720313 L 0.45832 0.724297 L 0.450391 0.724297 L 0.446406 0.728281 L 0.442422 0.732227 L 0.434492 0.732227 L 0.430547 0.728281 L 0.426563 0.732227 L 0.422578 0.736211 L 0.418633 0.732227 L 0.414648 0.736211 L 0.394805 0.736211 L 0.39082 0.732227 L 0.386875 0.736211 L 0.366992 0.736211 L 0.363047 0.732227 L 0.359063 0.732227 L 0.355117 0.736211 L 0.351133 0.736211 L 0.347148 0.732227 L 0.335234 0.732227 L 0.331289 0.728281 L 0.319375 0.728281 L 0.315391 0.724297 L 0.311445 0.720313 L 0.295547 0.720313 L 0.291602 0.716367 L 0.283633 0.716367 L 0.283633 0.712383 L 0.279688 0.708398 L 0.267773 0.708398 L 0.267773 0.704453 L 0.263789 0.700469 L 0.259844 0.700469 L 0.255859 0.696523 L 0.251875 0.692539 L 0.24793 0.692539 L 0.243945 0.688555 L 0.239961 0.684609 L 0.236016 0.680625 L 0.232031 0.680625 L 0.228086 0.676641 L 0.224102 0.676641 L 0.220117 0.672695 L 0.212187 0.672695 L 0.208203 0.668711 L 0.204258 0.668711 L 0.200273 0.664766 L 0.196289 0.664766 L 0.196289 0.656797 L 0.192344 0.652852 L 0.188359 0.652852 L 0.184414 0.648867 L 0.18043 0.644883 L 0.176445 0.648867 L 0.1725 0.644883 L 0.168516 0.640937 L 0.164531 0.640937 L 0.164531 0.636953 L 0.160586 0.633008 L 0.152656 0.633008 L 0.144687 0.625039 L 0.132773 0.625039 L 0.128828 0.621094 L 0.120898 0.621094 L 0.116914 0.625039 L 0.11293 0.625039 L 0.105 0.617109 L 0.0970703 0.625039 L 0.0891406 0.625039 L 0.0851562 0.629023 L 0.0613281 0.629023 L 0.0573828 0.625039 L 0.0533984 0.625039 L 0.0494141 0.621094 L 0.0454688 0.617109 Z M 0.0454688 0.613125 " transform="matrix(100,0,0,100,600,350)"/>
</g>
</svg>
