<?xml version="1.0" encoding="UTF-8"?>
<svg xmlns="http://www.w3.org/2000/svg" xmlns:xlink="http://www.w3.org/1999/xlink" width="750pt" height="2800pt" viewBox="0 0 750 2800" version="1.1">
<g id="surface1">
<path style="fill:none;stroke-width:0.01;stroke-linecap:butt;stroke-linejoin:miter;stroke:rgb(0%,0%,0%);stroke-opacity:1;stroke-miterlimit:10;" d="M 0.0454688 0.560195 L 0.0496094 0.556055 L 0.05375 0.556055 L 0.0578906 0.551875 L 0.0703516 0.551875 L 0.0745313 0.547734 L 0.0911328 0.547734 L 0.0952734 0.551875 L 0.116016 0.551875 L 0.120156 0.547734 L 0.128477 0.547734 L 0.132617 0.543594 L 0.136797 0.539453 L 0.136797 0.535273 L 0.145078 0.526992 L 0.149219 0.526992 L 0.153398 0.522813 L 0.153398 0.518672 L 0.16168 0.510391 L 0.16582 0.506211 L 0.16168 0.50207 L 0.16582 0.50207 L 0.17 0.49793 L 0.17 0.477187 L 0.174141 0.473008 L 0.174141 0.460547 L 0.178281 0.456406 L 0.178281 0.452266 L 0.174141 0.448125 L 0.174141 0.443945 L 0.178281 0.439805 L 0.178281 0.435664 L 0.182422 0.431523 L 0.182422 0.423203 L 0.186602 0.423203 L 0.190742 0.419062 L 0.190742 0.414922 L 0.194883 0.414922 L 0.199063 0.410742 L 0.199063 0.406602 L 0.194883 0.402461 L 0.190742 0.398281 L 0.194883 0.394141 L 0.199063 0.39 L 0.203203 0.385859 L 0.207344 0.38168 L 0.207344 0.369258 L 0.211484 0.365078 L 0.215664 0.365078 L 0.219805 0.360937 L 0.223945 0.360937 L 0.232266 0.352617 L 0.228086 0.348477 L 0.232266 0.348477 L 0.236406 0.344336 L 0.240547 0.344336 L 0.244727 0.340195 L 0.248867 0.336016 L 0.248867 0.327734 L 0.253008 0.327734 L 0.261328 0.319414 L 0.261328 0.315273 L 0.265469 0.311133 L 0.27375 0.311133 L 0.27793 0.306992 L 0.28207 0.306992 L 0.286211 0.302812 L 0.294531 0.302812 L 0.298672 0.298672 L 0.298672 0.294531 L 0.319414 0.294531 L 0.327734 0.286211 L 0.327734 0.28207 L 0.336016 0.28207 L 0.340195 0.27793 L 0.344336 0.27793 L 0.348477 0.27375 L 0.348477 0.265469 L 0.352617 0.265469 L 0.356797 0.269609 L 0.360938 0.269609 L 0.365078 0.265469 L 0.377539 0.265469 L 0.385859 0.257148 L 0.385859 0.253008 L 0.394141 0.253008 L 0.398281 0.248867 L 0.402461 0.244727 L 0.410742 0.244727 L 0.414922 0.240547 L 0.419063 0.240547 L 0.427344 0.232266 L 0.443945 0.232266 L 0.452266 0.223945 L 0.452266 0.219805 L 0.456406 0.223945 L 0.464727 0.223945 L 0.468867 0.219805 L 0.468867 0.215664 L 0.489609 0.215664 L 0.493789 0.211484 L 0.50207 0.211484 L 0.506211 0.215664 L 0.510391 0.215664 L 0.514531 0.211484 L 0.522813 0.211484 L 0.526992 0.215664 L 0.531133 0.215664 L 0.535273 0.219805 L 0.539453 0.215664 L 0.543594 0.219805 L 0.551875 0.219805 L 0.556055 0.223945 L 0.568477 0.223945 L 0.572656 0.228086 L 0.576797 0.228086 L 0.580937 0.232266 L 0.585078 0.228086 L 0.589258 0.223945 L 0.593398 0.223945 L 0.597539 0.228086 L 0.601719 0.228086 L 0.605859 0.232266 L 0.61832 0.232266 L 0.622461 0.228086 L 0.622461 0.223945 L 0.626602 0.228086 L 0.630742 0.232266 L 0.643203 0.232266 L 0.647383 0.236406 L 0.651523 0.236406 L 0.655664 0.232266 L 0.655664 0.228086 L 0.659805 0.232266 L 0.663984 0.236406 L 0.668125 0.240547 L 0.672266 0.240547 L 0.676406 0.244727 L 0.680586 0.248867 L 0.693008 0.248867 L 0.697187 0.253008 L 0.701328 0.257148 L 0.705469 0.257148 L 0.709648 0.253008 L 0.709648 0.248867 L 0.71793 0.257148 L 0.72207 0.261328 L 0.72625 0.265469 L 0.730391 0.269609 L 0.734531 0.269609 L 0.734531 0.27375 L 0.738672 0.27793 L 0.742852 0.28207 L 0.746992 0.286211 L 0.751133 0.286211 L 0.751133 0.298672 L 0.755273 0.302812 L 0.763594 0.302812 L 0.763594 0.311133 L 0.767734 0.315273 L 0.767734 0.323594 L 0.771914 0.327734 L 0.780195 0.336016 L 0.780195 0.340195 L 0.784336 0.344336 L 0.784336 0.348477 L 0.788516 0.352617 L 0.792656 0.356797 L 0.792656 0.365078 L 0.796797 0.369258 L 0.796797 0.38168 L 0.800937 0.385859 L 0.800937 0.406602 L 0.796797 0.410742 L 0.800937 0.414922 L 0.796797 0.419062 L 0.796797 0.427344 L 0.792656 0.431523 L 0.792656 0.435664 L 0.788516 0.439805 L 0.784336 0.443945 L 0.784336 0.448125 L 0.776055 0.456406 L 0.776055 0.460547 L 0.771914 0.460547 L 0.767734 0.464727 L 0.767734 0.468867 L 0.763594 0.468867 L 0.738672 0.493789 L 0.742852 0.49793 L 0.746992 0.49793 L 0.751133 0.50207 L 0.755273 0.50207 L 0.759453 0.506211 L 0.763594 0.506211 L 0.767734 0.510391 L 0.776055 0.510391 L 0.784336 0.518672 L 0.796797 0.518672 L 0.800937 0.522813 L 0.805117 0.522813 L 0.809258 0.526992 L 0.813398 0.526992 L 0.817578 0.531133 L 0.825859 0.531133 L 0.83 0.535273 L 0.83418 0.535273 L 0.83832 0.539453 L 0.846602 0.539453 L 0.850781 0.543594 L 0.854922 0.543594 L 0.859063 0.547734 L 0.871523 0.547734 L 0.879844 0.556055 L 0.888125 0.556055 L 0.892266 0.560195 L 0.896445 0.560195 L 0.900586 0.564336 L 0.904727 0.564336 L 0.908867 0.568477 L 0.917188 0.568477 L 0.921328 0.572656 L 0.925469 0.572656 L 0.929648 0.576797 L 0.93793 0.576797 L 0.942109 0.580938 L 0.94625 0.580938 L 0.950391 0.585078 L 0.954531 0.589258 L 0.950391 0.593398 L 0.93793 0.593398 L 0.933789 0.589258 L 0.929648 0.589258 L 0.925469 0.585078 L 0.921328 0.585078 L 0.917188 0.580938 L 0.913047 0.580938 L 0.908867 0.576797 L 0.904727 0.576797 L 0.900586 0.572656 L 0.896445 0.572656 L 0.892266 0.568477 L 0.888125 0.568477 L 0.883984 0.564336 L 0.879844 0.564336 L 0.875664 0.560195 L 0.867383 0.560195 L 0.863203 0.556055 L 0.859063 0.551875 L 0.846602 0.551875 L 0.842461 0.547734 L 0.83832 0.547734 L 0.83418 0.543594 L 0.825859 0.543594 L 0.821719 0.539453 L 0.817578 0.539453 L 0.813398 0.535273 L 0.800937 0.535273 L 0.796797 0.531133 L 0.792656 0.531133 L 0.788516 0.526992 L 0.780195 0.526992 L 0.776055 0.522813 L 0.767734 0.522813 L 0.763594 0.518672 L 0.755273 0.518672 L 0.751133 0.514531 L 0.746992 0.514531 L 0.742852 0.518672 L 0.742852 0.547734 L 0.738672 0.551875 L 0.738672 0.568477 L 0.734531 0.572656 L 0.734531 0.576797 L 0.730391 0.580938 L 0.730391 0.589258 L 0.72625 0.593398 L 0.72625 0.597539 L 0.71793 0.605859 L 0.71793 0.614141 L 0.713789 0.61832 L 0.709648 0.622461 L 0.709648 0.626602 L 0.705469 0.630742 L 0.705469 0.634922 L 0.701328 0.639063 L 0.701328 0.643203 L 0.697187 0.647383 L 0.697187 0.651523 L 0.693008 0.655664 L 0.688867 0.659805 L 0.684727 0.663984 L 0.680586 0.668125 L 0.676406 0.672266 L 0.672266 0.676406 L 0.668125 0.680586 L 0.663984 0.684727 L 0.663984 0.688867 L 0.659805 0.693008 L 0.655664 0.697188 L 0.655664 0.701328 L 0.651523 0.705469 L 0.647383 0.709648 L 0.643203 0.713789 L 0.634922 0.72207 L 0.626602 0.72207 L 0.622461 0.72625 L 0.61832 0.730391 L 0.614141 0.734531 L 0.61 0.730391 L 0.593398 0.746992 L 0.589258 0.746992 L 0.585078 0.751133 L 0.580937 0.755273 L 0.576797 0.759453 L 0.572656 0.763594 L 0.568477 0.767734 L 0.560195 0.767734 L 0.556055 0.771914 L 0.551875 0.771914 L 0.547734 0.776055 L 0.543594 0.776055 L 0.539453 0.771914 L 0.535273 0.771914 L 0.526992 0.780195 L 0.522813 0.780195 L 0.518672 0.776055 L 0.514531 0.780195 L 0.506211 0.780195 L 0.50207 0.784336 L 0.50207 0.788516 L 0.49793 0.784336 L 0.493789 0.780195 L 0.489609 0.780195 L 0.485469 0.784336 L 0.473008 0.784336 L 0.468867 0.788516 L 0.464727 0.788516 L 0.460547 0.784336 L 0.452266 0.784336 L 0.448125 0.788516 L 0.439805 0.788516 L 0.435664 0.784336 L 0.427344 0.784336 L 0.423203 0.788516 L 0.419063 0.784336 L 0.414922 0.780195 L 0.410742 0.784336 L 0.406602 0.784336 L 0.402461 0.788516 L 0.402461 0.784336 L 0.398281 0.780195 L 0.394141 0.780195 L 0.39 0.776055 L 0.385859 0.776055 L 0.38168 0.780195 L 0.373398 0.780195 L 0.373398 0.771914 L 0.369258 0.767734 L 0.365078 0.763594 L 0.356797 0.763594 L 0.352617 0.767734 L 0.352617 0.759453 L 0.348477 0.755273 L 0.344336 0.751133 L 0.336016 0.751133 L 0.336016 0.746992 L 0.331875 0.742852 L 0.327734 0.746992 L 0.311133 0.746992 L 0.311133 0.738672 L 0.306992 0.734531 L 0.302812 0.738672 L 0.294531 0.730391 L 0.290352 0.730391 L 0.286211 0.72625 L 0.286211 0.71793 L 0.28207 0.713789 L 0.269609 0.713789 L 0.269609 0.709648 L 0.265469 0.705469 L 0.261328 0.705469 L 0.257148 0.701328 L 0.253008 0.705469 L 0.248867 0.701328 L 0.248867 0.697188 L 0.244727 0.693008 L 0.240547 0.693008 L 0.236406 0.688867 L 0.228086 0.688867 L 0.228086 0.676406 L 0.223945 0.672266 L 0.219805 0.672266 L 0.219805 0.663984 L 0.215664 0.659805 L 0.211484 0.655664 L 0.203203 0.655664 L 0.203203 0.651523 L 0.207344 0.647383 L 0.203203 0.643203 L 0.199063 0.639063 L 0.182422 0.639063 L 0.182422 0.634922 L 0.178281 0.630742 L 0.17 0.622461 L 0.16582 0.61832 L 0.16168 0.614141 L 0.153398 0.605859 L 0.149219 0.601719 L 0.145078 0.601719 L 0.140937 0.597539 L 0.136797 0.593398 L 0.132617 0.593398 L 0.132617 0.589258 L 0.128477 0.585078 L 0.120156 0.585078 L 0.120156 0.580938 L 0.116016 0.576797 L 0.103555 0.576797 L 0.0994141 0.572656 L 0.0952734 0.572656 L 0.0911328 0.568477 L 0.0828125 0.568477 L 0.0786719 0.564336 L 0.0454688 0.564336 Z M 0.0454688 0.560195 " transform="matrix(100,0,0,100,0,200)"/>
<path style="fill:none;stroke-width:0.01;stroke-linecap:butt;stroke-linejoin:miter;stroke:rgb(0%,0%,0%);stroke-opacity:1;stroke-miterlimit:10;" d="M 0.0454687 0.527227 L 0.104102 0.527227 L 0.108281 0.523047 L 0.1125 0.518867 L 0.11668 0.514648 L 0.120859 0.510469 L 0.125039 0.510469 L 0.129258 0.506289 L 0.133438 0.502109 L 0.137617 0.497891 L 0.141797 0.497891 L 0.146016 0.493711 L 0.150195 0.493711 L 0.154375 0.489531 L 0.158555 0.489531 L 0.162773 0.485352 L 0.162773 0.481133 L 0.166953 0.481133 L 0.171133 0.476953 L 0.171133 0.464375 L 0.175312 0.468594 L 0.183711 0.460195 L 0.183711 0.456016 L 0.187891 0.456016 L 0.196289 0.447617 L 0.19207 0.443437 L 0.19207 0.435078 L 0.196289 0.435078 L 0.200469 0.430859 L 0.208828 0.4225 L 0.208828 0.41832 L 0.213047 0.41832 L 0.217227 0.414102 L 0.221406 0.409922 L 0.221406 0.405742 L 0.217227 0.401563 L 0.221406 0.397344 L 0.225586 0.397344 L 0.229805 0.393164 L 0.233984 0.388984 L 0.233984 0.384805 L 0.242344 0.384805 L 0.246563 0.380586 L 0.246563 0.376406 L 0.242344 0.372227 L 0.246563 0.372227 L 0.250742 0.368047 L 0.254922 0.368047 L 0.259102 0.363828 L 0.26332 0.359648 L 0.26332 0.355469 L 0.259102 0.351289 L 0.2675 0.351289 L 0.27168 0.34707 L 0.275859 0.342891 L 0.275859 0.338711 L 0.288438 0.338711 L 0.292617 0.334531 L 0.296797 0.330313 L 0.296797 0.326133 L 0.301016 0.326133 L 0.305195 0.321953 L 0.313555 0.321953 L 0.317773 0.317773 L 0.317773 0.301016 L 0.326133 0.309375 L 0.338711 0.309375 L 0.34707 0.301016 L 0.34707 0.296797 L 0.351289 0.301016 L 0.363828 0.301016 L 0.368047 0.296797 L 0.372227 0.301016 L 0.380586 0.301016 L 0.384805 0.296797 L 0.397344 0.296797 L 0.401563 0.301016 L 0.405742 0.296797 L 0.409922 0.292617 L 0.430859 0.292617 L 0.435078 0.288438 L 0.435078 0.284258 L 0.439258 0.288438 L 0.456016 0.288438 L 0.460195 0.284258 L 0.464375 0.284258 L 0.468594 0.280078 L 0.472773 0.275859 L 0.476953 0.280078 L 0.493711 0.280078 L 0.497891 0.284258 L 0.502109 0.280078 L 0.506289 0.280078 L 0.510469 0.284258 L 0.518867 0.284258 L 0.523047 0.288438 L 0.527227 0.288438 L 0.531406 0.284258 L 0.535625 0.284258 L 0.539805 0.288438 L 0.543984 0.288438 L 0.548164 0.292617 L 0.552383 0.292617 L 0.556563 0.296797 L 0.560742 0.292617 L 0.564922 0.292617 L 0.569141 0.296797 L 0.57332 0.301016 L 0.5775 0.301016 L 0.58168 0.305195 L 0.585898 0.305195 L 0.590078 0.301016 L 0.594258 0.301016 L 0.598438 0.305195 L 0.602656 0.309375 L 0.606836 0.313555 L 0.611016 0.313555 L 0.615195 0.317773 L 0.619414 0.321953 L 0.627773 0.330313 L 0.631953 0.334531 L 0.636172 0.338711 L 0.640352 0.342891 L 0.648711 0.342891 L 0.65293 0.34707 L 0.657109 0.351289 L 0.657109 0.355469 L 0.665469 0.363828 L 0.665469 0.368047 L 0.669688 0.372227 L 0.673867 0.376406 L 0.673867 0.380586 L 0.678047 0.384805 L 0.682227 0.388984 L 0.686445 0.393164 L 0.686445 0.397344 L 0.690625 0.401563 L 0.694805 0.405742 L 0.694805 0.409922 L 0.698984 0.414102 L 0.698984 0.41832 L 0.703203 0.4225 L 0.707383 0.42668 L 0.707383 0.430859 L 0.711562 0.435078 L 0.711562 0.443437 L 0.715742 0.447617 L 0.715742 0.451836 L 0.719922 0.456016 L 0.7325 0.456016 L 0.73668 0.460195 L 0.766016 0.460195 L 0.770195 0.464375 L 0.803711 0.464375 L 0.80793 0.468594 L 0.820469 0.468594 L 0.824688 0.464375 L 0.828867 0.468594 L 0.862383 0.468594 L 0.866563 0.472773 L 0.921016 0.472773 L 0.925234 0.476953 L 0.941992 0.476953 L 0.946172 0.472773 L 0.950352 0.472773 L 0.954531 0.476953 L 0.950352 0.481133 L 0.946172 0.485352 L 0.929414 0.485352 L 0.925234 0.481133 L 0.891719 0.481133 L 0.8875 0.476953 L 0.853984 0.476953 L 0.849805 0.472773 L 0.791172 0.472773 L 0.786953 0.468594 L 0.73668 0.468594 L 0.7325 0.472773 L 0.7325 0.476953 L 0.73668 0.481133 L 0.73668 0.485352 L 0.740898 0.489531 L 0.749258 0.497891 L 0.753437 0.497891 L 0.761836 0.506289 L 0.761836 0.510469 L 0.766016 0.514648 L 0.766016 0.527227 L 0.770195 0.531406 L 0.770195 0.535625 L 0.766016 0.539805 L 0.766016 0.564922 L 0.761836 0.564922 L 0.757656 0.569141 L 0.757656 0.5775 L 0.753437 0.58168 L 0.753437 0.590078 L 0.745078 0.598438 L 0.745078 0.602656 L 0.740898 0.606836 L 0.740898 0.615195 L 0.73668 0.615195 L 0.7325 0.619414 L 0.7325 0.623594 L 0.72832 0.627773 L 0.72832 0.636172 L 0.724141 0.640352 L 0.719922 0.644531 L 0.715742 0.648711 L 0.715742 0.65293 L 0.711562 0.657109 L 0.711562 0.661289 L 0.703203 0.661289 L 0.698984 0.665469 L 0.698984 0.669688 L 0.694805 0.673867 L 0.694805 0.678047 L 0.690625 0.678047 L 0.686445 0.682227 L 0.682227 0.682227 L 0.678047 0.686445 L 0.669688 0.694805 L 0.665469 0.690625 L 0.661289 0.690625 L 0.648711 0.703203 L 0.648711 0.707383 L 0.644531 0.703203 L 0.640352 0.698984 L 0.636172 0.703203 L 0.631953 0.707383 L 0.619414 0.707383 L 0.615195 0.711562 L 0.606836 0.703203 L 0.602656 0.703203 L 0.598438 0.707383 L 0.585898 0.707383 L 0.58168 0.711562 L 0.5775 0.711562 L 0.57332 0.715742 L 0.569141 0.711562 L 0.564922 0.707383 L 0.560742 0.711562 L 0.539805 0.711562 L 0.535625 0.715742 L 0.531406 0.715742 L 0.531406 0.711562 L 0.527227 0.707383 L 0.523047 0.711562 L 0.514648 0.711562 L 0.510469 0.715742 L 0.502109 0.715742 L 0.497891 0.719922 L 0.497891 0.724141 L 0.493711 0.719922 L 0.489531 0.715742 L 0.485352 0.715742 L 0.481133 0.719922 L 0.472773 0.719922 L 0.468594 0.724141 L 0.468594 0.719922 L 0.464375 0.715742 L 0.460195 0.715742 L 0.456016 0.719922 L 0.451836 0.719922 L 0.447617 0.724141 L 0.443438 0.719922 L 0.439258 0.715742 L 0.435078 0.715742 L 0.430859 0.719922 L 0.401563 0.719922 L 0.397344 0.715742 L 0.380586 0.715742 L 0.376406 0.711562 L 0.351289 0.711562 L 0.34707 0.707383 L 0.334531 0.707383 L 0.334531 0.703203 L 0.330313 0.698984 L 0.326133 0.698984 L 0.321953 0.703203 L 0.313555 0.703203 L 0.309375 0.698984 L 0.305195 0.694805 L 0.288438 0.694805 L 0.292617 0.690625 L 0.292617 0.686445 L 0.288438 0.682227 L 0.275859 0.682227 L 0.275859 0.678047 L 0.27168 0.673867 L 0.2675 0.673867 L 0.26332 0.669688 L 0.254922 0.669688 L 0.250742 0.665469 L 0.246563 0.661289 L 0.242344 0.661289 L 0.242344 0.65293 L 0.238164 0.648711 L 0.233984 0.648711 L 0.229805 0.644531 L 0.225586 0.640352 L 0.221406 0.640352 L 0.217227 0.636172 L 0.208828 0.636172 L 0.208828 0.627773 L 0.200469 0.619414 L 0.19207 0.619414 L 0.187891 0.615195 L 0.183711 0.615195 L 0.187891 0.611016 L 0.183711 0.606836 L 0.175312 0.606836 L 0.171133 0.602656 L 0.166953 0.602656 L 0.162773 0.598438 L 0.158555 0.594258 L 0.154375 0.590078 L 0.150195 0.590078 L 0.137617 0.5775 L 0.133438 0.5775 L 0.137617 0.57332 L 0.133438 0.569141 L 0.129258 0.564922 L 0.11668 0.564922 L 0.11668 0.560742 L 0.1125 0.556563 L 0.108281 0.560742 L 0.108281 0.552383 L 0.104102 0.548164 L 0.0915234 0.548164 L 0.0873438 0.543984 L 0.0789844 0.543984 L 0.0747656 0.539805 L 0.0622266 0.539805 L 0.0580078 0.535625 L 0.0496484 0.535625 L 0.0496484 0.531406 Z M 0.0454687 0.527227 " transform="matrix(100,0,0,100,150,200)"/>
<path style="fill:none;stroke-width:0.01;stroke-linecap:butt;stroke-linejoin:miter;stroke:rgb(0%,0%,0%);stroke-opacity:1;stroke-miterlimit:10;" d="M 0.0454687 0.497852 L 0.0497266 0.497852 L 0.0539844 0.493594 L 0.0539844 0.485078 L 0.0497266 0.480781 L 0.0582422 0.472266 L 0.0625391 0.468008 L 0.0710547 0.468008 L 0.0753125 0.463711 L 0.0796094 0.468008 L 0.0838672 0.463711 L 0.0838672 0.455195 L 0.0796094 0.450898 L 0.0796094 0.446641 L 0.0838672 0.442383 L 0.0838672 0.425312 L 0.100938 0.408242 L 0.0966797 0.403984 L 0.0966797 0.399688 L 0.105195 0.391172 L 0.109492 0.386914 L 0.11375 0.382617 L 0.122266 0.374102 L 0.122266 0.369844 L 0.118008 0.365547 L 0.122266 0.361289 L 0.126562 0.357031 L 0.13082 0.352734 L 0.135078 0.352734 L 0.139336 0.348477 L 0.135078 0.344219 L 0.135078 0.335664 L 0.139336 0.335664 L 0.143633 0.331406 L 0.147891 0.331406 L 0.160703 0.318594 L 0.164961 0.318594 L 0.169219 0.314336 L 0.169219 0.310078 L 0.173477 0.310078 L 0.177773 0.30582 L 0.182031 0.30582 L 0.186289 0.301523 L 0.186289 0.297266 L 0.190586 0.293008 L 0.203359 0.293008 L 0.207656 0.28875 L 0.211914 0.284453 L 0.207656 0.280195 L 0.207656 0.275937 L 0.216172 0.275937 L 0.22043 0.27168 L 0.228984 0.27168 L 0.233242 0.267383 L 0.2375 0.263125 L 0.250313 0.263125 L 0.258867 0.25457 L 0.275937 0.25457 L 0.280195 0.250313 L 0.297266 0.250313 L 0.301523 0.246055 L 0.322891 0.246055 L 0.327148 0.241797 L 0.331406 0.2375 L 0.335664 0.233242 L 0.352734 0.233242 L 0.357031 0.228984 L 0.361289 0.224727 L 0.365547 0.22043 L 0.391172 0.22043 L 0.39543 0.216172 L 0.39543 0.211914 L 0.403984 0.203359 L 0.408242 0.203359 L 0.4125 0.207656 L 0.416758 0.203359 L 0.425312 0.203359 L 0.42957 0.199102 L 0.42957 0.194844 L 0.455195 0.194844 L 0.459453 0.190586 L 0.459453 0.186289 L 0.463711 0.182031 L 0.493594 0.182031 L 0.497852 0.177773 L 0.497852 0.173477 L 0.514922 0.173477 L 0.519219 0.177773 L 0.527734 0.177773 L 0.531992 0.173477 L 0.531992 0.169219 L 0.540547 0.169219 L 0.544805 0.173477 L 0.553359 0.173477 L 0.557617 0.177773 L 0.574688 0.177773 L 0.578945 0.182031 L 0.583242 0.182031 L 0.5875 0.186289 L 0.600313 0.186289 L 0.60457 0.190586 L 0.613086 0.199102 L 0.617383 0.199102 L 0.621641 0.194844 L 0.625898 0.194844 L 0.630156 0.199102 L 0.634453 0.203359 L 0.638711 0.207656 L 0.642969 0.207656 L 0.647266 0.203359 L 0.647266 0.199102 L 0.651523 0.203359 L 0.655781 0.207656 L 0.660039 0.211914 L 0.664336 0.216172 L 0.668594 0.22043 L 0.672852 0.224727 L 0.677109 0.224727 L 0.685664 0.216172 L 0.689922 0.216172 L 0.689922 0.224727 L 0.69418 0.228984 L 0.698477 0.233242 L 0.702734 0.2375 L 0.706992 0.241797 L 0.71125 0.2375 L 0.715547 0.2375 L 0.719805 0.241797 L 0.719805 0.246055 L 0.72832 0.25457 L 0.72832 0.258867 L 0.732617 0.263125 L 0.732617 0.267383 L 0.736875 0.27168 L 0.74543 0.27168 L 0.74543 0.284453 L 0.749688 0.28875 L 0.753945 0.28875 L 0.758203 0.284453 L 0.758203 0.293008 L 0.7625 0.297266 L 0.766758 0.301523 L 0.771016 0.30582 L 0.775273 0.310078 L 0.77957 0.314336 L 0.783828 0.318594 L 0.783828 0.331406 L 0.788086 0.335664 L 0.792344 0.335664 L 0.792344 0.344219 L 0.796641 0.348477 L 0.796641 0.361289 L 0.800898 0.365547 L 0.805156 0.369844 L 0.805156 0.386914 L 0.800898 0.391172 L 0.809414 0.399688 L 0.809414 0.421055 L 0.805156 0.425312 L 0.805156 0.42957 L 0.800898 0.433828 L 0.800898 0.438125 L 0.796641 0.442383 L 0.796641 0.446641 L 0.792344 0.450898 L 0.792344 0.455195 L 0.783828 0.463711 L 0.77957 0.468008 L 0.775273 0.468008 L 0.7625 0.480781 L 0.758203 0.480781 L 0.753945 0.485078 L 0.74543 0.493594 L 0.741133 0.493594 L 0.736875 0.497852 L 0.741133 0.502148 L 0.74543 0.506406 L 0.753945 0.514922 L 0.758203 0.519219 L 0.7625 0.519219 L 0.783828 0.540547 L 0.788086 0.540547 L 0.796641 0.549102 L 0.800898 0.549102 L 0.809414 0.557617 L 0.813711 0.557617 L 0.817969 0.561875 L 0.822227 0.566172 L 0.826523 0.57043 L 0.830781 0.57043 L 0.847852 0.5875 L 0.852109 0.5875 L 0.856367 0.591758 L 0.860664 0.596016 L 0.864922 0.600313 L 0.86918 0.600313 L 0.873438 0.60457 L 0.877734 0.608828 L 0.881992 0.613086 L 0.88625 0.613086 L 0.890508 0.617383 L 0.894805 0.621641 L 0.899062 0.625898 L 0.90332 0.625898 L 0.907578 0.630156 L 0.911875 0.630156 L 0.916133 0.634453 L 0.920391 0.638711 L 0.928945 0.638711 L 0.933203 0.642969 L 0.950273 0.642969 L 0.954531 0.647266 L 0.954531 0.660039 L 0.950273 0.664336 L 0.928945 0.664336 L 0.924688 0.660039 L 0.920391 0.660039 L 0.916133 0.655781 L 0.911875 0.655781 L 0.911875 0.651523 L 0.907578 0.647266 L 0.90332 0.647266 L 0.899062 0.642969 L 0.894805 0.638711 L 0.890508 0.634453 L 0.88625 0.630156 L 0.881992 0.625898 L 0.877734 0.625898 L 0.873438 0.621641 L 0.86918 0.617383 L 0.864922 0.613086 L 0.860664 0.613086 L 0.856367 0.608828 L 0.847852 0.600313 L 0.843594 0.596016 L 0.839297 0.596016 L 0.826523 0.583242 L 0.822227 0.583242 L 0.817969 0.578945 L 0.813711 0.574688 L 0.809414 0.574688 L 0.800898 0.566172 L 0.796641 0.561875 L 0.792344 0.557617 L 0.788086 0.557617 L 0.77957 0.549102 L 0.775273 0.549102 L 0.771016 0.544805 L 0.766758 0.540547 L 0.7625 0.540547 L 0.758203 0.536289 L 0.753945 0.536289 L 0.749688 0.531992 L 0.74543 0.536289 L 0.74543 0.553359 L 0.741133 0.557617 L 0.741133 0.5875 L 0.736875 0.591758 L 0.736875 0.600313 L 0.732617 0.60457 L 0.732617 0.621641 L 0.72832 0.625898 L 0.724063 0.630156 L 0.724063 0.638711 L 0.719805 0.642969 L 0.719805 0.651523 L 0.715547 0.655781 L 0.715547 0.668594 L 0.71125 0.672852 L 0.71125 0.681406 L 0.706992 0.685664 L 0.706992 0.689922 L 0.702734 0.69418 L 0.702734 0.698477 L 0.698477 0.702734 L 0.698477 0.71125 L 0.689922 0.719805 L 0.689922 0.724063 L 0.685664 0.72832 L 0.685664 0.732617 L 0.681406 0.736875 L 0.677109 0.741133 L 0.672852 0.74543 L 0.672852 0.749687 L 0.668594 0.753945 L 0.668594 0.758203 L 0.664336 0.758203 L 0.660039 0.753945 L 0.655781 0.753945 L 0.651523 0.758203 L 0.647266 0.7625 L 0.642969 0.766758 L 0.638711 0.771016 L 0.630156 0.771016 L 0.625898 0.775273 L 0.625898 0.77957 L 0.621641 0.77957 L 0.617383 0.783828 L 0.617383 0.788086 L 0.608828 0.788086 L 0.60457 0.792344 L 0.600313 0.796641 L 0.596016 0.800898 L 0.591758 0.805156 L 0.5875 0.805156 L 0.583242 0.809414 L 0.578945 0.809414 L 0.574688 0.813711 L 0.57043 0.817969 L 0.566172 0.817969 L 0.561875 0.813711 L 0.557617 0.809414 L 0.553359 0.809414 L 0.549102 0.813711 L 0.544805 0.813711 L 0.540547 0.817969 L 0.531992 0.817969 L 0.527734 0.822227 L 0.519219 0.822227 L 0.514922 0.826523 L 0.506406 0.826523 L 0.502148 0.830781 L 0.497852 0.830781 L 0.497852 0.822227 L 0.493594 0.817969 L 0.489336 0.822227 L 0.476523 0.822227 L 0.472266 0.826523 L 0.463711 0.826523 L 0.459453 0.830781 L 0.455195 0.830781 L 0.455195 0.822227 L 0.450898 0.817969 L 0.442383 0.817969 L 0.438125 0.822227 L 0.433828 0.822227 L 0.42957 0.826523 L 0.421055 0.826523 L 0.416758 0.830781 L 0.4125 0.830781 L 0.4125 0.822227 L 0.408242 0.817969 L 0.399688 0.817969 L 0.39543 0.822227 L 0.382617 0.822227 L 0.378359 0.826523 L 0.378359 0.822227 L 0.374102 0.817969 L 0.352734 0.817969 L 0.348477 0.822227 L 0.348477 0.817969 L 0.344219 0.813711 L 0.327148 0.813711 L 0.327148 0.809414 L 0.322891 0.805156 L 0.318594 0.800898 L 0.30582 0.800898 L 0.301523 0.796641 L 0.28875 0.796641 L 0.28875 0.783828 L 0.284453 0.77957 L 0.280195 0.77957 L 0.275937 0.775273 L 0.263125 0.775273 L 0.263125 0.766758 L 0.258867 0.7625 L 0.246055 0.7625 L 0.241797 0.758203 L 0.216172 0.758203 L 0.216172 0.753945 L 0.211914 0.749687 L 0.199102 0.749687 L 0.194844 0.74543 L 0.190586 0.74543 L 0.186289 0.741133 L 0.173477 0.741133 L 0.169219 0.736875 L 0.164961 0.736875 L 0.169219 0.732617 L 0.169219 0.72832 L 0.160703 0.719805 L 0.152148 0.719805 L 0.147891 0.715547 L 0.147891 0.71125 L 0.143633 0.706992 L 0.139336 0.702734 L 0.135078 0.698477 L 0.13082 0.69418 L 0.126562 0.689922 L 0.122266 0.685664 L 0.118008 0.685664 L 0.122266 0.681406 L 0.122266 0.668594 L 0.118008 0.664336 L 0.11375 0.664336 L 0.109492 0.660039 L 0.105195 0.655781 L 0.100938 0.655781 L 0.088125 0.642969 L 0.088125 0.638711 L 0.0924219 0.634453 L 0.0924219 0.630156 L 0.088125 0.625898 L 0.0838672 0.621641 L 0.0838672 0.617383 L 0.0796094 0.613086 L 0.0796094 0.600313 L 0.0838672 0.596016 L 0.0838672 0.591758 L 0.0796094 0.5875 L 0.0753125 0.583242 L 0.0710547 0.578945 L 0.0667969 0.574688 L 0.0582422 0.574688 L 0.0582422 0.566172 L 0.0539844 0.561875 L 0.0497266 0.557617 L 0.0497266 0.540547 L 0.0539844 0.536289 L 0.0582422 0.531992 L 0.0625391 0.527734 L 0.0710547 0.519219 L 0.0667969 0.514922 L 0.0582422 0.514922 L 0.0497266 0.506406 L 0.0454687 0.506406 L 0.0454687 0.502148 Z M 0.0454687 0.497852 " transform="matrix(100,0,0,100,300,200)"/>
<path style="fill:none;stroke-width:0.01;stroke-linecap:butt;stroke-linejoin:miter;stroke:rgb(0%,0%,0%);stroke-opacity:1;stroke-miterlimit:10;" d="M 0.0454688 0.729648 L 0.0501953 0.724922 L 0.0501953 0.720156 L 0.0596484 0.710703 L 0.0596484 0.705977 L 0.0691406 0.696484 L 0.0691406 0.687031 L 0.0738672 0.687031 L 0.0785938 0.682305 L 0.0785938 0.677539 L 0.0833203 0.672813 L 0.0880859 0.668086 L 0.0880859 0.663359 L 0.0928125 0.658633 L 0.0975391 0.653867 L 0.102266 0.649141 L 0.102266 0.630195 L 0.106992 0.625469 L 0.106992 0.61125 L 0.111758 0.61125 L 0.116484 0.606523 L 0.116484 0.592344 L 0.121211 0.587578 L 0.125938 0.582852 L 0.125938 0.573398 L 0.121211 0.568672 L 0.116484 0.568672 L 0.116484 0.554453 L 0.121211 0.549727 L 0.121211 0.521289 L 0.116484 0.516563 L 0.125938 0.507109 L 0.125938 0.497617 L 0.130664 0.492891 L 0.13543 0.488164 L 0.13543 0.469219 L 0.140156 0.464492 L 0.140156 0.455 L 0.144883 0.450273 L 0.144883 0.44082 L 0.154375 0.431328 L 0.154375 0.426602 L 0.149609 0.421875 L 0.140156 0.412422 L 0.144883 0.412422 L 0.149609 0.407656 L 0.154375 0.40293 L 0.154375 0.383984 L 0.159102 0.379258 L 0.159102 0.374531 L 0.163828 0.374531 L 0.168555 0.369805 L 0.173281 0.365039 L 0.168555 0.360313 L 0.168555 0.355586 L 0.173281 0.350859 L 0.178047 0.346133 L 0.182773 0.341367 L 0.192227 0.331914 L 0.1875 0.327187 L 0.1875 0.322461 L 0.192227 0.317695 L 0.196953 0.312969 L 0.206445 0.312969 L 0.215898 0.303516 L 0.215898 0.294023 L 0.211172 0.289297 L 0.211172 0.279844 L 0.215898 0.275078 L 0.220625 0.270352 L 0.225391 0.265625 L 0.230117 0.265625 L 0.234844 0.260898 L 0.244336 0.260898 L 0.249062 0.256172 L 0.249062 0.251406 L 0.253789 0.24668 L 0.253789 0.241953 L 0.249062 0.237227 L 0.249062 0.2325 L 0.253789 0.227734 L 0.258516 0.227734 L 0.263242 0.223008 L 0.268008 0.218281 L 0.272734 0.218281 L 0.277461 0.213555 L 0.282188 0.208789 L 0.286914 0.204063 L 0.29168 0.199336 L 0.305859 0.199336 L 0.310625 0.194609 L 0.315352 0.189883 L 0.324805 0.189883 L 0.329531 0.185117 L 0.329531 0.180391 L 0.324805 0.175664 L 0.324805 0.170937 L 0.320078 0.166211 L 0.334297 0.166211 L 0.339023 0.161445 L 0.34375 0.161445 L 0.348477 0.156719 L 0.348477 0.151992 L 0.357969 0.1425 L 0.367422 0.1425 L 0.376875 0.133047 L 0.381641 0.12832 L 0.381641 0.123594 L 0.414766 0.123594 L 0.419492 0.118828 L 0.419492 0.109375 L 0.438438 0.109375 L 0.443164 0.104648 L 0.457383 0.104648 L 0.466875 0.0951563 L 0.466875 0.0857031 L 0.504727 0.0857031 L 0.509453 0.0809766 L 0.509453 0.07625 L 0.514219 0.0714844 L 0.518945 0.0714844 L 0.523672 0.07625 L 0.547344 0.07625 L 0.55207 0.0714844 L 0.55207 0.0667578 L 0.556836 0.0667578 L 0.561562 0.0714844 L 0.585234 0.0714844 L 0.589961 0.07625 L 0.618359 0.07625 L 0.623125 0.0809766 L 0.627852 0.0857031 L 0.632578 0.0857031 L 0.642031 0.0951563 L 0.646797 0.0951563 L 0.651523 0.0904297 L 0.65625 0.0951563 L 0.660977 0.0951563 L 0.665703 0.0999219 L 0.670469 0.104648 L 0.684648 0.118828 L 0.684648 0.123594 L 0.689375 0.12832 L 0.694141 0.12832 L 0.698867 0.123594 L 0.703594 0.123594 L 0.70832 0.12832 L 0.713086 0.133047 L 0.722539 0.1425 L 0.727266 0.147266 L 0.727266 0.156719 L 0.731992 0.161445 L 0.736758 0.161445 L 0.746211 0.151992 L 0.746211 0.161445 L 0.750938 0.166211 L 0.750938 0.170937 L 0.755664 0.175664 L 0.76043 0.180391 L 0.76043 0.185117 L 0.765156 0.189883 L 0.765156 0.204063 L 0.769883 0.208789 L 0.769883 0.218281 L 0.774609 0.223008 L 0.779375 0.223008 L 0.779375 0.24668 L 0.784102 0.251406 L 0.784102 0.279844 L 0.788828 0.28457 L 0.788828 0.331914 L 0.784102 0.336641 L 0.784102 0.350859 L 0.779375 0.355586 L 0.779375 0.365039 L 0.774609 0.365039 L 0.769883 0.369805 L 0.769883 0.379258 L 0.765156 0.383984 L 0.765156 0.38875 L 0.769883 0.393477 L 0.788828 0.393477 L 0.798281 0.40293 L 0.8125 0.40293 L 0.817227 0.407656 L 0.821953 0.407656 L 0.840898 0.426602 L 0.845625 0.426602 L 0.850391 0.431328 L 0.855117 0.436094 L 0.86457 0.445547 L 0.86457 0.450273 L 0.869336 0.455 L 0.874062 0.459766 L 0.888242 0.473945 L 0.888242 0.478711 L 0.893008 0.483437 L 0.893008 0.492891 L 0.897734 0.497617 L 0.897734 0.521289 L 0.902461 0.526055 L 0.911914 0.535508 L 0.91668 0.540234 L 0.921406 0.540234 L 0.926133 0.545 L 0.935625 0.545 L 0.940352 0.540234 L 0.949805 0.540234 L 0.954531 0.545 L 0.954531 0.55918 L 0.949805 0.563906 L 0.949805 0.568672 L 0.911914 0.568672 L 0.907188 0.573398 L 0.902461 0.573398 L 0.897734 0.578125 L 0.907188 0.587578 L 0.907188 0.658633 L 0.897734 0.668086 L 0.897734 0.70125 L 0.893008 0.705977 L 0.893008 0.710703 L 0.888242 0.71543 L 0.888242 0.748594 L 0.883516 0.75332 L 0.878789 0.75332 L 0.874062 0.758047 L 0.874062 0.762773 L 0.86457 0.772266 L 0.86457 0.776992 L 0.855117 0.786445 L 0.850391 0.791211 L 0.845625 0.795937 L 0.845625 0.805391 L 0.840898 0.810117 L 0.836172 0.814883 L 0.831445 0.819609 L 0.826719 0.819609 L 0.826719 0.814883 L 0.821953 0.810117 L 0.817227 0.814883 L 0.817227 0.819609 L 0.803047 0.833789 L 0.803047 0.838555 L 0.798281 0.843281 L 0.788828 0.852734 L 0.784102 0.852734 L 0.779375 0.8575 L 0.774609 0.862227 L 0.765156 0.87168 L 0.765156 0.876406 L 0.755664 0.876406 L 0.755664 0.87168 L 0.750938 0.866953 L 0.746211 0.866953 L 0.741484 0.87168 L 0.736758 0.87168 L 0.731992 0.876406 L 0.727266 0.881172 L 0.727266 0.885898 L 0.722539 0.890625 L 0.717812 0.890625 L 0.713086 0.895352 L 0.713086 0.890625 L 0.70832 0.885898 L 0.698867 0.885898 L 0.694141 0.890625 L 0.689375 0.895352 L 0.684648 0.895352 L 0.679922 0.900078 L 0.675195 0.904844 L 0.65625 0.904844 L 0.646797 0.914297 L 0.627852 0.914297 L 0.623125 0.90957 L 0.618359 0.914297 L 0.613633 0.914297 L 0.60418 0.92375 L 0.599414 0.92375 L 0.594688 0.928516 L 0.585234 0.928516 L 0.585234 0.919023 L 0.580508 0.914297 L 0.575742 0.90957 L 0.571016 0.914297 L 0.55207 0.914297 L 0.542617 0.92375 L 0.523672 0.92375 L 0.518945 0.928516 L 0.509453 0.928516 L 0.504727 0.933242 L 0.504727 0.928516 L 0.5 0.92375 L 0.495273 0.919023 L 0.495273 0.914297 L 0.490547 0.90957 L 0.485781 0.90957 L 0.481055 0.914297 L 0.428984 0.914297 L 0.424258 0.919023 L 0.419492 0.92375 L 0.424258 0.919023 L 0.428984 0.914297 L 0.428984 0.900078 L 0.424258 0.895352 L 0.419492 0.890625 L 0.372148 0.890625 L 0.367422 0.895352 L 0.362695 0.895352 L 0.362695 0.87168 L 0.357969 0.866953 L 0.334297 0.866953 L 0.329531 0.862227 L 0.324805 0.8575 L 0.305859 0.8575 L 0.301133 0.852734 L 0.301133 0.838555 L 0.296406 0.833789 L 0.286914 0.833789 L 0.282188 0.829063 L 0.277461 0.829063 L 0.268008 0.819609 L 0.263242 0.814883 L 0.249062 0.814883 L 0.249062 0.786445 L 0.244336 0.781719 L 0.234844 0.781719 L 0.230117 0.776992 L 0.225391 0.776992 L 0.220625 0.772266 L 0.215898 0.7675 L 0.211172 0.762773 L 0.206445 0.762773 L 0.206445 0.743828 L 0.201719 0.739102 L 0.192227 0.739102 L 0.173281 0.720156 L 0.13543 0.720156 L 0.130664 0.71543 L 0.125938 0.71543 L 0.116484 0.705977 L 0.102266 0.705977 L 0.0975391 0.710703 L 0.0975391 0.71543 L 0.0833203 0.71543 L 0.0785938 0.720156 L 0.064375 0.720156 L 0.0596484 0.724922 L 0.0501953 0.724922 Z M 0.0454688 0.729648 " transform="matrix(100,0,0,100,450,200)"/>
<path style="fill:none;stroke-width:0.01;stroke-linecap:butt;stroke-linejoin:miter;stroke:rgb(0%,0%,0%);stroke-opacity:1;stroke-miterlimit:10;" d="M 0.0454688 0.246992 L 0.0499219 0.2425 L 0.0544141 0.238008 L 0.0589062 0.233555 L 0.0633594 0.233555 L 0.0678516 0.229062 L 0.0857422 0.229062 L 0.0902344 0.22457 L 0.0947266 0.229062 L 0.126055 0.229062 L 0.130547 0.22457 L 0.130547 0.220117 L 0.135039 0.22457 L 0.148438 0.22457 L 0.15293 0.220117 L 0.170859 0.220117 L 0.175313 0.22457 L 0.18875 0.22457 L 0.193242 0.220117 L 0.193242 0.215625 L 0.202187 0.215625 L 0.20668 0.220117 L 0.211133 0.220117 L 0.215625 0.215625 L 0.215625 0.211133 L 0.238008 0.211133 L 0.2425 0.20668 L 0.2425 0.197734 L 0.255937 0.197734 L 0.26043 0.193242 L 0.255937 0.18875 L 0.255937 0.179805 L 0.251445 0.175312 L 0.26043 0.175312 L 0.264883 0.170859 L 0.269375 0.170859 L 0.273828 0.166367 L 0.27832 0.161875 L 0.27832 0.148438 L 0.273828 0.143984 L 0.27832 0.148438 L 0.282813 0.148438 L 0.287266 0.143984 L 0.291758 0.143984 L 0.29625 0.139492 L 0.314141 0.139492 L 0.318633 0.135039 L 0.318633 0.130547 L 0.309687 0.121602 L 0.305195 0.121602 L 0.327578 0.121602 L 0.33207 0.117109 L 0.341016 0.117109 L 0.345508 0.112617 L 0.363398 0.112617 L 0.367891 0.108164 L 0.367891 0.103672 L 0.372383 0.108164 L 0.38582 0.108164 L 0.390273 0.112617 L 0.394766 0.112617 L 0.399258 0.108164 L 0.399258 0.103672 L 0.421641 0.103672 L 0.426094 0.108164 L 0.430586 0.108164 L 0.435078 0.103672 L 0.435078 0.0947266 L 0.452969 0.0947266 L 0.457461 0.0991797 L 0.461953 0.0991797 L 0.466406 0.103672 L 0.470898 0.103672 L 0.475352 0.0991797 L 0.479844 0.0991797 L 0.484336 0.103672 L 0.488789 0.108164 L 0.493281 0.108164 L 0.497773 0.103672 L 0.497773 0.0991797 L 0.502227 0.103672 L 0.506719 0.103672 L 0.515664 0.112617 L 0.520156 0.112617 L 0.524648 0.117109 L 0.529102 0.117109 L 0.533594 0.112617 L 0.533594 0.108164 L 0.542539 0.117109 L 0.547031 0.117109 L 0.551484 0.121602 L 0.555977 0.126055 L 0.560469 0.130547 L 0.564922 0.135039 L 0.573906 0.126055 L 0.578359 0.130547 L 0.582852 0.135039 L 0.587344 0.139492 L 0.591797 0.139492 L 0.605234 0.15293 L 0.609727 0.15293 L 0.61418 0.157422 L 0.618672 0.15293 L 0.618672 0.148438 L 0.623164 0.148438 L 0.627617 0.15293 L 0.632109 0.157422 L 0.636602 0.161875 L 0.641055 0.166367 L 0.645547 0.170859 L 0.650039 0.170859 L 0.654492 0.175312 L 0.654492 0.179805 L 0.658984 0.184297 L 0.663477 0.179805 L 0.663477 0.175312 L 0.66793 0.175312 L 0.672422 0.179805 L 0.676875 0.184297 L 0.681367 0.18875 L 0.685859 0.18875 L 0.690313 0.193242 L 0.694805 0.193242 L 0.70375 0.202187 L 0.72168 0.202187 L 0.735117 0.215625 L 0.73957 0.220117 L 0.73957 0.22457 L 0.744063 0.229062 L 0.744063 0.233555 L 0.73957 0.238008 L 0.73957 0.309687 L 0.735117 0.314141 L 0.735117 0.33207 L 0.730625 0.336523 L 0.730625 0.349961 L 0.726172 0.354453 L 0.726172 0.363398 L 0.72168 0.367891 L 0.72168 0.372383 L 0.717188 0.376836 L 0.717188 0.38582 L 0.712734 0.390273 L 0.712734 0.394766 L 0.708242 0.399258 L 0.70375 0.403711 L 0.70375 0.408203 L 0.694805 0.417148 L 0.694805 0.426094 L 0.699297 0.430586 L 0.699297 0.435078 L 0.70375 0.439531 L 0.70375 0.444023 L 0.708242 0.448516 L 0.708242 0.461953 L 0.712734 0.466406 L 0.712734 0.475352 L 0.717188 0.479844 L 0.717188 0.493281 L 0.72168 0.497773 L 0.72168 0.502227 L 0.726172 0.506719 L 0.726172 0.511211 L 0.730625 0.515664 L 0.735117 0.515664 L 0.744063 0.506719 L 0.744063 0.502227 L 0.748555 0.497773 L 0.748555 0.493281 L 0.753008 0.488789 L 0.753008 0.479844 L 0.7575 0.475352 L 0.7575 0.470898 L 0.761992 0.466406 L 0.761992 0.461953 L 0.766445 0.461953 L 0.770938 0.457461 L 0.79332 0.457461 L 0.797813 0.461953 L 0.797813 0.502227 L 0.79332 0.506719 L 0.79332 0.511211 L 0.797813 0.515664 L 0.81125 0.502227 L 0.815703 0.502227 L 0.820195 0.497773 L 0.824688 0.493281 L 0.829141 0.488789 L 0.833633 0.484336 L 0.838125 0.479844 L 0.842578 0.475352 L 0.84707 0.470898 L 0.860508 0.457461 L 0.860508 0.452969 L 0.864961 0.452969 L 0.869453 0.448516 L 0.869453 0.444023 L 0.891836 0.421641 L 0.891836 0.417148 L 0.896328 0.417148 L 0.90082 0.412656 L 0.90082 0.408203 L 0.905273 0.403711 L 0.909766 0.399258 L 0.909766 0.394766 L 0.918711 0.38582 L 0.918711 0.381328 L 0.936641 0.363398 L 0.945586 0.363398 L 0.950078 0.367891 L 0.954531 0.372383 L 0.954531 0.376836 L 0.950078 0.381328 L 0.950078 0.38582 L 0.945586 0.390273 L 0.941094 0.394766 L 0.936641 0.399258 L 0.932148 0.403711 L 0.918711 0.417148 L 0.914258 0.421641 L 0.909766 0.426094 L 0.905273 0.430586 L 0.90082 0.435078 L 0.896328 0.439531 L 0.896328 0.444023 L 0.869453 0.470898 L 0.864961 0.475352 L 0.860508 0.479844 L 0.806758 0.533594 L 0.802266 0.538047 L 0.797813 0.542539 L 0.7575 0.582852 L 0.766445 0.591797 L 0.770938 0.591797 L 0.788867 0.609727 L 0.79332 0.609727 L 0.797813 0.61418 L 0.802266 0.618672 L 0.806758 0.618672 L 0.806758 0.623164 L 0.81125 0.627617 L 0.815703 0.632109 L 0.820195 0.636602 L 0.824688 0.636602 L 0.824688 0.641055 L 0.829141 0.645547 L 0.833633 0.650039 L 0.838125 0.654492 L 0.842578 0.658984 L 0.842578 0.663477 L 0.84707 0.66793 L 0.851562 0.672422 L 0.851562 0.676875 L 0.856016 0.681367 L 0.856016 0.712734 L 0.84707 0.72168 L 0.84707 0.735117 L 0.842578 0.73957 L 0.842578 0.744063 L 0.838125 0.748555 L 0.838125 0.7575 L 0.833633 0.761992 L 0.829141 0.766445 L 0.824688 0.770938 L 0.824688 0.779883 L 0.815703 0.788867 L 0.815703 0.79332 L 0.81125 0.797813 L 0.81125 0.802266 L 0.806758 0.806758 L 0.806758 0.81125 L 0.802266 0.81125 L 0.797813 0.806758 L 0.79332 0.81125 L 0.79332 0.815703 L 0.788867 0.820195 L 0.788867 0.824688 L 0.784375 0.829141 L 0.784375 0.833633 L 0.779883 0.838125 L 0.779883 0.84707 L 0.77543 0.842578 L 0.766445 0.842578 L 0.761992 0.84707 L 0.761992 0.851562 L 0.7575 0.856016 L 0.748555 0.864961 L 0.748555 0.869453 L 0.744063 0.873945 L 0.744063 0.869453 L 0.73957 0.864961 L 0.735117 0.864961 L 0.730625 0.869453 L 0.730625 0.873945 L 0.72168 0.882891 L 0.717188 0.878398 L 0.712734 0.878398 L 0.708242 0.882891 L 0.70375 0.882891 L 0.699297 0.887383 L 0.694805 0.891836 L 0.690313 0.887383 L 0.676875 0.887383 L 0.672422 0.891836 L 0.658984 0.891836 L 0.654492 0.896328 L 0.650039 0.896328 L 0.645547 0.90082 L 0.641055 0.905273 L 0.641055 0.896328 L 0.636602 0.891836 L 0.632109 0.887383 L 0.627617 0.891836 L 0.623164 0.891836 L 0.618672 0.896328 L 0.61418 0.896328 L 0.609727 0.90082 L 0.600742 0.891836 L 0.582852 0.891836 L 0.578359 0.896328 L 0.564922 0.896328 L 0.564922 0.887383 L 0.560469 0.882891 L 0.547031 0.882891 L 0.542539 0.887383 L 0.538047 0.887383 L 0.533594 0.882891 L 0.493281 0.882891 L 0.493281 0.873945 L 0.488789 0.869453 L 0.475352 0.869453 L 0.470898 0.864961 L 0.439531 0.864961 L 0.435078 0.860508 L 0.435078 0.856016 L 0.430586 0.851562 L 0.390273 0.851562 L 0.38582 0.84707 L 0.381328 0.84707 L 0.381328 0.842578 L 0.376836 0.838125 L 0.363398 0.838125 L 0.358945 0.833633 L 0.349961 0.833633 L 0.349961 0.829141 L 0.345508 0.824688 L 0.341016 0.824688 L 0.336523 0.820195 L 0.318633 0.820195 L 0.318633 0.815703 L 0.314141 0.81125 L 0.309687 0.806758 L 0.305195 0.802266 L 0.300703 0.802266 L 0.291758 0.79332 L 0.282813 0.79332 L 0.282813 0.784375 L 0.27832 0.779883 L 0.273828 0.77543 L 0.264883 0.77543 L 0.26043 0.770938 L 0.255937 0.770938 L 0.246992 0.761992 L 0.246992 0.7575 L 0.2425 0.753008 L 0.238008 0.753008 L 0.215625 0.730625 L 0.211133 0.726172 L 0.211133 0.712734 L 0.20668 0.708242 L 0.197734 0.699297 L 0.197734 0.694805 L 0.193242 0.690313 L 0.18875 0.685859 L 0.184297 0.685859 L 0.184297 0.672422 L 0.179805 0.66793 L 0.175313 0.663477 L 0.170859 0.658984 L 0.166367 0.654492 L 0.161875 0.650039 L 0.157422 0.645547 L 0.157422 0.636602 L 0.161875 0.632109 L 0.157422 0.627617 L 0.15293 0.627617 L 0.148438 0.623164 L 0.143984 0.618672 L 0.135039 0.609727 L 0.135039 0.600742 L 0.130547 0.596289 L 0.112617 0.578359 L 0.112617 0.560469 L 0.108164 0.555977 L 0.108164 0.547031 L 0.103672 0.542539 L 0.103672 0.538047 L 0.0991797 0.533594 L 0.0991797 0.524648 L 0.103672 0.520156 L 0.103672 0.515664 L 0.0991797 0.511211 L 0.0947266 0.506719 L 0.0947266 0.502227 L 0.0902344 0.497773 L 0.0902344 0.493281 L 0.0857422 0.488789 L 0.0857422 0.475352 L 0.0812891 0.470898 L 0.0812891 0.466406 L 0.0767969 0.461953 L 0.0767969 0.435078 L 0.0723437 0.430586 L 0.0723437 0.408203 L 0.0767969 0.408203 L 0.0812891 0.412656 L 0.0857422 0.408203 L 0.0857422 0.390273 L 0.0902344 0.38582 L 0.0902344 0.358945 L 0.0947266 0.358945 L 0.0991797 0.363398 L 0.103672 0.358945 L 0.108164 0.354453 L 0.108164 0.327578 L 0.103672 0.323125 L 0.0991797 0.323125 L 0.0991797 0.314141 L 0.0902344 0.305195 L 0.0902344 0.300703 L 0.0857422 0.29625 L 0.0857422 0.291758 L 0.0812891 0.287266 L 0.0812891 0.282812 L 0.0767969 0.27832 L 0.0767969 0.273828 L 0.0678516 0.264883 L 0.0633594 0.26043 L 0.0589062 0.26043 L 0.0544141 0.255937 L 0.0499219 0.255937 L 0.0454688 0.251445 Z M 0.0454688 0.246992 " transform="matrix(100,0,0,100,600,200)"/>
<path style="fill:none;stroke-width:0.01;stroke-linecap:butt;stroke-linejoin:miter;stroke:rgb(0%,0%,0%);stroke-opacity:1;stroke-miterlimit:10;" d="M 0.0454688 0.63168 L 0.0496875 0.627461 L 0.0496875 0.623203 L 0.0539453 0.618945 L 0.0582031 0.618945 L 0.0624609 0.614688 L 0.0794531 0.614688 L 0.0836719 0.610469 L 0.0879297 0.610469 L 0.0921875 0.606211 L 0.0964453 0.606211 L 0.100664 0.601953 L 0.104922 0.597695 L 0.10918 0.593477 L 0.113437 0.593477 L 0.117656 0.589219 L 0.117656 0.584961 L 0.121914 0.580703 L 0.126172 0.576484 L 0.126172 0.563711 L 0.13043 0.563711 L 0.138906 0.555234 L 0.138906 0.550977 L 0.134648 0.546719 L 0.138906 0.5425 L 0.138906 0.538242 L 0.147422 0.529727 L 0.147422 0.525508 L 0.138906 0.516992 L 0.143164 0.512734 L 0.143164 0.508516 L 0.147422 0.504258 L 0.147422 0.495742 L 0.151641 0.491484 L 0.155898 0.487266 L 0.151641 0.483008 L 0.151641 0.474492 L 0.155898 0.470273 L 0.164414 0.461758 L 0.168633 0.4575 L 0.172891 0.453281 L 0.168633 0.449023 L 0.177148 0.440508 L 0.181406 0.436289 L 0.172891 0.427773 L 0.177148 0.423516 L 0.181406 0.419297 L 0.181406 0.415039 L 0.185625 0.410781 L 0.189883 0.406523 L 0.194141 0.402305 L 0.198398 0.398047 L 0.194141 0.393789 L 0.198398 0.393789 L 0.202617 0.389531 L 0.206875 0.389531 L 0.211133 0.385312 L 0.215391 0.381055 L 0.215391 0.372539 L 0.219609 0.36832 L 0.219609 0.359805 L 0.215391 0.355547 L 0.223867 0.34707 L 0.223867 0.342812 L 0.228125 0.338555 L 0.232383 0.338555 L 0.236602 0.334336 L 0.236602 0.32582 L 0.240859 0.321563 L 0.245117 0.321563 L 0.249375 0.317344 L 0.253594 0.317344 L 0.262109 0.308828 L 0.262109 0.30457 L 0.274844 0.30457 L 0.279102 0.300352 L 0.291836 0.300352 L 0.296094 0.296094 L 0.291836 0.291836 L 0.291836 0.287578 L 0.30457 0.287578 L 0.308828 0.283359 L 0.313086 0.279102 L 0.313086 0.270586 L 0.32582 0.270586 L 0.330078 0.266367 L 0.338555 0.266367 L 0.34707 0.257852 L 0.34707 0.249375 L 0.351328 0.249375 L 0.355547 0.245117 L 0.359805 0.245117 L 0.364063 0.240859 L 0.36832 0.240859 L 0.372539 0.236602 L 0.385313 0.236602 L 0.389531 0.232383 L 0.393789 0.236602 L 0.398047 0.232383 L 0.398047 0.223867 L 0.402305 0.219609 L 0.406523 0.223867 L 0.410781 0.223867 L 0.415039 0.219609 L 0.423516 0.219609 L 0.427773 0.215391 L 0.427773 0.211133 L 0.432031 0.211133 L 0.436289 0.215391 L 0.444766 0.215391 L 0.449023 0.211133 L 0.449023 0.206875 L 0.453281 0.206875 L 0.453281 0.211133 L 0.4575 0.215391 L 0.466016 0.215391 L 0.470273 0.219609 L 0.474492 0.215391 L 0.474492 0.211133 L 0.47875 0.211133 L 0.483008 0.215391 L 0.491484 0.215391 L 0.495742 0.219609 L 0.5 0.219609 L 0.504258 0.223867 L 0.508516 0.223867 L 0.512734 0.219609 L 0.512734 0.206875 L 0.52125 0.215391 L 0.563711 0.215391 L 0.567969 0.219609 L 0.572227 0.223867 L 0.576484 0.219609 L 0.576484 0.215391 L 0.580703 0.219609 L 0.584961 0.219609 L 0.593477 0.228125 L 0.601953 0.228125 L 0.606211 0.223867 L 0.610469 0.228125 L 0.614688 0.228125 L 0.618945 0.232383 L 0.623203 0.232383 L 0.627461 0.236602 L 0.63168 0.240859 L 0.635938 0.236602 L 0.640195 0.232383 L 0.644453 0.232383 L 0.648672 0.236602 L 0.65293 0.236602 L 0.661445 0.245117 L 0.665664 0.249375 L 0.669922 0.249375 L 0.67418 0.245117 L 0.67418 0.236602 L 0.678438 0.240859 L 0.682656 0.245117 L 0.686914 0.249375 L 0.691172 0.253594 L 0.69543 0.253594 L 0.699648 0.257852 L 0.703906 0.257852 L 0.708164 0.253594 L 0.708164 0.249375 L 0.712422 0.253594 L 0.716641 0.257852 L 0.725156 0.266367 L 0.729414 0.270586 L 0.742148 0.270586 L 0.742148 0.279102 L 0.750625 0.287578 L 0.750625 0.296094 L 0.746406 0.300352 L 0.742148 0.30457 L 0.742148 0.330078 L 0.737891 0.334336 L 0.737891 0.34707 L 0.742148 0.351328 L 0.742148 0.359805 L 0.737891 0.364063 L 0.737891 0.376797 L 0.742148 0.381055 L 0.742148 0.402305 L 0.746406 0.406523 L 0.746406 0.427773 L 0.750625 0.432031 L 0.754883 0.432031 L 0.759141 0.436289 L 0.759141 0.449023 L 0.754883 0.453281 L 0.750625 0.4575 L 0.759141 0.466016 L 0.754883 0.470273 L 0.754883 0.474492 L 0.759141 0.47875 L 0.776133 0.47875 L 0.780391 0.474492 L 0.805859 0.474492 L 0.810117 0.470273 L 0.856836 0.470273 L 0.861094 0.466016 L 0.873828 0.466016 L 0.878086 0.461758 L 0.89082 0.461758 L 0.895078 0.4575 L 0.91207 0.4575 L 0.916328 0.453281 L 0.924805 0.453281 L 0.929063 0.449023 L 0.93332 0.449023 L 0.937539 0.444766 L 0.946055 0.444766 L 0.950313 0.449023 L 0.954531 0.453281 L 0.954531 0.461758 L 0.950313 0.461758 L 0.946055 0.466016 L 0.91207 0.466016 L 0.907813 0.470273 L 0.878086 0.470273 L 0.873828 0.474492 L 0.861094 0.474492 L 0.856836 0.47875 L 0.835586 0.47875 L 0.831367 0.483008 L 0.805859 0.483008 L 0.801602 0.487266 L 0.788867 0.487266 L 0.784609 0.491484 L 0.776133 0.491484 L 0.771875 0.495742 L 0.771875 0.5 L 0.776133 0.504258 L 0.776133 0.508516 L 0.780391 0.512734 L 0.784609 0.516992 L 0.784609 0.533984 L 0.788867 0.538242 L 0.788867 0.550977 L 0.784609 0.555234 L 0.784609 0.576484 L 0.780391 0.580703 L 0.780391 0.606211 L 0.776133 0.610469 L 0.776133 0.623203 L 0.771875 0.627461 L 0.767617 0.63168 L 0.767617 0.635937 L 0.763398 0.640195 L 0.763398 0.644453 L 0.759141 0.648672 L 0.750625 0.657188 L 0.746406 0.661445 L 0.746406 0.665664 L 0.720898 0.691172 L 0.720898 0.69543 L 0.716641 0.699648 L 0.712422 0.703906 L 0.712422 0.708164 L 0.708164 0.712422 L 0.703906 0.712422 L 0.699648 0.716641 L 0.69543 0.720898 L 0.686914 0.729414 L 0.682656 0.729414 L 0.678438 0.733633 L 0.678438 0.737891 L 0.67418 0.733633 L 0.669922 0.733633 L 0.665664 0.737891 L 0.661445 0.742148 L 0.657188 0.746406 L 0.65293 0.750625 L 0.648672 0.754883 L 0.644453 0.754883 L 0.635938 0.763398 L 0.63168 0.767617 L 0.63168 0.763398 L 0.627461 0.759141 L 0.623203 0.763398 L 0.618945 0.767617 L 0.614688 0.767617 L 0.610469 0.771875 L 0.601953 0.771875 L 0.597695 0.776133 L 0.593477 0.776133 L 0.589219 0.780391 L 0.589219 0.784609 L 0.589219 0.780391 L 0.584961 0.776133 L 0.576484 0.776133 L 0.572227 0.780391 L 0.563711 0.780391 L 0.559492 0.784609 L 0.555234 0.784609 L 0.550977 0.788867 L 0.546719 0.788867 L 0.5425 0.793125 L 0.546719 0.788867 L 0.5425 0.784609 L 0.538242 0.780391 L 0.533984 0.784609 L 0.529727 0.784609 L 0.525508 0.788867 L 0.516992 0.788867 L 0.512734 0.793125 L 0.508516 0.793125 L 0.504258 0.788867 L 0.491484 0.788867 L 0.487266 0.793125 L 0.483008 0.793125 L 0.474492 0.784609 L 0.470273 0.788867 L 0.449023 0.788867 L 0.449023 0.784609 L 0.444766 0.780391 L 0.419297 0.780391 L 0.419297 0.771875 L 0.415039 0.767617 L 0.406523 0.767617 L 0.402305 0.771875 L 0.398047 0.771875 L 0.398047 0.767617 L 0.393789 0.763398 L 0.389531 0.763398 L 0.385313 0.759141 L 0.376797 0.759141 L 0.372539 0.763398 L 0.36832 0.763398 L 0.364063 0.767617 L 0.351328 0.767617 L 0.34707 0.763398 L 0.342813 0.759141 L 0.338555 0.759141 L 0.334336 0.754883 L 0.32582 0.754883 L 0.330078 0.750625 L 0.330078 0.746406 L 0.32582 0.742148 L 0.300352 0.742148 L 0.296094 0.737891 L 0.291836 0.737891 L 0.287578 0.742148 L 0.283359 0.737891 L 0.262109 0.737891 L 0.257852 0.733633 L 0.262109 0.729414 L 0.262109 0.725156 L 0.257852 0.720898 L 0.245117 0.720898 L 0.240859 0.716641 L 0.236602 0.712422 L 0.232383 0.708164 L 0.228125 0.708164 L 0.223867 0.703906 L 0.223867 0.69543 L 0.219609 0.691172 L 0.206875 0.691172 L 0.202617 0.686914 L 0.198398 0.682656 L 0.194141 0.682656 L 0.189883 0.678438 L 0.189883 0.669922 L 0.185625 0.665664 L 0.177148 0.665664 L 0.172891 0.661445 L 0.168633 0.665664 L 0.168633 0.657188 L 0.164414 0.65293 L 0.143164 0.65293 L 0.138906 0.648672 L 0.13043 0.648672 L 0.126172 0.65293 L 0.126172 0.648672 L 0.121914 0.644453 L 0.113437 0.644453 L 0.10918 0.640195 L 0.0964453 0.640195 L 0.0921875 0.635937 L 0.0836719 0.635937 L 0.0794531 0.63168 L 0.0539453 0.63168 L 0.0496875 0.635937 L 0.0496875 0.640195 L 0.0454688 0.644453 L 0.0454688 0.635937 Z M 0.0454688 0.63168 " transform="matrix(100,0,0,100,0,350)"/>
<path style="fill:none;stroke-width:0.01;stroke-linecap:butt;stroke-linejoin:miter;stroke:rgb(0%,0%,0%);stroke-opacity:1;stroke-miterlimit:10;" d="M 0.0454687 0.540938 L 0.0495313 0.536836 L 0.0536328 0.532773 L 0.0659375 0.532773 L 0.0700391 0.528672 L 0.0823047 0.528672 L 0.0864063 0.52457 L 0.0905078 0.52457 L 0.0946094 0.520469 L 0.0986719 0.520469 L 0.106875 0.512266 L 0.110977 0.508203 L 0.11918 0.5 L 0.123242 0.495898 L 0.127344 0.491797 L 0.127344 0.487734 L 0.135547 0.479531 L 0.135547 0.471328 L 0.139648 0.467227 L 0.139648 0.463164 L 0.14375 0.459062 L 0.14375 0.450859 L 0.147813 0.450859 L 0.156016 0.442656 L 0.160117 0.438594 L 0.164219 0.434492 L 0.164219 0.422188 L 0.172383 0.414023 L 0.172383 0.409922 L 0.184688 0.397617 L 0.184688 0.389453 L 0.192891 0.38125 L 0.196953 0.377148 L 0.205156 0.368945 L 0.209258 0.368945 L 0.213359 0.364883 L 0.213359 0.35668 L 0.217461 0.35668 L 0.221523 0.352578 L 0.225625 0.348477 L 0.229727 0.348477 L 0.233828 0.344375 L 0.233828 0.340313 L 0.23793 0.336211 L 0.242031 0.336211 L 0.246094 0.332109 L 0.246094 0.323906 L 0.250195 0.323906 L 0.254297 0.319805 L 0.258398 0.315742 L 0.2625 0.315742 L 0.266602 0.311641 L 0.270664 0.307539 L 0.274766 0.303438 L 0.291172 0.303438 L 0.295234 0.299336 L 0.299336 0.295234 L 0.307539 0.295234 L 0.311641 0.291172 L 0.315742 0.291172 L 0.319805 0.28707 L 0.332109 0.28707 L 0.336211 0.282969 L 0.336211 0.274766 L 0.340313 0.274766 L 0.344375 0.270664 L 0.348477 0.270664 L 0.352578 0.266602 L 0.368945 0.266602 L 0.373047 0.2625 L 0.377148 0.2625 L 0.38125 0.266602 L 0.389453 0.266602 L 0.393516 0.2625 L 0.409922 0.2625 L 0.414023 0.258398 L 0.418086 0.258398 L 0.422187 0.2625 L 0.434492 0.2625 L 0.438594 0.258398 L 0.459063 0.258398 L 0.463164 0.254297 L 0.483633 0.254297 L 0.487734 0.250195 L 0.491797 0.246094 L 0.495898 0.246094 L 0.5 0.250195 L 0.516367 0.250195 L 0.520469 0.246094 L 0.520469 0.242031 L 0.557344 0.242031 L 0.561406 0.23793 L 0.561406 0.229727 L 0.565508 0.233828 L 0.569609 0.233828 L 0.573711 0.23793 L 0.581914 0.23793 L 0.585977 0.233828 L 0.590078 0.233828 L 0.598281 0.242031 L 0.610547 0.242031 L 0.614648 0.246094 L 0.61875 0.246094 L 0.622852 0.250195 L 0.626953 0.246094 L 0.631055 0.246094 L 0.635117 0.250195 L 0.639219 0.254297 L 0.64332 0.254297 L 0.647422 0.258398 L 0.655625 0.258398 L 0.659687 0.2625 L 0.663789 0.266602 L 0.667891 0.2625 L 0.671992 0.266602 L 0.676094 0.266602 L 0.680195 0.2625 L 0.684258 0.266602 L 0.688359 0.270664 L 0.692461 0.270664 L 0.696563 0.274766 L 0.700664 0.270664 L 0.704766 0.274766 L 0.708828 0.274766 L 0.721133 0.28707 L 0.725234 0.28707 L 0.729336 0.282969 L 0.729336 0.278867 L 0.729336 0.28707 L 0.733398 0.291172 L 0.7375 0.295234 L 0.741602 0.295234 L 0.745703 0.299336 L 0.745703 0.303438 L 0.749805 0.307539 L 0.757969 0.307539 L 0.766172 0.315742 L 0.766172 0.319805 L 0.774375 0.328008 L 0.774375 0.332109 L 0.778477 0.336211 L 0.782539 0.340313 L 0.786641 0.340313 L 0.786641 0.348477 L 0.790742 0.352578 L 0.790742 0.360781 L 0.794844 0.364883 L 0.794844 0.38125 L 0.798945 0.385352 L 0.798945 0.389453 L 0.803047 0.393516 L 0.803047 0.397617 L 0.807109 0.401719 L 0.807109 0.40582 L 0.811211 0.409922 L 0.811211 0.414023 L 0.815313 0.418086 L 0.819414 0.422188 L 0.815313 0.426289 L 0.815313 0.442656 L 0.811211 0.446758 L 0.811211 0.450859 L 0.807109 0.454961 L 0.807109 0.467227 L 0.803047 0.471328 L 0.803047 0.47543 L 0.798945 0.479531 L 0.798945 0.483633 L 0.794844 0.487734 L 0.794844 0.491797 L 0.790742 0.495898 L 0.790742 0.5 L 0.782539 0.508203 L 0.782539 0.512266 L 0.803047 0.532773 L 0.807109 0.532773 L 0.811211 0.536836 L 0.819414 0.545039 L 0.823516 0.545039 L 0.827617 0.549141 L 0.83168 0.553242 L 0.835781 0.557344 L 0.839883 0.561406 L 0.852187 0.573711 L 0.85625 0.577813 L 0.860352 0.577813 L 0.864453 0.581914 L 0.864453 0.585977 L 0.876758 0.598281 L 0.88082 0.602383 L 0.884922 0.606484 L 0.889023 0.610547 L 0.901328 0.622852 L 0.905391 0.626953 L 0.905391 0.631055 L 0.909492 0.635117 L 0.925898 0.651523 L 0.929961 0.655625 L 0.929961 0.659688 L 0.938164 0.667891 L 0.938164 0.671992 L 0.946367 0.680195 L 0.946367 0.684258 L 0.950469 0.688359 L 0.954531 0.692461 L 0.954531 0.704766 L 0.950469 0.708828 L 0.946367 0.708828 L 0.942266 0.704766 L 0.938164 0.700664 L 0.938164 0.692461 L 0.934063 0.688359 L 0.934063 0.684258 L 0.929961 0.680195 L 0.925898 0.676094 L 0.925898 0.671992 L 0.913594 0.659688 L 0.913594 0.655625 L 0.905391 0.647422 L 0.905391 0.64332 L 0.901328 0.639219 L 0.897227 0.635117 L 0.893125 0.631055 L 0.884922 0.622852 L 0.884922 0.61875 L 0.88082 0.614648 L 0.876758 0.610547 L 0.872656 0.606484 L 0.85625 0.590078 L 0.852187 0.585977 L 0.848086 0.581914 L 0.835781 0.569609 L 0.83168 0.569609 L 0.827617 0.565508 L 0.823516 0.561406 L 0.819414 0.557344 L 0.815313 0.553242 L 0.811211 0.553242 L 0.807109 0.549141 L 0.803047 0.545039 L 0.798945 0.545039 L 0.790742 0.536836 L 0.786641 0.532773 L 0.782539 0.528672 L 0.778477 0.532773 L 0.774375 0.536836 L 0.770273 0.540938 L 0.770273 0.545039 L 0.749805 0.565508 L 0.749805 0.569609 L 0.741602 0.577813 L 0.741602 0.581914 L 0.7375 0.585977 L 0.733398 0.590078 L 0.733398 0.59418 L 0.729336 0.598281 L 0.725234 0.602383 L 0.725234 0.606484 L 0.721133 0.610547 L 0.717031 0.614648 L 0.717031 0.61875 L 0.71293 0.622852 L 0.71293 0.626953 L 0.708828 0.631055 L 0.708828 0.635117 L 0.704766 0.639219 L 0.692461 0.651523 L 0.688359 0.651523 L 0.676094 0.663789 L 0.676094 0.667891 L 0.663789 0.680195 L 0.663789 0.684258 L 0.659687 0.688359 L 0.655625 0.692461 L 0.64332 0.704766 L 0.639219 0.708828 L 0.631055 0.708828 L 0.626953 0.71293 L 0.622852 0.71293 L 0.614648 0.721133 L 0.610547 0.721133 L 0.606484 0.725234 L 0.602383 0.729336 L 0.59418 0.729336 L 0.590078 0.733398 L 0.585977 0.7375 L 0.585977 0.741602 L 0.585977 0.7375 L 0.581914 0.733398 L 0.577812 0.733398 L 0.569609 0.741602 L 0.565508 0.741602 L 0.561406 0.745703 L 0.540938 0.745703 L 0.536836 0.749805 L 0.52457 0.749805 L 0.520469 0.753906 L 0.516367 0.757969 L 0.512266 0.757969 L 0.508203 0.753906 L 0.504102 0.753906 L 0.5 0.757969 L 0.495898 0.757969 L 0.491797 0.76207 L 0.483633 0.76207 L 0.479531 0.757969 L 0.47543 0.76207 L 0.471328 0.76207 L 0.467227 0.766172 L 0.463164 0.766172 L 0.459063 0.76207 L 0.454961 0.76207 L 0.446758 0.770273 L 0.442656 0.766172 L 0.438594 0.76207 L 0.434492 0.766172 L 0.430391 0.766172 L 0.426289 0.770273 L 0.418086 0.76207 L 0.40582 0.76207 L 0.401719 0.766172 L 0.401719 0.753906 L 0.397617 0.749805 L 0.393516 0.749805 L 0.389453 0.745703 L 0.385352 0.745703 L 0.38125 0.749805 L 0.38125 0.741602 L 0.377148 0.7375 L 0.35668 0.7375 L 0.352578 0.733398 L 0.332109 0.733398 L 0.332109 0.729336 L 0.328008 0.725234 L 0.311641 0.725234 L 0.307539 0.721133 L 0.299336 0.721133 L 0.295234 0.717031 L 0.291172 0.71293 L 0.278867 0.71293 L 0.278867 0.704766 L 0.270664 0.696562 L 0.2625 0.696562 L 0.2625 0.692461 L 0.254297 0.684258 L 0.250195 0.684258 L 0.250195 0.680195 L 0.246094 0.676094 L 0.242031 0.671992 L 0.23793 0.671992 L 0.233828 0.667891 L 0.233828 0.663789 L 0.229727 0.659688 L 0.225625 0.655625 L 0.221523 0.651523 L 0.221523 0.647422 L 0.217461 0.64332 L 0.213359 0.639219 L 0.209258 0.639219 L 0.205156 0.635117 L 0.205156 0.626953 L 0.196953 0.61875 L 0.192891 0.614648 L 0.192891 0.610547 L 0.188789 0.606484 L 0.184688 0.606484 L 0.184688 0.598281 L 0.180586 0.59418 L 0.172383 0.59418 L 0.16832 0.590078 L 0.164219 0.585977 L 0.160117 0.585977 L 0.156016 0.581914 L 0.156016 0.573711 L 0.147813 0.565508 L 0.147813 0.561406 L 0.14375 0.557344 L 0.14375 0.553242 L 0.131445 0.540938 L 0.0495313 0.540938 Z M 0.0454687 0.540938 " transform="matrix(100,0,0,100,150,350)"/>
<path style="fill:none;stroke-width:0.01;stroke-linecap:butt;stroke-linejoin:miter;stroke:rgb(0%,0%,0%);stroke-opacity:1;stroke-miterlimit:10;" d="M 0.0454687 0.508789 L 0.0498437 0.504375 L 0.0542187 0.504375 L 0.0586328 0.5 L 0.0849609 0.5 L 0.089375 0.495625 L 0.115703 0.495625 L 0.120117 0.491211 L 0.124492 0.491211 L 0.128906 0.486836 L 0.133281 0.482422 L 0.14207 0.482422 L 0.150859 0.473633 L 0.155234 0.473633 L 0.159648 0.469258 L 0.177188 0.469258 L 0.181602 0.464883 L 0.181602 0.460469 L 0.190391 0.45168 L 0.190391 0.442891 L 0.185977 0.438516 L 0.185977 0.434141 L 0.190391 0.429727 L 0.190391 0.425352 L 0.194766 0.420937 L 0.194766 0.398984 L 0.19918 0.398984 L 0.203555 0.394609 L 0.20793 0.390195 L 0.212344 0.38582 L 0.212344 0.377031 L 0.216719 0.377031 L 0.221133 0.372656 L 0.225508 0.368242 L 0.229922 0.363867 L 0.229922 0.359453 L 0.225508 0.355078 L 0.251875 0.328711 L 0.251875 0.324336 L 0.25625 0.324336 L 0.260664 0.319922 L 0.269414 0.319922 L 0.273828 0.315547 L 0.278203 0.315547 L 0.282617 0.311172 L 0.282617 0.306758 L 0.286992 0.306758 L 0.291406 0.302383 L 0.295781 0.302383 L 0.300156 0.297969 L 0.30457 0.297969 L 0.313359 0.28918 L 0.313359 0.284805 L 0.317734 0.284805 L 0.322148 0.28043 L 0.335313 0.28043 L 0.339688 0.276016 L 0.344102 0.276016 L 0.348477 0.271641 L 0.357266 0.271641 L 0.361641 0.267227 L 0.383633 0.267227 L 0.388008 0.262852 L 0.388008 0.258437 L 0.405586 0.258437 L 0.409961 0.262852 L 0.414375 0.262852 L 0.41875 0.258437 L 0.41875 0.249688 L 0.414375 0.245273 L 0.436328 0.245273 L 0.445117 0.236484 L 0.445117 0.227695 L 0.462656 0.227695 L 0.46707 0.22332 L 0.493398 0.22332 L 0.497813 0.218945 L 0.497813 0.205742 L 0.502188 0.210156 L 0.537344 0.210156 L 0.541719 0.205742 L 0.550508 0.205742 L 0.554883 0.210156 L 0.568086 0.210156 L 0.572461 0.205742 L 0.572461 0.192578 L 0.576875 0.196953 L 0.58125 0.196953 L 0.585625 0.201367 L 0.598828 0.201367 L 0.603203 0.205742 L 0.607617 0.205742 L 0.611992 0.201367 L 0.611992 0.192578 L 0.625156 0.205742 L 0.62957 0.205742 L 0.633945 0.210156 L 0.638359 0.205742 L 0.638359 0.201367 L 0.642734 0.205742 L 0.647109 0.210156 L 0.651523 0.214531 L 0.655898 0.214531 L 0.660312 0.218945 L 0.664687 0.218945 L 0.669102 0.214531 L 0.673477 0.218945 L 0.677852 0.218945 L 0.682266 0.22332 L 0.69543 0.236484 L 0.699844 0.236484 L 0.704219 0.232109 L 0.704219 0.227695 L 0.708594 0.227695 L 0.708594 0.232109 L 0.713008 0.236484 L 0.717383 0.240898 L 0.721797 0.240898 L 0.734961 0.254062 L 0.739336 0.249688 L 0.74375 0.249688 L 0.748125 0.254062 L 0.752539 0.258437 L 0.756914 0.262852 L 0.761328 0.267227 L 0.765703 0.267227 L 0.770078 0.271641 L 0.774492 0.276016 L 0.778867 0.276016 L 0.783281 0.271641 L 0.787656 0.271641 L 0.79207 0.276016 L 0.796445 0.28043 L 0.796445 0.284805 L 0.814023 0.302383 L 0.814023 0.306758 L 0.818398 0.311172 L 0.822812 0.315547 L 0.822812 0.324336 L 0.827187 0.328711 L 0.840352 0.328711 L 0.844766 0.333125 L 0.844766 0.341914 L 0.849141 0.346289 L 0.849141 0.355078 L 0.853555 0.359453 L 0.853555 0.38582 L 0.85793 0.390195 L 0.85793 0.394609 L 0.862305 0.398984 L 0.862305 0.442891 L 0.866719 0.447305 L 0.871094 0.447305 L 0.879883 0.438516 L 0.884297 0.434141 L 0.888672 0.434141 L 0.893047 0.429727 L 0.897461 0.425352 L 0.901836 0.420937 L 0.90625 0.416562 L 0.910625 0.412148 L 0.915039 0.407773 L 0.919414 0.403398 L 0.923789 0.398984 L 0.928203 0.394609 L 0.932578 0.390195 L 0.936992 0.390195 L 0.941367 0.38582 L 0.950156 0.38582 L 0.950156 0.390195 L 0.954531 0.394609 L 0.954531 0.403398 L 0.950156 0.403398 L 0.945781 0.407773 L 0.941367 0.407773 L 0.936992 0.412148 L 0.932578 0.412148 L 0.928203 0.416562 L 0.923789 0.420937 L 0.919414 0.425352 L 0.915039 0.425352 L 0.910625 0.429727 L 0.90625 0.434141 L 0.901836 0.434141 L 0.897461 0.438516 L 0.893047 0.442891 L 0.888672 0.447305 L 0.879883 0.456094 L 0.875508 0.456094 L 0.871094 0.460469 L 0.866719 0.464883 L 0.862305 0.469258 L 0.862305 0.478047 L 0.85793 0.482422 L 0.862305 0.486836 L 0.862305 0.504375 L 0.85793 0.508789 L 0.85793 0.513164 L 0.853555 0.517578 L 0.849141 0.517578 L 0.835977 0.530742 L 0.831562 0.530742 L 0.827187 0.535117 L 0.822812 0.535117 L 0.818398 0.539531 L 0.814023 0.539531 L 0.809609 0.543906 L 0.796445 0.543906 L 0.79207 0.54832 L 0.783281 0.54832 L 0.778867 0.552695 L 0.774492 0.552695 L 0.770078 0.557109 L 0.770078 0.565859 L 0.778867 0.574648 L 0.778867 0.601016 L 0.774492 0.605391 L 0.774492 0.61418 L 0.770078 0.618594 L 0.770078 0.627344 L 0.765703 0.631758 L 0.765703 0.644922 L 0.761328 0.649336 L 0.761328 0.653711 L 0.756914 0.658086 L 0.756914 0.6625 L 0.752539 0.666875 L 0.752539 0.671289 L 0.748125 0.675664 L 0.74375 0.680078 L 0.739336 0.684453 L 0.739336 0.688828 L 0.734961 0.693242 L 0.730586 0.697617 L 0.730586 0.702031 L 0.726172 0.706406 L 0.726172 0.71082 L 0.721797 0.715195 L 0.717383 0.71957 L 0.713008 0.723984 L 0.708594 0.728359 L 0.708594 0.732773 L 0.704219 0.737148 L 0.699844 0.741562 L 0.69543 0.745938 L 0.673477 0.767891 L 0.669102 0.772305 L 0.660312 0.772305 L 0.655898 0.77668 L 0.651523 0.781055 L 0.647109 0.781055 L 0.642734 0.785469 L 0.638359 0.789844 L 0.633945 0.789844 L 0.62957 0.794258 L 0.625156 0.794258 L 0.620781 0.798633 L 0.611992 0.798633 L 0.607617 0.803047 L 0.603203 0.807422 L 0.598828 0.803047 L 0.598828 0.798633 L 0.594414 0.794258 L 0.590039 0.794258 L 0.585625 0.798633 L 0.572461 0.798633 L 0.568086 0.803047 L 0.559297 0.803047 L 0.554883 0.807422 L 0.541719 0.807422 L 0.541719 0.798633 L 0.537344 0.794258 L 0.524141 0.794258 L 0.519766 0.798633 L 0.502188 0.798633 L 0.497813 0.803047 L 0.493398 0.807422 L 0.497813 0.803047 L 0.489023 0.794258 L 0.458281 0.794258 L 0.458281 0.789844 L 0.453867 0.785469 L 0.449492 0.789844 L 0.431914 0.789844 L 0.423125 0.781055 L 0.414375 0.781055 L 0.409961 0.785469 L 0.405586 0.785469 L 0.405586 0.781055 L 0.401172 0.77668 L 0.396797 0.772305 L 0.388008 0.772305 L 0.383633 0.767891 L 0.366055 0.767891 L 0.366055 0.759102 L 0.361641 0.754727 L 0.357266 0.750312 L 0.352891 0.745938 L 0.335313 0.745938 L 0.335313 0.741562 L 0.330898 0.737148 L 0.308945 0.737148 L 0.30457 0.732773 L 0.30457 0.728359 L 0.300156 0.723984 L 0.295781 0.71957 L 0.291406 0.71957 L 0.286992 0.715195 L 0.282617 0.71082 L 0.273828 0.71082 L 0.269414 0.706406 L 0.269414 0.702031 L 0.273828 0.697617 L 0.269414 0.693242 L 0.269414 0.688828 L 0.265039 0.684453 L 0.260664 0.684453 L 0.25625 0.680078 L 0.25625 0.671289 L 0.251875 0.666875 L 0.247461 0.6625 L 0.243086 0.658086 L 0.238672 0.658086 L 0.234297 0.653711 L 0.225508 0.653711 L 0.225508 0.649336 L 0.229922 0.644922 L 0.229922 0.640547 L 0.234297 0.636133 L 0.234297 0.631758 L 0.229922 0.627344 L 0.225508 0.622969 L 0.221133 0.618594 L 0.216719 0.618594 L 0.212344 0.61418 L 0.20793 0.609805 L 0.19918 0.609805 L 0.203555 0.605391 L 0.203555 0.601016 L 0.19918 0.596602 L 0.194766 0.592227 L 0.190391 0.587852 L 0.185977 0.587852 L 0.181602 0.583438 L 0.177188 0.583438 L 0.177188 0.570273 L 0.172813 0.565859 L 0.168438 0.561484 L 0.164023 0.557109 L 0.159648 0.552695 L 0.155234 0.54832 L 0.150859 0.543906 L 0.146445 0.543906 L 0.14207 0.539531 L 0.137695 0.539531 L 0.133281 0.535117 L 0.128906 0.535117 L 0.124492 0.530742 L 0.120117 0.526367 L 0.106953 0.526367 L 0.0981641 0.517578 L 0.0717969 0.517578 L 0.0674219 0.513164 L 0.0630078 0.513164 L 0.0586328 0.508789 L 0.0498437 0.508789 Z M 0.0454687 0.508789 " transform="matrix(100,0,0,100,300,350)"/>
<path style="fill:none;stroke-width:0.01;stroke-linecap:butt;stroke-linejoin:miter;stroke:rgb(0%,0%,0%);stroke-opacity:1;stroke-miterlimit:10;" d="M 0.0454688 0.403711 L 0.0499219 0.403711 L 0.0544141 0.399258 L 0.0589062 0.399258 L 0.0633594 0.394766 L 0.0678516 0.394766 L 0.0723437 0.390273 L 0.0902344 0.390273 L 0.0947266 0.38582 L 0.121602 0.38582 L 0.126055 0.381328 L 0.161875 0.381328 L 0.166367 0.376836 L 0.166367 0.372383 L 0.170859 0.372383 L 0.175313 0.367891 L 0.175313 0.354453 L 0.179805 0.349961 L 0.179805 0.341016 L 0.184297 0.345508 L 0.18875 0.341016 L 0.193242 0.336523 L 0.197734 0.33207 L 0.202187 0.327578 L 0.20668 0.323125 L 0.211133 0.318633 L 0.20668 0.314141 L 0.20668 0.309687 L 0.211133 0.305195 L 0.220117 0.305195 L 0.22457 0.300703 L 0.229063 0.300703 L 0.233555 0.29625 L 0.238008 0.291758 L 0.238008 0.287266 L 0.2425 0.282812 L 0.251445 0.282812 L 0.255937 0.27832 L 0.255937 0.269375 L 0.251445 0.264883 L 0.251445 0.255937 L 0.255937 0.255937 L 0.26043 0.251445 L 0.264883 0.251445 L 0.269375 0.246992 L 0.273828 0.2425 L 0.273828 0.238008 L 0.282813 0.238008 L 0.291758 0.229062 L 0.291758 0.220117 L 0.318633 0.220117 L 0.323125 0.215625 L 0.323125 0.202187 L 0.327578 0.197734 L 0.345508 0.197734 L 0.349961 0.193242 L 0.354453 0.18875 L 0.358945 0.184297 L 0.363398 0.179805 L 0.372383 0.179805 L 0.376836 0.184297 L 0.381328 0.184297 L 0.38582 0.179805 L 0.38582 0.175312 L 0.421641 0.175312 L 0.426094 0.170859 L 0.426094 0.166367 L 0.430586 0.166367 L 0.435078 0.170859 L 0.466406 0.170859 L 0.470898 0.166367 L 0.470898 0.161875 L 0.466406 0.157422 L 0.479844 0.157422 L 0.484336 0.161875 L 0.493281 0.161875 L 0.497773 0.166367 L 0.515664 0.166367 L 0.520156 0.161875 L 0.520156 0.15293 L 0.524648 0.15293 L 0.529102 0.157422 L 0.555977 0.157422 L 0.560469 0.161875 L 0.564922 0.161875 L 0.569414 0.157422 L 0.569414 0.15293 L 0.573906 0.157422 L 0.578359 0.157422 L 0.582852 0.161875 L 0.587344 0.166367 L 0.591797 0.166367 L 0.596289 0.170859 L 0.600742 0.170859 L 0.605234 0.175312 L 0.609727 0.175312 L 0.61418 0.170859 L 0.61418 0.166367 L 0.618672 0.170859 L 0.623164 0.170859 L 0.627617 0.175312 L 0.636602 0.175312 L 0.641055 0.179805 L 0.645547 0.179805 L 0.650039 0.184297 L 0.654492 0.184297 L 0.658984 0.18875 L 0.663477 0.193242 L 0.66793 0.197734 L 0.672422 0.202187 L 0.676875 0.20668 L 0.685859 0.20668 L 0.690313 0.211133 L 0.690313 0.215625 L 0.694805 0.220117 L 0.699297 0.22457 L 0.699297 0.229062 L 0.70375 0.233555 L 0.708242 0.238008 L 0.712734 0.2425 L 0.717188 0.246992 L 0.72168 0.246992 L 0.726172 0.2425 L 0.726172 0.238008 L 0.730625 0.238008 L 0.735117 0.2425 L 0.73957 0.246992 L 0.744063 0.251445 L 0.753008 0.251445 L 0.761992 0.26043 L 0.761992 0.264883 L 0.766445 0.269375 L 0.770938 0.273828 L 0.77543 0.269375 L 0.77543 0.273828 L 0.779883 0.27832 L 0.784375 0.282812 L 0.784375 0.287266 L 0.788867 0.291758 L 0.788867 0.300703 L 0.79332 0.305195 L 0.797813 0.300703 L 0.797813 0.336523 L 0.802266 0.341016 L 0.802266 0.390273 L 0.797813 0.394766 L 0.797813 0.417148 L 0.79332 0.421641 L 0.79332 0.426094 L 0.788867 0.430586 L 0.788867 0.439531 L 0.779883 0.448516 L 0.779883 0.452969 L 0.77543 0.457461 L 0.77543 0.461953 L 0.770938 0.466406 L 0.770938 0.470898 L 0.766445 0.475352 L 0.761992 0.479844 L 0.761992 0.484336 L 0.7575 0.488789 L 0.753008 0.488789 L 0.748555 0.493281 L 0.744063 0.497773 L 0.73957 0.502227 L 0.744063 0.506719 L 0.748555 0.506719 L 0.753008 0.511211 L 0.7575 0.511211 L 0.761992 0.515664 L 0.766445 0.515664 L 0.770938 0.520156 L 0.784375 0.520156 L 0.788867 0.524648 L 0.797813 0.524648 L 0.802266 0.529102 L 0.806758 0.529102 L 0.81125 0.533594 L 0.815703 0.533594 L 0.820195 0.538047 L 0.824688 0.538047 L 0.829141 0.542539 L 0.833633 0.542539 L 0.838125 0.547031 L 0.842578 0.547031 L 0.84707 0.551484 L 0.851562 0.551484 L 0.856016 0.555977 L 0.864961 0.555977 L 0.869453 0.560469 L 0.873945 0.560469 L 0.878398 0.564922 L 0.887383 0.564922 L 0.891836 0.569414 L 0.90082 0.569414 L 0.905273 0.573906 L 0.909766 0.573906 L 0.914258 0.578359 L 0.936641 0.578359 L 0.941094 0.582852 L 0.945586 0.578359 L 0.950078 0.578359 L 0.954531 0.582852 L 0.950078 0.587344 L 0.945586 0.591797 L 0.941094 0.591797 L 0.936641 0.596289 L 0.932148 0.596289 L 0.927656 0.591797 L 0.918711 0.591797 L 0.914258 0.587344 L 0.905273 0.587344 L 0.90082 0.582852 L 0.891836 0.582852 L 0.887383 0.578359 L 0.882891 0.578359 L 0.878398 0.573906 L 0.873945 0.573906 L 0.869453 0.569414 L 0.864961 0.569414 L 0.860508 0.564922 L 0.856016 0.564922 L 0.851562 0.569414 L 0.851562 0.578359 L 0.856016 0.582852 L 0.856016 0.596289 L 0.860508 0.600742 L 0.860508 0.618672 L 0.856016 0.623164 L 0.856016 0.650039 L 0.84707 0.658984 L 0.84707 0.685859 L 0.842578 0.690313 L 0.842578 0.708242 L 0.838125 0.712734 L 0.838125 0.735117 L 0.838125 0.730625 L 0.833633 0.726172 L 0.829141 0.726172 L 0.824688 0.730625 L 0.824688 0.735117 L 0.820195 0.73957 L 0.820195 0.744063 L 0.815703 0.748555 L 0.815703 0.753008 L 0.81125 0.7575 L 0.806758 0.761992 L 0.802266 0.766445 L 0.797813 0.770938 L 0.797813 0.77543 L 0.79332 0.779883 L 0.79332 0.784375 L 0.79332 0.779883 L 0.788867 0.77543 L 0.784375 0.77543 L 0.779883 0.779883 L 0.779883 0.784375 L 0.77543 0.788867 L 0.770938 0.79332 L 0.744063 0.820195 L 0.735117 0.81125 L 0.730625 0.81125 L 0.712734 0.829141 L 0.708242 0.829141 L 0.70375 0.833633 L 0.699297 0.833633 L 0.694805 0.838125 L 0.690313 0.838125 L 0.685859 0.833633 L 0.681367 0.829141 L 0.676875 0.833633 L 0.672422 0.838125 L 0.658984 0.838125 L 0.654492 0.833633 L 0.650039 0.833633 L 0.645547 0.838125 L 0.618672 0.838125 L 0.61418 0.842578 L 0.609727 0.842578 L 0.605234 0.84707 L 0.605234 0.842578 L 0.600742 0.838125 L 0.600742 0.829141 L 0.591797 0.820195 L 0.587344 0.824688 L 0.582852 0.824688 L 0.578359 0.829141 L 0.569414 0.829141 L 0.564922 0.833633 L 0.555977 0.833633 L 0.551484 0.838125 L 0.547031 0.833633 L 0.542539 0.829141 L 0.538047 0.833633 L 0.533594 0.833633 L 0.529102 0.838125 L 0.524648 0.838125 L 0.520156 0.842578 L 0.515664 0.842578 L 0.511211 0.84707 L 0.506719 0.84707 L 0.506719 0.842578 L 0.502227 0.838125 L 0.497773 0.833633 L 0.493281 0.838125 L 0.484336 0.838125 L 0.479844 0.842578 L 0.470898 0.842578 L 0.470898 0.838125 L 0.466406 0.833633 L 0.426094 0.833633 L 0.426094 0.820195 L 0.421641 0.815703 L 0.417148 0.815703 L 0.412656 0.820195 L 0.408203 0.820195 L 0.403711 0.815703 L 0.399258 0.815703 L 0.394766 0.81125 L 0.38582 0.81125 L 0.381328 0.806758 L 0.363398 0.806758 L 0.363398 0.802266 L 0.367891 0.797813 L 0.367891 0.79332 L 0.363398 0.788867 L 0.341016 0.788867 L 0.336523 0.784375 L 0.323125 0.784375 L 0.318633 0.779883 L 0.309687 0.779883 L 0.314141 0.77543 L 0.314141 0.770938 L 0.309687 0.766445 L 0.305195 0.761992 L 0.291758 0.761992 L 0.287266 0.7575 L 0.273828 0.7575 L 0.269375 0.753008 L 0.264883 0.753008 L 0.264883 0.744063 L 0.26043 0.73957 L 0.255937 0.73957 L 0.251445 0.735117 L 0.2425 0.735117 L 0.238008 0.730625 L 0.233555 0.730625 L 0.229063 0.726172 L 0.215625 0.726172 L 0.211133 0.72168 L 0.215625 0.717187 L 0.211133 0.712734 L 0.215625 0.708242 L 0.202187 0.694805 L 0.197734 0.690313 L 0.197734 0.685859 L 0.18875 0.676875 L 0.18875 0.654492 L 0.184297 0.650039 L 0.184297 0.645547 L 0.179805 0.641055 L 0.175313 0.636602 L 0.175313 0.623164 L 0.179805 0.618672 L 0.179805 0.61418 L 0.175313 0.609727 L 0.170859 0.605234 L 0.170859 0.600742 L 0.166367 0.596289 L 0.161875 0.591797 L 0.157422 0.591797 L 0.166367 0.582852 L 0.166367 0.578359 L 0.170859 0.573906 L 0.170859 0.564922 L 0.166367 0.560469 L 0.166367 0.555977 L 0.161875 0.551484 L 0.161875 0.538047 L 0.166367 0.533594 L 0.161875 0.529102 L 0.161875 0.524648 L 0.157422 0.520156 L 0.157422 0.515664 L 0.15293 0.511211 L 0.148438 0.506719 L 0.143984 0.502227 L 0.148438 0.497773 L 0.148438 0.493281 L 0.143984 0.488789 L 0.143984 0.475352 L 0.139492 0.470898 L 0.135039 0.470898 L 0.135039 0.466406 L 0.139492 0.466406 L 0.143984 0.461953 L 0.139492 0.457461 L 0.135039 0.452969 L 0.130547 0.452969 L 0.126055 0.448516 L 0.121602 0.444023 L 0.117109 0.444023 L 0.112617 0.439531 L 0.108164 0.439531 L 0.103672 0.435078 L 0.0991797 0.430586 L 0.0947266 0.426094 L 0.0902344 0.426094 L 0.0857422 0.421641 L 0.0812891 0.421641 L 0.0767969 0.417148 L 0.0723437 0.417148 L 0.0678516 0.412656 L 0.0454688 0.412656 L 0.0454688 0.408203 Z M 0.0454688 0.403711 " transform="matrix(100,0,0,100,450,350)"/>
<path style="fill:none;stroke-width:0.01;stroke-linecap:butt;stroke-linejoin:miter;stroke:rgb(0%,0%,0%);stroke-opacity:1;stroke-miterlimit:10;" d="M 0.0454688 0.516445 L 0.0578125 0.516445 L 0.0619141 0.512344 L 0.0701172 0.512344 L 0.0742578 0.508242 L 0.0824609 0.508242 L 0.0866016 0.504102 L 0.0948047 0.504102 L 0.0989453 0.5 L 0.115391 0.5 L 0.119492 0.495898 L 0.123594 0.491758 L 0.127734 0.491758 L 0.131836 0.487656 L 0.131836 0.479414 L 0.135937 0.479414 L 0.140078 0.475313 L 0.14418 0.475313 L 0.148281 0.471211 L 0.148281 0.467109 L 0.14418 0.462969 L 0.148281 0.462969 L 0.152422 0.458867 L 0.156523 0.454766 L 0.156523 0.442422 L 0.160625 0.442422 L 0.172969 0.430078 L 0.17707 0.425938 L 0.17707 0.417734 L 0.181211 0.413633 L 0.185313 0.413633 L 0.189414 0.409492 L 0.189414 0.401289 L 0.193555 0.397148 L 0.197656 0.397148 L 0.201758 0.393047 L 0.205898 0.393047 L 0.21 0.388945 L 0.205898 0.384805 L 0.205898 0.380703 L 0.21 0.380703 L 0.222344 0.368359 L 0.222344 0.364258 L 0.226445 0.360156 L 0.230547 0.360156 L 0.238789 0.351914 L 0.238789 0.347813 L 0.234687 0.343672 L 0.238789 0.347813 L 0.242891 0.347813 L 0.247031 0.343672 L 0.251133 0.343672 L 0.255234 0.33957 L 0.259375 0.335469 L 0.267578 0.335469 L 0.27168 0.331328 L 0.27582 0.327227 L 0.279922 0.327227 L 0.284023 0.323125 L 0.288164 0.319023 L 0.292266 0.314883 L 0.288164 0.310781 L 0.300508 0.310781 L 0.304609 0.30668 L 0.308711 0.302539 L 0.312852 0.302539 L 0.316953 0.30668 L 0.321055 0.302539 L 0.3375 0.302539 L 0.341641 0.298437 L 0.349844 0.298437 L 0.353984 0.302539 L 0.358086 0.298437 L 0.358086 0.294336 L 0.362188 0.294336 L 0.366328 0.298437 L 0.374531 0.298437 L 0.382773 0.290195 L 0.382773 0.286094 L 0.386875 0.290195 L 0.399219 0.290195 L 0.40332 0.286094 L 0.40332 0.277852 L 0.407461 0.277852 L 0.411563 0.281992 L 0.428008 0.281992 L 0.432109 0.286094 L 0.43625 0.281992 L 0.440352 0.277852 L 0.444453 0.281992 L 0.448594 0.286094 L 0.456797 0.286094 L 0.460938 0.281992 L 0.465039 0.286094 L 0.469141 0.286094 L 0.473281 0.290195 L 0.481484 0.290195 L 0.485586 0.286094 L 0.489727 0.290195 L 0.493828 0.294336 L 0.49793 0.294336 L 0.50207 0.298437 L 0.506172 0.294336 L 0.510273 0.294336 L 0.514414 0.298437 L 0.518516 0.298437 L 0.522617 0.302539 L 0.539062 0.302539 L 0.543203 0.30668 L 0.547305 0.30668 L 0.551406 0.310781 L 0.555547 0.310781 L 0.559648 0.314883 L 0.56375 0.314883 L 0.567891 0.310781 L 0.571992 0.314883 L 0.576094 0.319023 L 0.580195 0.323125 L 0.584336 0.327227 L 0.588438 0.331328 L 0.59668 0.331328 L 0.600781 0.335469 L 0.604883 0.33957 L 0.613125 0.33957 L 0.625469 0.351914 L 0.625469 0.356016 L 0.62957 0.360156 L 0.633672 0.364258 L 0.633672 0.368359 L 0.637812 0.372461 L 0.641914 0.376602 L 0.646016 0.376602 L 0.646016 0.384805 L 0.650156 0.388945 L 0.650156 0.393047 L 0.654258 0.397148 L 0.654258 0.401289 L 0.658359 0.405391 L 0.658359 0.409492 L 0.6625 0.413633 L 0.6625 0.421836 L 0.666602 0.425938 L 0.666602 0.430078 L 0.670703 0.43418 L 0.674844 0.438281 L 0.674844 0.442422 L 0.678945 0.446523 L 0.678945 0.450625 L 0.683047 0.454766 L 0.687148 0.458867 L 0.687148 0.462969 L 0.691289 0.467109 L 0.691289 0.471211 L 0.695391 0.475313 L 0.695391 0.483555 L 0.699492 0.487656 L 0.703633 0.491758 L 0.707734 0.491758 L 0.711836 0.495898 L 0.72418 0.495898 L 0.72832 0.5 L 0.773555 0.5 L 0.777656 0.504102 L 0.802344 0.504102 L 0.806445 0.508242 L 0.843477 0.508242 L 0.847578 0.512344 L 0.888711 0.512344 L 0.892852 0.516445 L 0.925742 0.516445 L 0.929883 0.512344 L 0.954531 0.512344 L 0.95043 0.512344 L 0.938086 0.524687 L 0.896953 0.524687 L 0.892852 0.520586 L 0.868164 0.520586 L 0.864063 0.516445 L 0.843477 0.516445 L 0.839375 0.512344 L 0.798242 0.512344 L 0.794102 0.508242 L 0.720078 0.508242 L 0.715977 0.512344 L 0.715977 0.516445 L 0.720078 0.520586 L 0.720078 0.524687 L 0.72418 0.528789 L 0.72832 0.532891 L 0.72832 0.537031 L 0.732422 0.541133 L 0.732422 0.545234 L 0.736523 0.549375 L 0.736523 0.561719 L 0.740625 0.56582 L 0.740625 0.569922 L 0.736523 0.574063 L 0.72832 0.582266 L 0.72832 0.586367 L 0.72418 0.590508 L 0.720078 0.590508 L 0.715977 0.594609 L 0.715977 0.598711 L 0.707734 0.606953 L 0.707734 0.611055 L 0.703633 0.615195 L 0.699492 0.619297 L 0.695391 0.623398 L 0.691289 0.627539 L 0.687148 0.631641 L 0.683047 0.635742 L 0.683047 0.639844 L 0.678945 0.643984 L 0.674844 0.643984 L 0.670703 0.648086 L 0.658359 0.648086 L 0.654258 0.652188 L 0.650156 0.656328 L 0.650156 0.668672 L 0.646016 0.668672 L 0.637812 0.676875 L 0.633672 0.676875 L 0.62957 0.680977 L 0.625469 0.685117 L 0.621367 0.685117 L 0.617227 0.689219 L 0.613125 0.69332 L 0.604883 0.69332 L 0.600781 0.697461 L 0.59668 0.701562 L 0.592539 0.701562 L 0.588438 0.705664 L 0.584336 0.709805 L 0.571992 0.709805 L 0.567891 0.713906 L 0.56375 0.713906 L 0.559648 0.718008 L 0.555547 0.713906 L 0.551406 0.709805 L 0.547305 0.713906 L 0.539062 0.713906 L 0.534961 0.718008 L 0.522617 0.718008 L 0.518516 0.722148 L 0.518516 0.718008 L 0.514414 0.713906 L 0.510273 0.718008 L 0.493828 0.718008 L 0.489727 0.722148 L 0.485586 0.722148 L 0.485586 0.718008 L 0.481484 0.713906 L 0.477383 0.713906 L 0.473281 0.718008 L 0.465039 0.718008 L 0.460938 0.713906 L 0.456797 0.709805 L 0.452695 0.709805 L 0.448594 0.713906 L 0.440352 0.713906 L 0.43625 0.718008 L 0.43625 0.713906 L 0.432109 0.709805 L 0.428008 0.713906 L 0.419805 0.713906 L 0.415664 0.718008 L 0.395117 0.718008 L 0.390977 0.722148 L 0.386875 0.722148 L 0.382773 0.718008 L 0.37043 0.718008 L 0.366328 0.713906 L 0.358086 0.713906 L 0.353984 0.709805 L 0.341641 0.709805 L 0.341641 0.705664 L 0.3375 0.701562 L 0.321055 0.701562 L 0.316953 0.697461 L 0.312852 0.69332 L 0.300508 0.69332 L 0.296367 0.689219 L 0.296367 0.685117 L 0.292266 0.680977 L 0.284023 0.680977 L 0.279922 0.676875 L 0.27582 0.676875 L 0.27582 0.668672 L 0.27168 0.664531 L 0.267578 0.664531 L 0.263477 0.66043 L 0.259375 0.66043 L 0.259375 0.656328 L 0.255234 0.652188 L 0.251133 0.652188 L 0.251133 0.648086 L 0.247031 0.643984 L 0.234687 0.643984 L 0.234687 0.635742 L 0.230547 0.631641 L 0.222344 0.631641 L 0.222344 0.623398 L 0.218242 0.619297 L 0.21 0.619297 L 0.205898 0.615195 L 0.201758 0.615195 L 0.201758 0.611055 L 0.181211 0.590508 L 0.181211 0.586367 L 0.17707 0.582266 L 0.172969 0.582266 L 0.168867 0.578164 L 0.160625 0.578164 L 0.156523 0.574063 L 0.156523 0.569922 L 0.152422 0.56582 L 0.148281 0.561719 L 0.14418 0.557578 L 0.14418 0.549375 L 0.140078 0.545234 L 0.135937 0.545234 L 0.131836 0.541133 L 0.131836 0.537031 L 0.127734 0.532891 L 0.119492 0.532891 L 0.119492 0.528789 L 0.115391 0.524687 L 0.107148 0.524687 L 0.103047 0.520586 L 0.0495703 0.520586 Z M 0.0454688 0.516445 " transform="matrix(100,0,0,100,600,350)"/>
</g>
</svg>
