<?xml version="1.0" encoding="UTF-8"?>
<svg xmlns="http://www.w3.org/2000/svg" xmlns:xlink="http://www.w3.org/1999/xlink" width="750pt" height="2800pt" viewBox="0 0 750 2800" version="1.1">
<g id="surface1">
<path style="fill:none;stroke-width:0.01;stroke-linecap:butt;stroke-linejoin:miter;stroke:rgb(0%,0%,0%);stroke-opacity:1;stroke-miterlimit:10;" d="M 0.0454688 0.60457 L 0.0497266 0.600313 L 0.0539844 0.596016 L 0.0582422 0.591758 L 0.0625391 0.5875 L 0.0667969 0.583242 L 0.0667969 0.578945 L 0.0710547 0.578945 L 0.0753125 0.574688 L 0.0796094 0.57043 L 0.0796094 0.566172 L 0.0838672 0.561875 L 0.088125 0.557617 L 0.0924219 0.553359 L 0.0966797 0.549102 L 0.100937 0.544805 L 0.105195 0.540547 L 0.109492 0.536289 L 0.11375 0.531992 L 0.118008 0.531992 L 0.122266 0.527734 L 0.126562 0.523477 L 0.13082 0.519219 L 0.135078 0.519219 L 0.139336 0.514922 L 0.143633 0.510664 L 0.147891 0.506406 L 0.152148 0.506406 L 0.156406 0.502148 L 0.160703 0.502148 L 0.164961 0.497852 L 0.169219 0.493594 L 0.173477 0.493594 L 0.177773 0.489336 L 0.182031 0.485078 L 0.190586 0.485078 L 0.194844 0.480781 L 0.199102 0.476523 L 0.207656 0.476523 L 0.211914 0.472266 L 0.216172 0.472266 L 0.22043 0.468008 L 0.228984 0.468008 L 0.233242 0.463711 L 0.2375 0.463711 L 0.241797 0.459453 L 0.246055 0.455195 L 0.25457 0.455195 L 0.258867 0.450898 L 0.263125 0.450898 L 0.267383 0.446641 L 0.284453 0.446641 L 0.28875 0.442383 L 0.297266 0.442383 L 0.30582 0.433828 L 0.314336 0.433828 L 0.318594 0.42957 L 0.322891 0.42957 L 0.327148 0.425312 L 0.335664 0.425312 L 0.339961 0.421055 L 0.352734 0.421055 L 0.357031 0.416758 L 0.374102 0.416758 L 0.378359 0.4125 L 0.386914 0.4125 L 0.391172 0.408242 L 0.399688 0.408242 L 0.403984 0.403984 L 0.442383 0.403984 L 0.446641 0.399688 L 0.476523 0.399688 L 0.480781 0.39543 L 0.485078 0.39543 L 0.489336 0.399688 L 0.493594 0.399688 L 0.497852 0.39543 L 0.510664 0.39543 L 0.514922 0.399688 L 0.519219 0.39543 L 0.527734 0.39543 L 0.531992 0.399688 L 0.536289 0.399688 L 0.540547 0.39543 L 0.544805 0.39543 L 0.549102 0.399688 L 0.591758 0.399688 L 0.596016 0.403984 L 0.655781 0.403984 L 0.660039 0.408242 L 0.681406 0.408242 L 0.685664 0.4125 L 0.698477 0.4125 L 0.702734 0.416758 L 0.724063 0.416758 L 0.72832 0.421055 L 0.736875 0.421055 L 0.741133 0.425312 L 0.753945 0.425312 L 0.758203 0.42957 L 0.775273 0.42957 L 0.77957 0.433828 L 0.783828 0.433828 L 0.788086 0.438125 L 0.792344 0.438125 L 0.796641 0.442383 L 0.813711 0.442383 L 0.817969 0.446641 L 0.822227 0.446641 L 0.826523 0.450898 L 0.830781 0.450898 L 0.835039 0.455195 L 0.839297 0.455195 L 0.843594 0.459453 L 0.852109 0.459453 L 0.860664 0.468008 L 0.864922 0.468008 L 0.873437 0.476523 L 0.877734 0.480781 L 0.881992 0.480781 L 0.88625 0.485078 L 0.890508 0.489336 L 0.894805 0.493594 L 0.899062 0.497852 L 0.90332 0.502148 L 0.907578 0.506406 L 0.907578 0.510664 L 0.911875 0.514922 L 0.911875 0.519219 L 0.920391 0.527734 L 0.924687 0.531992 L 0.933203 0.531992 L 0.937461 0.536289 L 0.941758 0.540547 L 0.946016 0.540547 L 0.950273 0.544805 L 0.954531 0.549102 L 0.954531 0.553359 L 0.946016 0.553359 L 0.928945 0.536289 L 0.924687 0.536289 L 0.920391 0.531992 L 0.90332 0.531992 L 0.899062 0.536289 L 0.873437 0.536289 L 0.86918 0.540547 L 0.847852 0.540547 L 0.843594 0.544805 L 0.766758 0.544805 L 0.7625 0.549102 L 0.702734 0.549102 L 0.698477 0.553359 L 0.69418 0.549102 L 0.625898 0.549102 L 0.621641 0.544805 L 0.596016 0.544805 L 0.591758 0.540547 L 0.553359 0.540547 L 0.549102 0.536289 L 0.455195 0.536289 L 0.450898 0.531992 L 0.267383 0.531992 L 0.263125 0.527734 L 0.233242 0.527734 L 0.228984 0.531992 L 0.224727 0.531992 L 0.22043 0.527734 L 0.216172 0.527734 L 0.211914 0.531992 L 0.190586 0.531992 L 0.186289 0.536289 L 0.164961 0.536289 L 0.160703 0.540547 L 0.152148 0.540547 L 0.147891 0.544805 L 0.139336 0.544805 L 0.135078 0.549102 L 0.13082 0.549102 L 0.126562 0.553359 L 0.122266 0.553359 L 0.118008 0.557617 L 0.11375 0.557617 L 0.105195 0.566172 L 0.100937 0.566172 L 0.0966797 0.57043 L 0.0924219 0.57043 L 0.088125 0.574688 L 0.0838672 0.578945 L 0.0796094 0.578945 L 0.0667969 0.591758 L 0.0625391 0.591758 L 0.0582422 0.596016 L 0.0539844 0.600313 L 0.0497266 0.60457 Z M 0.0454688 0.60457 " transform="matrix(100,0,0,100,0,200)"/>
<path style="fill:none;stroke-width:0.01;stroke-linecap:butt;stroke-linejoin:miter;stroke:rgb(0%,0%,0%);stroke-opacity:1;stroke-miterlimit:10;" d="M 0.0454687 0.460195 L 0.0538281 0.460195 L 0.0580078 0.464375 L 0.0831641 0.464375 L 0.0873438 0.468594 L 0.0957422 0.468594 L 0.0957422 0.472773 L 0.0999219 0.476953 L 0.108281 0.468594 L 0.120859 0.468594 L 0.125039 0.464375 L 0.154375 0.464375 L 0.158555 0.460195 L 0.175312 0.460195 L 0.179531 0.456016 L 0.225586 0.456016 L 0.229805 0.451836 L 0.250742 0.451836 L 0.254922 0.447617 L 0.2675 0.447617 L 0.27168 0.443437 L 0.301016 0.443437 L 0.305195 0.439258 L 0.338711 0.439258 L 0.342891 0.435078 L 0.372227 0.435078 L 0.376406 0.430859 L 0.401563 0.430859 L 0.405742 0.42668 L 0.409922 0.430859 L 0.414102 0.430859 L 0.41832 0.42668 L 0.539805 0.42668 L 0.543984 0.430859 L 0.548164 0.42668 L 0.552383 0.42668 L 0.556563 0.430859 L 0.602656 0.430859 L 0.606836 0.435078 L 0.673867 0.435078 L 0.678047 0.439258 L 0.698984 0.439258 L 0.703203 0.443437 L 0.72832 0.443437 L 0.7325 0.447617 L 0.753437 0.447617 L 0.757656 0.451836 L 0.770195 0.451836 L 0.774414 0.456016 L 0.786953 0.456016 L 0.791172 0.460195 L 0.80793 0.460195 L 0.812109 0.464375 L 0.828867 0.464375 L 0.833047 0.468594 L 0.837227 0.472773 L 0.853984 0.472773 L 0.858203 0.476953 L 0.862383 0.476953 L 0.866563 0.481133 L 0.874961 0.481133 L 0.879141 0.485352 L 0.88332 0.485352 L 0.8875 0.489531 L 0.891719 0.489531 L 0.895898 0.493711 L 0.925234 0.493711 L 0.929414 0.489531 L 0.933594 0.489531 L 0.937773 0.485352 L 0.941992 0.485352 L 0.946172 0.481133 L 0.950352 0.485352 L 0.954531 0.485352 L 0.954531 0.489531 L 0.946172 0.489531 L 0.941992 0.493711 L 0.933594 0.493711 L 0.929414 0.497891 L 0.908477 0.497891 L 0.904258 0.502109 L 0.900078 0.502109 L 0.891719 0.510469 L 0.8875 0.514648 L 0.88332 0.514648 L 0.879141 0.518867 L 0.874961 0.518867 L 0.870742 0.523047 L 0.866563 0.523047 L 0.862383 0.527227 L 0.853984 0.527227 L 0.849805 0.531406 L 0.841445 0.531406 L 0.837227 0.535625 L 0.828867 0.535625 L 0.824688 0.539805 L 0.816289 0.539805 L 0.812109 0.543984 L 0.799531 0.543984 L 0.795352 0.548164 L 0.791172 0.548164 L 0.786953 0.552383 L 0.782773 0.552383 L 0.778594 0.548164 L 0.774414 0.552383 L 0.770195 0.552383 L 0.766016 0.556563 L 0.749258 0.556563 L 0.745078 0.560742 L 0.7325 0.560742 L 0.72832 0.564922 L 0.698984 0.564922 L 0.694805 0.569141 L 0.669688 0.569141 L 0.665469 0.57332 L 0.661289 0.57332 L 0.657109 0.569141 L 0.648711 0.569141 L 0.644531 0.57332 L 0.640352 0.569141 L 0.631953 0.569141 L 0.627773 0.57332 L 0.623594 0.57332 L 0.619414 0.569141 L 0.606836 0.569141 L 0.602656 0.57332 L 0.594258 0.57332 L 0.590078 0.569141 L 0.564922 0.569141 L 0.560742 0.57332 L 0.556563 0.569141 L 0.506289 0.569141 L 0.502109 0.564922 L 0.464375 0.564922 L 0.460195 0.560742 L 0.443438 0.560742 L 0.439258 0.556563 L 0.41832 0.556563 L 0.414102 0.552383 L 0.393164 0.552383 L 0.388984 0.548164 L 0.376406 0.548164 L 0.372227 0.543984 L 0.363828 0.543984 L 0.359648 0.539805 L 0.330313 0.539805 L 0.326133 0.535625 L 0.301016 0.535625 L 0.296797 0.531406 L 0.284258 0.531406 L 0.280078 0.527227 L 0.254922 0.527227 L 0.250742 0.523047 L 0.242344 0.523047 L 0.238164 0.518867 L 0.229805 0.518867 L 0.225586 0.514648 L 0.204648 0.514648 L 0.200469 0.510469 L 0.19207 0.510469 L 0.187891 0.506289 L 0.183711 0.506289 L 0.179531 0.502109 L 0.166953 0.502109 L 0.162773 0.497891 L 0.158555 0.497891 L 0.154375 0.493711 L 0.146016 0.493711 L 0.141797 0.489531 L 0.120859 0.489531 L 0.11668 0.485352 L 0.0999219 0.485352 L 0.0957422 0.481133 L 0.0915234 0.481133 L 0.0873438 0.476953 L 0.0747656 0.476953 L 0.0664062 0.468594 L 0.0580078 0.468594 L 0.0538281 0.464375 L 0.0496484 0.464375 Z M 0.0454687 0.460195 " transform="matrix(100,0,0,100,150,200)"/>
<path style="fill:none;stroke-width:0.01;stroke-linecap:butt;stroke-linejoin:miter;stroke:rgb(0%,0%,0%);stroke-opacity:1;stroke-miterlimit:10;" d="M 0.0454687 0.416445 L 0.0535938 0.42457 L 0.0576953 0.42457 L 0.0617578 0.428672 L 0.0699219 0.428672 L 0.0739844 0.432734 L 0.0821484 0.432734 L 0.0862109 0.436797 L 0.102539 0.436797 L 0.106602 0.440898 L 0.118828 0.440898 L 0.12293 0.444961 L 0.126992 0.440898 L 0.135156 0.440898 L 0.139219 0.444961 L 0.175898 0.444961 L 0.18 0.449023 L 0.371602 0.449023 L 0.375664 0.453125 L 0.379727 0.453125 L 0.383828 0.449023 L 0.396055 0.449023 L 0.400117 0.453125 L 0.497969 0.453125 L 0.502031 0.449023 L 0.506133 0.453125 L 0.510195 0.453125 L 0.514258 0.449023 L 0.59582 0.449023 L 0.599883 0.453125 L 0.608047 0.453125 L 0.612109 0.449023 L 0.705859 0.449023 L 0.709961 0.453125 L 0.734414 0.453125 L 0.738477 0.457187 L 0.754805 0.457187 L 0.758867 0.461289 L 0.791484 0.461289 L 0.795547 0.465352 L 0.811875 0.465352 L 0.815937 0.469414 L 0.824102 0.469414 L 0.828164 0.473516 L 0.848555 0.473516 L 0.852617 0.477578 L 0.868945 0.477578 L 0.873008 0.481641 L 0.881172 0.481641 L 0.885234 0.485742 L 0.889336 0.485742 L 0.893398 0.489805 L 0.897461 0.489805 L 0.901563 0.493867 L 0.909687 0.493867 L 0.913789 0.489805 L 0.926016 0.489805 L 0.93418 0.481641 L 0.938242 0.481641 L 0.942305 0.477578 L 0.946406 0.473516 L 0.954531 0.473516 L 0.954531 0.477578 L 0.950469 0.477578 L 0.942305 0.485742 L 0.93418 0.485742 L 0.930078 0.489805 L 0.926016 0.489805 L 0.921914 0.493867 L 0.917852 0.493867 L 0.913789 0.497969 L 0.905625 0.497969 L 0.889336 0.514258 L 0.885234 0.514258 L 0.881172 0.518359 L 0.87707 0.522422 L 0.873008 0.522422 L 0.860781 0.534648 L 0.856719 0.534648 L 0.852617 0.538711 L 0.844492 0.538711 L 0.840391 0.542813 L 0.836328 0.542813 L 0.832266 0.546875 L 0.824102 0.546875 L 0.82 0.550977 L 0.811875 0.550977 L 0.807773 0.555039 L 0.795547 0.555039 L 0.791484 0.559102 L 0.779258 0.559102 L 0.775156 0.563203 L 0.76293 0.563203 L 0.758867 0.567266 L 0.742578 0.567266 L 0.738477 0.571328 L 0.730313 0.571328 L 0.72625 0.57543 L 0.66918 0.57543 L 0.665117 0.579492 L 0.542813 0.579492 L 0.538711 0.583555 L 0.534648 0.579492 L 0.526484 0.579492 L 0.522422 0.583555 L 0.518359 0.583555 L 0.514258 0.579492 L 0.469414 0.579492 L 0.465352 0.57543 L 0.428672 0.57543 L 0.42457 0.571328 L 0.412344 0.571328 L 0.408281 0.567266 L 0.387891 0.567266 L 0.383828 0.563203 L 0.371602 0.563203 L 0.3675 0.559102 L 0.359375 0.559102 L 0.355273 0.555039 L 0.347109 0.555039 L 0.343047 0.550977 L 0.33082 0.550977 L 0.326758 0.546875 L 0.314531 0.546875 L 0.31043 0.542813 L 0.302266 0.542813 L 0.298203 0.538711 L 0.294141 0.538711 L 0.290039 0.534648 L 0.277813 0.534648 L 0.27375 0.530586 L 0.269687 0.526484 L 0.257422 0.526484 L 0.253359 0.522422 L 0.245195 0.522422 L 0.241133 0.518359 L 0.23707 0.514258 L 0.228906 0.514258 L 0.224844 0.510195 L 0.220742 0.510195 L 0.21668 0.506133 L 0.208516 0.506133 L 0.204453 0.502031 L 0.200352 0.502031 L 0.196289 0.497969 L 0.188125 0.497969 L 0.184063 0.493867 L 0.18 0.493867 L 0.175898 0.489805 L 0.167734 0.489805 L 0.163672 0.485742 L 0.159609 0.481641 L 0.155508 0.481641 L 0.151445 0.477578 L 0.143281 0.477578 L 0.139219 0.473516 L 0.135156 0.469414 L 0.126992 0.469414 L 0.12293 0.465352 L 0.118828 0.461289 L 0.114766 0.461289 L 0.110664 0.457187 L 0.106602 0.457187 L 0.102539 0.453125 L 0.0984375 0.453125 L 0.094375 0.449023 L 0.0903125 0.449023 L 0.0862109 0.444961 L 0.0821484 0.440898 L 0.0780859 0.440898 L 0.0739844 0.436797 L 0.0699219 0.436797 L 0.0658203 0.432734 L 0.0617578 0.432734 L 0.0535938 0.42457 L 0.0495313 0.42457 L 0.0454687 0.420508 Z M 0.0454687 0.416445 " transform="matrix(100,0,0,100,300,200)"/>
<path style="fill:none;stroke-width:0.01;stroke-linecap:butt;stroke-linejoin:miter;stroke:rgb(0%,0%,0%);stroke-opacity:1;stroke-miterlimit:10;" d="M 0.0454688 0.420508 L 0.0658203 0.420508 L 0.0699219 0.42457 L 0.0780859 0.42457 L 0.0821484 0.428672 L 0.106602 0.428672 L 0.110664 0.432734 L 0.139219 0.432734 L 0.143281 0.436797 L 0.151445 0.436797 L 0.155508 0.440898 L 0.23707 0.440898 L 0.241133 0.444961 L 0.245195 0.440898 L 0.249297 0.444961 L 0.31043 0.444961 L 0.314531 0.449023 L 0.318594 0.444961 L 0.322656 0.444961 L 0.326758 0.449023 L 0.33082 0.449023 L 0.334883 0.444961 L 0.338984 0.449023 L 0.347109 0.449023 L 0.351211 0.444961 L 0.436797 0.444961 L 0.440898 0.440898 L 0.510195 0.440898 L 0.514258 0.436797 L 0.518359 0.436797 L 0.522422 0.440898 L 0.628398 0.440898 L 0.6325 0.444961 L 0.640625 0.444961 L 0.644727 0.449023 L 0.661016 0.449023 L 0.665117 0.453125 L 0.68957 0.453125 L 0.693633 0.457187 L 0.701797 0.457187 L 0.705859 0.461289 L 0.709961 0.457187 L 0.714023 0.461289 L 0.722188 0.461289 L 0.72625 0.465352 L 0.742578 0.465352 L 0.746641 0.469414 L 0.754805 0.469414 L 0.758867 0.473516 L 0.76293 0.469414 L 0.767031 0.473516 L 0.771094 0.473516 L 0.775156 0.477578 L 0.787422 0.477578 L 0.791484 0.481641 L 0.795547 0.481641 L 0.799648 0.485742 L 0.807773 0.485742 L 0.811875 0.489805 L 0.815938 0.493867 L 0.824102 0.493867 L 0.828164 0.497969 L 0.836328 0.497969 L 0.844492 0.506133 L 0.848555 0.506133 L 0.852617 0.510195 L 0.856719 0.514258 L 0.860781 0.514258 L 0.864844 0.518359 L 0.868945 0.522422 L 0.873008 0.522422 L 0.881172 0.530586 L 0.881172 0.534648 L 0.885234 0.538711 L 0.921914 0.538711 L 0.926016 0.542813 L 0.930078 0.538711 L 0.946406 0.538711 L 0.950469 0.542813 L 0.954531 0.546875 L 0.950469 0.550977 L 0.942305 0.550977 L 0.938242 0.546875 L 0.93418 0.550977 L 0.930078 0.550977 L 0.926016 0.546875 L 0.901562 0.546875 L 0.897461 0.542813 L 0.873008 0.542813 L 0.868945 0.546875 L 0.864844 0.546875 L 0.860781 0.550977 L 0.852617 0.550977 L 0.848555 0.555039 L 0.832266 0.555039 L 0.828164 0.559102 L 0.815938 0.559102 L 0.811875 0.563203 L 0.799648 0.563203 L 0.795547 0.567266 L 0.758867 0.567266 L 0.754805 0.571328 L 0.722188 0.571328 L 0.718086 0.57543 L 0.644727 0.57543 L 0.640625 0.579492 L 0.59582 0.579492 L 0.591719 0.57543 L 0.583555 0.57543 L 0.579492 0.579492 L 0.57543 0.57543 L 0.477578 0.57543 L 0.473516 0.571328 L 0.416445 0.571328 L 0.412344 0.567266 L 0.379727 0.567266 L 0.375664 0.563203 L 0.355273 0.563203 L 0.351211 0.559102 L 0.347109 0.559102 L 0.343047 0.555039 L 0.314531 0.555039 L 0.31043 0.550977 L 0.298203 0.550977 L 0.294141 0.546875 L 0.290039 0.546875 L 0.285977 0.542813 L 0.277813 0.542813 L 0.27375 0.538711 L 0.265586 0.538711 L 0.261523 0.534648 L 0.249297 0.534648 L 0.245195 0.530586 L 0.241133 0.530586 L 0.23707 0.526484 L 0.228906 0.526484 L 0.224844 0.522422 L 0.220742 0.522422 L 0.21668 0.518359 L 0.208516 0.518359 L 0.204453 0.514258 L 0.200352 0.514258 L 0.196289 0.510195 L 0.192227 0.510195 L 0.188125 0.506133 L 0.18 0.506133 L 0.171836 0.497969 L 0.167734 0.497969 L 0.163672 0.493867 L 0.159609 0.489805 L 0.155508 0.485742 L 0.147383 0.485742 L 0.135156 0.473516 L 0.131055 0.473516 L 0.126992 0.469414 L 0.12293 0.465352 L 0.118828 0.465352 L 0.114766 0.461289 L 0.110664 0.461289 L 0.106602 0.457187 L 0.102539 0.457187 L 0.0984375 0.453125 L 0.094375 0.449023 L 0.0903125 0.449023 L 0.0862109 0.444961 L 0.0821484 0.440898 L 0.0780859 0.440898 L 0.0739844 0.436797 L 0.0699219 0.436797 L 0.0658203 0.432734 L 0.0617578 0.432734 L 0.0576953 0.428672 L 0.0535938 0.428672 L 0.0495313 0.42457 Z M 0.0454688 0.420508 " transform="matrix(100,0,0,100,450,200)"/>
<path style="fill:none;stroke-width:0.01;stroke-linecap:butt;stroke-linejoin:miter;stroke:rgb(0%,0%,0%);stroke-opacity:1;stroke-miterlimit:10;" d="M 0.0454688 0.429922 L 0.0534766 0.43793 L 0.0534766 0.441914 L 0.0574609 0.445937 L 0.0614844 0.449922 L 0.0654687 0.449922 L 0.0694922 0.453945 L 0.0734766 0.457969 L 0.0775 0.457969 L 0.0814844 0.461953 L 0.0894922 0.461953 L 0.0935156 0.465977 L 0.105508 0.465977 L 0.109531 0.469961 L 0.113555 0.465977 L 0.145586 0.465977 L 0.14957 0.469961 L 0.153594 0.469961 L 0.157578 0.465977 L 0.161602 0.469961 L 0.165586 0.469961 L 0.169609 0.465977 L 0.213672 0.465977 L 0.217656 0.461953 L 0.245703 0.461953 L 0.249688 0.457969 L 0.265703 0.457969 L 0.269727 0.453945 L 0.29375 0.453945 L 0.297773 0.449922 L 0.313789 0.449922 L 0.317773 0.445937 L 0.333789 0.445937 L 0.337813 0.441914 L 0.385859 0.441914 L 0.389883 0.43793 L 0.465977 0.43793 L 0.469961 0.433906 L 0.522031 0.433906 L 0.526016 0.429922 L 0.546055 0.429922 L 0.550078 0.425898 L 0.554063 0.429922 L 0.558086 0.429922 L 0.56207 0.425898 L 0.686211 0.425898 L 0.690234 0.429922 L 0.714258 0.429922 L 0.718281 0.433906 L 0.730273 0.433906 L 0.734297 0.43793 L 0.75832 0.43793 L 0.762305 0.441914 L 0.774336 0.441914 L 0.77832 0.445937 L 0.790352 0.445937 L 0.794336 0.449922 L 0.806367 0.449922 L 0.810391 0.453945 L 0.818398 0.453945 L 0.822383 0.457969 L 0.830391 0.457969 L 0.834414 0.461953 L 0.838398 0.461953 L 0.842422 0.465977 L 0.85043 0.465977 L 0.854414 0.469961 L 0.858437 0.469961 L 0.862422 0.473984 L 0.866445 0.473984 L 0.874453 0.481992 L 0.878438 0.481992 L 0.882461 0.485977 L 0.886445 0.49 L 0.926523 0.49 L 0.930508 0.485977 L 0.950547 0.485977 L 0.954531 0.49 L 0.950547 0.493984 L 0.910508 0.493984 L 0.906484 0.498008 L 0.9025 0.493984 L 0.890469 0.493984 L 0.882461 0.501992 L 0.878438 0.501992 L 0.874453 0.506016 L 0.87043 0.51 L 0.862422 0.51 L 0.858437 0.514023 L 0.854414 0.514023 L 0.85043 0.518008 L 0.834414 0.518008 L 0.830391 0.522031 L 0.822383 0.522031 L 0.818398 0.526016 L 0.806367 0.526016 L 0.802344 0.530039 L 0.798359 0.530039 L 0.794336 0.534023 L 0.790352 0.534023 L 0.786328 0.538047 L 0.75832 0.538047 L 0.754297 0.542031 L 0.746289 0.542031 L 0.742305 0.546055 L 0.730273 0.546055 L 0.726289 0.550078 L 0.718281 0.550078 L 0.714258 0.554063 L 0.694219 0.554063 L 0.690234 0.558086 L 0.650195 0.558086 L 0.646172 0.56207 L 0.630156 0.56207 L 0.626133 0.566094 L 0.622148 0.566094 L 0.618125 0.56207 L 0.614141 0.56207 L 0.610117 0.566094 L 0.582109 0.566094 L 0.578086 0.570078 L 0.481992 0.570078 L 0.477969 0.574102 L 0.389883 0.574102 L 0.385859 0.570078 L 0.357813 0.570078 L 0.353828 0.566094 L 0.34582 0.566094 L 0.341797 0.56207 L 0.329805 0.56207 L 0.325781 0.558086 L 0.305781 0.558086 L 0.301758 0.554063 L 0.29375 0.554063 L 0.289766 0.550078 L 0.277734 0.550078 L 0.273711 0.546055 L 0.261719 0.546055 L 0.257695 0.542031 L 0.245703 0.542031 L 0.24168 0.538047 L 0.237695 0.538047 L 0.233672 0.534023 L 0.225664 0.534023 L 0.22168 0.530039 L 0.213672 0.530039 L 0.209648 0.526016 L 0.201641 0.526016 L 0.197656 0.522031 L 0.193633 0.522031 L 0.189609 0.518008 L 0.185625 0.518008 L 0.181602 0.514023 L 0.173594 0.514023 L 0.169609 0.51 L 0.165586 0.51 L 0.161602 0.506016 L 0.153594 0.506016 L 0.14957 0.501992 L 0.137578 0.501992 L 0.133555 0.498008 L 0.12957 0.498008 L 0.125547 0.493984 L 0.121563 0.493984 L 0.117539 0.49 L 0.113555 0.49 L 0.109531 0.485977 L 0.101523 0.485977 L 0.0975 0.481992 L 0.0935156 0.477969 L 0.0894922 0.477969 L 0.0814844 0.469961 L 0.0775 0.469961 L 0.0734766 0.465977 L 0.0694922 0.461953 L 0.0654687 0.457969 L 0.0614844 0.453945 L 0.0534766 0.445937 L 0.0534766 0.441914 L 0.0494531 0.43793 L 0.0454688 0.433906 Z M 0.0454688 0.429922 " transform="matrix(100,0,0,100,600,200)"/>
<path style="fill:none;stroke-width:0.01;stroke-linecap:butt;stroke-linejoin:miter;stroke:rgb(0%,0%,0%);stroke-opacity:1;stroke-miterlimit:10;" d="M 0.0454688 0.431836 L 0.0619922 0.448359 L 0.0661328 0.452461 L 0.0702344 0.456602 L 0.074375 0.456602 L 0.0785156 0.460742 L 0.0826563 0.460742 L 0.0867578 0.464883 L 0.0908984 0.464883 L 0.0950391 0.469023 L 0.10332 0.469023 L 0.107422 0.473125 L 0.115703 0.473125 L 0.119844 0.477266 L 0.14875 0.477266 L 0.152891 0.481406 L 0.235547 0.481406 L 0.239687 0.477266 L 0.293398 0.477266 L 0.297539 0.481406 L 0.301641 0.477266 L 0.326445 0.477266 L 0.330586 0.473125 L 0.334727 0.473125 L 0.338828 0.469023 L 0.355391 0.469023 L 0.359492 0.464883 L 0.376016 0.464883 L 0.380156 0.460742 L 0.40082 0.460742 L 0.404961 0.456602 L 0.409102 0.460742 L 0.413242 0.460742 L 0.417344 0.456602 L 0.433867 0.456602 L 0.438008 0.452461 L 0.475195 0.452461 L 0.479336 0.448359 L 0.495859 0.448359 L 0.5 0.444219 L 0.512383 0.444219 L 0.516523 0.440078 L 0.557852 0.440078 L 0.561992 0.435938 L 0.607422 0.435938 L 0.611563 0.431836 L 0.628086 0.431836 L 0.632227 0.427695 L 0.652891 0.427695 L 0.657031 0.423555 L 0.702461 0.423555 L 0.706602 0.419414 L 0.805781 0.419414 L 0.809922 0.423555 L 0.863633 0.423555 L 0.867773 0.427695 L 0.880156 0.427695 L 0.884297 0.431836 L 0.892578 0.431836 L 0.89668 0.435938 L 0.90082 0.435938 L 0.904961 0.431836 L 0.909102 0.431836 L 0.913242 0.427695 L 0.917344 0.427695 L 0.921484 0.423555 L 0.925625 0.423555 L 0.929766 0.419414 L 0.933867 0.415273 L 0.938008 0.415273 L 0.942148 0.411172 L 0.95043 0.411172 L 0.954531 0.415273 L 0.95043 0.419414 L 0.946289 0.419414 L 0.942148 0.423555 L 0.938008 0.423555 L 0.933867 0.427695 L 0.929766 0.427695 L 0.925625 0.431836 L 0.917344 0.431836 L 0.913242 0.435938 L 0.909102 0.435938 L 0.884297 0.460742 L 0.880156 0.460742 L 0.876016 0.464883 L 0.871914 0.469023 L 0.867773 0.469023 L 0.863633 0.473125 L 0.859492 0.477266 L 0.855391 0.477266 L 0.85125 0.481406 L 0.847109 0.481406 L 0.838828 0.489688 L 0.834727 0.489688 L 0.830586 0.493789 L 0.826445 0.493789 L 0.822305 0.49793 L 0.818164 0.49793 L 0.814063 0.50207 L 0.809922 0.50207 L 0.805781 0.506211 L 0.801641 0.510313 L 0.797539 0.510313 L 0.793398 0.514453 L 0.785117 0.514453 L 0.780977 0.518594 L 0.772734 0.518594 L 0.768594 0.522734 L 0.764453 0.522734 L 0.760313 0.526875 L 0.75207 0.526875 L 0.74793 0.530977 L 0.743789 0.530977 L 0.739688 0.535117 L 0.731406 0.535117 L 0.727266 0.539258 L 0.719023 0.539258 L 0.714883 0.543398 L 0.698359 0.543398 L 0.694219 0.547539 L 0.690078 0.547539 L 0.685937 0.551641 L 0.673555 0.551641 L 0.669414 0.555781 L 0.657031 0.555781 L 0.652891 0.559922 L 0.636367 0.559922 L 0.632227 0.564063 L 0.619844 0.564063 L 0.615703 0.568164 L 0.60332 0.568164 L 0.59918 0.572305 L 0.582656 0.572305 L 0.578516 0.576445 L 0.54957 0.576445 L 0.545469 0.580586 L 0.520664 0.580586 L 0.516523 0.584727 L 0.512383 0.580586 L 0.508281 0.584727 L 0.483477 0.584727 L 0.479336 0.588828 L 0.380156 0.588828 L 0.376016 0.584727 L 0.371914 0.584727 L 0.367773 0.588828 L 0.363633 0.584727 L 0.359492 0.584727 L 0.355391 0.588828 L 0.35125 0.588828 L 0.347109 0.584727 L 0.334727 0.584727 L 0.330586 0.580586 L 0.314063 0.580586 L 0.309922 0.576445 L 0.297539 0.576445 L 0.293398 0.572305 L 0.280977 0.572305 L 0.276875 0.568164 L 0.272734 0.568164 L 0.268594 0.564063 L 0.243789 0.564063 L 0.239687 0.559922 L 0.235547 0.559922 L 0.231406 0.555781 L 0.219023 0.555781 L 0.214883 0.551641 L 0.210742 0.551641 L 0.206602 0.547539 L 0.202461 0.547539 L 0.198359 0.543398 L 0.190078 0.543398 L 0.185938 0.539258 L 0.181836 0.535117 L 0.177695 0.530977 L 0.169414 0.530977 L 0.165273 0.526875 L 0.161172 0.526875 L 0.157031 0.522734 L 0.152891 0.522734 L 0.14875 0.518594 L 0.144609 0.518594 L 0.140508 0.514453 L 0.136367 0.510313 L 0.132227 0.510313 L 0.128086 0.506211 L 0.123984 0.506211 L 0.115703 0.49793 L 0.111563 0.49793 L 0.107422 0.493789 L 0.10332 0.493789 L 0.0991797 0.489688 L 0.0908984 0.481406 L 0.0867578 0.481406 L 0.0826563 0.477266 L 0.0785156 0.473125 L 0.074375 0.469023 L 0.0702344 0.464883 L 0.0661328 0.460742 L 0.0578516 0.452461 L 0.0537109 0.448359 L 0.0495703 0.444219 L 0.0454688 0.440078 L 0.0454688 0.435938 Z M 0.0454688 0.431836 " transform="matrix(100,0,0,100,0,350)"/>
<path style="fill:none;stroke-width:0.01;stroke-linecap:butt;stroke-linejoin:miter;stroke:rgb(0%,0%,0%);stroke-opacity:1;stroke-miterlimit:10;" d="M 0.0454687 0.610078 L 0.0495313 0.605977 L 0.0535938 0.601914 L 0.0576953 0.601914 L 0.0617578 0.597852 L 0.0617578 0.59375 L 0.0658203 0.59375 L 0.0699219 0.589688 L 0.0903125 0.569297 L 0.0903125 0.565234 L 0.094375 0.565234 L 0.0984375 0.561133 L 0.0984375 0.55707 L 0.102539 0.553008 L 0.106602 0.548906 L 0.110664 0.544844 L 0.114766 0.540781 L 0.118828 0.53668 L 0.12293 0.532617 L 0.126992 0.528555 L 0.131055 0.528555 L 0.139219 0.520391 L 0.143281 0.516289 L 0.147383 0.512227 L 0.151445 0.512227 L 0.167734 0.495938 L 0.171836 0.495938 L 0.175898 0.491836 L 0.18 0.491836 L 0.192227 0.479609 L 0.196289 0.479609 L 0.204453 0.471445 L 0.208516 0.471445 L 0.212578 0.467383 L 0.21668 0.467383 L 0.220742 0.46332 L 0.224844 0.46332 L 0.228906 0.459219 L 0.232969 0.459219 L 0.23707 0.455156 L 0.241133 0.455156 L 0.245195 0.451094 L 0.249297 0.451094 L 0.253359 0.446992 L 0.261523 0.446992 L 0.265586 0.44293 L 0.269688 0.44293 L 0.27375 0.438867 L 0.277813 0.438867 L 0.285977 0.430703 L 0.298203 0.430703 L 0.302266 0.426602 L 0.31043 0.426602 L 0.314531 0.422539 L 0.318594 0.422539 L 0.322656 0.418477 L 0.33082 0.418477 L 0.334883 0.414375 L 0.343047 0.414375 L 0.347109 0.410313 L 0.371602 0.410313 L 0.375664 0.40625 L 0.400117 0.40625 L 0.40418 0.402148 L 0.412344 0.402148 L 0.416445 0.398086 L 0.444961 0.398086 L 0.449023 0.394023 L 0.534648 0.394023 L 0.538711 0.389922 L 0.603945 0.389922 L 0.608047 0.394023 L 0.612109 0.389922 L 0.620273 0.389922 L 0.624336 0.394023 L 0.628398 0.389922 L 0.6325 0.394023 L 0.652891 0.394023 L 0.656953 0.398086 L 0.685469 0.398086 L 0.68957 0.402148 L 0.705859 0.402148 L 0.709961 0.40625 L 0.718086 0.40625 L 0.722187 0.410313 L 0.734414 0.410313 L 0.738477 0.414375 L 0.742578 0.414375 L 0.746641 0.418477 L 0.758867 0.418477 L 0.76293 0.422539 L 0.775156 0.422539 L 0.779258 0.426602 L 0.791484 0.426602 L 0.795547 0.430703 L 0.811875 0.430703 L 0.815937 0.434766 L 0.824102 0.434766 L 0.828164 0.438867 L 0.840391 0.438867 L 0.844492 0.44293 L 0.848555 0.44293 L 0.852617 0.446992 L 0.860781 0.446992 L 0.864844 0.451094 L 0.868945 0.451094 L 0.873008 0.455156 L 0.87707 0.455156 L 0.881172 0.459219 L 0.885234 0.46332 L 0.905625 0.46332 L 0.909687 0.467383 L 0.921914 0.467383 L 0.926016 0.471445 L 0.938242 0.471445 L 0.942305 0.475547 L 0.946406 0.475547 L 0.950469 0.471445 L 0.950469 0.467383 L 0.950469 0.471445 L 0.954531 0.475547 L 0.954531 0.483711 L 0.950469 0.487773 L 0.942305 0.487773 L 0.938242 0.483711 L 0.93418 0.479609 L 0.930078 0.479609 L 0.926016 0.475547 L 0.917852 0.475547 L 0.913789 0.471445 L 0.885234 0.471445 L 0.881172 0.475547 L 0.87707 0.475547 L 0.873008 0.479609 L 0.868945 0.479609 L 0.864844 0.483711 L 0.860781 0.483711 L 0.856719 0.487773 L 0.848555 0.487773 L 0.844492 0.491836 L 0.836328 0.491836 L 0.832266 0.495938 L 0.82 0.495938 L 0.815937 0.5 L 0.799648 0.5 L 0.795547 0.504062 L 0.78332 0.504062 L 0.779258 0.508164 L 0.754805 0.508164 L 0.750703 0.512227 L 0.72625 0.512227 L 0.722187 0.516289 L 0.693633 0.516289 L 0.68957 0.520391 L 0.599883 0.520391 L 0.59582 0.524453 L 0.591719 0.524453 L 0.587656 0.520391 L 0.583555 0.520391 L 0.579492 0.524453 L 0.555039 0.524453 L 0.550977 0.520391 L 0.546875 0.520391 L 0.542813 0.524453 L 0.534648 0.524453 L 0.530586 0.520391 L 0.518359 0.520391 L 0.514258 0.524453 L 0.510195 0.520391 L 0.473516 0.520391 L 0.469414 0.516289 L 0.428672 0.516289 L 0.42457 0.520391 L 0.420508 0.516289 L 0.408281 0.516289 L 0.40418 0.520391 L 0.269688 0.520391 L 0.265586 0.524453 L 0.261523 0.520391 L 0.257422 0.524453 L 0.228906 0.524453 L 0.224844 0.528555 L 0.212578 0.528555 L 0.208516 0.532617 L 0.188125 0.532617 L 0.184063 0.53668 L 0.18 0.53668 L 0.175898 0.540781 L 0.163672 0.540781 L 0.159609 0.544844 L 0.151445 0.544844 L 0.143281 0.553008 L 0.135156 0.553008 L 0.131055 0.55707 L 0.126992 0.55707 L 0.118828 0.565234 L 0.114766 0.565234 L 0.110664 0.569297 L 0.106602 0.573398 L 0.102539 0.573398 L 0.0984375 0.577461 L 0.094375 0.581523 L 0.0903125 0.581523 L 0.0821484 0.589688 L 0.0780859 0.589688 L 0.0739844 0.59375 L 0.0699219 0.59375 L 0.0617578 0.601914 L 0.0576953 0.601914 L 0.0535938 0.605977 L 0.0495313 0.605977 Z M 0.0454687 0.610078 " transform="matrix(100,0,0,100,150,350)"/>
<path style="fill:none;stroke-width:0.01;stroke-linecap:butt;stroke-linejoin:miter;stroke:rgb(0%,0%,0%);stroke-opacity:1;stroke-miterlimit:10;" d="M 0.0454687 0.59918 L 0.0495703 0.595039 L 0.0495703 0.586758 L 0.0537109 0.582656 L 0.0537109 0.578516 L 0.0578516 0.574375 L 0.0578516 0.570234 L 0.0619922 0.566133 L 0.0619922 0.561992 L 0.0661328 0.557852 L 0.0661328 0.553711 L 0.0702344 0.54957 L 0.074375 0.545469 L 0.0785156 0.541328 L 0.0785156 0.537187 L 0.0826562 0.533047 L 0.0867578 0.528906 L 0.0908984 0.524805 L 0.0908984 0.520664 L 0.0950391 0.520664 L 0.10332 0.512383 L 0.10332 0.508281 L 0.107422 0.508281 L 0.140508 0.475195 L 0.144609 0.475195 L 0.14875 0.471094 L 0.152891 0.466953 L 0.157031 0.466953 L 0.161172 0.462813 L 0.165273 0.462813 L 0.173555 0.454531 L 0.177695 0.454531 L 0.181836 0.45043 L 0.185938 0.45043 L 0.190078 0.446289 L 0.194219 0.446289 L 0.198359 0.442148 L 0.202461 0.438008 L 0.210742 0.438008 L 0.214883 0.433867 L 0.219023 0.433867 L 0.223125 0.429766 L 0.231406 0.429766 L 0.235547 0.425625 L 0.243789 0.425625 L 0.24793 0.421484 L 0.256211 0.421484 L 0.260312 0.417344 L 0.268594 0.417344 L 0.272734 0.413242 L 0.285117 0.413242 L 0.289258 0.409102 L 0.293398 0.409102 L 0.297539 0.404961 L 0.301641 0.404961 L 0.305781 0.40082 L 0.314062 0.40082 L 0.318164 0.39668 L 0.326445 0.39668 L 0.330586 0.392578 L 0.342969 0.392578 L 0.347109 0.388438 L 0.355391 0.388438 L 0.359492 0.384297 L 0.388438 0.384297 L 0.392578 0.380156 L 0.404961 0.380156 L 0.409102 0.376016 L 0.442148 0.376016 L 0.446289 0.371914 L 0.462813 0.371914 L 0.466953 0.367773 L 0.578516 0.367773 L 0.582656 0.371914 L 0.59918 0.371914 L 0.60332 0.376016 L 0.615703 0.376016 L 0.619844 0.380156 L 0.623984 0.380156 L 0.628086 0.376016 L 0.632227 0.380156 L 0.644609 0.380156 L 0.64875 0.384297 L 0.665273 0.384297 L 0.669414 0.388438 L 0.677695 0.388438 L 0.681836 0.392578 L 0.690078 0.392578 L 0.694219 0.39668 L 0.702461 0.39668 L 0.706602 0.40082 L 0.719023 0.40082 L 0.723125 0.404961 L 0.731406 0.404961 L 0.735547 0.409102 L 0.739688 0.409102 L 0.743789 0.413242 L 0.75207 0.413242 L 0.756211 0.417344 L 0.764453 0.417344 L 0.768594 0.421484 L 0.776875 0.421484 L 0.780977 0.425625 L 0.785117 0.425625 L 0.789258 0.429766 L 0.793398 0.429766 L 0.797539 0.433867 L 0.801641 0.433867 L 0.805781 0.438008 L 0.809922 0.438008 L 0.814062 0.442148 L 0.818164 0.442148 L 0.822305 0.446289 L 0.826445 0.446289 L 0.830586 0.45043 L 0.838828 0.45043 L 0.842969 0.454531 L 0.847109 0.458672 L 0.85125 0.458672 L 0.855391 0.462813 L 0.859492 0.466953 L 0.863633 0.471094 L 0.867773 0.475195 L 0.871914 0.475195 L 0.876016 0.479336 L 0.884297 0.487617 L 0.888438 0.491719 L 0.892578 0.495859 L 0.89668 0.5 L 0.90082 0.504141 L 0.913242 0.504141 L 0.917344 0.508281 L 0.921484 0.508281 L 0.925625 0.512383 L 0.929766 0.512383 L 0.933867 0.516523 L 0.938008 0.516523 L 0.942148 0.520664 L 0.95043 0.520664 L 0.954531 0.524805 L 0.95043 0.528906 L 0.938008 0.528906 L 0.933867 0.524805 L 0.929766 0.524805 L 0.917344 0.512383 L 0.909102 0.512383 L 0.904961 0.508281 L 0.888438 0.508281 L 0.884297 0.512383 L 0.871914 0.512383 L 0.867773 0.516523 L 0.830586 0.516523 L 0.826445 0.520664 L 0.723125 0.520664 L 0.719023 0.524805 L 0.702461 0.524805 L 0.698359 0.520664 L 0.673555 0.520664 L 0.669414 0.524805 L 0.60332 0.524805 L 0.59918 0.520664 L 0.586758 0.520664 L 0.582656 0.516523 L 0.570234 0.516523 L 0.566133 0.512383 L 0.561992 0.512383 L 0.557852 0.516523 L 0.545469 0.516523 L 0.541328 0.512383 L 0.524805 0.512383 L 0.520664 0.516523 L 0.508281 0.516523 L 0.504141 0.520664 L 0.483477 0.520664 L 0.479336 0.524805 L 0.471094 0.524805 L 0.466953 0.528906 L 0.462813 0.524805 L 0.45043 0.524805 L 0.446289 0.528906 L 0.442148 0.524805 L 0.438008 0.524805 L 0.433867 0.528906 L 0.371914 0.528906 L 0.367773 0.533047 L 0.334727 0.533047 L 0.330586 0.537187 L 0.326445 0.537187 L 0.322305 0.533047 L 0.264453 0.533047 L 0.260312 0.537187 L 0.235547 0.537187 L 0.231406 0.541328 L 0.219023 0.541328 L 0.214883 0.537187 L 0.210742 0.537187 L 0.206602 0.541328 L 0.202461 0.537187 L 0.190078 0.537187 L 0.185938 0.533047 L 0.177695 0.533047 L 0.173555 0.537187 L 0.165273 0.537187 L 0.161172 0.541328 L 0.152891 0.541328 L 0.14875 0.545469 L 0.136367 0.545469 L 0.132227 0.54957 L 0.119844 0.54957 L 0.115703 0.553711 L 0.111563 0.553711 L 0.107422 0.557852 L 0.0991797 0.557852 L 0.0908984 0.566133 L 0.0867578 0.570234 L 0.0826562 0.570234 L 0.0785156 0.574375 L 0.074375 0.574375 L 0.0702344 0.578516 L 0.0702344 0.582656 L 0.0537109 0.59918 L 0.0537109 0.60332 L 0.0495703 0.607422 L 0.0495703 0.632227 L 0.0454687 0.628086 L 0.0454687 0.60332 Z M 0.0454687 0.59918 " transform="matrix(100,0,0,100,300,350)"/>
<path style="fill:none;stroke-width:0.01;stroke-linecap:butt;stroke-linejoin:miter;stroke:rgb(0%,0%,0%);stroke-opacity:1;stroke-miterlimit:10;" d="M 0.0454688 0.515547 L 0.0571094 0.515547 L 0.0609766 0.519414 L 0.0765234 0.519414 L 0.0804297 0.515547 L 0.0842969 0.519414 L 0.0882031 0.519414 L 0.0920703 0.515547 L 0.115391 0.515547 L 0.119258 0.511641 L 0.123164 0.511641 L 0.127031 0.507773 L 0.138711 0.507773 L 0.142578 0.503867 L 0.158125 0.503867 L 0.161992 0.5 L 0.181445 0.5 L 0.185313 0.496133 L 0.196953 0.496133 L 0.200859 0.492227 L 0.216406 0.492227 L 0.220273 0.488359 L 0.228047 0.488359 L 0.231953 0.484453 L 0.263008 0.484453 L 0.266914 0.480586 L 0.270781 0.480586 L 0.274687 0.47668 L 0.294102 0.47668 L 0.297969 0.472813 L 0.309648 0.472813 L 0.313516 0.468906 L 0.336836 0.468906 L 0.340703 0.465039 L 0.352383 0.465039 L 0.35625 0.461133 L 0.37957 0.461133 L 0.383438 0.457266 L 0.410664 0.457266 L 0.414531 0.453398 L 0.426172 0.453398 L 0.430078 0.449492 L 0.433945 0.453398 L 0.437852 0.453398 L 0.441719 0.449492 L 0.468906 0.449492 L 0.472812 0.445625 L 0.542734 0.445625 L 0.546602 0.441719 L 0.569922 0.441719 L 0.573828 0.437852 L 0.585469 0.437852 L 0.589336 0.433945 L 0.604883 0.433945 L 0.608789 0.437852 L 0.612656 0.433945 L 0.616562 0.433945 L 0.62043 0.430078 L 0.639844 0.430078 L 0.64375 0.426172 L 0.694258 0.426172 L 0.698125 0.422305 L 0.705898 0.422305 L 0.709805 0.426172 L 0.713672 0.426172 L 0.717578 0.422305 L 0.752539 0.422305 L 0.756406 0.426172 L 0.77582 0.426172 L 0.779727 0.422305 L 0.795273 0.422305 L 0.799141 0.426172 L 0.803047 0.422305 L 0.822461 0.422305 L 0.826328 0.426172 L 0.853555 0.426172 L 0.857422 0.430078 L 0.865195 0.430078 L 0.869063 0.433945 L 0.876836 0.433945 L 0.884609 0.441719 L 0.892383 0.441719 L 0.896289 0.437852 L 0.904023 0.437852 L 0.90793 0.433945 L 0.911797 0.433945 L 0.915703 0.430078 L 0.91957 0.430078 L 0.927344 0.422305 L 0.935117 0.422305 L 0.942891 0.414531 L 0.946758 0.414531 L 0.950664 0.418398 L 0.954531 0.418398 L 0.950664 0.422305 L 0.946758 0.426172 L 0.942891 0.430078 L 0.935117 0.430078 L 0.93125 0.433945 L 0.923477 0.433945 L 0.91957 0.437852 L 0.911797 0.437852 L 0.90793 0.441719 L 0.900156 0.441719 L 0.896289 0.445625 L 0.888516 0.445625 L 0.884609 0.449492 L 0.880742 0.453398 L 0.880742 0.457266 L 0.876836 0.461133 L 0.872969 0.465039 L 0.869063 0.468906 L 0.865195 0.472813 L 0.861289 0.472813 L 0.857422 0.47668 L 0.853555 0.480586 L 0.849648 0.484453 L 0.845781 0.484453 L 0.841875 0.488359 L 0.838008 0.488359 L 0.834102 0.492227 L 0.830234 0.496133 L 0.826328 0.496133 L 0.822461 0.5 L 0.818555 0.5 L 0.810781 0.507773 L 0.803047 0.507773 L 0.799141 0.511641 L 0.795273 0.515547 L 0.7875 0.515547 L 0.783594 0.519414 L 0.779727 0.52332 L 0.771953 0.52332 L 0.768047 0.527188 L 0.760313 0.527188 L 0.756406 0.531094 L 0.744766 0.531094 L 0.740859 0.534961 L 0.736992 0.534961 L 0.733086 0.538867 L 0.721445 0.538867 L 0.717578 0.542734 L 0.709805 0.542734 L 0.705898 0.546602 L 0.690352 0.546602 L 0.686484 0.550508 L 0.678711 0.550508 L 0.674844 0.554375 L 0.663164 0.554375 L 0.659297 0.558281 L 0.639844 0.558281 L 0.635977 0.562148 L 0.624336 0.562148 L 0.62043 0.566055 L 0.604883 0.566055 L 0.601016 0.569922 L 0.589336 0.569922 L 0.585469 0.573828 L 0.573828 0.573828 L 0.569922 0.577695 L 0.554375 0.577695 L 0.550508 0.581602 L 0.503867 0.581602 L 0.5 0.585469 L 0.437852 0.585469 L 0.433945 0.581602 L 0.430078 0.585469 L 0.406758 0.585469 L 0.402891 0.581602 L 0.398984 0.585469 L 0.395117 0.581602 L 0.348477 0.581602 L 0.344609 0.577695 L 0.340703 0.577695 L 0.336836 0.573828 L 0.294102 0.573828 L 0.290195 0.569922 L 0.270781 0.569922 L 0.266914 0.566055 L 0.251367 0.566055 L 0.247461 0.562148 L 0.22418 0.562148 L 0.220273 0.558281 L 0.200859 0.558281 L 0.196953 0.554375 L 0.185313 0.554375 L 0.181445 0.550508 L 0.169766 0.550508 L 0.165898 0.546602 L 0.154219 0.546602 L 0.150352 0.542734 L 0.130937 0.542734 L 0.127031 0.538867 L 0.115391 0.538867 L 0.111484 0.534961 L 0.0959766 0.534961 L 0.0920703 0.531094 L 0.0804297 0.531094 L 0.0765234 0.527188 L 0.06875 0.527188 L 0.0648828 0.52332 L 0.0571094 0.52332 L 0.0532422 0.519414 L 0.0454688 0.519414 Z M 0.0454688 0.515547 " transform="matrix(100,0,0,100,450,350)"/>
<path style="fill:none;stroke-width:0.01;stroke-linecap:butt;stroke-linejoin:miter;stroke:rgb(0%,0%,0%);stroke-opacity:1;stroke-miterlimit:10;" d="M 0.0454688 0.545039 L 0.0536328 0.545039 L 0.0577344 0.540938 L 0.0618359 0.540938 L 0.0659375 0.536836 L 0.0782031 0.536836 L 0.0823047 0.532773 L 0.0905078 0.532773 L 0.0946094 0.528672 L 0.0986719 0.52457 L 0.106875 0.52457 L 0.110977 0.520469 L 0.115078 0.520469 L 0.11918 0.516367 L 0.127344 0.516367 L 0.131445 0.512266 L 0.135547 0.508203 L 0.14375 0.508203 L 0.147813 0.504102 L 0.151914 0.504102 L 0.156016 0.5 L 0.160117 0.5 L 0.164219 0.495898 L 0.172383 0.495898 L 0.176484 0.491797 L 0.180586 0.491797 L 0.184687 0.487734 L 0.192891 0.487734 L 0.196953 0.483633 L 0.209258 0.483633 L 0.213359 0.479531 L 0.217461 0.479531 L 0.221523 0.47543 L 0.229727 0.47543 L 0.233828 0.471328 L 0.242031 0.471328 L 0.246094 0.467227 L 0.250195 0.467227 L 0.254297 0.463164 L 0.2625 0.463164 L 0.266602 0.459062 L 0.278867 0.459062 L 0.282969 0.454961 L 0.295234 0.454961 L 0.299336 0.450859 L 0.319805 0.450859 L 0.323906 0.446758 L 0.340313 0.446758 L 0.344375 0.442656 L 0.348477 0.446758 L 0.352578 0.442656 L 0.389453 0.442656 L 0.393516 0.438594 L 0.414023 0.438594 L 0.418086 0.434492 L 0.487734 0.434492 L 0.491797 0.430391 L 0.528672 0.430391 L 0.532773 0.426289 L 0.540938 0.426289 L 0.545039 0.430391 L 0.549141 0.430391 L 0.553242 0.426289 L 0.557344 0.430391 L 0.602383 0.430391 L 0.606484 0.434492 L 0.639219 0.434492 L 0.64332 0.438594 L 0.71293 0.438594 L 0.717031 0.442656 L 0.729336 0.442656 L 0.733398 0.438594 L 0.7375 0.442656 L 0.741602 0.438594 L 0.774375 0.438594 L 0.778477 0.442656 L 0.786641 0.442656 L 0.790742 0.446758 L 0.794844 0.442656 L 0.798945 0.442656 L 0.803047 0.446758 L 0.819414 0.446758 L 0.823516 0.450859 L 0.852188 0.450859 L 0.85625 0.454961 L 0.872656 0.454961 L 0.876758 0.459062 L 0.88082 0.459062 L 0.884922 0.463164 L 0.893125 0.463164 L 0.897227 0.467227 L 0.901328 0.471328 L 0.934063 0.471328 L 0.938164 0.47543 L 0.954531 0.47543 L 0.954531 0.483633 L 0.942266 0.483633 L 0.938164 0.479531 L 0.921797 0.479531 L 0.917695 0.47543 L 0.913594 0.479531 L 0.905391 0.479531 L 0.901328 0.483633 L 0.897227 0.487734 L 0.893125 0.491797 L 0.889023 0.491797 L 0.884922 0.495898 L 0.88082 0.495898 L 0.876758 0.5 L 0.872656 0.504102 L 0.868555 0.504102 L 0.864453 0.508203 L 0.860352 0.508203 L 0.85625 0.512266 L 0.852188 0.512266 L 0.848086 0.516367 L 0.843984 0.516367 L 0.839883 0.520469 L 0.835781 0.520469 L 0.83168 0.52457 L 0.823516 0.52457 L 0.819414 0.528672 L 0.811211 0.528672 L 0.807109 0.532773 L 0.798945 0.532773 L 0.794844 0.536836 L 0.786641 0.536836 L 0.782539 0.540938 L 0.774375 0.540938 L 0.770273 0.545039 L 0.766172 0.545039 L 0.76207 0.549141 L 0.753906 0.549141 L 0.749805 0.553242 L 0.733398 0.553242 L 0.729336 0.557344 L 0.717031 0.557344 L 0.71293 0.561406 L 0.696562 0.561406 L 0.692461 0.565508 L 0.676094 0.565508 L 0.671992 0.569609 L 0.639219 0.569609 L 0.635117 0.573711 L 0.631055 0.569609 L 0.626953 0.573711 L 0.614648 0.573711 L 0.610547 0.569609 L 0.606484 0.573711 L 0.602383 0.569609 L 0.598281 0.573711 L 0.545039 0.573711 L 0.540938 0.569609 L 0.536836 0.573711 L 0.532773 0.569609 L 0.528672 0.573711 L 0.430391 0.573711 L 0.426289 0.569609 L 0.422187 0.573711 L 0.418086 0.569609 L 0.393516 0.569609 L 0.389453 0.565508 L 0.385352 0.569609 L 0.38125 0.565508 L 0.368945 0.565508 L 0.364883 0.561406 L 0.315742 0.561406 L 0.311641 0.557344 L 0.295234 0.557344 L 0.291172 0.553242 L 0.254297 0.553242 L 0.250195 0.549141 L 0.217461 0.549141 L 0.213359 0.545039 L 0.0495313 0.545039 Z M 0.0454688 0.545039 " transform="matrix(100,0,0,100,600,350)"/>
</g>
</svg>
