<?xml version="1.0" encoding="UTF-8"?>
<svg xmlns="http://www.w3.org/2000/svg" xmlns:xlink="http://www.w3.org/1999/xlink" width="750pt" height="2800pt" viewBox="0 0 750 2800" version="1.1">
<g id="surface1">
<path style="fill:none;stroke-width:0.01;stroke-linecap:butt;stroke-linejoin:miter;stroke:rgb(0%,0%,0%);stroke-opacity:1;stroke-miterlimit:10;" d="M 0.0454688 0.553242 L 0.0495312 0.549141 L 0.0577344 0.540938 L 0.0618359 0.540938 L 0.0659375 0.536836 L 0.0700391 0.536836 L 0.0864063 0.520469 L 0.0905078 0.520469 L 0.0946094 0.516367 L 0.0986719 0.512266 L 0.102773 0.508203 L 0.110977 0.5 L 0.115078 0.5 L 0.11918 0.495898 L 0.123242 0.495898 L 0.127344 0.491797 L 0.131445 0.491797 L 0.135547 0.487734 L 0.135547 0.479531 L 0.14375 0.471328 L 0.147813 0.467227 L 0.147813 0.463164 L 0.160117 0.450859 L 0.160117 0.446758 L 0.164219 0.442656 L 0.16832 0.438594 L 0.172383 0.434492 L 0.176484 0.434492 L 0.184688 0.426289 L 0.184688 0.418086 L 0.188789 0.414023 L 0.192891 0.414023 L 0.196953 0.409922 L 0.201055 0.409922 L 0.205156 0.40582 L 0.205156 0.397617 L 0.209258 0.393516 L 0.217461 0.393516 L 0.221523 0.389453 L 0.221523 0.38125 L 0.233828 0.368945 L 0.23793 0.368945 L 0.242031 0.364883 L 0.246094 0.360781 L 0.250195 0.35668 L 0.250195 0.348477 L 0.254297 0.344375 L 0.258398 0.340313 L 0.266602 0.332109 L 0.270664 0.332109 L 0.278867 0.323906 L 0.278867 0.319805 L 0.282969 0.315742 L 0.291172 0.315742 L 0.295234 0.311641 L 0.299336 0.311641 L 0.303438 0.307539 L 0.303438 0.303438 L 0.311641 0.295234 L 0.328008 0.295234 L 0.332109 0.291172 L 0.332109 0.282969 L 0.336211 0.278867 L 0.348477 0.278867 L 0.352578 0.274766 L 0.35668 0.274766 L 0.360781 0.270664 L 0.360781 0.266602 L 0.397617 0.266602 L 0.409922 0.254297 L 0.414023 0.258398 L 0.418086 0.258398 L 0.422187 0.2625 L 0.426289 0.2625 L 0.430391 0.258398 L 0.438594 0.258398 L 0.442656 0.2625 L 0.446758 0.266602 L 0.450859 0.270664 L 0.454961 0.266602 L 0.459062 0.266602 L 0.463164 0.270664 L 0.467227 0.274766 L 0.479531 0.274766 L 0.487734 0.282969 L 0.491797 0.28707 L 0.491797 0.291172 L 0.495898 0.295234 L 0.495898 0.299336 L 0.5 0.303438 L 0.5 0.307539 L 0.508203 0.315742 L 0.516367 0.315742 L 0.516367 0.328008 L 0.520469 0.332109 L 0.520469 0.340313 L 0.52457 0.344375 L 0.52457 0.352578 L 0.528672 0.35668 L 0.528672 0.360781 L 0.549141 0.38125 L 0.549141 0.393516 L 0.553242 0.397617 L 0.553242 0.401719 L 0.557344 0.40582 L 0.561406 0.409922 L 0.561406 0.414023 L 0.565508 0.418086 L 0.565508 0.422188 L 0.59418 0.450859 L 0.59418 0.454961 L 0.602383 0.463164 L 0.606484 0.463164 L 0.614648 0.471328 L 0.622852 0.471328 L 0.626953 0.467227 L 0.631055 0.463164 L 0.635117 0.463164 L 0.639219 0.459062 L 0.659687 0.459062 L 0.663789 0.454961 L 0.671992 0.454961 L 0.676094 0.450859 L 0.692461 0.450859 L 0.696562 0.446758 L 0.848086 0.446758 L 0.852187 0.450859 L 0.864453 0.450859 L 0.868555 0.454961 L 0.884922 0.454961 L 0.889023 0.459062 L 0.917695 0.459062 L 0.921797 0.463164 L 0.942266 0.463164 L 0.946367 0.467227 L 0.950469 0.467227 L 0.954531 0.471328 L 0.954531 0.487734 L 0.946367 0.487734 L 0.938164 0.479531 L 0.929961 0.479531 L 0.925898 0.47543 L 0.921797 0.47543 L 0.917695 0.471328 L 0.905391 0.471328 L 0.901328 0.467227 L 0.889023 0.467227 L 0.884922 0.463164 L 0.868555 0.463164 L 0.864453 0.459062 L 0.852187 0.459062 L 0.848086 0.454961 L 0.721133 0.454961 L 0.717031 0.459062 L 0.696562 0.459062 L 0.692461 0.463164 L 0.676094 0.463164 L 0.671992 0.467227 L 0.647422 0.467227 L 0.64332 0.471328 L 0.635117 0.471328 L 0.631055 0.47543 L 0.626953 0.479531 L 0.622852 0.479531 L 0.614648 0.487734 L 0.614648 0.491797 L 0.610547 0.495898 L 0.610547 0.5 L 0.606484 0.504102 L 0.606484 0.508203 L 0.602383 0.512266 L 0.602383 0.516367 L 0.598281 0.520469 L 0.598281 0.52457 L 0.59418 0.528672 L 0.59418 0.532773 L 0.590078 0.536836 L 0.590078 0.540938 L 0.585977 0.545039 L 0.581914 0.549141 L 0.581914 0.557344 L 0.577813 0.561406 L 0.577813 0.565508 L 0.573711 0.569609 L 0.573711 0.590078 L 0.569609 0.59418 L 0.569609 0.610547 L 0.565508 0.610547 L 0.561406 0.614648 L 0.557344 0.61875 L 0.557344 0.639219 L 0.553242 0.64332 L 0.553242 0.667891 L 0.549141 0.671992 L 0.549141 0.676094 L 0.545039 0.676094 L 0.540937 0.680195 L 0.536836 0.684258 L 0.532773 0.688359 L 0.532773 0.700664 L 0.528672 0.704766 L 0.528672 0.71293 L 0.52457 0.717031 L 0.520469 0.71293 L 0.516367 0.717031 L 0.512266 0.717031 L 0.508203 0.721133 L 0.504102 0.725234 L 0.504102 0.729336 L 0.495898 0.729336 L 0.491797 0.725234 L 0.487734 0.729336 L 0.483633 0.733398 L 0.47543 0.741602 L 0.471328 0.741602 L 0.467227 0.745703 L 0.463164 0.741602 L 0.459062 0.741602 L 0.454961 0.7375 L 0.450859 0.7375 L 0.446758 0.741602 L 0.442656 0.741602 L 0.438594 0.745703 L 0.434492 0.741602 L 0.430391 0.745703 L 0.422187 0.7375 L 0.418086 0.7375 L 0.414023 0.741602 L 0.397617 0.741602 L 0.397617 0.733398 L 0.393516 0.729336 L 0.368945 0.729336 L 0.364883 0.725234 L 0.35668 0.717031 L 0.348477 0.717031 L 0.344375 0.71293 L 0.340313 0.71293 L 0.340313 0.708828 L 0.336211 0.704766 L 0.319805 0.704766 L 0.315742 0.700664 L 0.315742 0.696563 L 0.311641 0.692461 L 0.303438 0.692461 L 0.299336 0.688359 L 0.299336 0.684258 L 0.295234 0.680195 L 0.291172 0.676094 L 0.28707 0.676094 L 0.278867 0.667891 L 0.270664 0.667891 L 0.266602 0.663789 L 0.266602 0.659687 L 0.2625 0.655625 L 0.258398 0.655625 L 0.254297 0.651523 L 0.250195 0.651523 L 0.246094 0.647422 L 0.242031 0.64332 L 0.233828 0.64332 L 0.229727 0.639219 L 0.225625 0.639219 L 0.225625 0.635117 L 0.221523 0.631055 L 0.217461 0.631055 L 0.213359 0.626953 L 0.209258 0.626953 L 0.201055 0.61875 L 0.196953 0.61875 L 0.192891 0.614648 L 0.188789 0.614648 L 0.184688 0.610547 L 0.180586 0.606484 L 0.176484 0.602383 L 0.172383 0.602383 L 0.16832 0.598281 L 0.160117 0.598281 L 0.151914 0.590078 L 0.14375 0.590078 L 0.139648 0.585977 L 0.135547 0.581914 L 0.131445 0.577812 L 0.127344 0.577812 L 0.123242 0.573711 L 0.11918 0.573711 L 0.110977 0.565508 L 0.106875 0.565508 L 0.102773 0.561406 L 0.0946094 0.561406 L 0.0905078 0.557344 L 0.0864063 0.557344 L 0.0823047 0.553242 L 0.0495312 0.553242 Z M 0.0454688 0.553242 " transform="matrix(100,0,0,100,0,200)"/>
<path style="fill:none;stroke-width:0.01;stroke-linecap:butt;stroke-linejoin:miter;stroke:rgb(0%,0%,0%);stroke-opacity:1;stroke-miterlimit:10;" d="M 0.0454687 0.501992 L 0.0534375 0.494023 L 0.0574219 0.494023 L 0.0614063 0.490039 L 0.0653906 0.490039 L 0.069375 0.486055 L 0.0733594 0.486055 L 0.0773438 0.48207 L 0.0813281 0.48207 L 0.0853125 0.478086 L 0.0892969 0.478086 L 0.0933203 0.474102 L 0.0973047 0.474102 L 0.101289 0.470078 L 0.105273 0.466094 L 0.109258 0.466094 L 0.117227 0.458125 L 0.121211 0.458125 L 0.125195 0.454141 L 0.125195 0.450156 L 0.12918 0.446172 L 0.133164 0.446172 L 0.141133 0.438203 L 0.141133 0.434219 L 0.145117 0.434219 L 0.149141 0.430234 L 0.157109 0.430234 L 0.165078 0.422266 L 0.165078 0.418242 L 0.173047 0.418242 L 0.181016 0.410273 L 0.185 0.410273 L 0.200937 0.394336 L 0.21293 0.394336 L 0.216914 0.390352 L 0.216914 0.386367 L 0.220898 0.386367 L 0.228867 0.378398 L 0.228867 0.374414 L 0.236836 0.374414 L 0.244805 0.366445 L 0.244805 0.358437 L 0.248789 0.354453 L 0.256797 0.354453 L 0.264766 0.346484 L 0.260781 0.3425 L 0.260781 0.338516 L 0.264766 0.334531 L 0.26875 0.334531 L 0.272734 0.330547 L 0.276719 0.330547 L 0.284687 0.322578 L 0.284687 0.310625 L 0.288672 0.310625 L 0.292656 0.306602 L 0.308594 0.306602 L 0.312617 0.302617 L 0.312617 0.290664 L 0.316602 0.290664 L 0.320586 0.28668 L 0.332539 0.28668 L 0.340508 0.278711 L 0.340508 0.274727 L 0.344492 0.270742 L 0.36043 0.270742 L 0.364453 0.266758 L 0.368437 0.262773 L 0.372422 0.266758 L 0.380391 0.266758 L 0.388359 0.258789 L 0.396328 0.258789 L 0.400313 0.262773 L 0.404297 0.262773 L 0.408281 0.266758 L 0.41625 0.258789 L 0.420273 0.258789 L 0.424258 0.262773 L 0.428242 0.262773 L 0.432227 0.266758 L 0.440195 0.266758 L 0.44418 0.262773 L 0.452148 0.270742 L 0.456133 0.270742 L 0.456133 0.274727 L 0.47207 0.290664 L 0.476094 0.290664 L 0.480078 0.28668 L 0.484063 0.28668 L 0.488047 0.290664 L 0.488047 0.294648 L 0.492031 0.298633 L 0.492031 0.302617 L 0.496016 0.306602 L 0.496016 0.310625 L 0.5 0.314609 L 0.5 0.318594 L 0.503984 0.322578 L 0.507969 0.322578 L 0.511953 0.326563 L 0.511953 0.3425 L 0.515938 0.346484 L 0.515938 0.350469 L 0.519922 0.354453 L 0.519922 0.358437 L 0.523906 0.362422 L 0.523906 0.366445 L 0.52793 0.37043 L 0.531914 0.374414 L 0.535898 0.374414 L 0.539883 0.378398 L 0.539883 0.386367 L 0.543867 0.390352 L 0.543867 0.422266 L 0.547852 0.42625 L 0.547852 0.434219 L 0.551836 0.438203 L 0.547852 0.442188 L 0.551836 0.446172 L 0.551836 0.450156 L 0.55582 0.454141 L 0.55582 0.462109 L 0.563789 0.470078 L 0.563789 0.474102 L 0.567773 0.478086 L 0.567773 0.48207 L 0.571758 0.486055 L 0.571758 0.490039 L 0.575742 0.494023 L 0.575742 0.498008 L 0.579727 0.501992 L 0.58375 0.505977 L 0.587734 0.509961 L 0.623594 0.509961 L 0.627578 0.513945 L 0.635547 0.513945 L 0.63957 0.51793 L 0.659492 0.51793 L 0.663477 0.521914 L 0.671445 0.521914 L 0.67543 0.525898 L 0.707344 0.525898 L 0.711328 0.529922 L 0.771133 0.529922 L 0.775117 0.525898 L 0.803047 0.525898 L 0.807031 0.521914 L 0.815 0.521914 L 0.818984 0.51793 L 0.834922 0.51793 L 0.838906 0.513945 L 0.842891 0.513945 L 0.846875 0.509961 L 0.854883 0.509961 L 0.858867 0.505977 L 0.862852 0.505977 L 0.866836 0.501992 L 0.874805 0.501992 L 0.878789 0.498008 L 0.882773 0.498008 L 0.886758 0.494023 L 0.890742 0.494023 L 0.894727 0.490039 L 0.898711 0.490039 L 0.902695 0.486055 L 0.90668 0.486055 L 0.910703 0.48207 L 0.914687 0.48207 L 0.922656 0.474102 L 0.926641 0.474102 L 0.930625 0.470078 L 0.934609 0.470078 L 0.942578 0.462109 L 0.946563 0.462109 L 0.950547 0.466094 L 0.950547 0.470078 L 0.954531 0.474102 L 0.954531 0.478086 L 0.950547 0.478086 L 0.946563 0.48207 L 0.942578 0.48207 L 0.938594 0.486055 L 0.930625 0.486055 L 0.926641 0.490039 L 0.918672 0.490039 L 0.914687 0.494023 L 0.910703 0.494023 L 0.90668 0.498008 L 0.902695 0.498008 L 0.898711 0.501992 L 0.894727 0.501992 L 0.890742 0.505977 L 0.882773 0.505977 L 0.878789 0.509961 L 0.874805 0.509961 L 0.87082 0.513945 L 0.862852 0.513945 L 0.858867 0.51793 L 0.850859 0.51793 L 0.846875 0.521914 L 0.830938 0.521914 L 0.826953 0.525898 L 0.818984 0.525898 L 0.815 0.529922 L 0.795039 0.529922 L 0.791055 0.533906 L 0.715313 0.533906 L 0.711328 0.537891 L 0.707344 0.533906 L 0.691406 0.533906 L 0.687383 0.529922 L 0.663477 0.529922 L 0.659492 0.525898 L 0.655508 0.525898 L 0.651523 0.521914 L 0.631563 0.521914 L 0.627578 0.51793 L 0.607656 0.51793 L 0.603672 0.513945 L 0.587734 0.513945 L 0.58375 0.51793 L 0.579727 0.521914 L 0.579727 0.525898 L 0.575742 0.529922 L 0.567773 0.537891 L 0.567773 0.541875 L 0.563789 0.545859 L 0.563789 0.549844 L 0.55582 0.557813 L 0.55582 0.561797 L 0.551836 0.565781 L 0.551836 0.57375 L 0.547852 0.577734 L 0.543867 0.581758 L 0.539883 0.585742 L 0.539883 0.589727 L 0.535898 0.593711 L 0.535898 0.613633 L 0.531914 0.617617 L 0.531914 0.625586 L 0.52793 0.62957 L 0.523906 0.633555 L 0.519922 0.637578 L 0.511953 0.645547 L 0.511953 0.653516 L 0.507969 0.6575 L 0.507969 0.665469 L 0.492031 0.681406 L 0.492031 0.693398 L 0.488047 0.697383 L 0.488047 0.701367 L 0.480078 0.709336 L 0.476094 0.705352 L 0.47207 0.705352 L 0.468086 0.709336 L 0.468086 0.71332 L 0.460117 0.721289 L 0.460117 0.725273 L 0.456133 0.725273 L 0.452148 0.729258 L 0.44418 0.721289 L 0.440195 0.725273 L 0.436211 0.725273 L 0.424258 0.737227 L 0.420273 0.737227 L 0.41625 0.741211 L 0.412266 0.741211 L 0.404297 0.733242 L 0.400313 0.733242 L 0.396328 0.737227 L 0.384375 0.737227 L 0.376406 0.729258 L 0.372422 0.733242 L 0.36043 0.733242 L 0.352461 0.725273 L 0.336523 0.725273 L 0.332539 0.721289 L 0.332539 0.71332 L 0.328555 0.709336 L 0.312617 0.709336 L 0.312617 0.705352 L 0.316602 0.701367 L 0.312617 0.697383 L 0.292656 0.697383 L 0.288672 0.693398 L 0.288672 0.689375 L 0.284687 0.685391 L 0.276719 0.685391 L 0.272734 0.681406 L 0.26875 0.681406 L 0.26875 0.677422 L 0.272734 0.673437 L 0.26875 0.669453 L 0.264766 0.669453 L 0.260781 0.665469 L 0.252773 0.665469 L 0.252773 0.6575 L 0.248789 0.653516 L 0.244805 0.653516 L 0.236836 0.645547 L 0.232852 0.645547 L 0.228867 0.641563 L 0.224883 0.641563 L 0.224883 0.633555 L 0.204961 0.613633 L 0.200937 0.613633 L 0.196953 0.609648 L 0.196953 0.60168 L 0.188984 0.593711 L 0.181016 0.593711 L 0.173047 0.585742 L 0.177031 0.581758 L 0.173047 0.577734 L 0.165078 0.577734 L 0.161094 0.57375 L 0.161094 0.569766 L 0.157109 0.565781 L 0.157109 0.561797 L 0.153125 0.557813 L 0.149141 0.557813 L 0.149141 0.553828 L 0.145117 0.549844 L 0.141133 0.549844 L 0.137148 0.545859 L 0.137148 0.541875 L 0.133164 0.537891 L 0.12918 0.537891 L 0.121211 0.529922 L 0.117227 0.529922 L 0.113242 0.525898 L 0.109258 0.521914 L 0.105273 0.521914 L 0.101289 0.51793 L 0.0973047 0.51793 L 0.0933203 0.513945 L 0.0892969 0.509961 L 0.0853125 0.505977 L 0.0773438 0.505977 L 0.0733594 0.501992 L 0.0534375 0.501992 L 0.0494531 0.505977 L 0.0454687 0.505977 Z M 0.0454687 0.501992 " transform="matrix(100,0,0,100,150,200)"/>
<path style="fill:none;stroke-width:0.01;stroke-linecap:butt;stroke-linejoin:miter;stroke:rgb(0%,0%,0%);stroke-opacity:1;stroke-miterlimit:10;" d="M 0.0454687 0.556836 L 0.0495313 0.552773 L 0.0535547 0.548711 L 0.0657422 0.536523 L 0.0698047 0.536523 L 0.0819922 0.524336 L 0.0860547 0.524336 L 0.0900781 0.520273 L 0.0941406 0.520273 L 0.0982031 0.51625 L 0.106328 0.508125 L 0.110391 0.508125 L 0.126641 0.491875 L 0.130664 0.487812 L 0.134727 0.48375 L 0.138789 0.479727 L 0.146914 0.471602 L 0.150977 0.471602 L 0.159102 0.463477 L 0.163164 0.463477 L 0.167227 0.459414 L 0.17125 0.455352 L 0.17125 0.447227 L 0.175312 0.443164 L 0.179375 0.443164 L 0.183438 0.439141 L 0.1875 0.435078 L 0.1875 0.431016 L 0.195625 0.431016 L 0.199688 0.426953 L 0.199688 0.418828 L 0.20375 0.414766 L 0.211836 0.414766 L 0.215898 0.410703 L 0.219961 0.410703 L 0.228086 0.402578 L 0.224023 0.398555 L 0.228086 0.394492 L 0.232148 0.394492 L 0.240273 0.386367 L 0.240273 0.378242 L 0.248359 0.378242 L 0.252422 0.37418 L 0.252422 0.370117 L 0.256484 0.366055 L 0.260547 0.366055 L 0.264609 0.362031 L 0.264609 0.357969 L 0.268672 0.357969 L 0.272734 0.353906 L 0.272734 0.349844 L 0.276797 0.345781 L 0.276797 0.341719 L 0.284922 0.341719 L 0.288945 0.337656 L 0.29707 0.329531 L 0.29707 0.321445 L 0.305195 0.31332 L 0.309258 0.31332 L 0.317383 0.305195 L 0.317383 0.29707 L 0.321445 0.293008 L 0.325469 0.288945 L 0.329531 0.288945 L 0.333594 0.284922 L 0.333594 0.280859 L 0.337656 0.280859 L 0.341719 0.276797 L 0.349844 0.276797 L 0.353906 0.272734 L 0.353906 0.264609 L 0.357969 0.264609 L 0.362031 0.260547 L 0.370117 0.260547 L 0.37418 0.264609 L 0.382305 0.256484 L 0.39043 0.256484 L 0.394492 0.252422 L 0.394492 0.248359 L 0.398555 0.244336 L 0.418828 0.244336 L 0.422891 0.240273 L 0.426953 0.240273 L 0.431016 0.244336 L 0.435078 0.244336 L 0.439141 0.240273 L 0.451289 0.240273 L 0.455352 0.244336 L 0.459414 0.248359 L 0.463477 0.248359 L 0.467539 0.252422 L 0.471602 0.248359 L 0.471602 0.244336 L 0.48375 0.244336 L 0.487812 0.248359 L 0.508125 0.268672 L 0.524336 0.268672 L 0.532461 0.276797 L 0.532461 0.280859 L 0.536523 0.284922 L 0.540586 0.288945 L 0.544648 0.288945 L 0.544648 0.293008 L 0.548711 0.29707 L 0.548711 0.305195 L 0.552773 0.309258 L 0.552773 0.317383 L 0.556836 0.321445 L 0.556836 0.325469 L 0.560859 0.329531 L 0.564922 0.333594 L 0.564922 0.337656 L 0.589297 0.362031 L 0.589297 0.37418 L 0.593359 0.378242 L 0.593359 0.39043 L 0.597422 0.394492 L 0.597422 0.402578 L 0.601445 0.406641 L 0.601445 0.410703 L 0.605508 0.414766 L 0.605508 0.418828 L 0.62582 0.439141 L 0.62582 0.443164 L 0.633945 0.451289 L 0.633945 0.455352 L 0.637969 0.459414 L 0.637969 0.463477 L 0.642031 0.467539 L 0.642031 0.471602 L 0.646094 0.475664 L 0.646094 0.479727 L 0.650156 0.48375 L 0.658281 0.491875 L 0.674531 0.491875 L 0.678555 0.495938 L 0.68668 0.495938 L 0.690742 0.5 L 0.706992 0.5 L 0.711055 0.504062 L 0.719141 0.504062 L 0.723203 0.508125 L 0.739453 0.508125 L 0.743516 0.512188 L 0.751641 0.512188 L 0.755664 0.51625 L 0.763789 0.51625 L 0.767852 0.520273 L 0.775977 0.520273 L 0.780039 0.524336 L 0.784102 0.524336 L 0.788164 0.528398 L 0.79625 0.528398 L 0.800312 0.532461 L 0.804375 0.532461 L 0.808438 0.536523 L 0.8125 0.536523 L 0.820625 0.544648 L 0.82875 0.544648 L 0.832773 0.548711 L 0.836836 0.552773 L 0.840898 0.552773 L 0.844961 0.556836 L 0.849023 0.560859 L 0.853086 0.560859 L 0.869336 0.577109 L 0.873359 0.581172 L 0.877422 0.581172 L 0.893672 0.597422 L 0.897734 0.601445 L 0.905859 0.60957 L 0.905859 0.613633 L 0.909922 0.617695 L 0.913945 0.621758 L 0.913945 0.62582 L 0.92207 0.633945 L 0.92207 0.637969 L 0.926133 0.642031 L 0.926133 0.646094 L 0.930195 0.650156 L 0.930195 0.654219 L 0.934258 0.658281 L 0.934258 0.662344 L 0.93832 0.666406 L 0.93832 0.674531 L 0.942383 0.678555 L 0.942383 0.682617 L 0.946445 0.68668 L 0.946445 0.706992 L 0.950469 0.711055 L 0.954531 0.715078 L 0.950469 0.715078 L 0.946445 0.719141 L 0.942383 0.723203 L 0.934258 0.723203 L 0.930195 0.727266 L 0.926133 0.727266 L 0.926133 0.719141 L 0.930195 0.715078 L 0.930195 0.682617 L 0.926133 0.678555 L 0.926133 0.670469 L 0.92207 0.666406 L 0.92207 0.654219 L 0.918008 0.650156 L 0.918008 0.646094 L 0.913945 0.642031 L 0.913945 0.637969 L 0.905859 0.629883 L 0.905859 0.62582 L 0.889609 0.60957 L 0.889609 0.605508 L 0.885547 0.601445 L 0.881484 0.601445 L 0.881484 0.597422 L 0.873359 0.589297 L 0.869336 0.589297 L 0.849023 0.568984 L 0.844961 0.568984 L 0.836836 0.560859 L 0.832773 0.560859 L 0.824688 0.552773 L 0.820625 0.552773 L 0.816562 0.548711 L 0.8125 0.548711 L 0.804375 0.540586 L 0.79625 0.540586 L 0.792227 0.536523 L 0.788164 0.536523 L 0.784102 0.532461 L 0.780039 0.532461 L 0.775977 0.528398 L 0.771914 0.528398 L 0.767852 0.524336 L 0.755664 0.524336 L 0.751641 0.520273 L 0.747578 0.520273 L 0.743516 0.51625 L 0.731328 0.51625 L 0.727266 0.512188 L 0.719141 0.512188 L 0.715078 0.508125 L 0.694805 0.508125 L 0.690742 0.504062 L 0.674531 0.504062 L 0.670469 0.5 L 0.662344 0.5 L 0.658281 0.495938 L 0.654219 0.495938 L 0.650156 0.5 L 0.650156 0.504062 L 0.646094 0.508125 L 0.646094 0.51625 L 0.642031 0.520273 L 0.642031 0.528398 L 0.637969 0.532461 L 0.637969 0.540586 L 0.633945 0.544648 L 0.633945 0.548711 L 0.629883 0.552773 L 0.629883 0.556836 L 0.62582 0.560859 L 0.62582 0.564922 L 0.621758 0.568984 L 0.621758 0.573047 L 0.617695 0.577109 L 0.617695 0.581172 L 0.613633 0.585234 L 0.613633 0.589297 L 0.60957 0.593359 L 0.60957 0.621758 L 0.601445 0.629883 L 0.601445 0.642031 L 0.597422 0.646094 L 0.597422 0.666406 L 0.589297 0.666406 L 0.581172 0.674531 L 0.577109 0.678555 L 0.577109 0.68668 L 0.573047 0.690742 L 0.573047 0.711055 L 0.568984 0.715078 L 0.560859 0.723203 L 0.556836 0.719141 L 0.552773 0.719141 L 0.544648 0.727266 L 0.544648 0.731328 L 0.540586 0.735391 L 0.540586 0.739453 L 0.536523 0.743516 L 0.528398 0.743516 L 0.524336 0.739453 L 0.520273 0.743516 L 0.51625 0.743516 L 0.512188 0.747578 L 0.512188 0.751641 L 0.508125 0.755664 L 0.471602 0.755664 L 0.467539 0.759727 L 0.459414 0.759727 L 0.455352 0.755664 L 0.451289 0.755664 L 0.447227 0.751641 L 0.439141 0.751641 L 0.435078 0.755664 L 0.418828 0.755664 L 0.414766 0.751641 L 0.414766 0.747578 L 0.410703 0.743516 L 0.406641 0.743516 L 0.402578 0.747578 L 0.386367 0.747578 L 0.382305 0.743516 L 0.382305 0.739453 L 0.378242 0.735391 L 0.37418 0.739453 L 0.370117 0.739453 L 0.366055 0.735391 L 0.362031 0.735391 L 0.362031 0.731328 L 0.357969 0.727266 L 0.345781 0.727266 L 0.341719 0.723203 L 0.341719 0.719141 L 0.337656 0.715078 L 0.329531 0.715078 L 0.325469 0.711055 L 0.321445 0.706992 L 0.305195 0.706992 L 0.301133 0.70293 L 0.301133 0.694805 L 0.29707 0.690742 L 0.288945 0.690742 L 0.284922 0.68668 L 0.280859 0.682617 L 0.280859 0.678555 L 0.276797 0.674531 L 0.272734 0.674531 L 0.272734 0.670469 L 0.268672 0.666406 L 0.268672 0.662344 L 0.264609 0.658281 L 0.256484 0.658281 L 0.252422 0.654219 L 0.248359 0.654219 L 0.248359 0.642031 L 0.244336 0.637969 L 0.236211 0.637969 L 0.232148 0.633945 L 0.228086 0.633945 L 0.224023 0.629883 L 0.224023 0.621758 L 0.215898 0.613633 L 0.207773 0.613633 L 0.20375 0.60957 L 0.20375 0.605508 L 0.199688 0.601445 L 0.191562 0.601445 L 0.191562 0.597422 L 0.179375 0.585234 L 0.17125 0.585234 L 0.167227 0.581172 L 0.163164 0.581172 L 0.159102 0.577109 L 0.150977 0.577109 L 0.142852 0.568984 L 0.138789 0.568984 L 0.134727 0.564922 L 0.130664 0.564922 L 0.126641 0.560859 L 0.122578 0.560859 L 0.118516 0.556836 L 0.110391 0.556836 L 0.106328 0.552773 L 0.0535547 0.552773 L 0.0495313 0.556836 Z M 0.0454687 0.556836 " transform="matrix(100,0,0,100,300,200)"/>
<path style="fill:none;stroke-width:0.01;stroke-linecap:butt;stroke-linejoin:miter;stroke:rgb(0%,0%,0%);stroke-opacity:1;stroke-miterlimit:10;" d="M 0.0454688 0.488242 L 0.0572266 0.488242 L 0.0611328 0.484336 L 0.0885547 0.484336 L 0.0924609 0.480391 L 0.100313 0.480391 L 0.104219 0.476484 L 0.11207 0.476484 L 0.115977 0.472578 L 0.119922 0.472578 L 0.123828 0.468633 L 0.13168 0.468633 L 0.135586 0.464727 L 0.139492 0.464727 L 0.143398 0.46082 L 0.15125 0.46082 L 0.159102 0.452969 L 0.163008 0.452969 L 0.166914 0.449063 L 0.170859 0.449063 L 0.174766 0.445156 L 0.178672 0.441211 L 0.182617 0.437305 L 0.186523 0.437305 L 0.19043 0.433398 L 0.194375 0.433398 L 0.198281 0.429453 L 0.202187 0.429453 L 0.206094 0.425547 L 0.206094 0.421641 L 0.210039 0.421641 L 0.213945 0.417695 L 0.221797 0.417695 L 0.225703 0.413789 L 0.229609 0.413789 L 0.233555 0.409883 L 0.237461 0.405937 L 0.241367 0.405937 L 0.245312 0.402031 L 0.253125 0.402031 L 0.25707 0.398125 L 0.260977 0.394219 L 0.268828 0.394219 L 0.272734 0.390273 L 0.276641 0.386367 L 0.276641 0.382461 L 0.280547 0.378516 L 0.288398 0.378516 L 0.292305 0.374609 L 0.29625 0.374609 L 0.300156 0.370703 L 0.304062 0.366758 L 0.304062 0.362852 L 0.311914 0.362852 L 0.31582 0.358945 L 0.331523 0.358945 L 0.33543 0.355 L 0.339336 0.351094 L 0.351094 0.351094 L 0.358945 0.343242 L 0.362852 0.343242 L 0.366758 0.339336 L 0.370703 0.33543 L 0.398125 0.33543 L 0.402031 0.331523 L 0.417695 0.331523 L 0.421641 0.327578 L 0.429453 0.327578 L 0.433398 0.323672 L 0.445156 0.323672 L 0.449063 0.327578 L 0.452969 0.323672 L 0.456914 0.327578 L 0.46082 0.327578 L 0.464727 0.331523 L 0.484336 0.331523 L 0.488242 0.33543 L 0.492148 0.33543 L 0.496094 0.339336 L 0.5 0.343242 L 0.503906 0.347187 L 0.507852 0.351094 L 0.511758 0.355 L 0.515664 0.358945 L 0.515664 0.362852 L 0.519609 0.366758 L 0.519609 0.374609 L 0.523516 0.378516 L 0.523516 0.382461 L 0.527422 0.386367 L 0.527422 0.394219 L 0.531367 0.398125 L 0.535273 0.402031 L 0.535273 0.413789 L 0.53918 0.417695 L 0.543086 0.421641 L 0.543086 0.425547 L 0.547031 0.429453 L 0.547031 0.433398 L 0.550937 0.437305 L 0.550937 0.441211 L 0.554844 0.445156 L 0.558789 0.449063 L 0.558789 0.452969 L 0.562695 0.456914 L 0.566602 0.46082 L 0.570547 0.464727 L 0.570547 0.468633 L 0.574453 0.472578 L 0.578359 0.476484 L 0.582305 0.480391 L 0.586211 0.484336 L 0.590117 0.488242 L 0.594062 0.488242 L 0.597969 0.492148 L 0.601875 0.492148 L 0.605781 0.488242 L 0.629297 0.488242 L 0.633242 0.484336 L 0.660664 0.484336 L 0.66457 0.480391 L 0.735117 0.480391 L 0.739023 0.476484 L 0.778203 0.476484 L 0.782148 0.472578 L 0.801719 0.472578 L 0.805625 0.468633 L 0.825234 0.468633 L 0.829141 0.464727 L 0.84875 0.464727 L 0.852656 0.46082 L 0.860508 0.46082 L 0.864414 0.456914 L 0.876172 0.456914 L 0.880078 0.452969 L 0.895781 0.452969 L 0.899687 0.449063 L 0.907539 0.449063 L 0.911445 0.445156 L 0.923203 0.445156 L 0.927109 0.441211 L 0.942773 0.441211 L 0.946719 0.445156 L 0.954531 0.445156 L 0.954531 0.449063 L 0.950625 0.452969 L 0.915352 0.452969 L 0.911445 0.456914 L 0.903594 0.456914 L 0.899687 0.46082 L 0.884023 0.46082 L 0.880078 0.464727 L 0.860508 0.464727 L 0.856602 0.468633 L 0.844844 0.468633 L 0.840898 0.472578 L 0.817383 0.472578 L 0.813477 0.476484 L 0.782148 0.476484 L 0.778203 0.480391 L 0.750781 0.480391 L 0.746875 0.484336 L 0.680234 0.484336 L 0.676328 0.488242 L 0.633242 0.488242 L 0.629297 0.492148 L 0.617539 0.492148 L 0.613633 0.496094 L 0.609727 0.496094 L 0.605781 0.492148 L 0.601875 0.496094 L 0.597969 0.5 L 0.594062 0.5 L 0.590117 0.503906 L 0.590117 0.507852 L 0.566602 0.531367 L 0.566602 0.535273 L 0.558789 0.543086 L 0.558789 0.547031 L 0.554844 0.550937 L 0.550937 0.554844 L 0.550937 0.558789 L 0.547031 0.562695 L 0.543086 0.566602 L 0.543086 0.570547 L 0.53918 0.574453 L 0.53918 0.578359 L 0.535273 0.582305 L 0.535273 0.590117 L 0.531367 0.594063 L 0.527422 0.597969 L 0.527422 0.601875 L 0.523516 0.605781 L 0.523516 0.613633 L 0.515664 0.621484 L 0.515664 0.629297 L 0.511758 0.633242 L 0.507852 0.637148 L 0.503906 0.641055 L 0.5 0.645 L 0.5 0.648906 L 0.484336 0.66457 L 0.480391 0.66457 L 0.476484 0.668477 L 0.472578 0.672422 L 0.468633 0.672422 L 0.464727 0.676328 L 0.46082 0.672422 L 0.452969 0.672422 L 0.449063 0.676328 L 0.441211 0.676328 L 0.437305 0.672422 L 0.421641 0.672422 L 0.417695 0.668477 L 0.413789 0.668477 L 0.409883 0.66457 L 0.405938 0.660664 L 0.398125 0.660664 L 0.394219 0.656758 L 0.386367 0.656758 L 0.382461 0.652813 L 0.378516 0.652813 L 0.374609 0.648906 L 0.370703 0.648906 L 0.366758 0.645 L 0.362852 0.641055 L 0.358945 0.637148 L 0.355 0.637148 L 0.351094 0.633242 L 0.343242 0.633242 L 0.339336 0.629297 L 0.33543 0.629297 L 0.331523 0.625391 L 0.327578 0.625391 L 0.323672 0.621484 L 0.311914 0.621484 L 0.311914 0.617539 L 0.308008 0.613633 L 0.304062 0.613633 L 0.300156 0.609727 L 0.29625 0.605781 L 0.292305 0.605781 L 0.288398 0.601875 L 0.288398 0.597969 L 0.284492 0.594063 L 0.276641 0.594063 L 0.272734 0.590117 L 0.264883 0.590117 L 0.25707 0.582305 L 0.253125 0.582305 L 0.249219 0.578359 L 0.245312 0.574453 L 0.241367 0.570547 L 0.237461 0.566602 L 0.233555 0.562695 L 0.229609 0.562695 L 0.225703 0.558789 L 0.221797 0.554844 L 0.217852 0.550937 L 0.213945 0.547031 L 0.210039 0.547031 L 0.202187 0.53918 L 0.198281 0.53918 L 0.194375 0.535273 L 0.178672 0.535273 L 0.174766 0.531367 L 0.170859 0.531367 L 0.166914 0.527422 L 0.163008 0.527422 L 0.159102 0.523516 L 0.15125 0.523516 L 0.143398 0.515664 L 0.135586 0.515664 L 0.13168 0.511758 L 0.119922 0.511758 L 0.115977 0.507852 L 0.108164 0.507852 L 0.104219 0.503906 L 0.0924609 0.503906 L 0.0885547 0.5 L 0.0846484 0.5 L 0.0807031 0.496094 L 0.0728906 0.496094 L 0.0689844 0.492148 L 0.0572266 0.492148 L 0.0532813 0.488242 L 0.049375 0.488242 Z M 0.0454688 0.488242 " transform="matrix(100,0,0,100,450,200)"/>
<path style="fill:none;stroke-width:0.01;stroke-linecap:butt;stroke-linejoin:miter;stroke:rgb(0%,0%,0%);stroke-opacity:1;stroke-miterlimit:10;" d="M 0.0454688 0.528398 L 0.0495313 0.524336 L 0.0535547 0.520273 L 0.0576172 0.51625 L 0.0657422 0.508125 L 0.0698047 0.508125 L 0.0738672 0.504062 L 0.0779297 0.504062 L 0.0819922 0.5 L 0.0900781 0.5 L 0.0941406 0.495938 L 0.102266 0.495938 L 0.110391 0.487812 L 0.114453 0.487812 L 0.118516 0.48375 L 0.126641 0.48375 L 0.134727 0.475664 L 0.138789 0.475664 L 0.142852 0.471602 L 0.146914 0.471602 L 0.155039 0.463477 L 0.159102 0.463477 L 0.163164 0.459414 L 0.159102 0.455352 L 0.167227 0.447227 L 0.17125 0.447227 L 0.175313 0.443164 L 0.179375 0.439141 L 0.179375 0.435078 L 0.183438 0.431016 L 0.191562 0.431016 L 0.195625 0.426953 L 0.195625 0.422891 L 0.20375 0.414766 L 0.207773 0.410703 L 0.211836 0.406641 L 0.211836 0.402578 L 0.215898 0.402578 L 0.219961 0.398555 L 0.224023 0.398555 L 0.228086 0.394492 L 0.228086 0.39043 L 0.236211 0.382305 L 0.244336 0.382305 L 0.248359 0.378242 L 0.252422 0.378242 L 0.260547 0.370117 L 0.260547 0.362031 L 0.268672 0.362031 L 0.272734 0.357969 L 0.276797 0.357969 L 0.280859 0.353906 L 0.280859 0.345781 L 0.284922 0.341719 L 0.301133 0.341719 L 0.305195 0.337656 L 0.309258 0.337656 L 0.31332 0.333594 L 0.309258 0.329531 L 0.309258 0.325469 L 0.31332 0.325469 L 0.317383 0.321445 L 0.333594 0.321445 L 0.341719 0.31332 L 0.345781 0.31332 L 0.349844 0.309258 L 0.349844 0.301133 L 0.366055 0.301133 L 0.370117 0.305195 L 0.37418 0.305195 L 0.378242 0.301133 L 0.382305 0.301133 L 0.386367 0.29707 L 0.386367 0.293008 L 0.394492 0.293008 L 0.398555 0.29707 L 0.410703 0.29707 L 0.414766 0.293008 L 0.426953 0.293008 L 0.431016 0.29707 L 0.439141 0.29707 L 0.443164 0.293008 L 0.443164 0.288945 L 0.451289 0.288945 L 0.455352 0.293008 L 0.467539 0.293008 L 0.471602 0.288945 L 0.475664 0.293008 L 0.479727 0.293008 L 0.48375 0.29707 L 0.491875 0.29707 L 0.495938 0.293008 L 0.5 0.293008 L 0.504062 0.29707 L 0.508125 0.29707 L 0.508125 0.301133 L 0.512188 0.305195 L 0.524336 0.305195 L 0.524336 0.309258 L 0.528398 0.31332 L 0.528398 0.317383 L 0.532461 0.321445 L 0.544648 0.321445 L 0.544648 0.325469 L 0.552773 0.333594 L 0.556836 0.333594 L 0.560859 0.337656 L 0.564922 0.341719 L 0.564922 0.349844 L 0.573047 0.357969 L 0.573047 0.366055 L 0.577109 0.370117 L 0.577109 0.378242 L 0.589297 0.39043 L 0.593359 0.39043 L 0.593359 0.410703 L 0.597422 0.414766 L 0.597422 0.418828 L 0.601445 0.422891 L 0.605508 0.426953 L 0.605508 0.443164 L 0.613633 0.451289 L 0.613633 0.455352 L 0.617695 0.459414 L 0.617695 0.463477 L 0.621758 0.467539 L 0.621758 0.471602 L 0.62582 0.475664 L 0.62582 0.479727 L 0.629883 0.48375 L 0.629883 0.491875 L 0.633945 0.495938 L 0.633945 0.5 L 0.637969 0.504062 L 0.637969 0.508125 L 0.646094 0.51625 L 0.759727 0.51625 L 0.763789 0.520273 L 0.775977 0.520273 L 0.780039 0.524336 L 0.79625 0.524336 L 0.800313 0.528398 L 0.816562 0.528398 L 0.820625 0.532461 L 0.836836 0.532461 L 0.840898 0.536523 L 0.853086 0.536523 L 0.857148 0.540586 L 0.869336 0.540586 L 0.873359 0.544648 L 0.905859 0.544648 L 0.909922 0.548711 L 0.926133 0.548711 L 0.930195 0.544648 L 0.942383 0.544648 L 0.942383 0.548711 L 0.946445 0.552773 L 0.954531 0.552773 L 0.950469 0.556836 L 0.946445 0.556836 L 0.942383 0.560859 L 0.93832 0.564922 L 0.913945 0.564922 L 0.909922 0.560859 L 0.901797 0.560859 L 0.897734 0.556836 L 0.885547 0.556836 L 0.881484 0.552773 L 0.873359 0.552773 L 0.869336 0.548711 L 0.853086 0.548711 L 0.849023 0.544648 L 0.840898 0.544648 L 0.836836 0.540586 L 0.816562 0.540586 L 0.8125 0.536523 L 0.804375 0.536523 L 0.800313 0.532461 L 0.792227 0.532461 L 0.788164 0.528398 L 0.784102 0.532461 L 0.780039 0.528398 L 0.771914 0.528398 L 0.767852 0.524336 L 0.751641 0.524336 L 0.747578 0.520273 L 0.70293 0.520273 L 0.698867 0.524336 L 0.654219 0.524336 L 0.650156 0.520273 L 0.642031 0.520273 L 0.637969 0.524336 L 0.637969 0.528398 L 0.633945 0.532461 L 0.629883 0.536523 L 0.629883 0.540586 L 0.621758 0.548711 L 0.621758 0.552773 L 0.617695 0.556836 L 0.613633 0.560859 L 0.613633 0.564922 L 0.605508 0.573047 L 0.605508 0.585234 L 0.601445 0.585234 L 0.597422 0.589297 L 0.597422 0.593359 L 0.593359 0.597422 L 0.593359 0.601445 L 0.589297 0.605508 L 0.589297 0.613633 L 0.585234 0.617695 L 0.585234 0.62582 L 0.581172 0.62582 L 0.577109 0.629883 L 0.577109 0.633945 L 0.573047 0.637969 L 0.573047 0.646094 L 0.568984 0.650156 L 0.568984 0.658281 L 0.564922 0.662344 L 0.560859 0.662344 L 0.556836 0.666406 L 0.552773 0.670469 L 0.552773 0.682617 L 0.548711 0.68668 L 0.548711 0.690742 L 0.540586 0.690742 L 0.532461 0.698867 L 0.524336 0.698867 L 0.520273 0.70293 L 0.512188 0.70293 L 0.504062 0.711055 L 0.5 0.711055 L 0.491875 0.70293 L 0.487813 0.706992 L 0.48375 0.706992 L 0.479727 0.711055 L 0.471602 0.711055 L 0.471602 0.706992 L 0.467539 0.70293 L 0.463477 0.706992 L 0.455352 0.706992 L 0.451289 0.70293 L 0.435078 0.70293 L 0.431016 0.698867 L 0.426953 0.698867 L 0.422891 0.70293 L 0.414766 0.70293 L 0.410703 0.698867 L 0.410703 0.694805 L 0.406641 0.690742 L 0.398555 0.690742 L 0.394492 0.694805 L 0.39043 0.694805 L 0.382305 0.68668 L 0.378242 0.68668 L 0.37418 0.690742 L 0.370117 0.690742 L 0.366055 0.68668 L 0.362031 0.682617 L 0.353906 0.682617 L 0.349844 0.68668 L 0.345781 0.68668 L 0.337656 0.678555 L 0.333594 0.674531 L 0.317383 0.674531 L 0.31332 0.670469 L 0.31332 0.666406 L 0.309258 0.662344 L 0.29707 0.662344 L 0.288945 0.654219 L 0.284922 0.650156 L 0.280859 0.646094 L 0.276797 0.646094 L 0.268672 0.637969 L 0.260547 0.637969 L 0.256484 0.633945 L 0.248359 0.633945 L 0.248359 0.629883 L 0.244336 0.62582 L 0.240273 0.621758 L 0.236211 0.621758 L 0.224023 0.60957 L 0.219961 0.60957 L 0.211836 0.601445 L 0.211836 0.597422 L 0.207773 0.593359 L 0.20375 0.593359 L 0.199688 0.589297 L 0.195625 0.589297 L 0.195625 0.585234 L 0.1875 0.577109 L 0.179375 0.577109 L 0.175313 0.573047 L 0.17125 0.573047 L 0.167227 0.568984 L 0.163164 0.568984 L 0.155039 0.560859 L 0.150977 0.560859 L 0.146914 0.556836 L 0.142852 0.556836 L 0.138789 0.552773 L 0.134727 0.552773 L 0.130664 0.548711 L 0.122578 0.548711 L 0.118516 0.544648 L 0.110391 0.544648 L 0.106328 0.540586 L 0.102266 0.540586 L 0.0982031 0.536523 L 0.0941406 0.536523 L 0.0900781 0.532461 L 0.0819922 0.532461 L 0.0779297 0.528398 L 0.0738672 0.532461 L 0.0698047 0.528398 L 0.0576172 0.528398 L 0.0535547 0.532461 L 0.0495313 0.528398 Z M 0.0454688 0.528398 " transform="matrix(100,0,0,100,600,200)"/>
<path style="fill:none;stroke-width:0.01;stroke-linecap:butt;stroke-linejoin:miter;stroke:rgb(0%,0%,0%);stroke-opacity:1;stroke-miterlimit:10;" d="M 0.0454688 0.534297 L 0.0497266 0.534297 L 0.0540234 0.53 L 0.0583203 0.53 L 0.0626172 0.525742 L 0.0711719 0.525742 L 0.0754688 0.521445 L 0.0840625 0.521445 L 0.0883203 0.517148 L 0.0926172 0.517148 L 0.0969141 0.512852 L 0.101211 0.508594 L 0.105508 0.504297 L 0.109766 0.5 L 0.114062 0.5 L 0.139805 0.474258 L 0.139805 0.47 L 0.144102 0.465703 L 0.148359 0.461406 L 0.152656 0.457109 L 0.156953 0.457109 L 0.169805 0.444258 L 0.169805 0.439961 L 0.174102 0.439961 L 0.178398 0.435664 L 0.178398 0.427109 L 0.182695 0.422813 L 0.186953 0.418516 L 0.19125 0.414219 L 0.195547 0.409961 L 0.199844 0.405664 L 0.199844 0.39707 L 0.204102 0.392813 L 0.208398 0.392813 L 0.212695 0.388516 L 0.216992 0.388516 L 0.22125 0.384219 L 0.22125 0.375625 L 0.216992 0.371367 L 0.22125 0.36707 L 0.225547 0.36707 L 0.229844 0.362773 L 0.234141 0.362773 L 0.242695 0.354219 L 0.242695 0.349922 L 0.246992 0.345625 L 0.246992 0.341328 L 0.251289 0.341328 L 0.268437 0.32418 L 0.272734 0.32418 L 0.281289 0.315625 L 0.281289 0.311328 L 0.285586 0.307031 L 0.289883 0.307031 L 0.29418 0.302734 L 0.298438 0.302734 L 0.302734 0.298437 L 0.307031 0.29418 L 0.307031 0.285586 L 0.319883 0.285586 L 0.32418 0.281289 L 0.328477 0.281289 L 0.332773 0.277031 L 0.337031 0.272734 L 0.337031 0.264141 L 0.341328 0.264141 L 0.345625 0.259844 L 0.362773 0.259844 L 0.36707 0.255586 L 0.39707 0.255586 L 0.401367 0.251289 L 0.401367 0.246992 L 0.405664 0.246992 L 0.409961 0.251289 L 0.414219 0.251289 L 0.418516 0.246992 L 0.427109 0.246992 L 0.431406 0.251289 L 0.435664 0.255586 L 0.439961 0.255586 L 0.444258 0.259844 L 0.448555 0.259844 L 0.452813 0.255586 L 0.465703 0.255586 L 0.47 0.259844 L 0.474258 0.264141 L 0.474258 0.268438 L 0.478555 0.272734 L 0.478555 0.277031 L 0.482852 0.281289 L 0.487148 0.285586 L 0.491406 0.289883 L 0.5 0.289883 L 0.504297 0.29418 L 0.508594 0.298437 L 0.508594 0.307031 L 0.512852 0.311328 L 0.512852 0.315625 L 0.517148 0.319883 L 0.517148 0.32418 L 0.521445 0.328477 L 0.521445 0.332773 L 0.525742 0.337031 L 0.53 0.341328 L 0.534297 0.341328 L 0.538594 0.345625 L 0.538594 0.358477 L 0.542891 0.362773 L 0.542891 0.371367 L 0.547188 0.375625 L 0.551445 0.379922 L 0.555742 0.384219 L 0.560039 0.384219 L 0.564336 0.388516 L 0.564336 0.392813 L 0.581484 0.409961 L 0.585781 0.414219 L 0.585781 0.418516 L 0.590039 0.422813 L 0.598633 0.431406 L 0.60293 0.435664 L 0.607187 0.439961 L 0.607187 0.444258 L 0.611484 0.448555 L 0.615781 0.452813 L 0.624375 0.452813 L 0.628633 0.448555 L 0.662969 0.448555 L 0.667227 0.444258 L 0.684375 0.444258 L 0.688672 0.439961 L 0.692969 0.439961 L 0.697266 0.444258 L 0.701562 0.439961 L 0.722969 0.439961 L 0.727266 0.435664 L 0.843047 0.435664 L 0.847344 0.439961 L 0.860195 0.439961 L 0.864492 0.444258 L 0.873086 0.444258 L 0.877344 0.448555 L 0.885938 0.448555 L 0.890234 0.452813 L 0.894492 0.452813 L 0.898789 0.457109 L 0.903086 0.457109 L 0.91168 0.465703 L 0.920234 0.465703 L 0.924531 0.47 L 0.928828 0.474258 L 0.937383 0.474258 L 0.94168 0.478555 L 0.950273 0.478555 L 0.954531 0.482852 L 0.950273 0.487148 L 0.950273 0.491406 L 0.945977 0.495703 L 0.94168 0.495703 L 0.937383 0.491406 L 0.928828 0.491406 L 0.924531 0.487148 L 0.915938 0.478555 L 0.91168 0.478555 L 0.907383 0.474258 L 0.903086 0.474258 L 0.898789 0.47 L 0.894492 0.465703 L 0.890234 0.465703 L 0.881641 0.457109 L 0.877344 0.457109 L 0.873086 0.452813 L 0.864492 0.452813 L 0.860195 0.448555 L 0.851641 0.448555 L 0.847344 0.444258 L 0.834492 0.444258 L 0.830195 0.439961 L 0.80875 0.439961 L 0.804453 0.435664 L 0.774453 0.435664 L 0.770156 0.439961 L 0.731563 0.439961 L 0.727266 0.444258 L 0.697266 0.444258 L 0.692969 0.448555 L 0.680117 0.448555 L 0.67582 0.452813 L 0.654375 0.452813 L 0.650078 0.457109 L 0.620078 0.457109 L 0.615781 0.461406 L 0.615781 0.465703 L 0.611484 0.47 L 0.611484 0.478555 L 0.607187 0.482852 L 0.607187 0.5 L 0.60293 0.504297 L 0.60293 0.512852 L 0.598633 0.517148 L 0.598633 0.534297 L 0.590039 0.542891 L 0.585781 0.547187 L 0.585781 0.577187 L 0.590039 0.581484 L 0.590039 0.590039 L 0.594336 0.594336 L 0.594336 0.598633 L 0.590039 0.60293 L 0.590039 0.611484 L 0.585781 0.615781 L 0.585781 0.63293 L 0.581484 0.63293 L 0.572891 0.641523 L 0.568594 0.645781 L 0.568594 0.654375 L 0.564336 0.658672 L 0.564336 0.662969 L 0.560039 0.667227 L 0.560039 0.692969 L 0.551445 0.701562 L 0.542891 0.701562 L 0.538594 0.70582 L 0.53 0.714414 L 0.525742 0.718711 L 0.525742 0.727266 L 0.517148 0.735859 L 0.508594 0.735859 L 0.504297 0.740156 L 0.5 0.744414 L 0.495703 0.748711 L 0.487148 0.748711 L 0.482852 0.744414 L 0.478555 0.744414 L 0.474258 0.748711 L 0.47 0.748711 L 0.465703 0.753008 L 0.452813 0.753008 L 0.448555 0.748711 L 0.444258 0.744414 L 0.439961 0.748711 L 0.435664 0.748711 L 0.431406 0.753008 L 0.422813 0.753008 L 0.422813 0.748711 L 0.418516 0.744414 L 0.39707 0.744414 L 0.392813 0.740156 L 0.371367 0.740156 L 0.36707 0.735859 L 0.36707 0.727266 L 0.362773 0.722969 L 0.358477 0.722969 L 0.354219 0.727266 L 0.341328 0.727266 L 0.337031 0.722969 L 0.337031 0.718711 L 0.332773 0.714414 L 0.328477 0.714414 L 0.319883 0.70582 L 0.307031 0.70582 L 0.302734 0.701562 L 0.298438 0.697266 L 0.298438 0.692969 L 0.29418 0.688672 L 0.289883 0.684375 L 0.277031 0.684375 L 0.272734 0.680117 L 0.272734 0.67582 L 0.268437 0.671523 L 0.255586 0.671523 L 0.251289 0.667227 L 0.251289 0.662969 L 0.242695 0.654375 L 0.238437 0.654375 L 0.234141 0.650078 L 0.229844 0.650078 L 0.225547 0.645781 L 0.225547 0.641523 L 0.22125 0.637227 L 0.212695 0.637227 L 0.208398 0.63293 L 0.204102 0.63293 L 0.204102 0.624375 L 0.199844 0.620078 L 0.195547 0.615781 L 0.19125 0.615781 L 0.186953 0.611484 L 0.182695 0.607188 L 0.178398 0.60293 L 0.174102 0.60293 L 0.165508 0.594336 L 0.16125 0.594336 L 0.156953 0.590039 L 0.152656 0.585781 L 0.148359 0.581484 L 0.144102 0.577187 L 0.139805 0.572891 L 0.131211 0.572891 L 0.131211 0.568594 L 0.126914 0.564336 L 0.118359 0.564336 L 0.114062 0.560039 L 0.109766 0.560039 L 0.105508 0.555742 L 0.101211 0.551445 L 0.0883203 0.551445 L 0.0840625 0.547187 L 0.0797656 0.547187 L 0.0754688 0.542891 L 0.0454688 0.542891 L 0.0454688 0.538594 Z M 0.0454688 0.534297 " transform="matrix(100,0,0,100,0,350)"/>
<path style="fill:none;stroke-width:0.01;stroke-linecap:butt;stroke-linejoin:miter;stroke:rgb(0%,0%,0%);stroke-opacity:1;stroke-miterlimit:10;" d="M 0.0454687 0.547031 L 0.049375 0.543086 L 0.0532812 0.53918 L 0.0572266 0.53918 L 0.0650391 0.531367 L 0.0689844 0.531367 L 0.0728906 0.527422 L 0.0807031 0.519609 L 0.0846484 0.519609 L 0.0885547 0.515664 L 0.0924609 0.511758 L 0.0964063 0.507852 L 0.104219 0.507852 L 0.108164 0.503906 L 0.115977 0.503906 L 0.119922 0.5 L 0.123828 0.496094 L 0.127734 0.492148 L 0.13168 0.488242 L 0.135586 0.484336 L 0.135586 0.480391 L 0.139492 0.480391 L 0.143398 0.476484 L 0.147344 0.472578 L 0.15125 0.468633 L 0.15125 0.464727 L 0.155156 0.46082 L 0.163008 0.46082 L 0.178672 0.445156 L 0.182617 0.445156 L 0.186523 0.441211 L 0.19043 0.441211 L 0.194375 0.437305 L 0.198281 0.433398 L 0.202187 0.429453 L 0.206094 0.429453 L 0.210039 0.425547 L 0.213945 0.421641 L 0.210039 0.417695 L 0.213945 0.413789 L 0.217852 0.413789 L 0.221797 0.409883 L 0.225703 0.405938 L 0.229609 0.405938 L 0.233555 0.402031 L 0.237461 0.398125 L 0.241367 0.398125 L 0.245313 0.394219 L 0.249219 0.390273 L 0.253125 0.386367 L 0.25707 0.382461 L 0.260977 0.378516 L 0.272734 0.378516 L 0.280547 0.370703 L 0.280547 0.366758 L 0.284492 0.362852 L 0.288398 0.358945 L 0.292305 0.355 L 0.29625 0.351094 L 0.300156 0.347187 L 0.304063 0.347187 L 0.311914 0.339336 L 0.31582 0.339336 L 0.319766 0.33543 L 0.327578 0.33543 L 0.331523 0.331523 L 0.33543 0.327578 L 0.343242 0.327578 L 0.347187 0.323672 L 0.351094 0.319766 L 0.358945 0.319766 L 0.362852 0.31582 L 0.366758 0.311914 L 0.378516 0.311914 L 0.382461 0.308008 L 0.398125 0.308008 L 0.402031 0.311914 L 0.405938 0.311914 L 0.409883 0.308008 L 0.413789 0.304063 L 0.421641 0.304063 L 0.425547 0.308008 L 0.429453 0.311914 L 0.437305 0.311914 L 0.441211 0.31582 L 0.445156 0.31582 L 0.449063 0.319766 L 0.452969 0.319766 L 0.456914 0.323672 L 0.46082 0.327578 L 0.46082 0.331523 L 0.468633 0.339336 L 0.468633 0.343242 L 0.472578 0.347187 L 0.476484 0.347187 L 0.480391 0.351094 L 0.480391 0.355 L 0.484336 0.358945 L 0.484336 0.366758 L 0.488242 0.370703 L 0.488242 0.378516 L 0.492148 0.382461 L 0.492148 0.386367 L 0.496094 0.390273 L 0.5 0.394219 L 0.503906 0.398125 L 0.507852 0.402031 L 0.507852 0.413789 L 0.511758 0.417695 L 0.511758 0.421641 L 0.515664 0.425547 L 0.515664 0.433398 L 0.519609 0.437305 L 0.523516 0.441211 L 0.523516 0.445156 L 0.527422 0.449063 L 0.531367 0.452969 L 0.535273 0.452969 L 0.535273 0.456914 L 0.543086 0.464727 L 0.543086 0.468633 L 0.558789 0.484336 L 0.558789 0.488242 L 0.562695 0.492148 L 0.566602 0.496094 L 0.570547 0.5 L 0.574453 0.5 L 0.578359 0.503906 L 0.582305 0.503906 L 0.586211 0.507852 L 0.601875 0.507852 L 0.605781 0.503906 L 0.609727 0.507852 L 0.672422 0.507852 L 0.676328 0.511758 L 0.699844 0.511758 L 0.70375 0.515664 L 0.707695 0.511758 L 0.711602 0.515664 L 0.715508 0.511758 L 0.719453 0.515664 L 0.739023 0.515664 L 0.74293 0.519609 L 0.762539 0.519609 L 0.766445 0.523516 L 0.778203 0.523516 L 0.782148 0.527422 L 0.801719 0.527422 L 0.805625 0.531367 L 0.817383 0.531367 L 0.821328 0.535273 L 0.836992 0.535273 L 0.840898 0.53918 L 0.852656 0.53918 L 0.856602 0.543086 L 0.86832 0.543086 L 0.872266 0.547031 L 0.880078 0.547031 L 0.884023 0.550937 L 0.899688 0.550937 L 0.903594 0.554844 L 0.915352 0.554844 L 0.919297 0.558789 L 0.954531 0.558789 L 0.954531 0.566602 L 0.950625 0.570547 L 0.946719 0.574453 L 0.931016 0.574453 L 0.927109 0.570547 L 0.915352 0.570547 L 0.911445 0.566602 L 0.907539 0.566602 L 0.903594 0.562695 L 0.895781 0.562695 L 0.891836 0.558789 L 0.884023 0.558789 L 0.880078 0.554844 L 0.86832 0.554844 L 0.864414 0.550937 L 0.856602 0.550937 L 0.852656 0.547031 L 0.844844 0.547031 L 0.840898 0.543086 L 0.829141 0.543086 L 0.825234 0.53918 L 0.813477 0.53918 L 0.80957 0.535273 L 0.801719 0.535273 L 0.797813 0.531367 L 0.774297 0.531367 L 0.770391 0.527422 L 0.762539 0.527422 L 0.758633 0.523516 L 0.727266 0.523516 L 0.723359 0.519609 L 0.70375 0.519609 L 0.699844 0.515664 L 0.688086 0.515664 L 0.68418 0.519609 L 0.680234 0.515664 L 0.648906 0.515664 L 0.645 0.511758 L 0.582305 0.511758 L 0.578359 0.515664 L 0.574453 0.519609 L 0.570547 0.519609 L 0.566602 0.523516 L 0.566602 0.527422 L 0.562695 0.531367 L 0.558789 0.535273 L 0.554844 0.53918 L 0.550937 0.543086 L 0.550937 0.547031 L 0.547031 0.550937 L 0.543086 0.554844 L 0.543086 0.558789 L 0.53918 0.562695 L 0.53918 0.566602 L 0.535273 0.570547 L 0.531367 0.574453 L 0.527422 0.578359 L 0.523516 0.582305 L 0.523516 0.586211 L 0.519609 0.590117 L 0.519609 0.594062 L 0.515664 0.597969 L 0.515664 0.605781 L 0.511758 0.609727 L 0.511758 0.613633 L 0.507852 0.617539 L 0.507852 0.621484 L 0.503906 0.625391 L 0.5 0.629297 L 0.5 0.633242 L 0.496094 0.637148 L 0.496094 0.641055 L 0.492148 0.645 L 0.492148 0.648906 L 0.488242 0.652813 L 0.484336 0.656758 L 0.480391 0.660664 L 0.480391 0.668477 L 0.476484 0.672422 L 0.472578 0.676328 L 0.464727 0.676328 L 0.46082 0.680234 L 0.456914 0.68418 L 0.452969 0.688086 L 0.449063 0.691992 L 0.441211 0.691992 L 0.437305 0.695938 L 0.405938 0.695938 L 0.402031 0.691992 L 0.382461 0.691992 L 0.378516 0.688086 L 0.374609 0.688086 L 0.370703 0.68418 L 0.366758 0.68418 L 0.362852 0.680234 L 0.358945 0.680234 L 0.355 0.68418 L 0.351094 0.680234 L 0.347187 0.676328 L 0.343242 0.672422 L 0.339336 0.672422 L 0.33543 0.668477 L 0.331523 0.66457 L 0.327578 0.660664 L 0.319766 0.660664 L 0.31582 0.656758 L 0.311914 0.652813 L 0.308008 0.652813 L 0.304063 0.648906 L 0.300156 0.645 L 0.29625 0.641055 L 0.292305 0.637148 L 0.284492 0.637148 L 0.280547 0.633242 L 0.276641 0.633242 L 0.272734 0.629297 L 0.268828 0.629297 L 0.264883 0.625391 L 0.260977 0.625391 L 0.25707 0.621484 L 0.253125 0.621484 L 0.249219 0.617539 L 0.245313 0.617539 L 0.241367 0.613633 L 0.237461 0.609727 L 0.233555 0.605781 L 0.225703 0.605781 L 0.221797 0.601875 L 0.217852 0.597969 L 0.213945 0.594062 L 0.206094 0.594062 L 0.202187 0.590117 L 0.194375 0.582305 L 0.19043 0.582305 L 0.186523 0.578359 L 0.170859 0.578359 L 0.166914 0.574453 L 0.159102 0.574453 L 0.155156 0.570547 L 0.143398 0.570547 L 0.139492 0.566602 L 0.135586 0.562695 L 0.123828 0.562695 L 0.119922 0.558789 L 0.11207 0.558789 L 0.108164 0.554844 L 0.0846484 0.554844 L 0.0807031 0.550937 L 0.0728906 0.550937 L 0.0689844 0.547031 L 0.049375 0.547031 Z M 0.0454687 0.547031 " transform="matrix(100,0,0,100,150,350)"/>
<path style="fill:none;stroke-width:0.01;stroke-linecap:butt;stroke-linejoin:miter;stroke:rgb(0%,0%,0%);stroke-opacity:1;stroke-miterlimit:10;" d="M 0.0454687 0.480781 L 0.0539844 0.472266 L 0.0710547 0.472266 L 0.0753125 0.468008 L 0.0924219 0.468008 L 0.0966797 0.463711 L 0.105195 0.463711 L 0.109492 0.459453 L 0.118008 0.459453 L 0.126562 0.450898 L 0.13082 0.450898 L 0.139336 0.442383 L 0.143633 0.442383 L 0.147891 0.438125 L 0.156406 0.438125 L 0.169219 0.425312 L 0.173477 0.425312 L 0.177773 0.421055 L 0.182031 0.416758 L 0.186289 0.4125 L 0.190586 0.408242 L 0.194844 0.408242 L 0.199102 0.403984 L 0.203359 0.399688 L 0.207656 0.39543 L 0.211914 0.391172 L 0.22043 0.391172 L 0.224727 0.386914 L 0.224727 0.382617 L 0.233242 0.382617 L 0.2375 0.378359 L 0.241797 0.374102 L 0.241797 0.369844 L 0.246055 0.365547 L 0.250313 0.361289 L 0.258867 0.361289 L 0.263125 0.357031 L 0.267383 0.352734 L 0.267383 0.348477 L 0.27168 0.348477 L 0.275937 0.344219 L 0.28875 0.344219 L 0.293008 0.339961 L 0.293008 0.335664 L 0.297266 0.331406 L 0.301523 0.331406 L 0.30582 0.327148 L 0.310078 0.322891 L 0.314336 0.318594 L 0.318594 0.318594 L 0.322891 0.314336 L 0.322891 0.310078 L 0.327148 0.30582 L 0.335664 0.30582 L 0.344219 0.297266 L 0.348477 0.297266 L 0.352734 0.293008 L 0.352734 0.28875 L 0.357031 0.284453 L 0.369844 0.284453 L 0.378359 0.275937 L 0.391172 0.275937 L 0.39543 0.27168 L 0.39543 0.267383 L 0.399688 0.263125 L 0.403984 0.263125 L 0.408242 0.258867 L 0.438125 0.258867 L 0.442383 0.25457 L 0.442383 0.250313 L 0.450898 0.250313 L 0.455195 0.25457 L 0.459453 0.25457 L 0.463711 0.250313 L 0.468008 0.246055 L 0.472266 0.246055 L 0.476523 0.250313 L 0.480781 0.250313 L 0.485078 0.25457 L 0.489336 0.258867 L 0.493594 0.258867 L 0.497852 0.25457 L 0.506406 0.25457 L 0.510664 0.258867 L 0.514922 0.263125 L 0.514922 0.267383 L 0.519219 0.27168 L 0.523477 0.27168 L 0.527734 0.267383 L 0.531992 0.267383 L 0.540547 0.275937 L 0.540547 0.280195 L 0.544805 0.284453 L 0.544805 0.28875 L 0.549102 0.293008 L 0.557617 0.301523 L 0.566172 0.301523 L 0.57043 0.30582 L 0.57043 0.335664 L 0.574688 0.339961 L 0.574688 0.344219 L 0.578945 0.348477 L 0.583242 0.352734 L 0.5875 0.352734 L 0.591758 0.357031 L 0.591758 0.374102 L 0.5875 0.378359 L 0.5875 0.391172 L 0.600313 0.403984 L 0.600313 0.408242 L 0.60457 0.4125 L 0.60457 0.42957 L 0.608828 0.433828 L 0.608828 0.450898 L 0.613086 0.455195 L 0.613086 0.463711 L 0.617383 0.468008 L 0.617383 0.476523 L 0.621641 0.480781 L 0.621641 0.485078 L 0.625898 0.489336 L 0.625898 0.493594 L 0.634453 0.502148 L 0.642969 0.502148 L 0.647266 0.506406 L 0.651523 0.506406 L 0.655781 0.510664 L 0.660039 0.510664 L 0.664336 0.514922 L 0.668594 0.514922 L 0.672852 0.519219 L 0.677109 0.519219 L 0.681406 0.523477 L 0.685664 0.523477 L 0.689922 0.527734 L 0.69418 0.527734 L 0.698477 0.531992 L 0.702734 0.536289 L 0.706992 0.536289 L 0.71125 0.540547 L 0.715547 0.540547 L 0.719805 0.544805 L 0.724063 0.549102 L 0.72832 0.549102 L 0.732617 0.553359 L 0.736875 0.553359 L 0.741133 0.557617 L 0.74543 0.561875 L 0.749688 0.561875 L 0.753945 0.566172 L 0.758203 0.57043 L 0.7625 0.57043 L 0.771016 0.578945 L 0.775273 0.583242 L 0.77957 0.5875 L 0.783828 0.5875 L 0.792344 0.596016 L 0.796641 0.596016 L 0.800898 0.600313 L 0.809414 0.608828 L 0.813711 0.613086 L 0.817969 0.617383 L 0.822227 0.617383 L 0.826523 0.621641 L 0.835039 0.630156 L 0.839297 0.634453 L 0.843594 0.638711 L 0.847852 0.642969 L 0.852109 0.647266 L 0.856367 0.651523 L 0.860664 0.655781 L 0.864922 0.660039 L 0.86918 0.664336 L 0.873438 0.668594 L 0.877734 0.672852 L 0.881992 0.672852 L 0.88625 0.677109 L 0.890508 0.681406 L 0.894805 0.685664 L 0.90332 0.69418 L 0.907578 0.698477 L 0.911875 0.702734 L 0.937461 0.72832 L 0.941758 0.72832 L 0.946016 0.732617 L 0.954531 0.741133 L 0.954531 0.749688 L 0.950273 0.753945 L 0.941758 0.753945 L 0.937461 0.749688 L 0.933203 0.74543 L 0.928945 0.741133 L 0.924688 0.736875 L 0.920391 0.732617 L 0.920391 0.72832 L 0.911875 0.719805 L 0.907578 0.715547 L 0.90332 0.71125 L 0.894805 0.702734 L 0.894805 0.698477 L 0.839297 0.642969 L 0.835039 0.642969 L 0.835039 0.638711 L 0.830781 0.634453 L 0.826523 0.634453 L 0.813711 0.621641 L 0.809414 0.617383 L 0.805156 0.613086 L 0.800898 0.608828 L 0.796641 0.608828 L 0.792344 0.60457 L 0.788086 0.600313 L 0.783828 0.596016 L 0.77957 0.591758 L 0.775273 0.591758 L 0.766758 0.583242 L 0.7625 0.578945 L 0.758203 0.578945 L 0.749688 0.57043 L 0.74543 0.57043 L 0.741133 0.566172 L 0.736875 0.561875 L 0.732617 0.561875 L 0.72832 0.557617 L 0.724063 0.557617 L 0.719805 0.553359 L 0.715547 0.553359 L 0.71125 0.549102 L 0.706992 0.544805 L 0.702734 0.544805 L 0.698477 0.540547 L 0.69418 0.540547 L 0.689922 0.536289 L 0.685664 0.536289 L 0.681406 0.531992 L 0.677109 0.531992 L 0.672852 0.527734 L 0.668594 0.527734 L 0.664336 0.523477 L 0.660039 0.523477 L 0.655781 0.519219 L 0.651523 0.519219 L 0.647266 0.514922 L 0.638711 0.514922 L 0.634453 0.510664 L 0.630156 0.510664 L 0.625898 0.514922 L 0.621641 0.519219 L 0.617383 0.523477 L 0.617383 0.527734 L 0.613086 0.531992 L 0.608828 0.536289 L 0.608828 0.544805 L 0.60457 0.549102 L 0.600313 0.553359 L 0.600313 0.557617 L 0.596016 0.561875 L 0.591758 0.566172 L 0.591758 0.57043 L 0.5875 0.57043 L 0.583242 0.574688 L 0.578945 0.578945 L 0.578945 0.583242 L 0.574688 0.5875 L 0.574688 0.596016 L 0.57043 0.600313 L 0.566172 0.60457 L 0.566172 0.613086 L 0.561875 0.617383 L 0.561875 0.630156 L 0.557617 0.634453 L 0.557617 0.647266 L 0.549102 0.655781 L 0.544805 0.660039 L 0.540547 0.664336 L 0.531992 0.664336 L 0.523477 0.672852 L 0.523477 0.681406 L 0.519219 0.685664 L 0.514922 0.689922 L 0.506406 0.689922 L 0.502148 0.69418 L 0.497852 0.69418 L 0.493594 0.698477 L 0.489336 0.698477 L 0.485078 0.702734 L 0.480781 0.706992 L 0.476523 0.71125 L 0.468008 0.71125 L 0.468008 0.706992 L 0.463711 0.702734 L 0.455195 0.702734 L 0.450898 0.706992 L 0.433828 0.706992 L 0.42957 0.702734 L 0.416758 0.702734 L 0.416758 0.698477 L 0.4125 0.69418 L 0.399688 0.69418 L 0.39543 0.689922 L 0.39543 0.685664 L 0.391172 0.681406 L 0.378359 0.681406 L 0.378359 0.677109 L 0.374102 0.672852 L 0.361289 0.672852 L 0.357031 0.668594 L 0.344219 0.668594 L 0.344219 0.664336 L 0.339961 0.660039 L 0.335664 0.655781 L 0.327148 0.647266 L 0.314336 0.647266 L 0.310078 0.642969 L 0.310078 0.638711 L 0.30582 0.634453 L 0.301523 0.634453 L 0.297266 0.630156 L 0.28875 0.630156 L 0.284453 0.625898 L 0.284453 0.621641 L 0.280195 0.617383 L 0.275937 0.613086 L 0.27168 0.608828 L 0.267383 0.60457 L 0.258867 0.60457 L 0.25457 0.600313 L 0.250313 0.600313 L 0.250313 0.591758 L 0.246055 0.5875 L 0.241797 0.5875 L 0.2375 0.583242 L 0.233242 0.578945 L 0.228984 0.578945 L 0.224727 0.574688 L 0.22043 0.57043 L 0.22043 0.566172 L 0.216172 0.561875 L 0.211914 0.561875 L 0.207656 0.557617 L 0.203359 0.553359 L 0.199102 0.549102 L 0.194844 0.549102 L 0.190586 0.544805 L 0.186289 0.540547 L 0.182031 0.536289 L 0.177773 0.531992 L 0.173477 0.531992 L 0.164961 0.523477 L 0.160703 0.523477 L 0.156406 0.519219 L 0.152148 0.519219 L 0.147891 0.514922 L 0.143633 0.514922 L 0.139336 0.510664 L 0.135078 0.510664 L 0.126562 0.502148 L 0.122266 0.502148 L 0.118008 0.497852 L 0.105195 0.497852 L 0.100938 0.493594 L 0.088125 0.493594 L 0.0838672 0.489336 L 0.0753125 0.489336 L 0.0710547 0.485078 L 0.0667969 0.485078 L 0.0625391 0.480781 L 0.0497266 0.480781 Z M 0.0454687 0.480781 " transform="matrix(100,0,0,100,300,350)"/>
<path style="fill:none;stroke-width:0.01;stroke-linecap:butt;stroke-linejoin:miter;stroke:rgb(0%,0%,0%);stroke-opacity:1;stroke-miterlimit:10;" d="M 0.0454688 0.480313 L 0.049375 0.480313 L 0.0533203 0.476406 L 0.0572656 0.476406 L 0.0612109 0.472461 L 0.0730078 0.472461 L 0.0769531 0.468516 L 0.08875 0.468516 L 0.0926953 0.46457 L 0.104492 0.46457 L 0.108437 0.460664 L 0.112344 0.460664 L 0.116289 0.456719 L 0.120234 0.456719 L 0.12418 0.452773 L 0.132031 0.452773 L 0.135977 0.448828 L 0.139922 0.444922 L 0.139922 0.440977 L 0.143828 0.440977 L 0.147773 0.437031 L 0.155664 0.437031 L 0.15957 0.433086 L 0.163516 0.42918 L 0.167461 0.425234 L 0.171406 0.425234 L 0.175313 0.421289 L 0.179258 0.421289 L 0.183203 0.417344 L 0.187148 0.417344 L 0.195 0.409492 L 0.198945 0.409492 L 0.202891 0.405547 L 0.206797 0.405547 L 0.210742 0.401602 L 0.210742 0.397695 L 0.214688 0.397695 L 0.218633 0.39375 L 0.222539 0.389805 L 0.222539 0.385859 L 0.23043 0.385859 L 0.234375 0.381953 L 0.238281 0.378008 L 0.242227 0.378008 L 0.246172 0.374062 L 0.246172 0.366211 L 0.257969 0.366211 L 0.265859 0.35832 L 0.265859 0.354375 L 0.269766 0.350469 L 0.285508 0.350469 L 0.289453 0.346523 L 0.289453 0.342578 L 0.30125 0.342578 L 0.305195 0.338633 L 0.305195 0.334727 L 0.309141 0.330781 L 0.313047 0.330781 L 0.316992 0.334727 L 0.324883 0.326836 L 0.328789 0.322891 L 0.332734 0.322891 L 0.33668 0.318984 L 0.360273 0.318984 L 0.368164 0.311094 L 0.379961 0.311094 L 0.383906 0.315039 L 0.387852 0.315039 L 0.391758 0.318984 L 0.395703 0.315039 L 0.403594 0.315039 L 0.4075 0.318984 L 0.411445 0.315039 L 0.419336 0.315039 L 0.423242 0.318984 L 0.427188 0.322891 L 0.431133 0.322891 L 0.435078 0.326836 L 0.438984 0.330781 L 0.45082 0.330781 L 0.45082 0.334727 L 0.454727 0.338633 L 0.454727 0.342578 L 0.462617 0.350469 L 0.466563 0.350469 L 0.470469 0.354375 L 0.470469 0.378008 L 0.474414 0.381953 L 0.478359 0.385859 L 0.482305 0.389805 L 0.486211 0.39375 L 0.486211 0.413438 L 0.490156 0.417344 L 0.494102 0.417344 L 0.494102 0.421289 L 0.498047 0.425234 L 0.498047 0.437031 L 0.501953 0.440977 L 0.501953 0.444922 L 0.505898 0.448828 L 0.505898 0.452773 L 0.509844 0.456719 L 0.509844 0.460664 L 0.513789 0.46457 L 0.513789 0.468516 L 0.517695 0.472461 L 0.521641 0.476406 L 0.521641 0.480313 L 0.529531 0.488203 L 0.533437 0.492148 L 0.553125 0.492148 L 0.55707 0.496055 L 0.623984 0.496055 L 0.627891 0.5 L 0.694805 0.5 L 0.69875 0.496055 L 0.753828 0.496055 L 0.757773 0.492148 L 0.777461 0.492148 L 0.781367 0.488203 L 0.797109 0.488203 L 0.801055 0.484258 L 0.816797 0.484258 L 0.820742 0.480313 L 0.828594 0.480313 L 0.832539 0.476406 L 0.84043 0.476406 L 0.844336 0.472461 L 0.852227 0.472461 L 0.856172 0.468516 L 0.864023 0.468516 L 0.867969 0.46457 L 0.871914 0.46457 L 0.87582 0.460664 L 0.883711 0.460664 L 0.887656 0.456719 L 0.891563 0.452773 L 0.895508 0.452773 L 0.899453 0.448828 L 0.907305 0.448828 L 0.91125 0.444922 L 0.919141 0.444922 L 0.923047 0.440977 L 0.926992 0.440977 L 0.930937 0.437031 L 0.934883 0.437031 L 0.938789 0.433086 L 0.942734 0.42918 L 0.94668 0.42918 L 0.950625 0.425234 L 0.954531 0.425234 L 0.954531 0.42918 L 0.950625 0.42918 L 0.94668 0.433086 L 0.942734 0.433086 L 0.938789 0.437031 L 0.934883 0.437031 L 0.930937 0.440977 L 0.926992 0.440977 L 0.923047 0.444922 L 0.919141 0.444922 L 0.915195 0.448828 L 0.915195 0.452773 L 0.91125 0.456719 L 0.91125 0.460664 L 0.907305 0.460664 L 0.903398 0.46457 L 0.895508 0.46457 L 0.891563 0.468516 L 0.883711 0.468516 L 0.879766 0.472461 L 0.867969 0.472461 L 0.864023 0.476406 L 0.856172 0.476406 L 0.852227 0.480313 L 0.84043 0.480313 L 0.836484 0.484258 L 0.824688 0.484258 L 0.820742 0.488203 L 0.808945 0.488203 L 0.805 0.492148 L 0.781367 0.492148 L 0.777461 0.496055 L 0.745977 0.496055 L 0.742031 0.5 L 0.679062 0.5 L 0.675117 0.503945 L 0.651523 0.503945 L 0.647578 0.5 L 0.568867 0.5 L 0.564922 0.496055 L 0.537383 0.496055 L 0.533437 0.5 L 0.529531 0.503945 L 0.529531 0.507852 L 0.521641 0.515742 L 0.521641 0.519687 L 0.517695 0.523594 L 0.513789 0.527539 L 0.513789 0.531484 L 0.509844 0.53543 L 0.509844 0.539336 L 0.505898 0.543281 L 0.505898 0.551172 L 0.501953 0.555078 L 0.501953 0.559023 L 0.498047 0.562969 L 0.494102 0.566914 L 0.494102 0.594453 L 0.490156 0.598398 L 0.490156 0.602305 L 0.486211 0.602305 L 0.482305 0.60625 L 0.478359 0.610195 L 0.478359 0.614141 L 0.474414 0.618047 L 0.474414 0.621992 L 0.470469 0.625938 L 0.470469 0.64168 L 0.466563 0.645625 L 0.462617 0.645625 L 0.458672 0.649531 L 0.454727 0.653477 L 0.454727 0.657422 L 0.45082 0.661367 L 0.45082 0.669219 L 0.44293 0.677109 L 0.438984 0.673164 L 0.435078 0.673164 L 0.431133 0.677109 L 0.427188 0.681016 L 0.419336 0.681016 L 0.415391 0.677109 L 0.411445 0.677109 L 0.4075 0.681016 L 0.403594 0.684961 L 0.399648 0.684961 L 0.395703 0.688906 L 0.395703 0.684961 L 0.391758 0.681016 L 0.387852 0.681016 L 0.383906 0.684961 L 0.376016 0.684961 L 0.376016 0.681016 L 0.372109 0.677109 L 0.368164 0.677109 L 0.364219 0.681016 L 0.352422 0.681016 L 0.352422 0.677109 L 0.348477 0.673164 L 0.33668 0.673164 L 0.324883 0.661367 L 0.309141 0.661367 L 0.309141 0.657422 L 0.30125 0.649531 L 0.297305 0.645625 L 0.293398 0.64168 L 0.285508 0.64168 L 0.285508 0.637734 L 0.281602 0.633789 L 0.273711 0.633789 L 0.273711 0.629883 L 0.269766 0.625938 L 0.261914 0.625938 L 0.257969 0.621992 L 0.257969 0.618047 L 0.254023 0.614141 L 0.250117 0.614141 L 0.242227 0.60625 L 0.234375 0.60625 L 0.23043 0.602305 L 0.226484 0.598398 L 0.222539 0.594453 L 0.218633 0.594453 L 0.210742 0.586563 L 0.206797 0.586563 L 0.198945 0.578711 L 0.195 0.578711 L 0.191055 0.574766 L 0.187148 0.57082 L 0.183203 0.566914 L 0.179258 0.566914 L 0.175313 0.562969 L 0.171406 0.559023 L 0.167461 0.555078 L 0.163516 0.555078 L 0.15957 0.551172 L 0.15957 0.547227 L 0.155664 0.543281 L 0.151719 0.539336 L 0.147773 0.539336 L 0.143828 0.53543 L 0.139922 0.531484 L 0.135977 0.527539 L 0.132031 0.527539 L 0.120234 0.515742 L 0.116289 0.515742 L 0.112344 0.511797 L 0.108437 0.507852 L 0.104492 0.503945 L 0.100547 0.503945 L 0.0966016 0.5 L 0.0926953 0.496055 L 0.08875 0.496055 L 0.0848047 0.492148 L 0.0808594 0.492148 L 0.0769531 0.488203 L 0.0690625 0.488203 L 0.0651172 0.484258 L 0.049375 0.484258 Z M 0.0454688 0.480313 " transform="matrix(100,0,0,100,450,350)"/>
<path style="fill:none;stroke-width:0.01;stroke-linecap:butt;stroke-linejoin:miter;stroke:rgb(0%,0%,0%);stroke-opacity:1;stroke-miterlimit:10;" d="M 0.0454688 0.468398 L 0.0810156 0.468398 L 0.0849609 0.464414 L 0.104727 0.464414 L 0.108711 0.460469 L 0.116602 0.460469 L 0.124492 0.452578 L 0.136367 0.452578 L 0.140313 0.448633 L 0.144258 0.448633 L 0.148203 0.444648 L 0.156133 0.444648 L 0.160078 0.440703 L 0.167969 0.440703 L 0.171953 0.436758 L 0.175898 0.436758 L 0.179844 0.432813 L 0.183789 0.432813 L 0.191719 0.424883 L 0.195664 0.424883 L 0.2075 0.413047 L 0.21543 0.413047 L 0.219375 0.409102 L 0.22332 0.409102 L 0.227266 0.405156 L 0.231211 0.401172 L 0.235195 0.397227 L 0.239141 0.397227 L 0.247031 0.389336 L 0.250977 0.389336 L 0.266797 0.373516 L 0.274687 0.373516 L 0.278672 0.36957 L 0.282617 0.365625 L 0.286563 0.365625 L 0.290508 0.361641 L 0.298438 0.361641 L 0.310273 0.349805 L 0.322148 0.349805 L 0.326094 0.345859 L 0.333984 0.345859 L 0.341914 0.33793 L 0.357695 0.33793 L 0.361641 0.333984 L 0.36957 0.333984 L 0.373516 0.33793 L 0.377461 0.33793 L 0.381406 0.333984 L 0.393281 0.333984 L 0.397227 0.33793 L 0.401172 0.33793 L 0.405156 0.333984 L 0.409102 0.33793 L 0.416992 0.33793 L 0.420937 0.341914 L 0.424883 0.341914 L 0.428867 0.345859 L 0.436758 0.345859 L 0.444648 0.35375 L 0.448633 0.357695 L 0.452578 0.361641 L 0.456523 0.361641 L 0.460469 0.365625 L 0.464414 0.36957 L 0.464414 0.373516 L 0.468398 0.377461 L 0.468398 0.385391 L 0.472344 0.389336 L 0.472344 0.393281 L 0.480234 0.401172 L 0.480234 0.413047 L 0.48418 0.416992 L 0.48418 0.420937 L 0.488125 0.424883 L 0.488125 0.432813 L 0.492109 0.436758 L 0.5 0.444648 L 0.5 0.452578 L 0.503945 0.456523 L 0.503945 0.460469 L 0.511875 0.468398 L 0.511875 0.472344 L 0.523711 0.48418 L 0.523711 0.488125 L 0.527656 0.492109 L 0.531602 0.496055 L 0.535586 0.5 L 0.543477 0.507891 L 0.547422 0.511875 L 0.590898 0.511875 L 0.594844 0.51582 L 0.650195 0.51582 L 0.654141 0.519766 L 0.677852 0.519766 L 0.681836 0.523711 L 0.713438 0.523711 L 0.717383 0.527656 L 0.741094 0.527656 L 0.745078 0.531602 L 0.749023 0.527656 L 0.760859 0.527656 L 0.764805 0.531602 L 0.7925 0.531602 L 0.796445 0.535586 L 0.879453 0.535586 L 0.883398 0.539531 L 0.895273 0.539531 L 0.899219 0.535586 L 0.903164 0.539531 L 0.934766 0.539531 L 0.93875 0.543477 L 0.946641 0.543477 L 0.950586 0.547422 L 0.954531 0.547422 L 0.954531 0.551367 L 0.950586 0.555352 L 0.93875 0.555352 L 0.934766 0.551367 L 0.926875 0.551367 L 0.92293 0.547422 L 0.879453 0.547422 L 0.875508 0.543477 L 0.843867 0.543477 L 0.839922 0.539531 L 0.780625 0.539531 L 0.77668 0.535586 L 0.752969 0.535586 L 0.749023 0.531602 L 0.709492 0.531602 L 0.705547 0.527656 L 0.681836 0.527656 L 0.677852 0.523711 L 0.673906 0.523711 L 0.669961 0.527656 L 0.666016 0.523711 L 0.642305 0.523711 L 0.638359 0.519766 L 0.579063 0.519766 L 0.575117 0.51582 L 0.547422 0.51582 L 0.543477 0.519766 L 0.539531 0.519766 L 0.535586 0.523711 L 0.531602 0.523711 L 0.523711 0.531602 L 0.519766 0.535586 L 0.511875 0.543477 L 0.507891 0.547422 L 0.503945 0.551367 L 0.5 0.555352 L 0.492109 0.563242 L 0.488125 0.567188 L 0.48418 0.571133 L 0.480234 0.575117 L 0.468398 0.586953 L 0.468398 0.590898 L 0.464414 0.594844 L 0.464414 0.598828 L 0.460469 0.602773 L 0.460469 0.606719 L 0.456523 0.610664 L 0.456523 0.614609 L 0.452578 0.618594 L 0.448633 0.622539 L 0.444648 0.626484 L 0.444648 0.634375 L 0.440703 0.638359 L 0.428867 0.650195 L 0.424883 0.654141 L 0.413047 0.654141 L 0.409102 0.658086 L 0.405156 0.66207 L 0.401172 0.66207 L 0.397227 0.666016 L 0.36957 0.666016 L 0.365625 0.66207 L 0.345859 0.66207 L 0.341914 0.658086 L 0.33793 0.654141 L 0.330039 0.654141 L 0.326094 0.650195 L 0.314219 0.650195 L 0.310273 0.64625 L 0.306328 0.64625 L 0.298438 0.638359 L 0.290508 0.638359 L 0.286563 0.634375 L 0.282617 0.63043 L 0.274687 0.63043 L 0.270742 0.626484 L 0.266797 0.626484 L 0.266797 0.622539 L 0.262852 0.618594 L 0.258906 0.614609 L 0.254922 0.610664 L 0.247031 0.610664 L 0.243086 0.606719 L 0.243086 0.602773 L 0.239141 0.598828 L 0.235195 0.594844 L 0.231211 0.594844 L 0.227266 0.590898 L 0.219375 0.590898 L 0.21543 0.586953 L 0.211445 0.586953 L 0.199609 0.575117 L 0.195664 0.571133 L 0.187734 0.571133 L 0.164023 0.547422 L 0.160078 0.547422 L 0.152188 0.539531 L 0.148203 0.539531 L 0.144258 0.535586 L 0.140313 0.535586 L 0.136367 0.531602 L 0.132422 0.531602 L 0.128477 0.527656 L 0.124492 0.523711 L 0.120547 0.519766 L 0.116602 0.519766 L 0.112656 0.51582 L 0.108711 0.51582 L 0.104727 0.511875 L 0.100781 0.507891 L 0.0889453 0.496055 L 0.0849609 0.496055 L 0.0810156 0.492109 L 0.0770703 0.488125 L 0.073125 0.488125 L 0.0652344 0.480234 L 0.06125 0.480234 L 0.0533594 0.472344 L 0.0494141 0.472344 Z M 0.0454688 0.468398 " transform="matrix(100,0,0,100,600,350)"/>
</g>
</svg>
