<?xml version="1.0" encoding="UTF-8"?>
<svg xmlns="http://www.w3.org/2000/svg" xmlns:xlink="http://www.w3.org/1999/xlink" width="750pt" height="3600pt" viewBox="0 0 750 3600" version="1.1">
<g id="surface1">
<path style="fill:none;stroke-width:0.01;stroke-linecap:butt;stroke-linejoin:miter;stroke:rgb(0%,0%,0%);stroke-opacity:1;stroke-miterlimit:10;" d="M 0.496484 0.478516 L 0.298477 0.455508 L 0.303477 0.293477 L 0.183477 0.0454687 L 0.117461 0.0604688 L 0.225469 0.300469 L 0.212461 0.453477 L 0.204453 0.514492 L 0.108477 0.510508 L 0.110469 0.571523 L 0.201484 0.575508 L 0.203477 0.638516 L 0.210469 0.764531 L 0.115469 0.921523 L 0.187461 0.954531 L 0.246484 0.772539 L 0.286484 0.6525 L 0.496484 0.6725 L 0.714531 0.697539 L 0.891523 0.681523 L 0.880547 0.611523 L 0.723516 0.614492 L 0.589492 0.565508 L 0.714531 0.520508 L 0.860547 0.5225 L 0.871523 0.456484 L 0.708516 0.454492 Z M 0.496484 0.478516 " transform="matrix(100,0,0,100,0,200)"/>
<path style="fill:none;stroke-width:0.01;stroke-linecap:butt;stroke-linejoin:miter;stroke:rgb(0%,0%,0%);stroke-opacity:1;stroke-miterlimit:10;" d="M 0.470508 0.468516 L 0.285469 0.440508 L 0.289492 0.325469 L 0.215469 0.144453 L 0.173477 0.163477 L 0.400508 0.277461 L 0.209453 0.445508 L 0.202461 0.541523 L 0.0454687 0.565508 L 0.0564453 0.660508 L 0.214453 0.6375 L 0.236484 0.723516 L 0.369492 0.855547 L 0.526484 0.708516 L 0.519492 0.660508 L 0.394492 0.691523 L 0.3225 0.717539 L 0.470508 0.700508 L 0.717539 0.751523 L 0.917539 0.740508 L 0.924531 0.660508 L 0.748516 0.649531 L 0.575508 0.5825 L 0.744531 0.515508 L 0.942539 0.544492 L 0.954531 0.466484 L 0.745508 0.461484 Z M 0.470508 0.468516 " transform="matrix(100,0,0,100,150,200)"/>
<path style="fill:none;stroke-width:0.01;stroke-linecap:butt;stroke-linejoin:miter;stroke:rgb(0%,0%,0%);stroke-opacity:1;stroke-miterlimit:10;" d="M 0.523516 0.580508 L 0.271484 0.568516 L 0.299492 0.431484 L 0.210469 0.178477 L 0.149453 0.210469 L 0.473516 0.358477 L 0.186484 0.579492 L 0.186484 0.651523 L 0.0484375 0.648516 L 0.0454687 0.734531 L 0.183477 0.737539 L 0.194453 0.813516 L 0.195469 0.676523 L 0.115469 0.476484 L 0.175469 0.449492 L 0.508516 0.726523 L 0.311484 0.821523 L 0.523516 0.816523 L 0.748516 0.819531 L 0.945547 0.776523 L 0.911523 0.716523 L 0.764531 0.737539 L 0.621523 0.693516 L 0.784531 0.638516 L 0.954531 0.636523 L 0.936562 0.555508 L 0.756523 0.564492 Z M 0.523516 0.580508 " transform="matrix(100,0,0,100,300,200)"/>
<path style="fill:none;stroke-width:0.01;stroke-linecap:butt;stroke-linejoin:miter;stroke:rgb(0%,0%,0%);stroke-opacity:1;stroke-miterlimit:10;" d="M 0.519492 0.5575 L 0.289492 0.560508 L 0.258477 0.421484 L 0.104453 0.190469 L 0.0454688 0.234492 L 0.170469 0.439492 L 0.196484 0.570508 L 0.186484 0.6425 L 0.0564453 0.631523 L 0.0464453 0.707539 L 0.176484 0.720508 L 0.183477 0.786523 L 0.147461 0.693516 L 0.0474609 0.571523 L 0.0824609 0.508516 L 0.213477 0.673516 L 0.297461 0.771523 L 0.519492 0.769531 L 0.749531 0.809531 L 0.942539 0.783516 L 0.928555 0.715508 L 0.772539 0.726523 L 0.616523 0.6675 L 0.771523 0.6275 L 0.954531 0.634531 L 0.940547 0.540508 L 0.748516 0.559492 Z M 0.519492 0.5575 " transform="matrix(100,0,0,100,450,200)"/>
<path style="fill:none;stroke-width:0.01;stroke-linecap:butt;stroke-linejoin:miter;stroke:rgb(0%,0%,0%);stroke-opacity:1;stroke-miterlimit:10;" d="M 0.480508 0.325469 L 0.271484 0.325469 L 0.277461 0.250469 L 0.4225 0.304492 L 0.443477 0.254492 L 0.231484 0.165469 L 0.168477 0.328477 L 0.170469 0.3925 L 0.0464453 0.388477 L 0.0454688 0.461484 L 0.159453 0.4675 L 0.165469 0.538516 L 0.171484 0.6725 L 0.0704687 0.817539 L 0.132461 0.834531 L 0.0894531 0.511484 L 0.260469 0.5575 L 0.480508 0.536484 L 0.678516 0.5675 L 0.862539 0.564492 L 0.858555 0.514492 L 0.718516 0.5175 L 0.5825 0.438477 L 0.765508 0.396484 L 0.954531 0.401484 L 0.937539 0.315469 L 0.758516 0.315469 Z M 0.480508 0.325469 " transform="matrix(100,0,0,100,600,200)"/>
<path style="fill:none;stroke-width:0.01;stroke-linecap:butt;stroke-linejoin:miter;stroke:rgb(0%,0%,0%);stroke-opacity:1;stroke-miterlimit:10;" d="M 0.505508 0.278477 L 0.284492 0.288477 L 0.295469 0.178477 L 0.476484 0.295469 L 0.5125 0.238477 L 0.277461 0.118477 L 0.167461 0.290469 L 0.172461 0.356484 L 0.0454688 0.3675 L 0.0534375 0.4475 L 0.173477 0.438477 L 0.184453 0.509492 L 0.204453 0.6675 L 0.0804688 0.874531 L 0.170469 0.881523 L 0.0524609 0.486484 L 0.276484 0.524492 L 0.505508 0.500508 L 0.736523 0.5025 L 0.923555 0.468516 L 0.916523 0.4075 L 0.767539 0.4175 L 0.605508 0.379492 L 0.766523 0.3425 L 0.954531 0.371484 L 0.947539 0.294492 L 0.743516 0.297461 Z M 0.505508 0.278477 " transform="matrix(100,0,0,100,0,350)"/>
<path style="fill:none;stroke-width:0.01;stroke-linecap:butt;stroke-linejoin:miter;stroke:rgb(0%,0%,0%);stroke-opacity:1;stroke-miterlimit:10;" d="M 0.4875 0.413477 L 0.256484 0.404492 L 0.262461 0.286484 L 0.149453 0.0684375 L 0.0954687 0.0944531 L 0.187461 0.285469 L 0.175469 0.403477 L 0.164453 0.480508 L 0.0514453 0.473516 L 0.0454687 0.548516 L 0.158477 0.5575 L 0.158477 0.629531 L 0.192461 0.750508 L 0.118477 0.914531 L 0.179453 0.931563 L 0.0864453 0.641523 L 0.255469 0.651523 L 0.4875 0.6275 L 0.742539 0.666523 L 0.951563 0.653516 L 0.948555 0.5825 L 0.753516 0.586523 L 0.598516 0.514492 L 0.746523 0.4425 L 0.921523 0.418477 L 0.954531 0.277461 L 0.630508 0.100469 Z M 0.4875 0.413477 " transform="matrix(100,0,0,100,150,350)"/>
<path style="fill:none;stroke-width:0.01;stroke-linecap:butt;stroke-linejoin:miter;stroke:rgb(0%,0%,0%);stroke-opacity:1;stroke-miterlimit:10;" d="M 0.520508 0.366484 L 0.271484 0.370469 L 0.227461 0.240469 L 0.0824609 0.0684375 L 0.0454687 0.0984766 L 0.177461 0.269492 L 0.189453 0.393477 L 0.184453 0.460508 L 0.0694531 0.4575 L 0.0694531 0.531484 L 0.179453 0.529492 L 0.188477 0.588516 L 0.221484 0.724531 L 0.129453 0.926523 L 0.205469 0.931563 L 0.252461 0.708516 L 0.289492 0.609492 L 0.520508 0.586523 L 0.761523 0.576523 L 0.939531 0.531484 L 0.923555 0.475508 L 0.771523 0.496484 L 0.6225 0.453477 L 0.779531 0.395508 L 0.954531 0.385508 L 0.952539 0.301484 L 0.757539 0.328477 Z M 0.520508 0.366484 " transform="matrix(100,0,0,100,300,350)"/>
<path style="fill:none;stroke-width:0.01;stroke-linecap:butt;stroke-linejoin:miter;stroke:rgb(0%,0%,0%);stroke-opacity:1;stroke-miterlimit:10;" d="M 0.523516 0.408477 L 0.306484 0.398477 L 0.291484 0.267461 L 0.152461 0.0454687 L 0.108477 0.0784766 L 0.396484 0.159453 L 0.220469 0.4025 L 0.218477 0.480508 L 0.0774609 0.4725 L 0.0754687 0.559492 L 0.207461 0.556523 L 0.214453 0.6175 L 0.225469 0.753516 L 0.123477 0.922539 L 0.215469 0.954531 L 0.268477 0.742539 L 0.316484 0.624531 L 0.523516 0.601523 L 0.739531 0.613516 L 0.917539 0.618516 L 0.900547 0.538516 L 0.751523 0.539492 L 0.611523 0.4925 L 0.751523 0.458477 L 0.919531 0.450508 L 0.924531 0.368477 L 0.747539 0.3825 Z M 0.523516 0.408477 " transform="matrix(100,0,0,100,450,350)"/>
<path style="fill:none;stroke-width:0.01;stroke-linecap:butt;stroke-linejoin:miter;stroke:rgb(0%,0%,0%);stroke-opacity:1;stroke-miterlimit:10;" d="M 0.508516 0.390508 L 0.323477 0.369492 L 0.361484 0.249492 L 0.300469 0.0454687 L 0.252461 0.0464453 L 0.287461 0.241484 L 0.256484 0.3625 L 0.260469 0.451484 L 0.0584375 0.463516 L 0.0634375 0.590508 L 0.262461 0.570508 L 0.287461 0.669531 L 0.346484 0.782539 L 0.319492 0.954531 L 0.390508 0.945547 L 0.383477 0.754531 L 0.369492 0.646523 L 0.508516 0.621523 L 0.756523 0.653516 L 0.941562 0.6375 L 0.941562 0.563516 L 0.769531 0.564492 L 0.6175 0.501484 L 0.756523 0.445508 L 0.939531 0.434492 L 0.934531 0.3625 L 0.746523 0.3775 Z M 0.508516 0.390508 " transform="matrix(100,0,0,100,600,350)"/>
<path style="fill:none;stroke-width:0.01;stroke-linecap:butt;stroke-linejoin:miter;stroke:rgb(0%,0%,0%);stroke-opacity:1;stroke-miterlimit:10;" d="M 0.503516 0.3375 L 0.279492 0.3525 L 0.282461 0.219453 L 0.176484 0.0454688 L 0.122461 0.0584375 L 0.198477 0.241484 L 0.194453 0.356484 L 0.194453 0.421484 L 0.0804688 0.420508 L 0.0764453 0.494492 L 0.195469 0.490508 L 0.215469 0.540508 L 0.235469 0.699531 L 0.130469 0.937539 L 0.234492 0.954531 L 0.0484375 0.530508 L 0.305469 0.5475 L 0.503516 0.5325 L 0.712539 0.541523 L 0.885547 0.516484 L 0.862539 0.458477 L 0.722539 0.476484 L 0.6025 0.431484 L 0.757539 0.360469 L 0.951562 0.339492 L 0.910547 0.265469 L 0.735508 0.300469 Z M 0.503516 0.3375 " transform="matrix(100,0,0,100,0,500)"/>
<path style="fill:none;stroke-width:0.01;stroke-linecap:butt;stroke-linejoin:miter;stroke:rgb(0%,0%,0%);stroke-opacity:1;stroke-miterlimit:10;" d="M 0.493516 0.339492 L 0.3125 0.303477 L 0.314492 0.215469 L 0.239492 0.0614453 L 0.203477 0.0744531 L 0.254492 0.207461 L 0.245469 0.303477 L 0.226484 0.3875 L 0.0454687 0.4025 L 0.0584375 0.526484 L 0.235469 0.500508 L 0.257461 0.589492 L 0.285469 0.725508 L 0.214453 0.919531 L 0.306484 0.938555 L 0.131445 0.5475 L 0.350469 0.573516 L 0.493516 0.555508 L 0.756523 0.578516 L 0.946563 0.583516 L 0.954531 0.503516 L 0.753516 0.506484 L 0.604492 0.434492 L 0.606523 0.275469 L 0.716523 0.333477 L 0.711523 0.281484 L 0.6225 0.308477 Z M 0.493516 0.339492 " transform="matrix(100,0,0,100,150,500)"/>
<path style="fill:none;stroke-width:0.01;stroke-linecap:butt;stroke-linejoin:miter;stroke:rgb(0%,0%,0%);stroke-opacity:1;stroke-miterlimit:10;" d="M 0.493516 0.456484 L 0.251484 0.453477 L 0.240469 0.341484 L 0.138477 0.158477 L 0.0874609 0.183477 L 0.330469 0.269492 L 0.170469 0.459492 L 0.159453 0.5325 L 0.0474609 0.5325 L 0.0454687 0.601523 L 0.150469 0.610508 L 0.165469 0.689531 L 0.251484 0.841523 L 0.444492 0.740508 L 0.444492 0.702539 L 0.326484 0.713516 L 0.255469 0.710508 L 0.493516 0.663516 L 0.733516 0.707539 L 0.926523 0.721523 L 0.936562 0.660508 L 0.742539 0.6525 L 0.595508 0.556523 L 0.754531 0.516484 L 0.954531 0.534492 L 0.941563 0.441484 L 0.762539 0.4475 Z M 0.493516 0.456484 " transform="matrix(100,0,0,100,300,500)"/>
<path style="fill:none;stroke-width:0.01;stroke-linecap:butt;stroke-linejoin:miter;stroke:rgb(0%,0%,0%);stroke-opacity:1;stroke-miterlimit:10;" d="M 0.519492 0.299492 L 0.302461 0.3075 L 0.314492 0.216484 L 0.468516 0.313477 L 0.5025 0.267461 L 0.284492 0.139453 L 0.191484 0.290469 L 0.181484 0.3625 L 0.0594531 0.343477 L 0.0454688 0.420508 L 0.171484 0.440508 L 0.180469 0.516484 L 0.216484 0.649531 L 0.130469 0.848516 L 0.208477 0.860547 L 0.259492 0.638516 L 0.269492 0.515508 L 0.519492 0.5125 L 0.741523 0.495508 L 0.917539 0.458477 L 0.901523 0.3975 L 0.761523 0.4325 L 0.623516 0.400508 L 0.768516 0.328477 L 0.954531 0.309492 L 0.942539 0.208477 L 0.753516 0.247461 Z M 0.519492 0.299492 " transform="matrix(100,0,0,100,450,500)"/>
<path style="fill:none;stroke-width:0.01;stroke-linecap:butt;stroke-linejoin:miter;stroke:rgb(0%,0%,0%);stroke-opacity:1;stroke-miterlimit:10;" d="M 0.494492 0.4025 L 0.244492 0.411484 L 0.236484 0.280469 L 0.0934766 0.0964453 L 0.0454688 0.132461 L 0.149453 0.314492 L 0.162461 0.420508 L 0.162461 0.484492 L 0.0514453 0.4875 L 0.0484375 0.5575 L 0.159453 0.5525 L 0.174453 0.618516 L 0.211484 0.726523 L 0.140469 0.881523 L 0.201484 0.903555 L 0.242461 0.727539 L 0.261484 0.628516 L 0.494492 0.614492 L 0.751523 0.613516 L 0.954531 0.580508 L 0.947539 0.505508 L 0.767539 0.556523 L 0.594492 0.496484 L 0.736523 0.466484 L 0.899531 0.470508 L 0.882539 0.393477 L 0.710508 0.3925 Z M 0.494492 0.4025 " transform="matrix(100,0,0,100,600,500)"/>
<path style="fill:none;stroke-width:0.01;stroke-linecap:butt;stroke-linejoin:miter;stroke:rgb(0%,0%,0%);stroke-opacity:1;stroke-miterlimit:10;" d="M 0.474492 0.403477 L 0.234492 0.396484 L 0.228477 0.279492 L 0.125469 0.0994531 L 0.0844531 0.123477 L 0.334492 0.186484 L 0.151484 0.4075 L 0.160469 0.469492 L 0.0454688 0.474492 L 0.0464453 0.549492 L 0.164453 0.5425 L 0.179453 0.600508 L 0.196484 0.720508 L 0.116445 0.876523 L 0.171484 0.900547 L 0.0934766 0.575508 L 0.276484 0.605508 L 0.474492 0.605508 L 0.684531 0.618516 L 0.863555 0.599492 L 0.850547 0.546523 L 0.703516 0.544492 L 0.576523 0.500508 L 0.741523 0.454492 L 0.954531 0.448477 L 0.944531 0.344492 L 0.743516 0.360469 Z M 0.474492 0.403477 " transform="matrix(100,0,0,100,0,650)"/>
<path style="fill:none;stroke-width:0.01;stroke-linecap:butt;stroke-linejoin:miter;stroke:rgb(0%,0%,0%);stroke-opacity:1;stroke-miterlimit:10;" d="M 0.486484 0.404492 L 0.263477 0.391484 L 0.244492 0.266484 L 0.106445 0.0464453 L 0.0454687 0.0734766 L 0.169453 0.273477 L 0.181484 0.394492 L 0.170469 0.4625 L 0.0594531 0.459492 L 0.0554687 0.535508 L 0.169453 0.539492 L 0.176484 0.603516 L 0.182461 0.752539 L 0.0474609 0.936562 L 0.127461 0.953555 L 0.0484375 0.556523 L 0.266484 0.619531 L 0.486484 0.601523 L 0.699531 0.649531 L 0.862539 0.636523 L 0.853555 0.575508 L 0.710508 0.564492 L 0.5825 0.505508 L 0.753516 0.469492 L 0.954531 0.476484 L 0.942539 0.388477 L 0.738516 0.381484 Z M 0.486484 0.404492 " transform="matrix(100,0,0,100,150,650)"/>
<path style="fill:none;stroke-width:0.01;stroke-linecap:butt;stroke-linejoin:miter;stroke:rgb(0%,0%,0%);stroke-opacity:1;stroke-miterlimit:10;" d="M 0.493516 0.4075 L 0.328477 0.383477 L 0.343477 0.266484 L 0.272461 0.0454688 L 0.219453 0.0714453 L 0.468516 0.199453 L 0.261484 0.376484 L 0.257461 0.470508 L 0.0934766 0.495508 L 0.107461 0.594492 L 0.259492 0.570508 L 0.285469 0.656523 L 0.345469 0.767539 L 0.315469 0.951563 L 0.381484 0.954531 L 0.163477 0.663516 L 0.366484 0.635508 L 0.493516 0.616523 L 0.732539 0.624531 L 0.906523 0.6125 L 0.897539 0.5375 L 0.746523 0.555508 L 0.593516 0.5025 L 0.709531 0.453477 L 0.874531 0.440508 L 0.869531 0.369492 L 0.714531 0.388477 Z M 0.493516 0.4075 " transform="matrix(100,0,0,100,300,650)"/>
<path style="fill:none;stroke-width:0.01;stroke-linecap:butt;stroke-linejoin:miter;stroke:rgb(0%,0%,0%);stroke-opacity:1;stroke-miterlimit:10;" d="M 0.491484 0.453477 L 0.276484 0.440508 L 0.204453 0.5225 L 0.125469 0.728516 L 0.0674609 0.689531 L 0.138477 0.301484 L 0.177461 0.440508 L 0.175469 0.504492 L 0.0514453 0.498516 L 0.0454688 0.578516 L 0.168477 0.585508 L 0.180469 0.6525 L 0.271484 0.808516 L 0.4525 0.694531 L 0.448477 0.653516 L 0.336484 0.6675 L 0.271484 0.671523 L 0.491484 0.663516 L 0.6875 0.702539 L 0.876523 0.700508 L 0.875547 0.6325 L 0.718516 0.626523 L 0.585508 0.5575 L 0.720508 0.520508 L 0.883555 0.529492 L 0.954531 0.424492 L 0.699531 0.191484 Z M 0.491484 0.453477 " transform="matrix(100,0,0,100,450,650)"/>
<path style="fill:none;stroke-width:0.01;stroke-linecap:butt;stroke-linejoin:miter;stroke:rgb(0%,0%,0%);stroke-opacity:1;stroke-miterlimit:10;" d="M 0.516484 0.456484 L 0.289492 0.431484 L 0.189453 0.505508 L 0.114453 0.688516 L 0.0604688 0.659531 L 0.179453 0.286484 L 0.184453 0.434492 L 0.167461 0.514492 L 0.0524609 0.510508 L 0.0454688 0.590508 L 0.159453 0.586523 L 0.164453 0.661523 L 0.157461 0.550508 L 0.0984766 0.403477 L 0.139453 0.353477 L 0.451484 0.566523 L 0.272461 0.669531 L 0.516484 0.674531 L 0.740508 0.713516 L 0.928555 0.705508 L 0.927539 0.640508 L 0.765508 0.635508 L 0.625508 0.554492 L 0.774531 0.503516 L 0.953555 0.4975 L 0.954531 0.4375 L 0.760508 0.4575 Z M 0.516484 0.456484 " transform="matrix(100,0,0,100,600,650)"/>
</g>
</svg>
