<?xml version="1.0" encoding="UTF-8"?>
<svg xmlns="http://www.w3.org/2000/svg" xmlns:xlink="http://www.w3.org/1999/xlink" width="750pt" height="3600pt" viewBox="0 0 750 3600" version="1.1">
<g id="surface1">
<path style="fill:none;stroke-width:0.01;stroke-linecap:butt;stroke-linejoin:miter;stroke:rgb(0%,0%,0%);stroke-opacity:1;stroke-miterlimit:10;" d="M 0.536484 0.408477 L 0.309492 0.408477 L 0.436484 0.390508 L 0.563516 0.413477 L 0.590508 0.360469 L 0.423477 0.345469 L 0.221484 0.3825 L 0.182461 0.466484 L 0.0494531 0.459492 L 0.0454688 0.535508 L 0.174453 0.5425 L 0.206484 0.616523 L 0.394492 0.654531 L 0.598516 0.609492 L 0.584492 0.553516 L 0.426484 0.595508 L 0.286484 0.584492 L 0.536484 0.5825 L 0.779531 0.604492 L 0.954531 0.6075 L 0.947539 0.531484 L 0.778516 0.529492 L 0.614492 0.499492 L 0.770508 0.456484 L 0.938555 0.4525 L 0.932539 0.370469 L 0.751523 0.3875 Z M 0.536484 0.408477 " transform="matrix(100,0,0,100,0,200)"/>
<path style="fill:none;stroke-width:0.01;stroke-linecap:butt;stroke-linejoin:miter;stroke:rgb(0%,0%,0%);stroke-opacity:1;stroke-miterlimit:10;" d="M 0.536484 0.403477 L 0.311484 0.405508 L 0.441484 0.390508 L 0.575508 0.414492 L 0.601523 0.359492 L 0.4275 0.3425 L 0.221484 0.379492 L 0.184453 0.4625 L 0.0484375 0.455508 L 0.0454687 0.531484 L 0.174453 0.538516 L 0.206484 0.613516 L 0.393477 0.6575 L 0.604492 0.619531 L 0.593516 0.560508 L 0.4275 0.5975 L 0.287461 0.5825 L 0.536484 0.578516 L 0.781523 0.599492 L 0.954531 0.600508 L 0.946563 0.526484 L 0.779531 0.524492 L 0.615508 0.494492 L 0.771523 0.449492 L 0.941562 0.444492 L 0.933555 0.3625 L 0.750508 0.380469 Z M 0.536484 0.403477 " transform="matrix(100,0,0,100,150,200)"/>
<path style="fill:none;stroke-width:0.01;stroke-linecap:butt;stroke-linejoin:miter;stroke:rgb(0%,0%,0%);stroke-opacity:1;stroke-miterlimit:10;" d="M 0.535508 0.405508 L 0.3075 0.406484 L 0.435508 0.388477 L 0.563516 0.411484 L 0.590508 0.3575 L 0.421484 0.343477 L 0.220469 0.381484 L 0.182461 0.463516 L 0.0494531 0.455508 L 0.0454687 0.530508 L 0.173477 0.539492 L 0.204453 0.615508 L 0.394492 0.656523 L 0.603516 0.614492 L 0.589492 0.555508 L 0.4275 0.5975 L 0.286484 0.583516 L 0.535508 0.580508 L 0.780547 0.600508 L 0.954531 0.598516 L 0.945547 0.524492 L 0.777539 0.525508 L 0.613516 0.495508 L 0.768516 0.449492 L 0.932539 0.443477 L 0.922539 0.363477 L 0.748516 0.381484 Z M 0.535508 0.405508 " transform="matrix(100,0,0,100,300,200)"/>
<path style="fill:none;stroke-width:0.01;stroke-linecap:butt;stroke-linejoin:miter;stroke:rgb(0%,0%,0%);stroke-opacity:1;stroke-miterlimit:10;" d="M 0.534492 0.405508 L 0.3075 0.4075 L 0.434492 0.393477 L 0.5625 0.420508 L 0.591523 0.3675 L 0.421484 0.3475 L 0.218477 0.381484 L 0.182461 0.464492 L 0.0494531 0.4575 L 0.0454688 0.533516 L 0.173477 0.539492 L 0.203477 0.614492 L 0.390508 0.6525 L 0.595508 0.611523 L 0.5825 0.555508 L 0.423477 0.593516 L 0.283477 0.5825 L 0.534492 0.579492 L 0.779531 0.600508 L 0.954531 0.598516 L 0.943555 0.5225 L 0.775547 0.524492 L 0.613516 0.495508 L 0.767539 0.449492 L 0.939531 0.443477 L 0.928555 0.359492 L 0.747539 0.379492 Z M 0.534492 0.405508 " transform="matrix(100,0,0,100,450,200)"/>
<path style="fill:none;stroke-width:0.01;stroke-linecap:butt;stroke-linejoin:miter;stroke:rgb(0%,0%,0%);stroke-opacity:1;stroke-miterlimit:10;" d="M 0.5375 0.405508 L 0.310469 0.4075 L 0.438477 0.391484 L 0.5675 0.416484 L 0.593516 0.3625 L 0.425508 0.345469 L 0.221484 0.381484 L 0.183477 0.464492 L 0.0484375 0.4575 L 0.0454688 0.534492 L 0.174453 0.540508 L 0.207461 0.613516 L 0.396484 0.654531 L 0.608516 0.6125 L 0.593516 0.554492 L 0.430508 0.594492 L 0.289492 0.581523 L 0.5375 0.579492 L 0.781523 0.600508 L 0.954531 0.601523 L 0.946562 0.526484 L 0.779531 0.525508 L 0.616523 0.495508 L 0.771523 0.449492 L 0.939531 0.4425 L 0.930547 0.360469 L 0.751523 0.380469 Z M 0.5375 0.405508 " transform="matrix(100,0,0,100,600,200)"/>
<path style="fill:none;stroke-width:0.01;stroke-linecap:butt;stroke-linejoin:miter;stroke:rgb(0%,0%,0%);stroke-opacity:1;stroke-miterlimit:10;" d="M 0.536484 0.406484 L 0.309492 0.406484 L 0.4375 0.388477 L 0.568516 0.411484 L 0.594492 0.358477 L 0.424492 0.3425 L 0.220469 0.381484 L 0.183477 0.464492 L 0.0484375 0.456484 L 0.0454688 0.533516 L 0.174453 0.540508 L 0.205469 0.615508 L 0.395508 0.6575 L 0.6025 0.615508 L 0.588516 0.558516 L 0.428477 0.598516 L 0.286484 0.584492 L 0.536484 0.580508 L 0.781523 0.600508 L 0.954531 0.599492 L 0.946562 0.524492 L 0.778516 0.524492 L 0.614492 0.496484 L 0.769531 0.451484 L 0.937539 0.4475 L 0.928555 0.365469 L 0.750508 0.3825 Z M 0.536484 0.406484 " transform="matrix(100,0,0,100,0,350)"/>
<path style="fill:none;stroke-width:0.01;stroke-linecap:butt;stroke-linejoin:miter;stroke:rgb(0%,0%,0%);stroke-opacity:1;stroke-miterlimit:10;" d="M 0.536484 0.404492 L 0.309492 0.405508 L 0.434492 0.389492 L 0.5625 0.413477 L 0.589492 0.361484 L 0.421484 0.343477 L 0.221484 0.379492 L 0.182461 0.4625 L 0.0484375 0.455508 L 0.0454687 0.531484 L 0.174453 0.538516 L 0.206484 0.613516 L 0.391484 0.656523 L 0.600508 0.621523 L 0.588516 0.5625 L 0.426484 0.598516 L 0.286484 0.583516 L 0.536484 0.578516 L 0.781523 0.600508 L 0.954531 0.600508 L 0.947539 0.524492 L 0.779531 0.524492 L 0.615508 0.494492 L 0.770508 0.4475 L 0.939531 0.443477 L 0.933555 0.361484 L 0.751523 0.378477 Z M 0.536484 0.404492 " transform="matrix(100,0,0,100,150,350)"/>
<path style="fill:none;stroke-width:0.01;stroke-linecap:butt;stroke-linejoin:miter;stroke:rgb(0%,0%,0%);stroke-opacity:1;stroke-miterlimit:10;" d="M 0.534492 0.405508 L 0.3075 0.406484 L 0.4325 0.390508 L 0.558516 0.415508 L 0.585508 0.363477 L 0.419492 0.345469 L 0.221484 0.380469 L 0.182461 0.463516 L 0.0494531 0.455508 L 0.0454687 0.5325 L 0.173477 0.539492 L 0.205469 0.613516 L 0.390508 0.654531 L 0.598516 0.616523 L 0.585508 0.559492 L 0.424492 0.595508 L 0.285469 0.5825 L 0.534492 0.579492 L 0.779531 0.599492 L 0.954531 0.595508 L 0.945547 0.521484 L 0.776523 0.523516 L 0.613516 0.495508 L 0.768516 0.449492 L 0.937539 0.439492 L 0.926523 0.3575 L 0.747539 0.380469 Z M 0.534492 0.405508 " transform="matrix(100,0,0,100,300,350)"/>
<path style="fill:none;stroke-width:0.01;stroke-linecap:butt;stroke-linejoin:miter;stroke:rgb(0%,0%,0%);stroke-opacity:1;stroke-miterlimit:10;" d="M 0.536484 0.406484 L 0.310469 0.408477 L 0.438477 0.391484 L 0.5675 0.416484 L 0.595508 0.363477 L 0.424492 0.345469 L 0.220469 0.3825 L 0.182461 0.466484 L 0.0474609 0.459492 L 0.0454688 0.536484 L 0.174453 0.541523 L 0.206484 0.615508 L 0.393477 0.654531 L 0.599492 0.613516 L 0.585508 0.555508 L 0.426484 0.596523 L 0.287461 0.583516 L 0.536484 0.581523 L 0.780547 0.603516 L 0.954531 0.601523 L 0.945547 0.5275 L 0.777539 0.5275 L 0.614492 0.4975 L 0.770508 0.453477 L 0.940547 0.4475 L 0.932539 0.365469 L 0.750508 0.383477 Z M 0.536484 0.406484 " transform="matrix(100,0,0,100,450,350)"/>
<path style="fill:none;stroke-width:0.01;stroke-linecap:butt;stroke-linejoin:miter;stroke:rgb(0%,0%,0%);stroke-opacity:1;stroke-miterlimit:10;" d="M 0.538516 0.406484 L 0.310469 0.408477 L 0.439492 0.391484 L 0.569492 0.413477 L 0.595508 0.358477 L 0.424492 0.345469 L 0.221484 0.383477 L 0.183477 0.466484 L 0.0494531 0.459492 L 0.0454688 0.535508 L 0.175469 0.5425 L 0.207461 0.616523 L 0.3925 0.654531 L 0.594492 0.613516 L 0.581523 0.5575 L 0.424492 0.5975 L 0.286484 0.584492 L 0.538516 0.581523 L 0.782539 0.6025 L 0.954531 0.604492 L 0.947539 0.530508 L 0.780547 0.5275 L 0.616523 0.4975 L 0.771523 0.451484 L 0.939531 0.446484 L 0.931563 0.3675 L 0.752539 0.3825 Z M 0.538516 0.406484 " transform="matrix(100,0,0,100,600,350)"/>
<path style="fill:none;stroke-width:0.01;stroke-linecap:butt;stroke-linejoin:miter;stroke:rgb(0%,0%,0%);stroke-opacity:1;stroke-miterlimit:10;" d="M 0.536484 0.403477 L 0.3075 0.405508 L 0.433477 0.390508 L 0.560508 0.416484 L 0.5875 0.363477 L 0.421484 0.344492 L 0.221484 0.379492 L 0.182461 0.4625 L 0.0494531 0.456484 L 0.0454688 0.531484 L 0.174453 0.538516 L 0.205469 0.6125 L 0.3925 0.655508 L 0.598516 0.6175 L 0.586523 0.560508 L 0.426484 0.5975 L 0.286484 0.5825 L 0.536484 0.578516 L 0.780547 0.5975 L 0.954531 0.5975 L 0.945547 0.5225 L 0.777539 0.523516 L 0.614492 0.494492 L 0.771523 0.4475 L 0.942539 0.4375 L 0.932539 0.353477 L 0.749531 0.3775 Z M 0.536484 0.403477 " transform="matrix(100,0,0,100,0,500)"/>
<path style="fill:none;stroke-width:0.01;stroke-linecap:butt;stroke-linejoin:miter;stroke:rgb(0%,0%,0%);stroke-opacity:1;stroke-miterlimit:10;" d="M 0.535508 0.405508 L 0.308477 0.406484 L 0.434492 0.391484 L 0.561523 0.416484 L 0.588516 0.365469 L 0.421484 0.346484 L 0.221484 0.380469 L 0.183477 0.463516 L 0.0494531 0.455508 L 0.0454687 0.530508 L 0.174453 0.539492 L 0.205469 0.614492 L 0.390508 0.653516 L 0.593516 0.6175 L 0.581523 0.561523 L 0.423477 0.596523 L 0.285469 0.583516 L 0.535508 0.579492 L 0.779531 0.601523 L 0.954531 0.600508 L 0.945547 0.526484 L 0.777539 0.525508 L 0.614492 0.496484 L 0.771523 0.451484 L 0.943555 0.448477 L 0.936562 0.364492 L 0.753516 0.381484 Z M 0.535508 0.405508 " transform="matrix(100,0,0,100,150,500)"/>
<path style="fill:none;stroke-width:0.01;stroke-linecap:butt;stroke-linejoin:miter;stroke:rgb(0%,0%,0%);stroke-opacity:1;stroke-miterlimit:10;" d="M 0.533516 0.404492 L 0.3075 0.406484 L 0.435508 0.390508 L 0.566523 0.415508 L 0.595508 0.360469 L 0.421484 0.343477 L 0.218477 0.381484 L 0.181484 0.464492 L 0.0484375 0.456484 L 0.0454687 0.5325 L 0.173477 0.539492 L 0.203477 0.613516 L 0.393477 0.656523 L 0.604492 0.619531 L 0.593516 0.559492 L 0.428477 0.5975 L 0.285469 0.581523 L 0.533516 0.579492 L 0.778516 0.601523 L 0.954531 0.604492 L 0.946563 0.528516 L 0.776523 0.526484 L 0.6125 0.495508 L 0.769531 0.449492 L 0.939531 0.4425 L 0.931563 0.361484 L 0.749531 0.379492 Z M 0.533516 0.404492 " transform="matrix(100,0,0,100,300,500)"/>
<path style="fill:none;stroke-width:0.01;stroke-linecap:butt;stroke-linejoin:miter;stroke:rgb(0%,0%,0%);stroke-opacity:1;stroke-miterlimit:10;" d="M 0.535508 0.404492 L 0.309492 0.4075 L 0.436484 0.390508 L 0.563516 0.414492 L 0.589492 0.3625 L 0.423477 0.345469 L 0.221484 0.380469 L 0.182461 0.463516 L 0.0484375 0.4575 L 0.0454688 0.5325 L 0.173477 0.539492 L 0.206484 0.613516 L 0.3925 0.654531 L 0.5975 0.6125 L 0.583516 0.555508 L 0.424492 0.596523 L 0.286484 0.5825 L 0.535508 0.579492 L 0.780547 0.600508 L 0.954531 0.601523 L 0.946562 0.525508 L 0.778516 0.524492 L 0.614492 0.495508 L 0.770508 0.450508 L 0.942539 0.444492 L 0.933555 0.361484 L 0.750508 0.379492 Z M 0.535508 0.404492 " transform="matrix(100,0,0,100,450,500)"/>
<path style="fill:none;stroke-width:0.01;stroke-linecap:butt;stroke-linejoin:miter;stroke:rgb(0%,0%,0%);stroke-opacity:1;stroke-miterlimit:10;" d="M 0.535508 0.408477 L 0.310469 0.408477 L 0.438477 0.393477 L 0.569492 0.418477 L 0.595508 0.363477 L 0.425508 0.346484 L 0.221484 0.3825 L 0.183477 0.465508 L 0.0494531 0.456484 L 0.0454688 0.533516 L 0.174453 0.5425 L 0.205469 0.616523 L 0.391484 0.653516 L 0.590508 0.611523 L 0.576523 0.556523 L 0.4225 0.596523 L 0.284492 0.585508 L 0.535508 0.5825 L 0.780547 0.604492 L 0.954531 0.605508 L 0.946562 0.530508 L 0.778516 0.529492 L 0.614492 0.499492 L 0.769531 0.454492 L 0.938555 0.448477 L 0.928555 0.368477 L 0.750508 0.385508 Z M 0.535508 0.408477 " transform="matrix(100,0,0,100,600,500)"/>
<path style="fill:none;stroke-width:0.01;stroke-linecap:butt;stroke-linejoin:miter;stroke:rgb(0%,0%,0%);stroke-opacity:1;stroke-miterlimit:10;" d="M 0.535508 0.406484 L 0.308477 0.4075 L 0.433477 0.389492 L 0.559492 0.410508 L 0.583516 0.3575 L 0.420508 0.344492 L 0.221484 0.381484 L 0.183477 0.464492 L 0.0484375 0.456484 L 0.0454688 0.530508 L 0.173477 0.540508 L 0.206484 0.615508 L 0.393477 0.655508 L 0.601523 0.613516 L 0.5875 0.555508 L 0.4275 0.596523 L 0.286484 0.583516 L 0.535508 0.580508 L 0.779531 0.6025 L 0.954531 0.603516 L 0.947539 0.5275 L 0.778516 0.5275 L 0.614492 0.496484 L 0.770508 0.450508 L 0.938555 0.443477 L 0.929531 0.361484 L 0.750508 0.381484 Z M 0.535508 0.406484 " transform="matrix(100,0,0,100,0,650)"/>
<path style="fill:none;stroke-width:0.01;stroke-linecap:butt;stroke-linejoin:miter;stroke:rgb(0%,0%,0%);stroke-opacity:1;stroke-miterlimit:10;" d="M 0.534492 0.405508 L 0.3075 0.408477 L 0.435508 0.3925 L 0.5675 0.418477 L 0.595508 0.364492 L 0.4225 0.345469 L 0.217461 0.380469 L 0.181484 0.463516 L 0.0484375 0.455508 L 0.0454687 0.531484 L 0.172461 0.539492 L 0.202461 0.614492 L 0.388477 0.654531 L 0.596523 0.613516 L 0.5825 0.554492 L 0.4225 0.594492 L 0.282461 0.5825 L 0.534492 0.579492 L 0.779531 0.599492 L 0.954531 0.5975 L 0.944531 0.521484 L 0.776523 0.523516 L 0.613516 0.495508 L 0.769531 0.448477 L 0.939531 0.4425 L 0.930547 0.361484 L 0.750508 0.379492 Z M 0.534492 0.405508 " transform="matrix(100,0,0,100,150,650)"/>
<path style="fill:none;stroke-width:0.01;stroke-linecap:butt;stroke-linejoin:miter;stroke:rgb(0%,0%,0%);stroke-opacity:1;stroke-miterlimit:10;" d="M 0.534492 0.4075 L 0.3075 0.409492 L 0.434492 0.3925 L 0.564492 0.415508 L 0.591523 0.361484 L 0.420508 0.345469 L 0.219453 0.384492 L 0.181484 0.465508 L 0.0464453 0.461484 L 0.0454687 0.536484 L 0.173477 0.541523 L 0.205469 0.616523 L 0.390508 0.654531 L 0.591523 0.615508 L 0.578516 0.558516 L 0.4225 0.596523 L 0.284492 0.584492 L 0.534492 0.5825 L 0.780547 0.6025 L 0.954531 0.601523 L 0.946563 0.525508 L 0.778516 0.526484 L 0.613516 0.498516 L 0.768516 0.451484 L 0.938555 0.445508 L 0.929531 0.364492 L 0.748516 0.381484 Z M 0.534492 0.4075 " transform="matrix(100,0,0,100,300,650)"/>
<path style="fill:none;stroke-width:0.01;stroke-linecap:butt;stroke-linejoin:miter;stroke:rgb(0%,0%,0%);stroke-opacity:1;stroke-miterlimit:10;" d="M 0.535508 0.406484 L 0.309492 0.406484 L 0.436484 0.390508 L 0.564492 0.416484 L 0.5925 0.363477 L 0.424492 0.344492 L 0.220469 0.381484 L 0.182461 0.463516 L 0.0494531 0.456484 L 0.0454688 0.531484 L 0.173477 0.539492 L 0.204453 0.614492 L 0.389492 0.655508 L 0.594492 0.614492 L 0.580508 0.5575 L 0.4225 0.5975 L 0.283477 0.583516 L 0.535508 0.580508 L 0.780547 0.603516 L 0.954531 0.606523 L 0.948555 0.5325 L 0.779531 0.5275 L 0.614492 0.496484 L 0.769531 0.448477 L 0.939531 0.439492 L 0.928555 0.3575 L 0.749531 0.379492 Z M 0.535508 0.406484 " transform="matrix(100,0,0,100,450,650)"/>
<path style="fill:none;stroke-width:0.01;stroke-linecap:butt;stroke-linejoin:miter;stroke:rgb(0%,0%,0%);stroke-opacity:1;stroke-miterlimit:10;" d="M 0.534492 0.404492 L 0.3075 0.406484 L 0.434492 0.3925 L 0.563516 0.418477 L 0.591523 0.364492 L 0.421484 0.345469 L 0.219453 0.380469 L 0.181484 0.463516 L 0.0484375 0.4575 L 0.0454688 0.533516 L 0.173477 0.539492 L 0.203477 0.6125 L 0.391484 0.654531 L 0.599492 0.613516 L 0.586523 0.555508 L 0.424492 0.595508 L 0.284492 0.581523 L 0.534492 0.578516 L 0.779531 0.598516 L 0.954531 0.599492 L 0.946562 0.523516 L 0.776523 0.523516 L 0.613516 0.494492 L 0.768516 0.448477 L 0.937539 0.443477 L 0.930547 0.363477 L 0.749531 0.378477 Z M 0.534492 0.404492 " transform="matrix(100,0,0,100,600,650)"/>
</g>
</svg>
