<?xml version="1.0" encoding="UTF-8"?>
<svg xmlns="http://www.w3.org/2000/svg" xmlns:xlink="http://www.w3.org/1999/xlink" width="750pt" height="2000pt" viewBox="0 0 750 2000" version="1.1">
<g id="surface1">
<path style="fill:none;stroke-width:0.01;stroke-linecap:butt;stroke-linejoin:miter;stroke:rgb(0%,0%,0%);stroke-opacity:1;stroke-miterlimit:10;" d="M 0.540781 0.409687 L 0.313516 0.403828 L 0.441719 0.392187 L 0.569922 0.421328 L 0.599063 0.368867 L 0.430078 0.345586 L 0.226094 0.374727 L 0.185312 0.456289 L 0.0512891 0.444648 L 0.0454688 0.520391 L 0.173672 0.53207 L 0.202813 0.607813 L 0.389297 0.654414 L 0.599063 0.619453 L 0.587422 0.561172 L 0.424258 0.596172 L 0.284375 0.578672 L 0.534961 0.584492 L 0.779727 0.613633 L 0.954531 0.619453 L 0.948711 0.543711 L 0.779727 0.537891 L 0.616563 0.50293 L 0.773906 0.462109 L 0.942891 0.462109 L 0.93707 0.380547 L 0.756406 0.392187 Z M 0.540781 0.409687 " transform="matrix(100,0,0,100,0,200)"/>
</g>
</svg>
