<?xml version="1.0" encoding="UTF-8"?>
<svg xmlns="http://www.w3.org/2000/svg" xmlns:xlink="http://www.w3.org/1999/xlink" width="750pt" height="3600pt" viewBox="0 0 750 3600" version="1.1">
<g id="surface1">
<path style="fill:none;stroke-width:0.01;stroke-linecap:butt;stroke-linejoin:miter;stroke:rgb(0%,0%,0%);stroke-opacity:1;stroke-miterlimit:10;" d="M 0.513516 0.389492 L 0.308477 0.359492 L 0.260469 0.262461 L 0.105469 0.0454687 L 0.0794531 0.0924609 L 0.216484 0.256484 L 0.233477 0.369492 L 0.228477 0.430508 L 0.132461 0.413477 L 0.124453 0.476484 L 0.216484 0.494492 L 0.211484 0.553516 L 0.264492 0.711523 L 0.306484 0.954531 L 0.401484 0.944531 L 0.338477 0.719531 L 0.298477 0.5675 L 0.513516 0.588516 L 0.737539 0.613516 L 0.920547 0.5975 L 0.909531 0.525508 L 0.747539 0.528516 L 0.609492 0.478516 L 0.727539 0.421484 L 0.862539 0.423477 L 0.874531 0.3525 L 0.716523 0.339492 Z M 0.513516 0.389492 " transform="matrix(100,0,0,100,0,200)"/>
<path style="fill:none;stroke-width:0.01;stroke-linecap:butt;stroke-linejoin:miter;stroke:rgb(0%,0%,0%);stroke-opacity:1;stroke-miterlimit:10;" d="M 0.5075 0.246484 L 0.306484 0.254492 L 0.373477 0.236484 L 0.525508 0.196484 L 0.540508 0.136445 L 0.286484 0.0944531 L 0.189453 0.262461 L 0.179453 0.3275 L 0.0474609 0.318477 L 0.0454687 0.3925 L 0.171484 0.406484 L 0.179453 0.486484 L 0.3125 0.644531 L 0.463516 0.905547 L 0.570508 0.852539 L 0.364492 0.601523 L 0.290469 0.483516 L 0.5075 0.451484 L 0.754531 0.490508 L 0.954531 0.4725 L 0.949531 0.415508 L 0.771523 0.4225 L 0.604492 0.338477 L 0.727539 0.261484 L 0.875547 0.263477 L 0.861523 0.184453 L 0.716523 0.187461 Z M 0.5075 0.246484 " transform="matrix(100,0,0,100,150,200)"/>
<path style="fill:none;stroke-width:0.01;stroke-linecap:butt;stroke-linejoin:miter;stroke:rgb(0%,0%,0%);stroke-opacity:1;stroke-miterlimit:10;" d="M 0.524492 0.533516 L 0.269492 0.519492 L 0.246484 0.426484 L 0.163477 0.221484 L 0.121445 0.262461 L 0.209453 0.429492 L 0.194453 0.533516 L 0.188477 0.606523 L 0.0524609 0.5975 L 0.0454687 0.680508 L 0.181484 0.691523 L 0.189453 0.770508 L 0.184453 0.640508 L 0.109453 0.4275 L 0.184453 0.388477 L 0.247461 0.6425 L 0.308477 0.778516 L 0.524492 0.773516 L 0.754531 0.776523 L 0.954531 0.733516 L 0.920547 0.671523 L 0.770508 0.6925 L 0.624531 0.6475 L 0.762539 0.574492 L 0.920547 0.583516 L 0.910547 0.505508 L 0.737539 0.493516 Z M 0.524492 0.533516 " transform="matrix(100,0,0,100,300,200)"/>
<path style="fill:none;stroke-width:0.01;stroke-linecap:butt;stroke-linejoin:miter;stroke:rgb(0%,0%,0%);stroke-opacity:1;stroke-miterlimit:10;" d="M 0.5075 0.193477 L 0.306484 0.208477 L 0.3575 0.210469 L 0.4875 0.193477 L 0.508516 0.142461 L 0.309492 0.0454687 L 0.199453 0.195469 L 0.182461 0.265469 L 0.0654687 0.251484 L 0.0544531 0.328477 L 0.172461 0.3375 L 0.167461 0.401484 L 0.269492 0.6175 L 0.394492 0.954531 L 0.5075 0.919531 L 0.369492 0.593516 L 0.262461 0.401484 L 0.5075 0.399492 L 0.750508 0.436484 L 0.945547 0.414492 L 0.923555 0.350469 L 0.770508 0.365469 L 0.611523 0.298477 L 0.758516 0.223477 L 0.923555 0.228477 L 0.919531 0.148477 L 0.728516 0.150469 Z M 0.5075 0.193477 " transform="matrix(100,0,0,100,450,200)"/>
<path style="fill:none;stroke-width:0.01;stroke-linecap:butt;stroke-linejoin:miter;stroke:rgb(0%,0%,0%);stroke-opacity:1;stroke-miterlimit:10;" d="M 0.501484 0.303477 L 0.273477 0.294492 L 0.227461 0.221484 L 0.147461 0.0454687 L 0.108477 0.0754688 L 0.197461 0.205469 L 0.197461 0.300469 L 0.183477 0.371484 L 0.0614453 0.359492 L 0.0454688 0.436484 L 0.168477 0.448477 L 0.162461 0.516484 L 0.198477 0.6725 L 0.266484 0.954531 L 0.356484 0.911523 L 0.301484 0.668516 L 0.261484 0.538516 L 0.501484 0.525508 L 0.732539 0.569492 L 0.922539 0.5725 L 0.924531 0.510508 L 0.760508 0.503516 L 0.6125 0.409492 L 0.764531 0.3275 L 0.954531 0.3375 L 0.940547 0.242461 L 0.754531 0.258477 Z M 0.501484 0.303477 " transform="matrix(100,0,0,100,600,200)"/>
<path style="fill:none;stroke-width:0.01;stroke-linecap:butt;stroke-linejoin:miter;stroke:rgb(0%,0%,0%);stroke-opacity:1;stroke-miterlimit:10;" d="M 0.489492 0.285469 L 0.303477 0.250469 L 0.267461 0.187461 L 0.205469 0.0454687 L 0.181484 0.0644531 L 0.251484 0.175469 L 0.244492 0.251484 L 0.248477 0.3475 L 0.0724609 0.363477 L 0.0884766 0.471484 L 0.252461 0.4575 L 0.268477 0.5475 L 0.346484 0.698516 L 0.503516 0.954531 L 0.576523 0.890547 L 0.4325 0.661523 L 0.354492 0.530508 L 0.489492 0.510508 L 0.743516 0.4975 L 0.927539 0.465508 L 0.918555 0.400508 L 0.756523 0.421484 L 0.589492 0.386484 L 0.744531 0.334492 L 0.905547 0.360469 L 0.908555 0.268477 L 0.717539 0.257461 Z M 0.489492 0.285469 " transform="matrix(100,0,0,100,0,350)"/>
<path style="fill:none;stroke-width:0.01;stroke-linecap:butt;stroke-linejoin:miter;stroke:rgb(0%,0%,0%);stroke-opacity:1;stroke-miterlimit:10;" d="M 0.505508 0.3075 L 0.279492 0.311484 L 0.259492 0.243477 L 0.177461 0.0454687 L 0.136445 0.0714453 L 0.215469 0.216484 L 0.209453 0.306484 L 0.199453 0.373477 L 0.0824609 0.356484 L 0.0694531 0.430508 L 0.184453 0.449492 L 0.183477 0.519492 L 0.239492 0.694531 L 0.3575 0.954531 L 0.448477 0.922539 L 0.3525 0.676523 L 0.284492 0.540508 L 0.505508 0.520508 L 0.729531 0.555508 L 0.930547 0.543516 L 0.927539 0.466484 L 0.755508 0.468516 L 0.609492 0.414492 L 0.742539 0.338477 L 0.893555 0.3475 L 0.886523 0.274492 L 0.712539 0.261484 Z M 0.505508 0.3075 " transform="matrix(100,0,0,100,150,350)"/>
<path style="fill:none;stroke-width:0.01;stroke-linecap:butt;stroke-linejoin:miter;stroke:rgb(0%,0%,0%);stroke-opacity:1;stroke-miterlimit:10;" d="M 0.5175 0.293477 L 0.290469 0.287461 L 0.247461 0.213477 L 0.145469 0.0454687 L 0.120469 0.0704687 L 0.213477 0.221484 L 0.215469 0.297461 L 0.203477 0.351484 L 0.0954688 0.355469 L 0.100469 0.419492 L 0.204453 0.4225 L 0.208477 0.494492 L 0.257461 0.675508 L 0.3575 0.954531 L 0.443477 0.894531 L 0.356484 0.645508 L 0.302461 0.5125 L 0.5175 0.500508 L 0.746523 0.496484 L 0.904531 0.456484 L 0.888555 0.405508 L 0.749531 0.419492 L 0.615508 0.3775 L 0.738516 0.314492 L 0.889531 0.304492 L 0.872539 0.230469 L 0.710508 0.243477 Z M 0.5175 0.293477 " transform="matrix(100,0,0,100,300,350)"/>
<path style="fill:none;stroke-width:0.01;stroke-linecap:butt;stroke-linejoin:miter;stroke:rgb(0%,0%,0%);stroke-opacity:1;stroke-miterlimit:10;" d="M 0.524492 0.321484 L 0.290469 0.3075 L 0.245469 0.231484 L 0.121445 0.0454687 L 0.0904688 0.0694531 L 0.206484 0.214453 L 0.211484 0.315469 L 0.209453 0.396484 L 0.0634375 0.3875 L 0.0614453 0.4775 L 0.198477 0.474492 L 0.205469 0.538516 L 0.257461 0.699531 L 0.331484 0.954531 L 0.4225 0.924531 L 0.338477 0.6875 L 0.309492 0.545508 L 0.524492 0.520508 L 0.751523 0.531484 L 0.938555 0.534492 L 0.930547 0.461484 L 0.768516 0.460508 L 0.618516 0.4075 L 0.741523 0.336484 L 0.897539 0.341484 L 0.889531 0.260469 L 0.717539 0.253477 Z M 0.524492 0.321484 " transform="matrix(100,0,0,100,450,350)"/>
<path style="fill:none;stroke-width:0.01;stroke-linecap:butt;stroke-linejoin:miter;stroke:rgb(0%,0%,0%);stroke-opacity:1;stroke-miterlimit:10;" d="M 0.495508 0.363477 L 0.326484 0.344492 L 0.323477 0.256484 L 0.283477 0.0454687 L 0.226484 0.0684375 L 0.287461 0.233477 L 0.263477 0.338477 L 0.261484 0.424492 L 0.0864453 0.428477 L 0.0894531 0.546523 L 0.263477 0.528516 L 0.289492 0.6125 L 0.3625 0.739531 L 0.491484 0.954531 L 0.568516 0.908555 L 0.444492 0.710508 L 0.366484 0.596523 L 0.495508 0.580508 L 0.723516 0.611523 L 0.911523 0.603516 L 0.913555 0.544492 L 0.748516 0.536484 L 0.595508 0.470508 L 0.718516 0.398477 L 0.878555 0.3975 L 0.897539 0.321484 L 0.722539 0.313477 Z M 0.495508 0.363477 " transform="matrix(100,0,0,100,600,350)"/>
<path style="fill:none;stroke-width:0.01;stroke-linecap:butt;stroke-linejoin:miter;stroke:rgb(0%,0%,0%);stroke-opacity:1;stroke-miterlimit:10;" d="M 0.518516 0.282461 L 0.309492 0.272461 L 0.261484 0.199453 L 0.161484 0.0454688 L 0.129453 0.0844531 L 0.233477 0.204453 L 0.241484 0.289492 L 0.239492 0.346484 L 0.138477 0.340469 L 0.127461 0.411484 L 0.240469 0.414492 L 0.250469 0.470508 L 0.281484 0.661523 L 0.320469 0.954531 L 0.431484 0.928555 L 0.361484 0.631523 L 0.334492 0.4775 L 0.518516 0.463516 L 0.712539 0.4625 L 0.872539 0.4325 L 0.848516 0.379492 L 0.719531 0.4025 L 0.605508 0.365469 L 0.722539 0.290469 L 0.866523 0.276484 L 0.856523 0.213477 L 0.701523 0.223477 Z M 0.518516 0.282461 " transform="matrix(100,0,0,100,0,500)"/>
<path style="fill:none;stroke-width:0.01;stroke-linecap:butt;stroke-linejoin:miter;stroke:rgb(0%,0%,0%);stroke-opacity:1;stroke-miterlimit:10;" d="M 0.5425 0.221484 L 0.329492 0.237461 L 0.395508 0.239492 L 0.5425 0.219453 L 0.5675 0.157461 L 0.350469 0.0614453 L 0.202461 0.233477 L 0.179453 0.298477 L 0.0454687 0.313477 L 0.0494531 0.395508 L 0.182461 0.384492 L 0.199453 0.455508 L 0.217461 0.6525 L 0.256484 0.938555 L 0.385508 0.936562 L 0.3275 0.636523 L 0.3075 0.4675 L 0.5425 0.431484 L 0.762539 0.465508 L 0.940547 0.460508 L 0.953555 0.3975 L 0.782539 0.400508 L 0.638516 0.319492 L 0.780547 0.265469 L 0.947539 0.305469 L 0.954531 0.225469 L 0.770508 0.193477 Z M 0.5425 0.221484 " transform="matrix(100,0,0,100,150,500)"/>
<path style="fill:none;stroke-width:0.01;stroke-linecap:butt;stroke-linejoin:miter;stroke:rgb(0%,0%,0%);stroke-opacity:1;stroke-miterlimit:10;" d="M 0.505508 0.308477 L 0.265469 0.293477 L 0.217461 0.218477 L 0.106445 0.0484375 L 0.0684375 0.0884766 L 0.171484 0.214453 L 0.185469 0.304492 L 0.185469 0.388477 L 0.0454687 0.378477 L 0.0484375 0.4625 L 0.171484 0.469492 L 0.169453 0.540508 L 0.202461 0.693516 L 0.270469 0.947539 L 0.3475 0.951563 L 0.298477 0.691523 L 0.267461 0.544492 L 0.505508 0.515508 L 0.750508 0.530508 L 0.944531 0.5075 L 0.954531 0.423477 L 0.778516 0.455508 L 0.596523 0.403477 L 0.723516 0.344492 L 0.876523 0.356484 L 0.864531 0.289492 L 0.702539 0.274492 Z M 0.505508 0.308477 " transform="matrix(100,0,0,100,300,500)"/>
<path style="fill:none;stroke-width:0.01;stroke-linecap:butt;stroke-linejoin:miter;stroke:rgb(0%,0%,0%);stroke-opacity:1;stroke-miterlimit:10;" d="M 0.500508 0.321484 L 0.313477 0.265469 L 0.285469 0.202461 L 0.210469 0.0454688 L 0.179453 0.0574609 L 0.257461 0.183477 L 0.246484 0.258477 L 0.240469 0.353477 L 0.0744531 0.344492 L 0.0664453 0.449492 L 0.237461 0.460508 L 0.260469 0.559492 L 0.3375 0.721523 L 0.4625 0.954531 L 0.526484 0.908555 L 0.428477 0.671523 L 0.346484 0.540508 L 0.500508 0.5425 L 0.746523 0.5075 L 0.933555 0.451484 L 0.905547 0.389492 L 0.759531 0.434492 L 0.605508 0.411484 L 0.719531 0.302461 L 0.886523 0.284492 L 0.893555 0.195469 L 0.706523 0.230469 Z M 0.500508 0.321484 " transform="matrix(100,0,0,100,450,500)"/>
<path style="fill:none;stroke-width:0.01;stroke-linecap:butt;stroke-linejoin:miter;stroke:rgb(0%,0%,0%);stroke-opacity:1;stroke-miterlimit:10;" d="M 0.5225 0.521484 L 0.276484 0.525508 L 0.229492 0.449492 L 0.0944531 0.265469 L 0.0454688 0.308477 L 0.177461 0.449492 L 0.198477 0.539492 L 0.199453 0.605508 L 0.0854688 0.6025 L 0.0884766 0.6725 L 0.196484 0.671523 L 0.212461 0.734531 L 0.218477 0.636523 L 0.147461 0.443477 L 0.210469 0.396484 L 0.267461 0.609492 L 0.318477 0.729531 L 0.5225 0.729531 L 0.761523 0.701523 L 0.954531 0.666523 L 0.927539 0.596523 L 0.775547 0.6375 L 0.619531 0.610508 L 0.734531 0.554492 L 0.884531 0.5525 L 0.893555 0.489492 L 0.723516 0.476484 Z M 0.5225 0.521484 " transform="matrix(100,0,0,100,600,500)"/>
<path style="fill:none;stroke-width:0.01;stroke-linecap:butt;stroke-linejoin:miter;stroke:rgb(0%,0%,0%);stroke-opacity:1;stroke-miterlimit:10;" d="M 0.486484 0.3625 L 0.294492 0.319492 L 0.285469 0.248477 L 0.260469 0.0814453 L 0.226484 0.0954688 L 0.262461 0.227461 L 0.229492 0.305469 L 0.225469 0.400508 L 0.0454688 0.415508 L 0.0524609 0.526484 L 0.233477 0.515508 L 0.257461 0.610508 L 0.353477 0.725508 L 0.513516 0.918555 L 0.595508 0.870547 L 0.4325 0.704531 L 0.354492 0.590508 L 0.486484 0.583516 L 0.726523 0.6025 L 0.926523 0.576523 L 0.921523 0.520508 L 0.749531 0.521484 L 0.598516 0.464492 L 0.760508 0.375469 L 0.954531 0.369492 L 0.936562 0.272461 L 0.734531 0.284492 Z M 0.486484 0.3625 " transform="matrix(100,0,0,100,0,650)"/>
<path style="fill:none;stroke-width:0.01;stroke-linecap:butt;stroke-linejoin:miter;stroke:rgb(0%,0%,0%);stroke-opacity:1;stroke-miterlimit:10;" d="M 0.514492 0.172461 L 0.281484 0.175469 L 0.225469 0.238477 L 0.0914453 0.433477 L 0.0464453 0.390508 L 0.121445 0.234492 L 0.180469 0.173477 L 0.171484 0.238477 L 0.0504688 0.233477 L 0.0454687 0.3125 L 0.168477 0.318477 L 0.179453 0.386484 L 0.192461 0.5775 L 0.241484 0.870547 L 0.343477 0.833516 L 0.287461 0.551523 L 0.273477 0.399492 L 0.514492 0.3825 L 0.717539 0.418477 L 0.904531 0.434492 L 0.901523 0.381484 L 0.746523 0.355469 L 0.6175 0.280469 L 0.768516 0.202461 L 0.954531 0.232461 L 0.931563 0.138477 L 0.748516 0.129453 Z M 0.514492 0.172461 " transform="matrix(100,0,0,100,150,650)"/>
<path style="fill:none;stroke-width:0.01;stroke-linecap:butt;stroke-linejoin:miter;stroke:rgb(0%,0%,0%);stroke-opacity:1;stroke-miterlimit:10;" d="M 0.505508 0.374492 L 0.298477 0.364492 L 0.268477 0.272461 L 0.141445 0.0454688 L 0.109453 0.0784766 L 0.226484 0.246484 L 0.220469 0.370469 L 0.209453 0.428477 L 0.104453 0.426484 L 0.0994531 0.491484 L 0.203477 0.4975 L 0.203477 0.560508 L 0.207461 0.702539 L 0.236484 0.954531 L 0.315469 0.943555 L 0.309492 0.724531 L 0.291484 0.581523 L 0.505508 0.574492 L 0.727539 0.590508 L 0.894531 0.590508 L 0.900547 0.528516 L 0.745508 0.539492 L 0.601523 0.466484 L 0.697539 0.404492 L 0.824531 0.400508 L 0.820547 0.341484 L 0.674531 0.3425 Z M 0.505508 0.374492 " transform="matrix(100,0,0,100,300,650)"/>
<path style="fill:none;stroke-width:0.01;stroke-linecap:butt;stroke-linejoin:miter;stroke:rgb(0%,0%,0%);stroke-opacity:1;stroke-miterlimit:10;" d="M 0.509492 0.3525 L 0.281484 0.329492 L 0.230469 0.242461 L 0.147461 0.0534375 L 0.117461 0.0904688 L 0.210469 0.223477 L 0.194453 0.329492 L 0.188477 0.389492 L 0.0664453 0.366484 L 0.0454688 0.4475 L 0.178477 0.470508 L 0.177461 0.5475 L 0.225469 0.691523 L 0.292461 0.946562 L 0.375469 0.923555 L 0.313477 0.698516 L 0.279492 0.570508 L 0.509492 0.576523 L 0.739531 0.613516 L 0.954531 0.611523 L 0.950547 0.5325 L 0.789531 0.5275 L 0.621523 0.451484 L 0.743516 0.385508 L 0.914531 0.386484 L 0.929531 0.323477 L 0.741523 0.319492 Z M 0.509492 0.3525 " transform="matrix(100,0,0,100,450,650)"/>
<path style="fill:none;stroke-width:0.01;stroke-linecap:butt;stroke-linejoin:miter;stroke:rgb(0%,0%,0%);stroke-opacity:1;stroke-miterlimit:10;" d="M 0.528516 0.295469 L 0.328477 0.268477 L 0.292461 0.206484 L 0.161484 0.0454688 L 0.143477 0.0754687 L 0.238477 0.197461 L 0.264492 0.279492 L 0.254492 0.336484 L 0.160469 0.3275 L 0.154453 0.3825 L 0.241484 0.3975 L 0.246484 0.456484 L 0.283477 0.666523 L 0.323477 0.954531 L 0.4225 0.948555 L 0.375469 0.659531 L 0.333477 0.473516 L 0.528516 0.4625 L 0.702539 0.479492 L 0.852539 0.454492 L 0.856523 0.400508 L 0.731523 0.4075 L 0.606523 0.365469 L 0.695508 0.3175 L 0.806523 0.304492 L 0.808516 0.258477 L 0.678516 0.259492 Z M 0.528516 0.295469 " transform="matrix(100,0,0,100,600,650)"/>
</g>
</svg>
