<?xml version="1.0" encoding="UTF-8"?>
<svg xmlns="http://www.w3.org/2000/svg" xmlns:xlink="http://www.w3.org/1999/xlink" width="750pt" height="3600pt" viewBox="0 0 750 3600" version="1.1">
<g id="surface1">
<path style="fill:none;stroke-width:0.01;stroke-linecap:butt;stroke-linejoin:miter;stroke:rgb(0%,0%,0%);stroke-opacity:1;stroke-miterlimit:10;" d="M 0.496484 0.483516 L 0.300469 0.460508 L 0.313477 0.293477 L 0.189453 0.0454687 L 0.116445 0.0714453 L 0.226484 0.298477 L 0.215469 0.458477 L 0.207461 0.518516 L 0.112461 0.515508 L 0.114453 0.575508 L 0.204453 0.579492 L 0.206484 0.641523 L 0.214453 0.766523 L 0.119453 0.921523 L 0.190469 0.954531 L 0.249492 0.774531 L 0.288477 0.655508 L 0.496484 0.675508 L 0.711523 0.699531 L 0.887539 0.683516 L 0.876523 0.615508 L 0.721523 0.618516 L 0.588516 0.569492 L 0.712539 0.525508 L 0.856523 0.526484 L 0.867539 0.4625 L 0.706523 0.459492 Z M 0.496484 0.483516 " transform="matrix(100,0,0,100,0,200)"/>
<path style="fill:none;stroke-width:0.01;stroke-linecap:butt;stroke-linejoin:miter;stroke:rgb(0%,0%,0%);stroke-opacity:1;stroke-miterlimit:10;" d="M 0.4975 0.449492 L 0.255469 0.464492 L 0.251484 0.339492 L 0.142461 0.135469 L 0.0934766 0.158477 L 0.169453 0.338477 L 0.167461 0.480508 L 0.167461 0.538516 L 0.0454687 0.549492 L 0.0484375 0.616523 L 0.164453 0.615508 L 0.171484 0.686523 L 0.261484 0.864531 L 0.456484 0.755508 L 0.464492 0.705508 L 0.3225 0.701523 L 0.258477 0.706523 L 0.4975 0.668516 L 0.721523 0.718516 L 0.918555 0.706523 L 0.925547 0.633516 L 0.764531 0.6275 L 0.5975 0.556523 L 0.759531 0.489492 L 0.939531 0.503516 L 0.954531 0.4325 L 0.758516 0.4325 Z M 0.4975 0.449492 " transform="matrix(100,0,0,100,150,200)"/>
<path style="fill:none;stroke-width:0.01;stroke-linecap:butt;stroke-linejoin:miter;stroke:rgb(0%,0%,0%);stroke-opacity:1;stroke-miterlimit:10;" d="M 0.544492 0.4425 L 0.309492 0.4275 L 0.343477 0.281484 L 0.305469 0.0454687 L 0.244492 0.0664453 L 0.258477 0.285469 L 0.229492 0.425508 L 0.217461 0.493516 L 0.0944531 0.464492 L 0.0764453 0.545508 L 0.206484 0.569492 L 0.216484 0.641523 L 0.218477 0.773516 L 0.101445 0.913555 L 0.174453 0.954531 L 0.267461 0.756523 L 0.310469 0.664531 L 0.544492 0.649531 L 0.747539 0.6425 L 0.910547 0.611523 L 0.902539 0.551523 L 0.756523 0.578516 L 0.631523 0.5425 L 0.771523 0.505508 L 0.916523 0.524492 L 0.923555 0.450508 L 0.761523 0.4425 Z M 0.544492 0.4425 " transform="matrix(100,0,0,100,300,200)"/>
<path style="fill:none;stroke-width:0.01;stroke-linecap:butt;stroke-linejoin:miter;stroke:rgb(0%,0%,0%);stroke-opacity:1;stroke-miterlimit:10;" d="M 0.478516 0.364492 L 0.324492 0.340469 L 0.321484 0.222461 L 0.228477 0.0454687 L 0.190469 0.0714453 L 0.262461 0.238477 L 0.255469 0.340469 L 0.252461 0.4325 L 0.0974609 0.428477 L 0.0934766 0.526484 L 0.250469 0.525508 L 0.272461 0.598516 L 0.341484 0.729531 L 0.313477 0.954531 L 0.404492 0.930547 L 0.369492 0.706523 L 0.351484 0.5825 L 0.478516 0.560508 L 0.6925 0.548516 L 0.869531 0.528516 L 0.854531 0.464492 L 0.710508 0.500508 L 0.565508 0.463516 L 0.724531 0.4325 L 0.901523 0.4625 L 0.906523 0.385508 L 0.703516 0.366484 Z M 0.478516 0.364492 " transform="matrix(100,0,0,100,450,200)"/>
<path style="fill:none;stroke-width:0.01;stroke-linecap:butt;stroke-linejoin:miter;stroke:rgb(0%,0%,0%);stroke-opacity:1;stroke-miterlimit:10;" d="M 0.494492 0.503516 L 0.254492 0.5025 L 0.246484 0.371484 L 0.130469 0.155469 L 0.0884766 0.192461 L 0.180469 0.386484 L 0.168477 0.509492 L 0.161484 0.576523 L 0.0454688 0.5925 L 0.0474609 0.6725 L 0.168477 0.645508 L 0.182461 0.710508 L 0.294492 0.844531 L 0.435508 0.722539 L 0.431484 0.685508 L 0.335469 0.708516 L 0.270469 0.717539 L 0.494492 0.708516 L 0.693516 0.700508 L 0.856523 0.708516 L 0.849531 0.660508 L 0.723516 0.663516 L 0.5925 0.599492 L 0.745508 0.561523 L 0.954531 0.569492 L 0.954531 0.494492 L 0.769531 0.501484 Z M 0.494492 0.503516 " transform="matrix(100,0,0,100,600,200)"/>
<path style="fill:none;stroke-width:0.01;stroke-linecap:butt;stroke-linejoin:miter;stroke:rgb(0%,0%,0%);stroke-opacity:1;stroke-miterlimit:10;" d="M 0.539492 0.318477 L 0.301484 0.340469 L 0.233477 0.446484 L 0.185469 0.663516 L 0.123477 0.6525 L 0.160469 0.439492 L 0.199453 0.349492 L 0.194453 0.420508 L 0.0534375 0.410508 L 0.0454688 0.5025 L 0.179453 0.5075 L 0.190469 0.579492 L 0.316484 0.743516 L 0.515508 0.596523 L 0.503516 0.550508 L 0.379492 0.579492 L 0.303477 0.590508 L 0.539492 0.551523 L 0.776523 0.581523 L 0.954531 0.569492 L 0.945547 0.508516 L 0.784531 0.496484 L 0.650508 0.428477 L 0.658516 0.256484 L 0.766523 0.313477 L 0.753516 0.277461 L 0.659531 0.288477 Z M 0.539492 0.318477 " transform="matrix(100,0,0,100,0,350)"/>
<path style="fill:none;stroke-width:0.01;stroke-linecap:butt;stroke-linejoin:miter;stroke:rgb(0%,0%,0%);stroke-opacity:1;stroke-miterlimit:10;" d="M 0.550508 0.226484 L 0.300469 0.224453 L 0.213477 0.305469 L 0.135469 0.511484 L 0.0754687 0.465508 L 0.145469 0.309492 L 0.189453 0.228477 L 0.181484 0.313477 L 0.0454687 0.3175 L 0.0504688 0.398477 L 0.179453 0.401484 L 0.190469 0.473516 L 0.231484 0.594492 L 0.178477 0.783516 L 0.254492 0.797539 L 0.101445 0.479492 L 0.300469 0.491484 L 0.550508 0.448477 L 0.769531 0.460508 L 0.954531 0.446484 L 0.954531 0.380469 L 0.795547 0.393477 L 0.641523 0.338477 L 0.752539 0.289492 L 0.921523 0.284492 L 0.908555 0.202461 L 0.750508 0.215469 Z M 0.550508 0.226484 " transform="matrix(100,0,0,100,150,350)"/>
<path style="fill:none;stroke-width:0.01;stroke-linecap:butt;stroke-linejoin:miter;stroke:rgb(0%,0%,0%);stroke-opacity:1;stroke-miterlimit:10;" d="M 0.525508 0.404492 L 0.3075 0.388477 L 0.289492 0.249492 L 0.151484 0.0454687 L 0.0964453 0.0764453 L 0.208477 0.259492 L 0.228477 0.400508 L 0.222461 0.463516 L 0.105469 0.450508 L 0.0954688 0.5375 L 0.211484 0.539492 L 0.231484 0.603516 L 0.290469 0.729531 L 0.220469 0.926523 L 0.289492 0.954531 L 0.113477 0.633516 L 0.320469 0.614492 L 0.525508 0.5875 L 0.717539 0.594492 L 0.855547 0.5725 L 0.837539 0.529492 L 0.719531 0.534492 L 0.618516 0.494492 L 0.747539 0.450508 L 0.904531 0.453477 L 0.886523 0.368477 L 0.722539 0.384492 Z M 0.525508 0.404492 " transform="matrix(100,0,0,100,300,350)"/>
<path style="fill:none;stroke-width:0.01;stroke-linecap:butt;stroke-linejoin:miter;stroke:rgb(0%,0%,0%);stroke-opacity:1;stroke-miterlimit:10;" d="M 0.524492 0.386484 L 0.294492 0.378477 L 0.275469 0.256484 L 0.111445 0.0514453 L 0.0454688 0.0924609 L 0.180469 0.272461 L 0.205469 0.393477 L 0.202461 0.4575 L 0.0664453 0.454492 L 0.0764453 0.543516 L 0.203477 0.5375 L 0.217461 0.598516 L 0.244492 0.739531 L 0.132461 0.915547 L 0.209453 0.948555 L 0.279492 0.722539 L 0.320469 0.596523 L 0.524492 0.575508 L 0.754531 0.6225 L 0.938555 0.6175 L 0.928555 0.539492 L 0.763516 0.541523 L 0.618516 0.4725 L 0.759531 0.436484 L 0.931563 0.461484 L 0.954531 0.381484 L 0.773516 0.386484 Z M 0.524492 0.386484 " transform="matrix(100,0,0,100,450,350)"/>
<path style="fill:none;stroke-width:0.01;stroke-linecap:butt;stroke-linejoin:miter;stroke:rgb(0%,0%,0%);stroke-opacity:1;stroke-miterlimit:10;" d="M 0.506484 0.451484 L 0.276484 0.445508 L 0.269492 0.289492 L 0.131445 0.0454687 L 0.0784766 0.0954688 L 0.208477 0.313477 L 0.195469 0.4575 L 0.197461 0.5225 L 0.0744531 0.5275 L 0.0844531 0.601523 L 0.201484 0.594492 L 0.210469 0.653516 L 0.230469 0.770508 L 0.142461 0.920547 L 0.193477 0.954531 L 0.123477 0.6375 L 0.292461 0.663516 L 0.506484 0.650508 L 0.733516 0.651523 L 0.925547 0.6175 L 0.890547 0.5575 L 0.735508 0.573516 L 0.596523 0.539492 L 0.718516 0.485508 L 0.869531 0.476484 L 0.850547 0.398477 L 0.708516 0.420508 Z M 0.506484 0.451484 " transform="matrix(100,0,0,100,600,350)"/>
<path style="fill:none;stroke-width:0.01;stroke-linecap:butt;stroke-linejoin:miter;stroke:rgb(0%,0%,0%);stroke-opacity:1;stroke-miterlimit:10;" d="M 0.525508 0.4775 L 0.296484 0.493516 L 0.303477 0.4075 L 0.448477 0.4825 L 0.475508 0.4275 L 0.270469 0.310469 L 0.174453 0.4875 L 0.171484 0.561523 L 0.0614453 0.538516 L 0.0454688 0.606523 L 0.152461 0.633516 L 0.155469 0.701523 L 0.152461 0.568516 L 0.0454688 0.341484 L 0.129453 0.277461 L 0.5325 0.556523 L 0.298477 0.6925 L 0.525508 0.696523 L 0.756523 0.722539 L 0.946562 0.718516 L 0.930547 0.6525 L 0.763516 0.658516 L 0.624531 0.589492 L 0.760508 0.526484 L 0.954531 0.506484 L 0.938555 0.4325 L 0.768516 0.465508 Z M 0.525508 0.4775 " transform="matrix(100,0,0,100,0,500)"/>
<path style="fill:none;stroke-width:0.01;stroke-linecap:butt;stroke-linejoin:miter;stroke:rgb(0%,0%,0%);stroke-opacity:1;stroke-miterlimit:10;" d="M 0.506484 0.3525 L 0.259492 0.3475 L 0.259492 0.237461 L 0.162461 0.0774609 L 0.126445 0.0834766 L 0.199453 0.243477 L 0.183477 0.348477 L 0.179453 0.405508 L 0.0454687 0.4325 L 0.0634375 0.514492 L 0.182461 0.4925 L 0.197461 0.563516 L 0.190469 0.703516 L 0.0634375 0.867539 L 0.120469 0.922539 L 0.0594531 0.500508 L 0.290469 0.580508 L 0.506484 0.5575 L 0.757539 0.573516 L 0.954531 0.563516 L 0.932539 0.498516 L 0.756523 0.5175 L 0.608516 0.4475 L 0.755508 0.394492 L 0.933555 0.3925 L 0.934531 0.299492 L 0.747539 0.313477 Z M 0.506484 0.3525 " transform="matrix(100,0,0,100,150,500)"/>
<path style="fill:none;stroke-width:0.01;stroke-linecap:butt;stroke-linejoin:miter;stroke:rgb(0%,0%,0%);stroke-opacity:1;stroke-miterlimit:10;" d="M 0.4975 0.5575 L 0.270469 0.5325 L 0.272461 0.429492 L 0.177461 0.221484 L 0.112461 0.230469 L 0.192461 0.425508 L 0.180469 0.535508 L 0.168477 0.605508 L 0.0454687 0.6175 L 0.0494531 0.686523 L 0.164453 0.683516 L 0.175469 0.755508 L 0.170469 0.648516 L 0.0944531 0.4775 L 0.150469 0.4425 L 0.247461 0.643516 L 0.283477 0.756523 L 0.4975 0.765508 L 0.742539 0.778516 L 0.920547 0.750508 L 0.911523 0.674531 L 0.747539 0.700508 L 0.595508 0.645508 L 0.724531 0.598516 L 0.900547 0.594492 L 0.954531 0.4675 L 0.6725 0.297461 Z M 0.4975 0.5575 " transform="matrix(100,0,0,100,300,500)"/>
<path style="fill:none;stroke-width:0.01;stroke-linecap:butt;stroke-linejoin:miter;stroke:rgb(0%,0%,0%);stroke-opacity:1;stroke-miterlimit:10;" d="M 0.500508 0.286484 L 0.293477 0.284492 L 0.299492 0.212461 L 0.425508 0.275469 L 0.441484 0.232461 L 0.281484 0.148477 L 0.203477 0.277461 L 0.179453 0.339492 L 0.0514453 0.329492 L 0.0454688 0.408477 L 0.172461 0.4175 L 0.184453 0.4825 L 0.209453 0.630508 L 0.113477 0.825547 L 0.185469 0.851523 L 0.240469 0.6225 L 0.275469 0.489492 L 0.500508 0.478516 L 0.685508 0.493516 L 0.836523 0.473516 L 0.832539 0.418477 L 0.717539 0.433477 L 0.596523 0.391484 L 0.756523 0.283477 L 0.954531 0.251484 L 0.943555 0.156484 L 0.758516 0.204453 Z M 0.500508 0.286484 " transform="matrix(100,0,0,100,450,500)"/>
<path style="fill:none;stroke-width:0.01;stroke-linecap:butt;stroke-linejoin:miter;stroke:rgb(0%,0%,0%);stroke-opacity:1;stroke-miterlimit:10;" d="M 0.540508 0.404492 L 0.300469 0.394492 L 0.281484 0.256484 L 0.168477 0.0524609 L 0.117461 0.0894531 L 0.227461 0.254492 L 0.218477 0.399492 L 0.202461 0.4775 L 0.0634375 0.443477 L 0.0454688 0.526484 L 0.186484 0.559492 L 0.196484 0.631523 L 0.212461 0.766523 L 0.111445 0.927539 L 0.188477 0.947539 L 0.254492 0.751523 L 0.293477 0.649531 L 0.540508 0.620508 L 0.770508 0.636523 L 0.954531 0.619531 L 0.948555 0.559492 L 0.785547 0.568516 L 0.644531 0.5075 L 0.789531 0.479492 L 0.947539 0.480508 L 0.938555 0.405508 L 0.762539 0.403477 Z M 0.540508 0.404492 " transform="matrix(100,0,0,100,600,500)"/>
<path style="fill:none;stroke-width:0.01;stroke-linecap:butt;stroke-linejoin:miter;stroke:rgb(0%,0%,0%);stroke-opacity:1;stroke-miterlimit:10;" d="M 0.505508 0.247461 L 0.280469 0.237461 L 0.192461 0.313477 L 0.134453 0.4875 L 0.0814453 0.476484 L 0.135469 0.3075 L 0.184453 0.242461 L 0.179453 0.313477 L 0.0474609 0.3075 L 0.0454688 0.388477 L 0.174453 0.391484 L 0.186484 0.460508 L 0.176484 0.583516 L 0.0544531 0.715508 L 0.122461 0.762539 L 0.215469 0.578516 L 0.279492 0.4825 L 0.505508 0.480508 L 0.746523 0.478516 L 0.942539 0.429492 L 0.906523 0.359492 L 0.755508 0.3875 L 0.605508 0.360469 L 0.763516 0.315469 L 0.954531 0.321484 L 0.954531 0.252461 L 0.759531 0.245469 Z M 0.505508 0.247461 " transform="matrix(100,0,0,100,0,650)"/>
<path style="fill:none;stroke-width:0.01;stroke-linecap:butt;stroke-linejoin:miter;stroke:rgb(0%,0%,0%);stroke-opacity:1;stroke-miterlimit:10;" d="M 0.5575 0.386484 L 0.325469 0.400508 L 0.281484 0.256484 L 0.116445 0.0454688 L 0.0754687 0.0734766 L 0.219453 0.265469 L 0.238477 0.404492 L 0.240469 0.464492 L 0.126445 0.4675 L 0.125469 0.544492 L 0.242461 0.5375 L 0.248477 0.591523 L 0.265469 0.743516 L 0.149453 0.916523 L 0.218477 0.954531 L 0.289492 0.735508 L 0.334492 0.599492 L 0.5575 0.579492 L 0.761523 0.588516 L 0.921523 0.580508 L 0.899531 0.520508 L 0.770508 0.524492 L 0.643516 0.4775 L 0.772539 0.456484 L 0.919531 0.4825 L 0.924531 0.418477 L 0.769531 0.400508 Z M 0.5575 0.386484 " transform="matrix(100,0,0,100,150,650)"/>
<path style="fill:none;stroke-width:0.01;stroke-linecap:butt;stroke-linejoin:miter;stroke:rgb(0%,0%,0%);stroke-opacity:1;stroke-miterlimit:10;" d="M 0.553516 0.5425 L 0.295469 0.524492 L 0.308477 0.3525 L 0.161484 0.0674609 L 0.101445 0.104453 L 0.206484 0.359492 L 0.199453 0.526484 L 0.182461 0.6025 L 0.0454687 0.624531 L 0.0584375 0.714531 L 0.186484 0.688516 L 0.197461 0.772539 L 0.282461 0.932539 L 0.465508 0.832539 L 0.464492 0.785547 L 0.313477 0.897539 L 0.294492 0.789531 L 0.553516 0.755508 L 0.775547 0.766523 L 0.954531 0.741523 L 0.944531 0.681523 L 0.784531 0.696523 L 0.651523 0.636523 L 0.771523 0.605508 L 0.939531 0.603516 L 0.951563 0.513516 L 0.776523 0.515508 Z M 0.553516 0.5425 " transform="matrix(100,0,0,100,300,650)"/>
<path style="fill:none;stroke-width:0.01;stroke-linecap:butt;stroke-linejoin:miter;stroke:rgb(0%,0%,0%);stroke-opacity:1;stroke-miterlimit:10;" d="M 0.535508 0.499492 L 0.290469 0.459492 L 0.282461 0.326484 L 0.160469 0.105469 L 0.120469 0.140469 L 0.209453 0.329492 L 0.193477 0.4625 L 0.184453 0.538516 L 0.0544531 0.529492 L 0.0454688 0.611523 L 0.175469 0.623516 L 0.183477 0.702539 L 0.283477 0.894531 L 0.500508 0.758516 L 0.503516 0.707539 L 0.369492 0.715508 L 0.285469 0.723516 L 0.535508 0.718516 L 0.753516 0.776523 L 0.947539 0.772539 L 0.954531 0.700508 L 0.786523 0.681523 L 0.6425 0.605508 L 0.785547 0.566523 L 0.947539 0.578516 L 0.940547 0.500508 L 0.768516 0.4925 Z M 0.535508 0.499492 " transform="matrix(100,0,0,100,450,650)"/>
<path style="fill:none;stroke-width:0.01;stroke-linecap:butt;stroke-linejoin:miter;stroke:rgb(0%,0%,0%);stroke-opacity:1;stroke-miterlimit:10;" d="M 0.5125 0.546523 L 0.272461 0.5475 L 0.287461 0.4175 L 0.168477 0.186484 L 0.105469 0.222461 L 0.205469 0.425508 L 0.189453 0.553516 L 0.180469 0.624531 L 0.0534375 0.621523 L 0.0454688 0.703516 L 0.169453 0.704531 L 0.177461 0.784531 L 0.154453 0.686523 L 0.0734766 0.565508 L 0.109453 0.513516 L 0.216484 0.689531 L 0.278477 0.772539 L 0.5125 0.763516 L 0.737539 0.813516 L 0.949531 0.803516 L 0.954531 0.737539 L 0.771523 0.723516 L 0.6225 0.641523 L 0.764531 0.564492 L 0.953555 0.570508 L 0.944531 0.495508 L 0.752539 0.509492 Z M 0.5125 0.546523 " transform="matrix(100,0,0,100,600,650)"/>
</g>
</svg>
