<?xml version="1.0" encoding="UTF-8"?>
<svg xmlns="http://www.w3.org/2000/svg" xmlns:xlink="http://www.w3.org/1999/xlink" width="750pt" height="2800pt" viewBox="0 0 750 2800" version="1.1">
<g id="surface1">
<path style="fill:none;stroke-width:0.01;stroke-linecap:butt;stroke-linejoin:miter;stroke:rgb(0%,0%,0%);stroke-opacity:1;stroke-miterlimit:10;" d="M 0.469688 0.0454687 L 0.878789 0.757578 L 0.469688 0.954531 L 0.121211 0.0908984 Z M 0.469688 0.0454687 " transform="matrix(100,0,0,100,0,200)"/>
<path style="fill:none;stroke-width:0.01;stroke-linecap:butt;stroke-linejoin:miter;stroke:rgb(0%,0%,0%);stroke-opacity:1;stroke-miterlimit:10;" d="M 0.954531 0.0933203 L 0.322969 0.90668 L 0.0454687 0.696172 L 0.514336 0.150703 Z M 0.954531 0.0933203 " transform="matrix(100,0,0,100,150,200)"/>
<path style="fill:none;stroke-width:0.01;stroke-linecap:butt;stroke-linejoin:miter;stroke:rgb(0%,0%,0%);stroke-opacity:1;stroke-miterlimit:10;" d="M 0.367148 0.122383 L 0.954531 0.576914 L 0.625859 0.877617 L 0.0454687 0.164336 Z M 0.367148 0.122383 " transform="matrix(100,0,0,100,300,200)"/>
<path style="fill:none;stroke-width:0.01;stroke-linecap:butt;stroke-linejoin:miter;stroke:rgb(0%,0%,0%);stroke-opacity:1;stroke-miterlimit:10;" d="M 0.627578 0.0454687 L 0.739219 0.898711 L 0.32457 0.954531 L 0.260781 0.0933203 Z M 0.627578 0.0454687 " transform="matrix(100,0,0,100,450,200)"/>
<path style="fill:none;stroke-width:0.01;stroke-linecap:butt;stroke-linejoin:miter;stroke:rgb(0%,0%,0%);stroke-opacity:1;stroke-miterlimit:10;" d="M 0.632734 0.0454687 L 0.737344 0.898242 L 0.327031 0.954531 L 0.262656 0.0937109 Z M 0.632734 0.0454687 " transform="matrix(100,0,0,100,600,200)"/>
<path style="fill:none;stroke-width:0.01;stroke-linecap:butt;stroke-linejoin:miter;stroke:rgb(0%,0%,0%);stroke-opacity:1;stroke-miterlimit:10;" d="M 0.628711 0.0454687 L 0.741367 0.898242 L 0.323008 0.954531 L 0.258633 0.0937109 Z M 0.628711 0.0454687 " transform="matrix(100,0,0,100,0,350)"/>
<path style="fill:none;stroke-width:0.01;stroke-linecap:butt;stroke-linejoin:miter;stroke:rgb(0%,0%,0%);stroke-opacity:1;stroke-miterlimit:10;" d="M 0.627578 0.0454687 L 0.739219 0.898711 L 0.32457 0.954531 L 0.260781 0.0933203 Z M 0.627578 0.0454687 " transform="matrix(100,0,0,100,150,350)"/>
<path style="fill:none;stroke-width:0.01;stroke-linecap:butt;stroke-linejoin:miter;stroke:rgb(0%,0%,0%);stroke-opacity:1;stroke-miterlimit:10;" d="M 0.632734 0.0454687 L 0.737344 0.898242 L 0.318984 0.954531 L 0.262656 0.0937109 Z M 0.632734 0.0454687 " transform="matrix(100,0,0,100,300,350)"/>
<path style="fill:none;stroke-width:0.01;stroke-linecap:butt;stroke-linejoin:miter;stroke:rgb(0%,0%,0%);stroke-opacity:1;stroke-miterlimit:10;" d="M 0.632734 0.0454687 L 0.737344 0.898242 L 0.327031 0.954531 L 0.262656 0.0937109 Z M 0.632734 0.0454687 " transform="matrix(100,0,0,100,450,350)"/>
<path style="fill:none;stroke-width:0.01;stroke-linecap:butt;stroke-linejoin:miter;stroke:rgb(0%,0%,0%);stroke-opacity:1;stroke-miterlimit:10;" d="M 0.631563 0.0454687 L 0.735234 0.898711 L 0.320586 0.954531 L 0.264766 0.0933203 Z M 0.631563 0.0454687 " transform="matrix(100,0,0,100,600,350)"/>
</g>
</svg>
