<?xml version="1.0" encoding="UTF-8"?>
<svg xmlns="http://www.w3.org/2000/svg" xmlns:xlink="http://www.w3.org/1999/xlink" width="750pt" height="2800pt" viewBox="0 0 750 2800" version="1.1">
<g id="surface1">
<path style="fill:none;stroke-width:0.01;stroke-linecap:butt;stroke-linejoin:miter;stroke:rgb(0%,0%,0%);stroke-opacity:1;stroke-miterlimit:10;" d="M 0.0680469 0.265664 L 0.0793359 0.491523 L 0.954531 0.502813 L 0.943242 0.734336 L 0.0454688 0.734336 Z M 0.0680469 0.265664 " transform="matrix(100,0,0,100,0,200)"/>
<path style="fill:none;stroke-width:0.01;stroke-linecap:butt;stroke-linejoin:miter;stroke:rgb(0%,0%,0%);stroke-opacity:1;stroke-miterlimit:10;" d="M 0.0686328 0.259688 L 0.0744141 0.491328 L 0.954531 0.491328 L 0.94875 0.728711 L 0.0454687 0.740312 Z M 0.0686328 0.259688 " transform="matrix(100,0,0,100,150,200)"/>
<path style="fill:none;stroke-width:0.01;stroke-linecap:butt;stroke-linejoin:miter;stroke:rgb(0%,0%,0%);stroke-opacity:1;stroke-miterlimit:10;" d="M 0.0681641 0.264219 L 0.0681641 0.491484 L 0.954531 0.474414 L 0.948867 0.707383 L 0.0454687 0.735781 Z M 0.0681641 0.264219 " transform="matrix(100,0,0,100,300,200)"/>
<path style="fill:none;stroke-width:0.01;stroke-linecap:butt;stroke-linejoin:miter;stroke:rgb(0%,0%,0%);stroke-opacity:1;stroke-miterlimit:10;" d="M 0.0686328 0.259688 L 0.0801953 0.497109 L 0.954531 0.514492 L 0.942969 0.740312 L 0.0454688 0.740312 Z M 0.0686328 0.259688 " transform="matrix(100,0,0,100,450,200)"/>
<path style="fill:none;stroke-width:0.01;stroke-linecap:butt;stroke-linejoin:miter;stroke:rgb(0%,0%,0%);stroke-opacity:1;stroke-miterlimit:10;" d="M 0.0690625 0.255 L 0.0749609 0.497031 L 0.954531 0.502969 L 0.942734 0.739063 L 0.0454688 0.745 Z M 0.0690625 0.255 " transform="matrix(100,0,0,100,600,200)"/>
<path style="fill:none;stroke-width:0.01;stroke-linecap:butt;stroke-linejoin:miter;stroke:rgb(0%,0%,0%);stroke-opacity:1;stroke-miterlimit:10;" d="M 0.0700391 0.245078 L 0.0638672 0.503086 L 0.954531 0.478516 L 0.954531 0.711914 L 0.0454688 0.754922 Z M 0.0700391 0.245078 " transform="matrix(100,0,0,100,0,350)"/>
<path style="fill:none;stroke-width:0.01;stroke-linecap:butt;stroke-linejoin:miter;stroke:rgb(0%,0%,0%);stroke-opacity:1;stroke-miterlimit:10;" d="M 0.0692188 0.253398 L 0.0751563 0.502969 L 0.954531 0.502969 L 0.942656 0.734687 L 0.0454687 0.746602 Z M 0.0692188 0.253398 " transform="matrix(100,0,0,100,150,350)"/>
<path style="fill:none;stroke-width:0.01;stroke-linecap:butt;stroke-linejoin:miter;stroke:rgb(0%,0%,0%);stroke-opacity:1;stroke-miterlimit:10;" d="M 0.06875 0.258164 L 0.0746094 0.49707 L 0.954531 0.49707 L 0.948711 0.730195 L 0.0454687 0.741836 Z M 0.06875 0.258164 " transform="matrix(100,0,0,100,300,350)"/>
<path style="fill:none;stroke-width:0.01;stroke-linecap:butt;stroke-linejoin:miter;stroke:rgb(0%,0%,0%);stroke-opacity:1;stroke-miterlimit:10;" d="M 0.069375 0.251797 L 0.069375 0.503008 L 0.954531 0.485039 L 0.948555 0.71832 L 0.0454688 0.748203 Z M 0.069375 0.251797 " transform="matrix(100,0,0,100,450,350)"/>
<path style="fill:none;stroke-width:0.01;stroke-linecap:butt;stroke-linejoin:miter;stroke:rgb(0%,0%,0%);stroke-opacity:1;stroke-miterlimit:10;" d="M 0.0680469 0.262852 L 0.0793359 0.488711 L 0.954531 0.505664 L 0.937617 0.737148 L 0.0454688 0.731523 Z M 0.0680469 0.262852 " transform="matrix(100,0,0,100,600,350)"/>
</g>
</svg>
