<?xml version="1.0" encoding="UTF-8"?>
<svg xmlns="http://www.w3.org/2000/svg" xmlns:xlink="http://www.w3.org/1999/xlink" width="750pt" height="2800pt" viewBox="0 0 750 2800" version="1.1">
<g id="surface1">
<path style="fill:none;stroke-width:0.01;stroke-linecap:butt;stroke-linejoin:miter;stroke:rgb(0%,0%,0%);stroke-opacity:1;stroke-miterlimit:10;" d="M 0.111563 0.177695 L 0.954531 0.139102 L 0.954531 0.381523 L 0.0675 0.414609 L 0.0730078 0.635 L 0.888437 0.629492 L 0.88293 0.844336 L 0.0454688 0.860898 Z M 0.111563 0.177695 " transform="matrix(100,0,0,100,0,200)"/>
<path style="fill:none;stroke-width:0.01;stroke-linecap:butt;stroke-linejoin:miter;stroke:rgb(0%,0%,0%);stroke-opacity:1;stroke-miterlimit:10;" d="M 0.113203 0.1725 L 0.948906 0.127344 L 0.954531 0.370117 L 0.0680469 0.409648 L 0.0736719 0.635508 L 0.920664 0.641172 L 0.915039 0.861367 L 0.0454687 0.872656 Z M 0.113203 0.1725 " transform="matrix(100,0,0,100,150,200)"/>
<path style="fill:none;stroke-width:0.01;stroke-linecap:butt;stroke-linejoin:miter;stroke:rgb(0%,0%,0%);stroke-opacity:1;stroke-miterlimit:10;" d="M 0.114063 0.145508 L 0.920234 0.151211 L 0.908789 0.385664 L 0.056875 0.368516 L 0.0683203 0.608633 L 0.954531 0.585781 L 0.948828 0.820195 L 0.0454687 0.854492 Z M 0.114063 0.145508 " transform="matrix(100,0,0,100,300,200)"/>
<path style="fill:none;stroke-width:0.01;stroke-linecap:butt;stroke-linejoin:miter;stroke:rgb(0%,0%,0%);stroke-opacity:1;stroke-miterlimit:10;" d="M 0.113203 0.161211 L 0.954531 0.138633 L 0.948906 0.381406 L 0.0623828 0.392734 L 0.0680469 0.624219 L 0.920664 0.61293 L 0.915039 0.838789 L 0.0454688 0.861367 Z M 0.113203 0.161211 " transform="matrix(100,0,0,100,450,200)"/>
<path style="fill:none;stroke-width:0.01;stroke-linecap:butt;stroke-linejoin:miter;stroke:rgb(0%,0%,0%);stroke-opacity:1;stroke-miterlimit:10;" d="M 0.114492 0.166289 L 0.931523 0.120234 L 0.937266 0.356172 L 0.0742188 0.396445 L 0.0742188 0.632344 L 0.954531 0.638086 L 0.948789 0.873984 L 0.0454688 0.879766 Z M 0.114492 0.166289 " transform="matrix(100,0,0,100,600,200)"/>
<path style="fill:none;stroke-width:0.01;stroke-linecap:butt;stroke-linejoin:miter;stroke:rgb(0%,0%,0%);stroke-opacity:1;stroke-miterlimit:10;" d="M 0.110781 0.186992 L 0.943672 0.138008 L 0.954531 0.3775 L 0.0672266 0.421055 L 0.0726563 0.638828 L 0.872891 0.644258 L 0.867461 0.851133 L 0.0454688 0.861992 Z M 0.110781 0.186992 " transform="matrix(100,0,0,100,0,350)"/>
<path style="fill:none;stroke-width:0.01;stroke-linecap:butt;stroke-linejoin:miter;stroke:rgb(0%,0%,0%);stroke-opacity:1;stroke-miterlimit:10;" d="M 0.114062 0.17125 L 0.948828 0.119766 L 0.954531 0.359922 L 0.0740234 0.405664 L 0.0740234 0.640078 L 0.943125 0.645781 L 0.93168 0.874492 L 0.0454687 0.880234 Z M 0.114062 0.17125 " transform="matrix(100,0,0,100,150,350)"/>
<path style="fill:none;stroke-width:0.01;stroke-linecap:butt;stroke-linejoin:miter;stroke:rgb(0%,0%,0%);stroke-opacity:1;stroke-miterlimit:10;" d="M 0.114063 0.165508 L 0.948828 0.125508 L 0.954531 0.371367 L 0.0683203 0.399961 L 0.0740234 0.634375 L 0.937383 0.634375 L 0.93168 0.863047 L 0.0454687 0.874492 Z M 0.114063 0.165508 " transform="matrix(100,0,0,100,300,350)"/>
<path style="fill:none;stroke-width:0.01;stroke-linecap:butt;stroke-linejoin:miter;stroke:rgb(0%,0%,0%);stroke-opacity:1;stroke-miterlimit:10;" d="M 0.114922 0.149688 L 0.954531 0.132305 L 0.954531 0.375508 L 0.0628125 0.381289 L 0.0686328 0.618711 L 0.954531 0.607109 L 0.94875 0.844531 L 0.0454688 0.867695 Z M 0.114922 0.149688 " transform="matrix(100,0,0,100,450,350)"/>
<path style="fill:none;stroke-width:0.01;stroke-linecap:butt;stroke-linejoin:miter;stroke:rgb(0%,0%,0%);stroke-opacity:1;stroke-miterlimit:10;" d="M 0.114492 0.151914 L 0.931523 0.134648 L 0.931523 0.370547 L 0.0627344 0.376289 L 0.0684766 0.617969 L 0.954531 0.612188 L 0.948789 0.842344 L 0.0454688 0.865352 Z M 0.114492 0.151914 " transform="matrix(100,0,0,100,600,350)"/>
</g>
</svg>
