<?xml version="1.0" encoding="UTF-8"?>
<svg xmlns="http://www.w3.org/2000/svg" xmlns:xlink="http://www.w3.org/1999/xlink" width="750pt" height="2800pt" viewBox="0 0 750 2800" version="1.1">
<g id="surface1">
<path style="fill:none;stroke-width:0.01;stroke-linecap:butt;stroke-linejoin:miter;stroke:rgb(0%,0%,0%);stroke-opacity:1;stroke-miterlimit:10;" d="M 0.901055 0.179141 L 0.954531 0.79707 L 0.651523 0.820859 L 0.633672 0.20293 L 0.0454688 0.220742 Z M 0.901055 0.179141 " transform="matrix(100,0,0,100,0,200)"/>
<path style="fill:none;stroke-width:0.01;stroke-linecap:butt;stroke-linejoin:miter;stroke:rgb(0%,0%,0%);stroke-opacity:1;stroke-miterlimit:10;" d="M 0.853555 0.180117 L 0.954531 0.769375 L 0.668359 0.819883 L 0.595391 0.225039 L 0.0454687 0.219414 Z M 0.853555 0.180117 " transform="matrix(100,0,0,100,150,200)"/>
<path style="fill:none;stroke-width:0.01;stroke-linecap:butt;stroke-linejoin:miter;stroke:rgb(0%,0%,0%);stroke-opacity:1;stroke-miterlimit:10;" d="M 0.843672 0.170195 L 0.954531 0.774375 L 0.660742 0.829805 L 0.577617 0.214531 L 0.0454687 0.208984 Z M 0.843672 0.170195 " transform="matrix(100,0,0,100,300,200)"/>
<path style="fill:none;stroke-width:0.01;stroke-linecap:butt;stroke-linejoin:miter;stroke:rgb(0%,0%,0%);stroke-opacity:1;stroke-miterlimit:10;" d="M 0.868789 0.174102 L 0.954531 0.780156 L 0.657227 0.825898 L 0.605781 0.208398 L 0.0454688 0.214141 Z M 0.868789 0.174102 " transform="matrix(100,0,0,100,450,200)"/>
<path style="fill:none;stroke-width:0.01;stroke-linecap:butt;stroke-linejoin:miter;stroke:rgb(0%,0%,0%);stroke-opacity:1;stroke-miterlimit:10;" d="M 0.868789 0.165508 L 0.954531 0.78875 L 0.651523 0.834492 L 0.594336 0.199844 L 0.0454688 0.205547 Z M 0.868789 0.165508 " transform="matrix(100,0,0,100,600,200)"/>
<path style="fill:none;stroke-width:0.01;stroke-linecap:butt;stroke-linejoin:miter;stroke:rgb(0%,0%,0%);stroke-opacity:1;stroke-miterlimit:10;" d="M 0.895508 0.178281 L 0.954531 0.792227 L 0.659375 0.821719 L 0.629883 0.201875 L 0.0454688 0.219609 Z M 0.895508 0.178281 " transform="matrix(100,0,0,100,0,350)"/>
<path style="fill:none;stroke-width:0.01;stroke-linecap:butt;stroke-linejoin:miter;stroke:rgb(0%,0%,0%);stroke-opacity:1;stroke-miterlimit:10;" d="M 0.901055 0.164297 L 0.954531 0.806016 L 0.645586 0.835703 L 0.621797 0.188047 L 0.0454687 0.205898 Z M 0.901055 0.164297 " transform="matrix(100,0,0,100,150,350)"/>
<path style="fill:none;stroke-width:0.01;stroke-linecap:butt;stroke-linejoin:miter;stroke:rgb(0%,0%,0%);stroke-opacity:1;stroke-miterlimit:10;" d="M 0.884609 0.176563 L 0.954531 0.788477 L 0.657344 0.823437 L 0.616563 0.205703 L 0.0454687 0.217383 Z M 0.884609 0.176563 " transform="matrix(100,0,0,100,300,350)"/>
<path style="fill:none;stroke-width:0.01;stroke-linecap:butt;stroke-linejoin:miter;stroke:rgb(0%,0%,0%);stroke-opacity:1;stroke-miterlimit:10;" d="M 0.890039 0.165703 L 0.954531 0.799102 L 0.643711 0.834297 L 0.614375 0.189141 L 0.0454688 0.206758 Z M 0.890039 0.165703 " transform="matrix(100,0,0,100,450,350)"/>
<path style="fill:none;stroke-width:0.01;stroke-linecap:butt;stroke-linejoin:miter;stroke:rgb(0%,0%,0%);stroke-opacity:1;stroke-miterlimit:10;" d="M 0.843672 0.167422 L 0.954531 0.777148 L 0.655195 0.832578 L 0.577617 0.211758 L 0.0454688 0.206211 Z M 0.843672 0.167422 " transform="matrix(100,0,0,100,600,350)"/>
</g>
</svg>
