<?xml version="1.0" encoding="UTF-8"?>
<svg xmlns="http://www.w3.org/2000/svg" xmlns:xlink="http://www.w3.org/1999/xlink" width="750pt" height="2800pt" viewBox="0 0 750 2800" version="1.1">
<g id="surface1">
<path style="fill:none;stroke-width:0.01;stroke-linecap:butt;stroke-linejoin:miter;stroke:rgb(0%,0%,0%);stroke-opacity:1;stroke-miterlimit:10;" d="M 0.750195 0.519102 L 0.803672 0.927812 L 0.605039 0.954531 L 0.570664 0.542031 L 0.196328 0.549648 L 0.223086 0.0607422 L 0.796016 0.0454687 Z M 0.750195 0.519102 " transform="matrix(100,0,0,100,0,200)"/>
<path style="fill:none;stroke-width:0.01;stroke-linecap:butt;stroke-linejoin:miter;stroke:rgb(0%,0%,0%);stroke-opacity:1;stroke-miterlimit:10;" d="M 0.754219 0.523125 L 0.800469 0.931445 L 0.600156 0.954531 L 0.577031 0.542383 L 0.199531 0.538516 L 0.230352 0.0531641 L 0.800469 0.0454687 Z M 0.754219 0.523125 " transform="matrix(100,0,0,100,150,200)"/>
<path style="fill:none;stroke-width:0.01;stroke-linecap:butt;stroke-linejoin:miter;stroke:rgb(0%,0%,0%);stroke-opacity:1;stroke-miterlimit:10;" d="M 0.749336 0.521094 L 0.803047 0.927695 L 0.607422 0.954531 L 0.572891 0.544102 L 0.196953 0.551797 L 0.22 0.0607813 L 0.795352 0.0454687 Z M 0.749336 0.521094 " transform="matrix(100,0,0,100,300,200)"/>
<path style="fill:none;stroke-width:0.01;stroke-linecap:butt;stroke-linejoin:miter;stroke:rgb(0%,0%,0%);stroke-opacity:1;stroke-miterlimit:10;" d="M 0.753164 0.521094 L 0.803047 0.931523 L 0.603555 0.954531 L 0.572891 0.540273 L 0.196953 0.544102 L 0.227656 0.0569531 L 0.79918 0.0454687 Z M 0.753164 0.521094 " transform="matrix(100,0,0,100,450,200)"/>
<path style="fill:none;stroke-width:0.01;stroke-linecap:butt;stroke-linejoin:miter;stroke:rgb(0%,0%,0%);stroke-opacity:1;stroke-miterlimit:10;" d="M 0.755937 0.519102 L 0.801758 0.931641 L 0.599297 0.954531 L 0.576406 0.538203 L 0.198242 0.538203 L 0.228789 0.0530859 L 0.801758 0.0454687 Z M 0.755937 0.519102 " transform="matrix(100,0,0,100,600,200)"/>
<path style="fill:none;stroke-width:0.01;stroke-linecap:butt;stroke-linejoin:miter;stroke:rgb(0%,0%,0%);stroke-opacity:1;stroke-miterlimit:10;" d="M 0.749336 0.521094 L 0.803047 0.927695 L 0.603555 0.954531 L 0.572891 0.544102 L 0.196953 0.54793 L 0.223828 0.0607813 L 0.795352 0.0454687 Z M 0.749336 0.521094 " transform="matrix(100,0,0,100,0,350)"/>
<path style="fill:none;stroke-width:0.01;stroke-linecap:butt;stroke-linejoin:miter;stroke:rgb(0%,0%,0%);stroke-opacity:1;stroke-miterlimit:10;" d="M 0.756758 0.517109 L 0.802383 0.92793 L 0.604609 0.954531 L 0.577969 0.536133 L 0.197617 0.536133 L 0.231836 0.0530469 L 0.802383 0.0454687 Z M 0.756758 0.517109 " transform="matrix(100,0,0,100,150,350)"/>
<path style="fill:none;stroke-width:0.01;stroke-linecap:butt;stroke-linejoin:miter;stroke:rgb(0%,0%,0%);stroke-opacity:1;stroke-miterlimit:10;" d="M 0.747227 0.517109 L 0.804297 0.924102 L 0.602695 0.954531 L 0.568477 0.539922 L 0.195703 0.547539 L 0.218516 0.0606641 L 0.792891 0.0454687 Z M 0.747227 0.517109 " transform="matrix(100,0,0,100,300,350)"/>
<path style="fill:none;stroke-width:0.01;stroke-linecap:butt;stroke-linejoin:miter;stroke:rgb(0%,0%,0%);stroke-opacity:1;stroke-miterlimit:10;" d="M 0.75125 0.521094 L 0.801094 0.927695 L 0.605469 0.954531 L 0.574805 0.540273 L 0.198906 0.544102 L 0.225742 0.0607813 L 0.797266 0.0454687 Z M 0.75125 0.521094 " transform="matrix(100,0,0,100,450,350)"/>
<path style="fill:none;stroke-width:0.01;stroke-linecap:butt;stroke-linejoin:miter;stroke:rgb(0%,0%,0%);stroke-opacity:1;stroke-miterlimit:10;" d="M 0.752305 0.523125 L 0.798555 0.931445 L 0.598242 0.954531 L 0.575117 0.542383 L 0.201445 0.538516 L 0.228438 0.0569922 L 0.798555 0.0454687 Z M 0.752305 0.523125 " transform="matrix(100,0,0,100,600,350)"/>
</g>
</svg>
