<?xml version="1.0" encoding="UTF-8"?>
<svg xmlns="http://www.w3.org/2000/svg" xmlns:xlink="http://www.w3.org/1999/xlink" width="750pt" height="2800pt" viewBox="0 0 750 2800" version="1.1">
<g id="surface1">
<path style="fill:none;stroke-width:0.01;stroke-linecap:butt;stroke-linejoin:miter;stroke:rgb(0%,0%,0%);stroke-opacity:1;stroke-miterlimit:10;" d="M 0.0930078 0.390078 L 0.954531 0.366328 L 0.954531 0.615859 L 0.0454688 0.633672 Z M 0.0930078 0.390078 " transform="matrix(100,0,0,100,0,200)"/>
<path style="fill:none;stroke-width:0.01;stroke-linecap:butt;stroke-linejoin:miter;stroke:rgb(0%,0%,0%);stroke-opacity:1;stroke-miterlimit:10;" d="M 0.0920703 0.555352 L 0.867148 0.205703 L 0.954531 0.456289 L 0.0454687 0.794297 Z M 0.0920703 0.555352 " transform="matrix(100,0,0,100,150,200)"/>
<path style="fill:none;stroke-width:0.01;stroke-linecap:butt;stroke-linejoin:miter;stroke:rgb(0%,0%,0%);stroke-opacity:1;stroke-miterlimit:10;" d="M 0.090625 0.519766 L 0.892422 0.248711 L 0.954531 0.497187 L 0.0454687 0.751289 Z M 0.090625 0.519766 " transform="matrix(100,0,0,100,300,200)"/>
<path style="fill:none;stroke-width:0.01;stroke-linecap:butt;stroke-linejoin:miter;stroke:rgb(0%,0%,0%);stroke-opacity:1;stroke-miterlimit:10;" d="M 0.0959766 0.222227 L 0.954531 0.556836 L 0.866172 0.777773 L 0.0454688 0.481055 Z M 0.0959766 0.222227 " transform="matrix(100,0,0,100,450,200)"/>
<path style="fill:none;stroke-width:0.01;stroke-linecap:butt;stroke-linejoin:miter;stroke:rgb(0%,0%,0%);stroke-opacity:1;stroke-miterlimit:10;" d="M 0.0908984 0.519883 L 0.892031 0.247148 L 0.954531 0.497148 L 0.0454688 0.752852 Z M 0.0908984 0.519883 " transform="matrix(100,0,0,100,600,200)"/>
<path style="fill:none;stroke-width:0.01;stroke-linecap:butt;stroke-linejoin:miter;stroke:rgb(0%,0%,0%);stroke-opacity:1;stroke-miterlimit:10;" d="M 0.0923828 0.555703 L 0.866563 0.203828 L 0.954531 0.456016 L 0.0454688 0.796172 Z M 0.0923828 0.555703 " transform="matrix(100,0,0,100,0,350)"/>
<path style="fill:none;stroke-width:0.01;stroke-linecap:butt;stroke-linejoin:miter;stroke:rgb(0%,0%,0%);stroke-opacity:1;stroke-miterlimit:10;" d="M 0.0917969 0.349453 L 0.954531 0.407344 L 0.937187 0.650547 L 0.0454687 0.586875 Z M 0.0917969 0.349453 " transform="matrix(100,0,0,100,150,350)"/>
<path style="fill:none;stroke-width:0.01;stroke-linecap:butt;stroke-linejoin:miter;stroke:rgb(0%,0%,0%);stroke-opacity:1;stroke-miterlimit:10;" d="M 0.0923828 0.555703 L 0.866563 0.203828 L 0.954531 0.456016 L 0.0454687 0.796172 Z M 0.0923828 0.555703 " transform="matrix(100,0,0,100,300,350)"/>
<path style="fill:none;stroke-width:0.01;stroke-linecap:butt;stroke-linejoin:miter;stroke:rgb(0%,0%,0%);stroke-opacity:1;stroke-miterlimit:10;" d="M 0.0920703 0.555352 L 0.867148 0.205703 L 0.954531 0.456289 L 0.0454688 0.794297 Z M 0.0920703 0.555352 " transform="matrix(100,0,0,100,450,350)"/>
<path style="fill:none;stroke-width:0.01;stroke-linecap:butt;stroke-linejoin:miter;stroke:rgb(0%,0%,0%);stroke-opacity:1;stroke-miterlimit:10;" d="M 0.0923828 0.558633 L 0.866563 0.200898 L 0.954531 0.453086 L 0.0454688 0.799102 Z M 0.0923828 0.558633 " transform="matrix(100,0,0,100,600,350)"/>
</g>
</svg>
