<?xml version="1.0" encoding="UTF-8"?>
<svg xmlns="http://www.w3.org/2000/svg" xmlns:xlink="http://www.w3.org/1999/xlink" width="750pt" height="3600pt" viewBox="0 0 750 3600" version="1.1">
<g id="surface1">
<path style="fill:none;stroke-width:0.01;stroke-linecap:butt;stroke-linejoin:miter;stroke:rgb(0%,0%,0%);stroke-opacity:1;stroke-miterlimit:10;" d="M 0.496484 0.280469 L 0.925547 0.218477 L 0.945547 0.3375 L 0.4875 0.404492 L 0.5025 0.529492 L 0.954531 0.676523 L 0.928555 0.781523 L 0.496484 0.661523 L 0.0664453 0.727539 L 0.0454688 0.3375 Z M 0.496484 0.280469 " transform="matrix(100,0,0,100,0,200)"/>
<path style="fill:none;stroke-width:0.01;stroke-linecap:butt;stroke-linejoin:miter;stroke:rgb(0%,0%,0%);stroke-opacity:1;stroke-miterlimit:10;" d="M 0.4975 0.144453 L 0.924531 0.324492 L 0.892539 0.440508 L 0.479492 0.272461 L 0.499492 0.398477 L 0.933555 0.310469 L 0.954531 0.424492 L 0.4975 0.525508 L 0.780547 0.711523 L 0.640508 0.855547 L 0.355469 0.554492 L 0.0594531 0.591523 L 0.0454687 0.201484 Z M 0.4975 0.144453 " transform="matrix(100,0,0,100,150,200)"/>
<path style="fill:none;stroke-width:0.01;stroke-linecap:butt;stroke-linejoin:miter;stroke:rgb(0%,0%,0%);stroke-opacity:1;stroke-miterlimit:10;" d="M 0.488516 0.310469 L 0.923555 0.262461 L 0.941563 0.384492 L 0.475508 0.435508 L 0.493516 0.551523 L 0.898555 0.341484 L 0.954531 0.463516 L 0.488516 0.678516 L 0.0704687 0.737539 L 0.0454687 0.3675 Z M 0.488516 0.310469 " transform="matrix(100,0,0,100,300,200)"/>
<path style="fill:none;stroke-width:0.01;stroke-linecap:butt;stroke-linejoin:miter;stroke:rgb(0%,0%,0%);stroke-opacity:1;stroke-miterlimit:10;" d="M 0.499492 0.269492 L 0.911523 0.443477 L 0.861523 0.551523 L 0.4825 0.393477 L 0.501484 0.523516 L 0.954531 0.6125 L 0.937539 0.730508 L 0.499492 0.655508 L 0.0644531 0.718516 L 0.0454688 0.331484 Z M 0.499492 0.269492 " transform="matrix(100,0,0,100,450,200)"/>
<path style="fill:none;stroke-width:0.01;stroke-linecap:butt;stroke-linejoin:miter;stroke:rgb(0%,0%,0%);stroke-opacity:1;stroke-miterlimit:10;" d="M 0.4875 0.262461 L 0.898555 0.0624609 L 0.954531 0.186484 L 0.478516 0.388477 L 0.494492 0.5075 L 0.945547 0.473516 L 0.952539 0.593516 L 0.4875 0.6325 L 0.751523 0.789531 L 0.636523 0.937539 L 0.359492 0.664531 L 0.0704687 0.697539 L 0.0454688 0.319492 Z M 0.4875 0.262461 " transform="matrix(100,0,0,100,600,200)"/>
<path style="fill:none;stroke-width:0.01;stroke-linecap:butt;stroke-linejoin:miter;stroke:rgb(0%,0%,0%);stroke-opacity:1;stroke-miterlimit:10;" d="M 0.520508 0.285469 L 0.946562 0.490508 L 0.898555 0.598516 L 0.4975 0.414492 L 0.516484 0.540508 L 0.893555 0.257461 L 0.954531 0.369492 L 0.520508 0.675508 L 0.0754688 0.742539 L 0.0454688 0.349492 Z M 0.520508 0.285469 " transform="matrix(100,0,0,100,0,350)"/>
<path style="fill:none;stroke-width:0.01;stroke-linecap:butt;stroke-linejoin:miter;stroke:rgb(0%,0%,0%);stroke-opacity:1;stroke-miterlimit:10;" d="M 0.495508 0.276484 L 0.954531 0.4475 L 0.907539 0.555508 L 0.483516 0.411484 L 0.498516 0.534492 L 0.928555 0.448477 L 0.947539 0.575508 L 0.495508 0.660508 L 0.0544531 0.723516 L 0.0454687 0.333477 Z M 0.495508 0.276484 " transform="matrix(100,0,0,100,150,350)"/>
<path style="fill:none;stroke-width:0.01;stroke-linecap:butt;stroke-linejoin:miter;stroke:rgb(0%,0%,0%);stroke-opacity:1;stroke-miterlimit:10;" d="M 0.491484 0.301484 L 0.938555 0.257461 L 0.937539 0.386484 L 0.475508 0.428477 L 0.493516 0.553516 L 0.931563 0.463516 L 0.954531 0.5825 L 0.491484 0.681523 L 0.0594531 0.742539 L 0.0454687 0.3625 Z M 0.491484 0.301484 " transform="matrix(100,0,0,100,300,350)"/>
<path style="fill:none;stroke-width:0.01;stroke-linecap:butt;stroke-linejoin:miter;stroke:rgb(0%,0%,0%);stroke-opacity:1;stroke-miterlimit:10;" d="M 0.489492 0.374492 L 0.884531 0.195469 L 0.930547 0.311484 L 0.478516 0.494492 L 0.4925 0.618516 L 0.933555 0.529492 L 0.954531 0.660508 L 0.489492 0.746523 L 0.0614453 0.804531 L 0.0454688 0.426484 Z M 0.489492 0.374492 " transform="matrix(100,0,0,100,450,350)"/>
<path style="fill:none;stroke-width:0.01;stroke-linecap:butt;stroke-linejoin:miter;stroke:rgb(0%,0%,0%);stroke-opacity:1;stroke-miterlimit:10;" d="M 0.494492 0.225469 L 0.904531 0.0454687 L 0.951563 0.170469 L 0.481484 0.349492 L 0.4975 0.4725 L 0.930547 0.430508 L 0.934531 0.548516 L 0.494492 0.593516 L 0.675508 0.865547 L 0.526484 0.954531 L 0.356484 0.620508 L 0.0694531 0.6525 L 0.0484375 0.285469 Z M 0.494492 0.225469 " transform="matrix(100,0,0,100,600,350)"/>
<path style="fill:none;stroke-width:0.01;stroke-linecap:butt;stroke-linejoin:miter;stroke:rgb(0%,0%,0%);stroke-opacity:1;stroke-miterlimit:10;" d="M 0.471484 0.369492 L 0.861523 0.203477 L 0.902539 0.313477 L 0.4575 0.486484 L 0.470508 0.608516 L 0.927539 0.544492 L 0.954531 0.666523 L 0.471484 0.736523 L 0.0534375 0.796523 L 0.0454688 0.426484 Z M 0.471484 0.369492 " transform="matrix(100,0,0,100,0,500)"/>
<path style="fill:none;stroke-width:0.01;stroke-linecap:butt;stroke-linejoin:miter;stroke:rgb(0%,0%,0%);stroke-opacity:1;stroke-miterlimit:10;" d="M 0.494492 0.127461 L 0.933555 0.243477 L 0.898555 0.349492 L 0.4825 0.256484 L 0.498516 0.378477 L 0.930547 0.295469 L 0.954531 0.411484 L 0.494492 0.503516 L 0.568516 0.837539 L 0.404492 0.872539 L 0.349492 0.534492 L 0.0644531 0.5675 L 0.0454687 0.177461 Z M 0.494492 0.127461 " transform="matrix(100,0,0,100,150,500)"/>
<path style="fill:none;stroke-width:0.01;stroke-linecap:butt;stroke-linejoin:miter;stroke:rgb(0%,0%,0%);stroke-opacity:1;stroke-miterlimit:10;" d="M 0.493516 0.187461 L 0.926523 0.153477 L 0.926523 0.270469 L 0.476484 0.310469 L 0.495508 0.4375 L 0.954531 0.520508 L 0.931563 0.641523 L 0.493516 0.570508 L 0.3175 0.846523 L 0.227461 0.789531 L 0.355469 0.599492 L 0.0534375 0.633516 L 0.0454687 0.244492 Z M 0.493516 0.187461 " transform="matrix(100,0,0,100,300,500)"/>
<path style="fill:none;stroke-width:0.01;stroke-linecap:butt;stroke-linejoin:miter;stroke:rgb(0%,0%,0%);stroke-opacity:1;stroke-miterlimit:10;" d="M 0.503516 0.276484 L 0.943555 0.403477 L 0.912539 0.5125 L 0.488516 0.406484 L 0.504492 0.530508 L 0.937539 0.436484 L 0.954531 0.554492 L 0.503516 0.658516 L 0.0644531 0.723516 L 0.0454688 0.328477 Z M 0.503516 0.276484 " transform="matrix(100,0,0,100,450,500)"/>
<path style="fill:none;stroke-width:0.01;stroke-linecap:butt;stroke-linejoin:miter;stroke:rgb(0%,0%,0%);stroke-opacity:1;stroke-miterlimit:10;" d="M 0.5025 0.128477 L 0.944531 0.0934766 L 0.954531 0.206484 L 0.484492 0.253477 L 0.506484 0.378477 L 0.891523 0.124453 L 0.954531 0.241484 L 0.5025 0.510508 L 0.711523 0.794531 L 0.553516 0.906523 L 0.353477 0.546523 L 0.0614453 0.576523 L 0.0454688 0.187461 Z M 0.5025 0.128477 " transform="matrix(100,0,0,100,600,500)"/>
<path style="fill:none;stroke-width:0.01;stroke-linecap:butt;stroke-linejoin:miter;stroke:rgb(0%,0%,0%);stroke-opacity:1;stroke-miterlimit:10;" d="M 0.494492 0.335469 L 0.895547 0.163477 L 0.933555 0.279492 L 0.480508 0.456484 L 0.501484 0.575508 L 0.954531 0.726523 L 0.912539 0.836523 L 0.494492 0.708516 L 0.0664453 0.772539 L 0.0454688 0.3825 Z M 0.494492 0.335469 " transform="matrix(100,0,0,100,0,650)"/>
<path style="fill:none;stroke-width:0.01;stroke-linecap:butt;stroke-linejoin:miter;stroke:rgb(0%,0%,0%);stroke-opacity:1;stroke-miterlimit:10;" d="M 0.484492 0.215469 L 0.892539 0.0454688 L 0.945547 0.172461 L 0.470508 0.338477 L 0.486484 0.460508 L 0.935547 0.408477 L 0.942539 0.5275 L 0.484492 0.586523 L 0.563516 0.915547 L 0.399492 0.954531 L 0.343477 0.620508 L 0.0574609 0.650508 L 0.0544531 0.270469 Z M 0.484492 0.215469 " transform="matrix(100,0,0,100,150,650)"/>
<path style="fill:none;stroke-width:0.01;stroke-linecap:butt;stroke-linejoin:miter;stroke:rgb(0%,0%,0%);stroke-opacity:1;stroke-miterlimit:10;" d="M 0.489492 0.286484 L 0.953555 0.269492 L 0.954531 0.396484 L 0.479492 0.415508 L 0.495508 0.541523 L 0.867539 0.305469 L 0.924531 0.4275 L 0.489492 0.6675 L 0.0544531 0.730508 L 0.0454687 0.339492 Z M 0.489492 0.286484 " transform="matrix(100,0,0,100,300,650)"/>
<path style="fill:none;stroke-width:0.01;stroke-linecap:butt;stroke-linejoin:miter;stroke:rgb(0%,0%,0%);stroke-opacity:1;stroke-miterlimit:10;" d="M 0.499492 0.269492 L 0.865547 0.0584375 L 0.924531 0.174453 L 0.489492 0.390508 L 0.5025 0.513516 L 0.942539 0.470508 L 0.954531 0.583516 L 0.499492 0.636523 L 0.759531 0.803516 L 0.626523 0.941562 L 0.369492 0.664531 L 0.0754687 0.699531 L 0.0454688 0.324492 Z M 0.499492 0.269492 " transform="matrix(100,0,0,100,450,650)"/>
<path style="fill:none;stroke-width:0.01;stroke-linecap:butt;stroke-linejoin:miter;stroke:rgb(0%,0%,0%);stroke-opacity:1;stroke-miterlimit:10;" d="M 0.498516 0.289492 L 0.954531 0.263477 L 0.950547 0.384492 L 0.489492 0.416484 L 0.5075 0.545508 L 0.877539 0.3225 L 0.925547 0.444492 L 0.498516 0.669531 L 0.0594531 0.736523 L 0.0454688 0.353477 Z M 0.498516 0.289492 " transform="matrix(100,0,0,100,600,650)"/>
</g>
</svg>
