<?xml version="1.0" encoding="UTF-8"?>
<svg xmlns="http://www.w3.org/2000/svg" xmlns:xlink="http://www.w3.org/1999/xlink" width="750pt" height="3600pt" viewBox="0 0 750 3600" version="1.1">
<g id="surface1">
<path style="fill:none;stroke-width:0.01;stroke-linecap:butt;stroke-linejoin:miter;stroke:rgb(0%,0%,0%);stroke-opacity:1;stroke-miterlimit:10;" d="M 0.4925 0.450508 L 0.282461 0.424492 L 0.279492 0.266484 L 0.168477 0.0454687 L 0.100469 0.0814453 L 0.203477 0.284492 L 0.206484 0.425508 L 0.194453 0.4925 L 0.0984766 0.481484 L 0.0954688 0.5425 L 0.185469 0.553516 L 0.181484 0.619531 L 0.205469 0.759531 L 0.0884766 0.919531 L 0.168477 0.954531 L 0.228477 0.758516 L 0.270469 0.634531 L 0.4925 0.656523 L 0.723516 0.6825 L 0.911523 0.665508 L 0.899531 0.591523 L 0.733516 0.594492 L 0.590508 0.5425 L 0.723516 0.495508 L 0.878555 0.496484 L 0.889531 0.4275 L 0.717539 0.424492 Z M 0.4925 0.450508 " transform="matrix(100,0,0,100,0,200)"/>
<path style="fill:none;stroke-width:0.01;stroke-linecap:butt;stroke-linejoin:miter;stroke:rgb(0%,0%,0%);stroke-opacity:1;stroke-miterlimit:10;" d="M 0.515508 0.416484 L 0.284492 0.413477 L 0.274492 0.257461 L 0.155469 0.0454687 L 0.100469 0.0744531 L 0.196484 0.282461 L 0.186484 0.431484 L 0.181484 0.486484 L 0.0554687 0.4825 L 0.0584375 0.5625 L 0.182461 0.564492 L 0.190469 0.639531 L 0.209453 0.758516 L 0.125469 0.925547 L 0.191484 0.954531 L 0.249492 0.756523 L 0.278477 0.659531 L 0.515508 0.623516 L 0.739531 0.668516 L 0.920547 0.659531 L 0.927539 0.586523 L 0.767539 0.576523 L 0.610508 0.515508 L 0.759531 0.454492 L 0.934531 0.475508 L 0.944531 0.4075 L 0.758516 0.405508 Z M 0.515508 0.416484 " transform="matrix(100,0,0,100,150,200)"/>
<path style="fill:none;stroke-width:0.01;stroke-linecap:butt;stroke-linejoin:miter;stroke:rgb(0%,0%,0%);stroke-opacity:1;stroke-miterlimit:10;" d="M 0.4825 0.3825 L 0.272461 0.3525 L 0.301484 0.251484 L 0.255469 0.0594531 L 0.202461 0.0724609 L 0.239492 0.253477 L 0.205469 0.354492 L 0.217461 0.449492 L 0.0454687 0.464492 L 0.0624609 0.571523 L 0.228477 0.558516 L 0.251484 0.658516 L 0.295469 0.771523 L 0.242461 0.940547 L 0.315469 0.935547 L 0.3375 0.754531 L 0.3425 0.643516 L 0.4825 0.629531 L 0.740508 0.6475 L 0.930547 0.614492 L 0.905547 0.550508 L 0.745508 0.5625 L 0.595508 0.505508 L 0.767539 0.4425 L 0.954531 0.428477 L 0.948555 0.323477 L 0.746523 0.351484 Z M 0.4825 0.3825 " transform="matrix(100,0,0,100,300,200)"/>
<path style="fill:none;stroke-width:0.01;stroke-linecap:butt;stroke-linejoin:miter;stroke:rgb(0%,0%,0%);stroke-opacity:1;stroke-miterlimit:10;" d="M 0.503516 0.159453 L 0.269492 0.178477 L 0.175469 0.235469 L 0.0944531 0.409492 L 0.0594531 0.370469 L 0.128477 0.231484 L 0.168477 0.170469 L 0.161484 0.252461 L 0.0454688 0.249492 L 0.0454688 0.323477 L 0.158477 0.329492 L 0.167461 0.3925 L 0.242461 0.569492 L 0.174453 0.836523 L 0.280469 0.840547 L 0.272461 0.540508 L 0.268477 0.3825 L 0.503516 0.3725 L 0.717539 0.396484 L 0.918555 0.365469 L 0.912539 0.294492 L 0.758516 0.319492 L 0.601523 0.270469 L 0.770508 0.240469 L 0.954531 0.272461 L 0.943555 0.166484 L 0.757539 0.173477 Z M 0.503516 0.159453 " transform="matrix(100,0,0,100,450,200)"/>
<path style="fill:none;stroke-width:0.01;stroke-linecap:butt;stroke-linejoin:miter;stroke:rgb(0%,0%,0%);stroke-opacity:1;stroke-miterlimit:10;" d="M 0.479492 0.546523 L 0.259492 0.531484 L 0.249492 0.414492 L 0.153477 0.229492 L 0.107461 0.245469 L 0.192461 0.4225 L 0.178477 0.538516 L 0.167461 0.599492 L 0.0464453 0.585508 L 0.0454688 0.661523 L 0.158477 0.666523 L 0.163477 0.727539 L 0.143477 0.606523 L 0.0554688 0.4125 L 0.121445 0.350469 L 0.238477 0.581523 L 0.278477 0.726523 L 0.479492 0.747539 L 0.707539 0.770508 L 0.864531 0.766523 L 0.864531 0.708516 L 0.711523 0.718516 L 0.5775 0.643516 L 0.754531 0.611523 L 0.954531 0.618516 L 0.945547 0.544492 L 0.737539 0.558516 Z M 0.479492 0.546523 " transform="matrix(100,0,0,100,600,200)"/>
<path style="fill:none;stroke-width:0.01;stroke-linecap:butt;stroke-linejoin:miter;stroke:rgb(0%,0%,0%);stroke-opacity:1;stroke-miterlimit:10;" d="M 0.480508 0.4025 L 0.272461 0.415508 L 0.205469 0.498516 L 0.156484 0.689531 L 0.106445 0.676523 L 0.141445 0.495508 L 0.184453 0.420508 L 0.177461 0.4825 L 0.0544531 0.470508 L 0.0454688 0.550508 L 0.162461 0.558516 L 0.169453 0.621523 L 0.145469 0.519492 L 0.0564453 0.343477 L 0.111445 0.310469 L 0.217461 0.501484 L 0.280469 0.614492 L 0.480508 0.6075 L 0.713516 0.625508 L 0.890547 0.619531 L 0.893555 0.573516 L 0.725508 0.571523 L 0.5875 0.494492 L 0.754531 0.435508 L 0.954531 0.423477 L 0.934531 0.3425 L 0.723516 0.3725 Z M 0.480508 0.4025 " transform="matrix(100,0,0,100,0,350)"/>
<path style="fill:none;stroke-width:0.01;stroke-linecap:butt;stroke-linejoin:miter;stroke:rgb(0%,0%,0%);stroke-opacity:1;stroke-miterlimit:10;" d="M 0.5475 0.416484 L 0.308477 0.424492 L 0.313477 0.289492 L 0.207461 0.0454687 L 0.160469 0.0604688 L 0.231484 0.270469 L 0.221484 0.416484 L 0.213477 0.488516 L 0.0854687 0.496484 L 0.0984766 0.584492 L 0.215469 0.570508 L 0.222461 0.635508 L 0.261484 0.758516 L 0.219453 0.937539 L 0.294492 0.954531 L 0.3075 0.760508 L 0.326484 0.645508 L 0.5475 0.6125 L 0.759531 0.6125 L 0.914531 0.5875 L 0.905547 0.5425 L 0.762539 0.559492 L 0.6275 0.511484 L 0.732539 0.458477 L 0.872539 0.4525 L 0.858555 0.395508 L 0.727539 0.403477 Z M 0.5475 0.416484 " transform="matrix(100,0,0,100,150,350)"/>
<path style="fill:none;stroke-width:0.01;stroke-linecap:butt;stroke-linejoin:miter;stroke:rgb(0%,0%,0%);stroke-opacity:1;stroke-miterlimit:10;" d="M 0.499492 0.506484 L 0.266484 0.501484 L 0.253477 0.359492 L 0.113477 0.123477 L 0.0454687 0.174453 L 0.174453 0.375469 L 0.182461 0.516484 L 0.176484 0.573516 L 0.0634375 0.563516 L 0.0534375 0.636523 L 0.165469 0.641523 L 0.175469 0.699531 L 0.267461 0.876523 L 0.464492 0.768516 L 0.485508 0.707539 L 0.340469 0.722539 L 0.260469 0.718516 L 0.499492 0.728516 L 0.740508 0.725508 L 0.901523 0.6825 L 0.883555 0.613516 L 0.741523 0.634531 L 0.606523 0.609492 L 0.772539 0.561523 L 0.954531 0.5625 L 0.941563 0.471484 L 0.748516 0.479492 Z M 0.499492 0.506484 " transform="matrix(100,0,0,100,300,350)"/>
<path style="fill:none;stroke-width:0.01;stroke-linecap:butt;stroke-linejoin:miter;stroke:rgb(0%,0%,0%);stroke-opacity:1;stroke-miterlimit:10;" d="M 0.498516 0.349492 L 0.298477 0.355469 L 0.309492 0.270469 L 0.476484 0.351484 L 0.505508 0.293477 L 0.269492 0.162461 L 0.174453 0.350469 L 0.176484 0.429492 L 0.0564453 0.413477 L 0.0454688 0.495508 L 0.170469 0.5025 L 0.182461 0.570508 L 0.169453 0.698516 L 0.0554688 0.810547 L 0.119453 0.837539 L 0.209453 0.676523 L 0.265469 0.584492 L 0.498516 0.563516 L 0.727539 0.599492 L 0.917539 0.571523 L 0.908555 0.489492 L 0.730508 0.505508 L 0.5925 0.4525 L 0.749531 0.4125 L 0.943555 0.444492 L 0.954531 0.356484 L 0.768516 0.355469 Z M 0.498516 0.349492 " transform="matrix(100,0,0,100,450,350)"/>
<path style="fill:none;stroke-width:0.01;stroke-linecap:butt;stroke-linejoin:miter;stroke:rgb(0%,0%,0%);stroke-opacity:1;stroke-miterlimit:10;" d="M 0.518516 0.5475 L 0.291484 0.531484 L 0.269492 0.3475 L 0.104453 0.0624609 L 0.0454688 0.110469 L 0.204453 0.376484 L 0.196484 0.545508 L 0.195469 0.6125 L 0.0764453 0.608516 L 0.0744531 0.688516 L 0.194453 0.6925 L 0.208477 0.761523 L 0.324492 0.937539 L 0.535508 0.804531 L 0.543516 0.746523 L 0.395508 0.771523 L 0.306484 0.780547 L 0.518516 0.750508 L 0.754531 0.762539 L 0.954531 0.718516 L 0.936562 0.650508 L 0.769531 0.684531 L 0.610508 0.638516 L 0.732539 0.5875 L 0.888555 0.566523 L 0.925547 0.441484 L 0.661523 0.287461 Z M 0.518516 0.5475 " transform="matrix(100,0,0,100,600,350)"/>
<path style="fill:none;stroke-width:0.01;stroke-linecap:butt;stroke-linejoin:miter;stroke:rgb(0%,0%,0%);stroke-opacity:1;stroke-miterlimit:10;" d="M 0.515508 0.225469 L 0.3425 0.211484 L 0.360469 0.135469 L 0.480508 0.230469 L 0.5175 0.187461 L 0.325469 0.0484375 L 0.232461 0.191484 L 0.237461 0.290469 L 0.0454688 0.304492 L 0.0654688 0.428477 L 0.244492 0.404492 L 0.272461 0.500508 L 0.350469 0.6725 L 0.315469 0.951563 L 0.438477 0.939531 L 0.391484 0.6425 L 0.369492 0.481484 L 0.515508 0.4625 L 0.762539 0.4325 L 0.954531 0.388477 L 0.948555 0.320469 L 0.775547 0.383477 L 0.611523 0.3325 L 0.767539 0.252461 L 0.954531 0.235469 L 0.943555 0.145469 L 0.752539 0.188477 Z M 0.515508 0.225469 " transform="matrix(100,0,0,100,0,500)"/>
<path style="fill:none;stroke-width:0.01;stroke-linecap:butt;stroke-linejoin:miter;stroke:rgb(0%,0%,0%);stroke-opacity:1;stroke-miterlimit:10;" d="M 0.490508 0.374492 L 0.308477 0.351484 L 0.330469 0.260469 L 0.287461 0.0824609 L 0.245469 0.0914453 L 0.261484 0.246484 L 0.239492 0.338477 L 0.228477 0.425508 L 0.0454687 0.431484 L 0.0474609 0.551523 L 0.226484 0.535508 L 0.251484 0.628516 L 0.282461 0.745508 L 0.211484 0.909531 L 0.274492 0.917539 L 0.306484 0.714531 L 0.333477 0.611523 L 0.490508 0.5975 L 0.721523 0.608516 L 0.947539 0.5675 L 0.935547 0.501484 L 0.762539 0.518516 L 0.595508 0.468516 L 0.754531 0.4175 L 0.954531 0.424492 L 0.954531 0.321484 L 0.762539 0.345469 Z M 0.490508 0.374492 " transform="matrix(100,0,0,100,150,500)"/>
<path style="fill:none;stroke-width:0.01;stroke-linecap:butt;stroke-linejoin:miter;stroke:rgb(0%,0%,0%);stroke-opacity:1;stroke-miterlimit:10;" d="M 0.473516 0.426484 L 0.253477 0.4125 L 0.257461 0.282461 L 0.166484 0.0774609 L 0.110469 0.101445 L 0.186484 0.291484 L 0.163477 0.408477 L 0.151484 0.481484 L 0.0454687 0.4975 L 0.0514453 0.561523 L 0.149453 0.560508 L 0.158477 0.6475 L 0.167461 0.757539 L 0.0674609 0.894531 L 0.120469 0.922539 L 0.185469 0.758516 L 0.239492 0.659531 L 0.473516 0.6375 L 0.748516 0.675508 L 0.954531 0.670508 L 0.938555 0.585508 L 0.752539 0.600508 L 0.579492 0.5175 L 0.590508 0.3475 L 0.700508 0.420508 L 0.686523 0.380469 L 0.600508 0.393477 Z M 0.473516 0.426484 " transform="matrix(100,0,0,100,300,500)"/>
<path style="fill:none;stroke-width:0.01;stroke-linecap:butt;stroke-linejoin:miter;stroke:rgb(0%,0%,0%);stroke-opacity:1;stroke-miterlimit:10;" d="M 0.5225 0.474492 L 0.272461 0.458477 L 0.240469 0.336484 L 0.117461 0.160469 L 0.0824609 0.200469 L 0.184453 0.359492 L 0.191484 0.469492 L 0.188477 0.538516 L 0.0654687 0.518516 L 0.0454688 0.5925 L 0.172461 0.618516 L 0.183477 0.694531 L 0.283477 0.839531 L 0.460508 0.719531 L 0.458477 0.669531 L 0.341484 0.679531 L 0.276484 0.696523 L 0.5225 0.689531 L 0.748516 0.674531 L 0.922539 0.640508 L 0.924531 0.578516 L 0.767539 0.6125 L 0.623516 0.571523 L 0.762539 0.503516 L 0.941562 0.4825 L 0.954531 0.4125 L 0.769531 0.443477 Z M 0.5225 0.474492 " transform="matrix(100,0,0,100,450,500)"/>
<path style="fill:none;stroke-width:0.01;stroke-linecap:butt;stroke-linejoin:miter;stroke:rgb(0%,0%,0%);stroke-opacity:1;stroke-miterlimit:10;" d="M 0.516484 0.451484 L 0.276484 0.436484 L 0.255469 0.292461 L 0.124453 0.0474609 L 0.0764453 0.0864453 L 0.197461 0.286484 L 0.180469 0.4375 L 0.170469 0.509492 L 0.0494531 0.499492 L 0.0454688 0.576523 L 0.168477 0.583516 L 0.177461 0.656523 L 0.190469 0.779531 L 0.100469 0.917539 L 0.163477 0.952539 L 0.228477 0.779531 L 0.267461 0.676523 L 0.516484 0.676523 L 0.759531 0.700508 L 0.954531 0.663516 L 0.951563 0.594492 L 0.791523 0.600508 L 0.6175 0.556523 L 0.775547 0.533516 L 0.940547 0.548516 L 0.936562 0.465508 L 0.766523 0.446484 Z M 0.516484 0.451484 " transform="matrix(100,0,0,100,600,500)"/>
<path style="fill:none;stroke-width:0.01;stroke-linecap:butt;stroke-linejoin:miter;stroke:rgb(0%,0%,0%);stroke-opacity:1;stroke-miterlimit:10;" d="M 0.481484 0.360469 L 0.270469 0.3775 L 0.172461 0.470508 L 0.112461 0.694531 L 0.0604688 0.659531 L 0.112461 0.476484 L 0.160469 0.385508 L 0.155469 0.454492 L 0.0454688 0.4525 L 0.0494531 0.516484 L 0.152461 0.519492 L 0.162461 0.578516 L 0.271484 0.695508 L 0.398477 0.559492 L 0.391484 0.530508 L 0.302461 0.561523 L 0.253477 0.579492 L 0.481484 0.576523 L 0.727539 0.596523 L 0.927539 0.5625 L 0.927539 0.4925 L 0.759531 0.508516 L 0.589492 0.4575 L 0.759531 0.396484 L 0.954531 0.390508 L 0.945547 0.304492 L 0.734531 0.310469 Z M 0.481484 0.360469 " transform="matrix(100,0,0,100,0,650)"/>
<path style="fill:none;stroke-width:0.01;stroke-linecap:butt;stroke-linejoin:miter;stroke:rgb(0%,0%,0%);stroke-opacity:1;stroke-miterlimit:10;" d="M 0.543516 0.274492 L 0.3275 0.279492 L 0.324492 0.188477 L 0.4925 0.269492 L 0.526484 0.214453 L 0.295469 0.0934766 L 0.210469 0.268477 L 0.193477 0.341484 L 0.0694531 0.336484 L 0.0624609 0.419492 L 0.186484 0.4275 L 0.191484 0.499492 L 0.199453 0.669531 L 0.0454687 0.877539 L 0.142461 0.906523 L 0.236484 0.6575 L 0.294492 0.518516 L 0.543516 0.4975 L 0.776523 0.5475 L 0.954531 0.531484 L 0.944531 0.465508 L 0.789531 0.455508 L 0.651523 0.393477 L 0.678516 0.212461 L 0.795547 0.295469 L 0.790547 0.259492 L 0.6825 0.265469 Z M 0.543516 0.274492 " transform="matrix(100,0,0,100,150,650)"/>
<path style="fill:none;stroke-width:0.01;stroke-linecap:butt;stroke-linejoin:miter;stroke:rgb(0%,0%,0%);stroke-opacity:1;stroke-miterlimit:10;" d="M 0.5325 0.430508 L 0.3275 0.438477 L 0.310469 0.283477 L 0.169453 0.0454688 L 0.126445 0.0974609 L 0.261484 0.304492 L 0.247461 0.4475 L 0.247461 0.500508 L 0.137461 0.506484 L 0.147461 0.575508 L 0.245469 0.565508 L 0.260469 0.630508 L 0.277461 0.749531 L 0.202461 0.925547 L 0.275469 0.954531 L 0.315469 0.758516 L 0.344492 0.633516 L 0.5325 0.603516 L 0.732539 0.6125 L 0.873555 0.593516 L 0.863555 0.545508 L 0.740508 0.555508 L 0.619531 0.508516 L 0.720508 0.469492 L 0.856523 0.449492 L 0.863555 0.395508 L 0.709531 0.4025 Z M 0.5325 0.430508 " transform="matrix(100,0,0,100,300,650)"/>
<path style="fill:none;stroke-width:0.01;stroke-linecap:butt;stroke-linejoin:miter;stroke:rgb(0%,0%,0%);stroke-opacity:1;stroke-miterlimit:10;" d="M 0.5025 0.379492 L 0.290469 0.393477 L 0.298477 0.288477 L 0.466484 0.3775 L 0.491484 0.324492 L 0.262461 0.216484 L 0.173477 0.390508 L 0.161484 0.465508 L 0.0534375 0.4475 L 0.0454688 0.518516 L 0.149453 0.535508 L 0.148477 0.605508 L 0.254492 0.783516 L 0.458477 0.653516 L 0.460508 0.595508 L 0.325469 0.625508 L 0.252461 0.6275 L 0.5025 0.618516 L 0.733516 0.655508 L 0.954531 0.645508 L 0.950547 0.566523 L 0.766523 0.565508 L 0.608516 0.490508 L 0.761523 0.4525 L 0.944531 0.4675 L 0.953555 0.400508 L 0.755508 0.3875 Z M 0.5025 0.379492 " transform="matrix(100,0,0,100,450,650)"/>
<path style="fill:none;stroke-width:0.01;stroke-linecap:butt;stroke-linejoin:miter;stroke:rgb(0%,0%,0%);stroke-opacity:1;stroke-miterlimit:10;" d="M 0.531484 0.409492 L 0.319492 0.380469 L 0.298477 0.231484 L 0.147461 0.0454688 L 0.0974609 0.0794531 L 0.220469 0.275469 L 0.237461 0.394492 L 0.219453 0.463516 L 0.115469 0.450508 L 0.102461 0.523516 L 0.207461 0.529492 L 0.208477 0.596523 L 0.219453 0.755508 L 0.124453 0.921523 L 0.198477 0.954531 L 0.252461 0.735508 L 0.292461 0.615508 L 0.531484 0.608516 L 0.736523 0.630508 L 0.902539 0.614492 L 0.891523 0.550508 L 0.751523 0.553516 L 0.620508 0.4975 L 0.742539 0.464492 L 0.884531 0.4625 L 0.873555 0.3875 L 0.715508 0.404492 Z M 0.531484 0.409492 " transform="matrix(100,0,0,100,600,650)"/>
</g>
</svg>
