<?xml version="1.0" encoding="UTF-8"?>
<svg xmlns="http://www.w3.org/2000/svg" xmlns:xlink="http://www.w3.org/1999/xlink" width="750pt" height="3600pt" viewBox="0 0 750 3600" version="1.1">
<g id="surface1">
<path style="fill:none;stroke-width:0.01;stroke-linecap:butt;stroke-linejoin:miter;stroke:rgb(0%,0%,0%);stroke-opacity:1;stroke-miterlimit:10;" d="M 0.4925 0.464492 L 0.295469 0.440508 L 0.305469 0.281484 L 0.183477 0.0454687 L 0.114453 0.0714453 L 0.222461 0.286484 L 0.214453 0.439492 L 0.203477 0.504492 L 0.109453 0.494492 L 0.106445 0.553516 L 0.194453 0.564492 L 0.189453 0.628516 L 0.213477 0.764531 L 0.0994531 0.920547 L 0.177461 0.954531 L 0.235469 0.763516 L 0.276484 0.643516 L 0.4925 0.664531 L 0.716523 0.689531 L 0.900547 0.6725 L 0.888555 0.601523 L 0.726523 0.604492 L 0.588516 0.553516 L 0.717539 0.5075 L 0.867539 0.509492 L 0.879531 0.441484 L 0.711523 0.439492 Z M 0.4925 0.464492 " transform="matrix(100,0,0,100,0,200)"/>
<path style="fill:none;stroke-width:0.01;stroke-linecap:butt;stroke-linejoin:miter;stroke:rgb(0%,0%,0%);stroke-opacity:1;stroke-miterlimit:10;" d="M 0.515508 0.4225 L 0.283477 0.418477 L 0.281484 0.263477 L 0.174453 0.0484375 L 0.118477 0.0744531 L 0.203477 0.284492 L 0.185469 0.431484 L 0.185469 0.491484 L 0.0454687 0.501484 L 0.0534375 0.586523 L 0.191484 0.5775 L 0.201484 0.650508 L 0.223477 0.761523 L 0.140469 0.926523 L 0.199453 0.951563 L 0.256484 0.764531 L 0.285469 0.669531 L 0.515508 0.6325 L 0.730508 0.681523 L 0.920547 0.669531 L 0.926523 0.599492 L 0.771523 0.594492 L 0.611523 0.524492 L 0.767539 0.460508 L 0.939531 0.474492 L 0.954531 0.405508 L 0.765508 0.405508 Z M 0.515508 0.4225 " transform="matrix(100,0,0,100,150,200)"/>
<path style="fill:none;stroke-width:0.01;stroke-linecap:butt;stroke-linejoin:miter;stroke:rgb(0%,0%,0%);stroke-opacity:1;stroke-miterlimit:10;" d="M 0.511484 0.4875 L 0.268477 0.480508 L 0.295469 0.340469 L 0.201484 0.113477 L 0.140469 0.153477 L 0.221484 0.360469 L 0.189453 0.493516 L 0.183477 0.565508 L 0.0504688 0.559492 L 0.0454687 0.641523 L 0.178477 0.648516 L 0.188477 0.726523 L 0.326484 0.886523 L 0.489492 0.729531 L 0.470508 0.685508 L 0.353477 0.709531 L 0.290469 0.734531 L 0.511484 0.719531 L 0.753516 0.736523 L 0.932539 0.704531 L 0.908555 0.645508 L 0.758516 0.655508 L 0.618516 0.6025 L 0.779531 0.543516 L 0.954531 0.530508 L 0.948555 0.431484 L 0.759531 0.458477 Z M 0.511484 0.4875 " transform="matrix(100,0,0,100,300,200)"/>
<path style="fill:none;stroke-width:0.01;stroke-linecap:butt;stroke-linejoin:miter;stroke:rgb(0%,0%,0%);stroke-opacity:1;stroke-miterlimit:10;" d="M 0.499492 0.354492 L 0.292461 0.358477 L 0.280469 0.231484 L 0.136445 0.0454687 L 0.0994531 0.0664453 L 0.196484 0.246484 L 0.212461 0.365469 L 0.197461 0.431484 L 0.0884766 0.421484 L 0.0794531 0.493516 L 0.190469 0.498516 L 0.188477 0.558516 L 0.249492 0.716523 L 0.164453 0.936562 L 0.245469 0.954531 L 0.273477 0.710508 L 0.274492 0.5575 L 0.499492 0.550508 L 0.717539 0.578516 L 0.896523 0.559492 L 0.874531 0.500508 L 0.736523 0.514492 L 0.5925 0.4575 L 0.743516 0.411484 L 0.920547 0.416484 L 0.899531 0.340469 L 0.721523 0.340469 Z M 0.499492 0.354492 " transform="matrix(100,0,0,100,450,200)"/>
<path style="fill:none;stroke-width:0.01;stroke-linecap:butt;stroke-linejoin:miter;stroke:rgb(0%,0%,0%);stroke-opacity:1;stroke-miterlimit:10;" d="M 0.495508 0.257461 L 0.277461 0.250469 L 0.199453 0.330469 L 0.115469 0.500508 L 0.0654687 0.470508 L 0.131445 0.311484 L 0.180469 0.242461 L 0.175469 0.3175 L 0.0594531 0.3075 L 0.0454688 0.3825 L 0.160469 0.3925 L 0.159453 0.464492 L 0.177461 0.591523 L 0.0694531 0.763516 L 0.155469 0.784531 L 0.228477 0.591523 L 0.259492 0.483516 L 0.495508 0.473516 L 0.718516 0.505508 L 0.898555 0.504492 L 0.898555 0.435508 L 0.742539 0.438477 L 0.603516 0.360469 L 0.765508 0.299492 L 0.954531 0.306484 L 0.948555 0.215469 L 0.764531 0.238477 Z M 0.495508 0.257461 " transform="matrix(100,0,0,100,600,200)"/>
<path style="fill:none;stroke-width:0.01;stroke-linecap:butt;stroke-linejoin:miter;stroke:rgb(0%,0%,0%);stroke-opacity:1;stroke-miterlimit:10;" d="M 0.483516 0.321484 L 0.296484 0.302461 L 0.295469 0.203477 L 0.225469 0.0454687 L 0.181484 0.0644531 L 0.245469 0.206484 L 0.233477 0.301484 L 0.230469 0.386484 L 0.0574609 0.406484 L 0.0684375 0.504492 L 0.237461 0.496484 L 0.257461 0.589492 L 0.324492 0.732539 L 0.290469 0.954531 L 0.366484 0.941562 L 0.351484 0.704531 L 0.344492 0.569492 L 0.483516 0.5475 L 0.741523 0.5325 L 0.926523 0.505508 L 0.916523 0.443477 L 0.736523 0.463516 L 0.584492 0.423477 L 0.757539 0.383477 L 0.942539 0.4075 L 0.942539 0.3075 L 0.744531 0.321484 Z M 0.483516 0.321484 " transform="matrix(100,0,0,100,0,350)"/>
<path style="fill:none;stroke-width:0.01;stroke-linecap:butt;stroke-linejoin:miter;stroke:rgb(0%,0%,0%);stroke-opacity:1;stroke-miterlimit:10;" d="M 0.454492 0.401484 L 0.274492 0.374492 L 0.291484 0.278477 L 0.227461 0.115469 L 0.184453 0.129453 L 0.231484 0.272461 L 0.212461 0.368477 L 0.211484 0.4675 L 0.0454687 0.468516 L 0.0504688 0.569492 L 0.214453 0.5725 L 0.235469 0.654531 L 0.301484 0.754531 L 0.285469 0.923555 L 0.358477 0.930547 L 0.340469 0.739531 L 0.3225 0.6425 L 0.454492 0.631523 L 0.710508 0.659531 L 0.921523 0.656523 L 0.914531 0.579492 L 0.731523 0.574492 L 0.568516 0.513516 L 0.703516 0.4525 L 0.886523 0.4325 L 0.954531 0.291484 L 0.634531 0.0694531 Z M 0.454492 0.401484 " transform="matrix(100,0,0,100,150,350)"/>
<path style="fill:none;stroke-width:0.01;stroke-linecap:butt;stroke-linejoin:miter;stroke:rgb(0%,0%,0%);stroke-opacity:1;stroke-miterlimit:10;" d="M 0.519492 0.471484 L 0.265469 0.461484 L 0.237461 0.325469 L 0.111445 0.130469 L 0.0584375 0.161484 L 0.163477 0.3675 L 0.171484 0.476484 L 0.166484 0.546523 L 0.0454687 0.554492 L 0.0504688 0.6325 L 0.166484 0.628516 L 0.179453 0.700508 L 0.313477 0.869531 L 0.513516 0.711523 L 0.489492 0.661523 L 0.358477 0.6925 L 0.278477 0.707539 L 0.519492 0.6875 L 0.771523 0.699531 L 0.954531 0.653516 L 0.936562 0.5925 L 0.778516 0.605508 L 0.621523 0.555508 L 0.762539 0.504492 L 0.923555 0.506484 L 0.903555 0.441484 L 0.730508 0.4625 Z M 0.519492 0.471484 " transform="matrix(100,0,0,100,300,350)"/>
<path style="fill:none;stroke-width:0.01;stroke-linecap:butt;stroke-linejoin:miter;stroke:rgb(0%,0%,0%);stroke-opacity:1;stroke-miterlimit:10;" d="M 0.509492 0.444492 L 0.304492 0.411484 L 0.264492 0.254492 L 0.0854688 0.0474609 L 0.0454688 0.0854687 L 0.181484 0.291484 L 0.211484 0.424492 L 0.202461 0.493516 L 0.0664453 0.484492 L 0.0534375 0.5725 L 0.191484 0.570508 L 0.202461 0.639531 L 0.214453 0.755508 L 0.132461 0.915547 L 0.209453 0.952539 L 0.258477 0.763516 L 0.293477 0.643516 L 0.509492 0.6375 L 0.715508 0.663516 L 0.908555 0.661523 L 0.892539 0.584492 L 0.750508 0.591523 L 0.6075 0.538516 L 0.769531 0.494492 L 0.950547 0.498516 L 0.954531 0.4025 L 0.772539 0.4075 Z M 0.509492 0.444492 " transform="matrix(100,0,0,100,450,350)"/>
<path style="fill:none;stroke-width:0.01;stroke-linecap:butt;stroke-linejoin:miter;stroke:rgb(0%,0%,0%);stroke-opacity:1;stroke-miterlimit:10;" d="M 0.518516 0.424492 L 0.301484 0.449492 L 0.3475 0.299492 L 0.276484 0.0454687 L 0.201484 0.0464453 L 0.261484 0.294492 L 0.218477 0.443477 L 0.206484 0.509492 L 0.0834766 0.513516 L 0.0854688 0.595508 L 0.207461 0.5825 L 0.218477 0.639531 L 0.228477 0.766523 L 0.134453 0.927539 L 0.207461 0.954531 L 0.277461 0.757539 L 0.306484 0.649531 L 0.518516 0.6275 L 0.738516 0.645508 L 0.916523 0.625508 L 0.908555 0.5475 L 0.749531 0.565508 L 0.609492 0.518516 L 0.717539 0.471484 L 0.869531 0.464492 L 0.859531 0.398477 L 0.695508 0.4175 Z M 0.518516 0.424492 " transform="matrix(100,0,0,100,600,350)"/>
<path style="fill:none;stroke-width:0.01;stroke-linecap:butt;stroke-linejoin:miter;stroke:rgb(0%,0%,0%);stroke-opacity:1;stroke-miterlimit:10;" d="M 0.4975 0.200469 L 0.267461 0.206484 L 0.187461 0.286484 L 0.137461 0.455508 L 0.102461 0.440508 L 0.139453 0.280469 L 0.175469 0.214453 L 0.174453 0.280469 L 0.0564453 0.275469 L 0.0454688 0.3575 L 0.176484 0.359492 L 0.189453 0.424492 L 0.217461 0.615508 L 0.0884766 0.856523 L 0.198477 0.875547 L 0.251484 0.581523 L 0.287461 0.431484 L 0.4975 0.408477 L 0.706523 0.403477 L 0.888555 0.3775 L 0.868555 0.316484 L 0.722539 0.3425 L 0.594492 0.301484 L 0.755508 0.227461 L 0.954531 0.221484 L 0.914531 0.124453 L 0.735508 0.160469 Z M 0.4975 0.200469 " transform="matrix(100,0,0,100,0,500)"/>
<path style="fill:none;stroke-width:0.01;stroke-linecap:butt;stroke-linejoin:miter;stroke:rgb(0%,0%,0%);stroke-opacity:1;stroke-miterlimit:10;" d="M 0.5225 0.305469 L 0.297461 0.316484 L 0.220469 0.400508 L 0.162461 0.600508 L 0.104453 0.576523 L 0.147461 0.409492 L 0.197461 0.323477 L 0.178477 0.3825 L 0.0484375 0.384492 L 0.0454687 0.470508 L 0.175469 0.4675 L 0.186484 0.534492 L 0.284492 0.694531 L 0.463516 0.556523 L 0.459492 0.513516 L 0.3525 0.538516 L 0.291484 0.546523 L 0.5225 0.511484 L 0.738516 0.544492 L 0.913555 0.539492 L 0.925547 0.4775 L 0.758516 0.481484 L 0.616523 0.401484 L 0.769531 0.371484 L 0.953555 0.413477 L 0.954531 0.320469 L 0.762539 0.310469 Z M 0.5225 0.305469 " transform="matrix(100,0,0,100,150,500)"/>
<path style="fill:none;stroke-width:0.01;stroke-linecap:butt;stroke-linejoin:miter;stroke:rgb(0%,0%,0%);stroke-opacity:1;stroke-miterlimit:10;" d="M 0.491484 0.440508 L 0.248477 0.440508 L 0.250469 0.341484 L 0.168477 0.178477 L 0.123477 0.204453 L 0.185469 0.349492 L 0.180469 0.438477 L 0.168477 0.5125 L 0.0484375 0.499492 L 0.0454687 0.579492 L 0.155469 0.585508 L 0.153477 0.655508 L 0.265469 0.821523 L 0.461484 0.676523 L 0.461484 0.625508 L 0.334492 0.651523 L 0.258477 0.668516 L 0.491484 0.6575 L 0.743516 0.6775 L 0.933555 0.659531 L 0.938555 0.586523 L 0.759531 0.6075 L 0.591523 0.543516 L 0.752539 0.505508 L 0.954531 0.521484 L 0.948555 0.461484 L 0.758516 0.458477 Z M 0.491484 0.440508 " transform="matrix(100,0,0,100,300,500)"/>
<path style="fill:none;stroke-width:0.01;stroke-linecap:butt;stroke-linejoin:miter;stroke:rgb(0%,0%,0%);stroke-opacity:1;stroke-miterlimit:10;" d="M 0.5375 0.5475 L 0.270469 0.5425 L 0.251484 0.4025 L 0.119453 0.211484 L 0.0624609 0.253477 L 0.186484 0.431484 L 0.181484 0.5525 L 0.182461 0.634531 L 0.0524609 0.6325 L 0.0454688 0.714531 L 0.180469 0.720508 L 0.198477 0.788516 L 0.182461 0.683516 L 0.0864453 0.530508 L 0.126445 0.474492 L 0.230469 0.676523 L 0.305469 0.775547 L 0.5375 0.761523 L 0.774531 0.726523 L 0.954531 0.673516 L 0.927539 0.613516 L 0.786523 0.656523 L 0.6375 0.634531 L 0.767539 0.551523 L 0.952539 0.531484 L 0.953555 0.4375 L 0.766523 0.486484 Z M 0.5375 0.5475 " transform="matrix(100,0,0,100,450,500)"/>
<path style="fill:none;stroke-width:0.01;stroke-linecap:butt;stroke-linejoin:miter;stroke:rgb(0%,0%,0%);stroke-opacity:1;stroke-miterlimit:10;" d="M 0.479492 0.4025 L 0.272461 0.433477 L 0.272461 0.345469 L 0.436484 0.4075 L 0.460508 0.349492 L 0.220469 0.257461 L 0.150469 0.433477 L 0.151484 0.495508 L 0.0454688 0.508516 L 0.0494531 0.575508 L 0.157461 0.564492 L 0.178477 0.628516 L 0.214453 0.728516 L 0.180469 0.888555 L 0.248477 0.899531 L 0.255469 0.719531 L 0.269492 0.626523 L 0.479492 0.5925 L 0.740508 0.5975 L 0.934531 0.568516 L 0.933555 0.489492 L 0.760508 0.530508 L 0.583516 0.4875 L 0.727539 0.453477 L 0.905547 0.456484 L 0.954531 0.299492 L 0.644531 0.100469 Z M 0.479492 0.4025 " transform="matrix(100,0,0,100,600,500)"/>
<path style="fill:none;stroke-width:0.01;stroke-linecap:butt;stroke-linejoin:miter;stroke:rgb(0%,0%,0%);stroke-opacity:1;stroke-miterlimit:10;" d="M 0.508516 0.394492 L 0.3075 0.348477 L 0.331484 0.253477 L 0.309492 0.0704687 L 0.265469 0.0854688 L 0.277461 0.241484 L 0.238477 0.333477 L 0.234492 0.433477 L 0.0454688 0.449492 L 0.0534375 0.565508 L 0.243477 0.554492 L 0.267461 0.653516 L 0.323477 0.752539 L 0.290469 0.922539 L 0.3625 0.929531 L 0.348477 0.741523 L 0.358477 0.630508 L 0.508516 0.631523 L 0.766523 0.624531 L 0.954531 0.5925 L 0.934531 0.528516 L 0.772539 0.555508 L 0.619531 0.504492 L 0.635508 0.311484 L 0.754531 0.401484 L 0.730508 0.361484 L 0.633516 0.374492 Z M 0.508516 0.394492 " transform="matrix(100,0,0,100,0,650)"/>
<path style="fill:none;stroke-width:0.01;stroke-linecap:butt;stroke-linejoin:miter;stroke:rgb(0%,0%,0%);stroke-opacity:1;stroke-miterlimit:10;" d="M 0.520508 0.549492 L 0.296484 0.539492 L 0.267461 0.406484 L 0.0924609 0.207461 L 0.0454687 0.245469 L 0.181484 0.411484 L 0.213477 0.549492 L 0.206484 0.6125 L 0.101445 0.610508 L 0.100469 0.680508 L 0.205469 0.685508 L 0.219453 0.746523 L 0.190469 0.660508 L 0.0844531 0.531484 L 0.125469 0.481484 L 0.257461 0.648516 L 0.319492 0.741523 L 0.520508 0.733516 L 0.706523 0.789531 L 0.863555 0.792539 L 0.864531 0.750508 L 0.723516 0.722539 L 0.6125 0.646523 L 0.767539 0.596523 L 0.954531 0.621523 L 0.936562 0.561523 L 0.758516 0.566523 Z M 0.520508 0.549492 " transform="matrix(100,0,0,100,150,650)"/>
<path style="fill:none;stroke-width:0.01;stroke-linecap:butt;stroke-linejoin:miter;stroke:rgb(0%,0%,0%);stroke-opacity:1;stroke-miterlimit:10;" d="M 0.510508 0.445508 L 0.306484 0.430508 L 0.305469 0.282461 L 0.148477 0.0454688 L 0.103477 0.0794531 L 0.229492 0.287461 L 0.223477 0.440508 L 0.210469 0.499492 L 0.0984766 0.493516 L 0.0974609 0.559492 L 0.201484 0.569492 L 0.206484 0.6325 L 0.203477 0.762539 L 0.0784766 0.926523 L 0.138477 0.954531 L 0.233477 0.765508 L 0.294492 0.654531 L 0.510508 0.646523 L 0.729531 0.6675 L 0.894531 0.670508 L 0.901523 0.609492 L 0.747539 0.6175 L 0.6075 0.5425 L 0.728516 0.493516 L 0.885547 0.488516 L 0.921523 0.3875 L 0.664531 0.206484 Z M 0.510508 0.445508 " transform="matrix(100,0,0,100,300,650)"/>
<path style="fill:none;stroke-width:0.01;stroke-linecap:butt;stroke-linejoin:miter;stroke:rgb(0%,0%,0%);stroke-opacity:1;stroke-miterlimit:10;" d="M 0.441484 0.369492 L 0.271484 0.334492 L 0.263477 0.232461 L 0.198477 0.0764453 L 0.165469 0.0964453 L 0.218477 0.238477 L 0.202461 0.330469 L 0.197461 0.433477 L 0.0464453 0.424492 L 0.0454688 0.5225 L 0.190469 0.5325 L 0.198477 0.6275 L 0.231484 0.740508 L 0.174453 0.898555 L 0.253477 0.923555 L 0.265469 0.724531 L 0.290469 0.6225 L 0.441484 0.615508 L 0.711523 0.661523 L 0.954531 0.663516 L 0.944531 0.5725 L 0.742539 0.568516 L 0.564492 0.478516 L 0.735508 0.423477 L 0.931563 0.431484 L 0.950547 0.3375 L 0.721523 0.353477 Z M 0.441484 0.369492 " transform="matrix(100,0,0,100,450,650)"/>
<path style="fill:none;stroke-width:0.01;stroke-linecap:butt;stroke-linejoin:miter;stroke:rgb(0%,0%,0%);stroke-opacity:1;stroke-miterlimit:10;" d="M 0.488516 0.319492 L 0.3075 0.281484 L 0.223477 0.331484 L 0.148477 0.4675 L 0.108477 0.445508 L 0.184453 0.321484 L 0.222461 0.276484 L 0.216484 0.385508 L 0.0454688 0.399492 L 0.0464453 0.521484 L 0.220469 0.494492 L 0.234492 0.5925 L 0.364492 0.723516 L 0.501484 0.5825 L 0.499492 0.5425 L 0.389492 0.5675 L 0.324492 0.581523 L 0.488516 0.570508 L 0.745508 0.5975 L 0.954531 0.5775 L 0.940547 0.4975 L 0.765508 0.500508 L 0.600508 0.430508 L 0.753516 0.389492 L 0.931563 0.386484 L 0.918555 0.292461 L 0.719531 0.313477 Z M 0.488516 0.319492 " transform="matrix(100,0,0,100,600,650)"/>
</g>
</svg>
