<?xml version="1.0" encoding="UTF-8"?>
<svg xmlns="http://www.w3.org/2000/svg" xmlns:xlink="http://www.w3.org/1999/xlink" width="750pt" height="3600pt" viewBox="0 0 750 3600" version="1.1">
<g id="surface1">
<path style="fill:none;stroke-width:0.01;stroke-linecap:butt;stroke-linejoin:miter;stroke:rgb(0%,0%,0%);stroke-opacity:1;stroke-miterlimit:10;" d="M 0.524492 0.376484 L 0.313477 0.346484 L 0.257461 0.251484 L 0.0824609 0.0454687 L 0.0584375 0.0934766 L 0.211484 0.245469 L 0.238477 0.356484 L 0.233477 0.419492 L 0.135469 0.4025 L 0.127461 0.465508 L 0.221484 0.484492 L 0.216484 0.544492 L 0.270469 0.706523 L 0.3125 0.954531 L 0.410508 0.944531 L 0.346484 0.714531 L 0.304492 0.559492 L 0.524492 0.580508 L 0.754531 0.606523 L 0.941562 0.589492 L 0.929531 0.516484 L 0.764531 0.519492 L 0.6225 0.4675 L 0.743516 0.410508 L 0.881523 0.411484 L 0.893555 0.339492 L 0.732539 0.326484 Z M 0.524492 0.376484 " transform="matrix(100,0,0,100,0,200)"/>
<path style="fill:none;stroke-width:0.01;stroke-linecap:butt;stroke-linejoin:miter;stroke:rgb(0%,0%,0%);stroke-opacity:1;stroke-miterlimit:10;" d="M 0.5075 0.247461 L 0.308477 0.252461 L 0.376484 0.226484 L 0.530508 0.169453 L 0.543516 0.102461 L 0.293477 0.0944531 L 0.189453 0.262461 L 0.179453 0.3275 L 0.0474609 0.319492 L 0.0454687 0.3925 L 0.171484 0.4075 L 0.179453 0.486484 L 0.3125 0.644531 L 0.463516 0.905547 L 0.570508 0.852539 L 0.364492 0.601523 L 0.290469 0.484492 L 0.5075 0.4525 L 0.754531 0.490508 L 0.954531 0.4725 L 0.949531 0.415508 L 0.771523 0.4225 L 0.604492 0.338477 L 0.727539 0.261484 L 0.875547 0.263477 L 0.861523 0.184453 L 0.716523 0.187461 Z M 0.5075 0.247461 " transform="matrix(100,0,0,100,150,200)"/>
<path style="fill:none;stroke-width:0.01;stroke-linecap:butt;stroke-linejoin:miter;stroke:rgb(0%,0%,0%);stroke-opacity:1;stroke-miterlimit:10;" d="M 0.524492 0.535508 L 0.275469 0.516484 L 0.237461 0.4225 L 0.122461 0.219453 L 0.0834766 0.267461 L 0.206484 0.426484 L 0.194453 0.535508 L 0.188477 0.608516 L 0.0524609 0.599492 L 0.0454687 0.6825 L 0.181484 0.693516 L 0.189453 0.772539 L 0.184453 0.6425 L 0.109453 0.429492 L 0.184453 0.390508 L 0.247461 0.644531 L 0.308477 0.780547 L 0.524492 0.775547 L 0.754531 0.778516 L 0.954531 0.734531 L 0.920547 0.673516 L 0.770508 0.694531 L 0.624531 0.649531 L 0.762539 0.576523 L 0.920547 0.585508 L 0.910547 0.5075 L 0.737539 0.495508 Z M 0.524492 0.535508 " transform="matrix(100,0,0,100,300,200)"/>
<path style="fill:none;stroke-width:0.01;stroke-linecap:butt;stroke-linejoin:miter;stroke:rgb(0%,0%,0%);stroke-opacity:1;stroke-miterlimit:10;" d="M 0.5075 0.197461 L 0.3075 0.202461 L 0.361484 0.189453 L 0.4975 0.134453 L 0.5025 0.0864453 L 0.286484 0.0454687 L 0.201484 0.199453 L 0.184453 0.269492 L 0.0674609 0.255469 L 0.0564453 0.331484 L 0.174453 0.340469 L 0.169453 0.404492 L 0.270469 0.619531 L 0.394492 0.954531 L 0.5075 0.919531 L 0.370469 0.595508 L 0.263477 0.404492 L 0.5075 0.4025 L 0.749531 0.438477 L 0.943555 0.4175 L 0.921523 0.353477 L 0.768516 0.368477 L 0.610508 0.302461 L 0.757539 0.226484 L 0.921523 0.231484 L 0.917539 0.152461 L 0.726523 0.154453 Z M 0.5075 0.197461 " transform="matrix(100,0,0,100,450,200)"/>
<path style="fill:none;stroke-width:0.01;stroke-linecap:butt;stroke-linejoin:miter;stroke:rgb(0%,0%,0%);stroke-opacity:1;stroke-miterlimit:10;" d="M 0.501484 0.240469 L 0.303477 0.250469 L 0.364492 0.240469 L 0.500508 0.231484 L 0.520508 0.174453 L 0.320469 0.109453 L 0.197461 0.237461 L 0.183477 0.3075 L 0.0614453 0.296484 L 0.0454688 0.373477 L 0.168477 0.384492 L 0.162461 0.4525 L 0.198477 0.609492 L 0.266484 0.890547 L 0.356484 0.848516 L 0.301484 0.605508 L 0.261484 0.474492 L 0.501484 0.461484 L 0.732539 0.506484 L 0.922539 0.509492 L 0.924531 0.446484 L 0.760508 0.440508 L 0.6125 0.345469 L 0.764531 0.263477 L 0.954531 0.274492 L 0.940547 0.179453 L 0.754531 0.194453 Z M 0.501484 0.240469 " transform="matrix(100,0,0,100,600,200)"/>
<path style="fill:none;stroke-width:0.01;stroke-linecap:butt;stroke-linejoin:miter;stroke:rgb(0%,0%,0%);stroke-opacity:1;stroke-miterlimit:10;" d="M 0.520508 0.202461 L 0.296484 0.214453 L 0.353477 0.206484 L 0.480508 0.191484 L 0.500508 0.131445 L 0.300469 0.0794531 L 0.190469 0.204453 L 0.179453 0.268477 L 0.0474609 0.264492 L 0.0454688 0.339492 L 0.173477 0.351484 L 0.177461 0.423477 L 0.218477 0.618516 L 0.285469 0.920547 L 0.375469 0.889531 L 0.308477 0.599492 L 0.271484 0.434492 L 0.520508 0.423477 L 0.773516 0.408477 L 0.954531 0.3825 L 0.945547 0.321484 L 0.768516 0.341484 L 0.619531 0.302461 L 0.775547 0.245469 L 0.930547 0.278477 L 0.943555 0.187461 L 0.754531 0.179453 Z M 0.520508 0.202461 " transform="matrix(100,0,0,100,0,350)"/>
<path style="fill:none;stroke-width:0.01;stroke-linecap:butt;stroke-linejoin:miter;stroke:rgb(0%,0%,0%);stroke-opacity:1;stroke-miterlimit:10;" d="M 0.509492 0.524492 L 0.272461 0.5275 L 0.223477 0.444492 L 0.0744531 0.230469 L 0.0454687 0.278477 L 0.183477 0.431484 L 0.187461 0.536484 L 0.177461 0.6125 L 0.0504688 0.598516 L 0.0454687 0.674531 L 0.170469 0.6925 L 0.178477 0.756523 L 0.182461 0.621523 L 0.110469 0.4075 L 0.149453 0.351484 L 0.241484 0.6225 L 0.301484 0.756523 L 0.509492 0.742539 L 0.753516 0.769531 L 0.954531 0.765508 L 0.947539 0.693516 L 0.773516 0.688516 L 0.618516 0.630508 L 0.742539 0.541523 L 0.901523 0.538516 L 0.910547 0.451484 L 0.737539 0.453477 Z M 0.509492 0.524492 " transform="matrix(100,0,0,100,150,350)"/>
<path style="fill:none;stroke-width:0.01;stroke-linecap:butt;stroke-linejoin:miter;stroke:rgb(0%,0%,0%);stroke-opacity:1;stroke-miterlimit:10;" d="M 0.504492 0.225469 L 0.282461 0.244492 L 0.350469 0.236484 L 0.493516 0.208477 L 0.513516 0.145469 L 0.259492 0.0954688 L 0.165469 0.246484 L 0.163477 0.314492 L 0.0454687 0.3275 L 0.0534375 0.403477 L 0.166484 0.393477 L 0.182461 0.463516 L 0.269492 0.629531 L 0.380469 0.904531 L 0.461484 0.835547 L 0.343477 0.610508 L 0.278477 0.469492 L 0.504492 0.449492 L 0.763516 0.458477 L 0.954531 0.425508 L 0.940547 0.360469 L 0.778516 0.375469 L 0.610508 0.3125 L 0.729531 0.240469 L 0.877539 0.237461 L 0.852539 0.162461 L 0.694531 0.168477 Z M 0.504492 0.225469 " transform="matrix(100,0,0,100,300,350)"/>
<path style="fill:none;stroke-width:0.01;stroke-linecap:butt;stroke-linejoin:miter;stroke:rgb(0%,0%,0%);stroke-opacity:1;stroke-miterlimit:10;" d="M 0.533516 0.276484 L 0.325469 0.256484 L 0.386484 0.235469 L 0.525508 0.192461 L 0.521484 0.131445 L 0.301484 0.108477 L 0.214453 0.254492 L 0.202461 0.325469 L 0.0514453 0.319492 L 0.0454688 0.408477 L 0.189453 0.405508 L 0.192461 0.476484 L 0.252461 0.633516 L 0.3225 0.891523 L 0.421484 0.883555 L 0.3425 0.640508 L 0.296484 0.483516 L 0.533516 0.481484 L 0.762539 0.539492 L 0.951563 0.520508 L 0.953555 0.4475 L 0.788516 0.446484 L 0.6375 0.375469 L 0.786523 0.294492 L 0.954531 0.299492 L 0.954531 0.213477 L 0.771523 0.218477 Z M 0.533516 0.276484 " transform="matrix(100,0,0,100,450,350)"/>
<path style="fill:none;stroke-width:0.01;stroke-linecap:butt;stroke-linejoin:miter;stroke:rgb(0%,0%,0%);stroke-opacity:1;stroke-miterlimit:10;" d="M 0.5175 0.570508 L 0.287461 0.596523 L 0.257461 0.480508 L 0.144453 0.195469 L 0.0804688 0.225469 L 0.209453 0.4625 L 0.193477 0.594492 L 0.184453 0.661523 L 0.0454688 0.6725 L 0.0524609 0.763516 L 0.185469 0.742539 L 0.200469 0.804531 L 0.177461 0.693516 L 0.0814453 0.529492 L 0.127461 0.489492 L 0.242461 0.693516 L 0.301484 0.796523 L 0.5175 0.792539 L 0.759531 0.802539 L 0.954531 0.780547 L 0.947539 0.701523 L 0.776523 0.721523 L 0.614492 0.670508 L 0.719531 0.604492 L 0.865547 0.589492 L 0.874531 0.516484 L 0.700508 0.531484 Z M 0.5175 0.570508 " transform="matrix(100,0,0,100,600,350)"/>
<path style="fill:none;stroke-width:0.01;stroke-linecap:butt;stroke-linejoin:miter;stroke:rgb(0%,0%,0%);stroke-opacity:1;stroke-miterlimit:10;" d="M 0.520508 0.273477 L 0.308477 0.267461 L 0.258477 0.195469 L 0.151484 0.0454688 L 0.122461 0.0864453 L 0.229492 0.197461 L 0.240469 0.280469 L 0.238477 0.338477 L 0.135469 0.3325 L 0.125469 0.404492 L 0.239492 0.4075 L 0.249492 0.464492 L 0.280469 0.658516 L 0.320469 0.954531 L 0.4325 0.927539 L 0.361484 0.6275 L 0.334492 0.471484 L 0.520508 0.4575 L 0.716523 0.458477 L 0.877539 0.428477 L 0.853555 0.375469 L 0.723516 0.3975 L 0.609492 0.359492 L 0.729531 0.283477 L 0.876523 0.270469 L 0.867539 0.206484 L 0.708516 0.214453 Z M 0.520508 0.273477 " transform="matrix(100,0,0,100,0,500)"/>
<path style="fill:none;stroke-width:0.01;stroke-linecap:butt;stroke-linejoin:miter;stroke:rgb(0%,0%,0%);stroke-opacity:1;stroke-miterlimit:10;" d="M 0.5425 0.218477 L 0.328477 0.234492 L 0.3975 0.227461 L 0.5475 0.188477 L 0.564492 0.121445 L 0.345469 0.0634375 L 0.202461 0.230469 L 0.179453 0.295469 L 0.0454687 0.310469 L 0.0494531 0.3925 L 0.182461 0.3825 L 0.199453 0.4525 L 0.217461 0.650508 L 0.256484 0.936562 L 0.385508 0.933555 L 0.3275 0.633516 L 0.3075 0.464492 L 0.5425 0.428477 L 0.762539 0.4625 L 0.940547 0.4575 L 0.953555 0.394492 L 0.782539 0.398477 L 0.638516 0.3175 L 0.780547 0.262461 L 0.947539 0.302461 L 0.954531 0.222461 L 0.770508 0.190469 Z M 0.5425 0.218477 " transform="matrix(100,0,0,100,150,500)"/>
<path style="fill:none;stroke-width:0.01;stroke-linecap:butt;stroke-linejoin:miter;stroke:rgb(0%,0%,0%);stroke-opacity:1;stroke-miterlimit:10;" d="M 0.505508 0.300469 L 0.264492 0.284492 L 0.208477 0.214453 L 0.0794531 0.0564453 L 0.0484375 0.0984766 L 0.165469 0.211484 L 0.185469 0.296484 L 0.185469 0.380469 L 0.0454687 0.370469 L 0.0484375 0.454492 L 0.171484 0.461484 L 0.169453 0.5325 L 0.202461 0.685508 L 0.270469 0.939531 L 0.3475 0.943555 L 0.298477 0.683516 L 0.267461 0.536484 L 0.505508 0.5075 L 0.750508 0.5225 L 0.944531 0.499492 L 0.954531 0.415508 L 0.778516 0.4475 L 0.596523 0.395508 L 0.723516 0.336484 L 0.876523 0.348477 L 0.864531 0.281484 L 0.702539 0.266484 Z M 0.505508 0.300469 " transform="matrix(100,0,0,100,300,500)"/>
<path style="fill:none;stroke-width:0.01;stroke-linecap:butt;stroke-linejoin:miter;stroke:rgb(0%,0%,0%);stroke-opacity:1;stroke-miterlimit:10;" d="M 0.500508 0.316484 L 0.310469 0.258477 L 0.275469 0.197461 L 0.181484 0.0454688 L 0.153477 0.0634375 L 0.243477 0.174453 L 0.244492 0.252461 L 0.238477 0.348477 L 0.0704687 0.339492 L 0.0624609 0.444492 L 0.234492 0.456484 L 0.258477 0.555508 L 0.335469 0.719531 L 0.4625 0.954531 L 0.526484 0.907539 L 0.4275 0.668516 L 0.344492 0.5375 L 0.500508 0.538516 L 0.749531 0.503516 L 0.937539 0.4475 L 0.908555 0.384492 L 0.761523 0.429492 L 0.605508 0.406484 L 0.721523 0.297461 L 0.889531 0.278477 L 0.896523 0.189453 L 0.708516 0.224453 Z M 0.500508 0.316484 " transform="matrix(100,0,0,100,450,500)"/>
<path style="fill:none;stroke-width:0.01;stroke-linecap:butt;stroke-linejoin:miter;stroke:rgb(0%,0%,0%);stroke-opacity:1;stroke-miterlimit:10;" d="M 0.531484 0.5125 L 0.289492 0.515508 L 0.236484 0.445508 L 0.0864453 0.279492 L 0.0454688 0.323477 L 0.188477 0.444492 L 0.215469 0.529492 L 0.215469 0.593516 L 0.104453 0.591523 L 0.106445 0.659531 L 0.212461 0.658516 L 0.228477 0.720508 L 0.233477 0.624531 L 0.164453 0.436484 L 0.226484 0.390508 L 0.282461 0.598516 L 0.3325 0.715508 L 0.531484 0.716523 L 0.765508 0.688516 L 0.954531 0.654531 L 0.928555 0.585508 L 0.778516 0.625508 L 0.626523 0.599492 L 0.738516 0.544492 L 0.886523 0.5425 L 0.895547 0.481484 L 0.728516 0.468516 Z M 0.531484 0.5125 " transform="matrix(100,0,0,100,600,500)"/>
<path style="fill:none;stroke-width:0.01;stroke-linecap:butt;stroke-linejoin:miter;stroke:rgb(0%,0%,0%);stroke-opacity:1;stroke-miterlimit:10;" d="M 0.486484 0.360469 L 0.294492 0.315469 L 0.278477 0.246484 L 0.238477 0.0844531 L 0.206484 0.101445 L 0.248477 0.224453 L 0.229492 0.302461 L 0.225469 0.3975 L 0.0454688 0.413477 L 0.0524609 0.523516 L 0.233477 0.5125 L 0.257461 0.6075 L 0.353477 0.723516 L 0.513516 0.915547 L 0.595508 0.868555 L 0.4325 0.701523 L 0.354492 0.5875 L 0.486484 0.580508 L 0.726523 0.599492 L 0.926523 0.573516 L 0.921523 0.5175 L 0.749531 0.519492 L 0.598516 0.461484 L 0.760508 0.3725 L 0.954531 0.3675 L 0.936562 0.269492 L 0.734531 0.282461 Z M 0.486484 0.360469 " transform="matrix(100,0,0,100,0,650)"/>
<path style="fill:none;stroke-width:0.01;stroke-linecap:butt;stroke-linejoin:miter;stroke:rgb(0%,0%,0%);stroke-opacity:1;stroke-miterlimit:10;" d="M 0.514492 0.172461 L 0.281484 0.175469 L 0.225469 0.238477 L 0.0914453 0.433477 L 0.0464453 0.390508 L 0.121445 0.234492 L 0.180469 0.173477 L 0.171484 0.238477 L 0.0504688 0.233477 L 0.0454687 0.3125 L 0.168477 0.318477 L 0.179453 0.386484 L 0.192461 0.5775 L 0.241484 0.870547 L 0.343477 0.833516 L 0.287461 0.551523 L 0.273477 0.399492 L 0.514492 0.3825 L 0.717539 0.418477 L 0.904531 0.434492 L 0.901523 0.381484 L 0.746523 0.355469 L 0.6175 0.280469 L 0.768516 0.202461 L 0.954531 0.232461 L 0.931563 0.138477 L 0.748516 0.129453 Z M 0.514492 0.172461 " transform="matrix(100,0,0,100,150,650)"/>
<path style="fill:none;stroke-width:0.01;stroke-linecap:butt;stroke-linejoin:miter;stroke:rgb(0%,0%,0%);stroke-opacity:1;stroke-miterlimit:10;" d="M 0.5175 0.359492 L 0.303477 0.344492 L 0.259492 0.255469 L 0.100469 0.0454688 L 0.0764453 0.0854688 L 0.221484 0.238477 L 0.226484 0.355469 L 0.214453 0.415508 L 0.106445 0.4125 L 0.101445 0.479492 L 0.207461 0.484492 L 0.208477 0.549492 L 0.212461 0.695508 L 0.242461 0.954531 L 0.323477 0.943555 L 0.316484 0.718516 L 0.298477 0.571523 L 0.5175 0.564492 L 0.745508 0.580508 L 0.917539 0.580508 L 0.923555 0.516484 L 0.764531 0.528516 L 0.616523 0.453477 L 0.715508 0.389492 L 0.845547 0.386484 L 0.841523 0.324492 L 0.691523 0.326484 Z M 0.5175 0.359492 " transform="matrix(100,0,0,100,300,650)"/>
<path style="fill:none;stroke-width:0.01;stroke-linecap:butt;stroke-linejoin:miter;stroke:rgb(0%,0%,0%);stroke-opacity:1;stroke-miterlimit:10;" d="M 0.509492 0.344492 L 0.280469 0.320469 L 0.221484 0.239492 L 0.120469 0.0614453 L 0.0934766 0.0984766 L 0.200469 0.218477 L 0.194453 0.320469 L 0.188477 0.381484 L 0.0664453 0.358477 L 0.0454688 0.439492 L 0.178477 0.4625 L 0.177461 0.538516 L 0.225469 0.683516 L 0.292461 0.938555 L 0.375469 0.915547 L 0.313477 0.690508 L 0.279492 0.5625 L 0.509492 0.5675 L 0.739531 0.605508 L 0.954531 0.603516 L 0.950547 0.523516 L 0.789531 0.519492 L 0.621523 0.4425 L 0.743516 0.376484 L 0.914531 0.378477 L 0.929531 0.315469 L 0.741523 0.311484 Z M 0.509492 0.344492 " transform="matrix(100,0,0,100,450,650)"/>
<path style="fill:none;stroke-width:0.01;stroke-linecap:butt;stroke-linejoin:miter;stroke:rgb(0%,0%,0%);stroke-opacity:1;stroke-miterlimit:10;" d="M 0.526484 0.204453 L 0.328477 0.204453 L 0.376484 0.194453 L 0.511484 0.162461 L 0.520508 0.125469 L 0.324492 0.0454688 L 0.225469 0.185469 L 0.213477 0.250469 L 0.107461 0.240469 L 0.100469 0.302461 L 0.199453 0.320469 L 0.204453 0.3875 L 0.246484 0.625508 L 0.292461 0.954531 L 0.405508 0.947539 L 0.3525 0.618516 L 0.304492 0.4075 L 0.526484 0.394492 L 0.724531 0.413477 L 0.894531 0.385508 L 0.899531 0.3225 L 0.757539 0.331484 L 0.614492 0.283477 L 0.716523 0.228477 L 0.842539 0.213477 L 0.845547 0.161484 L 0.697539 0.162461 Z M 0.526484 0.204453 " transform="matrix(100,0,0,100,600,650)"/>
</g>
</svg>
