<?xml version="1.0" encoding="UTF-8"?>
<svg xmlns="http://www.w3.org/2000/svg" xmlns:xlink="http://www.w3.org/1999/xlink" width="750pt" height="3600pt" viewBox="0 0 750 3600" version="1.1">
<g id="surface1">
<path style="fill:none;stroke-width:0.01;stroke-linecap:butt;stroke-linejoin:miter;stroke:rgb(0%,0%,0%);stroke-opacity:1;stroke-miterlimit:10;" d="M 0.491484 0.391484 L 0.284492 0.373477 L 0.250469 0.275469 L 0.146445 0.0454687 L 0.106445 0.0854687 L 0.204453 0.260469 L 0.211484 0.3725 L 0.206484 0.4325 L 0.111445 0.416484 L 0.103477 0.478516 L 0.195469 0.496484 L 0.190469 0.554492 L 0.243477 0.712539 L 0.284492 0.954531 L 0.379492 0.944531 L 0.316484 0.720508 L 0.276484 0.569492 L 0.491484 0.590508 L 0.714531 0.615508 L 0.896523 0.598516 L 0.884531 0.5275 L 0.724531 0.530508 L 0.586523 0.480508 L 0.704531 0.424492 L 0.838516 0.425508 L 0.849531 0.354492 L 0.693516 0.3425 Z M 0.491484 0.391484 " transform="matrix(100,0,0,100,0,200)"/>
<path style="fill:none;stroke-width:0.01;stroke-linecap:butt;stroke-linejoin:miter;stroke:rgb(0%,0%,0%);stroke-opacity:1;stroke-miterlimit:10;" d="M 0.514492 0.184453 L 0.294492 0.191484 L 0.266484 0.292461 L 0.203477 0.518516 L 0.142461 0.486484 L 0.153477 0.296484 L 0.180469 0.214453 L 0.168477 0.282461 L 0.0454687 0.288477 L 0.0544531 0.361484 L 0.169453 0.353477 L 0.182461 0.418477 L 0.292461 0.593516 L 0.415508 0.875547 L 0.506484 0.826523 L 0.350469 0.579492 L 0.293477 0.429492 L 0.514492 0.381484 L 0.742539 0.4275 L 0.948555 0.419492 L 0.954531 0.345469 L 0.774531 0.349492 L 0.610508 0.275469 L 0.730508 0.200469 L 0.875547 0.201484 L 0.858555 0.126445 L 0.706523 0.124453 Z M 0.514492 0.184453 " transform="matrix(100,0,0,100,150,200)"/>
<path style="fill:none;stroke-width:0.01;stroke-linecap:butt;stroke-linejoin:miter;stroke:rgb(0%,0%,0%);stroke-opacity:1;stroke-miterlimit:10;" d="M 0.5225 0.354492 L 0.293477 0.341484 L 0.271484 0.248477 L 0.180469 0.0454687 L 0.137461 0.0894531 L 0.235469 0.250469 L 0.219453 0.354492 L 0.213477 0.4225 L 0.0884766 0.414492 L 0.0824609 0.490508 L 0.207461 0.500508 L 0.214453 0.573516 L 0.217461 0.735508 L 0.232461 0.954531 L 0.319492 0.939531 L 0.3275 0.717539 L 0.308477 0.593516 L 0.5225 0.575508 L 0.733516 0.578516 L 0.917539 0.538516 L 0.886523 0.4825 L 0.748516 0.501484 L 0.614492 0.460508 L 0.741523 0.3925 L 0.886523 0.400508 L 0.877539 0.329492 L 0.717539 0.318477 Z M 0.5225 0.354492 " transform="matrix(100,0,0,100,300,200)"/>
<path style="fill:none;stroke-width:0.01;stroke-linecap:butt;stroke-linejoin:miter;stroke:rgb(0%,0%,0%);stroke-opacity:1;stroke-miterlimit:10;" d="M 0.531484 0.314492 L 0.335469 0.303477 L 0.280469 0.220469 L 0.137461 0.0454687 L 0.110469 0.0844531 L 0.230469 0.220469 L 0.260469 0.316484 L 0.251484 0.378477 L 0.144453 0.3825 L 0.143477 0.445508 L 0.248477 0.443477 L 0.250469 0.498516 L 0.3325 0.684531 L 0.4425 0.954531 L 0.550508 0.925547 L 0.426484 0.659531 L 0.328477 0.4975 L 0.531484 0.491484 L 0.727539 0.516484 L 0.889531 0.499492 L 0.869531 0.446484 L 0.744531 0.458477 L 0.615508 0.4075 L 0.735508 0.348477 L 0.881523 0.359492 L 0.868555 0.273477 L 0.711523 0.274492 Z M 0.531484 0.314492 " transform="matrix(100,0,0,100,450,200)"/>
<path style="fill:none;stroke-width:0.01;stroke-linecap:butt;stroke-linejoin:miter;stroke:rgb(0%,0%,0%);stroke-opacity:1;stroke-miterlimit:10;" d="M 0.490508 0.202461 L 0.301484 0.170469 L 0.258477 0.218477 L 0.172461 0.340469 L 0.134453 0.316484 L 0.196484 0.205469 L 0.230469 0.159453 L 0.227461 0.258477 L 0.0494531 0.263477 L 0.0454688 0.374492 L 0.219453 0.3725 L 0.230469 0.475508 L 0.345469 0.619531 L 0.511484 0.840547 L 0.588516 0.749531 L 0.423477 0.5525 L 0.335469 0.453477 L 0.490508 0.445508 L 0.738516 0.471484 L 0.932539 0.461484 L 0.933555 0.388477 L 0.761523 0.405508 L 0.600508 0.316484 L 0.762539 0.245469 L 0.954531 0.261484 L 0.952539 0.173477 L 0.770508 0.167461 Z M 0.490508 0.202461 " transform="matrix(100,0,0,100,600,200)"/>
<path style="fill:none;stroke-width:0.01;stroke-linecap:butt;stroke-linejoin:miter;stroke:rgb(0%,0%,0%);stroke-opacity:1;stroke-miterlimit:10;" d="M 0.5075 0.179453 L 0.276484 0.212461 L 0.328477 0.216484 L 0.4675 0.231484 L 0.5025 0.181484 L 0.299492 0.0784766 L 0.174453 0.201484 L 0.172461 0.270469 L 0.0484375 0.266484 L 0.0454688 0.346484 L 0.168477 0.348477 L 0.177461 0.4175 L 0.221484 0.606523 L 0.265469 0.921523 L 0.376484 0.878555 L 0.299492 0.584492 L 0.272461 0.431484 L 0.5075 0.4075 L 0.753516 0.416484 L 0.954531 0.386484 L 0.943555 0.316484 L 0.782539 0.325469 L 0.610508 0.283477 L 0.767539 0.225469 L 0.937539 0.258477 L 0.943555 0.172461 L 0.762539 0.133477 Z M 0.5075 0.179453 " transform="matrix(100,0,0,100,0,350)"/>
<path style="fill:none;stroke-width:0.01;stroke-linecap:butt;stroke-linejoin:miter;stroke:rgb(0%,0%,0%);stroke-opacity:1;stroke-miterlimit:10;" d="M 0.503516 0.233477 L 0.286484 0.266484 L 0.329492 0.269492 L 0.4475 0.249492 L 0.4725 0.197461 L 0.286484 0.119453 L 0.184453 0.253477 L 0.177461 0.328477 L 0.0594531 0.315469 L 0.0454687 0.389492 L 0.163477 0.404492 L 0.161484 0.481484 L 0.236484 0.615508 L 0.3625 0.880547 L 0.448477 0.838516 L 0.338477 0.6275 L 0.263477 0.498516 L 0.503516 0.453477 L 0.755508 0.495508 L 0.953555 0.491484 L 0.954531 0.414492 L 0.763516 0.425508 L 0.611523 0.343477 L 0.741523 0.266484 L 0.906523 0.250469 L 0.895547 0.165469 L 0.721523 0.187461 Z M 0.503516 0.233477 " transform="matrix(100,0,0,100,150,350)"/>
<path style="fill:none;stroke-width:0.01;stroke-linecap:butt;stroke-linejoin:miter;stroke:rgb(0%,0%,0%);stroke-opacity:1;stroke-miterlimit:10;" d="M 0.5225 0.303477 L 0.284492 0.303477 L 0.240469 0.232461 L 0.0924609 0.0454687 L 0.0654687 0.0774609 L 0.197461 0.219453 L 0.203477 0.324492 L 0.201484 0.390508 L 0.0894531 0.391484 L 0.0904687 0.459492 L 0.194453 0.458477 L 0.205469 0.516484 L 0.274492 0.676523 L 0.368477 0.954531 L 0.443477 0.903555 L 0.339492 0.663516 L 0.296484 0.530508 L 0.5225 0.513516 L 0.735508 0.510508 L 0.902539 0.479492 L 0.889531 0.425508 L 0.748516 0.4425 L 0.623516 0.4025 L 0.770508 0.328477 L 0.934531 0.350469 L 0.931563 0.274492 L 0.750508 0.263477 Z M 0.5225 0.303477 " transform="matrix(100,0,0,100,300,350)"/>
<path style="fill:none;stroke-width:0.01;stroke-linecap:butt;stroke-linejoin:miter;stroke:rgb(0%,0%,0%);stroke-opacity:1;stroke-miterlimit:10;" d="M 0.526484 0.315469 L 0.286484 0.295469 L 0.240469 0.226484 L 0.101445 0.0454687 L 0.0654687 0.0784766 L 0.191484 0.206484 L 0.210469 0.308477 L 0.207461 0.390508 L 0.0604688 0.381484 L 0.0584375 0.473516 L 0.196484 0.470508 L 0.203477 0.533516 L 0.256484 0.697539 L 0.331484 0.954531 L 0.423477 0.924531 L 0.338477 0.684531 L 0.309492 0.541523 L 0.526484 0.516484 L 0.741523 0.539492 L 0.920547 0.553516 L 0.907539 0.4725 L 0.757539 0.466484 L 0.620508 0.411484 L 0.760508 0.359492 L 0.930547 0.355469 L 0.941562 0.267461 L 0.752539 0.261484 Z M 0.526484 0.315469 " transform="matrix(100,0,0,100,450,350)"/>
<path style="fill:none;stroke-width:0.01;stroke-linecap:butt;stroke-linejoin:miter;stroke:rgb(0%,0%,0%);stroke-opacity:1;stroke-miterlimit:10;" d="M 0.534492 0.227461 L 0.318477 0.258477 L 0.384492 0.252461 L 0.541523 0.213477 L 0.565508 0.137461 L 0.318477 0.0674609 L 0.200469 0.242461 L 0.192461 0.310469 L 0.0514453 0.300469 L 0.0454688 0.395508 L 0.185469 0.394492 L 0.200469 0.463516 L 0.235469 0.636523 L 0.302461 0.932539 L 0.408477 0.902539 L 0.341484 0.631523 L 0.295469 0.474492 L 0.534492 0.451484 L 0.774531 0.4825 L 0.954531 0.4675 L 0.954531 0.395508 L 0.787539 0.396484 L 0.640508 0.335469 L 0.758516 0.259492 L 0.921523 0.248477 L 0.925547 0.187461 L 0.747539 0.185469 Z M 0.534492 0.227461 " transform="matrix(100,0,0,100,600,350)"/>
<path style="fill:none;stroke-width:0.01;stroke-linecap:butt;stroke-linejoin:miter;stroke:rgb(0%,0%,0%);stroke-opacity:1;stroke-miterlimit:10;" d="M 0.521484 0.163477 L 0.293477 0.178477 L 0.4725 0.178477 L 0.494492 0.125469 L 0.301484 0.0454688 L 0.196484 0.172461 L 0.193477 0.239492 L 0.0744531 0.232461 L 0.0624609 0.315469 L 0.194453 0.319492 L 0.207461 0.385508 L 0.242461 0.610508 L 0.289492 0.954531 L 0.419492 0.923555 L 0.336484 0.575508 L 0.305469 0.393477 L 0.521484 0.376484 L 0.750508 0.376484 L 0.937539 0.340469 L 0.909531 0.277461 L 0.757539 0.305469 L 0.624531 0.262461 L 0.761523 0.174453 L 0.930547 0.157461 L 0.919531 0.0834766 L 0.736523 0.0944531 Z M 0.521484 0.163477 " transform="matrix(100,0,0,100,0,500)"/>
<path style="fill:none;stroke-width:0.01;stroke-linecap:butt;stroke-linejoin:miter;stroke:rgb(0%,0%,0%);stroke-opacity:1;stroke-miterlimit:10;" d="M 0.5375 0.324492 L 0.3275 0.321484 L 0.285469 0.231484 L 0.159453 0.0454688 L 0.121445 0.0774609 L 0.222461 0.219453 L 0.238477 0.334492 L 0.218477 0.3925 L 0.100469 0.405508 L 0.104453 0.476484 L 0.220469 0.4675 L 0.235469 0.529492 L 0.251484 0.703516 L 0.286484 0.954531 L 0.399492 0.952539 L 0.348477 0.688516 L 0.330469 0.540508 L 0.5375 0.508516 L 0.730508 0.538516 L 0.886523 0.534492 L 0.897539 0.479492 L 0.748516 0.4825 L 0.621523 0.410508 L 0.746523 0.363477 L 0.893555 0.3975 L 0.899531 0.3275 L 0.737539 0.299492 Z M 0.5375 0.324492 " transform="matrix(100,0,0,100,150,500)"/>
<path style="fill:none;stroke-width:0.01;stroke-linecap:butt;stroke-linejoin:miter;stroke:rgb(0%,0%,0%);stroke-opacity:1;stroke-miterlimit:10;" d="M 0.505508 0.237461 L 0.284492 0.247461 L 0.334492 0.255469 L 0.449492 0.272461 L 0.4775 0.223477 L 0.298477 0.118477 L 0.185469 0.234492 L 0.185469 0.3175 L 0.0454687 0.308477 L 0.0484375 0.391484 L 0.171484 0.399492 L 0.169453 0.469492 L 0.202461 0.623516 L 0.270469 0.877539 L 0.3475 0.881523 L 0.298477 0.621523 L 0.267461 0.474492 L 0.505508 0.445508 L 0.750508 0.460508 L 0.944531 0.4375 L 0.954531 0.353477 L 0.778516 0.385508 L 0.596523 0.333477 L 0.723516 0.274492 L 0.876523 0.286484 L 0.864531 0.218477 L 0.702539 0.204453 Z M 0.505508 0.237461 " transform="matrix(100,0,0,100,300,500)"/>
<path style="fill:none;stroke-width:0.01;stroke-linecap:butt;stroke-linejoin:miter;stroke:rgb(0%,0%,0%);stroke-opacity:1;stroke-miterlimit:10;" d="M 0.546523 0.524492 L 0.284492 0.515508 L 0.217461 0.430508 L 0.0914453 0.240469 L 0.0454688 0.295469 L 0.186484 0.425508 L 0.199453 0.528516 L 0.200469 0.608516 L 0.0724609 0.606523 L 0.0664453 0.686523 L 0.198477 0.6925 L 0.215469 0.759531 L 0.200469 0.656523 L 0.106445 0.5075 L 0.145469 0.4525 L 0.247461 0.650508 L 0.320469 0.746523 L 0.546523 0.732539 L 0.778516 0.699531 L 0.954531 0.646523 L 0.928555 0.588516 L 0.790547 0.630508 L 0.645508 0.608516 L 0.752539 0.506484 L 0.910547 0.488516 L 0.916523 0.405508 L 0.741523 0.438477 Z M 0.546523 0.524492 " transform="matrix(100,0,0,100,450,500)"/>
<path style="fill:none;stroke-width:0.01;stroke-linecap:butt;stroke-linejoin:miter;stroke:rgb(0%,0%,0%);stroke-opacity:1;stroke-miterlimit:10;" d="M 0.495508 0.277461 L 0.281484 0.292461 L 0.330469 0.283477 L 0.446484 0.244492 L 0.455508 0.198477 L 0.253477 0.159453 L 0.176484 0.290469 L 0.170469 0.3575 L 0.0454688 0.366484 L 0.0524609 0.445508 L 0.175469 0.435508 L 0.192461 0.504492 L 0.264492 0.628516 L 0.4075 0.840547 L 0.481484 0.797539 L 0.344492 0.610508 L 0.283477 0.503516 L 0.495508 0.469492 L 0.758516 0.474492 L 0.954531 0.444492 L 0.953555 0.364492 L 0.778516 0.406484 L 0.600508 0.363477 L 0.726523 0.311484 L 0.873555 0.314492 L 0.877539 0.230469 L 0.705508 0.223477 Z M 0.495508 0.277461 " transform="matrix(100,0,0,100,600,500)"/>
<path style="fill:none;stroke-width:0.01;stroke-linecap:butt;stroke-linejoin:miter;stroke:rgb(0%,0%,0%);stroke-opacity:1;stroke-miterlimit:10;" d="M 0.520508 0.361484 L 0.261484 0.349492 L 0.239492 0.253477 L 0.196484 0.0544531 L 0.156484 0.0734766 L 0.221484 0.238477 L 0.182461 0.338477 L 0.179453 0.403477 L 0.0504687 0.3975 L 0.0454688 0.476484 L 0.175469 0.481484 L 0.182461 0.551523 L 0.220469 0.693516 L 0.308477 0.945547 L 0.401484 0.909531 L 0.326484 0.701523 L 0.281484 0.5675 L 0.520508 0.5625 L 0.731523 0.568516 L 0.890547 0.5425 L 0.881523 0.493516 L 0.737539 0.503516 L 0.6175 0.458477 L 0.773516 0.378477 L 0.954531 0.393477 L 0.936562 0.294492 L 0.748516 0.296484 Z M 0.520508 0.361484 " transform="matrix(100,0,0,100,0,650)"/>
<path style="fill:none;stroke-width:0.01;stroke-linecap:butt;stroke-linejoin:miter;stroke:rgb(0%,0%,0%);stroke-opacity:1;stroke-miterlimit:10;" d="M 0.554492 0.513516 L 0.310469 0.518516 L 0.243477 0.434492 L 0.0854687 0.249492 L 0.0454687 0.291484 L 0.191484 0.410508 L 0.229492 0.526484 L 0.232461 0.581523 L 0.125469 0.583516 L 0.125469 0.651523 L 0.231484 0.651523 L 0.250469 0.713516 L 0.226484 0.628516 L 0.133477 0.461484 L 0.186484 0.408477 L 0.297461 0.611523 L 0.3625 0.713516 L 0.554492 0.709531 L 0.772539 0.750508 L 0.945547 0.748516 L 0.948555 0.6725 L 0.792539 0.6575 L 0.653516 0.608516 L 0.781523 0.5375 L 0.954531 0.5575 L 0.930547 0.484492 L 0.754531 0.469492 Z M 0.554492 0.513516 " transform="matrix(100,0,0,100,150,650)"/>
<path style="fill:none;stroke-width:0.01;stroke-linecap:butt;stroke-linejoin:miter;stroke:rgb(0%,0%,0%);stroke-opacity:1;stroke-miterlimit:10;" d="M 0.531484 0.200469 L 0.293477 0.203477 L 0.244492 0.255469 L 0.146445 0.435508 L 0.0904687 0.410508 L 0.152461 0.259492 L 0.195469 0.199453 L 0.185469 0.264492 L 0.0484375 0.257461 L 0.0454687 0.348477 L 0.182461 0.3475 L 0.196484 0.415508 L 0.210469 0.581523 L 0.248477 0.816523 L 0.3425 0.791523 L 0.305469 0.565508 L 0.288477 0.434492 L 0.531484 0.426484 L 0.773516 0.460508 L 0.948555 0.440508 L 0.954531 0.379492 L 0.780547 0.376484 L 0.635508 0.304492 L 0.753516 0.255469 L 0.891523 0.264492 L 0.893555 0.202461 L 0.731523 0.183477 Z M 0.531484 0.200469 " transform="matrix(100,0,0,100,300,650)"/>
<path style="fill:none;stroke-width:0.01;stroke-linecap:butt;stroke-linejoin:miter;stroke:rgb(0%,0%,0%);stroke-opacity:1;stroke-miterlimit:10;" d="M 0.4825 0.256484 L 0.265469 0.275469 L 0.236484 0.378477 L 0.153477 0.614492 L 0.0804688 0.596523 L 0.109453 0.378477 L 0.161484 0.286484 L 0.158477 0.3475 L 0.0564453 0.335469 L 0.0454688 0.406484 L 0.153477 0.418477 L 0.170469 0.490508 L 0.203477 0.601523 L 0.253477 0.796523 L 0.314492 0.777539 L 0.261484 0.598516 L 0.247461 0.506484 L 0.4825 0.479492 L 0.703516 0.5425 L 0.894531 0.5525 L 0.892539 0.466484 L 0.737539 0.456484 L 0.598516 0.366484 L 0.771523 0.295469 L 0.954531 0.3075 L 0.945547 0.222461 L 0.739531 0.203477 Z M 0.4825 0.256484 " transform="matrix(100,0,0,100,450,650)"/>
<path style="fill:none;stroke-width:0.01;stroke-linecap:butt;stroke-linejoin:miter;stroke:rgb(0%,0%,0%);stroke-opacity:1;stroke-miterlimit:10;" d="M 0.5425 0.331484 L 0.3425 0.3075 L 0.297461 0.234492 L 0.137461 0.0454688 L 0.116445 0.0824609 L 0.233477 0.225469 L 0.265469 0.3225 L 0.260469 0.381484 L 0.169453 0.375469 L 0.165469 0.428477 L 0.250469 0.441484 L 0.257461 0.494492 L 0.3175 0.671523 L 0.365469 0.954531 L 0.464492 0.939531 L 0.369492 0.666523 L 0.3425 0.5075 L 0.5425 0.506484 L 0.722539 0.513516 L 0.867539 0.521484 L 0.868555 0.471484 L 0.736523 0.476484 L 0.628516 0.414492 L 0.744531 0.369492 L 0.869531 0.363477 L 0.883555 0.293477 L 0.725508 0.296484 Z M 0.5425 0.331484 " transform="matrix(100,0,0,100,600,650)"/>
</g>
</svg>
