<?xml version="1.0" encoding="UTF-8"?>
<svg xmlns="http://www.w3.org/2000/svg" xmlns:xlink="http://www.w3.org/1999/xlink" width="750pt" height="3600pt" viewBox="0 0 750 3600" version="1.1">
<g id="surface1">
<path style="fill:none;stroke-width:0.01;stroke-linecap:butt;stroke-linejoin:miter;stroke:rgb(0%,0%,0%);stroke-opacity:1;stroke-miterlimit:10;" d="M 0.450508 0.4075 L 0.323477 0.309492 L 0.230469 0.354492 L 0.152461 0.190469 L 0.121445 0.216484 L 0.189453 0.335469 L 0.267461 0.271484 L 0.217461 0.344492 L 0.101445 0.297461 L 0.0454688 0.3875 L 0.183477 0.439492 L 0.141445 0.544492 L 0.273477 0.595508 L 0.156484 0.786523 L 0.197461 0.809531 L 0.284492 0.673516 L 0.248477 0.549492 L 0.450508 0.598516 L 0.717539 0.624531 L 0.954531 0.613516 L 0.942539 0.521484 L 0.717539 0.534492 L 0.528516 0.498516 L 0.531484 0.365469 L 0.664531 0.411484 L 0.658516 0.333477 L 0.491484 0.273477 Z M 0.450508 0.4075 " transform="matrix(100,0,0,100,0,200)"/>
<path style="fill:none;stroke-width:0.01;stroke-linecap:butt;stroke-linejoin:miter;stroke:rgb(0%,0%,0%);stroke-opacity:1;stroke-miterlimit:10;" d="M 0.451484 0.353477 L 0.3175 0.323477 L 0.348477 0.218477 L 0.4225 0.196484 L 0.4125 0.168477 L 0.304492 0.209453 L 0.221484 0.3075 L 0.211484 0.373477 L 0.0694531 0.379492 L 0.0454687 0.494492 L 0.216484 0.4825 L 0.223477 0.590508 L 0.259492 0.675508 L 0.244492 0.826523 L 0.285469 0.831523 L 0.3125 0.686523 L 0.298477 0.5925 L 0.451484 0.571523 L 0.704531 0.585508 L 0.918555 0.629531 L 0.934531 0.554492 L 0.743516 0.516484 L 0.573516 0.464492 L 0.745508 0.409492 L 0.877539 0.600508 L 0.954531 0.513516 L 0.788516 0.269492 Z M 0.451484 0.353477 " transform="matrix(100,0,0,100,150,200)"/>
<path style="fill:none;stroke-width:0.01;stroke-linecap:butt;stroke-linejoin:miter;stroke:rgb(0%,0%,0%);stroke-opacity:1;stroke-miterlimit:10;" d="M 0.550508 0.416484 L 0.3275 0.406484 L 0.299492 0.256484 L 0.160469 0.0564453 L 0.113477 0.0924609 L 0.223477 0.264492 L 0.219453 0.391484 L 0.207461 0.465508 L 0.0594531 0.439492 L 0.0454687 0.524492 L 0.191484 0.540508 L 0.200469 0.630508 L 0.152461 0.728516 L 0.0704687 0.899531 L 0.121445 0.943555 L 0.209453 0.777539 L 0.302461 0.6625 L 0.550508 0.631523 L 0.790547 0.594492 L 0.954531 0.553516 L 0.938555 0.489492 L 0.783516 0.533516 L 0.636523 0.519492 L 0.793516 0.503516 L 0.914531 0.5425 L 0.923555 0.4775 L 0.788516 0.440508 Z M 0.550508 0.416484 " transform="matrix(100,0,0,100,300,200)"/>
<path style="fill:none;stroke-width:0.01;stroke-linecap:butt;stroke-linejoin:miter;stroke:rgb(0%,0%,0%);stroke-opacity:1;stroke-miterlimit:10;" d="M 0.615508 0.423477 L 0.330469 0.429492 L 0.380469 0.353477 L 0.538516 0.4325 L 0.5575 0.364492 L 0.381484 0.260469 L 0.218477 0.394492 L 0.218477 0.4825 L 0.0594531 0.459492 L 0.0454688 0.559492 L 0.204453 0.575508 L 0.209453 0.684531 L 0.398477 0.774531 L 0.159453 0.745508 L 0.144453 0.663516 L 0.403477 0.695508 L 0.315469 0.650508 L 0.615508 0.685508 L 0.701523 0.790547 L 0.890547 0.704531 L 0.887539 0.653516 L 0.747539 0.6775 L 0.719531 0.548516 L 0.736523 0.356484 L 0.925547 0.400508 L 0.954531 0.282461 L 0.660508 0.209453 Z M 0.615508 0.423477 " transform="matrix(100,0,0,100,450,200)"/>
<path style="fill:none;stroke-width:0.01;stroke-linecap:butt;stroke-linejoin:miter;stroke:rgb(0%,0%,0%);stroke-opacity:1;stroke-miterlimit:10;" d="M 0.5125 0.513516 L 0.3075 0.488516 L 0.282461 0.345469 L 0.182461 0.137461 L 0.136445 0.156484 L 0.198477 0.358477 L 0.205469 0.475508 L 0.164453 0.538516 L 0.0454688 0.5575 L 0.0544531 0.628516 L 0.162461 0.633516 L 0.157461 0.704531 L 0.3475 0.862539 L 0.344492 0.5925 L 0.287461 0.566523 L 0.293477 0.739531 L 0.240469 0.697539 L 0.5125 0.724531 L 0.770508 0.721523 L 0.954531 0.721523 L 0.947539 0.644531 L 0.776523 0.640508 L 0.5975 0.620508 L 0.6175 0.471484 L 0.714531 0.4275 L 0.693516 0.3825 L 0.5925 0.443477 Z M 0.5125 0.513516 " transform="matrix(100,0,0,100,600,200)"/>
<path style="fill:none;stroke-width:0.01;stroke-linecap:butt;stroke-linejoin:miter;stroke:rgb(0%,0%,0%);stroke-opacity:1;stroke-miterlimit:10;" d="M 0.469492 0.4825 L 0.268477 0.478516 L 0.265469 0.3125 L 0.308477 0.186484 L 0.258477 0.169453 L 0.211484 0.321484 L 0.129453 0.480508 L 0.139453 0.541523 L 0.0454688 0.584492 L 0.0704687 0.636523 L 0.162461 0.601523 L 0.180469 0.658516 L 0.262461 0.830547 L 0.476484 0.761523 L 0.454492 0.706523 L 0.298477 0.761523 L 0.278477 0.673516 L 0.469492 0.6875 L 0.714531 0.717539 L 0.889531 0.737539 L 0.898555 0.658516 L 0.725508 0.648516 L 0.5975 0.5975 L 0.754531 0.564492 L 0.954531 0.489492 L 0.913555 0.416484 L 0.728516 0.458477 Z M 0.469492 0.4825 " transform="matrix(100,0,0,100,0,350)"/>
<path style="fill:none;stroke-width:0.01;stroke-linecap:butt;stroke-linejoin:miter;stroke:rgb(0%,0%,0%);stroke-opacity:1;stroke-miterlimit:10;" d="M 0.486484 0.326484 L 0.235469 0.313477 L 0.283477 0.225469 L 0.433477 0.354492 L 0.471484 0.295469 L 0.287461 0.131445 L 0.132461 0.272461 L 0.123477 0.341484 L 0.0504688 0.339492 L 0.0454687 0.4125 L 0.125469 0.415508 L 0.127461 0.481484 L 0.165469 0.635508 L 0.108477 0.855547 L 0.160469 0.868555 L 0.247461 0.668516 L 0.249492 0.504492 L 0.486484 0.548516 L 0.762539 0.560508 L 0.954531 0.563516 L 0.954531 0.486484 L 0.765508 0.475508 L 0.5825 0.425508 L 0.586523 0.274492 L 0.690508 0.218477 L 0.654531 0.173477 L 0.558516 0.249492 Z M 0.486484 0.326484 " transform="matrix(100,0,0,100,150,350)"/>
<path style="fill:none;stroke-width:0.01;stroke-linecap:butt;stroke-linejoin:miter;stroke:rgb(0%,0%,0%);stroke-opacity:1;stroke-miterlimit:10;" d="M 0.488516 0.445508 L 0.224453 0.465508 L 0.138477 0.315469 L 0.309492 0.594492 L 0.214453 0.645508 L 0.0744531 0.3825 L 0.130469 0.483516 L 0.137461 0.5625 L 0.0464453 0.561523 L 0.0454687 0.615508 L 0.134453 0.6225 L 0.129453 0.6775 L 0.300469 0.751523 L 0.0804688 0.756523 L 0.0504688 0.6775 L 0.299492 0.678516 L 0.224453 0.6475 L 0.488516 0.671523 L 0.760508 0.680508 L 0.954531 0.6475 L 0.944531 0.570508 L 0.757539 0.606523 L 0.596523 0.563516 L 0.724531 0.376484 L 0.868555 0.474492 L 0.924531 0.3925 L 0.696523 0.243477 Z M 0.488516 0.445508 " transform="matrix(100,0,0,100,300,350)"/>
<path style="fill:none;stroke-width:0.01;stroke-linecap:butt;stroke-linejoin:miter;stroke:rgb(0%,0%,0%);stroke-opacity:1;stroke-miterlimit:10;" d="M 0.4425 0.388477 L 0.288477 0.375469 L 0.3325 0.306484 L 0.389492 0.172461 L 0.364492 0.154453 L 0.290469 0.274492 L 0.210469 0.349492 L 0.185469 0.426484 L 0.0454688 0.471484 L 0.0764453 0.559492 L 0.212461 0.543516 L 0.229492 0.640508 L 0.274492 0.710508 L 0.274492 0.843516 L 0.3175 0.845547 L 0.321484 0.714531 L 0.301484 0.633516 L 0.4425 0.628516 L 0.737539 0.661523 L 0.953555 0.664531 L 0.954531 0.583516 L 0.749531 0.569492 L 0.560508 0.511484 L 0.720508 0.485508 L 0.727539 0.6275 L 0.833516 0.5975 L 0.777539 0.354492 Z M 0.4425 0.388477 " transform="matrix(100,0,0,100,450,350)"/>
<path style="fill:none;stroke-width:0.01;stroke-linecap:butt;stroke-linejoin:miter;stroke:rgb(0%,0%,0%);stroke-opacity:1;stroke-miterlimit:10;" d="M 0.524492 0.481484 L 0.303477 0.494492 L 0.242461 0.364492 L 0.0764453 0.188477 L 0.0454688 0.214453 L 0.170469 0.3925 L 0.202461 0.510508 L 0.195469 0.575508 L 0.0764453 0.590508 L 0.0854688 0.659531 L 0.197461 0.650508 L 0.201484 0.722539 L 0.293477 0.811523 L 0.419492 0.721523 L 0.400508 0.691523 L 0.315469 0.764531 L 0.275469 0.718516 L 0.524492 0.707539 L 0.808516 0.693516 L 0.950547 0.693516 L 0.954531 0.6275 L 0.805547 0.633516 L 0.6525 0.593516 L 0.799531 0.5475 L 0.948555 0.5425 L 0.947539 0.461484 L 0.782539 0.485508 Z M 0.524492 0.481484 " transform="matrix(100,0,0,100,600,350)"/>
<path style="fill:none;stroke-width:0.01;stroke-linecap:butt;stroke-linejoin:miter;stroke:rgb(0%,0%,0%);stroke-opacity:1;stroke-miterlimit:10;" d="M 0.525508 0.293477 L 0.360469 0.234492 L 0.274492 0.313477 L 0.178477 0.450508 L 0.139453 0.410508 L 0.225469 0.296484 L 0.291484 0.213477 L 0.260469 0.297461 L 0.0454688 0.365469 L 0.0864453 0.471484 L 0.263477 0.414492 L 0.270469 0.5275 L 0.315469 0.6175 L 0.225469 0.751523 L 0.283477 0.786523 L 0.373477 0.633516 L 0.359492 0.526484 L 0.525508 0.501484 L 0.778516 0.486484 L 0.927539 0.539492 L 0.941562 0.475508 L 0.788516 0.428477 L 0.639531 0.395508 L 0.783516 0.366484 L 0.951562 0.390508 L 0.954531 0.298477 L 0.775547 0.295469 Z M 0.525508 0.293477 " transform="matrix(100,0,0,100,0,500)"/>
<path style="fill:none;stroke-width:0.01;stroke-linecap:butt;stroke-linejoin:miter;stroke:rgb(0%,0%,0%);stroke-opacity:1;stroke-miterlimit:10;" d="M 0.519492 0.383477 L 0.3825 0.313477 L 0.374492 0.230469 L 0.619531 0.218477 L 0.611523 0.138477 L 0.323477 0.147461 L 0.286484 0.267461 L 0.260469 0.354492 L 0.112461 0.286484 L 0.0454687 0.438477 L 0.231484 0.4625 L 0.227461 0.583516 L 0.302461 0.655508 L 0.279492 0.854531 L 0.3325 0.861523 L 0.3775 0.673516 L 0.329492 0.578516 L 0.519492 0.579492 L 0.763516 0.599492 L 0.925547 0.601523 L 0.923555 0.533516 L 0.766523 0.525508 L 0.611523 0.483516 L 0.745508 0.4575 L 0.954531 0.475508 L 0.953555 0.386484 L 0.738516 0.3725 Z M 0.519492 0.383477 " transform="matrix(100,0,0,100,150,500)"/>
<path style="fill:none;stroke-width:0.01;stroke-linecap:butt;stroke-linejoin:miter;stroke:rgb(0%,0%,0%);stroke-opacity:1;stroke-miterlimit:10;" d="M 0.528516 0.354492 L 0.3425 0.353477 L 0.345469 0.292461 L 0.509492 0.306484 L 0.505508 0.250469 L 0.318477 0.230469 L 0.262461 0.355469 L 0.253477 0.411484 L 0.144453 0.428477 L 0.151484 0.4825 L 0.248477 0.4725 L 0.245469 0.533516 L 0.197461 0.618516 L 0.0454687 0.719531 L 0.0724609 0.769531 L 0.245469 0.665508 L 0.334492 0.555508 L 0.528516 0.538516 L 0.736523 0.531484 L 0.954531 0.460508 L 0.939531 0.3975 L 0.747539 0.456484 L 0.609492 0.4425 L 0.756523 0.4025 L 0.926523 0.403477 L 0.916523 0.338477 L 0.747539 0.350469 Z M 0.528516 0.354492 " transform="matrix(100,0,0,100,300,500)"/>
<path style="fill:none;stroke-width:0.01;stroke-linecap:butt;stroke-linejoin:miter;stroke:rgb(0%,0%,0%);stroke-opacity:1;stroke-miterlimit:10;" d="M 0.503516 0.375469 L 0.324492 0.383477 L 0.263477 0.268477 L 0.0454688 0.315469 L 0.0554688 0.356484 L 0.221484 0.320469 L 0.254492 0.396484 L 0.260469 0.4425 L 0.159453 0.439492 L 0.160469 0.4925 L 0.254492 0.4975 L 0.264492 0.5225 L 0.229492 0.594492 L 0.164453 0.696523 L 0.196484 0.731523 L 0.264492 0.629531 L 0.334492 0.539492 L 0.503516 0.536484 L 0.681523 0.5425 L 0.806523 0.554492 L 0.804531 0.508516 L 0.6925 0.499492 L 0.595508 0.458477 L 0.747539 0.415508 L 0.954531 0.381484 L 0.944531 0.300469 L 0.745508 0.346484 Z M 0.503516 0.375469 " transform="matrix(100,0,0,100,450,500)"/>
<path style="fill:none;stroke-width:0.01;stroke-linecap:butt;stroke-linejoin:miter;stroke:rgb(0%,0%,0%);stroke-opacity:1;stroke-miterlimit:10;" d="M 0.524492 0.395508 L 0.331484 0.3725 L 0.271484 0.263477 L 0.3475 0.439492 L 0.295469 0.449492 L 0.228477 0.306484 L 0.258477 0.380469 L 0.235469 0.446484 L 0.164453 0.455508 L 0.179453 0.518516 L 0.243477 0.5175 L 0.259492 0.566523 L 0.211484 0.635508 L 0.0454688 0.6775 L 0.0554688 0.736523 L 0.241484 0.683516 L 0.339492 0.596523 L 0.524492 0.564492 L 0.738516 0.566523 L 0.860547 0.571523 L 0.862539 0.524492 L 0.743516 0.520508 L 0.624531 0.481484 L 0.760508 0.433477 L 0.954531 0.391484 L 0.915547 0.3275 L 0.730508 0.343477 Z M 0.524492 0.395508 " transform="matrix(100,0,0,100,600,500)"/>
<path style="fill:none;stroke-width:0.01;stroke-linecap:butt;stroke-linejoin:miter;stroke:rgb(0%,0%,0%);stroke-opacity:1;stroke-miterlimit:10;" d="M 0.465508 0.508516 L 0.351484 0.489492 L 0.416484 0.4175 L 0.273477 0.277461 L 0.249492 0.294492 L 0.338477 0.385508 L 0.267461 0.476484 L 0.233477 0.5725 L 0.0454688 0.591523 L 0.0654688 0.675508 L 0.236484 0.653516 L 0.276484 0.722539 L 0.274492 0.6475 L 0.399492 0.702539 L 0.414492 0.669531 L 0.3175 0.631523 L 0.346484 0.718516 L 0.465508 0.689531 L 0.699531 0.631523 L 0.954531 0.561523 L 0.940547 0.466484 L 0.703516 0.555508 L 0.534492 0.578516 L 0.648516 0.530508 L 0.816523 0.5125 L 0.798516 0.429492 L 0.6325 0.475508 Z M 0.465508 0.508516 " transform="matrix(100,0,0,100,0,650)"/>
<path style="fill:none;stroke-width:0.01;stroke-linecap:butt;stroke-linejoin:miter;stroke:rgb(0%,0%,0%);stroke-opacity:1;stroke-miterlimit:10;" d="M 0.505508 0.356484 L 0.257461 0.384492 L 0.172461 0.261484 L 0.208477 0.126445 L 0.161484 0.105469 L 0.134453 0.301484 L 0.174453 0.424492 L 0.216484 0.511484 L 0.0454687 0.530508 L 0.0704688 0.626523 L 0.219453 0.609492 L 0.239492 0.650508 L 0.320469 0.706523 L 0.355469 0.886523 L 0.421484 0.894531 L 0.406484 0.705508 L 0.329492 0.620508 L 0.505508 0.593516 L 0.774531 0.5525 L 0.954531 0.511484 L 0.952539 0.4425 L 0.765508 0.479492 L 0.593516 0.4525 L 0.743516 0.376484 L 0.910547 0.369492 L 0.918555 0.282461 L 0.725508 0.294492 Z M 0.505508 0.356484 " transform="matrix(100,0,0,100,150,650)"/>
<path style="fill:none;stroke-width:0.01;stroke-linecap:butt;stroke-linejoin:miter;stroke:rgb(0%,0%,0%);stroke-opacity:1;stroke-miterlimit:10;" d="M 0.5075 0.3575 L 0.3125 0.320469 L 0.341484 0.202461 L 0.504492 0.321484 L 0.535508 0.273477 L 0.3075 0.0994531 L 0.172461 0.3125 L 0.171484 0.376484 L 0.0784766 0.386484 L 0.0844531 0.4425 L 0.174453 0.436484 L 0.182461 0.500508 L 0.208477 0.649531 L 0.0454687 0.845547 L 0.111445 0.900547 L 0.284492 0.680508 L 0.305469 0.528516 L 0.5075 0.553516 L 0.737539 0.548516 L 0.866523 0.543516 L 0.869531 0.489492 L 0.744531 0.496484 L 0.616523 0.451484 L 0.757539 0.408477 L 0.954531 0.406484 L 0.930547 0.301484 L 0.742539 0.345469 Z M 0.5075 0.3575 " transform="matrix(100,0,0,100,300,650)"/>
<path style="fill:none;stroke-width:0.01;stroke-linecap:butt;stroke-linejoin:miter;stroke:rgb(0%,0%,0%);stroke-opacity:1;stroke-miterlimit:10;" d="M 0.455508 0.353477 L 0.266484 0.3825 L 0.284492 0.311484 L 0.273477 0.199453 L 0.303477 0.197461 L 0.316484 0.299492 L 0.175469 0.381484 L 0.175469 0.448477 L 0.0454688 0.464492 L 0.0684375 0.545508 L 0.180469 0.516484 L 0.212461 0.595508 L 0.260469 0.6875 L 0.414492 0.802539 L 0.4425 0.755508 L 0.315469 0.694531 L 0.300469 0.591523 L 0.455508 0.580508 L 0.716523 0.589492 L 0.922539 0.5525 L 0.921523 0.475508 L 0.719531 0.510508 L 0.549492 0.4625 L 0.753516 0.424492 L 0.954531 0.433477 L 0.953555 0.330469 L 0.743516 0.350469 Z M 0.455508 0.353477 " transform="matrix(100,0,0,100,450,650)"/>
<path style="fill:none;stroke-width:0.01;stroke-linecap:butt;stroke-linejoin:miter;stroke:rgb(0%,0%,0%);stroke-opacity:1;stroke-miterlimit:10;" d="M 0.528516 0.486484 L 0.361484 0.461484 L 0.3325 0.296484 L 0.164453 0.0454688 L 0.118477 0.0874609 L 0.226484 0.310469 L 0.236484 0.461484 L 0.238477 0.520508 L 0.175469 0.5375 L 0.178477 0.594492 L 0.248477 0.581523 L 0.256484 0.641523 L 0.294492 0.754531 L 0.259492 0.940547 L 0.314492 0.954531 L 0.353477 0.776523 L 0.354492 0.651523 L 0.528516 0.665508 L 0.754531 0.654531 L 0.875547 0.648516 L 0.881523 0.5975 L 0.760508 0.600508 L 0.6175 0.5675 L 0.691523 0.4325 L 0.792539 0.381484 L 0.770508 0.3275 L 0.659531 0.393477 Z M 0.528516 0.486484 " transform="matrix(100,0,0,100,600,650)"/>
</g>
</svg>
