<?xml version="1.0" encoding="UTF-8"?>
<svg xmlns="http://www.w3.org/2000/svg" xmlns:xlink="http://www.w3.org/1999/xlink" width="750pt" height="3600pt" viewBox="0 0 750 3600" version="1.1">
<g id="surface1">
<path style="fill:none;stroke-width:0.01;stroke-linecap:butt;stroke-linejoin:miter;stroke:rgb(0%,0%,0%);stroke-opacity:1;stroke-miterlimit:10;" d="M 0.4925 0.4075 L 0.302461 0.383477 L 0.268477 0.276484 L 0.167461 0.0454687 L 0.113477 0.0624609 L 0.222461 0.249492 L 0.223477 0.384492 L 0.212461 0.446484 L 0.122461 0.436484 L 0.119453 0.493516 L 0.204453 0.504492 L 0.200469 0.566523 L 0.254492 0.720508 L 0.290469 0.954531 L 0.385508 0.937539 L 0.320469 0.720508 L 0.283477 0.581523 L 0.4925 0.601523 L 0.709531 0.625508 L 0.886523 0.609492 L 0.874531 0.539492 L 0.718516 0.543516 L 0.584492 0.494492 L 0.699531 0.439492 L 0.829531 0.441484 L 0.840547 0.3725 L 0.688516 0.360469 Z M 0.4925 0.4075 " transform="matrix(100,0,0,100,0,200)"/>
<path style="fill:none;stroke-width:0.01;stroke-linecap:butt;stroke-linejoin:miter;stroke:rgb(0%,0%,0%);stroke-opacity:1;stroke-miterlimit:10;" d="M 0.598516 0.321484 L 0.421484 0.345469 L 0.471484 0.3475 L 0.588516 0.334492 L 0.616523 0.279492 L 0.418477 0.181484 L 0.325469 0.3475 L 0.325469 0.396484 L 0.225469 0.405508 L 0.228477 0.461484 L 0.324492 0.460508 L 0.329492 0.518516 L 0.0454687 0.759531 L 0.466484 0.818516 L 0.5375 0.796523 L 0.448477 0.608516 L 0.400508 0.528516 L 0.598516 0.5025 L 0.776523 0.533516 L 0.944531 0.525508 L 0.930547 0.458477 L 0.807539 0.4575 L 0.680508 0.410508 L 0.800547 0.340469 L 0.942539 0.359492 L 0.954531 0.296484 L 0.798516 0.284492 Z M 0.598516 0.321484 " transform="matrix(100,0,0,100,150,200)"/>
<path style="fill:none;stroke-width:0.01;stroke-linecap:butt;stroke-linejoin:miter;stroke:rgb(0%,0%,0%);stroke-opacity:1;stroke-miterlimit:10;" d="M 0.536484 0.388477 L 0.345469 0.346484 L 0.0954688 0.440508 L 0.306484 0.0464453 L 0.257461 0.0744531 L 0.300469 0.249492 L 0.276484 0.3475 L 0.275469 0.441484 L 0.100469 0.4275 L 0.0914453 0.540508 L 0.275469 0.546523 L 0.301484 0.641523 L 0.0454687 0.919531 L 0.4675 0.953555 L 0.539492 0.917539 L 0.441484 0.716523 L 0.388477 0.625508 L 0.536484 0.616523 L 0.768516 0.604492 L 0.954531 0.566523 L 0.945547 0.4925 L 0.776523 0.530508 L 0.636523 0.495508 L 0.775547 0.433477 L 0.920547 0.4525 L 0.923555 0.366484 L 0.755508 0.3525 Z M 0.536484 0.388477 " transform="matrix(100,0,0,100,300,200)"/>
<path style="fill:none;stroke-width:0.01;stroke-linecap:butt;stroke-linejoin:miter;stroke:rgb(0%,0%,0%);stroke-opacity:1;stroke-miterlimit:10;" d="M 0.499492 0.187461 L 0.311484 0.213477 L 0.371484 0.221484 L 0.505508 0.213477 L 0.528516 0.159453 L 0.330469 0.0454687 L 0.208477 0.195469 L 0.198477 0.265469 L 0.0954688 0.259492 L 0.0914453 0.326484 L 0.191484 0.3325 L 0.196484 0.393477 L 0.247461 0.621523 L 0.358477 0.954531 L 0.460508 0.898555 L 0.341484 0.573516 L 0.287461 0.401484 L 0.499492 0.384492 L 0.725508 0.3725 L 0.908555 0.3475 L 0.893555 0.278477 L 0.741523 0.321484 L 0.590508 0.284492 L 0.735508 0.249492 L 0.898555 0.276484 L 0.908555 0.179453 L 0.721523 0.140469 Z M 0.499492 0.187461 " transform="matrix(100,0,0,100,450,200)"/>
<path style="fill:none;stroke-width:0.01;stroke-linecap:butt;stroke-linejoin:miter;stroke:rgb(0%,0%,0%);stroke-opacity:1;stroke-miterlimit:10;" d="M 0.594492 0.3825 L 0.409492 0.3775 L 0.236484 0.479492 L 0.359492 0.146445 L 0.321484 0.156484 L 0.364492 0.295469 L 0.3475 0.373477 L 0.340469 0.426484 L 0.247461 0.416484 L 0.237461 0.473516 L 0.3325 0.480508 L 0.336484 0.529492 L 0.0454688 0.743516 L 0.431484 0.853555 L 0.501484 0.835547 L 0.440508 0.651523 L 0.418477 0.540508 L 0.594492 0.545508 L 0.780547 0.565508 L 0.908555 0.561523 L 0.908555 0.514492 L 0.783516 0.523516 L 0.673516 0.461484 L 0.807539 0.418477 L 0.954531 0.433477 L 0.951563 0.365469 L 0.789531 0.3625 Z M 0.594492 0.3825 " transform="matrix(100,0,0,100,600,200)"/>
<path style="fill:none;stroke-width:0.01;stroke-linecap:butt;stroke-linejoin:miter;stroke:rgb(0%,0%,0%);stroke-opacity:1;stroke-miterlimit:10;" d="M 0.635508 0.331484 L 0.475508 0.335469 L 0.449492 0.279492 L 0.388477 0.138477 L 0.354492 0.162461 L 0.419492 0.258477 L 0.4175 0.3375 L 0.410508 0.3825 L 0.320469 0.370469 L 0.3125 0.429492 L 0.3975 0.4375 L 0.401484 0.483516 L 0.0454688 0.654531 L 0.451484 0.861523 L 0.528516 0.841523 L 0.488516 0.628516 L 0.475508 0.4975 L 0.635508 0.484492 L 0.793516 0.4925 L 0.922539 0.480508 L 0.915547 0.438477 L 0.806523 0.4375 L 0.711523 0.400508 L 0.824531 0.349492 L 0.954531 0.341484 L 0.948555 0.290469 L 0.804531 0.288477 Z M 0.635508 0.331484 " transform="matrix(100,0,0,100,0,350)"/>
<path style="fill:none;stroke-width:0.01;stroke-linecap:butt;stroke-linejoin:miter;stroke:rgb(0%,0%,0%);stroke-opacity:1;stroke-miterlimit:10;" d="M 0.5275 0.408477 L 0.296484 0.410508 L 0.272461 0.306484 L 0.197461 0.0454687 L 0.135469 0.0864453 L 0.212461 0.281484 L 0.212461 0.403477 L 0.207461 0.476484 L 0.0984766 0.480508 L 0.103477 0.553516 L 0.205469 0.550508 L 0.218477 0.613516 L 0.271484 0.751523 L 0.379492 0.954531 L 0.448477 0.924531 L 0.351484 0.745508 L 0.303477 0.631523 L 0.5275 0.604492 L 0.736523 0.6175 L 0.901523 0.593516 L 0.887539 0.549492 L 0.743516 0.5525 L 0.6075 0.503516 L 0.703516 0.435508 L 0.839531 0.438477 L 0.822539 0.369492 L 0.696523 0.3725 Z M 0.5275 0.408477 " transform="matrix(100,0,0,100,150,350)"/>
<path style="fill:none;stroke-width:0.01;stroke-linecap:butt;stroke-linejoin:miter;stroke:rgb(0%,0%,0%);stroke-opacity:1;stroke-miterlimit:10;" d="M 0.509492 0.251484 L 0.293477 0.264492 L 0.222461 0.134453 L 0.4775 0.240469 L 0.5025 0.168477 L 0.281484 0.0954688 L 0.180469 0.261484 L 0.173477 0.320469 L 0.0564453 0.310469 L 0.0454687 0.386484 L 0.162461 0.3925 L 0.172461 0.451484 L 0.234492 0.635508 L 0.3175 0.904531 L 0.4525 0.899531 L 0.314492 0.629531 L 0.260469 0.471484 L 0.509492 0.4825 L 0.760508 0.4825 L 0.928555 0.439492 L 0.910547 0.3675 L 0.762539 0.3875 L 0.6225 0.359492 L 0.777539 0.271484 L 0.954531 0.281484 L 0.952539 0.188477 L 0.757539 0.178477 Z M 0.509492 0.251484 " transform="matrix(100,0,0,100,300,350)"/>
<path style="fill:none;stroke-width:0.01;stroke-linecap:butt;stroke-linejoin:miter;stroke:rgb(0%,0%,0%);stroke-opacity:1;stroke-miterlimit:10;" d="M 0.586523 0.405508 L 0.400508 0.391484 L 0.380469 0.3075 L 0.283477 0.127461 L 0.235469 0.150469 L 0.331484 0.292461 L 0.330469 0.3925 L 0.328477 0.449492 L 0.222461 0.434492 L 0.214453 0.500508 L 0.320469 0.511484 L 0.326484 0.570508 L 0.0454688 0.716523 L 0.3575 0.872539 L 0.411484 0.870547 L 0.403477 0.681523 L 0.400508 0.581523 L 0.586523 0.576523 L 0.790547 0.605508 L 0.948555 0.599492 L 0.954531 0.551523 L 0.791523 0.540508 L 0.665508 0.481484 L 0.763516 0.433477 L 0.901523 0.439492 L 0.912539 0.3775 L 0.768516 0.366484 Z M 0.586523 0.405508 " transform="matrix(100,0,0,100,450,350)"/>
<path style="fill:none;stroke-width:0.01;stroke-linecap:butt;stroke-linejoin:miter;stroke:rgb(0%,0%,0%);stroke-opacity:1;stroke-miterlimit:10;" d="M 0.5125 0.444492 L 0.288477 0.444492 L 0.222461 0.516484 L 0.0844531 0.690508 L 0.0454688 0.641523 L 0.125469 0.485508 L 0.185469 0.440508 L 0.189453 0.511484 L 0.0734766 0.518516 L 0.0804688 0.584492 L 0.190469 0.5825 L 0.198477 0.651523 L 0.211484 0.538516 L 0.163477 0.339492 L 0.222461 0.309492 L 0.279492 0.526484 L 0.306484 0.659531 L 0.5125 0.653516 L 0.747539 0.661523 L 0.954531 0.613516 L 0.943555 0.551523 L 0.766523 0.585508 L 0.6075 0.538516 L 0.722539 0.464492 L 0.862539 0.454492 L 0.864531 0.388477 L 0.715508 0.399492 Z M 0.5125 0.444492 " transform="matrix(100,0,0,100,600,350)"/>
<path style="fill:none;stroke-width:0.01;stroke-linecap:butt;stroke-linejoin:miter;stroke:rgb(0%,0%,0%);stroke-opacity:1;stroke-miterlimit:10;" d="M 0.545508 0.211484 L 0.3425 0.203477 L 0.289492 0.0764453 L 0.508516 0.187461 L 0.526484 0.142461 L 0.315469 0.0454688 L 0.225469 0.199453 L 0.222461 0.268477 L 0.101445 0.267461 L 0.104453 0.340469 L 0.217461 0.340469 L 0.229492 0.401484 L 0.274492 0.613516 L 0.345469 0.954531 L 0.486484 0.921523 L 0.3575 0.594492 L 0.325469 0.411484 L 0.545508 0.404492 L 0.742539 0.401484 L 0.898555 0.361484 L 0.886523 0.303477 L 0.759531 0.328477 L 0.625508 0.299492 L 0.734531 0.233477 L 0.866523 0.211484 L 0.856523 0.143477 L 0.706523 0.148477 Z M 0.545508 0.211484 " transform="matrix(100,0,0,100,0,500)"/>
<path style="fill:none;stroke-width:0.01;stroke-linecap:butt;stroke-linejoin:miter;stroke:rgb(0%,0%,0%);stroke-opacity:1;stroke-miterlimit:10;" d="M 0.513516 0.339492 L 0.269492 0.330469 L 0.0814453 0.5675 L 0.0674609 0.0454688 L 0.0454687 0.0834766 L 0.154453 0.239492 L 0.181484 0.351484 L 0.180469 0.4125 L 0.0474609 0.419492 L 0.0524609 0.503516 L 0.177461 0.4925 L 0.192461 0.566523 L 0.203477 0.715508 L 0.228477 0.951563 L 0.328477 0.954531 L 0.285469 0.706523 L 0.284492 0.578516 L 0.513516 0.551523 L 0.720508 0.584492 L 0.938555 0.581523 L 0.946563 0.5125 L 0.771523 0.513516 L 0.618516 0.439492 L 0.764531 0.3825 L 0.929531 0.400508 L 0.954531 0.3225 L 0.765508 0.303477 Z M 0.513516 0.339492 " transform="matrix(100,0,0,100,150,500)"/>
<path style="fill:none;stroke-width:0.01;stroke-linecap:butt;stroke-linejoin:miter;stroke:rgb(0%,0%,0%);stroke-opacity:1;stroke-miterlimit:10;" d="M 0.499492 0.252461 L 0.274492 0.251484 L 0.531484 0.333477 L 0.0984766 0.530508 L 0.0594531 0.499492 L 0.118477 0.309492 L 0.172461 0.243477 L 0.164453 0.318477 L 0.0454687 0.350469 L 0.0604688 0.423477 L 0.173477 0.408477 L 0.187461 0.479492 L 0.222461 0.605508 L 0.271484 0.834531 L 0.343477 0.814531 L 0.285469 0.606523 L 0.273477 0.486484 L 0.499492 0.456484 L 0.743516 0.4875 L 0.928555 0.489492 L 0.914531 0.431484 L 0.747539 0.433477 L 0.604492 0.349492 L 0.768516 0.277461 L 0.945547 0.271484 L 0.954531 0.165469 L 0.749531 0.168477 Z M 0.499492 0.252461 " transform="matrix(100,0,0,100,300,500)"/>
<path style="fill:none;stroke-width:0.01;stroke-linecap:butt;stroke-linejoin:miter;stroke:rgb(0%,0%,0%);stroke-opacity:1;stroke-miterlimit:10;" d="M 0.5075 0.232461 L 0.333477 0.194453 L 0.381484 0.203477 L 0.485508 0.231484 L 0.514492 0.194453 L 0.366484 0.0664453 L 0.251484 0.165469 L 0.249492 0.265469 L 0.0724609 0.240469 L 0.0454688 0.346484 L 0.227461 0.379492 L 0.246484 0.488516 L 0.336484 0.639531 L 0.478516 0.933555 L 0.5975 0.874531 L 0.450508 0.605508 L 0.341484 0.466484 L 0.5075 0.4725 L 0.746523 0.4625 L 0.954531 0.421484 L 0.952539 0.355469 L 0.774531 0.390508 L 0.621523 0.341484 L 0.754531 0.243477 L 0.932539 0.217461 L 0.930547 0.110469 L 0.737539 0.139453 Z M 0.5075 0.232461 " transform="matrix(100,0,0,100,450,500)"/>
<path style="fill:none;stroke-width:0.01;stroke-linecap:butt;stroke-linejoin:miter;stroke:rgb(0%,0%,0%);stroke-opacity:1;stroke-miterlimit:10;" d="M 0.499492 0.353477 L 0.267461 0.336484 L 0.239492 0.245469 L 0.163477 0.0454688 L 0.125469 0.0714453 L 0.211484 0.223477 L 0.194453 0.329492 L 0.184453 0.390508 L 0.0784766 0.3725 L 0.0664453 0.4375 L 0.174453 0.460508 L 0.183477 0.530508 L 0.238477 0.705508 L 0.304492 0.954531 L 0.396484 0.924531 L 0.3225 0.699531 L 0.282461 0.559492 L 0.499492 0.559492 L 0.735508 0.601523 L 0.931563 0.578516 L 0.933555 0.504492 L 0.776523 0.500508 L 0.6025 0.450508 L 0.731523 0.395508 L 0.884531 0.400508 L 0.880547 0.310469 L 0.714531 0.291484 Z M 0.499492 0.353477 " transform="matrix(100,0,0,100,600,500)"/>
<path style="fill:none;stroke-width:0.01;stroke-linecap:butt;stroke-linejoin:miter;stroke:rgb(0%,0%,0%);stroke-opacity:1;stroke-miterlimit:10;" d="M 0.5125 0.416484 L 0.260469 0.400508 L 0.0454688 0.5825 L 0.132461 0.0884766 L 0.0934766 0.115469 L 0.175469 0.283477 L 0.170469 0.409492 L 0.173477 0.483516 L 0.0494531 0.4925 L 0.0624609 0.5625 L 0.176484 0.553516 L 0.193477 0.619531 L 0.240469 0.734531 L 0.324492 0.911523 L 0.380469 0.899531 L 0.3125 0.724531 L 0.272461 0.6225 L 0.5125 0.634531 L 0.748516 0.650508 L 0.953555 0.6275 L 0.954531 0.561523 L 0.774531 0.559492 L 0.624531 0.515508 L 0.771523 0.428477 L 0.952539 0.423477 L 0.945547 0.336484 L 0.750508 0.3275 Z M 0.5125 0.416484 " transform="matrix(100,0,0,100,0,650)"/>
<path style="fill:none;stroke-width:0.01;stroke-linecap:butt;stroke-linejoin:miter;stroke:rgb(0%,0%,0%);stroke-opacity:1;stroke-miterlimit:10;" d="M 0.576523 0.368477 L 0.425508 0.319492 L 0.250469 0.473516 L 0.3275 0.0694531 L 0.285469 0.0894531 L 0.368477 0.238477 L 0.366484 0.316484 L 0.358477 0.4025 L 0.223477 0.403477 L 0.231484 0.496484 L 0.364492 0.495508 L 0.378477 0.581523 L 0.0454687 0.863555 L 0.524492 0.930547 L 0.601523 0.882539 L 0.5025 0.684531 L 0.4525 0.570508 L 0.576523 0.5625 L 0.785547 0.610508 L 0.948555 0.601523 L 0.937539 0.549492 L 0.794531 0.5325 L 0.6725 0.4675 L 0.813516 0.404492 L 0.954531 0.416484 L 0.952539 0.345469 L 0.789531 0.331484 Z M 0.576523 0.368477 " transform="matrix(100,0,0,100,150,650)"/>
<path style="fill:none;stroke-width:0.01;stroke-linecap:butt;stroke-linejoin:miter;stroke:rgb(0%,0%,0%);stroke-opacity:1;stroke-miterlimit:10;" d="M 0.635508 0.388477 L 0.4475 0.390508 L 0.410508 0.299492 L 0.289492 0.0774609 L 0.260469 0.127461 L 0.375469 0.287461 L 0.379492 0.399492 L 0.371484 0.458477 L 0.267461 0.464492 L 0.270469 0.5275 L 0.3675 0.521484 L 0.378477 0.5775 L 0.0454687 0.811523 L 0.498516 0.922539 L 0.569492 0.903555 L 0.503516 0.709531 L 0.461484 0.579492 L 0.635508 0.553516 L 0.811523 0.560508 L 0.954531 0.549492 L 0.946563 0.499492 L 0.827539 0.5075 L 0.715508 0.463516 L 0.792539 0.415508 L 0.910547 0.408477 L 0.920547 0.356484 L 0.789531 0.350469 Z M 0.635508 0.388477 " transform="matrix(100,0,0,100,300,650)"/>
<path style="fill:none;stroke-width:0.01;stroke-linecap:butt;stroke-linejoin:miter;stroke:rgb(0%,0%,0%);stroke-opacity:1;stroke-miterlimit:10;" d="M 0.506484 0.5125 L 0.269492 0.503516 L 0.211484 0.4175 L 0.0954688 0.206484 L 0.0574609 0.241484 L 0.169453 0.3925 L 0.176484 0.516484 L 0.163477 0.590508 L 0.0544531 0.570508 L 0.0454688 0.641523 L 0.149453 0.660508 L 0.146445 0.730508 L 0.151484 0.594492 L 0.0884766 0.354492 L 0.139453 0.298477 L 0.245469 0.5875 L 0.272461 0.747539 L 0.506484 0.750508 L 0.737539 0.793516 L 0.954531 0.792539 L 0.952539 0.708516 L 0.771523 0.709531 L 0.613516 0.629531 L 0.750508 0.5675 L 0.916523 0.5675 L 0.913555 0.483516 L 0.728516 0.470508 Z M 0.506484 0.5125 " transform="matrix(100,0,0,100,450,650)"/>
<path style="fill:none;stroke-width:0.01;stroke-linecap:butt;stroke-linejoin:miter;stroke:rgb(0%,0%,0%);stroke-opacity:1;stroke-miterlimit:10;" d="M 0.533516 0.139453 L 0.298477 0.112461 L 0.235469 0.195469 L 0.115469 0.376484 L 0.0644531 0.346484 L 0.146445 0.178477 L 0.189453 0.116445 L 0.172461 0.199453 L 0.0534375 0.194453 L 0.0454688 0.278477 L 0.163477 0.274492 L 0.168477 0.3525 L 0.211484 0.600508 L 0.256484 0.908555 L 0.3825 0.900547 L 0.302461 0.5525 L 0.264492 0.373477 L 0.533516 0.365469 L 0.761523 0.3875 L 0.954531 0.365469 L 0.947539 0.300469 L 0.785547 0.3075 L 0.633516 0.238477 L 0.757539 0.181484 L 0.899531 0.178477 L 0.893555 0.0914453 L 0.730508 0.100469 Z M 0.533516 0.139453 " transform="matrix(100,0,0,100,600,650)"/>
</g>
</svg>
