<?xml version="1.0" encoding="UTF-8"?>
<svg xmlns="http://www.w3.org/2000/svg" xmlns:xlink="http://www.w3.org/1999/xlink" width="750pt" height="4000pt" viewBox="0 0 750 4000" version="1.1">
<g id="surface1">
<path style=" stroke:none;fill-rule:nonzero;fill:rgb(0%,0%,0%);fill-opacity:1;" d="M 61.558594 51.179688 C 61.558594 55.179688 55.558594 55.179688 55.558594 51.179688 C 55.558594 47.179688 61.558594 47.179688 61.558594 51.179688 "/>
<path style="fill:none;stroke-width:0.01;stroke-linecap:butt;stroke-linejoin:miter;stroke:rgb(0%,0%,0%);stroke-opacity:1;stroke-miterlimit:10;" d="M 0.438516 0.511797 C 0.438516 0.551797 0.378516 0.551797 0.378516 0.511797 C 0.378516 0.471797 0.438516 0.471797 0.438516 0.511797 " transform="matrix(100,0,0,100,0,0)"/>
<path style="fill:none;stroke-width:0.01;stroke-linecap:butt;stroke-linejoin:miter;stroke:rgb(0%,0%,0%);stroke-opacity:1;stroke-miterlimit:10;" d="M 0.438516 0.511797 C 0.438516 0.551797 0.378516 0.551797 0.378516 0.511797 C 0.378516 0.471797 0.438516 0.471797 0.438516 0.511797 " transform="matrix(100,0,0,100,0,0)"/>
<path style="fill:none;stroke-width:0.01;stroke-linecap:butt;stroke-linejoin:miter;stroke:rgb(0%,0%,0%);stroke-opacity:1;stroke-miterlimit:10;" d="M 0.408516 0.511797 L 0.402578 0.311094 L 0.39668 0.405547 L 0.414414 0.57082 L 0.361289 0.576758 L 0.343555 0.39375 L 0.384883 0.216641 L 0.461641 0.175313 L 0.449805 0.0513672 L 0.520664 0.0454688 L 0.532461 0.163516 L 0.621016 0.204844 L 0.656445 0.387852 L 0.621016 0.582656 L 0.573789 0.576758 L 0.597422 0.399648 L 0.591484 0.299297 L 0.585586 0.511797 L 0.615117 0.765625 L 0.621016 0.948633 L 0.556094 0.954531 L 0.544258 0.771563 L 0.502969 0.612148 L 0.467539 0.759727 L 0.461641 0.954531 L 0.39668 0.948633 L 0.39668 0.771563 L 0.408516 0.511797 " transform="matrix(100,0,0,100,0,0)"/>
<path style="fill:none;stroke-width:0.002;stroke-linecap:butt;stroke-linejoin:miter;stroke:rgb(0%,0%,0%);stroke-opacity:1;stroke-miterlimit:10;" d="M 0.408516 0.511797 L 0.402578 0.311094 L 0.39668 0.405547 L 0.414414 0.57082 L 0.361289 0.576758 L 0.343555 0.39375 L 0.384883 0.216641 L 0.461641 0.175313 L 0.449805 0.0513672 L 0.520664 0.0454688 L 0.532461 0.163516 L 0.621016 0.204844 L 0.656445 0.387852 L 0.621016 0.582656 L 0.573789 0.576758 L 0.597422 0.399648 L 0.591484 0.299297 L 0.585586 0.511797 L 0.615117 0.765625 L 0.621016 0.948633 L 0.556094 0.954531 L 0.544258 0.771563 L 0.502969 0.612148 L 0.467539 0.759727 L 0.461641 0.954531 L 0.39668 0.948633 L 0.39668 0.771563 Z M 0.408516 0.511797 " transform="matrix(100,0,0,100,0,0)"/>
<path style=" stroke:none;fill-rule:nonzero;fill:rgb(0%,0%,0%);fill-opacity:1;" d="M 215.101562 20.484375 C 215.101562 24.484375 209.101562 24.484375 209.101562 20.484375 C 209.101562 16.484375 215.101562 16.484375 215.101562 20.484375 "/>
<path style="fill:none;stroke-width:0.01;stroke-linecap:butt;stroke-linejoin:miter;stroke:rgb(0%,0%,0%);stroke-opacity:1;stroke-miterlimit:10;" d="M 0.438516 0.511797 C 0.438516 0.551797 0.378516 0.551797 0.378516 0.511797 C 0.378516 0.471797 0.438516 0.471797 0.438516 0.511797 " transform="matrix(100,0,0,100,150,0)"/>
<path style="fill:none;stroke-width:0.01;stroke-linecap:butt;stroke-linejoin:miter;stroke:rgb(0%,0%,0%);stroke-opacity:1;stroke-miterlimit:10;" d="M 0.615586 0.511797 C 0.615586 0.551797 0.555586 0.551797 0.555586 0.511797 C 0.555586 0.471797 0.615586 0.471797 0.615586 0.511797 " transform="matrix(100,0,0,100,150,0)"/>
<path style="fill:none;stroke-width:0.01;stroke-linecap:butt;stroke-linejoin:miter;stroke:rgb(0%,0%,0%);stroke-opacity:1;stroke-miterlimit:10;" d="M 0.408516 0.511797 L 0.402578 0.311094 L 0.39668 0.405547 L 0.414414 0.57082 L 0.361289 0.576758 L 0.343555 0.39375 L 0.384883 0.216641 L 0.461641 0.175313 L 0.449805 0.0513672 L 0.520664 0.0454688 L 0.532461 0.163516 L 0.621016 0.204844 L 0.656445 0.387852 L 0.621016 0.582656 L 0.573789 0.576758 L 0.597422 0.399648 L 0.591484 0.299297 L 0.585586 0.511797 " transform="matrix(100,0,0,100,150,0)"/>
<path style="fill:none;stroke-width:0.002;stroke-linecap:butt;stroke-linejoin:miter;stroke:rgb(0%,0%,0%);stroke-opacity:1;stroke-miterlimit:10;" d="M 0.408516 0.511797 L 0.402578 0.311094 L 0.39668 0.405547 L 0.414414 0.57082 L 0.361289 0.576758 L 0.343555 0.39375 L 0.384883 0.216641 L 0.461641 0.175313 L 0.449805 0.0513672 L 0.520664 0.0454688 L 0.532461 0.163516 L 0.621016 0.204844 L 0.656445 0.387852 L 0.621016 0.582656 L 0.573789 0.576758 L 0.597422 0.399648 L 0.591484 0.299297 L 0.585586 0.511797 L 0.615117 0.765625 L 0.621016 0.948633 L 0.556094 0.954531 L 0.544258 0.771563 L 0.502969 0.612148 L 0.467539 0.759727 L 0.461641 0.954531 L 0.39668 0.948633 L 0.39668 0.771563 Z M 0.408516 0.511797 " transform="matrix(100,0,0,100,150,0)"/>
<path style=" stroke:none;fill-rule:nonzero;fill:rgb(0%,0%,0%);fill-opacity:1;" d="M 353.296875 61.214844 C 353.296875 65.214844 347.296875 65.214844 347.296875 61.214844 C 347.296875 57.214844 353.296875 57.214844 353.296875 61.214844 "/>
<path style="fill:none;stroke-width:0.01;stroke-linecap:butt;stroke-linejoin:miter;stroke:rgb(0%,0%,0%);stroke-opacity:1;stroke-miterlimit:10;" d="M 0.615586 0.511797 C 0.615586 0.551797 0.555586 0.551797 0.555586 0.511797 C 0.555586 0.471797 0.615586 0.471797 0.615586 0.511797 " transform="matrix(100,0,0,100,300,0)"/>
<path style="fill:none;stroke-width:0.01;stroke-linecap:butt;stroke-linejoin:miter;stroke:rgb(0%,0%,0%);stroke-opacity:1;stroke-miterlimit:10;" d="M 0.438516 0.511797 C 0.438516 0.551797 0.378516 0.551797 0.378516 0.511797 C 0.378516 0.471797 0.438516 0.471797 0.438516 0.511797 " transform="matrix(100,0,0,100,300,0)"/>
<path style="fill:none;stroke-width:0.01;stroke-linecap:butt;stroke-linejoin:miter;stroke:rgb(0%,0%,0%);stroke-opacity:1;stroke-miterlimit:10;" d="M 0.585586 0.511797 L 0.615117 0.765625 L 0.621016 0.948633 L 0.556094 0.954531 L 0.544258 0.771563 L 0.502969 0.612148 L 0.467539 0.759727 L 0.461641 0.954531 L 0.39668 0.948633 L 0.39668 0.771563 L 0.408516 0.511797 " transform="matrix(100,0,0,100,300,0)"/>
<path style="fill:none;stroke-width:0.002;stroke-linecap:butt;stroke-linejoin:miter;stroke:rgb(0%,0%,0%);stroke-opacity:1;stroke-miterlimit:10;" d="M 0.408516 0.511797 L 0.402578 0.311094 L 0.39668 0.405547 L 0.414414 0.57082 L 0.361289 0.576758 L 0.343555 0.39375 L 0.384883 0.216641 L 0.461641 0.175313 L 0.449805 0.0513672 L 0.520664 0.0454688 L 0.532461 0.163516 L 0.621016 0.204844 L 0.656445 0.387852 L 0.621016 0.582656 L 0.573789 0.576758 L 0.597422 0.399648 L 0.591484 0.299297 L 0.585586 0.511797 L 0.615117 0.765625 L 0.621016 0.948633 L 0.556094 0.954531 L 0.544258 0.771563 L 0.502969 0.612148 L 0.467539 0.759727 L 0.461641 0.954531 L 0.39668 0.948633 L 0.39668 0.771563 Z M 0.408516 0.511797 " transform="matrix(100,0,0,100,300,0)"/>
<path style=" stroke:none;fill-rule:nonzero;fill:rgb(0%,0%,0%);fill-opacity:1;" d="M 491.488281 21.664062 C 491.488281 25.664062 485.488281 25.664062 485.488281 21.664062 C 485.488281 17.664062 491.488281 17.664062 491.488281 21.664062 "/>
<path style="fill:none;stroke-width:0.01;stroke-linecap:butt;stroke-linejoin:miter;stroke:rgb(0%,0%,0%);stroke-opacity:1;stroke-miterlimit:10;" d="M 0.438516 0.511797 C 0.438516 0.551797 0.378516 0.551797 0.378516 0.511797 C 0.378516 0.471797 0.438516 0.471797 0.438516 0.511797 " transform="matrix(100,0,0,100,450,0)"/>
<path style="fill:none;stroke-width:0.01;stroke-linecap:butt;stroke-linejoin:miter;stroke:rgb(0%,0%,0%);stroke-opacity:1;stroke-miterlimit:10;" d="M 0.651016 0.204844 C 0.651016 0.244844 0.591016 0.244844 0.591016 0.204844 C 0.591016 0.164844 0.651016 0.164844 0.651016 0.204844 " transform="matrix(100,0,0,100,450,0)"/>
<path style="fill:none;stroke-width:0.01;stroke-linecap:butt;stroke-linejoin:miter;stroke:rgb(0%,0%,0%);stroke-opacity:1;stroke-miterlimit:10;" d="M 0.408516 0.511797 L 0.402578 0.311094 L 0.39668 0.405547 L 0.414414 0.57082 L 0.361289 0.576758 L 0.343555 0.39375 L 0.384883 0.216641 L 0.461641 0.175313 L 0.449805 0.0513672 L 0.520664 0.0454688 L 0.532461 0.163516 L 0.621016 0.204844 " transform="matrix(100,0,0,100,450,0)"/>
<path style="fill:none;stroke-width:0.002;stroke-linecap:butt;stroke-linejoin:miter;stroke:rgb(0%,0%,0%);stroke-opacity:1;stroke-miterlimit:10;" d="M 0.408516 0.511797 L 0.402578 0.311094 L 0.39668 0.405547 L 0.414414 0.57082 L 0.361289 0.576758 L 0.343555 0.39375 L 0.384883 0.216641 L 0.461641 0.175313 L 0.449805 0.0513672 L 0.520664 0.0454688 L 0.532461 0.163516 L 0.621016 0.204844 L 0.656445 0.387852 L 0.621016 0.582656 L 0.573789 0.576758 L 0.597422 0.399648 L 0.591484 0.299297 L 0.585586 0.511797 L 0.615117 0.765625 L 0.621016 0.948633 L 0.556094 0.954531 L 0.544258 0.771563 L 0.502969 0.612148 L 0.467539 0.759727 L 0.461641 0.954531 L 0.39668 0.948633 L 0.39668 0.771563 Z M 0.408516 0.511797 " transform="matrix(100,0,0,100,450,0)"/>
<path style=" stroke:none;fill-rule:nonzero;fill:rgb(0%,0%,0%);fill-opacity:1;" d="M 662.148438 29.929688 C 662.148438 33.929688 656.148438 33.929688 656.148438 29.929688 C 656.148438 25.929688 662.148438 25.929688 662.148438 29.929688 "/>
<path style="fill:none;stroke-width:0.01;stroke-linecap:butt;stroke-linejoin:miter;stroke:rgb(0%,0%,0%);stroke-opacity:1;stroke-miterlimit:10;" d="M 0.651016 0.204844 C 0.651016 0.244844 0.591016 0.244844 0.591016 0.204844 C 0.591016 0.164844 0.651016 0.164844 0.651016 0.204844 " transform="matrix(100,0,0,100,600,0)"/>
<path style="fill:none;stroke-width:0.01;stroke-linecap:butt;stroke-linejoin:miter;stroke:rgb(0%,0%,0%);stroke-opacity:1;stroke-miterlimit:10;" d="M 0.615586 0.511797 C 0.615586 0.551797 0.555586 0.551797 0.555586 0.511797 C 0.555586 0.471797 0.615586 0.471797 0.615586 0.511797 " transform="matrix(100,0,0,100,600,0)"/>
<path style="fill:none;stroke-width:0.01;stroke-linecap:butt;stroke-linejoin:miter;stroke:rgb(0%,0%,0%);stroke-opacity:1;stroke-miterlimit:10;" d="M 0.621016 0.204844 L 0.656445 0.387852 L 0.621016 0.582656 L 0.573789 0.576758 L 0.597422 0.399648 L 0.591484 0.299297 L 0.585586 0.511797 " transform="matrix(100,0,0,100,600,0)"/>
<path style="fill:none;stroke-width:0.002;stroke-linecap:butt;stroke-linejoin:miter;stroke:rgb(0%,0%,0%);stroke-opacity:1;stroke-miterlimit:10;" d="M 0.408516 0.511797 L 0.402578 0.311094 L 0.39668 0.405547 L 0.414414 0.57082 L 0.361289 0.576758 L 0.343555 0.39375 L 0.384883 0.216641 L 0.461641 0.175313 L 0.449805 0.0513672 L 0.520664 0.0454688 L 0.532461 0.163516 L 0.621016 0.204844 L 0.656445 0.387852 L 0.621016 0.582656 L 0.573789 0.576758 L 0.597422 0.399648 L 0.591484 0.299297 L 0.585586 0.511797 L 0.615117 0.765625 L 0.621016 0.948633 L 0.556094 0.954531 L 0.544258 0.771563 L 0.502969 0.612148 L 0.467539 0.759727 L 0.461641 0.954531 L 0.39668 0.948633 L 0.39668 0.771563 Z M 0.408516 0.511797 " transform="matrix(100,0,0,100,600,0)"/>
<path style=" stroke:none;fill-rule:nonzero;fill:rgb(0%,0%,0%);fill-opacity:1;" d="M 43.257812 181.109375 C 43.257812 185.109375 37.257812 185.109375 37.257812 181.109375 C 37.257812 177.109375 43.257812 177.109375 43.257812 181.109375 "/>
<path style="fill:none;stroke-width:0.01;stroke-linecap:butt;stroke-linejoin:miter;stroke:rgb(0%,0%,0%);stroke-opacity:1;stroke-miterlimit:10;" d="M 0.438516 0.511797 C 0.438516 0.551797 0.378516 0.551797 0.378516 0.511797 C 0.378516 0.471797 0.438516 0.471797 0.438516 0.511797 " transform="matrix(100,0,0,100,0,150)"/>
<path style="fill:none;stroke-width:0.01;stroke-linecap:butt;stroke-linejoin:miter;stroke:rgb(0%,0%,0%);stroke-opacity:1;stroke-miterlimit:10;" d="M 0.414883 0.216641 C 0.414883 0.256641 0.354883 0.256641 0.354883 0.216641 C 0.354883 0.176641 0.414883 0.176641 0.414883 0.216641 " transform="matrix(100,0,0,100,0,150)"/>
<path style="fill:none;stroke-width:0.01;stroke-linecap:butt;stroke-linejoin:miter;stroke:rgb(0%,0%,0%);stroke-opacity:1;stroke-miterlimit:10;" d="M 0.408516 0.511797 L 0.402578 0.311094 L 0.39668 0.405547 L 0.414414 0.57082 L 0.361289 0.576758 L 0.343555 0.39375 L 0.384883 0.216641 " transform="matrix(100,0,0,100,0,150)"/>
<path style="fill:none;stroke-width:0.002;stroke-linecap:butt;stroke-linejoin:miter;stroke:rgb(0%,0%,0%);stroke-opacity:1;stroke-miterlimit:10;" d="M 0.408516 0.511797 L 0.402578 0.311094 L 0.39668 0.405547 L 0.414414 0.57082 L 0.361289 0.576758 L 0.343555 0.39375 L 0.384883 0.216641 L 0.461641 0.175312 L 0.449805 0.0513672 L 0.520664 0.0454687 L 0.532461 0.163516 L 0.621016 0.204844 L 0.656445 0.387852 L 0.621016 0.582656 L 0.573789 0.576758 L 0.597422 0.399648 L 0.591484 0.299297 L 0.585586 0.511797 L 0.615117 0.765625 L 0.621016 0.948633 L 0.556094 0.954531 L 0.544258 0.771562 L 0.502969 0.612148 L 0.467539 0.759727 L 0.461641 0.954531 L 0.39668 0.948633 L 0.39668 0.771562 Z M 0.408516 0.511797 " transform="matrix(100,0,0,100,0,150)"/>
<path style=" stroke:none;fill-rule:nonzero;fill:rgb(0%,0%,0%);fill-opacity:1;" d="M 199.164062 167.53125 C 199.164062 171.53125 193.164062 171.53125 193.164062 167.53125 C 193.164062 163.53125 199.164062 163.53125 199.164062 167.53125 "/>
<path style="fill:none;stroke-width:0.01;stroke-linecap:butt;stroke-linejoin:miter;stroke:rgb(0%,0%,0%);stroke-opacity:1;stroke-miterlimit:10;" d="M 0.414883 0.216641 C 0.414883 0.256641 0.354883 0.256641 0.354883 0.216641 C 0.354883 0.176641 0.414883 0.176641 0.414883 0.216641 " transform="matrix(100,0,0,100,150,150)"/>
<path style="fill:none;stroke-width:0.01;stroke-linecap:butt;stroke-linejoin:miter;stroke:rgb(0%,0%,0%);stroke-opacity:1;stroke-miterlimit:10;" d="M 0.651016 0.204844 C 0.651016 0.244844 0.591016 0.244844 0.591016 0.204844 C 0.591016 0.164844 0.651016 0.164844 0.651016 0.204844 " transform="matrix(100,0,0,100,150,150)"/>
<path style="fill:none;stroke-width:0.01;stroke-linecap:butt;stroke-linejoin:miter;stroke:rgb(0%,0%,0%);stroke-opacity:1;stroke-miterlimit:10;" d="M 0.384883 0.216641 L 0.461641 0.175312 L 0.449805 0.0513672 L 0.520664 0.0454687 L 0.532461 0.163516 L 0.621016 0.204844 " transform="matrix(100,0,0,100,150,150)"/>
<path style="fill:none;stroke-width:0.002;stroke-linecap:butt;stroke-linejoin:miter;stroke:rgb(0%,0%,0%);stroke-opacity:1;stroke-miterlimit:10;" d="M 0.408516 0.511797 L 0.402578 0.311094 L 0.39668 0.405547 L 0.414414 0.57082 L 0.361289 0.576758 L 0.343555 0.39375 L 0.384883 0.216641 L 0.461641 0.175312 L 0.449805 0.0513672 L 0.520664 0.0454687 L 0.532461 0.163516 L 0.621016 0.204844 L 0.656445 0.387852 L 0.621016 0.582656 L 0.573789 0.576758 L 0.597422 0.399648 L 0.591484 0.299297 L 0.585586 0.511797 L 0.615117 0.765625 L 0.621016 0.948633 L 0.556094 0.954531 L 0.544258 0.771562 L 0.502969 0.612148 L 0.467539 0.759727 L 0.461641 0.954531 L 0.39668 0.948633 L 0.39668 0.771562 Z M 0.408516 0.511797 " transform="matrix(100,0,0,100,150,150)"/>
<path style=" stroke:none;fill-rule:nonzero;fill:rgb(0%,0%,0%);fill-opacity:1;" d="M 339.128906 207.675781 C 339.128906 211.675781 333.128906 211.675781 333.128906 207.675781 C 333.128906 203.675781 339.128906 203.675781 339.128906 207.675781 "/>
<path style="fill:none;stroke-width:0.01;stroke-linecap:butt;stroke-linejoin:miter;stroke:rgb(0%,0%,0%);stroke-opacity:1;stroke-miterlimit:10;" d="M 0.432578 0.311094 C 0.432578 0.351094 0.372578 0.351094 0.372578 0.311094 C 0.372578 0.271094 0.432578 0.271094 0.432578 0.311094 " transform="matrix(100,0,0,100,300,150)"/>
<path style="fill:none;stroke-width:0.01;stroke-linecap:butt;stroke-linejoin:miter;stroke:rgb(0%,0%,0%);stroke-opacity:1;stroke-miterlimit:10;" d="M 0.414883 0.216641 C 0.414883 0.256641 0.354883 0.256641 0.354883 0.216641 C 0.354883 0.176641 0.414883 0.176641 0.414883 0.216641 " transform="matrix(100,0,0,100,300,150)"/>
<path style="fill:none;stroke-width:0.01;stroke-linecap:butt;stroke-linejoin:miter;stroke:rgb(0%,0%,0%);stroke-opacity:1;stroke-miterlimit:10;" d="M 0.402578 0.311094 L 0.39668 0.405547 L 0.414414 0.57082 L 0.361289 0.576758 L 0.343555 0.39375 L 0.384883 0.216641 " transform="matrix(100,0,0,100,300,150)"/>
<path style="fill:none;stroke-width:0.002;stroke-linecap:butt;stroke-linejoin:miter;stroke:rgb(0%,0%,0%);stroke-opacity:1;stroke-miterlimit:10;" d="M 0.408516 0.511797 L 0.402578 0.311094 L 0.39668 0.405547 L 0.414414 0.57082 L 0.361289 0.576758 L 0.343555 0.39375 L 0.384883 0.216641 L 0.461641 0.175312 L 0.449805 0.0513672 L 0.520664 0.0454687 L 0.532461 0.163516 L 0.621016 0.204844 L 0.656445 0.387852 L 0.621016 0.582656 L 0.573789 0.576758 L 0.597422 0.399648 L 0.591484 0.299297 L 0.585586 0.511797 L 0.615117 0.765625 L 0.621016 0.948633 L 0.556094 0.954531 L 0.544258 0.771562 L 0.502969 0.612148 L 0.467539 0.759727 L 0.461641 0.954531 L 0.39668 0.948633 L 0.39668 0.771562 Z M 0.408516 0.511797 " transform="matrix(100,0,0,100,300,150)"/>
<path style=" stroke:none;fill-rule:nonzero;fill:rgb(0%,0%,0%);fill-opacity:1;" d="M 494.441406 207.082031 C 494.441406 211.082031 488.441406 211.082031 488.441406 207.082031 C 488.441406 203.082031 494.441406 203.082031 494.441406 207.082031 "/>
<path style="fill:none;stroke-width:0.01;stroke-linecap:butt;stroke-linejoin:miter;stroke:rgb(0%,0%,0%);stroke-opacity:1;stroke-miterlimit:10;" d="M 0.432578 0.311094 C 0.432578 0.351094 0.372578 0.351094 0.372578 0.311094 C 0.372578 0.271094 0.432578 0.271094 0.432578 0.311094 " transform="matrix(100,0,0,100,450,150)"/>
<path style="fill:none;stroke-width:0.01;stroke-linecap:butt;stroke-linejoin:miter;stroke:rgb(0%,0%,0%);stroke-opacity:1;stroke-miterlimit:10;" d="M 0.391289 0.576758 C 0.391289 0.616758 0.331289 0.616758 0.331289 0.576758 C 0.331289 0.536758 0.391289 0.536758 0.391289 0.576758 " transform="matrix(100,0,0,100,450,150)"/>
<path style="fill:none;stroke-width:0.01;stroke-linecap:butt;stroke-linejoin:miter;stroke:rgb(0%,0%,0%);stroke-opacity:1;stroke-miterlimit:10;" d="M 0.402578 0.311094 L 0.39668 0.405547 L 0.414414 0.57082 L 0.361289 0.576758 " transform="matrix(100,0,0,100,450,150)"/>
<path style="fill:none;stroke-width:0.002;stroke-linecap:butt;stroke-linejoin:miter;stroke:rgb(0%,0%,0%);stroke-opacity:1;stroke-miterlimit:10;" d="M 0.408516 0.511797 L 0.402578 0.311094 L 0.39668 0.405547 L 0.414414 0.57082 L 0.361289 0.576758 L 0.343555 0.39375 L 0.384883 0.216641 L 0.461641 0.175312 L 0.449805 0.0513672 L 0.520664 0.0454687 L 0.532461 0.163516 L 0.621016 0.204844 L 0.656445 0.387852 L 0.621016 0.582656 L 0.573789 0.576758 L 0.597422 0.399648 L 0.591484 0.299297 L 0.585586 0.511797 L 0.615117 0.765625 L 0.621016 0.948633 L 0.556094 0.954531 L 0.544258 0.771562 L 0.502969 0.612148 L 0.467539 0.759727 L 0.461641 0.954531 L 0.39668 0.948633 L 0.39668 0.771562 Z M 0.408516 0.511797 " transform="matrix(100,0,0,100,450,150)"/>
<path style=" stroke:none;fill-rule:nonzero;fill:rgb(0%,0%,0%);fill-opacity:1;" d="M 637.355469 189.375 C 637.355469 193.375 631.355469 193.375 631.355469 189.375 C 631.355469 185.375 637.355469 185.375 637.355469 189.375 "/>
<path style="fill:none;stroke-width:0.01;stroke-linecap:butt;stroke-linejoin:miter;stroke:rgb(0%,0%,0%);stroke-opacity:1;stroke-miterlimit:10;" d="M 0.391289 0.576758 C 0.391289 0.616758 0.331289 0.616758 0.331289 0.576758 C 0.331289 0.536758 0.391289 0.536758 0.391289 0.576758 " transform="matrix(100,0,0,100,600,150)"/>
<path style="fill:none;stroke-width:0.01;stroke-linecap:butt;stroke-linejoin:miter;stroke:rgb(0%,0%,0%);stroke-opacity:1;stroke-miterlimit:10;" d="M 0.414883 0.216641 C 0.414883 0.256641 0.354883 0.256641 0.354883 0.216641 C 0.354883 0.176641 0.414883 0.176641 0.414883 0.216641 " transform="matrix(100,0,0,100,600,150)"/>
<path style="fill:none;stroke-width:0.01;stroke-linecap:butt;stroke-linejoin:miter;stroke:rgb(0%,0%,0%);stroke-opacity:1;stroke-miterlimit:10;" d="M 0.361289 0.576758 L 0.343555 0.39375 L 0.384883 0.216641 " transform="matrix(100,0,0,100,600,150)"/>
<path style="fill:none;stroke-width:0.002;stroke-linecap:butt;stroke-linejoin:miter;stroke:rgb(0%,0%,0%);stroke-opacity:1;stroke-miterlimit:10;" d="M 0.408516 0.511797 L 0.402578 0.311094 L 0.39668 0.405547 L 0.414414 0.57082 L 0.361289 0.576758 L 0.343555 0.39375 L 0.384883 0.216641 L 0.461641 0.175312 L 0.449805 0.0513672 L 0.520664 0.0454687 L 0.532461 0.163516 L 0.621016 0.204844 L 0.656445 0.387852 L 0.621016 0.582656 L 0.573789 0.576758 L 0.597422 0.399648 L 0.591484 0.299297 L 0.585586 0.511797 L 0.615117 0.765625 L 0.621016 0.948633 L 0.556094 0.954531 L 0.544258 0.771562 L 0.502969 0.612148 L 0.467539 0.759727 L 0.461641 0.954531 L 0.39668 0.948633 L 0.39668 0.771562 Z M 0.408516 0.511797 " transform="matrix(100,0,0,100,600,150)"/>
<path style=" stroke:none;fill-rule:nonzero;fill:rgb(0%,0%,0%);fill-opacity:1;" d="M 42.667969 340.554688 C 42.667969 344.554688 36.667969 344.554688 36.667969 340.554688 C 36.667969 336.554688 42.667969 336.554688 42.667969 340.554688 "/>
<path style="fill:none;stroke-width:0.01;stroke-linecap:butt;stroke-linejoin:miter;stroke:rgb(0%,0%,0%);stroke-opacity:1;stroke-miterlimit:10;" d="M 0.432578 0.311094 C 0.432578 0.351094 0.372578 0.351094 0.372578 0.311094 C 0.372578 0.271094 0.432578 0.271094 0.432578 0.311094 " transform="matrix(100,0,0,100,0,300)"/>
<path style="fill:none;stroke-width:0.01;stroke-linecap:butt;stroke-linejoin:miter;stroke:rgb(0%,0%,0%);stroke-opacity:1;stroke-miterlimit:10;" d="M 0.444414 0.57082 C 0.444414 0.61082 0.384414 0.61082 0.384414 0.57082 C 0.384414 0.53082 0.444414 0.53082 0.444414 0.57082 " transform="matrix(100,0,0,100,0,300)"/>
<path style="fill:none;stroke-width:0.01;stroke-linecap:butt;stroke-linejoin:miter;stroke:rgb(0%,0%,0%);stroke-opacity:1;stroke-miterlimit:10;" d="M 0.402578 0.311094 L 0.39668 0.405547 L 0.414414 0.57082 " transform="matrix(100,0,0,100,0,300)"/>
<path style="fill:none;stroke-width:0.002;stroke-linecap:butt;stroke-linejoin:miter;stroke:rgb(0%,0%,0%);stroke-opacity:1;stroke-miterlimit:10;" d="M 0.408516 0.511797 L 0.402578 0.311094 L 0.39668 0.405547 L 0.414414 0.57082 L 0.361289 0.576758 L 0.343555 0.39375 L 0.384883 0.216641 L 0.461641 0.175312 L 0.449805 0.0513672 L 0.520664 0.0454687 L 0.532461 0.163516 L 0.621016 0.204844 L 0.656445 0.387852 L 0.621016 0.582656 L 0.573789 0.576758 L 0.597422 0.399648 L 0.591484 0.299297 L 0.585586 0.511797 L 0.615117 0.765625 L 0.621016 0.948633 L 0.556094 0.954531 L 0.544258 0.771562 L 0.502969 0.612148 L 0.467539 0.759727 L 0.461641 0.954531 L 0.39668 0.948633 L 0.39668 0.771562 Z M 0.408516 0.511797 " transform="matrix(100,0,0,100,0,300)"/>
<path style=" stroke:none;fill-rule:nonzero;fill:rgb(0%,0%,0%);fill-opacity:1;" d="M 206.246094 316.351562 C 206.246094 320.351562 200.246094 320.351562 200.246094 316.351562 C 200.246094 312.351562 206.246094 312.351562 206.246094 316.351562 "/>
<path style="fill:none;stroke-width:0.01;stroke-linecap:butt;stroke-linejoin:miter;stroke:rgb(0%,0%,0%);stroke-opacity:1;stroke-miterlimit:10;" d="M 0.491641 0.175312 C 0.491641 0.215313 0.431641 0.215313 0.431641 0.175312 C 0.431641 0.135312 0.491641 0.135312 0.491641 0.175312 " transform="matrix(100,0,0,100,150,300)"/>
<path style="fill:none;stroke-width:0.01;stroke-linecap:butt;stroke-linejoin:miter;stroke:rgb(0%,0%,0%);stroke-opacity:1;stroke-miterlimit:10;" d="M 0.651016 0.204844 C 0.651016 0.244844 0.591016 0.244844 0.591016 0.204844 C 0.591016 0.164844 0.651016 0.164844 0.651016 0.204844 " transform="matrix(100,0,0,100,150,300)"/>
<path style="fill:none;stroke-width:0.01;stroke-linecap:butt;stroke-linejoin:miter;stroke:rgb(0%,0%,0%);stroke-opacity:1;stroke-miterlimit:10;" d="M 0.461641 0.175312 L 0.449805 0.0513672 L 0.520664 0.0454687 L 0.532461 0.163516 L 0.621016 0.204844 " transform="matrix(100,0,0,100,150,300)"/>
<path style="fill:none;stroke-width:0.002;stroke-linecap:butt;stroke-linejoin:miter;stroke:rgb(0%,0%,0%);stroke-opacity:1;stroke-miterlimit:10;" d="M 0.408516 0.511797 L 0.402578 0.311094 L 0.39668 0.405547 L 0.414414 0.57082 L 0.361289 0.576758 L 0.343555 0.39375 L 0.384883 0.216641 L 0.461641 0.175312 L 0.449805 0.0513672 L 0.520664 0.0454687 L 0.532461 0.163516 L 0.621016 0.204844 L 0.656445 0.387852 L 0.621016 0.582656 L 0.573789 0.576758 L 0.597422 0.399648 L 0.591484 0.299297 L 0.585586 0.511797 L 0.615117 0.765625 L 0.621016 0.948633 L 0.556094 0.954531 L 0.544258 0.771562 L 0.502969 0.612148 L 0.467539 0.759727 L 0.461641 0.954531 L 0.39668 0.948633 L 0.39668 0.771562 Z M 0.408516 0.511797 " transform="matrix(100,0,0,100,150,300)"/>
<path style=" stroke:none;fill-rule:nonzero;fill:rgb(0%,0%,0%);fill-opacity:1;" d="M 355.066406 304.546875 C 355.066406 308.546875 349.066406 308.546875 349.066406 304.546875 C 349.066406 300.546875 355.066406 300.546875 355.066406 304.546875 "/>
<path style="fill:none;stroke-width:0.01;stroke-linecap:butt;stroke-linejoin:miter;stroke:rgb(0%,0%,0%);stroke-opacity:1;stroke-miterlimit:10;" d="M 0.491641 0.175312 C 0.491641 0.215313 0.431641 0.215313 0.431641 0.175312 C 0.431641 0.135312 0.491641 0.135312 0.491641 0.175312 " transform="matrix(100,0,0,100,300,300)"/>
<path style="fill:none;stroke-width:0.01;stroke-linecap:butt;stroke-linejoin:miter;stroke:rgb(0%,0%,0%);stroke-opacity:1;stroke-miterlimit:10;" d="M 0.562461 0.163516 C 0.562461 0.203516 0.502461 0.203516 0.502461 0.163516 C 0.502461 0.123516 0.562461 0.123516 0.562461 0.163516 " transform="matrix(100,0,0,100,300,300)"/>
<path style="fill:none;stroke-width:0.01;stroke-linecap:butt;stroke-linejoin:miter;stroke:rgb(0%,0%,0%);stroke-opacity:1;stroke-miterlimit:10;" d="M 0.461641 0.175312 L 0.449805 0.0513672 L 0.520664 0.0454687 L 0.532461 0.163516 " transform="matrix(100,0,0,100,300,300)"/>
<path style="fill:none;stroke-width:0.002;stroke-linecap:butt;stroke-linejoin:miter;stroke:rgb(0%,0%,0%);stroke-opacity:1;stroke-miterlimit:10;" d="M 0.408516 0.511797 L 0.402578 0.311094 L 0.39668 0.405547 L 0.414414 0.57082 L 0.361289 0.576758 L 0.343555 0.39375 L 0.384883 0.216641 L 0.461641 0.175312 L 0.449805 0.0513672 L 0.520664 0.0454687 L 0.532461 0.163516 L 0.621016 0.204844 L 0.656445 0.387852 L 0.621016 0.582656 L 0.573789 0.576758 L 0.597422 0.399648 L 0.591484 0.299297 L 0.585586 0.511797 L 0.615117 0.765625 L 0.621016 0.948633 L 0.556094 0.954531 L 0.544258 0.771562 L 0.502969 0.612148 L 0.467539 0.759727 L 0.461641 0.954531 L 0.39668 0.948633 L 0.39668 0.771562 Z M 0.408516 0.511797 " transform="matrix(100,0,0,100,300,300)"/>
<path style=" stroke:none;fill-rule:nonzero;fill:rgb(0%,0%,0%);fill-opacity:1;" d="M 497.980469 305.136719 C 497.980469 309.136719 491.980469 309.136719 491.980469 305.136719 C 491.980469 301.136719 497.980469 301.136719 497.980469 305.136719 "/>
<path style="fill:none;stroke-width:0.01;stroke-linecap:butt;stroke-linejoin:miter;stroke:rgb(0%,0%,0%);stroke-opacity:1;stroke-miterlimit:10;" d="M 0.491641 0.175312 C 0.491641 0.215313 0.431641 0.215313 0.431641 0.175312 C 0.431641 0.135312 0.491641 0.135312 0.491641 0.175312 " transform="matrix(100,0,0,100,450,300)"/>
<path style="fill:none;stroke-width:0.01;stroke-linecap:butt;stroke-linejoin:miter;stroke:rgb(0%,0%,0%);stroke-opacity:1;stroke-miterlimit:10;" d="M 0.550664 0.0454687 C 0.550664 0.0854687 0.490664 0.0854687 0.490664 0.0454687 C 0.490664 0.00546875 0.550664 0.00546875 0.550664 0.0454687 " transform="matrix(100,0,0,100,450,300)"/>
<path style="fill:none;stroke-width:0.01;stroke-linecap:butt;stroke-linejoin:miter;stroke:rgb(0%,0%,0%);stroke-opacity:1;stroke-miterlimit:10;" d="M 0.461641 0.175312 L 0.449805 0.0513672 L 0.520664 0.0454687 " transform="matrix(100,0,0,100,450,300)"/>
<path style="fill:none;stroke-width:0.002;stroke-linecap:butt;stroke-linejoin:miter;stroke:rgb(0%,0%,0%);stroke-opacity:1;stroke-miterlimit:10;" d="M 0.408516 0.511797 L 0.402578 0.311094 L 0.39668 0.405547 L 0.414414 0.57082 L 0.361289 0.576758 L 0.343555 0.39375 L 0.384883 0.216641 L 0.461641 0.175312 L 0.449805 0.0513672 L 0.520664 0.0454687 L 0.532461 0.163516 L 0.621016 0.204844 L 0.656445 0.387852 L 0.621016 0.582656 L 0.573789 0.576758 L 0.597422 0.399648 L 0.591484 0.299297 L 0.585586 0.511797 L 0.615117 0.765625 L 0.621016 0.948633 L 0.556094 0.954531 L 0.544258 0.771562 L 0.502969 0.612148 L 0.467539 0.759727 L 0.461641 0.954531 L 0.39668 0.948633 L 0.39668 0.771562 Z M 0.408516 0.511797 " transform="matrix(100,0,0,100,450,300)"/>
<path style=" stroke:none;fill-rule:nonzero;fill:rgb(0%,0%,0%);fill-opacity:1;" d="M 665.101562 358.265625 C 665.101562 362.265625 659.101562 362.265625 659.101562 358.265625 C 659.101562 354.265625 665.101562 354.265625 665.101562 358.265625 "/>
<path style="fill:none;stroke-width:0.01;stroke-linecap:butt;stroke-linejoin:miter;stroke:rgb(0%,0%,0%);stroke-opacity:1;stroke-miterlimit:10;" d="M 0.651016 0.204844 C 0.651016 0.244844 0.591016 0.244844 0.591016 0.204844 C 0.591016 0.164844 0.651016 0.164844 0.651016 0.204844 " transform="matrix(100,0,0,100,600,300)"/>
<path style="fill:none;stroke-width:0.01;stroke-linecap:butt;stroke-linejoin:miter;stroke:rgb(0%,0%,0%);stroke-opacity:1;stroke-miterlimit:10;" d="M 0.621484 0.299297 C 0.621484 0.339297 0.561484 0.339297 0.561484 0.299297 C 0.561484 0.259297 0.621484 0.259297 0.621484 0.299297 " transform="matrix(100,0,0,100,600,300)"/>
<path style="fill:none;stroke-width:0.01;stroke-linecap:butt;stroke-linejoin:miter;stroke:rgb(0%,0%,0%);stroke-opacity:1;stroke-miterlimit:10;" d="M 0.621016 0.204844 L 0.656445 0.387852 L 0.621016 0.582656 L 0.573789 0.576758 L 0.597422 0.399648 L 0.591484 0.299297 " transform="matrix(100,0,0,100,600,300)"/>
<path style="fill:none;stroke-width:0.002;stroke-linecap:butt;stroke-linejoin:miter;stroke:rgb(0%,0%,0%);stroke-opacity:1;stroke-miterlimit:10;" d="M 0.408516 0.511797 L 0.402578 0.311094 L 0.39668 0.405547 L 0.414414 0.57082 L 0.361289 0.576758 L 0.343555 0.39375 L 0.384883 0.216641 L 0.461641 0.175312 L 0.449805 0.0513672 L 0.520664 0.0454687 L 0.532461 0.163516 L 0.621016 0.204844 L 0.656445 0.387852 L 0.621016 0.582656 L 0.573789 0.576758 L 0.597422 0.399648 L 0.591484 0.299297 L 0.585586 0.511797 L 0.615117 0.765625 L 0.621016 0.948633 L 0.556094 0.954531 L 0.544258 0.771562 L 0.502969 0.612148 L 0.467539 0.759727 L 0.461641 0.954531 L 0.39668 0.948633 L 0.39668 0.771562 Z M 0.408516 0.511797 " transform="matrix(100,0,0,100,600,300)"/>
<path style=" stroke:none;fill-rule:nonzero;fill:rgb(0%,0%,0%);fill-opacity:1;" d="M 68.644531 488.785156 C 68.644531 492.785156 62.644531 492.785156 62.644531 488.785156 C 62.644531 484.785156 68.644531 484.785156 68.644531 488.785156 "/>
<path style="fill:none;stroke-width:0.01;stroke-linecap:butt;stroke-linejoin:miter;stroke:rgb(0%,0%,0%);stroke-opacity:1;stroke-miterlimit:10;" d="M 0.651016 0.204844 C 0.651016 0.244844 0.591016 0.244844 0.591016 0.204844 C 0.591016 0.164844 0.651016 0.164844 0.651016 0.204844 " transform="matrix(100,0,0,100,0,450)"/>
<path style="fill:none;stroke-width:0.01;stroke-linecap:butt;stroke-linejoin:miter;stroke:rgb(0%,0%,0%);stroke-opacity:1;stroke-miterlimit:10;" d="M 0.651016 0.582656 C 0.651016 0.622656 0.591016 0.622656 0.591016 0.582656 C 0.591016 0.542656 0.651016 0.542656 0.651016 0.582656 " transform="matrix(100,0,0,100,0,450)"/>
<path style="fill:none;stroke-width:0.01;stroke-linecap:butt;stroke-linejoin:miter;stroke:rgb(0%,0%,0%);stroke-opacity:1;stroke-miterlimit:10;" d="M 0.621016 0.204844 L 0.656445 0.387852 L 0.621016 0.582656 " transform="matrix(100,0,0,100,0,450)"/>
<path style="fill:none;stroke-width:0.002;stroke-linecap:butt;stroke-linejoin:miter;stroke:rgb(0%,0%,0%);stroke-opacity:1;stroke-miterlimit:10;" d="M 0.408516 0.511797 L 0.402578 0.311094 L 0.39668 0.405547 L 0.414414 0.57082 L 0.361289 0.576758 L 0.343555 0.39375 L 0.384883 0.216641 L 0.461641 0.175313 L 0.449805 0.0513672 L 0.520664 0.0454688 L 0.532461 0.163516 L 0.621016 0.204844 L 0.656445 0.387852 L 0.621016 0.582656 L 0.573789 0.576758 L 0.597422 0.399648 L 0.591484 0.299297 L 0.585586 0.511797 L 0.615117 0.765625 L 0.621016 0.948633 L 0.556094 0.954531 L 0.544258 0.771562 L 0.502969 0.612148 L 0.467539 0.759727 L 0.461641 0.954531 L 0.39668 0.948633 L 0.39668 0.771562 Z M 0.408516 0.511797 " transform="matrix(100,0,0,100,0,450)"/>
<path style=" stroke:none;fill-rule:nonzero;fill:rgb(0%,0%,0%);fill-opacity:1;" d="M 210.378906 507.675781 C 210.378906 511.675781 204.378906 511.675781 204.378906 507.675781 C 204.378906 503.675781 210.378906 503.675781 210.378906 507.675781 "/>
<path style="fill:none;stroke-width:0.01;stroke-linecap:butt;stroke-linejoin:miter;stroke:rgb(0%,0%,0%);stroke-opacity:1;stroke-miterlimit:10;" d="M 0.651016 0.582656 C 0.651016 0.622656 0.591016 0.622656 0.591016 0.582656 C 0.591016 0.542656 0.651016 0.542656 0.651016 0.582656 " transform="matrix(100,0,0,100,150,450)"/>
<path style="fill:none;stroke-width:0.01;stroke-linecap:butt;stroke-linejoin:miter;stroke:rgb(0%,0%,0%);stroke-opacity:1;stroke-miterlimit:10;" d="M 0.621484 0.299297 C 0.621484 0.339297 0.561484 0.339297 0.561484 0.299297 C 0.561484 0.259297 0.621484 0.259297 0.621484 0.299297 " transform="matrix(100,0,0,100,150,450)"/>
<path style="fill:none;stroke-width:0.01;stroke-linecap:butt;stroke-linejoin:miter;stroke:rgb(0%,0%,0%);stroke-opacity:1;stroke-miterlimit:10;" d="M 0.621016 0.582656 L 0.573789 0.576758 L 0.597422 0.399648 L 0.591484 0.299297 " transform="matrix(100,0,0,100,150,450)"/>
<path style="fill:none;stroke-width:0.002;stroke-linecap:butt;stroke-linejoin:miter;stroke:rgb(0%,0%,0%);stroke-opacity:1;stroke-miterlimit:10;" d="M 0.408516 0.511797 L 0.402578 0.311094 L 0.39668 0.405547 L 0.414414 0.57082 L 0.361289 0.576758 L 0.343555 0.39375 L 0.384883 0.216641 L 0.461641 0.175313 L 0.449805 0.0513672 L 0.520664 0.0454688 L 0.532461 0.163516 L 0.621016 0.204844 L 0.656445 0.387852 L 0.621016 0.582656 L 0.573789 0.576758 L 0.597422 0.399648 L 0.591484 0.299297 L 0.585586 0.511797 L 0.615117 0.765625 L 0.621016 0.948633 L 0.556094 0.954531 L 0.544258 0.771562 L 0.502969 0.612148 L 0.467539 0.759727 L 0.461641 0.954531 L 0.39668 0.948633 L 0.39668 0.771562 Z M 0.408516 0.511797 " transform="matrix(100,0,0,100,150,450)"/>
<path style=" stroke:none;fill-rule:nonzero;fill:rgb(0%,0%,0%);fill-opacity:1;" d="M 362.742188 489.964844 C 362.742188 493.964844 356.742188 493.964844 356.742188 489.964844 C 356.742188 485.964844 362.742188 485.964844 362.742188 489.964844 "/>
<path style="fill:none;stroke-width:0.01;stroke-linecap:butt;stroke-linejoin:miter;stroke:rgb(0%,0%,0%);stroke-opacity:1;stroke-miterlimit:10;" d="M 0.603789 0.576758 C 0.603789 0.616758 0.543789 0.616758 0.543789 0.576758 C 0.543789 0.536758 0.603789 0.536758 0.603789 0.576758 " transform="matrix(100,0,0,100,300,450)"/>
<path style="fill:none;stroke-width:0.01;stroke-linecap:butt;stroke-linejoin:miter;stroke:rgb(0%,0%,0%);stroke-opacity:1;stroke-miterlimit:10;" d="M 0.621484 0.299297 C 0.621484 0.339297 0.561484 0.339297 0.561484 0.299297 C 0.561484 0.259297 0.621484 0.259297 0.621484 0.299297 " transform="matrix(100,0,0,100,300,450)"/>
<path style="fill:none;stroke-width:0.01;stroke-linecap:butt;stroke-linejoin:miter;stroke:rgb(0%,0%,0%);stroke-opacity:1;stroke-miterlimit:10;" d="M 0.573789 0.576758 L 0.597422 0.399648 L 0.591484 0.299297 " transform="matrix(100,0,0,100,300,450)"/>
<path style="fill:none;stroke-width:0.002;stroke-linecap:butt;stroke-linejoin:miter;stroke:rgb(0%,0%,0%);stroke-opacity:1;stroke-miterlimit:10;" d="M 0.408516 0.511797 L 0.402578 0.311094 L 0.39668 0.405547 L 0.414414 0.57082 L 0.361289 0.576758 L 0.343555 0.39375 L 0.384883 0.216641 L 0.461641 0.175313 L 0.449805 0.0513672 L 0.520664 0.0454688 L 0.532461 0.163516 L 0.621016 0.204844 L 0.656445 0.387852 L 0.621016 0.582656 L 0.573789 0.576758 L 0.597422 0.399648 L 0.591484 0.299297 L 0.585586 0.511797 L 0.615117 0.765625 L 0.621016 0.948633 L 0.556094 0.954531 L 0.544258 0.771562 L 0.502969 0.612148 L 0.467539 0.759727 L 0.461641 0.954531 L 0.39668 0.948633 L 0.39668 0.771562 Z M 0.408516 0.511797 " transform="matrix(100,0,0,100,300,450)"/>
<path style=" stroke:none;fill-rule:nonzero;fill:rgb(0%,0%,0%);fill-opacity:1;" d="M 515.101562 544.863281 C 515.101562 548.863281 509.101562 548.863281 509.101562 544.863281 C 509.101562 540.863281 515.101562 540.863281 515.101562 544.863281 "/>
<path style="fill:none;stroke-width:0.01;stroke-linecap:butt;stroke-linejoin:miter;stroke:rgb(0%,0%,0%);stroke-opacity:1;stroke-miterlimit:10;" d="M 0.615586 0.511797 C 0.615586 0.551797 0.555586 0.551797 0.555586 0.511797 C 0.555586 0.471797 0.615586 0.471797 0.615586 0.511797 " transform="matrix(100,0,0,100,450,450)"/>
<path style="fill:none;stroke-width:0.01;stroke-linecap:butt;stroke-linejoin:miter;stroke:rgb(0%,0%,0%);stroke-opacity:1;stroke-miterlimit:10;" d="M 0.532969 0.612148 C 0.532969 0.652148 0.472969 0.652148 0.472969 0.612148 C 0.472969 0.572148 0.532969 0.572148 0.532969 0.612148 " transform="matrix(100,0,0,100,450,450)"/>
<path style="fill:none;stroke-width:0.01;stroke-linecap:butt;stroke-linejoin:miter;stroke:rgb(0%,0%,0%);stroke-opacity:1;stroke-miterlimit:10;" d="M 0.585586 0.511797 L 0.615117 0.765625 L 0.621016 0.948633 L 0.556094 0.954531 L 0.544258 0.771562 L 0.502969 0.612148 " transform="matrix(100,0,0,100,450,450)"/>
<path style="fill:none;stroke-width:0.002;stroke-linecap:butt;stroke-linejoin:miter;stroke:rgb(0%,0%,0%);stroke-opacity:1;stroke-miterlimit:10;" d="M 0.408516 0.511797 L 0.402578 0.311094 L 0.39668 0.405547 L 0.414414 0.57082 L 0.361289 0.576758 L 0.343555 0.39375 L 0.384883 0.216641 L 0.461641 0.175313 L 0.449805 0.0513672 L 0.520664 0.0454688 L 0.532461 0.163516 L 0.621016 0.204844 L 0.656445 0.387852 L 0.621016 0.582656 L 0.573789 0.576758 L 0.597422 0.399648 L 0.591484 0.299297 L 0.585586 0.511797 L 0.615117 0.765625 L 0.621016 0.948633 L 0.556094 0.954531 L 0.544258 0.771562 L 0.502969 0.612148 L 0.467539 0.759727 L 0.461641 0.954531 L 0.39668 0.948633 L 0.39668 0.771562 Z M 0.408516 0.511797 " transform="matrix(100,0,0,100,450,450)"/>
<path style=" stroke:none;fill-rule:nonzero;fill:rgb(0%,0%,0%);fill-opacity:1;" d="M 649.164062 545.453125 C 649.164062 549.453125 643.164062 549.453125 643.164062 545.453125 C 643.164062 541.453125 649.164062 541.453125 649.164062 545.453125 "/>
<path style="fill:none;stroke-width:0.01;stroke-linecap:butt;stroke-linejoin:miter;stroke:rgb(0%,0%,0%);stroke-opacity:1;stroke-miterlimit:10;" d="M 0.532969 0.612148 C 0.532969 0.652148 0.472969 0.652148 0.472969 0.612148 C 0.472969 0.572148 0.532969 0.572148 0.532969 0.612148 " transform="matrix(100,0,0,100,600,450)"/>
<path style="fill:none;stroke-width:0.01;stroke-linecap:butt;stroke-linejoin:miter;stroke:rgb(0%,0%,0%);stroke-opacity:1;stroke-miterlimit:10;" d="M 0.438516 0.511797 C 0.438516 0.551797 0.378516 0.551797 0.378516 0.511797 C 0.378516 0.471797 0.438516 0.471797 0.438516 0.511797 " transform="matrix(100,0,0,100,600,450)"/>
<path style="fill:none;stroke-width:0.01;stroke-linecap:butt;stroke-linejoin:miter;stroke:rgb(0%,0%,0%);stroke-opacity:1;stroke-miterlimit:10;" d="M 0.502969 0.612148 L 0.467539 0.759727 L 0.461641 0.954531 L 0.39668 0.948633 L 0.39668 0.771562 L 0.408516 0.511797 " transform="matrix(100,0,0,100,600,450)"/>
<path style="fill:none;stroke-width:0.002;stroke-linecap:butt;stroke-linejoin:miter;stroke:rgb(0%,0%,0%);stroke-opacity:1;stroke-miterlimit:10;" d="M 0.408516 0.511797 L 0.402578 0.311094 L 0.39668 0.405547 L 0.414414 0.57082 L 0.361289 0.576758 L 0.343555 0.39375 L 0.384883 0.216641 L 0.461641 0.175313 L 0.449805 0.0513672 L 0.520664 0.0454688 L 0.532461 0.163516 L 0.621016 0.204844 L 0.656445 0.387852 L 0.621016 0.582656 L 0.573789 0.576758 L 0.597422 0.399648 L 0.591484 0.299297 L 0.585586 0.511797 L 0.615117 0.765625 L 0.621016 0.948633 L 0.556094 0.954531 L 0.544258 0.771562 L 0.502969 0.612148 L 0.467539 0.759727 L 0.461641 0.954531 L 0.39668 0.948633 L 0.39668 0.771562 Z M 0.408516 0.511797 " transform="matrix(100,0,0,100,600,450)"/>
<path style=" stroke:none;fill-rule:nonzero;fill:rgb(0%,0%,0%);fill-opacity:1;" d="M 64.511719 676.5625 C 64.511719 680.5625 58.511719 680.5625 58.511719 676.5625 C 58.511719 672.5625 64.511719 672.5625 64.511719 676.5625 "/>
<path style="fill:none;stroke-width:0.01;stroke-linecap:butt;stroke-linejoin:miter;stroke:rgb(0%,0%,0%);stroke-opacity:1;stroke-miterlimit:10;" d="M 0.615586 0.511797 C 0.615586 0.551797 0.555586 0.551797 0.555586 0.511797 C 0.555586 0.471797 0.615586 0.471797 0.615586 0.511797 " transform="matrix(100,0,0,100,0,600)"/>
<path style="fill:none;stroke-width:0.01;stroke-linecap:butt;stroke-linejoin:miter;stroke:rgb(0%,0%,0%);stroke-opacity:1;stroke-miterlimit:10;" d="M 0.651016 0.948633 C 0.651016 0.988633 0.591016 0.988633 0.591016 0.948633 C 0.591016 0.908633 0.651016 0.908633 0.651016 0.948633 " transform="matrix(100,0,0,100,0,600)"/>
<path style="fill:none;stroke-width:0.01;stroke-linecap:butt;stroke-linejoin:miter;stroke:rgb(0%,0%,0%);stroke-opacity:1;stroke-miterlimit:10;" d="M 0.585586 0.511797 L 0.615117 0.765625 L 0.621016 0.948633 " transform="matrix(100,0,0,100,0,600)"/>
<path style="fill:none;stroke-width:0.002;stroke-linecap:butt;stroke-linejoin:miter;stroke:rgb(0%,0%,0%);stroke-opacity:1;stroke-miterlimit:10;" d="M 0.408516 0.511797 L 0.402578 0.311094 L 0.39668 0.405547 L 0.414414 0.57082 L 0.361289 0.576758 L 0.343555 0.39375 L 0.384883 0.216641 L 0.461641 0.175313 L 0.449805 0.0513672 L 0.520664 0.0454688 L 0.532461 0.163516 L 0.621016 0.204844 L 0.656445 0.387852 L 0.621016 0.582656 L 0.573789 0.576758 L 0.597422 0.399648 L 0.591484 0.299297 L 0.585586 0.511797 L 0.615117 0.765625 L 0.621016 0.948633 L 0.556094 0.954531 L 0.544258 0.771562 L 0.502969 0.612148 L 0.467539 0.759727 L 0.461641 0.954531 L 0.39668 0.948633 L 0.39668 0.771562 Z M 0.408516 0.511797 " transform="matrix(100,0,0,100,0,600)"/>
<path style=" stroke:none;fill-rule:nonzero;fill:rgb(0%,0%,0%);fill-opacity:1;" d="M 208.609375 695.453125 C 208.609375 699.453125 202.609375 699.453125 202.609375 695.453125 C 202.609375 691.453125 208.609375 691.453125 208.609375 695.453125 "/>
<path style="fill:none;stroke-width:0.01;stroke-linecap:butt;stroke-linejoin:miter;stroke:rgb(0%,0%,0%);stroke-opacity:1;stroke-miterlimit:10;" d="M 0.651016 0.948633 C 0.651016 0.988633 0.591016 0.988633 0.591016 0.948633 C 0.591016 0.908633 0.651016 0.908633 0.651016 0.948633 " transform="matrix(100,0,0,100,150,600)"/>
<path style="fill:none;stroke-width:0.01;stroke-linecap:butt;stroke-linejoin:miter;stroke:rgb(0%,0%,0%);stroke-opacity:1;stroke-miterlimit:10;" d="M 0.532969 0.612148 C 0.532969 0.652148 0.472969 0.652148 0.472969 0.612148 C 0.472969 0.572148 0.532969 0.572148 0.532969 0.612148 " transform="matrix(100,0,0,100,150,600)"/>
<path style="fill:none;stroke-width:0.01;stroke-linecap:butt;stroke-linejoin:miter;stroke:rgb(0%,0%,0%);stroke-opacity:1;stroke-miterlimit:10;" d="M 0.621016 0.948633 L 0.556094 0.954531 L 0.544258 0.771562 L 0.502969 0.612148 " transform="matrix(100,0,0,100,150,600)"/>
<path style="fill:none;stroke-width:0.002;stroke-linecap:butt;stroke-linejoin:miter;stroke:rgb(0%,0%,0%);stroke-opacity:1;stroke-miterlimit:10;" d="M 0.408516 0.511797 L 0.402578 0.311094 L 0.39668 0.405547 L 0.414414 0.57082 L 0.361289 0.576758 L 0.343555 0.39375 L 0.384883 0.216641 L 0.461641 0.175313 L 0.449805 0.0513672 L 0.520664 0.0454688 L 0.532461 0.163516 L 0.621016 0.204844 L 0.656445 0.387852 L 0.621016 0.582656 L 0.573789 0.576758 L 0.597422 0.399648 L 0.591484 0.299297 L 0.585586 0.511797 L 0.615117 0.765625 L 0.621016 0.948633 L 0.556094 0.954531 L 0.544258 0.771562 L 0.502969 0.612148 L 0.467539 0.759727 L 0.461641 0.954531 L 0.39668 0.948633 L 0.39668 0.771562 Z M 0.408516 0.511797 " transform="matrix(100,0,0,100,150,600)"/>
<path style=" stroke:none;fill-rule:nonzero;fill:rgb(0%,0%,0%);fill-opacity:1;" d="M 357.425781 677.15625 C 357.425781 681.15625 351.425781 681.15625 351.425781 677.15625 C 351.425781 673.15625 357.425781 673.15625 357.425781 677.15625 "/>
<path style="fill:none;stroke-width:0.01;stroke-linecap:butt;stroke-linejoin:miter;stroke:rgb(0%,0%,0%);stroke-opacity:1;stroke-miterlimit:10;" d="M 0.586094 0.954531 C 0.586094 0.994531 0.526094 0.994531 0.526094 0.954531 C 0.526094 0.914531 0.586094 0.914531 0.586094 0.954531 " transform="matrix(100,0,0,100,300,600)"/>
<path style="fill:none;stroke-width:0.01;stroke-linecap:butt;stroke-linejoin:miter;stroke:rgb(0%,0%,0%);stroke-opacity:1;stroke-miterlimit:10;" d="M 0.532969 0.612148 C 0.532969 0.652148 0.472969 0.652148 0.472969 0.612148 C 0.472969 0.572148 0.532969 0.572148 0.532969 0.612148 " transform="matrix(100,0,0,100,300,600)"/>
<path style="fill:none;stroke-width:0.01;stroke-linecap:butt;stroke-linejoin:miter;stroke:rgb(0%,0%,0%);stroke-opacity:1;stroke-miterlimit:10;" d="M 0.556094 0.954531 L 0.544258 0.771562 L 0.502969 0.612148 " transform="matrix(100,0,0,100,300,600)"/>
<path style="fill:none;stroke-width:0.002;stroke-linecap:butt;stroke-linejoin:miter;stroke:rgb(0%,0%,0%);stroke-opacity:1;stroke-miterlimit:10;" d="M 0.408516 0.511797 L 0.402578 0.311094 L 0.39668 0.405547 L 0.414414 0.57082 L 0.361289 0.576758 L 0.343555 0.39375 L 0.384883 0.216641 L 0.461641 0.175313 L 0.449805 0.0513672 L 0.520664 0.0454688 L 0.532461 0.163516 L 0.621016 0.204844 L 0.656445 0.387852 L 0.621016 0.582656 L 0.573789 0.576758 L 0.597422 0.399648 L 0.591484 0.299297 L 0.585586 0.511797 L 0.615117 0.765625 L 0.621016 0.948633 L 0.556094 0.954531 L 0.544258 0.771562 L 0.502969 0.612148 L 0.467539 0.759727 L 0.461641 0.954531 L 0.39668 0.948633 L 0.39668 0.771562 Z M 0.408516 0.511797 " transform="matrix(100,0,0,100,300,600)"/>
<path style=" stroke:none;fill-rule:nonzero;fill:rgb(0%,0%,0%);fill-opacity:1;" d="M 499.753906 675.972656 C 499.753906 679.972656 493.753906 679.972656 493.753906 675.972656 C 493.753906 671.972656 499.753906 671.972656 499.753906 675.972656 "/>
<path style="fill:none;stroke-width:0.01;stroke-linecap:butt;stroke-linejoin:miter;stroke:rgb(0%,0%,0%);stroke-opacity:1;stroke-miterlimit:10;" d="M 0.532969 0.612148 C 0.532969 0.652148 0.472969 0.652148 0.472969 0.612148 C 0.472969 0.572148 0.532969 0.572148 0.532969 0.612148 " transform="matrix(100,0,0,100,450,600)"/>
<path style="fill:none;stroke-width:0.01;stroke-linecap:butt;stroke-linejoin:miter;stroke:rgb(0%,0%,0%);stroke-opacity:1;stroke-miterlimit:10;" d="M 0.491641 0.954531 C 0.491641 0.994531 0.431641 0.994531 0.431641 0.954531 C 0.431641 0.914531 0.491641 0.914531 0.491641 0.954531 " transform="matrix(100,0,0,100,450,600)"/>
<path style="fill:none;stroke-width:0.01;stroke-linecap:butt;stroke-linejoin:miter;stroke:rgb(0%,0%,0%);stroke-opacity:1;stroke-miterlimit:10;" d="M 0.502969 0.612148 L 0.467539 0.759727 L 0.461641 0.954531 " transform="matrix(100,0,0,100,450,600)"/>
<path style="fill:none;stroke-width:0.002;stroke-linecap:butt;stroke-linejoin:miter;stroke:rgb(0%,0%,0%);stroke-opacity:1;stroke-miterlimit:10;" d="M 0.408516 0.511797 L 0.402578 0.311094 L 0.39668 0.405547 L 0.414414 0.57082 L 0.361289 0.576758 L 0.343555 0.39375 L 0.384883 0.216641 L 0.461641 0.175313 L 0.449805 0.0513672 L 0.520664 0.0454688 L 0.532461 0.163516 L 0.621016 0.204844 L 0.656445 0.387852 L 0.621016 0.582656 L 0.573789 0.576758 L 0.597422 0.399648 L 0.591484 0.299297 L 0.585586 0.511797 L 0.615117 0.765625 L 0.621016 0.948633 L 0.556094 0.954531 L 0.544258 0.771562 L 0.502969 0.612148 L 0.467539 0.759727 L 0.461641 0.954531 L 0.39668 0.948633 L 0.39668 0.771562 Z M 0.408516 0.511797 " transform="matrix(100,0,0,100,450,600)"/>
<path style=" stroke:none;fill-rule:nonzero;fill:rgb(0%,0%,0%);fill-opacity:1;" d="M 642.667969 694.863281 C 642.667969 698.863281 636.667969 698.863281 636.667969 694.863281 C 636.667969 690.863281 642.667969 690.863281 642.667969 694.863281 "/>
<path style="fill:none;stroke-width:0.01;stroke-linecap:butt;stroke-linejoin:miter;stroke:rgb(0%,0%,0%);stroke-opacity:1;stroke-miterlimit:10;" d="M 0.491641 0.954531 C 0.491641 0.994531 0.431641 0.994531 0.431641 0.954531 C 0.431641 0.914531 0.491641 0.914531 0.491641 0.954531 " transform="matrix(100,0,0,100,600,600)"/>
<path style="fill:none;stroke-width:0.01;stroke-linecap:butt;stroke-linejoin:miter;stroke:rgb(0%,0%,0%);stroke-opacity:1;stroke-miterlimit:10;" d="M 0.438516 0.511797 C 0.438516 0.551797 0.378516 0.551797 0.378516 0.511797 C 0.378516 0.471797 0.438516 0.471797 0.438516 0.511797 " transform="matrix(100,0,0,100,600,600)"/>
<path style="fill:none;stroke-width:0.01;stroke-linecap:butt;stroke-linejoin:miter;stroke:rgb(0%,0%,0%);stroke-opacity:1;stroke-miterlimit:10;" d="M 0.461641 0.954531 L 0.39668 0.948633 L 0.39668 0.771562 L 0.408516 0.511797 " transform="matrix(100,0,0,100,600,600)"/>
<path style="fill:none;stroke-width:0.002;stroke-linecap:butt;stroke-linejoin:miter;stroke:rgb(0%,0%,0%);stroke-opacity:1;stroke-miterlimit:10;" d="M 0.408516 0.511797 L 0.402578 0.311094 L 0.39668 0.405547 L 0.414414 0.57082 L 0.361289 0.576758 L 0.343555 0.39375 L 0.384883 0.216641 L 0.461641 0.175313 L 0.449805 0.0513672 L 0.520664 0.0454688 L 0.532461 0.163516 L 0.621016 0.204844 L 0.656445 0.387852 L 0.621016 0.582656 L 0.573789 0.576758 L 0.597422 0.399648 L 0.591484 0.299297 L 0.585586 0.511797 L 0.615117 0.765625 L 0.621016 0.948633 L 0.556094 0.954531 L 0.544258 0.771562 L 0.502969 0.612148 L 0.467539 0.759727 L 0.461641 0.954531 L 0.39668 0.948633 L 0.39668 0.771562 Z M 0.408516 0.511797 " transform="matrix(100,0,0,100,600,600)"/>
<path style=" stroke:none;fill-rule:nonzero;fill:rgb(0%,0%,0%);fill-opacity:1;" d="M 42.667969 827.15625 C 42.667969 831.15625 36.667969 831.15625 36.667969 827.15625 C 36.667969 823.15625 42.667969 823.15625 42.667969 827.15625 "/>
<path style="fill:none;stroke-width:0.01;stroke-linecap:butt;stroke-linejoin:miter;stroke:rgb(0%,0%,0%);stroke-opacity:1;stroke-miterlimit:10;" d="M 0.42668 0.948633 C 0.42668 0.988633 0.36668 0.988633 0.36668 0.948633 C 0.36668 0.908633 0.42668 0.908633 0.42668 0.948633 " transform="matrix(100,0,0,100,0,750)"/>
<path style="fill:none;stroke-width:0.01;stroke-linecap:butt;stroke-linejoin:miter;stroke:rgb(0%,0%,0%);stroke-opacity:1;stroke-miterlimit:10;" d="M 0.438516 0.511797 C 0.438516 0.551797 0.378516 0.551797 0.378516 0.511797 C 0.378516 0.471797 0.438516 0.471797 0.438516 0.511797 " transform="matrix(100,0,0,100,0,750)"/>
<path style="fill:none;stroke-width:0.01;stroke-linecap:butt;stroke-linejoin:miter;stroke:rgb(0%,0%,0%);stroke-opacity:1;stroke-miterlimit:10;" d="M 0.39668 0.948633 L 0.39668 0.771562 L 0.408516 0.511797 " transform="matrix(100,0,0,100,0,750)"/>
<path style="fill:none;stroke-width:0.002;stroke-linecap:butt;stroke-linejoin:miter;stroke:rgb(0%,0%,0%);stroke-opacity:1;stroke-miterlimit:10;" d="M 0.408516 0.511797 L 0.402578 0.311094 L 0.39668 0.405547 L 0.414414 0.57082 L 0.361289 0.576758 L 0.343555 0.39375 L 0.384883 0.216641 L 0.461641 0.175313 L 0.449805 0.0513672 L 0.520664 0.0454688 L 0.532461 0.163516 L 0.621016 0.204844 L 0.656445 0.387852 L 0.621016 0.582656 L 0.573789 0.576758 L 0.597422 0.399648 L 0.591484 0.299297 L 0.585586 0.511797 L 0.615117 0.765625 L 0.621016 0.948633 L 0.556094 0.954531 L 0.544258 0.771562 L 0.502969 0.612148 L 0.467539 0.759727 L 0.461641 0.954531 L 0.39668 0.948633 L 0.39668 0.771562 Z M 0.408516 0.511797 " transform="matrix(100,0,0,100,0,750)"/>
</g>
</svg>
