<?xml version="1.0" encoding="UTF-8"?>
<svg xmlns="http://www.w3.org/2000/svg" xmlns:xlink="http://www.w3.org/1999/xlink" width="100pt" height="100pt" viewBox="0 0 100 100" version="1.1">
<g id="surface1">
<path style="fill:none;stroke-width:0.01;stroke-linecap:butt;stroke-linejoin:miter;stroke:rgb(0%,0%,0%);stroke-opacity:1;stroke-miterlimit:10;" d="M 0.408516 0.511797 L 0.402578 0.311094 L 0.39668 0.405547 L 0.414414 0.57082 L 0.361289 0.576758 L 0.343555 0.39375 L 0.384883 0.216641 L 0.461641 0.175313 L 0.449805 0.0513672 L 0.520664 0.0454688 L 0.532461 0.163516 L 0.621016 0.204844 L 0.656445 0.387852 L 0.621016 0.582656 L 0.573789 0.576758 L 0.597422 0.399648 L 0.591484 0.299297 L 0.585586 0.511797 L 0.615117 0.765625 L 0.621016 0.948633 L 0.556094 0.954531 L 0.544258 0.771563 L 0.502969 0.612148 L 0.467539 0.759727 L 0.461641 0.954531 L 0.39668 0.948633 L 0.39668 0.771563 Z M 0.408516 0.511797 " transform="matrix(100,0,0,100,0,0)"/>
</g>
</svg>
