<?xml version="1.0" encoding="UTF-8"?>
<svg xmlns="http://www.w3.org/2000/svg" xmlns:xlink="http://www.w3.org/1999/xlink" width="100pt" height="100pt" viewBox="0 0 100 100" version="1.1">
<g id="surface1">
<path style="fill:none;stroke-width:0.01;stroke-linecap:butt;stroke-linejoin:miter;stroke:rgb(0%,0%,0%);stroke-opacity:1;stroke-miterlimit:10;" d="M 0.402578 0.511797 L 0.39668 0.311094 L 0.390781 0.405547 L 0.408516 0.57082 L 0.355391 0.576758 L 0.337656 0.39375 L 0.378984 0.216641 L 0.455742 0.175313 L 0.443906 0.0513672 L 0.514766 0.0454688 L 0.526563 0.163516 L 0.615117 0.204844 L 0.650547 0.387852 L 0.615117 0.582656 L 0.567891 0.576758 L 0.591484 0.399648 L 0.585586 0.299297 L 0.579688 0.511797 L 0.685937 0.765625 L 0.609219 0.765625 L 0.615117 0.948633 L 0.550195 0.954531 L 0.538359 0.765625 L 0.461641 0.765625 L 0.455742 0.954531 L 0.390781 0.948633 L 0.390781 0.765625 L 0.314063 0.765625 Z M 0.402578 0.511797 " transform="matrix(100,0,0,100,0,0)"/>
</g>
</svg>
