<?xml version="1.0" encoding="UTF-8"?>
<svg xmlns="http://www.w3.org/2000/svg" xmlns:xlink="http://www.w3.org/1999/xlink" width="750pt" height="3600pt" viewBox="0 0 750 3600" version="1.1">
<g id="surface1">
<path style="fill:none;stroke-width:0.01;stroke-linecap:butt;stroke-linejoin:miter;stroke:rgb(0%,0%,0%);stroke-opacity:1;stroke-miterlimit:10;" d="M 0.491484 0.406484 L 0.291484 0.390508 L 0.262461 0.287461 L 0.168477 0.0454687 L 0.124453 0.0834766 L 0.221484 0.270469 L 0.219453 0.388477 L 0.214453 0.4475 L 0.121445 0.430508 L 0.114453 0.491484 L 0.203477 0.508516 L 0.199453 0.565508 L 0.250469 0.719531 L 0.290469 0.954531 L 0.3825 0.944531 L 0.321484 0.726523 L 0.282461 0.580508 L 0.491484 0.600508 L 0.708516 0.624531 L 0.885547 0.608516 L 0.874531 0.539492 L 0.717539 0.5425 L 0.583516 0.493516 L 0.698516 0.438477 L 0.829531 0.440508 L 0.840547 0.371484 L 0.6875 0.359492 Z M 0.491484 0.406484 " transform="matrix(100,0,0,100,0,200)"/>
<path style="fill:none;stroke-width:0.01;stroke-linecap:butt;stroke-linejoin:miter;stroke:rgb(0%,0%,0%);stroke-opacity:1;stroke-miterlimit:10;" d="M 0.514492 0.184453 L 0.294492 0.191484 L 0.266484 0.292461 L 0.203477 0.518516 L 0.142461 0.486484 L 0.153477 0.296484 L 0.180469 0.214453 L 0.168477 0.282461 L 0.0454687 0.288477 L 0.0544531 0.361484 L 0.169453 0.353477 L 0.182461 0.418477 L 0.292461 0.593516 L 0.415508 0.875547 L 0.506484 0.826523 L 0.350469 0.579492 L 0.293477 0.429492 L 0.514492 0.381484 L 0.742539 0.4275 L 0.948555 0.419492 L 0.954531 0.345469 L 0.774531 0.349492 L 0.610508 0.275469 L 0.730508 0.200469 L 0.875547 0.201484 L 0.858555 0.126445 L 0.706523 0.124453 Z M 0.514492 0.184453 " transform="matrix(100,0,0,100,150,200)"/>
<path style="fill:none;stroke-width:0.01;stroke-linecap:butt;stroke-linejoin:miter;stroke:rgb(0%,0%,0%);stroke-opacity:1;stroke-miterlimit:10;" d="M 0.5225 0.369492 L 0.299492 0.3575 L 0.285469 0.261484 L 0.208477 0.0454687 L 0.160469 0.0864453 L 0.250469 0.260469 L 0.226484 0.369492 L 0.220469 0.435508 L 0.0994531 0.4275 L 0.0924609 0.5025 L 0.214453 0.511484 L 0.221484 0.5825 L 0.224453 0.741523 L 0.239492 0.954531 L 0.324492 0.939531 L 0.331484 0.723516 L 0.313477 0.6025 L 0.5225 0.585508 L 0.727539 0.588516 L 0.907539 0.549492 L 0.876523 0.494492 L 0.742539 0.513516 L 0.611523 0.4725 L 0.735508 0.406484 L 0.876523 0.414492 L 0.867539 0.344492 L 0.712539 0.334492 Z M 0.5225 0.369492 " transform="matrix(100,0,0,100,300,200)"/>
<path style="fill:none;stroke-width:0.01;stroke-linecap:butt;stroke-linejoin:miter;stroke:rgb(0%,0%,0%);stroke-opacity:1;stroke-miterlimit:10;" d="M 0.514492 0.329492 L 0.323477 0.326484 L 0.282461 0.237461 L 0.170469 0.0454687 L 0.137461 0.0794531 L 0.231484 0.228477 L 0.250469 0.331484 L 0.241484 0.3925 L 0.137461 0.396484 L 0.135469 0.4575 L 0.238477 0.455508 L 0.240469 0.509492 L 0.321484 0.691523 L 0.4275 0.954531 L 0.533516 0.926523 L 0.4125 0.666523 L 0.316484 0.508516 L 0.514492 0.5025 L 0.706523 0.526484 L 0.864531 0.510508 L 0.844531 0.458477 L 0.723516 0.470508 L 0.596523 0.420508 L 0.713516 0.3625 L 0.856523 0.373477 L 0.844531 0.289492 L 0.690508 0.290469 Z M 0.514492 0.329492 " transform="matrix(100,0,0,100,450,200)"/>
<path style="fill:none;stroke-width:0.01;stroke-linecap:butt;stroke-linejoin:miter;stroke:rgb(0%,0%,0%);stroke-opacity:1;stroke-miterlimit:10;" d="M 0.490508 0.202461 L 0.301484 0.170469 L 0.258477 0.218477 L 0.172461 0.340469 L 0.134453 0.316484 L 0.196484 0.205469 L 0.230469 0.159453 L 0.227461 0.258477 L 0.0494531 0.263477 L 0.0454688 0.374492 L 0.219453 0.3725 L 0.230469 0.475508 L 0.345469 0.619531 L 0.511484 0.840547 L 0.588516 0.749531 L 0.423477 0.5525 L 0.335469 0.453477 L 0.490508 0.445508 L 0.738516 0.471484 L 0.932539 0.461484 L 0.933555 0.388477 L 0.761523 0.405508 L 0.600508 0.316484 L 0.762539 0.245469 L 0.954531 0.261484 L 0.952539 0.173477 L 0.770508 0.167461 Z M 0.490508 0.202461 " transform="matrix(100,0,0,100,600,200)"/>
<path style="fill:none;stroke-width:0.01;stroke-linecap:butt;stroke-linejoin:miter;stroke:rgb(0%,0%,0%);stroke-opacity:1;stroke-miterlimit:10;" d="M 0.506484 0.261484 L 0.263477 0.273477 L 0.231484 0.211484 L 0.157461 0.0454687 L 0.115469 0.0654687 L 0.196484 0.196484 L 0.195469 0.281484 L 0.194453 0.346484 L 0.0784766 0.3425 L 0.0754688 0.4175 L 0.190469 0.419492 L 0.199453 0.483516 L 0.239492 0.660508 L 0.281484 0.954531 L 0.384492 0.913555 L 0.3125 0.639531 L 0.287461 0.4975 L 0.506484 0.474492 L 0.736523 0.4825 L 0.924531 0.454492 L 0.913555 0.389492 L 0.764531 0.3975 L 0.6025 0.358477 L 0.749531 0.304492 L 0.908555 0.334492 L 0.914531 0.255469 L 0.745508 0.218477 Z M 0.506484 0.261484 " transform="matrix(100,0,0,100,0,350)"/>
<path style="fill:none;stroke-width:0.01;stroke-linecap:butt;stroke-linejoin:miter;stroke:rgb(0%,0%,0%);stroke-opacity:1;stroke-miterlimit:10;" d="M 0.499492 0.326484 L 0.268477 0.319492 L 0.231484 0.241484 L 0.129453 0.0454687 L 0.0914453 0.0764453 L 0.196484 0.225469 L 0.194453 0.324492 L 0.184453 0.393477 L 0.0634375 0.375469 L 0.0504688 0.4525 L 0.168477 0.471484 L 0.167461 0.543516 L 0.223477 0.709531 L 0.338477 0.954531 L 0.4275 0.927539 L 0.3325 0.693516 L 0.265469 0.565508 L 0.499492 0.541523 L 0.746523 0.5775 L 0.949531 0.5625 L 0.945547 0.493516 L 0.756523 0.499492 L 0.605508 0.430508 L 0.735508 0.345469 L 0.891523 0.331484 L 0.879531 0.248477 L 0.704531 0.256484 Z M 0.499492 0.326484 " transform="matrix(100,0,0,100,150,350)"/>
<path style="fill:none;stroke-width:0.01;stroke-linecap:butt;stroke-linejoin:miter;stroke:rgb(0%,0%,0%);stroke-opacity:1;stroke-miterlimit:10;" d="M 0.523516 0.297461 L 0.297461 0.300469 L 0.240469 0.218477 L 0.118477 0.0454687 L 0.0924609 0.0714453 L 0.214453 0.213477 L 0.221484 0.321484 L 0.217461 0.3825 L 0.112461 0.380469 L 0.112461 0.4475 L 0.212461 0.446484 L 0.220469 0.500508 L 0.264492 0.661523 L 0.3575 0.954531 L 0.435508 0.911523 L 0.339492 0.651523 L 0.313477 0.518516 L 0.523516 0.498516 L 0.744531 0.489492 L 0.907539 0.448477 L 0.892539 0.3975 L 0.753516 0.416484 L 0.6175 0.376484 L 0.742539 0.304492 L 0.878555 0.3075 L 0.863555 0.237461 L 0.709531 0.252461 Z M 0.523516 0.297461 " transform="matrix(100,0,0,100,300,350)"/>
<path style="fill:none;stroke-width:0.01;stroke-linecap:butt;stroke-linejoin:miter;stroke:rgb(0%,0%,0%);stroke-opacity:1;stroke-miterlimit:10;" d="M 0.5275 0.3325 L 0.293477 0.315469 L 0.252461 0.241484 L 0.128477 0.0454687 L 0.0894531 0.0754688 L 0.205469 0.219453 L 0.219453 0.325469 L 0.216484 0.405508 L 0.0734766 0.396484 L 0.0714453 0.485508 L 0.206484 0.4825 L 0.213477 0.544492 L 0.264492 0.703516 L 0.3375 0.954531 L 0.4275 0.925547 L 0.344492 0.6925 L 0.316484 0.5525 L 0.5275 0.5275 L 0.746523 0.535508 L 0.928555 0.5375 L 0.919531 0.466484 L 0.763516 0.4675 L 0.6175 0.4175 L 0.734531 0.3475 L 0.883555 0.350469 L 0.870547 0.273477 L 0.708516 0.268477 Z M 0.5275 0.3325 " transform="matrix(100,0,0,100,450,350)"/>
<path style="fill:none;stroke-width:0.01;stroke-linecap:butt;stroke-linejoin:miter;stroke:rgb(0%,0%,0%);stroke-opacity:1;stroke-miterlimit:10;" d="M 0.534492 0.236484 L 0.319492 0.267461 L 0.383477 0.264492 L 0.536484 0.234492 L 0.560508 0.151484 L 0.311484 0.0584375 L 0.200469 0.251484 L 0.192461 0.319492 L 0.0514453 0.309492 L 0.0454688 0.404492 L 0.185469 0.403477 L 0.200469 0.4725 L 0.235469 0.646523 L 0.302461 0.941562 L 0.408477 0.911523 L 0.341484 0.640508 L 0.295469 0.483516 L 0.534492 0.460508 L 0.774531 0.491484 L 0.954531 0.476484 L 0.954531 0.405508 L 0.787539 0.405508 L 0.640508 0.344492 L 0.758516 0.269492 L 0.921523 0.257461 L 0.925547 0.196484 L 0.747539 0.194453 Z M 0.534492 0.236484 " transform="matrix(100,0,0,100,600,350)"/>
<path style="fill:none;stroke-width:0.01;stroke-linecap:butt;stroke-linejoin:miter;stroke:rgb(0%,0%,0%);stroke-opacity:1;stroke-miterlimit:10;" d="M 0.5225 0.131445 L 0.280469 0.133477 L 0.235469 0.217461 L 0.140469 0.393477 L 0.104453 0.376484 L 0.145469 0.209453 L 0.184453 0.140469 L 0.182461 0.209453 L 0.0584375 0.202461 L 0.0454688 0.289492 L 0.182461 0.292461 L 0.196484 0.361484 L 0.232461 0.594492 L 0.281484 0.952539 L 0.416484 0.919531 L 0.330469 0.558516 L 0.297461 0.370469 L 0.5225 0.3525 L 0.759531 0.351484 L 0.954531 0.314492 L 0.925547 0.249492 L 0.767539 0.277461 L 0.629531 0.233477 L 0.771523 0.141445 L 0.946562 0.124453 L 0.935547 0.0474609 L 0.745508 0.0594531 Z M 0.5225 0.131445 " transform="matrix(100,0,0,100,0,500)"/>
<path style="fill:none;stroke-width:0.01;stroke-linecap:butt;stroke-linejoin:miter;stroke:rgb(0%,0%,0%);stroke-opacity:1;stroke-miterlimit:10;" d="M 0.536484 0.340469 L 0.3325 0.338477 L 0.296484 0.243477 L 0.182461 0.0454688 L 0.141445 0.0744531 L 0.239492 0.222461 L 0.245469 0.350469 L 0.225469 0.406484 L 0.110469 0.418477 L 0.114453 0.488516 L 0.227461 0.480508 L 0.242461 0.540508 L 0.257461 0.709531 L 0.291484 0.954531 L 0.4025 0.952539 L 0.351484 0.695508 L 0.334492 0.550508 L 0.536484 0.519492 L 0.724531 0.549492 L 0.877539 0.544492 L 0.887539 0.490508 L 0.741523 0.493516 L 0.618516 0.424492 L 0.740508 0.3775 L 0.883555 0.411484 L 0.889531 0.343477 L 0.732539 0.316484 Z M 0.536484 0.340469 " transform="matrix(100,0,0,100,150,500)"/>
<path style="fill:none;stroke-width:0.01;stroke-linecap:butt;stroke-linejoin:miter;stroke:rgb(0%,0%,0%);stroke-opacity:1;stroke-miterlimit:10;" d="M 0.505508 0.247461 L 0.291484 0.253477 L 0.340469 0.260469 L 0.454492 0.276484 L 0.485508 0.226484 L 0.292461 0.108477 L 0.185469 0.244492 L 0.185469 0.328477 L 0.0454687 0.318477 L 0.0484375 0.4025 L 0.171484 0.409492 L 0.169453 0.479492 L 0.202461 0.633516 L 0.270469 0.887539 L 0.3475 0.891523 L 0.298477 0.631523 L 0.267461 0.484492 L 0.505508 0.455508 L 0.750508 0.470508 L 0.944531 0.4475 L 0.954531 0.363477 L 0.778516 0.395508 L 0.596523 0.343477 L 0.723516 0.284492 L 0.876523 0.296484 L 0.864531 0.229492 L 0.702539 0.214453 Z M 0.505508 0.247461 " transform="matrix(100,0,0,100,300,500)"/>
<path style="fill:none;stroke-width:0.01;stroke-linecap:butt;stroke-linejoin:miter;stroke:rgb(0%,0%,0%);stroke-opacity:1;stroke-miterlimit:10;" d="M 0.539492 0.5375 L 0.273477 0.529492 L 0.211484 0.433477 L 0.0994531 0.223477 L 0.0454688 0.275469 L 0.180469 0.428477 L 0.185469 0.5425 L 0.186484 0.623516 L 0.0564453 0.621523 L 0.0504688 0.702539 L 0.184453 0.708516 L 0.202461 0.776523 L 0.186484 0.671523 L 0.0914453 0.520508 L 0.130469 0.464492 L 0.234492 0.665508 L 0.308477 0.764531 L 0.539492 0.749531 L 0.775547 0.715508 L 0.954531 0.6625 L 0.927539 0.6025 L 0.787539 0.645508 L 0.639531 0.623516 L 0.749531 0.519492 L 0.909531 0.501484 L 0.916523 0.416484 L 0.737539 0.449492 Z M 0.539492 0.5375 " transform="matrix(100,0,0,100,450,500)"/>
<path style="fill:none;stroke-width:0.01;stroke-linecap:butt;stroke-linejoin:miter;stroke:rgb(0%,0%,0%);stroke-opacity:1;stroke-miterlimit:10;" d="M 0.495508 0.280469 L 0.280469 0.293477 L 0.324492 0.287461 L 0.430508 0.256484 L 0.4425 0.211484 L 0.242461 0.156484 L 0.176484 0.293477 L 0.170469 0.360469 L 0.0454688 0.369492 L 0.0524609 0.448477 L 0.175469 0.438477 L 0.192461 0.5075 L 0.264492 0.631523 L 0.4075 0.843516 L 0.481484 0.800547 L 0.344492 0.613516 L 0.283477 0.506484 L 0.495508 0.4725 L 0.758516 0.4775 L 0.954531 0.4475 L 0.953555 0.3675 L 0.778516 0.409492 L 0.600508 0.366484 L 0.726523 0.313477 L 0.873555 0.3175 L 0.877539 0.233477 L 0.705508 0.226484 Z M 0.495508 0.280469 " transform="matrix(100,0,0,100,600,500)"/>
<path style="fill:none;stroke-width:0.01;stroke-linecap:butt;stroke-linejoin:miter;stroke:rgb(0%,0%,0%);stroke-opacity:1;stroke-miterlimit:10;" d="M 0.520508 0.369492 L 0.262461 0.358477 L 0.248477 0.256484 L 0.221484 0.0464453 L 0.178477 0.0624609 L 0.210469 0.242461 L 0.182461 0.346484 L 0.179453 0.411484 L 0.0504687 0.405508 L 0.0454688 0.484492 L 0.175469 0.489492 L 0.182461 0.559492 L 0.220469 0.701523 L 0.308477 0.953555 L 0.401484 0.917539 L 0.326484 0.709531 L 0.281484 0.575508 L 0.520508 0.570508 L 0.731523 0.576523 L 0.890547 0.550508 L 0.881523 0.501484 L 0.737539 0.511484 L 0.6175 0.466484 L 0.773516 0.386484 L 0.954531 0.401484 L 0.936562 0.302461 L 0.748516 0.304492 Z M 0.520508 0.369492 " transform="matrix(100,0,0,100,0,650)"/>
<path style="fill:none;stroke-width:0.01;stroke-linecap:butt;stroke-linejoin:miter;stroke:rgb(0%,0%,0%);stroke-opacity:1;stroke-miterlimit:10;" d="M 0.549492 0.518516 L 0.304492 0.524492 L 0.241484 0.436484 L 0.0954687 0.242461 L 0.0454687 0.268477 L 0.185469 0.405508 L 0.221484 0.531484 L 0.224453 0.586523 L 0.115469 0.588516 L 0.115469 0.658516 L 0.222461 0.658516 L 0.242461 0.720508 L 0.217461 0.634531 L 0.124453 0.465508 L 0.177461 0.4125 L 0.289492 0.616523 L 0.355469 0.720508 L 0.549492 0.716523 L 0.770508 0.757539 L 0.945547 0.755508 L 0.948555 0.678516 L 0.790547 0.664531 L 0.649531 0.613516 L 0.779531 0.5425 L 0.954531 0.5625 L 0.930547 0.488516 L 0.752539 0.473516 Z M 0.549492 0.518516 " transform="matrix(100,0,0,100,150,650)"/>
<path style="fill:none;stroke-width:0.01;stroke-linecap:butt;stroke-linejoin:miter;stroke:rgb(0%,0%,0%);stroke-opacity:1;stroke-miterlimit:10;" d="M 0.528516 0.395508 L 0.304492 0.388477 L 0.276484 0.300469 L 0.163477 0.0454688 L 0.111445 0.0654687 L 0.222461 0.264492 L 0.222461 0.393477 L 0.214453 0.453477 L 0.0894531 0.446484 L 0.0864453 0.529492 L 0.211484 0.528516 L 0.224453 0.590508 L 0.236484 0.740508 L 0.271484 0.954531 L 0.356484 0.932539 L 0.323477 0.726523 L 0.308477 0.6075 L 0.528516 0.600508 L 0.748516 0.630508 L 0.908555 0.613516 L 0.913555 0.5575 L 0.754531 0.555508 L 0.623516 0.489492 L 0.730508 0.445508 L 0.856523 0.453477 L 0.857539 0.396484 L 0.710508 0.379492 Z M 0.528516 0.395508 " transform="matrix(100,0,0,100,300,650)"/>
<path style="fill:none;stroke-width:0.01;stroke-linecap:butt;stroke-linejoin:miter;stroke:rgb(0%,0%,0%);stroke-opacity:1;stroke-miterlimit:10;" d="M 0.450508 0.237461 L 0.279492 0.218477 L 0.241484 0.293477 L 0.140469 0.463516 L 0.0874609 0.438477 L 0.142461 0.274492 L 0.197461 0.211484 L 0.195469 0.302461 L 0.0464453 0.300469 L 0.0454688 0.396484 L 0.196484 0.4025 L 0.216484 0.4975 L 0.276484 0.6125 L 0.3975 0.802539 L 0.476484 0.766523 L 0.351484 0.590508 L 0.305469 0.490508 L 0.450508 0.483516 L 0.697539 0.549492 L 0.900547 0.5625 L 0.892539 0.479492 L 0.720508 0.454492 L 0.576523 0.360469 L 0.752539 0.275469 L 0.954531 0.296484 L 0.949531 0.206484 L 0.730508 0.197461 Z M 0.450508 0.237461 " transform="matrix(100,0,0,100,450,650)"/>
<path style="fill:none;stroke-width:0.01;stroke-linecap:butt;stroke-linejoin:miter;stroke:rgb(0%,0%,0%);stroke-opacity:1;stroke-miterlimit:10;" d="M 0.5425 0.349492 L 0.348477 0.324492 L 0.306484 0.247461 L 0.150469 0.0454688 L 0.127461 0.0824609 L 0.240469 0.242461 L 0.272461 0.340469 L 0.267461 0.398477 L 0.179453 0.391484 L 0.176484 0.443477 L 0.257461 0.455508 L 0.265469 0.5075 L 0.323477 0.679531 L 0.369492 0.954531 L 0.466484 0.939531 L 0.373477 0.674531 L 0.3475 0.520508 L 0.5425 0.519492 L 0.717539 0.525508 L 0.857539 0.534492 L 0.858555 0.485508 L 0.730508 0.490508 L 0.625508 0.429492 L 0.737539 0.386484 L 0.859531 0.380469 L 0.872539 0.3125 L 0.719531 0.315469 Z M 0.5425 0.349492 " transform="matrix(100,0,0,100,600,650)"/>
</g>
</svg>
