<?xml version="1.0" encoding="UTF-8"?>
<svg xmlns="http://www.w3.org/2000/svg" xmlns:xlink="http://www.w3.org/1999/xlink" width="750pt" height="3600pt" viewBox="0 0 750 3600" version="1.1">
<g id="surface1">
<path style="fill:none;stroke-width:0.01;stroke-linecap:butt;stroke-linejoin:miter;stroke:rgb(0%,0%,0%);stroke-opacity:1;stroke-miterlimit:10;" d="M 0.6925 0.953555 L 0.691523 0.953555 L 0.691523 0.954531 L 0.898555 0.713516 L 0.389492 0.0454687 L 0.101445 0.237461 L 0.691523 0.954531 L 0.693516 0.954531 L 0.6925 0.954531 Z M 0.6925 0.953555 " transform="matrix(100,0,0,100,0,200)"/>
<path style="fill:none;stroke-width:0.01;stroke-linecap:butt;stroke-linejoin:miter;stroke:rgb(0%,0%,0%);stroke-opacity:1;stroke-miterlimit:10;" d="M 0.430508 0.305469 L 0.257461 0.331484 L 0.269492 0.266484 L 0.246484 0.173477 L 0.275469 0.174453 L 0.292461 0.250469 L 0.169453 0.343477 L 0.164453 0.404492 L 0.0454687 0.420508 L 0.0584375 0.490508 L 0.170469 0.4725 L 0.193477 0.5525 L 0.229492 0.636523 L 0.178477 0.789531 L 0.235469 0.826523 L 0.287461 0.653516 L 0.274492 0.550508 L 0.430508 0.5325 L 0.713516 0.580508 L 0.904531 0.684531 L 0.954531 0.624531 L 0.772539 0.503516 L 0.570508 0.411484 L 0.734531 0.348477 L 0.949531 0.3575 L 0.940547 0.269492 L 0.735508 0.273477 Z M 0.430508 0.305469 " transform="matrix(100,0,0,100,150,200)"/>
<path style="fill:none;stroke-width:0.01;stroke-linecap:butt;stroke-linejoin:miter;stroke:rgb(0%,0%,0%);stroke-opacity:1;stroke-miterlimit:10;" d="M 0.604492 0.4175 L 0.403477 0.414492 L 0.3325 0.305469 L 0.0604688 0.213477 L 0.0454687 0.276484 L 0.268477 0.364492 L 0.324492 0.4425 L 0.308477 0.499492 L 0.264492 0.518516 L 0.267461 0.558516 L 0.315469 0.555508 L 0.335469 0.595508 L 0.304492 0.651523 L 0.228477 0.761523 L 0.260469 0.786523 L 0.338477 0.6825 L 0.395508 0.6175 L 0.604492 0.586523 L 0.807539 0.584492 L 0.944531 0.588516 L 0.941563 0.533516 L 0.804531 0.535508 L 0.696523 0.501484 L 0.807539 0.463516 L 0.890547 0.5875 L 0.954531 0.528516 L 0.829531 0.358477 Z M 0.604492 0.4175 " transform="matrix(100,0,0,100,300,200)"/>
<path style="fill:none;stroke-width:0.01;stroke-linecap:butt;stroke-linejoin:miter;stroke:rgb(0%,0%,0%);stroke-opacity:1;stroke-miterlimit:10;" d="M 0.952539 0.712539 L 0.951563 0.712539 L 0.951563 0.711523 L 0.951563 0.713516 L 0.633516 0.286484 L 0.0454688 0.519492 L 0.0984766 0.680508 L 0.513516 0.4825 L 0.6575 0.6625 L 0.952539 0.713516 L 0.953555 0.713516 L 0.952539 0.713516 L 0.953555 0.712539 L 0.954531 0.713516 L 0.953555 0.712539 Z M 0.952539 0.712539 " transform="matrix(100,0,0,100,450,200)"/>
<path style="fill:none;stroke-width:0.01;stroke-linecap:butt;stroke-linejoin:miter;stroke:rgb(0%,0%,0%);stroke-opacity:1;stroke-miterlimit:10;" d="M 0.523516 0.414492 L 0.289492 0.4075 L 0.258477 0.278477 L 0.158477 0.0934766 L 0.118477 0.112461 L 0.183477 0.294492 L 0.197461 0.400508 L 0.189453 0.456484 L 0.0454688 0.463516 L 0.0494531 0.5525 L 0.184453 0.531484 L 0.187461 0.608516 L 0.281484 0.686523 L 0.266484 0.880547 L 0.346484 0.906523 L 0.364492 0.678516 L 0.269492 0.608516 L 0.523516 0.614492 L 0.750508 0.614492 L 0.954531 0.635508 L 0.950547 0.539492 L 0.789531 0.5525 L 0.6175 0.515508 L 0.732539 0.473516 L 0.897539 0.465508 L 0.900547 0.393477 L 0.729531 0.409492 Z M 0.523516 0.414492 " transform="matrix(100,0,0,100,600,200)"/>
<path style="fill:none;stroke-width:0.01;stroke-linecap:butt;stroke-linejoin:miter;stroke:rgb(0%,0%,0%);stroke-opacity:1;stroke-miterlimit:10;" d="M 0.540508 0.416484 L 0.3225 0.416484 L 0.272461 0.309492 L 0.0654688 0.227461 L 0.0454688 0.268477 L 0.234492 0.3525 L 0.257461 0.425508 L 0.257461 0.490508 L 0.136445 0.514492 L 0.155469 0.590508 L 0.262461 0.559492 L 0.264492 0.626523 L 0.371484 0.772539 L 0.559492 0.670508 L 0.5325 0.631523 L 0.393477 0.701523 L 0.359492 0.623516 L 0.540508 0.600508 L 0.754531 0.620508 L 0.905547 0.636523 L 0.913555 0.570508 L 0.763516 0.5575 L 0.645508 0.516484 L 0.781523 0.493516 L 0.954531 0.434492 L 0.921523 0.371484 L 0.762539 0.4025 Z M 0.540508 0.416484 " transform="matrix(100,0,0,100,0,350)"/>
<path style="fill:none;stroke-width:0.01;stroke-linecap:butt;stroke-linejoin:miter;stroke:rgb(0%,0%,0%);stroke-opacity:1;stroke-miterlimit:10;" d="M 0.543516 0.469492 L 0.277461 0.455508 L 0.231484 0.336484 L 0.0754687 0.230469 L 0.0454687 0.285469 L 0.183477 0.373477 L 0.201484 0.4625 L 0.179453 0.5375 L 0.0894531 0.510508 L 0.0644531 0.595508 L 0.169453 0.606523 L 0.162461 0.674531 L 0.263477 0.769531 L 0.4325 0.656523 L 0.400508 0.610508 L 0.288477 0.711523 L 0.245469 0.671523 L 0.543516 0.698516 L 0.791523 0.680508 L 0.954531 0.702539 L 0.952539 0.635508 L 0.799531 0.6125 L 0.639531 0.564492 L 0.774531 0.514492 L 0.906523 0.538516 L 0.934531 0.461484 L 0.765508 0.451484 Z M 0.543516 0.469492 " transform="matrix(100,0,0,100,150,350)"/>
<path style="fill:none;stroke-width:0.01;stroke-linecap:butt;stroke-linejoin:miter;stroke:rgb(0%,0%,0%);stroke-opacity:1;stroke-miterlimit:10;" d="M 0.556523 0.5375 L 0.341484 0.536484 L 0.292461 0.4225 L 0.0844531 0.284492 L 0.0454687 0.3325 L 0.227461 0.470508 L 0.266484 0.550508 L 0.279492 0.608516 L 0.140469 0.599492 L 0.139453 0.678516 L 0.266484 0.679531 L 0.276484 0.715508 L 0.272461 0.631523 L 0.204453 0.494492 L 0.238477 0.451484 L 0.318477 0.6075 L 0.371484 0.711523 L 0.556523 0.701523 L 0.757539 0.6875 L 0.954531 0.676523 L 0.935547 0.595508 L 0.781523 0.633516 L 0.624531 0.600508 L 0.739531 0.531484 L 0.897539 0.529492 L 0.897539 0.454492 L 0.716523 0.470508 Z M 0.556523 0.5375 " transform="matrix(100,0,0,100,300,350)"/>
<path style="fill:none;stroke-width:0.01;stroke-linecap:butt;stroke-linejoin:miter;stroke:rgb(0%,0%,0%);stroke-opacity:1;stroke-miterlimit:10;" d="M 0.551523 0.428477 L 0.406484 0.411484 L 0.389492 0.355469 L 0.4925 0.355469 L 0.493516 0.334492 L 0.346484 0.326484 L 0.351484 0.401484 L 0.3375 0.4525 L 0.246484 0.429492 L 0.233477 0.490508 L 0.325469 0.5075 L 0.324492 0.5625 L 0.239492 0.611523 L 0.0614453 0.588516 L 0.0454688 0.634531 L 0.224453 0.673516 L 0.375469 0.586523 L 0.551523 0.578516 L 0.752539 0.590508 L 0.954531 0.544492 L 0.915547 0.458477 L 0.766523 0.525508 L 0.651523 0.5025 L 0.768516 0.449492 L 0.937539 0.428477 L 0.915547 0.369492 L 0.756523 0.395508 Z M 0.551523 0.428477 " transform="matrix(100,0,0,100,450,350)"/>
<path style="fill:none;stroke-width:0.01;stroke-linecap:butt;stroke-linejoin:miter;stroke:rgb(0%,0%,0%);stroke-opacity:1;stroke-miterlimit:10;" d="M 0.479492 0.533516 L 0.265469 0.520508 L 0.236484 0.418477 L 0.0744531 0.262461 L 0.0454688 0.305469 L 0.171484 0.448477 L 0.196484 0.531484 L 0.189453 0.601523 L 0.0844531 0.570508 L 0.0574609 0.6575 L 0.174453 0.665508 L 0.183477 0.736523 L 0.230469 0.643516 L 0.3275 0.686523 L 0.349492 0.6475 L 0.230469 0.583516 L 0.279492 0.737539 L 0.479492 0.720508 L 0.733516 0.695508 L 0.954531 0.6825 L 0.947539 0.610508 L 0.756523 0.620508 L 0.564492 0.6175 L 0.6875 0.579492 L 0.818516 0.576523 L 0.814531 0.514492 L 0.666523 0.523516 Z M 0.479492 0.533516 " transform="matrix(100,0,0,100,600,350)"/>
<path style="fill:none;stroke-width:0.01;stroke-linecap:butt;stroke-linejoin:miter;stroke:rgb(0%,0%,0%);stroke-opacity:1;stroke-miterlimit:10;" d="M 0.511484 0.576523 L 0.329492 0.571523 L 0.265469 0.376484 L 0.0984766 0.0974609 L 0.0454688 0.133477 L 0.161484 0.3975 L 0.190469 0.566523 L 0.196484 0.6275 L 0.102461 0.620508 L 0.101445 0.673516 L 0.188477 0.688516 L 0.225469 0.750508 L 0.301484 0.902539 L 0.524492 0.859531 L 0.510508 0.791523 L 0.354492 0.846523 L 0.329492 0.759531 L 0.511484 0.758516 L 0.739531 0.766523 L 0.915547 0.782539 L 0.925547 0.731523 L 0.769531 0.706523 L 0.6175 0.669531 L 0.783516 0.624531 L 0.947539 0.650508 L 0.954531 0.573516 L 0.799531 0.565508 Z M 0.511484 0.576523 " transform="matrix(100,0,0,100,0,500)"/>
<path style="fill:none;stroke-width:0.01;stroke-linecap:butt;stroke-linejoin:miter;stroke:rgb(0%,0%,0%);stroke-opacity:1;stroke-miterlimit:10;" d="M 0.571523 0.3925 L 0.420508 0.403477 L 0.435508 0.364492 L 0.528516 0.404492 L 0.5425 0.369492 L 0.4325 0.323477 L 0.368477 0.390508 L 0.351484 0.444492 L 0.281484 0.445508 L 0.283477 0.486484 L 0.335469 0.499492 L 0.336484 0.554492 L 0.248477 0.608516 L 0.0524609 0.5925 L 0.0454687 0.648516 L 0.229492 0.676523 L 0.394492 0.5775 L 0.571523 0.565508 L 0.787539 0.574492 L 0.906523 0.576523 L 0.909531 0.5325 L 0.793516 0.528516 L 0.670508 0.489492 L 0.813516 0.459492 L 0.943555 0.5075 L 0.954531 0.453477 L 0.819531 0.403477 Z M 0.571523 0.3925 " transform="matrix(100,0,0,100,150,500)"/>
<path style="fill:none;stroke-width:0.01;stroke-linecap:butt;stroke-linejoin:miter;stroke:rgb(0%,0%,0%);stroke-opacity:1;stroke-miterlimit:10;" d="M 0.4825 0.4475 L 0.348477 0.428477 L 0.380469 0.331484 L 0.4125 0.155469 L 0.369492 0.146445 L 0.325469 0.305469 L 0.253477 0.416484 L 0.227461 0.521484 L 0.0454687 0.555508 L 0.0754688 0.639531 L 0.242461 0.6075 L 0.285469 0.678516 L 0.343477 0.782539 L 0.468516 0.853555 L 0.5025 0.819531 L 0.373477 0.741523 L 0.354492 0.680508 L 0.4825 0.670508 L 0.744531 0.685508 L 0.954531 0.681523 L 0.945547 0.594492 L 0.743516 0.6025 L 0.564492 0.569492 L 0.591523 0.411484 L 0.676523 0.369492 L 0.656523 0.326484 L 0.565508 0.384492 Z M 0.4825 0.4475 " transform="matrix(100,0,0,100,300,500)"/>
<path style="fill:none;stroke-width:0.01;stroke-linecap:butt;stroke-linejoin:miter;stroke:rgb(0%,0%,0%);stroke-opacity:1;stroke-miterlimit:10;" d="M 0.499492 0.380469 L 0.299492 0.364492 L 0.3225 0.281484 L 0.395508 0.374492 L 0.426484 0.350469 L 0.305469 0.205469 L 0.203477 0.3575 L 0.197461 0.425508 L 0.0744531 0.404492 L 0.0624609 0.479492 L 0.183477 0.500508 L 0.178477 0.563516 L 0.173477 0.660508 L 0.0454688 0.747539 L 0.0754687 0.794531 L 0.216484 0.707539 L 0.281484 0.5675 L 0.499492 0.578516 L 0.748516 0.641523 L 0.953555 0.670508 L 0.954531 0.585508 L 0.772539 0.564492 L 0.589492 0.484492 L 0.709531 0.469492 L 0.829531 0.4975 L 0.842539 0.430508 L 0.712539 0.410508 Z M 0.499492 0.380469 " transform="matrix(100,0,0,100,450,500)"/>
<path style="fill:none;stroke-width:0.01;stroke-linecap:butt;stroke-linejoin:miter;stroke:rgb(0%,0%,0%);stroke-opacity:1;stroke-miterlimit:10;" d="M 0.499492 0.371484 L 0.253477 0.335469 L 0.193477 0.218477 L 0.278477 0.415508 L 0.207461 0.4325 L 0.149453 0.265469 L 0.179453 0.349492 L 0.166484 0.424492 L 0.0454688 0.428477 L 0.0454688 0.503516 L 0.159453 0.490508 L 0.153477 0.568516 L 0.178477 0.705508 L 0.254492 0.781523 L 0.269492 0.763516 L 0.219453 0.709531 L 0.266484 0.558516 L 0.499492 0.561523 L 0.747539 0.5875 L 0.954531 0.590508 L 0.937539 0.521484 L 0.753516 0.509492 L 0.580508 0.463516 L 0.708516 0.4375 L 0.869531 0.469492 L 0.875547 0.396484 L 0.707539 0.380469 Z M 0.499492 0.371484 " transform="matrix(100,0,0,100,600,500)"/>
<path style="fill:none;stroke-width:0.01;stroke-linecap:butt;stroke-linejoin:miter;stroke:rgb(0%,0%,0%);stroke-opacity:1;stroke-miterlimit:10;" d="M 0.454492 0.264492 L 0.212461 0.279492 L 0.106445 0.191484 L 0.264492 0.361484 L 0.211484 0.398477 L 0.0834766 0.253477 L 0.148477 0.310469 L 0.131445 0.3775 L 0.0454688 0.373477 L 0.0464453 0.449492 L 0.135469 0.4325 L 0.165469 0.496484 L 0.225469 0.601523 L 0.171484 0.805547 L 0.252461 0.808516 L 0.294492 0.614492 L 0.269492 0.483516 L 0.454492 0.4375 L 0.679531 0.470508 L 0.951562 0.5025 L 0.954531 0.420508 L 0.718516 0.403477 L 0.558516 0.3425 L 0.675508 0.304492 L 0.846523 0.288477 L 0.829531 0.213477 L 0.676523 0.244492 Z M 0.454492 0.264492 " transform="matrix(100,0,0,100,0,650)"/>
<path style="fill:none;stroke-width:0.01;stroke-linecap:butt;stroke-linejoin:miter;stroke:rgb(0%,0%,0%);stroke-opacity:1;stroke-miterlimit:10;" d="M 0.950547 0.344492 L 0.444492 0.381484 L 0.298477 0.172461 L 0.535508 0.474492 L 0.4425 0.525508 L 0.218477 0.273477 L 0.303477 0.4125 L 0.346484 0.553516 L 0.0694531 0.499492 L 0.0454687 0.659531 L 0.3125 0.718516 L 0.338477 0.797539 L 0.758516 0.827539 L 0.903555 0.340469 L 0.777539 0.303477 L 0.708516 0.661523 L 0.525508 0.650508 L 0.950547 0.346484 L 0.952539 0.346484 L 0.954531 0.345469 L 0.954531 0.344492 L 0.952539 0.345469 L 0.951563 0.345469 L 0.951563 0.343477 Z M 0.950547 0.344492 " transform="matrix(100,0,0,100,150,650)"/>
<path style="fill:none;stroke-width:0.01;stroke-linecap:butt;stroke-linejoin:miter;stroke:rgb(0%,0%,0%);stroke-opacity:1;stroke-miterlimit:10;" d="M 0.293477 0.3325 L 0.292461 0.3325 L 0.292461 0.333477 L 0.954531 0.554492 L 0.0454687 0.648516 L 0.213477 0.827539 L 0.934531 0.246484 L 0.6625 0.172461 L 0.293477 0.333477 Z M 0.293477 0.3325 " transform="matrix(100,0,0,100,300,650)"/>
<path style="fill:none;stroke-width:0.01;stroke-linecap:butt;stroke-linejoin:miter;stroke:rgb(0%,0%,0%);stroke-opacity:1;stroke-miterlimit:10;" d="M 0.504492 0.290469 L 0.276484 0.349492 L 0.391484 0.247461 L 0.541523 0.121445 L 0.493516 0.0644531 L 0.302461 0.214453 L 0.161484 0.374492 L 0.165469 0.449492 L 0.0454688 0.481484 L 0.0604688 0.5625 L 0.186484 0.5325 L 0.237461 0.610508 L 0.298477 0.715508 L 0.257461 0.894531 L 0.325469 0.935547 L 0.366484 0.726523 L 0.334492 0.601523 L 0.504492 0.603516 L 0.625508 0.739531 L 0.954531 0.661523 L 0.899531 0.5425 L 0.665508 0.601523 L 0.625508 0.4425 L 0.654531 0.227461 L 0.753516 0.177461 L 0.728516 0.120469 L 0.621523 0.188477 Z M 0.504492 0.290469 " transform="matrix(100,0,0,100,450,650)"/>
<path style="fill:none;stroke-width:0.01;stroke-linecap:butt;stroke-linejoin:miter;stroke:rgb(0%,0%,0%);stroke-opacity:1;stroke-miterlimit:10;" d="M 0.950547 0.197461 L 0.949531 0.197461 L 0.949531 0.196484 L 0.948555 0.195469 L 0.948555 0.197461 L 0.949531 0.197461 L 0.949531 0.198477 L 0.948555 0.198477 L 0.949531 0.198477 L 0.949531 0.199453 L 0.913555 0.699531 L 0.0994531 0.5225 L 0.0454688 0.723516 L 0.636523 0.804531 L 0.949531 0.199453 L 0.953555 0.199453 L 0.953555 0.198477 L 0.951563 0.198477 L 0.952539 0.198477 L 0.954531 0.197461 Z M 0.950547 0.197461 " transform="matrix(100,0,0,100,600,650)"/>
</g>
</svg>
