<?xml version="1.0" encoding="UTF-8" standalone="no"?>
<!-- Created with Inkscape (http://www.inkscape.org/) -->
<svg
   xmlns:dc="http://purl.org/dc/elements/1.1/"
   xmlns:cc="http://creativecommons.org/ns#"
   xmlns:rdf="http://www.w3.org/1999/02/22-rdf-syntax-ns#"
   xmlns:svg="http://www.w3.org/2000/svg"
   xmlns="http://www.w3.org/2000/svg"
   xmlns:sodipodi="http://sodipodi.sourceforge.net/DTD/sodipodi-0.dtd"
   xmlns:inkscape="http://www.inkscape.org/namespaces/inkscape"
   width="744.09448819"
   height="1052.3622047"
   id="svg2"
   sodipodi:version="0.32"
   inkscape:version="0.46"
   sodipodi:docname="constituency.svg"
   inkscape:output_extension="org.inkscape.output.svg.inkscape">
  <defs
     id="defs4">
    <inkscape:perspective
       sodipodi:type="inkscape:persp3d"
       inkscape:vp_x="0 : 526.18109 : 1"
       inkscape:vp_y="0 : 1000 : 0"
       inkscape:vp_z="744.09448 : 526.18109 : 1"
       inkscape:persp3d-origin="372.04724 : 350.78739 : 1"
       id="perspective10" />
  </defs>
  <sodipodi:namedview
     id="base"
     pagecolor="#ffffff"
     bordercolor="#666666"
     borderopacity="1.0"
     gridtolerance="10000"
     guidetolerance="10"
     objecttolerance="10"
     inkscape:pageopacity="0.0"
     inkscape:pageshadow="2"
     inkscape:zoom="1.5101462"
     inkscape:cx="210.89796"
     inkscape:cy="579.03195"
     inkscape:document-units="px"
     inkscape:current-layer="layer1"
     showgrid="false"
     showguides="true"
     inkscape:guide-bbox="true"
     inkscape:window-width="1280"
     inkscape:window-height="881"
     inkscape:window-x="0"
     inkscape:window-y="27" />
  <metadata
     id="metadata7">
    <rdf:RDF>
      <cc:Work
         rdf:about="">
        <dc:format>image/svg+xml</dc:format>
        <dc:type
           rdf:resource="http://purl.org/dc/dcmitype/StillImage" />
      </cc:Work>
    </rdf:RDF>
  </metadata>
  <g
     inkscape:label="Layer 1"
     inkscape:groupmode="layer"
     id="layer1">
    <path
       style="fill:none;fill-opacity:0.43601894;stroke:#000000;stroke-width:3;stroke-miterlimit:4;stroke-opacity:1"
       d="M -49.30783,288.26953 L -49.30783,289.20703 C -39.26257,308.29305 -22.0644,359.70882 -22.0644,420.11328 C -22.0644,480.51773 -35.26257,531.96476 -45.30783,551.05078 L -49.30783,551.98828 L 18.82982,551.98828 L 18.82982,551.26953 C 8.7194596,532.37374 -8.5442304,480.76764 -8.5442304,420.11328 C -8.5442304,359.45891 8.7194596,307.88407 18.82982,288.98828 L 18.82982,288.26953 L -49.30783,288.26953 z"
       id="rect2383"
       sodipodi:nodetypes="ccsccccsccc" />
    <path
       style="opacity:1;fill:none;fill-opacity:0.43601894;stroke:#000000;stroke-width:3;stroke-miterlimit:4;stroke-dasharray:none;stroke-opacity:1"
       d="M 100.45906,261.48343 L 51.396563,310.54593 C 73.885013,314.83719 96.004853,320.73385 117.30281,329.63968 C 136.97782,339.65486 138.57602,371.70906 119.95906,383.60843 C 102.3123,397.83288 78.701343,400.30339 56.834063,400.63968 C 50.571763,401.28289 44.322879,402.01404 38.084059,402.82718 L 97.052813,461.79593 C 99.899813,441.65754 104.15956,421.76402 110.83406,402.35843 C 119.55447,382.07631 151.44189,378.39464 164.52156,396.20218 C 179.85862,412.89102 183.83279,436.27755 185.58406,458.07718 C 185.92437,460.09427 186.28743,462.12642 186.64656,464.13968 L 245.45906,405.32718 C 239.59576,404.57198 233.71818,403.9003 227.83406,403.29593 C 205.96678,402.95964 182.35581,400.48914 164.70906,386.26468 C 146.0921,374.36531 147.72154,342.31109 167.39656,332.29593 C 189.76391,322.94293 213.02159,316.91975 236.67781,312.57718 L 187.92781,263.82718 C 186.00608,284.51671 181.62903,306.19601 167.17781,321.92093 C 154.09814,339.72847 122.21071,336.0468 113.49031,315.76468 C 107.38667,298.01883 103.28881,279.85932 100.45906,261.48343 z"
       id="rect3164" />
    <path
       style="fill:none;fill-opacity:0.43601894;stroke:#000000;stroke-width:3;stroke-miterlimit:4;stroke-opacity:1"
       d="M 381.59375,314.1875 C 369.92708,314.40625 358.26042,314.625 346.59375,314.84375 C 348.3575,324.31863 349.1012,334.15328 353.46004,342.9183 C 356.66795,347.29086 358.7149,361.2784 349.83116,356.7351 C 340.79594,348.84325 333.08635,339.66346 324.75586,331.07771 C 318.77387,321.80283 313.65296,335.30685 308.50411,338.60242 C 306.36904,341.99705 295.71066,348.20631 304.83945,347.91112 C 317.02575,350.05006 329.9175,351.48189 340.7338,357.92257 C 347.74863,360.12249 352.25319,371.66451 342.53484,373.40081 C 333.11249,373.93065 323.65391,372.33139 314.28312,372.53989 C 306.79686,371.61033 298.01284,367.45732 291.13393,369.53948 C 290.75828,379.58337 291.50239,389.7742 291.5,399.875 C 304.37409,393.62498 318.65512,391.37864 332.31137,387.52966 C 337.08853,386.25388 351.20931,385.89499 343.65745,393.30813 C 336.16697,401.07693 326.08708,405.57987 318.2767,413.00396 C 313.14863,418.97918 303.28379,417.22632 298.26961,421.27707 C 306.12766,429.46433 314.64037,437.13591 322.75,445.125 C 327.80278,436.83652 334.74402,429.84805 339.44323,421.33577 C 342.02811,414.50377 351.41337,403.69134 357.93729,412.65036 C 360.93711,421.25984 357.3621,430.47842 354.32568,438.61907 C 352.16666,444.09292 349.82037,449.57857 348.9375,455.4375 C 359.85417,455.23958 370.77083,455.04167 381.6875,454.84375 C 373.83183,444.36144 372.27768,430.71896 365.17269,419.81804 C 363.61882,411.29132 373.71862,413.22815 376.01897,419.02864 C 382.0549,424.43835 388.80899,429.39571 392.97487,436.51101 C 396.47188,439.6506 400.55125,449.39259 404.80962,441.34337 C 412.52933,433.32266 420.24904,425.30195 427.96875,417.28125 C 419.36942,413.68497 409.68788,415.27581 400.6865,413.4583 C 391.1333,413.21848 382.64211,408.69342 374.40809,404.36947 C 365.12273,398.44315 380.38456,397.10055 384.91479,397.40477 C 396.96417,397.2795 409.09047,397.78805 420.84818,400.59783 C 426.4158,401.77463 435.13964,404.33374 432.08697,395.34499 C 431.90173,385.59458 431.71649,375.84416 431.53125,366.09375 C 417.20474,372.39496 404.0155,381.62369 388.4951,384.91046 C 382.87258,387.80199 366.92282,393.33137 369.0722,382.07785 C 374.5427,374.49868 384.84909,373.64856 392.79621,369.93466 C 400.79996,365.62471 408.6982,361.06519 416.03138,355.70297 C 420.44008,352.07892 428.63789,347.84158 420.03449,343.56236 C 413.50216,337.27074 406.96983,330.97912 400.4375,324.6875 C 398.21022,333.3639 390.24598,339.3659 389.0657,348.51971 C 386.2005,356.36756 380.60539,364.61244 372.78596,367.68289 C 363.33424,365.90445 367.73452,353.34042 370.0235,347.26627 C 373.40161,338.41688 376.46356,329.5333 380.59182,320.99628 C 381.42342,318.80033 381.41299,316.48319 381.59375,314.1875 z"
       id="path3288" />
    <path
       style="fill:none;fill-opacity:0.43601894;stroke:#000000;stroke-width:2.99999976;stroke-miterlimit:4;stroke-opacity:1"
       d="M 135.30434,492.51434 L 108.92527,546.72404 L 92.017924,488.85649 L 99.135647,548.7216 L 53.625397,509.18073 L 91.980086,555.69448 L 32.316113,547.03426 L 89.730448,565.42888 L 34.855649,590.39884 L 93.100951,574.83417 L 60.437693,625.50655 L 101.02151,580.92426 L 100.94014,641.21091 L 110.97739,581.76556 L 143.50374,632.5259 L 119.80767,577.09098 L 174.61486,602.20898 L 124.70881,568.38466 L 184.39593,559.88552 L 124.12472,558.41082 L 169.74155,518.99296 L 118.24084,550.33604 L 135.30434,492.51434 z"
       id="path3414" />
    <path
       id="path3417"
       d="M 264.53934,555.99467 L 247.63199,498.12712 L 254.74972,557.99223 L 209.23947,518.45136 L 247.59415,564.96511 L 187.93018,556.30489 L 245.34452,574.69951 L 190.46972,599.66947 L 248.71502,584.1048 L 216.05176,634.77718 L 256.63558,590.19489 L 256.55421,650.48154"
       style="fill:none;fill-opacity:0.43601894;stroke:#000000;stroke-width:2.99999976;stroke-miterlimit:4;stroke-opacity:1"
       sodipodi:nodetypes="cccccccccccc" />
    <path
       sodipodi:nodetypes="cccccccccccc"
       style="fill:none;fill-opacity:0.43601894;stroke:#000000;stroke-width:2.99999976;stroke-miterlimit:4;stroke-opacity:1"
       d="M 264.53934,555.99467 L 247.63199,498.12712 L 254.74972,557.99223 L 209.23947,518.45136 L 247.59415,564.96511 L 187.93018,556.30489 L 245.34452,574.69951 L 190.46972,599.66947 L 248.71502,584.1048 L 216.05176,634.77718 L 256.63558,590.19489 L 256.55421,650.48154"
       id="path3419" />
    <path
       id="path3421"
       d="M 332.09109,574.69951 L 277.21629,599.66947 L 335.46159,584.1048 L 302.79833,634.77718 L 343.38215,590.19489 L 343.30078,650.48154"
       style="fill:none;fill-opacity:0.43601894;stroke:#000000;stroke-width:2.99999976;stroke-miterlimit:4;stroke-opacity:1"
       sodipodi:nodetypes="cccccc" />
    <path
       sodipodi:nodetypes="ccc"
       style="fill:none;fill-opacity:0.43601894;stroke:#000000;stroke-width:2.99999976;stroke-miterlimit:4;stroke-opacity:1"
       d="M 363.03464,601.34046 L 373.18059,590.19489 L 373.09922,650.48154"
       id="path3423" />
    <path
       style="fill:none;fill-rule:evenodd;stroke:#ff0000;stroke-width:1px;stroke-linecap:butt;stroke-linejoin:miter;stroke-opacity:1"
       d="M 368.17626,534.53154 C 426.44877,596.11498 427.77314,592.14185 427.77314,592.14185"
       id="path3425" />
    <path
       style="fill:none;fill-rule:evenodd;stroke:#ff0000;stroke-width:1px;stroke-linecap:butt;stroke-linejoin:miter;stroke-opacity:1"
       d="M 255.60439,647.7656 L 264.21282,555.05935"
       id="path3427" />
    <path
       sodipodi:type="arc"
       style="opacity:1;fill:none;fill-opacity:0.43601894;stroke:#ff0000;stroke-width:3;stroke-miterlimit:4;stroke-dasharray:none;stroke-opacity:1"
       id="path3429"
       sodipodi:cx="244.67828"
       sodipodi:cy="574.59387"
       sodipodi:rx="4.3042188"
       sodipodi:ry="4.3042188"
       d="M 248.9825,574.59387 A 4.3042188,4.3042188 0 1 1 240.37406,574.59387 A 4.3042188,4.3042188 0 1 1 248.9825,574.59387 z" />
    <path
       style="fill:none;fill-rule:evenodd;stroke:#ff0000;stroke-width:1px;stroke-linecap:butt;stroke-linejoin:miter;stroke-opacity:1"
       d="M 330.43158,574.26279 L 343.01314,649.75217"
       id="path3431" />
    <path
       sodipodi:type="arc"
       style="opacity:1;fill:none;fill-opacity:0.43601894;stroke:#ff0000;stroke-width:3;stroke-miterlimit:4;stroke-dasharray:none;stroke-opacity:1"
       id="path3433"
       sodipodi:cx="333.74252"
       sodipodi:cy="601.74359"
       sodipodi:rx="3.3109376"
       sodipodi:ry="3.6420314"
       d="M 337.05346,601.74359 A 3.3109376,3.6420314 0 1 1 330.43159,601.74359 A 3.3109376,3.6420314 0 1 1 337.05346,601.74359 z" />
  </g>
</svg>
