<?xml version="1.0" encoding="UTF-8"?>
<svg xmlns="http://www.w3.org/2000/svg" xmlns:xlink="http://www.w3.org/1999/xlink" width="750pt" height="3600pt" viewBox="0 0 750 3600" version="1.1">
<g id="surface1">
<path style="fill:none;stroke-width:0.01;stroke-linecap:butt;stroke-linejoin:miter;stroke:rgb(0%,0%,0%);stroke-opacity:1;stroke-miterlimit:10;" d="M 0.4925 0.420508 L 0.283477 0.3925 L 0.269492 0.244492 L 0.148477 0.0454687 L 0.0904688 0.0844531 L 0.207461 0.269492 L 0.207461 0.395508 L 0.196484 0.461484 L 0.100469 0.451484 L 0.0974609 0.511484 L 0.187461 0.523516 L 0.182461 0.588516 L 0.212461 0.732539 L 0.129453 0.931563 L 0.219453 0.954531 L 0.248477 0.739531 L 0.271484 0.603516 L 0.4925 0.625508 L 0.722539 0.650508 L 0.909531 0.634531 L 0.897539 0.560508 L 0.732539 0.563516 L 0.590508 0.511484 L 0.722539 0.464492 L 0.876523 0.466484 L 0.889531 0.396484 L 0.722539 0.3975 Z M 0.4925 0.420508 " transform="matrix(100,0,0,100,0,200)"/>
<path style="fill:none;stroke-width:0.01;stroke-linecap:butt;stroke-linejoin:miter;stroke:rgb(0%,0%,0%);stroke-opacity:1;stroke-miterlimit:10;" d="M 0.513516 0.393477 L 0.283477 0.388477 L 0.262461 0.239492 L 0.130469 0.0454687 L 0.0804688 0.0804688 L 0.190469 0.270469 L 0.186484 0.408477 L 0.181484 0.4625 L 0.0564453 0.458477 L 0.0594531 0.538516 L 0.182461 0.540508 L 0.190469 0.614492 L 0.224453 0.744531 L 0.166484 0.935547 L 0.239492 0.954531 L 0.265469 0.740508 L 0.277461 0.634531 L 0.513516 0.598516 L 0.735508 0.643516 L 0.916523 0.634531 L 0.922539 0.5625 L 0.764531 0.5525 L 0.608516 0.4925 L 0.755508 0.430508 L 0.930547 0.4525 L 0.943555 0.386484 L 0.757539 0.378477 Z M 0.513516 0.393477 " transform="matrix(100,0,0,100,150,200)"/>
<path style="fill:none;stroke-width:0.01;stroke-linecap:butt;stroke-linejoin:miter;stroke:rgb(0%,0%,0%);stroke-opacity:1;stroke-miterlimit:10;" d="M 0.4825 0.355469 L 0.272461 0.324492 L 0.287461 0.225469 L 0.222461 0.0494531 L 0.175469 0.0704687 L 0.232461 0.228477 L 0.205469 0.3275 L 0.217461 0.421484 L 0.0454687 0.4375 L 0.0624609 0.544492 L 0.228477 0.531484 L 0.251484 0.631523 L 0.302461 0.753516 L 0.278477 0.950547 L 0.3575 0.933555 L 0.353477 0.736523 L 0.3425 0.616523 L 0.4825 0.6025 L 0.740508 0.620508 L 0.930547 0.5875 L 0.905547 0.523516 L 0.745508 0.534492 L 0.595508 0.4775 L 0.767539 0.415508 L 0.954531 0.401484 L 0.951563 0.298477 L 0.747539 0.320469 Z M 0.4825 0.355469 " transform="matrix(100,0,0,100,300,200)"/>
<path style="fill:none;stroke-width:0.01;stroke-linecap:butt;stroke-linejoin:miter;stroke:rgb(0%,0%,0%);stroke-opacity:1;stroke-miterlimit:10;" d="M 0.503516 0.121445 L 0.269492 0.141445 L 0.163477 0.229492 L 0.0984766 0.460508 L 0.0474609 0.419492 L 0.117461 0.266484 L 0.168477 0.133477 L 0.161484 0.214453 L 0.0454688 0.211484 L 0.0454688 0.285469 L 0.158477 0.291484 L 0.167461 0.354492 L 0.265469 0.550508 L 0.238477 0.878555 L 0.358477 0.864531 L 0.300469 0.524492 L 0.268477 0.344492 L 0.503516 0.335469 L 0.717539 0.359492 L 0.918555 0.3275 L 0.912539 0.257461 L 0.758516 0.281484 L 0.601523 0.232461 L 0.770508 0.202461 L 0.954531 0.234492 L 0.947539 0.135469 L 0.759531 0.134453 Z M 0.503516 0.121445 " transform="matrix(100,0,0,100,450,200)"/>
<path style="fill:none;stroke-width:0.01;stroke-linecap:butt;stroke-linejoin:miter;stroke:rgb(0%,0%,0%);stroke-opacity:1;stroke-miterlimit:10;" d="M 0.479492 0.5375 L 0.259492 0.521484 L 0.241484 0.409492 L 0.135469 0.238477 L 0.0904688 0.258477 L 0.187461 0.420508 L 0.178477 0.530508 L 0.167461 0.590508 L 0.0464453 0.5775 L 0.0454688 0.6525 L 0.158477 0.6575 L 0.163477 0.718516 L 0.143477 0.5975 L 0.0554688 0.403477 L 0.121445 0.341484 L 0.238477 0.5725 L 0.278477 0.718516 L 0.479492 0.738516 L 0.707539 0.761523 L 0.864531 0.757539 L 0.864531 0.699531 L 0.711523 0.710508 L 0.5775 0.634531 L 0.754531 0.6025 L 0.954531 0.609492 L 0.944531 0.535508 L 0.736523 0.544492 Z M 0.479492 0.5375 " transform="matrix(100,0,0,100,600,200)"/>
<path style="fill:none;stroke-width:0.01;stroke-linecap:butt;stroke-linejoin:miter;stroke:rgb(0%,0%,0%);stroke-opacity:1;stroke-miterlimit:10;" d="M 0.480508 0.3675 L 0.272461 0.380469 L 0.206484 0.490508 L 0.178477 0.724531 L 0.118477 0.716523 L 0.145469 0.534492 L 0.184453 0.385508 L 0.177461 0.4475 L 0.0544531 0.435508 L 0.0454688 0.515508 L 0.162461 0.523516 L 0.169453 0.586523 L 0.145469 0.484492 L 0.0564453 0.309492 L 0.111445 0.275469 L 0.217461 0.466484 L 0.280469 0.580508 L 0.480508 0.573516 L 0.713516 0.590508 L 0.890547 0.584492 L 0.893555 0.538516 L 0.725508 0.536484 L 0.5875 0.459492 L 0.754531 0.400508 L 0.954531 0.388477 L 0.936562 0.306484 L 0.723516 0.3325 Z M 0.480508 0.3675 " transform="matrix(100,0,0,100,0,350)"/>
<path style="fill:none;stroke-width:0.01;stroke-linecap:butt;stroke-linejoin:miter;stroke:rgb(0%,0%,0%);stroke-opacity:1;stroke-miterlimit:10;" d="M 0.546523 0.388477 L 0.310469 0.395508 L 0.303477 0.267461 L 0.183477 0.0454687 L 0.142461 0.0664453 L 0.226484 0.256484 L 0.224453 0.388477 L 0.216484 0.459492 L 0.0894531 0.4675 L 0.102461 0.554492 L 0.218477 0.540508 L 0.225469 0.605508 L 0.275469 0.737539 L 0.282461 0.954531 L 0.3675 0.954531 L 0.335469 0.742539 L 0.328477 0.615508 L 0.546523 0.583516 L 0.756523 0.583516 L 0.910547 0.558516 L 0.901523 0.513516 L 0.759531 0.529492 L 0.626523 0.483516 L 0.730508 0.430508 L 0.868555 0.424492 L 0.859531 0.359492 L 0.726523 0.3675 Z M 0.546523 0.388477 " transform="matrix(100,0,0,100,150,350)"/>
<path style="fill:none;stroke-width:0.01;stroke-linecap:butt;stroke-linejoin:miter;stroke:rgb(0%,0%,0%);stroke-opacity:1;stroke-miterlimit:10;" d="M 0.501484 0.489492 L 0.270469 0.4825 L 0.248477 0.3475 L 0.0984766 0.129453 L 0.0454687 0.184453 L 0.179453 0.3575 L 0.187461 0.498516 L 0.181484 0.555508 L 0.0684375 0.545508 L 0.0584375 0.618516 L 0.170469 0.623516 L 0.179453 0.680508 L 0.268477 0.870547 L 0.4625 0.744531 L 0.4825 0.684531 L 0.341484 0.701523 L 0.264492 0.699531 L 0.501484 0.709531 L 0.741523 0.707539 L 0.901523 0.664531 L 0.883555 0.595508 L 0.742539 0.616523 L 0.608516 0.591523 L 0.773516 0.543516 L 0.954531 0.544492 L 0.952539 0.460508 L 0.755508 0.460508 Z M 0.501484 0.489492 " transform="matrix(100,0,0,100,300,350)"/>
<path style="fill:none;stroke-width:0.01;stroke-linecap:butt;stroke-linejoin:miter;stroke:rgb(0%,0%,0%);stroke-opacity:1;stroke-miterlimit:10;" d="M 0.494492 0.319492 L 0.293477 0.3275 L 0.306484 0.238477 L 0.481484 0.326484 L 0.513516 0.267461 L 0.286484 0.160469 L 0.173477 0.320469 L 0.175469 0.399492 L 0.0564453 0.383477 L 0.0454688 0.464492 L 0.169453 0.471484 L 0.181484 0.539492 L 0.171484 0.674531 L 0.0844531 0.821523 L 0.154453 0.839531 L 0.220469 0.6575 L 0.264492 0.553516 L 0.494492 0.531484 L 0.722539 0.5675 L 0.910547 0.539492 L 0.901523 0.458477 L 0.724531 0.475508 L 0.5875 0.4225 L 0.743516 0.381484 L 0.936562 0.413477 L 0.954531 0.3225 L 0.766523 0.318477 Z M 0.494492 0.319492 " transform="matrix(100,0,0,100,450,350)"/>
<path style="fill:none;stroke-width:0.01;stroke-linecap:butt;stroke-linejoin:miter;stroke:rgb(0%,0%,0%);stroke-opacity:1;stroke-miterlimit:10;" d="M 0.5275 0.521484 L 0.306484 0.504492 L 0.273477 0.334492 L 0.100469 0.0794531 L 0.0454688 0.135469 L 0.213477 0.380469 L 0.213477 0.520508 L 0.212461 0.585508 L 0.0954688 0.581523 L 0.0944531 0.660508 L 0.211484 0.664531 L 0.225469 0.730508 L 0.328477 0.920547 L 0.540508 0.767539 L 0.546523 0.711523 L 0.405508 0.738516 L 0.321484 0.749531 L 0.5275 0.720508 L 0.759531 0.731523 L 0.954531 0.688516 L 0.937539 0.6225 L 0.773516 0.655508 L 0.6175 0.611523 L 0.737539 0.560508 L 0.890547 0.540508 L 0.927539 0.419492 L 0.651523 0.242461 Z M 0.5275 0.521484 " transform="matrix(100,0,0,100,600,350)"/>
<path style="fill:none;stroke-width:0.01;stroke-linecap:butt;stroke-linejoin:miter;stroke:rgb(0%,0%,0%);stroke-opacity:1;stroke-miterlimit:10;" d="M 0.514492 0.202461 L 0.3425 0.189453 L 0.364492 0.112461 L 0.484492 0.215469 L 0.524492 0.172461 L 0.3475 0.0454688 L 0.237461 0.169453 L 0.242461 0.266484 L 0.0544531 0.280469 L 0.0734766 0.401484 L 0.249492 0.3775 L 0.276484 0.471484 L 0.358477 0.648516 L 0.376484 0.954531 L 0.504492 0.926523 L 0.416484 0.620508 L 0.3725 0.453477 L 0.514492 0.434492 L 0.757539 0.405508 L 0.945547 0.3625 L 0.939531 0.295469 L 0.770508 0.3575 L 0.609492 0.3075 L 0.762539 0.228477 L 0.945547 0.212461 L 0.939531 0.124453 L 0.748516 0.162461 Z M 0.514492 0.202461 " transform="matrix(100,0,0,100,0,500)"/>
<path style="fill:none;stroke-width:0.01;stroke-linecap:butt;stroke-linejoin:miter;stroke:rgb(0%,0%,0%);stroke-opacity:1;stroke-miterlimit:10;" d="M 0.489492 0.293477 L 0.325469 0.271484 L 0.341484 0.199453 L 0.455508 0.287461 L 0.4875 0.248477 L 0.338477 0.140469 L 0.239492 0.257461 L 0.228477 0.344492 L 0.0454687 0.350469 L 0.0474609 0.470508 L 0.226484 0.453477 L 0.251484 0.5475 L 0.290469 0.668516 L 0.259492 0.859531 L 0.3275 0.856523 L 0.323477 0.640508 L 0.333477 0.530508 L 0.489492 0.516484 L 0.721523 0.526484 L 0.946563 0.486484 L 0.934531 0.419492 L 0.761523 0.436484 L 0.594492 0.3875 L 0.754531 0.336484 L 0.953555 0.343477 L 0.954531 0.238477 L 0.761523 0.257461 Z M 0.489492 0.293477 " transform="matrix(100,0,0,100,150,500)"/>
<path style="fill:none;stroke-width:0.01;stroke-linecap:butt;stroke-linejoin:miter;stroke:rgb(0%,0%,0%);stroke-opacity:1;stroke-miterlimit:10;" d="M 0.496484 0.254492 L 0.278477 0.261484 L 0.192461 0.380469 L 0.141445 0.6425 L 0.0874609 0.615508 L 0.137461 0.413477 L 0.177461 0.257461 L 0.163477 0.334492 L 0.0454687 0.359492 L 0.0554688 0.4325 L 0.169453 0.420508 L 0.186484 0.4875 L 0.217461 0.601523 L 0.176484 0.795547 L 0.242461 0.803516 L 0.248477 0.600508 L 0.271484 0.484492 L 0.496484 0.455508 L 0.759531 0.488516 L 0.954531 0.481484 L 0.933555 0.403477 L 0.754531 0.4175 L 0.595508 0.338477 L 0.615508 0.196484 L 0.707539 0.257461 L 0.705508 0.217461 L 0.6175 0.227461 Z M 0.496484 0.254492 " transform="matrix(100,0,0,100,300,500)"/>
<path style="fill:none;stroke-width:0.01;stroke-linecap:butt;stroke-linejoin:miter;stroke:rgb(0%,0%,0%);stroke-opacity:1;stroke-miterlimit:10;" d="M 0.535508 0.380469 L 0.309492 0.381484 L 0.3325 0.284492 L 0.489492 0.3875 L 0.514492 0.333477 L 0.3175 0.220469 L 0.205469 0.364492 L 0.193477 0.4475 L 0.0594531 0.425508 L 0.0454688 0.505508 L 0.179453 0.530508 L 0.190469 0.604492 L 0.295469 0.779531 L 0.470508 0.629531 L 0.448477 0.580508 L 0.350469 0.594492 L 0.288477 0.608516 L 0.535508 0.5975 L 0.752539 0.588516 L 0.940547 0.551523 L 0.938555 0.491484 L 0.778516 0.523516 L 0.638516 0.478516 L 0.777539 0.415508 L 0.954531 0.3875 L 0.947539 0.288477 L 0.768516 0.323477 Z M 0.535508 0.380469 " transform="matrix(100,0,0,100,450,500)"/>
<path style="fill:none;stroke-width:0.01;stroke-linecap:butt;stroke-linejoin:miter;stroke:rgb(0%,0%,0%);stroke-opacity:1;stroke-miterlimit:10;" d="M 0.4925 0.4125 L 0.280469 0.395508 L 0.268477 0.269492 L 0.127461 0.0704687 L 0.0854688 0.101445 L 0.204453 0.274492 L 0.194453 0.3975 L 0.179453 0.461484 L 0.0624609 0.4325 L 0.0454688 0.5025 L 0.163477 0.5375 L 0.166484 0.606523 L 0.189453 0.739531 L 0.131445 0.911523 L 0.201484 0.929531 L 0.232461 0.741523 L 0.257461 0.624531 L 0.4925 0.6175 L 0.698516 0.6425 L 0.865547 0.633516 L 0.854531 0.580508 L 0.719531 0.571523 L 0.590508 0.509492 L 0.727539 0.4675 L 0.886523 0.478516 L 0.954531 0.3525 L 0.678516 0.107461 Z M 0.4925 0.4125 " transform="matrix(100,0,0,100,600,500)"/>
<path style="fill:none;stroke-width:0.01;stroke-linecap:butt;stroke-linejoin:miter;stroke:rgb(0%,0%,0%);stroke-opacity:1;stroke-miterlimit:10;" d="M 0.4975 0.296484 L 0.285469 0.3075 L 0.284492 0.207461 L 0.474492 0.295469 L 0.500508 0.229492 L 0.267461 0.124453 L 0.164453 0.310469 L 0.159453 0.389492 L 0.0454688 0.3875 L 0.0484375 0.456484 L 0.155469 0.460508 L 0.164453 0.523516 L 0.192461 0.654531 L 0.139453 0.850547 L 0.224453 0.875547 L 0.241484 0.664531 L 0.262461 0.524492 L 0.4975 0.519492 L 0.758516 0.524492 L 0.951562 0.4825 L 0.945547 0.414492 L 0.771523 0.449492 L 0.6025 0.3975 L 0.759531 0.331484 L 0.954531 0.336484 L 0.942539 0.254492 L 0.735508 0.254492 Z M 0.4975 0.296484 " transform="matrix(100,0,0,100,0,650)"/>
<path style="fill:none;stroke-width:0.01;stroke-linecap:butt;stroke-linejoin:miter;stroke:rgb(0%,0%,0%);stroke-opacity:1;stroke-miterlimit:10;" d="M 0.520508 0.541523 L 0.309492 0.529492 L 0.275469 0.400508 L 0.0824609 0.217461 L 0.0454687 0.256484 L 0.202461 0.416484 L 0.227461 0.543516 L 0.215469 0.6075 L 0.115469 0.6025 L 0.114453 0.669531 L 0.211484 0.674531 L 0.216484 0.739531 L 0.205469 0.660508 L 0.114453 0.525508 L 0.160469 0.496484 L 0.252461 0.6425 L 0.310469 0.743516 L 0.520508 0.743516 L 0.727539 0.782539 L 0.902539 0.774531 L 0.901523 0.714531 L 0.755508 0.704531 L 0.613516 0.643516 L 0.766523 0.613516 L 0.943555 0.629531 L 0.954531 0.550508 L 0.775547 0.540508 Z M 0.520508 0.541523 " transform="matrix(100,0,0,100,150,650)"/>
<path style="fill:none;stroke-width:0.01;stroke-linecap:butt;stroke-linejoin:miter;stroke:rgb(0%,0%,0%);stroke-opacity:1;stroke-miterlimit:10;" d="M 0.518516 0.511484 L 0.283477 0.516484 L 0.261484 0.336484 L 0.0924609 0.0744531 L 0.0474609 0.137461 L 0.199453 0.366484 L 0.190469 0.524492 L 0.179453 0.600508 L 0.0454687 0.6075 L 0.0494531 0.688516 L 0.173477 0.681523 L 0.188477 0.752539 L 0.277461 0.925547 L 0.4675 0.785547 L 0.465508 0.747539 L 0.350469 0.753516 L 0.288477 0.760508 L 0.518516 0.728516 L 0.763516 0.756523 L 0.944531 0.730508 L 0.943555 0.6725 L 0.778516 0.671523 L 0.6275 0.613516 L 0.754531 0.565508 L 0.944531 0.559492 L 0.954531 0.474492 L 0.766523 0.486484 Z M 0.518516 0.511484 " transform="matrix(100,0,0,100,300,650)"/>
<path style="fill:none;stroke-width:0.01;stroke-linecap:butt;stroke-linejoin:miter;stroke:rgb(0%,0%,0%);stroke-opacity:1;stroke-miterlimit:10;" d="M 0.498516 0.354492 L 0.275469 0.3575 L 0.246484 0.235469 L 0.126445 0.0614453 L 0.0884766 0.0914453 L 0.186484 0.253477 L 0.182461 0.3675 L 0.171484 0.440508 L 0.0614453 0.419492 L 0.0454688 0.490508 L 0.155469 0.513516 L 0.158477 0.583516 L 0.175469 0.713516 L 0.101445 0.899531 L 0.182461 0.938555 L 0.222461 0.723516 L 0.254492 0.603516 L 0.498516 0.583516 L 0.717539 0.631523 L 0.925547 0.619531 L 0.920547 0.5475 L 0.749531 0.536484 L 0.601523 0.4675 L 0.751523 0.430508 L 0.935547 0.439492 L 0.954531 0.3525 L 0.748516 0.349492 Z M 0.498516 0.354492 " transform="matrix(100,0,0,100,450,650)"/>
<path style="fill:none;stroke-width:0.01;stroke-linecap:butt;stroke-linejoin:miter;stroke:rgb(0%,0%,0%);stroke-opacity:1;stroke-miterlimit:10;" d="M 0.536484 0.3775 L 0.329492 0.348477 L 0.300469 0.209453 L 0.146445 0.0454688 L 0.105469 0.0794531 L 0.233477 0.255469 L 0.250469 0.3625 L 0.232461 0.430508 L 0.131445 0.4175 L 0.118477 0.488516 L 0.220469 0.494492 L 0.222461 0.559492 L 0.235469 0.725508 L 0.177461 0.931563 L 0.261484 0.954531 L 0.281484 0.712539 L 0.303477 0.578516 L 0.536484 0.571523 L 0.734531 0.588516 L 0.894531 0.569492 L 0.882539 0.508516 L 0.748516 0.513516 L 0.620508 0.4625 L 0.736523 0.4325 L 0.871523 0.4325 L 0.864531 0.359492 L 0.711523 0.370469 Z M 0.536484 0.3775 " transform="matrix(100,0,0,100,600,650)"/>
</g>
</svg>
