<?xml version="1.0" encoding="UTF-8"?>
<svg xmlns="http://www.w3.org/2000/svg" xmlns:xlink="http://www.w3.org/1999/xlink" width="750pt" height="3600pt" viewBox="0 0 750 3600" version="1.1">
<g id="surface1">
<path style="fill:none;stroke-width:0.01;stroke-linecap:butt;stroke-linejoin:miter;stroke:rgb(0%,0%,0%);stroke-opacity:1;stroke-miterlimit:10;" d="M 0.494492 0.409492 L 0.308477 0.379492 L 0.3325 0.325469 L 0.4525 0.365469 L 0.470508 0.319492 L 0.3275 0.260469 L 0.238477 0.360469 L 0.222461 0.429492 L 0.123477 0.395508 L 0.105469 0.451484 L 0.202461 0.5025 L 0.191484 0.569492 L 0.120469 0.629531 L 0.0644531 0.739531 L 0.0454688 0.707539 L 0.145469 0.686523 L 0.255469 0.603516 L 0.494492 0.614492 L 0.745508 0.6125 L 0.954531 0.599492 L 0.949531 0.523516 L 0.749531 0.5375 L 0.583516 0.498516 L 0.699531 0.466484 L 0.840547 0.508516 L 0.852539 0.446484 L 0.697539 0.4125 Z M 0.494492 0.409492 " transform="matrix(100,0,0,100,0,200)"/>
<path style="fill:none;stroke-width:0.01;stroke-linecap:butt;stroke-linejoin:miter;stroke:rgb(0%,0%,0%);stroke-opacity:1;stroke-miterlimit:10;" d="M 0.525508 0.390508 L 0.313477 0.398477 L 0.276484 0.310469 L 0.0594531 0.169453 L 0.0454687 0.229492 L 0.219453 0.343477 L 0.251484 0.416484 L 0.254492 0.465508 L 0.175469 0.4775 L 0.183477 0.519492 L 0.254492 0.525508 L 0.253477 0.590508 L 0.246484 0.670508 L 0.274492 0.830547 L 0.310469 0.823516 L 0.282461 0.707539 L 0.338477 0.595508 L 0.525508 0.574492 L 0.741523 0.583516 L 0.949531 0.578516 L 0.939531 0.475508 L 0.765508 0.510508 L 0.628516 0.486484 L 0.770508 0.439492 L 0.954531 0.413477 L 0.939531 0.343477 L 0.746523 0.365469 Z M 0.525508 0.390508 " transform="matrix(100,0,0,100,150,200)"/>
<path style="fill:none;stroke-width:0.01;stroke-linecap:butt;stroke-linejoin:miter;stroke:rgb(0%,0%,0%);stroke-opacity:1;stroke-miterlimit:10;" d="M 0.6025 0.575508 L 0.439492 0.560508 L 0.453477 0.476484 L 0.0454687 0.0554688 L 0.737539 0.815547 L 0.408477 0.4575 L 0.360469 0.559492 L 0.340469 0.619531 L 0.255469 0.606523 L 0.245469 0.6775 L 0.343477 0.679531 L 0.351484 0.736523 L 0.410508 0.803516 L 0.4325 0.944531 L 0.476484 0.931563 L 0.463516 0.795547 L 0.411484 0.733516 L 0.6025 0.731523 L 0.774531 0.719531 L 0.954531 0.709531 L 0.942539 0.644531 L 0.796523 0.668516 L 0.666523 0.6425 L 0.767539 0.619531 L 0.883555 0.629531 L 0.889531 0.5875 L 0.765508 0.574492 Z M 0.6025 0.575508 " transform="matrix(100,0,0,100,300,200)"/>
<path style="fill:none;stroke-width:0.01;stroke-linecap:butt;stroke-linejoin:miter;stroke:rgb(0%,0%,0%);stroke-opacity:1;stroke-miterlimit:10;" d="M 0.0494531 0.121445 L 0.0464453 0.121445 L 0.0464453 0.120469 L 0.0484375 0.121445 L 0.0484375 0.120469 L 0.0464453 0.119453 L 0.0454688 0.121445 L 0.309492 0.880547 L 0.954531 0.820547 L 0.885547 0.385508 L 0.232461 0.474492 L 0.0454688 0.123477 L 0.0464453 0.125469 L 0.0474609 0.127461 L 0.0464453 0.127461 L 0.0474609 0.125469 L 0.0464453 0.123477 L 0.0494531 0.123477 L 0.0524609 0.124453 L 0.0544531 0.124453 L 0.0544531 0.123477 L 0.0524609 0.123477 L 0.0504688 0.122461 L 0.0544531 0.122461 L 0.0534375 0.121445 Z M 0.0494531 0.121445 " transform="matrix(100,0,0,100,450,200)"/>
<path style="fill:none;stroke-width:0.01;stroke-linecap:butt;stroke-linejoin:miter;stroke:rgb(0%,0%,0%);stroke-opacity:1;stroke-miterlimit:10;" d="M 0.530508 0.3775 L 0.283477 0.368477 L 0.240469 0.251484 L 0.0864453 0.0774609 L 0.0464453 0.111445 L 0.166484 0.289492 L 0.206484 0.380469 L 0.199453 0.439492 L 0.0504688 0.4175 L 0.0454688 0.498516 L 0.184453 0.525508 L 0.190469 0.583516 L 0.285469 0.751523 L 0.270469 0.908555 L 0.3275 0.922539 L 0.353477 0.735508 L 0.299492 0.594492 L 0.530508 0.593516 L 0.686523 0.700508 L 0.838516 0.6225 L 0.824531 0.578516 L 0.718516 0.611523 L 0.635508 0.479492 L 0.756523 0.4275 L 0.944531 0.424492 L 0.954531 0.349492 L 0.754531 0.356484 Z M 0.530508 0.3775 " transform="matrix(100,0,0,100,600,200)"/>
<path style="fill:none;stroke-width:0.01;stroke-linecap:butt;stroke-linejoin:miter;stroke:rgb(0%,0%,0%);stroke-opacity:1;stroke-miterlimit:10;" d="M 0.516484 0.473516 L 0.294492 0.460508 L 0.251484 0.370469 L 0.0784766 0.235469 L 0.0454688 0.283477 L 0.196484 0.403477 L 0.233477 0.476484 L 0.230469 0.5425 L 0.119453 0.543516 L 0.119453 0.618516 L 0.223477 0.6075 L 0.217461 0.669531 L 0.330469 0.671523 L 0.5125 0.629531 L 0.463516 0.5925 L 0.3525 0.734531 L 0.284492 0.655508 L 0.516484 0.658516 L 0.737539 0.707539 L 0.932539 0.764531 L 0.954531 0.678516 L 0.759531 0.623516 L 0.6025 0.576523 L 0.731523 0.574492 L 0.887539 0.538516 L 0.881523 0.474492 L 0.725508 0.490508 Z M 0.516484 0.473516 " transform="matrix(100,0,0,100,0,350)"/>
<path style="fill:none;stroke-width:0.01;stroke-linecap:butt;stroke-linejoin:miter;stroke:rgb(0%,0%,0%);stroke-opacity:1;stroke-miterlimit:10;" d="M 0.520508 0.598516 L 0.3275 0.6025 L 0.361484 0.531484 L 0.149453 0.0454687 L 0.533516 0.954531 L 0.3275 0.499492 L 0.257461 0.579492 L 0.245469 0.646523 L 0.141445 0.6475 L 0.143477 0.719531 L 0.237461 0.707539 L 0.231484 0.766523 L 0.334492 0.906523 L 0.516484 0.766523 L 0.476484 0.724531 L 0.356484 0.833516 L 0.328477 0.763516 L 0.520508 0.756523 L 0.705508 0.732539 L 0.841523 0.722539 L 0.833516 0.678516 L 0.722539 0.685508 L 0.604492 0.666523 L 0.699531 0.6225 L 0.849531 0.651523 L 0.858555 0.574492 L 0.689531 0.5725 Z M 0.520508 0.598516 " transform="matrix(100,0,0,100,150,350)"/>
<path style="fill:none;stroke-width:0.01;stroke-linecap:butt;stroke-linejoin:miter;stroke:rgb(0%,0%,0%);stroke-opacity:1;stroke-miterlimit:10;" d="M 0.565508 0.6475 L 0.423477 0.546523 L 0.484492 0.363477 L 0.466484 0.0454687 L 0.394492 0.0524609 L 0.386484 0.331484 L 0.325469 0.480508 L 0.235469 0.594492 L 0.107461 0.539492 L 0.0604688 0.623516 L 0.209453 0.698516 L 0.221484 0.811523 L 0.399492 0.845547 L 0.720508 0.775547 L 0.792539 0.868555 L 0.423477 0.954531 L 0.333477 0.811523 L 0.565508 0.835547 L 0.792539 0.831523 L 0.939531 0.817539 L 0.933555 0.756523 L 0.795547 0.779531 L 0.670508 0.741523 L 0.760508 0.576523 L 0.895547 0.508516 L 0.848516 0.450508 L 0.725508 0.538516 Z M 0.565508 0.6475 " transform="matrix(100,0,0,100,300,350)"/>
<path style="fill:none;stroke-width:0.01;stroke-linecap:butt;stroke-linejoin:miter;stroke:rgb(0%,0%,0%);stroke-opacity:1;stroke-miterlimit:10;" d="M 0.899531 0.126445 L 0.878555 0.125469 L 0.879531 0.113477 L 0.0454688 0.773516 L 0.231484 0.889531 L 0.871523 0.110469 L 0.868555 0.125469 L 0.867539 0.131445 L 0.859531 0.132461 L 0.860547 0.137461 L 0.866523 0.138477 L 0.867539 0.144453 L 0.856523 0.150469 L 0.835547 0.144453 L 0.832539 0.152461 L 0.854531 0.157461 L 0.871523 0.150469 L 0.899531 0.147461 L 0.930547 0.152461 L 0.954531 0.151484 L 0.953555 0.141445 L 0.930547 0.142461 L 0.911523 0.137461 L 0.926523 0.132461 L 0.953555 0.133477 L 0.951563 0.124453 L 0.926523 0.124453 Z M 0.899531 0.126445 " transform="matrix(100,0,0,100,450,350)"/>
<path style="fill:none;stroke-width:0.01;stroke-linecap:butt;stroke-linejoin:miter;stroke:rgb(0%,0%,0%);stroke-opacity:1;stroke-miterlimit:10;" d="M 0.0484375 0.143477 L 0.0484375 0.142461 L 0.267461 0.469492 L 0.872539 0.859531 L 0.954531 0.688516 L 0.455508 0.316484 L 0.0484375 0.142461 L 0.0484375 0.140469 L 0.0484375 0.141445 L 0.0454688 0.141445 L 0.0474609 0.141445 Z M 0.0484375 0.143477 " transform="matrix(100,0,0,100,600,350)"/>
<path style="fill:none;stroke-width:0.01;stroke-linecap:butt;stroke-linejoin:miter;stroke:rgb(0%,0%,0%);stroke-opacity:1;stroke-miterlimit:10;" d="M 0.949531 0.490508 L 0.947539 0.490508 L 0.626523 0.4925 L 0.0544531 0.325469 L 0.0454688 0.468516 L 0.5675 0.674531 L 0.946562 0.490508 L 0.946562 0.491484 L 0.944531 0.491484 L 0.943555 0.4925 L 0.946562 0.4925 L 0.946562 0.493516 L 0.947539 0.494492 L 0.946562 0.496484 L 0.947539 0.496484 L 0.947539 0.493516 L 0.954531 0.493516 L 0.954531 0.4925 L 0.950547 0.4925 L 0.952539 0.491484 L 0.954531 0.491484 L 0.954531 0.490508 Z M 0.949531 0.490508 " transform="matrix(100,0,0,100,0,500)"/>
<path style="fill:none;stroke-width:0.01;stroke-linecap:butt;stroke-linejoin:miter;stroke:rgb(0%,0%,0%);stroke-opacity:1;stroke-miterlimit:10;" d="M 0.426484 0.5075 L 0.249492 0.5075 L 0.265469 0.376484 L 0.356484 0.0964453 L 0.283477 0.0814453 L 0.190469 0.355469 L 0.132461 0.5125 L 0.152461 0.565508 L 0.0454687 0.596523 L 0.0604688 0.6625 L 0.170469 0.638516 L 0.186484 0.686523 L 0.222461 0.767539 L 0.193477 0.904531 L 0.233477 0.918555 L 0.272461 0.784531 L 0.267461 0.6875 L 0.426484 0.695508 L 0.646523 0.724531 L 0.823516 0.748516 L 0.822539 0.688516 L 0.683516 0.6725 L 0.540508 0.613516 L 0.726523 0.550508 L 0.944531 0.571523 L 0.954531 0.479492 L 0.724531 0.458477 Z M 0.426484 0.5075 " transform="matrix(100,0,0,100,150,500)"/>
<path style="fill:none;stroke-width:0.01;stroke-linecap:butt;stroke-linejoin:miter;stroke:rgb(0%,0%,0%);stroke-opacity:1;stroke-miterlimit:10;" d="M 0.5675 0.409492 L 0.321484 0.423477 L 0.271484 0.318477 L 0.0794531 0.141445 L 0.0454687 0.183477 L 0.205469 0.359492 L 0.249492 0.441484 L 0.251484 0.495508 L 0.186484 0.496484 L 0.180469 0.556523 L 0.254492 0.555508 L 0.263477 0.6125 L 0.4025 0.678516 L 0.670508 0.763516 L 0.669531 0.858555 L 0.389492 0.772539 L 0.358477 0.633516 L 0.5675 0.611523 L 0.795547 0.5925 L 0.933555 0.5725 L 0.920547 0.525508 L 0.792539 0.5375 L 0.648516 0.5025 L 0.806523 0.464492 L 0.943555 0.4975 L 0.954531 0.426484 L 0.800547 0.408477 Z M 0.5675 0.409492 " transform="matrix(100,0,0,100,300,500)"/>
<path style="fill:none;stroke-width:0.01;stroke-linecap:butt;stroke-linejoin:miter;stroke:rgb(0%,0%,0%);stroke-opacity:1;stroke-miterlimit:10;" d="M 0.465508 0.443477 L 0.282461 0.405508 L 0.263477 0.269492 L 0.0914453 0.0904688 L 0.0554688 0.122461 L 0.182461 0.297461 L 0.200469 0.406484 L 0.182461 0.470508 L 0.0824609 0.4275 L 0.0454688 0.4975 L 0.168477 0.553516 L 0.164453 0.6175 L 0.211484 0.776523 L 0.330469 0.893555 L 0.293477 0.909531 L 0.287461 0.780547 L 0.261484 0.635508 L 0.465508 0.643516 L 0.711523 0.650508 L 0.954531 0.6425 L 0.937539 0.534492 L 0.746523 0.588516 L 0.578516 0.541523 L 0.721523 0.506484 L 0.910547 0.486484 L 0.901523 0.414492 L 0.707539 0.4175 Z M 0.465508 0.443477 " transform="matrix(100,0,0,100,450,500)"/>
<path style="fill:none;stroke-width:0.01;stroke-linecap:butt;stroke-linejoin:miter;stroke:rgb(0%,0%,0%);stroke-opacity:1;stroke-miterlimit:10;" d="M 0.5225 0.488516 L 0.388477 0.425508 L 0.4075 0.281484 L 0.3675 0.0454688 L 0.315469 0.0554688 L 0.334492 0.263477 L 0.301484 0.390508 L 0.268477 0.461484 L 0.0924609 0.458477 L 0.0854688 0.5625 L 0.252461 0.556523 L 0.237461 0.656523 L 0.394492 0.680508 L 0.256484 0.915547 L 0.328477 0.954531 L 0.414492 0.776523 L 0.335469 0.653516 L 0.5225 0.653516 L 0.726523 0.684531 L 0.914531 0.686523 L 0.906523 0.618516 L 0.730508 0.613516 L 0.5875 0.569492 L 0.614492 0.4525 L 0.694531 0.370469 L 0.658516 0.341484 L 0.585508 0.428477 Z M 0.5225 0.488516 " transform="matrix(100,0,0,100,600,500)"/>
<path style="fill:none;stroke-width:0.01;stroke-linecap:butt;stroke-linejoin:miter;stroke:rgb(0%,0%,0%);stroke-opacity:1;stroke-miterlimit:10;" d="M 0.465508 0.348477 L 0.274492 0.345469 L 0.204453 0.231484 L 0.152461 0.3925 L 0.103477 0.371484 L 0.153477 0.241484 L 0.180469 0.349492 L 0.172461 0.413477 L 0.112461 0.409492 L 0.0964453 0.459492 L 0.168477 0.470508 L 0.168477 0.5325 L 0.159453 0.6225 L 0.0454688 0.734531 L 0.0774609 0.768516 L 0.202461 0.660508 L 0.269492 0.530508 L 0.465508 0.531484 L 0.693516 0.509492 L 0.954531 0.4725 L 0.926523 0.393477 L 0.705508 0.435508 L 0.538516 0.4275 L 0.654531 0.393477 L 0.817539 0.4025 L 0.808516 0.3325 L 0.648516 0.3425 Z M 0.465508 0.348477 " transform="matrix(100,0,0,100,0,650)"/>
<path style="fill:none;stroke-width:0.01;stroke-linecap:butt;stroke-linejoin:miter;stroke:rgb(0%,0%,0%);stroke-opacity:1;stroke-miterlimit:10;" d="M 0.551523 0.583516 L 0.395508 0.5925 L 0.421484 0.518516 L 0.148477 0.0454688 L 0.556523 0.954531 L 0.376484 0.493516 L 0.323477 0.5825 L 0.328477 0.629531 L 0.226484 0.608516 L 0.217461 0.663516 L 0.309492 0.697539 L 0.3175 0.725508 L 0.271484 0.767539 L 0.177461 0.790547 L 0.187461 0.816523 L 0.285469 0.804531 L 0.361484 0.751523 L 0.551523 0.725508 L 0.717539 0.727539 L 0.825547 0.730508 L 0.830547 0.685508 L 0.720508 0.685508 L 0.616523 0.649531 L 0.715508 0.625508 L 0.851523 0.595508 L 0.833516 0.5475 L 0.707539 0.574492 Z M 0.551523 0.583516 " transform="matrix(100,0,0,100,150,650)"/>
<path style="fill:none;stroke-width:0.01;stroke-linecap:butt;stroke-linejoin:miter;stroke:rgb(0%,0%,0%);stroke-opacity:1;stroke-miterlimit:10;" d="M 0.520508 0.535508 L 0.315469 0.499492 L 0.288477 0.340469 L 0.137461 0.0644531 L 0.0724609 0.101445 L 0.188477 0.3525 L 0.212461 0.489492 L 0.178477 0.563516 L 0.0454687 0.6025 L 0.0694531 0.681523 L 0.181484 0.6425 L 0.182461 0.721523 L 0.258477 0.789531 L 0.261484 0.932539 L 0.318477 0.935547 L 0.3125 0.781523 L 0.257461 0.708516 L 0.520508 0.731523 L 0.751523 0.725508 L 0.954531 0.700508 L 0.944531 0.639531 L 0.778516 0.658516 L 0.618516 0.639531 L 0.727539 0.491484 L 0.825547 0.468516 L 0.811523 0.423477 L 0.707539 0.456484 Z M 0.520508 0.535508 " transform="matrix(100,0,0,100,300,650)"/>
<path style="fill:none;stroke-width:0.01;stroke-linecap:butt;stroke-linejoin:miter;stroke:rgb(0%,0%,0%);stroke-opacity:1;stroke-miterlimit:10;" d="M 0.4175 0.463516 L 0.294492 0.439492 L 0.274492 0.3125 L 0.170469 0.117461 L 0.132461 0.143477 L 0.200469 0.319492 L 0.209453 0.426484 L 0.203477 0.496484 L 0.0454688 0.508516 L 0.0494531 0.596523 L 0.209453 0.604492 L 0.228477 0.679531 L 0.275469 0.758516 L 0.268477 0.869531 L 0.308477 0.882539 L 0.316484 0.765508 L 0.300469 0.675508 L 0.4175 0.665508 L 0.660508 0.6825 L 0.857539 0.660508 L 0.838516 0.576523 L 0.6575 0.6075 L 0.4925 0.563516 L 0.661523 0.5125 L 0.836523 0.778516 L 0.954531 0.639531 L 0.741523 0.280469 Z M 0.4175 0.463516 " transform="matrix(100,0,0,100,450,650)"/>
<path style="fill:none;stroke-width:0.01;stroke-linecap:butt;stroke-linejoin:miter;stroke:rgb(0%,0%,0%);stroke-opacity:1;stroke-miterlimit:10;" d="M 0.575508 0.588516 L 0.608516 0.5125 L 0.534492 0.4625 L 0.0454688 0.714531 L 0.954531 0.285469 L 0.498516 0.503516 L 0.575508 0.588516 L 0.575508 0.589492 L 0.574492 0.588516 L 0.574492 0.589492 L 0.575508 0.589492 L 0.574492 0.589492 L 0.575508 0.589492 Z M 0.575508 0.588516 " transform="matrix(100,0,0,100,600,650)"/>
</g>
</svg>
