<?xml version="1.0" encoding="UTF-8"?>
<svg xmlns="http://www.w3.org/2000/svg" xmlns:xlink="http://www.w3.org/1999/xlink" width="750pt" height="3600pt" viewBox="0 0 750 3600" version="1.1">
<g id="surface1">
<path style="fill:none;stroke-width:0.01;stroke-linecap:butt;stroke-linejoin:miter;stroke:rgb(0%,0%,0%);stroke-opacity:1;stroke-miterlimit:10;" d="M 0.4275 0.113477 L 0.419492 0.223477 L 0.3725 0.222461 L 0.298477 0.212461 L 0.184453 0.137461 L 0.155469 0.178477 L 0.276484 0.259492 L 0.384492 0.281484 L 0.361484 0.494492 L 0.355469 0.748516 L 0.3475 0.932539 L 0.4275 0.954531 L 0.431484 0.771523 L 0.439492 0.609492 L 0.470508 0.762539 L 0.498516 0.921523 L 0.5675 0.919531 L 0.5675 0.740508 L 0.585508 0.509492 L 0.593516 0.276484 L 0.704531 0.228477 L 0.844531 0.0904687 L 0.803516 0.0454687 L 0.674531 0.166484 L 0.578516 0.195469 L 0.520508 0.213477 L 0.546523 0.121445 Z M 0.4275 0.113477 " transform="matrix(100,0,0,100,0,200)"/>
<path style="fill:none;stroke-width:0.01;stroke-linecap:butt;stroke-linejoin:miter;stroke:rgb(0%,0%,0%);stroke-opacity:1;stroke-miterlimit:10;" d="M 0.608516 0.0624609 L 0.614492 0.271484 L 0.5775 0.430508 L 0.543516 0.275469 L 0.531484 0.122461 L 0.449492 0.145469 L 0.470508 0.299492 L 0.485508 0.513516 L 0.473516 0.711523 L 0.3475 0.732539 L 0.156484 0.887539 L 0.173477 0.944531 L 0.345469 0.835547 L 0.475508 0.796523 L 0.516484 0.816523 L 0.516484 0.939531 L 0.608516 0.954531 L 0.600508 0.816523 L 0.665508 0.774531 L 0.791523 0.736523 L 0.843516 0.604492 L 0.807539 0.581523 L 0.757539 0.695508 L 0.683516 0.755508 L 0.664531 0.533516 L 0.669531 0.269492 L 0.673516 0.0454687 Z M 0.608516 0.0624609 " transform="matrix(100,0,0,100,150,200)"/>
<path style="fill:none;stroke-width:0.01;stroke-linecap:butt;stroke-linejoin:miter;stroke:rgb(0%,0%,0%);stroke-opacity:1;stroke-miterlimit:10;" d="M 0.531484 0.227461 L 0.481484 0.391484 L 0.425508 0.263477 L 0.540508 0.101445 L 0.418477 0.0554688 L 0.253477 0.306484 L 0.436484 0.4625 L 0.359492 0.625508 L 0.284492 0.595508 L 0.455508 0.373477 L 0.399492 0.328477 L 0.178477 0.610508 L 0.314492 0.749531 L 0.4175 0.798516 L 0.401484 0.922539 L 0.531484 0.954531 L 0.5225 0.785547 L 0.6575 0.734531 L 0.821523 0.563516 L 0.694531 0.248477 L 0.600508 0.291484 L 0.716523 0.558516 L 0.625508 0.6175 L 0.5725 0.426484 L 0.669531 0.239492 L 0.4975 0.0454687 L 0.430508 0.0804688 Z M 0.531484 0.227461 " transform="matrix(100,0,0,100,300,200)"/>
<path style="fill:none;stroke-width:0.01;stroke-linecap:butt;stroke-linejoin:miter;stroke:rgb(0%,0%,0%);stroke-opacity:1;stroke-miterlimit:10;" d="M 0.516484 0.0514453 L 0.539492 0.178477 L 0.4875 0.351484 L 0.465508 0.214453 L 0.455508 0.0774609 L 0.390508 0.0724609 L 0.378477 0.247461 L 0.389492 0.465508 L 0.378477 0.6475 L 0.233477 0.700508 L 0.0454688 0.906523 L 0.100469 0.948555 L 0.259492 0.781523 L 0.390508 0.734531 L 0.451484 0.751523 L 0.4575 0.840547 L 0.516484 0.851523 L 0.505508 0.777539 L 0.5975 0.785547 L 0.713516 0.794531 L 0.911523 0.921523 L 0.954531 0.890547 L 0.780547 0.714531 L 0.581523 0.670508 L 0.576523 0.468516 L 0.580508 0.221484 L 0.570508 0.0514453 Z M 0.516484 0.0514453 " transform="matrix(100,0,0,100,450,200)"/>
<path style="fill:none;stroke-width:0.01;stroke-linecap:butt;stroke-linejoin:miter;stroke:rgb(0%,0%,0%);stroke-opacity:1;stroke-miterlimit:10;" d="M 0.599492 0.0644531 L 0.618516 0.244492 L 0.570508 0.354492 L 0.543516 0.230469 L 0.564492 0.0664453 L 0.4975 0.0804688 L 0.489492 0.237461 L 0.484492 0.444492 L 0.450508 0.658516 L 0.379492 0.724531 L 0.311484 0.883555 L 0.351484 0.899531 L 0.426484 0.770508 L 0.4925 0.716523 L 0.554492 0.742539 L 0.540508 0.846523 L 0.599492 0.858555 L 0.613516 0.764531 L 0.688516 0.773516 L 0.621523 0.856523 L 0.420508 0.954531 L 0.363477 0.900547 L 0.554492 0.808516 L 0.676523 0.668516 L 0.683516 0.456484 L 0.688516 0.227461 L 0.6625 0.0454687 Z M 0.599492 0.0644531 " transform="matrix(100,0,0,100,600,200)"/>
<path style="fill:none;stroke-width:0.01;stroke-linecap:butt;stroke-linejoin:miter;stroke:rgb(0%,0%,0%);stroke-opacity:1;stroke-miterlimit:10;" d="M 0.480508 0.0664453 L 0.480508 0.232461 L 0.4675 0.380469 L 0.419492 0.284492 L 0.428477 0.137461 L 0.3825 0.139453 L 0.391484 0.267461 L 0.386484 0.441484 L 0.3775 0.601523 L 0.444492 0.644531 L 0.5775 0.675508 L 0.561523 0.711523 L 0.438477 0.706523 L 0.380469 0.658516 L 0.438477 0.674531 L 0.438477 0.797539 L 0.480508 0.830547 L 0.4925 0.728516 L 0.526484 0.713516 L 0.563516 0.790547 L 0.553516 0.951563 L 0.609492 0.954531 L 0.6225 0.782539 L 0.575508 0.6575 L 0.574492 0.454492 L 0.5625 0.241484 L 0.5575 0.0454687 Z M 0.480508 0.0664453 " transform="matrix(100,0,0,100,0,350)"/>
<path style="fill:none;stroke-width:0.01;stroke-linecap:butt;stroke-linejoin:miter;stroke:rgb(0%,0%,0%);stroke-opacity:1;stroke-miterlimit:10;" d="M 0.707539 0.0554688 L 0.707539 0.236484 L 0.6925 0.4025 L 0.6525 0.270469 L 0.6875 0.111445 L 0.591523 0.102461 L 0.5975 0.267461 L 0.606523 0.4975 L 0.586523 0.732539 L 0.424492 0.754531 L 0.200469 0.907539 L 0.239492 0.954531 L 0.444492 0.833516 L 0.594492 0.824531 L 0.661523 0.849531 L 0.638516 0.948555 L 0.707539 0.936562 L 0.669531 0.830547 L 0.759531 0.790547 L 0.693516 0.779531 L 0.581523 0.725508 L 0.580508 0.6825 L 0.699531 0.733516 L 0.799531 0.729531 L 0.761523 0.544492 L 0.773516 0.265469 L 0.755508 0.0454687 Z M 0.707539 0.0554688 " transform="matrix(100,0,0,100,150,350)"/>
<path style="fill:none;stroke-width:0.01;stroke-linecap:butt;stroke-linejoin:miter;stroke:rgb(0%,0%,0%);stroke-opacity:1;stroke-miterlimit:10;" d="M 0.478516 0.105469 L 0.490508 0.282461 L 0.466484 0.419492 L 0.418477 0.259492 L 0.426484 0.0754688 L 0.335469 0.0454687 L 0.338477 0.217461 L 0.345469 0.439492 L 0.339492 0.656523 L 0.284492 0.621523 L 0.234492 0.469492 L 0.198477 0.496484 L 0.248477 0.671523 L 0.285469 0.788516 L 0.366484 0.805547 L 0.368477 0.938555 L 0.478516 0.954531 L 0.4875 0.867539 L 0.5275 0.814531 L 0.638516 0.701523 L 0.801523 0.548516 L 0.752539 0.483516 L 0.619531 0.626523 L 0.524492 0.6675 L 0.504492 0.450508 L 0.523516 0.238477 L 0.535508 0.0674609 Z M 0.478516 0.105469 " transform="matrix(100,0,0,100,300,350)"/>
<path style="fill:none;stroke-width:0.01;stroke-linecap:butt;stroke-linejoin:miter;stroke:rgb(0%,0%,0%);stroke-opacity:1;stroke-miterlimit:10;" d="M 0.6175 0.0564453 L 0.635508 0.277461 L 0.604492 0.451484 L 0.570508 0.302461 L 0.600508 0.165469 L 0.505508 0.154453 L 0.505508 0.305469 L 0.504492 0.5325 L 0.5125 0.754531 L 0.353477 0.723516 L 0.0844531 0.777539 L 0.0904688 0.832539 L 0.351484 0.811523 L 0.494492 0.852539 L 0.553516 0.837539 L 0.535508 0.954531 L 0.6175 0.944531 L 0.631523 0.824531 L 0.734531 0.849531 L 0.798516 0.867539 L 0.888555 0.950547 L 0.915547 0.929531 L 0.815547 0.825547 L 0.724531 0.792539 L 0.714531 0.549492 L 0.729531 0.273477 L 0.699531 0.0454687 Z M 0.6175 0.0564453 " transform="matrix(100,0,0,100,450,350)"/>
<path style="fill:none;stroke-width:0.01;stroke-linecap:butt;stroke-linejoin:miter;stroke:rgb(0%,0%,0%);stroke-opacity:1;stroke-miterlimit:10;" d="M 0.513516 0.155469 L 0.5375 0.258477 L 0.485508 0.252461 L 0.350469 0.224453 L 0.137461 0.0454687 L 0.0754687 0.0934766 L 0.299492 0.315469 L 0.489492 0.359492 L 0.4875 0.558516 L 0.4775 0.788516 L 0.479492 0.946562 L 0.513516 0.954531 L 0.490508 0.798516 L 0.546523 0.653516 L 0.603516 0.790547 L 0.5925 0.929531 L 0.625508 0.946562 L 0.6275 0.747539 L 0.6325 0.530508 L 0.635508 0.315469 L 0.754531 0.295469 L 0.924531 0.174453 L 0.903555 0.137461 L 0.740508 0.221484 L 0.633516 0.233477 L 0.575508 0.238477 L 0.601523 0.149453 Z M 0.513516 0.155469 " transform="matrix(100,0,0,100,600,350)"/>
<path style="fill:none;stroke-width:0.01;stroke-linecap:butt;stroke-linejoin:miter;stroke:rgb(0%,0%,0%);stroke-opacity:1;stroke-miterlimit:10;" d="M 0.484492 0.0634375 L 0.461484 0.244492 L 0.433477 0.389492 L 0.395508 0.237461 L 0.3625 0.100469 L 0.269492 0.123477 L 0.3175 0.279492 L 0.3625 0.485508 L 0.3775 0.674531 L 0.3275 0.646523 L 0.318477 0.539492 L 0.286484 0.545508 L 0.306484 0.6825 L 0.388477 0.761523 L 0.436484 0.789531 L 0.4025 0.954531 L 0.484492 0.952539 L 0.5075 0.802539 L 0.549492 0.791523 L 0.659531 0.690508 L 0.730508 0.654531 L 0.724531 0.625508 L 0.659531 0.660508 L 0.575508 0.720508 L 0.535508 0.511484 L 0.6225 0.318477 L 0.529492 0.0454688 Z M 0.484492 0.0634375 " transform="matrix(100,0,0,100,0,500)"/>
<path style="fill:none;stroke-width:0.01;stroke-linecap:butt;stroke-linejoin:miter;stroke:rgb(0%,0%,0%);stroke-opacity:1;stroke-miterlimit:10;" d="M 0.343477 0.0594531 L 0.303477 0.176484 L 0.259492 0.140469 L 0.330469 0.106445 L 0.4975 0.0804688 L 0.5375 0.131445 L 0.360469 0.161484 L 0.251484 0.233477 L 0.272461 0.4875 L 0.278477 0.754531 L 0.299492 0.949531 L 0.343477 0.954531 L 0.331484 0.779531 L 0.369492 0.599492 L 0.4375 0.750508 L 0.4075 0.908555 L 0.474492 0.908555 L 0.493516 0.714531 L 0.494492 0.4725 L 0.481484 0.230469 L 0.579492 0.208477 L 0.748516 0.0704687 L 0.708516 0.0454688 L 0.566523 0.130469 L 0.470508 0.154453 L 0.399492 0.150469 L 0.421484 0.0574609 Z M 0.343477 0.0594531 " transform="matrix(100,0,0,100,150,500)"/>
<path style="fill:none;stroke-width:0.01;stroke-linecap:butt;stroke-linejoin:miter;stroke:rgb(0%,0%,0%);stroke-opacity:1;stroke-miterlimit:10;" d="M 0.563516 0.0454688 L 0.551523 0.157461 L 0.494492 0.137461 L 0.354492 0.229492 L 0.229492 0.4175 L 0.295469 0.470508 L 0.403477 0.299492 L 0.5025 0.239492 L 0.505508 0.478516 L 0.469492 0.758516 L 0.4525 0.954531 L 0.563516 0.943555 L 0.5675 0.767539 L 0.594492 0.596523 L 0.605508 0.730508 L 0.613516 0.941562 L 0.697539 0.942539 L 0.681523 0.772539 L 0.6575 0.539492 L 0.653516 0.336484 L 0.709531 0.391484 L 0.690508 0.634531 L 0.747539 0.634531 L 0.770508 0.3375 L 0.6775 0.246484 L 0.628516 0.240469 L 0.640508 0.0854688 Z M 0.563516 0.0454688 " transform="matrix(100,0,0,100,300,500)"/>
<path style="fill:none;stroke-width:0.01;stroke-linecap:butt;stroke-linejoin:miter;stroke:rgb(0%,0%,0%);stroke-opacity:1;stroke-miterlimit:10;" d="M 0.501484 0.0454688 L 0.5375 0.172461 L 0.455508 0.159453 L 0.358477 0.144453 L 0.221484 0.0494531 L 0.190469 0.0964453 L 0.3425 0.218477 L 0.4825 0.241484 L 0.465508 0.458477 L 0.4475 0.730508 L 0.4275 0.920547 L 0.501484 0.931563 L 0.4925 0.790547 L 0.530508 0.604492 L 0.586523 0.747539 L 0.431484 0.876523 L 0.5225 0.954531 L 0.760508 0.757539 L 0.556523 0.569492 L 0.615508 0.4025 L 0.715508 0.433477 L 0.5375 0.566523 L 0.556523 0.6075 L 0.809531 0.434492 L 0.712539 0.295469 L 0.6025 0.241484 L 0.6325 0.0884766 Z M 0.501484 0.0454688 " transform="matrix(100,0,0,100,450,500)"/>
<path style="fill:none;stroke-width:0.01;stroke-linecap:butt;stroke-linejoin:miter;stroke:rgb(0%,0%,0%);stroke-opacity:1;stroke-miterlimit:10;" d="M 0.3325 0.269492 L 0.348477 0.0824609 L 0.241484 0.0454688 L 0.248477 0.230469 L 0.244492 0.471484 L 0.242461 0.711523 L 0.348477 0.808516 L 0.600508 0.874531 L 0.574492 0.937539 L 0.3425 0.869531 L 0.237461 0.802539 L 0.277461 0.826523 L 0.255469 0.946562 L 0.3325 0.954531 L 0.396484 0.881523 L 0.450508 0.908555 L 0.609492 0.892539 L 0.691523 0.914531 L 0.703516 0.889531 L 0.633516 0.869531 L 0.553516 0.829531 L 0.626523 0.6425 L 0.713516 0.414492 L 0.762539 0.254492 L 0.674531 0.261484 L 0.691523 0.410508 L 0.526484 0.411484 Z M 0.3325 0.269492 " transform="matrix(100,0,0,100,600,500)"/>
<path style="fill:none;stroke-width:0.01;stroke-linecap:butt;stroke-linejoin:miter;stroke:rgb(0%,0%,0%);stroke-opacity:1;stroke-miterlimit:10;" d="M 0.3825 0.0454688 L 0.353477 0.183477 L 0.309492 0.198477 L 0.371484 0.165469 L 0.5025 0.170469 L 0.526484 0.211484 L 0.388477 0.219453 L 0.305469 0.266484 L 0.323477 0.449492 L 0.333477 0.699531 L 0.336484 0.892539 L 0.3825 0.916523 L 0.385508 0.746523 L 0.421484 0.585508 L 0.4575 0.742539 L 0.297461 0.887539 L 0.401484 0.954531 L 0.620508 0.741523 L 0.450508 0.551523 L 0.524492 0.378477 L 0.606523 0.4225 L 0.404492 0.5625 L 0.449492 0.636523 L 0.702539 0.4225 L 0.590508 0.276484 L 0.479492 0.227461 L 0.496484 0.0824609 Z M 0.3825 0.0454688 " transform="matrix(100,0,0,100,0,650)"/>
<path style="fill:none;stroke-width:0.01;stroke-linecap:butt;stroke-linejoin:miter;stroke:rgb(0%,0%,0%);stroke-opacity:1;stroke-miterlimit:10;" d="M 0.515508 0.0454688 L 0.513516 0.159453 L 0.428477 0.148477 L 0.343477 0.180469 L 0.3375 0.246484 L 0.361484 0.251484 L 0.3675 0.187461 L 0.4775 0.145469 L 0.448477 0.3925 L 0.430508 0.6875 L 0.430508 0.928555 L 0.515508 0.954531 L 0.489492 0.765508 L 0.5175 0.580508 L 0.5625 0.725508 L 0.5725 0.880547 L 0.6625 0.869531 L 0.660508 0.685508 L 0.646523 0.456484 L 0.651523 0.222461 L 0.5575 0.172461 L 0.366484 0.168477 L 0.383477 0.121445 L 0.545508 0.108477 L 0.633516 0.148477 L 0.5875 0.157461 L 0.590508 0.0564453 Z M 0.515508 0.0454688 " transform="matrix(100,0,0,100,150,650)"/>
<path style="fill:none;stroke-width:0.01;stroke-linecap:butt;stroke-linejoin:miter;stroke:rgb(0%,0%,0%);stroke-opacity:1;stroke-miterlimit:10;" d="M 0.5525 0.143477 L 0.581523 0.234492 L 0.493516 0.235469 L 0.396484 0.205469 L 0.244492 0.0454688 L 0.189453 0.104453 L 0.325469 0.255469 L 0.491484 0.329492 L 0.501484 0.539492 L 0.490508 0.774531 L 0.490508 0.954531 L 0.5525 0.950547 L 0.5625 0.777539 L 0.595508 0.618516 L 0.639531 0.743516 L 0.530508 0.861523 L 0.625508 0.917539 L 0.783516 0.713516 L 0.625508 0.598516 L 0.6575 0.475508 L 0.730508 0.4875 L 0.619531 0.611523 L 0.653516 0.649531 L 0.810547 0.476484 L 0.701523 0.3375 L 0.633516 0.299492 L 0.671523 0.175469 Z M 0.5525 0.143477 " transform="matrix(100,0,0,100,300,650)"/>
<path style="fill:none;stroke-width:0.01;stroke-linecap:butt;stroke-linejoin:miter;stroke:rgb(0%,0%,0%);stroke-opacity:1;stroke-miterlimit:10;" d="M 0.505508 0.0844531 L 0.4975 0.259492 L 0.4525 0.405508 L 0.418477 0.261484 L 0.4275 0.0724609 L 0.309492 0.0454688 L 0.320469 0.224453 L 0.343477 0.490508 L 0.383477 0.714531 L 0.323477 0.661523 L 0.160469 0.644531 L 0.163477 0.696523 L 0.244492 0.683516 L 0.325469 0.767539 L 0.380469 0.802539 L 0.386484 0.954531 L 0.505508 0.930547 L 0.498516 0.772539 L 0.635508 0.709531 L 0.839531 0.566523 L 0.754531 0.263477 L 0.638516 0.285469 L 0.736523 0.550508 L 0.631523 0.598516 L 0.623516 0.416484 L 0.735508 0.261484 L 0.593516 0.0634375 Z M 0.505508 0.0844531 " transform="matrix(100,0,0,100,450,650)"/>
<path style="fill:none;stroke-width:0.01;stroke-linecap:butt;stroke-linejoin:miter;stroke:rgb(0%,0%,0%);stroke-opacity:1;stroke-miterlimit:10;" d="M 0.415508 0.0664453 L 0.418477 0.239492 L 0.399492 0.383477 L 0.353477 0.253477 L 0.3725 0.0984766 L 0.308477 0.106445 L 0.320469 0.282461 L 0.3375 0.513516 L 0.326484 0.729531 L 0.284492 0.659531 L 0.333477 0.519492 L 0.294492 0.508516 L 0.230469 0.683516 L 0.273477 0.775547 L 0.343477 0.799531 L 0.3325 0.874531 L 0.415508 0.868555 L 0.451484 0.781523 L 0.533516 0.761523 L 0.616523 0.800547 L 0.734531 0.954531 L 0.769531 0.921523 L 0.654531 0.765508 L 0.539492 0.6875 L 0.508516 0.4525 L 0.495508 0.216484 L 0.469492 0.0454688 Z M 0.415508 0.0664453 " transform="matrix(100,0,0,100,600,650)"/>
</g>
</svg>
