<?xml version="1.0" encoding="UTF-8"?>
<svg xmlns="http://www.w3.org/2000/svg" xmlns:xlink="http://www.w3.org/1999/xlink" width="750pt" height="3600pt" viewBox="0 0 750 3600" version="1.1">
<g id="surface1">
<path style="fill:none;stroke-width:0.01;stroke-linecap:butt;stroke-linejoin:miter;stroke:rgb(0%,0%,0%);stroke-opacity:1;stroke-miterlimit:10;" d="M 0.794102 0.954531 L 0.793047 0.135312 L 0.384492 0.135312 L 0.384492 0.449727 L 0.313906 0.0454687 L 0.205898 0.0646875 L 0.383437 0.559883 L 0.383437 0.954531 Z M 0.794102 0.954531 " transform="matrix(100,0,0,100,0,200)"/>
<path style="fill:none;stroke-width:0.01;stroke-linecap:butt;stroke-linejoin:miter;stroke:rgb(0%,0%,0%);stroke-opacity:1;stroke-miterlimit:10;" d="M 0.953359 0.953359 L 0.953359 0.0454687 L 0.499414 0.0454687 L 0.499414 0.392734 L 0.0466406 0.392734 L 0.0466406 0.516016 L 0.499414 0.514805 L 0.498203 0.954531 Z M 0.953359 0.953359 " transform="matrix(100,0,0,100,150,200)"/>
<path style="fill:none;stroke-width:0.01;stroke-linecap:butt;stroke-linejoin:miter;stroke:rgb(0%,0%,0%);stroke-opacity:1;stroke-miterlimit:10;" d="M 0.874375 0.953398 L 0.873242 0.0894922 L 0.441836 0.0883594 L 0.441836 0.419258 L 0.226133 0.0454687 L 0.125625 0.103047 L 0.441836 0.536719 L 0.441836 0.954531 Z M 0.874375 0.953398 " transform="matrix(100,0,0,100,300,200)"/>
<path style="fill:none;stroke-width:0.01;stroke-linecap:butt;stroke-linejoin:miter;stroke:rgb(0%,0%,0%);stroke-opacity:1;stroke-miterlimit:10;" d="M 0.954531 0.948125 L 0.954531 0.051875 L 0.506445 0.051875 L 0.506445 0.395859 L 0.0864063 0.242617 L 0.0454688 0.356094 L 0.506445 0.515195 L 0.506445 0.948125 Z M 0.954531 0.948125 " transform="matrix(100,0,0,100,450,200)"/>
<path style="fill:none;stroke-width:0.01;stroke-linecap:butt;stroke-linejoin:miter;stroke:rgb(0%,0%,0%);stroke-opacity:1;stroke-miterlimit:10;" d="M 0.794297 0.953477 L 0.794297 0.13625 L 0.385156 0.135195 L 0.384102 0.449258 L 0.314648 0.0454687 L 0.205703 0.0646875 L 0.384102 0.559297 L 0.384102 0.954531 Z M 0.794297 0.953477 " transform="matrix(100,0,0,100,600,200)"/>
<path style="fill:none;stroke-width:0.01;stroke-linecap:butt;stroke-linejoin:miter;stroke:rgb(0%,0%,0%);stroke-opacity:1;stroke-miterlimit:10;" d="M 0.954531 0.947539 L 0.954531 0.0524609 L 0.506992 0.0524609 L 0.505859 0.394844 L 0.0863672 0.241758 L 0.0454688 0.355117 L 0.505859 0.515195 L 0.506992 0.947539 Z M 0.954531 0.947539 " transform="matrix(100,0,0,100,0,350)"/>
<path style="fill:none;stroke-width:0.01;stroke-linecap:butt;stroke-linejoin:miter;stroke:rgb(0%,0%,0%);stroke-opacity:1;stroke-miterlimit:10;" d="M 0.953945 0.953359 L 0.952773 0.0454687 L 0.5 0.0454687 L 0.498828 0.393906 L 0.0460547 0.393906 L 0.0460547 0.516016 L 0.498828 0.516016 L 0.498828 0.954531 Z M 0.953945 0.953359 " transform="matrix(100,0,0,100,150,350)"/>
<path style="fill:none;stroke-width:0.01;stroke-linecap:butt;stroke-linejoin:miter;stroke:rgb(0%,0%,0%);stroke-opacity:1;stroke-miterlimit:10;" d="M 0.940313 0.954531 L 0.940313 0.0466406 L 0.485742 0.0454687 L 0.485742 0.393203 L 0.138008 0.102422 L 0.0596875 0.195 L 0.485742 0.51543 L 0.485742 0.954531 Z M 0.940313 0.954531 " transform="matrix(100,0,0,100,300,350)"/>
<path style="fill:none;stroke-width:0.01;stroke-linecap:butt;stroke-linejoin:miter;stroke:rgb(0%,0%,0%);stroke-opacity:1;stroke-miterlimit:10;" d="M 0.874844 0.954531 L 0.873711 0.0884375 L 0.441758 0.0884375 L 0.440625 0.419727 L 0.22582 0.0454687 L 0.125156 0.104258 L 0.440625 0.536172 L 0.440625 0.954531 Z M 0.874844 0.954531 " transform="matrix(100,0,0,100,450,350)"/>
<path style="fill:none;stroke-width:0.01;stroke-linecap:butt;stroke-linejoin:miter;stroke:rgb(0%,0%,0%);stroke-opacity:1;stroke-miterlimit:10;" d="M 0.901133 0.954531 L 0.899961 0.0466406 L 0.446602 0.0454687 L 0.445391 0.393203 L 0.0988672 0.685156 L 0.177188 0.778906 L 0.445391 0.51543 L 0.445391 0.954531 Z M 0.901133 0.954531 " transform="matrix(100,0,0,100,600,350)"/>
<path style="fill:none;stroke-width:0.01;stroke-linecap:butt;stroke-linejoin:miter;stroke:rgb(0%,0%,0%);stroke-opacity:1;stroke-miterlimit:10;" d="M 0.901133 0.954531 L 0.901133 0.0454688 L 0.446602 0.0454688 L 0.446602 0.393203 L 0.0988672 0.686328 L 0.178359 0.780078 L 0.446602 0.51543 L 0.445391 0.954531 Z M 0.901133 0.954531 " transform="matrix(100,0,0,100,0,500)"/>
<path style="fill:none;stroke-width:0.01;stroke-linecap:butt;stroke-linejoin:miter;stroke:rgb(0%,0%,0%);stroke-opacity:1;stroke-miterlimit:10;" d="M 0.953359 0.953359 L 0.952187 0.0466406 L 0.499414 0.0454688 L 0.499414 0.393906 L 0.0466406 0.393906 L 0.0466406 0.516016 L 0.499414 0.516016 L 0.499414 0.954531 Z M 0.953359 0.953359 " transform="matrix(100,0,0,100,150,500)"/>
<path style="fill:none;stroke-width:0.01;stroke-linecap:butt;stroke-linejoin:miter;stroke:rgb(0%,0%,0%);stroke-opacity:1;stroke-miterlimit:10;" d="M 0.953359 0.953359 L 0.952187 0.0454688 L 0.499414 0.0454688 L 0.499414 0.393906 L 0.0466406 0.393906 L 0.0466406 0.516016 L 0.499414 0.514805 L 0.499414 0.954531 Z M 0.953359 0.953359 " transform="matrix(100,0,0,100,300,500)"/>
<path style="fill:none;stroke-width:0.01;stroke-linecap:butt;stroke-linejoin:miter;stroke:rgb(0%,0%,0%);stroke-opacity:1;stroke-miterlimit:10;" d="M 0.874375 0.953398 L 0.873242 0.0894922 L 0.441836 0.0883594 L 0.441836 0.420391 L 0.226133 0.0454688 L 0.125625 0.103047 L 0.441836 0.536719 L 0.440703 0.954531 Z M 0.874375 0.953398 " transform="matrix(100,0,0,100,450,500)"/>
<path style="fill:none;stroke-width:0.01;stroke-linecap:butt;stroke-linejoin:miter;stroke:rgb(0%,0%,0%);stroke-opacity:1;stroke-miterlimit:10;" d="M 0.901133 0.954531 L 0.899961 0.0466406 L 0.446602 0.0454688 L 0.446602 0.393203 L 0.0988672 0.686328 L 0.177188 0.780078 L 0.446602 0.51543 L 0.446602 0.954531 Z M 0.901133 0.954531 " transform="matrix(100,0,0,100,600,500)"/>
<path style="fill:none;stroke-width:0.01;stroke-linecap:butt;stroke-linejoin:miter;stroke:rgb(0%,0%,0%);stroke-opacity:1;stroke-miterlimit:10;" d="M 0.940312 0.954531 L 0.940312 0.0466406 L 0.485742 0.0454688 L 0.48457 0.393203 L 0.0596875 0.548672 L 0.10125 0.663789 L 0.48457 0.51543 L 0.485742 0.954531 Z M 0.940312 0.954531 " transform="matrix(100,0,0,100,0,650)"/>
<path style="fill:none;stroke-width:0.01;stroke-linecap:butt;stroke-linejoin:miter;stroke:rgb(0%,0%,0%);stroke-opacity:1;stroke-miterlimit:10;" d="M 0.795 0.954531 L 0.795 0.134336 L 0.384883 0.134336 L 0.383828 0.449141 L 0.313164 0.0454688 L 0.205 0.0647266 L 0.384883 0.558359 L 0.383828 0.954531 Z M 0.795 0.954531 " transform="matrix(100,0,0,100,150,650)"/>
<path style="fill:none;stroke-width:0.01;stroke-linecap:butt;stroke-linejoin:miter;stroke:rgb(0%,0%,0%);stroke-opacity:1;stroke-miterlimit:10;" d="M 0.940313 0.954531 L 0.939102 0.0466406 L 0.485742 0.0454688 L 0.485742 0.393203 L 0.0596875 0.549844 L 0.10125 0.663789 L 0.485742 0.51543 L 0.485742 0.954531 Z M 0.940313 0.954531 " transform="matrix(100,0,0,100,300,650)"/>
<path style="fill:none;stroke-width:0.01;stroke-linecap:butt;stroke-linejoin:miter;stroke:rgb(0%,0%,0%);stroke-opacity:1;stroke-miterlimit:10;" d="M 0.874922 0.953398 L 0.874922 0.0883594 L 0.442422 0.0883594 L 0.441289 0.419258 L 0.226719 0.0454688 L 0.125078 0.103047 L 0.441289 0.536719 L 0.441289 0.954531 Z M 0.874922 0.953398 " transform="matrix(100,0,0,100,450,650)"/>
<path style="fill:none;stroke-width:0.01;stroke-linecap:butt;stroke-linejoin:miter;stroke:rgb(0%,0%,0%);stroke-opacity:1;stroke-miterlimit:10;" d="M 0.874375 0.953398 L 0.873242 0.0894922 L 0.441836 0.0883594 L 0.440703 0.420391 L 0.226133 0.0454688 L 0.125625 0.103047 L 0.440703 0.536719 L 0.440703 0.954531 Z M 0.874375 0.953398 " transform="matrix(100,0,0,100,600,650)"/>
</g>
</svg>
