<?xml version="1.0" encoding="UTF-8"?>
<svg xmlns="http://www.w3.org/2000/svg" xmlns:xlink="http://www.w3.org/1999/xlink" width="750pt" height="3600pt" viewBox="0 0 750 3600" version="1.1">
<g id="surface1">
<path style="fill:none;stroke-width:0.01;stroke-linecap:butt;stroke-linejoin:miter;stroke:rgb(0%,0%,0%);stroke-opacity:1;stroke-miterlimit:10;" d="M 0.4925 0.450508 L 0.282461 0.424492 L 0.279492 0.266484 L 0.168477 0.0454687 L 0.100469 0.0814453 L 0.203477 0.284492 L 0.206484 0.425508 L 0.194453 0.4925 L 0.0984766 0.481484 L 0.0954688 0.5425 L 0.185469 0.553516 L 0.181484 0.619531 L 0.205469 0.759531 L 0.0884766 0.919531 L 0.168477 0.954531 L 0.228477 0.758516 L 0.270469 0.634531 L 0.4925 0.656523 L 0.723516 0.6825 L 0.911523 0.665508 L 0.899531 0.591523 L 0.733516 0.594492 L 0.590508 0.5425 L 0.723516 0.495508 L 0.878555 0.496484 L 0.889531 0.4275 L 0.717539 0.424492 Z M 0.4925 0.450508 " transform="matrix(100,0,0,100,0,200)"/>
<path style="fill:none;stroke-width:0.01;stroke-linecap:butt;stroke-linejoin:miter;stroke:rgb(0%,0%,0%);stroke-opacity:1;stroke-miterlimit:10;" d="M 0.515508 0.416484 L 0.284492 0.413477 L 0.274492 0.257461 L 0.155469 0.0454687 L 0.100469 0.0744531 L 0.196484 0.282461 L 0.186484 0.431484 L 0.181484 0.486484 L 0.0554687 0.4825 L 0.0584375 0.5625 L 0.182461 0.564492 L 0.190469 0.639531 L 0.209453 0.758516 L 0.125469 0.925547 L 0.191484 0.954531 L 0.249492 0.756523 L 0.278477 0.659531 L 0.515508 0.623516 L 0.739531 0.668516 L 0.920547 0.659531 L 0.927539 0.586523 L 0.767539 0.576523 L 0.610508 0.515508 L 0.759531 0.454492 L 0.934531 0.475508 L 0.944531 0.4075 L 0.758516 0.405508 Z M 0.515508 0.416484 " transform="matrix(100,0,0,100,150,200)"/>
<path style="fill:none;stroke-width:0.01;stroke-linecap:butt;stroke-linejoin:miter;stroke:rgb(0%,0%,0%);stroke-opacity:1;stroke-miterlimit:10;" d="M 0.4825 0.3825 L 0.272461 0.3525 L 0.301484 0.251484 L 0.255469 0.0594531 L 0.202461 0.0724609 L 0.239492 0.253477 L 0.205469 0.354492 L 0.217461 0.449492 L 0.0454687 0.464492 L 0.0624609 0.571523 L 0.228477 0.558516 L 0.251484 0.658516 L 0.295469 0.771523 L 0.242461 0.940547 L 0.315469 0.935547 L 0.3375 0.754531 L 0.3425 0.643516 L 0.4825 0.629531 L 0.740508 0.6475 L 0.930547 0.614492 L 0.905547 0.550508 L 0.745508 0.5625 L 0.595508 0.505508 L 0.767539 0.4425 L 0.954531 0.428477 L 0.948555 0.323477 L 0.746523 0.351484 Z M 0.4825 0.3825 " transform="matrix(100,0,0,100,300,200)"/>
<path style="fill:none;stroke-width:0.01;stroke-linecap:butt;stroke-linejoin:miter;stroke:rgb(0%,0%,0%);stroke-opacity:1;stroke-miterlimit:10;" d="M 0.503516 0.210469 L 0.269492 0.230469 L 0.172461 0.287461 L 0.0974609 0.4625 L 0.0554688 0.418477 L 0.158477 0.108477 L 0.168477 0.222461 L 0.161484 0.303477 L 0.0454688 0.300469 L 0.0454688 0.375469 L 0.158477 0.380469 L 0.167461 0.443477 L 0.242461 0.620508 L 0.174453 0.888555 L 0.280469 0.891523 L 0.272461 0.5925 L 0.268477 0.433477 L 0.503516 0.424492 L 0.717539 0.448477 L 0.918555 0.416484 L 0.912539 0.346484 L 0.758516 0.370469 L 0.601523 0.3225 L 0.770508 0.291484 L 0.954531 0.323477 L 0.943555 0.217461 L 0.757539 0.224453 Z M 0.503516 0.210469 " transform="matrix(100,0,0,100,450,200)"/>
<path style="fill:none;stroke-width:0.01;stroke-linecap:butt;stroke-linejoin:miter;stroke:rgb(0%,0%,0%);stroke-opacity:1;stroke-miterlimit:10;" d="M 0.479492 0.400508 L 0.257461 0.395508 L 0.241484 0.278477 L 0.136445 0.0964453 L 0.0904688 0.114453 L 0.184453 0.289492 L 0.176484 0.4075 L 0.167461 0.468516 L 0.0454688 0.460508 L 0.0484375 0.5375 L 0.161484 0.536484 L 0.170469 0.5975 L 0.193477 0.720508 L 0.103477 0.887539 L 0.174453 0.903555 L 0.217461 0.708516 L 0.265469 0.6025 L 0.479492 0.604492 L 0.699531 0.626523 L 0.854531 0.6225 L 0.863555 0.565508 L 0.711523 0.578516 L 0.575508 0.500508 L 0.762539 0.468516 L 0.954531 0.478516 L 0.943555 0.404492 L 0.742539 0.4125 Z M 0.479492 0.400508 " transform="matrix(100,0,0,100,600,200)"/>
<path style="fill:none;stroke-width:0.01;stroke-linecap:butt;stroke-linejoin:miter;stroke:rgb(0%,0%,0%);stroke-opacity:1;stroke-miterlimit:10;" d="M 0.480508 0.400508 L 0.272461 0.413477 L 0.210469 0.503516 L 0.163477 0.691523 L 0.109453 0.680508 L 0.147461 0.496484 L 0.184453 0.418477 L 0.177461 0.480508 L 0.0544531 0.4675 L 0.0454688 0.548516 L 0.162461 0.556523 L 0.169453 0.618516 L 0.145469 0.5175 L 0.0564453 0.341484 L 0.111445 0.308477 L 0.217461 0.498516 L 0.280469 0.6125 L 0.480508 0.605508 L 0.713516 0.623516 L 0.890547 0.616523 L 0.893555 0.571523 L 0.725508 0.569492 L 0.5875 0.4925 L 0.754531 0.433477 L 0.954531 0.421484 L 0.934531 0.340469 L 0.723516 0.370469 Z M 0.480508 0.400508 " transform="matrix(100,0,0,100,0,350)"/>
<path style="fill:none;stroke-width:0.01;stroke-linecap:butt;stroke-linejoin:miter;stroke:rgb(0%,0%,0%);stroke-opacity:1;stroke-miterlimit:10;" d="M 0.544492 0.4525 L 0.316484 0.458477 L 0.3175 0.303477 L 0.193477 0.0454687 L 0.150469 0.0724609 L 0.228477 0.292461 L 0.223477 0.453477 L 0.218477 0.524492 L 0.100469 0.526484 L 0.110469 0.598516 L 0.217461 0.598516 L 0.229492 0.668516 L 0.266484 0.784531 L 0.218477 0.940547 L 0.278477 0.954531 L 0.298477 0.776523 L 0.325469 0.683516 L 0.544492 0.646523 L 0.736523 0.6575 L 0.899531 0.644531 L 0.898555 0.586523 L 0.759531 0.598516 L 0.624531 0.550508 L 0.721523 0.506484 L 0.869531 0.5025 L 0.858555 0.430508 L 0.720508 0.441484 Z M 0.544492 0.4525 " transform="matrix(100,0,0,100,150,350)"/>
<path style="fill:none;stroke-width:0.01;stroke-linecap:butt;stroke-linejoin:miter;stroke:rgb(0%,0%,0%);stroke-opacity:1;stroke-miterlimit:10;" d="M 0.5275 0.285469 L 0.319492 0.286484 L 0.314492 0.191484 L 0.479492 0.247461 L 0.498516 0.187461 L 0.270469 0.0994531 L 0.199453 0.285469 L 0.185469 0.356484 L 0.0544531 0.341484 L 0.0454687 0.4375 L 0.172461 0.440508 L 0.197461 0.509492 L 0.241484 0.641523 L 0.184453 0.873555 L 0.261484 0.900547 L 0.270469 0.6675 L 0.297461 0.521484 L 0.5275 0.491484 L 0.743516 0.499492 L 0.899531 0.475508 L 0.878555 0.426484 L 0.745508 0.4325 L 0.631523 0.386484 L 0.777539 0.3375 L 0.954531 0.340469 L 0.933555 0.244492 L 0.749531 0.262461 Z M 0.5275 0.285469 " transform="matrix(100,0,0,100,300,350)"/>
<path style="fill:none;stroke-width:0.01;stroke-linecap:butt;stroke-linejoin:miter;stroke:rgb(0%,0%,0%);stroke-opacity:1;stroke-miterlimit:10;" d="M 0.476484 0.483516 L 0.266484 0.470508 L 0.193477 0.5325 L 0.123477 0.721523 L 0.0784766 0.709531 L 0.132461 0.5425 L 0.175469 0.475508 L 0.168477 0.5375 L 0.0454688 0.535508 L 0.0504688 0.615508 L 0.166484 0.610508 L 0.176484 0.668516 L 0.258477 0.798516 L 0.399492 0.708516 L 0.398477 0.676523 L 0.308477 0.684531 L 0.258477 0.686523 L 0.476484 0.6675 L 0.704531 0.703516 L 0.866523 0.699531 L 0.856523 0.6325 L 0.697539 0.636523 L 0.563516 0.571523 L 0.705508 0.539492 L 0.867539 0.565508 L 0.954531 0.420508 L 0.679531 0.201484 Z M 0.476484 0.483516 " transform="matrix(100,0,0,100,450,350)"/>
<path style="fill:none;stroke-width:0.01;stroke-linecap:butt;stroke-linejoin:miter;stroke:rgb(0%,0%,0%);stroke-opacity:1;stroke-miterlimit:10;" d="M 0.4925 0.559492 L 0.261484 0.551523 L 0.253477 0.368477 L 0.100469 0.0714453 L 0.0524609 0.135469 L 0.185469 0.401484 L 0.169453 0.559492 L 0.168477 0.625508 L 0.0454688 0.625508 L 0.0534375 0.701523 L 0.168477 0.699531 L 0.178477 0.766523 L 0.272461 0.928555 L 0.466484 0.820547 L 0.464492 0.774531 L 0.343477 0.785547 L 0.269492 0.789531 L 0.4925 0.769531 L 0.749531 0.791523 L 0.954531 0.745508 L 0.913555 0.673516 L 0.748516 0.709531 L 0.590508 0.653516 L 0.727539 0.593516 L 0.878555 0.581523 L 0.848516 0.501484 L 0.693516 0.5225 Z M 0.4925 0.559492 " transform="matrix(100,0,0,100,600,350)"/>
<path style="fill:none;stroke-width:0.01;stroke-linecap:butt;stroke-linejoin:miter;stroke:rgb(0%,0%,0%);stroke-opacity:1;stroke-miterlimit:10;" d="M 0.556523 0.459492 L 0.316484 0.438477 L 0.212461 0.516484 L 0.121445 0.745508 L 0.0454688 0.718516 L 0.206484 0.254492 L 0.204453 0.438477 L 0.196484 0.514492 L 0.0584375 0.511484 L 0.0584375 0.593516 L 0.188477 0.596523 L 0.199453 0.674531 L 0.190469 0.559492 L 0.0954688 0.376484 L 0.138477 0.3325 L 0.263477 0.550508 L 0.326484 0.669531 L 0.556523 0.6775 L 0.778516 0.674531 L 0.954531 0.628516 L 0.941562 0.564492 L 0.797539 0.5925 L 0.646523 0.559492 L 0.788516 0.5025 L 0.954531 0.468516 L 0.933555 0.389492 L 0.761523 0.426484 Z M 0.556523 0.459492 " transform="matrix(100,0,0,100,0,500)"/>
<path style="fill:none;stroke-width:0.01;stroke-linecap:butt;stroke-linejoin:miter;stroke:rgb(0%,0%,0%);stroke-opacity:1;stroke-miterlimit:10;" d="M 0.503516 0.378477 L 0.267461 0.371484 L 0.244492 0.259492 L 0.113477 0.0854688 L 0.0694531 0.111445 L 0.163477 0.273477 L 0.182461 0.388477 L 0.176484 0.445508 L 0.0454687 0.451484 L 0.0484375 0.541523 L 0.176484 0.5275 L 0.197461 0.594492 L 0.194453 0.730508 L 0.0514453 0.883555 L 0.118477 0.914531 L 0.233477 0.705508 L 0.288477 0.604492 L 0.503516 0.580508 L 0.704531 0.606523 L 0.900547 0.594492 L 0.900547 0.5575 L 0.737539 0.548516 L 0.606523 0.473516 L 0.757539 0.430508 L 0.954531 0.4375 L 0.940547 0.3425 L 0.764531 0.369492 Z M 0.503516 0.378477 " transform="matrix(100,0,0,100,150,500)"/>
<path style="fill:none;stroke-width:0.01;stroke-linecap:butt;stroke-linejoin:miter;stroke:rgb(0%,0%,0%);stroke-opacity:1;stroke-miterlimit:10;" d="M 0.496484 0.325469 L 0.278477 0.333477 L 0.189453 0.419492 L 0.118477 0.618516 L 0.0734766 0.588516 L 0.129453 0.162461 L 0.177461 0.329492 L 0.163477 0.405508 L 0.0454687 0.431484 L 0.0554688 0.503516 L 0.169453 0.491484 L 0.186484 0.559492 L 0.217461 0.6625 L 0.148477 0.822539 L 0.206484 0.837539 L 0.236484 0.656523 L 0.271484 0.555508 L 0.496484 0.526484 L 0.759531 0.559492 L 0.954531 0.5525 L 0.933555 0.475508 L 0.754531 0.488516 L 0.595508 0.410508 L 0.615508 0.267461 L 0.707539 0.328477 L 0.704531 0.290469 L 0.6175 0.302461 Z M 0.496484 0.325469 " transform="matrix(100,0,0,100,300,500)"/>
<path style="fill:none;stroke-width:0.01;stroke-linecap:butt;stroke-linejoin:miter;stroke:rgb(0%,0%,0%);stroke-opacity:1;stroke-miterlimit:10;" d="M 0.5225 0.474492 L 0.272461 0.458477 L 0.240469 0.336484 L 0.117461 0.160469 L 0.0824609 0.200469 L 0.184453 0.359492 L 0.191484 0.469492 L 0.188477 0.538516 L 0.0654687 0.518516 L 0.0454688 0.5925 L 0.172461 0.618516 L 0.183477 0.694531 L 0.283477 0.839531 L 0.460508 0.719531 L 0.458477 0.669531 L 0.341484 0.679531 L 0.276484 0.696523 L 0.5225 0.689531 L 0.748516 0.674531 L 0.922539 0.640508 L 0.924531 0.578516 L 0.767539 0.6125 L 0.623516 0.571523 L 0.762539 0.503516 L 0.941562 0.4825 L 0.954531 0.4125 L 0.769531 0.443477 Z M 0.5225 0.474492 " transform="matrix(100,0,0,100,450,500)"/>
<path style="fill:none;stroke-width:0.01;stroke-linecap:butt;stroke-linejoin:miter;stroke:rgb(0%,0%,0%);stroke-opacity:1;stroke-miterlimit:10;" d="M 0.516484 0.451484 L 0.276484 0.436484 L 0.255469 0.292461 L 0.124453 0.0474609 L 0.0764453 0.0864453 L 0.197461 0.286484 L 0.180469 0.4375 L 0.170469 0.509492 L 0.0494531 0.499492 L 0.0454688 0.576523 L 0.168477 0.583516 L 0.177461 0.656523 L 0.190469 0.779531 L 0.100469 0.917539 L 0.163477 0.952539 L 0.228477 0.779531 L 0.267461 0.676523 L 0.516484 0.676523 L 0.759531 0.700508 L 0.954531 0.663516 L 0.951563 0.594492 L 0.791523 0.600508 L 0.6175 0.556523 L 0.775547 0.533516 L 0.940547 0.548516 L 0.936562 0.465508 L 0.766523 0.446484 Z M 0.516484 0.451484 " transform="matrix(100,0,0,100,600,500)"/>
<path style="fill:none;stroke-width:0.01;stroke-linecap:butt;stroke-linejoin:miter;stroke:rgb(0%,0%,0%);stroke-opacity:1;stroke-miterlimit:10;" d="M 0.481484 0.360469 L 0.270469 0.3775 L 0.179453 0.461484 L 0.122461 0.681523 L 0.0634375 0.658516 L 0.115469 0.474492 L 0.160469 0.385508 L 0.155469 0.454492 L 0.0454688 0.4525 L 0.0494531 0.516484 L 0.152461 0.519492 L 0.162461 0.578516 L 0.271484 0.695508 L 0.398477 0.559492 L 0.391484 0.530508 L 0.302461 0.561523 L 0.253477 0.579492 L 0.481484 0.576523 L 0.727539 0.596523 L 0.927539 0.5625 L 0.927539 0.4925 L 0.759531 0.508516 L 0.589492 0.4575 L 0.759531 0.396484 L 0.954531 0.390508 L 0.945547 0.304492 L 0.734531 0.310469 Z M 0.481484 0.360469 " transform="matrix(100,0,0,100,0,650)"/>
<path style="fill:none;stroke-width:0.01;stroke-linecap:butt;stroke-linejoin:miter;stroke:rgb(0%,0%,0%);stroke-opacity:1;stroke-miterlimit:10;" d="M 0.508516 0.400508 L 0.287461 0.3875 L 0.277461 0.264492 L 0.129453 0.0454688 L 0.0724609 0.0624609 L 0.199453 0.273477 L 0.206484 0.390508 L 0.195469 0.458477 L 0.0854687 0.454492 L 0.0814453 0.530508 L 0.193477 0.534492 L 0.200469 0.5975 L 0.209453 0.744531 L 0.0804688 0.927539 L 0.161484 0.954531 L 0.239492 0.728516 L 0.288477 0.609492 L 0.508516 0.595508 L 0.720508 0.639531 L 0.885547 0.6275 L 0.873555 0.574492 L 0.728516 0.560508 L 0.603516 0.4975 L 0.765508 0.451484 L 0.927539 0.460508 L 0.909531 0.391484 L 0.746523 0.3825 Z M 0.508516 0.400508 " transform="matrix(100,0,0,100,150,650)"/>
<path style="fill:none;stroke-width:0.01;stroke-linecap:butt;stroke-linejoin:miter;stroke:rgb(0%,0%,0%);stroke-opacity:1;stroke-miterlimit:10;" d="M 0.5325 0.4275 L 0.3275 0.436484 L 0.310469 0.282461 L 0.168477 0.0454688 L 0.125469 0.0974609 L 0.260469 0.303477 L 0.247461 0.445508 L 0.247461 0.498516 L 0.138477 0.505508 L 0.148477 0.573516 L 0.246484 0.563516 L 0.261484 0.6275 L 0.281484 0.747539 L 0.208477 0.926523 L 0.282461 0.954531 L 0.319492 0.755508 L 0.346484 0.630508 L 0.5325 0.5975 L 0.730508 0.605508 L 0.874531 0.599492 L 0.867539 0.538516 L 0.737539 0.549492 L 0.614492 0.504492 L 0.709531 0.4675 L 0.850547 0.451484 L 0.854531 0.388477 L 0.716523 0.403477 Z M 0.5325 0.4275 " transform="matrix(100,0,0,100,300,650)"/>
<path style="fill:none;stroke-width:0.01;stroke-linecap:butt;stroke-linejoin:miter;stroke:rgb(0%,0%,0%);stroke-opacity:1;stroke-miterlimit:10;" d="M 0.5025 0.379492 L 0.290469 0.393477 L 0.298477 0.288477 L 0.466484 0.3775 L 0.491484 0.324492 L 0.262461 0.216484 L 0.173477 0.390508 L 0.161484 0.465508 L 0.0534375 0.4475 L 0.0454688 0.518516 L 0.149453 0.535508 L 0.148477 0.605508 L 0.254492 0.783516 L 0.458477 0.653516 L 0.460508 0.595508 L 0.325469 0.625508 L 0.252461 0.6275 L 0.5025 0.618516 L 0.733516 0.655508 L 0.954531 0.645508 L 0.950547 0.566523 L 0.766523 0.565508 L 0.608516 0.490508 L 0.761523 0.4525 L 0.944531 0.4675 L 0.953555 0.400508 L 0.755508 0.3875 Z M 0.5025 0.379492 " transform="matrix(100,0,0,100,450,650)"/>
<path style="fill:none;stroke-width:0.01;stroke-linecap:butt;stroke-linejoin:miter;stroke:rgb(0%,0%,0%);stroke-opacity:1;stroke-miterlimit:10;" d="M 0.531484 0.409492 L 0.319492 0.380469 L 0.298477 0.231484 L 0.147461 0.0454688 L 0.0974609 0.0794531 L 0.220469 0.275469 L 0.237461 0.394492 L 0.219453 0.463516 L 0.115469 0.450508 L 0.102461 0.523516 L 0.207461 0.529492 L 0.208477 0.596523 L 0.219453 0.755508 L 0.124453 0.921523 L 0.198477 0.954531 L 0.252461 0.735508 L 0.292461 0.615508 L 0.531484 0.608516 L 0.736523 0.630508 L 0.902539 0.614492 L 0.891523 0.550508 L 0.751523 0.553516 L 0.620508 0.4975 L 0.742539 0.464492 L 0.884531 0.4625 L 0.873555 0.3875 L 0.715508 0.404492 Z M 0.531484 0.409492 " transform="matrix(100,0,0,100,600,650)"/>
</g>
</svg>
