<?xml version="1.0" encoding="UTF-8"?>
<svg xmlns="http://www.w3.org/2000/svg" xmlns:xlink="http://www.w3.org/1999/xlink" width="750pt" height="3600pt" viewBox="0 0 750 3600" version="1.1">
<g id="surface1">
<path style="fill:none;stroke-width:0.01;stroke-linecap:butt;stroke-linejoin:miter;stroke:rgb(0%,0%,0%);stroke-opacity:1;stroke-miterlimit:10;" d="M 0.4875 0.633516 L 0.262461 0.604492 L 0.259492 0.385508 L 0.137461 0.112461 L 0.0644531 0.143477 L 0.171484 0.4175 L 0.169453 0.6025 L 0.156484 0.676523 L 0.0504687 0.663516 L 0.0454688 0.730508 L 0.145469 0.744531 L 0.140469 0.817539 L 0.131445 0.717539 L 0.0534375 0.524492 L 0.0984766 0.478516 L 0.146445 0.680508 L 0.260469 0.826523 L 0.4875 0.862539 L 0.749531 0.887539 L 0.954531 0.872539 L 0.937539 0.801523 L 0.755508 0.783516 L 0.596523 0.735508 L 0.745508 0.683516 L 0.917539 0.684531 L 0.930547 0.6075 L 0.738516 0.604492 Z M 0.4875 0.633516 " transform="matrix(100,0,0,100,0,200)"/>
<path style="fill:none;stroke-width:0.01;stroke-linecap:butt;stroke-linejoin:miter;stroke:rgb(0%,0%,0%);stroke-opacity:1;stroke-miterlimit:10;" d="M 0.498516 0.232461 L 0.280469 0.241484 L 0.209453 0.364492 L 0.206484 0.593516 L 0.144453 0.584492 L 0.167461 0.4075 L 0.173477 0.244492 L 0.176484 0.316484 L 0.0454687 0.321484 L 0.0504688 0.398477 L 0.172461 0.398477 L 0.175469 0.470508 L 0.205469 0.584492 L 0.137461 0.752539 L 0.191484 0.784531 L 0.269492 0.603516 L 0.260469 0.481484 L 0.498516 0.450508 L 0.714531 0.493516 L 0.918555 0.488516 L 0.908555 0.409492 L 0.757539 0.390508 L 0.598516 0.338477 L 0.760508 0.272461 L 0.939531 0.285469 L 0.954531 0.215469 L 0.758516 0.215469 Z M 0.498516 0.232461 " transform="matrix(100,0,0,100,150,200)"/>
<path style="fill:none;stroke-width:0.01;stroke-linecap:butt;stroke-linejoin:miter;stroke:rgb(0%,0%,0%);stroke-opacity:1;stroke-miterlimit:10;" d="M 0.506484 0.421484 L 0.321484 0.384492 L 0.353477 0.253477 L 0.334492 0.0454687 L 0.277461 0.0574609 L 0.278477 0.258477 L 0.255469 0.386484 L 0.246484 0.475508 L 0.0824609 0.471484 L 0.0754688 0.576523 L 0.250469 0.579492 L 0.270469 0.6725 L 0.306484 0.773516 L 0.254492 0.929531 L 0.314492 0.954531 L 0.370469 0.778516 L 0.356484 0.665508 L 0.506484 0.648516 L 0.738516 0.636523 L 0.924531 0.599492 L 0.919531 0.5325 L 0.750508 0.555508 L 0.605508 0.5275 L 0.757539 0.483516 L 0.919531 0.484492 L 0.918555 0.410508 L 0.744531 0.414492 Z M 0.506484 0.421484 " transform="matrix(100,0,0,100,300,200)"/>
<path style="fill:none;stroke-width:0.01;stroke-linecap:butt;stroke-linejoin:miter;stroke:rgb(0%,0%,0%);stroke-opacity:1;stroke-miterlimit:10;" d="M 0.490508 0.3725 L 0.287461 0.3925 L 0.289492 0.247461 L 0.192461 0.0454687 L 0.148477 0.0764453 L 0.214453 0.262461 L 0.211484 0.3925 L 0.204453 0.460508 L 0.107461 0.455508 L 0.105469 0.5175 L 0.199453 0.524492 L 0.206484 0.5775 L 0.244492 0.741523 L 0.151484 0.954531 L 0.269492 0.912539 L 0.143477 0.6025 L 0.291484 0.581523 L 0.490508 0.556523 L 0.6925 0.545508 L 0.859531 0.526484 L 0.852539 0.4725 L 0.710508 0.504492 L 0.5725 0.465508 L 0.722539 0.436484 L 0.889531 0.464492 L 0.894531 0.391484 L 0.702539 0.373477 Z M 0.490508 0.3725 " transform="matrix(100,0,0,100,450,200)"/>
<path style="fill:none;stroke-width:0.01;stroke-linecap:butt;stroke-linejoin:miter;stroke:rgb(0%,0%,0%);stroke-opacity:1;stroke-miterlimit:10;" d="M 0.436484 0.385508 L 0.261484 0.348477 L 0.267461 0.241484 L 0.226484 0.0824609 L 0.184453 0.0934766 L 0.214453 0.254492 L 0.198477 0.344492 L 0.194453 0.435508 L 0.0464453 0.438477 L 0.0454688 0.530508 L 0.190469 0.525508 L 0.206484 0.6125 L 0.254492 0.723516 L 0.210469 0.897539 L 0.263477 0.917539 L 0.303477 0.730508 L 0.296484 0.598516 L 0.436484 0.605508 L 0.679531 0.624531 L 0.860547 0.624531 L 0.853555 0.564492 L 0.698516 0.558516 L 0.543516 0.4925 L 0.732539 0.444492 L 0.954531 0.4675 L 0.949531 0.371484 L 0.727539 0.388477 Z M 0.436484 0.385508 " transform="matrix(100,0,0,100,600,200)"/>
<path style="fill:none;stroke-width:0.01;stroke-linecap:butt;stroke-linejoin:miter;stroke:rgb(0%,0%,0%);stroke-opacity:1;stroke-miterlimit:10;" d="M 0.463516 0.381484 L 0.233477 0.386484 L 0.218477 0.267461 L 0.126445 0.0794531 L 0.0664453 0.101445 L 0.150469 0.275469 L 0.153477 0.394492 L 0.156484 0.454492 L 0.0454688 0.4575 L 0.0474609 0.5275 L 0.152461 0.526484 L 0.169453 0.5875 L 0.204453 0.731523 L 0.0964453 0.926523 L 0.161484 0.954531 L 0.252461 0.756523 L 0.261484 0.595508 L 0.463516 0.575508 L 0.679531 0.594492 L 0.851523 0.586523 L 0.850547 0.5375 L 0.697539 0.520508 L 0.564492 0.468516 L 0.722539 0.4125 L 0.911523 0.401484 L 0.954531 0.264492 L 0.608516 0.0454687 Z M 0.463516 0.381484 " transform="matrix(100,0,0,100,0,350)"/>
<path style="fill:none;stroke-width:0.01;stroke-linecap:butt;stroke-linejoin:miter;stroke:rgb(0%,0%,0%);stroke-opacity:1;stroke-miterlimit:10;" d="M 0.549492 0.5075 L 0.290469 0.499492 L 0.258477 0.3325 L 0.133477 0.0784766 L 0.0684375 0.103477 L 0.175469 0.341484 L 0.194453 0.508516 L 0.185469 0.5875 L 0.0454687 0.596523 L 0.0594531 0.6925 L 0.187461 0.676523 L 0.195469 0.747539 L 0.335469 0.921523 L 0.538516 0.738516 L 0.546523 0.6925 L 0.401484 0.706523 L 0.300469 0.754531 L 0.549492 0.724531 L 0.770508 0.734531 L 0.954531 0.696523 L 0.947539 0.6425 L 0.790547 0.6475 L 0.6375 0.6125 L 0.640508 0.463516 L 0.750508 0.528516 L 0.741523 0.493516 L 0.660508 0.498516 Z M 0.549492 0.5075 " transform="matrix(100,0,0,100,150,350)"/>
<path style="fill:none;stroke-width:0.01;stroke-linecap:butt;stroke-linejoin:miter;stroke:rgb(0%,0%,0%);stroke-opacity:1;stroke-miterlimit:10;" d="M 0.503516 0.396484 L 0.294492 0.398477 L 0.281484 0.300469 L 0.451484 0.348477 L 0.469492 0.297461 L 0.243477 0.220469 L 0.178477 0.404492 L 0.166484 0.4725 L 0.0454687 0.4725 L 0.0454687 0.556523 L 0.163477 0.5475 L 0.180469 0.6075 L 0.273477 0.779531 L 0.484492 0.666523 L 0.4775 0.588516 L 0.315469 0.716523 L 0.268477 0.621523 L 0.503516 0.623516 L 0.743516 0.6075 L 0.912539 0.563516 L 0.901523 0.521484 L 0.744531 0.528516 L 0.606523 0.5025 L 0.764531 0.459492 L 0.943555 0.460508 L 0.954531 0.369492 L 0.760508 0.371484 Z M 0.503516 0.396484 " transform="matrix(100,0,0,100,300,350)"/>
<path style="fill:none;stroke-width:0.01;stroke-linecap:butt;stroke-linejoin:miter;stroke:rgb(0%,0%,0%);stroke-opacity:1;stroke-miterlimit:10;" d="M 0.4825 0.455508 L 0.261484 0.443477 L 0.267461 0.3125 L 0.155469 0.105469 L 0.0834766 0.133477 L 0.180469 0.3275 L 0.179453 0.446484 L 0.174453 0.5075 L 0.0454688 0.4975 L 0.0504688 0.5825 L 0.171484 0.5825 L 0.180469 0.641523 L 0.174453 0.758516 L 0.0524609 0.875547 L 0.138477 0.894531 L 0.144453 0.625508 L 0.263477 0.659531 L 0.4825 0.640508 L 0.703516 0.671523 L 0.860547 0.665508 L 0.855547 0.603516 L 0.699531 0.598516 L 0.566523 0.543516 L 0.700508 0.511484 L 0.862539 0.5375 L 0.954531 0.413477 L 0.695508 0.190469 Z M 0.4825 0.455508 " transform="matrix(100,0,0,100,450,350)"/>
<path style="fill:none;stroke-width:0.01;stroke-linecap:butt;stroke-linejoin:miter;stroke:rgb(0%,0%,0%);stroke-opacity:1;stroke-miterlimit:10;" d="M 0.501484 0.599492 L 0.262461 0.609492 L 0.240469 0.434492 L 0.113477 0.178477 L 0.0504688 0.228477 L 0.183477 0.481484 L 0.181484 0.623516 L 0.177461 0.686523 L 0.0454688 0.685508 L 0.0504688 0.766523 L 0.174453 0.759531 L 0.181484 0.821523 L 0.165469 0.717539 L 0.0994531 0.538516 L 0.139453 0.4775 L 0.178477 0.688516 L 0.289492 0.816523 L 0.501484 0.810547 L 0.742539 0.807539 L 0.954531 0.773516 L 0.923555 0.709531 L 0.747539 0.720508 L 0.599492 0.6925 L 0.732539 0.634531 L 0.900547 0.623516 L 0.872539 0.536484 L 0.708516 0.556523 Z M 0.501484 0.599492 " transform="matrix(100,0,0,100,600,350)"/>
<path style="fill:none;stroke-width:0.01;stroke-linecap:butt;stroke-linejoin:miter;stroke:rgb(0%,0%,0%);stroke-opacity:1;stroke-miterlimit:10;" d="M 0.524492 0.365469 L 0.324492 0.354492 L 0.275469 0.227461 L 0.132461 0.0454688 L 0.0974609 0.0814453 L 0.211484 0.247461 L 0.244492 0.369492 L 0.235469 0.435508 L 0.129453 0.423477 L 0.123477 0.498516 L 0.230469 0.500508 L 0.232461 0.566523 L 0.239492 0.726523 L 0.110469 0.907539 L 0.180469 0.954531 L 0.308477 0.751523 L 0.315469 0.584492 L 0.524492 0.549492 L 0.698516 0.563516 L 0.848516 0.559492 L 0.844531 0.498516 L 0.716523 0.486484 L 0.611523 0.456484 L 0.739531 0.4075 L 0.902539 0.385508 L 0.902539 0.304492 L 0.732539 0.333477 Z M 0.524492 0.365469 " transform="matrix(100,0,0,100,0,500)"/>
<path style="fill:none;stroke-width:0.01;stroke-linecap:butt;stroke-linejoin:miter;stroke:rgb(0%,0%,0%);stroke-opacity:1;stroke-miterlimit:10;" d="M 0.533516 0.271484 L 0.336484 0.275469 L 0.331484 0.192461 L 0.496484 0.250469 L 0.515508 0.197461 L 0.300469 0.125469 L 0.234492 0.278477 L 0.215469 0.336484 L 0.105469 0.326484 L 0.0964453 0.395508 L 0.203477 0.4125 L 0.208477 0.4775 L 0.183477 0.6525 L 0.0454687 0.838516 L 0.186484 0.874531 L 0.129453 0.498516 L 0.318477 0.503516 L 0.533516 0.480508 L 0.775547 0.488516 L 0.954531 0.473516 L 0.891523 0.4025 L 0.746523 0.533516 L 0.630508 0.374492 L 0.767539 0.339492 L 0.939531 0.338477 L 0.947539 0.250469 L 0.766523 0.267461 Z M 0.533516 0.271484 " transform="matrix(100,0,0,100,150,500)"/>
<path style="fill:none;stroke-width:0.01;stroke-linecap:butt;stroke-linejoin:miter;stroke:rgb(0%,0%,0%);stroke-opacity:1;stroke-miterlimit:10;" d="M 0.519492 0.350469 L 0.340469 0.326484 L 0.3525 0.246484 L 0.469492 0.330469 L 0.5025 0.294492 L 0.323477 0.179453 L 0.234492 0.3125 L 0.223477 0.3725 L 0.111445 0.3625 L 0.104453 0.428477 L 0.209453 0.4425 L 0.205469 0.509492 L 0.177461 0.651523 L 0.0454687 0.794531 L 0.162461 0.820547 L 0.152461 0.515508 L 0.292461 0.545508 L 0.519492 0.540508 L 0.715508 0.5725 L 0.874531 0.566523 L 0.879531 0.513516 L 0.733516 0.490508 L 0.619531 0.4475 L 0.763516 0.401484 L 0.938555 0.405508 L 0.954531 0.333477 L 0.760508 0.325469 Z M 0.519492 0.350469 " transform="matrix(100,0,0,100,300,500)"/>
<path style="fill:none;stroke-width:0.01;stroke-linecap:butt;stroke-linejoin:miter;stroke:rgb(0%,0%,0%);stroke-opacity:1;stroke-miterlimit:10;" d="M 0.534492 0.242461 L 0.294492 0.277461 L 0.302461 0.185469 L 0.4725 0.244492 L 0.490508 0.188477 L 0.248477 0.0934766 L 0.173477 0.283477 L 0.164453 0.359492 L 0.0454688 0.364492 L 0.0464453 0.441484 L 0.168477 0.438477 L 0.184453 0.509492 L 0.229492 0.654531 L 0.117461 0.868555 L 0.181484 0.906523 L 0.290469 0.6875 L 0.284492 0.513516 L 0.534492 0.475508 L 0.767539 0.4875 L 0.954531 0.458477 L 0.943555 0.403477 L 0.783516 0.395508 L 0.6425 0.356484 L 0.6675 0.152461 L 0.779531 0.251484 L 0.764531 0.198477 L 0.663516 0.220469 Z M 0.534492 0.242461 " transform="matrix(100,0,0,100,450,500)"/>
<path style="fill:none;stroke-width:0.01;stroke-linecap:butt;stroke-linejoin:miter;stroke:rgb(0%,0%,0%);stroke-opacity:1;stroke-miterlimit:10;" d="M 0.4875 0.238477 L 0.269492 0.235469 L 0.192461 0.350469 L 0.126445 0.558516 L 0.0624609 0.524492 L 0.124453 0.365469 L 0.183477 0.232461 L 0.175469 0.300469 L 0.0624609 0.279492 L 0.0454688 0.350469 L 0.161484 0.374492 L 0.162461 0.4425 L 0.174453 0.571523 L 0.0724609 0.736523 L 0.124453 0.767539 L 0.235469 0.603516 L 0.258477 0.458477 L 0.4875 0.444492 L 0.742539 0.525508 L 0.949531 0.528516 L 0.954531 0.433477 L 0.758516 0.4075 L 0.594492 0.341484 L 0.749531 0.311484 L 0.942539 0.323477 L 0.950547 0.237461 L 0.766523 0.236484 Z M 0.4875 0.238477 " transform="matrix(100,0,0,100,600,500)"/>
<path style="fill:none;stroke-width:0.01;stroke-linecap:butt;stroke-linejoin:miter;stroke:rgb(0%,0%,0%);stroke-opacity:1;stroke-miterlimit:10;" d="M 0.523516 0.445508 L 0.293477 0.411484 L 0.279492 0.272461 L 0.187461 0.0824609 L 0.124453 0.100469 L 0.209453 0.293477 L 0.207461 0.413477 L 0.204453 0.480508 L 0.0924609 0.468516 L 0.0904688 0.541523 L 0.196484 0.5525 L 0.205469 0.6225 L 0.169453 0.750508 L 0.0454688 0.867539 L 0.0874609 0.917539 L 0.230469 0.798516 L 0.294492 0.651523 L 0.523516 0.649531 L 0.766523 0.6725 L 0.954531 0.6375 L 0.937539 0.5625 L 0.773516 0.570508 L 0.6175 0.541523 L 0.760508 0.494492 L 0.922539 0.491484 L 0.918555 0.408477 L 0.738516 0.434492 Z M 0.523516 0.445508 " transform="matrix(100,0,0,100,0,650)"/>
<path style="fill:none;stroke-width:0.01;stroke-linecap:butt;stroke-linejoin:miter;stroke:rgb(0%,0%,0%);stroke-opacity:1;stroke-miterlimit:10;" d="M 0.546523 0.565508 L 0.334492 0.5725 L 0.293477 0.420508 L 0.0984766 0.198477 L 0.0454687 0.211484 L 0.197461 0.420508 L 0.246484 0.586523 L 0.240469 0.6475 L 0.148477 0.639531 L 0.135469 0.704531 L 0.237461 0.718516 L 0.250469 0.782539 L 0.229492 0.686523 L 0.137461 0.5525 L 0.171484 0.496484 L 0.238477 0.6775 L 0.349492 0.776523 L 0.546523 0.764531 L 0.771523 0.801523 L 0.939531 0.784531 L 0.930547 0.733516 L 0.784531 0.718516 L 0.6475 0.663516 L 0.778516 0.623516 L 0.954531 0.624531 L 0.953555 0.550508 L 0.762539 0.555508 Z M 0.546523 0.565508 " transform="matrix(100,0,0,100,150,650)"/>
<path style="fill:none;stroke-width:0.01;stroke-linecap:butt;stroke-linejoin:miter;stroke:rgb(0%,0%,0%);stroke-opacity:1;stroke-miterlimit:10;" d="M 0.498516 0.454492 L 0.284492 0.450508 L 0.280469 0.296484 L 0.158477 0.0454688 L 0.101445 0.0684375 L 0.202461 0.315469 L 0.201484 0.458477 L 0.198477 0.5225 L 0.0854687 0.5475 L 0.100469 0.616523 L 0.201484 0.593516 L 0.214453 0.656523 L 0.223477 0.776523 L 0.117461 0.918555 L 0.165469 0.954531 L 0.264492 0.811523 L 0.290469 0.671523 L 0.498516 0.648516 L 0.720508 0.655508 L 0.886523 0.646523 L 0.884531 0.5875 L 0.737539 0.590508 L 0.593516 0.544492 L 0.731523 0.474492 L 0.914531 0.469492 L 0.892539 0.3875 L 0.707539 0.4075 Z M 0.498516 0.454492 " transform="matrix(100,0,0,100,300,650)"/>
<path style="fill:none;stroke-width:0.01;stroke-linecap:butt;stroke-linejoin:miter;stroke:rgb(0%,0%,0%);stroke-opacity:1;stroke-miterlimit:10;" d="M 0.494492 0.3925 L 0.334492 0.3625 L 0.3525 0.289492 L 0.4775 0.385508 L 0.505508 0.3375 L 0.353477 0.215469 L 0.245469 0.338477 L 0.231484 0.434492 L 0.0454688 0.443477 L 0.0494531 0.559492 L 0.226484 0.543516 L 0.246484 0.638516 L 0.3775 0.784531 L 0.538516 0.609492 L 0.498516 0.559492 L 0.3925 0.685508 L 0.343477 0.6275 L 0.494492 0.624531 L 0.751523 0.671523 L 0.952539 0.6575 L 0.954531 0.5675 L 0.773516 0.5475 L 0.603516 0.4925 L 0.730508 0.441484 L 0.891523 0.431484 L 0.866523 0.354492 L 0.709531 0.358477 Z M 0.494492 0.3925 " transform="matrix(100,0,0,100,450,650)"/>
<path style="fill:none;stroke-width:0.01;stroke-linecap:butt;stroke-linejoin:miter;stroke:rgb(0%,0%,0%);stroke-opacity:1;stroke-miterlimit:10;" d="M 0.5125 0.409492 L 0.315469 0.405508 L 0.324492 0.271484 L 0.217461 0.0454688 L 0.167461 0.0864453 L 0.235469 0.285469 L 0.241484 0.410508 L 0.230469 0.469492 L 0.117461 0.459492 L 0.112461 0.534492 L 0.220469 0.534492 L 0.225469 0.593516 L 0.276484 0.738516 L 0.224453 0.932539 L 0.288477 0.954531 L 0.353477 0.745508 L 0.3075 0.590508 L 0.5125 0.593516 L 0.704531 0.636523 L 0.865547 0.624531 L 0.877539 0.574492 L 0.735508 0.555508 L 0.613516 0.499492 L 0.737539 0.451484 L 0.887539 0.4375 L 0.879531 0.381484 L 0.727539 0.383477 Z M 0.5125 0.409492 " transform="matrix(100,0,0,100,600,650)"/>
</g>
</svg>
