<?xml version="1.0" encoding="UTF-8" standalone="no"?>
<!-- Created with Inkscape (http://www.inkscape.org/) -->

<svg
   xmlns:dc="http://purl.org/dc/elements/1.1/"
   xmlns:cc="http://creativecommons.org/ns#"
   xmlns:rdf="http://www.w3.org/1999/02/22-rdf-syntax-ns#"
   xmlns:svg="http://www.w3.org/2000/svg"
   xmlns="http://www.w3.org/2000/svg"
   xmlns:sodipodi="http://sodipodi.sourceforge.net/DTD/sodipodi-0.dtd"
   xmlns:inkscape="http://www.inkscape.org/namespaces/inkscape"
   width="744.09448819"
   height="1052.3622047"
   id="svg2"
   version="1.1"
   inkscape:version="0.47 r22583"
   sodipodi:docname="basri_variation.eps">
  <defs
     id="defs4">
    <inkscape:perspective
       sodipodi:type="inkscape:persp3d"
       inkscape:vp_x="0 : 526.18109 : 1"
       inkscape:vp_y="0 : 1000 : 0"
       inkscape:vp_z="744.09448 : 526.18109 : 1"
       inkscape:persp3d-origin="372.04724 : 350.78739 : 1"
       id="perspective10" />
    <inkscape:perspective
       id="perspective2884"
       inkscape:persp3d-origin="0.5 : 0.33333333 : 1"
       inkscape:vp_z="1 : 0.5 : 1"
       inkscape:vp_y="0 : 1000 : 0"
       inkscape:vp_x="0 : 0.5 : 1"
       sodipodi:type="inkscape:persp3d" />
  </defs>
  <sodipodi:namedview
     id="base"
     pagecolor="#ffffff"
     bordercolor="#666666"
     borderopacity="1.0"
     inkscape:pageopacity="0.0"
     inkscape:pageshadow="2"
     inkscape:zoom="1.0187957"
     inkscape:cx="78.257723"
     inkscape:cy="454.1669"
     inkscape:document-units="px"
     inkscape:current-layer="layer1"
     showgrid="false"
     inkscape:window-width="1680"
     inkscape:window-height="975"
     inkscape:window-x="0"
     inkscape:window-y="24"
     inkscape:window-maximized="1" />
  <metadata
     id="metadata7">
    <rdf:RDF>
      <cc:Work
         rdf:about="">
        <dc:format>image/svg+xml</dc:format>
        <dc:type
           rdf:resource="http://purl.org/dc/dcmitype/StillImage" />
        <dc:title></dc:title>
      </cc:Work>
    </rdf:RDF>
  </metadata>
  <g
     inkscape:label="Layer 1"
     inkscape:groupmode="layer"
     id="layer1">
    <path
       style="fill:none;stroke:#000000;stroke-opacity:1"
       d="m 458.78125,251.71699 -10.34375,10.21875 -10.3125,10.21875 10.25,21.4375 10.25,21.4375 10.84375,0.25 10.875,0.25 0.25,11.53125 0.25,11.53125 -21.28125,0 -21.3125,0 0,10.40625 c 0,7.60048 -0.28542,10.4375 -1.09375,10.4375 -0.60879,0 -10.68687,-9.56777 -22.40625,-21.25 l -21.3125,-21.25 -43.21875,10.96875 c -23.7651,6.03489 -43.47344,10.71404 -43.78125,10.40625 -0.3078,-0.30782 7.93137,-13.49093 18.28125,-29.3125 10.34987,-15.82158 19.45981,-29.76243 20.25,-31 1.10577,-1.73179 0.17917,-1.30314 -4,1.875 -44.1215,33.55309 -76.56409,57.82965 -77.53125,58.03125 -0.98851,0.20605 -1.2859,-7.49857 -1.65625,-42.4375 l -0.4375,-42.6875 -20.5,10.09375 -20.46875,10.125 10.40625,53.375 c 5.71757,29.36746 10.49142,53.53908 10.625,53.6875 0.13359,0.14839 24.58337,-4.65709 54.3125,-10.65625 l 54.03125,-10.90625 41.3125,10.46875 c 22.71841,5.75312 42.68386,10.90372 44.375,11.4375 l 3.09375,0.96875 -0.34375,32.25 c -0.0362,3.38304 -0.0673,7.1394 -0.0937,10.875 -1.95435,-0.35735 -20.42558,-5.33068 -42.3125,-11.40625 -22.67037,-6.29307 -41.45735,-11.46143 -41.75,-11.46875 -0.29266,-0.007 -1.12016,19.43043 -1.84375,43.1875 l -1.3438,43.1875 -32.78125,-0.5625 c -25.72096,-0.45709 -32.80337,-0.83418 -32.78125,-1.71875 0.0155,-0.62041 4.70741,-5.59657 10.4375,-11.0625 l 10.4375,-9.9375 -53.1875,-1.34375 -53.15625,-1.3125 0,10.5625 -0.0312,10.59375 63.65625,23.15625 c 35.00129,12.75102 64.0595,23.04561 64.59375,22.84375 0.53425,-0.20186 25.4724,-18.95209 55.40625,-41.65625 28.28962,-21.45707 51.73422,-39.02733 54.5625,-40.90625 -0.0116,8.25633 -0.0189,15.95508 0.0312,21.15625 l 0.21875,21.9375 10.40625,0 10.40625,0 0,43.46875 0,43.46875 10.1875,-0.25 10.1875,-0.25 0.21875,-43.25 0.25,-43.25 11.53125,0.25 11.53125,0.25 0.21875,43.21875 0.25,43.21875 9.9375,0 9.9375,0 0.21875,-43.21875 0.25,-43.21875 10.40625,-0.4375 10.40625,-0.46875 0.25,-54.0625 c -0.2031,-29.13986 0.74915,-57.10553 0,-85.96875 l -0.25,-10.1875 -21.53125,-0.25 -21.5,-0.25 0.25,-11.5 0.25,-11.53125 10.96875,-0.25 10.9375,-0.25 8.40625,-17.40625 c 4.62084,-9.56701 9.25111,-19.123 10.28125,-21.25 l 1.875,-3.875 -10.375,-10.375 -10.34375,-10.40625 -32.53125,0 -32.5,0 z"
       id="path3683"
       inkscape:export-filename="/home/epurdy/path2890.png"
       inkscape:export-xdpi="26.030001"
       inkscape:export-ydpi="26.030001" />
  </g>
</svg>
