<?xml version="1.0" encoding="UTF-8" standalone="no"?>
<svg
   xmlns:dc="http://purl.org/dc/elements/1.1/"
   xmlns:cc="http://creativecommons.org/ns#"
   xmlns:rdf="http://www.w3.org/1999/02/22-rdf-syntax-ns#"
   xmlns:svg="http://www.w3.org/2000/svg"
   xmlns="http://www.w3.org/2000/svg"
   xmlns:sodipodi="http://sodipodi.sourceforge.net/DTD/sodipodi-0.dtd"
   xmlns:inkscape="http://www.inkscape.org/namespaces/inkscape"
   width="400pt"
   height="400pt"
   viewBox="0 0 400 400"
   version="1.1"
   id="svg2"
   inkscape:version="0.47 r22583"
   sodipodi:docname="subsample.svg">
  <metadata
     id="metadata29">
    <rdf:RDF>
      <cc:Work
         rdf:about="">
        <dc:format>image/svg+xml</dc:format>
        <dc:type
           rdf:resource="http://purl.org/dc/dcmitype/StillImage" />
        <dc:title></dc:title>
      </cc:Work>
    </rdf:RDF>
  </metadata>
  <defs
     id="defs27">
    <inkscape:perspective
       sodipodi:type="inkscape:persp3d"
       inkscape:vp_x="0 : 250 : 1"
       inkscape:vp_y="0 : 1000 : 0"
       inkscape:vp_z="500 : 250 : 1"
       inkscape:persp3d-origin="250 : 166.66667 : 1"
       id="perspective31" />
  </defs>
  <sodipodi:namedview
     pagecolor="#ffffff"
     bordercolor="#666666"
     borderopacity="1"
     objecttolerance="10"
     gridtolerance="10"
     guidetolerance="10"
     inkscape:pageopacity="0"
     inkscape:pageshadow="2"
     inkscape:window-width="1680"
     inkscape:window-height="975"
     id="namedview25"
     showgrid="false"
     inkscape:zoom="0.472"
     inkscape:cx="-32.838983"
     inkscape:cy="250"
     inkscape:window-x="0"
     inkscape:window-y="24"
     inkscape:window-maximized="1"
     inkscape:current-layer="svg2" />
  <path
     id="path5"
     d="m -848.8562,-83.633705 -0.25882,0.96593 -0.25882,0.96593 -0.25882,0.96592 -0.25881,0.96593 -0.25882,0.96592 0.7071,1.22475 -1.22474,0.70711 -0.25882,0.96592 -0.25882,0.96593 0.70711,1.22474 -0.25882,0.96593 -0.25882,0.96592 0.70711,1.22475 -0.25882,0.96592 -0.25882,0.96593 -1.22475,0.70711 -0.25882,0.96592 0.70711,1.22475 0.70711,1.22474 0.7071,1.22475 0.96593,0.25882 1.22474,-0.70711 0.96593,0.25882 0.70711,1.22474 0.7071,1.22475 0.70711,1.22474 0.70711,1.22475 1.22474,-0.70711 0.96593,0.25882 0.96592,0.25882 0.96593,0.25882 -0.25882,0.96592 0.70711,1.22475 -0.25882,0.96593 0.70711,1.22474 0.7071,1.22475 1.22475,-0.70711 1.22474,-0.70711 0.70711,1.22475 0.96592,0.25882 -0.25881,0.96592 0.7071,1.22475 -0.25882,0.96592 0.70711,1.22475 0.96593,0.25882 0.96592,0.25882 0.96593,0.25881 0.96592,0.25882 -0.25882,0.96593 0.70711,1.22474 0.70711,1.22475 0.7071,1.22474 1.22475,-0.7071 0.70711,1.22474 -0.25882,0.96593 -0.25882,0.96592 0.7071,1.22475 -0.25881,0.96592 0.7071,1.22475 1.22475,-0.70711 0.96592,0.25882 0.70711,1.22475 0.70711,1.22474 -0.25882,0.96593 -0.25882,0.96592 0.70711,1.22475 0.7071,1.22474 1.22475,-0.7071 1.22474,-0.70711 0.96593,0.25882 -0.25882,0.96592 0.70711,1.22475 -0.25882,0.96592 -0.25882,0.96593 0.7071,1.22475 0.70711,1.22474 0.96593,0.25882 0.96592,0.25882 -0.25882,0.96592 -0.25882,0.96593 -0.25881,0.96593 -0.25882,0.96592 -0.25882,0.96593 -0.25882,0.96592 -0.25882,0.96593 0.70711,1.22474 1.22474,-0.7071 0.96593,0.25882 0.96592,0.25881 -0.25882,0.96593 -0.25882,0.96593 -0.25881,0.96592 -0.25882,0.96593 -0.25882,0.96592 -0.25882,0.96593 -1.22475,0.70711 0.70711,1.2247397 0.96593,0.25882 1.22474,-0.70711 1.22475,-0.7070997 0.25881,-0.96593 0.96593,0.25882 -0.25882,0.9659297 0.70711,1.22474 -0.25882,0.96593 -0.25882,0.96592 -1.22474,0.70711 0.7071,1.22474 -0.25882,0.96593 -0.25882,0.96593 0.70711,1.22474 -0.25882,0.96593005 0.70711,1.22474 0.96592,0.25882 -0.25881,0.96592995 -0.25882,0.96592 -0.25882,0.96593 -0.25882,0.96592 0.70711,1.22475 0.7071,1.22474 0.96593,0.25882 0.7071,1.22475 -0.25881,0.96592 -0.25882,0.9659303 -0.25882,0.96593 -1.22475,0.7071 -0.25882,0.96593 0.70711,1.22474 0.96593,0.25882 0.7071,1.22475 -0.25882,0.96592 -0.25882,0.96593 -0.25881,0.96592 -0.25882,0.96593 -0.25882,0.96593 -0.25882,0.96592 -1.22475,0.70711 -0.25882,0.96592 -0.25881,0.96593 0.7071,1.22474 1.22475,-0.7071 -0.25882,0.96592 0.7071,1.22475 -0.25881,0.96592 -0.25882,0.96593 -0.25882,0.96593 -1.22475,0.7071 -0.25882,0.96593 0.70711,1.22474 0.96593,0.25882 0.96592,0.25882 -0.25882,0.96593 -0.25882,0.96592 -0.25881,0.96593 -1.22475,0.70711 -0.25882,0.96592 -0.25882,0.96593 -0.25882,0.96592 -0.25882,0.96593 -0.25882,0.96593 -0.25881,0.96592 -0.25882,0.96593 -0.25882,0.96592 -1.22475,0.70711 -0.25882,0.96593 -0.25882,0.96592 -1.22474,0.70711 -0.25882,0.96592 0.70711,1.22475 0.96592,0.25881 0.96593,0.25882 0.70711,1.22475 -0.25882,0.96592 -0.25882,0.96593 -1.22475,0.70711 -0.25882,0.96592 -0.25881,0.96593 -1.22475,0.70711 -0.25882,0.96592 0.70711,1.22475 -0.25882,0.96592 -0.25882,0.96593 -1.22475,0.7071 -0.25881,0.96593 -0.25882,0.96593 -1.22475,0.7071 -0.25882,0.96593 0.70711,1.22474 -0.25882,0.96593 -0.25882,0.96593 -1.22474,0.7071 -0.25882,0.96593 -1.22475,0.7071 0.70711,1.22475 0.70711,1.22474 -0.25882,0.96593 -0.25882,0.96593 -1.22475,0.7071 0.70711,1.22475 -0.25882,0.96592 -0.25882,0.96593 -0.25882,0.96593 -1.22474,0.7071 -0.25882,0.96593 -0.25882,0.96592 0.70711,1.22475 -0.25882,0.96592 -0.25882,0.96593 -0.25882,0.96593 -1.22475,0.7071 -0.25881,0.96593 0.7071,1.22474 -0.25882,0.96593 -0.25882,0.96592 -0.25881,0.96593 -1.22475,0.70711 -0.96593,-0.25882 -1.22474,0.70711 -0.25882,0.96592 0.70711,1.22475 -0.25882,0.96592 -1.22475,0.70711 -1.22474,0.707109 -1.22475,0.7071 -0.25882,0.965926 -0.25881,0.96592 -0.25882,0.96593 -1.22475,0.70711 -1.22474,0.7071 -0.25882,0.96593 -0.25882,0.96592 -0.25882,0.96593 -0.25882,0.96593 -0.25882,0.96592 -1.22474,0.70711 -0.25882,0.96593 -1.22475,0.7071 -0.25882,0.96593 -0.25882,0.96592 -0.25881,0.96593 -0.96593,-0.25882 -1.22475,0.70711 -0.25881,0.96592 -1.22475,0.70711 -1.22474,0.70711 -0.25882,0.96592 -0.25882,0.96593 -1.22475,0.7071 -0.25882,0.96593 -1.22474,0.70711 -1.22475,0.7071 -1.22474,0.70711 -0.25882,0.96593 -0.25882,0.96592 -1.22474,0.70711 -0.96593,-0.25882 -1.22474,0.70711 -0.25882,0.96592 -1.22475,0.70711 -1.22474,0.70711 -0.25882,0.96592 -1.22475,0.70711 -1.22474,0.70711 -1.22475,0.7071 -1.22474,0.70711 -0.25882,0.96593 -0.25882,0.96592 -0.96593,-0.25882 -1.22474,0.70711 -1.22475,0.70711 -0.96592,-0.25882 -0.96593,-0.25882 -1.22474,0.7071 -0.25882,0.96593 -1.22475,0.70711 -0.96592,-0.25882 -0.96593,-0.25882 -1.22474,0.70711 -1.22475,0.7071 -0.96592,-0.25882 -0.70711,-1.22474 -1.22474,0.70711 -1.22475,0.7071 -0.25882,0.96593 -0.25882,0.96592 -0.96592,-0.25882 -1.22475,0.70711 -0.96592,-0.25882 -0.96593,-0.25882 -0.96593,-0.25882 -0.96592,-0.25881 -1.22475,0.7071 -1.22474,0.70711 -0.96593,-0.25882 -0.96592,-0.25882 -0.96593,-0.25882 -0.96592,-0.25882 -1.22475,0.70711 -1.22474,0.70711 -0.96593,-0.25882 -0.70711,-1.22475 -0.96592,-0.25882 -0.70711,-1.22474 -1.22474,0.70711 -0.96593,-0.25882 -0.70711,-1.22475 -0.96592,-0.25882 -0.70711,-1.22474 1.22475,-0.70711 -0.70711,-1.22474 -0.70711,-1.22475 -0.7071,-1.22474 -0.96593,-0.25882 -0.96593,-0.25882 0.25882,-0.96593 0.25882,-0.96592 -0.7071,-1.22475 0.25881,-0.96592 0.25882,-0.96593 0.25882,-0.96593 1.22475,-0.7071 0.25882,-0.96593 0.25882,-0.96592 0.25882,-0.96593 1.22474,-0.70711 1.22474,-0.7071 0.25882,-0.96593 1.22475,-0.70711 0.25882,-0.96592 1.22474,-0.70711 -0.7071,-1.22474 -0.96593,-0.25882 -0.70711,-1.22475 -0.7071,-1.22474 -0.96593,-0.25882 -0.70711,-1.22475 -0.7071,-1.22474 0.25882,-0.96593 -0.70711,-1.22474 -0.70711,-1.22475 -0.96592,-0.25882 -0.96593,-0.25882 -0.96592,-0.25881 -0.70711,-1.22475 -0.96593,-0.25882 -0.7071,-1.22474 -0.70711,-1.22475 -0.96593,-0.25882 0.25882,-0.965916 -0.7071,-1.22475 -0.70711,-1.224739 -0.70711,-1.22475 0.25882,-0.96592 0.25882,-0.96593 -0.70711,-1.22474 -0.96592,-0.25882 -0.70711,-1.22475 0.25882,-0.96592 -0.70711,-1.22475 0.25882,-0.96592 -0.7071,-1.22475 0.25881,-0.96593 -0.7071,-1.22474 -0.70711,-1.22475 -0.96593,-0.25881 0.25882,-0.96593 -0.7071,-1.22475 -0.70711,-1.22474 -0.70711,-1.22474 -0.7071,-1.22475 -0.70711,-1.22474 0.25882,-0.96593 -0.70711,-1.22475 0.25882,-0.96592 0.25882,-0.96593 -0.70711,-1.22474 -0.7071,-1.22475 0.25882,-0.96592 0.25881,-0.96593 -0.7071,-1.22474 -0.70711,-1.22475 0.25882,-0.96592 -0.70711,-1.22475 -0.96592,-0.25882 0.25882,-0.96592 -0.70711,-1.22475 0.25882,-0.96592 -0.70711,-1.22475 0.25882,-0.96593 0.25882,-0.96592 0.25882,-0.96593 -0.70711,-1.22474 0.25882,-0.96593 -0.70711,-1.22474 0.25882,-0.96593 0.25882,-0.96592 0.25882,-0.96593 -0.7071,-1.22474 0.25881,-0.96593 -0.7071,-1.22474 0.25882,-0.96593 -0.70711,-1.22474 0.25882,-0.96593 1.22474,-0.70711 0.25882,-0.96592 0.25882,-0.96593 -0.7071,-1.22474 -0.70711,-1.22475 -0.96593,-0.25882 -0.7071,-1.22474 0.25881,-0.96593 0.25882,-0.96592 -0.7071,-1.22475 -0.70711,-1.22474 0.25882,-0.96593 0.25882,-0.96592 1.22474,-0.70711 -0.7071,-1.22475 0.25882,-0.96592 -0.70711,-1.22475 0.25882,-0.96592 -0.70711,-1.22475 0.25882,-0.96592 1.22474,-0.70711 0.25882,-0.96593 0.25882,-0.96592 0.25882,-0.96593 -0.7071,-1.22474 0.25881,-0.96593 0.25882,-0.96592 0.25882,-0.96593 -0.7071,-1.22474 0.25881,-0.96593 0.25882,-0.96593 0.25882,-0.96592 -0.7071,-1.2247503 0.25881,-0.96592 0.25882,-0.96593 0.25882,-0.96592 1.22475,-0.70711 0.25882,-0.96593 -0.70711,-1.22474 0.25882,-0.96593 -0.70711,-1.22474 -0.7071,-1.22474995 0.25881,-0.96592 0.25882,-0.96593005 0.25882,-0.96592 1.22475,-0.70711 0.25882,-0.96593 0.25882,-0.96592 0.25881,-0.96593 -0.7071,-1.22474 0.25882,-0.96593 0.25882,-0.96593 1.22474,-0.7071 0.96593,0.25882 1.22474,-0.7071097 0.25882,-0.96593 0.25882,-0.96592 -0.70711,-1.22475 0.25882,-0.96592 0.25882,-0.96593 -0.70711,-1.22474 0.25882,-0.96593 1.22475,-0.70711 1.22474,-0.7071 1.22475,-0.70711 -0.70711,-1.22474 0.25882,-0.96593 0.25882,-0.96593 0.25882,-0.96592 0.96592,0.25882 0.96593,0.25882 1.22475,-0.70711 0.25881,-0.96593 0.25882,-0.96592 0.25882,-0.96593 0.25882,-0.96592 0.25882,-0.96593 0.25882,-0.96593 0.25882,-0.96592 0.25882,-0.96593 -0.70711,-1.22474 1.22475,-0.70711 0.25881,-0.96592 1.22475,-0.70711 1.22474,-0.70711 0.25882,-0.96592 -0.7071,-1.22475 0.25882,-0.96592 0.25881,-0.96593 0.25882,-0.96593 1.22475,-0.7071 0.96592,0.25882 0.96593,0.25882 1.22474,-0.70711 -0.7071,-1.22475 0.25882,-0.96592 0.25882,-0.96593 1.22474,-0.7071 1.22475,-0.70711 -0.70711,-1.22475 1.22474,-0.7071 0.25882,-0.96593 -0.7071,-1.22474 1.22474,-0.70711 -0.70711,-1.22475 0.25882,-0.96592 0.25882,-0.96593 0.25882,-0.96592 0.25882,-0.96593 0.25882,-0.96592 1.22474,-0.70711 0.25882,-0.96593 0.96593,0.25882 -0.25882,0.96593 0.70711,1.22474 -0.25882,0.96593 0.7071,1.22474 0.70711,1.22475 0.96593,0.25882 0.96592,0.25882 0.96593,0.25882 1.22474,-0.70711 0.25882,-0.96593 0.25882,-0.96592 0.25882,-0.96593 1.22474,-0.70711 0.96593,0.25882 0.70711,1.22475 0.7071,1.22474 1.22475,-0.7071 1.22474,-0.70711 0.25882,-0.96593 0.25882,-0.96592 0.96593,0.25882 0.96592,0.25882 1.22475,-0.70711 0.25882,-0.96593 0.25882,-0.96592 1.22474,-0.70711 0.70711,1.22475 0.96592,0.25881 0.70711,1.22475 1.22475,-0.70711 0.25882,-0.96592 0.25881,-0.96593 1.22475,-0.70711 0.25882,-0.96592 0.96592,0.25882 0.70711,1.22474 1.22475,-0.7071 0.25881,-0.96593 1.22475,-0.70711 1.22474,-0.7071 0.96593,0.25882 0.96593,0.25881 1.22474,-0.7071 0.25882,-0.96593 1.22474,-0.70711 1.22475,-0.7071 0.96593,0.25882 1.22474,-0.70711 1.22475,-0.70711 0.25881,-0.96592 -0.7071,-1.22475 -0.70711,-1.22474 0.25882,-0.96593 0.25882,-0.96592 1.22474,-0.70711 0.25882,-0.96593 1.22475,-0.7071 1.22474,-0.70711 0.25882,-0.96593 0.25882,-0.96592 0.25882,-0.96593 0.25882,-0.96592 0.25882,-0.96593 0.25882,-0.96592 0.25882,-0.96593 1.22474,-0.70711 1.22475,-0.7071 z m 0,0"
     style="fill:none;stroke:#000000;stroke-width:1;stroke-linecap:butt;stroke-linejoin:miter;stroke-miterlimit:10;stroke-opacity:1" />
  <path
     id="path7"
     d="m -692.0187,-82.538365 -0.25882,0.96593 -0.25882,0.96592 -0.25881,0.96593 -0.25882,0.96592 -0.25882,0.96593 0.7071,1.22475 -0.25881,0.96592 -0.25882,0.96593 0.7071,1.22474 -0.25882,0.96593 0.70711,1.22474 0.70711,1.22475 0.7071,1.22474 0.70711,1.22475 0.70711,1.22474 0.96592,0.25882 0.96593,0.25882 0.96593,0.25882 0.96592,0.25882 1.22475,-0.70711 0.96592,0.25882 -0.25882,0.96593 -0.25882,0.96592 -0.25882,0.96593 -0.25881,0.96592 -0.25882,0.96593 -0.25882,0.96593 0.7071,1.22474 -0.25881,0.96593 0.7071,1.22474 0.70711,1.22475 0.70711,1.22474 0.7071,1.22475 0.96593,0.25882 0.96592,0.25881 0.96593,0.25882 0.96593,0.25882 1.22474,-0.7071 1.22475,-0.70711 1.22474,-0.70711 -0.25882,0.96593 -0.25882,0.96592 -1.22474,0.70711 -0.25882,0.96593 -0.25882,0.96592 -0.25882,0.96593 -1.22474,0.7071 -0.25882,0.96593 -0.25882,0.96593 -0.25882,0.96592 -0.25882,0.96593 -0.25882,0.96592 -0.25882,0.96593 -0.25882,0.96593 -0.25882,0.96592 -0.25882,0.96593 -0.25882,0.96592 -0.25881,0.96593 -0.25882,0.96592 -0.25882,0.96593 0.7071,1.22474 0.96593,0.25882 1.22475,-0.7071 0.25881,-0.96593 1.22475,-0.70711 1.22474,-0.7071 1.22475,-0.70711 1.22474,-0.70711 0.25882,-0.96592 0.70711,1.22474 0.70711,1.22475 1.22474,-0.70711 0.96593,0.25882 0.96592,0.25882 1.22475,-0.70711 1.22474,-0.7071 1.22475,-0.70711 0.96592,0.25882 1.22475,-0.70711 0.96592,0.25882 0.96593,0.25882 0.96593,0.25882 1.22474,-0.70711 0.96593,0.25882 0.96592,0.25882 1.22475,-0.70711 1.22474,-0.7071 0.96593,0.25882 1.22474,-0.70711 1.22475,-0.70711 1.22474,-0.7071 1.22475,-0.70711 1.22474,-0.70711 0.96593,0.25882 -1.22475,0.70711 -0.25882,0.96592 -1.22474,0.70711 -0.25882,0.96593 -1.22474,0.7071 -0.25882,0.96593 -0.25882,0.96592 -0.25882,0.96593 -1.22475,0.70711 0.70711,1.22474 -0.25882,0.96593 -0.25882,0.96592 -0.25882,0.96593 0.70711,1.22474 0.70711,1.22475 0.96592,0.25882 0.96593,0.25882 -0.25882,0.96592 -1.22475,0.70711 -0.25881,0.96593 -0.25882,0.96592 -0.25882,0.96593 -0.25882,0.96592 -0.25882,0.96593 -0.25882,0.96592 -0.25882,0.96593 -0.25882,0.96593 0.70711,1.22474 0.70711,1.22475 0.7071,1.22474 0.70711,1.22475 0.70711,1.22474 0.7071,1.22475 0.96593,0.25881 0.96592,0.25882 0.96593,0.25882 0.96593,0.25882 1.22474,-0.7071 0.96593,0.25881 0.96592,0.25882 -1.22474,0.70711 -1.22475,0.7071097 -0.96592,-0.25882 -1.22475,0.7071 -1.22474,0.70711 -1.22475,0.70711 -1.22474,0.7071 -0.25882,0.96593 -1.22475,0.70711 -1.22474,0.7071 -0.25882,0.96593 -1.22475,0.70711 -1.22474,0.7071 -1.22475,0.70711 -0.25881,0.96593005 -1.22475,0.7071 -1.22474,0.70711 -1.22475,0.70710995 -1.22474,0.7071 -0.25882,0.96593 -0.25882,0.96592 -0.25882,0.96593 -0.25882,0.96593 -0.25882,0.96592 0.70711,1.22475 0.7071,1.22474 0.70711,1.2247503 0.96593,0.25882 0.7071,1.22474 0.96593,0.25882 0.70711,1.22474 0.7071,1.22475 0.96593,0.25882 0.96593,0.25882 0.96592,0.25882 0.70711,1.22474 0.96592,0.25882 0.96593,0.25882 0.96593,0.25882 0.96592,0.25882 0.96593,0.25882 0.96592,0.25882 0.96593,0.25882 1.22474,-0.70711 -3.41541,1.15539 -0.96593,-0.25882 -1.22474,0.70711 -0.96593,-0.25882 -1.22474,0.70711 -0.96593,-0.25882 -0.96593,-0.25882 -1.22474,0.70711 -0.96593,-0.25882 -1.22474,0.7071 -0.96593,-0.25881 -1.22474,0.7071 -0.25882,0.96593 -1.22475,0.70711 -1.22474,0.7071 -1.22475,0.70711 -1.22474,0.70711 -1.22475,0.7071 -1.22474,0.70711 -1.22474,0.70711 -0.25882,0.96592 -1.22475,0.70711 -0.25882,0.96592 -0.25882,0.96593 -0.25882,0.96593 -0.25881,0.96592 0.7071,1.22475 0.70711,1.22474 -0.25882,0.96593 0.70711,1.22474 0.96592,0.25882 -2.63896,-1.74238 -0.7071,-1.22475 -0.96593,-0.25882 -0.96592,-0.25881 -0.96593,-0.25882 -0.96593,-0.25882 -0.96592,-0.25882 -0.96593,-0.25882 -0.96592,-0.25882 -0.96593,-0.25882 -0.96593,-0.25882 -0.96592,-0.25882 -0.96593,-0.25882 -0.96592,-0.25882 -0.96593,-0.25881 -0.96592,-0.25882 -1.22475,0.7071 -1.22474,0.70711 -0.25882,0.96593 -0.25882,0.96592 -0.25882,0.96593 -0.25882,0.96592 -0.25882,0.96593 0.70711,1.22474 -0.25882,0.96593 0.7071,1.22474 -0.25881,0.96593 0.7071,1.22475 0.70711,1.22474 -0.25882,0.96593 0.70711,1.22474 -1.41422,-2.44949 -0.7071,-1.22474 -0.96593,-0.25882 -0.70711,-1.22475 -0.7071,-1.22474 -0.96593,-0.25882 -0.96592,-0.25882 -0.96593,-0.25882 -0.96593,-0.25882 -0.96592,-0.25882 -0.96593,-0.25882 -0.96592,-0.25882 -0.70711,-1.22474 -0.96593,-0.25882 -0.96592,-0.25882 -0.70711,-1.22474 -0.96592,-0.25882 -0.96593,-0.25882 -0.70711,-1.22475 -0.96592,-0.25882 -0.96593,-0.25881 -0.70711,-1.22475 -0.96592,-0.25882 -0.96593,-0.25882 -0.7071,-1.22474 -0.96593,-0.25882 -0.96593,-0.25882 -0.7071,-1.22475 -0.96593,-0.25881 -0.96592,-0.25882 -0.70711,-1.22475 -0.96593,-0.25882 -0.7071,-1.22474 -0.96593,-0.25882 -0.70711,-1.22475 -1.22474,0.70711 -0.25882,0.96593 -0.25882,0.96592 -0.25882,0.96593 -0.25882,0.96592 -1.22474,0.70711 0.7071,1.22475 -0.25881,0.96592 -0.25882,0.96593 -0.25882,0.96592 -0.25882,0.96593 0.70711,1.22474 -0.25882,0.96593 -0.25882,0.96593 -0.25882,0.96592 0.7071,1.22475 -0.25881,0.96592 -0.25882,0.96593 0.7071,1.22474 -0.25882,0.96593 -0.25881,0.96592 0.7071,1.22475 -0.25882,0.96593 -0.25882,0.96592 -0.25881,0.96593 0.7071,1.22474 -0.25882,0.96593 0.70711,1.22475 -0.25882,0.96592 -0.25882,0.96593 -0.25882,0.96592 0.70711,1.22475 -0.25882,0.96593 -0.25882,0.96592 0.70711,1.22475 -0.25882,0.96592 -0.25882,0.96593 -0.25882,0.96592 0.70711,1.22475 -0.25882,0.96592 -0.25882,0.96593 -0.25882,0.96593 0.70711,1.22474 -0.25882,0.96593 -0.25882,0.96592 -0.25882,0.96593 -0.25882,0.96592 0.70711,1.22475 -0.25882,0.96592 -0.25882,0.96593 -0.25882,0.96593 -0.25882,0.96592 -0.25882,0.96593 0.70711,1.22474 -0.25882,0.96593 -0.25882,0.96592 -0.25882,0.96593 -0.25882,0.96593 0.70711,1.22474 -0.25882,0.96593 -0.25882,0.96592 -0.25882,0.96593 -0.25882,0.96592 -0.25882,0.96593 0.70711,1.22474 -0.25882,0.96593 -0.25882,0.96593 -0.25882,0.96592 -0.25881,0.96593 -0.25882,0.96592 -0.25882,0.96593 0.7071,1.22474 -0.25882,0.96593 -0.25881,0.965931 -0.25882,0.96592 -0.25882,0.965924 -0.25882,0.96592 -0.25882,0.96593 -0.25882,0.96593 -0.25882,0.96592 0.70711,1.22475 -0.25882,0.96592 -0.25882,0.96593 -0.25882,0.96592 -0.25882,0.96593 -0.25882,0.96593 -0.25882,0.96592 -0.25882,0.96593 -0.25881,0.96592 -0.25882,0.96593 -0.25882,0.96592 -0.25882,0.96593 -0.25882,0.96593 -0.25882,0.96592 -0.25882,0.96593 -0.25882,0.96592 -0.25882,0.96593 -1.22474,0.70711 0.70711,1.22474 -1.22475,0.70711 -0.25882,0.96592 -0.25882,0.96593 -0.25882,0.96593 -0.25882,0.96592 -0.25881,0.96593 -0.25882,0.96592 -0.25882,0.96593 -0.25882,0.96592 -1.22475,0.70711 -0.25882,0.96593 -0.25881,0.96592 -1.22475,0.70711 -0.25882,0.96593 -1.22474,0.7071 -0.25882,0.96593 -1.22475,0.70711 -0.25882,0.96592 -0.96592,-0.25882 -0.70711,-1.22474 -0.96592,-0.25882 0.25881,-0.96593 0.25882,-0.96592 1.22475,-0.70711 1.22474,-0.70711 0.25882,-0.96592 1.22475,-0.70711 1.22474,-0.70711 0.25882,-0.96592 1.22475,-0.70711 0.25881,-0.96593 0.25882,-0.96592 1.22475,-0.70711 0.25882,-0.96592 0.25882,-0.96593 0.25882,-0.96593 0.25881,-0.96592 0.25882,-0.96593 0.25882,-0.96592 1.22475,-0.70711 0.25882,-0.96593 0.25882,-0.96592 0.25881,-0.96593 0.25882,-0.96592 0.25882,-0.96593 0.25882,-0.96592 0.25882,-0.96593 0.25882,-0.96593 0.25882,-0.96592 0.25882,-0.96593 0.25882,-0.96592 0.25882,-0.96593 0.25882,-0.96593 0.25881,-0.96592 0.25882,-0.96593 0.25882,-0.96592 -0.7071,-1.22475 0.25881,-0.96592 0.25882,-0.96593 0.25882,-0.96593 0.25882,-0.96592 0.25882,-0.965924 0.25882,-0.96592 0.25882,-0.965931 0.25882,-0.96592 -0.18947,-3.1566 0.25882,-0.96593 0.25882,-0.96592 0.25882,-0.96593 0.25882,-0.96592 -0.44829,-2.19067 0.25882,-0.96593 0.25882,-0.96593 0.25882,-0.96592 0.25881,-0.96593 -0.18946,-3.15659 0.25881,-0.96593 0.25882,-0.96593 -0.18947,-3.15659 0.25882,-0.96593 0.25882,-0.96592 0.25882,-0.96593 -0.7071,-1.22475 0.25881,-0.96592 0.25882,-0.96593 0.25882,-0.96592 0.25882,-0.96593 -0.44829,-2.19067 0.25882,-0.96593 0.25882,-0.96592 -0.70711,-1.22475 0.25882,-0.96592 0.25882,-0.96593 0.25882,-0.96592 -0.7071,-1.22475 0.25881,-0.96592 0.25882,-0.96593 -0.44828,-2.19067 0.25881,-0.96593 0.25882,-0.96592 -0.7071,-1.22475 0.25882,-0.96593 -0.70711,-1.22474 0.25882,-0.96593 0.25882,-0.96592 -0.70711,-1.22475 0.25882,-0.96592 0.25882,-0.96593 -0.70711,-1.22475 0.25882,-0.96592 0.25882,-0.96593 0.25882,-0.96592 -0.70711,-1.22475 0.25882,-0.96592 0.25882,-0.96593 0.25882,-0.96593 -0.70711,-1.22474 0.25882,-0.96593 0.25882,-0.96592 0.25882,-0.96593 -0.70711,-1.22474 0.25882,-0.96593 0.25882,-0.96592 0.25882,-0.96593 1.22475,-0.70711 0.25881,-0.96592 0.25882,-0.96593 -0.7071,-1.22474 -1.22475,0.7071 -1.22474,0.70711 -0.96593,-0.25882 -1.22474,0.70711 -0.96593,-0.25882 -1.22474,0.70711 -0.96593,-0.25882 -0.96593,-0.25882 -1.22474,0.7071 -0.96593,-0.25881 -1.22474,0.7071 -0.96593,-0.25882 -1.22474,0.70711 -0.96593,-0.25882 -1.22474,0.70711 -0.96593,-0.25882 -0.96593,-0.25882 -1.22474,0.70711 -0.96593,-0.25882 -0.96592,-0.25882 -0.96593,-0.25882 -0.96592,-0.25882 -0.96593,-0.25882 -0.96592,-0.25882 -1.22475,0.70711 -0.96593,-0.25882 -0.96592,-0.25882 -0.96593,-0.25882 -1.22474,0.70711 -0.96593,-0.25882 -0.96592,-0.25882 -1.22475,0.70711 -0.96592,-0.25882 3.41541,-1.1554 1.22475,-0.7071 1.22474,-0.70711 0.25882,-0.96593 0.25882,-0.96592 0.25882,-0.96593 0.25882,-0.96592 -0.70711,-1.22475 -0.70711,-1.22474 -0.96592,-0.25882 -0.96593,-0.25882 -0.96592,-0.25882 -0.96593,-0.25882 -0.96592,-0.25882 -0.96593,-0.25882 -0.96593,-0.25882 -0.96592,-0.25882 -0.96593,-0.25881 -0.96592,-0.25882 -0.96593,-0.25882 -0.96593,-0.25882 -0.96592,-0.25882 -0.96593,-0.25882 -1.22474,0.70711 -0.96593,-0.25882 -1.22474,0.7071 0.25882,-0.96592 2.19067,-0.44829 0.25882,-0.96592 1.22474,-0.70711 0.25882,-0.96593 -0.70711,-1.2247403 0.25882,-0.96593 -0.7071,-1.22474 -0.70711,-1.22475 -0.70711,-1.22474 -0.96592,-0.25882 -0.70711,-1.22475 -0.70711,-1.22474 -0.96592,-0.25882 -0.70711,-1.22474995 -0.70711,-1.22474 -0.96592,-0.25882005 -0.96593,-0.25882 -0.70711,-1.22474 -0.96592,-0.25882 -0.96593,-0.25882 -0.96592,-0.25882 -0.96593,-0.25882 -0.70711,-1.22474 -0.96592,-0.25882 -0.96593,-0.25882 -0.96592,-0.25882 -0.96593,-0.25882 -0.96592,-0.25882 -0.96593,-0.25882 2.19067,-0.44829 0.96593,0.25882 1.22474,-0.7071 0.96593,0.25881 1.22474,-0.7071 0.96593,0.25882 0.96592,0.25882 0.96593,0.25882 0.96592,0.25881 1.22475,-0.7071 0.96593,0.25882 1.22474,-0.70711 1.22475,-0.70711 1.22474,-0.7071 0.96593,0.25882 0.96592,0.25881 1.22475,-0.7071 1.22474,-0.7071097 0.96593,0.2588197 1.22474,-0.7071097 0.25882,-0.96592 1.22475,-0.70711 0.25882,-0.96593 -0.70711,-1.22474 0.25882,-0.96593 -0.70711,-1.22474 -0.70711,-1.22475 -0.7071,-1.22474 -0.70711,-1.22475 -0.70711,-1.22474 -0.7071,-1.22475 -0.70711,-1.22474 -0.70711,-1.22475 -0.7071,-1.22474 -0.96593,-0.25882 -0.70711,-1.22474 -0.96592,-0.25882 -0.70711,-1.22475 -0.96592,-0.25882 -0.70711,-1.22474 -0.96593,-0.25882 -0.96592,-0.25882 -0.70711,-1.22474 0.96593,0.25881 0.96592,0.25882 0.96593,0.25882 0.96592,0.25882 0.96593,0.25882 1.22474,-0.70711 1.22475,-0.7071 1.22474,-0.70711 0.25882,-0.96593 0.25882,-0.96592 0.25882,-0.96593 0.25882,-0.96592 0.25882,-0.96593 -0.70711,-1.22474 0.25882,-0.96593 1.22475,-0.70711 0.25882,-0.96592 0.25882,-0.96593 0.25881,-0.96592 0.25882,-0.96593 0.25882,-0.96593 0.25882,-0.96592 -0.70711,-1.22475 0.25882,-0.96592 0.25882,-0.96593 -0.7071,-1.22474 -0.70711,-1.22475 0.25882,-0.96592 -0.70711,-1.22475 0.25882,-0.96592 -0.70711,-1.22475 -0.7071,-1.22474 0.25882,-0.96593 -0.70711,-1.22474 0.25882,-0.96593 0.70711,1.22474 0.7071,1.22475 0.96593,0.25882 0.7071,1.22474 0.96593,0.25882 0.70711,1.22475 0.96592,0.25882 0.96593,0.25882 0.70711,1.22474 0.96592,0.25882 0.96593,0.25882 0.96592,0.25882 0.96593,0.25882 0.96592,0.25882 0.96593,0.25881 0.96593,0.25882 0.96592,0.25882 0.96593,0.25882 0.96592,0.25882 0.96593,0.25882 0.96592,0.25882 1.22475,-0.70711 1.22474,-0.7071 1.22475,-0.70711 0.25882,-0.96593 0.25882,-0.96592 0.25882,-0.96593 0.44828,2.19067 0.70711,1.22475 -0.25882,0.96592 0.70711,1.22475 0.7071,1.22474 0.70711,1.22475 0.96593,0.25882 0.7071,1.22474 0.96593,0.25882 0.70711,1.22475 0.96592,0.25881 0.70711,1.22475 0.70711,1.22474 0.7071,1.22475 0.96593,0.25882 0.96592,0.25882 0.96593,0.25882 1.22475,-0.70711 1.22474,-0.70711 0.25882,-0.96592 0.25882,-0.96593 0.25882,-0.96593 0.25882,-0.96592 0.25882,-0.96593 0.25881,-0.96592 0.25882,-0.96593 0.25882,-0.96592 0.25882,-0.96593 0.25882,-0.96593 0.25882,-0.96592 0.25882,-0.96593 0.25882,-0.96592 0.25882,-0.96593 0.25882,-0.96593 0.25882,-0.96592 0.25881,-0.96593 0.25882,-0.96592 -0.7071,-1.22475 0.25882,-0.96592 0.25881,-0.96593 -0.7071,-1.22474 0.25882,-0.96593 0.25882,-0.96593 -0.70711,-1.22474 0.25882,-0.96593 0.7071,1.22475 0.70711,1.22474 0.70711,1.22475 0.70711,1.22474 0.96592,0.25882 0.96593,0.25882 0.96592,0.25882 1.22475,-0.70711 1.22474,-0.7071 0.96593,0.25882 1.22474,-0.70711 1.22475,-0.70711 1.22474,-0.7071 0.25882,-0.96593 1.22475,-0.70711 1.22474,-0.7071 0.25882,-0.96593 0.25882,-0.96593 0.25882,-0.96592 0.25882,-0.96593 0.25882,-0.96592 0.96592,0.25882 0.70711,1.22474 1.22474,-0.70711 0.96593,0.25882 0.96593,0.25882 1.22474,-0.7071 0.25882,-0.96593 1.22474,-0.70711 0.25882,-0.96592 0.25882,-0.96593 0.25882,-0.96593 1.22475,-0.7071 0.25882,-0.96593 0.25881,-0.96592 1.22475,-0.70711 0.25882,-0.96593 0.25882,-0.96592 z m 0,0"
     style="fill:none;stroke:#000000;stroke-width:1;stroke-linecap:butt;stroke-linejoin:miter;stroke-miterlimit:10;stroke-opacity:1" />
  <path
     id="path9"
     d="m -528.14662,-79.691355 0.70711,1.22474 -0.25882,0.96593 -0.25882,0.96593 -0.25882,0.96592 0.70711,1.22475 -0.25882,0.96592 -0.25882,0.96593 -0.25882,0.96592 -0.25882,0.96593 -0.25882,0.96593 0.70711,1.22474 -0.25882,0.96593 -1.22474,0.7071 -0.25882,0.96593 -0.25882,0.96593 -0.25882,0.96592 -0.25882,0.96593 0.70711,1.22474 0.96592,0.25882 0.96593,0.25882 -0.25882,0.96593 -0.25882,0.96592 -0.25882,0.96593 -0.25882,0.96592 -0.25882,0.96593 0.70711,1.22474 0.96593,0.25882 0.96592,0.25882 0.70711,1.22475 -0.25882,0.96592 -0.25882,0.96593 -0.25882,0.96592 -0.25882,0.96593 -0.25882,0.96593 0.70711,1.22474 1.22474,-0.70711 0.96593,0.25882 0.96593,0.25882 -0.25882,0.96593 0.7071,1.22474 -0.25881,0.96593 0.7071,1.22474 -0.25882,0.96593 -0.25882,0.96593 0.70711,1.22474 0.96593,0.25882 1.22474,-0.70711 0.70711,1.22475 -0.25882,0.96592 -0.25882,0.96593 -0.25882,0.96592 -0.25882,0.96593 0.70711,1.22475 -0.25882,0.96592 -0.25882,0.96593 0.70711,1.22474 1.22474,-0.7071 0.96593,0.25881 0.96592,0.25882 0.70711,1.22475 -0.25882,0.96592 -0.25882,0.96593 -0.25882,0.96593 -0.25882,0.96592 -0.25881,0.96593 -0.25882,0.96592 -1.22475,0.70711 -0.25882,0.96593 0.70711,1.22474 0.96593,0.25882 0.7071,1.22474 -0.25882,0.96593 -0.25882,0.96593 -1.22474,0.7071 -0.25882,0.96593 -0.25882,0.96592 0.70711,1.22475 -1.22475,0.70711 -0.25882,0.96592 -0.25882,0.96593 -0.25881,0.96592 -0.25882,0.9659297 0.7071,1.22474 0.96593,0.25882 0.70711,1.22475 0.96592,0.25882 -0.25882,0.96592 -1.22474,0.70711 -0.25882,0.96593 -0.25882,0.96592 -0.25882,0.96593 -0.25882,0.96592005 -1.22474,0.707109995763 0.7071,1.224749954237 0.96593,0.25881 0.96593,0.25882 1.22474,-0.7071 0.96593,0.25882 0.96592,0.25881 0.96593,0.25882 0.7071,1.22475 0.96593,0.25882 1.22475,-0.70711 0.96592,0.25882 1.22475,-0.70711 1.22474,-0.7071 0.96593,0.25882 1.22474,-0.70710995 1.22475,-0.70711 -0.25882,0.96592995 -0.25882,0.96592 -0.25882,0.96593 -0.25882,0.96593 -0.25882,0.96592 -0.25882,0.96593 -1.22474,0.7071 -0.25882,0.96593 -0.25882,0.96593 -1.22475,0.7071 -1.22474,0.7071103 -0.25882,0.96592 -1.22474,0.70711 0.7071,1.22475 0.70711,1.22474 -0.25882,0.96593 -1.22475,0.7071 -1.22474,0.70711 -1.22474,0.70711 -0.25882,0.96592 -0.25882,0.96593 -0.25882,0.96592 -0.25882,0.96593 -0.25882,0.96593 -0.25882,0.96592 0.70711,1.22475 0.96592,0.25882 0.96593,0.25882 -0.25882,0.96592 -1.22474,0.70711 -0.25882,0.96592 -0.25882,0.96593 -0.25882,0.96593 -0.25882,0.96592 -0.25882,0.96593 0.70711,1.22474 -0.25882,0.96593 -1.22475,0.7071 -0.25882,0.96593 -1.22474,0.70711 0.70711,1.22474 -1.22475,0.70711 -0.25882,0.96592 0.70711,1.22475 0.96592,0.25882 0.96593,0.25882 0.96593,0.25882 1.22474,-0.70711 0.96593,0.25882 -0.25882,0.96592 -0.25882,0.96593 -0.25882,0.96593 -0.25882,0.96592 -0.25882,0.96593 -0.25882,0.96593 -1.22474,0.70711 -0.25882,0.96592 -0.25882,0.96593 -0.25882,0.96592 -0.25882,0.96593 -1.22474,0.70711 -1.22475,0.7071 0.70711,1.22475 -0.25882,0.96592 -1.22475,0.70711 -0.25881,0.96593 0.7071,1.22474 0.96593,0.25882 0.96592,0.25882 0.70711,1.22474 -0.25882,0.96593 -0.25882,0.96592 -1.22474,0.70711 -0.25882,0.96593 -0.25882,0.96592 -0.25882,0.96593 -1.22474,0.70711 -1.22475,0.7071 -0.25882,0.96593 0.70711,1.22474 0.96592,0.25882 0.70711,1.22475 0.96593,0.25882 -0.25882,0.96592 -0.25882,0.96593 -1.22475,0.7071 -0.25881,0.96593 -1.22475,0.70711 -1.22474,0.7071 0.7071,1.22475 -1.22474,0.70711 -1.22475,0.7071 -1.22474,0.70711 -0.25882,0.96593 0.70711,1.22474 -0.25882,0.96593 -1.22475,0.7071 -1.22474,0.70711 -0.25882,0.96593 -1.22475,0.7071 -0.25882,0.96593 -1.22474,0.7071 -1.22475,0.70711 -0.25882,0.96593 0.70711,1.22474 0.96593,0.25882 -0.25882,0.96593 -0.25882,0.96592 -1.22475,0.70711 -0.25881,0.96593 -1.22475,0.7071 -0.25882,0.96593 -0.25882,0.96592 -0.25882,0.96593 -0.25882,0.96593 -0.96592,-0.25882 -1.22475,0.7071 -0.25882,0.965928 -1.22474,0.70711 -0.25882,0.965917 0.70711,1.22475 0.7071,1.22474 0.70711,1.22475 -1.22474,0.7071 -1.22475,0.70711 -1.22474,0.70711 -1.22475,0.7071 -0.25882,0.96593 -0.25882,0.96593 -1.22474,0.7071 -1.22475,0.70711 -0.25882,0.96592 -1.22474,0.70711 -1.22475,0.70711 0.70711,1.22474 0.70711,1.22475 -0.25882,0.96592 -1.22475,0.70711 -1.22474,0.70711 -0.96593,-0.25882 -1.22474,0.70711 -1.22475,0.7071 -0.25882,0.96593 -1.22474,0.7071 -1.22475,0.70711 -1.22474,0.70711 -0.25882,0.96592 -0.25882,0.96593 -0.25882,0.96593 -0.96592,-0.25882 -1.22475,0.7071 -0.96592,-0.25882 -1.22475,0.70711 -1.22474,0.70711 -0.96593,-0.25882 -1.22474,0.70711 -0.25882,0.96592 -0.25882,0.96593 -1.22475,0.7071 -0.96592,-0.25882 -1.22475,0.70711 -1.22474,0.70711 -0.96593,-0.25882 -1.22474,0.70711 -0.25882,0.96592 -1.22475,0.70711 -0.96592,-0.25882 -0.96593,-0.25882 -0.96592,-0.25882 -0.96593,-0.25882 -0.96594,-0.25882 -0.7071,-1.22474 -1.22475,0.70711 -1.22474,0.7071 -0.25882,0.96593 -0.96593,-0.25882 -1.22474,0.70711 -0.96593,-0.25882 -0.96592,-0.25882 -0.96593,-0.25882 -1.22475,0.70711 -0.96592,-0.25882 -0.96593,-0.25882 -1.22474,0.7071 -1.22475,0.70711 -0.25882,0.96593 -0.25881,0.96592 -1.22475,0.70711 -0.96592,-0.25882 -0.96593,-0.25882 -0.96593,-0.25882 -0.96592,-0.25882 -0.70711,-1.22474 0.25882,-0.96593 0.25882,-0.96592 0.25882,-0.96593 -0.70711,-1.22474 0.25882,-0.96593 0.25882,-0.96593 0.25882,-0.96592 0.25882,-0.96593 0.25882,-0.96592 0.25882,-0.96593 -0.70711,-1.22474 -0.70711,-1.22475 -0.7071,-1.22474 -0.70711,-1.22475 -0.70711,-1.22474 0.25882,-0.96593 -0.70711,-1.22474 -0.96592,-0.25882 -0.70711,-1.22475 -0.7071,-1.22474 0.25881,-0.96593 -0.7071,-1.22474 0.25882,-0.96593 -0.70711,-1.22474 -0.70711,-1.22475 -0.7071,-1.22474 0.25882,-0.96593 1.22474,-0.70711 -0.70711,-1.22474 -0.7071,-1.22475 -0.70711,-1.22474 0.25882,-0.96593 -0.70711,-1.224737 0.25882,-0.965928 1.22475,-0.7071 0.25882,-0.96593 -0.70711,-1.22475 -0.70711,-1.22474 0.25882,-0.96593 -0.70711,-1.22474 0.25882,-0.96593 0.25882,-0.96592 0.25882,-0.96593 0.25882,-0.96592 -0.70711,-1.22475 0.25882,-0.96593 -0.7071,-1.22474 0.25881,-0.96593 0.25882,-0.96592 0.25882,-0.96593 -0.7071,-1.22474 -0.70711,-1.22475 0.25882,-0.96592 -0.70711,-1.22475 0.25882,-0.96592 1.22475,-0.70711 0.25881,-0.96593 -0.7071,-1.22474 0.25882,-0.96593 -0.70711,-1.22474 0.25882,-0.96593 -0.70711,-1.22474 0.25882,-0.96593 1.22475,-0.70711 0.25882,-0.96592 -0.70711,-1.22475 -0.70711,-1.22474 -0.70711,-1.22475 0.25882,-0.96592 1.22475,-0.70711 0.25882,-0.96592 0.25882,-0.96593 -0.70711,-1.22474 -0.70711,-1.22475 0.25882,-0.96593 -0.7071,-1.22474 -0.70711,-1.22475 0.25882,-0.96592 -0.70711,-1.22475 1.22475,-0.7071 1.22474,-0.70711 0.25882,-0.96593 -0.70711,-1.22474 -0.7071,-1.22475 0.25882,-0.96593 0.25881,-0.96592 0.25882,-0.96593 -0.7071,-1.22474 0.25882,-0.96593 0.25881,-0.96592 0.96593,0.25882 1.22475,-0.70711 0.25881,-0.96593 -0.7071,-1.22474 -0.70711,-1.22475 0.25882,-0.96592 -0.70711,-1.22475 -0.7071,-1.22474 0.25882,-0.96593 1.22474,-0.70711 1.22475,-0.7071 0.25881,-0.96593 0.25882,-0.96592 -0.7071,-1.22475 -0.70711,-1.22474 0.25882,-0.96593 -0.70711,-1.22474 0.25882,-0.96593 -0.70711,-1.22474 0.25882,-0.96593 -0.7071,-1.22475 0.25882,-0.96592 0.25881,-0.96593 0.96593,0.25882 0.96593,0.25882 1.22474,-0.70711 0.25882,-0.96592 -0.70711,-1.22475 0.25882,-0.96592 -0.7071,-1.22475 0.25881,-0.96592 0.25882,-0.96593 0.25882,-0.9659203 0.25882,-0.96593 -0.7071,-1.22475 0.25881,-0.96592 -0.7071,-1.22475 0.25882,-0.96592 -0.70711,-1.22475 0.25882,-0.96592 1.22474,-0.70711 0.96593,0.25882 1.22474,-0.70711 1.22475,-0.70709995 -0.70711,-1.22475 0.25882,-0.96592005 0.25882,-0.96593 0.25882,-0.96593 -0.70711,-1.22474 0.25882,-0.96593 0.25882,-0.96592 1.22475,-0.70711 -0.70711,-1.22474 0.25882,-0.96593 0.25882,-0.9659297 0.25882,-0.96592 0.25882,-0.96593 0.25881,-0.96592 0.25882,-0.96593 1.22475,-0.70711 0.96592,0.25882 0.96593,0.25882 0.96592,0.25882 1.22475,-0.70711 -0.70711,-1.22474 0.25882,-0.96593 0.25882,-0.96592 1.22475,-0.70711 0.25881,-0.96593 0.25882,-0.96592 0.25882,-0.96593 -0.7071,-1.22474 0.25881,-0.96593 0.25882,-0.96592 1.22475,-0.70711 0.96592,0.25882 1.22475,-0.70711 0.25882,-0.96592 0.25882,-0.96593 -0.70711,-1.22474 1.22475,-0.70711 0.25881,-0.96593 0.25882,-0.96592 0.25882,-0.96593 0.25882,-0.96592 0.25882,-0.96593 0.25882,-0.96593 0.96593,0.25882 0.96592,0.25882 1.22475,-0.7071 0.25882,-0.96593 -0.70711,-1.22475 1.22474,-0.7071 0.25882,-0.96593 0.25882,-0.96592 0.25882,-0.96593 1.22475,-0.70711 0.96592,0.25882 0.70712,1.22475 1.22474,-0.70711 0.25882,-0.96593 0.25882,-0.96592 0.25882,-0.96593 0.25882,-0.96592 1.22474,-0.70711 1.22475,-0.70711 0.25882,-0.96592 0.25882,-0.96593 1.22474,-0.7071 0.96593,0.25881 0.7071,1.22475 0.70711,1.22474 1.22475,-0.7071 0.25882,-0.96593 0.25881,-0.96592 1.22475,-0.70711 1.22474,-0.70711 0.25882,-0.96592 1.22475,-0.70711 0.25882,-0.96593 0.96592,0.25882 0.70711,1.22475 0.96593,0.25882 1.22474,-0.70711 1.22475,-0.70711 0.25881,-0.96592 0.25882,-0.96593 1.22475,-0.70711 1.22474,-0.7071 0.25882,-0.96593 0.96593,0.25882 0.7071,1.22475 0.70711,1.22474 1.22475,-0.70711 1.22474,-0.7071 0.25882,-0.96593 1.22475,-0.70711 0.25881,-0.96592 1.22475,-0.70711 0.96593,0.25882 1.22474,-0.70711 1.22474,-0.7071 0.25882,-0.96593 0.25882,-0.96592 1.22475,-0.70711 0.7071,1.22474 1.22475,-0.7071 1.22474,-0.70711 -0.7071,-1.22474 0.25882,-0.96593 1.22474,-0.70711 0.96593,0.25882 1.22474,-0.7071 0.25882,-0.96593 0.25882,-0.96593 0.25882,-0.96592 0.25882,-0.96593 0.25882,-0.96592 1.22474,-0.70711 0.25882,-0.96593 0.25882,-0.96592 0.25882,-0.96593 1.22474,-0.70711 0.25882,-0.96592 1.22475,-0.70711 0.25882,-0.96592 0.25882,-0.96593 z m 0,0"
     style="fill:none;stroke:#000000;stroke-width:1;stroke-linecap:butt;stroke-linejoin:miter;stroke-miterlimit:10;stroke-opacity:1" />
  <path
     id="path11"
     d="m -374.08678,-69.255635 0.70711,1.22474 0.70711,1.22475 0.7071,1.22474 -0.25881,0.96593 0.7071,1.22474 -0.25882,0.96593 0.70711,1.22474 -0.25882,0.96593 -0.25882,0.96592 0.70711,1.22475 0.70711,1.22474 0.96592,0.25882 0.96593,0.25882 0.96592,0.25882 0.96593,0.25882 0.96592,0.25882 0.96593,0.25882 0.70711,1.22474 -0.25882,0.96593 -0.25882,0.96592 0.70711,1.22475 -0.25882,0.96593 -0.25882,0.96592 -0.25882,0.96593 -0.25882,0.96592 -0.25882,0.96593 -0.25882,0.96592 -0.25882,0.96593 -0.25882,0.96593 -0.25882,0.96592 0.70711,1.22475 0.96593,0.25882 1.22474,-0.70711 0.96593,0.25882 0.96592,0.25882 0.96593,0.25882 1.22474,-0.70711 0.96593,0.25882 0.96593,0.25882 0.96592,0.25882 0.96593,0.25882 0.7071,1.22474 -0.25881,0.96593 0.7071,1.22474 -0.25882,0.96593 -0.25882,0.96592 -0.25881,0.96593 0.7071,1.22474 -0.25882,0.96593 -1.22474,0.70711 -0.25882,0.96592 -0.25882,0.96593 -0.25882,0.96592 -0.25882,0.96593 -0.25882,0.96593 -1.22474,0.7071 -0.25882,0.96593 -0.25882,0.96592 -1.22475,0.70711 -0.25881,0.96593 -1.22475,0.7071 -0.25882,0.96593 -0.25882,0.96592 0.70711,1.22475 0.96593,0.25882 0.96592,0.25882 0.96593,0.25882 0.96592,0.25882 0.96593,0.25882 0.96592,0.25881 0.96593,0.25882 1.22475,-0.7071 0.7071,1.22474 0.96593,0.25882 0.96592,0.25882 0.96593,0.25882 0.96593,0.25882 0.7071,1.22474 0.96593,0.25882 0.96592,0.25882 0.70711,1.22475 -0.25882,0.96592 0.70711,1.2247497 -0.25882,0.96592 -0.25882,0.96593 -0.25882,0.96592 -0.25882,0.96593 -0.25882,0.96593 -0.25882,0.96592 -0.25881,0.96593 -0.25882,0.96592 -0.25882,0.96593005 -0.25882,0.96592 -1.22475,0.70711 -0.25882,0.96592995 -0.25882,0.96592 -1.22474,0.70711 -0.25882,0.96593 -1.22474,0.7071 -0.25882,0.96593 -1.22475,0.7071 -1.22474,0.70711 -1.22475,0.70711 -0.25882,0.96592 -1.22474,0.70711 -1.22475,0.7071103 -1.22474,0.7071 -1.22475,0.70711 -0.25882,0.96593 -1.22474,0.7071 -1.22474,0.70711 -1.22475,0.70711 -0.25882,0.96592 0.70711,1.22475 0.96592,0.25882 0.96593,0.25882 0.70711,1.22474 0.96592,0.25882 0.96593,0.25882 0.96592,0.25882 0.96593,0.25882 0.96593,0.25882 0.96592,0.25882 0.70711,1.22474 0.96592,0.25882 0.70711,1.22474 0.96593,0.25882 -0.25882,0.96593 0.7071,1.22474 0.96593,0.25882 -0.25882,0.96593 0.70711,1.22474 -0.25882,0.96593 -1.22475,0.70711 -0.25882,0.96592 -0.25881,0.96593 -0.25882,0.96592 -1.22475,0.70711 -0.25882,0.96593 -0.25882,0.96592 -1.22474,0.70711 -0.25882,0.96592 -1.22475,0.70711 -0.25881,0.96593 -1.22475,0.7071 -1.22474,0.70711 -1.22475,0.70711 -1.22474,0.7071 -1.22475,0.70711 -1.22474,0.70711 -1.22475,0.7071 -0.25882,0.96593 -1.22474,0.70711 -0.96593,-0.25882 -1.22474,0.70711 -1.22475,0.7071 -1.22474,0.70711 -1.22475,0.70711 -0.96592,-0.25882 -1.22475,0.7071 -1.22474,0.70711 -1.22475,0.70711 -1.22474,0.7071 -0.96593,-0.25881 -1.22474,0.7071 -0.96593,-0.25882 -0.96593,-0.25882 -0.96592,-0.25882 -1.22475,0.70711 -0.96592,-0.25882 -1.22475,0.70711 -0.96592,-0.25882 -1.22475,0.70711 -0.25882,0.96592 0.70711,1.22475 0.70711,1.22474 0.96592,0.25882 0.96593,0.25882 0.96592,0.25882 0.96593,0.25882 0.96593,0.25882 0.7071,1.22474 0.96593,0.25882 0.96592,0.25882 0.70711,1.22475 0.96593,0.25881 0.7071,1.22475 0.96593,0.25882 0.70711,1.22474 -0.25882,0.96593 0.7071,1.22474 -1.22474,0.70711 -0.25882,0.96593 -0.25882,0.96592 -0.25882,0.96593 -0.25882,0.96592 -1.22474,0.70711 -0.25882,0.96593 -1.22475,0.7071 -0.25881,0.96593 -1.22475,0.70711 -1.22474,0.7071 -1.22475,0.70711 -1.22474,0.70711 -0.96593,-0.25882 -1.22474,0.7071 -0.96593,-0.25881 -1.22475,0.7071 -0.96592,-0.25882 -1.22475,0.70711 -1.22474,0.70711 -0.96593,-0.25882 -1.22474,0.7071 -0.96593,-0.25881 -1.22474,0.7071 -0.96593,-0.25882 -1.22474,0.70711 -0.96593,-0.25882 -1.22474,0.70711 -1.22475,0.7071 -1.22474,0.70711 -0.96593,-0.25882 -1.22474,0.70711 -0.96593,-0.25882 -1.22475,0.70711 -0.96592,-0.25882 -1.22475,0.7071 -0.96592,-0.25881 -1.22475,0.7071 0.70711,1.22475 0.70711,1.22474 0.96592,0.25882 0.70711,1.22475 0.70711,1.22474 -0.25882,0.96593 -0.25882,0.96592 -0.25882,0.96593 -1.22475,0.7071 -0.25881,0.96593 -1.22475,0.70711 -0.25882,0.96592 -1.22474,0.70711 -1.22475,0.70711 -0.25882,0.96592 -0.25882,0.96593 -1.22474,0.70711 -0.25882,0.965918 -1.22475,0.70711 -0.25881,0.965917 -0.25882,0.96593 -0.25882,0.96593 -1.22475,0.7071 -0.25882,0.96593 -1.22474,0.7071 -0.25882,0.96593 -1.22474,0.70711 -0.25882,0.96592 -1.22475,0.70711 -0.96592,-0.25882 -1.22475,0.70711 -0.96593,-0.25882 -0.96592,-0.25882 -1.22475,0.70711 -1.22474,0.7071 -0.25882,0.96593 -0.25882,0.96592 -0.25882,0.96593 -0.25882,0.96593 -0.25882,0.96592 -0.25882,0.96593 0.70711,1.22474 -0.25882,0.96593 -0.25882,0.96592 -0.25882,0.96593 -0.25882,0.96593 -0.25881,0.96592 0.7071,1.22475 -0.25882,0.96592 -0.25882,0.96593 -1.22474,0.70711 -0.25882,0.96592 -1.22474,0.70711 -0.96593,-0.25882 -0.96593,-0.25882 -0.7071,-1.22474 -0.70711,-1.22475 0.25882,-0.96593 0.25882,-0.96592 0.25882,-0.96593 1.22474,-0.7071 0.25882,-0.96593 0.25882,-0.96593 0.25882,-0.96592 0.25882,-0.96593 0.25882,-0.96592 0.25882,-0.96593 0.25882,-0.96592 0.25881,-0.96593 0.25882,-0.96593 0.25882,-0.96592 0.25882,-0.96593 0.25882,-0.96592 -0.70711,-1.22475 -0.96592,-0.25882 -0.96593,-0.25882 -0.96592,-0.25882 -0.96593,-0.25881 -0.70711,-1.22475 -0.96592,-0.25882 -0.70711,-1.22474 -0.70711,-1.22475 0.25882,-0.96592 -0.7071,-1.22475 0.25882,-0.965927 0.25881,-0.96592 -0.7071,-1.224748 0.25882,-0.96592 -0.70711,-1.22475 0.25882,-0.96592 0.25882,-0.96593 -0.70711,-1.22474 0.25882,-0.96593 0.25882,-0.96592 -0.70711,-1.22475 -0.7071,-1.22474 0.25882,-0.96593 -0.70711,-1.22475 0.25882,-0.96592 -0.70711,-1.22475 0.25882,-0.96592 0.25882,-0.96593 0.25882,-0.96592 0.25882,-0.96593 0.25882,-0.96593 0.25882,-0.96592 0.25881,-0.96593 0.25882,-0.96592 1.22475,-0.70711 0.96592,0.25882 1.22475,-0.70711 1.22474,-0.7071 0.25882,-0.96593 -0.7071,-1.22474 -0.70711,-1.22475 0.25882,-0.96593 -0.70711,-1.22474 0.25882,-0.96593 -0.70711,-1.22474 -0.7071,-1.22475 0.25882,-0.96592 -0.70711,-1.22475 0.25882,-0.96592 -0.70711,-1.22475 0.25882,-0.96592 -0.70711,-1.22475 -0.7071,-1.22474 0.25882,-0.96593 0.25882,-0.96592 -0.70711,-1.22475 0.25882,-0.96593 -0.70711,-1.22474 0.25882,-0.96593 0.25882,-0.96592 0.25882,-0.96593 0.25882,-0.96592 0.25882,-0.96593 1.22474,-0.70711 0.25882,-0.96592 0.96593,0.25882 1.22474,-0.70711 0.96593,0.25882 0.96592,0.25882 1.22475,-0.70711 0.25882,-0.96592 0.25882,-0.96593 -0.70711,-1.22475 -0.96593,-0.25881 0.25882,-0.96593 -0.70711,-1.22475 -0.96592,-0.25881 -0.70711,-1.22475 -0.7071,-1.22474 -0.96593,-0.25882 -0.70711,-1.22475 -0.96592,-0.25882 -0.70711,-1.22474 -0.96593,-0.25882 -0.7071,-1.22475 -0.70711,-1.22474 -0.70711,-1.22475 -0.96592,-0.25881 -0.70711,-1.22475 -0.70711,-1.22474 -0.7071,-1.22475 -0.70711,-1.22474 -0.70711,-1.22475 -0.7071,-1.22474 -0.70711,-1.22475 -0.70711,-1.22474 -0.7071,-1.22475 -0.70711,-1.22474 -0.70711,-1.22475 -0.7071,-1.22474 0.25882,-0.96593 -0.70711,-1.22474 -0.70711,-1.22475 0.25882,-0.9659203 -0.70711,-1.22475 0.25882,-0.96593 0.25882,-0.96592 0.25882,-0.96593 -0.70711,-1.22474 0.25882,-0.96593 0.25882,-0.96592 -0.7071,-1.22475 0.25882,-0.96591995 0.25881,-0.96593 0.25882,-0.96593005 0.25882,-0.96592 0.25882,-0.96593 0.25882,-0.96592 0.25882,-0.96593 0.25882,-0.96592 0.25882,-0.96593 0.25882,-0.96593 0.25882,-0.96592 1.22474,-0.7071097 0.96593,0.2588197 1.22474,-0.7071097 0.96593,0.25882 0.96592,0.25882 1.22475,-0.70711 0.96592,0.25882 0.96593,0.25882 0.96593,0.25882 1.22474,-0.70711 0.96593,0.25882 0.96592,0.25882 0.96593,0.25882 0.7071,1.2247497 0.96593,0.25882 0.96593,0.25881 0.96592,0.25882 1.22475,-0.7071 0.25882,-0.96593 -0.70711,-1.2247397 0.25882,-0.96593 -0.70711,-1.22474 -0.70711,-1.22475 -0.96592,-0.25882 0.25882,-0.96592 -0.70711,-1.22475 -0.70711,-1.22474 -0.7071,-1.22475 0.25882,-0.96592 -0.70711,-1.22475 0.25882,-0.96593 -0.70711,-1.22474 0.25882,-0.96593 0.25882,-0.96592 0.25882,-0.96593 0.25882,-0.96592 -0.70711,-1.22475 0.25882,-0.96592 -0.70711,-1.22475 0.25882,-0.96592 0.25882,-0.96593 0.25882,-0.96593 0.25882,-0.96592 0.25882,-0.96593 0.25882,-0.96592 0.25882,-0.96593 0.25882,-0.96593 0.25882,-0.96592 0.25881,-0.96593 0.25882,-0.96592 0.25882,-0.96593 0.25882,-0.96592 0.25882,-0.96593 0.25882,-0.96593 1.22474,-0.7071 0.25882,-0.96593 1.22475,-0.70711 0.25882,-0.96592 0.96592,0.25882 0.96593,0.25882 1.22474,-0.70711 0.96593,0.25882 0.96593,0.25882 0.96592,0.25882 0.96593,0.25882 0.96593,0.25881 0.96592,0.25882 0.70711,1.22475 0.96592,0.25882 0.96593,0.25882 0.70711,1.22474 0.96592,0.25882 0.96593,0.25882 0.7071,1.22474 0.96593,0.25882 0.96592,0.25882 0.70711,1.22475 1.22475,-0.70711 0.25882,-0.96592 0.25881,-0.96593 0.25882,-0.96593 0.25882,-0.96592 0.25882,-0.96593 0.25882,-0.96592 0.25882,-0.96593 -0.70711,-1.22474 0.25882,-0.96593 0.25882,-0.96593 0.25882,-0.96592 0.25882,-0.96593 0.25882,-0.96592 0.25882,-0.96593 0.25882,-0.96593 0.25882,-0.96592 0.25881,-0.96593 0.25882,-0.96592 0.25882,-0.96593 0.25882,-0.96592 1.22475,-0.70711 0.25882,-0.96593 0.25881,-0.96592 1.22475,-0.70711 1.22474,-0.70711 0.96593,0.25882 0.96593,0.25882 0.96592,0.25882 0.96593,0.25882 0.96592,0.25882 0.70711,1.22474 0.96593,0.25882 0.7071,1.22475 0.96593,0.25882 0.70711,1.22474 0.7071,1.22475 0.96593,0.25882 0.96592,0.25881 1.22475,-0.7071 1.22474,-0.70711 0.25882,-0.96592 1.22475,-0.70711 0.25882,-0.96593 0.25882,-0.96592 0.25881,-0.96593 1.22475,-0.70711 0.25882,-0.96592 1.22474,-0.70711 0.96593,0.25882 1.22474,-0.70711 0.96593,0.25882 1.22474,-0.7071 0.96593,0.25881 1.22475,-0.7071 1.22474,-0.70711 1.22475,-0.70711 1.22474,-0.7071 0.96593,0.25882 1.22474,-0.70711 0.96593,0.25882 0.96592,0.25882 0.96593,0.25882 z m 0,0"
     style="fill:none;stroke:#000000;stroke-width:1;stroke-linecap:butt;stroke-linejoin:miter;stroke-miterlimit:10;stroke-opacity:1" />
  <path
     id="path13"
     d="m -229.69979,-77.251155 -0.25882,0.96592 0.70711,1.22475 -0.25882,0.96592 0.70711,1.22475 0.96592,0.25882 0.96593,0.25882 -0.25882,0.96592 -0.25882,0.96593 0.70711,1.22474 0.7071,1.22475 -0.25882,0.96593 0.70711,1.22474 0.70711,1.22474 0.96592,0.25882 0.96593,0.25882 0.96593,0.25882 -0.25882,0.96593 0.7071,1.22474 0.70711,1.22475 0.70711,1.22474 0.7071,1.22475 -0.25881,0.96592 0.7071,1.22475 0.96593,0.25882 0.96592,0.25882 0.96593,0.25882 0.96593,0.25881 0.7071,1.22475 -0.25882,0.96592 0.70711,1.22475 -0.25882,0.96593 0.70711,1.22474 0.7071,1.22475 0.96593,0.25881 0.96593,0.25882 -0.25882,0.96593 0.7071,1.22474 0.70711,1.22475 0.70711,1.22474 0.96592,0.25882 0.96593,0.25882 0.96592,0.25882 0.70711,1.22475 -0.25882,0.96592 0.70711,1.22475 -0.25882,0.96592 0.70711,1.22475 0.7071,1.22474 0.96593,0.25882 0.70711,1.22475 -0.25882,0.96592 -0.25882,0.96593 -0.25882,0.96592 0.70711,1.22475 0.96592,0.25882 0.70711,1.22474 -0.25882,0.96593 0.70711,1.22474 0.7071,1.22475 0.70711,1.22474 0.96593,0.25882 0.96592,0.25882 0.96593,0.25882 0.7071,1.22475 -0.25882,0.96592 -0.25881,0.96593 0.7071,1.22474 -0.25882,0.96593 0.70711,1.22474 -0.25882,0.96593 0.70711,1.22474 -0.25882,0.96593 -0.25882,0.96592 -0.25882,0.96593 -0.25882,0.9659297 0.70711,1.22474 0.96592,0.25882 -0.25881,0.96593 -0.25882,0.96592 -0.25882,0.96593 -0.25882,0.96592 -0.25882,0.96593 -0.25882,0.96593 -0.25882,0.96592 -1.22474,0.70711 -0.25882,0.96592005 0.7071,1.22474995 0.96593,0.25882 0.96593,0.25882 -0.25882,0.96592 -0.25882,0.96593 -1.22475,0.70711 0.70711,1.22474 -0.25882,0.96593 -0.25882,0.96592 0.70711,1.22475 0.96592,0.25882 -0.25882,0.96592 -0.25881,0.9659303 -0.25882,0.96592 -1.22475,0.70711 -0.25882,0.96593 -0.25882,0.96592 -0.25882,0.96593 0.70711,1.22474 -0.25882,0.96593 -0.25882,0.96592 -0.25882,0.96593 -1.22474,0.70711 -0.25882,0.96592 0.70711,1.22475 -0.25882,0.96592 -0.25882,0.96593 -1.22475,0.70711 -0.25881,0.96592 -1.22475,0.70711 -0.25882,0.96592 -1.22474,0.70711 -0.25882,0.96593 -0.25882,0.96592 -0.25882,0.96593 -0.25882,0.96592 -1.22474,0.70711 -0.25882,0.96593 -1.22475,0.7071 -0.25882,0.96593 -1.22474,0.70711 -1.22475,0.7071 -0.25882,0.96593 -1.22474,0.70711 -0.25882,0.96592 -0.25882,0.96593 -1.22474,0.7071 -1.22475,0.70711 -1.22474,0.70711 -1.22475,0.7071 -1.22474,0.70711 -0.25882,0.96593 -1.22475,0.7071 -0.25882,0.96593 -1.22474,0.70711 -0.25882,0.96592 -1.22475,0.70711 -0.25881,0.96592 -1.22475,0.70711 -1.22474,0.70711 -1.22475,0.70711 -0.25882,0.96592 -1.22474,0.70711 -1.22475,0.7071 -0.96592,-0.25881 -1.22475,0.7071 -1.22474,0.70711 -0.25882,0.96592 -1.22475,0.70711 -1.22474,0.70711 -1.22475,0.70711 -1.22474,0.7071 -1.22475,0.70711 -1.22474,0.70711 -0.25882,0.96593 -1.22475,0.7071 -1.22474,0.70711 -1.22475,0.70711 -0.25881,0.96592 -1.22475,0.70711 -1.22474,0.70711 -0.25882,0.96592 -0.25882,0.96593 -0.25882,0.96592 -0.96593,-0.25882 -1.22474,0.70711 -1.22475,0.70711 -1.22474,0.7071 -0.25882,0.96593 -0.96593,-0.25882 -0.96592,-0.25882 -1.22475,0.70711 -1.22474,0.70711 0.7071,1.22474 -1.22474,0.70711 -1.22475,0.7071 -1.22474,0.70711 -1.22475,0.70711 -1.22474,0.7071 -0.25882,0.96593 -1.22474,0.70711 -0.25882,0.96592 -0.25882,0.96593 -0.25882,0.96592 -0.25882,0.96593 -0.25882,0.96593 -0.25882,0.96592 -0.25882,0.96593 -0.25882,0.96592 -0.25882,0.96593 -0.25881,0.96593 -0.25882,0.96592 0.7071,1.22475 -0.25882,0.96592 -0.25881,0.96593 -0.25882,0.96592 -0.25882,0.96593 -0.25882,0.96593 0.7071,1.22474 -0.25881,0.965931 -0.25882,0.96592 -0.25882,0.965934 -0.25882,0.96592 -0.25882,0.96593 -0.25882,0.96593 -0.25882,0.96592 -0.25882,0.96592 -0.25882,0.96592 -0.25882,0.96593 -0.25881,0.96592 0.7071,1.22475 -0.25882,0.96592 -0.25882,0.96593 -0.25882,0.96593 -0.25881,0.96592 -0.25882,0.96593 -0.25882,0.96592 -0.25882,0.96593 -0.25882,0.96593 -0.25882,0.96592 -0.25882,0.96593 -1.22474,0.7071 -0.25882,0.96593 -0.25882,0.96593 -0.25882,0.96592 -0.25882,0.96593 -0.25882,0.96592 -0.25882,0.96593 -0.25882,0.96592 -1.22474,0.70711 -0.25882,0.96593 -1.22475,0.7071 -0.25881,0.96593 -1.22475,0.70711 -1.22474,0.7071 -0.25882,0.96593 -1.22475,0.70711 -1.22474,0.7071 -1.22475,0.70711 -0.96593,-0.25882 -0.96592,-0.25882 0.25882,-0.96592 0.25881,-0.96593 0.25882,-0.96593 0.25882,-0.96592 1.22475,-0.70711 1.22475,-0.70711 1.22474,-0.7071 1.22475,-0.70711 0.25881,-0.96592 1.22475,-0.70711 0.25882,-0.96593 1.22474,-0.7071 0.25882,-0.96593 0.25882,-0.96593 0.25882,-0.96592 1.22475,-0.70711 0.25881,-0.96592 0.25882,-0.96593 0.25882,-0.96593 0.25882,-0.96592 0.25882,-0.96593 0.25882,-0.96592 0.25882,-0.96593 0.25882,-0.96592 0.25882,-0.96593 0.25882,-0.96593 0.25882,-0.96592 0.25881,-0.96593 0.25882,-0.96592 0.25882,-0.96593 0.25882,-0.96593 0.25882,-0.96592 0.25882,-0.96592 -0.70711,-1.22474 0.25882,-0.96593 0.25882,-0.96592 0.25882,-0.965934 0.25882,-0.96593 0.25882,-0.965921 -0.70711,-1.22475 0.25882,-0.96592 0.25882,-0.96593 0.25882,-0.96592 0.25882,-0.96593 0.25882,-0.96593 0.25882,-0.96592 0.25881,-0.96593 0.25882,-0.96592 0.25882,-0.96593 0.25882,-0.96592 0.25882,-0.96593 0.25882,-0.96593 0.25882,-0.96592 0.25882,-0.96593 -0.70711,-1.22474 0.25882,-0.96593 0.25882,-0.96592 0.25882,-0.96593 0.25882,-0.96593 -0.70711,-1.22474 0.25882,-0.96593 -0.70711,-1.22474 -0.7071,-1.22475 -0.70711,-1.22474 -0.70711,-1.22475 -0.7071,-1.22474 -0.70711,-1.22475 -0.70711,-1.22474 -0.7071,-1.22475 -0.70711,-1.22474 0.25882,-0.96593 -0.70711,-1.22474 -0.70711,-1.22475 -0.7071,-1.22474 -0.70711,-1.22475 -0.70711,-1.22475 -0.7071,-1.22474 -0.70711,-1.22475 -0.70711,-1.22474 -0.7071,-1.22474 -0.70711,-1.22475 0.25882,-0.96593 -0.70711,-1.22474 -0.7071,-1.22475 -0.70711,-1.22474 -0.70711,-1.22475 -0.7071,-1.22474 -0.70712,-1.22474 -0.7071,-1.22475 -0.70711,-1.22474 -0.70711,-1.22475 -0.7071,-1.22474 -0.70711,-1.22475 -0.70711,-1.22474 -0.7071,-1.22475 -0.96593,-0.25882 -0.70711,-1.22474 -0.96592,-0.25882 -0.70711,-1.22475 -0.7071,-1.22474 -0.70711,-1.22475 -0.70711,-1.22474 -0.7071,-1.22475 0.25881,-0.96592 -0.7071,-1.22475 -0.70711,-1.22474 -0.70711,-1.22475 0.25882,-0.96592 0.25882,-0.96593 0.25882,-0.96592 -0.70711,-1.22475 0.25882,-0.96593 -0.7071,-1.22474 -0.70711,-1.22474 -0.70711,-1.22475 0.25882,-0.96593 -0.7071,-1.22474 0.25881,-0.96593 -0.7071,-1.2247403 0.25882,-0.96593 -0.70711,-1.22474 -0.70711,-1.22475 0.25882,-0.96592 1.22475,-0.70711 0.25882,-0.96593 -0.70711,-1.22474 0.25882,-0.96592995 -0.70711,-1.22474 0.25882,-0.96593005 -0.70711,-1.22474 0.25882,-0.96593 -0.7071,-1.22474 -0.70711,-1.22475 0.25882,-0.96592 0.25882,-0.96593 0.25882,-0.96592 1.22474,-0.70711 0.25882,-0.9659297 -0.70711,-1.22474 0.25882,-0.96593 0.25882,-0.96592 0.25882,-0.96593 -0.70711,-1.22474 0.25882,-0.96593 1.22475,-0.70711 1.22474,-0.7071 0.25882,-0.96593 0.25882,-0.96593 0.25882,-0.96592 1.22474,-0.70711 0.25882,-0.96592 0.25882,-0.96593 0.25882,-0.96593 0.96593,0.25882 0.96592,0.25882 1.22475,-0.7071 1.22474,-0.70711 0.25882,-0.96593 0.25882,-0.96592 0.25882,-0.96593 0.96593,0.25882 1.22474,-0.70711 0.25882,-0.96592 0.25882,-0.96593 0.25882,-0.96592 -0.70711,-1.22475 1.22475,-0.70711 1.22474,-0.7071 0.25882,-0.96593 1.22475,-0.7071 0.25882,-0.96593 0.25882,-0.96593 1.22474,-0.7071 1.22475,-0.70711 0.96592,0.25882 1.22475,-0.70711 1.22474,-0.7071 0.25882,-0.96593 0.25882,-0.96593 1.22475,-0.7071 0.25881,-0.96593 1.22475,-0.70711 0.96592,0.25882 1.22475,-0.7071 0.25882,-0.96593 1.22474,-0.70711 1.22475,-0.7071 1.22474,-0.70711 0.25882,-0.96593 1.22475,-0.7071 0.96592,0.25882 0.96593,0.25882 0.96592,0.25882 0.96593,0.25881 0.96593,0.25882 1.22474,-0.7071 1.22475,-0.70711 0.25882,-0.96593 0.25881,-0.96592 0.25882,-0.96593 1.22475,-0.7071 1.22474,-0.70711 1.22475,-0.70711 0.25882,-0.96592 0.25882,-0.96593 1.22474,-0.70711 0.25882,-0.96592 0.96593,0.25882 0.96592,0.25882 0.96593,0.25881 1.22474,-0.7071 0.25882,-0.96593 0.25882,-0.96592 1.22475,-0.70711 0.25881,-0.96593 1.22475,-0.7071 0.25882,-0.96593 1.22474,-0.70711 0.96593,0.25882 0.96592,0.25882 1.22475,-0.7071 0.25882,-0.96593 0.25882,-0.96593 1.22474,-0.7071 0.25882,-0.96593 0.25882,-0.96592 1.22475,-0.70711 0.25881,-0.96593 1.22475,-0.7071 0.25882,-0.96593 0.25882,-0.96593 0.25882,-0.96592 0.25882,-0.96593 1.22474,-0.7071 0.25882,-0.96593 0.96593,0.25882 z m 0,0"
     style="fill:none;stroke:#000000;stroke-width:1;stroke-linecap:butt;stroke-linejoin:miter;stroke-miterlimit:10;stroke-opacity:1" />
</svg>
