<?xml version="1.0" encoding="UTF-8" standalone="no"?>
<svg
   xmlns:dc="http://purl.org/dc/elements/1.1/"
   xmlns:cc="http://creativecommons.org/ns#"
   xmlns:rdf="http://www.w3.org/1999/02/22-rdf-syntax-ns#"
   xmlns:svg="http://www.w3.org/2000/svg"
   xmlns="http://www.w3.org/2000/svg"
   xmlns:sodipodi="http://sodipodi.sourceforge.net/DTD/sodipodi-0.dtd"
   xmlns:inkscape="http://www.inkscape.org/namespaces/inkscape"
   version="1.1"
   id="svg2"
   inkscape:version="0.47 r22583"
   width="100%"
   height="100%"
   sodipodi:docname="markov.svg">
  <metadata
     id="metadata11">
    <rdf:RDF>
      <cc:Work
         rdf:about="">
        <dc:format>image/svg+xml</dc:format>
        <dc:type
           rdf:resource="http://purl.org/dc/dcmitype/StillImage" />
        <dc:title />
      </cc:Work>
    </rdf:RDF>
  </metadata>
  <defs
     id="defs9">
    <inkscape:perspective
       sodipodi:type="inkscape:persp3d"
       inkscape:vp_x="0 : 0.5 : 1"
       inkscape:vp_y="0 : 1000 : 0"
       inkscape:vp_z="1 : 0.5 : 1"
       inkscape:persp3d-origin="0.5 : 0.33333333 : 1"
       id="perspective13" />
    <inkscape:perspective
       id="perspective2866"
       inkscape:persp3d-origin="0.5 : 0.33333333 : 1"
       inkscape:vp_z="1 : 0.5 : 1"
       inkscape:vp_y="0 : 1000 : 0"
       inkscape:vp_x="0 : 0.5 : 1"
       sodipodi:type="inkscape:persp3d" />
    <inkscape:perspective
       id="perspective2880"
       inkscape:persp3d-origin="0.5 : 0.33333333 : 1"
       inkscape:vp_z="1 : 0.5 : 1"
       inkscape:vp_y="0 : 1000 : 0"
       inkscape:vp_x="0 : 0.5 : 1"
       sodipodi:type="inkscape:persp3d" />
    <inkscape:perspective
       id="perspective2894"
       inkscape:persp3d-origin="0.5 : 0.33333333 : 1"
       inkscape:vp_z="1 : 0.5 : 1"
       inkscape:vp_y="0 : 1000 : 0"
       inkscape:vp_x="0 : 0.5 : 1"
       sodipodi:type="inkscape:persp3d" />
    <inkscape:perspective
       id="perspective2827"
       inkscape:persp3d-origin="0.5 : 0.33333333 : 1"
       inkscape:vp_z="1 : 0.5 : 1"
       inkscape:vp_y="0 : 1000 : 0"
       inkscape:vp_x="0 : 0.5 : 1"
       sodipodi:type="inkscape:persp3d" />
    <inkscape:perspective
       id="perspective2827-9"
       inkscape:persp3d-origin="0.5 : 0.33333333 : 1"
       inkscape:vp_z="1 : 0.5 : 1"
       inkscape:vp_y="0 : 1000 : 0"
       inkscape:vp_x="0 : 0.5 : 1"
       sodipodi:type="inkscape:persp3d" />
    <inkscape:perspective
       id="perspective2827-1"
       inkscape:persp3d-origin="0.5 : 0.33333333 : 1"
       inkscape:vp_z="1 : 0.5 : 1"
       inkscape:vp_y="0 : 1000 : 0"
       inkscape:vp_x="0 : 0.5 : 1"
       sodipodi:type="inkscape:persp3d" />
    <inkscape:perspective
       id="perspective2880-1"
       inkscape:persp3d-origin="0.5 : 0.33333333 : 1"
       inkscape:vp_z="1 : 0.5 : 1"
       inkscape:vp_y="0 : 1000 : 0"
       inkscape:vp_x="0 : 0.5 : 1"
       sodipodi:type="inkscape:persp3d" />
    <inkscape:perspective
       id="perspective2894-7"
       inkscape:persp3d-origin="0.5 : 0.33333333 : 1"
       inkscape:vp_z="1 : 0.5 : 1"
       inkscape:vp_y="0 : 1000 : 0"
       inkscape:vp_x="0 : 0.5 : 1"
       sodipodi:type="inkscape:persp3d" />
    <inkscape:perspective
       id="perspective2908"
       inkscape:persp3d-origin="0.5 : 0.33333333 : 1"
       inkscape:vp_z="1 : 0.5 : 1"
       inkscape:vp_y="0 : 1000 : 0"
       inkscape:vp_x="0 : 0.5 : 1"
       sodipodi:type="inkscape:persp3d" />
    <inkscape:perspective
       id="perspective2922"
       inkscape:persp3d-origin="0.5 : 0.33333333 : 1"
       inkscape:vp_z="1 : 0.5 : 1"
       inkscape:vp_y="0 : 1000 : 0"
       inkscape:vp_x="0 : 0.5 : 1"
       sodipodi:type="inkscape:persp3d" />
    <inkscape:perspective
       id="perspective3059"
       inkscape:persp3d-origin="0.5 : 0.33333333 : 1"
       inkscape:vp_z="1 : 0.5 : 1"
       inkscape:vp_y="0 : 1000 : 0"
       inkscape:vp_x="0 : 0.5 : 1"
       sodipodi:type="inkscape:persp3d" />
    <inkscape:perspective
       id="perspective3044"
       inkscape:persp3d-origin="0.5 : 0.33333333 : 1"
       inkscape:vp_z="1 : 0.5 : 1"
       inkscape:vp_y="0 : 1000 : 0"
       inkscape:vp_x="0 : 0.5 : 1"
       sodipodi:type="inkscape:persp3d" />
    <inkscape:perspective
       id="perspective3084"
       inkscape:persp3d-origin="0.5 : 0.33333333 : 1"
       inkscape:vp_z="1 : 0.5 : 1"
       inkscape:vp_y="0 : 1000 : 0"
       inkscape:vp_x="0 : 0.5 : 1"
       sodipodi:type="inkscape:persp3d" />
  </defs>
  <sodipodi:namedview
     pagecolor="#ffffff"
     bordercolor="#666666"
     borderopacity="1"
     objecttolerance="10"
     gridtolerance="10"
     guidetolerance="10"
     inkscape:pageopacity="0"
     inkscape:pageshadow="2"
     inkscape:window-width="1680"
     inkscape:window-height="975"
     id="namedview7"
     showgrid="false"
     inkscape:zoom="0.90804171"
     inkscape:cx="-380.79758"
     inkscape:cy="963.44887"
     inkscape:window-x="0"
     inkscape:window-y="24"
     inkscape:window-maximized="1"
     inkscape:current-layer="svg2" />
  <g
     id="layer1"
     transform="matrix(-0.72182501,-0.69207562,0.69207562,-0.72182501,-245.9598,-318.58051)">
    <path
       style="fill:none;stroke:#000000;stroke-width:1px;stroke-linecap:butt;stroke-linejoin:miter;stroke-opacity:1"
       d="m 17.905926,-34.188016 -0.802818,-0.586124 -0.810512,-0.587364 -0.776269,-0.621539 -0.816452,-0.567761 -0.796631,-0.614736 -0.76795,-0.636204 -0.779059,-0.629109 -0.805029,-0.59699 -0.788051,-0.596647 -0.767278,-0.598524 -0.804344,-0.597896 -0.817982,-0.591598 -0.817054,-0.558316 -0.846298,-0.530873 -0.873661,-0.49389 -0.852185,-0.479799 -1.363737,0.364719 -0.882162,-0.494239 -1.358813,0.385368 -0.875839,-0.499442 -0.899105,-0.476472 -0.894212,-0.474413 -0.916063,-0.436344 -0.903986,-0.452682 -0.922951,-0.383018 -0.919477,-0.402877 -0.903252,-0.39421 -0.932686,-0.383933 -0.935142,-0.343577 -0.923234,-0.34747 -0.943798,-0.369146 -0.391605,0.921096 -1.300398,0.602933 -1.270672,0.566662 -0.347287,0.910427 -0.349194,0.944059 -1.25441,0.656931 -0.952474,-0.275902 -0.959418,-0.306767 -0.963426,-0.342507 -1.257031,0.629976 -0.94152,-0.332215 -0.929292,-0.359441 -0.938727,-0.391986 -0.916684,-0.422204 -0.904169,-0.414528 -0.919365,-0.419252 -0.910368,-0.393136 -0.93735,-0.387395 -0.935827,-0.370211 -0.924262,-0.399641 -0.925763,-0.371542 -0.899932,-0.402176 -0.903694,-0.441034 -0.870652,-0.474983 -0.89046,-0.460874 -0.862704,-0.485212 -0.898146,-0.448491 -0.445425,-1.339595 -0.884787,-0.467767 -0.896446,-0.458302 -0.901645,-0.410785 -0.903697,-0.38563 -0.916355,-0.441142 -0.898406,-0.409351 -0.886152,-0.436867 -0.882615,-0.432897 -0.870501,-0.495715 -0.871303,-0.495196 -0.876068,-0.495361 -0.84633,-0.482553 -0.852523,-0.52137 -0.845664,-0.537233 -0.8483,-0.523776 -0.868162,-0.491872 -0.861042,-0.469561 -0.867947,-0.503969 -0.875247,-0.509854 -0.837459,-0.544014 -0.82768,-0.551994 -0.836833,-0.549878 -0.852092,-0.523807 -0.850683,-0.515303 -0.838409,-0.54664 -0.853368,-0.507553 -0.844033,-0.537507 -0.842729,-0.521124 -0.884255,-0.477726 -0.883844,-0.479912 -0.894231,-0.46483 -0.453708,-1.363718 -0.914187,-0.44134 -0.913234,-0.419389 -0.893788,-0.428638 -0.916227,-0.427303 -0.898766,-0.444804 -0.916385,-0.43853 -0.896552,-0.430294 -0.480722,-1.350022 0.496664,-0.865198 0.477847,-0.888833 -0.905878,-0.456959 -0.889872,-0.489312 -0.870419,-0.462673 -0.360149,-1.397629 0.502044,-0.858079 0.505825,-0.872622 -0.351516,-1.370606 -0.888408,-0.504898 -0.881938,-0.510044 -0.486314,0.856271 -0.526228,0.838407 -0.517268,0.838796 -1.360245,0.410959 -0.519877,0.849856 0.314925,1.386644 -0.533272,0.826754 -0.548057,0.830652 0.223238,1.403001 -0.579908,0.80734 -0.545114,0.827164 -0.502362,0.86963 0.317697,1.367924 -0.531651,0.845357 -0.508421,0.840276 0.305228,1.382429 -0.546711,0.865578 -0.578084,0.807592 0.240329,1.379948 -0.584312,0.819549 -1.342656,3.913198 0.513939,-0.847412 0.511557,-0.861 0.573814,-0.802352 0.516501,-0.855769 0.547793,-0.836671 0.578712,-0.819888 0.584231,-0.803227 0.612641,-0.7834 1.41343,-0.187859 0.774159,0.647159 0.765519,0.633723 0.776674,0.631554 0.773285,0.646391 0.749987,0.668085 0.754721,0.670667 0.735658,0.682738 0.02946,1.420806 -0.64574,0.77184 -0.660858,0.747403 0.776506,0.62756 0.02833,1.41429 0.678228,0.710501 -0.04977,1.427948 0.714484,0.69926 0.762659,0.650475 0.769194,0.652586 0.789106,0.63736 0.729147,0.67438 0.686551,0.715357 0.672788,0.724142 0.654291,0.735916 0.664934,0.747513 0.65561,0.750917 0.69347,0.722436 0.690147,0.705505 0.649315,0.756185 0.626017,0.781525 0.605364,0.801445 0.584046,0.833523 0.55863,0.835447 0.517756,0.866271 1.391737,0.310325 0.538768,0.853964 0.540248,0.830308 0.510601,0.857731 0.502856,0.857909 0.49634,0.888088 0.515366,0.85877 0.481412,0.892624 0.510247,0.861778 -0.327018,1.383919 0.548768,0.819028 0.559179,0.821339 0.571802,0.814081 0.577044,0.814793 -0.242163,1.397473 0.610754,0.782311 0.630466,0.781618 -0.229962,1.387208 0.602302,0.80677 0.582956,0.803756 0.586848,0.794241 -0.22367,1.386111 -0.782312,0.618872 -0.775028,0.613015 -0.783271,0.617714 -0.771174,0.634967 -0.750574,0.664993 -0.691556,0.711552 -1.398149,-0.05572 -0.734186,-0.684619 -0.721351,-0.706922 -1.418171,0.02429 -0.72837,-0.70567 -0.701234,-0.711047 -1.427279,-0.0055 -0.695576,-0.708255 -0.716188,-0.689642 -0.716231,-0.726772 -1.409197,0.0035 -0.710702,-0.703221 -0.688558,-0.731417 -0.694743,-0.725466 -0.723382,-0.703206 -0.704087,-0.69225 -0.73489,-0.681814 -0.713572,-0.701657 -0.740665,-0.674196 -0.761928,-0.638266 -0.756759,-0.642528 -0.771092,-0.624886 -0.757164,-0.669587 -0.722072,-0.698313 -0.728076,-0.670216 -0.720166,-0.700378 -0.691128,-0.719381 -0.690956,-0.724465 -0.664107,-0.734503 -0.68244,-0.751151 -0.66028,-0.751343 -0.67082,-0.756168 -0.663934,-0.759337 -0.654026,-0.7469 -0.643553,-0.749028 -0.647475,-0.763541 -0.653663,-0.755186 -0.632808,-0.75074 -0.608609,-0.782059 -0.641645,-0.765364 -0.691895,-0.74584 -0.679119,-0.733933 -0.700821,-0.707918 -0.702354,-0.720214 -0.677394,-0.717304 -0.691059,-0.721577 0.02379,-1.40529 0.735951,-0.694492 0.740179,-0.648135 0.732284,-0.699813 0.05083,-1.398784 0.724214,-0.678648 0.05256,-1.420279 -0.706678,-0.731594 -0.704435,-0.700239 -0.707733,-0.71731 -0.715126,0.713017 -0.65676,0.755659 -0.709999,0.719644 -0.687918,0.719472 -0.657877,0.76291 -1.387784,0.07628 -0.715017,0.706422 -0.709795,0.713565 -0.694528,0.715708 -0.704155,0.70784 -0.682222,0.73656 -1.395717,0.08861 -0.739921,-0.670161 -0.665962,0.748367 -0.641593,0.768726 -0.654224,0.76205 -0.649085,0.756851 -0.63069,0.764333 -0.67613,0.720637 -1.4057,0.04468 -0.75647,-0.683476 -1.41666,0.04961 -0.70244,0.71688 -0.70879,0.704544 -0.72827,0.675397 -0.74232,0.679926 -0.064,1.428287 0.69331,0.734696 1.40998,0.07794 0.64459,0.749813 0.79901,-0.626653 0.78923,-0.609019 0.80049,-0.617656 0.80623,-0.622234 0.80709,-0.596944 0.809192,-0.574962 0.786257,-0.601391 0.794186,-0.60796 1.393243,0.223338 0.549291,0.818119 0.584043,0.843772 0.564253,0.831077 0.566266,0.83403 0.55278,0.846631 0.513766,0.882367 0.532595,0.872994 -0.321708,1.368856 0.514659,0.853774 0.529144,0.843215 -0.334901,1.401933 -0.82003,0.595194 0.62074,0.794891 0.659924,0.745446 -0.04741,1.401776 0.656875,0.753612 -0.121906,1.399012 0.643245,0.743773 0.652335,0.73555 0.661614,0.759525 0.67133,0.748582 0.664046,0.713784 0.664809,0.757831 0.663715,0.764058 0.651906,0.754527 0.651674,0.741929 0.687004,0.717381 0.709832,0.671442 0.728392,0.685205 1.41861,-0.114282 0.743152,0.670698 0.714849,0.727065 0.687887,0.728825 0.684515,0.752324 0.631546,0.788578 0.613208,0.807191 0.609921,0.793148 1.37501,0.12368 0.661964,0.748207 0.671377,0.729167 0.669464,0.754488 0.670167,0.711417 0.678757,0.725923 0.676206,0.730792 0.651927,0.749845 0.69843,0.737526 0.7062,0.725867 0.686207,0.717093 0.71592,0.705367 0.678657,0.728244 0.710145,0.660675 0.752105,0.658946 0.780482,0.599837 0.794415,0.586746 0.753748,0.638832 0.734883,0.671668 0.729586,0.706437 0.724378,0.69899 0.71181,0.702465 0.700457,0.686837 0.700788,0.711185 0.720282,0.682106 0.732693,0.685732 0.745909,0.636689 0.741424,0.67527 0.73705,0.688831 0.04315,1.445344 -0.02072,1.42854 0.732139,0.693921 0.756654,0.64957 0.773246,0.654742 0.743279,0.674223 0.726593,0.675946 0.743983,0.655277 0.761737,0.650836 0.105016,1.419696 0.787248,0.610681 0.152299,1.405548 0.744452,0.65986 0.731811,0.663909 0.759649,0.669778 0.735945,0.684402 0.729308,0.673674 0.743063,0.669693 0.749237,0.666669 -0.0084,1.40508 0.722845,0.688377 0.744657,0.680122 -0.02487,1.402123 0.664553,0.742818 0.679877,0.739277 0.678972,0.722066 0.709944,0.721155 0.687396,0.71595 0.674462,0.745206 -0.05853,1.425697 0.66971,0.751688 0.673313,0.743496 0.689526,0.738824 0.69725,0.738895 0.702808,0.715703 0.674708,0.75307 0.633187,0.767801 0.612468,0.787501 0.618774,0.791179 0.640983,0.790596 0.655084,0.759093 0.660858,0.759147 1.417212,0.148411 0.668449,0.759301 1.429924,0.06591 0.689988,0.727864 0.667705,0.75246 0.680236,0.743641 0.679679,0.701552 0.654027,0.738508 0.641795,0.768672 0.664534,0.73988 1.408035,0.13683 0.63363,0.798991 0.614984,0.787122 0.632234,0.76851 0.596849,0.784565 0.600451,0.812031 1.400147,0.150618 0.624016,0.782321 0.648161,0.77761 0.594621,0.800864 0.584072,0.795545 1.417792,0.237899 0.566139,0.82288 1.377763,0.295835 0.83202,-0.600523 0.783105,-0.592824 1.392812,0.20835 1.398626,0.200925 0.783029,-0.632137 0.769831,-0.624779 0.748741,-0.654062 1.422321,0.05385 0.728609,-0.694876 0.728836,-0.68619 0.704171,-0.704773 1.404361,-0.06444 1.419259,-0.150562 0.633247,-0.787379 1.392967,-0.127243 0.77111,0.667072 0.749046,0.643616 0.795939,0.616794 0.800614,0.601061 0.80263,0.606221 0.809627,0.586734 0.236784,1.388232 0.803512,0.614564 0.742662,0.647801 0.739569,0.666004 0.740857,0.674014 0.676064,-0.734896 1.414452,-0.117233 1.40863,-0.143054 0.781192,0.626675 0.761875,0.65036 0.723913,0.68527 0.721769,0.682673 0.691833,0.723238 0.728703,0.702735 0.712839,-0.713354 1.406413,-0.02229 0.697238,-0.712027 0.733465,-0.693982 0.708968,-0.7205 0.69992,-0.721622 0.689323,-0.709118 0.668721,-0.725411 -0.09037,-1.419926 -0.05109,-1.416407 -0.126992,-1.407171 -0.735858,-0.667991 -0.720945,-0.692749 -0.689035,-0.702651 -0.707665,-0.680867 -0.724267,-0.690044 -0.712347,-0.716415 -0.69897,-0.695954 -0.01346,-1.419592 -1.415148,-0.06287 -0.674137,-0.756868 -0.652856,-0.788601 -1.418863,-0.124072 -0.684966,-0.72549 -1.423762,-0.09643 -0.679153,-0.710662 -0.683959,-0.734388 -0.70443,-0.727315 -0.667387,-0.75299 -0.670626,-0.760844 -0.631003,-0.780014 0.161189,-1.389511 0.794494,-0.592574 0.777562,-0.598617 0.762922,-0.644914 0.12687,-1.390295 0.781461,-0.637388 0.774418,-0.634635 0.102219,-1.411523 0.742489,-0.652864 -0.691448,-0.735582 0.0475,-1.402424 0.719124,-0.659151 0.734844,-0.680561 -0.667423,-0.740908 -0.710742,-0.68547 -0.02564,-1.412102 0.689651,-0.698277 -0.702192,-0.70808 -0.724037,-0.685076 -0.08303,-1.387569 -0.760865,-0.63897 L 12.763688,18.443748 12.703278,17.03833 11.947924,16.356959 11.194778,15.686197 10.44017,15.010494 10.37589,13.597732 9.630826,12.922271 8.891151,12.248203 8.133538,11.592559 7.434026,10.883771 7.462001,9.453637 6.777015,8.717313 6.078648,8.015087 5.367685,7.342015 4.677352,6.61584 3.997654,5.874475 3.34271,5.106916 2.716173,4.343947 2.063288,3.588758 1.400145,2.843196 0.720993,2.097629 0,1.38778 0,0"
       id="path5" />
  </g>
  <g
     transform="matrix(-0.72182501,-0.69207562,0.69207562,-0.72182501,-418.40242,-316.64727)"
     id="layer1-8">
    <path
       style="fill:none;stroke:#000000;stroke-width:1px;stroke-linecap:butt;stroke-linejoin:miter;stroke-opacity:1"
       d="m 1.461969,-3.91146 -0.717535,-0.695662 -0.718281,-0.695892 -0.714461,-0.69888 -0.719166,-0.694041 -0.716558,-0.698421 -0.713495,-0.700268 -0.714665,-0.699661 -0.717606,-0.696769 -0.715924,-0.696522 -0.713821,-0.696483 -0.717527,-0.69685 -0.718959,-0.696418 -0.719382,-0.693115 -0.722777,-0.69094 -0.72626,-0.687943 -0.724519,-0.686056 -1.413476,0.03695 -0.727074,-0.688186 -1.413493,0.03907 -0.72634,-0.688533 -0.729145,-0.686921 -0.728728,-0.686593 -0.731867,-0.6836 -0.730248,-0.68479 -0.734224,-0.6788 -0.733229,-0.68055 -0.731983,-0.679197 -0.735105,-0.679224 -0.736797,-0.675561 -0.735543,-0.675477 -0.736656,-0.67825 -0.679544,0.733756 -1.414795,0.06146 -1.41068,0.05921 -0.67499,0.734356 -0.676419,0.737409 -1.412748,0.06821 -0.741174,-0.670065 -0.740485,-0.673155 -0.739443,-0.676556 -1.411872,0.06564 -0.737826,-0.674757 -0.735659,-0.676818 -0.735396,-0.680185 -0.732352,-0.682283 -0.731404,-0.681162 -0.732696,-0.682089 -0.732693,-0.679329 -0.735422,-0.67971 -0.735878,-0.678059 -0.733786,-0.680405 -0.73489,-0.677822 -0.731402,-0.67985 -0.730552,-0.683672 -0.72644,-0.686035 -0.728726,-0.685193 -0.725408,-0.686836 -0.729808,-0.684222 -0.04538,-1.413235 -0.727996,-0.685702 -0.729371,-0.685113 -0.731283,-0.680726 -0.73232,-0.678394 -0.731754,-0.684061 -0.731022,-0.680488 -0.728996,-0.682762 -0.728774,-0.682277 -0.72591,-0.688045 -0.726001,-0.688013 -0.726458,-0.688144 -0.723876,-0.68619 -0.723582,-0.690138 -0.722588,-0.691551 -0.723119,-0.690286 -0.725775,-0.687615 -0.725648,-0.685266 -0.72547,-0.688785 -0.726044,-0.689525 -0.721653,-0.692059 -0.720544,-0.692669 -0.721483,-0.692623 -0.723488,-0.690368 -0.723533,-0.689506 -0.721697,-0.692334 -0.723967,-0.688805 -0.722423,-0.691546 -0.722628,-0.689911 -0.727685,-0.686648 -0.727589,-0.686849 -0.728982,-0.685675 -0.04549,-1.415783 -0.731543,-0.684015 -0.732111,-0.681908 -0.729975,-0.682194 -0.732153,-0.68275 -0.729972,-0.683888 -0.731834,-0.683816 -0.730189,-0.682435 -0.04843,-1.415269 0.688011,-0.725372 0.686779,-0.728123 -0.73031,-0.685252 -0.727938,-0.687906 -0.726743,-0.684832 -0.03574,-1.41667 0.688371,-0.724553 0.689074,-0.725881 -0.0355,-1.413843 -0.727429,-0.689365 -0.726688,-0.689701 -0.68679,0.724753 -0.690327,0.722097 -0.689452,0.722324 -1.41428,0.04151 -0.689936,0.723353 0.0316,1.414635 -0.690801,0.720806 -0.692332,0.720908 0.02232,1.414682 -0.695108,0.718074 -0.69198,0.720618 -0.688668,0.72567 0.03225,1.412858 -0.690998,0.722668 -0.688609,0.722665 0.03073,1.41403 -0.692875,0.724352 -0.694931,0.718126 0.02436,1.412654 -0.695724,0.719217 -2.047345,3.580495 0.689302,-0.723242 0.689365,-0.724622 0.694431,-0.717672 0.689732,-0.724003 0.692416,-0.721505 0.695177,-0.719334 0.695479,-0.717603 0.698065,-0.715267 1.415254,-0.0187 0.714025,0.70141 0.713273,0.7 0.714405,0.699882 0.713943,0.701326 0.711487,0.703325 0.711946,0.703608 0.709998,0.704722 0.0029,1.414901 -0.701249,0.713804 -0.70259,0.711268 0.714426,0.699482 0.0028,1.414247 0.704209,0.707489 -0.0049,1.415665 0.707848,0.706326 0.712856,0.70165 0.713492,0.701908 0.715586,0.700578 0.709377,0.703864 0.705053,0.707957 0.70369,0.70888 0.701873,0.710155 0.702998,0.711256 0.702085,0.71165 0.705758,0.708652 0.705405,0.706959 0.701489,0.712218 0.699378,0.71494 0.697552,0.717146 0.695917,0.720595 0.693458,0.721192 0.690085,0.725 1.415043,0.03105 0.691867,0.72337 0.691555,0.721021 0.689199,0.724325 0.688447,0.724517 0.688535,0.727597 0.689687,0.724321 0.687221,0.728397 0.689255,0.724727 -0.03283,1.414615 0.6922,0.719747 0.69327,0.719792 0.694405,0.718866 0.694934,0.718856 -0.02427,1.414414 0.697864,0.71518 0.69982,0.714906 -0.02322,1.413216 0.697318,0.71771 0.69536,0.717674 0.695621,0.716672 -0.02261,1.413016 -0.715091,0.698674 -0.714428,0.698015 -0.715199,0.698569 -0.713827,0.700172 -0.711561,0.70302 -0.705551,0.707565 -1.412707,-0.0056 -0.709846,-0.704905 -0.708528,-0.707098 -1.414628,0.0024 -0.709227,-0.706985 -0.70652,-0.707503 -1.415521,-5.49e-4 -0.705952,-0.707228 -0.708034,-0.705365 -0.70803,-0.709065 -1.413712,3.53e-4 -0.707468,-0.706719 -0.705289,-0.709559 -0.705891,-0.708951 -0.708733,-0.706731 -0.706814,-0.705617 -0.709925,-0.704627 -0.707755,-0.706565 -0.710529,-0.703889 -0.712876,-0.700426 -0.712325,-0.700814 -0.713912,-0.699166 -0.712194,-0.703515 -0.708608,-0.706241 -0.709285,-0.703443 -0.708415,-0.706444 -0.705519,-0.70835 -0.705511,-0.708859 -0.702853,-0.709959 -0.704759,-0.711541 -0.702554,-0.711665 -0.703631,-0.712089 -0.702967,-0.71244 -0.701903,-0.711258 -0.700866,-0.711543 -0.701357,-0.712966 -0.701917,-0.712089 -0.699797,-0.7118 -0.697648,-0.71518 -0.70079,-0.713192 -0.705672,-0.710985 -0.704355,-0.709838 -0.706478,-0.70719 -0.706641,-0.708417 -0.704137,-0.708177 -0.705515,-0.70857 0.0024,-1.41334 0.709996,-0.705894 0.710623,-0.701275 0.709622,-0.706412 0.0051,-1.412754 0.708867,-0.704278 0.0052,-1.414908 -0.707092,-0.709546 -0.706841,-0.706419 -0.707175,-0.708125 -0.707907,0.707698 -0.702229,0.712117 -0.707402,0.708357 -0.705198,0.708366 -0.702388,0.712832 -1.411759,0.0078 -0.707897,0.707041 -0.707377,0.707752 -0.705853,0.707976 -0.706812,0.707181 -0.704674,0.71009 -1.412616,0.009 -0.710473,-0.703483 -0.703104,0.711336 -0.700812,0.713527 -0.702015,0.71277 -0.70147,0.712286 -0.69969,0.713182 -0.70402,0.708516 -1.41342,0.0045 -0.71207,-0.704889 -1.41453,0.005 -0.70665,0.708085 -0.70728,0.706851 -0.70928,0.703964 -0.71067,0.704468 -0.006,1.41575 0.70577,0.709874 1.41399,0.0078 0.70097,0.711614 0.71667,-0.699627 0.71589,-0.697768 0.71691,-0.698756 0.71742,-0.699277 0.71781,-0.696792 0.71834,-0.694645 0.71568,-0.696974 0.7164,-0.697721 1.41371,0.02247 0.692237,0.719648 0.696087,0.7216 0.693935,0.720666 0.694183,0.720923 0.693091,0.722392 0.69007,0.726647 0.691669,0.725344 -0.03262,1.413031 0.689509,0.723849 0.690709,0.722509 -0.03322,1.416541 -0.719112,0.696802 0.698996,0.716321 0.702486,0.711077 -0.0048,1.413042 0.702228,0.711911 -0.01228,1.41317 0.700803,0.711018 0.701675,0.71013 0.702738,0.712472 0.70364,0.711332 0.702783,0.707873 0.703045,0.712285 0.702976,0.712911 0.701737,0.712035 0.70164,0.710775 0.705102,0.708158 0.707444,0.703523 0.709265,0.704946 1.415067,-0.01138 0.710793,0.703551 0.707894,0.709095 0.705215,0.709301 0.70497,0.711651 0.699997,0.715587 0.6984,0.71762 0.697903,0.716268 1.410791,0.01266 0.702705,0.711341 0.703563,0.709391 0.703487,0.711928 0.703398,0.707609 0.704293,0.709038 0.704053,0.709534 0.70171,0.711567 0.706291,0.710145 0.707033,0.708978 0.705021,0.708131 0.707988,0.706937 0.70429,0.709271 0.70752,0.702434 0.711749,0.702425 0.715128,0.696754 0.716691,0.695612 0.712053,0.700423 0.709962,0.703613 0.709347,0.707064 0.708836,0.706313 0.707579,0.706644 0.706456,0.705071 0.706476,0.707517 0.708462,0.704616 0.709694,0.705012 0.711282,0.700155 0.710601,0.704 0.710119,0.705335 0.0042,1.417384 -0.0021,1.41566 0.709618,0.705826 0.712263,0.701518 0.713879,0.702154 0.71079,0.703904 0.709115,0.704014 0.710958,0.702012 0.712761,0.701679 0.01045,1.415112 0.715673,0.697911 0.01526,1.414087 0.710979,0.702475 0.709689,0.702823 0.71244,0.703549 0.710022,0.704889 0.709395,0.703794 0.710789,0.703451 0.71142,0.703179 -8.49e-4,1.413303 0.708702,0.70525 0.710904,0.704497 -0.0025,1.413025 0.702936,0.710789 0.70445,0.710369 0.704305,0.70865 0.707399,0.708508 0.705139,0.708014 0.703936,0.710981 -0.0058,1.41547 0.703496,0.711649 0.703814,0.710815 0.70541,0.710294 0.706177,0.710284 0.706681,0.707967 0.704001,0.711764 0.699965,0.713505 0.698092,0.715678 0.69876,0.715974 0.70095,0.715702 0.702084,0.71247 0.70266,0.712439 1.415211,0.01477 0.703415,0.712412 1.415922,0.0065 0.705422,0.7092 0.703301,0.711736 0.704504,0.710802 0.704349,0.706583 0.701859,0.710417 0.700831,0.71352 0.70292,0.710495 1.414192,0.0137 0.700315,0.716598 0.698338,0.715612 0.699876,0.713585 0.696501,0.715573 0.697206,0.718254 1.413534,0.01515 0.699186,0.71504 0.701538,0.714359 0.69648,0.717224 0.695361,0.716842 1.416357,0.02355 0.693984,0.719828 1.413392,0.0299 0.72022,-0.697504 0.71548,-0.696081 1.413467,0.02099 1.413947,0.02018 0.715031,-0.7 0.713787,-0.699143 0.711442,-0.701917 1.415116,0.0054 0.709265,-0.705912 0.709307,-0.705046 0.706813,-0.706873 1.413361,-0.0065 1.415436,-0.01496 0.700153,-0.715452 1.41261,-0.01287 0.713591,0.703359 0.711545,0.700872 0.716467,0.698617 0.717116,0.697115 0.717252,0.697652 0.718202,0.695817 0.02388,1.413419 0.717242,0.698487 0.710874,0.701255 0.710457,0.703066 0.710549,0.703872 0.704053,-0.709946 1.414674,-0.0117 1.414307,-0.01432 0.714901,0.699439 0.712779,0.701633 0.708817,0.704941 0.708609,0.704676 0.705596,0.708735 0.709263,0.706694 0.70768,-0.707731 1.41345,-0.0022 0.706121,-0.707605 0.70975,-0.705836 0.7073,-0.708442 0.706401,-0.708561 0.705325,-0.707324 0.703284,-0.709025 -0.009,-1.415043 -0.0051,-1.414516 -0.01273,-1.414024 -0.710076,-0.703249 -0.708504,-0.705683 -0.705292,-0.706674 -0.707197,-0.704472 -0.708841,-0.70542 -0.707633,-0.708036 -0.706295,-0.705989 -0.0013,-1.414758 -1.414432,-0.0063 -0.703965,-0.712143 -0.702102,-0.715412 -1.415166,-0.01234 -0.704914,-0.708976 -1.415463,-0.0096 -0.704302,-0.707503 -0.70484,-0.709868 -0.70686,-0.709123 -0.703272,-0.71179 -0.703641,-0.712554 -0.699858,-0.714743 0.01631,-1.412581 0.716619,-0.696194 0.714852,-0.696599 0.712922,-0.701098 0.01285,-1.412341 0.714829,-0.700505 0.714153,-0.700168 0.01022,-1.414277 0.710823,-0.701762 -0.70559,-0.709967 0.0048,-1.413107 0.708436,-0.702301 0.709924,-0.704502 -0.703213,-0.710584 -0.707495,-0.704939 -0.0026,-1.414023 0.705355,-0.706233 -0.706615,-0.707205 -0.70883,-0.704922 -0.0084,-1.411772 -0.712764,-0.700488 -0.711409,-0.702759 -0.0061,-1.413451 -0.711962,-0.704674 -0.711789,-0.703608 -0.711912,-0.704108 -0.0064,-1.4142 L 9.873888,12.748607 9.163457,12.044735 8.451139,11.342605 7.744792,10.635327 7.747561,9.219496 7.042612,8.509439 6.336381,7.802818 5.628828,7.099128 4.923376,6.390097 4.218934,5.679519 3.516804,4.966206 2.817544,4.253123 2.115705,3.541029 1.412897,2.829957 0.708491,2.118959 0,1.41157 0,0"
       id="path2835" />
  </g>
  <g
     transform="matrix(-0.72182501,-0.69207562,0.69207562,-0.72182501,-575.25267,-316.37532)"
     id="layer1-5">
    <path
       style="fill:none;stroke:#000000;stroke-width:1px;stroke-linecap:butt;stroke-linejoin:miter;stroke-opacity:1"
       d="m -0.707107,-0.707107 -0.707107,-0.707107 -0.707106,-0.707106 -0.707107,-0.707107 -0.707107,-0.707107 -0.707107,-0.707107 -0.707106,-0.707106 -0.707107,-0.707107 -0.707107,-0.707107 -0.707107,-0.707107 -0.707107,-0.707107 -0.707106,-0.707106 -0.707107,-0.707107 -0.707107,-0.707107 -0.707107,-0.707107 -0.707106,-0.707106 -0.707107,-0.707107 -1.414214,0 -0.707107,-0.707107 -1.414213,0 -0.707107,-0.707107 -0.707107,-0.707107 -0.707107,-0.707106 -0.707106,-0.707107 -0.707107,-0.707107 -0.707107,-0.707107 -0.707107,-0.707107 -0.707106,-0.707106 -0.707107,-0.707107 -0.707107,-0.707107 -0.707107,-0.707107 -0.707107,-0.707106 -0.707106,0.707106 -1.414214,0 -1.414213,0 -0.707107,0.707107 -0.707107,0.707107 -1.414214,0 -0.707106,-0.707107 -0.707107,-0.707107 -0.707107,-0.707106 -1.414213,0 -0.707107,-0.707107 -0.707107,-0.707107 -0.707107,-0.707107 -0.707107,-0.707107 -0.707106,-0.707106 -0.707107,-0.707107 -0.707107,-0.707107 -0.707107,-0.707107 -0.707107,-0.707106 -0.707106,-0.707107 -0.707107,-0.707107 -0.707107,-0.707107 -0.707107,-0.707107 -0.707106,-0.707106 -0.707107,-0.707107 -0.707107,-0.707107 -0.707107,-0.707107 0,-1.414213 -0.707107,-0.707107 -0.707106,-0.707107 -0.707107,-0.707107 -0.707107,-0.707106 -0.707107,-0.707107 -0.707106,-0.707107 -0.707107,-0.707107 -0.707107,-0.707107 -0.707107,-0.707106 -0.707107,-0.707107 -0.707106,-0.707107 -0.707107,-0.707107 -0.707107,-0.707106 -0.707107,-0.707107 -0.707106,-0.707107 -0.707107,-0.707107 -0.707107,-0.707107 -0.707107,-0.707106 -0.707107,-0.707107 -0.707106,-0.707107 -0.707107,-0.707107 -0.707107,-0.707106 -0.707107,-0.707107 -0.707107,-0.707107 -0.707106,-0.707107 -0.707107,-0.707107 -0.707107,-0.707106 -0.707107,-0.707107 -0.707106,-0.707107 -0.707107,-0.707107 -0.707107,-0.707106 0,-1.414214 -0.707107,-0.707107 -0.707107,-0.707107 -0.707106,-0.707106 -0.707107,-0.707107 -0.707107,-0.707107 -0.707107,-0.707107 -0.707106,-0.707107 0,-1.414213 0.707106,-0.707107 0.707107,-0.707107 -0.707107,-0.707106 -0.707106,-0.707107 -0.707107,-0.707107 0,-1.414214 0.707107,-0.707106 0.707106,-0.707107 0,-1.414214 -0.707106,-0.707106 -0.707107,-0.707107 -0.707107,0.707107 -0.707107,0.707106 -0.707107,0.707107 -1.414213,0 -0.707107,0.707107 0,1.414213 -0.707107,0.707107 -0.707106,0.707107 0,1.414214 -0.707107,0.707106 -0.707107,0.707107 -0.707107,0.707107 0,1.414213 -0.707107,0.707107 -0.707106,0.707107 0,1.414214 -0.707107,0.707106 -0.707107,0.707107 0,1.414214 -0.707107,0.707107 -2.12132,3.535533 0.707107,-0.707106 0.707106,-0.707107 0.707107,-0.707107 0.707107,-0.707107 0.707107,-0.707106 0.707107,-0.707107 0.707106,-0.707107 0.707107,-0.707107 1.414214,0 0.707107,0.707107 0.707106,0.707107 0.707107,0.707107 0.707107,0.707106 0.707107,0.707107 0.707106,0.707107 0.707107,0.707107 0,1.414213 -0.707107,0.707107 -0.707106,0.707107 0.707106,0.707107 0,1.414213 0.707107,0.707107 0,1.414213 0.707107,0.707107 0.707107,0.707107 0.707107,0.707107 0.707106,0.707107 0.707107,0.707106 0.707107,0.707107 0.707107,0.707107 0.707106,0.707107 0.707107,0.707106 0.707107,0.707107 0.707107,0.707107 0.707107,0.707107 0.707106,0.707107 0.707107,0.707106 0.707107,0.707107 0.707107,0.707107 0.707106,0.707107 0.707107,0.707107 1.414214,0 0.707107,0.707106 0.707106,0.707107 0.707107,0.707107 0.707107,0.707107 0.707107,0.707106 0.707107,0.707107 0.707106,0.707107 0.707107,0.707107 0,1.414213 0.707107,0.707107 0.707107,0.707107 0.707106,0.707107 0.707107,0.707106 0,1.414214 0.707107,0.707107 0.707107,0.707107 0,1.414213 0.707107,0.707107 0.707106,0.707107 0.707107,0.707106 0,1.414214 -0.707107,0.707107 -0.707106,0.707107 -0.707107,0.707106 -0.707107,0.707107 -0.707107,0.707107 -0.707107,0.707107 -1.414213,0 -0.707107,-0.707107 -0.707107,-0.707107 -1.414213,0 -0.707107,-0.707107 -0.707107,-0.707106 -1.414213,0 -0.707107,-0.707107 -0.707107,-0.707107 -0.707107,-0.707107 -1.414213,0 -0.707107,-0.707107 -0.707107,-0.707106 -0.707107,-0.707107 -0.707106,-0.707107 -0.707107,-0.707107 -0.707107,-0.707106 -0.707107,-0.707107 -0.707107,-0.707107 -0.707106,-0.707107 -0.707107,-0.707107 -0.707107,-0.707106 -0.707107,-0.707107 -0.707106,-0.707107 -0.707107,-0.707107 -0.707107,-0.707106 -0.707107,-0.707107 -0.707107,-0.707107 -0.707106,-0.707107 -0.707107,-0.707107 -0.707107,-0.707106 -0.707107,-0.707107 -0.707106,-0.707107 -0.707107,-0.707107 -0.707107,-0.707106 -0.707107,-0.707107 -0.707107,-0.707107 -0.707106,-0.707107 -0.707107,-0.707107 -0.707107,-0.707106 -0.707107,-0.707107 -0.707107,-0.707107 -0.707106,-0.707107 -0.707107,-0.707107 -0.707107,-0.707106 -0.707107,-0.707107 0,-1.414214 0.707107,-0.707106 0.707107,-0.707107 0.707107,-0.707107 0,-1.414214 0.707106,-0.707106 0,-1.414214 -0.707106,-0.707107 -0.707107,-0.707106 -0.707107,-0.707107 -0.707107,0.707107 -0.707106,0.707106 -0.707107,0.707107 -0.707107,0.707107 -0.707107,0.707107 -1.414213,0 -0.707107,0.707106 -0.707107,0.707107 -0.707107,0.707107 -0.707106,0.707107 -0.707107,0.707107 -1.414214,0 -0.707107,-0.707107 -0.707106,0.707107 -0.707107,0.707106 -0.707104,0.707107 -0.70711,0.707107 -0.70711,0.707107 -0.7071,0.707106 -1.41422,0 -0.7071,-0.707106 -1.41422,0 -0.7071,0.707106 -0.70711,0.707107 -0.70711,0.707107 -0.7071,0.707107 0,1.414213 0.7071,0.707107 1.41422,0 0.7071,0.707107 0.70711,-0.707107 0.70711,-0.707107 0.7071,-0.707106 0.70711,-0.707107 0.70711,-0.707107 0.7071,-0.707107 0.70711,-0.707107 0.70711,-0.707106 1.414211,0 0.707106,0.707106 0.707107,0.707107 0.707107,0.707107 0.707107,0.707107 0.707107,0.707107 0.707106,0.707106 0.707107,0.707107 0,1.414214 0.707107,0.707107 0.707107,0.707106 0,1.414214 -0.707107,0.707107 0.707107,0.707106 0.707106,0.707107 0,1.414214 0.707107,0.707107 0,1.414213 0.707107,0.707107 0.707107,0.707107 0.707107,0.707106 0.707106,0.707107 0.707107,0.707107 0.707107,0.707107 0.707107,0.707107 0.707106,0.707106 0.707107,0.707107 0.707107,0.707107 0.707107,0.707107 0.707107,0.707106 1.414213,0 0.707107,0.707107 0.707107,0.707107 0.707107,0.707107 0.707106,0.707107 0.707107,0.707106 0.707107,0.707107 0.707107,0.707107 1.414213,0 0.707107,0.707107 0.707107,0.707107 0.707107,0.707106 0.707106,0.707107 0.707107,0.707107 0.707107,0.707107 0.707107,0.707106 0.707106,0.707107 0.707107,0.707107 0.707107,0.707107 0.707107,0.707107 0.707107,0.707106 0.707106,0.707107 0.707107,0.707107 0.707107,0.707107 0.707107,0.707106 0.707106,0.707107 L -62.225397,0 l 0.707107,0.707107 0.707107,0.707107 0.707107,0.707106 0.707106,0.707107 0.707107,0.707107 0.707107,0.707107 0.707107,0.707106 0.707107,0.707107 0.707106,0.707107 0.707107,0.707107 0,1.414213 0,1.414214 0.707107,0.707107 0.707107,0.707106 0.707106,0.707107 0.707107,0.707107 0.707107,0.707107 0.707107,0.707107 0.707107,0.707106 0,1.414214 0.707106,0.707107 0,1.414213 0.707107,0.707107 0.707107,0.707107 0.707107,0.707107 0.707106,0.707106 0.707107,0.707107 0.707107,0.707107 0.707107,0.707107 0,1.414213 0.707107,0.707107 0.707106,0.707107 0,1.414213 0.707107,0.707107 0.707107,0.707107 0.707107,0.707107 0.707106,0.707107 0.707107,0.707106 0.707107,0.707107 0,1.414214 0.707107,0.707106 0.707107,0.707107 0.707106,0.707107 0.707107,0.707107 0.707107,0.707107 0.707107,0.707106 0.707107,0.707107 0.707106,0.707107 0.707107,0.707107 0.707107,0.707107 0.707107,0.707106 0.707106,0.707107 1.414214,0 0.707107,0.707107 1.414213,0 0.707107,0.707107 0.707107,0.707106 0.707107,0.707107 0.707106,0.707107 0.707107,0.707107 0.707107,0.707107 0.707107,0.707106 1.414213,0 0.707107,0.707107 0.707107,0.707107 0.707107,0.707107 0.707106,0.707106 0.707107,0.707107 1.414214,0 0.707107,0.707107 0.707106,0.707107 0.707107,0.707107 0.707107,0.707106 1.414214,0 0.707106,0.707107 1.414214,0 0.707107,-0.707107 0.707106,-0.707106 1.414214,0 1.414214,0 0.707106,-0.707107 0.707107,-0.707107 0.707107,-0.707107 1.414213,0 0.707107,-0.707107 L 0,49.497475 l 0.707107,-0.707107 1.414213,0 1.414214,0 0.707107,-0.707107 1.414213,0 0.707107,0.707107 0.707107,0.707107 0.707107,0.707106 0.707106,0.707107 0.707107,0.707107 0.707107,0.707107 0,1.414213 0.707107,0.707107 0.707106,0.707107 0.707107,0.707107 0.707107,0.707106 0.707107,-0.707106 1.414213,0 1.414214,0 0.707107,0.707106 0.707107,0.707107 0.707106,0.707107 0.707107,0.707107 0.707107,0.707107 0.707107,0.707106 0.707106,-0.707106 1.414214,0 0.707107,-0.707107 0.707107,-0.707107 0.707106,-0.707107 0.707107,-0.707107 0.707107,-0.707106 0.707107,-0.707107 0,-1.414214 0,-1.414213 0,-1.414214 -0.707107,-0.707107 -0.707107,-0.707106 -0.707107,-0.707107 -0.707106,-0.707107 -0.707107,-0.707107 -0.707107,-0.707106 -0.707107,-0.707107 0,-1.414214 -1.414213,0 -0.707107,-0.707107 -0.707107,-0.707106 -1.414213,0 -0.707107,-0.707107 -1.414214,0 -0.707107,-0.707107 -0.707106,-0.707107 -0.707107,-0.707106 -0.707107,-0.707107 -0.707107,-0.707107 -0.707107,-0.707107 0,-1.414213 0.707107,-0.707107 0.707107,-0.707107 0.707107,-0.707107 0,-1.414213 0.707107,-0.707107 0.707106,-0.707107 0,-1.414213 0.707107,-0.707107 -0.707107,-0.707107 0,-1.414214 0.707107,-0.707106 0.707107,-0.707107 -0.707107,-0.707107 -0.707107,-0.707107 0,-1.414213 0.707107,-0.707107 -0.707107,-0.707107 -0.707106,-0.707107 0,-1.414213 -0.707107,-0.707107 -0.707107,-0.707107 0,-1.414213 -0.707107,-0.707107 -0.707107,-0.707107 -0.707106,-0.707107 0,-1.414213 -0.707107,-0.707107 -0.707107,-0.707107 -0.707107,-0.707107 -0.707106,-0.707106 0,-1.414214 L 7.071068,8.485281 6.363961,7.778175 5.656854,7.071068 4.949747,6.363961 4.242641,5.656854 3.535534,4.949747 2.828427,4.242641 2.12132,3.535534 1.414214,2.828427 0.707107,2.12132 0,1.414214 0,0"
       id="path5-6" />
  </g>
  <g
     transform="matrix(-0.72182501,-0.69207562,0.69207562,-0.72182501,62.100963,-321.33866)"
     id="layer1-84">
    <path
       style="fill:none;stroke:#000000;stroke-width:1px;stroke-linecap:butt;stroke-linejoin:miter;stroke-opacity:1"
       d="m -53.114286,-91.275635 -0.679958,0.649205 -0.705163,0.722552 -0.897296,0.294428 -0.516489,0.79087 -0.934217,0.505908 -0.961543,0.145447 -0.975334,0.275674 -0.789948,0.648929 -0.735777,0.490705 -0.66025,0.314014 -0.79717,0.639878 -0.757326,0.79083 -0.426936,0.787658 -0.103423,0.984815 0.357734,0.972266 0.281898,0.726963 1.19937,0.700056 0.423645,1.027913 1.297499,0.515375 0.335595,1.028998 0.687485,0.953547 0.652309,0.913705 0.996143,0.568108 0.837701,0.72819 0.992683,0.0066 1.017409,0.209039 0.840188,0.159992 1.0859,-0.02387 0.884344,-0.38019 0.818659,-0.277983 1.111916,-0.223832 0.09368,-1.004498 0.582029,-1.496632 0.586308,-1.029868 -0.207659,-0.714594 -0.399436,-0.988016 -0.159888,-1.423288 0.409515,-0.819696 0.722105,-0.793217 1.068345,-0.599336 0.08872,-1.329692 0.84667,-0.501639 0.937058,-0.225667 1.172328,0.03357 1.01072,0.414471 0.88199,0.343821 1.036939,0.380308 0.906049,0.136501 1.142447,-0.009 1.050359,-0.169435 1.056947,0.164218 0.96943,-0.107477 0.82473,0.23332 0.863302,0.607639 0.442957,0.803931 0.678266,0.770603 0.328387,0.835717 0.791774,0.672736 0.09504,1.385895 0.597702,0.812013 0.74486,0.765443 0.853692,0.30967 0.820707,0.08758 0.991601,0.62121 0.820275,0.297908 0.698706,0.534776 0.669702,0.491335 0.321216,0.965479 0.330803,0.966895 0.366508,0.999075 0.230563,0.705624 0.009,0.993069 -0.164118,1.005516 -0.03264,0.969173 0.329021,0.921194 0.390841,0.706675 0.243491,1.007514 0.249807,1.101223 -0.256606,0.952485 -0.355358,0.879547 -0.314575,0.963203 -0.01405,1.002073 0.0486,0.944593 -0.27876,0.969444 0.122434,0.920873 -0.173103,0.991538 -0.03672,0.907646 0.544118,0.898622 0.528468,0.915771 0.698006,0.821861 0.115337,1.640141 0.968981,0.622021 0.975191,0.387331 0.780474,0.47289 1.005471,0.469512 0.806721,0.637358 0.99632,0.592298 0.806444,0.491944 0.441755,1.540557 -0.936365,0.275973 -0.921801,0.584312 0.842518,0.77694 0.523598,1.029822 0.492682,0.701793 -0.990075,1.387996 -0.922037,0.190782 -1.05397,0.262936 -0.838776,1.147931 0.394653,1.15289 0.299117,1.149757 0.800887,-0.276687 0.893535,0.09621 0.854327,0.02406 1.44997,0.305377 0.962537,-0.0075 1.176137,-0.917442 0.815964,0.191805 0.898884,0.312408 1.478544,-0.01053 0.69991,0.62788 0.857683,0.292894 1.00814,-0.267509 0.996489,-0.85864 0.979743,0.114415 0.819876,-0.04632 1.177844,-0.809711 1.226399,0.167364 0.703631,0.610694 1.264233,-0.195584 0.817461,0.682929 4.263029,0.05224 -0.90984,0.04195 -1.005564,0.138402 -0.655103,-0.563689 -0.993294,0.06717 -0.956052,-0.294838 -0.825277,-0.62553 -0.655697,-0.662713 -0.395452,-0.858354 0.377859,-1.483307 1.084187,-0.115104 0.926856,-0.143627 0.981092,-0.241639 1.072589,-0.114184 1.021392,0.216074 1.075445,0.213961 0.949618,0.415532 0.305263,1.451442 0.108079,1.05788 -0.166804,0.962343 0.947923,-0.263847 0.282038,1.389484 0.432023,0.699837 -0.532668,1.466491 0.776874,0.625302 1.023774,-0.007 1.086672,-0.03579 1.100765,-0.309865 0.860085,0.358965 0.501449,0.765459 0.35898,0.808324 0.16742,0.830477 0.200971,0.984255 0.105178,0.962724 0.55646,0.847753 0.543495,0.67851 0.02562,0.966733 -0.313923,0.963536 -0.588929,0.86179 -0.962559,0.678702 -0.968793,0.405064 -1.085384,-0.120574 -0.893527,1.243481 -1.087824,0.142819 -0.87299,0.242171 -0.973994,-0.125634 -0.926103,-0.183985 -1.080462,-0.458587 -1.011075,-0.09399 -0.972288,-0.598397 -1.003351,-0.153683 -1.09234,-1.016861 -0.789153,0.338723 -0.830588,0.431933 -0.768761,0.555224 -0.774975,0.606889 -1.439799,-0.210287 -0.393883,0.836801 -0.288921,1.001124 -1.330023,-0.09592 -0.651108,0.846557 -0.662315,0.651531 -0.567284,0.666546 -1.311933,-0.03814 -0.907007,-0.357853 -0.81981,-0.324174 -0.901825,-0.371607 -0.97343,-0.177379 -1.010952,0.18559 -0.553036,0.73832 -1.165668,-0.490518 -0.941343,-0.438789 -0.852238,-0.695358 -1.434578,0.248096 -0.924267,-0.669826 -0.647502,-0.744373 -1.543815,-0.05984 -0.593685,-0.71192 -0.779687,-0.529518 -0.786839,-0.91111 -1.363672,0.03406 -0.742085,-0.667437 -0.486098,-0.925419 -0.56299,-0.88007 -0.870489,-0.653529 -0.668083,-0.563433 -0.939335,-0.409301 -0.769824,-0.650007 -0.96534,-0.31557 -0.935126,0.08957 -0.926967,0.02703 -0.894398,0.236145 -1.091231,-0.189965 -0.851664,-0.605616 -0.834658,-0.325506 -0.834954,-0.62962 -0.538936,-0.813477 -0.527495,-0.862879 -0.251485,-0.866426 -0.346544,-1.095133 -0.141076,-0.992455 -0.207156,-1.088828 -0.125865,-1.079317 -0.114211,-0.920727 -0.02576,-0.874864 0.03571,-1.010455 -0.06519,-0.985747 0.05312,-0.816912 0.400131,-0.816971 0.09038,-0.983304 -0.468155,-1.076043 -0.387012,-0.921314 -0.644723,-0.713197 -0.649703,-0.837381 -0.414687,-0.760306 -0.534371,-0.83479 0.223506,-1.308037 0.98435,-0.532196 0.832042,-0.103177 0.957375,-0.598497 0.450946,-1.186338 0.828523,-0.411217 0.536699,-1.384188 -0.673295,-0.958868 -0.678842,-0.639456 -0.708562,-0.810827 -0.788149,0.765211 -0.08723,1.007992 -0.729756,0.835516 -0.50788,0.807861 -0.05097,1.07269 -0.998742,0.61109 -0.786928,0.697082 -0.732659,0.772536 -0.57734,0.783207 -0.677636,0.713967 -0.407347,0.95654 -1.012968,0.744869 -0.94163,-0.2821 -0.205601,0.996788 0.114838,1.006368 -0.02664,1.043209 -0.01979,0.970433 0.153591,0.896397 -0.396805,0.787287 -1.269353,0.417446 -1.148845,-0.329007 -1.359533,0.496387 -0.654749,0.803656 -0.723517,0.681315 -0.855613,0.370744 -1.002963,0.362638 -0.679157,1.414682 0.52405,0.969187 1.186325,0.731004 0.02858,0.887468 1.055101,0.468295 0.851982,0.461447 0.976528,0.52939 1.041713,0.563183 0.79416,0.669276 0.582528,0.720593 0.771393,0.46138 0.861756,0.510746 -0.02584,1.382135 -0.781632,0.344371 -1.071252,0.666857 -0.933452,0.470336 -0.965332,0.486492 -1.065857,0.313946 -1.179891,-0.270132 -1.22608,-0.02429 -0.987052,-0.896776 -0.96639,-0.07067 -0.949525,0.101403 -1.205481,-1.178558 -0.797103,-0.804688 -0.461026,0.982716 0.168886,0.940813 -0.430494,1.224378 0.100169,0.992035 -1.004559,0.848914 0.05155,0.831824 0.154191,0.817036 0.104461,1.067688 0.252721,1.024429 0.308569,0.682573 0.142781,1.071596 0.09376,1.116847 0.05538,0.969845 0.120927,0.866513 0.5027,0.785776 0.673678,0.37466 0.887279,0.4619 1.043771,-1.083029 0.973022,0.272844 0.771261,0.914409 0.486767,0.89845 0.361574,1.114097 -0.342669,1.048418 -0.615358,0.95605 -0.493596,0.875932 0.672376,0.842216 0.171968,0.975 0.33226,0.849066 0.204192,1.067442 0.361979,0.68372 0.40787,0.844894 0.370375,0.881833 0.08228,0.932556 0.568295,1.008392 0.680439,0.898655 0.49565,0.781281 0.795713,0.685532 0.40057,0.866349 0.637332,0.288199 0.991422,0.12573 0.733756,-0.416164 0.666077,-0.569052 0.879866,-0.033397 0.902326,0.315403 0.937621,0.675353 0.875814,0.608287 0.752748,0.659309 0.62623,0.51394 0.643008,0.745415 0.801512,0.451756 0.930201,0.454439 0.806894,-0.00236 0.976639,0.32232 0.981178,0.470768 0.50931,1.655381 -0.225349,1.542603 0.94502,0.53791 0.97199,0.024661 1.131086,-0.048181 0.989327,0.304536 0.841926,0.380477 0.903548,0.138679 1.01913,0.00194 1.014885,1.115151 0.858485,-0.437179 1.242974,0.665312 0.932029,0.17321 0.841743,0.259722 1.113572,0.176854 0.957585,0.430699 0.858991,0.352154 0.967741,0.264217 1.007862,0.207353 -0.07944,1.320751 0.841508,0.505803 1.025515,0.354435 -0.228593,1.275182 0.220326,0.941562 0.374588,0.974183 0.419226,0.809394 0.727368,0.851284 0.508544,0.772906 0.298027,1.007892 -0.614661,1.413168 0.221784,1.044208 0.295158,0.987472 0.471474,1.000447 0.551241,1.019908 0.65971,0.792049 0.260989,1.080017 -0.163434,0.937971 -0.432062,0.875547 -0.436533,0.948495 -0.298159,1.139561 0.0526,1.025405 0.100303,1.060243 0.765842,1.314925 0.166717,1.103621 1.421166,0.705163 0.509948,0.894111 0.199461,1.041003 0.360006,1.016441 0.45063,0.621897 0.154373,0.850927 -0.113027,1.007457 0.233259,0.915751 0.803499,1.169296 -0.426041,1.11906 -0.417778,0.896237 -0.174499,0.935386 -0.459444,0.724437 -0.709354,0.839646 0.648333,1.189068 -0.331615,0.950947 -0.134515,1.115104 -0.614367,0.756776 -0.583328,0.644529 -0.15088,1.641275 -0.853409,0.498264 -0.706181,1.166668 0.863304,0.919173 0.683477,0.45645 0.116277,1.350177 0.201139,1.387421 1.022967,0.290651 0.885928,0.227133 0.936036,-0.104799 1.398957,0.556225 0.911674,-0.557037 0.894198,-0.470214 0.677842,-0.683662 1.193043,-0.588881 0.759147,-1.344839 -0.321412,-1.056487 0.772227,-0.995288 1.193667,0.0756 0.875394,0.02609 0.950656,-0.490032 0.817877,-0.594787 0.873686,-0.597444 0.697642,-0.714713 1.345361,-0.160315 0.957587,-0.572997 0.850276,0.08895 0.919877,0.247167 0.966359,0.313078 0.355212,-0.91943 0.992071,-1.078098 0.758473,-1.213263 0.96722,-0.307428 1.01709,-0.0026 0.844379,0.473696 0.817126,0.45395 0.538702,0.852596 0.924678,0.638063 0.764238,-0.769766 1.321199,-0.21117 0.607482,-0.750509 0.958392,-0.534663 0.717909,-0.844205 0.622701,-0.849137 0.533933,-0.711386 L 19.89004,46.868223 18.999528,45.661076 18.489642,44.308647 17.392196,43.43781 16.496448,43.158426 15.664684,42.606349 15.130826,41.956294 14.450367,41.498293 13.591351,40.97932 12.833999,40.177555 12.210257,39.580226 12.071179,38.118187 10.773011,37.500765 10.538608,36.389597 10.727911,35.16642 9.753678,34.006397 9.286597,33.14766 8.083745,32.182314 7.643754,31.478536 7.212064,30.537243 6.55315,29.625072 6.359459,28.581081 6.182023,27.452848 6.454298,26.456502 7.607216,25.94728 l 0.719922,0.558941 0.710451,0.395211 0.988533,0.05032 0.973313,-0.756594 1.056657,0.243573 0.991542,0.204511 0.942256,-1.06804 0.877798,-0.127255 -0.502186,-0.973563 0.433225,-1.230307 0.709176,-0.259307 0.934776,-0.397503 -0.253697,-0.938255 -0.719429,-0.496862 -0.251999,-1.372486 0.538939,-0.610463 -0.658175,-0.715553 -0.845073,-0.471567 -0.659858,-0.969306 -0.932548,0.07777 L 11.677232,16.917948 11.119494,15.700375 9.989623,15.386566 8.927511,15.162995 7.82916,14.900844 7.207996,13.630242 6.197531,13.322103 5.241768,13.003602 4.224714,12.937268 3.593092,12.216442 3.899404,10.67034 3.464313,9.707338 2.843131,9.050942 2.154081,8.66398 1.636597,7.785663 1.272139,6.792538 1.277183,5.702454 1.444826,4.846179 1.38577,3.865119 1.190508,2.906724 0.849566,1.876445 0,1.149876 0,0"
       id="path2822" />
  </g>
  <text
     xml:space="preserve"
     style="font-size:37.27065277px;font-style:normal;font-variant:normal;font-weight:normal;font-stretch:normal;text-align:start;line-height:125%;writing-mode:lr-tb;text-anchor:start;fill:#000000;fill-opacity:1;stroke:none;font-family:CMU Serif;-inkscape-font-specification:CMU Serif Medium"
     x="-609.85474"
     y="-177.49287"
     id="text2852"
     sodipodi:linespacing="125%"><tspan
   sodipodi:role="line"
   id="tspan2854"
   x="-609.85474"
   y="-177.49287" />original</text>
  <text
     xml:space="preserve"
     style="font-size:37.27065277px;font-style:normal;font-variant:normal;font-weight:normal;font-stretch:normal;text-align:start;line-height:125%;writing-mode:lr-tb;text-anchor:start;fill:#000000;fill-opacity:1;stroke:none;font-family:CMU Serif;-inkscape-font-specification:CMU Serif Medium"
     x="35.629669"
     y="-177.49287"
     id="text2856"
     sodipodi:linespacing="125%"><tspan
       sodipodi:role="line"
       id="tspan2858"
       x="35.629669"
       y="-177.49287">10%</tspan></text>
  <text
     xml:space="preserve"
     style="font-size:37.27065277px;font-style:normal;font-variant:normal;font-weight:normal;font-stretch:normal;text-align:start;line-height:125%;writing-mode:lr-tb;text-anchor:start;fill:#000000;fill-opacity:1;stroke:none;font-family:CMU Serif;-inkscape-font-specification:CMU Serif Medium"
     x="-264.58243"
     y="-177.49287"
     id="text2860"
     sodipodi:linespacing="125%"><tspan
       sodipodi:role="line"
       id="tspan2862"
       x="-264.58243"
       y="-177.49287">1%</tspan></text>
  <text
     xml:space="preserve"
     style="font-size:37.27065277px;font-style:normal;font-variant:normal;font-weight:normal;font-stretch:normal;text-align:start;line-height:125%;writing-mode:lr-tb;text-anchor:start;fill:#000000;fill-opacity:1;stroke:none;font-family:CMU Serif;-inkscape-font-specification:CMU Serif Medium"
     x="-432.90158"
     y="-177.49287"
     id="text2864"
     sodipodi:linespacing="125%"><tspan
       sodipodi:role="line"
       id="tspan2866"
       x="-432.90158"
       y="-177.49287">0.1%</tspan></text>
  <g
     transform="matrix(-0.80090854,-0.5987867,0.5987867,-0.80090854,-68.469149,-319.11477)"
     id="layer1-3">
    <path
       style="fill:none;stroke:#000000;stroke-width:1px;stroke-linecap:butt;stroke-linejoin:miter;stroke-opacity:1"
       d="m 31.279622,-100.60594 -0.931841,-0.30994 -0.954928,-0.30642 -0.883415,-0.43183 -0.952292,-0.24529 -0.937953,-0.39754 -0.868074,-0.47959 -0.896488,-0.45216 -0.947896,-0.33901 -0.898828,-0.35207 -0.840705,-0.37201 -0.946711,-0.34221 -0.980195,-0.31147 -0.943804,-0.21855 -0.99105,-0.10939 -1.010422,0.0275 -0.933421,0.0303 -0.996007,0.99318 -1.032762,0.04 -0.95174,1.03868 -1.024571,0.0164 -1.04643,0.11437 -1.030817,0.1112 -1.014791,0.24534 -1.016661,0.18293 -0.922617,0.38 -0.956389,0.32963 -0.903016,0.31562 -0.945152,0.39882 -0.86077,0.48658 -0.846076,0.45227 -0.935665,0.454626 0.357711,0.936677 -0.390203,1.419024 -0.413448,1.280371 0.424321,0.819961 0.495981,0.890963 -0.174905,1.408805 -0.729743,0.646442 -0.818124,0.612169 -0.912248,0.554387 -0.244793,1.368015 -0.846814,0.522877 -0.884749,0.442318 -0.975198,0.394161 -0.988838,0.280014 -0.945346,0.273055 -0.989089,0.292187 -0.916498,0.332306 -0.962421,0.401325 -0.921811,0.434735 -0.960229,0.346661 -0.903969,0.410019 -0.91151,0.291971 -0.994649,0.210657 -0.972801,0.07069 -0.998394,0.138646 -0.968823,0.03274 -0.995093,0.182527 -1.154782,-0.803284 -0.996221,0.111863 -1.008495,0.155506 -0.932301,0.27649 -0.886597,0.334533 -1.024589,0.234289 -0.922144,0.273362 -0.94537,0.188408 -0.929729,0.191187 -1.005094,0.01791 -1.006367,0.02049 -1.018884,0.02746 -0.92258,0.01495 -0.995065,-0.0756 -0.997537,-0.127451 -0.987027,-0.08772 -0.993161,0.02421 -0.939756,0.06874 -1.010928,-0.0075 -1.038691,-0.01207 -0.983608,-0.156199 -0.966167,-0.189554 -0.988953,-0.173063 -0.997228,-0.08271 -0.981794,-0.06205 -0.989403,-0.162247 -0.977953,-0.03805 -0.993455,-0.130277 -0.968522,-0.08806 -1.011507,0.08598 -1.014064,0.07975 -1.014485,0.135404 -1.218034,-0.846343 -1.019895,0.229669 -0.975471,0.279736 -0.948286,0.22131 -0.997754,0.267177 -0.989885,0.192535 -1.019704,0.240686 -0.957862,0.222634 -1.258021,-0.761883 -0.0074,-0.992828 -0.09331,-1.023172 -1.028911,0.175795 -1.044538,0.06544 -0.951959,0.100409 -1.030656,-1.091804 0.01702,-0.982323 0.0053,-1.025867 -0.968799,-1.033347 -1.065349,0.02174 -1.056406,-0.0023 0.02028,0.953984 -0.107133,0.963673 -0.08309,0.952784 -0.913756,1.105799 -0.07526,0.985902 0.892604,1.12672 -0.140117,0.941088 -0.175352,0.969761 0.653534,1.275886 -0.288255,0.938825 -0.17138,0.956665 -7.38e-4,1.012908 0.875557,1.072579 -0.112711,0.989522 -0.05827,0.94456 0.860767,1.127792 -0.127431,1.063725 -0.282889,0.937767 0.679341,1.193999 -0.288937,0.977759 0.371328,4.148593 0.06294,-0.971204 0.03767,-1.003807 0.275869,-0.918748 0.05817,-0.996973 0.167512,-0.986017 0.272607,-0.973206 0.304225,-0.931247 0.401276,-0.897937 1.336777,-0.559529 0.892318,0.508596 0.859511,0.473643 0.890998,0.460846 0.889331,0.506792 0.829117,0.582355 0.84415,0.588355 0.790202,0.630582 0.08918,1.432134 -0.505652,0.884709 -0.561732,0.818854 0.888026,0.449231 0.08498,1.412742 0.621192,0.71444 -0.152119,1.450062 0.728978,0.683339 0.859801,0.524472 0.880214,0.527509 0.93116,0.470025 0.768805,0.607081 0.64534,0.73023 0.603357,0.753547 0.54618,0.782368 0.573819,0.820653 0.544844,0.827228 0.665209,0.7523 0.656597,0.701445 0.52403,0.840079 0.44149,0.901739 0.366305,0.944603 0.273622,1.017173 0.199013,0.995318 0.04659,1.026562 1.146578,0.886495 0.120854,1.022027 0.154554,0.959418 0.03983,0.993821 0.01937,0.98307 -0.04405,1.051204 0.05094,1.003338 -0.09055,1.038562 0.03309,1.003971 -0.921904,1.103165 0.190415,0.938511 0.216351,0.956698 0.258975,0.949816 0.272996,0.957127 -0.702273,1.241625 0.396603,0.893384 0.454514,0.904856 -0.657643,1.224575 0.352851,0.957447 0.300148,0.931558 0.319413,0.90804 -0.638911,1.227358 -0.899226,0.420092 -0.873914,0.408023 -0.901208,0.416066 -0.876852,0.474148 -0.829805,0.572888 -0.660512,0.719549 -1.359586,-0.163239 -0.78617,-0.636571 -0.750039,-0.7059 -1.424829,0.07326 -0.771273,-0.701297 -0.689428,-0.718788 -1.453344,-0.01689 -0.672627,-0.7101 -0.733134,-0.654453 -0.733724,-0.766613 -1.399139,0.01048 -0.717828,-0.695393 -0.648996,-0.778575 -0.668624,-0.761555 -0.756014,-0.694445 -0.697449,-0.662846 -0.787699,-0.627987 -0.726378,-0.690582 -0.803105,-0.603664 -0.851492,-0.488811 -0.838497,-0.503799 -0.870483,-0.444739 -0.851121,-0.584141 -0.751705,-0.679813 -0.764525,-0.594985 -0.746129,-0.686239 -0.658556,-0.742859 -0.657385,-0.758064 -0.575401,-0.78172 -0.625268,-0.836792 -0.558545,-0.830354 -0.588254,-0.848546 -0.566214,-0.855603 -0.541706,-0.814674 -0.510172,-0.816254 -0.515141,-0.860984 -0.537328,-0.839066 -0.47827,-0.81572 -0.390618,-0.89105 -0.496981,-0.86342 -0.655683,-0.822722 -0.620137,-0.784225 -0.688278,-0.709405 -0.692193,-0.7464 -0.618017,-0.734368 -0.658088,-0.749421 0.07044,-1.386259 0.793167,-0.666006 0.792355,-0.526851 0.782699,-0.682873 0.149075,-1.362565 0.755133,-0.62069 0.158947,-1.426501 -0.703896,-0.781133 -0.698988,-0.686572 -0.708668,-0.737836 -0.731222,0.724772 -0.546322,0.841784 -0.715372,0.744931 -0.64896,0.742688 -0.546443,0.863847 -1.323052,0.219937 -0.73089,0.704842 -0.715082,0.726538 -0.669081,0.732256 -0.698254,0.709275 -0.628816,0.792799 -1.342497,0.258487 -0.799719,-0.591831 -0.576582,0.823556 -0.495046,0.873318 -0.535926,0.859699 -0.523054,0.841946 -0.465439,0.854272 -0.613811,0.74396 -1.384506,0.132368 -0.853145,-0.626564 -1.416298,0.149293 -0.692721,0.736358 -0.712125,0.699407 -0.766456,0.610283 -0.809578,0.620393 -0.195547,1.447579 0.662692,0.789205 1.388709,0.232199 0.512867,0.819057 0.953457,-0.430902 0.91214,-0.386575 0.951374,-0.403074 0.97151,-0.411999 0.953764,-0.337058 0.939218,-0.272612 0.897551,-0.366919 0.925668,-0.379714 1.247967,0.644712 0.192822,0.936597 0.262217,1.046196 0.219769,0.989463 0.222116,0.999924 0.169192,1.019394 0.01171,1.063062 0.07746,1.065083 -0.887475,1.069845 0.05608,0.989102 0.108741,0.980466 -0.967529,1.140633 -0.989359,0.319909 0.416515,0.937264 0.559657,0.812693 -0.139663,1.372216 0.547517,0.835748 -0.356939,1.337712 0.511341,0.800674 0.540579,0.780517 0.559168,0.855266 0.592579,0.825958 0.579409,0.720695 0.569481,0.851424 0.563456,0.869652 0.532408,0.836343 0.536583,0.799021 0.646478,0.736317 0.711036,0.601385 0.768911,0.639501 1.399485,-0.344194 0.809523,0.592464 0.729466,0.767521 0.647463,0.770674 0.63119,0.840845 0.45305,0.926013 0.38443,0.967514 0.386205,0.924179 1.265986,0.349174 0.564728,0.821657 0.598178,0.768076 0.584821,0.843054 0.597506,0.715386 0.620716,0.760243 0.612153,0.774153 0.534393,0.822495 0.677647,0.798454 0.703234,0.7637 0.64414,0.735344 0.733584,0.701611 0.619979,0.767135 0.709075,0.570105 0.832102,0.554278 0.879678,0.366748 0.908444,0.318977 0.827754,0.494379 0.785148,0.59769 0.775008,0.703459 0.758713,0.681578 0.721127,0.693089 0.686173,0.646903 0.688089,0.719176 0.744134,0.631565 0.781904,0.640235 0.803677,0.491526 0.805671,0.606661 0.795585,0.648621 0.134989,1.503489 -0.06341,1.456263 0.781565,0.665037 0.841588,0.524577 0.893299,0.531842 0.810934,0.602975 0.761594,0.612241 0.806559,0.546446 0.857233,0.525988 0.316875,1.407059 0.907649,0.392847 0.449547,1.339474 0.809723,0.559808 0.773688,0.575521 0.858649,0.583697 0.791412,0.635518 0.769102,0.604953 0.808949,0.589491 0.826396,0.578384 -0.025,1.386665 0.752838,0.649892 0.816635,0.620305 -0.07333,1.376651 0.574265,0.806545 0.621082,0.800413 0.622003,0.748819 0.715087,0.749511 0.64779,0.732115 0.603099,0.816777 -0.178295,1.441279 0.58661,0.834745 0.600184,0.811325 0.650305,0.801062 0.673755,0.802462 0.693916,0.732836 0.601168,0.840459 0.470828,0.865904 0.397832,0.90972 0.413509,0.92502 0.479881,0.937718 0.539844,0.851285 0.557064,0.853841 1.37617,0.445413 0.579831,0.857144 1.451926,0.20191 0.653945,0.768128 0.580305,0.836382 0.620949,0.813609 0.625909,0.688391 0.544605,0.789899 0.495673,0.873265 0.575125,0.797809 1.356215,0.405629 0.451787,0.958043 0.405409,0.910467 0.467645,0.867429 0.355298,0.888982 0.342763,0.971033 1.324717,0.441179 0.435097,0.902752 0.509621,0.903086 0.335829,0.93388 0.310519,0.909229 1.303587,0.710022 0.234033,0.968592 1.126744,0.82937 1.028617,-0.32356 0.88143,-0.345058 1.260217,0.601724 1.283266,0.585503 0.910046,-0.458534 0.866732,-0.445174 0.820137,-0.541119 1.432312,0.163313 0.771039,-0.668543 0.770417,-0.642372 0.698305,-0.700099 1.375968,-0.190471 1.380803,-0.453097 0.458928,-0.923548 1.31711,-0.369177 0.89213,0.570262 0.816337,0.510345 0.937468,0.404108 0.938658,0.354544 0.948727,0.367806 0.951816,0.305452 0.677818,1.220874 0.957856,0.391507 0.799505,0.52501 0.797369,0.579577 0.803632,0.603062 0.610779,-0.786361 1.385715,-0.350997 1.354284,-0.424316 0.901191,0.44364 0.857422,0.524509 0.755524,0.640453 0.748666,0.633036 0.660188,0.754501 0.772094,0.692327 0.724293,-0.725861 1.389767,-0.06613 0.677427,-0.72148 0.785581,-0.664968 0.712175,-0.74751 0.68471,-0.75048 0.654022,-0.712065 0.591129,-0.756218 -0.272905,-1.413874 -0.153673,-1.415237 -0.376166,-1.359149 -0.786969,-0.58652 -0.747741,-0.663227 -0.653363,-0.692887 -0.706559,-0.629146 -0.757343,-0.654677 -0.722682,-0.735138 -0.682565,-0.673764 -0.0407,-1.429963 -1.408619,-0.188722 -0.598007,-0.851713 -0.517109,-0.938259 -1.395237,-0.373658 -0.63929,-0.760184 -1.42285,-0.292706 -0.623897,-0.715089 -0.63454,-0.786645 -0.697672,-0.768001 -0.57915,-0.837862 -0.585764,-0.86253 -0.457129,-0.900477 0.464559,-1.286768 0.913835,-0.335364 0.870306,-0.36538 0.857882,-0.507872 0.366638,-1.309426 0.908586,-0.475114 0.886205,-0.471278 0.304955,-1.384033 0.801166,-0.539877 -0.656862,-0.791596 0.140054,-1.374137 0.734814,-0.564361 0.787283,-0.624241 -0.583387,-0.801811 -0.716372,-0.642518 -0.07669,-1.406488 0.655154,-0.680051 -0.692377,-0.70994 L 14.64752,20.803167 14.408226,19.482952 13.559483,18.991549 12.735553,18.42558 12.556706,17.045399 11.707481,16.424848 10.868025,15.835609 10.02264,15.231997 9.830318,13.830892 9.013785,13.224754 8.213675,12.62119 7.366551,12.079025 6.6822,11.367083 6.767982,9.906804 6.130795,9.114138 5.449811,8.421801 4.73508,7.815763 4.079824,7.052658 3.459848,6.24602 2.924443,5.36959 2.470306,4.521804 1.935284,3.683068 1.366122,2.868852 0.749017,2.049723 0,1.334912 0,0"
       id="path5-2" />
  </g>
  <text
     sodipodi:linespacing="125%"
     id="text2896"
     y="-177.49287"
     x="-108.94169"
     style="font-size:37.27065277px;font-style:normal;font-variant:normal;font-weight:normal;font-stretch:normal;text-align:start;line-height:125%;writing-mode:lr-tb;text-anchor:start;fill:#000000;fill-opacity:1;stroke:none;font-family:CMU Serif;-inkscape-font-specification:CMU Serif Medium"
     xml:space="preserve"><tspan
       y="-177.49287"
       x="-108.94169"
       id="tspan2898"
       sodipodi:role="line">3%</tspan></text>
</svg>
