<?xml version="1.0" encoding="UTF-8" standalone="no"?>
<!-- Created with Inkscape (http://www.inkscape.org/) -->
<svg
   xmlns:dc="http://purl.org/dc/elements/1.1/"
   xmlns:cc="http://creativecommons.org/ns#"
   xmlns:rdf="http://www.w3.org/1999/02/22-rdf-syntax-ns#"
   xmlns:svg="http://www.w3.org/2000/svg"
   xmlns="http://www.w3.org/2000/svg"
   xmlns:sodipodi="http://sodipodi.sourceforge.net/DTD/sodipodi-0.dtd"
   xmlns:inkscape="http://www.inkscape.org/namespaces/inkscape"
   width="744.09448819"
   height="1052.3622047"
   id="svg2582"
   sodipodi:version="0.32"
   inkscape:version="0.46"
   sodipodi:docname="articulator.svg"
   inkscape:output_extension="org.inkscape.output.svg.inkscape">
  <defs
     id="defs2584">
    <inkscape:perspective
       sodipodi:type="inkscape:persp3d"
       inkscape:vp_x="0 : 526.18109 : 1"
       inkscape:vp_y="0 : 1000 : 0"
       inkscape:vp_z="744.09448 : 526.18109 : 1"
       inkscape:persp3d-origin="372.04724 : 350.78739 : 1"
       id="perspective2590" />
  </defs>
  <sodipodi:namedview
     id="base"
     pagecolor="#ffffff"
     bordercolor="#666666"
     borderopacity="1.0"
     gridtolerance="10000"
     guidetolerance="10"
     objecttolerance="10"
     inkscape:pageopacity="0.0"
     inkscape:pageshadow="2"
     inkscape:zoom="0.25"
     inkscape:cx="-678.26166"
     inkscape:cy="274.84831"
     inkscape:document-units="px"
     inkscape:current-layer="layer1"
     showgrid="false"
     inkscape:window-width="1280"
     inkscape:window-height="923"
     inkscape:window-x="0"
     inkscape:window-y="6" />
  <metadata
     id="metadata2587">
    <rdf:RDF>
      <cc:Work
         rdf:about="">
        <dc:format>image/svg+xml</dc:format>
        <dc:type
           rdf:resource="http://purl.org/dc/dcmitype/StillImage" />
      </cc:Work>
    </rdf:RDF>
  </metadata>
  <g
     inkscape:label="Layer 1"
     inkscape:groupmode="layer"
     id="layer1">
    <rect
       style="opacity:1;fill:none;fill-opacity:1;stroke:#000000;stroke-width:6.25;stroke-miterlimit:4;stroke-dasharray:none;stroke-dashoffset:0;stroke-opacity:1"
       id="rect2658"
       width="328.22977"
       height="202.85715"
       x="-452.28571"
       y="-47.352097" />
    <rect
       style="opacity:1;fill:none;fill-opacity:1;stroke:#000000;stroke-width:4.91747427;stroke-miterlimit:4;stroke-dasharray:none;stroke-dashoffset:0;stroke-opacity:1"
       id="rect2660"
       width="29.903955"
       height="244.18967"
       x="-303.1228"
       y="-242.30408"
       inkscape:transform-center-y="-70.384081" />
    <g
       id="g2810">
      <path
         id="rect2674"
         d="M 609.03115,-56.656249 L 415.625,55.000001 L 285.71875,55.000001 L 285.71875,257.84375 L 613.93745,257.84375 L 613.93745,55.000001 L 475.4375,55.000001 L 623.99995,-30.781249 L 609.03115,-56.656249 z"
         style="fill:none;fill-opacity:1;stroke:#000000;stroke-width:6.25;stroke-miterlimit:4;stroke-dasharray:none;stroke-dashoffset:0;stroke-opacity:1" />
      <g
         transform="translate(0,28)"
         id="g2781">
        <path
           style="fill:none;fill-opacity:1;stroke:#000000;stroke-width:6.25;stroke-miterlimit:4;stroke-dasharray:none;stroke-dashoffset:0;stroke-opacity:1"
           d="M 485.21875,-165.28125 L 433.6875,27 L 285.71875,27 L 285.71875,229.84375 L 613.9375,229.84375 L 613.9375,27 L 464.625,27 L 514.09375,-157.53125 L 485.21875,-165.28125 z"
           id="rect2662" />
        <path
           style="fill:none;fill-opacity:1;stroke:#000000;stroke-width:6.25;stroke-miterlimit:4;stroke-dasharray:none;stroke-dashoffset:0;stroke-opacity:1"
           d="M 533.125,-149.65625 L 431.125,27 L 285.71875,27 L 285.71875,229.84375 L 613.9375,229.84375 L 613.9375,27 L 465.6875,27 L 559.03125,-134.6875 L 533.125,-149.65625 z"
           id="rect2666" />
        <path
           style="fill:none;fill-opacity:1;stroke:#000000;stroke-width:6.25;stroke-miterlimit:4;stroke-dasharray:none;stroke-dashoffset:0;stroke-opacity:1"
           d="M 575.375,-122.15625 L 426.1875,27 L 285.71875,27 L 285.71875,229.84375 L 613.9375,229.84375 L 613.9375,27 L 468.5,27 L 596.5,-101 L 575.375,-122.15625 z"
           id="rect2670" />
        <path
           style="fill:none;fill-opacity:1;stroke:#000000;stroke-width:6.25;stroke-miterlimit:4;stroke-dasharray:none;stroke-dashoffset:0;stroke-opacity:1"
           d="M 434.875,-167.96875 L 434.875,27 L 285.71875,27 L 285.71875,229.84375 L 613.9375,229.84375 L 613.9375,27 L 464.78125,27 L 464.78125,-167.96875 L 434.875,-167.96875 z"
           id="rect2687" />
        <path
           style="fill:none;fill-opacity:1;stroke:#000000;stroke-width:6.25;stroke-miterlimit:4;stroke-dasharray:none;stroke-dashoffset:0;stroke-opacity:1"
           d="M 414.46875,-165.28125 L 385.5625,-157.53125 L 435.03125,27 L 285.71875,27 L 285.71875,229.84375 L 613.9375,229.84375 L 613.9375,27 L 465.96875,27 L 414.46875,-165.28125 z"
           id="rect2692" />
        <path
           style="fill:none;fill-opacity:1;stroke:#000000;stroke-width:6.25;stroke-miterlimit:4;stroke-dasharray:none;stroke-dashoffset:0;stroke-opacity:1"
           d="M 366.53125,-149.65625 L 340.65625,-134.6875 L 434,27 L 285.71875,27 L 285.71875,229.84375 L 613.9375,229.84375 L 613.9375,27 L 468.53125,27 L 366.53125,-149.65625 z"
           id="rect2696" />
        <path
           style="fill:none;fill-opacity:1;stroke:#000000;stroke-width:6.25;stroke-miterlimit:4;stroke-dasharray:none;stroke-dashoffset:0;stroke-opacity:1"
           d="M 324.3125,-122.15625 L 303.15625,-101 L 431.15625,27 L 285.71875,27 L 285.71875,229.84375 L 613.9375,229.84375 L 613.9375,27 L 473.46875,27 L 324.3125,-122.15625 z"
           id="rect2700" />
      </g>
      <path
         id="rect2704"
         d="M 290.625,-56.656249 L 275.65625,-30.781249 L 424.21875,55.000001 L 285.71875,55.000001 L 285.71875,257.84375 L 613.9375,257.84375 L 613.9375,55.000001 L 484.03125,55.000001 L 290.625,-56.656249 z"
         style="fill:none;fill-opacity:1;stroke:#000000;stroke-width:6.25;stroke-miterlimit:4;stroke-dasharray:none;stroke-dashoffset:0;stroke-opacity:1" />
    </g>
    <path
       id="path2725"
       d="M -347.25,747.78125 L -398.78125,940.0625 L -546.75,940.0625 L -546.75,1142.9062 L -218.53125,1142.9062 L -218.53125,940.0625 L -367.84375,940.0625 L -318.375,755.53125 L -347.25,747.78125 z"
       style="fill:none;fill-opacity:1;stroke:#000000;stroke-width:6.25;stroke-miterlimit:4;stroke-dasharray:none;stroke-dashoffset:0;stroke-opacity:1" />
    <path
       id="path2727"
       d="M -658.875,1182.4688 L -760.875,1359.1251 L -906.28125,1359.1251 L -906.28125,1561.9688 L -578.0625,1561.9688 L -578.0625,1359.1251 L -726.3125,1359.1251 L -632.96875,1197.4374 L -658.875,1182.4688 z"
       style="fill:none;fill-opacity:1;stroke:#000000;stroke-width:6.25;stroke-miterlimit:4;stroke-dasharray:none;stroke-dashoffset:0;stroke-opacity:1" />
    <path
       id="path2729"
       d="M 102.4375,1209.9688 L -46.75,1359.1251 L -187.21875,1359.1251 L -187.21875,1561.9688 L 141,1561.9688 L 141,1359.1251 L -4.4374997,1359.1251 L 123.5625,1231.1251 L 102.4375,1209.9688 z"
       style="fill:none;fill-opacity:1;stroke:#000000;stroke-width:6.25;stroke-miterlimit:4;stroke-dasharray:none;stroke-dashoffset:0;stroke-opacity:1" />
    <path
       id="path2731"
       d="M -588.00005,828.40625 L -781.40625,940.0625 L -911.3125,940.0625 L -911.3125,1142.9062 L -583.09375,1142.9062 L -583.09375,940.0625 L -721.59375,940.0625 L -573.03125,854.28125 L -588.00005,828.40625 z"
       style="fill:none;fill-opacity:1;stroke:#000000;stroke-width:6.25;stroke-miterlimit:4;stroke-dasharray:none;stroke-dashoffset:0;stroke-opacity:1" />
    <path
       id="path2733"
       d="M -397.59375,326.03125 L -397.59375,521 L -546.75,521 L -546.75,723.84375 L -218.53125,723.84375 L -218.53125,521 L -367.6875,521 L -367.6875,326.03125 L -397.59375,326.03125 z"
       style="fill:none;fill-opacity:1;stroke:#000000;stroke-width:6.25;stroke-miterlimit:4;stroke-dasharray:none;stroke-dashoffset:0;stroke-opacity:1" />
    <path
       id="path2735"
       d="M -58.46875,328.71875 L -87.375,336.46875 L -37.90625,521 L -187.21875,521 L -187.21875,723.84375 L 141,723.84375 L 141,521 L -6.9687497,521 L -58.46875,328.71875 z"
       style="fill:none;fill-opacity:1;stroke:#000000;stroke-width:6.25;stroke-miterlimit:4;stroke-dasharray:none;stroke-dashoffset:0;stroke-opacity:1" />
    <path
       id="path2737"
       d="M -106.40625,763.40625 L -132.28125,778.375 L -38.9375,940.0625 L -187.21875,940.0625 L -187.21875,1142.9062 L 141,1142.9062 L 141,940.0625 L -4.4062497,940.0625 L -106.40625,763.40625 z"
       style="fill:none;fill-opacity:1;stroke:#000000;stroke-width:6.25;stroke-miterlimit:4;stroke-dasharray:none;stroke-dashoffset:0;stroke-opacity:1" />
    <path
       id="path2739"
       d="M -508.15625,1209.9688 L -529.3125,1231.1251 L -401.3125,1359.1251 L -546.75,1359.1251 L -546.75,1561.9688 L -218.53125,1561.9688 L -218.53125,1359.1251 L -359,1359.1251 L -508.15625,1209.9688 z"
       style="fill:none;fill-opacity:1;stroke:#000000;stroke-width:6.25;stroke-miterlimit:4;stroke-dasharray:none;stroke-dashoffset:0;stroke-opacity:1" />
    <path
       id="path2741"
       d="M -896.34375,409.34375 L -911.3125,435.21875 L -762.75,521 L -901.25,521 L -901.25,723.84375 L -573.03125,723.84375 L -573.03125,521 L -702.9375,521 L -896.34375,409.34375 z"
       style="fill:none;fill-opacity:1;stroke:#000000;stroke-width:6.25;stroke-miterlimit:4;stroke-dasharray:none;stroke-dashoffset:0;stroke-opacity:1" />
  </g>
</svg>
