<?xml version="1.0" encoding="UTF-8"?>
<svg xmlns="http://www.w3.org/2000/svg" xmlns:xlink="http://www.w3.org/1999/xlink" width="750pt" height="3600pt" viewBox="0 0 750 3600" version="1.1">
<g id="surface1">
<path style="fill:none;stroke-width:0.01;stroke-linecap:butt;stroke-linejoin:miter;stroke:rgb(0%,0%,0%);stroke-opacity:1;stroke-miterlimit:10;" d="M 0.4925 0.415508 L 0.305469 0.3925 L 0.272461 0.268477 L 0.177461 0.0454687 L 0.119453 0.0754688 L 0.226484 0.259492 L 0.227461 0.3925 L 0.217461 0.454492 L 0.128477 0.444492 L 0.125469 0.500508 L 0.208477 0.511484 L 0.204453 0.5725 L 0.257461 0.723516 L 0.293477 0.954531 L 0.3875 0.937539 L 0.323477 0.723516 L 0.286484 0.586523 L 0.4925 0.606523 L 0.705508 0.630508 L 0.880547 0.614492 L 0.869531 0.546523 L 0.715508 0.549492 L 0.583516 0.500508 L 0.696523 0.4475 L 0.824531 0.448477 L 0.835547 0.380469 L 0.685508 0.369492 Z M 0.4925 0.415508 " transform="matrix(100,0,0,100,0,200)"/>
<path style="fill:none;stroke-width:0.01;stroke-linecap:butt;stroke-linejoin:miter;stroke:rgb(0%,0%,0%);stroke-opacity:1;stroke-miterlimit:10;" d="M 0.611523 0.370469 L 0.431484 0.363477 L 0.408477 0.285469 L 0.358477 0.116445 L 0.323477 0.132461 L 0.3675 0.271484 L 0.358477 0.3675 L 0.348477 0.425508 L 0.245469 0.419492 L 0.244492 0.480508 L 0.341484 0.489492 L 0.340469 0.551523 L 0.0454687 0.824531 L 0.485508 0.883555 L 0.560508 0.866523 L 0.448477 0.6725 L 0.4175 0.561523 L 0.611523 0.546523 L 0.791523 0.575508 L 0.946563 0.561523 L 0.938555 0.490508 L 0.819531 0.496484 L 0.691523 0.455508 L 0.805547 0.384492 L 0.941562 0.3975 L 0.954531 0.338477 L 0.803516 0.329492 Z M 0.611523 0.370469 " transform="matrix(100,0,0,100,150,200)"/>
<path style="fill:none;stroke-width:0.01;stroke-linecap:butt;stroke-linejoin:miter;stroke:rgb(0%,0%,0%);stroke-opacity:1;stroke-miterlimit:10;" d="M 0.538516 0.298477 L 0.369492 0.266484 L 0.414492 0.268477 L 0.5175 0.283477 L 0.539492 0.239492 L 0.388477 0.131445 L 0.287461 0.246484 L 0.280469 0.344492 L 0.101445 0.319492 L 0.0874609 0.436484 L 0.274492 0.454492 L 0.298477 0.553516 L 0.0454687 0.823516 L 0.436484 0.868555 L 0.515508 0.838516 L 0.423477 0.6475 L 0.386484 0.546523 L 0.538516 0.530508 L 0.768516 0.534492 L 0.954531 0.510508 L 0.937539 0.446484 L 0.775547 0.461484 L 0.641523 0.410508 L 0.781523 0.354492 L 0.923555 0.378477 L 0.939531 0.295469 L 0.775547 0.268477 Z M 0.538516 0.298477 " transform="matrix(100,0,0,100,300,200)"/>
<path style="fill:none;stroke-width:0.01;stroke-linecap:butt;stroke-linejoin:miter;stroke:rgb(0%,0%,0%);stroke-opacity:1;stroke-miterlimit:10;" d="M 0.521484 0.326484 L 0.345469 0.331484 L 0.294492 0.238477 L 0.176484 0.0454687 L 0.133477 0.0814453 L 0.256484 0.231484 L 0.268477 0.3475 L 0.264492 0.404492 L 0.168477 0.400508 L 0.164453 0.461484 L 0.262461 0.4625 L 0.275469 0.508516 L 0.310469 0.684531 L 0.3775 0.954531 L 0.4775 0.904531 L 0.391484 0.656523 L 0.346484 0.518516 L 0.521484 0.493516 L 0.706523 0.4825 L 0.853555 0.451484 L 0.838516 0.396484 L 0.721523 0.430508 L 0.596523 0.410508 L 0.713516 0.378477 L 0.847539 0.3975 L 0.866523 0.324492 L 0.718516 0.303477 Z M 0.521484 0.326484 " transform="matrix(100,0,0,100,450,200)"/>
<path style="fill:none;stroke-width:0.01;stroke-linecap:butt;stroke-linejoin:miter;stroke:rgb(0%,0%,0%);stroke-opacity:1;stroke-miterlimit:10;" d="M 0.511484 0.348477 L 0.339492 0.320469 L 0.331484 0.254492 L 0.3175 0.0994531 L 0.284492 0.103477 L 0.3075 0.238477 L 0.282461 0.309492 L 0.278477 0.4025 L 0.115469 0.399492 L 0.107461 0.500508 L 0.273477 0.498516 L 0.289492 0.5825 L 0.0454688 0.900547 L 0.489492 0.897539 L 0.559492 0.857539 L 0.4375 0.679531 L 0.379492 0.568516 L 0.511484 0.561523 L 0.724531 0.566523 L 0.880547 0.555508 L 0.871523 0.501484 L 0.729531 0.516484 L 0.603516 0.446484 L 0.753516 0.396484 L 0.940547 0.418477 L 0.954531 0.326484 L 0.751523 0.320469 Z M 0.511484 0.348477 " transform="matrix(100,0,0,100,600,200)"/>
<path style="fill:none;stroke-width:0.01;stroke-linecap:butt;stroke-linejoin:miter;stroke:rgb(0%,0%,0%);stroke-opacity:1;stroke-miterlimit:10;" d="M 0.4975 0.305469 L 0.262461 0.309492 L 0.222461 0.232461 L 0.128477 0.0454687 L 0.0794531 0.0774609 L 0.177461 0.212461 L 0.181484 0.318477 L 0.185469 0.379492 L 0.0724609 0.383477 L 0.0744531 0.453477 L 0.181484 0.4525 L 0.198477 0.515508 L 0.239492 0.6825 L 0.283477 0.954531 L 0.378477 0.918555 L 0.320469 0.663516 L 0.286484 0.526484 L 0.4975 0.5025 L 0.722539 0.519492 L 0.892539 0.513516 L 0.894531 0.469492 L 0.733516 0.468516 L 0.600508 0.393477 L 0.751523 0.318477 L 0.927539 0.311484 L 0.913555 0.226484 L 0.712539 0.241484 Z M 0.4975 0.305469 " transform="matrix(100,0,0,100,0,350)"/>
<path style="fill:none;stroke-width:0.01;stroke-linecap:butt;stroke-linejoin:miter;stroke:rgb(0%,0%,0%);stroke-opacity:1;stroke-miterlimit:10;" d="M 0.5275 0.4075 L 0.296484 0.409492 L 0.276484 0.306484 L 0.200469 0.0454687 L 0.134453 0.0844531 L 0.211484 0.280469 L 0.211484 0.4025 L 0.207461 0.475508 L 0.0984766 0.480508 L 0.102461 0.5525 L 0.205469 0.549492 L 0.218477 0.6125 L 0.270469 0.751523 L 0.379492 0.954531 L 0.448477 0.924531 L 0.350469 0.744531 L 0.302461 0.630508 L 0.5275 0.603516 L 0.736523 0.6175 L 0.901523 0.5925 L 0.888555 0.548516 L 0.743516 0.5525 L 0.6075 0.5025 L 0.704531 0.434492 L 0.839531 0.4375 L 0.823516 0.368477 L 0.697539 0.370469 Z M 0.5275 0.4075 " transform="matrix(100,0,0,100,150,350)"/>
<path style="fill:none;stroke-width:0.01;stroke-linecap:butt;stroke-linejoin:miter;stroke:rgb(0%,0%,0%);stroke-opacity:1;stroke-miterlimit:10;" d="M 0.523516 0.266484 L 0.314492 0.259492 L 0.371484 0.254492 L 0.515508 0.239492 L 0.535508 0.157461 L 0.287461 0.0774609 L 0.195469 0.258477 L 0.178477 0.3275 L 0.0464453 0.314492 L 0.0454687 0.404492 L 0.170469 0.406484 L 0.179453 0.479492 L 0.231484 0.650508 L 0.349492 0.922539 L 0.468516 0.920547 L 0.355469 0.669531 L 0.268477 0.495508 L 0.523516 0.4875 L 0.777539 0.484492 L 0.945547 0.444492 L 0.935547 0.379492 L 0.779531 0.4025 L 0.633516 0.370469 L 0.788516 0.281484 L 0.954531 0.290469 L 0.952539 0.196484 L 0.749531 0.216484 Z M 0.523516 0.266484 " transform="matrix(100,0,0,100,300,350)"/>
<path style="fill:none;stroke-width:0.01;stroke-linecap:butt;stroke-linejoin:miter;stroke:rgb(0%,0%,0%);stroke-opacity:1;stroke-miterlimit:10;" d="M 0.526484 0.3725 L 0.309492 0.374492 L 0.265469 0.276484 L 0.120469 0.0454687 L 0.0794531 0.0934766 L 0.204453 0.272461 L 0.223477 0.388477 L 0.213477 0.443477 L 0.0924609 0.438477 L 0.0924609 0.518516 L 0.206484 0.510508 L 0.224453 0.5725 L 0.242461 0.718516 L 0.250469 0.940547 L 0.348477 0.954531 L 0.328477 0.730508 L 0.315469 0.5925 L 0.526484 0.5625 L 0.735508 0.568516 L 0.910547 0.561523 L 0.920547 0.510508 L 0.756523 0.523516 L 0.6125 0.4575 L 0.715508 0.411484 L 0.866523 0.409492 L 0.879531 0.324492 L 0.725508 0.320469 Z M 0.526484 0.3725 " transform="matrix(100,0,0,100,450,350)"/>
<path style="fill:none;stroke-width:0.01;stroke-linecap:butt;stroke-linejoin:miter;stroke:rgb(0%,0%,0%);stroke-opacity:1;stroke-miterlimit:10;" d="M 0.613516 0.301484 L 0.464492 0.313477 L 0.513516 0.302461 L 0.620508 0.267461 L 0.628516 0.212461 L 0.435508 0.169453 L 0.380469 0.313477 L 0.373477 0.364492 L 0.281484 0.3525 L 0.276484 0.415508 L 0.365469 0.423477 L 0.371484 0.479492 L 0.0454688 0.713516 L 0.464492 0.830547 L 0.548516 0.810547 L 0.480508 0.611523 L 0.445508 0.488516 L 0.613516 0.464492 L 0.796523 0.463516 L 0.954531 0.469492 L 0.936562 0.413477 L 0.801523 0.4175 L 0.689531 0.3775 L 0.779531 0.318477 L 0.883555 0.3125 L 0.876523 0.254492 L 0.765508 0.256484 Z M 0.613516 0.301484 " transform="matrix(100,0,0,100,600,350)"/>
<path style="fill:none;stroke-width:0.01;stroke-linecap:butt;stroke-linejoin:miter;stroke:rgb(0%,0%,0%);stroke-opacity:1;stroke-miterlimit:10;" d="M 0.510508 0.287461 L 0.343477 0.265469 L 0.3325 0.192461 L 0.252461 0.0454688 L 0.220469 0.0634375 L 0.288477 0.193477 L 0.281484 0.271484 L 0.279492 0.351484 L 0.132461 0.356484 L 0.127461 0.454492 L 0.286484 0.444492 L 0.306484 0.518516 L 0.383477 0.691523 L 0.511484 0.954531 L 0.601523 0.907539 L 0.446484 0.648516 L 0.384492 0.505508 L 0.510508 0.478516 L 0.709531 0.484492 L 0.871523 0.443477 L 0.861523 0.3925 L 0.724531 0.4175 L 0.594492 0.379492 L 0.711523 0.292461 L 0.872539 0.289492 L 0.859531 0.201484 L 0.709531 0.225469 Z M 0.510508 0.287461 " transform="matrix(100,0,0,100,0,500)"/>
<path style="fill:none;stroke-width:0.01;stroke-linecap:butt;stroke-linejoin:miter;stroke:rgb(0%,0%,0%);stroke-opacity:1;stroke-miterlimit:10;" d="M 0.533516 0.4625 L 0.314492 0.4725 L 0.361484 0.471484 L 0.481484 0.461484 L 0.510508 0.410508 L 0.324492 0.319492 L 0.210469 0.469492 L 0.204453 0.528516 L 0.0714453 0.534492 L 0.0744531 0.628516 L 0.205469 0.6075 L 0.217461 0.674531 L 0.177461 0.5625 L 0.0454687 0.386484 L 0.0914453 0.315469 L 0.240469 0.548516 L 0.325469 0.669531 L 0.533516 0.651523 L 0.740508 0.6825 L 0.892539 0.684531 L 0.898555 0.6325 L 0.743516 0.624531 L 0.624531 0.5575 L 0.777539 0.509492 L 0.935547 0.536484 L 0.954531 0.435508 L 0.773516 0.425508 Z M 0.533516 0.4625 " transform="matrix(100,0,0,100,150,500)"/>
<path style="fill:none;stroke-width:0.01;stroke-linecap:butt;stroke-linejoin:miter;stroke:rgb(0%,0%,0%);stroke-opacity:1;stroke-miterlimit:10;" d="M 0.629531 0.253477 L 0.468516 0.260469 L 0.4375 0.319492 L 0.354492 0.4625 L 0.316484 0.448477 L 0.364492 0.309492 L 0.393477 0.257461 L 0.385508 0.3075 L 0.3075 0.308477 L 0.3075 0.356484 L 0.380469 0.360469 L 0.3875 0.4175 L 0.0454687 0.554492 L 0.4225 0.760508 L 0.491484 0.748516 L 0.470508 0.551523 L 0.464492 0.4325 L 0.629531 0.405508 L 0.794531 0.430508 L 0.942539 0.423477 L 0.954531 0.374492 L 0.821523 0.383477 L 0.699531 0.325469 L 0.797539 0.287461 L 0.916523 0.301484 L 0.916523 0.258477 L 0.801523 0.239492 Z M 0.629531 0.253477 " transform="matrix(100,0,0,100,300,500)"/>
<path style="fill:none;stroke-width:0.01;stroke-linecap:butt;stroke-linejoin:miter;stroke:rgb(0%,0%,0%);stroke-opacity:1;stroke-miterlimit:10;" d="M 0.506484 0.233477 L 0.333477 0.195469 L 0.378477 0.204453 L 0.476484 0.233477 L 0.514492 0.194453 L 0.366484 0.0674609 L 0.251484 0.166484 L 0.248477 0.265469 L 0.0724609 0.240469 L 0.0454688 0.346484 L 0.227461 0.379492 L 0.246484 0.488516 L 0.335469 0.638516 L 0.4775 0.932539 L 0.5975 0.874531 L 0.449492 0.605508 L 0.340469 0.466484 L 0.506484 0.4725 L 0.746523 0.458477 L 0.954531 0.413477 L 0.951563 0.346484 L 0.773516 0.385508 L 0.618516 0.338477 L 0.751523 0.241484 L 0.929531 0.215469 L 0.917539 0.109453 L 0.731523 0.145469 Z M 0.506484 0.233477 " transform="matrix(100,0,0,100,450,500)"/>
<path style="fill:none;stroke-width:0.01;stroke-linecap:butt;stroke-linejoin:miter;stroke:rgb(0%,0%,0%);stroke-opacity:1;stroke-miterlimit:10;" d="M 0.593516 0.324492 L 0.414492 0.328477 L 0.4575 0.323477 L 0.561523 0.325469 L 0.581523 0.284492 L 0.4125 0.200469 L 0.3175 0.313477 L 0.309492 0.3725 L 0.209453 0.364492 L 0.206484 0.4275 L 0.3075 0.433477 L 0.315469 0.493516 L 0.0454688 0.728516 L 0.420508 0.799531 L 0.490508 0.784531 L 0.4275 0.6125 L 0.388477 0.509492 L 0.593516 0.510508 L 0.794531 0.530508 L 0.954531 0.499492 L 0.951563 0.4425 L 0.820547 0.4475 L 0.676523 0.411484 L 0.792539 0.374492 L 0.916523 0.386484 L 0.915547 0.319492 L 0.777539 0.294492 Z M 0.593516 0.324492 " transform="matrix(100,0,0,100,600,500)"/>
<path style="fill:none;stroke-width:0.01;stroke-linecap:butt;stroke-linejoin:miter;stroke:rgb(0%,0%,0%);stroke-opacity:1;stroke-miterlimit:10;" d="M 0.495508 0.363477 L 0.256484 0.369492 L 0.214453 0.278477 L 0.0774609 0.0684375 L 0.0454688 0.106445 L 0.152461 0.262461 L 0.164453 0.389492 L 0.158477 0.460508 L 0.0464453 0.458477 L 0.0504687 0.524492 L 0.156484 0.5275 L 0.166484 0.5875 L 0.219453 0.725508 L 0.325469 0.931563 L 0.394492 0.912539 L 0.310469 0.703516 L 0.260469 0.589492 L 0.495508 0.586523 L 0.748516 0.606523 L 0.954531 0.571523 L 0.954531 0.499492 L 0.781523 0.515508 L 0.606523 0.463516 L 0.755508 0.375469 L 0.929531 0.370469 L 0.916523 0.282461 L 0.714531 0.278477 Z M 0.495508 0.363477 " transform="matrix(100,0,0,100,0,650)"/>
<path style="fill:none;stroke-width:0.01;stroke-linecap:butt;stroke-linejoin:miter;stroke:rgb(0%,0%,0%);stroke-opacity:1;stroke-miterlimit:10;" d="M 0.576523 0.365469 L 0.425508 0.316484 L 0.400508 0.252461 L 0.319492 0.0724609 L 0.285469 0.0864453 L 0.368477 0.235469 L 0.366484 0.313477 L 0.358477 0.399492 L 0.223477 0.400508 L 0.231484 0.494492 L 0.364492 0.4925 L 0.378477 0.578516 L 0.0454687 0.860547 L 0.524492 0.927539 L 0.601523 0.879531 L 0.5025 0.681523 L 0.4525 0.5675 L 0.576523 0.559492 L 0.785547 0.6075 L 0.948555 0.598516 L 0.937539 0.546523 L 0.794531 0.529492 L 0.6725 0.464492 L 0.813516 0.401484 L 0.954531 0.413477 L 0.952539 0.3425 L 0.789531 0.329492 Z M 0.576523 0.365469 " transform="matrix(100,0,0,100,150,650)"/>
<path style="fill:none;stroke-width:0.01;stroke-linecap:butt;stroke-linejoin:miter;stroke:rgb(0%,0%,0%);stroke-opacity:1;stroke-miterlimit:10;" d="M 0.528516 0.225469 L 0.296484 0.256484 L 0.356484 0.253477 L 0.494492 0.240469 L 0.510508 0.184453 L 0.276484 0.0914453 L 0.179453 0.245469 L 0.179453 0.310469 L 0.0454687 0.318477 L 0.0564453 0.4025 L 0.177461 0.390508 L 0.194453 0.469492 L 0.227461 0.6325 L 0.326484 0.908555 L 0.431484 0.893555 L 0.3475 0.638516 L 0.298477 0.474492 L 0.528516 0.436484 L 0.777539 0.451484 L 0.954531 0.429492 L 0.942539 0.350469 L 0.782539 0.369492 L 0.630508 0.320469 L 0.729531 0.261484 L 0.878555 0.246484 L 0.883555 0.176484 L 0.720508 0.175469 Z M 0.528516 0.225469 " transform="matrix(100,0,0,100,300,650)"/>
<path style="fill:none;stroke-width:0.01;stroke-linecap:butt;stroke-linejoin:miter;stroke:rgb(0%,0%,0%);stroke-opacity:1;stroke-miterlimit:10;" d="M 0.5025 0.340469 L 0.279492 0.3375 L 0.220469 0.252461 L 0.107461 0.0454688 L 0.0744531 0.0944531 L 0.182461 0.234492 L 0.191484 0.351484 L 0.180469 0.421484 L 0.0784766 0.404492 L 0.0704687 0.471484 L 0.168477 0.488516 L 0.167461 0.554492 L 0.212461 0.711523 L 0.279492 0.954531 L 0.384492 0.940547 L 0.291484 0.705508 L 0.266484 0.574492 L 0.5025 0.565508 L 0.720508 0.601523 L 0.929531 0.591523 L 0.925547 0.516484 L 0.751523 0.516484 L 0.6025 0.445508 L 0.735508 0.3775 L 0.883555 0.3875 L 0.905547 0.3275 L 0.724531 0.3075 Z M 0.5025 0.340469 " transform="matrix(100,0,0,100,450,650)"/>
<path style="fill:none;stroke-width:0.01;stroke-linecap:butt;stroke-linejoin:miter;stroke:rgb(0%,0%,0%);stroke-opacity:1;stroke-miterlimit:10;" d="M 0.564492 0.204453 L 0.4125 0.172461 L 0.368477 0.217461 L 0.279492 0.328477 L 0.246484 0.310469 L 0.309492 0.206484 L 0.341484 0.168477 L 0.336484 0.260469 L 0.193477 0.271484 L 0.194453 0.373477 L 0.339492 0.350469 L 0.351484 0.433477 L 0.0454688 0.832539 L 0.560508 0.815547 L 0.6475 0.779531 L 0.508516 0.555508 L 0.426484 0.423477 L 0.564492 0.414492 L 0.779531 0.4375 L 0.954531 0.420508 L 0.942539 0.353477 L 0.796523 0.356484 L 0.658516 0.297461 L 0.777539 0.245469 L 0.913555 0.247461 L 0.911523 0.167461 L 0.745508 0.168477 Z M 0.564492 0.204453 " transform="matrix(100,0,0,100,600,650)"/>
</g>
</svg>
