<?xml version="1.0" encoding="UTF-8"?>
<svg xmlns="http://www.w3.org/2000/svg" xmlns:xlink="http://www.w3.org/1999/xlink" width="750pt" height="3600pt" viewBox="0 0 750 3600" version="1.1">
<g id="surface1">
<path style="fill:none;stroke-width:0.01;stroke-linecap:butt;stroke-linejoin:miter;stroke:rgb(0%,0%,0%);stroke-opacity:1;stroke-miterlimit:10;" d="M 0.450508 0.406484 L 0.323477 0.308477 L 0.230469 0.353477 L 0.145469 0.192461 L 0.115469 0.220469 L 0.189453 0.334492 L 0.268477 0.270469 L 0.217461 0.343477 L 0.101445 0.296484 L 0.0454688 0.385508 L 0.182461 0.4375 L 0.141445 0.543516 L 0.274492 0.593516 L 0.156484 0.784531 L 0.197461 0.807539 L 0.284492 0.6725 L 0.248477 0.548516 L 0.450508 0.596523 L 0.717539 0.623516 L 0.953555 0.613516 L 0.942539 0.5225 L 0.717539 0.533516 L 0.528516 0.4975 L 0.665508 0.446484 L 0.850547 0.727539 L 0.954531 0.571523 L 0.724531 0.212461 Z M 0.450508 0.406484 " transform="matrix(100,0,0,100,0,200)"/>
<path style="fill:none;stroke-width:0.01;stroke-linecap:butt;stroke-linejoin:miter;stroke:rgb(0%,0%,0%);stroke-opacity:1;stroke-miterlimit:10;" d="M 0.450508 0.348477 L 0.316484 0.318477 L 0.3475 0.213477 L 0.4225 0.191484 L 0.4125 0.162461 L 0.302461 0.203477 L 0.220469 0.302461 L 0.209453 0.368477 L 0.0664453 0.379492 L 0.0454687 0.495508 L 0.214453 0.478516 L 0.221484 0.5875 L 0.257461 0.6725 L 0.241484 0.825547 L 0.288477 0.837539 L 0.311484 0.683516 L 0.297461 0.589492 L 0.450508 0.5675 L 0.706523 0.580508 L 0.922539 0.6225 L 0.937539 0.548516 L 0.745508 0.510508 L 0.574492 0.459492 L 0.745508 0.404492 L 0.878555 0.595508 L 0.954531 0.508516 L 0.788516 0.264492 Z M 0.450508 0.348477 " transform="matrix(100,0,0,100,150,200)"/>
<path style="fill:none;stroke-width:0.01;stroke-linecap:butt;stroke-linejoin:miter;stroke:rgb(0%,0%,0%);stroke-opacity:1;stroke-miterlimit:10;" d="M 0.521484 0.436484 L 0.298477 0.415508 L 0.424492 0.389492 L 0.610508 0.247461 L 0.570508 0.195469 L 0.408477 0.309492 L 0.200469 0.414492 L 0.179453 0.493516 L 0.0454687 0.515508 L 0.0534375 0.599492 L 0.183477 0.5725 L 0.192461 0.641523 L 0.3125 0.804531 L 0.0804688 0.654531 L 0.105469 0.564492 L 0.354492 0.724531 L 0.298477 0.664531 L 0.521484 0.6475 L 0.774531 0.613516 L 0.954531 0.585508 L 0.941563 0.521484 L 0.773516 0.5475 L 0.611523 0.529492 L 0.766523 0.500508 L 0.907539 0.515508 L 0.906523 0.435508 L 0.753516 0.440508 Z M 0.521484 0.436484 " transform="matrix(100,0,0,100,300,200)"/>
<path style="fill:none;stroke-width:0.01;stroke-linecap:butt;stroke-linejoin:miter;stroke:rgb(0%,0%,0%);stroke-opacity:1;stroke-miterlimit:10;" d="M 0.5975 0.411484 L 0.3825 0.396484 L 0.311484 0.268477 L 0.4325 0.506484 L 0.346484 0.5175 L 0.262461 0.324492 L 0.292461 0.404492 L 0.310469 0.475508 L 0.153477 0.464492 L 0.156484 0.541523 L 0.3075 0.541523 L 0.296484 0.606523 L 0.186484 0.668516 L 0.0954688 0.544492 L 0.0454688 0.570508 L 0.138477 0.743516 L 0.340469 0.654531 L 0.5975 0.605508 L 0.821523 0.595508 L 0.954531 0.578516 L 0.948555 0.521484 L 0.815547 0.5325 L 0.6675 0.5075 L 0.688516 0.3675 L 0.824531 0.408477 L 0.854531 0.324492 L 0.639531 0.256484 Z M 0.5975 0.411484 " transform="matrix(100,0,0,100,450,200)"/>
<path style="fill:none;stroke-width:0.01;stroke-linecap:butt;stroke-linejoin:miter;stroke:rgb(0%,0%,0%);stroke-opacity:1;stroke-miterlimit:10;" d="M 0.514492 0.519492 L 0.309492 0.494492 L 0.291484 0.351484 L 0.200469 0.130469 L 0.150469 0.148477 L 0.206484 0.359492 L 0.206484 0.481484 L 0.165469 0.544492 L 0.0454688 0.561523 L 0.0534375 0.633516 L 0.162461 0.639531 L 0.157461 0.711523 L 0.348477 0.869531 L 0.345469 0.598516 L 0.288477 0.5725 L 0.294492 0.745508 L 0.241484 0.704531 L 0.514492 0.730508 L 0.773516 0.728516 L 0.954531 0.718516 L 0.944531 0.643516 L 0.774531 0.648516 L 0.599492 0.6275 L 0.619531 0.476484 L 0.718516 0.431484 L 0.697539 0.385508 L 0.594492 0.448477 Z M 0.514492 0.519492 " transform="matrix(100,0,0,100,600,200)"/>
<path style="fill:none;stroke-width:0.01;stroke-linecap:butt;stroke-linejoin:miter;stroke:rgb(0%,0%,0%);stroke-opacity:1;stroke-miterlimit:10;" d="M 0.493516 0.530508 L 0.268477 0.531484 L 0.268477 0.396484 L 0.203477 0.144453 L 0.158477 0.149453 L 0.192461 0.3875 L 0.172461 0.508516 L 0.183477 0.5675 L 0.0454688 0.5975 L 0.0684375 0.674531 L 0.205469 0.648516 L 0.220469 0.690508 L 0.292461 0.855547 L 0.4975 0.797539 L 0.478516 0.744531 L 0.328477 0.791523 L 0.313477 0.707539 L 0.493516 0.726523 L 0.732539 0.756523 L 0.895547 0.776523 L 0.906523 0.701523 L 0.743516 0.688516 L 0.616523 0.638516 L 0.765508 0.605508 L 0.954531 0.530508 L 0.914531 0.4625 L 0.739531 0.504492 Z M 0.493516 0.530508 " transform="matrix(100,0,0,100,0,350)"/>
<path style="fill:none;stroke-width:0.01;stroke-linecap:butt;stroke-linejoin:miter;stroke:rgb(0%,0%,0%);stroke-opacity:1;stroke-miterlimit:10;" d="M 0.4875 0.4075 L 0.263477 0.3925 L 0.293477 0.300469 L 0.259492 0.118477 L 0.220469 0.124453 L 0.226484 0.288477 L 0.207461 0.3725 L 0.179453 0.446484 L 0.0664453 0.408477 L 0.0454687 0.490508 L 0.158477 0.511484 L 0.147461 0.584492 L 0.3075 0.881523 L 0.490508 0.508516 L 0.438477 0.438477 L 0.306484 0.698516 L 0.260469 0.6125 L 0.4875 0.6175 L 0.728516 0.580508 L 0.870547 0.5525 L 0.861523 0.4975 L 0.720508 0.520508 L 0.5775 0.4975 L 0.717539 0.471484 L 0.936562 0.524492 L 0.954531 0.4275 L 0.713516 0.408477 Z M 0.4875 0.4075 " transform="matrix(100,0,0,100,150,350)"/>
<path style="fill:none;stroke-width:0.01;stroke-linecap:butt;stroke-linejoin:miter;stroke:rgb(0%,0%,0%);stroke-opacity:1;stroke-miterlimit:10;" d="M 0.525508 0.448477 L 0.294492 0.4375 L 0.316484 0.354492 L 0.511484 0.405508 L 0.536484 0.3375 L 0.290469 0.265469 L 0.201484 0.4225 L 0.182461 0.506484 L 0.0534375 0.495508 L 0.0454687 0.5725 L 0.165469 0.580508 L 0.157461 0.673516 L 0.333477 0.748516 L 0.108477 0.754531 L 0.0764453 0.673516 L 0.331484 0.673516 L 0.254492 0.6425 L 0.525508 0.666523 L 0.780547 0.6275 L 0.954531 0.564492 L 0.932539 0.495508 L 0.765508 0.559492 L 0.609492 0.546523 L 0.766523 0.481484 L 0.794531 0.712539 L 0.949531 0.666523 L 0.816523 0.245469 Z M 0.525508 0.448477 " transform="matrix(100,0,0,100,300,350)"/>
<path style="fill:none;stroke-width:0.01;stroke-linecap:butt;stroke-linejoin:miter;stroke:rgb(0%,0%,0%);stroke-opacity:1;stroke-miterlimit:10;" d="M 0.466484 0.353477 L 0.284492 0.350469 L 0.296484 0.283477 L 0.403477 0.388477 L 0.439492 0.3575 L 0.275469 0.213477 L 0.201484 0.344492 L 0.176484 0.405508 L 0.0644531 0.368477 L 0.0454688 0.481484 L 0.175469 0.488516 L 0.179453 0.533516 L 0.195469 0.6275 L 0.100469 0.755508 L 0.145469 0.786523 L 0.244492 0.650508 L 0.268477 0.531484 L 0.466484 0.534492 L 0.710508 0.576523 L 0.885547 0.556523 L 0.876523 0.495508 L 0.710508 0.5025 L 0.551523 0.450508 L 0.710508 0.396484 L 0.954531 0.393477 L 0.928555 0.257461 L 0.6875 0.315469 Z M 0.466484 0.353477 " transform="matrix(100,0,0,100,450,350)"/>
<path style="fill:none;stroke-width:0.01;stroke-linecap:butt;stroke-linejoin:miter;stroke:rgb(0%,0%,0%);stroke-opacity:1;stroke-miterlimit:10;" d="M 0.4675 0.448477 L 0.265469 0.433477 L 0.278477 0.353477 L 0.257461 0.204453 L 0.219453 0.210469 L 0.228477 0.341484 L 0.180469 0.440508 L 0.180469 0.501484 L 0.0454688 0.509492 L 0.0564453 0.5875 L 0.171484 0.569492 L 0.175469 0.639531 L 0.257461 0.795547 L 0.444492 0.684531 L 0.421484 0.6375 L 0.287461 0.728516 L 0.267461 0.644531 L 0.4675 0.6475 L 0.769531 0.673516 L 0.938555 0.688516 L 0.954531 0.613516 L 0.774531 0.606523 L 0.591523 0.538516 L 0.714531 0.509492 L 0.877539 0.5025 L 0.874531 0.423477 L 0.715508 0.445508 Z M 0.4675 0.448477 " transform="matrix(100,0,0,100,600,350)"/>
<path style="fill:none;stroke-width:0.01;stroke-linecap:butt;stroke-linejoin:miter;stroke:rgb(0%,0%,0%);stroke-opacity:1;stroke-miterlimit:10;" d="M 0.560508 0.409492 L 0.3425 0.381484 L 0.328477 0.3125 L 0.228477 0.197461 L 0.206484 0.213477 L 0.278477 0.326484 L 0.297461 0.3875 L 0.281484 0.448477 L 0.189453 0.406484 L 0.161484 0.466484 L 0.251484 0.5075 L 0.249492 0.576523 L 0.207461 0.663516 L 0.0454688 0.734531 L 0.0754688 0.802539 L 0.249492 0.709531 L 0.341484 0.6025 L 0.560508 0.5925 L 0.704531 0.731523 L 0.878555 0.664531 L 0.874531 0.6275 L 0.749531 0.6275 L 0.676523 0.490508 L 0.795547 0.439492 L 0.954531 0.421484 L 0.949531 0.353477 L 0.794531 0.378477 Z M 0.560508 0.409492 " transform="matrix(100,0,0,100,0,500)"/>
<path style="fill:none;stroke-width:0.01;stroke-linecap:butt;stroke-linejoin:miter;stroke:rgb(0%,0%,0%);stroke-opacity:1;stroke-miterlimit:10;" d="M 0.525508 0.3475 L 0.311484 0.338477 L 0.413477 0.301484 L 0.5525 0.3225 L 0.555508 0.278477 L 0.3625 0.255469 L 0.217461 0.323477 L 0.203477 0.3875 L 0.0654687 0.365469 L 0.0454687 0.459492 L 0.181484 0.470508 L 0.202461 0.561523 L 0.4225 0.744531 L 0.4725 0.4025 L 0.389492 0.3675 L 0.366484 0.599492 L 0.310469 0.546523 L 0.525508 0.548516 L 0.598516 0.636523 L 0.730508 0.585508 L 0.733516 0.5525 L 0.6375 0.5525 L 0.618516 0.445508 L 0.775547 0.3825 L 0.954531 0.381484 L 0.938555 0.273477 L 0.744531 0.313477 Z M 0.525508 0.3475 " transform="matrix(100,0,0,100,150,500)"/>
<path style="fill:none;stroke-width:0.01;stroke-linecap:butt;stroke-linejoin:miter;stroke:rgb(0%,0%,0%);stroke-opacity:1;stroke-miterlimit:10;" d="M 0.441484 0.355469 L 0.223477 0.378477 L 0.222461 0.311484 L 0.403477 0.313477 L 0.394492 0.253477 L 0.188477 0.244492 L 0.136445 0.385508 L 0.133477 0.4525 L 0.0454687 0.470508 L 0.0554688 0.521484 L 0.135469 0.523516 L 0.139453 0.5925 L 0.259492 0.755508 L 0.485508 0.601523 L 0.446484 0.523516 L 0.284492 0.665508 L 0.248477 0.578516 L 0.441484 0.553516 L 0.703516 0.5325 L 0.954531 0.415508 L 0.930547 0.3425 L 0.707539 0.441484 L 0.540508 0.443477 L 0.655508 0.386484 L 0.831523 0.3975 L 0.830547 0.325469 L 0.659531 0.329492 Z M 0.441484 0.355469 " transform="matrix(100,0,0,100,300,500)"/>
<path style="fill:none;stroke-width:0.01;stroke-linecap:butt;stroke-linejoin:miter;stroke:rgb(0%,0%,0%);stroke-opacity:1;stroke-miterlimit:10;" d="M 0.4375 0.438477 L 0.256484 0.420508 L 0.236484 0.304492 L 0.142461 0.158477 L 0.106445 0.174453 L 0.172461 0.311484 L 0.175469 0.416484 L 0.160469 0.4775 L 0.0454688 0.496484 L 0.0544531 0.5675 L 0.163477 0.541523 L 0.164453 0.606523 L 0.125469 0.688516 L 0.0564453 0.806523 L 0.0934766 0.841523 L 0.165469 0.729531 L 0.244492 0.626523 L 0.4375 0.6225 L 0.640508 0.628516 L 0.782539 0.641523 L 0.779531 0.589492 L 0.6525 0.579492 L 0.543516 0.533516 L 0.717539 0.484492 L 0.954531 0.444492 L 0.939531 0.351484 L 0.714531 0.405508 Z M 0.4375 0.438477 " transform="matrix(100,0,0,100,450,500)"/>
<path style="fill:none;stroke-width:0.01;stroke-linecap:butt;stroke-linejoin:miter;stroke:rgb(0%,0%,0%);stroke-opacity:1;stroke-miterlimit:10;" d="M 0.459492 0.446484 L 0.274492 0.4575 L 0.287461 0.388477 L 0.360469 0.463516 L 0.381484 0.444492 L 0.275469 0.330469 L 0.199453 0.459492 L 0.177461 0.5225 L 0.0454688 0.563516 L 0.0804688 0.629531 L 0.184453 0.5875 L 0.191484 0.645508 L 0.229492 0.563516 L 0.401484 0.643516 L 0.428477 0.5875 L 0.234492 0.501484 L 0.282461 0.649531 L 0.459492 0.620508 L 0.670508 0.634531 L 0.841523 0.669531 L 0.853555 0.615508 L 0.702539 0.586523 L 0.5625 0.533516 L 0.696523 0.490508 L 0.954531 0.463516 L 0.900547 0.3475 L 0.6725 0.420508 Z M 0.459492 0.446484 " transform="matrix(100,0,0,100,600,500)"/>
<path style="fill:none;stroke-width:0.01;stroke-linecap:butt;stroke-linejoin:miter;stroke:rgb(0%,0%,0%);stroke-opacity:1;stroke-miterlimit:10;" d="M 0.443477 0.420508 L 0.313477 0.3825 L 0.239492 0.476484 L 0.176484 0.605508 L 0.144453 0.5875 L 0.194453 0.475508 L 0.243477 0.3725 L 0.221484 0.451484 L 0.0454688 0.451484 L 0.0464453 0.548516 L 0.222461 0.563516 L 0.233477 0.6275 L 0.230469 0.551523 L 0.360469 0.600508 L 0.388477 0.5575 L 0.273477 0.5325 L 0.305469 0.626523 L 0.443477 0.605508 L 0.6875 0.594492 L 0.954531 0.565508 L 0.942539 0.476484 L 0.702539 0.520508 L 0.545508 0.509492 L 0.678516 0.464492 L 0.844531 0.445508 L 0.825547 0.373477 L 0.6625 0.409492 Z M 0.443477 0.420508 " transform="matrix(100,0,0,100,0,650)"/>
<path style="fill:none;stroke-width:0.01;stroke-linecap:butt;stroke-linejoin:miter;stroke:rgb(0%,0%,0%);stroke-opacity:1;stroke-miterlimit:10;" d="M 0.494492 0.511484 L 0.266484 0.520508 L 0.233477 0.451484 L 0.4775 0.358477 L 0.4375 0.267461 L 0.158477 0.3925 L 0.159453 0.518516 L 0.149453 0.596523 L 0.0534375 0.585508 L 0.0454687 0.646523 L 0.143477 0.666523 L 0.144453 0.732539 L 0.165469 0.694531 L 0.233477 0.726523 L 0.245469 0.705508 L 0.166484 0.663516 L 0.228477 0.716523 L 0.494492 0.712539 L 0.749531 0.710508 L 0.954531 0.702539 L 0.941562 0.620508 L 0.745508 0.621523 L 0.581523 0.604492 L 0.705508 0.560508 L 0.830547 0.570508 L 0.836523 0.504492 L 0.697539 0.505508 Z M 0.494492 0.511484 " transform="matrix(100,0,0,100,150,650)"/>
<path style="fill:none;stroke-width:0.01;stroke-linecap:butt;stroke-linejoin:miter;stroke:rgb(0%,0%,0%);stroke-opacity:1;stroke-miterlimit:10;" d="M 0.586523 0.436484 L 0.365469 0.406484 L 0.353477 0.272461 L 0.256484 0.0454688 L 0.211484 0.0804688 L 0.274492 0.273477 L 0.268477 0.3975 L 0.245469 0.466484 L 0.132461 0.470508 L 0.129453 0.533516 L 0.240469 0.5425 L 0.236484 0.620508 L 0.289492 0.749531 L 0.466484 0.954531 L 0.5175 0.895547 L 0.3725 0.770508 L 0.3625 0.6175 L 0.586523 0.640508 L 0.711523 0.730508 L 0.870547 0.671523 L 0.863555 0.628516 L 0.753516 0.6425 L 0.670508 0.525508 L 0.720508 0.363477 L 0.775547 0.4525 L 0.839531 0.393477 L 0.708516 0.250469 Z M 0.586523 0.436484 " transform="matrix(100,0,0,100,300,650)"/>
<path style="fill:none;stroke-width:0.01;stroke-linecap:butt;stroke-linejoin:miter;stroke:rgb(0%,0%,0%);stroke-opacity:1;stroke-miterlimit:10;" d="M 0.470508 0.426484 L 0.253477 0.420508 L 0.270469 0.324492 L 0.296484 0.168477 L 0.259492 0.161484 L 0.217461 0.293477 L 0.152461 0.419492 L 0.144453 0.485508 L 0.0484375 0.481484 L 0.0454688 0.539492 L 0.132461 0.564492 L 0.133477 0.636523 L 0.257461 0.702539 L 0.355469 0.838516 L 0.3975 0.816523 L 0.3125 0.675508 L 0.218477 0.626523 L 0.470508 0.641523 L 0.549492 0.713516 L 0.752539 0.684531 L 0.737539 0.5975 L 0.5775 0.6225 L 0.5525 0.5375 L 0.729531 0.4875 L 0.762539 0.744531 L 0.954531 0.704531 L 0.820547 0.205469 Z M 0.470508 0.426484 " transform="matrix(100,0,0,100,450,650)"/>
<path style="fill:none;stroke-width:0.01;stroke-linecap:butt;stroke-linejoin:miter;stroke:rgb(0%,0%,0%);stroke-opacity:1;stroke-miterlimit:10;" d="M 0.560508 0.4425 L 0.3525 0.419492 L 0.3325 0.3575 L 0.233477 0.265469 L 0.212461 0.289492 L 0.290469 0.376484 L 0.308477 0.429492 L 0.299492 0.483516 L 0.198477 0.4825 L 0.194453 0.539492 L 0.295469 0.5475 L 0.299492 0.615508 L 0.260469 0.731523 L 0.0784766 0.613516 L 0.0454688 0.661523 L 0.192461 0.734531 L 0.346484 0.6575 L 0.560508 0.609492 L 0.739531 0.613516 L 0.858555 0.631523 L 0.864531 0.583516 L 0.750508 0.561523 L 0.631523 0.523516 L 0.762539 0.511484 L 0.948555 0.533516 L 0.954531 0.460508 L 0.776523 0.450508 Z M 0.560508 0.4425 " transform="matrix(100,0,0,100,600,650)"/>
</g>
</svg>
