<?xml version="1.0" encoding="UTF-8"?>
<svg xmlns="http://www.w3.org/2000/svg" xmlns:xlink="http://www.w3.org/1999/xlink" width="750pt" height="3600pt" viewBox="0 0 750 3600" version="1.1">
<g id="surface1">
<path style="fill:none;stroke-width:0.01;stroke-linecap:butt;stroke-linejoin:miter;stroke:rgb(0%,0%,0%);stroke-opacity:1;stroke-miterlimit:10;" d="M 0.511484 0.4175 L 0.309492 0.396484 L 0.390508 0.358477 L 0.503516 0.251484 L 0.476484 0.219453 L 0.373477 0.306484 L 0.235469 0.4125 L 0.243477 0.465508 L 0.172461 0.455508 L 0.172461 0.5025 L 0.240469 0.511484 L 0.236484 0.559492 L 0.181484 0.628516 L 0.0454688 0.731523 L 0.0704687 0.780547 L 0.221484 0.678516 L 0.310469 0.584492 L 0.511484 0.600508 L 0.741523 0.604492 L 0.916523 0.719531 L 0.954531 0.653516 L 0.775547 0.5375 L 0.595508 0.498516 L 0.689531 0.468516 L 0.828516 0.496484 L 0.838516 0.443477 L 0.697539 0.418477 Z M 0.511484 0.4175 " transform="matrix(100,0,0,100,0,200)"/>
<path style="fill:none;stroke-width:0.01;stroke-linecap:butt;stroke-linejoin:miter;stroke:rgb(0%,0%,0%);stroke-opacity:1;stroke-miterlimit:10;" d="M 0.589492 0.395508 L 0.4275 0.373477 L 0.534492 0.279492 L 0.356484 0.0454687 L 0.305469 0.0964453 L 0.418477 0.213477 L 0.300469 0.339492 L 0.286484 0.4375 L 0.0584375 0.485508 L 0.0804688 0.618516 L 0.308477 0.5825 L 0.315469 0.717539 L 0.353477 0.828516 L 0.4125 0.954531 L 0.374492 0.950547 L 0.4125 0.846523 L 0.416484 0.727539 L 0.589492 0.724531 L 0.696523 0.850547 L 0.940547 0.770508 L 0.941562 0.698516 L 0.759531 0.709531 L 0.718516 0.560508 L 0.752539 0.324492 L 0.877539 0.264492 L 0.847539 0.209453 L 0.718516 0.286484 Z M 0.589492 0.395508 " transform="matrix(100,0,0,100,150,200)"/>
<path style="fill:none;stroke-width:0.01;stroke-linecap:butt;stroke-linejoin:miter;stroke:rgb(0%,0%,0%);stroke-opacity:1;stroke-miterlimit:10;" d="M 0.530508 0.405508 L 0.314492 0.399492 L 0.273477 0.306484 L 0.0674609 0.175469 L 0.0454687 0.216484 L 0.203477 0.345469 L 0.241484 0.421484 L 0.244492 0.486484 L 0.0904687 0.461484 L 0.0894531 0.565508 L 0.233477 0.571523 L 0.241484 0.611523 L 0.305469 0.695508 L 0.383477 0.819531 L 0.3475 0.824531 L 0.364492 0.703516 L 0.343477 0.600508 L 0.530508 0.573516 L 0.749531 0.566523 L 0.954531 0.556523 L 0.946563 0.495508 L 0.774531 0.505508 L 0.628516 0.4825 L 0.740508 0.440508 L 0.868555 0.4725 L 0.880547 0.401484 L 0.734531 0.389492 Z M 0.530508 0.405508 " transform="matrix(100,0,0,100,300,200)"/>
<path style="fill:none;stroke-width:0.01;stroke-linecap:butt;stroke-linejoin:miter;stroke:rgb(0%,0%,0%);stroke-opacity:1;stroke-miterlimit:10;" d="M 0.406484 0.433477 L 0.249492 0.448477 L 0.253477 0.379492 L 0.231484 0.274492 L 0.267461 0.271484 L 0.278477 0.364492 L 0.173477 0.459492 L 0.168477 0.514492 L 0.0454688 0.538516 L 0.0614453 0.611523 L 0.179453 0.588516 L 0.195469 0.659531 L 0.247461 0.615508 L 0.361484 0.660508 L 0.374492 0.614492 L 0.253477 0.568516 L 0.269492 0.668516 L 0.406484 0.655508 L 0.650508 0.693516 L 0.820547 0.728516 L 0.828516 0.666523 L 0.669531 0.618516 L 0.504492 0.551523 L 0.706523 0.5375 L 0.949531 0.548516 L 0.954531 0.445508 L 0.725508 0.448477 Z M 0.406484 0.433477 " transform="matrix(100,0,0,100,450,200)"/>
<path style="fill:none;stroke-width:0.01;stroke-linecap:butt;stroke-linejoin:miter;stroke:rgb(0%,0%,0%);stroke-opacity:1;stroke-miterlimit:10;" d="M 0.744531 0.804531 L 0.954531 0.658516 L 0.653516 0.443477 L 0.114453 0.194453 L 0.0454688 0.304492 L 0.523516 0.605508 L 0.743516 0.804531 L 0.742539 0.804531 L 0.742539 0.805547 L 0.743516 0.804531 L 0.745508 0.804531 L 0.744531 0.804531 L 0.745508 0.804531 Z M 0.744531 0.804531 " transform="matrix(100,0,0,100,600,200)"/>
<path style="fill:none;stroke-width:0.01;stroke-linecap:butt;stroke-linejoin:miter;stroke:rgb(0%,0%,0%);stroke-opacity:1;stroke-miterlimit:10;" d="M 0.4625 0.388477 L 0.256484 0.380469 L 0.246484 0.318477 L 0.0654688 0.403477 L 0.0454688 0.3575 L 0.199453 0.271484 L 0.187461 0.3575 L 0.173477 0.434492 L 0.0784766 0.410508 L 0.0484375 0.495508 L 0.161484 0.511484 L 0.151484 0.581523 L 0.272461 0.728516 L 0.481484 0.6325 L 0.449492 0.579492 L 0.305469 0.663516 L 0.259492 0.594492 L 0.4625 0.598516 L 0.733516 0.6125 L 0.922539 0.613516 L 0.922539 0.546523 L 0.761523 0.548516 L 0.5925 0.4975 L 0.754531 0.4575 L 0.954531 0.399492 L 0.941562 0.309492 L 0.731523 0.349492 Z M 0.4625 0.388477 " transform="matrix(100,0,0,100,0,350)"/>
<path style="fill:none;stroke-width:0.01;stroke-linecap:butt;stroke-linejoin:miter;stroke:rgb(0%,0%,0%);stroke-opacity:1;stroke-miterlimit:10;" d="M 0.618516 0.411484 L 0.341484 0.406484 L 0.314492 0.248477 L 0.219453 0.0454687 L 0.172461 0.0674609 L 0.231484 0.255469 L 0.228477 0.384492 L 0.202461 0.4725 L 0.104453 0.461484 L 0.0744531 0.549492 L 0.196484 0.555508 L 0.187461 0.631523 L 0.189453 0.805547 L 0.3225 0.954531 L 0.355469 0.917539 L 0.254492 0.819531 L 0.3175 0.641523 L 0.618516 0.653516 L 0.718516 0.761523 L 0.907539 0.6575 L 0.889531 0.6075 L 0.761523 0.6425 L 0.710508 0.5175 L 0.721523 0.360469 L 0.894531 0.415508 L 0.925547 0.314492 L 0.666523 0.245469 Z M 0.618516 0.411484 " transform="matrix(100,0,0,100,150,350)"/>
<path style="fill:none;stroke-width:0.01;stroke-linecap:butt;stroke-linejoin:miter;stroke:rgb(0%,0%,0%);stroke-opacity:1;stroke-miterlimit:10;" d="M 0.471484 0.514492 L 0.268477 0.468516 L 0.231484 0.381484 L 0.0774609 0.248477 L 0.0454687 0.276484 L 0.171484 0.413477 L 0.207461 0.481484 L 0.201484 0.540508 L 0.123477 0.540508 L 0.125469 0.585508 L 0.196484 0.600508 L 0.186484 0.6625 L 0.255469 0.589492 L 0.428477 0.588516 L 0.4375 0.530508 L 0.256484 0.5225 L 0.276484 0.674531 L 0.471484 0.684531 L 0.533516 0.751523 L 0.650508 0.695508 L 0.6475 0.665508 L 0.5575 0.683516 L 0.546523 0.599492 L 0.708516 0.534492 L 0.954531 0.539492 L 0.953555 0.430508 L 0.688516 0.4525 Z M 0.471484 0.514492 " transform="matrix(100,0,0,100,300,350)"/>
<path style="fill:none;stroke-width:0.01;stroke-linecap:butt;stroke-linejoin:miter;stroke:rgb(0%,0%,0%);stroke-opacity:1;stroke-miterlimit:10;" d="M 0.461484 0.485508 L 0.270469 0.4725 L 0.282461 0.395508 L 0.479492 0.424492 L 0.485508 0.370469 L 0.251484 0.3175 L 0.180469 0.468516 L 0.169453 0.526484 L 0.0594531 0.498516 L 0.0454688 0.575508 L 0.156484 0.594492 L 0.155469 0.665508 L 0.210469 0.571523 L 0.328477 0.6275 L 0.366484 0.568516 L 0.211484 0.501484 L 0.256484 0.668516 L 0.461484 0.678516 L 0.707539 0.6825 L 0.873555 0.6825 L 0.881523 0.625508 L 0.729531 0.616523 L 0.576523 0.583516 L 0.711523 0.5225 L 0.954531 0.506484 L 0.923555 0.383477 L 0.706523 0.445508 Z M 0.461484 0.485508 " transform="matrix(100,0,0,100,450,350)"/>
<path style="fill:none;stroke-width:0.01;stroke-linecap:butt;stroke-linejoin:miter;stroke:rgb(0%,0%,0%);stroke-opacity:1;stroke-miterlimit:10;" d="M 0.544492 0.608516 L 0.344492 0.6025 L 0.288477 0.393477 L 0.105469 0.132461 L 0.0454688 0.182461 L 0.188477 0.418477 L 0.200469 0.5875 L 0.205469 0.6625 L 0.0894531 0.644531 L 0.0704687 0.742539 L 0.220469 0.756523 L 0.236484 0.810547 L 0.300469 0.744531 L 0.460508 0.735508 L 0.468516 0.680508 L 0.301484 0.680508 L 0.339492 0.817539 L 0.544492 0.813516 L 0.783516 0.822539 L 0.943555 0.867539 L 0.954531 0.801523 L 0.794531 0.749531 L 0.629531 0.711523 L 0.751523 0.698516 L 0.914531 0.706523 L 0.908555 0.6375 L 0.746523 0.638516 Z M 0.544492 0.608516 " transform="matrix(100,0,0,100,600,350)"/>
<path style="fill:none;stroke-width:0.01;stroke-linecap:butt;stroke-linejoin:miter;stroke:rgb(0%,0%,0%);stroke-opacity:1;stroke-miterlimit:10;" d="M 0.619531 0.280469 L 0.3225 0.275469 L 0.366484 0.202461 L 0.420508 0.0574609 L 0.378477 0.0454688 L 0.321484 0.168477 L 0.243477 0.251484 L 0.238477 0.3475 L 0.129453 0.299492 L 0.0864453 0.398477 L 0.211484 0.430508 L 0.224453 0.539492 L 0.383477 0.751523 L 0.595508 0.954531 L 0.693516 0.869531 L 0.424492 0.646523 L 0.368477 0.5325 L 0.619531 0.508516 L 0.750508 0.6125 L 0.913555 0.538516 L 0.909531 0.495508 L 0.790547 0.509492 L 0.704531 0.3775 L 0.751523 0.214453 L 0.799531 0.300469 L 0.862539 0.262461 L 0.754531 0.107461 Z M 0.619531 0.280469 " transform="matrix(100,0,0,100,0,500)"/>
<path style="fill:none;stroke-width:0.01;stroke-linecap:butt;stroke-linejoin:miter;stroke:rgb(0%,0%,0%);stroke-opacity:1;stroke-miterlimit:10;" d="M 0.471484 0.3325 L 0.280469 0.343477 L 0.282461 0.276484 L 0.470508 0.294492 L 0.4775 0.213477 L 0.250469 0.204453 L 0.197461 0.359492 L 0.181484 0.419492 L 0.0454687 0.4375 L 0.0624609 0.503516 L 0.174453 0.485508 L 0.173477 0.549492 L 0.167461 0.674531 L 0.104453 0.775547 L 0.137461 0.795547 L 0.212461 0.689531 L 0.277461 0.560508 L 0.471484 0.553516 L 0.735508 0.550508 L 0.895547 0.528516 L 0.883555 0.465508 L 0.729531 0.4825 L 0.554492 0.4475 L 0.750508 0.388477 L 0.908555 0.4825 L 0.954531 0.3925 L 0.753516 0.297461 Z M 0.471484 0.3325 " transform="matrix(100,0,0,100,150,500)"/>
<path style="fill:none;stroke-width:0.01;stroke-linecap:butt;stroke-linejoin:miter;stroke:rgb(0%,0%,0%);stroke-opacity:1;stroke-miterlimit:10;" d="M 0.953555 0.508516 L 0.613516 0.379492 L 0.479492 0.624531 L 0.233477 0.0684375 L 0.0454687 0.129453 L 0.458477 0.931563 L 0.952539 0.508516 L 0.951563 0.508516 L 0.951563 0.509492 L 0.952539 0.509492 L 0.952539 0.510508 L 0.952539 0.509492 L 0.954531 0.509492 L 0.953555 0.509492 L 0.953555 0.508516 L 0.954531 0.508516 L 0.953555 0.5075 Z M 0.953555 0.508516 " transform="matrix(100,0,0,100,300,500)"/>
<path style="fill:none;stroke-width:0.01;stroke-linecap:butt;stroke-linejoin:miter;stroke:rgb(0%,0%,0%);stroke-opacity:1;stroke-miterlimit:10;" d="M 0.4275 0.378477 L 0.238477 0.381484 L 0.296484 0.310469 L 0.305469 0.179453 L 0.275469 0.163477 L 0.222461 0.277461 L 0.157461 0.3675 L 0.157461 0.435508 L 0.0464453 0.433477 L 0.0454688 0.493516 L 0.152461 0.500508 L 0.150469 0.573516 L 0.197461 0.665508 L 0.117461 0.804531 L 0.189453 0.836523 L 0.259492 0.683516 L 0.245469 0.568516 L 0.4275 0.5575 L 0.674531 0.618516 L 0.954531 0.664531 L 0.945547 0.534492 L 0.728516 0.554492 L 0.543516 0.455508 L 0.663516 0.429492 L 0.842539 0.419492 L 0.837539 0.350469 L 0.669531 0.365469 Z M 0.4275 0.378477 " transform="matrix(100,0,0,100,450,500)"/>
<path style="fill:none;stroke-width:0.01;stroke-linecap:butt;stroke-linejoin:miter;stroke:rgb(0%,0%,0%);stroke-opacity:1;stroke-miterlimit:10;" d="M 0.578516 0.252461 L 0.3225 0.293477 L 0.334492 0.204453 L 0.4275 0.288477 L 0.4425 0.276484 L 0.366484 0.186484 L 0.213477 0.299492 L 0.219453 0.388477 L 0.0454688 0.424492 L 0.0644531 0.5125 L 0.222461 0.483516 L 0.263477 0.5925 L 0.311484 0.708516 L 0.225469 0.882539 L 0.298477 0.919531 L 0.379492 0.724531 L 0.369492 0.595508 L 0.578516 0.584492 L 0.709531 0.723516 L 0.954531 0.5775 L 0.926523 0.521484 L 0.745508 0.570508 L 0.702539 0.4125 L 0.739531 0.197461 L 0.846523 0.141445 L 0.818516 0.0804688 L 0.702539 0.153477 Z M 0.578516 0.252461 " transform="matrix(100,0,0,100,600,500)"/>
<path style="fill:none;stroke-width:0.01;stroke-linecap:butt;stroke-linejoin:miter;stroke:rgb(0%,0%,0%);stroke-opacity:1;stroke-miterlimit:10;" d="M 0.363477 0.410508 L 0.204453 0.449492 L 0.210469 0.371484 L 0.217461 0.263477 L 0.245469 0.270469 L 0.239492 0.359492 L 0.119453 0.458477 L 0.122461 0.516484 L 0.0454688 0.554492 L 0.0674609 0.599492 L 0.142461 0.579492 L 0.164453 0.643516 L 0.242461 0.736523 L 0.3875 0.663516 L 0.368477 0.619531 L 0.263477 0.691523 L 0.238477 0.634531 L 0.363477 0.604492 L 0.631523 0.6625 L 0.954531 0.6775 L 0.949531 0.5725 L 0.670508 0.5825 L 0.484492 0.504492 L 0.621523 0.476484 L 0.822539 0.443477 L 0.804531 0.359492 L 0.618516 0.403477 Z M 0.363477 0.410508 " transform="matrix(100,0,0,100,0,650)"/>
<path style="fill:none;stroke-width:0.01;stroke-linecap:butt;stroke-linejoin:miter;stroke:rgb(0%,0%,0%);stroke-opacity:1;stroke-miterlimit:10;" d="M 0.4825 0.371484 L 0.242461 0.404492 L 0.256484 0.3225 L 0.4825 0.351484 L 0.490508 0.270469 L 0.222461 0.247461 L 0.144453 0.401484 L 0.140469 0.479492 L 0.0454687 0.489492 L 0.0564453 0.543516 L 0.137461 0.555508 L 0.141445 0.624531 L 0.269492 0.730508 L 0.424492 0.752539 L 0.4325 0.723516 L 0.318477 0.698516 L 0.219453 0.6225 L 0.4825 0.5875 L 0.748516 0.529492 L 0.954531 0.451484 L 0.917539 0.378477 L 0.754531 0.454492 L 0.573516 0.461484 L 0.713516 0.4125 L 0.899531 0.391484 L 0.874531 0.323477 L 0.699531 0.326484 Z M 0.4825 0.371484 " transform="matrix(100,0,0,100,150,650)"/>
<path style="fill:none;stroke-width:0.01;stroke-linecap:butt;stroke-linejoin:miter;stroke:rgb(0%,0%,0%);stroke-opacity:1;stroke-miterlimit:10;" d="M 0.251484 0.951563 L 0.250469 0.951563 L 0.508516 0.721523 L 0.750508 0.0964453 L 0.546523 0.0454688 L 0.250469 0.950547 L 0.250469 0.951563 L 0.249492 0.951563 L 0.249492 0.952539 L 0.250469 0.952539 L 0.249492 0.953555 L 0.249492 0.954531 L 0.250469 0.953555 L 0.250469 0.952539 L 0.254492 0.952539 L 0.252461 0.952539 L 0.253477 0.951563 L 0.254492 0.952539 L 0.254492 0.951563 Z M 0.251484 0.951563 " transform="matrix(100,0,0,100,300,650)"/>
<path style="fill:none;stroke-width:0.01;stroke-linecap:butt;stroke-linejoin:miter;stroke:rgb(0%,0%,0%);stroke-opacity:1;stroke-miterlimit:10;" d="M 0.510508 0.249492 L 0.259492 0.259492 L 0.193477 0.203477 L 0.0544531 0.165469 L 0.0454688 0.194453 L 0.161484 0.239492 L 0.182461 0.300469 L 0.199453 0.374492 L 0.0944531 0.365469 L 0.0854688 0.435508 L 0.197461 0.444492 L 0.210469 0.510508 L 0.268477 0.619531 L 0.223477 0.809531 L 0.300469 0.834531 L 0.341484 0.630508 L 0.315469 0.500508 L 0.510508 0.438477 L 0.738516 0.409492 L 0.877539 0.283477 L 0.823516 0.241484 L 0.723516 0.354492 L 0.601523 0.338477 L 0.757539 0.292461 L 0.954531 0.304492 L 0.950547 0.198477 L 0.749531 0.224453 Z M 0.510508 0.249492 " transform="matrix(100,0,0,100,450,650)"/>
<path style="fill:none;stroke-width:0.01;stroke-linecap:butt;stroke-linejoin:miter;stroke:rgb(0%,0%,0%);stroke-opacity:1;stroke-miterlimit:10;" d="M 0.478516 0.373477 L 0.236484 0.339492 L 0.177461 0.225469 L 0.333477 0.418477 L 0.275469 0.446484 L 0.135469 0.278477 L 0.164453 0.360469 L 0.162461 0.4225 L 0.0624609 0.429492 L 0.0654687 0.4875 L 0.161484 0.491484 L 0.151484 0.5675 L 0.102461 0.643516 L 0.0814453 0.774531 L 0.0454688 0.754531 L 0.137461 0.688516 L 0.228477 0.601523 L 0.478516 0.589492 L 0.768516 0.541523 L 0.954531 0.4775 L 0.931563 0.400508 L 0.753516 0.4675 L 0.578516 0.473516 L 0.743516 0.435508 L 0.910547 0.449492 L 0.916523 0.365469 L 0.737539 0.366484 Z M 0.478516 0.373477 " transform="matrix(100,0,0,100,600,650)"/>
</g>
</svg>
