<?xml version="1.0" encoding="UTF-8"?>
<svg xmlns="http://www.w3.org/2000/svg" xmlns:xlink="http://www.w3.org/1999/xlink" width="750pt" height="3600pt" viewBox="0 0 750 3600" version="1.1">
<g id="surface1">
<path style="fill:none;stroke-width:0.01;stroke-linecap:butt;stroke-linejoin:miter;stroke:rgb(0%,0%,0%);stroke-opacity:1;stroke-miterlimit:10;" d="M 0.4875 0.543516 L 0.254492 0.511484 L 0.262461 0.345469 L 0.130469 0.102461 L 0.0594531 0.131445 L 0.390508 0.228477 L 0.169453 0.511484 L 0.156484 0.585508 L 0.0504687 0.573516 L 0.0454688 0.640508 L 0.145469 0.654531 L 0.140469 0.727539 L 0.209453 0.897539 L 0.4225 0.815547 L 0.4325 0.768516 L 0.253477 0.864531 L 0.239492 0.748516 L 0.4875 0.772539 L 0.749531 0.797539 L 0.954531 0.782539 L 0.932539 0.708516 L 0.712539 0.855547 L 0.596523 0.645508 L 0.745508 0.5925 L 0.917539 0.594492 L 0.930547 0.5175 L 0.738516 0.514492 Z M 0.4875 0.543516 " transform="matrix(100,0,0,100,0,200)"/>
<path style="fill:none;stroke-width:0.01;stroke-linecap:butt;stroke-linejoin:miter;stroke:rgb(0%,0%,0%);stroke-opacity:1;stroke-miterlimit:10;" d="M 0.498516 0.396484 L 0.268477 0.399492 L 0.275469 0.263477 L 0.193477 0.0534375 L 0.135469 0.0684375 L 0.187461 0.266484 L 0.173477 0.4075 L 0.176484 0.479492 L 0.0454687 0.484492 L 0.0504688 0.561523 L 0.172461 0.561523 L 0.175469 0.633516 L 0.205469 0.747539 L 0.137461 0.916523 L 0.210469 0.946563 L 0.249492 0.736523 L 0.260469 0.645508 L 0.498516 0.613516 L 0.714531 0.6575 L 0.918555 0.651523 L 0.898555 0.570508 L 0.711523 0.704531 L 0.598516 0.501484 L 0.760508 0.435508 L 0.939531 0.449492 L 0.954531 0.378477 L 0.758516 0.378477 Z M 0.498516 0.396484 " transform="matrix(100,0,0,100,150,200)"/>
<path style="fill:none;stroke-width:0.01;stroke-linecap:butt;stroke-linejoin:miter;stroke:rgb(0%,0%,0%);stroke-opacity:1;stroke-miterlimit:10;" d="M 0.5375 0.316484 L 0.3075 0.331484 L 0.329492 0.230469 L 0.483516 0.329492 L 0.505508 0.271484 L 0.277461 0.141445 L 0.194453 0.320469 L 0.182461 0.388477 L 0.0564453 0.376484 L 0.0454687 0.4575 L 0.180469 0.468516 L 0.189453 0.541523 L 0.192461 0.666523 L 0.0774609 0.819531 L 0.151484 0.858555 L 0.242461 0.658516 L 0.287461 0.566523 L 0.5375 0.538516 L 0.760508 0.548516 L 0.934531 0.519492 L 0.929531 0.450508 L 0.768516 0.470508 L 0.635508 0.423477 L 0.783516 0.391484 L 0.939531 0.404492 L 0.954531 0.3225 L 0.786523 0.309492 Z M 0.5375 0.316484 " transform="matrix(100,0,0,100,300,200)"/>
<path style="fill:none;stroke-width:0.01;stroke-linecap:butt;stroke-linejoin:miter;stroke:rgb(0%,0%,0%);stroke-opacity:1;stroke-miterlimit:10;" d="M 0.450508 0.350469 L 0.292461 0.3375 L 0.319492 0.229492 L 0.256484 0.0454687 L 0.220469 0.0634375 L 0.254492 0.224453 L 0.229492 0.325469 L 0.222461 0.419492 L 0.0854688 0.421484 L 0.0864453 0.510508 L 0.219453 0.509492 L 0.232461 0.589492 L 0.303477 0.730508 L 0.271484 0.954531 L 0.349492 0.935547 L 0.321484 0.697539 L 0.313477 0.573516 L 0.450508 0.5625 L 0.6825 0.549492 L 0.874531 0.528516 L 0.860547 0.4575 L 0.689531 0.665508 L 0.545508 0.456484 L 0.717539 0.423477 L 0.909531 0.456484 L 0.914531 0.3725 L 0.694531 0.3525 Z M 0.450508 0.350469 " transform="matrix(100,0,0,100,450,200)"/>
<path style="fill:none;stroke-width:0.01;stroke-linecap:butt;stroke-linejoin:miter;stroke:rgb(0%,0%,0%);stroke-opacity:1;stroke-miterlimit:10;" d="M 0.478516 0.511484 L 0.267461 0.4925 L 0.270469 0.369492 L 0.192461 0.165469 L 0.138477 0.176484 L 0.386484 0.3075 L 0.181484 0.4925 L 0.171484 0.555508 L 0.0594531 0.540508 L 0.0454688 0.609492 L 0.160469 0.621523 L 0.164453 0.680508 L 0.269492 0.834531 L 0.441484 0.718516 L 0.4375 0.678516 L 0.287461 0.805547 L 0.262461 0.697539 L 0.478516 0.711523 L 0.698516 0.737539 L 0.855547 0.732539 L 0.845547 0.676523 L 0.668516 0.814531 L 0.574492 0.610508 L 0.753516 0.581523 L 0.954531 0.5925 L 0.946562 0.5175 L 0.737539 0.528516 Z M 0.478516 0.511484 " transform="matrix(100,0,0,100,600,200)"/>
<path style="fill:none;stroke-width:0.01;stroke-linecap:butt;stroke-linejoin:miter;stroke:rgb(0%,0%,0%);stroke-opacity:1;stroke-miterlimit:10;" d="M 0.484492 0.463516 L 0.242461 0.469492 L 0.229492 0.356484 L 0.121445 0.176484 L 0.0644531 0.204453 L 0.160469 0.351484 L 0.158477 0.476484 L 0.162461 0.539492 L 0.0454688 0.543516 L 0.0474609 0.616523 L 0.157461 0.615508 L 0.175469 0.680508 L 0.290469 0.823516 L 0.459492 0.695508 L 0.446484 0.654531 L 0.3325 0.675508 L 0.271484 0.688516 L 0.484492 0.6675 L 0.710508 0.6875 L 0.891523 0.678516 L 0.885547 0.623516 L 0.683516 0.752539 L 0.590508 0.554492 L 0.755508 0.496484 L 0.954531 0.484492 L 0.935547 0.404492 L 0.724531 0.433477 Z M 0.484492 0.463516 " transform="matrix(100,0,0,100,0,350)"/>
<path style="fill:none;stroke-width:0.01;stroke-linecap:butt;stroke-linejoin:miter;stroke:rgb(0%,0%,0%);stroke-opacity:1;stroke-miterlimit:10;" d="M 0.546523 0.4225 L 0.299492 0.431484 L 0.310469 0.291484 L 0.209453 0.0454687 L 0.150469 0.0584375 L 0.433477 0.183477 L 0.209453 0.423477 L 0.201484 0.498516 L 0.0684375 0.506484 L 0.0814453 0.598516 L 0.202461 0.583516 L 0.211484 0.650508 L 0.251484 0.765508 L 0.216484 0.936562 L 0.279492 0.954531 L 0.291484 0.767539 L 0.310469 0.6575 L 0.546523 0.628516 L 0.757539 0.638516 L 0.931563 0.6025 L 0.922539 0.555508 L 0.772539 0.568516 L 0.630508 0.5225 L 0.741523 0.466484 L 0.887539 0.460508 L 0.872539 0.400508 L 0.734531 0.408477 Z M 0.546523 0.4225 " transform="matrix(100,0,0,100,150,350)"/>
<path style="fill:none;stroke-width:0.01;stroke-linecap:butt;stroke-linejoin:miter;stroke:rgb(0%,0%,0%);stroke-opacity:1;stroke-miterlimit:10;" d="M 0.541523 0.418477 L 0.315469 0.4075 L 0.262461 0.260469 L 0.118477 0.0454687 L 0.0684375 0.0934766 L 0.205469 0.273477 L 0.231484 0.425508 L 0.219453 0.490508 L 0.104453 0.490508 L 0.104453 0.570508 L 0.216484 0.561523 L 0.233477 0.618516 L 0.267461 0.732539 L 0.206484 0.919531 L 0.285469 0.954531 L 0.297461 0.761523 L 0.3175 0.631523 L 0.541523 0.633516 L 0.769531 0.619531 L 0.931563 0.5775 L 0.907539 0.515508 L 0.768516 0.544492 L 0.639531 0.518516 L 0.656523 0.370469 L 0.751523 0.4325 L 0.753516 0.389492 L 0.661523 0.396484 Z M 0.541523 0.418477 " transform="matrix(100,0,0,100,300,350)"/>
<path style="fill:none;stroke-width:0.01;stroke-linecap:butt;stroke-linejoin:miter;stroke:rgb(0%,0%,0%);stroke-opacity:1;stroke-miterlimit:10;" d="M 0.473516 0.393477 L 0.293477 0.366484 L 0.288477 0.261484 L 0.182461 0.0854687 L 0.118477 0.116445 L 0.353477 0.168477 L 0.221484 0.370469 L 0.225469 0.456484 L 0.0454688 0.4675 L 0.0694531 0.583516 L 0.236484 0.560508 L 0.261484 0.640508 L 0.287461 0.749531 L 0.206484 0.889531 L 0.262461 0.914531 L 0.3175 0.735508 L 0.341484 0.631523 L 0.473516 0.613516 L 0.742539 0.633516 L 0.954531 0.611523 L 0.940547 0.519492 L 0.724531 0.708516 L 0.574492 0.489492 L 0.741523 0.435508 L 0.934531 0.446484 L 0.946562 0.353477 L 0.731523 0.360469 Z M 0.473516 0.393477 " transform="matrix(100,0,0,100,450,350)"/>
<path style="fill:none;stroke-width:0.01;stroke-linecap:butt;stroke-linejoin:miter;stroke:rgb(0%,0%,0%);stroke-opacity:1;stroke-miterlimit:10;" d="M 0.510508 0.455508 L 0.282461 0.449492 L 0.265469 0.290469 L 0.130469 0.0454687 L 0.0804688 0.101445 L 0.216484 0.320469 L 0.202461 0.461484 L 0.204453 0.526484 L 0.0814453 0.530508 L 0.0924609 0.604492 L 0.207461 0.5975 L 0.216484 0.655508 L 0.237461 0.771523 L 0.149453 0.921523 L 0.199453 0.954531 L 0.130469 0.639531 L 0.298477 0.666523 L 0.510508 0.6525 L 0.731523 0.658516 L 0.919531 0.629531 L 0.888555 0.571523 L 0.734531 0.584492 L 0.598516 0.549492 L 0.724531 0.498516 L 0.883555 0.4925 L 0.868555 0.414492 L 0.716523 0.414492 Z M 0.510508 0.455508 " transform="matrix(100,0,0,100,600,350)"/>
<path style="fill:none;stroke-width:0.01;stroke-linecap:butt;stroke-linejoin:miter;stroke:rgb(0%,0%,0%);stroke-opacity:1;stroke-miterlimit:10;" d="M 0.5225 0.481484 L 0.294492 0.4975 L 0.301484 0.4125 L 0.445508 0.486484 L 0.471484 0.4325 L 0.268477 0.316484 L 0.173477 0.491484 L 0.170469 0.565508 L 0.0614453 0.541523 L 0.0454688 0.609492 L 0.151484 0.6375 L 0.154453 0.703516 L 0.151484 0.5725 L 0.0454688 0.3475 L 0.128477 0.283477 L 0.529492 0.560508 L 0.296484 0.694531 L 0.5225 0.699531 L 0.759531 0.716523 L 0.954531 0.705508 L 0.935547 0.641523 L 0.763516 0.653516 L 0.618516 0.586523 L 0.752539 0.523516 L 0.929531 0.498516 L 0.908555 0.423477 L 0.748516 0.449492 Z M 0.5225 0.481484 " transform="matrix(100,0,0,100,0,500)"/>
<path style="fill:none;stroke-width:0.01;stroke-linecap:butt;stroke-linejoin:miter;stroke:rgb(0%,0%,0%);stroke-opacity:1;stroke-miterlimit:10;" d="M 0.499492 0.379492 L 0.283477 0.3925 L 0.290469 0.318477 L 0.429492 0.386484 L 0.463516 0.346484 L 0.264492 0.230469 L 0.174453 0.378477 L 0.170469 0.441484 L 0.0454687 0.460508 L 0.0524609 0.536484 L 0.168477 0.524492 L 0.174453 0.596523 L 0.272461 0.769531 L 0.470508 0.643516 L 0.484492 0.6025 L 0.300469 0.746523 L 0.276484 0.6125 L 0.499492 0.5875 L 0.756523 0.600508 L 0.954531 0.594492 L 0.941562 0.530508 L 0.756523 0.548516 L 0.603516 0.476484 L 0.751523 0.4225 L 0.932539 0.419492 L 0.934531 0.325469 L 0.744531 0.339492 Z M 0.499492 0.379492 " transform="matrix(100,0,0,100,150,500)"/>
<path style="fill:none;stroke-width:0.01;stroke-linecap:butt;stroke-linejoin:miter;stroke:rgb(0%,0%,0%);stroke-opacity:1;stroke-miterlimit:10;" d="M 0.506484 0.409492 L 0.274492 0.380469 L 0.282461 0.271484 L 0.178477 0.0564453 L 0.109453 0.0654687 L 0.369492 0.175469 L 0.183477 0.3825 L 0.170469 0.453477 L 0.0454687 0.464492 L 0.0484375 0.535508 L 0.165469 0.533516 L 0.176484 0.606523 L 0.184453 0.750508 L 0.0814453 0.916523 L 0.167461 0.943555 L 0.229492 0.733516 L 0.268477 0.621523 L 0.506484 0.6125 L 0.747539 0.629531 L 0.920547 0.598516 L 0.904531 0.535508 L 0.745508 0.549492 L 0.6025 0.495508 L 0.728516 0.449492 L 0.901523 0.445508 L 0.954531 0.320469 L 0.6775 0.154453 Z M 0.506484 0.409492 " transform="matrix(100,0,0,100,300,500)"/>
<path style="fill:none;stroke-width:0.01;stroke-linecap:butt;stroke-linejoin:miter;stroke:rgb(0%,0%,0%);stroke-opacity:1;stroke-miterlimit:10;" d="M 0.506484 0.283477 L 0.296484 0.281484 L 0.302461 0.208477 L 0.430508 0.272461 L 0.446484 0.228477 L 0.284492 0.144453 L 0.205469 0.274492 L 0.180469 0.336484 L 0.0514453 0.326484 L 0.0454688 0.4075 L 0.173477 0.416484 L 0.186484 0.4825 L 0.212461 0.6325 L 0.114453 0.829531 L 0.187461 0.855547 L 0.243477 0.624531 L 0.278477 0.489492 L 0.506484 0.478516 L 0.698516 0.476484 L 0.859531 0.454492 L 0.853555 0.398477 L 0.732539 0.418477 L 0.600508 0.3875 L 0.760508 0.285469 L 0.954531 0.249492 L 0.925547 0.163477 L 0.739531 0.206484 Z M 0.506484 0.283477 " transform="matrix(100,0,0,100,450,500)"/>
<path style="fill:none;stroke-width:0.01;stroke-linecap:butt;stroke-linejoin:miter;stroke:rgb(0%,0%,0%);stroke-opacity:1;stroke-miterlimit:10;" d="M 0.5275 0.398477 L 0.287461 0.383477 L 0.268477 0.257461 L 0.140469 0.0624609 L 0.0874609 0.0984766 L 0.374492 0.126445 L 0.208477 0.3925 L 0.184453 0.465508 L 0.0594531 0.444492 L 0.0454688 0.525508 L 0.173477 0.545508 L 0.174453 0.613516 L 0.190469 0.760508 L 0.0854688 0.909531 L 0.147461 0.937539 L 0.105469 0.573516 L 0.277461 0.635508 L 0.5275 0.621523 L 0.777539 0.630508 L 0.954531 0.620508 L 0.942539 0.555508 L 0.745508 0.711523 L 0.634531 0.504492 L 0.783516 0.476484 L 0.947539 0.4775 L 0.937539 0.399492 L 0.756523 0.3975 Z M 0.5275 0.398477 " transform="matrix(100,0,0,100,600,500)"/>
<path style="fill:none;stroke-width:0.01;stroke-linecap:butt;stroke-linejoin:miter;stroke:rgb(0%,0%,0%);stroke-opacity:1;stroke-miterlimit:10;" d="M 0.495508 0.388477 L 0.266484 0.385508 L 0.269492 0.268477 L 0.167461 0.0894531 L 0.119453 0.121445 L 0.354492 0.198477 L 0.184453 0.390508 L 0.177461 0.459492 L 0.0454688 0.445508 L 0.0504687 0.524492 L 0.169453 0.531484 L 0.176484 0.600508 L 0.191484 0.721523 L 0.102461 0.879531 L 0.170469 0.910547 L 0.231484 0.723516 L 0.271484 0.603516 L 0.495508 0.613516 L 0.724531 0.623516 L 0.904531 0.585508 L 0.876523 0.513516 L 0.722539 0.683516 L 0.591523 0.506484 L 0.760508 0.465508 L 0.952539 0.484492 L 0.954531 0.411484 L 0.762539 0.398477 Z M 0.495508 0.388477 " transform="matrix(100,0,0,100,0,650)"/>
<path style="fill:none;stroke-width:0.01;stroke-linecap:butt;stroke-linejoin:miter;stroke:rgb(0%,0%,0%);stroke-opacity:1;stroke-miterlimit:10;" d="M 0.554492 0.383477 L 0.319492 0.396484 L 0.275469 0.247461 L 0.101445 0.0454688 L 0.0664453 0.0734766 L 0.214453 0.266484 L 0.232461 0.401484 L 0.234492 0.461484 L 0.120469 0.464492 L 0.118477 0.541523 L 0.236484 0.535508 L 0.242461 0.589492 L 0.259492 0.742539 L 0.143477 0.916523 L 0.212461 0.954531 L 0.283477 0.734531 L 0.329492 0.596523 L 0.554492 0.5775 L 0.762539 0.591523 L 0.927539 0.5875 L 0.903555 0.526484 L 0.744531 0.651523 L 0.641523 0.474492 L 0.772539 0.4525 L 0.923555 0.4775 L 0.933555 0.420508 L 0.778516 0.391484 Z M 0.554492 0.383477 " transform="matrix(100,0,0,100,150,650)"/>
<path style="fill:none;stroke-width:0.01;stroke-linecap:butt;stroke-linejoin:miter;stroke:rgb(0%,0%,0%);stroke-opacity:1;stroke-miterlimit:10;" d="M 0.541523 0.5475 L 0.289492 0.530508 L 0.296484 0.335469 L 0.148477 0.0714453 L 0.0954688 0.125469 L 0.454492 0.225469 L 0.195469 0.5325 L 0.179453 0.606523 L 0.0454687 0.628516 L 0.0584375 0.716523 L 0.183477 0.690508 L 0.193477 0.772539 L 0.277461 0.928555 L 0.455508 0.831523 L 0.455508 0.785547 L 0.3075 0.894531 L 0.288477 0.789531 L 0.541523 0.755508 L 0.758516 0.777539 L 0.935547 0.761523 L 0.921523 0.695508 L 0.767539 0.705508 L 0.641523 0.643516 L 0.775547 0.6025 L 0.944531 0.591523 L 0.954531 0.509492 L 0.762539 0.516484 Z M 0.541523 0.5475 " transform="matrix(100,0,0,100,300,650)"/>
<path style="fill:none;stroke-width:0.01;stroke-linecap:butt;stroke-linejoin:miter;stroke:rgb(0%,0%,0%);stroke-opacity:1;stroke-miterlimit:10;" d="M 0.5025 0.4875 L 0.269492 0.471484 L 0.251484 0.361484 L 0.111445 0.154453 L 0.0774609 0.185469 L 0.177461 0.3525 L 0.181484 0.4825 L 0.168477 0.551523 L 0.0524609 0.540508 L 0.0454688 0.604492 L 0.156484 0.620508 L 0.163477 0.6925 L 0.178477 0.589492 L 0.121445 0.406484 L 0.194453 0.360469 L 0.235469 0.578516 L 0.276484 0.705508 L 0.5025 0.722539 L 0.743516 0.781523 L 0.945547 0.770508 L 0.954531 0.701523 L 0.701523 0.845547 L 0.614492 0.599492 L 0.747539 0.545508 L 0.929531 0.546523 L 0.909531 0.481484 L 0.739531 0.465508 Z M 0.5025 0.4875 " transform="matrix(100,0,0,100,450,650)"/>
<path style="fill:none;stroke-width:0.01;stroke-linecap:butt;stroke-linejoin:miter;stroke:rgb(0%,0%,0%);stroke-opacity:1;stroke-miterlimit:10;" d="M 0.516484 0.385508 L 0.298477 0.369492 L 0.275469 0.246484 L 0.130469 0.0454688 L 0.0914453 0.101445 L 0.365469 0.148477 L 0.221484 0.386484 L 0.210469 0.449492 L 0.0874609 0.439492 L 0.0824609 0.520508 L 0.199453 0.520508 L 0.205469 0.584492 L 0.260469 0.741523 L 0.203477 0.951563 L 0.290469 0.954531 L 0.0964453 0.595508 L 0.293477 0.581523 L 0.516484 0.583516 L 0.721523 0.6275 L 0.892539 0.611523 L 0.893555 0.554492 L 0.746523 0.549492 L 0.621523 0.478516 L 0.764531 0.431484 L 0.917539 0.415508 L 0.914531 0.3325 L 0.747539 0.350469 Z M 0.516484 0.385508 " transform="matrix(100,0,0,100,600,650)"/>
</g>
</svg>
