<?xml version="1.0" encoding="UTF-8"?>
<svg xmlns="http://www.w3.org/2000/svg" xmlns:xlink="http://www.w3.org/1999/xlink" width="750pt" height="3600pt" viewBox="0 0 750 3600" version="1.1">
<g id="surface1">
<path style="fill:none;stroke-width:0.01;stroke-linecap:butt;stroke-linejoin:miter;stroke:rgb(0%,0%,0%);stroke-opacity:1;stroke-miterlimit:10;" d="M 0.619531 0.0454687 L 0.6075 0.152461 L 0.539492 0.169453 L 0.406484 0.246484 L 0.210469 0.3625 L 0.247461 0.424492 L 0.4075 0.316484 L 0.494492 0.266484 L 0.526484 0.4925 L 0.538516 0.756523 L 0.5675 0.954531 L 0.619531 0.934531 L 0.6225 0.756523 L 0.630508 0.581523 L 0.6825 0.719531 L 0.707539 0.867539 L 0.789531 0.843516 L 0.776523 0.678516 L 0.775547 0.4625 L 0.765508 0.246484 L 0.643516 0.187461 L 0.423477 0.171484 L 0.440508 0.105469 L 0.6375 0.123477 L 0.753516 0.164453 L 0.679531 0.174453 L 0.655508 0.0514453 Z M 0.619531 0.0454687 " transform="matrix(100,0,0,100,0,200)"/>
<path style="fill:none;stroke-width:0.01;stroke-linecap:butt;stroke-linejoin:miter;stroke:rgb(0%,0%,0%);stroke-opacity:1;stroke-miterlimit:10;" d="M 0.649531 0.0454687 L 0.596523 0.181484 L 0.461484 0.159453 L 0.260469 0.228477 L 0.177461 0.445508 L 0.248477 0.491484 L 0.329492 0.291484 L 0.426484 0.301484 L 0.349492 0.441484 L 0.175469 0.510508 L 0.175469 0.800547 L 0.266484 0.804531 L 0.292461 0.655508 L 0.4775 0.609492 L 0.649531 0.759531 L 0.635508 0.954531 L 0.727539 0.940547 L 0.718516 0.772539 L 0.720508 0.551523 L 0.708516 0.311484 L 0.782539 0.3725 L 0.747539 0.528516 L 0.795547 0.539492 L 0.824531 0.330469 L 0.747539 0.196484 L 0.678516 0.174453 L 0.6725 0.0464453 Z M 0.649531 0.0454687 " transform="matrix(100,0,0,100,150,200)"/>
<path style="fill:none;stroke-width:0.01;stroke-linecap:butt;stroke-linejoin:miter;stroke:rgb(0%,0%,0%);stroke-opacity:1;stroke-miterlimit:10;" d="M 0.4825 0.0454687 L 0.471484 0.216484 L 0.439492 0.386484 L 0.391484 0.274492 L 0.4925 0.133477 L 0.385508 0.0924609 L 0.241484 0.311484 L 0.400508 0.448477 L 0.3325 0.590508 L 0.267461 0.563516 L 0.4175 0.370469 L 0.368477 0.331484 L 0.175469 0.5775 L 0.293477 0.698516 L 0.383477 0.741523 L 0.368477 0.849531 L 0.4825 0.877539 L 0.455508 0.748516 L 0.531484 0.755508 L 0.640508 0.802539 L 0.769531 0.954531 L 0.824531 0.910547 L 0.676523 0.721523 L 0.526484 0.6575 L 0.5175 0.4325 L 0.523516 0.209453 L 0.534492 0.0474609 Z M 0.4825 0.0454687 " transform="matrix(100,0,0,100,300,200)"/>
<path style="fill:none;stroke-width:0.01;stroke-linecap:butt;stroke-linejoin:miter;stroke:rgb(0%,0%,0%);stroke-opacity:1;stroke-miterlimit:10;" d="M 0.430508 0.126445 L 0.4275 0.227461 L 0.368477 0.249492 L 0.240469 0.333477 L 0.142461 0.519492 L 0.207461 0.556523 L 0.278477 0.3925 L 0.379492 0.358477 L 0.3725 0.561523 L 0.3625 0.781523 L 0.360469 0.954531 L 0.430508 0.932539 L 0.4225 0.807539 L 0.4675 0.658516 L 0.4925 0.782539 L 0.501484 0.946563 L 0.578516 0.917539 L 0.568516 0.761523 L 0.566523 0.5575 L 0.584492 0.355469 L 0.707539 0.288477 L 0.857539 0.0894531 L 0.806523 0.0454687 L 0.676523 0.224453 L 0.555508 0.270469 L 0.505508 0.254492 L 0.4925 0.135469 Z M 0.430508 0.126445 " transform="matrix(100,0,0,100,450,200)"/>
<path style="fill:none;stroke-width:0.01;stroke-linecap:butt;stroke-linejoin:miter;stroke:rgb(0%,0%,0%);stroke-opacity:1;stroke-miterlimit:10;" d="M 0.516484 0.0454687 L 0.549492 0.228477 L 0.5075 0.376484 L 0.485508 0.240469 L 0.514492 0.0754688 L 0.459492 0.0784766 L 0.443477 0.247461 L 0.428477 0.470508 L 0.3825 0.699531 L 0.302461 0.767539 L 0.221484 0.935547 L 0.264492 0.954531 L 0.351484 0.819531 L 0.424492 0.764531 L 0.494492 0.796523 L 0.456484 0.888555 L 0.516484 0.903555 L 0.533516 0.795547 L 0.590508 0.764531 L 0.680508 0.671523 L 0.778516 0.586523 L 0.747539 0.543516 L 0.6675 0.628516 L 0.599492 0.653516 L 0.571523 0.465508 L 0.585508 0.242461 L 0.599492 0.0574609 Z M 0.516484 0.0454687 " transform="matrix(100,0,0,100,600,200)"/>
<path style="fill:none;stroke-width:0.01;stroke-linecap:butt;stroke-linejoin:miter;stroke:rgb(0%,0%,0%);stroke-opacity:1;stroke-miterlimit:10;" d="M 0.5425 0.0734766 L 0.570508 0.234492 L 0.494492 0.405508 L 0.4375 0.302461 L 0.429492 0.150469 L 0.376484 0.158477 L 0.3875 0.3225 L 0.390508 0.544492 L 0.405508 0.775547 L 0.314492 0.795547 L 0.167461 0.902539 L 0.196484 0.931563 L 0.324492 0.848516 L 0.409492 0.838516 L 0.491484 0.836523 L 0.4675 0.954531 L 0.5425 0.924531 L 0.559492 0.816523 L 0.6025 0.787539 L 0.724531 0.707539 L 0.832539 0.636523 L 0.815547 0.600508 L 0.723516 0.666523 L 0.6425 0.718516 L 0.616523 0.4875 L 0.6125 0.224453 L 0.595508 0.0454687 Z M 0.5425 0.0734766 " transform="matrix(100,0,0,100,0,350)"/>
<path style="fill:none;stroke-width:0.01;stroke-linecap:butt;stroke-linejoin:miter;stroke:rgb(0%,0%,0%);stroke-opacity:1;stroke-miterlimit:10;" d="M 0.551523 0.107461 L 0.565508 0.281484 L 0.544492 0.430508 L 0.519492 0.292461 L 0.534492 0.126445 L 0.441484 0.136445 L 0.453477 0.288477 L 0.470508 0.4975 L 0.461484 0.705508 L 0.303477 0.671523 L 0.0454687 0.763516 L 0.0784766 0.829531 L 0.308477 0.757539 L 0.443477 0.797539 L 0.504492 0.783516 L 0.471484 0.875547 L 0.551523 0.892539 L 0.515508 0.786523 L 0.554492 0.770508 L 0.758516 0.638516 L 0.954531 0.474492 L 0.895547 0.413477 L 0.733516 0.5575 L 0.600508 0.6725 L 0.589492 0.495508 L 0.609492 0.270469 L 0.614492 0.113477 Z M 0.551523 0.107461 " transform="matrix(100,0,0,100,150,350)"/>
<path style="fill:none;stroke-width:0.01;stroke-linecap:butt;stroke-linejoin:miter;stroke:rgb(0%,0%,0%);stroke-opacity:1;stroke-miterlimit:10;" d="M 0.504492 0.167461 L 0.515508 0.270469 L 0.444492 0.254492 L 0.3525 0.218477 L 0.215469 0.0454687 L 0.163477 0.0664453 L 0.282461 0.265469 L 0.438477 0.338477 L 0.446484 0.534492 L 0.426484 0.775547 L 0.4225 0.954531 L 0.504492 0.928555 L 0.509492 0.772539 L 0.509492 0.633516 L 0.544492 0.775547 L 0.559492 0.931563 L 0.6075 0.943555 L 0.619531 0.755508 L 0.611523 0.508516 L 0.6525 0.295469 L 0.726523 0.292461 L 0.836523 0.209453 L 0.822539 0.186484 L 0.720508 0.235469 L 0.649531 0.243477 L 0.583516 0.255469 L 0.569492 0.144453 Z M 0.504492 0.167461 " transform="matrix(100,0,0,100,300,350)"/>
<path style="fill:none;stroke-width:0.01;stroke-linecap:butt;stroke-linejoin:miter;stroke:rgb(0%,0%,0%);stroke-opacity:1;stroke-miterlimit:10;" d="M 0.435508 0.0454687 L 0.398477 0.166484 L 0.328477 0.170469 L 0.178477 0.261484 L 0.0494531 0.3425 L 0.0794531 0.3925 L 0.186484 0.3125 L 0.295469 0.263477 L 0.358477 0.4675 L 0.374492 0.729531 L 0.4025 0.928555 L 0.435508 0.919531 L 0.4025 0.755508 L 0.444492 0.599492 L 0.4975 0.769531 L 0.516484 0.948555 L 0.596523 0.954531 L 0.5925 0.753516 L 0.606523 0.503516 L 0.623516 0.269492 L 0.763516 0.235469 L 0.950547 0.114453 L 0.928555 0.0664453 L 0.747539 0.170469 L 0.616523 0.181484 L 0.540508 0.208477 L 0.506484 0.0994531 Z M 0.435508 0.0454687 " transform="matrix(100,0,0,100,450,350)"/>
<path style="fill:none;stroke-width:0.01;stroke-linecap:butt;stroke-linejoin:miter;stroke:rgb(0%,0%,0%);stroke-opacity:1;stroke-miterlimit:10;" d="M 0.564492 0.277461 L 0.598516 0.105469 L 0.535508 0.0864453 L 0.529492 0.258477 L 0.500508 0.481484 L 0.463516 0.669531 L 0.299492 0.644531 L 0.0454688 0.718516 L 0.0784766 0.774531 L 0.308477 0.729531 L 0.446484 0.766523 L 0.501484 0.783516 L 0.469492 0.913555 L 0.564492 0.907539 L 0.624531 0.801523 L 0.680508 0.807539 L 0.795547 0.772539 L 0.901523 0.693516 L 0.879531 0.653516 L 0.793516 0.725508 L 0.732539 0.731523 L 0.804531 0.584492 L 0.901523 0.383477 L 0.954531 0.229492 L 0.873555 0.232461 L 0.864531 0.371484 L 0.704531 0.3925 Z M 0.564492 0.277461 " transform="matrix(100,0,0,100,600,350)"/>
<path style="fill:none;stroke-width:0.01;stroke-linecap:butt;stroke-linejoin:miter;stroke:rgb(0%,0%,0%);stroke-opacity:1;stroke-miterlimit:10;" d="M 0.6125 0.0544531 L 0.6025 0.205469 L 0.511484 0.216484 L 0.433477 0.320469 L 0.309492 0.430508 L 0.344492 0.476484 L 0.450508 0.373477 L 0.518516 0.3375 L 0.5575 0.545508 L 0.539492 0.788516 L 0.5575 0.954531 L 0.6125 0.910547 L 0.576523 0.735508 L 0.629531 0.560508 L 0.665508 0.707539 L 0.634531 0.859531 L 0.690508 0.857539 L 0.685508 0.685508 L 0.670508 0.456484 L 0.6825 0.266484 L 0.574492 0.171484 L 0.320469 0.124453 L 0.356484 0.0574609 L 0.5775 0.104453 L 0.676523 0.177461 L 0.645508 0.172461 L 0.666523 0.0454688 Z M 0.6125 0.0544531 " transform="matrix(100,0,0,100,0,500)"/>
<path style="fill:none;stroke-width:0.01;stroke-linecap:butt;stroke-linejoin:miter;stroke:rgb(0%,0%,0%);stroke-opacity:1;stroke-miterlimit:10;" d="M 0.289492 0.0454688 L 0.279492 0.187461 L 0.199453 0.152461 L 0.275469 0.101445 L 0.463516 0.0774609 L 0.5075 0.131445 L 0.3125 0.150469 L 0.192461 0.250469 L 0.213477 0.463516 L 0.211484 0.743516 L 0.243477 0.945547 L 0.289492 0.928555 L 0.278477 0.760508 L 0.336484 0.5975 L 0.406484 0.749531 L 0.4225 0.954531 L 0.4675 0.930547 L 0.421484 0.757539 L 0.383477 0.529492 L 0.381484 0.328477 L 0.549492 0.297461 L 0.807539 0.118477 L 0.778516 0.0594531 L 0.5525 0.189453 L 0.379492 0.207461 L 0.326484 0.222461 L 0.351484 0.0634375 Z M 0.289492 0.0454688 " transform="matrix(100,0,0,100,150,500)"/>
<path style="fill:none;stroke-width:0.01;stroke-linecap:butt;stroke-linejoin:miter;stroke:rgb(0%,0%,0%);stroke-opacity:1;stroke-miterlimit:10;" d="M 0.555508 0.125469 L 0.500508 0.225469 L 0.400508 0.233477 L 0.318477 0.195469 L 0.207461 0.0454688 L 0.167461 0.0734766 L 0.274492 0.247461 L 0.409492 0.321484 L 0.4475 0.5225 L 0.474492 0.780547 L 0.490508 0.954531 L 0.555508 0.947539 L 0.585508 0.793516 L 0.6325 0.6275 L 0.701523 0.772539 L 0.735508 0.916523 L 0.832539 0.896523 L 0.789531 0.737539 L 0.715508 0.504492 L 0.700508 0.285469 L 0.603516 0.205469 L 0.395508 0.155469 L 0.414492 0.101445 L 0.609492 0.140469 L 0.703516 0.205469 L 0.631523 0.206484 L 0.6375 0.0984766 Z M 0.555508 0.125469 " transform="matrix(100,0,0,100,300,500)"/>
<path style="fill:none;stroke-width:0.01;stroke-linecap:butt;stroke-linejoin:miter;stroke:rgb(0%,0%,0%);stroke-opacity:1;stroke-miterlimit:10;" d="M 0.511484 0.0454688 L 0.484492 0.156484 L 0.388477 0.159453 L 0.257461 0.267461 L 0.205469 0.469492 L 0.273477 0.4975 L 0.315469 0.325469 L 0.414492 0.298477 L 0.424492 0.513516 L 0.4325 0.766523 L 0.434492 0.941562 L 0.511484 0.954531 L 0.509492 0.746523 L 0.538516 0.5475 L 0.566523 0.721523 L 0.548516 0.891523 L 0.640508 0.905547 L 0.6525 0.735508 L 0.678516 0.494492 L 0.674531 0.272461 L 0.695508 0.355469 L 0.794531 0.305469 L 0.770508 0.276484 L 0.735508 0.3175 L 0.675508 0.181484 L 0.6275 0.181484 L 0.603516 0.0544531 Z M 0.511484 0.0454688 " transform="matrix(100,0,0,100,450,500)"/>
<path style="fill:none;stroke-width:0.01;stroke-linecap:butt;stroke-linejoin:miter;stroke:rgb(0%,0%,0%);stroke-opacity:1;stroke-miterlimit:10;" d="M 0.3425 0.0764453 L 0.336484 0.182461 L 0.266484 0.183477 L 0.3325 0.138477 L 0.486484 0.142461 L 0.5175 0.178477 L 0.371484 0.211484 L 0.269492 0.267461 L 0.256484 0.494492 L 0.263477 0.754531 L 0.263477 0.954531 L 0.3425 0.954531 L 0.3675 0.781523 L 0.404492 0.613516 L 0.4625 0.744531 L 0.525508 0.923555 L 0.630508 0.908555 L 0.608516 0.717539 L 0.591523 0.491484 L 0.584492 0.271484 L 0.661523 0.212461 L 0.743516 0.0614453 L 0.702539 0.0454688 L 0.624531 0.167461 L 0.556523 0.213477 L 0.464492 0.200469 L 0.4375 0.0674609 Z M 0.3425 0.0764453 " transform="matrix(100,0,0,100,600,500)"/>
<path style="fill:none;stroke-width:0.01;stroke-linecap:butt;stroke-linejoin:miter;stroke:rgb(0%,0%,0%);stroke-opacity:1;stroke-miterlimit:10;" d="M 0.490508 0.145469 L 0.544492 0.305469 L 0.496484 0.413477 L 0.484492 0.240469 L 0.480508 0.0454688 L 0.3475 0.0874609 L 0.3475 0.271484 L 0.370469 0.528516 L 0.359492 0.745508 L 0.473516 0.812539 L 0.729531 0.831523 L 0.709531 0.888555 L 0.508516 0.866523 L 0.380469 0.827539 L 0.436484 0.842539 L 0.419492 0.942539 L 0.490508 0.954531 L 0.495508 0.824531 L 0.5375 0.807539 L 0.476484 0.863555 L 0.3125 0.884531 L 0.270469 0.851523 L 0.429492 0.804531 L 0.533516 0.725508 L 0.540508 0.5325 L 0.570508 0.299492 L 0.574492 0.146445 Z M 0.490508 0.145469 " transform="matrix(100,0,0,100,0,650)"/>
<path style="fill:none;stroke-width:0.01;stroke-linecap:butt;stroke-linejoin:miter;stroke:rgb(0%,0%,0%);stroke-opacity:1;stroke-miterlimit:10;" d="M 0.674531 0.0454688 L 0.668516 0.217461 L 0.625508 0.374492 L 0.578516 0.239492 L 0.586523 0.0654687 L 0.4925 0.0704687 L 0.5075 0.243477 L 0.511484 0.4875 L 0.508516 0.734531 L 0.326484 0.689531 L 0.0674609 0.748516 L 0.0854687 0.819531 L 0.338477 0.805547 L 0.4825 0.839531 L 0.5575 0.823516 L 0.579492 0.946562 L 0.674531 0.954531 L 0.684531 0.884531 L 0.733516 0.865547 L 0.870547 0.769531 L 0.932539 0.733516 L 0.923555 0.713516 L 0.869531 0.743516 L 0.800547 0.748516 L 0.772539 0.503516 L 0.771523 0.248477 L 0.754531 0.0524609 Z M 0.674531 0.0454688 " transform="matrix(100,0,0,100,150,650)"/>
<path style="fill:none;stroke-width:0.01;stroke-linecap:butt;stroke-linejoin:miter;stroke:rgb(0%,0%,0%);stroke-opacity:1;stroke-miterlimit:10;" d="M 0.486484 0.0454688 L 0.470508 0.145469 L 0.410508 0.147461 L 0.301484 0.264492 L 0.196484 0.418477 L 0.244492 0.4575 L 0.325469 0.318477 L 0.400508 0.287461 L 0.398477 0.494492 L 0.4075 0.705508 L 0.413477 0.868555 L 0.486484 0.868555 L 0.486484 0.696523 L 0.529492 0.5575 L 0.568516 0.710508 L 0.423477 0.878555 L 0.535508 0.954531 L 0.741523 0.686523 L 0.5575 0.490508 L 0.640508 0.308477 L 0.721523 0.341484 L 0.600508 0.444492 L 0.633516 0.475508 L 0.803516 0.334492 L 0.6825 0.214453 L 0.6125 0.190469 L 0.601523 0.107461 Z M 0.486484 0.0454688 " transform="matrix(100,0,0,100,300,650)"/>
<path style="fill:none;stroke-width:0.01;stroke-linecap:butt;stroke-linejoin:miter;stroke:rgb(0%,0%,0%);stroke-opacity:1;stroke-miterlimit:10;" d="M 0.262461 0.0494531 L 0.248477 0.189453 L 0.197461 0.192461 L 0.270469 0.122461 L 0.454492 0.0834766 L 0.494492 0.132461 L 0.313477 0.188477 L 0.204453 0.282461 L 0.200469 0.484492 L 0.194453 0.732539 L 0.203477 0.913555 L 0.262461 0.913555 L 0.233477 0.752539 L 0.280469 0.598516 L 0.291484 0.769531 L 0.294492 0.948555 L 0.375469 0.954531 L 0.371484 0.752539 L 0.345469 0.4825 L 0.411484 0.250469 L 0.553516 0.287461 L 0.805547 0.193477 L 0.784531 0.120469 L 0.575508 0.171484 L 0.431484 0.156484 L 0.340469 0.145469 L 0.349492 0.0454688 Z M 0.262461 0.0494531 " transform="matrix(100,0,0,100,450,650)"/>
<path style="fill:none;stroke-width:0.01;stroke-linecap:butt;stroke-linejoin:miter;stroke:rgb(0%,0%,0%);stroke-opacity:1;stroke-miterlimit:10;" d="M 0.491484 0.0534375 L 0.489492 0.213477 L 0.446484 0.410508 L 0.4125 0.231484 L 0.395508 0.0454688 L 0.311484 0.0944531 L 0.330469 0.290469 L 0.361484 0.511484 L 0.368477 0.746523 L 0.253477 0.766523 L 0.112461 0.881523 L 0.150469 0.919531 L 0.292461 0.835547 L 0.380469 0.815547 L 0.4175 0.838516 L 0.411484 0.948555 L 0.491484 0.954531 L 0.475508 0.806523 L 0.531484 0.813516 L 0.645508 0.809531 L 0.855547 0.899531 L 0.887539 0.839531 L 0.679531 0.716523 L 0.4925 0.729531 L 0.508516 0.504492 L 0.529492 0.246484 L 0.525508 0.0564453 Z M 0.491484 0.0534375 " transform="matrix(100,0,0,100,600,650)"/>
</g>
</svg>
