<?xml version="1.0" encoding="UTF-8"?>
<svg xmlns="http://www.w3.org/2000/svg" xmlns:xlink="http://www.w3.org/1999/xlink" width="750pt" height="3600pt" viewBox="0 0 750 3600" version="1.1">
<g id="surface1">
<path style="fill:none;stroke-width:0.01;stroke-linecap:butt;stroke-linejoin:miter;stroke:rgb(0%,0%,0%);stroke-opacity:1;stroke-miterlimit:10;" d="M 0.5175 0.370469 L 0.316484 0.3675 L 0.258477 0.254492 L 0.3275 0.461484 L 0.266484 0.466484 L 0.213477 0.297461 L 0.239492 0.374492 L 0.252461 0.430508 L 0.188477 0.426484 L 0.187461 0.464492 L 0.249492 0.471484 L 0.243477 0.511484 L 0.189453 0.591523 L 0.0454688 0.693516 L 0.0754688 0.745508 L 0.229492 0.643516 L 0.324492 0.5375 L 0.5175 0.5525 L 0.744531 0.553516 L 0.909531 0.666523 L 0.954531 0.606523 L 0.777539 0.4875 L 0.600508 0.450508 L 0.693516 0.420508 L 0.831523 0.4475 L 0.841523 0.395508 L 0.701523 0.370469 Z M 0.5175 0.370469 " transform="matrix(100,0,0,100,0,200)"/>
<path style="fill:none;stroke-width:0.01;stroke-linecap:butt;stroke-linejoin:miter;stroke:rgb(0%,0%,0%);stroke-opacity:1;stroke-miterlimit:10;" d="M 0.671523 0.354492 L 0.416484 0.338477 L 0.451484 0.240469 L 0.665508 0.298477 L 0.684531 0.216484 L 0.426484 0.137461 L 0.284492 0.329492 L 0.247461 0.421484 L 0.0454687 0.419492 L 0.0474609 0.5375 L 0.244492 0.546523 L 0.248477 0.618516 L 0.335469 0.690508 L 0.340469 0.855547 L 0.406484 0.862539 L 0.394492 0.676523 L 0.321484 0.620508 L 0.671523 0.609492 L 0.755508 0.715508 L 0.951563 0.653516 L 0.954531 0.604492 L 0.805547 0.603516 L 0.771523 0.483516 L 0.805547 0.295469 L 0.919531 0.243477 L 0.883555 0.206484 L 0.778516 0.264492 Z M 0.671523 0.354492 " transform="matrix(100,0,0,100,150,200)"/>
<path style="fill:none;stroke-width:0.01;stroke-linecap:butt;stroke-linejoin:miter;stroke:rgb(0%,0%,0%);stroke-opacity:1;stroke-miterlimit:10;" d="M 0.504492 0.3875 L 0.300469 0.3675 L 0.368477 0.305469 L 0.399492 0.170469 L 0.3625 0.151484 L 0.296484 0.261484 L 0.215469 0.346484 L 0.210469 0.420508 L 0.0824609 0.399492 L 0.0724609 0.476484 L 0.196484 0.5025 L 0.193477 0.585508 L 0.163477 0.676523 L 0.0454687 0.794531 L 0.0924609 0.848516 L 0.210469 0.710508 L 0.283477 0.609492 L 0.504492 0.580508 L 0.730508 0.564492 L 0.954531 0.5725 L 0.952539 0.508516 L 0.762539 0.504492 L 0.589492 0.473516 L 0.666523 0.336484 L 0.747539 0.301484 L 0.727539 0.257461 L 0.640508 0.304492 Z M 0.504492 0.3875 " transform="matrix(100,0,0,100,300,200)"/>
<path style="fill:none;stroke-width:0.01;stroke-linecap:butt;stroke-linejoin:miter;stroke:rgb(0%,0%,0%);stroke-opacity:1;stroke-miterlimit:10;" d="M 0.653516 0.3925 L 0.469492 0.389492 L 0.408477 0.291484 L 0.5275 0.4625 L 0.463516 0.481484 L 0.375469 0.339492 L 0.400508 0.4025 L 0.400508 0.4525 L 0.304492 0.4275 L 0.293477 0.496484 L 0.391484 0.513516 L 0.400508 0.569492 L 0.3075 0.618516 L 0.123477 0.411484 L 0.0454688 0.478516 L 0.254492 0.708516 L 0.446484 0.614492 L 0.653516 0.5625 L 0.824531 0.553516 L 0.926523 0.551523 L 0.932539 0.5075 L 0.827539 0.5075 L 0.722539 0.4725 L 0.852539 0.444492 L 0.954531 0.451484 L 0.954531 0.399492 L 0.848516 0.400508 Z M 0.653516 0.3925 " transform="matrix(100,0,0,100,450,200)"/>
<path style="fill:none;stroke-width:0.01;stroke-linecap:butt;stroke-linejoin:miter;stroke:rgb(0%,0%,0%);stroke-opacity:1;stroke-miterlimit:10;" d="M 0.510508 0.3575 L 0.308477 0.359492 L 0.315469 0.280469 L 0.450508 0.401484 L 0.475508 0.343477 L 0.278477 0.203477 L 0.208477 0.360469 L 0.194453 0.4175 L 0.0494531 0.3975 L 0.0454688 0.476484 L 0.173477 0.486484 L 0.180469 0.563516 L 0.212461 0.704531 L 0.3175 0.796523 L 0.344492 0.771523 L 0.264492 0.707539 L 0.288477 0.559492 L 0.510508 0.564492 L 0.760508 0.535508 L 0.899531 0.5325 L 0.903555 0.478516 L 0.767539 0.4775 L 0.628516 0.455508 L 0.771523 0.409492 L 0.949531 0.388477 L 0.954531 0.311484 L 0.752539 0.315469 Z M 0.510508 0.3575 " transform="matrix(100,0,0,100,600,200)"/>
<path style="fill:none;stroke-width:0.01;stroke-linecap:butt;stroke-linejoin:miter;stroke:rgb(0%,0%,0%);stroke-opacity:1;stroke-miterlimit:10;" d="M 0.526484 0.3125 L 0.299492 0.274492 L 0.403477 0.253477 L 0.563516 0.155469 L 0.546523 0.112461 L 0.389492 0.190469 L 0.216484 0.286484 L 0.185469 0.365469 L 0.0914453 0.364492 L 0.0824609 0.449492 L 0.191484 0.440508 L 0.197461 0.509492 L 0.133477 0.644531 L 0.0854687 0.887539 L 0.157461 0.848516 L 0.0454688 0.6375 L 0.249492 0.5625 L 0.526484 0.525508 L 0.759531 0.543516 L 0.945547 0.558516 L 0.954531 0.479492 L 0.769531 0.466484 L 0.624531 0.4225 L 0.779531 0.401484 L 0.921523 0.4175 L 0.929531 0.339492 L 0.779531 0.335469 Z M 0.526484 0.3125 " transform="matrix(100,0,0,100,0,350)"/>
<path style="fill:none;stroke-width:0.01;stroke-linecap:butt;stroke-linejoin:miter;stroke:rgb(0%,0%,0%);stroke-opacity:1;stroke-miterlimit:10;" d="M 0.533516 0.268477 L 0.274492 0.245469 L 0.173477 0.3625 L 0.0924609 0.196484 L 0.0644531 0.214453 L 0.116445 0.348477 L 0.179453 0.232461 L 0.173477 0.296484 L 0.0624609 0.271484 L 0.0454687 0.349492 L 0.176484 0.380469 L 0.186484 0.4275 L 0.304492 0.561523 L 0.405508 0.803516 L 0.496484 0.796523 L 0.4075 0.550508 L 0.294492 0.453477 L 0.533516 0.481484 L 0.765508 0.449492 L 0.954531 0.426484 L 0.945547 0.359492 L 0.786523 0.383477 L 0.620508 0.361484 L 0.736523 0.3225 L 0.904531 0.340469 L 0.911523 0.263477 L 0.736523 0.261484 Z M 0.533516 0.268477 " transform="matrix(100,0,0,100,150,350)"/>
<path style="fill:none;stroke-width:0.01;stroke-linecap:butt;stroke-linejoin:miter;stroke:rgb(0%,0%,0%);stroke-opacity:1;stroke-miterlimit:10;" d="M 0.466484 0.369492 L 0.259492 0.343477 L 0.318477 0.283477 L 0.349492 0.157461 L 0.316484 0.142461 L 0.255469 0.249492 L 0.188477 0.323477 L 0.176484 0.4025 L 0.0484375 0.393477 L 0.0454687 0.4675 L 0.168477 0.480508 L 0.162461 0.559492 L 0.221484 0.675508 L 0.191484 0.839531 L 0.242461 0.857539 L 0.285469 0.688516 L 0.269492 0.5625 L 0.466484 0.558516 L 0.679531 0.5775 L 0.925547 0.541523 L 0.911523 0.464492 L 0.702539 0.506484 L 0.579492 0.475508 L 0.726523 0.428477 L 0.954531 0.413477 L 0.951563 0.316484 L 0.699531 0.353477 Z M 0.466484 0.369492 " transform="matrix(100,0,0,100,300,350)"/>
<path style="fill:none;stroke-width:0.01;stroke-linecap:butt;stroke-linejoin:miter;stroke:rgb(0%,0%,0%);stroke-opacity:1;stroke-miterlimit:10;" d="M 0.4575 0.329492 L 0.248477 0.292461 L 0.208477 0.252461 L 0.0954688 0.418477 L 0.0484375 0.374492 L 0.149453 0.238477 L 0.164453 0.305469 L 0.167461 0.383477 L 0.0724609 0.334492 L 0.0454688 0.405508 L 0.151484 0.456484 L 0.146445 0.520508 L 0.199453 0.669531 L 0.333477 0.761523 L 0.355469 0.734531 L 0.253477 0.663516 L 0.253477 0.531484 L 0.4575 0.5275 L 0.718516 0.5225 L 0.954531 0.464492 L 0.923555 0.389492 L 0.734531 0.445508 L 0.564492 0.426484 L 0.723516 0.363477 L 0.917539 0.354492 L 0.900547 0.254492 L 0.702539 0.297461 Z M 0.4575 0.329492 " transform="matrix(100,0,0,100,450,350)"/>
<path style="fill:none;stroke-width:0.01;stroke-linecap:butt;stroke-linejoin:miter;stroke:rgb(0%,0%,0%);stroke-opacity:1;stroke-miterlimit:10;" d="M 0.561523 0.4425 L 0.354492 0.445508 L 0.334492 0.4025 L 0.465508 0.391484 L 0.456484 0.344492 L 0.296484 0.356484 L 0.291484 0.431484 L 0.270469 0.5075 L 0.0454688 0.524492 L 0.0644531 0.618516 L 0.265469 0.6025 L 0.275469 0.655508 L 0.321484 0.588516 L 0.4725 0.576523 L 0.478516 0.526484 L 0.321484 0.5275 L 0.371484 0.650508 L 0.561523 0.623516 L 0.766523 0.614492 L 0.949531 0.6325 L 0.954531 0.5775 L 0.796523 0.555508 L 0.639531 0.525508 L 0.732539 0.501484 L 0.865547 0.5225 L 0.871523 0.466484 L 0.739531 0.4525 Z M 0.561523 0.4425 " transform="matrix(100,0,0,100,600,350)"/>
<path style="fill:none;stroke-width:0.01;stroke-linecap:butt;stroke-linejoin:miter;stroke:rgb(0%,0%,0%);stroke-opacity:1;stroke-miterlimit:10;" d="M 0.5725 0.415508 L 0.3775 0.394492 L 0.319492 0.496484 L 0.188477 0.354492 L 0.166484 0.383477 L 0.266484 0.499492 L 0.303477 0.395508 L 0.306484 0.445508 L 0.250469 0.455508 L 0.255469 0.490508 L 0.306484 0.4975 L 0.316484 0.548516 L 0.237461 0.585508 L 0.0854687 0.509492 L 0.0454688 0.561523 L 0.202461 0.645508 L 0.353477 0.599492 L 0.5725 0.583516 L 0.765508 0.589492 L 0.954531 0.575508 L 0.950547 0.503516 L 0.786523 0.520508 L 0.650508 0.495508 L 0.777539 0.464492 L 0.877539 0.4625 L 0.880547 0.4125 L 0.769531 0.423477 Z M 0.5725 0.415508 " transform="matrix(100,0,0,100,0,500)"/>
<path style="fill:none;stroke-width:0.01;stroke-linecap:butt;stroke-linejoin:miter;stroke:rgb(0%,0%,0%);stroke-opacity:1;stroke-miterlimit:10;" d="M 0.525508 0.448477 L 0.3325 0.470508 L 0.294492 0.3875 L 0.187461 0.244492 L 0.150469 0.269492 L 0.248477 0.404492 L 0.267461 0.475508 L 0.263477 0.528516 L 0.161484 0.511484 L 0.155469 0.578516 L 0.254492 0.581523 L 0.263477 0.648516 L 0.237461 0.750508 L 0.0624609 0.644531 L 0.0454687 0.683516 L 0.172461 0.755508 L 0.308477 0.679531 L 0.525508 0.640508 L 0.768516 0.666523 L 0.954531 0.679531 L 0.953555 0.604492 L 0.774531 0.589492 L 0.6025 0.553516 L 0.753516 0.508516 L 0.896523 0.573516 L 0.914531 0.4925 L 0.751523 0.440508 Z M 0.525508 0.448477 " transform="matrix(100,0,0,100,150,500)"/>
<path style="fill:none;stroke-width:0.01;stroke-linecap:butt;stroke-linejoin:miter;stroke:rgb(0%,0%,0%);stroke-opacity:1;stroke-miterlimit:10;" d="M 0.491484 0.374492 L 0.263477 0.388477 L 0.280469 0.253477 L 0.4975 0.4325 L 0.549492 0.374492 L 0.236484 0.118477 L 0.0954688 0.3925 L 0.105469 0.459492 L 0.0454687 0.485508 L 0.0554688 0.543516 L 0.129453 0.526484 L 0.155469 0.586523 L 0.226484 0.761523 L 0.386484 0.881523 L 0.4125 0.841523 L 0.291484 0.754531 L 0.284492 0.589492 L 0.491484 0.585508 L 0.720508 0.583516 L 0.851523 0.593516 L 0.865547 0.544492 L 0.729531 0.533516 L 0.605508 0.491484 L 0.766523 0.453477 L 0.954531 0.431484 L 0.928555 0.3625 L 0.745508 0.359492 Z M 0.491484 0.374492 " transform="matrix(100,0,0,100,300,500)"/>
<path style="fill:none;stroke-width:0.01;stroke-linecap:butt;stroke-linejoin:miter;stroke:rgb(0%,0%,0%);stroke-opacity:1;stroke-miterlimit:10;" d="M 0.458477 0.285469 L 0.232461 0.300469 L 0.147461 0.152461 L 0.320469 0.399492 L 0.233477 0.440508 L 0.0964453 0.214453 L 0.139453 0.319492 L 0.136445 0.364492 L 0.0524609 0.348477 L 0.0454688 0.396484 L 0.129453 0.416484 L 0.140469 0.466484 L 0.246484 0.596523 L 0.242461 0.827539 L 0.345469 0.847539 L 0.3325 0.5875 L 0.249492 0.483516 L 0.458477 0.491484 L 0.707539 0.509492 L 0.950547 0.516484 L 0.939531 0.405508 L 0.745508 0.448477 L 0.580508 0.3925 L 0.736523 0.353477 L 0.954531 0.3125 L 0.928555 0.236484 L 0.723516 0.280469 Z M 0.458477 0.285469 " transform="matrix(100,0,0,100,450,500)"/>
<path style="fill:none;stroke-width:0.01;stroke-linecap:butt;stroke-linejoin:miter;stroke:rgb(0%,0%,0%);stroke-opacity:1;stroke-miterlimit:10;" d="M 0.564492 0.430508 L 0.398477 0.438477 L 0.370469 0.396484 L 0.476484 0.403477 L 0.464492 0.3275 L 0.3225 0.361484 L 0.3325 0.440508 L 0.329492 0.485508 L 0.240469 0.470508 L 0.241484 0.531484 L 0.323477 0.533516 L 0.326484 0.584492 L 0.244492 0.6175 L 0.0884766 0.493516 L 0.0454688 0.543516 L 0.201484 0.6725 L 0.3675 0.6325 L 0.564492 0.5825 L 0.751523 0.5675 L 0.855547 0.461484 L 0.795547 0.4225 L 0.732539 0.521484 L 0.633516 0.500508 L 0.754531 0.465508 L 0.954531 0.4325 L 0.929531 0.371484 L 0.736523 0.4075 Z M 0.564492 0.430508 " transform="matrix(100,0,0,100,600,500)"/>
<path style="fill:none;stroke-width:0.01;stroke-linecap:butt;stroke-linejoin:miter;stroke:rgb(0%,0%,0%);stroke-opacity:1;stroke-miterlimit:10;" d="M 0.438477 0.431484 L 0.247461 0.435508 L 0.263477 0.306484 L 0.223477 0.0454688 L 0.149453 0.0474609 L 0.181484 0.286484 L 0.110469 0.449492 L 0.125469 0.511484 L 0.0514453 0.536484 L 0.0654688 0.584492 L 0.141445 0.575508 L 0.160469 0.633516 L 0.211484 0.750508 L 0.185469 0.938555 L 0.257461 0.954531 L 0.277461 0.764531 L 0.266484 0.6325 L 0.438477 0.626523 L 0.712539 0.624531 L 0.948555 0.580508 L 0.927539 0.489492 L 0.694531 0.5375 L 0.511484 0.524492 L 0.526484 0.394492 L 0.6075 0.335469 L 0.576523 0.305469 L 0.504492 0.3725 Z M 0.438477 0.431484 " transform="matrix(100,0,0,100,0,650)"/>
<path style="fill:none;stroke-width:0.01;stroke-linecap:butt;stroke-linejoin:miter;stroke:rgb(0%,0%,0%);stroke-opacity:1;stroke-miterlimit:10;" d="M 0.531484 0.310469 L 0.233477 0.329492 L 0.0884766 0.184453 L 0.350469 0.330469 L 0.300469 0.405508 L 0.0454687 0.277461 L 0.133477 0.375469 L 0.124453 0.451484 L 0.0564453 0.486484 L 0.0774609 0.5275 L 0.135469 0.518516 L 0.160469 0.574492 L 0.258477 0.757539 L 0.419492 0.815547 L 0.435508 0.783516 L 0.324492 0.737539 L 0.296484 0.565508 L 0.531484 0.5475 L 0.715508 0.680508 L 0.905547 0.556523 L 0.886523 0.498516 L 0.746523 0.548516 L 0.639531 0.418477 L 0.810547 0.351484 L 0.946563 0.3675 L 0.954531 0.301484 L 0.799531 0.282461 Z M 0.531484 0.310469 " transform="matrix(100,0,0,100,150,650)"/>
<path style="fill:none;stroke-width:0.01;stroke-linecap:butt;stroke-linejoin:miter;stroke:rgb(0%,0%,0%);stroke-opacity:1;stroke-miterlimit:10;" d="M 0.526484 0.379492 L 0.280469 0.331484 L 0.195469 0.200469 L 0.3425 0.4025 L 0.273477 0.436484 L 0.149453 0.268477 L 0.191484 0.351484 L 0.160469 0.430508 L 0.0454687 0.458477 L 0.0634375 0.519492 L 0.166484 0.4975 L 0.182461 0.573516 L 0.336484 0.799531 L 0.634531 0.620508 L 0.5875 0.521484 L 0.366484 0.681523 L 0.316484 0.5725 L 0.526484 0.573516 L 0.746523 0.565508 L 0.954531 0.5125 L 0.919531 0.423477 L 0.768516 0.494492 L 0.610508 0.466484 L 0.740508 0.423477 L 0.876523 0.443477 L 0.884531 0.368477 L 0.734531 0.369492 Z M 0.526484 0.379492 " transform="matrix(100,0,0,100,300,650)"/>
<path style="fill:none;stroke-width:0.01;stroke-linecap:butt;stroke-linejoin:miter;stroke:rgb(0%,0%,0%);stroke-opacity:1;stroke-miterlimit:10;" d="M 0.556523 0.4675 L 0.386484 0.435508 L 0.413477 0.3725 L 0.545508 0.4475 L 0.568516 0.398477 L 0.409492 0.298477 L 0.299492 0.418477 L 0.285469 0.478516 L 0.195469 0.455508 L 0.171484 0.535508 L 0.275469 0.541523 L 0.274492 0.608516 L 0.233477 0.701523 L 0.0674609 0.5975 L 0.0454688 0.6525 L 0.174453 0.701523 L 0.311484 0.648516 L 0.556523 0.653516 L 0.770508 0.660508 L 0.941562 0.654531 L 0.951563 0.5975 L 0.792539 0.594492 L 0.633516 0.5575 L 0.765508 0.519492 L 0.954531 0.520508 L 0.952539 0.448477 L 0.772539 0.458477 Z M 0.556523 0.4675 " transform="matrix(100,0,0,100,450,650)"/>
<path style="fill:none;stroke-width:0.01;stroke-linecap:butt;stroke-linejoin:miter;stroke:rgb(0%,0%,0%);stroke-opacity:1;stroke-miterlimit:10;" d="M 0.5325 0.340469 L 0.3275 0.309492 L 0.254492 0.189453 L 0.404492 0.4325 L 0.3125 0.456484 L 0.202461 0.249492 L 0.244492 0.328477 L 0.243477 0.391484 L 0.0514453 0.384492 L 0.0554688 0.4925 L 0.225469 0.4875 L 0.230469 0.529492 L 0.181484 0.618516 L 0.0454688 0.770508 L 0.0884766 0.810547 L 0.221484 0.6725 L 0.321484 0.558516 L 0.5325 0.528516 L 0.769531 0.518516 L 0.954531 0.5175 L 0.946562 0.4525 L 0.799531 0.459492 L 0.636523 0.425508 L 0.763516 0.375469 L 0.931563 0.373477 L 0.935547 0.300469 L 0.750508 0.313477 Z M 0.5325 0.340469 " transform="matrix(100,0,0,100,600,650)"/>
</g>
</svg>
