<?xml version="1.0" encoding="UTF-8"?>
<svg xmlns="http://www.w3.org/2000/svg" xmlns:xlink="http://www.w3.org/1999/xlink" width="750pt" height="3600pt" viewBox="0 0 750 3600" version="1.1">
<g id="surface1">
<path style="fill:none;stroke-width:0.01;stroke-linecap:butt;stroke-linejoin:miter;stroke:rgb(0%,0%,0%);stroke-opacity:1;stroke-miterlimit:10;" d="M 0.486484 0.381484 L 0.298477 0.379492 L 0.242461 0.275469 L 0.303477 0.471484 L 0.246484 0.475508 L 0.199453 0.315469 L 0.226484 0.385508 L 0.237461 0.4375 L 0.178477 0.434492 L 0.176484 0.470508 L 0.236484 0.475508 L 0.230469 0.513516 L 0.179453 0.588516 L 0.0454688 0.6775 L 0.0704687 0.724531 L 0.216484 0.6375 L 0.305469 0.5375 L 0.486484 0.551523 L 0.714531 0.544492 L 0.954531 0.505508 L 0.931563 0.430508 L 0.731523 0.473516 L 0.566523 0.459492 L 0.656523 0.430508 L 0.789531 0.456484 L 0.798516 0.401484 L 0.664531 0.381484 Z M 0.486484 0.381484 " transform="matrix(100,0,0,100,0,200)"/>
<path style="fill:none;stroke-width:0.01;stroke-linecap:butt;stroke-linejoin:miter;stroke:rgb(0%,0%,0%);stroke-opacity:1;stroke-miterlimit:10;" d="M 0.675508 0.351484 L 0.421484 0.336484 L 0.4575 0.240469 L 0.668516 0.299492 L 0.686523 0.217461 L 0.433477 0.137461 L 0.291484 0.326484 L 0.254492 0.418477 L 0.0454687 0.410508 L 0.0454687 0.533516 L 0.251484 0.546523 L 0.254492 0.613516 L 0.341484 0.685508 L 0.339492 0.853555 L 0.406484 0.862539 L 0.400508 0.671523 L 0.3275 0.615508 L 0.675508 0.604492 L 0.756523 0.709531 L 0.948555 0.6525 L 0.954531 0.603516 L 0.807539 0.601523 L 0.775547 0.4825 L 0.812539 0.293477 L 0.930547 0.243477 L 0.894531 0.203477 L 0.786523 0.262461 Z M 0.675508 0.351484 " transform="matrix(100,0,0,100,150,200)"/>
<path style="fill:none;stroke-width:0.01;stroke-linecap:butt;stroke-linejoin:miter;stroke:rgb(0%,0%,0%);stroke-opacity:1;stroke-miterlimit:10;" d="M 0.504492 0.3825 L 0.258477 0.403477 L 0.233477 0.304492 L 0.142461 0.144453 L 0.101445 0.158477 L 0.170469 0.308477 L 0.178477 0.426484 L 0.184453 0.470508 L 0.0454687 0.470508 L 0.0504688 0.526484 L 0.181484 0.529492 L 0.184453 0.584492 L 0.153477 0.678516 L 0.0694531 0.825547 L 0.117461 0.855547 L 0.202461 0.713516 L 0.277461 0.609492 L 0.504492 0.580508 L 0.729531 0.560508 L 0.953555 0.564492 L 0.954531 0.499492 L 0.760508 0.500508 L 0.5875 0.471484 L 0.714531 0.435508 L 0.816523 0.4525 L 0.824531 0.395508 L 0.708516 0.3875 Z M 0.504492 0.3825 " transform="matrix(100,0,0,100,300,200)"/>
<path style="fill:none;stroke-width:0.01;stroke-linecap:butt;stroke-linejoin:miter;stroke:rgb(0%,0%,0%);stroke-opacity:1;stroke-miterlimit:10;" d="M 0.546523 0.361484 L 0.302461 0.385508 L 0.3275 0.304492 L 0.4825 0.348477 L 0.490508 0.300469 L 0.3125 0.223477 L 0.199453 0.376484 L 0.202461 0.456484 L 0.0514453 0.4325 L 0.0454688 0.540508 L 0.205469 0.550508 L 0.215469 0.603516 L 0.3825 0.776523 L 0.569492 0.584492 L 0.5175 0.533516 L 0.389492 0.679531 L 0.3325 0.590508 L 0.546523 0.5725 L 0.774531 0.513516 L 0.891523 0.471484 L 0.885547 0.420508 L 0.762539 0.458477 L 0.625508 0.4525 L 0.782539 0.379492 L 0.954531 0.3675 L 0.945547 0.276484 L 0.766523 0.305469 Z M 0.546523 0.361484 " transform="matrix(100,0,0,100,450,200)"/>
<path style="fill:none;stroke-width:0.01;stroke-linecap:butt;stroke-linejoin:miter;stroke:rgb(0%,0%,0%);stroke-opacity:1;stroke-miterlimit:10;" d="M 0.583516 0.381484 L 0.370469 0.374492 L 0.390508 0.295469 L 0.479492 0.4425 L 0.556523 0.346484 L 0.376484 0.218477 L 0.272461 0.360469 L 0.259492 0.4275 L 0.0594531 0.414492 L 0.0454688 0.525508 L 0.245469 0.543516 L 0.259492 0.608516 L 0.378477 0.781523 L 0.585508 0.654531 L 0.558516 0.601523 L 0.410508 0.6925 L 0.375469 0.6075 L 0.583516 0.568516 L 0.809531 0.521484 L 0.954531 0.488516 L 0.950547 0.430508 L 0.806523 0.461484 L 0.659531 0.4575 L 0.653516 0.333477 L 0.706523 0.275469 L 0.675508 0.255469 L 0.629531 0.321484 Z M 0.583516 0.381484 " transform="matrix(100,0,0,100,600,200)"/>
<path style="fill:none;stroke-width:0.01;stroke-linecap:butt;stroke-linejoin:miter;stroke:rgb(0%,0%,0%);stroke-opacity:1;stroke-miterlimit:10;" d="M 0.5125 0.444492 L 0.300469 0.4425 L 0.267461 0.3725 L 0.0844531 0.5325 L 0.0454688 0.486484 L 0.197461 0.334492 L 0.210469 0.443477 L 0.187461 0.5225 L 0.0644531 0.5325 L 0.0834766 0.608516 L 0.189453 0.5975 L 0.192461 0.665508 L 0.217461 0.634531 L 0.285469 0.6425 L 0.291484 0.6175 L 0.225469 0.608516 L 0.271484 0.661523 L 0.5125 0.655508 L 0.764531 0.658516 L 0.954531 0.645508 L 0.951562 0.563516 L 0.762539 0.579492 L 0.610508 0.5525 L 0.769531 0.529492 L 0.785547 0.661523 L 0.872539 0.614492 L 0.822539 0.3975 Z M 0.5125 0.444492 " transform="matrix(100,0,0,100,0,350)"/>
<path style="fill:none;stroke-width:0.01;stroke-linecap:butt;stroke-linejoin:miter;stroke:rgb(0%,0%,0%);stroke-opacity:1;stroke-miterlimit:10;" d="M 0.6075 0.370469 L 0.3475 0.375469 L 0.331484 0.232461 L 0.253477 0.0454687 L 0.207461 0.0634375 L 0.255469 0.233477 L 0.240469 0.356484 L 0.205469 0.435508 L 0.112461 0.416484 L 0.0754687 0.498516 L 0.189453 0.514492 L 0.173477 0.585508 L 0.183477 0.726523 L 0.136445 0.925547 L 0.197461 0.954531 L 0.254492 0.769531 L 0.305469 0.596523 L 0.6075 0.606523 L 0.699531 0.709531 L 0.880547 0.616523 L 0.869531 0.5625 L 0.742539 0.599492 L 0.697539 0.479492 L 0.713516 0.321484 L 0.885547 0.381484 L 0.924531 0.279492 L 0.661523 0.204453 Z M 0.6075 0.370469 " transform="matrix(100,0,0,100,150,350)"/>
<path style="fill:none;stroke-width:0.01;stroke-linecap:butt;stroke-linejoin:miter;stroke:rgb(0%,0%,0%);stroke-opacity:1;stroke-miterlimit:10;" d="M 0.448477 0.5325 L 0.252461 0.5175 L 0.242461 0.3875 L 0.135469 0.209453 L 0.0964453 0.234492 L 0.177461 0.396484 L 0.168477 0.504492 L 0.148477 0.565508 L 0.0484375 0.5575 L 0.0454687 0.623516 L 0.143477 0.630508 L 0.132461 0.694531 L 0.190469 0.6025 L 0.383477 0.661523 L 0.410508 0.594492 L 0.210469 0.528516 L 0.238477 0.706523 L 0.448477 0.713516 L 0.516484 0.790547 L 0.648516 0.731523 L 0.649531 0.699531 L 0.544492 0.714531 L 0.534492 0.620508 L 0.703516 0.544492 L 0.954531 0.521484 L 0.939531 0.414492 L 0.676523 0.468516 Z M 0.448477 0.5325 " transform="matrix(100,0,0,100,300,350)"/>
<path style="fill:none;stroke-width:0.01;stroke-linecap:butt;stroke-linejoin:miter;stroke:rgb(0%,0%,0%);stroke-opacity:1;stroke-miterlimit:10;" d="M 0.529492 0.313477 L 0.351484 0.269492 L 0.257461 0.381484 L 0.163477 0.569492 L 0.107461 0.536484 L 0.194453 0.375469 L 0.260469 0.264492 L 0.255469 0.3175 L 0.0454688 0.316484 L 0.0504688 0.418477 L 0.256484 0.395508 L 0.269492 0.4375 L 0.213477 0.531484 L 0.157461 0.724531 L 0.0814453 0.735508 L 0.143477 0.523516 L 0.303477 0.486484 L 0.529492 0.480508 L 0.755508 0.464492 L 0.954531 0.416484 L 0.928555 0.3525 L 0.769531 0.399492 L 0.6175 0.3875 L 0.743516 0.333477 L 0.886523 0.329492 L 0.883555 0.265469 L 0.736523 0.265469 Z M 0.529492 0.313477 " transform="matrix(100,0,0,100,450,350)"/>
<path style="fill:none;stroke-width:0.01;stroke-linecap:butt;stroke-linejoin:miter;stroke:rgb(0%,0%,0%);stroke-opacity:1;stroke-miterlimit:10;" d="M 0.539492 0.303477 L 0.336484 0.345469 L 0.311484 0.306484 L 0.4375 0.277461 L 0.4225 0.233477 L 0.267461 0.267461 L 0.272461 0.344492 L 0.265469 0.4225 L 0.0454688 0.485508 L 0.0834766 0.574492 L 0.279492 0.518516 L 0.297461 0.566523 L 0.3675 0.611523 L 0.3925 0.765508 L 0.446484 0.766523 L 0.430508 0.603516 L 0.373477 0.540508 L 0.539492 0.501484 L 0.772539 0.4475 L 0.943555 0.466484 L 0.954531 0.408477 L 0.791523 0.371484 L 0.6125 0.3775 L 0.723516 0.329492 L 0.905547 0.311484 L 0.884531 0.237461 L 0.705508 0.270469 Z M 0.539492 0.303477 " transform="matrix(100,0,0,100,600,350)"/>
<path style="fill:none;stroke-width:0.01;stroke-linecap:butt;stroke-linejoin:miter;stroke:rgb(0%,0%,0%);stroke-opacity:1;stroke-miterlimit:10;" d="M 0.581523 0.413477 L 0.390508 0.388477 L 0.330469 0.488516 L 0.194453 0.3575 L 0.175469 0.3825 L 0.278477 0.489492 L 0.316484 0.388477 L 0.318477 0.440508 L 0.260469 0.4475 L 0.262461 0.484492 L 0.315469 0.493516 L 0.324492 0.546523 L 0.244492 0.5775 L 0.0834766 0.513516 L 0.0454688 0.574492 L 0.208477 0.6425 L 0.361484 0.5975 L 0.581523 0.5825 L 0.769531 0.588516 L 0.954531 0.579492 L 0.952539 0.511484 L 0.792539 0.521484 L 0.659531 0.494492 L 0.788516 0.461484 L 0.920547 0.446484 L 0.917539 0.379492 L 0.770508 0.409492 Z M 0.581523 0.413477 " transform="matrix(100,0,0,100,0,500)"/>
<path style="fill:none;stroke-width:0.01;stroke-linecap:butt;stroke-linejoin:miter;stroke:rgb(0%,0%,0%);stroke-opacity:1;stroke-miterlimit:10;" d="M 0.538516 0.388477 L 0.366484 0.4025 L 0.331484 0.356484 L 0.470508 0.345469 L 0.473516 0.297461 L 0.273477 0.319492 L 0.288477 0.409492 L 0.279492 0.466484 L 0.162461 0.4575 L 0.160469 0.523516 L 0.267461 0.521484 L 0.269492 0.594492 L 0.241484 0.698516 L 0.0634375 0.5875 L 0.0454687 0.626523 L 0.175469 0.702539 L 0.315469 0.625508 L 0.538516 0.585508 L 0.787539 0.613516 L 0.954531 0.621523 L 0.951563 0.554492 L 0.791523 0.544492 L 0.6175 0.499492 L 0.783516 0.4575 L 0.929531 0.530508 L 0.954531 0.448477 L 0.782539 0.386484 Z M 0.538516 0.388477 " transform="matrix(100,0,0,100,150,500)"/>
<path style="fill:none;stroke-width:0.01;stroke-linecap:butt;stroke-linejoin:miter;stroke:rgb(0%,0%,0%);stroke-opacity:1;stroke-miterlimit:10;" d="M 0.533516 0.3775 L 0.270469 0.3925 L 0.3075 0.262461 L 0.3825 0.162461 L 0.3475 0.147461 L 0.257461 0.253477 L 0.159453 0.368477 L 0.167461 0.4325 L 0.0454687 0.4825 L 0.0724609 0.550508 L 0.195469 0.510508 L 0.216484 0.553516 L 0.268477 0.724531 L 0.408477 0.852539 L 0.441484 0.813516 L 0.330469 0.724531 L 0.3375 0.5675 L 0.533516 0.5825 L 0.751523 0.569492 L 0.874531 0.574492 L 0.885547 0.5275 L 0.757539 0.523516 L 0.638516 0.486484 L 0.782539 0.453477 L 0.954531 0.434492 L 0.931563 0.371484 L 0.764531 0.3675 Z M 0.533516 0.3775 " transform="matrix(100,0,0,100,300,500)"/>
<path style="fill:none;stroke-width:0.01;stroke-linecap:butt;stroke-linejoin:miter;stroke:rgb(0%,0%,0%);stroke-opacity:1;stroke-miterlimit:10;" d="M 0.4575 0.421484 L 0.267461 0.418477 L 0.239492 0.282461 L 0.120469 0.113477 L 0.0784766 0.134453 L 0.163477 0.294492 L 0.169453 0.415508 L 0.158477 0.480508 L 0.0454688 0.4875 L 0.0504688 0.549492 L 0.155469 0.544492 L 0.169453 0.623516 L 0.286484 0.780547 L 0.475508 0.886523 L 0.5375 0.817539 L 0.310469 0.697539 L 0.271484 0.613516 L 0.4575 0.600508 L 0.681523 0.6375 L 0.950547 0.660508 L 0.954531 0.5775 L 0.730508 0.576523 L 0.568516 0.504492 L 0.690508 0.4775 L 0.895547 0.445508 L 0.883555 0.3625 L 0.688516 0.410508 Z M 0.4575 0.421484 " transform="matrix(100,0,0,100,450,500)"/>
<path style="fill:none;stroke-width:0.01;stroke-linecap:butt;stroke-linejoin:miter;stroke:rgb(0%,0%,0%);stroke-opacity:1;stroke-miterlimit:10;" d="M 0.469492 0.3825 L 0.268477 0.408477 L 0.282461 0.336484 L 0.454492 0.3475 L 0.4625 0.297461 L 0.256484 0.266484 L 0.179453 0.410508 L 0.168477 0.475508 L 0.0454688 0.464492 L 0.0474609 0.543516 L 0.165469 0.5475 L 0.170469 0.614492 L 0.298477 0.733516 L 0.305469 0.5325 L 0.261484 0.514492 L 0.264492 0.648516 L 0.233477 0.614492 L 0.469492 0.590508 L 0.696523 0.621523 L 0.877539 0.698516 L 0.917539 0.628516 L 0.739531 0.554492 L 0.570508 0.480508 L 0.738516 0.426484 L 0.954531 0.3975 L 0.925547 0.270469 L 0.705508 0.345469 Z M 0.469492 0.3825 " transform="matrix(100,0,0,100,600,500)"/>
<path style="fill:none;stroke-width:0.01;stroke-linecap:butt;stroke-linejoin:miter;stroke:rgb(0%,0%,0%);stroke-opacity:1;stroke-miterlimit:10;" d="M 0.491484 0.394492 L 0.3475 0.373477 L 0.216484 0.358477 L 0.0704687 0.281484 L 0.0454688 0.395508 L 0.252461 0.436484 L 0.293477 0.368477 L 0.284492 0.4425 L 0.179453 0.404492 L 0.143477 0.5025 L 0.269492 0.524492 L 0.310469 0.6175 L 0.364492 0.727539 L 0.5275 0.683516 L 0.514492 0.6425 L 0.3875 0.678516 L 0.375469 0.623516 L 0.491484 0.609492 L 0.748516 0.588516 L 0.954531 0.569492 L 0.939531 0.503516 L 0.743516 0.5125 L 0.573516 0.5025 L 0.5925 0.358477 L 0.6625 0.303477 L 0.629531 0.272461 L 0.568516 0.3375 Z M 0.491484 0.394492 " transform="matrix(100,0,0,100,0,650)"/>
<path style="fill:none;stroke-width:0.01;stroke-linecap:butt;stroke-linejoin:miter;stroke:rgb(0%,0%,0%);stroke-opacity:1;stroke-miterlimit:10;" d="M 0.488516 0.299492 L 0.265469 0.285469 L 0.383477 0.297461 L 0.551523 0.222461 L 0.536484 0.171484 L 0.363477 0.194453 L 0.173477 0.281484 L 0.172461 0.3425 L 0.0554687 0.326484 L 0.0454687 0.395508 L 0.155469 0.420508 L 0.172461 0.500508 L 0.234492 0.633516 L 0.233477 0.811523 L 0.302461 0.828516 L 0.308477 0.646523 L 0.297461 0.4975 L 0.488516 0.500508 L 0.729531 0.459492 L 0.954531 0.420508 L 0.930547 0.341484 L 0.750508 0.386484 L 0.559492 0.381484 L 0.571523 0.263477 L 0.624531 0.224453 L 0.603516 0.195469 L 0.550508 0.243477 Z M 0.488516 0.299492 " transform="matrix(100,0,0,100,150,650)"/>
<path style="fill:none;stroke-width:0.01;stroke-linecap:butt;stroke-linejoin:miter;stroke:rgb(0%,0%,0%);stroke-opacity:1;stroke-miterlimit:10;" d="M 0.521484 0.3125 L 0.268477 0.290469 L 0.219453 0.225469 L 0.0844531 0.159453 L 0.0724609 0.190469 L 0.182461 0.254492 L 0.194453 0.306484 L 0.165469 0.384492 L 0.0454687 0.390508 L 0.0544531 0.451484 L 0.154453 0.445508 L 0.179453 0.525508 L 0.245469 0.689531 L 0.324492 0.840547 L 0.277461 0.839531 L 0.3225 0.708516 L 0.315469 0.5325 L 0.521484 0.529492 L 0.761523 0.485508 L 0.887539 0.458477 L 0.884531 0.406484 L 0.754531 0.4275 L 0.604492 0.3975 L 0.758516 0.334492 L 0.954531 0.305469 L 0.929531 0.205469 L 0.735508 0.265469 Z M 0.521484 0.3125 " transform="matrix(100,0,0,100,300,650)"/>
<path style="fill:none;stroke-width:0.01;stroke-linecap:butt;stroke-linejoin:miter;stroke:rgb(0%,0%,0%);stroke-opacity:1;stroke-miterlimit:10;" d="M 0.525508 0.465508 L 0.416484 0.450508 L 0.441484 0.388477 L 0.5675 0.445508 L 0.589492 0.3975 L 0.435508 0.3225 L 0.3375 0.430508 L 0.328477 0.494492 L 0.0454688 0.529492 L 0.0844531 0.641523 L 0.331484 0.6075 L 0.348477 0.6675 L 0.329492 0.593516 L 0.479492 0.605508 L 0.488516 0.570508 L 0.370469 0.570508 L 0.4175 0.654531 L 0.525508 0.633516 L 0.724531 0.6475 L 0.854531 0.6775 L 0.856523 0.625508 L 0.732539 0.601523 L 0.618516 0.556523 L 0.762539 0.5325 L 0.954531 0.515508 L 0.949531 0.424492 L 0.751523 0.470508 Z M 0.525508 0.465508 " transform="matrix(100,0,0,100,450,650)"/>
<path style="fill:none;stroke-width:0.01;stroke-linecap:butt;stroke-linejoin:miter;stroke:rgb(0%,0%,0%);stroke-opacity:1;stroke-miterlimit:10;" d="M 0.520508 0.4175 L 0.310469 0.420508 L 0.310469 0.311484 L 0.228477 0.148477 L 0.190469 0.168477 L 0.244492 0.310469 L 0.233477 0.400508 L 0.230469 0.476484 L 0.0584375 0.454492 L 0.0454688 0.5575 L 0.219453 0.576523 L 0.224453 0.628516 L 0.476484 0.851523 L 0.453477 0.451484 L 0.370469 0.4375 L 0.400508 0.688516 L 0.333477 0.629531 L 0.520508 0.615508 L 0.780547 0.614492 L 0.954531 0.599492 L 0.952539 0.546523 L 0.805547 0.554492 L 0.649531 0.516484 L 0.794531 0.458477 L 0.833516 0.590508 L 0.919531 0.553516 L 0.824531 0.318477 Z M 0.520508 0.4175 " transform="matrix(100,0,0,100,600,650)"/>
</g>
</svg>
