<?xml version="1.0" encoding="UTF-8"?>
<svg xmlns="http://www.w3.org/2000/svg" xmlns:xlink="http://www.w3.org/1999/xlink" width="750pt" height="3600pt" viewBox="0 0 750 3600" version="1.1">
<g id="surface1">
<path style="fill:none;stroke-width:0.01;stroke-linecap:butt;stroke-linejoin:miter;stroke:rgb(0%,0%,0%);stroke-opacity:1;stroke-miterlimit:10;" d="M 0.4875 0.613516 L 0.262461 0.584492 L 0.276484 0.4025 L 0.139453 0.131445 L 0.0604688 0.160469 L 0.180469 0.4075 L 0.169453 0.5825 L 0.156484 0.656523 L 0.0504687 0.643516 L 0.0454688 0.710508 L 0.145469 0.725508 L 0.140469 0.798516 L 0.131445 0.697539 L 0.0534375 0.505508 L 0.0984766 0.459492 L 0.146445 0.660508 L 0.260469 0.807539 L 0.4875 0.842539 L 0.749531 0.868555 L 0.954531 0.852539 L 0.934531 0.781523 L 0.754531 0.760508 L 0.596523 0.715508 L 0.745508 0.663516 L 0.917539 0.665508 L 0.930547 0.588516 L 0.738516 0.585508 Z M 0.4875 0.613516 " transform="matrix(100,0,0,100,0,200)"/>
<path style="fill:none;stroke-width:0.01;stroke-linecap:butt;stroke-linejoin:miter;stroke:rgb(0%,0%,0%);stroke-opacity:1;stroke-miterlimit:10;" d="M 0.498516 0.232461 L 0.280469 0.241484 L 0.195469 0.323477 L 0.152461 0.524492 L 0.0944531 0.5025 L 0.150469 0.330469 L 0.173477 0.244492 L 0.176484 0.316484 L 0.0454687 0.321484 L 0.0504688 0.398477 L 0.172461 0.398477 L 0.175469 0.470508 L 0.205469 0.584492 L 0.137461 0.752539 L 0.191484 0.784531 L 0.269492 0.603516 L 0.260469 0.481484 L 0.498516 0.450508 L 0.714531 0.493516 L 0.918555 0.488516 L 0.907539 0.411484 L 0.756523 0.389492 L 0.598516 0.338477 L 0.760508 0.272461 L 0.939531 0.285469 L 0.954531 0.215469 L 0.758516 0.215469 Z M 0.498516 0.232461 " transform="matrix(100,0,0,100,150,200)"/>
<path style="fill:none;stroke-width:0.01;stroke-linecap:butt;stroke-linejoin:miter;stroke:rgb(0%,0%,0%);stroke-opacity:1;stroke-miterlimit:10;" d="M 0.506484 0.403477 L 0.315469 0.365469 L 0.3375 0.242461 L 0.296484 0.0454687 L 0.246484 0.0654687 L 0.266484 0.248477 L 0.247461 0.3675 L 0.238477 0.460508 L 0.0684375 0.455508 L 0.0624609 0.564492 L 0.242461 0.5675 L 0.262461 0.663516 L 0.300469 0.767539 L 0.246484 0.928555 L 0.308477 0.954531 L 0.366484 0.772539 L 0.351484 0.655508 L 0.506484 0.638516 L 0.746523 0.626523 L 0.937539 0.5875 L 0.935547 0.5175 L 0.764531 0.5375 L 0.609492 0.514492 L 0.765508 0.4675 L 0.933555 0.469492 L 0.932539 0.393477 L 0.752539 0.396484 Z M 0.506484 0.403477 " transform="matrix(100,0,0,100,300,200)"/>
<path style="fill:none;stroke-width:0.01;stroke-linecap:butt;stroke-linejoin:miter;stroke:rgb(0%,0%,0%);stroke-opacity:1;stroke-miterlimit:10;" d="M 0.490508 0.3625 L 0.283477 0.383477 L 0.291484 0.247461 L 0.180469 0.0454687 L 0.137461 0.0804688 L 0.213477 0.259492 L 0.207461 0.383477 L 0.199453 0.4525 L 0.100469 0.446484 L 0.0994531 0.510508 L 0.194453 0.5175 L 0.201484 0.570508 L 0.240469 0.737539 L 0.145469 0.954531 L 0.265469 0.912539 L 0.137461 0.596523 L 0.288477 0.575508 L 0.490508 0.550508 L 0.695508 0.539492 L 0.865547 0.520508 L 0.863555 0.461484 L 0.712539 0.493516 L 0.574492 0.4575 L 0.726523 0.4275 L 0.896523 0.456484 L 0.900547 0.3825 L 0.705508 0.364492 Z M 0.490508 0.3625 " transform="matrix(100,0,0,100,450,200)"/>
<path style="fill:none;stroke-width:0.01;stroke-linecap:butt;stroke-linejoin:miter;stroke:rgb(0%,0%,0%);stroke-opacity:1;stroke-miterlimit:10;" d="M 0.436484 0.374492 L 0.261484 0.3375 L 0.267461 0.246484 L 0.215469 0.0934766 L 0.177461 0.100469 L 0.222461 0.246484 L 0.198477 0.333477 L 0.194453 0.424492 L 0.0464453 0.4275 L 0.0454688 0.519492 L 0.190469 0.514492 L 0.206484 0.601523 L 0.254492 0.712539 L 0.210469 0.886523 L 0.263477 0.906523 L 0.303477 0.719531 L 0.296484 0.5875 L 0.436484 0.594492 L 0.679531 0.613516 L 0.860547 0.613516 L 0.856523 0.553516 L 0.694531 0.554492 L 0.543516 0.481484 L 0.732539 0.433477 L 0.954531 0.456484 L 0.949531 0.360469 L 0.727539 0.3775 Z M 0.436484 0.374492 " transform="matrix(100,0,0,100,600,200)"/>
<path style="fill:none;stroke-width:0.01;stroke-linecap:butt;stroke-linejoin:miter;stroke:rgb(0%,0%,0%);stroke-opacity:1;stroke-miterlimit:10;" d="M 0.463516 0.381484 L 0.233477 0.386484 L 0.219453 0.279492 L 0.116445 0.108477 L 0.0624609 0.135469 L 0.154453 0.275469 L 0.153477 0.394492 L 0.156484 0.454492 L 0.0454688 0.4575 L 0.0474609 0.5275 L 0.152461 0.526484 L 0.169453 0.5875 L 0.204453 0.731523 L 0.0964453 0.926523 L 0.161484 0.954531 L 0.252461 0.756523 L 0.261484 0.595508 L 0.463516 0.575508 L 0.679531 0.594492 L 0.851523 0.586523 L 0.851523 0.536484 L 0.699531 0.518516 L 0.564492 0.468516 L 0.722539 0.4125 L 0.911523 0.401484 L 0.954531 0.264492 L 0.608516 0.0454687 Z M 0.463516 0.381484 " transform="matrix(100,0,0,100,0,350)"/>
<path style="fill:none;stroke-width:0.01;stroke-linecap:butt;stroke-linejoin:miter;stroke:rgb(0%,0%,0%);stroke-opacity:1;stroke-miterlimit:10;" d="M 0.549492 0.491484 L 0.290469 0.483516 L 0.273477 0.333477 L 0.117461 0.0944531 L 0.0584375 0.120469 L 0.178477 0.3325 L 0.194453 0.4925 L 0.185469 0.571523 L 0.0454687 0.580508 L 0.0594531 0.676523 L 0.187461 0.660508 L 0.195469 0.731523 L 0.335469 0.905547 L 0.538516 0.722539 L 0.546523 0.676523 L 0.401484 0.690508 L 0.300469 0.738516 L 0.549492 0.708516 L 0.770508 0.718516 L 0.954531 0.680508 L 0.949531 0.6275 L 0.791523 0.6325 L 0.6375 0.596523 L 0.640508 0.4475 L 0.750508 0.513516 L 0.741523 0.4775 L 0.660508 0.4825 Z M 0.549492 0.491484 " transform="matrix(100,0,0,100,150,350)"/>
<path style="fill:none;stroke-width:0.01;stroke-linecap:butt;stroke-linejoin:miter;stroke:rgb(0%,0%,0%);stroke-opacity:1;stroke-miterlimit:10;" d="M 0.503516 0.396484 L 0.294492 0.398477 L 0.281484 0.300469 L 0.451484 0.348477 L 0.469492 0.297461 L 0.243477 0.220469 L 0.178477 0.404492 L 0.166484 0.4725 L 0.0454687 0.4725 L 0.0454687 0.556523 L 0.163477 0.5475 L 0.180469 0.6075 L 0.273477 0.779531 L 0.484492 0.666523 L 0.4775 0.588516 L 0.315469 0.716523 L 0.268477 0.621523 L 0.503516 0.623516 L 0.743516 0.6075 L 0.912539 0.563516 L 0.901523 0.520508 L 0.744531 0.525508 L 0.606523 0.5025 L 0.764531 0.459492 L 0.943555 0.460508 L 0.954531 0.369492 L 0.760508 0.371484 Z M 0.503516 0.396484 " transform="matrix(100,0,0,100,300,350)"/>
<path style="fill:none;stroke-width:0.01;stroke-linecap:butt;stroke-linejoin:miter;stroke:rgb(0%,0%,0%);stroke-opacity:1;stroke-miterlimit:10;" d="M 0.4825 0.441484 L 0.261484 0.429492 L 0.271484 0.311484 L 0.153477 0.119453 L 0.0824609 0.150469 L 0.183477 0.320469 L 0.179453 0.4325 L 0.174453 0.493516 L 0.0454688 0.4825 L 0.0504688 0.5675 L 0.171484 0.568516 L 0.180469 0.626523 L 0.174453 0.743516 L 0.0524609 0.861523 L 0.138477 0.880547 L 0.144453 0.611523 L 0.263477 0.644531 L 0.4825 0.626523 L 0.703516 0.6575 L 0.860547 0.650508 L 0.857539 0.589492 L 0.700508 0.581523 L 0.566523 0.528516 L 0.700508 0.4975 L 0.862539 0.5225 L 0.954531 0.399492 L 0.695508 0.175469 Z M 0.4825 0.441484 " transform="matrix(100,0,0,100,450,350)"/>
<path style="fill:none;stroke-width:0.01;stroke-linecap:butt;stroke-linejoin:miter;stroke:rgb(0%,0%,0%);stroke-opacity:1;stroke-miterlimit:10;" d="M 0.505508 0.586523 L 0.268477 0.595508 L 0.249492 0.434492 L 0.100469 0.193477 L 0.0454688 0.249492 L 0.185469 0.460508 L 0.187461 0.609492 L 0.183477 0.6725 L 0.0524609 0.671523 L 0.0574609 0.751523 L 0.180469 0.744531 L 0.187461 0.806523 L 0.171484 0.703516 L 0.105469 0.525508 L 0.145469 0.464492 L 0.184453 0.674531 L 0.294492 0.801523 L 0.505508 0.795547 L 0.743516 0.792539 L 0.954531 0.758516 L 0.938555 0.698516 L 0.762539 0.711523 L 0.6025 0.678516 L 0.734531 0.620508 L 0.900547 0.609492 L 0.873555 0.523516 L 0.710508 0.543516 Z M 0.505508 0.586523 " transform="matrix(100,0,0,100,600,350)"/>
<path style="fill:none;stroke-width:0.01;stroke-linecap:butt;stroke-linejoin:miter;stroke:rgb(0%,0%,0%);stroke-opacity:1;stroke-miterlimit:10;" d="M 0.525508 0.350469 L 0.319492 0.339492 L 0.276484 0.216484 L 0.127461 0.0454688 L 0.0874609 0.0874609 L 0.207461 0.236484 L 0.237461 0.354492 L 0.228477 0.4225 L 0.119453 0.409492 L 0.114453 0.486484 L 0.223477 0.489492 L 0.225469 0.556523 L 0.232461 0.720508 L 0.0994531 0.906523 L 0.171484 0.954531 L 0.303477 0.745508 L 0.310469 0.575508 L 0.525508 0.539492 L 0.703516 0.553516 L 0.856523 0.549492 L 0.851523 0.490508 L 0.721523 0.474492 L 0.613516 0.443477 L 0.745508 0.393477 L 0.912539 0.371484 L 0.912539 0.287461 L 0.738516 0.3175 Z M 0.525508 0.350469 " transform="matrix(100,0,0,100,0,500)"/>
<path style="fill:none;stroke-width:0.01;stroke-linecap:butt;stroke-linejoin:miter;stroke:rgb(0%,0%,0%);stroke-opacity:1;stroke-miterlimit:10;" d="M 0.533516 0.271484 L 0.336484 0.275469 L 0.331484 0.192461 L 0.496484 0.250469 L 0.515508 0.197461 L 0.300469 0.125469 L 0.234492 0.278477 L 0.215469 0.336484 L 0.105469 0.326484 L 0.0964453 0.395508 L 0.203477 0.4125 L 0.208477 0.4775 L 0.183477 0.6525 L 0.0454687 0.838516 L 0.186484 0.874531 L 0.129453 0.498516 L 0.318477 0.503516 L 0.533516 0.480508 L 0.775547 0.488516 L 0.954531 0.473516 L 0.891523 0.403477 L 0.745508 0.515508 L 0.630508 0.374492 L 0.767539 0.339492 L 0.939531 0.338477 L 0.947539 0.250469 L 0.766523 0.267461 Z M 0.533516 0.271484 " transform="matrix(100,0,0,100,150,500)"/>
<path style="fill:none;stroke-width:0.01;stroke-linecap:butt;stroke-linejoin:miter;stroke:rgb(0%,0%,0%);stroke-opacity:1;stroke-miterlimit:10;" d="M 0.519492 0.350469 L 0.340469 0.326484 L 0.3525 0.246484 L 0.469492 0.330469 L 0.5025 0.294492 L 0.323477 0.179453 L 0.234492 0.3125 L 0.223477 0.3725 L 0.111445 0.3625 L 0.104453 0.428477 L 0.209453 0.4425 L 0.205469 0.509492 L 0.177461 0.651523 L 0.0454687 0.794531 L 0.162461 0.820547 L 0.152461 0.515508 L 0.292461 0.545508 L 0.519492 0.540508 L 0.715508 0.5725 L 0.874531 0.566523 L 0.879531 0.514492 L 0.734531 0.488516 L 0.619531 0.4475 L 0.763516 0.401484 L 0.938555 0.405508 L 0.954531 0.333477 L 0.760508 0.325469 Z M 0.519492 0.350469 " transform="matrix(100,0,0,100,300,500)"/>
<path style="fill:none;stroke-width:0.01;stroke-linecap:butt;stroke-linejoin:miter;stroke:rgb(0%,0%,0%);stroke-opacity:1;stroke-miterlimit:10;" d="M 0.534492 0.242461 L 0.294492 0.277461 L 0.302461 0.185469 L 0.4725 0.244492 L 0.490508 0.188477 L 0.248477 0.0934766 L 0.173477 0.283477 L 0.164453 0.359492 L 0.0454688 0.364492 L 0.0464453 0.441484 L 0.168477 0.438477 L 0.184453 0.509492 L 0.229492 0.654531 L 0.117461 0.868555 L 0.181484 0.906523 L 0.290469 0.6875 L 0.284492 0.513516 L 0.534492 0.475508 L 0.767539 0.4875 L 0.954531 0.458477 L 0.943555 0.4025 L 0.784531 0.3925 L 0.6425 0.356484 L 0.6675 0.152461 L 0.779531 0.251484 L 0.764531 0.198477 L 0.663516 0.220469 Z M 0.534492 0.242461 " transform="matrix(100,0,0,100,450,500)"/>
<path style="fill:none;stroke-width:0.01;stroke-linecap:butt;stroke-linejoin:miter;stroke:rgb(0%,0%,0%);stroke-opacity:1;stroke-miterlimit:10;" d="M 0.486484 0.239492 L 0.269492 0.236484 L 0.189453 0.311484 L 0.115469 0.490508 L 0.0584375 0.451484 L 0.129453 0.296484 L 0.183477 0.233477 L 0.175469 0.300469 L 0.0624609 0.280469 L 0.0454688 0.350469 L 0.161484 0.374492 L 0.162461 0.443477 L 0.174453 0.571523 L 0.0724609 0.735508 L 0.124453 0.766523 L 0.235469 0.6025 L 0.258477 0.458477 L 0.486484 0.444492 L 0.740508 0.525508 L 0.947539 0.528516 L 0.954531 0.434492 L 0.773516 0.408477 L 0.593516 0.341484 L 0.747539 0.311484 L 0.940547 0.323477 L 0.948555 0.238477 L 0.764531 0.237461 Z M 0.486484 0.239492 " transform="matrix(100,0,0,100,600,500)"/>
<path style="fill:none;stroke-width:0.01;stroke-linecap:butt;stroke-linejoin:miter;stroke:rgb(0%,0%,0%);stroke-opacity:1;stroke-miterlimit:10;" d="M 0.523516 0.434492 L 0.293477 0.400508 L 0.280469 0.274492 L 0.180469 0.0934766 L 0.121445 0.120469 L 0.217461 0.289492 L 0.207461 0.4025 L 0.204453 0.469492 L 0.0924609 0.4575 L 0.0904688 0.530508 L 0.196484 0.541523 L 0.205469 0.610508 L 0.169453 0.739531 L 0.0454688 0.855547 L 0.0874609 0.906523 L 0.230469 0.787539 L 0.294492 0.640508 L 0.523516 0.6375 L 0.766523 0.661523 L 0.954531 0.626523 L 0.939531 0.5525 L 0.776523 0.5525 L 0.6175 0.530508 L 0.760508 0.4825 L 0.922539 0.479492 L 0.918555 0.3975 L 0.738516 0.423477 Z M 0.523516 0.434492 " transform="matrix(100,0,0,100,0,650)"/>
<path style="fill:none;stroke-width:0.01;stroke-linecap:butt;stroke-linejoin:miter;stroke:rgb(0%,0%,0%);stroke-opacity:1;stroke-miterlimit:10;" d="M 0.538516 0.554492 L 0.321484 0.5625 L 0.288477 0.414492 L 0.0954687 0.204453 L 0.0454687 0.224453 L 0.180469 0.411484 L 0.231484 0.576523 L 0.225469 0.639531 L 0.131445 0.631523 L 0.117461 0.697539 L 0.222461 0.711523 L 0.236484 0.777539 L 0.214453 0.679531 L 0.120469 0.5425 L 0.154453 0.485508 L 0.223477 0.669531 L 0.336484 0.771523 L 0.538516 0.758516 L 0.767539 0.795547 L 0.939531 0.779531 L 0.929531 0.728516 L 0.781523 0.710508 L 0.641523 0.655508 L 0.774531 0.615508 L 0.954531 0.616523 L 0.953555 0.540508 L 0.758516 0.545508 Z M 0.538516 0.554492 " transform="matrix(100,0,0,100,150,650)"/>
<path style="fill:none;stroke-width:0.01;stroke-linecap:butt;stroke-linejoin:miter;stroke:rgb(0%,0%,0%);stroke-opacity:1;stroke-miterlimit:10;" d="M 0.4975 0.428477 L 0.273477 0.424492 L 0.268477 0.282461 L 0.121445 0.0454688 L 0.0724609 0.0724609 L 0.188477 0.294492 L 0.185469 0.433477 L 0.182461 0.500508 L 0.0644531 0.526484 L 0.0794531 0.599492 L 0.186484 0.574492 L 0.199453 0.641523 L 0.208477 0.767539 L 0.0974609 0.916523 L 0.148477 0.954531 L 0.252461 0.804531 L 0.279492 0.656523 L 0.4975 0.6325 L 0.732539 0.640508 L 0.906523 0.630508 L 0.906523 0.568516 L 0.758516 0.574492 L 0.598516 0.523516 L 0.743516 0.449492 L 0.935547 0.444492 L 0.912539 0.358477 L 0.718516 0.379492 Z M 0.4975 0.428477 " transform="matrix(100,0,0,100,300,650)"/>
<path style="fill:none;stroke-width:0.01;stroke-linecap:butt;stroke-linejoin:miter;stroke:rgb(0%,0%,0%);stroke-opacity:1;stroke-miterlimit:10;" d="M 0.490508 0.393477 L 0.331484 0.363477 L 0.349492 0.291484 L 0.473516 0.386484 L 0.501484 0.339492 L 0.350469 0.217461 L 0.243477 0.339492 L 0.229492 0.434492 L 0.0454688 0.443477 L 0.0494531 0.558516 L 0.224453 0.543516 L 0.244492 0.636523 L 0.374492 0.782539 L 0.533516 0.608516 L 0.494492 0.558516 L 0.389492 0.683516 L 0.340469 0.626523 L 0.490508 0.623516 L 0.744531 0.670508 L 0.944531 0.655508 L 0.954531 0.570508 L 0.769531 0.548516 L 0.598516 0.493516 L 0.724531 0.441484 L 0.883555 0.431484 L 0.858555 0.355469 L 0.703516 0.359492 Z M 0.490508 0.393477 " transform="matrix(100,0,0,100,450,650)"/>
<path style="fill:none;stroke-width:0.01;stroke-linecap:butt;stroke-linejoin:miter;stroke:rgb(0%,0%,0%);stroke-opacity:1;stroke-miterlimit:10;" d="M 0.513516 0.390508 L 0.309492 0.386484 L 0.305469 0.263477 L 0.193477 0.0454688 L 0.146445 0.0944531 L 0.234492 0.273477 L 0.232461 0.391484 L 0.221484 0.4525 L 0.103477 0.4425 L 0.0994531 0.520508 L 0.210469 0.520508 L 0.216484 0.581523 L 0.269492 0.731523 L 0.215469 0.931563 L 0.281484 0.954531 L 0.348477 0.737539 L 0.300469 0.5775 L 0.513516 0.580508 L 0.711523 0.625508 L 0.877539 0.613516 L 0.889531 0.551523 L 0.744531 0.534492 L 0.6175 0.483516 L 0.745508 0.433477 L 0.900547 0.419492 L 0.892539 0.361484 L 0.735508 0.364492 Z M 0.513516 0.390508 " transform="matrix(100,0,0,100,600,650)"/>
</g>
</svg>
