<?xml version="1.0" encoding="UTF-8"?>
<svg xmlns="http://www.w3.org/2000/svg" xmlns:xlink="http://www.w3.org/1999/xlink" width="750pt" height="3600pt" viewBox="0 0 750 3600" version="1.1">
<g id="surface1">
<path style="fill:none;stroke-width:0.01;stroke-linecap:butt;stroke-linejoin:miter;stroke:rgb(0%,0%,0%);stroke-opacity:1;stroke-miterlimit:10;" d="M 0.509492 0.0454687 L 0.500508 0.165469 L 0.449492 0.163477 L 0.511484 0.114453 L 0.654531 0.0954688 L 0.690508 0.129453 L 0.534492 0.172461 L 0.453477 0.251484 L 0.438477 0.479492 L 0.4275 0.729531 L 0.425508 0.932539 L 0.509492 0.954531 L 0.5125 0.772539 L 0.521484 0.593516 L 0.574492 0.735508 L 0.599492 0.886523 L 0.683516 0.861523 L 0.670508 0.6925 L 0.669531 0.4725 L 0.659531 0.250469 L 0.534492 0.190469 L 0.309492 0.174453 L 0.326484 0.106445 L 0.528516 0.125469 L 0.646523 0.166484 L 0.571523 0.177461 L 0.5475 0.0514453 Z M 0.509492 0.0454687 " transform="matrix(100,0,0,100,0,200)"/>
<path style="fill:none;stroke-width:0.01;stroke-linecap:butt;stroke-linejoin:miter;stroke:rgb(0%,0%,0%);stroke-opacity:1;stroke-miterlimit:10;" d="M 0.4825 0.0454687 L 0.474492 0.205469 L 0.444492 0.340469 L 0.398477 0.215469 L 0.3875 0.0764453 L 0.354492 0.0884766 L 0.3725 0.221484 L 0.386484 0.4075 L 0.375469 0.578516 L 0.266484 0.5975 L 0.101445 0.732539 L 0.116445 0.781523 L 0.264492 0.686523 L 0.3775 0.6525 L 0.413477 0.670508 L 0.428477 0.786523 L 0.4825 0.779531 L 0.490508 0.658516 L 0.5525 0.6625 L 0.6775 0.726523 L 0.812539 0.954531 L 0.898555 0.937539 L 0.757539 0.681523 L 0.548516 0.556523 L 0.534492 0.388477 L 0.5525 0.210469 L 0.541523 0.0604688 Z M 0.4825 0.0454687 " transform="matrix(100,0,0,100,150,200)"/>
<path style="fill:none;stroke-width:0.01;stroke-linecap:butt;stroke-linejoin:miter;stroke:rgb(0%,0%,0%);stroke-opacity:1;stroke-miterlimit:10;" d="M 0.5575 0.264492 L 0.5825 0.116445 L 0.531484 0.0904687 L 0.499492 0.252461 L 0.478516 0.475508 L 0.436484 0.649531 L 0.269492 0.656523 L 0.0454687 0.754531 L 0.0554688 0.803516 L 0.287461 0.724531 L 0.421484 0.737539 L 0.463516 0.766523 L 0.470508 0.884531 L 0.5575 0.909531 L 0.614492 0.774531 L 0.737539 0.802539 L 0.927539 0.722539 L 0.931563 0.445508 L 0.838516 0.439492 L 0.843516 0.669531 L 0.757539 0.665508 L 0.808516 0.519492 L 0.954531 0.439492 L 0.939531 0.204453 L 0.868555 0.201484 L 0.858555 0.353477 L 0.691523 0.384492 Z M 0.5575 0.264492 " transform="matrix(100,0,0,100,300,200)"/>
<path style="fill:none;stroke-width:0.01;stroke-linecap:butt;stroke-linejoin:miter;stroke:rgb(0%,0%,0%);stroke-opacity:1;stroke-miterlimit:10;" d="M 0.503516 0.0454687 L 0.5375 0.137461 L 0.475508 0.157461 L 0.334492 0.251484 L 0.244492 0.3625 L 0.275469 0.3975 L 0.354492 0.298477 L 0.433477 0.260469 L 0.4475 0.498516 L 0.4275 0.749531 L 0.438477 0.924531 L 0.503516 0.918555 L 0.496484 0.800547 L 0.516484 0.638516 L 0.5475 0.744531 L 0.534492 0.942539 L 0.591523 0.954531 L 0.591523 0.772539 L 0.590508 0.534492 L 0.588516 0.300469 L 0.655508 0.358477 L 0.755508 0.336484 L 0.743516 0.306484 L 0.699531 0.333477 L 0.601523 0.201484 L 0.519492 0.171484 L 0.560508 0.0694531 Z M 0.503516 0.0454687 " transform="matrix(100,0,0,100,450,200)"/>
<path style="fill:none;stroke-width:0.01;stroke-linecap:butt;stroke-linejoin:miter;stroke:rgb(0%,0%,0%);stroke-opacity:1;stroke-miterlimit:10;" d="M 0.440508 0.0534375 L 0.4625 0.173477 L 0.420508 0.151484 L 0.264492 0.301484 L 0.120469 0.453477 L 0.158477 0.508516 L 0.297461 0.376484 L 0.401484 0.247461 L 0.391484 0.486484 L 0.3575 0.751523 L 0.366484 0.935547 L 0.440508 0.941562 L 0.430508 0.798516 L 0.479492 0.599492 L 0.504492 0.731523 L 0.515508 0.954531 L 0.5975 0.935547 L 0.5875 0.759531 L 0.564492 0.5225 L 0.556523 0.3125 L 0.700508 0.247461 L 0.879531 0.111445 L 0.835547 0.0594531 L 0.666523 0.180469 L 0.548516 0.214453 L 0.505508 0.177461 L 0.536484 0.0454687 Z M 0.440508 0.0534375 " transform="matrix(100,0,0,100,600,200)"/>
<path style="fill:none;stroke-width:0.01;stroke-linecap:butt;stroke-linejoin:miter;stroke:rgb(0%,0%,0%);stroke-opacity:1;stroke-miterlimit:10;" d="M 0.5325 0.0454687 L 0.568516 0.222461 L 0.534492 0.3925 L 0.516484 0.254492 L 0.6475 0.179453 L 0.581523 0.116445 L 0.388477 0.231484 L 0.518516 0.386484 L 0.444492 0.5325 L 0.379492 0.5025 L 0.570508 0.3775 L 0.526484 0.328477 L 0.286484 0.494492 L 0.393477 0.639531 L 0.476484 0.704531 L 0.433477 0.824531 L 0.5325 0.886523 L 0.5125 0.778516 L 0.565508 0.770508 L 0.619531 0.822539 L 0.670508 0.954531 L 0.713516 0.942539 L 0.673516 0.790547 L 0.585508 0.708516 L 0.580508 0.491484 L 0.605508 0.270469 L 0.603516 0.0764453 Z M 0.5325 0.0454687 " transform="matrix(100,0,0,100,0,350)"/>
<path style="fill:none;stroke-width:0.01;stroke-linecap:butt;stroke-linejoin:miter;stroke:rgb(0%,0%,0%);stroke-opacity:1;stroke-miterlimit:10;" d="M 0.511484 0.0454687 L 0.494492 0.152461 L 0.409492 0.174453 L 0.313477 0.246484 L 0.178477 0.346484 L 0.212461 0.389492 L 0.321484 0.300469 L 0.441484 0.292461 L 0.428477 0.505508 L 0.414492 0.764531 L 0.428477 0.954531 L 0.511484 0.946562 L 0.465508 0.747539 L 0.505508 0.584492 L 0.581523 0.720508 L 0.456484 0.843516 L 0.540508 0.890547 L 0.728516 0.714531 L 0.569492 0.559492 L 0.621523 0.403477 L 0.716523 0.441484 L 0.536484 0.594492 L 0.581523 0.660508 L 0.821523 0.443477 L 0.710508 0.300469 L 0.5975 0.238477 L 0.630508 0.0994531 Z M 0.511484 0.0454687 " transform="matrix(100,0,0,100,150,350)"/>
<path style="fill:none;stroke-width:0.01;stroke-linecap:butt;stroke-linejoin:miter;stroke:rgb(0%,0%,0%);stroke-opacity:1;stroke-miterlimit:10;" d="M 0.610508 0.0814453 L 0.618516 0.243477 L 0.569492 0.411484 L 0.526484 0.262461 L 0.523516 0.0454687 L 0.4075 0.0464453 L 0.393477 0.224453 L 0.384492 0.495508 L 0.381484 0.776523 L 0.341484 0.695508 L 0.236484 0.535508 L 0.183477 0.574492 L 0.320469 0.772539 L 0.454492 0.847539 L 0.549492 0.845547 L 0.563516 0.954531 L 0.610508 0.946562 L 0.593516 0.829531 L 0.658516 0.821523 L 0.807539 0.725508 L 0.816523 0.5675 L 0.756523 0.560508 L 0.760508 0.699531 L 0.638516 0.756523 L 0.630508 0.525508 L 0.786523 0.315469 L 0.673516 0.0594531 Z M 0.610508 0.0814453 " transform="matrix(100,0,0,100,300,350)"/>
<path style="fill:none;stroke-width:0.01;stroke-linecap:butt;stroke-linejoin:miter;stroke:rgb(0%,0%,0%);stroke-opacity:1;stroke-miterlimit:10;" d="M 0.571523 0.0664453 L 0.571523 0.180469 L 0.466484 0.181484 L 0.330469 0.271484 L 0.266484 0.3525 L 0.292461 0.378477 L 0.345469 0.305469 L 0.426484 0.232461 L 0.469492 0.413477 L 0.373477 0.6225 L 0.486484 0.851523 L 0.571523 0.863555 L 0.5375 0.711523 L 0.588516 0.539492 L 0.635508 0.714531 L 0.634531 0.894531 L 0.733516 0.954531 L 0.727539 0.773516 L 0.717539 0.5575 L 0.705508 0.330469 L 0.598516 0.257461 L 0.356484 0.265469 L 0.370469 0.221484 L 0.558516 0.196484 L 0.683516 0.230469 L 0.619531 0.199453 L 0.669531 0.0454687 Z M 0.571523 0.0664453 " transform="matrix(100,0,0,100,450,350)"/>
<path style="fill:none;stroke-width:0.01;stroke-linecap:butt;stroke-linejoin:miter;stroke:rgb(0%,0%,0%);stroke-opacity:1;stroke-miterlimit:10;" d="M 0.458477 0.0694531 L 0.471484 0.269492 L 0.460508 0.403477 L 0.411484 0.276484 L 0.434492 0.0784766 L 0.373477 0.0454687 L 0.368477 0.235469 L 0.368477 0.474492 L 0.348477 0.6925 L 0.301484 0.6275 L 0.335469 0.5025 L 0.297461 0.494492 L 0.255469 0.6525 L 0.330469 0.808516 L 0.421484 0.822539 L 0.390508 0.954531 L 0.458477 0.930547 L 0.459492 0.820547 L 0.539492 0.821523 L 0.674531 0.739531 L 0.744531 0.613516 L 0.707539 0.590508 L 0.650508 0.695508 L 0.568516 0.740508 L 0.540508 0.514492 L 0.533516 0.259492 L 0.5225 0.0694531 Z M 0.458477 0.0694531 " transform="matrix(100,0,0,100,600,350)"/>
<path style="fill:none;stroke-width:0.01;stroke-linecap:butt;stroke-linejoin:miter;stroke:rgb(0%,0%,0%);stroke-opacity:1;stroke-miterlimit:10;" d="M 0.6325 0.0454688 L 0.571523 0.126445 L 0.5075 0.127461 L 0.338477 0.170469 L 0.238477 0.292461 L 0.283477 0.319492 L 0.358477 0.214453 L 0.4975 0.214453 L 0.3925 0.439492 L 0.280469 0.6875 L 0.213477 0.859531 L 0.3175 0.832539 L 0.296484 0.671523 L 0.464492 0.633516 L 0.6325 0.756523 L 0.580508 0.945547 L 0.696523 0.954531 L 0.701523 0.784531 L 0.699531 0.580508 L 0.6925 0.383477 L 0.731523 0.431484 L 0.666523 0.576523 L 0.707539 0.579492 L 0.786523 0.3975 L 0.719531 0.273477 L 0.670508 0.241484 L 0.725508 0.0924609 Z M 0.6325 0.0454688 " transform="matrix(100,0,0,100,0,500)"/>
<path style="fill:none;stroke-width:0.01;stroke-linecap:butt;stroke-linejoin:miter;stroke:rgb(0%,0%,0%);stroke-opacity:1;stroke-miterlimit:10;" d="M 0.574492 0.0684375 L 0.589492 0.214453 L 0.565508 0.353477 L 0.520508 0.217461 L 0.544492 0.0654687 L 0.451484 0.0454688 L 0.446484 0.198477 L 0.438477 0.406484 L 0.410508 0.626523 L 0.335469 0.6375 L 0.197461 0.732539 L 0.225469 0.755508 L 0.349492 0.698516 L 0.428477 0.689531 L 0.4825 0.693516 L 0.5275 0.830547 L 0.574492 0.838516 L 0.549492 0.713516 L 0.6275 0.729531 L 0.691523 0.792539 L 0.746523 0.954531 L 0.802539 0.928555 L 0.738516 0.749531 L 0.656523 0.650508 L 0.636523 0.4425 L 0.630508 0.225469 L 0.626523 0.0584375 Z M 0.574492 0.0684375 " transform="matrix(100,0,0,100,150,500)"/>
<path style="fill:none;stroke-width:0.01;stroke-linecap:butt;stroke-linejoin:miter;stroke:rgb(0%,0%,0%);stroke-opacity:1;stroke-miterlimit:10;" d="M 0.385508 0.0944531 L 0.381484 0.161484 L 0.354492 0.179453 L 0.434492 0.0964453 L 0.665508 0.0454688 L 0.725508 0.0854688 L 0.4925 0.161484 L 0.369492 0.294492 L 0.3375 0.535508 L 0.321484 0.778516 L 0.321484 0.950547 L 0.385508 0.954531 L 0.354492 0.773516 L 0.4075 0.640508 L 0.413477 0.786523 L 0.274492 0.862539 L 0.335469 0.942539 L 0.561523 0.819531 L 0.405508 0.654531 L 0.490508 0.489492 L 0.5725 0.5325 L 0.359492 0.6625 L 0.403477 0.730508 L 0.671523 0.5425 L 0.573516 0.384492 L 0.460508 0.301484 L 0.521484 0.153477 Z M 0.385508 0.0944531 " transform="matrix(100,0,0,100,300,500)"/>
<path style="fill:none;stroke-width:0.01;stroke-linecap:butt;stroke-linejoin:miter;stroke:rgb(0%,0%,0%);stroke-opacity:1;stroke-miterlimit:10;" d="M 0.504492 0.112461 L 0.443477 0.218477 L 0.386484 0.186484 L 0.424492 0.143477 L 0.516484 0.104453 L 0.501484 0.0784766 L 0.401484 0.110469 L 0.334492 0.170469 L 0.237461 0.383477 L 0.116445 0.635508 L 0.0454688 0.815547 L 0.157461 0.809531 L 0.146445 0.635508 L 0.338477 0.6325 L 0.504492 0.790547 L 0.488516 0.924531 L 0.560508 0.907539 L 0.548516 0.745508 L 0.553516 0.555508 L 0.604492 0.3425 L 0.755508 0.343477 L 0.954531 0.203477 L 0.918555 0.166484 L 0.736523 0.258477 L 0.610508 0.255469 L 0.590508 0.223477 L 0.606523 0.0754687 Z M 0.504492 0.112461 " transform="matrix(100,0,0,100,450,500)"/>
<path style="fill:none;stroke-width:0.01;stroke-linecap:butt;stroke-linejoin:miter;stroke:rgb(0%,0%,0%);stroke-opacity:1;stroke-miterlimit:10;" d="M 0.393477 0.0654687 L 0.415508 0.205469 L 0.3625 0.351484 L 0.331484 0.218477 L 0.330469 0.0954688 L 0.273477 0.140469 L 0.287461 0.292461 L 0.303477 0.473516 L 0.295469 0.639531 L 0.261484 0.575508 L 0.303477 0.453477 L 0.280469 0.438477 L 0.214453 0.604492 L 0.278477 0.708516 L 0.330469 0.731523 L 0.344492 0.842539 L 0.393477 0.818516 L 0.454492 0.728516 L 0.519492 0.747539 L 0.616523 0.806523 L 0.724531 0.954531 L 0.785547 0.921523 L 0.665508 0.740508 L 0.526484 0.661523 L 0.514492 0.464492 L 0.485508 0.223477 L 0.466484 0.0454688 Z M 0.393477 0.0654687 " transform="matrix(100,0,0,100,600,500)"/>
<path style="fill:none;stroke-width:0.01;stroke-linecap:butt;stroke-linejoin:miter;stroke:rgb(0%,0%,0%);stroke-opacity:1;stroke-miterlimit:10;" d="M 0.471484 0.0454688 L 0.4725 0.177461 L 0.391484 0.188477 L 0.273477 0.275469 L 0.160469 0.385508 L 0.191484 0.419492 L 0.283477 0.3225 L 0.375469 0.240469 L 0.413477 0.455508 L 0.302461 0.6875 L 0.400508 0.947539 L 0.471484 0.951563 L 0.443477 0.800547 L 0.505508 0.638516 L 0.544492 0.770508 L 0.559492 0.954531 L 0.594492 0.939531 L 0.6025 0.770508 L 0.5925 0.515508 L 0.608516 0.252461 L 0.709531 0.238477 L 0.839531 0.119453 L 0.825547 0.0794531 L 0.6825 0.170469 L 0.5925 0.177461 L 0.494492 0.192461 L 0.524492 0.0624609 Z M 0.471484 0.0454688 " transform="matrix(100,0,0,100,0,650)"/>
<path style="fill:none;stroke-width:0.01;stroke-linecap:butt;stroke-linejoin:miter;stroke:rgb(0%,0%,0%);stroke-opacity:1;stroke-miterlimit:10;" d="M 0.355469 0.0454688 L 0.316484 0.213477 L 0.243477 0.201484 L 0.151484 0.258477 L 0.0764453 0.403477 L 0.123477 0.4375 L 0.195469 0.295469 L 0.316484 0.287461 L 0.303477 0.489492 L 0.281484 0.724531 L 0.277461 0.926523 L 0.355469 0.918555 L 0.3725 0.792539 L 0.414492 0.621523 L 0.438477 0.740508 L 0.444492 0.908555 L 0.5225 0.954531 L 0.534492 0.753516 L 0.581523 0.4975 L 0.604492 0.265469 L 0.738516 0.255469 L 0.923555 0.156484 L 0.887539 0.0984766 L 0.710508 0.177461 L 0.604492 0.182461 L 0.485508 0.180469 L 0.455508 0.0714453 Z M 0.355469 0.0454688 " transform="matrix(100,0,0,100,150,650)"/>
<path style="fill:none;stroke-width:0.01;stroke-linecap:butt;stroke-linejoin:miter;stroke:rgb(0%,0%,0%);stroke-opacity:1;stroke-miterlimit:10;" d="M 0.4925 0.0454688 L 0.513516 0.152461 L 0.429492 0.156484 L 0.299492 0.225469 L 0.156484 0.389492 L 0.200469 0.455508 L 0.326484 0.294492 L 0.4275 0.272461 L 0.405508 0.4825 L 0.414492 0.741523 L 0.4175 0.914531 L 0.4925 0.924531 L 0.4825 0.773516 L 0.508516 0.584492 L 0.535508 0.711523 L 0.531484 0.939531 L 0.606523 0.954531 L 0.594492 0.773516 L 0.585508 0.516484 L 0.564492 0.261484 L 0.681523 0.243477 L 0.843516 0.109453 L 0.818516 0.0674609 L 0.6725 0.166484 L 0.5725 0.182461 L 0.549492 0.147461 L 0.5475 0.0484375 Z M 0.4925 0.0454688 " transform="matrix(100,0,0,100,300,650)"/>
<path style="fill:none;stroke-width:0.01;stroke-linecap:butt;stroke-linejoin:miter;stroke:rgb(0%,0%,0%);stroke-opacity:1;stroke-miterlimit:10;" d="M 0.624531 0.0714453 L 0.626523 0.241484 L 0.5975 0.398477 L 0.544492 0.270469 L 0.5425 0.109453 L 0.4725 0.0844531 L 0.499492 0.249492 L 0.516484 0.454492 L 0.511484 0.663516 L 0.404492 0.712539 L 0.205469 0.867539 L 0.232461 0.920547 L 0.3975 0.794531 L 0.518516 0.765508 L 0.571523 0.768516 L 0.5525 0.862539 L 0.624531 0.877539 L 0.638516 0.743516 L 0.6825 0.720508 L 0.724531 0.781523 L 0.738516 0.947539 L 0.789531 0.954531 L 0.794531 0.779531 L 0.728516 0.6725 L 0.695508 0.450508 L 0.654531 0.216484 L 0.626523 0.0454688 Z M 0.624531 0.0714453 " transform="matrix(100,0,0,100,450,650)"/>
<path style="fill:none;stroke-width:0.01;stroke-linecap:butt;stroke-linejoin:miter;stroke:rgb(0%,0%,0%);stroke-opacity:1;stroke-miterlimit:10;" d="M 0.4025 0.0454688 L 0.404492 0.160469 L 0.353477 0.187461 L 0.217461 0.291484 L 0.170469 0.3575 L 0.193477 0.370469 L 0.227461 0.316484 L 0.310469 0.293477 L 0.318477 0.508516 L 0.318477 0.776523 L 0.335469 0.954531 L 0.4025 0.939531 L 0.3925 0.722539 L 0.418477 0.554492 L 0.430508 0.710508 L 0.414492 0.863555 L 0.494492 0.886523 L 0.523516 0.698516 L 0.5425 0.483516 L 0.575508 0.264492 L 0.673516 0.261484 L 0.829531 0.187461 L 0.806523 0.156484 L 0.661523 0.208477 L 0.5775 0.203477 L 0.516484 0.174453 L 0.498516 0.0484375 Z M 0.4025 0.0454688 " transform="matrix(100,0,0,100,600,650)"/>
</g>
</svg>
