<?xml version="1.0" encoding="UTF-8"?>
<svg xmlns="http://www.w3.org/2000/svg" xmlns:xlink="http://www.w3.org/1999/xlink" width="750pt" height="3600pt" viewBox="0 0 750 3600" version="1.1">
<g id="surface1">
<path style="fill:none;stroke-width:0.01;stroke-linecap:butt;stroke-linejoin:miter;stroke:rgb(0%,0%,0%);stroke-opacity:1;stroke-miterlimit:10;" d="M 0.536484 0.4075 L 0.309492 0.408477 L 0.436484 0.391484 L 0.5675 0.414492 L 0.5925 0.360469 L 0.4225 0.345469 L 0.220469 0.3825 L 0.182461 0.465508 L 0.0494531 0.459492 L 0.0454688 0.534492 L 0.173477 0.541523 L 0.205469 0.616523 L 0.393477 0.654531 L 0.6025 0.6125 L 0.588516 0.555508 L 0.4275 0.595508 L 0.285469 0.584492 L 0.536484 0.581523 L 0.779531 0.603516 L 0.954531 0.604492 L 0.946562 0.529492 L 0.778516 0.5275 L 0.614492 0.498516 L 0.769531 0.454492 L 0.939531 0.448477 L 0.931563 0.3675 L 0.751523 0.384492 Z M 0.536484 0.4075 " transform="matrix(100,0,0,100,0,200)"/>
<path style="fill:none;stroke-width:0.01;stroke-linecap:butt;stroke-linejoin:miter;stroke:rgb(0%,0%,0%);stroke-opacity:1;stroke-miterlimit:10;" d="M 0.535508 0.396484 L 0.309492 0.3975 L 0.225469 0.413477 L 0.138477 0.401484 L 0.122461 0.4375 L 0.171484 0.415508 L 0.221484 0.3725 L 0.182461 0.455508 L 0.0474609 0.448477 L 0.0454687 0.523516 L 0.173477 0.530508 L 0.205469 0.605508 L 0.391484 0.646523 L 0.599492 0.604492 L 0.586523 0.5475 L 0.424492 0.5875 L 0.285469 0.574492 L 0.535508 0.571523 L 0.779531 0.591523 L 0.954531 0.591523 L 0.947539 0.5175 L 0.780547 0.5175 L 0.614492 0.4875 L 0.769531 0.441484 L 0.937539 0.435508 L 0.927539 0.353477 L 0.750508 0.370469 Z M 0.535508 0.396484 " transform="matrix(100,0,0,100,150,200)"/>
<path style="fill:none;stroke-width:0.01;stroke-linecap:butt;stroke-linejoin:miter;stroke:rgb(0%,0%,0%);stroke-opacity:1;stroke-miterlimit:10;" d="M 0.536484 0.406484 L 0.308477 0.4075 L 0.436484 0.391484 L 0.565508 0.414492 L 0.591523 0.360469 L 0.423477 0.344492 L 0.220469 0.381484 L 0.182461 0.465508 L 0.0494531 0.456484 L 0.0454687 0.531484 L 0.173477 0.540508 L 0.205469 0.615508 L 0.393477 0.655508 L 0.6025 0.613516 L 0.589492 0.556523 L 0.4275 0.5975 L 0.286484 0.583516 L 0.536484 0.581523 L 0.780547 0.6025 L 0.954531 0.603516 L 0.945547 0.528516 L 0.777539 0.526484 L 0.614492 0.4975 L 0.771523 0.450508 L 0.938555 0.445508 L 0.929531 0.366484 L 0.751523 0.384492 Z M 0.536484 0.406484 " transform="matrix(100,0,0,100,300,200)"/>
<path style="fill:none;stroke-width:0.01;stroke-linecap:butt;stroke-linejoin:miter;stroke:rgb(0%,0%,0%);stroke-opacity:1;stroke-miterlimit:10;" d="M 0.535508 0.396484 L 0.308477 0.399492 L 0.224453 0.413477 L 0.137461 0.401484 L 0.121445 0.4375 L 0.170469 0.415508 L 0.220469 0.3725 L 0.182461 0.456484 L 0.0484375 0.449492 L 0.0454688 0.525508 L 0.173477 0.5325 L 0.204453 0.606523 L 0.394492 0.645508 L 0.600508 0.604492 L 0.588516 0.546523 L 0.426484 0.5875 L 0.285469 0.574492 L 0.535508 0.571523 L 0.780547 0.591523 L 0.954531 0.593516 L 0.945547 0.5175 L 0.777539 0.518516 L 0.614492 0.4875 L 0.771523 0.441484 L 0.939531 0.435508 L 0.929531 0.354492 L 0.748516 0.371484 Z M 0.535508 0.396484 " transform="matrix(100,0,0,100,450,200)"/>
<path style="fill:none;stroke-width:0.01;stroke-linecap:butt;stroke-linejoin:miter;stroke:rgb(0%,0%,0%);stroke-opacity:1;stroke-miterlimit:10;" d="M 0.535508 0.3975 L 0.309492 0.399492 L 0.224453 0.415508 L 0.138477 0.4025 L 0.121445 0.439492 L 0.170469 0.416484 L 0.220469 0.373477 L 0.182461 0.456484 L 0.0494531 0.449492 L 0.0454688 0.524492 L 0.173477 0.531484 L 0.204453 0.606523 L 0.3925 0.6475 L 0.600508 0.605508 L 0.588516 0.549492 L 0.425508 0.588516 L 0.285469 0.574492 L 0.535508 0.571523 L 0.780547 0.593516 L 0.954531 0.593516 L 0.946562 0.518516 L 0.776523 0.518516 L 0.613516 0.4875 L 0.769531 0.440508 L 0.938555 0.435508 L 0.931563 0.3525 L 0.752539 0.371484 Z M 0.535508 0.3975 " transform="matrix(100,0,0,100,600,200)"/>
<path style="fill:none;stroke-width:0.01;stroke-linecap:butt;stroke-linejoin:miter;stroke:rgb(0%,0%,0%);stroke-opacity:1;stroke-miterlimit:10;" d="M 0.536484 0.396484 L 0.310469 0.398477 L 0.225469 0.413477 L 0.139453 0.400508 L 0.123477 0.4375 L 0.172461 0.414492 L 0.222461 0.3725 L 0.184453 0.454492 L 0.0494531 0.446484 L 0.0454688 0.5225 L 0.175469 0.530508 L 0.206484 0.604492 L 0.394492 0.645508 L 0.603516 0.603516 L 0.590508 0.546523 L 0.4275 0.586523 L 0.287461 0.5725 L 0.536484 0.570508 L 0.781523 0.591523 L 0.954531 0.590508 L 0.946562 0.516484 L 0.777539 0.515508 L 0.614492 0.486484 L 0.769531 0.441484 L 0.936562 0.435508 L 0.929531 0.354492 L 0.748516 0.3725 Z M 0.536484 0.396484 " transform="matrix(100,0,0,100,0,350)"/>
<path style="fill:none;stroke-width:0.01;stroke-linecap:butt;stroke-linejoin:miter;stroke:rgb(0%,0%,0%);stroke-opacity:1;stroke-miterlimit:10;" d="M 0.535508 0.404492 L 0.308477 0.406484 L 0.434492 0.390508 L 0.563516 0.414492 L 0.589492 0.361484 L 0.4225 0.344492 L 0.221484 0.380469 L 0.183477 0.4625 L 0.0494531 0.454492 L 0.0454687 0.530508 L 0.174453 0.538516 L 0.206484 0.6125 L 0.394492 0.655508 L 0.603516 0.614492 L 0.590508 0.556523 L 0.4275 0.594492 L 0.287461 0.581523 L 0.535508 0.578516 L 0.780547 0.599492 L 0.954531 0.598516 L 0.946563 0.523516 L 0.777539 0.5225 L 0.614492 0.494492 L 0.768516 0.4475 L 0.936562 0.4425 L 0.929531 0.3625 L 0.751523 0.380469 Z M 0.535508 0.404492 " transform="matrix(100,0,0,100,150,350)"/>
<path style="fill:none;stroke-width:0.01;stroke-linecap:butt;stroke-linejoin:miter;stroke:rgb(0%,0%,0%);stroke-opacity:1;stroke-miterlimit:10;" d="M 0.534492 0.395508 L 0.3075 0.3975 L 0.224453 0.411484 L 0.138477 0.399492 L 0.122461 0.436484 L 0.171484 0.413477 L 0.220469 0.371484 L 0.182461 0.453477 L 0.0484375 0.446484 L 0.0454687 0.523516 L 0.173477 0.529492 L 0.204453 0.604492 L 0.3925 0.644531 L 0.600508 0.603516 L 0.586523 0.545508 L 0.425508 0.584492 L 0.285469 0.5725 L 0.534492 0.570508 L 0.779531 0.590508 L 0.954531 0.590508 L 0.946563 0.515508 L 0.777539 0.515508 L 0.613516 0.485508 L 0.768516 0.440508 L 0.936562 0.434492 L 0.927539 0.355469 L 0.748516 0.371484 Z M 0.534492 0.395508 " transform="matrix(100,0,0,100,300,350)"/>
<path style="fill:none;stroke-width:0.01;stroke-linecap:butt;stroke-linejoin:miter;stroke:rgb(0%,0%,0%);stroke-opacity:1;stroke-miterlimit:10;" d="M 0.535508 0.406484 L 0.309492 0.4075 L 0.438477 0.389492 L 0.566523 0.414492 L 0.5925 0.3625 L 0.4225 0.345469 L 0.221484 0.381484 L 0.183477 0.464492 L 0.0494531 0.456484 L 0.0454688 0.5325 L 0.174453 0.540508 L 0.205469 0.614492 L 0.393477 0.654531 L 0.601523 0.610508 L 0.5875 0.551523 L 0.425508 0.593516 L 0.286484 0.5825 L 0.535508 0.580508 L 0.780547 0.603516 L 0.954531 0.6025 L 0.945547 0.5275 L 0.778516 0.525508 L 0.614492 0.496484 L 0.769531 0.450508 L 0.938555 0.446484 L 0.932539 0.365469 L 0.750508 0.383477 Z M 0.535508 0.406484 " transform="matrix(100,0,0,100,450,350)"/>
<path style="fill:none;stroke-width:0.01;stroke-linecap:butt;stroke-linejoin:miter;stroke:rgb(0%,0%,0%);stroke-opacity:1;stroke-miterlimit:10;" d="M 0.536484 0.3975 L 0.308477 0.398477 L 0.225469 0.413477 L 0.139453 0.400508 L 0.123477 0.4375 L 0.171484 0.414492 L 0.220469 0.3725 L 0.183477 0.454492 L 0.0484375 0.4475 L 0.0454688 0.524492 L 0.174453 0.531484 L 0.206484 0.605508 L 0.391484 0.645508 L 0.5975 0.603516 L 0.583516 0.545508 L 0.421484 0.586523 L 0.285469 0.574492 L 0.536484 0.571523 L 0.781523 0.5925 L 0.954531 0.5925 L 0.945547 0.518516 L 0.778516 0.5175 L 0.614492 0.4875 L 0.768516 0.441484 L 0.937539 0.436484 L 0.929531 0.354492 L 0.749531 0.3725 Z M 0.536484 0.3975 " transform="matrix(100,0,0,100,600,350)"/>
<path style="fill:none;stroke-width:0.01;stroke-linecap:butt;stroke-linejoin:miter;stroke:rgb(0%,0%,0%);stroke-opacity:1;stroke-miterlimit:10;" d="M 0.534492 0.396484 L 0.3075 0.400508 L 0.223477 0.414492 L 0.137461 0.401484 L 0.121445 0.438477 L 0.170469 0.416484 L 0.220469 0.373477 L 0.182461 0.455508 L 0.0484375 0.4475 L 0.0454688 0.523516 L 0.173477 0.531484 L 0.204453 0.605508 L 0.391484 0.645508 L 0.599492 0.604492 L 0.586523 0.546523 L 0.424492 0.5875 L 0.284492 0.573516 L 0.534492 0.571523 L 0.780547 0.590508 L 0.954531 0.590508 L 0.946562 0.515508 L 0.778516 0.516484 L 0.613516 0.486484 L 0.768516 0.439492 L 0.936562 0.434492 L 0.926523 0.354492 L 0.748516 0.3725 Z M 0.534492 0.396484 " transform="matrix(100,0,0,100,0,500)"/>
<path style="fill:none;stroke-width:0.01;stroke-linecap:butt;stroke-linejoin:miter;stroke:rgb(0%,0%,0%);stroke-opacity:1;stroke-miterlimit:10;" d="M 0.535508 0.404492 L 0.309492 0.405508 L 0.4375 0.390508 L 0.565508 0.416484 L 0.593516 0.3625 L 0.425508 0.345469 L 0.221484 0.379492 L 0.183477 0.4625 L 0.0504688 0.454492 L 0.0454687 0.530508 L 0.173477 0.538516 L 0.205469 0.613516 L 0.3925 0.654531 L 0.601523 0.611523 L 0.589492 0.553516 L 0.4275 0.594492 L 0.286484 0.581523 L 0.535508 0.579492 L 0.780547 0.600508 L 0.954531 0.600508 L 0.945547 0.525508 L 0.776523 0.525508 L 0.614492 0.495508 L 0.769531 0.449492 L 0.938555 0.444492 L 0.931563 0.361484 L 0.750508 0.380469 Z M 0.535508 0.404492 " transform="matrix(100,0,0,100,150,500)"/>
<path style="fill:none;stroke-width:0.01;stroke-linecap:butt;stroke-linejoin:miter;stroke:rgb(0%,0%,0%);stroke-opacity:1;stroke-miterlimit:10;" d="M 0.534492 0.396484 L 0.3075 0.398477 L 0.224453 0.4125 L 0.137461 0.400508 L 0.121445 0.436484 L 0.171484 0.414492 L 0.219453 0.3725 L 0.182461 0.454492 L 0.0484375 0.4475 L 0.0454687 0.5225 L 0.172461 0.530508 L 0.204453 0.605508 L 0.391484 0.646523 L 0.599492 0.605508 L 0.585508 0.549492 L 0.423477 0.588516 L 0.284492 0.574492 L 0.534492 0.571523 L 0.780547 0.594492 L 0.954531 0.594492 L 0.947539 0.518516 L 0.778516 0.516484 L 0.613516 0.4875 L 0.769531 0.441484 L 0.939531 0.435508 L 0.929531 0.353477 L 0.749531 0.371484 Z M 0.534492 0.396484 " transform="matrix(100,0,0,100,300,500)"/>
<path style="fill:none;stroke-width:0.01;stroke-linecap:butt;stroke-linejoin:miter;stroke:rgb(0%,0%,0%);stroke-opacity:1;stroke-miterlimit:10;" d="M 0.536484 0.404492 L 0.308477 0.406484 L 0.435508 0.390508 L 0.565508 0.415508 L 0.5925 0.3625 L 0.4225 0.345469 L 0.220469 0.380469 L 0.182461 0.463516 L 0.0474609 0.4575 L 0.0454688 0.533516 L 0.173477 0.539492 L 0.205469 0.613516 L 0.3925 0.654531 L 0.599492 0.613516 L 0.585508 0.5575 L 0.423477 0.595508 L 0.285469 0.5825 L 0.536484 0.579492 L 0.782539 0.599492 L 0.954531 0.599492 L 0.945547 0.524492 L 0.777539 0.524492 L 0.614492 0.495508 L 0.769531 0.4475 L 0.938555 0.443477 L 0.930547 0.360469 L 0.750508 0.379492 Z M 0.536484 0.404492 " transform="matrix(100,0,0,100,450,500)"/>
<path style="fill:none;stroke-width:0.01;stroke-linecap:butt;stroke-linejoin:miter;stroke:rgb(0%,0%,0%);stroke-opacity:1;stroke-miterlimit:10;" d="M 0.534492 0.3975 L 0.308477 0.399492 L 0.224453 0.4125 L 0.139453 0.400508 L 0.122461 0.4375 L 0.171484 0.414492 L 0.221484 0.373477 L 0.182461 0.456484 L 0.0494531 0.449492 L 0.0454688 0.523516 L 0.173477 0.531484 L 0.204453 0.606523 L 0.390508 0.645508 L 0.599492 0.603516 L 0.585508 0.545508 L 0.425508 0.586523 L 0.285469 0.574492 L 0.534492 0.571523 L 0.780547 0.5925 L 0.954531 0.591523 L 0.946562 0.516484 L 0.778516 0.5175 L 0.613516 0.4875 L 0.768516 0.4425 L 0.937539 0.436484 L 0.929531 0.354492 L 0.749531 0.371484 Z M 0.534492 0.3975 " transform="matrix(100,0,0,100,600,500)"/>
<path style="fill:none;stroke-width:0.01;stroke-linecap:butt;stroke-linejoin:miter;stroke:rgb(0%,0%,0%);stroke-opacity:1;stroke-miterlimit:10;" d="M 0.535508 0.395508 L 0.3075 0.3975 L 0.223477 0.4125 L 0.138477 0.399492 L 0.122461 0.435508 L 0.170469 0.413477 L 0.220469 0.371484 L 0.182461 0.453477 L 0.0484375 0.446484 L 0.0454688 0.521484 L 0.173477 0.529492 L 0.204453 0.604492 L 0.391484 0.644531 L 0.600508 0.604492 L 0.588516 0.545508 L 0.426484 0.586523 L 0.285469 0.5725 L 0.535508 0.569492 L 0.780547 0.590508 L 0.954531 0.591523 L 0.946562 0.5175 L 0.776523 0.515508 L 0.613516 0.485508 L 0.770508 0.440508 L 0.938555 0.435508 L 0.929531 0.355469 L 0.749531 0.3725 Z M 0.535508 0.395508 " transform="matrix(100,0,0,100,0,650)"/>
<path style="fill:none;stroke-width:0.01;stroke-linecap:butt;stroke-linejoin:miter;stroke:rgb(0%,0%,0%);stroke-opacity:1;stroke-miterlimit:10;" d="M 0.534492 0.3975 L 0.306484 0.399492 L 0.223477 0.413477 L 0.137461 0.401484 L 0.120469 0.438477 L 0.168477 0.416484 L 0.218477 0.373477 L 0.180469 0.456484 L 0.0484375 0.450508 L 0.0454687 0.525508 L 0.171484 0.531484 L 0.203477 0.606523 L 0.3925 0.645508 L 0.599492 0.606523 L 0.585508 0.549492 L 0.424492 0.589492 L 0.284492 0.574492 L 0.534492 0.571523 L 0.780547 0.594492 L 0.954531 0.594492 L 0.946563 0.518516 L 0.776523 0.516484 L 0.613516 0.488516 L 0.770508 0.440508 L 0.940547 0.436484 L 0.934531 0.354492 L 0.751523 0.371484 Z M 0.534492 0.3975 " transform="matrix(100,0,0,100,150,650)"/>
<path style="fill:none;stroke-width:0.01;stroke-linecap:butt;stroke-linejoin:miter;stroke:rgb(0%,0%,0%);stroke-opacity:1;stroke-miterlimit:10;" d="M 0.534492 0.3975 L 0.3075 0.398477 L 0.222461 0.413477 L 0.137461 0.401484 L 0.121445 0.4375 L 0.170469 0.415508 L 0.219453 0.373477 L 0.182461 0.456484 L 0.0484375 0.449492 L 0.0454687 0.524492 L 0.173477 0.531484 L 0.205469 0.606523 L 0.3925 0.645508 L 0.599492 0.603516 L 0.584492 0.546523 L 0.424492 0.585508 L 0.285469 0.574492 L 0.534492 0.571523 L 0.781523 0.5925 L 0.954531 0.593516 L 0.944531 0.5175 L 0.775547 0.518516 L 0.613516 0.4875 L 0.766523 0.441484 L 0.935547 0.435508 L 0.927539 0.354492 L 0.748516 0.373477 Z M 0.534492 0.3975 " transform="matrix(100,0,0,100,300,650)"/>
<path style="fill:none;stroke-width:0.01;stroke-linecap:butt;stroke-linejoin:miter;stroke:rgb(0%,0%,0%);stroke-opacity:1;stroke-miterlimit:10;" d="M 0.534492 0.3975 L 0.308477 0.399492 L 0.223477 0.414492 L 0.135469 0.4025 L 0.119453 0.438477 L 0.169453 0.415508 L 0.219453 0.3725 L 0.181484 0.455508 L 0.0474609 0.450508 L 0.0454688 0.524492 L 0.172461 0.531484 L 0.203477 0.605508 L 0.388477 0.646523 L 0.596523 0.604492 L 0.583516 0.5475 L 0.421484 0.588516 L 0.283477 0.574492 L 0.534492 0.571523 L 0.780547 0.594492 L 0.954531 0.595508 L 0.945547 0.519492 L 0.778516 0.518516 L 0.613516 0.488516 L 0.770508 0.440508 L 0.939531 0.435508 L 0.930547 0.353477 L 0.751523 0.371484 Z M 0.534492 0.3975 " transform="matrix(100,0,0,100,450,650)"/>
<path style="fill:none;stroke-width:0.01;stroke-linecap:butt;stroke-linejoin:miter;stroke:rgb(0%,0%,0%);stroke-opacity:1;stroke-miterlimit:10;" d="M 0.534492 0.3975 L 0.3075 0.398477 L 0.224453 0.414492 L 0.137461 0.4025 L 0.121445 0.438477 L 0.170469 0.415508 L 0.219453 0.3725 L 0.181484 0.456484 L 0.0494531 0.448477 L 0.0454688 0.523516 L 0.171484 0.531484 L 0.203477 0.605508 L 0.391484 0.644531 L 0.599492 0.6025 L 0.585508 0.546523 L 0.424492 0.584492 L 0.283477 0.573516 L 0.534492 0.571523 L 0.781523 0.591523 L 0.954531 0.5925 L 0.947539 0.516484 L 0.777539 0.5175 L 0.613516 0.4875 L 0.770508 0.443477 L 0.938555 0.436484 L 0.932539 0.355469 L 0.752539 0.373477 Z M 0.534492 0.3975 " transform="matrix(100,0,0,100,600,650)"/>
</g>
</svg>
