<?xml version="1.0" encoding="UTF-8"?>
<svg xmlns="http://www.w3.org/2000/svg" xmlns:xlink="http://www.w3.org/1999/xlink" width="750pt" height="3600pt" viewBox="0 0 750 3600" version="1.1">
<g id="surface1">
<path style="fill:none;stroke-width:0.01;stroke-linecap:butt;stroke-linejoin:miter;stroke:rgb(0%,0%,0%);stroke-opacity:1;stroke-miterlimit:10;" d="M 0.4875 0.538516 L 0.254492 0.506484 L 0.252461 0.346484 L 0.123477 0.107461 L 0.0594531 0.126445 L 0.390508 0.222461 L 0.169453 0.506484 L 0.156484 0.580508 L 0.0504687 0.5675 L 0.0454688 0.635508 L 0.145469 0.649531 L 0.140469 0.722539 L 0.209453 0.892539 L 0.4225 0.810547 L 0.4325 0.763516 L 0.253477 0.859531 L 0.239492 0.743516 L 0.4875 0.767539 L 0.749531 0.792539 L 0.954531 0.776523 L 0.932539 0.703516 L 0.712539 0.850547 L 0.596523 0.640508 L 0.745508 0.5875 L 0.917539 0.589492 L 0.930547 0.5125 L 0.738516 0.509492 Z M 0.4875 0.538516 " transform="matrix(100,0,0,100,0,200)"/>
<path style="fill:none;stroke-width:0.01;stroke-linecap:butt;stroke-linejoin:miter;stroke:rgb(0%,0%,0%);stroke-opacity:1;stroke-miterlimit:10;" d="M 0.485508 0.4225 L 0.310469 0.384492 L 0.335469 0.276484 L 0.285469 0.0714453 L 0.239492 0.0864453 L 0.449492 0.221484 L 0.230469 0.378477 L 0.231484 0.458477 L 0.0454687 0.476484 L 0.0584375 0.589492 L 0.242461 0.5725 L 0.257461 0.671523 L 0.3075 0.759531 L 0.281484 0.925547 L 0.3425 0.928555 L 0.180469 0.673516 L 0.335469 0.664531 L 0.485508 0.648516 L 0.715508 0.700508 L 0.918555 0.6875 L 0.917539 0.603516 L 0.756523 0.6025 L 0.5875 0.533516 L 0.750508 0.468516 L 0.942539 0.496484 L 0.954531 0.421484 L 0.751523 0.416484 Z M 0.485508 0.4225 " transform="matrix(100,0,0,100,150,200)"/>
<path style="fill:none;stroke-width:0.01;stroke-linecap:butt;stroke-linejoin:miter;stroke:rgb(0%,0%,0%);stroke-opacity:1;stroke-miterlimit:10;" d="M 0.5225 0.239492 L 0.280469 0.250469 L 0.201484 0.341484 L 0.146445 0.534492 L 0.0844531 0.513516 L 0.138477 0.338477 L 0.175469 0.255469 L 0.177461 0.328477 L 0.0454687 0.324492 L 0.0454687 0.408477 L 0.176484 0.414492 L 0.189453 0.488516 L 0.195469 0.618516 L 0.0804688 0.783516 L 0.154453 0.802539 L 0.104453 0.456484 L 0.290469 0.505508 L 0.5225 0.4675 L 0.789531 0.469492 L 0.954531 0.423477 L 0.930547 0.365469 L 0.751523 0.523516 L 0.624531 0.340469 L 0.768516 0.280469 L 0.927539 0.268477 L 0.930547 0.197461 L 0.754531 0.219453 Z M 0.5225 0.239492 " transform="matrix(100,0,0,100,300,200)"/>
<path style="fill:none;stroke-width:0.01;stroke-linecap:butt;stroke-linejoin:miter;stroke:rgb(0%,0%,0%);stroke-opacity:1;stroke-miterlimit:10;" d="M 0.5025 0.241484 L 0.269492 0.258477 L 0.172461 0.3125 L 0.0854688 0.485508 L 0.0544531 0.443477 L 0.160469 0.135469 L 0.169453 0.249492 L 0.161484 0.330469 L 0.0464453 0.325469 L 0.0454688 0.400508 L 0.157461 0.406484 L 0.166484 0.469492 L 0.208477 0.631523 L 0.117461 0.855547 L 0.203477 0.864531 L 0.236484 0.608516 L 0.252461 0.4725 L 0.5025 0.454492 L 0.716523 0.473516 L 0.883555 0.449492 L 0.863555 0.3825 L 0.716523 0.533516 L 0.593516 0.360469 L 0.768516 0.339492 L 0.954531 0.3825 L 0.946562 0.283477 L 0.746523 0.267461 Z M 0.5025 0.241484 " transform="matrix(100,0,0,100,450,200)"/>
<path style="fill:none;stroke-width:0.01;stroke-linecap:butt;stroke-linejoin:miter;stroke:rgb(0%,0%,0%);stroke-opacity:1;stroke-miterlimit:10;" d="M 0.479492 0.511484 L 0.267461 0.4925 L 0.375469 0.474492 L 0.195469 0.165469 L 0.138477 0.175469 L 0.3875 0.3075 L 0.182461 0.4925 L 0.171484 0.555508 L 0.0594531 0.540508 L 0.0454688 0.609492 L 0.160469 0.621523 L 0.164453 0.681523 L 0.269492 0.834531 L 0.441484 0.719531 L 0.438477 0.678516 L 0.287461 0.806523 L 0.262461 0.698516 L 0.479492 0.711523 L 0.703516 0.737539 L 0.864531 0.731523 L 0.853555 0.673516 L 0.673516 0.815547 L 0.5775 0.608516 L 0.754531 0.575508 L 0.954531 0.5825 L 0.945547 0.508516 L 0.737539 0.523516 Z M 0.479492 0.511484 " transform="matrix(100,0,0,100,600,200)"/>
<path style="fill:none;stroke-width:0.01;stroke-linecap:butt;stroke-linejoin:miter;stroke:rgb(0%,0%,0%);stroke-opacity:1;stroke-miterlimit:10;" d="M 0.4925 0.330469 L 0.276484 0.349492 L 0.204453 0.3125 L 0.171484 0.6375 L 0.116445 0.631523 L 0.149453 0.439492 L 0.185469 0.3575 L 0.180469 0.4225 L 0.0524609 0.4125 L 0.0454688 0.496484 L 0.166484 0.501484 L 0.176484 0.565508 L 0.290469 0.714531 L 0.471484 0.581523 L 0.459492 0.540508 L 0.348477 0.566523 L 0.279492 0.576523 L 0.4925 0.541523 L 0.719531 0.556523 L 0.886523 0.534492 L 0.869531 0.480508 L 0.689531 0.600508 L 0.596523 0.425508 L 0.762539 0.376484 L 0.954531 0.359492 L 0.935547 0.285469 L 0.745508 0.300469 Z M 0.4925 0.330469 " transform="matrix(100,0,0,100,0,350)"/>
<path style="fill:none;stroke-width:0.01;stroke-linecap:butt;stroke-linejoin:miter;stroke:rgb(0%,0%,0%);stroke-opacity:1;stroke-miterlimit:10;" d="M 0.5525 0.515508 L 0.311484 0.514492 L 0.305469 0.3325 L 0.141445 0.0454687 L 0.0924609 0.0794531 L 0.197461 0.329492 L 0.203477 0.516484 L 0.196484 0.589492 L 0.0624609 0.580508 L 0.0644531 0.668516 L 0.190469 0.673516 L 0.204453 0.753516 L 0.358477 0.954531 L 0.590508 0.772539 L 0.568516 0.702539 L 0.370469 0.924531 L 0.311484 0.770508 L 0.5525 0.730508 L 0.754531 0.723516 L 0.937539 0.684531 L 0.919531 0.620508 L 0.781523 0.6525 L 0.633516 0.619531 L 0.742539 0.5775 L 0.889531 0.574492 L 0.881523 0.503516 L 0.736523 0.513516 Z M 0.5525 0.515508 " transform="matrix(100,0,0,100,150,350)"/>
<path style="fill:none;stroke-width:0.01;stroke-linecap:butt;stroke-linejoin:miter;stroke:rgb(0%,0%,0%);stroke-opacity:1;stroke-miterlimit:10;" d="M 0.533516 0.403477 L 0.3175 0.386484 L 0.291484 0.237461 L 0.129453 0.0454687 L 0.0794531 0.0714453 L 0.209453 0.268477 L 0.236484 0.4025 L 0.221484 0.463516 L 0.0924609 0.453477 L 0.0874609 0.540508 L 0.210469 0.544492 L 0.224453 0.616523 L 0.280469 0.737539 L 0.230469 0.941562 L 0.297461 0.954531 L 0.116445 0.640508 L 0.315469 0.624531 L 0.533516 0.593516 L 0.731523 0.598516 L 0.865547 0.573516 L 0.845547 0.531484 L 0.703516 0.638516 L 0.625508 0.498516 L 0.760508 0.455508 L 0.920547 0.459492 L 0.901523 0.360469 L 0.746523 0.373477 Z M 0.533516 0.403477 " transform="matrix(100,0,0,100,300,350)"/>
<path style="fill:none;stroke-width:0.01;stroke-linecap:butt;stroke-linejoin:miter;stroke:rgb(0%,0%,0%);stroke-opacity:1;stroke-miterlimit:10;" d="M 0.530508 0.381484 L 0.292461 0.374492 L 0.4225 0.338477 L 0.119453 0.0474609 L 0.0454688 0.0954688 L 0.339492 0.124453 L 0.204453 0.389492 L 0.202461 0.456484 L 0.0654687 0.464492 L 0.0844531 0.545508 L 0.205469 0.531484 L 0.216484 0.598516 L 0.244492 0.737539 L 0.127461 0.916523 L 0.205469 0.952539 L 0.273477 0.734531 L 0.319492 0.598516 L 0.530508 0.575508 L 0.749531 0.615508 L 0.923555 0.623516 L 0.912539 0.554492 L 0.707539 0.6825 L 0.625508 0.474492 L 0.780547 0.4425 L 0.954531 0.460508 L 0.943555 0.376484 L 0.769531 0.361484 Z M 0.530508 0.381484 " transform="matrix(100,0,0,100,450,350)"/>
<path style="fill:none;stroke-width:0.01;stroke-linecap:butt;stroke-linejoin:miter;stroke:rgb(0%,0%,0%);stroke-opacity:1;stroke-miterlimit:10;" d="M 0.501484 0.516484 L 0.265469 0.528516 L 0.251484 0.361484 L 0.106445 0.108477 L 0.0484375 0.165469 L 0.416484 0.254492 L 0.181484 0.540508 L 0.177461 0.603516 L 0.0454688 0.6025 L 0.0504688 0.683516 L 0.174453 0.675508 L 0.181484 0.738516 L 0.298477 0.891523 L 0.474492 0.770508 L 0.480508 0.725508 L 0.303477 0.869531 L 0.272461 0.748516 L 0.501484 0.727539 L 0.742539 0.724531 L 0.954531 0.690508 L 0.930547 0.620508 L 0.740508 0.812539 L 0.599492 0.609492 L 0.732539 0.551523 L 0.900547 0.540508 L 0.872539 0.453477 L 0.708516 0.473516 Z M 0.501484 0.516484 " transform="matrix(100,0,0,100,600,350)"/>
<path style="fill:none;stroke-width:0.01;stroke-linecap:butt;stroke-linejoin:miter;stroke:rgb(0%,0%,0%);stroke-opacity:1;stroke-miterlimit:10;" d="M 0.475508 0.339492 L 0.321484 0.293477 L 0.396484 0.282461 L 0.233477 0.0454688 L 0.202461 0.0694531 L 0.385508 0.130469 L 0.259492 0.289492 L 0.250469 0.379492 L 0.103477 0.3675 L 0.0994531 0.471484 L 0.246484 0.470508 L 0.250469 0.559492 L 0.305469 0.725508 L 0.223477 0.954531 L 0.3225 0.954531 L 0.349492 0.686523 L 0.343477 0.555508 L 0.475508 0.5575 L 0.686523 0.569492 L 0.870547 0.560508 L 0.858555 0.484492 L 0.698516 0.498516 L 0.575508 0.443477 L 0.718516 0.379492 L 0.900547 0.3475 L 0.899531 0.264492 L 0.724531 0.303477 Z M 0.475508 0.339492 " transform="matrix(100,0,0,100,0,500)"/>
<path style="fill:none;stroke-width:0.01;stroke-linecap:butt;stroke-linejoin:miter;stroke:rgb(0%,0%,0%);stroke-opacity:1;stroke-miterlimit:10;" d="M 0.514492 0.271484 L 0.296484 0.257461 L 0.294492 0.179453 L 0.451484 0.233477 L 0.474492 0.187461 L 0.256484 0.104453 L 0.184453 0.260469 L 0.187461 0.328477 L 0.0514453 0.335469 L 0.0544531 0.411484 L 0.184453 0.415508 L 0.194453 0.493516 L 0.180469 0.660508 L 0.0454687 0.827539 L 0.121445 0.895547 L 0.0724609 0.458477 L 0.295469 0.5175 L 0.514492 0.491484 L 0.771523 0.509492 L 0.954531 0.488516 L 0.938555 0.424492 L 0.770508 0.445508 L 0.615508 0.378477 L 0.623516 0.204453 L 0.732539 0.275469 L 0.730508 0.228477 L 0.638516 0.250469 Z M 0.514492 0.271484 " transform="matrix(100,0,0,100,150,500)"/>
<path style="fill:none;stroke-width:0.01;stroke-linecap:butt;stroke-linejoin:miter;stroke:rgb(0%,0%,0%);stroke-opacity:1;stroke-miterlimit:10;" d="M 0.491484 0.414492 L 0.267461 0.386484 L 0.388477 0.381484 L 0.159453 0.0694531 L 0.107461 0.0814453 L 0.359492 0.187461 L 0.178477 0.388477 L 0.166484 0.4575 L 0.0454687 0.4675 L 0.0484375 0.535508 L 0.162461 0.534492 L 0.171484 0.605508 L 0.180469 0.744531 L 0.0804688 0.905547 L 0.163477 0.930547 L 0.223477 0.728516 L 0.261484 0.619531 L 0.491484 0.611523 L 0.712539 0.6375 L 0.874531 0.616523 L 0.862539 0.5575 L 0.714531 0.563516 L 0.585508 0.5075 L 0.716523 0.466484 L 0.893555 0.471484 L 0.954531 0.345469 L 0.679531 0.161484 Z M 0.491484 0.414492 " transform="matrix(100,0,0,100,300,500)"/>
<path style="fill:none;stroke-width:0.01;stroke-linecap:butt;stroke-linejoin:miter;stroke:rgb(0%,0%,0%);stroke-opacity:1;stroke-miterlimit:10;" d="M 0.499492 0.479492 L 0.258477 0.474492 L 0.336484 0.428477 L 0.102461 0.223477 L 0.0764453 0.252461 L 0.308477 0.279492 L 0.187461 0.488516 L 0.173477 0.544492 L 0.0484375 0.539492 L 0.0454688 0.616523 L 0.169453 0.620508 L 0.181484 0.681523 L 0.274492 0.832539 L 0.458477 0.724531 L 0.450508 0.6725 L 0.338477 0.688516 L 0.271484 0.689531 L 0.499492 0.676523 L 0.686523 0.674531 L 0.853555 0.636523 L 0.838516 0.581523 L 0.718516 0.599492 L 0.589492 0.580508 L 0.742539 0.483516 L 0.927539 0.460508 L 0.954531 0.309492 L 0.621523 0.167461 Z M 0.499492 0.479492 " transform="matrix(100,0,0,100,450,500)"/>
<path style="fill:none;stroke-width:0.01;stroke-linecap:butt;stroke-linejoin:miter;stroke:rgb(0%,0%,0%);stroke-opacity:1;stroke-miterlimit:10;" d="M 0.523516 0.480508 L 0.271484 0.475508 L 0.369492 0.455508 L 0.160469 0.129453 L 0.107461 0.162461 L 0.404492 0.239492 L 0.187461 0.4775 L 0.181484 0.554492 L 0.0564453 0.5425 L 0.0454688 0.611523 L 0.171484 0.629531 L 0.181484 0.6925 L 0.274492 0.870547 L 0.471484 0.757539 L 0.474492 0.724531 L 0.279492 0.818516 L 0.286484 0.712539 L 0.523516 0.697539 L 0.772539 0.723516 L 0.954531 0.729531 L 0.949531 0.661523 L 0.772539 0.651523 L 0.628516 0.584492 L 0.778516 0.559492 L 0.950547 0.558516 L 0.939531 0.4775 L 0.765508 0.479492 Z M 0.523516 0.480508 " transform="matrix(100,0,0,100,600,500)"/>
<path style="fill:none;stroke-width:0.01;stroke-linecap:butt;stroke-linejoin:miter;stroke:rgb(0%,0%,0%);stroke-opacity:1;stroke-miterlimit:10;" d="M 0.498516 0.275469 L 0.276484 0.265469 L 0.190469 0.217461 L 0.135469 0.508516 L 0.0814453 0.500508 L 0.134453 0.335469 L 0.182461 0.271484 L 0.177461 0.340469 L 0.0474609 0.335469 L 0.0454688 0.414492 L 0.172461 0.4175 L 0.183477 0.485508 L 0.174453 0.606523 L 0.0534375 0.735508 L 0.120469 0.782539 L 0.212461 0.601523 L 0.275469 0.506484 L 0.498516 0.505508 L 0.745508 0.510508 L 0.949531 0.465508 L 0.918555 0.384492 L 0.741523 0.561523 L 0.600508 0.389492 L 0.768516 0.340469 L 0.951562 0.356484 L 0.954531 0.288477 L 0.750508 0.283477 Z M 0.498516 0.275469 " transform="matrix(100,0,0,100,0,650)"/>
<path style="fill:none;stroke-width:0.01;stroke-linecap:butt;stroke-linejoin:miter;stroke:rgb(0%,0%,0%);stroke-opacity:1;stroke-miterlimit:10;" d="M 0.543516 0.390508 L 0.325469 0.399492 L 0.446484 0.364492 L 0.152461 0.0454688 L 0.0924609 0.0754687 L 0.221484 0.269492 L 0.240469 0.401484 L 0.234492 0.463516 L 0.129453 0.466484 L 0.131445 0.531484 L 0.240469 0.5325 L 0.247461 0.584492 L 0.255469 0.737539 L 0.132461 0.908555 L 0.211484 0.954531 L 0.289492 0.730508 L 0.334492 0.593516 L 0.543516 0.574492 L 0.743516 0.588516 L 0.891523 0.590508 L 0.885547 0.524492 L 0.735508 0.648516 L 0.630508 0.481484 L 0.757539 0.4575 L 0.907539 0.474492 L 0.900547 0.399492 L 0.741523 0.390508 Z M 0.543516 0.390508 " transform="matrix(100,0,0,100,150,650)"/>
<path style="fill:none;stroke-width:0.01;stroke-linecap:butt;stroke-linejoin:miter;stroke:rgb(0%,0%,0%);stroke-opacity:1;stroke-miterlimit:10;" d="M 0.541523 0.430508 L 0.3375 0.435508 L 0.339492 0.287461 L 0.194453 0.0454688 L 0.138477 0.0814453 L 0.454492 0.182461 L 0.248477 0.443477 L 0.241484 0.503516 L 0.121445 0.510508 L 0.132461 0.5925 L 0.240469 0.574492 L 0.246484 0.635508 L 0.275469 0.765508 L 0.185469 0.936562 L 0.249492 0.954531 L 0.127461 0.5975 L 0.336484 0.6375 L 0.541523 0.609492 L 0.720508 0.641523 L 0.876523 0.614492 L 0.872539 0.560508 L 0.741523 0.571523 L 0.623516 0.514492 L 0.742539 0.4675 L 0.878555 0.4725 L 0.878555 0.406484 L 0.732539 0.416484 Z M 0.541523 0.430508 " transform="matrix(100,0,0,100,300,650)"/>
<path style="fill:none;stroke-width:0.01;stroke-linecap:butt;stroke-linejoin:miter;stroke:rgb(0%,0%,0%);stroke-opacity:1;stroke-miterlimit:10;" d="M 0.470508 0.373477 L 0.289492 0.331484 L 0.299492 0.244492 L 0.211484 0.0594531 L 0.175469 0.0824609 L 0.232461 0.225469 L 0.219453 0.328477 L 0.214453 0.429492 L 0.0454688 0.435508 L 0.0474609 0.5275 L 0.209453 0.531484 L 0.232461 0.6325 L 0.276484 0.746523 L 0.238477 0.936562 L 0.304492 0.940547 L 0.325469 0.742539 L 0.323477 0.6225 L 0.470508 0.618516 L 0.728516 0.6825 L 0.944531 0.669531 L 0.954531 0.596523 L 0.683516 0.750508 L 0.589492 0.486484 L 0.727539 0.421484 L 0.919531 0.4125 L 0.893555 0.345469 L 0.716523 0.336484 Z M 0.470508 0.373477 " transform="matrix(100,0,0,100,450,650)"/>
<path style="fill:none;stroke-width:0.01;stroke-linecap:butt;stroke-linejoin:miter;stroke:rgb(0%,0%,0%);stroke-opacity:1;stroke-miterlimit:10;" d="M 0.5375 0.400508 L 0.293477 0.381484 L 0.404492 0.376484 L 0.211484 0.0454688 L 0.156484 0.0744531 L 0.420508 0.180469 L 0.216484 0.381484 L 0.214453 0.451484 L 0.0914453 0.444492 L 0.0824609 0.5325 L 0.202461 0.529492 L 0.208477 0.599492 L 0.251484 0.750508 L 0.183477 0.939531 L 0.253477 0.954531 L 0.0614453 0.593516 L 0.294492 0.601523 L 0.5375 0.605508 L 0.762539 0.646523 L 0.938555 0.609492 L 0.934531 0.556523 L 0.737539 0.694531 L 0.639531 0.491484 L 0.762539 0.444492 L 0.923555 0.439492 L 0.916523 0.353477 L 0.752539 0.371484 Z M 0.5375 0.400508 " transform="matrix(100,0,0,100,600,650)"/>
</g>
</svg>
