<?xml version="1.0" encoding="UTF-8"?>
<svg xmlns="http://www.w3.org/2000/svg" xmlns:xlink="http://www.w3.org/1999/xlink" width="750pt" height="4000pt" viewBox="0 0 750 4000" version="1.1">
<g id="surface1">
<path style="fill:none;stroke-width:0.01;stroke-linecap:butt;stroke-linejoin:miter;stroke:rgb(0%,0%,0%);stroke-opacity:1;stroke-miterlimit:10;" d="M 0.540781 0.409687 L 0.313516 0.403828 L 0.441719 0.392187 L 0.569922 0.421328 L 0.599063 0.368867 L 0.430078 0.345586 L 0.226094 0.374727 L 0.185312 0.456289 L 0.0512891 0.444648 L 0.0454688 0.520391 L 0.173672 0.53207 L 0.202813 0.607813 L 0.389297 0.654414 L 0.599063 0.619453 L 0.587422 0.561172 L 0.424258 0.596172 L 0.284375 0.578672 L 0.534961 0.584492 L 0.779727 0.613633 L 0.954531 0.619453 L 0.948711 0.543711 L 0.779727 0.537891 L 0.616563 0.50293 L 0.773906 0.462109 L 0.942891 0.462109 L 0.93707 0.380547 L 0.756406 0.392187 Z M 0.540781 0.409687 " transform="matrix(100,0,0,100,0,200)"/>
<path style="fill:none;stroke-width:0.01;stroke-linecap:butt;stroke-linejoin:miter;stroke:rgb(0%,0%,0%);stroke-opacity:1;stroke-miterlimit:10;" d="M 0.523594 0.402578 L 0.316992 0.384883 L 0.42918 0.355391 L 0.559023 0.296328 L 0.541328 0.255 L 0.376016 0.302227 L 0.222539 0.367188 L 0.175312 0.449805 L 0.0513672 0.438008 L 0.0454687 0.508867 L 0.169414 0.526563 L 0.193047 0.597422 L 0.346523 0.680039 L 0.53543 0.745 L 0.559023 0.703672 L 0.42918 0.638711 L 0.316992 0.591484 L 0.523594 0.597422 L 0.771562 0.609219 L 0.954531 0.60332 L 0.948633 0.532461 L 0.777461 0.532461 L 0.612148 0.491133 L 0.765625 0.455742 L 0.930938 0.455742 L 0.936836 0.378984 L 0.765625 0.384883 Z M 0.523594 0.402578 " transform="matrix(100,0,0,100,150,200)"/>
<path style="fill:none;stroke-width:0.01;stroke-linecap:butt;stroke-linejoin:miter;stroke:rgb(0%,0%,0%);stroke-opacity:1;stroke-miterlimit:10;" d="M 0.534961 0.409687 L 0.313516 0.409687 L 0.377617 0.310625 L 0.441719 0.124141 L 0.395117 0.106641 L 0.313516 0.269805 L 0.220273 0.398008 L 0.191133 0.473789 L 0.0512891 0.462109 L 0.0454687 0.537891 L 0.173672 0.543711 L 0.196953 0.625273 L 0.319336 0.747656 L 0.360156 0.893359 L 0.418398 0.887539 L 0.371797 0.712695 L 0.290195 0.619453 L 0.534961 0.613633 L 0.773906 0.625273 L 0.954531 0.631133 L 0.948711 0.561172 L 0.779727 0.549531 L 0.610703 0.50875 L 0.768047 0.473789 L 0.93707 0.479609 L 0.942891 0.386367 L 0.756406 0.398008 Z M 0.534961 0.409687 " transform="matrix(100,0,0,100,300,200)"/>
<path style="fill:none;stroke-width:0.01;stroke-linecap:butt;stroke-linejoin:miter;stroke:rgb(0%,0%,0%);stroke-opacity:1;stroke-miterlimit:10;" d="M 0.529531 0.408516 L 0.299297 0.390781 L 0.322891 0.278633 L 0.293398 0.0661328 L 0.246172 0.0720313 L 0.25207 0.260938 L 0.198945 0.390781 L 0.181211 0.467539 L 0.0454688 0.467539 L 0.0454688 0.544258 L 0.169414 0.544258 L 0.181211 0.632812 L 0.240273 0.762695 L 0.210742 0.927969 L 0.275664 0.933867 L 0.311094 0.774492 L 0.293398 0.644609 L 0.511797 0.632812 L 0.771562 0.626914 L 0.948633 0.632812 L 0.954531 0.556094 L 0.771562 0.556094 L 0.60625 0.508867 L 0.759727 0.467539 L 0.930937 0.479336 L 0.930937 0.384883 L 0.74793 0.39668 Z M 0.529531 0.408516 " transform="matrix(100,0,0,100,450,200)"/>
<path style="fill:none;stroke-width:0.01;stroke-linecap:butt;stroke-linejoin:miter;stroke:rgb(0%,0%,0%);stroke-opacity:1;stroke-miterlimit:10;" d="M 0.523008 0.41082 L 0.304375 0.387812 L 0.292852 0.266992 L 0.223828 0.0655859 L 0.183555 0.0885938 L 0.218086 0.255469 L 0.20082 0.393555 L 0.177773 0.468359 L 0.0454688 0.474102 L 0.0512109 0.548906 L 0.177773 0.543164 L 0.189297 0.629453 L 0.223828 0.750273 L 0.154766 0.905625 L 0.206563 0.934414 L 0.281367 0.779063 L 0.304375 0.646719 L 0.523008 0.629453 L 0.747422 0.623711 L 0.954531 0.629453 L 0.943047 0.554648 L 0.77043 0.566172 L 0.615078 0.514375 L 0.741641 0.479844 L 0.925781 0.479844 L 0.914258 0.405078 L 0.753164 0.41082 Z M 0.523008 0.41082 " transform="matrix(100,0,0,100,600,200)"/>
<path style="fill:none;stroke-width:0.01;stroke-linecap:butt;stroke-linejoin:miter;stroke:rgb(0%,0%,0%);stroke-opacity:1;stroke-miterlimit:10;" d="M 0.5175 0.406758 L 0.278555 0.383437 L 0.243594 0.249414 L 0.115391 0.0804297 L 0.0804297 0.115391 L 0.173672 0.272734 L 0.185312 0.383437 L 0.173672 0.470859 L 0.0454688 0.470859 L 0.0454688 0.540781 L 0.161992 0.546602 L 0.161992 0.639844 L 0.167852 0.756406 L 0.0512891 0.872969 L 0.0920703 0.91957 L 0.226094 0.797187 L 0.272734 0.651523 L 0.511641 0.634023 L 0.954531 0.634023 L 0.948711 0.564102 L 0.762227 0.564102 L 0.610703 0.5175 L 0.738945 0.47668 L 0.93125 0.4825 L 0.93125 0.400937 L 0.750586 0.412578 Z M 0.5175 0.406758 " transform="matrix(100,0,0,100,0,350)"/>
<path style="fill:none;stroke-width:0.01;stroke-linecap:butt;stroke-linejoin:miter;stroke:rgb(0%,0%,0%);stroke-opacity:1;stroke-miterlimit:10;" d="M 0.540352 0.424688 L 0.325156 0.397813 L 0.266016 0.284844 L 0.115391 0.166484 L 0.083125 0.19875 L 0.222969 0.333242 L 0.244492 0.408555 L 0.244492 0.489258 L 0.131523 0.478477 L 0.131523 0.548398 L 0.239102 0.55918 L 0.233711 0.618359 L 0.196055 0.715156 L 0.0454687 0.785117 L 0.0777344 0.833516 L 0.239102 0.763594 L 0.335938 0.639844 L 0.540352 0.629102 L 0.782422 0.623711 L 0.94918 0.623711 L 0.954531 0.56457 L 0.798555 0.55918 L 0.642539 0.521523 L 0.760898 0.483867 L 0.943789 0.489258 L 0.943789 0.419297 L 0.766289 0.424688 Z M 0.540352 0.424688 " transform="matrix(100,0,0,100,150,350)"/>
<path style="fill:none;stroke-width:0.01;stroke-linecap:butt;stroke-linejoin:miter;stroke:rgb(0%,0%,0%);stroke-opacity:1;stroke-miterlimit:10;" d="M 0.551055 0.451484 L 0.336562 0.431055 L 0.285508 0.339141 L 0.0965234 0.247187 L 0.0709766 0.303359 L 0.249727 0.390195 L 0.285508 0.451484 L 0.280391 0.497461 L 0.183359 0.497461 L 0.183359 0.55875 L 0.275273 0.563828 L 0.270156 0.620039 L 0.219102 0.691523 L 0.0454687 0.701719 L 0.0505469 0.752813 L 0.249727 0.7375 L 0.34168 0.645547 L 0.545977 0.625117 L 0.801328 0.635352 L 0.949453 0.630234 L 0.954531 0.57918 L 0.806445 0.574063 L 0.653203 0.533203 L 0.775781 0.502539 L 0.949453 0.502539 L 0.939219 0.436172 L 0.786016 0.44125 Z M 0.551055 0.451484 " transform="matrix(100,0,0,100,300,350)"/>
<path style="fill:none;stroke-width:0.01;stroke-linecap:butt;stroke-linejoin:miter;stroke:rgb(0%,0%,0%);stroke-opacity:1;stroke-miterlimit:10;" d="M 0.552148 0.415547 L 0.353438 0.400664 L 0.288867 0.331094 L 0.0603516 0.336055 L 0.0553906 0.385742 L 0.254102 0.390703 L 0.298789 0.43543 L 0.298789 0.470195 L 0.189531 0.460273 L 0.189531 0.519883 L 0.288867 0.529805 L 0.298789 0.559609 L 0.224297 0.604336 L 0.0553906 0.56457 L 0.0454688 0.609297 L 0.204414 0.668906 L 0.333594 0.604336 L 0.542227 0.594375 L 0.770742 0.594375 L 0.954531 0.599336 L 0.954531 0.539727 L 0.790625 0.539727 L 0.661445 0.5 L 0.790625 0.470195 L 0.939648 0.475156 L 0.934687 0.400664 L 0.775703 0.410586 Z M 0.552148 0.415547 " transform="matrix(100,0,0,100,450,350)"/>
<path style="fill:none;stroke-width:0.01;stroke-linecap:butt;stroke-linejoin:miter;stroke:rgb(0%,0%,0%);stroke-opacity:1;stroke-miterlimit:10;" d="M 0.544961 0.422578 L 0.335156 0.412578 L 0.230273 0.352656 L 0.0454688 0.447539 L 0.0754297 0.4825 L 0.210273 0.407578 L 0.280234 0.447539 L 0.290195 0.4925 L 0.185313 0.477539 L 0.180313 0.537461 L 0.275234 0.542461 L 0.280234 0.562422 L 0.205312 0.602383 L 0.0804297 0.5025 L 0.0504688 0.537461 L 0.165352 0.647344 L 0.315195 0.612383 L 0.539961 0.597422 L 0.764727 0.602383 L 0.954531 0.612383 L 0.949531 0.557461 L 0.794688 0.547461 L 0.649844 0.5125 L 0.774727 0.4825 L 0.92457 0.4825 L 0.92457 0.422578 L 0.774727 0.422578 Z M 0.544961 0.422578 " transform="matrix(100,0,0,100,600,350)"/>
<path style="fill:none;stroke-width:0.01;stroke-linecap:butt;stroke-linejoin:miter;stroke:rgb(0%,0%,0%);stroke-opacity:1;stroke-miterlimit:10;" d="M 0.557773 0.424648 L 0.356875 0.414609 L 0.246367 0.339258 L 0.0555078 0.399531 L 0.0705859 0.449766 L 0.231289 0.394531 L 0.296602 0.454805 L 0.296602 0.494961 L 0.181055 0.479922 L 0.186094 0.535156 L 0.286523 0.540195 L 0.296602 0.580352 L 0.22625 0.605469 L 0.080625 0.515078 L 0.0454688 0.550234 L 0.186094 0.660742 L 0.336758 0.615508 L 0.547695 0.600469 L 0.77375 0.605469 L 0.954531 0.610508 L 0.954531 0.545195 L 0.808906 0.550234 L 0.658203 0.515078 L 0.783789 0.474883 L 0.949531 0.479922 L 0.949531 0.419648 L 0.77875 0.419648 Z M 0.557773 0.424648 " transform="matrix(100,0,0,100,0,500)"/>
<path style="fill:none;stroke-width:0.01;stroke-linecap:butt;stroke-linejoin:miter;stroke:rgb(0%,0%,0%);stroke-opacity:1;stroke-miterlimit:10;" d="M 0.549297 0.398672 L 0.324766 0.393203 L 0.248086 0.294648 L 0.0728516 0.179609 L 0.0454687 0.206992 L 0.198789 0.332969 L 0.242617 0.398672 L 0.242617 0.458945 L 0.133086 0.453437 L 0.127617 0.51918 L 0.242617 0.530117 L 0.237148 0.59582 L 0.204258 0.677969 L 0.0454687 0.765625 L 0.0783203 0.820391 L 0.253555 0.716328 L 0.324766 0.617734 L 0.53832 0.606797 L 0.790234 0.606797 L 0.954531 0.601328 L 0.954531 0.541055 L 0.801211 0.535586 L 0.642383 0.497266 L 0.784766 0.464414 L 0.943594 0.464414 L 0.943594 0.393203 L 0.779297 0.398672 Z M 0.549297 0.398672 " transform="matrix(100,0,0,100,150,500)"/>
<path style="fill:none;stroke-width:0.01;stroke-linecap:butt;stroke-linejoin:miter;stroke:rgb(0%,0%,0%);stroke-opacity:1;stroke-miterlimit:10;" d="M 0.505898 0.399648 L 0.275664 0.387852 L 0.228438 0.269766 L 0.110391 0.0808594 L 0.0690625 0.104492 L 0.163516 0.275664 L 0.175312 0.387852 L 0.169414 0.470469 L 0.0513672 0.470469 L 0.0454687 0.547227 L 0.163516 0.553125 L 0.175312 0.618047 L 0.222539 0.736133 L 0.163516 0.883711 L 0.222539 0.919141 L 0.2875 0.765625 L 0.299297 0.629883 L 0.494102 0.618047 L 0.74793 0.623984 L 0.948633 0.623984 L 0.954531 0.553125 L 0.771562 0.541328 L 0.612148 0.511797 L 0.759727 0.46457 L 0.925039 0.46457 L 0.930938 0.39375 L 0.74793 0.405547 Z M 0.505898 0.399648 " transform="matrix(100,0,0,100,300,500)"/>
<path style="fill:none;stroke-width:0.01;stroke-linecap:butt;stroke-linejoin:miter;stroke:rgb(0%,0%,0%);stroke-opacity:1;stroke-miterlimit:10;" d="M 0.514844 0.292031 L 0.283125 0.292031 L 0.253398 0.238555 L 0.122695 0.410859 L 0.0870312 0.369297 L 0.193984 0.208867 L 0.182109 0.280156 L 0.188047 0.357383 L 0.0454688 0.351445 L 0.0454688 0.416797 L 0.182109 0.422773 L 0.182109 0.488125 L 0.253398 0.618828 L 0.199922 0.767383 L 0.259375 0.791133 L 0.312852 0.630703 L 0.306875 0.488125 L 0.497031 0.494063 L 0.776289 0.494063 L 0.954531 0.482188 L 0.942656 0.416797 L 0.770352 0.428711 L 0.603984 0.393047 L 0.782227 0.351445 L 0.942656 0.33957 L 0.942656 0.25043 L 0.758477 0.274219 Z M 0.514844 0.292031 " transform="matrix(100,0,0,100,450,500)"/>
<path style="fill:none;stroke-width:0.01;stroke-linecap:butt;stroke-linejoin:miter;stroke:rgb(0%,0%,0%);stroke-opacity:1;stroke-miterlimit:10;" d="M 0.485156 0.283125 L 0.241523 0.289062 L 0.182109 0.437617 L 0.116758 0.681211 L 0.0632813 0.657461 L 0.104883 0.449492 L 0.13457 0.300937 L 0.158359 0.354414 L 0.0514063 0.342539 L 0.0454688 0.443555 L 0.182109 0.443555 L 0.199922 0.479219 L 0.217773 0.592109 L 0.188047 0.758477 L 0.241523 0.782227 L 0.283125 0.609922 L 0.283125 0.491094 L 0.497031 0.485156 L 0.72875 0.485156 L 0.954531 0.449492 L 0.954531 0.378203 L 0.752539 0.413828 L 0.586172 0.390078 L 0.746602 0.336602 L 0.936719 0.300937 L 0.930781 0.217773 L 0.72875 0.247461 Z M 0.485156 0.283125 " transform="matrix(100,0,0,100,600,500)"/>
<path style="fill:none;stroke-width:0.01;stroke-linecap:butt;stroke-linejoin:miter;stroke:rgb(0%,0%,0%);stroke-opacity:1;stroke-miterlimit:10;" d="M 0.478945 0.277227 L 0.244141 0.283281 L 0.177891 0.457852 L 0.129727 0.680625 L 0.0695313 0.650508 L 0.105664 0.463867 L 0.147813 0.283281 L 0.165859 0.355508 L 0.0454688 0.343477 L 0.0454688 0.427773 L 0.183906 0.433789 L 0.201992 0.475938 L 0.220039 0.590313 L 0.201992 0.764883 L 0.262188 0.795 L 0.286289 0.626445 L 0.292305 0.493984 L 0.509023 0.481953 L 0.755859 0.463867 L 0.954531 0.427773 L 0.954531 0.373555 L 0.779961 0.397656 L 0.605352 0.373555 L 0.76793 0.325391 L 0.954531 0.283281 L 0.936484 0.205 L 0.737812 0.229063 Z M 0.478945 0.277227 " transform="matrix(100,0,0,100,0,650)"/>
<path style="fill:none;stroke-width:0.01;stroke-linecap:butt;stroke-linejoin:miter;stroke:rgb(0%,0%,0%);stroke-opacity:1;stroke-miterlimit:10;" d="M 0.503047 0.307812 L 0.277305 0.295625 L 0.191875 0.40543 L 0.155273 0.582383 L 0.0881641 0.564063 L 0.136992 0.417617 L 0.173594 0.301719 L 0.185781 0.368828 L 0.0454687 0.374922 L 0.0515625 0.454258 L 0.185781 0.454258 L 0.197969 0.515234 L 0.271211 0.612891 L 0.167461 0.698281 L 0.216289 0.753203 L 0.33832 0.649492 L 0.307813 0.533555 L 0.521367 0.521367 L 0.783711 0.503047 L 0.954531 0.484766 L 0.948438 0.40543 L 0.783711 0.442031 L 0.618984 0.411523 L 0.771523 0.356602 L 0.948438 0.326133 L 0.942344 0.246797 L 0.753203 0.265117 Z M 0.503047 0.307812 " transform="matrix(100,0,0,100,150,650)"/>
<path style="fill:none;stroke-width:0.01;stroke-linecap:butt;stroke-linejoin:miter;stroke:rgb(0%,0%,0%);stroke-opacity:1;stroke-miterlimit:10;" d="M 0.497031 0.464336 L 0.289062 0.470273 L 0.330664 0.375234 L 0.158359 0.309883 L 0.146445 0.36332 L 0.247461 0.381172 L 0.193984 0.470273 L 0.176172 0.535664 L 0.0454687 0.52375 L 0.0454687 0.606953 L 0.164297 0.606953 L 0.170234 0.68418 L 0.176172 0.612891 L 0.0692188 0.5 L 0.116758 0.440586 L 0.223711 0.595078 L 0.289062 0.690117 L 0.497031 0.672305 L 0.746602 0.666367 L 0.954531 0.66043 L 0.954531 0.595078 L 0.776289 0.595078 L 0.615859 0.571289 L 0.776289 0.511875 L 0.942656 0.517812 L 0.936719 0.428711 L 0.770352 0.452461 Z M 0.497031 0.464336 " transform="matrix(100,0,0,100,300,650)"/>
<path style="fill:none;stroke-width:0.01;stroke-linecap:butt;stroke-linejoin:miter;stroke:rgb(0%,0%,0%);stroke-opacity:1;stroke-miterlimit:10;" d="M 0.508906 0.541602 L 0.289062 0.553477 L 0.283125 0.422773 L 0.164297 0.238555 L 0.128633 0.262344 L 0.211836 0.428711 L 0.193984 0.541602 L 0.182109 0.601016 L 0.0514063 0.595078 L 0.0454688 0.678242 L 0.170234 0.678242 L 0.158359 0.755508 L 0.140508 0.612891 L 0.0930078 0.404922 L 0.146445 0.369297 L 0.193984 0.571289 L 0.27125 0.743594 L 0.485156 0.761445 L 0.954531 0.761445 L 0.954531 0.690117 L 0.776289 0.690117 L 0.603984 0.642617 L 0.770352 0.612891 L 0.948594 0.624766 L 0.942656 0.529727 L 0.752539 0.541602 Z M 0.508906 0.541602 " transform="matrix(100,0,0,100,450,650)"/>
<path style="fill:none;stroke-width:0.01;stroke-linecap:butt;stroke-linejoin:miter;stroke:rgb(0%,0%,0%);stroke-opacity:1;stroke-miterlimit:10;" d="M 0.50293 0.538125 L 0.26832 0.538125 L 0.27418 0.438398 L 0.186211 0.227266 L 0.145156 0.244883 L 0.19793 0.432539 L 0.19793 0.532266 L 0.186211 0.596758 L 0.0571875 0.590898 L 0.0454688 0.678867 L 0.168633 0.667148 L 0.156875 0.743398 L 0.145156 0.614375 L 0.0982422 0.414961 L 0.156875 0.379766 L 0.215547 0.590898 L 0.27418 0.743398 L 0.485352 0.73168 L 0.761016 0.766875 L 0.948672 0.772734 L 0.954531 0.702344 L 0.778594 0.696484 L 0.620234 0.637812 L 0.755117 0.614375 L 0.931094 0.637812 L 0.931094 0.538125 L 0.755117 0.543984 Z M 0.50293 0.538125 " transform="matrix(100,0,0,100,600,650)"/>
<path style="fill:none;stroke-width:0.01;stroke-linecap:butt;stroke-linejoin:miter;stroke:rgb(0%,0%,0%);stroke-opacity:1;stroke-miterlimit:10;" d="M 0.521055 0.551172 L 0.280234 0.539141 L 0.262188 0.418711 L 0.171875 0.220039 L 0.129727 0.238125 L 0.183906 0.424727 L 0.201992 0.527109 L 0.183906 0.605352 L 0.0514844 0.599336 L 0.0454688 0.683633 L 0.177891 0.683633 L 0.153828 0.76793 L 0.147813 0.653516 L 0.0755469 0.448828 L 0.123711 0.394648 L 0.220039 0.623437 L 0.262188 0.761875 L 0.496992 0.755859 L 0.743828 0.76793 L 0.9425 0.779961 L 0.9425 0.713711 L 0.779961 0.713711 L 0.599336 0.6475 L 0.755859 0.623437 L 0.954531 0.641484 L 0.954531 0.563203 L 0.761875 0.551172 Z M 0.521055 0.551172 " transform="matrix(100,0,0,100,0,800)"/>
<path style="fill:none;stroke-width:0.01;stroke-linecap:butt;stroke-linejoin:miter;stroke:rgb(0%,0%,0%);stroke-opacity:1;stroke-miterlimit:10;" d="M 0.523906 0.437188 L 0.296641 0.44918 L 0.338516 0.383359 L 0.362422 0.251797 L 0.320586 0.233867 L 0.266758 0.3475 L 0.194961 0.455156 L 0.188984 0.508984 L 0.0454687 0.485039 L 0.0454687 0.556836 L 0.159102 0.574766 L 0.171055 0.6525 L 0.326563 0.766133 L 0.314609 0.55082 L 0.266758 0.538867 L 0.278711 0.676445 L 0.242813 0.646523 L 0.523906 0.658477 L 0.775117 0.664492 L 0.954531 0.664492 L 0.954531 0.598672 L 0.781094 0.586719 L 0.613633 0.544844 L 0.757188 0.503008 L 0.936602 0.526914 L 0.936602 0.443164 L 0.751211 0.443164 Z M 0.523906 0.437188 " transform="matrix(100,0,0,100,150,800)"/>
<path style="fill:none;stroke-width:0.01;stroke-linecap:butt;stroke-linejoin:miter;stroke:rgb(0%,0%,0%);stroke-opacity:1;stroke-miterlimit:10;" d="M 0.49707 0.403242 L 0.280078 0.397344 L 0.321133 0.332852 L 0.432539 0.414961 L 0.461875 0.368047 L 0.321133 0.26832 L 0.19793 0.379766 L 0.174492 0.456016 L 0.0571875 0.438398 L 0.0454687 0.514648 L 0.168633 0.532266 L 0.174492 0.608516 L 0.303516 0.73168 L 0.461875 0.631953 L 0.438398 0.590898 L 0.326992 0.667148 L 0.280078 0.614375 L 0.508789 0.602656 L 0.766875 0.620234 L 0.954531 0.602656 L 0.942813 0.538125 L 0.772734 0.543984 L 0.590898 0.508789 L 0.755117 0.461875 L 0.931094 0.467734 L 0.936953 0.379766 L 0.743398 0.391484 Z M 0.49707 0.403242 " transform="matrix(100,0,0,100,300,800)"/>
<path style="fill:none;stroke-width:0.01;stroke-linecap:butt;stroke-linejoin:miter;stroke:rgb(0%,0%,0%);stroke-opacity:1;stroke-miterlimit:10;" d="M 0.534492 0.402812 L 0.289961 0.390273 L 0.327578 0.321328 L 0.459258 0.421641 L 0.496875 0.371484 L 0.340117 0.239805 L 0.208477 0.346406 L 0.183398 0.459258 L 0.0454688 0.471797 L 0.0517188 0.553281 L 0.183398 0.553281 L 0.202187 0.647344 L 0.327578 0.760195 L 0.521953 0.634805 L 0.490586 0.55957 L 0.358945 0.691211 L 0.289961 0.634805 L 0.490586 0.641055 L 0.772734 0.647344 L 0.954531 0.628516 L 0.935742 0.55957 L 0.753906 0.572109 L 0.603438 0.509414 L 0.766445 0.44043 L 0.941992 0.471797 L 0.941992 0.384023 L 0.753906 0.352656 Z M 0.534492 0.402812 " transform="matrix(100,0,0,100,450,800)"/>
<path style="fill:none;stroke-width:0.01;stroke-linecap:butt;stroke-linejoin:miter;stroke:rgb(0%,0%,0%);stroke-opacity:1;stroke-miterlimit:10;" d="M 0.511094 0.381758 L 0.296758 0.366953 L 0.341094 0.285664 L 0.474141 0.403906 L 0.518477 0.352187 L 0.326328 0.196953 L 0.200664 0.337383 L 0.178477 0.433477 L 0.0602344 0.448281 L 0.0454688 0.551719 L 0.185898 0.559141 L 0.200664 0.67 L 0.326328 0.803047 L 0.525859 0.662617 L 0.503711 0.610859 L 0.355859 0.729102 L 0.318906 0.655195 L 0.503711 0.647813 L 0.703242 0.758672 L 0.954531 0.677383 L 0.910195 0.581289 L 0.732813 0.64043 L 0.599766 0.507383 L 0.740195 0.35957 L 0.888008 0.448281 L 0.932383 0.35957 L 0.732813 0.241328 Z M 0.511094 0.381758 " transform="matrix(100,0,0,100,600,800)"/>
<path style="fill:none;stroke-width:0.01;stroke-linecap:butt;stroke-linejoin:miter;stroke:rgb(0%,0%,0%);stroke-opacity:1;stroke-miterlimit:10;" d="M 0.576523 0.3875 L 0.378477 0.315469 L 0.405508 0.225469 L 0.549492 0.360469 L 0.585508 0.324492 L 0.396484 0.126445 L 0.243477 0.288477 L 0.216484 0.396484 L 0.0634375 0.405508 L 0.0454688 0.540508 L 0.216484 0.558516 L 0.225469 0.702539 L 0.369492 0.873555 L 0.594492 0.711523 L 0.549492 0.648516 L 0.396484 0.774531 L 0.3425 0.675508 L 0.549492 0.684531 L 0.711523 0.828516 L 0.954531 0.720508 L 0.945547 0.648516 L 0.765508 0.693516 L 0.675508 0.5225 L 0.765508 0.306484 L 0.918555 0.423477 L 0.954531 0.315469 L 0.756523 0.144453 Z M 0.576523 0.3875 " transform="matrix(100,0,0,100,0,950)"/>
<path style="fill:none;stroke-width:0.01;stroke-linecap:butt;stroke-linejoin:miter;stroke:rgb(0%,0%,0%);stroke-opacity:1;stroke-miterlimit:10;" d="M 0.576602 0.356992 L 0.402969 0.305938 L 0.402969 0.193555 L 0.535742 0.346797 L 0.576602 0.295703 L 0.351875 0.0709766 L 0.259961 0.234414 L 0.219102 0.387656 L 0.0556641 0.387656 L 0.0454687 0.540859 L 0.198672 0.561289 L 0.229297 0.714492 L 0.372305 0.929023 L 0.597031 0.765586 L 0.545977 0.694062 L 0.402969 0.826875 L 0.372305 0.724727 L 0.545977 0.724727 L 0.688984 0.867734 L 0.954531 0.745156 L 0.923906 0.643008 L 0.740039 0.714492 L 0.69918 0.530625 L 0.740039 0.285508 L 0.883047 0.428516 L 0.944336 0.326367 L 0.688984 0.101641 Z M 0.576602 0.356992 " transform="matrix(100,0,0,100,150,950)"/>
<path style="fill:none;stroke-width:0.01;stroke-linecap:butt;stroke-linejoin:miter;stroke:rgb(0%,0%,0%);stroke-opacity:1;stroke-miterlimit:10;" d="M 0.58082 0.343438 L 0.378789 0.29293 L 0.409102 0.191914 L 0.540391 0.323242 L 0.590898 0.29293 L 0.378789 0.0808203 L 0.247461 0.272734 L 0.227266 0.383828 L 0.0454687 0.37375 L 0.0454687 0.535352 L 0.227266 0.545469 L 0.247461 0.696953 L 0.388906 0.91918 L 0.611094 0.747461 L 0.570703 0.676758 L 0.41918 0.818164 L 0.368672 0.696953 L 0.570703 0.70707 L 0.712109 0.858594 L 0.954531 0.727266 L 0.914141 0.636367 L 0.772734 0.696953 L 0.722227 0.535352 L 0.762617 0.282813 L 0.893945 0.404023 L 0.954531 0.29293 L 0.691914 0.0808203 Z M 0.58082 0.343438 " transform="matrix(100,0,0,100,300,950)"/>
</g>
</svg>
