<?xml version="1.0" encoding="UTF-8"?>
<svg xmlns="http://www.w3.org/2000/svg" xmlns:xlink="http://www.w3.org/1999/xlink" width="750pt" height="3600pt" viewBox="0 0 750 3600" version="1.1">
<g id="surface1">
<path style="fill:none;stroke-width:0.01;stroke-linecap:butt;stroke-linejoin:miter;stroke:rgb(0%,0%,0%);stroke-opacity:1;stroke-miterlimit:10;" d="M 0.486484 0.588516 L 0.263477 0.5575 L 0.225469 0.431484 L 0.109453 0.157461 L 0.0454688 0.176484 L 0.170469 0.398477 L 0.170469 0.5575 L 0.157461 0.630508 L 0.0514453 0.618516 L 0.0464453 0.684531 L 0.146445 0.699531 L 0.141445 0.772539 L 0.132461 0.671523 L 0.0544531 0.480508 L 0.0994531 0.434492 L 0.200469 0.645508 L 0.260469 0.780547 L 0.486484 0.816523 L 0.749531 0.842539 L 0.954531 0.827539 L 0.938555 0.745508 L 0.753516 0.752539 L 0.596523 0.690508 L 0.755508 0.383477 L 0.877539 0.636523 L 0.884531 0.543516 L 0.709531 0.5375 Z M 0.486484 0.588516 " transform="matrix(100,0,0,100,0,200)"/>
<path style="fill:none;stroke-width:0.01;stroke-linecap:butt;stroke-linejoin:miter;stroke:rgb(0%,0%,0%);stroke-opacity:1;stroke-miterlimit:10;" d="M 0.519492 0.383477 L 0.297461 0.378477 L 0.256484 0.274492 L 0.163477 0.0454687 L 0.119453 0.0784766 L 0.214453 0.262461 L 0.205469 0.391484 L 0.204453 0.448477 L 0.0714453 0.458477 L 0.0784766 0.539492 L 0.210469 0.530508 L 0.219453 0.600508 L 0.267461 0.727539 L 0.349492 0.954531 L 0.420508 0.935547 L 0.340469 0.725508 L 0.300469 0.618516 L 0.519492 0.583516 L 0.721523 0.629531 L 0.900547 0.6175 L 0.905547 0.551523 L 0.760508 0.546523 L 0.609492 0.4825 L 0.786523 0.163477 L 0.900547 0.4375 L 0.928555 0.363477 L 0.748516 0.3425 Z M 0.519492 0.383477 " transform="matrix(100,0,0,100,150,200)"/>
<path style="fill:none;stroke-width:0.01;stroke-linecap:butt;stroke-linejoin:miter;stroke:rgb(0%,0%,0%);stroke-opacity:1;stroke-miterlimit:10;" d="M 0.625508 0.380469 L 0.429492 0.373477 L 0.4125 0.295469 L 0.3425 0.105469 L 0.303477 0.137461 L 0.385508 0.288477 L 0.366484 0.385508 L 0.361484 0.443477 L 0.255469 0.438477 L 0.250469 0.503516 L 0.358477 0.509492 L 0.365469 0.5725 L 0.0454687 0.755508 L 0.423477 0.894531 L 0.495508 0.872539 L 0.4775 0.6825 L 0.4475 0.578516 L 0.625508 0.566523 L 0.815547 0.5675 L 0.954531 0.533516 L 0.932539 0.4875 L 0.815547 0.503516 L 0.702539 0.468516 L 0.817539 0.4125 L 0.941563 0.415508 L 0.944531 0.340469 L 0.801523 0.341484 Z M 0.625508 0.380469 " transform="matrix(100,0,0,100,300,200)"/>
<path style="fill:none;stroke-width:0.01;stroke-linecap:butt;stroke-linejoin:miter;stroke:rgb(0%,0%,0%);stroke-opacity:1;stroke-miterlimit:10;" d="M 0.520508 0.243477 L 0.316484 0.257461 L 0.364492 0.252461 L 0.484492 0.232461 L 0.508516 0.178477 L 0.280469 0.0854687 L 0.204453 0.259492 L 0.194453 0.326484 L 0.0694531 0.323477 L 0.0614453 0.398477 L 0.185469 0.403477 L 0.191484 0.469492 L 0.268477 0.6625 L 0.376484 0.954531 L 0.483516 0.918555 L 0.360469 0.634531 L 0.275469 0.471484 L 0.520508 0.451484 L 0.749531 0.490508 L 0.938555 0.458477 L 0.920547 0.388477 L 0.765508 0.410508 L 0.615508 0.351484 L 0.811523 0.0454687 L 0.916523 0.315469 L 0.900547 0.232461 L 0.727539 0.220469 Z M 0.520508 0.243477 " transform="matrix(100,0,0,100,450,200)"/>
<path style="fill:none;stroke-width:0.01;stroke-linecap:butt;stroke-linejoin:miter;stroke:rgb(0%,0%,0%);stroke-opacity:1;stroke-miterlimit:10;" d="M 0.509492 0.5125 L 0.260469 0.499492 L 0.214453 0.420508 L 0.0774609 0.243477 L 0.0454688 0.282461 L 0.158477 0.414492 L 0.180469 0.521484 L 0.175469 0.596523 L 0.0524609 0.594492 L 0.0514453 0.665508 L 0.171484 0.6725 L 0.177461 0.736523 L 0.166484 0.6125 L 0.0914453 0.410508 L 0.148477 0.364492 L 0.246484 0.586523 L 0.292461 0.738516 L 0.509492 0.734531 L 0.721523 0.756523 L 0.914531 0.743516 L 0.908555 0.690508 L 0.760508 0.701523 L 0.613516 0.625508 L 0.777539 0.561523 L 0.954531 0.5725 L 0.946562 0.4925 L 0.774531 0.470508 Z M 0.509492 0.5125 " transform="matrix(100,0,0,100,600,200)"/>
<path style="fill:none;stroke-width:0.01;stroke-linecap:butt;stroke-linejoin:miter;stroke:rgb(0%,0%,0%);stroke-opacity:1;stroke-miterlimit:10;" d="M 0.499492 0.260469 L 0.262461 0.270469 L 0.230469 0.208477 L 0.157461 0.0454687 L 0.119453 0.0644531 L 0.199453 0.191484 L 0.196484 0.278477 L 0.196484 0.333477 L 0.0874609 0.329492 L 0.0854687 0.398477 L 0.192461 0.403477 L 0.197461 0.465508 L 0.224453 0.6475 L 0.275469 0.954531 L 0.380469 0.916523 L 0.325469 0.635508 L 0.289492 0.478516 L 0.499492 0.464492 L 0.731523 0.4725 L 0.899531 0.454492 L 0.890547 0.391484 L 0.741523 0.4025 L 0.590508 0.355469 L 0.792539 0.0654687 L 0.880547 0.3375 L 0.914531 0.269492 L 0.748516 0.234492 Z M 0.499492 0.260469 " transform="matrix(100,0,0,100,0,350)"/>
<path style="fill:none;stroke-width:0.01;stroke-linecap:butt;stroke-linejoin:miter;stroke:rgb(0%,0%,0%);stroke-opacity:1;stroke-miterlimit:10;" d="M 0.5875 0.363477 L 0.3925 0.361484 L 0.360469 0.288477 L 0.260469 0.114453 L 0.225469 0.143477 L 0.315469 0.271484 L 0.326484 0.3675 L 0.324492 0.4325 L 0.214453 0.4225 L 0.203477 0.489492 L 0.311484 0.503516 L 0.313477 0.5625 L 0.0454687 0.814531 L 0.469492 0.885547 L 0.5375 0.855547 L 0.4575 0.6875 L 0.395508 0.576523 L 0.5875 0.540508 L 0.793516 0.571523 L 0.954531 0.5675 L 0.954531 0.504492 L 0.798516 0.514492 L 0.674531 0.449492 L 0.775547 0.169453 L 0.911523 0.3675 L 0.900547 0.299492 L 0.761523 0.321484 Z M 0.5875 0.363477 " transform="matrix(100,0,0,100,150,350)"/>
<path style="fill:none;stroke-width:0.01;stroke-linecap:butt;stroke-linejoin:miter;stroke:rgb(0%,0%,0%);stroke-opacity:1;stroke-miterlimit:10;" d="M 0.646523 0.326484 L 0.4625 0.336484 L 0.624531 0.364492 L 0.3675 0.523516 L 0.3325 0.5025 L 0.359492 0.246484 L 0.393477 0.340469 L 0.393477 0.393477 L 0.303477 0.386484 L 0.299492 0.445508 L 0.388477 0.448477 L 0.393477 0.496484 L 0.0454687 0.713516 L 0.5225 0.847539 L 0.5875 0.803516 L 0.5075 0.6075 L 0.466484 0.5075 L 0.646523 0.493516 L 0.820547 0.481484 L 0.954531 0.4475 L 0.941563 0.404492 L 0.827539 0.425508 L 0.722539 0.398477 L 0.857539 0.152461 L 0.953555 0.354492 L 0.949531 0.297461 L 0.815547 0.293477 Z M 0.646523 0.326484 " transform="matrix(100,0,0,100,300,350)"/>
<path style="fill:none;stroke-width:0.01;stroke-linecap:butt;stroke-linejoin:miter;stroke:rgb(0%,0%,0%);stroke-opacity:1;stroke-miterlimit:10;" d="M 0.4925 0.3775 L 0.3075 0.3375 L 0.119453 0.485508 L 0.183477 0.0694531 L 0.150469 0.0894531 L 0.230469 0.243477 L 0.238477 0.3375 L 0.247461 0.451484 L 0.0454688 0.476484 L 0.0694531 0.6075 L 0.253477 0.564492 L 0.280469 0.651523 L 0.355469 0.769531 L 0.479492 0.930547 L 0.561523 0.872539 L 0.428477 0.715508 L 0.361484 0.626523 L 0.4925 0.599492 L 0.738516 0.631523 L 0.951563 0.620508 L 0.954531 0.546523 L 0.765508 0.546523 L 0.599492 0.479492 L 0.758516 0.146445 L 0.936562 0.4175 L 0.945547 0.321484 L 0.749531 0.320469 Z M 0.4925 0.3775 " transform="matrix(100,0,0,100,450,350)"/>
<path style="fill:none;stroke-width:0.01;stroke-linecap:butt;stroke-linejoin:miter;stroke:rgb(0%,0%,0%);stroke-opacity:1;stroke-miterlimit:10;" d="M 0.633516 0.386484 L 0.455508 0.406484 L 0.217461 0.534492 L 0.404492 0.0854687 L 0.350469 0.105469 L 0.414492 0.292461 L 0.388477 0.401484 L 0.378477 0.455508 L 0.278477 0.459492 L 0.280469 0.525508 L 0.379492 0.515508 L 0.388477 0.561523 L 0.0454688 0.785547 L 0.466484 0.914531 L 0.546523 0.896523 L 0.496484 0.6825 L 0.460508 0.569492 L 0.633516 0.5525 L 0.810547 0.568516 L 0.954531 0.553516 L 0.949531 0.491484 L 0.820547 0.503516 L 0.707539 0.464492 L 0.784531 0.240469 L 0.906523 0.4075 L 0.911523 0.354492 L 0.777539 0.358477 Z M 0.633516 0.386484 " transform="matrix(100,0,0,100,600,350)"/>
<path style="fill:none;stroke-width:0.01;stroke-linecap:butt;stroke-linejoin:miter;stroke:rgb(0%,0%,0%);stroke-opacity:1;stroke-miterlimit:10;" d="M 0.668516 0.259492 L 0.5075 0.263477 L 0.4775 0.318477 L 0.425508 0.4325 L 0.393477 0.424492 L 0.423477 0.319492 L 0.443477 0.268477 L 0.4425 0.314492 L 0.360469 0.311484 L 0.3525 0.368477 L 0.444492 0.369492 L 0.453477 0.415508 L 0.0454688 0.600508 L 0.514492 0.813516 L 0.605508 0.790547 L 0.545508 0.5475 L 0.5225 0.420508 L 0.668516 0.404492 L 0.819531 0.400508 L 0.951562 0.380469 L 0.936562 0.336484 L 0.831523 0.355469 L 0.738516 0.326484 L 0.833516 0.258477 L 0.954531 0.248477 L 0.939531 0.186484 L 0.817539 0.204453 Z M 0.668516 0.259492 " transform="matrix(100,0,0,100,0,500)"/>
<path style="fill:none;stroke-width:0.01;stroke-linecap:butt;stroke-linejoin:miter;stroke:rgb(0%,0%,0%);stroke-opacity:1;stroke-miterlimit:10;" d="M 0.505508 0.328477 L 0.295469 0.340469 L 0.112461 0.551523 L 0.115469 0.0454688 L 0.0794531 0.0814453 L 0.190469 0.227461 L 0.205469 0.359492 L 0.196484 0.4325 L 0.0834766 0.4375 L 0.0884766 0.510508 L 0.199453 0.505508 L 0.213477 0.569492 L 0.239492 0.722539 L 0.266484 0.954531 L 0.364492 0.953555 L 0.3225 0.728516 L 0.300469 0.581523 L 0.505508 0.538516 L 0.729531 0.565508 L 0.913555 0.5575 L 0.914531 0.483516 L 0.745508 0.489492 L 0.601523 0.426484 L 0.743516 0.378477 L 0.910547 0.419492 L 0.920547 0.340469 L 0.744531 0.316484 Z M 0.505508 0.328477 " transform="matrix(100,0,0,100,150,500)"/>
<path style="fill:none;stroke-width:0.01;stroke-linecap:butt;stroke-linejoin:miter;stroke:rgb(0%,0%,0%);stroke-opacity:1;stroke-miterlimit:10;" d="M 0.5025 0.3325 L 0.276484 0.3275 L 0.0764453 0.523516 L 0.117461 0.0454688 L 0.0694531 0.0924609 L 0.180469 0.238477 L 0.192461 0.339492 L 0.192461 0.4175 L 0.0624609 0.399492 L 0.0604688 0.479492 L 0.175469 0.493516 L 0.176484 0.558516 L 0.215469 0.706523 L 0.273477 0.954531 L 0.351484 0.954531 L 0.302461 0.704531 L 0.271484 0.5625 L 0.5025 0.534492 L 0.740508 0.550508 L 0.928555 0.530508 L 0.939531 0.448477 L 0.767539 0.478516 L 0.591523 0.426484 L 0.715508 0.368477 L 0.866523 0.379492 L 0.854531 0.313477 L 0.695508 0.300469 Z M 0.5025 0.3325 " transform="matrix(100,0,0,100,300,500)"/>
<path style="fill:none;stroke-width:0.01;stroke-linecap:butt;stroke-linejoin:miter;stroke:rgb(0%,0%,0%);stroke-opacity:1;stroke-miterlimit:10;" d="M 0.501484 0.346484 L 0.323477 0.294492 L 0.299492 0.225469 L 0.219453 0.0454688 L 0.190469 0.0764453 L 0.266484 0.211484 L 0.255469 0.291484 L 0.251484 0.380469 L 0.0884766 0.375469 L 0.0854688 0.475508 L 0.249492 0.4825 L 0.269492 0.576523 L 0.3475 0.730508 L 0.4675 0.954531 L 0.549492 0.916523 L 0.440508 0.681523 L 0.3525 0.558516 L 0.501484 0.560508 L 0.736523 0.5275 L 0.914531 0.475508 L 0.887539 0.415508 L 0.748516 0.4575 L 0.601523 0.435508 L 0.698516 0.0524609 L 0.888555 0.320469 L 0.896523 0.230469 L 0.709531 0.260469 Z M 0.501484 0.346484 " transform="matrix(100,0,0,100,450,500)"/>
<path style="fill:none;stroke-width:0.01;stroke-linecap:butt;stroke-linejoin:miter;stroke:rgb(0%,0%,0%);stroke-opacity:1;stroke-miterlimit:10;" d="M 0.5925 0.336484 L 0.401484 0.341484 L 0.6075 0.391484 L 0.263477 0.5625 L 0.220469 0.545508 L 0.283477 0.398477 L 0.319492 0.349492 L 0.316484 0.409492 L 0.223477 0.4075 L 0.226484 0.466484 L 0.316484 0.463516 L 0.3325 0.515508 L 0.0454688 0.758516 L 0.479492 0.818516 L 0.541523 0.789531 L 0.456484 0.6075 L 0.408477 0.5225 L 0.5925 0.511484 L 0.792539 0.4875 L 0.954531 0.4575 L 0.932539 0.399492 L 0.804531 0.433477 L 0.674531 0.411484 L 0.779531 0.181484 L 0.896523 0.363477 L 0.904531 0.310469 L 0.761523 0.299492 Z M 0.5925 0.336484 " transform="matrix(100,0,0,100,600,500)"/>
<path style="fill:none;stroke-width:0.01;stroke-linecap:butt;stroke-linejoin:miter;stroke:rgb(0%,0%,0%);stroke-opacity:1;stroke-miterlimit:10;" d="M 0.513516 0.360469 L 0.270469 0.3475 L 0.0454688 0.476484 L 0.208477 0.0594531 L 0.160469 0.0814453 L 0.216484 0.245469 L 0.188477 0.344492 L 0.182461 0.419492 L 0.0624609 0.4225 L 0.0634375 0.499492 L 0.185469 0.498516 L 0.197461 0.560508 L 0.261484 0.702539 L 0.3525 0.940547 L 0.444492 0.916523 L 0.343477 0.697539 L 0.297461 0.570508 L 0.513516 0.5625 L 0.722539 0.584492 L 0.896523 0.566523 L 0.893555 0.5175 L 0.744531 0.515508 L 0.613516 0.461484 L 0.806523 0.103477 L 0.954531 0.3925 L 0.943555 0.299492 L 0.751523 0.300469 Z M 0.513516 0.360469 " transform="matrix(100,0,0,100,0,650)"/>
<path style="fill:none;stroke-width:0.01;stroke-linecap:butt;stroke-linejoin:miter;stroke:rgb(0%,0%,0%);stroke-opacity:1;stroke-miterlimit:10;" d="M 0.5275 0.3575 L 0.323477 0.3425 L 0.280469 0.260469 L 0.153477 0.0454688 L 0.108477 0.0744531 L 0.234492 0.244492 L 0.247461 0.348477 L 0.237461 0.411484 L 0.135469 0.408477 L 0.131445 0.478516 L 0.236484 0.481484 L 0.242461 0.539492 L 0.266484 0.693516 L 0.297461 0.954531 L 0.386484 0.937539 L 0.340469 0.686523 L 0.323477 0.550508 L 0.5275 0.538516 L 0.714531 0.578516 L 0.859531 0.569492 L 0.853555 0.516484 L 0.724531 0.5075 L 0.6125 0.455508 L 0.741523 0.406484 L 0.891523 0.4175 L 0.883555 0.339492 L 0.732539 0.326484 Z M 0.5275 0.3575 " transform="matrix(100,0,0,100,150,650)"/>
<path style="fill:none;stroke-width:0.01;stroke-linecap:butt;stroke-linejoin:miter;stroke:rgb(0%,0%,0%);stroke-opacity:1;stroke-miterlimit:10;" d="M 0.630508 0.389492 L 0.444492 0.391484 L 0.4075 0.301484 L 0.287461 0.0814453 L 0.258477 0.130469 L 0.373477 0.289492 L 0.3775 0.400508 L 0.368477 0.458477 L 0.265469 0.464492 L 0.268477 0.5275 L 0.364492 0.521484 L 0.375469 0.576523 L 0.0454687 0.808516 L 0.494492 0.918555 L 0.564492 0.900547 L 0.499492 0.707539 L 0.4575 0.578516 L 0.630508 0.553516 L 0.808516 0.563516 L 0.954531 0.553516 L 0.946563 0.5025 L 0.826523 0.509492 L 0.712539 0.4625 L 0.777539 0.242461 L 0.905547 0.3975 L 0.912539 0.344492 L 0.781523 0.344492 Z M 0.630508 0.389492 " transform="matrix(100,0,0,100,300,650)"/>
<path style="fill:none;stroke-width:0.01;stroke-linecap:butt;stroke-linejoin:miter;stroke:rgb(0%,0%,0%);stroke-opacity:1;stroke-miterlimit:10;" d="M 0.506484 0.329492 L 0.279492 0.326484 L 0.220469 0.245469 L 0.106445 0.0454688 L 0.0704687 0.0794531 L 0.180469 0.222461 L 0.189453 0.340469 L 0.178477 0.411484 L 0.0744531 0.395508 L 0.0664453 0.463516 L 0.166484 0.480508 L 0.165469 0.5475 L 0.210469 0.707539 L 0.279492 0.954531 L 0.386484 0.940547 L 0.291484 0.701523 L 0.265469 0.568516 L 0.506484 0.559492 L 0.721523 0.6025 L 0.929531 0.601523 L 0.928555 0.526484 L 0.755508 0.519492 L 0.610508 0.443477 L 0.752539 0.374492 L 0.909531 0.388477 L 0.933555 0.324492 L 0.742539 0.299492 Z M 0.506484 0.329492 " transform="matrix(100,0,0,100,450,650)"/>
<path style="fill:none;stroke-width:0.01;stroke-linecap:butt;stroke-linejoin:miter;stroke:rgb(0%,0%,0%);stroke-opacity:1;stroke-miterlimit:10;" d="M 0.668516 0.298477 L 0.5175 0.298477 L 0.498516 0.209453 L 0.6375 0.293477 L 0.658516 0.257461 L 0.506484 0.182461 L 0.441484 0.286484 L 0.4275 0.340469 L 0.3475 0.330469 L 0.3375 0.386484 L 0.418477 0.390508 L 0.419492 0.4425 L 0.0454688 0.686523 L 0.479492 0.817539 L 0.5625 0.811523 L 0.505508 0.585508 L 0.484492 0.4575 L 0.668516 0.4525 L 0.826523 0.466484 L 0.954531 0.451484 L 0.944531 0.4025 L 0.837539 0.406484 L 0.735508 0.365469 L 0.818516 0.328477 L 0.915547 0.330469 L 0.914531 0.278477 L 0.797539 0.271484 Z M 0.668516 0.298477 " transform="matrix(100,0,0,100,600,650)"/>
</g>
</svg>
