<?xml version="1.0" encoding="UTF-8"?>
<svg xmlns="http://www.w3.org/2000/svg" xmlns:xlink="http://www.w3.org/1999/xlink" width="750pt" height="3600pt" viewBox="0 0 750 3600" version="1.1">
<g id="surface1">
<path style="fill:none;stroke-width:0.01;stroke-linecap:butt;stroke-linejoin:miter;stroke:rgb(0%,0%,0%);stroke-opacity:1;stroke-miterlimit:10;" d="M 0.536484 0.395508 L 0.309492 0.396484 L 0.225469 0.411484 L 0.137461 0.400508 L 0.122461 0.436484 L 0.171484 0.413477 L 0.220469 0.371484 L 0.182461 0.454492 L 0.0494531 0.4475 L 0.0454688 0.523516 L 0.173477 0.530508 L 0.205469 0.604492 L 0.393477 0.643516 L 0.6025 0.601523 L 0.588516 0.543516 L 0.4275 0.584492 L 0.285469 0.5725 L 0.536484 0.570508 L 0.779531 0.5925 L 0.954531 0.5925 L 0.946562 0.5175 L 0.778516 0.515508 L 0.614492 0.486484 L 0.769531 0.4425 L 0.939531 0.4375 L 0.931563 0.356484 L 0.752539 0.3725 Z M 0.536484 0.395508 " transform="matrix(100,0,0,100,0,200)"/>
<path style="fill:none;stroke-width:0.01;stroke-linecap:butt;stroke-linejoin:miter;stroke:rgb(0%,0%,0%);stroke-opacity:1;stroke-miterlimit:10;" d="M 0.535508 0.406484 L 0.309492 0.4075 L 0.439492 0.390508 L 0.569492 0.415508 L 0.595508 0.361484 L 0.424492 0.344492 L 0.221484 0.381484 L 0.182461 0.464492 L 0.0484375 0.4575 L 0.0454687 0.533516 L 0.173477 0.540508 L 0.205469 0.615508 L 0.391484 0.655508 L 0.600508 0.614492 L 0.5875 0.556523 L 0.425508 0.596523 L 0.285469 0.583516 L 0.535508 0.580508 L 0.779531 0.601523 L 0.954531 0.601523 L 0.947539 0.5275 L 0.780547 0.5275 L 0.613516 0.496484 L 0.769531 0.451484 L 0.937539 0.445508 L 0.927539 0.363477 L 0.750508 0.379492 Z M 0.535508 0.406484 " transform="matrix(100,0,0,100,150,200)"/>
<path style="fill:none;stroke-width:0.01;stroke-linecap:butt;stroke-linejoin:miter;stroke:rgb(0%,0%,0%);stroke-opacity:1;stroke-miterlimit:10;" d="M 0.401484 0.396484 L 0.229492 0.453477 L 0.180469 0.4175 L 0.144453 0.366484 L 0.117461 0.376484 L 0.129453 0.415508 L 0.156484 0.456484 L 0.148477 0.529492 L 0.0454687 0.555508 L 0.0614453 0.614492 L 0.160469 0.588516 L 0.203477 0.6375 L 0.176484 0.6025 L 0.133477 0.578516 L 0.132461 0.6025 L 0.199453 0.6025 L 0.252461 0.621523 L 0.401484 0.6275 L 0.723516 0.656523 L 0.954531 0.656523 L 0.942539 0.5575 L 0.721523 0.555508 L 0.505508 0.516484 L 0.712539 0.454492 L 0.933555 0.448477 L 0.920547 0.343477 L 0.684531 0.3675 Z M 0.401484 0.396484 " transform="matrix(100,0,0,100,300,200)"/>
<path style="fill:none;stroke-width:0.01;stroke-linecap:butt;stroke-linejoin:miter;stroke:rgb(0%,0%,0%);stroke-opacity:1;stroke-miterlimit:10;" d="M 0.400508 0.393477 L 0.229492 0.451484 L 0.3225 0.4075 L 0.425508 0.394492 L 0.433477 0.346484 L 0.300469 0.374492 L 0.156484 0.454492 L 0.149453 0.526484 L 0.0454688 0.555508 L 0.0624609 0.613516 L 0.161484 0.586523 L 0.203477 0.634531 L 0.313477 0.663516 L 0.438477 0.645508 L 0.4325 0.611523 L 0.335469 0.630508 L 0.251484 0.6175 L 0.400508 0.624531 L 0.723516 0.651523 L 0.954531 0.653516 L 0.942539 0.5525 L 0.721523 0.553516 L 0.505508 0.513516 L 0.712539 0.451484 L 0.934531 0.444492 L 0.920547 0.336484 L 0.681523 0.359492 Z M 0.400508 0.393477 " transform="matrix(100,0,0,100,450,200)"/>
<path style="fill:none;stroke-width:0.01;stroke-linecap:butt;stroke-linejoin:miter;stroke:rgb(0%,0%,0%);stroke-opacity:1;stroke-miterlimit:10;" d="M 0.535508 0.405508 L 0.309492 0.4075 L 0.4375 0.390508 L 0.5675 0.415508 L 0.595508 0.361484 L 0.423477 0.345469 L 0.220469 0.381484 L 0.182461 0.464492 L 0.0494531 0.4575 L 0.0454688 0.5325 L 0.173477 0.539492 L 0.204453 0.613516 L 0.391484 0.654531 L 0.600508 0.613516 L 0.588516 0.5575 L 0.424492 0.595508 L 0.285469 0.5825 L 0.535508 0.579492 L 0.780547 0.600508 L 0.954531 0.600508 L 0.946562 0.526484 L 0.777539 0.526484 L 0.613516 0.495508 L 0.768516 0.448477 L 0.938555 0.443477 L 0.931563 0.360469 L 0.752539 0.379492 Z M 0.535508 0.405508 " transform="matrix(100,0,0,100,600,200)"/>
<path style="fill:none;stroke-width:0.01;stroke-linecap:butt;stroke-linejoin:miter;stroke:rgb(0%,0%,0%);stroke-opacity:1;stroke-miterlimit:10;" d="M 0.536484 0.426484 L 0.310469 0.428477 L 0.438477 0.410508 L 0.568516 0.436484 L 0.595508 0.3825 L 0.424492 0.365469 L 0.222461 0.4025 L 0.184453 0.484492 L 0.0494531 0.476484 L 0.0454688 0.5525 L 0.175469 0.560508 L 0.206484 0.634531 L 0.158477 0.578516 L 0.0844531 0.543516 L 0.0854687 0.5825 L 0.197461 0.576523 L 0.287461 0.6025 L 0.536484 0.600508 L 0.781523 0.620508 L 0.954531 0.620508 L 0.946562 0.546523 L 0.777539 0.546523 L 0.614492 0.516484 L 0.769531 0.471484 L 0.937539 0.465508 L 0.928555 0.384492 L 0.748516 0.4025 Z M 0.536484 0.426484 " transform="matrix(100,0,0,100,0,350)"/>
<path style="fill:none;stroke-width:0.01;stroke-linecap:butt;stroke-linejoin:miter;stroke:rgb(0%,0%,0%);stroke-opacity:1;stroke-miterlimit:10;" d="M 0.535508 0.463516 L 0.308477 0.465508 L 0.264492 0.4025 L 0.241484 0.3275 L 0.205469 0.328477 L 0.205469 0.379492 L 0.220469 0.439492 L 0.183477 0.5225 L 0.0494531 0.514492 L 0.0454687 0.589492 L 0.173477 0.598516 L 0.206484 0.6725 L 0.158477 0.615508 L 0.0844531 0.579492 L 0.0844531 0.618516 L 0.197461 0.614492 L 0.286484 0.641523 L 0.535508 0.6375 L 0.780547 0.658516 L 0.954531 0.658516 L 0.946563 0.5825 L 0.777539 0.5825 L 0.614492 0.553516 L 0.769531 0.5075 L 0.936562 0.5025 L 0.929531 0.421484 L 0.752539 0.439492 Z M 0.535508 0.463516 " transform="matrix(100,0,0,100,150,350)"/>
<path style="fill:none;stroke-width:0.01;stroke-linecap:butt;stroke-linejoin:miter;stroke:rgb(0%,0%,0%);stroke-opacity:1;stroke-miterlimit:10;" d="M 0.534492 0.406484 L 0.3075 0.4075 L 0.435508 0.391484 L 0.5625 0.415508 L 0.590508 0.3625 L 0.420508 0.344492 L 0.219453 0.381484 L 0.182461 0.464492 L 0.0484375 0.456484 L 0.0454687 0.533516 L 0.173477 0.540508 L 0.204453 0.614492 L 0.391484 0.655508 L 0.599492 0.614492 L 0.586523 0.555508 L 0.425508 0.595508 L 0.285469 0.583516 L 0.534492 0.580508 L 0.780547 0.601523 L 0.954531 0.601523 L 0.946563 0.525508 L 0.777539 0.525508 L 0.613516 0.496484 L 0.767539 0.450508 L 0.936562 0.444492 L 0.926523 0.365469 L 0.747539 0.381484 Z M 0.534492 0.406484 " transform="matrix(100,0,0,100,300,350)"/>
<path style="fill:none;stroke-width:0.01;stroke-linecap:butt;stroke-linejoin:miter;stroke:rgb(0%,0%,0%);stroke-opacity:1;stroke-miterlimit:10;" d="M 0.535508 0.406484 L 0.309492 0.4075 L 0.438477 0.390508 L 0.566523 0.415508 L 0.5925 0.363477 L 0.4225 0.346484 L 0.221484 0.381484 L 0.183477 0.464492 L 0.0494531 0.456484 L 0.0454688 0.5325 L 0.174453 0.540508 L 0.205469 0.614492 L 0.394492 0.653516 L 0.601523 0.610508 L 0.5875 0.5525 L 0.424492 0.594492 L 0.285469 0.5825 L 0.535508 0.580508 L 0.779531 0.603516 L 0.954531 0.6025 L 0.946562 0.528516 L 0.779531 0.525508 L 0.614492 0.496484 L 0.769531 0.450508 L 0.938555 0.446484 L 0.932539 0.365469 L 0.750508 0.383477 Z M 0.535508 0.406484 " transform="matrix(100,0,0,100,450,350)"/>
<path style="fill:none;stroke-width:0.01;stroke-linecap:butt;stroke-linejoin:miter;stroke:rgb(0%,0%,0%);stroke-opacity:1;stroke-miterlimit:10;" d="M 0.401484 0.399492 L 0.229492 0.4575 L 0.321484 0.414492 L 0.425508 0.400508 L 0.4325 0.353477 L 0.300469 0.383477 L 0.156484 0.460508 L 0.149453 0.531484 L 0.0454688 0.559492 L 0.0624609 0.618516 L 0.161484 0.591523 L 0.203477 0.639531 L 0.177461 0.605508 L 0.134453 0.5825 L 0.134453 0.606523 L 0.201484 0.606523 L 0.252461 0.623516 L 0.401484 0.630508 L 0.725508 0.656523 L 0.954531 0.6575 L 0.942539 0.559492 L 0.721523 0.558516 L 0.505508 0.519492 L 0.708516 0.4575 L 0.932539 0.451484 L 0.921523 0.3425 L 0.683516 0.3675 Z M 0.401484 0.399492 " transform="matrix(100,0,0,100,600,350)"/>
<path style="fill:none;stroke-width:0.01;stroke-linecap:butt;stroke-linejoin:miter;stroke:rgb(0%,0%,0%);stroke-opacity:1;stroke-miterlimit:10;" d="M 0.400508 0.399492 L 0.229492 0.459492 L 0.169453 0.491484 L 0.101445 0.503516 L 0.0984766 0.534492 L 0.129453 0.505508 L 0.156484 0.461484 L 0.148477 0.5325 L 0.0454688 0.560508 L 0.0624609 0.618516 L 0.160469 0.5925 L 0.203477 0.640508 L 0.176484 0.606523 L 0.133477 0.583516 L 0.133477 0.606523 L 0.199453 0.606523 L 0.251484 0.624531 L 0.400508 0.630508 L 0.724531 0.656523 L 0.954531 0.655508 L 0.944531 0.556523 L 0.722539 0.5575 L 0.503516 0.518516 L 0.708516 0.456484 L 0.930547 0.449492 L 0.918555 0.343477 L 0.681523 0.3675 Z M 0.400508 0.399492 " transform="matrix(100,0,0,100,0,500)"/>
<path style="fill:none;stroke-width:0.01;stroke-linecap:butt;stroke-linejoin:miter;stroke:rgb(0%,0%,0%);stroke-opacity:1;stroke-miterlimit:10;" d="M 0.400508 0.3925 L 0.229492 0.450508 L 0.169453 0.4825 L 0.101445 0.494492 L 0.0984766 0.526484 L 0.129453 0.4975 L 0.156484 0.4525 L 0.148477 0.524492 L 0.0454687 0.551523 L 0.0604688 0.610508 L 0.160469 0.584492 L 0.202461 0.633516 L 0.313477 0.664531 L 0.439492 0.645508 L 0.433477 0.609492 L 0.336484 0.629531 L 0.252461 0.616523 L 0.400508 0.623516 L 0.722539 0.6525 L 0.954531 0.651523 L 0.943555 0.5525 L 0.719531 0.551523 L 0.504492 0.5125 L 0.709531 0.4525 L 0.932539 0.445508 L 0.924531 0.335469 L 0.685508 0.360469 Z M 0.400508 0.3925 " transform="matrix(100,0,0,100,150,500)"/>
<path style="fill:none;stroke-width:0.01;stroke-linecap:butt;stroke-linejoin:miter;stroke:rgb(0%,0%,0%);stroke-opacity:1;stroke-miterlimit:10;" d="M 0.534492 0.416484 L 0.308477 0.418477 L 0.224453 0.433477 L 0.138477 0.420508 L 0.121445 0.456484 L 0.171484 0.434492 L 0.220469 0.3925 L 0.182461 0.474492 L 0.0484375 0.4675 L 0.0454687 0.5425 L 0.173477 0.550508 L 0.204453 0.625508 L 0.156484 0.569492 L 0.0824609 0.534492 L 0.0844531 0.573516 L 0.195469 0.5675 L 0.285469 0.594492 L 0.534492 0.591523 L 0.779531 0.614492 L 0.954531 0.613516 L 0.947539 0.5375 L 0.779531 0.536484 L 0.613516 0.5075 L 0.769531 0.461484 L 0.939531 0.455508 L 0.929531 0.374492 L 0.749531 0.391484 Z M 0.534492 0.416484 " transform="matrix(100,0,0,100,300,500)"/>
<path style="fill:none;stroke-width:0.01;stroke-linecap:butt;stroke-linejoin:miter;stroke:rgb(0%,0%,0%);stroke-opacity:1;stroke-miterlimit:10;" d="M 0.401484 0.393477 L 0.230469 0.451484 L 0.3225 0.4075 L 0.4275 0.394492 L 0.434492 0.3475 L 0.301484 0.3775 L 0.157461 0.454492 L 0.149453 0.526484 L 0.0454688 0.556523 L 0.0634375 0.614492 L 0.161484 0.586523 L 0.204453 0.634531 L 0.314492 0.664531 L 0.438477 0.646523 L 0.431484 0.6125 L 0.334492 0.630508 L 0.252461 0.6175 L 0.401484 0.623516 L 0.727539 0.650508 L 0.954531 0.651523 L 0.943555 0.5525 L 0.720508 0.551523 L 0.505508 0.5125 L 0.711523 0.449492 L 0.933555 0.444492 L 0.923555 0.335469 L 0.685508 0.360469 Z M 0.401484 0.393477 " transform="matrix(100,0,0,100,450,500)"/>
<path style="fill:none;stroke-width:0.01;stroke-linecap:butt;stroke-linejoin:miter;stroke:rgb(0%,0%,0%);stroke-opacity:1;stroke-miterlimit:10;" d="M 0.399492 0.393477 L 0.229492 0.451484 L 0.180469 0.414492 L 0.144453 0.363477 L 0.117461 0.3725 L 0.129453 0.4125 L 0.156484 0.453477 L 0.148477 0.526484 L 0.0454688 0.554492 L 0.0614453 0.611523 L 0.159453 0.585508 L 0.202461 0.634531 L 0.311484 0.663516 L 0.4375 0.645508 L 0.430508 0.610508 L 0.334492 0.629531 L 0.251484 0.618516 L 0.399492 0.624531 L 0.724531 0.651523 L 0.954531 0.650508 L 0.944531 0.551523 L 0.721523 0.551523 L 0.503516 0.513516 L 0.708516 0.4525 L 0.931563 0.445508 L 0.921523 0.336484 L 0.683516 0.358477 Z M 0.399492 0.393477 " transform="matrix(100,0,0,100,600,500)"/>
<path style="fill:none;stroke-width:0.01;stroke-linecap:butt;stroke-linejoin:miter;stroke:rgb(0%,0%,0%);stroke-opacity:1;stroke-miterlimit:10;" d="M 0.400508 0.3975 L 0.229492 0.456484 L 0.180469 0.418477 L 0.144453 0.3675 L 0.118477 0.3775 L 0.129453 0.416484 L 0.156484 0.4575 L 0.148477 0.529492 L 0.0454688 0.5575 L 0.0614453 0.615508 L 0.160469 0.589492 L 0.203477 0.6375 L 0.176484 0.6025 L 0.134453 0.578516 L 0.133477 0.6025 L 0.199453 0.603516 L 0.251484 0.621523 L 0.400508 0.628516 L 0.724531 0.654531 L 0.954531 0.656523 L 0.944531 0.558516 L 0.718516 0.556523 L 0.504492 0.516484 L 0.710508 0.4575 L 0.933555 0.450508 L 0.921523 0.343477 L 0.684531 0.366484 Z M 0.400508 0.3975 " transform="matrix(100,0,0,100,0,650)"/>
<path style="fill:none;stroke-width:0.01;stroke-linecap:butt;stroke-linejoin:miter;stroke:rgb(0%,0%,0%);stroke-opacity:1;stroke-miterlimit:10;" d="M 0.534492 0.443477 L 0.306484 0.445508 L 0.262461 0.3825 L 0.239492 0.3075 L 0.202461 0.3075 L 0.202461 0.359492 L 0.218477 0.420508 L 0.180469 0.503516 L 0.0484375 0.4975 L 0.0454687 0.571523 L 0.171484 0.578516 L 0.203477 0.6525 L 0.391484 0.6925 L 0.599492 0.6525 L 0.585508 0.595508 L 0.424492 0.635508 L 0.284492 0.621523 L 0.534492 0.618516 L 0.779531 0.640508 L 0.954531 0.640508 L 0.946563 0.564492 L 0.776523 0.563516 L 0.613516 0.534492 L 0.770508 0.4875 L 0.940547 0.4825 L 0.933555 0.401484 L 0.751523 0.418477 Z M 0.534492 0.443477 " transform="matrix(100,0,0,100,150,650)"/>
<path style="fill:none;stroke-width:0.01;stroke-linecap:butt;stroke-linejoin:miter;stroke:rgb(0%,0%,0%);stroke-opacity:1;stroke-miterlimit:10;" d="M 0.400508 0.399492 L 0.228477 0.4575 L 0.168477 0.489492 L 0.100469 0.501484 L 0.0974609 0.533516 L 0.129453 0.504492 L 0.155469 0.460508 L 0.148477 0.5325 L 0.0454687 0.560508 L 0.0624609 0.618516 L 0.160469 0.591523 L 0.203477 0.639531 L 0.176484 0.604492 L 0.133477 0.581523 L 0.133477 0.605508 L 0.199453 0.605508 L 0.251484 0.623516 L 0.400508 0.629531 L 0.726523 0.656523 L 0.954531 0.6575 L 0.941563 0.5575 L 0.717539 0.558516 L 0.503516 0.518516 L 0.706523 0.4575 L 0.929531 0.449492 L 0.919531 0.3425 L 0.6825 0.3675 Z M 0.400508 0.399492 " transform="matrix(100,0,0,100,300,650)"/>
<path style="fill:none;stroke-width:0.01;stroke-linecap:butt;stroke-linejoin:miter;stroke:rgb(0%,0%,0%);stroke-opacity:1;stroke-miterlimit:10;" d="M 0.534492 0.4175 L 0.308477 0.419492 L 0.223477 0.435508 L 0.136445 0.4225 L 0.119453 0.458477 L 0.169453 0.435508 L 0.219453 0.393477 L 0.181484 0.476484 L 0.0474609 0.470508 L 0.0454688 0.545508 L 0.172461 0.551523 L 0.203477 0.626523 L 0.156484 0.570508 L 0.0824609 0.535508 L 0.0844531 0.574492 L 0.194453 0.568516 L 0.283477 0.595508 L 0.534492 0.5925 L 0.780547 0.614492 L 0.954531 0.616523 L 0.945547 0.539492 L 0.778516 0.539492 L 0.613516 0.508516 L 0.770508 0.461484 L 0.939531 0.455508 L 0.931563 0.373477 L 0.751523 0.391484 Z M 0.534492 0.4175 " transform="matrix(100,0,0,100,450,650)"/>
<path style="fill:none;stroke-width:0.01;stroke-linecap:butt;stroke-linejoin:miter;stroke:rgb(0%,0%,0%);stroke-opacity:1;stroke-miterlimit:10;" d="M 0.399492 0.3925 L 0.228477 0.450508 L 0.320469 0.404492 L 0.424492 0.390508 L 0.4325 0.343477 L 0.299492 0.3725 L 0.155469 0.453477 L 0.147461 0.525508 L 0.0454688 0.5525 L 0.0614453 0.610508 L 0.158477 0.584492 L 0.201484 0.633516 L 0.3125 0.661523 L 0.4375 0.643516 L 0.430508 0.609492 L 0.333477 0.6275 L 0.250469 0.616523 L 0.399492 0.623516 L 0.725508 0.648516 L 0.954531 0.651523 L 0.944531 0.550508 L 0.721523 0.5525 L 0.503516 0.5125 L 0.711523 0.454492 L 0.933555 0.444492 L 0.925547 0.338477 L 0.686523 0.3625 Z M 0.399492 0.3925 " transform="matrix(100,0,0,100,600,650)"/>
</g>
</svg>
