<?xml version="1.0" encoding="UTF-8" standalone="no"?>
<!-- Created with Inkscape (http://www.inkscape.org/) -->

<svg
   xmlns:dc="http://purl.org/dc/elements/1.1/"
   xmlns:cc="http://creativecommons.org/ns#"
   xmlns:rdf="http://www.w3.org/1999/02/22-rdf-syntax-ns#"
   xmlns:svg="http://www.w3.org/2000/svg"
   xmlns="http://www.w3.org/2000/svg"
   xmlns:sodipodi="http://sodipodi.sourceforge.net/DTD/sodipodi-0.dtd"
   xmlns:inkscape="http://www.inkscape.org/namespaces/inkscape"
   width="744.09448819"
   height="1052.3622047"
   id="svg3912"
   version="1.1"
   inkscape:version="0.47 r22583"
   sodipodi:docname="basri_original.eps">
  <defs
     id="defs3914">
    <inkscape:perspective
       sodipodi:type="inkscape:persp3d"
       inkscape:vp_x="0 : 526.18109 : 1"
       inkscape:vp_y="0 : 1000 : 0"
       inkscape:vp_z="744.09448 : 526.18109 : 1"
       inkscape:persp3d-origin="372.04724 : 350.78739 : 1"
       id="perspective3920" />
    <inkscape:perspective
       id="perspective3907"
       inkscape:persp3d-origin="0.5 : 0.33333333 : 1"
       inkscape:vp_z="1 : 0.5 : 1"
       inkscape:vp_y="0 : 1000 : 0"
       inkscape:vp_x="0 : 0.5 : 1"
       sodipodi:type="inkscape:persp3d" />
  </defs>
  <sodipodi:namedview
     id="base"
     pagecolor="#ffffff"
     bordercolor="#666666"
     borderopacity="1.0"
     inkscape:pageopacity="0.0"
     inkscape:pageshadow="2"
     inkscape:zoom="0.35"
     inkscape:cx="375"
     inkscape:cy="520"
     inkscape:document-units="px"
     inkscape:current-layer="layer1"
     showgrid="false"
     inkscape:window-width="613"
     inkscape:window-height="504"
     inkscape:window-x="704"
     inkscape:window-y="24"
     inkscape:window-maximized="0" />
  <metadata
     id="metadata3917">
    <rdf:RDF>
      <cc:Work
         rdf:about="">
        <dc:format>image/svg+xml</dc:format>
        <dc:type
           rdf:resource="http://purl.org/dc/dcmitype/StillImage" />
        <dc:title></dc:title>
      </cc:Work>
    </rdf:RDF>
  </metadata>
  <g
     inkscape:label="Layer 1"
     inkscape:groupmode="layer"
     id="layer1">
    <path
       style="fill:none;stroke:#000000;stroke-opacity:1"
       d="m 352.46684,651.08767 0.23504,-43.24104 11.53005,0.25323 11.53003,0.25322 0.23503,43.21406 0.23502,43.21406 9.93752,0 9.93753,0 0.23502,-43.21406 0.23503,-43.21406 10.40757,-0.4525 10.40757,-0.4525 0.23338,-54.07414 c 0.20755,-48.09188 0.38825,-54.07413 1.6334,-54.07413 0.77001,0 20.07147,4.68341 42.89213,10.40757 22.82066,5.72417 41.73164,10.40758 42.02438,10.40758 0.29275,0 0.63804,-19.44633 0.7673,-43.21406 l 0.23503,-43.21406 32.80648,-0.23753 c 25.72434,-0.18627 32.80648,0.006 32.80648,0.89084 0,0.62061 -4.57495,5.71636 -10.16656,11.32387 l -10.16656,10.19548 53.18309,0 53.18304,0 -0.2549,-10.57459 -0.255,-10.57459 -64.19858,-21.58497 c -35.30921,-11.87173 -64.63142,-21.40893 -65.16046,-21.19378 -0.52903,0.21515 -24.981,19.57399 -54.33772,43.01963 -29.3567,23.44565 -53.67672,42.62846 -54.04448,42.62846 -0.36777,0 -0.78382,-4.5816 -0.92456,-10.18133 l -0.25589,-10.18132 -21.52081,-0.24269 -21.52082,-0.2427 0.25317,-11.52239 0.25316,-11.52239 10.95743,-0.25307 10.95742,-0.25307 8.40155,-17.39455 c 4.62084,-9.56701 9.24437,-19.13483 10.27451,-21.26184 l 1.87298,-3.86728 -10.35711,-10.38657 -10.3571,-10.38657 -32.51865,0 -32.51865,0 -10.32421,10.21953 -10.32421,10.21952 10.24787,21.42787 10.24787,21.42786 10.86007,0.25409 10.86008,0.25408 0.25329,11.53884 0.25329,11.53883 -21.29468,0 -21.29469,0 0,10.40757 c 0,7.60048 -0.29855,10.40758 -1.10688,10.40758 -0.60879,0 -10.69547,-9.55818 -22.41485,-21.24041 l -21.30796,-21.24041 -43.20926,10.97252 c -23.7651,6.03489 -43.46111,10.72068 -43.76892,10.41288 -0.3078,-0.30781 7.90844,-13.50456 18.25832,-29.32614 10.34987,-15.82158 19.46448,-29.77907 20.25467,-31.01665 1.10577,-1.73179 0.18586,-1.29889 -3.99331,1.87924 -44.1215,33.55309 -76.56061,57.83795 -77.52777,58.03955 -0.98851,0.20605 -1.28994,-7.49846 -1.66029,-42.43739 l -0.4525,-42.68915 -20.47456,10.10892 -20.47454,10.10892 10.39559,53.39538 c 5.71757,29.36746 10.50489,53.5168 10.63847,53.66521 0.13359,0.1484 24.56673,-4.63858 54.29586,-10.63774 l 54.05298,-10.90756 41.3062,10.46024 c 22.71841,5.75312 42.68987,10.89696 44.38101,11.43074 l 3.0748,0.97051 -0.34513,32.23973 c -0.18983,17.73184 -0.24992,42.1156 -0.13353,54.18612 l 0.2116,21.94641 10.40757,0 10.40757,0 0,43.46995 0,43.46994 10.18132,-0.25589 10.18133,-0.25589 0.23504,-43.24102 z"
       id="path2890"
       inkscape:export-xdpi="26.030001"
       inkscape:export-ydpi="26.030001" />
  </g>
</svg>
