<?xml version="1.0" encoding="UTF-8" standalone="no"?>
<!-- Created with Inkscape (http://www.inkscape.org/) -->

<svg
   xmlns:dc="http://purl.org/dc/elements/1.1/"
   xmlns:cc="http://creativecommons.org/ns#"
   xmlns:rdf="http://www.w3.org/1999/02/22-rdf-syntax-ns#"
   xmlns:svg="http://www.w3.org/2000/svg"
   xmlns="http://www.w3.org/2000/svg"
   xmlns:sodipodi="http://sodipodi.sourceforge.net/DTD/sodipodi-0.dtd"
   xmlns:inkscape="http://www.inkscape.org/namespaces/inkscape"
   width="744.09448819"
   height="1052.3622047"
   id="svg2"
   version="1.1"
   inkscape:version="0.47 r22583"
   sodipodi:docname="basri_variation.eps">
  <defs
     id="defs4">
    <inkscape:perspective
       sodipodi:type="inkscape:persp3d"
       inkscape:vp_x="0 : 526.18109 : 1"
       inkscape:vp_y="0 : 1000 : 0"
       inkscape:vp_z="744.09448 : 526.18109 : 1"
       inkscape:persp3d-origin="372.04724 : 350.78739 : 1"
       id="perspective10" />
    <inkscape:perspective
       id="perspective2884"
       inkscape:persp3d-origin="0.5 : 0.33333333 : 1"
       inkscape:vp_z="1 : 0.5 : 1"
       inkscape:vp_y="0 : 1000 : 0"
       inkscape:vp_x="0 : 0.5 : 1"
       sodipodi:type="inkscape:persp3d" />
  </defs>
  <sodipodi:namedview
     id="base"
     pagecolor="#ffffff"
     bordercolor="#666666"
     borderopacity="1.0"
     inkscape:pageopacity="0.0"
     inkscape:pageshadow="2"
     inkscape:zoom="1.4610209"
     inkscape:cx="477.05503"
     inkscape:cy="652.67556"
     inkscape:document-units="px"
     inkscape:current-layer="layer1"
     showgrid="false"
     inkscape:window-width="1680"
     inkscape:window-height="975"
     inkscape:window-x="0"
     inkscape:window-y="24"
     inkscape:window-maximized="1" />
  <metadata
     id="metadata7">
    <rdf:RDF>
      <cc:Work
         rdf:about="">
        <dc:format>image/svg+xml</dc:format>
        <dc:type
           rdf:resource="http://purl.org/dc/dcmitype/StillImage" />
        <dc:title></dc:title>
      </cc:Work>
    </rdf:RDF>
  </metadata>
  <g
     inkscape:label="Layer 1"
     inkscape:groupmode="layer"
     id="layer1">
    <path
       style="fill:none;stroke:#000000;stroke-opacity:1"
       d="M 458.78125 251.71875 L 448.4375 261.9375 L 438.125 272.15625 L 448.375 293.59375 L 458.625 315.03125 L 469.46875 315.28125 L 480.34375 315.53125 L 480.59375 327.0625 L 480.84375 338.59375 L 459.5625 338.59375 L 438.25 338.59375 L 438.25 349 C 438.25 356.60048 437.96458 359.4375 437.15625 359.4375 C 436.54746 359.4375 426.46938 349.86973 414.75 338.1875 L 393.4375 316.9375 L 350.21875 327.90625 C 326.45365 333.94114 306.74531 338.62029 306.4375 338.3125 C 306.1297 338.00468 314.36887 324.82157 324.71875 309 C 335.06862 293.17842 344.17856 279.23757 344.96875 278 C 346.07452 276.26821 345.14792 276.69686 340.96875 279.875 C 296.84725 313.42809 264.40466 337.70465 263.4375 337.90625 C 262.44899 338.1123 262.1516 330.40768 261.78125 295.46875 L 261.34375 252.78125 L 240.84375 262.875 L 220.375 273 L 230.78125 326.375 C 236.49882 355.74246 241.27267 379.91408 241.40625 380.0625 C 241.53984 380.21089 265.98962 375.40541 295.71875 369.40625 L 349.75 358.5 L 391.0625 368.96875 C 413.78091 374.72187 433.74636 379.87247 435.4375 380.40625 L 438.53125 381.375 L 438.1875 413.625 C 438.1513 417.00804 437.9639 431.92065 437.9375 435.65625 C 438.29199 441.88433 437.98365 460.94075 438.03125 467.8125 L 438.25 489.75 L 448.65625 489.75 L 459.0625 489.75 L 459.0625 533.21875 L 459.0625 576.6875 L 469.25 576.4375 L 479.4375 576.1875 L 479.65625 532.9375 L 479.90625 489.6875 L 491.4375 489.9375 L 502.96875 490.1875 L 503.1875 533.40625 L 503.4375 576.625 L 513.375 576.625 L 523.3125 576.625 L 523.375 567.09375 C 528.43106 568.57259 544.18118 573.56267 563.125 579.6875 C 585.51161 586.92546 604.05166 592.88666 604.34375 592.90625 C 604.63586 592.92555 606.28107 573.51835 608 549.8125 L 611.15625 506.71875 L 643.875 508.65625 C 669.55418 510.19126 676.62169 510.86714 676.5625 511.75 C 676.521 512.36922 671.6417 517.1541 665.6875 522.375 L 654.84375 531.875 L 707.90625 535.4375 L 760.96875 538.96875 L 761.40625 528.40625 L 761.90625 517.84375 L 699.25 492.03125 C 664.81405 477.82406 636.22974 466.32071 635.6875 466.5 C 635.14525 466.67928 609.42188 484.38324 578.5625 505.8125 C 551.04079 524.92405 528.42058 540.42403 523.46875 543.625 L 523.53125 533.40625 L 523.78125 490.1875 L 534.1875 489.75 L 544.59375 489.28125 L 544.84375 435.21875 C 544.64065 406.07889 545.5929 378.11322 544.84375 349.25 L 544.59375 339.0625 L 523.0625 338.8125 L 501.5625 338.5625 L 501.8125 327.0625 L 502.0625 315.53125 L 513.03125 315.28125 L 523.96875 315.03125 L 532.375 297.625 C 536.99584 288.05799 541.62611 278.502 542.65625 276.375 L 544.53125 272.5 L 534.15625 262.125 L 523.8125 251.71875 L 491.28125 251.71875 L 458.78125 251.71875 z "
       id="path4919" />
  </g>
</svg>
