<?xml version="1.0" encoding="UTF-8" standalone="no"?>
<!-- Created with Inkscape (http://www.inkscape.org/) -->

<svg
   xmlns:dc="http://purl.org/dc/elements/1.1/"
   xmlns:cc="http://creativecommons.org/ns#"
   xmlns:rdf="http://www.w3.org/1999/02/22-rdf-syntax-ns#"
   xmlns:svg="http://www.w3.org/2000/svg"
   xmlns="http://www.w3.org/2000/svg"
   xmlns:sodipodi="http://sodipodi.sourceforge.net/DTD/sodipodi-0.dtd"
   xmlns:inkscape="http://www.inkscape.org/namespaces/inkscape"
   width="744.09448819"
   height="1052.3622047"
   id="svg3827"
   version="1.1"
   inkscape:version="0.47 r22583"
   sodipodi:docname="New document 12">
  <defs
     id="defs3829">
    <inkscape:perspective
       sodipodi:type="inkscape:persp3d"
       inkscape:vp_x="0 : 526.18109 : 1"
       inkscape:vp_y="0 : 1000 : 0"
       inkscape:vp_z="744.09448 : 526.18109 : 1"
       inkscape:persp3d-origin="372.04724 : 350.78739 : 1"
       id="perspective3835" />
    <inkscape:perspective
       id="perspective3800"
       inkscape:persp3d-origin="0.5 : 0.33333333 : 1"
       inkscape:vp_z="1 : 0.5 : 1"
       inkscape:vp_y="0 : 1000 : 0"
       inkscape:vp_x="0 : 0.5 : 1"
       sodipodi:type="inkscape:persp3d" />
  </defs>
  <sodipodi:namedview
     id="base"
     pagecolor="#ffffff"
     bordercolor="#666666"
     borderopacity="1.0"
     inkscape:pageopacity="0.0"
     inkscape:pageshadow="2"
     inkscape:zoom="0.74877557"
     inkscape:cx="633.82462"
     inkscape:cy="441.12962"
     inkscape:document-units="px"
     inkscape:current-layer="layer1"
     showgrid="false"
     inkscape:window-width="1680"
     inkscape:window-height="975"
     inkscape:window-x="0"
     inkscape:window-y="24"
     inkscape:window-maximized="1" />
  <metadata
     id="metadata3832">
    <rdf:RDF>
      <cc:Work
         rdf:about="">
        <dc:format>image/svg+xml</dc:format>
        <dc:type
           rdf:resource="http://purl.org/dc/dcmitype/StillImage" />
        <dc:title></dc:title>
      </cc:Work>
    </rdf:RDF>
  </metadata>
  <g
     inkscape:label="Layer 1"
     inkscape:groupmode="layer"
     id="layer1">
    <path
       id="path3749"
       style="fill:none;stroke:#000000;stroke-opacity:1"
       d="m 388.07766,262.88799 8.3565,17.94244 c 24.16577,41.57989 27.30604,46.67485 28.38527,46.05384 0.6674,-0.38404 15.061,-14.07 31.98577,-30.41321 16.92476,-16.34322 30.35078,-30.2748 30.60451,-30.42081 0.25374,-0.14602 10.25189,16.53679 22.21811,37.07289 l 22.3859,37.77875 28.55333,-16.15639 c 22.38935,-12.66858 28.43186,-16.36745 27.99056,-17.13439 -0.30954,-0.53791 -6.81636,-2.67286 -14.45962,-4.74434 l -13.89682,-3.76629 46.0962,-26.52513 46.09614,-26.52509 5.0532,9.29261 5.053,9.29266 -44.8783,50.72778 c -24.68302,27.90026 -45.34122,50.79108 -45.90707,50.86845 -0.56584,0.0774 -31.41471,-4.50637 -68.55305,-10.18606 -37.13832,-5.67974 -67.78503,-10.17671 -68.10379,-9.99329 -0.31876,0.18343 1.60571,4.36202 4.27659,9.28575 l 4.85616,8.95223 -18.53202,10.94388 -18.53203,10.94389 5.96624,9.86071 5.96623,9.86071 9.62352,-5.24568 9.62351,-5.24568 15.95755,10.88636 c 8.77665,5.98752 17.55603,11.97439 19.50975,13.30419 l 3.55221,2.41779 -3.79667,14.16813 -3.79665,14.16813 -27.95452,16.55024 -0.0215,33.77606 -10.40757,0.4525 -10.40757,0.4525 -0.23503,43.21406 -0.23502,43.21406 -9.93753,0 -9.93752,0 -0.23502,-43.21406 -0.23503,-43.21406 -11.53003,-0.25322 -11.53005,-0.25323 -0.23504,43.24104 0,0 0,0 -0.23504,43.24102 -10.18133,0.25589 -10.18132,0.25589 0,-43.46994 0,-43.46995 -10.40757,0 -10.40757,0 -0.2116,-21.94641 c -0.11639,-12.07052 -0.0563,-36.45428 0.13353,-54.18612 l 0.34513,-32.23973 -3.0748,-0.97051 c -1.69114,-0.53378 -21.6626,-5.67762 -44.38101,-11.43074 l -41.3062,-10.46024 -54.05298,10.90756 c -29.72913,5.99916 -54.16227,10.78614 -54.29586,10.63774 -0.13358,-0.14841 -4.9209,-24.29775 -10.63847,-53.66521 l -10.39559,-53.39538 20.47454,-10.10892 20.47456,-10.10892 0.4525,42.68915 c 0.37035,34.93893 0.67178,42.64344 1.66029,42.43739 0.96716,-0.2016 33.40627,-24.48646 77.52777,-58.03955 4.17917,-3.17813 5.09908,-3.61103 3.99331,-1.87924 -0.79019,1.23758 -9.9048,15.19507 -20.25467,31.01665 -10.34988,15.82158 -18.56612,29.01833 -18.25832,29.32614 0.30781,0.3078 20.00382,-4.37799 43.76892,-10.41288 l 43.20926,-10.97252 21.30796,21.24041 c 11.71938,11.68223 21.80606,21.24041 22.41485,21.24041 0.80833,0 1.10688,-2.8071 1.10688,-10.40758 l 0,-10.40757 21.29469,0 21.29468,0 -0.25329,-11.53883 -0.25329,-11.53884 -10.86008,-0.25408 -10.86007,-0.25409 -10.24787,-21.42786 -10.24787,-21.42787 10.32421,-10.21952 10.32421,-10.21953 32.51865,0 0.12495,0"
       sodipodi:nodetypes="ccssscccscccccccsssccccccccccccccccccccccccccccccccccccccccccscccccssssscccscccccccccccccc" />
  </g>
</svg>
