<?xml version="1.0" encoding="UTF-8" standalone="no"?>
<!-- Created with Inkscape (http://www.inkscape.org/) -->

<svg
   xmlns:dc="http://purl.org/dc/elements/1.1/"
   xmlns:cc="http://creativecommons.org/ns#"
   xmlns:rdf="http://www.w3.org/1999/02/22-rdf-syntax-ns#"
   xmlns:svg="http://www.w3.org/2000/svg"
   xmlns="http://www.w3.org/2000/svg"
   xmlns:sodipodi="http://sodipodi.sourceforge.net/DTD/sodipodi-0.dtd"
   xmlns:inkscape="http://www.inkscape.org/namespaces/inkscape"
   width="744.09448819"
   height="1052.3622047"
   id="svg3912"
   version="1.1"
   inkscape:version="0.47 r22583"
   sodipodi:docname="basri_three.svg">
  <defs
     id="defs3914">
    <inkscape:perspective
       sodipodi:type="inkscape:persp3d"
       inkscape:vp_x="0 : 526.18109 : 1"
       inkscape:vp_y="0 : 1000 : 0"
       inkscape:vp_z="744.09448 : 526.18109 : 1"
       inkscape:persp3d-origin="372.04724 : 350.78739 : 1"
       id="perspective3920" />
    <inkscape:perspective
       id="perspective3907"
       inkscape:persp3d-origin="0.5 : 0.33333333 : 1"
       inkscape:vp_z="1 : 0.5 : 1"
       inkscape:vp_y="0 : 1000 : 0"
       inkscape:vp_x="0 : 0.5 : 1"
       sodipodi:type="inkscape:persp3d" />
    <inkscape:perspective
       id="perspective2940"
       inkscape:persp3d-origin="0.5 : 0.33333333 : 1"
       inkscape:vp_z="1 : 0.5 : 1"
       inkscape:vp_y="0 : 1000 : 0"
       inkscape:vp_x="0 : 0.5 : 1"
       sodipodi:type="inkscape:persp3d" />
  </defs>
  <sodipodi:namedview
     id="base"
     pagecolor="#ffffff"
     bordercolor="#666666"
     borderopacity="1.0"
     inkscape:pageopacity="0.0"
     inkscape:pageshadow="2"
     inkscape:zoom="1.5203603"
     inkscape:cx="281.92988"
     inkscape:cy="515.67865"
     inkscape:document-units="px"
     inkscape:current-layer="layer1"
     showgrid="false"
     inkscape:window-width="1680"
     inkscape:window-height="975"
     inkscape:window-x="0"
     inkscape:window-y="24"
     inkscape:window-maximized="1" />
  <metadata
     id="metadata3917">
    <rdf:RDF>
      <cc:Work
         rdf:about="">
        <dc:format>image/svg+xml</dc:format>
        <dc:type
           rdf:resource="http://purl.org/dc/dcmitype/StillImage" />
        <dc:title></dc:title>
      </cc:Work>
    </rdf:RDF>
  </metadata>
  <g
     inkscape:label="Layer 1"
     inkscape:groupmode="layer"
     id="layer1">
    <path
       style="fill:none;stroke:#000000;stroke-opacity:1"
       d="M 331.5625 367.03125 L 321.25 377.25 L 310.90625 387.46875 L 321.15625 408.875 L 331.40625 430.3125 L 331.875 430.3125 L 331.875 430.34375 L 342.71875 430.59375 L 353.125 430.84375 L 353.375 442.375 L 353.65625 453.90625 L 332.8125 453.90625 L 332.34375 453.90625 L 311.5 453.90625 L 311.0625 453.90625 L 311.0625 464.3125 C 311.0625 471.09593 310.81329 474.06587 310.1875 474.625 C 308.53573 473.53107 298.98684 464.45206 288 453.5 L 266.6875 432.25 L 266.3125 432.34375 L 266.21875 432.25 L 223 443.21875 C 201.04454 448.7941 182.61767 453.19505 179.6875 453.59375 C 179.53017 453.06607 187.70941 439.99566 197.96875 424.3125 C 208.31865 408.4909 217.42855 394.5501 218.21875 393.3125 C 218.77735 392.43768 218.82344 392.10253 218.1875 392.40625 C 218.19937 391.94638 216.91563 392.77265 213.78125 395.15625 C 170.78689 427.85218 138.96552 451.67643 136.46875 453.0625 C 135.66328 451.91976 135.37078 442.80858 135.03125 410.78125 L 134.59375 368.09375 L 134.125 368.3125 L 134.125 368.0625 L 113.65625 378.1875 L 93.1875 388.28125 L 103.5625 441.6875 C 109.28007 471.05496 114.08517 495.19534 114.21875 495.34375 C 114.22463 495.35028 114.52653 495.29353 114.625 495.28125 C 114.62602 495.28354 114.65551 495.37418 114.65625 495.375 C 114.78985 495.5234 139.23965 490.71785 168.96875 484.71875 L 222.75 473.875 L 263.875 484.25 C 286.59341 490.00312 306.55886 495.15372 308.25 495.6875 L 311.3125 496.65625 L 310.96875 528.90625 C 310.93284 532.26013 310.90131 535.986 310.875 539.6875 C 308.11274 539.0992 290.3256 534.31727 269.03125 528.40625 C 246.36085 522.11315 227.57385 516.9448 227.28125 516.9375 C 226.98855 516.9275 226.1611 536.3679 225.4375 560.125 L 224.09375 603.3125 L 191.3125 602.75 C 165.5915 602.2929 158.50915 601.91575 158.53125 601.03125 C 158.54625 600.41075 163.23865 595.43465 168.96875 589.96875 L 179.40625 580.03125 L 126.21875 578.6875 L 73.0625 577.375 L 73.0625 587.9375 L 73.03125 598.53125 L 136.6875 621.6875 C 171.6888 634.4385 200.74695 644.73305 201.28125 644.53125 C 201.81545 644.32935 226.7537 625.5792 256.6875 602.875 C 284.13652 582.05546 306.86175 565.03023 310.78125 562.3125 C 310.77059 570.42837 310.79432 577.96717 310.84375 583.09375 L 311.0625 605.03125 L 311.5 605.03125 L 311.5 605.0625 L 321.90625 605.0625 L 331.875 605.0625 L 331.875 648.5 L 331.875 691.96875 L 332.3125 691.96875 L 332.3125 692 L 342.5 691.75 L 352.6875 691.5 L 352.90625 648.25 L 353.15625 605 L 360.46875 605.15625 L 364.21875 605.25 L 364.6875 605.25 L 375.75 605.5 L 376 648.71875 L 376.21875 691.90625 L 376.6875 691.90625 L 376.6875 691.9375 L 386.625 691.9375 L 396.5625 691.9375 L 396.78125 648.71875 L 397.03125 605.5 L 407.4375 605.0625 L 417.84375 604.59375 L 418.09375 550.53125 C 417.97335 533.25609 418.24726 516.38145 418.34375 499.5 C 418.34417 499.42709 418.37459 499.35416 418.375 499.28125 C 418.58951 497.01032 418.86089 496.4375 419.25 496.4375 C 420.02001 496.4375 439.33559 501.11959 462.15625 506.84375 C 484.97691 512.56792 503.89476 517.25 504.1875 517.25 C 504.48025 517.25 504.80824 497.79898 504.9375 474.03125 L 505.1875 430.8125 L 537.96875 430.59375 C 563.69309 430.40748 570.78125 430.58391 570.78125 431.46875 C 570.78125 432.08936 566.21661 437.20499 560.625 442.8125 L 550.46875 453 L 603.65625 453 L 656.8125 453 L 656.5625 442.40625 L 656.3125 431.84375 L 592.125 410.25 C 556.81579 398.37827 527.49779 388.84735 526.96875 389.0625 C 526.43972 389.27765 501.98172 408.64811 472.625 432.09375 C 443.2683 455.5394 418.93026 474.71875 418.5625 474.71875 C 418.47056 474.71875 418.37417 474.42327 418.28125 473.90625 C 418.23639 470.79785 418.17491 467.68933 418.09375 464.5625 L 417.84375 454.375 L 417.40625 454.375 L 417.40625 454.34375 L 399.375 454.15625 L 396.3125 454.125 L 395.875 454.125 L 374.8125 453.875 L 375.0625 442.375 L 375.3125 430.84375 L 386.28125 430.59375 L 397.21875 430.34375 L 405.625 412.9375 C 410.2458 403.3705 414.87615 393.8145 415.90625 391.6875 L 417.78125 387.8125 L 407.40625 377.4375 L 397.0625 367.03125 L 396.59375 367.03125 L 364.53125 367.03125 L 364.09375 367.03125 L 332.03125 367.03125 L 331.5625 367.03125 z "
       id="path3683" />
  </g>
</svg>
