<?xml version="1.0" encoding="UTF-8" standalone="no"?>
<!-- Created with Inkscape (http://www.inkscape.org/) -->

<svg
   xmlns:dc="http://purl.org/dc/elements/1.1/"
   xmlns:cc="http://creativecommons.org/ns#"
   xmlns:rdf="http://www.w3.org/1999/02/22-rdf-syntax-ns#"
   xmlns:svg="http://www.w3.org/2000/svg"
   xmlns="http://www.w3.org/2000/svg"
   xmlns:xlink="http://www.w3.org/1999/xlink"
   xmlns:sodipodi="http://sodipodi.sourceforge.net/DTD/sodipodi-0.dtd"
   xmlns:inkscape="http://www.inkscape.org/namespaces/inkscape"
   width="744.09448819"
   height="1052.3622047"
   id="svg5416"
   version="1.1"
   inkscape:version="0.47 r22583"
   sodipodi:docname="New document 10">
  <defs
     id="defs5418">
    <inkscape:perspective
       sodipodi:type="inkscape:persp3d"
       inkscape:vp_x="0 : 526.18109 : 1"
       inkscape:vp_y="0 : 1000 : 0"
       inkscape:vp_z="744.09448 : 526.18109 : 1"
       inkscape:persp3d-origin="372.04724 : 350.78739 : 1"
       id="perspective5424" />
    <inkscape:perspective
       id="perspective5233"
       inkscape:persp3d-origin="0.5 : 0.33333333 : 1"
       inkscape:vp_z="1 : 0.5 : 1"
       inkscape:vp_y="0 : 1000 : 0"
       inkscape:vp_x="0 : 0.5 : 1"
       sodipodi:type="inkscape:persp3d" />
    <marker
       inkscape:stockid="Arrow1Send"
       orient="auto"
       refY="0"
       refX="0"
       id="Arrow1Send"
       style="overflow:visible">
      <path
         id="path5368"
         d="M 0,0 5,-5 -12.5,0 5,5 0,0 z"
         style="fill-rule:evenodd;stroke:#000000;stroke-width:1pt;marker-start:none"
         transform="matrix(-0.2,0,0,-0.2,-1.2,0)" />
    </marker>
    <marker
       inkscape:stockid="Arrow1Send"
       orient="auto"
       refY="0"
       refX="0"
       id="marker5239"
       style="overflow:visible">
      <path
         id="path5241"
         d="M 0,0 5,-5 -12.5,0 5,5 0,0 z"
         style="fill-rule:evenodd;stroke:#000000;stroke-width:1pt;marker-start:none"
         transform="matrix(-0.2,0,0,-0.2,-1.2,0)" />
    </marker>
    <marker
       inkscape:stockid="Arrow1Send"
       orient="auto"
       refY="0"
       refX="0"
       id="marker5243"
       style="overflow:visible">
      <path
         id="path5245"
         d="M 0,0 5,-5 -12.5,0 5,5 0,0 z"
         style="fill-rule:evenodd;stroke:#000000;stroke-width:1pt;marker-start:none"
         transform="matrix(-0.2,0,0,-0.2,-1.2,0)" />
    </marker>
    <marker
       inkscape:stockid="Arrow1Send"
       orient="auto"
       refY="0"
       refX="0"
       id="marker5247"
       style="overflow:visible">
      <path
         id="path5249"
         d="M 0,0 5,-5 -12.5,0 5,5 0,0 z"
         style="fill-rule:evenodd;stroke:#000000;stroke-width:1pt;marker-start:none"
         transform="matrix(-0.2,0,0,-0.2,-1.2,0)" />
    </marker>
    <marker
       inkscape:stockid="Arrow1Send"
       orient="auto"
       refY="0"
       refX="0"
       id="marker5251"
       style="overflow:visible">
      <path
         id="path5253"
         d="M 0,0 5,-5 -12.5,0 5,5 0,0 z"
         style="fill-rule:evenodd;stroke:#000000;stroke-width:1pt;marker-start:none"
         transform="matrix(-0.2,0,0,-0.2,-1.2,0)" />
    </marker>
    <marker
       inkscape:stockid="Arrow1Send"
       orient="auto"
       refY="0"
       refX="0"
       id="marker5255"
       style="overflow:visible">
      <path
         id="path5257"
         d="M 0,0 5,-5 -12.5,0 5,5 0,0 z"
         style="fill-rule:evenodd;stroke:#000000;stroke-width:1pt;marker-start:none"
         transform="matrix(-0.2,0,0,-0.2,-1.2,0)" />
    </marker>
    <marker
       inkscape:stockid="Arrow1Send"
       orient="auto"
       refY="0"
       refX="0"
       id="marker5259"
       style="overflow:visible">
      <path
         id="path5261"
         d="M 0,0 5,-5 -12.5,0 5,5 0,0 z"
         style="fill-rule:evenodd;stroke:#000000;stroke-width:1pt;marker-start:none"
         transform="matrix(-0.2,0,0,-0.2,-1.2,0)" />
    </marker>
  </defs>
  <sodipodi:namedview
     id="base"
     pagecolor="#ffffff"
     bordercolor="#666666"
     borderopacity="1.0"
     inkscape:pageopacity="0.0"
     inkscape:pageshadow="2"
     inkscape:zoom="0.35"
     inkscape:cx="375"
     inkscape:cy="520"
     inkscape:document-units="px"
     inkscape:current-layer="layer1"
     showgrid="false"
     inkscape:window-width="613"
     inkscape:window-height="504"
     inkscape:window-x="0"
     inkscape:window-y="490"
     inkscape:window-maximized="0" />
  <metadata
     id="metadata5421">
    <rdf:RDF>
      <cc:Work
         rdf:about="">
        <dc:format>image/svg+xml</dc:format>
        <dc:type
           rdf:resource="http://purl.org/dc/dcmitype/StillImage" />
        <dc:title></dc:title>
      </cc:Work>
    </rdf:RDF>
  </metadata>
  <g
     inkscape:label="Layer 1"
     inkscape:groupmode="layer"
     id="layer1">
    <g
       id="g4707"
       transform="translate(2290.5218,-182.24656)">
      <g
         transform="matrix(1.6746114,0,0,1.6746114,1448.563,-240.68154)"
         id="g5287">
        <g
           transform="translate(-435.73878,33.07338)"
           id="g5050">
          <path
             style="fill:#000000;fill-opacity:1;stroke:#000000;stroke-width:3;stroke-miterlimit:4;stroke-opacity:1"
             d="m -1858.25,276.3125 0,57.3125 57.2812,0 0,-57.3125 -57.2812,0 z m 60.2812,0 0,57.3125 57.2813,0 0,-57.3125 -57.2813,0 z"
             id="path5052" />
          <g
             id="g5054"
             transform="translate(0.49411933,-0.0013152)">
            <path
               style="fill:none;stroke:#ffffff;stroke-width:0.97100002;stroke-miterlimit:4;stroke-opacity:1;stroke-dasharray:0.971, 0.971;stroke-dashoffset:0"
               d="m -1765.4986,286.75856 -8.1307,18.07448 -14.0368,0 0,18.34854 36.697,0 0,-18.34854 -17.7257,0 8.1306,-18.07448 -4.9344,0 z"
               id="path5056"
               sodipodi:nodetypes="ccccccccc" />
            <path
               sodipodi:nodetypes="ccc"
               id="path5058"
               d="m -1787.6661,304.83304 0,18.34854 36.697,0"
               style="fill:none;stroke:#ffffff;stroke-width:0.97061503;stroke-miterlimit:4;stroke-opacity:1;stroke-dasharray:none" />
          </g>
          <text
             xml:space="preserve"
             style="font-size:40px;font-style:normal;font-weight:normal;fill:#ffffff;fill-opacity:1;stroke:none;font-family:Bitstream Vera Sans"
             x="-1852.8738"
             y="319.54883"
             id="text5060"><tspan
               sodipodi:role="line"
               id="tspan5062"
               x="-1852.8738"
               y="319.54883">B1</tspan></text>
        </g>
      </g>
      <g
         transform="matrix(1.6746114,0,0,1.6746114,1406.736,-262.44895)"
         id="g5334">
        <path
           style="fill:#000000;fill-opacity:1;stroke:#000000;stroke-width:3;stroke-miterlimit:4;stroke-opacity:1"
           d="m -2026.2898,322.38437 0,57.3125 57.2812,0 0,-57.3125 -57.2812,0 z m 60.2812,0 0,57.3125 57.2813,0 0,-57.3125 -57.2813,0 z"
           id="path5074" />
        <g
           transform="translate(-189.19036,-27.451384)"
           id="g5076">
          <path
             sodipodi:nodetypes="cc"
             id="path5078"
             d="m -1776.0213,378.49199 36.697,0"
             style="fill:none;stroke:#ffffff;stroke-width:0.97061503;stroke-miterlimit:4;stroke-opacity:1;stroke-dasharray:none" />
          <text
             id="text5080"
             y="393.07208"
             x="-1821.7231"
             style="font-size:40px;font-style:normal;font-weight:normal;fill:#ffffff;fill-opacity:1;stroke:none;font-family:Bitstream Vera Sans"
             xml:space="preserve"><tspan
               y="393.07208"
               x="-1821.7231"
               id="tspan5082"
               sodipodi:role="line">L</tspan></text>
        </g>
      </g>
      <g
         transform="matrix(1.6746114,0,0,1.6746114,1638.718,-385.54306)"
         id="g5341">
        <path
           id="path5306"
           d="m -2030.3735,395.89044 0,57.3125 57.2812,0 0,-57.3125 -57.2812,0 z m 60.2812,0 0,57.3125 57.2813,0 0,-57.3125 -57.2813,0 z"
           style="fill:#000000;fill-opacity:1;stroke:#000000;stroke-width:3;stroke-miterlimit:4;stroke-opacity:1" />
        <g
           id="g5308"
           transform="translate(-193.27403,46.054688)">
          <path
             style="fill:none;stroke:#ffffff;stroke-width:0.97061503;stroke-miterlimit:4;stroke-opacity:1;stroke-dasharray:none"
             d="m -1776.0213,378.49199 36.697,0"
             id="path5310"
             sodipodi:nodetypes="cc" />
          <text
             xml:space="preserve"
             style="font-size:40px;font-style:normal;font-weight:normal;fill:#ffffff;fill-opacity:1;stroke:none;font-family:Bitstream Vera Sans"
             x="-1821.7231"
             y="393.07208"
             id="text5312"><tspan
               sodipodi:role="line"
               id="tspan5314"
               x="-1821.7231"
               y="393.07208">L</tspan></text>
        </g>
      </g>
      <g
         transform="matrix(1.6746114,0,0,1.6746114,1587.4961,-404.9483)"
         id="g6174">
        <path
           style="fill:none;stroke:#000000;stroke-width:8;stroke-linecap:butt;stroke-linejoin:miter;stroke-miterlimit:4;stroke-opacity:1;stroke-dasharray:none;marker-end:url(#Arrow1Send)"
           d="m -2250.7176,436.1346 98.6265,0"
           id="path5348" />
        <path
           id="path5986"
           d="m -2250.9232,436.1346 85.1095,0"
           style="fill:none;stroke:#ffffff;stroke-width:2.78684878;stroke-linecap:butt;stroke-linejoin:miter;stroke-miterlimit:4;stroke-opacity:1;stroke-dasharray:none;marker-end:none" />
      </g>
      <image
         xlink:href="file:///home/epurdy/hcm/articulator.gram.0029.png"
         width="101"
         height="101"
         id="image6275"
         x="-1536.5548"
         y="273.09528" />
      <image
         xlink:href="file:///home/epurdy/hcm/articulator.gram.0030.png"
         width="101"
         height="101"
         id="image6310"
         x="-1536.5548"
         y="404.94345" />
      <g
         id="g6534"
         transform="matrix(1.6746114,0,0,1.6746114,1304.936,-550.99884)">
        <path
           style="fill:#000000;fill-opacity:1;stroke:#000000;stroke-width:3;stroke-miterlimit:4;stroke-opacity:1"
           d="m -2208.2214,572.34424 0,57.3125 57.2812,0 0,-57.3125 -57.2812,0 z m 60.2812,0 0,57.3125 57.2813,0 0,-57.3125 -57.2813,0 z"
           id="path6536" />
        <path
           sodipodi:nodetypes="ccccccccc"
           id="path6538"
           d="m -2114.9759,582.78899 -8.1307,18.07448 -14.0368,0 0,18.34854 36.697,0 0,-18.34854 -17.7257,0 8.1306,-18.07448 -4.9344,0 z"
           style="fill:none;stroke:#ffffff;stroke-width:0.97100002;stroke-miterlimit:4;stroke-opacity:1;stroke-dasharray:0.971, 0.971;stroke-dashoffset:0" />
        <text
           xml:space="preserve"
           style="font-size:40px;font-style:normal;font-weight:normal;fill:#ffffff;fill-opacity:1;stroke:none;font-family:Bitstream Vera Sans"
           x="-2202.8452"
           y="615.58057"
           id="text6540"><tspan
             sodipodi:role="line"
             id="tspan6542"
             x="-2202.8452"
             y="615.58057">T1</tspan></text>
        <path
           style="fill:none;stroke:#ffffff;stroke-width:0.97100002;stroke-miterlimit:4;stroke-opacity:1;stroke-dasharray:none;stroke-dashoffset:0"
           d="m -2100.4464,619.21201 0,-18.34854 -17.7257,0 8.1306,-18.07448 -4.9344,0 -8.1307,18.07448 -14.0368,0"
           id="path6544"
           sodipodi:nodetypes="ccccccc" />
      </g>
      <g
         id="g6546"
         transform="matrix(1.6746114,0,0,1.6746114,1587.4961,-274.91254)">
        <path
           id="path6548"
           d="m -2250.7176,436.1346 98.6265,0"
           style="fill:none;stroke:#000000;stroke-width:8;stroke-linecap:butt;stroke-linejoin:miter;stroke-miterlimit:4;stroke-opacity:1;stroke-dasharray:none;marker-end:url(#Arrow1Send)" />
        <path
           style="fill:none;stroke:#ffffff;stroke-width:2.78684878;stroke-linecap:butt;stroke-linejoin:miter;stroke-miterlimit:4;stroke-opacity:1;stroke-dasharray:none;marker-end:none"
           d="m -2250.9232,436.1346 85.1095,0"
           id="path6550" />
      </g>
      <g
         id="g6552"
         transform="matrix(1.6746114,0,0,1.6746114,1250.8826,-550.99884)">
        <path
           id="path6554"
           d="m -1933.2214,572.34424 0,57.3125 57.2812,0 0,-57.3125 -57.2812,0 z m 60.2812,0 0,57.3125 57.2813,0 0,-57.3125 -57.2813,0 z"
           style="fill:#000000;fill-opacity:1;stroke:#000000;stroke-width:3;stroke-miterlimit:4;stroke-opacity:1" />
        <path
           style="fill:none;stroke:#ffffff;stroke-width:0.97100002;stroke-miterlimit:4;stroke-opacity:1;stroke-dasharray:0.971, 0.971;stroke-dashoffset:0"
           d="m -1839.9759,582.78898 -8.1307,18.07448 -14.0368,0 0,18.34854 36.697,0 0,-18.34854 -17.7257,0 8.1306,-18.07448 -4.9344,0 z"
           id="path6556"
           sodipodi:nodetypes="ccccccccc" />
        <text
           id="text6558"
           y="615.58057"
           x="-1927.8451"
           style="font-size:40px;font-style:normal;font-weight:normal;fill:#ffffff;fill-opacity:1;stroke:none;font-family:Bitstream Vera Sans"
           xml:space="preserve"><tspan
             y="615.58057"
             x="-1927.8451"
             id="tspan6560"
             sodipodi:role="line">T2</tspan></text>
        <path
           sodipodi:nodetypes="cccccc"
           id="path6562"
           d="m -1825.4464,600.86346 -17.7257,0 8.1306,-18.07448 -4.9344,0 -8.1307,18.07448 -14.0368,0"
           style="fill:none;stroke:#ffffff;stroke-width:0.97100002;stroke-miterlimit:4;stroke-opacity:1;stroke-dasharray:none;stroke-dashoffset:0" />
      </g>
      <g
         id="g6564"
         transform="matrix(1.6746114,0,0,1.6746114,1638.718,-255.50729)">
        <path
           style="fill:#000000;fill-opacity:1;stroke:#000000;stroke-width:3;stroke-miterlimit:4;stroke-opacity:1"
           d="m -2030.3735,395.89044 0,57.3125 57.2812,0 0,-57.3125 -57.2812,0 z m 60.2812,0 0,57.3125 57.2813,0 0,-57.3125 -57.2813,0 z"
           id="path6566" />
        <g
           transform="translate(-193.27403,46.054688)"
           id="g6568">
          <path
             sodipodi:nodetypes="cc"
             id="path6570"
             d="m -1776.0213,378.49199 36.697,0"
             style="fill:none;stroke:#ffffff;stroke-width:0.97061503;stroke-miterlimit:4;stroke-opacity:1;stroke-dasharray:none" />
          <text
             id="text6572"
             y="393.07208"
             x="-1821.7231"
             style="font-size:40px;font-style:normal;font-weight:normal;fill:#ffffff;fill-opacity:1;stroke:none;font-family:Bitstream Vera Sans"
             xml:space="preserve"><tspan
               y="393.07208"
               x="-1821.7231"
               id="tspan6574"
               sodipodi:role="line">L</tspan></text>
        </g>
      </g>
      <image
         xlink:href="file:///home/epurdy/hcm/articulator.gram.0031.png"
         width="101"
         height="101"
         id="image6345"
         x="-1536.5548"
         y="534.97919" />
      <g
         id="g6576"
         transform="matrix(1.6746114,0,0,1.6746114,844.41778,-420.9631)">
        <path
           id="path6578"
           d="m -1933.2214,572.34424 0,57.3125 57.2812,0 0,-57.3125 -57.2812,0 z m 60.2812,0 0,57.3125 57.2813,0 0,-57.3125 -57.2813,0 z"
           style="fill:#000000;fill-opacity:1;stroke:#000000;stroke-width:3;stroke-miterlimit:4;stroke-opacity:1" />
        <path
           style="fill:none;stroke:#ffffff;stroke-width:0.97100002;stroke-miterlimit:4;stroke-opacity:1;stroke-dasharray:0.971, 0.971;stroke-dashoffset:0"
           d="m -1839.9759,582.78898 -8.1307,18.07448 -14.0368,0 0,18.34854 36.697,0 0,-18.34854 -17.7257,0 8.1306,-18.07448 -4.9344,0 z"
           id="path6580"
           sodipodi:nodetypes="ccccccccc" />
        <text
           id="text6582"
           y="615.58057"
           x="-1927.8451"
           style="font-size:40px;font-style:normal;font-weight:normal;fill:#ffffff;fill-opacity:1;stroke:none;font-family:Bitstream Vera Sans"
           xml:space="preserve"><tspan
             y="615.58057"
             x="-1927.8451"
             id="tspan6584"
             sodipodi:role="line">T2</tspan></text>
        <path
           sodipodi:nodetypes="cccccc"
           id="path6586"
           d="m -1825.4464,600.86346 -17.7257,0 8.1306,-18.07448 -4.9344,0 -8.1307,18.07448 -14.0368,0"
           style="fill:none;stroke:#ffffff;stroke-width:0.97100002;stroke-miterlimit:4;stroke-opacity:1;stroke-dasharray:none;stroke-dashoffset:0" />
      </g>
      <g
         id="g6588"
         transform="matrix(1.6746114,0,0,1.6746114,1711.4011,-572.20144)">
        <path
           style="fill:#000000;fill-opacity:1;stroke:#000000;stroke-width:3;stroke-miterlimit:4;stroke-opacity:1"
           d="m -2208.2216,662.65674 0,57.3125 57.2812,0 0,-57.3125 -57.2812,0 z m 60.2812,0 0,57.3125 57.2813,0 0,-57.3125 -57.2813,0 z"
           id="path6590" />
        <path
           sodipodi:nodetypes="ccccccccc"
           id="path6592"
           d="m -2114.9761,673.10148 -8.1307,18.07448 -14.0368,0 0,18.34854 36.6971,0 0,-18.34854 -17.7257,0 8.1306,-18.07448 -4.9345,0 z"
           style="fill:none;stroke:#ffffff;stroke-width:0.97100002;stroke-miterlimit:4;stroke-opacity:1;stroke-dasharray:0.971, 0.971;stroke-dashoffset:0" />
        <text
           xml:space="preserve"
           style="font-size:40px;font-style:normal;font-weight:normal;fill:#ffffff;fill-opacity:1;stroke:none;font-family:Bitstream Vera Sans"
           x="-2202.8452"
           y="705.89307"
           id="text6594"><tspan
             sodipodi:role="line"
             id="tspan6596"
             x="-2202.8452"
             y="705.89307">T3</tspan></text>
        <path
           style="fill:none;stroke:#ffffff;stroke-width:0.97100002;stroke-miterlimit:4;stroke-opacity:1;stroke-dasharray:none;stroke-dashoffset:0"
           d="m -2118.1722,691.17596 8.1306,-18.07448 -4.9345,0 -8.1307,18.07448 -14.0368,0"
           id="path6598"
           sodipodi:nodetypes="ccccc" />
      </g>
      <g
         transform="matrix(1.6746114,0,0,1.6746114,1638.718,-125.47155)"
         id="g6600">
        <path
           id="path6602"
           d="m -2030.3735,395.89044 0,57.3125 57.2812,0 0,-57.3125 -57.2812,0 z m 60.2812,0 0,57.3125 57.2813,0 0,-57.3125 -57.2813,0 z"
           style="fill:#000000;fill-opacity:1;stroke:#000000;stroke-width:3;stroke-miterlimit:4;stroke-opacity:1" />
        <g
           id="g6604"
           transform="translate(-193.27403,46.054688)">
          <path
             style="fill:none;stroke:#ffffff;stroke-width:0.97061503;stroke-miterlimit:4;stroke-opacity:1;stroke-dasharray:none"
             d="m -1776.0213,378.49199 36.697,0"
             id="path6606"
             sodipodi:nodetypes="cc" />
          <text
             xml:space="preserve"
             style="font-size:40px;font-style:normal;font-weight:normal;fill:#ffffff;fill-opacity:1;stroke:none;font-family:Bitstream Vera Sans"
             x="-1821.7231"
             y="393.07208"
             id="text6608"><tspan
               sodipodi:role="line"
               id="tspan6610"
               x="-1821.7231"
               y="393.07208">L</tspan></text>
        </g>
      </g>
      <g
         transform="matrix(1.6746114,0,0,1.6746114,1587.4961,-144.8768)"
         id="g6720">
        <path
           style="fill:none;stroke:#000000;stroke-width:8;stroke-linecap:butt;stroke-linejoin:miter;stroke-miterlimit:4;stroke-opacity:1;stroke-dasharray:none;marker-end:url(#Arrow1Send)"
           d="m -2250.7176,436.1346 98.6265,0"
           id="path6722" />
        <path
           id="path6724"
           d="m -2250.9232,436.1346 85.1095,0"
           style="fill:none;stroke:#ffffff;stroke-width:2.78684878;stroke-linecap:butt;stroke-linejoin:miter;stroke-miterlimit:4;stroke-opacity:1;stroke-dasharray:none;marker-end:none" />
      </g>
      <image
         xlink:href="file:///home/epurdy/hcm/articulator.gram.0032.png"
         width="101"
         height="101"
         id="image6380"
         x="-1536.5548"
         y="665.01495" />
      <g
         id="g6612"
         transform="matrix(1.6746114,0,0,1.6746114,1304.9363,-442.16568)">
        <path
           style="fill:#000000;fill-opacity:1;stroke:#000000;stroke-width:3;stroke-miterlimit:4;stroke-opacity:1"
           d="m -2208.2216,662.65674 0,57.3125 57.2812,0 0,-57.3125 -57.2812,0 z m 60.2812,0 0,57.3125 57.2813,0 0,-57.3125 -57.2813,0 z"
           id="path6614" />
        <path
           sodipodi:nodetypes="ccccccccc"
           id="path6616"
           d="m -2114.9761,673.10148 -8.1307,18.07448 -14.0368,0 0,18.34854 36.6971,0 0,-18.34854 -17.7257,0 8.1306,-18.07448 -4.9345,0 z"
           style="fill:none;stroke:#ffffff;stroke-width:0.97100002;stroke-miterlimit:4;stroke-opacity:1;stroke-dasharray:0.971, 0.971;stroke-dashoffset:0" />
        <text
           xml:space="preserve"
           style="font-size:40px;font-style:normal;font-weight:normal;fill:#ffffff;fill-opacity:1;stroke:none;font-family:Bitstream Vera Sans"
           x="-2202.8452"
           y="705.89307"
           id="text6618"><tspan
             sodipodi:role="line"
             id="tspan6620"
             x="-2202.8452"
             y="705.89307">T3</tspan></text>
        <path
           style="fill:none;stroke:#ffffff;stroke-width:0.97100002;stroke-miterlimit:4;stroke-opacity:1;stroke-dasharray:none;stroke-dashoffset:0"
           d="m -2118.1722,691.17596 8.1306,-18.07448 -4.9345,0 -8.1307,18.07448 -14.0368,0"
           id="path6622"
           sodipodi:nodetypes="ccccc" />
      </g>
      <g
         id="g6624"
         transform="matrix(1.6746114,0,0,1.6746114,1413.5746,4.564199)">
        <path
           style="fill:#000000;fill-opacity:1;stroke:#000000;stroke-width:3;stroke-miterlimit:4;stroke-opacity:1"
           d="m -2030.3735,395.89044 0,57.3125 57.2812,0 0,-57.3125 -57.2812,0 z m 60.2812,0 0,57.3125 57.2813,0 0,-57.3125 -57.2813,0 z"
           id="path6626" />
        <g
           transform="translate(-193.27403,46.054688)"
           id="g6628">
          <path
             sodipodi:nodetypes="cc"
             id="path6630"
             d="m -1776.0213,378.49199 36.697,0"
             style="fill:none;stroke:#ffffff;stroke-width:0.97061503;stroke-miterlimit:4;stroke-opacity:1;stroke-dasharray:none" />
          <text
             id="text6632"
             y="393.07208"
             x="-1821.7231"
             style="font-size:40px;font-style:normal;font-weight:normal;fill:#ffffff;fill-opacity:1;stroke:none;font-family:Bitstream Vera Sans"
             xml:space="preserve"><tspan
               y="393.07208"
               x="-1821.7231"
               id="tspan6634"
               sodipodi:role="line">L</tspan></text>
        </g>
      </g>
      <g
         id="g6636"
         transform="matrix(1.6746114,0,0,1.6746114,1936.5443,-593.40403)">
        <path
           id="path6638"
           d="m -2208.2215,752.96924 0,57.3125 57.2812,0 0,-57.3125 -57.2812,0 z m 60.2812,0 0,57.3125 57.2813,0 0,-57.3125 -57.2813,0 z"
           style="fill:#000000;fill-opacity:1;stroke:#000000;stroke-width:3;stroke-miterlimit:4;stroke-opacity:1" />
        <path
           style="fill:none;stroke:#ffffff;stroke-width:0.97100002;stroke-miterlimit:4;stroke-opacity:1;stroke-dasharray:0.971, 0.971;stroke-dashoffset:0"
           d="m -2114.976,763.41398 -8.1307,18.07448 -14.0368,0 0,18.34854 36.697,0 0,-18.34854 -17.7257,0 8.1306,-18.07448 -4.9344,0 z"
           id="path6640"
           sodipodi:nodetypes="ccccccccc" />
        <text
           id="text6642"
           y="796.20557"
           x="-2202.8452"
           style="font-size:40px;font-style:normal;font-weight:normal;fill:#ffffff;fill-opacity:1;stroke:none;font-family:Bitstream Vera Sans"
           xml:space="preserve"><tspan
             y="796.20557"
             x="-2202.8452"
             id="tspan6644"
             sodipodi:role="line">A1</tspan></text>
        <path
           sodipodi:nodetypes="cccc"
           id="path6646"
           d="m -2118.1722,781.48846 8.1306,-18.07448 -4.9344,0 -8.1307,18.07448"
           style="fill:none;stroke:#ffffff;stroke-width:0.97100002;stroke-miterlimit:4;stroke-opacity:1;stroke-dasharray:none;stroke-dashoffset:0" />
      </g>
      <g
         id="g6726"
         transform="matrix(1.6746114,0,0,1.6746114,1587.4961,-14.841047)">
        <path
           id="path6728"
           d="m -2250.7176,436.1346 98.6265,0"
           style="fill:none;stroke:#000000;stroke-width:8;stroke-linecap:butt;stroke-linejoin:miter;stroke-miterlimit:4;stroke-opacity:1;stroke-dasharray:none;marker-end:url(#Arrow1Send)" />
        <path
           style="fill:none;stroke:#ffffff;stroke-width:2.78684878;stroke-linecap:butt;stroke-linejoin:miter;stroke-miterlimit:4;stroke-opacity:1;stroke-dasharray:none;marker-end:none"
           d="m -2250.9232,436.1346 85.1095,0"
           id="path6730" />
      </g>
      <image
         xlink:href="file:///home/epurdy/hcm/articulator.gram.0034.png"
         width="101"
         height="101"
         id="image6240"
         x="-1536.5548"
         y="795.05066" />
      <g
         transform="matrix(1.6746114,0,0,1.6746114,1304.9361,-463.36827)"
         id="g6648">
        <path
           style="fill:#000000;fill-opacity:1;stroke:#000000;stroke-width:3;stroke-miterlimit:4;stroke-opacity:1"
           d="m -2208.2215,752.96924 0,57.3125 57.2812,0 0,-57.3125 -57.2812,0 z m 60.2812,0 0,57.3125 57.2813,0 0,-57.3125 -57.2813,0 z"
           id="path6650" />
        <path
           sodipodi:nodetypes="ccccccccc"
           id="path6652"
           d="m -2114.976,763.41398 -8.1307,18.07448 -14.0368,0 0,18.34854 36.697,0 0,-18.34854 -17.7257,0 8.1306,-18.07448 -4.9344,0 z"
           style="fill:none;stroke:#ffffff;stroke-width:0.97100002;stroke-miterlimit:4;stroke-opacity:1;stroke-dasharray:0.971, 0.971;stroke-dashoffset:0" />
        <text
           xml:space="preserve"
           style="font-size:40px;font-style:normal;font-weight:normal;fill:#ffffff;fill-opacity:1;stroke:none;font-family:Bitstream Vera Sans"
           x="-2202.8452"
           y="796.20557"
           id="text6654"><tspan
             sodipodi:role="line"
             id="tspan6656"
             x="-2202.8452"
             y="796.20557">A1</tspan></text>
        <path
           style="fill:none;stroke:#ffffff;stroke-width:0.97100002;stroke-miterlimit:4;stroke-opacity:1;stroke-dasharray:none;stroke-dashoffset:0"
           d="m -2118.1722,781.48846 8.1306,-18.07448 -4.9344,0 -8.1307,18.07448"
           id="path6658"
           sodipodi:nodetypes="cccc" />
      </g>
      <g
         id="g6660"
         transform="matrix(1.6746114,0,0,1.6746114,1250.8826,-463.36827)">
        <path
           style="fill:#000000;fill-opacity:1;stroke:#000000;stroke-width:3;stroke-miterlimit:4;stroke-opacity:1"
           d="m -1933.2214,752.96924 0,57.3125 57.2812,0 0,-57.3125 -57.2812,0 z m 60.2812,0 0,57.3125 57.2813,0 0,-57.3125 -57.2813,0 z"
           id="path6662" />
        <path
           sodipodi:nodetypes="ccccccccc"
           id="path6664"
           d="m -1839.9759,763.41399 -8.1306,18.07448 -14.0369,0 0,18.34854 36.697,0 0,-18.34854 -17.7257,0 8.1306,-18.07448 -4.9344,0 z"
           style="fill:none;stroke:#ffffff;stroke-width:0.97100002;stroke-miterlimit:4;stroke-opacity:1;stroke-dasharray:0.971, 0.971;stroke-dashoffset:0" />
        <text
           xml:space="preserve"
           style="font-size:40px;font-style:normal;font-weight:normal;fill:#ffffff;fill-opacity:1;stroke:none;font-family:Bitstream Vera Sans"
           x="-1927.8452"
           y="796.20557"
           id="text6666"><tspan
             sodipodi:role="line"
             id="tspan6668"
             x="-1927.8452"
             y="796.20557">A2</tspan></text>
        <path
           style="fill:none;stroke:#ffffff;stroke-width:0.97100002;stroke-miterlimit:4;stroke-opacity:1;stroke-dasharray:none;stroke-dashoffset:0"
           d="m -1835.0415,763.41399 -4.9344,0 -8.1306,18.07448"
           id="path6670"
           sodipodi:nodetypes="ccc" />
      </g>
      <g
         transform="matrix(1.6746114,0,0,1.6746114,1638.718,134.59996)"
         id="g6672">
        <path
           id="path6674"
           d="m -2030.3735,395.89044 0,57.3125 57.2812,0 0,-57.3125 -57.2812,0 z m 60.2812,0 0,57.3125 57.2813,0 0,-57.3125 -57.2813,0 z"
           style="fill:#000000;fill-opacity:1;stroke:#000000;stroke-width:3;stroke-miterlimit:4;stroke-opacity:1" />
        <g
           id="g6676"
           transform="translate(-193.27403,46.054688)">
          <path
             style="fill:none;stroke:#ffffff;stroke-width:0.97061503;stroke-miterlimit:4;stroke-opacity:1;stroke-dasharray:none"
             d="m -1776.0213,378.49199 36.697,0"
             id="path6678"
             sodipodi:nodetypes="cc" />
          <text
             xml:space="preserve"
             style="font-size:40px;font-style:normal;font-weight:normal;fill:#ffffff;fill-opacity:1;stroke:none;font-family:Bitstream Vera Sans"
             x="-1821.7231"
             y="393.07208"
             id="text6680"><tspan
               sodipodi:role="line"
               id="tspan6682"
               x="-1821.7231"
               y="393.07208">L</tspan></text>
        </g>
      </g>
      <g
         transform="matrix(1.6746114,0,0,1.6746114,1587.4961,115.19471)"
         id="g6732">
        <path
           style="fill:none;stroke:#000000;stroke-width:8;stroke-linecap:butt;stroke-linejoin:miter;stroke-miterlimit:4;stroke-opacity:1;stroke-dasharray:none;marker-end:url(#Arrow1Send)"
           d="m -2250.7176,436.1346 98.6265,0"
           id="path6734" />
        <path
           id="path6736"
           d="m -2250.9232,436.1346 85.1095,0"
           style="fill:none;stroke:#ffffff;stroke-width:2.78684878;stroke-linecap:butt;stroke-linejoin:miter;stroke-miterlimit:4;stroke-opacity:1;stroke-dasharray:none;marker-end:none" />
      </g>
      <image
         xlink:href="file:///home/epurdy/hcm/articulator.gram.0033.png"
         width="101"
         height="101"
         id="image6415"
         x="-1536.5548"
         y="925.08643" />
      <g
         transform="matrix(1.6746114,0,0,1.6746114,844.41778,-333.33251)"
         id="g6684">
        <path
           id="path6686"
           d="m -1933.2214,752.96924 0,57.3125 57.2812,0 0,-57.3125 -57.2812,0 z m 60.2812,0 0,57.3125 57.2813,0 0,-57.3125 -57.2813,0 z"
           style="fill:#000000;fill-opacity:1;stroke:#000000;stroke-width:3;stroke-miterlimit:4;stroke-opacity:1" />
        <path
           style="fill:none;stroke:#ffffff;stroke-width:0.97100002;stroke-miterlimit:4;stroke-opacity:1;stroke-dasharray:0.971, 0.971;stroke-dashoffset:0"
           d="m -1839.9759,763.41399 -8.1306,18.07448 -14.0369,0 0,18.34854 36.697,0 0,-18.34854 -17.7257,0 8.1306,-18.07448 -4.9344,0 z"
           id="path6688"
           sodipodi:nodetypes="ccccccccc" />
        <text
           id="text6690"
           y="796.20557"
           x="-1927.8452"
           style="font-size:40px;font-style:normal;font-weight:normal;fill:#ffffff;fill-opacity:1;stroke:none;font-family:Bitstream Vera Sans"
           xml:space="preserve"><tspan
             y="796.20557"
             x="-1927.8452"
             id="tspan6692"
             sodipodi:role="line">A2</tspan></text>
        <path
           sodipodi:nodetypes="ccc"
           id="path6694"
           d="m -1835.0415,763.41399 -4.9344,0 -8.1306,18.07448"
           style="fill:none;stroke:#ffffff;stroke-width:0.97100002;stroke-miterlimit:4;stroke-opacity:1;stroke-dasharray:none;stroke-dashoffset:0" />
      </g>
      <g
         transform="matrix(1.6746114,0,0,1.6746114,1413.5746,264.63571)"
         id="g6696">
        <path
           id="path6698"
           d="m -2030.3735,395.89044 0,57.3125 57.2812,0 0,-57.3125 -57.2812,0 z m 60.2812,0 0,57.3125 57.2813,0 0,-57.3125 -57.2813,0 z"
           style="fill:#000000;fill-opacity:1;stroke:#000000;stroke-width:3;stroke-miterlimit:4;stroke-opacity:1" />
        <g
           id="g6700"
           transform="translate(-193.27403,46.054688)">
          <path
             style="fill:none;stroke:#ffffff;stroke-width:0.97061503;stroke-miterlimit:4;stroke-opacity:1;stroke-dasharray:none"
             d="m -1776.0213,378.49199 36.697,0"
             id="path6702"
             sodipodi:nodetypes="cc" />
          <text
             xml:space="preserve"
             style="font-size:40px;font-style:normal;font-weight:normal;fill:#ffffff;fill-opacity:1;stroke:none;font-family:Bitstream Vera Sans"
             x="-1821.7231"
             y="393.07208"
             id="text6704"><tspan
               sodipodi:role="line"
               id="tspan6706"
               x="-1821.7231"
               y="393.07208">L</tspan></text>
        </g>
      </g>
      <g
         id="g6708"
         transform="matrix(1.6746114,0,0,1.6746114,1638.718,264.63571)">
        <path
           style="fill:#000000;fill-opacity:1;stroke:#000000;stroke-width:3;stroke-miterlimit:4;stroke-opacity:1"
           d="m -2030.3735,395.89044 0,57.3125 57.2812,0 0,-57.3125 -57.2812,0 z m 60.2812,0 0,57.3125 57.2813,0 0,-57.3125 -57.2813,0 z"
           id="path6710" />
        <g
           transform="translate(-193.27403,46.054688)"
           id="g6712">
          <path
             sodipodi:nodetypes="cc"
             id="path6714"
             d="m -1776.0213,378.49199 36.697,0"
             style="fill:none;stroke:#ffffff;stroke-width:0.97061503;stroke-miterlimit:4;stroke-opacity:1;stroke-dasharray:none" />
          <text
             id="text6716"
             y="393.07208"
             x="-1821.7231"
             style="font-size:40px;font-style:normal;font-weight:normal;fill:#ffffff;fill-opacity:1;stroke:none;font-family:Bitstream Vera Sans"
             xml:space="preserve"><tspan
               y="393.07208"
               x="-1821.7231"
               id="tspan6718"
               sodipodi:role="line">L</tspan></text>
        </g>
      </g>
      <g
         id="g6738"
         transform="matrix(1.6746114,0,0,1.6746114,1587.4961,245.23047)">
        <path
           id="path6740"
           d="m -2250.7176,436.1346 98.6265,0"
           style="fill:none;stroke:#000000;stroke-width:8;stroke-linecap:butt;stroke-linejoin:miter;stroke-miterlimit:4;stroke-opacity:1;stroke-dasharray:none;marker-end:url(#Arrow1Send)" />
        <path
           style="fill:none;stroke:#ffffff;stroke-width:2.78684878;stroke-linecap:butt;stroke-linejoin:miter;stroke-miterlimit:4;stroke-opacity:1;stroke-dasharray:none;marker-end:none"
           d="m -2250.9232,436.1346 85.1095,0"
           id="path6742" />
      </g>
      <path
         id="path7026"
         d="m -1986.512,1057.6341 0,95.9762 95.9237,0 0,-95.9762 -95.9237,0 z m 100.9476,0 0,95.9762 95.9239,0 0,-95.9762 -95.9239,0 z"
         style="fill:#000000;fill-opacity:1;stroke:#000000;stroke-width:5.02383423;stroke-miterlimit:4;stroke-opacity:1" />
      <g
         id="g7028"
         transform="matrix(1.6746114,0,0,1.6746114,1089.9157,471.79518)">
        <path
           style="fill:none;stroke:#ffffff;stroke-width:0.97061503;stroke-miterlimit:4;stroke-opacity:1;stroke-dasharray:none"
           d="m -1776.0213,378.49199 36.697,0"
           id="path7030"
           sodipodi:nodetypes="cc" />
        <text
           xml:space="preserve"
           style="font-size:40px;font-style:normal;font-weight:normal;fill:#ffffff;fill-opacity:1;stroke:none;font-family:Bitstream Vera Sans"
           x="-1821.7231"
           y="393.07208"
           id="text7032"><tspan
             sodipodi:role="line"
             id="tspan7034"
             x="-1821.7231"
             y="393.07208">L</tspan></text>
      </g>
      <path
         style="fill:#000000;fill-opacity:1;stroke:#000000;stroke-width:5.02383423;stroke-miterlimit:4;stroke-opacity:1"
         d="m -1761.3686,1057.6341 0,95.9762 95.9237,0 0,-95.9762 -95.9237,0 z m 100.9476,0 0,95.9762 95.9239,0 0,-95.9762 -95.9239,0 z"
         id="path7038" />
      <g
         transform="matrix(1.6746114,0,0,1.6746114,1315.0591,471.79518)"
         id="g7040">
        <path
           sodipodi:nodetypes="cc"
           id="path7042"
           d="m -1776.0213,378.49199 36.697,0"
           style="fill:none;stroke:#ffffff;stroke-width:0.97061503;stroke-miterlimit:4;stroke-opacity:1;stroke-dasharray:none" />
        <text
           id="text7044"
           y="393.07208"
           x="-1821.7231"
           style="font-size:40px;font-style:normal;font-weight:normal;fill:#ffffff;fill-opacity:1;stroke:none;font-family:Bitstream Vera Sans"
           xml:space="preserve"><tspan
             y="393.07208"
             x="-1821.7231"
             id="tspan7046"
             sodipodi:role="line">L</tspan></text>
      </g>
      <path
         id="path7050"
         d="m -2181.5813,1105.6222 165.1611,0"
         style="fill:none;stroke:#000000;stroke-width:13.39689159;stroke-linecap:butt;stroke-linejoin:miter;stroke-miterlimit:4;stroke-opacity:1;stroke-dasharray:none;marker-end:url(#Arrow1Send)" />
      <path
         style="fill:none;stroke:#ffffff;stroke-width:4.66688871;stroke-linecap:butt;stroke-linejoin:miter;stroke-miterlimit:4;stroke-opacity:1;stroke-dasharray:none;marker-end:none"
         d="m -2181.9256,1105.6222 142.5254,0"
         id="path7052" />
      <g
         id="g8985">
        <path
           id="path7104"
           d="m -2392.9768,1057.6341 0,95.9762 95.9237,0 0,-95.9762 -95.9237,0 z m 100.9476,0 0,95.9762 95.9239,0 0,-95.9762 -95.9239,0 z"
           style="fill:#000000;fill-opacity:1;stroke:#000000;stroke-width:5.02383423;stroke-miterlimit:4;stroke-opacity:1" />
        <g
           id="g7106"
           transform="matrix(1.6746114,0,0,1.6746114,683.45091,471.79518)">
          <path
             style="fill:none;stroke:#ffffff;stroke-width:0.97061503;stroke-miterlimit:4;stroke-opacity:1;stroke-dasharray:none"
             d="m -1776.0213,378.49199 36.697,0"
             id="path7108"
             sodipodi:nodetypes="cc" />
          <text
             xml:space="preserve"
             style="font-size:40px;font-style:normal;font-weight:normal;fill:#ffffff;fill-opacity:1;stroke:none;font-family:Bitstream Vera Sans"
             x="-1821.7231"
             y="393.07208"
             id="text7110"><tspan
               sodipodi:role="line"
               id="tspan7112"
               x="-1821.7231"
               y="393.07208">L</tspan></text>
        </g>
      </g>
    </g>
  </g>
</svg>
