<?xml version="1.0" encoding="UTF-8" standalone="no"?>
<!-- Created with Inkscape (http://www.inkscape.org/) -->
<svg
   xmlns:dc="http://purl.org/dc/elements/1.1/"
   xmlns:cc="http://creativecommons.org/ns#"
   xmlns:rdf="http://www.w3.org/1999/02/22-rdf-syntax-ns#"
   xmlns:svg="http://www.w3.org/2000/svg"
   xmlns="http://www.w3.org/2000/svg"
   xmlns:sodipodi="http://sodipodi.sourceforge.net/DTD/sodipodi-0.dtd"
   xmlns:inkscape="http://www.inkscape.org/namespaces/inkscape"
   width="744.09448819"
   height="1052.3622047"
   id="svg2"
   sodipodi:version="0.32"
   inkscape:version="0.46"
   sodipodi:docname="hand.svg"
   inkscape:output_extension="org.inkscape.output.svg.inkscape">
  <sodipodi:namedview
     id="base"
     pagecolor="#ffffff"
     bordercolor="#666666"
     borderopacity="1.0"
     gridtolerance="10000"
     guidetolerance="10"
     objecttolerance="10"
     inkscape:pageopacity="0.0"
     inkscape:pageshadow="2"
     inkscape:zoom="0.62715101"
     inkscape:cx="-355.03348"
     inkscape:cy="460.28965"
     inkscape:document-units="px"
     inkscape:current-layer="layer1"
     showgrid="false"
     inkscape:window-width="1280"
     inkscape:window-height="881"
     inkscape:window-x="0"
     inkscape:window-y="27" />
  <defs
     id="defs4">
    <inkscape:perspective
       sodipodi:type="inkscape:persp3d"
       inkscape:vp_x="0 : 526.18109 : 1"
       inkscape:vp_y="0 : 1000 : 0"
       inkscape:vp_z="744.09448 : 526.18109 : 1"
       inkscape:persp3d-origin="372.04724 : 350.78739 : 1"
       id="perspective10" />
    <inkscape:perspective
       id="perspective2593"
       inkscape:persp3d-origin="240.5 : 196 : 1"
       inkscape:vp_z="481 : 294 : 1"
       inkscape:vp_y="0 : 1000 : 0"
       inkscape:vp_x="0 : 294 : 1"
       sodipodi:type="inkscape:persp3d" />
  </defs>
  <metadata
     id="metadata7">
    <rdf:RDF>
      <cc:Work
         rdf:about="">
        <dc:format>image/svg+xml</dc:format>
        <dc:type
           rdf:resource="http://purl.org/dc/dcmitype/StillImage" />
      </cc:Work>
    </rdf:RDF>
  </metadata>
  <g
     inkscape:label="Layer 1"
     inkscape:groupmode="layer"
     id="layer1">
    <path
       style="fill:#000000;fill-rule:evenodd;stroke:#000000;stroke-width:1px;stroke-linecap:butt;stroke-linejoin:miter;stroke-opacity:1;fill-opacity:1"
       d="M 424.9375 233.5 C 412.99421 234.20747 404.68463 247.48848 401.4375 256.5 C 399.39743 263.54008 396.75262 274.26044 396.4375 284.5 C 395.33798 288.89807 393.48011 301.67042 393.4375 308 C 393.37784 317.56507 393.93751 305.7147 393.9375 327.5 C 394.34398 335.87409 395.33027 351.68119 394.9375 357.5 C 394.29841 366.96818 396.93751 376.25669 396.9375 383.5 C 396.9375 386.83334 396.12906 390.26619 396.9375 393.5 C 396.9375 394.83334 395.95406 402.17129 396.4375 408.5 C 396.98186 415.6261 393.4054 434.93577 394.4375 452 C 394.4375 463.72494 386.93285 472.49068 382.9375 469 C 377.7372 464.45656 371.82099 453.07815 370.9375 445.5 C 370.09801 438.2992 367.27644 426.71689 367.9375 416 C 368.4375 407.89425 366.52492 392.31682 364.9375 383.5 C 363.87705 377.61003 361.43751 361.5741 360.9375 353.5 C 360.47675 346.05967 359.93751 333.69686 359.9375 328 C 361.36555 315.04035 360.56262 307.41205 359.9375 299.5 C 359.10417 291.83334 360.05405 282.47915 356.4375 275 C 354.11339 270.19364 355.25109 262.18642 343.9375 254 C 335.49534 247.52892 322.09915 251.83837 315.4375 259 C 310.78575 262.60702 307.40753 270.24156 307.4375 275 C 307.48603 282.70276 307.04923 294.03522 306.4375 300.5 C 305.85556 306.65003 304.73015 318.64837 304.9375 325.5 C 305.2695 336.47006 308.55451 354.9364 308.9375 365.5 C 309.26757 374.60377 312.97505 391.61354 313.4375 398.5 C 313.9375 405.9454 315.27764 421.93477 314.9375 431.5 C 314.70982 437.90266 313.85682 454.90344 315.9375 462.5 C 315.9375 472.55471 321.19469 482.79652 320.9375 491 C 320.71443 498.11536 321.22605 505.26542 319.9375 515.5 C 319.27481 520.76357 318.99446 528.3654 318.9375 533 C 318.84017 540.92094 317.58728 547.69455 311.9375 554 C 309.64732 556.55595 304.93751 564.8333 299.9375 562.5 C 295.00981 561.28926 287.81607 556.87853 284.4375 551 C 279.3836 543.80308 273.75803 532.63585 259.9375 519.5 C 255.92211 515.48461 251.47975 499.5845 248.9375 494.5 C 241.16623 478.67056 233.64555 467.79983 216.9375 462.5 C 212.01005 458.51814 198.84732 460.13608 193.4375 461 C 191.6649 461.28307 184.10417 461.33333 182.9375 470.5 C 182.9375 477.41497 182.53415 495.41371 186.9375 502.5 C 191.7478 510.2412 198.70061 523.05242 202.9375 531.5 C 206.92778 540.87642 213.08565 555.87704 215.4375 561 C 218.14917 569.28697 228.54614 591.23421 236.9375 603.5 C 246.7132 617.98807 253.74824 630.74626 258.4375 637 C 269.16357 650.41773 277.47617 665.10115 287.9375 678.5 C 296.35591 690.73272 301.18427 705.7116 314.9375 713.5 C 323.35677 721.27251 333.02211 726.67342 343.28125 730.8125 C 347.69623 741.38409 351.16905 753.42608 353.34375 761.8125 C 355.81692 771.34988 358.39618 795.33473 358.9375 797.5 L 522.21875 796.875 C 522.73331 786.1676 522.96309 768.43463 523.4375 760 C 523.8197 753.20469 523.8076 739.80965 523.53125 727.1875 C 528.15523 722.48995 532.34064 715.23722 536.4375 710 C 542.09662 702.18177 542.97833 690.43006 551.9375 674 C 551.9375 670.6263 557.00162 653.24341 558.9375 645.5 C 560.5484 639.05641 565.2605 626.29203 564.4375 616.5 C 565.4375 609.83334 565.58424 602.08702 564.9375 599.5 C 563.69562 589.27182 567.70843 579.74362 566.9375 569.5 C 566.9375 561.24493 568.93748 555.70687 568.9375 549.5 C 568.9375 539.81193 569.29661 529.06343 572.4375 516.5 C 574.64068 507.79683 580.9939 498.45806 584.5 491.90625 C 587.69027 485.94465 591.59117 475.1381 594.9375 467.03125 C 597.76593 458.79228 604.01611 445.06027 606.5 438.8125 C 609.94847 430.08957 613.8879 416.66788 616.9375 401.5 C 618.54016 389.80941 621.95015 377.47466 618.9375 369.5 C 614.28432 362.38729 608.26918 356.3366 600.9375 357.5 C 595.45509 358.36995 587.9041 365.06676 583.9375 373 C 581.60737 381.10684 578.96156 391.45185 572.9375 403.5 C 570.63557 410.86337 564.28686 421.74513 561.4375 429.5 C 558.85955 437.51007 552.2463 455.08001 547.4375 466.5 C 543.28702 474.18601 533.93748 499.86966 526.9375 491.5 C 514.83964 489.80429 519.43748 477.76768 519.4375 468.5 C 519.51181 457.73425 524.8746 444.19359 526.9375 434.5 C 529.93899 419.93018 530.70723 405.71943 532.9375 391 C 532.9375 379.27421 534.54642 363.97766 534.4375 354 C 534.4375 346.77362 536.83581 336.00417 537.4375 327 C 538.04953 317.84084 537.44462 308.02856 537.4375 300 C 538.27083 294.16667 540.03051 282.89263 538.4375 276.5 C 536.50503 268.74525 533.93748 261.25033 526.9375 256 C 522.77083 254.16667 515.43751 251.78596 508.9375 257.5 C 502.20976 260.22774 499.43751 270.36227 496.9375 279.5 C 495.23113 291.85799 490.6527 304.50151 491.9375 317 C 489.19037 325.01149 487.7595 337.35603 484.9375 348 C 483.15786 354.71244 477.2993 374.94718 478.9375 381.5 C 478.9375 393.02188 476.26623 407.3149 474.9375 421.5 C 472.76887 443.78105 465.08759 457.29564 457.4375 456 C 452.86653 455.22585 451.83201 442.80335 450.9375 438.5 C 448.80956 428.26269 451.93751 417.78449 451.9375 405.5 C 451.9375 394.29678 451.93751 385.46061 451.9375 377 C 451.9375 367.77164 449.5407 355.79363 451.4375 347.5 C 451.01157 339.3578 452.71488 327.70193 452.4375 323.5 C 451.95991 316.26485 449.84362 304.20838 449.4375 296 C 449.0987 289.1521 448.1938 276.47483 447.9375 271 C 447.27083 267.33334 446.20885 254.91466 445.9375 251 C 445.24602 241.02394 441.51215 234.29858 424.9375 233.5 z "
       id="pathBras" />
    <text
       xml:space="preserve"
       style="font-size:40px;font-style:normal;font-weight:normal;fill:#000000;fill-opacity:1;stroke:none;stroke-width:1px;stroke-linecap:butt;stroke-linejoin:miter;stroke-opacity:1;font-family:Bitstream Vera Sans"
       x="280.86322"
       y="973.19482"
       id="text2632"><tspan
         sodipodi:role="line"
         id="tspan2634"
         x="280.86322"
         y="973.19482">OCA user mireille</tspan></text>
    <path
       id="path3426"
       d="M 168.23702,739.47256 C 168.75158,728.76516 168.98136,711.03219 169.45577,702.59756 C 169.83797,695.80225 169.82587,682.40721 169.54952,669.78506 C 174.1735,665.08751 178.35891,657.83478 182.45577,652.59756 C 188.11489,644.77933 188.9966,633.02762 197.95577,616.59756 C 197.95577,613.22386 203.01989,595.84097 204.95577,588.09756 C 206.56667,581.65397 211.27877,568.88959 210.45577,559.09756 C 211.45577,552.4309 211.60251,544.68458 210.95577,542.09756 C 209.71389,531.86938 213.7267,522.34118 212.95577,512.09756 C 212.95577,503.84249 214.95575,498.30443 214.95577,492.09756 C 214.95577,482.40949 215.31488,471.66099 218.45577,459.09756 C 220.65895,450.39439 227.01217,441.05562 230.51827,434.50381 C 233.70854,428.54221 237.60944,417.73566 240.95577,409.62881 C 243.7842,401.38984 250.03438,387.65783 252.51827,381.41006 C 255.96674,372.68713 259.90617,359.26544 262.95577,344.09756 C 264.55843,332.40697 267.96842,320.07222 264.95577,312.09756 C 260.30259,304.98485 254.28745,298.93416 246.95577,300.09756 C 241.47336,300.96751 233.92237,307.66432 229.95577,315.59756 C 227.62564,323.7044 224.97983,334.04941 218.95577,346.09756 C 216.65384,353.46093 210.30513,364.34269 207.45577,372.09756 C 204.87782,380.10763 198.26457,397.67757 193.45577,409.09756 C 189.30529,416.78357 179.95575,442.46722 172.95577,434.09756 C 160.85791,432.40185 165.45575,420.36524 165.45577,411.09756 C 165.53008,400.33181 170.89287,386.79115 172.95577,377.09756 C 175.95726,362.52774 176.7255,348.31699 178.95577,333.59756 C 178.95577,321.87177 180.56469,306.57522 180.45577,296.59756 C 180.45577,289.37118 182.85408,278.60173 183.45577,269.59756 C 184.0678,260.4384 183.46289,250.62612 183.45577,242.59756 C 184.2891,236.76423 186.04878,225.49019 184.45577,219.09756 C 182.5233,211.34281 179.95575,203.84789 172.95577,198.59756 C 168.7891,196.76423 161.45578,194.38352 154.95577,200.09756 C 148.22803,202.8253 145.45578,212.95983 142.95577,222.09756 C 141.2494,234.45555 136.67097,247.09907 137.95577,259.59756 C 135.20864,267.60905 133.77777,279.95359 130.95577,290.59756 C 129.17613,297.31 123.31757,317.54474 124.95577,324.09756 C 124.95577,335.61944 122.2845,349.91246 120.95577,364.09756 C 118.78714,386.37861 111.10586,399.8932 103.45577,398.59756 C 98.884802,397.82341 97.850282,385.40091 96.955772,381.09756 C 94.827832,370.86025 97.955782,360.38205 97.955772,348.09756 C 97.955772,336.89434 97.955782,328.05817 97.955772,319.59756 C 97.955772,310.3692 95.558972,298.39119 97.455772,290.09756 C 97.029842,281.95536 98.733152,270.29949 98.455772,266.09756 C 97.978182,258.86241 95.861892,246.80594 95.455772,238.59756 C 95.116972,231.74966 94.212072,219.07239 93.955772,213.59756 C 93.289102,209.9309 92.227122,197.51222 91.955772,193.59756 C 91.264292,183.6215 87.530422,176.89614 70.955775,176.09756 C 59.012485,176.80503 50.702905,190.08604 47.455775,199.09756 C 45.415705,206.13764 42.770895,216.858 42.455775,227.09756 C 41.356255,231.49563 39.498385,244.26798 39.455775,250.59756 C 39.396115,260.16263 39.955785,248.31226 39.955775,270.09756 C 40.362255,278.47165 41.348545,294.27875 40.955775,300.09756 C 40.316685,309.56574 42.955785,318.85425 42.955775,326.09756 C 42.955775,329.4309 42.147335,332.86375 42.955775,336.09756 C 42.955775,337.4309 41.972335,344.76885 42.455775,351.09756 C 43.000135,358.22366 39.423675,377.53333 40.455775,394.59756 C 40.455775,406.3225 32.951125,415.08824 28.955775,411.59756 C 23.755475,407.05412 17.839265,395.67571 16.955775,388.09756 C 16.116285,380.89676 13.294715,369.31445 13.955775,358.59756 C 14.455775,350.49181 12.543195,334.91438 10.955775,326.09756 C 9.8953254,320.20759 7.4557854,304.17166 6.9557754,296.09756 C 6.4950254,288.65723 5.9557854,276.29442 5.9557754,270.59756 C 7.3838254,257.63791 6.5808954,250.00961 5.9557754,242.09756 C 5.1224454,234.4309 6.0723254,225.07671 2.4557754,217.59756 C 0.13166541,212.7912 1.2693654,204.78398 -10.044225,196.59756 C -18.486385,190.12648 -31.882575,194.43593 -38.544225,201.59756 C -43.195975,205.20458 -46.574195,212.83912 -46.544225,217.59756 C -46.495695,225.30032 -46.932495,236.63278 -47.544225,243.09756 C -48.126165,249.24759 -49.251575,261.24593 -49.044225,268.09756 C -48.712225,279.06762 -45.427215,297.53396 -45.044225,308.09756 C -44.714155,317.20133 -41.006675,334.2111 -40.544225,341.09756 C -40.044225,348.54296 -38.704085,364.53233 -39.044225,374.09756 C -39.271905,380.50022 -40.124905,397.501 -38.044225,405.09756 C -38.044225,415.15227 -32.787035,425.39408 -33.044225,433.59756 C -33.267295,440.71292 -32.755675,447.86298 -34.044225,458.09756 C -34.706915,463.36113 -34.987265,470.96296 -35.044225,475.59756 C -35.141555,483.5185 -36.394445,490.29211 -42.044225,496.59756 C -44.334405,499.15351 -49.044215,507.43086 -54.044225,505.09756 C -58.971915,503.88682 -66.165655,499.47609 -69.544225,493.59756 C -74.598125,486.40064 -80.223695,475.23341 -94.044225,462.09756 C -98.059615,458.08217 -102.50197,442.18206 -105.04422,437.09756 C -112.81549,421.26812 -120.33617,410.39739 -137.04422,405.09756 C -141.97167,401.1157 -155.1344,402.73364 -160.54422,403.59756 C -162.31682,403.88063 -169.87755,403.93089 -171.04422,413.09756 C -171.04422,420.01253 -171.44757,438.01127 -167.04422,445.09756 C -162.23392,452.83876 -155.28111,465.64998 -151.04422,474.09756 C -147.05394,483.47398 -140.89607,498.4746 -138.54422,503.59756 C -135.83255,511.88453 -125.43558,533.83177 -117.04422,546.09756 C -107.26852,560.58563 -100.23348,573.34382 -95.544225,579.59756 C -84.818155,593.01529 -76.505555,607.69871 -66.044225,621.09756 C -57.625815,633.33028 -52.797455,648.30916 -39.044225,656.09756 C -30.624955,663.87007 -20.959615,669.27098 -10.700475,673.41006 C -6.2854946,683.98165 -2.8126746,696.02364 -0.63797459,704.41006 C 1.8351954,713.94744 4.4144554,737.93229 4.9557754,740.09756 L 168.23702,739.47256"
       style="fill:none;fill-opacity:1;fill-rule:evenodd;stroke:#000000;stroke-width:1px;stroke-linecap:butt;stroke-linejoin:miter;stroke-opacity:1"
       sodipodi:nodetypes="cscccscccscsccccscccccccccscsccccsccsssscsscscccccsscscsssssccsccsssssscsssscccccscscccccccscc" />
    <path
       sodipodi:nodetypes="cccccccccccccccccccccccccccccccccccccccccccccccccccccccccccccccccccccccccccccccccccccccccccccc"
       style="fill:none;fill-opacity:1;fill-rule:evenodd;stroke:#000000;stroke-width:1px;stroke-linecap:butt;stroke-linejoin:miter;stroke-opacity:1"
       d="M -375.49167,742.66158 L -374.27292,705.78658 L -374.17917,672.97408 L -361.27292,655.78658 L -345.77292,619.78658 L -338.77293,591.28658 L -333.27293,562.28658 L -332.77293,545.28658 L -330.77293,515.28658 L -328.77293,495.28658 L -325.27293,462.28658 L -313.21043,437.69283 L -302.77293,412.81783 L -291.21043,384.59908 L -280.77293,347.28658 L -278.77293,315.28658 L -296.77293,303.28658 L -313.77293,318.78658 L -324.77293,349.28658 L -336.27293,375.28658 L -350.27292,412.28658 L -370.77292,437.28658 L -378.27292,414.28658 L -370.77292,380.28658 L -364.77292,336.78658 L -363.27292,299.78658 L -360.27292,272.78658 L -360.27292,245.78658 L -359.27292,222.28658 L -370.77292,201.78658 L -388.77292,203.28658 L -400.77292,225.28658 L -405.77292,262.78658 L -412.77292,293.78658 L -418.77292,327.28658 L -422.77292,367.28658 L -440.27292,401.78658 L -446.77292,384.28658 L -445.77292,351.28658 L -445.77292,322.78658 L -446.27292,293.28658 L -445.27292,269.28658 L -448.27292,241.78658 L -449.77292,216.78658 L -451.77292,196.78658 L -472.77292,179.28658 L -496.27292,202.28658 L -501.27292,230.28658 L -504.27292,253.78658 L -503.77292,273.28658 L -502.77292,303.28658 L -500.77292,329.28658 L -500.77292,339.28658 L -501.27292,354.28658 L -503.27292,397.78658 L -514.77292,414.78658 L -526.77292,391.28658 L -529.77292,361.78658 L -532.77292,329.28658 L -536.77292,299.28658 L -537.77292,273.78658 L -537.77292,245.28658 L -541.27292,220.78658 L -553.77292,199.78658 L -582.27292,204.78658 L -590.27292,220.78658 L -591.27292,246.28658 L -592.77292,271.28658 L -588.77292,311.28658 L -584.27292,344.28658 L -582.77292,377.28658 L -581.77292,408.28658 L -576.77292,436.78658 L -577.77292,461.28658 L -578.77292,478.78658 L -585.77292,499.78658 L -597.77292,508.28658 L -613.27292,496.78658 L -637.77292,465.28658 L -648.77292,440.28658 L -680.77292,408.28658 L -704.27292,406.78658 L -714.77292,416.28658 L -710.77292,448.28658 L -694.77292,477.28658 L -682.27292,506.78658 L -660.77292,549.28658 L -639.27292,582.78658 L -609.77292,624.28658 L -582.77292,659.28658 L -554.42917,676.59908 L -544.36667,707.59908 L -538.77292,743.28658 L -375.49167,742.66158"
       id="path3428" />
  </g>
</svg>
