<?xml version="1.0" encoding="UTF-8" standalone="no"?>
<!-- Created with Inkscape (http://www.inkscape.org/) -->

<svg
   xmlns:dc="http://purl.org/dc/elements/1.1/"
   xmlns:cc="http://creativecommons.org/ns#"
   xmlns:rdf="http://www.w3.org/1999/02/22-rdf-syntax-ns#"
   xmlns:svg="http://www.w3.org/2000/svg"
   xmlns="http://www.w3.org/2000/svg"
   xmlns:sodipodi="http://sodipodi.sourceforge.net/DTD/sodipodi-0.dtd"
   xmlns:inkscape="http://www.inkscape.org/namespaces/inkscape"
   width="744.09448819"
   height="1052.3622047"
   id="svg3013"
   version="1.1"
   inkscape:version="0.47 r22583"
   sodipodi:docname="New document 5">
  <defs
     id="defs3015">
    <inkscape:perspective
       sodipodi:type="inkscape:persp3d"
       inkscape:vp_x="0 : 526.18109 : 1"
       inkscape:vp_y="0 : 1000 : 0"
       inkscape:vp_z="744.09448 : 526.18109 : 1"
       inkscape:persp3d-origin="372.04724 : 350.78739 : 1"
       id="perspective3021" />
    <inkscape:perspective
       id="perspective2990"
       inkscape:persp3d-origin="0.5 : 0.33333333 : 1"
       inkscape:vp_z="1 : 0.5 : 1"
       inkscape:vp_y="0 : 1000 : 0"
       inkscape:vp_x="0 : 0.5 : 1"
       sodipodi:type="inkscape:persp3d" />
  </defs>
  <sodipodi:namedview
     id="base"
     pagecolor="#ffffff"
     bordercolor="#666666"
     borderopacity="1.0"
     inkscape:pageopacity="0.0"
     inkscape:pageshadow="2"
     inkscape:zoom="0.35"
     inkscape:cx="375"
     inkscape:cy="520"
     inkscape:document-units="px"
     inkscape:current-layer="layer1"
     showgrid="false"
     inkscape:window-width="613"
     inkscape:window-height="504"
     inkscape:window-x="0"
     inkscape:window-y="24"
     inkscape:window-maximized="0" />
  <metadata
     id="metadata3018">
    <rdf:RDF>
      <cc:Work
         rdf:about="">
        <dc:format>image/svg+xml</dc:format>
        <dc:type
           rdf:resource="http://purl.org/dc/dcmitype/StillImage" />
        <dc:title></dc:title>
      </cc:Work>
    </rdf:RDF>
  </metadata>
  <g
     inkscape:label="Layer 1"
     inkscape:groupmode="layer"
     id="layer1">
    <g
       id="layer1-0"
       transform="matrix(-0.70710678,-0.70710678,0.70710678,-0.70710678,225.18196,519.79605)">
      <path
         style="fill:none;stroke:#000000;stroke-width:1px;stroke-linecap:butt;stroke-linejoin:miter;stroke-opacity:1"
         d="M 1.119126,-2.627804 0.439362,-3.35874 -0.241621,-4.089369 -0.92361,-4.821501 -1.604689,-5.554642 -2.283662,-6.288527 -2.961526,-7.025709 -3.63624,-7.763818 l -0.674897,-0.737607 -0.676271,-0.735951 -0.676167,-0.738419 -0.677049,-0.737855 -0.677873,-0.735094 -0.677132,-0.735641 -0.675892,-0.737733 -0.672835,-0.738857 -0.671135,-0.737263 -1.414338,-0.06577 -0.675316,-0.736076 -1.413898,-0.05913 -0.67679,-0.735627 -0.680621,-0.732098 -0.681117,-0.730536 -0.67778,-0.736445 -0.674859,-0.739496 -0.675236,-0.737337 -0.676526,-0.736254 -0.679034,-0.73448 -0.674815,-0.738263 -0.674402,-0.736406 -0.672066,-0.740611 -0.674137,-0.738164 -0.740491,0.67451 -1.412793,-0.07096 -1.412489,-0.0658 -0.736908,0.67361 -0.735857,0.678969 -1.413145,-0.05899 -0.67454,-0.737774 -0.673559,-0.740096 -0.673659,-0.736966 -1.413328,-0.06074 -0.673702,-0.736566 -0.676939,-0.735991 -0.678205,-0.732476 -0.678052,-0.734721 -0.677228,-0.73505 -0.678257,-0.734048 -0.679011,-0.73723 -0.679811,-0.733527 -0.680479,-0.729998 -0.68583,-0.72792 -0.684701,-0.730647 -0.682872,-0.729156 -0.685786,-0.729076 -0.687165,-0.726813 -0.689822,-0.724646 -0.687338,-0.724075 -0.689258,-0.726183 0.04269,-1.414527 -0.686957,-0.726867 -0.686649,-0.726818 -0.684881,-0.72955 -0.68575,-0.726849 -0.689898,-0.724458 -0.692077,-0.723563 -0.690963,-0.722538 -0.688419,-0.723853 -0.69138,-0.722248 -0.687924,-0.726644 -0.684969,-0.72709 -0.691106,-0.72338 -0.686711,-0.726522 -0.684364,-0.727559 -0.685791,-0.726095 -0.687881,-0.727049 -0.686812,-0.727224 -0.685666,-0.723743 -0.688231,-0.725074 -0.685752,-0.727 -0.685394,-0.728166 -0.688995,-0.726959 -0.686921,-0.728569 -0.684135,-0.730448 -0.679916,-0.733011 -0.681018,-0.734555 -0.682088,-0.730997 -0.685492,-0.727375 -0.685617,-0.727548 -0.68564,-0.730603 -0.684562,-0.729369 0.04256,-1.414459 -0.688085,-0.726954 -0.688857,-0.723892 -0.687403,-0.725358 -0.68987,-0.724398 -0.687528,-0.725289 -0.691607,-0.722067 -0.692083,-0.720052 0.02045,-1.413114 0.718412,-0.695831 0.7186,-0.694262 -0.694449,-0.718814 -0.693708,-0.719423 -0.69349,-0.717992 0.02897,-1.414577 0.723945,-0.690478 0.726025,-0.688924 0.04159,-1.408069 -0.687617,-0.725234 -0.690951,-0.721985 -0.720329,0.69437 -0.725792,0.689123 -0.723231,0.690338 -1.41477,-0.02337 -0.720149,0.691588 -0.03566,1.415089 -0.720825,0.692538 -0.724124,0.690939 -0.0316,1.416605 -0.725324,0.689373 -0.727133,0.68576 -0.731889,0.683215 -0.04741,1.413606 -0.733854,0.680741 -0.732741,0.677724 -0.05854,1.410288 -0.735086,0.676789 -0.734178,0.680336 -0.05814,1.414789 -0.73589,0.678934 -2.288779,3.428499 0.74286,-0.669773 0.738181,-0.672605 0.73849,-0.674997 0.738803,-0.671932 0.737608,-0.676761 0.739028,-0.673604 0.741019,-0.672554 0.740874,-0.669504 1.412364,0.06033 0.677303,0.737546 0.673406,0.737914 0.675516,0.741015 0.66995,0.741649 0.672981,0.742454 0.667044,0.746268 0.666548,0.74325 -0.08005,1.409633 -0.746814,0.667729 -0.743646,0.66786 0.668814,0.745943 -0.07498,1.41116 0.665747,0.745608 -0.07826,1.413705 0.660807,0.747304 0.665464,0.746719 0.667878,0.744696 0.669513,0.743632 0.671131,0.740606 0.675719,0.73717 0.676349,0.735645 0.676433,0.736477 0.672316,0.739958 0.671635,0.739812 0.670684,0.740025 0.672513,0.741921 0.670772,0.739451 0.67047,0.742993 0.672819,0.739219 0.671307,0.739386 0.67255,0.741579 0.668754,0.745558 1.411792,0.07693 0.663949,0.745304 0.666811,0.744732 0.667194,0.747536 0.667753,0.744519 0.663975,0.744368 0.665793,0.746614 0.668005,0.745794 0.663814,0.747014 -0.08089,1.414664 0.662016,0.747969 0.660685,0.750294 0.661606,0.750011 0.659492,0.750523 -0.09762,1.40996 0.660893,0.750906 0.660619,0.749456 -0.09004,1.410996 0.658495,0.74994 0.665329,0.745871 0.670189,0.743328 -0.07064,1.411508 -0.742312,0.673255 -0.734554,0.677005 -0.735756,0.67924 -0.733138,0.678166 -0.736539,0.678803 -0.734862,0.678837 -1.415416,-0.05751 -0.676891,-0.734991 -0.677403,-0.736417 -1.411959,-0.0592 -0.680448,-0.732271 -0.682926,-0.731147 -1.411293,-0.04909 -0.682825,-0.732225 -0.682114,-0.729556 -0.685926,-0.726408 -1.410598,-0.04428 -0.683925,-0.728675 -0.6882,-0.726787 -0.686033,-0.727538 -0.686327,-0.727532 -0.690547,-0.724275 -0.69242,-0.723088 -0.690032,-0.72492 -0.686994,-0.725122 -0.694084,-0.720989 -0.694724,-0.718291 -0.691471,-0.722928 -0.691738,-0.723232 -0.69703,-0.7194 -0.695762,-0.719719 -0.699768,-0.716355 -0.697614,-0.716144 -0.697144,-0.715139 -0.697063,-0.714123 -0.699248,-0.716141 -0.70014,-0.714215 -0.699063,-0.716332 -0.699607,-0.714181 -0.700029,-0.715171 -0.702651,-0.714326 -0.701172,-0.713115 -0.703659,-0.711016 -0.703765,-0.708023 -0.70603,-0.708967 -0.703337,-0.709345 -0.707409,-0.708214 -0.707714,-0.707656 -0.706388,-0.708005 -0.707198,-0.704692 -0.702832,-0.710078 -0.707478,-0.709173 0.0027,-1.414647 0.711845,-0.706714 0.708361,-0.704712 0.709444,-0.702807 0.0069,-1.416156 0.708602,-0.706831 -0.0086,-1.414569 -0.709259,-0.705435 -0.710983,-0.701699 -0.712341,-0.703226 -0.703988,0.711247 -0.702941,0.709589 -0.701631,0.712278 -0.696524,0.718325 -0.695286,0.71728 -1.413965,0.02676 -0.692771,0.724422 -0.693102,0.721446 -0.694902,0.723808 -0.696661,0.71598 -0.694398,0.719523 -1.414202,0.02301 -0.72046,-0.693722 -0.697059,0.716998 -0.695621,0.718503 -0.696085,0.718891 -0.695742,0.717324 -0.697693,0.716067 -0.697372,0.717219 -1.41441,0.02116 -0.71406,-0.700398 -1.41344,0.01799 -0.69934,0.714369 -0.69668,0.716766 -0.6987,0.716181 -0.69956,0.71177 0.0122,1.413796 0.71002,0.703779 1.41192,-0.0073 0.71239,0.701788 0.7007,-0.714475 0.69898,-0.715665 0.69087,-0.721872 0.69356,-0.720868 0.68939,-0.722338 0.694298,-0.720626 0.695982,-0.718161 0.696837,-0.716372 1.414816,-0.008 0.710731,0.701293 0.710263,0.703138 0.706649,0.707772 0.707615,0.707183 0.709086,0.704824 0.706,0.708244 0.706696,0.707436 -0.0077,1.413655 0.704628,0.713207 0.702964,0.710839 -0.0054,1.412731 -0.708612,0.707528 0.704342,0.710768 0.702967,0.709793 -0.0104,1.414142 0.703041,0.711911 -0.01289,1.413377 0.696012,0.717021 0.697375,0.715622 0.695813,0.716029 0.701178,0.716817 0.703673,0.712133 0.705605,0.709106 0.70519,0.708088 0.703075,0.710086 0.701004,0.712742 0.70041,0.711192 0.703528,0.710903 0.701345,0.712479 1.413204,0.01021 0.701991,0.710995 0.697452,0.716655 0.694724,0.719095 0.692119,0.722195 0.692318,0.722466 0.690821,0.723556 0.685109,0.727459 1.413527,0.04683 0.682938,0.732042 0.686468,0.728407 0.687659,0.725782 0.685735,0.72837 0.685378,0.726591 0.686503,0.726158 0.686192,0.727609 0.68586,0.726221 0.690687,0.72305 0.689652,0.724642 0.686796,0.723894 0.688129,0.725278 0.687683,0.728855 0.689033,0.7242 0.691065,0.723164 0.693624,0.723125 0.692401,0.722399 0.691862,0.721429 0.689708,0.723471 0.689926,0.72275 0.690785,0.724644 0.691553,0.72224 0.692229,0.720493 0.694103,0.719858 0.689228,0.724445 0.687003,0.725816 0.68736,0.727742 0.690194,0.722259 -0.04334,1.414875 -0.04009,1.413086 0.685707,0.726738 0.687565,0.729669 0.688619,0.725158 0.684987,0.728197 0.689209,0.722196 0.69073,0.722856 0.688841,0.724617 -0.04013,1.411418 0.692729,0.722343 -0.03164,1.41552 0.685666,0.726506 0.686114,0.727777 0.682901,0.73106 0.683517,0.730589 0.680372,0.732582 0.683335,0.731532 0.679982,0.73322 -0.05451,1.411185 0.679695,0.733556 0.676416,0.734887 -0.05984,1.41395 0.677361,0.732767 0.679735,0.732634 0.679278,0.734882 0.679132,0.733884 0.675129,0.735544 0.67556,0.737178 -0.06848,1.414892 0.673785,0.739357 0.673214,0.740206 0.676102,0.738764 0.67491,0.739713 0.673795,0.742356 0.672974,0.739941 0.670172,0.742747 0.672864,0.741372 0.670771,0.739801 0.670756,0.74136 0.670802,0.740901 0.669142,0.739044 1.412648,0.06758 0.674887,0.740145 1.41139,0.06639 0.673177,0.737524 0.678131,0.736837 0.677053,0.738637 0.67489,0.738141 0.673714,0.740112 0.672066,0.739439 0.673742,0.73772 1.412456,0.05863 0.675953,0.734128 0.672438,0.739358 0.676043,0.73368 0.675255,0.736585 0.675606,0.734674 1.410791,0.0569 0.677332,0.734457 0.67533,0.735927 0.675808,0.73766 0.672065,0.742347 1.41032,0.06549 0.675891,0.73727 1.411253,0.06247 0.739073,-0.674422 0.739361,-0.67442 1.410492,0.06784 1.411806,0.07147 0.739274,-0.671545 0.740966,-0.671685 0.743895,-0.66749 1.409855,0.07076 0.740676,-0.671471 0.736793,-0.676192 0.734617,-0.679442 1.411599,0.05389 1.411838,0.05678 0.733895,-0.679586 1.413085,0.05953 0.674041,0.7399 0.672658,0.738358 0.672071,0.740886 0.671234,0.73719 0.673575,0.736798 0.673554,0.738279 -0.066097,1.412616 0.674906,0.7374 0.673245,0.73883 0.674351,0.738493 0.675021,0.736373 0.735271,-0.681598 1.414896,0.05946 1.41353,0.05888 0.680345,0.733999 0.680188,0.732874 0.680187,0.732255 0.682481,0.729651 0.685713,0.727651 0.687276,0.725543 0.723261,-0.692767 1.414195,0.03049 0.720936,-0.690248 0.71795,-0.694689 0.722035,-0.692459 0.721499,-0.694136 0.724727,-0.689131 0.72216,-0.691038 0.0314,-1.413097 0.02504,-1.415441 0.03012,-1.413074 -0.694597,-0.720263 -0.69365,-0.719167 -0.693175,-0.719341 -0.697491,-0.716372 -0.70015,-0.712802 -0.701037,-0.71124 -0.700923,-0.71213 0.01116,-1.415177 -1.41165,-0.0083 -0.701018,-0.712181 -0.698264,-0.717841 -1.416071,-0.01567 -0.698325,-0.715872 -1.413234,-0.0186 -0.690834,-0.721746 -0.686001,-0.724285 -0.688795,-0.724242 -0.686662,-0.725794 -0.690937,-0.721602 -0.692595,-0.722645 0.02832,-1.414721 0.72116,-0.690889 0.721993,-0.689673 0.724847,-0.689311 0.02656,-1.414546 0.726024,-0.687522 0.724522,-0.689335 0.02996,-1.413395 0.719787,-0.692873 -0.690807,-0.721089 0.03234,-1.416149 0.722183,-0.692234 0.722861,-0.690104 -0.687903,-0.725682 -0.686379,-0.728159 0.04078,-1.411637 0.723829,-0.689538 -0.692639,-0.72201 -0.694945,-0.722668 0.02442,-1.414087 -0.694403,-0.720123 -0.696718,-0.717856 0.01272,-1.415506 L 11.857132,16.3868 11.15732,15.675841 10.456837,14.961459 10.471307,13.54808 9.771795,12.832465 9.078126,12.112469 8.38121,11.395687 7.679981,10.682259 7.698763,9.270204 6.997864,8.555798 6.298922,7.84106 5.601714,7.124878 4.903656,6.409212 4.206871,5.692788 3.509838,4.975033 2.810045,4.263165 2.10865,3.550169 1.405842,2.837251 0.705375,2.126808 0,1.416795 0,0"
         id="path5-8" />
    </g>
    <g
       transform="matrix(-0.4258993,-0.90477057,0.90477057,-0.4258993,354.99418,489.08896)"
       id="layer1-9">
      <path
         style="fill:none;stroke:#000000;stroke-width:1px;stroke-linecap:butt;stroke-linejoin:miter;stroke-opacity:1"
         d="m -32.346523,-29.534769 -0.982324,-0.113344 -0.988536,-0.114701 -1.000118,-0.10364 -1.003051,-0.04733 -1.018689,-0.0418 -0.998945,1.28e-4 -1.009953,-0.04587 -1.003407,-0.05164 -1.004485,-0.0428 -1.006441,-0.0295 -1.009743,-0.08176 -0.978786,-0.107775 -0.97446,-0.165956 -0.981958,-0.22413 -0.972771,-0.25315 -0.963954,-0.228511 -1.177604,0.774578 -0.977923,-0.261226 -1.246413,0.697078 -0.963673,-0.193292 -0.960952,-0.224204 -0.959991,-0.240251 -0.979846,-0.190632 -0.959526,-0.251512 -0.984497,-0.230229 -0.980647,-0.250983 -0.965068,-0.277059 -0.941557,-0.329517 -0.967176,-0.310593 -0.946392,-0.321915 -0.961507,-0.312394 -0.298638,0.947851 -1.259548,0.633131 -1.269984,0.612422 -0.274718,0.941912 -0.234162,0.975149 -1.219115,0.695149 -0.976062,-0.240663 -0.958249,-0.223987 -0.96909,-0.272362 -1.213518,0.736976 -0.981521,-0.206931 -0.965077,-0.220939 -0.974043,-0.184236 -0.978949,-0.172922 -0.989179,-0.204423 -0.971385,-0.166735 -0.983395,-0.11251 -0.992266,-0.08385 -1.010072,-0.09905 -1.002396,-0.09061 -0.990531,-0.0714 -1.005695,-0.01469 -1.016321,-0.03265 -0.984613,0.02664 -1.00146,0.04425 -1.010148,0.08145 -0.998571,0.06666 -1.073491,-0.925089 -1.007299,0.08005 -0.999977,0.103366 -0.989666,0.09696 -1.000283,0.115997 -0.999595,0.138393 -0.980905,0.152401 -0.993672,0.178696 -1.003915,0.161458 -0.991139,0.161286 -1.002793,0.170904 -0.978983,0.162982 -0.97147,0.229791 -0.96698,0.286606 -0.96561,0.268494 -0.95594,0.241787 -0.97443,0.190142 -0.96586,0.222965 -0.98033,0.216258 -0.97576,0.187282 -0.98369,0.228893 -0.99434,0.166307 -0.97888,0.190008 -0.95357,0.22358 -0.96293,0.275752 -0.9554,0.268178 -0.96846,0.275813 -0.93449,0.312205 -0.95918,0.296623 -0.9569,0.277896 -0.9623,0.307146 -0.95547,0.308167 -1.25474,-0.631977 -0.92942,0.310256 -0.97029,0.274003 -0.95128,0.29864 -0.94024,0.303294 -0.93381,0.346766 -0.94963,0.327086 -0.95497,0.311664 -1.28228,-0.652374 -0.3365,-0.936912 -0.30465,-0.946822 -0.94667,0.341832 -0.94956,0.345184 -0.92277,0.337913 -1.2635,-0.623163 -0.35725,-0.933396 -0.31717,-0.938456 -1.25144,-0.602472 -0.93615,0.328526 -0.95382,0.332186 0.34018,0.941414 0.33838,0.943179 0.34754,0.945847 -0.63786,1.270163 0.29544,0.949536 1.25716,0.660069 0.3318,0.966225 0.32378,0.962475 1.32134,0.584357 0.34322,0.939892 0.33995,0.935352 0.34356,0.935207 1.30849,0.523386 0.38337,0.92255 0.36338,0.935024 1.29021,0.542042 0.32173,0.93752 0.29485,0.967509 1.23131,0.68009 0.25227,0.96629 1.98946,3.557409 -0.24971,-0.970892 -0.25131,-0.958066 -0.24102,-0.992667 -0.22629,-0.979526 -0.2337,-0.971763 -0.25085,-0.978211 -0.28051,-0.963077 -0.29301,-0.94749 0.62087,-1.264326 0.95052,-0.320135 0.9552,-0.272413 0.97274,-0.247577 0.96907,-0.240697 1.00468,-0.184122 0.99254,-0.165325 0.99637,-0.180537 1.19593,0.775608 0.23687,0.978826 0.23758,0.975733 0.95612,-0.198947 1.12968,0.795176 0.96628,-0.19426 1.16688,0.823141 0.99456,-0.131526 0.99341,-0.180452 0.97739,-0.227145 0.97344,-0.187178 0.97696,-0.203649 0.97008,-0.218291 0.98491,-0.203266 0.95282,-0.264272 0.96389,-0.227992 0.9706,-0.273137 0.9565,-0.286137 0.94418,-0.300189 0.9476,-0.345287 0.94787,-0.342887 0.964296,-0.30544 0.965276,-0.271966 0.982242,-0.212211 0.966213,-0.255801 0.720973,-1.196335 0.967448,-0.247082 0.981932,-0.196514 0.976676,-0.153411 0.9917,-0.194192 0.990078,-0.240072 0.984967,-0.216977 0.991271,-0.190599 0.988583,-0.164038 1.147461,0.797906 0.983803,-0.164453 0.976693,-0.139506 0.993817,-0.09684 1.005795,-0.02245 1.027022,0.96548 0.988856,0.001 0.993682,0.01974 0.95743,1.052408 0.983235,0.07329 0.997166,0.03589 1.014129,0.04546 1.002737,1.011437 -0.06864,0.989307 -0.03542,0.9886 -0.04066,1.012154 0.02356,0.988126 0.01767,0.993139 0.09617,0.996366 -0.869875,1.085357 -0.991325,0.130083 -0.985071,0.142061 -0.844628,1.16039 -0.991166,0.114779 -0.975157,0.136272 -0.857894,1.120066 -1.001237,0.121154 -0.987195,0.112044 -1.023756,0.074371 -0.927636,1.070968 -1.005478,0.036464 -0.988934,-0.00516 -1.004238,0.018629 -1.008211,0.011694 -0.993879,-0.00472 -1.000718,0.00556 -1.000519,0.031326 -1.007539,0.109268 -0.989153,0.12528 -0.985081,0.127594 -0.998781,0.108061 -0.988624,0.13164 -0.99794,0.096743 -0.982953,0.074092 -0.994393,0.080045 -1.00765,-6.87e-4 -1.00491,-0.022158 -0.99144,-0.016231 -0.99844,0.041115 -0.98977,0.040376 -0.99374,-0.00981 -0.99616,-0.046662 -1.00012,-0.040038 -0.98721,-0.027165 -1.00322,-0.079714 -0.98293,-0.062176 -0.98486,-0.113352 -0.98953,-0.144713 -0.98478,-0.117255 -0.97592,-0.159769 -0.98621,-0.124408 -0.96937,-0.108834 -0.98384,-0.108507 -0.99199,-0.103434 -0.99378,-0.112691 -0.86995,-1.133929 0.11575,-1.002846 0.0696,-1.003373 0.0838,-0.988464 -0.90666,-1.069163 0.10753,-0.979141 -0.91183,-1.088864 -0.97999,-0.129883 -0.96257,-0.183532 -0.99374,-0.179638 -0.17546,0.984136 -0.15761,0.985941 -0.14533,0.983962 -0.12205,0.971607 -0.14751,0.980859 -1.12417,0.834783 -0.1679,0.988184 -0.19733,0.981591 -0.18289,0.9647 -0.18827,0.990945 -0.12944,0.976764 -1.14076,0.868576 -0.96733,-0.161424 -0.19735,0.97559 -0.21641,0.976178 -0.22272,0.969294 -0.19528,0.97933 -0.13173,0.99521 -0.0803,0.989311 -1.06422,0.942115 -0.99953,-0.081247 -1.08071,0.908875 -0.12562,0.978961 -0.13365,0.97903 -0.15242,0.991766 -0.15804,0.994763 0.87327,1.129668 0.98192,0.13777 1.18146,-0.7763 0.95882,0.268332 0.28938,-0.959342 0.2873,-0.955853 0.20301,-0.990701 0.17593,-0.988763 0.17163,-0.995931 0.24831,-0.970736 0.27455,-0.962642 0.27356,-0.97381 1.24373,-0.705383 0.95725,0.304737 0.96578,0.265464 0.96193,0.322042 0.94965,0.301392 0.95361,0.318434 0.96677,0.281058 0.97996,0.25801 0.78121,1.189647 0.98116,0.217594 0.95821,0.209018 0.73312,1.16101 -0.26815,0.962295 0.95595,0.266681 0.97119,0.259264 0.67671,1.224779 0.95182,0.287742 0.64561,1.279083 0.94682,0.29227 0.96419,0.266736 0.95473,0.245966 0.9428,0.28219 0.95988,0.269825 0.98198,0.279877 0.96516,0.303832 0.91684,0.340398 0.93167,0.337303 0.9262,0.350093 0.95156,0.324948 0.92175,0.362247 1.26436,-0.619299 0.94678,0.319629 0.941477,0.349541 0.912955,0.378096 0.895296,0.400755 0.924285,0.388588 0.92255,0.397464 0.940736,0.34133 1.275404,-0.656749 0.927562,0.359936 0.913322,0.364374 0.944142,0.337386 0.942371,0.310029 0.944379,0.354816 0.934933,0.40378 0.912687,0.440515 0.892361,0.45666 0.862012,0.499851 0.882921,0.494452 0.875164,0.482806 0.887006,0.449195 0.883675,0.438103 0.878558,0.446208 0.882529,0.433556 0.887168,0.432916 0.888562,0.441182 0.922837,0.405271 0.902883,0.417787 0.915039,0.442609 0.923875,0.405629 0.924473,0.347834 0.944206,0.344213 0.942704,0.331185 0.942869,0.31137 0.953791,0.315063 0.938459,0.295729 0.959546,0.279953 0.620082,1.299884 0.635171,1.280002 0.94928,0.330094 0.951993,0.301848 0.969474,0.322543 0.941849,0.300661 0.937152,0.336237 0.931764,0.369465 0.946855,0.345337 0.490981,1.277597 0.901089,0.422468 0.482667,1.356272 0.904919,0.413813 0.901328,0.423008 0.902352,0.447873 0.910608,0.411985 0.940747,0.410514 0.928681,0.400694 0.916625,0.39989 0.621513,1.301701 0.954005,0.2966 0.951272,0.279421 0.649816,1.259428 0.959267,0.313202 0.947107,0.351155 0.923962,0.339414 0.935714,0.369007 0.946251,0.346836 0.924876,0.359922 0.59747,1.308877 0.926634,0.346198 0.929717,0.336563 0.951777,0.326258 0.938552,0.345259 0.915186,0.41999 0.91396,0.42273 0.909003,0.417532 0.908965,0.409971 0.92587,0.406491 0.911924,0.430673 0.897202,0.449732 0.912136,0.435657 1.342239,-0.502197 0.917439,0.410154 1.345384,-0.451308 0.903616,0.467358 0.884664,0.450639 0.916209,0.429198 0.891356,0.461172 0.886707,0.479989 0.901398,0.464178 0.88949,0.472182 1.331931,-0.432769 0.887888,0.457587 0.848251,0.519385 0.838958,0.539355 0.814291,0.564345 0.806107,0.575945 1.399426,-0.173259 0.780937,0.63394 0.750261,0.651125 0.759241,0.640235 0.746693,0.658137 1.395678,-0.150828 0.787391,0.636879 1.394877,-0.181667 0.569752,-0.804941 0.565802,-0.801198 1.392959,-0.22239 1.395495,-0.214245 0.565754,-0.823029 0.553175,-0.845608 0.57646,-0.832719 1.383671,-0.261408 0.579565,-0.816565 0.562289,-0.810565 0.565412,-0.81001 1.404542,-0.182197 1.393149,-0.148832 0.630787,-0.794917 1.400953,-0.21502 0.770557,0.623636 0.745598,0.635391 0.772416,0.622109 0.784345,0.599261 0.774845,0.605055 0.776877,0.615696 0.138102,1.407988 0.758898,0.640866 0.747364,0.636556 0.778889,0.621136 0.771382,0.664875 0.659337,-0.756592 1.398499,-0.0768 1.422499,-0.04709 0.749276,0.669095 0.7639,0.648285 0.710102,0.69104 0.704602,0.715832 0.711678,0.715148 0.679915,0.742283 0.733778,-0.647646 1.427254,0.08091 0.765544,-0.636543 0.742412,-0.691041 0.696546,-0.710792 0.693157,-0.715294 0.698168,-0.734429 0.699575,-0.702776 -0.04037,-1.41354 -0.06806,-1.418655 0.04089,-1.410394 -0.688162,-0.716401 -0.7069,-0.721441 -0.678285,-0.731875 -0.693288,-0.700678 -0.685939,-0.715638 -0.696073,-0.71958 -0.707544,-0.722036 0.04047,-1.407687 -1.42558,-0.137822 L 20.935615,43.336967 20.327679,42.549229 18.922947,42.327805 18.35858,41.503133 16.957264,41.232132 16.35123,40.418708 15.759199,39.624754 15.145855,38.83451 14.4833,38.09284 l -0.668097,-0.769699 -0.654065,-0.748096 0.144181,-1.397749 0.776212,-0.626711 0.75068,-0.682355 0.720035,-0.692769 0.02431,-1.425346 0.733654,-0.662943 0.728207,-0.689628 -0.02395,-1.379603 0.727494,-0.698551 -0.659245,-0.756434 0.05618,-1.396601 0.69763,-0.69422 0.672703,-0.730576 -0.763002,-0.648343 -0.794365,-0.621991 -0.165786,-1.386346 0.595867,-0.807365 -0.79196,-0.596899 -0.80199,-0.603555 -0.174878,-1.424038 -0.773368,-0.630618 -0.763989,-0.608409 -0.129049,-1.416565 -0.780361,-0.63931 -0.760061,-0.649344 -0.76757,-0.631334 -0.152533,-1.418675 -0.752247,-0.649758 -0.743,-0.67655 L 9.249035,10.653644 8.452411,10.036373 8.278005,8.623926 7.507599,8.001524 6.71311,7.403908 5.931572,6.781333 5.150598,6.126897 4.399176,5.484319 3.657743,4.816718 2.935065,4.13534 2.180197,3.455097 1.43532,2.803406 0.709048,2.106053 0,1.407884 0,0"
         id="path2822-9" />
    </g>
    <g
       transform="matrix(-0.18306387,-0.98310102,0.98310102,-0.18306387,525.82217,457.95986)"
       id="layer1-2">
      <path
         style="fill:none;stroke:#000000;stroke-width:1px;stroke-linecap:butt;stroke-linejoin:miter;stroke-opacity:1"
         d="m -162.18659,-41.940752 0.81773,0.567358 0.80078,0.58918 0.76606,0.649858 0.83426,0.621257 0.69138,0.694466 0.66636,0.766706 0.70977,0.709989 0.6626,0.71394 0.73413,0.726286 0.76858,0.668253 0.85521,0.558552 0.91133,0.543706 0.88284,0.535159 0.92086,0.456649 0.88696,0.434801 0.94491,0.373103 1.22743,-0.605393 0.93196,0.384033 1.24463,-0.687686 0.99225,0.265374 0.88211,0.407117 0.92516,0.441602 0.88407,0.401925 0.91676,0.481534 0.89835,0.480781 0.94944,0.451578 0.87949,0.425956 0.95848,0.287056 0.96507,0.161364 0.95817,0.121948 0.99962,0.0766 0.0251,-0.984862 1.04915,-0.933228 1.09168,-0.846282 0.22095,-1.04668 0.18803,-0.994825 1.09912,-0.946944 1.00705,0.01351 1.00673,-0.0087 1.01881,0.0305 0.84045,-1.086549 1.0558,-0.03004 0.98431,-0.199694 0.98682,-0.106146 1.02238,-0.106442 1.00491,-0.14039 1.05172,-0.108693 0.96688,-0.0083 1.02384,0.02102 0.99792,0.01804 1.00982,-0.110143 0.98712,-0.219618 1.0334,-0.181185 1.02466,-0.01035 1.00716,0.05687 1.02573,0.128497 0.99339,0.07909 1.0142,0.128856 0.98145,1.033435 0.96478,0.182449 1.00097,0.01933 0.98821,0.102178 1.00073,-0.04964 0.9915,-0.0607 0.95674,0.01511 0.97028,0.01258 0.97348,-0.06791 1.01738,0.05519 0.982138,0.08772 1.007775,0.08327 1.002022,0.118894 1.036929,0.176491 0.989556,0.255176 0.981166,0.251846 0.997822,0.319624 0.912234,0.509624 0.900664,0.4305 0.933522,0.364935 0.946441,0.399076 0.96008,0.423258 0.903109,0.472499 0.861833,0.588561 0.850145,0.524654 0.788774,0.59958 0.693907,0.742876 0.69987,0.734646 0.643523,0.744992 0.681021,0.686344 0.790088,0.638289 0.789629,0.567085 0.15101,1.449408 0.771531,0.611694 0.754056,0.695523 0.688399,0.696314 0.644009,0.729391 0.704205,0.776887 0.775413,0.603911 0.83196,0.688809 0.146502,1.434091 -0.580286,0.783102 -0.746661,0.656739 0.662446,0.732305 0.616479,0.831563 0.764058,0.719121 -0.02058,1.33742 -0.693706,0.701329 -0.796408,0.634028 -0.14976,1.454624 0.660897,0.676543 0.664103,0.683487 0.759196,-0.733484 0.778293,-0.616188 0.820358,-0.443893 1.285884,0.517365 0.889443,-0.47164 0.500088,-1.309372 0.874837,-0.409443 0.950522,-0.381429 0.650678,-1.231632 0.974688,-0.286053 0.817035,-0.537046 0.862876,-0.545091 0.380652,-1.353978 0.839344,-0.515365 0.790725,-0.574601 0.08811,-1.454108 0.890851,-0.55315 0.843782,-0.550244 0.228253,-1.324323 0.811676,-0.698427 2.596882,-3.300783 -0.690569,0.691609 -0.835825,0.585747 -0.874737,0.517768 -0.781281,0.648278 -0.69243,0.743809 -0.510079,0.835636 -0.333412,0.917906 -0.398108,0.948842 -1.22576,0.430142 -0.887918,-0.476442 -0.871649,-0.470806 -0.914448,-0.442123 -0.900093,-0.373109 -0.966666,-0.28513 -1.041603,-0.182996 -0.981678,-0.29079 -0.637695,-1.314266 0.256708,-0.982427 0.365171,-1.003271 -0.887443,-0.435579 -0.487185,-1.322743 -0.894525,-0.423453 -0.268068,-1.446795 -0.814115,-0.534653 -0.844445,-0.582794 -0.845371,-0.423352 -0.89568,-0.439607 -0.782574,-0.613857 -0.756991,-0.573982 -0.818394,-0.644739 -0.781091,-0.642221 -0.779003,-0.662155 -0.631621,-0.837855 -0.556417,-0.839664 -0.483239,-0.869718 -0.430702,-0.895454 -0.337569,-0.870637 -0.09596,-1.016958 -0.115722,-1.023293 0.0718,-1.016001 0.08814,-0.951116 -0.885716,-1.160936 0.130365,-0.994218 0.166222,-1.017293 0.174535,-0.981657 0.160516,-0.966679 -0.05386,-1.014667 -0.103645,-0.975412 -0.08436,-0.940929 -0.155076,-0.980597 0.68284,-1.227501 -0.356949,-0.882314 -0.401916,-0.926599 -0.377968,-0.892154 -0.309172,-0.95112 0.527506,-1.245724 -0.347869,-0.945381 -0.360076,-0.971139 0.474184,-1.351207 -0.362841,-0.913144 -0.389823,-0.905506 -0.459609,-0.957311 0.471808,-1.345426 0.966084,-0.376185 0.88576,-0.447634 0.803735,-0.639827 0.65767,-0.779758 0.557687,-0.793403 0.474105,-0.829555 1.394629,-0.340611 0.78142,0.512763 0.695969,0.649568 1.406294,-0.07964 0.685866,0.734434 0.550462,0.861757 1.406488,0.233506 0.531143,0.819823 0.458726,0.895455 0.389086,0.85091 1.312046,0.541782 0.453918,0.99168 0.483511,0.882567 0.392428,0.935415 0.246086,0.973988 0.110341,1.001385 0.117558,0.950535 0.173658,0.973508 0.135892,0.998479 -0.09347,1.03714 -0.148204,0.991831 -0.289953,0.964899 -0.228319,1.003915 -0.447382,0.890494 -0.391624,0.909115 -0.469785,0.91234 -0.538833,0.828058 -0.62817,0.726041 -0.672748,0.708877 -0.666403,0.728756 -0.74494,0.692737 -0.711179,0.766544 -0.575007,0.773701 -0.569951,0.747844 -0.63491,0.741394 -0.691308,0.719234 -0.62105,0.744414 -0.612422,0.81102 -0.52529,0.894048 -0.454272,0.858485 -0.55182,0.869511 -0.623471,0.751971 -0.719713,0.667818 -0.657939,0.751292 -0.711599,0.718016 -0.685002,0.679193 -1.487313,-0.0059 -0.591919,-0.796531 -0.703023,-0.775166 -0.782247,-0.731288 -1.358674,-0.05294 -0.651604,-0.732563 -1.429294,0.03662 -0.579767,0.824809 -0.600194,0.723286 -0.688121,0.701465 0.80025,0.565012 0.80095,0.65099 0.804416,0.612241 0.774266,0.658231 0.802688,0.622189 0.304462,1.44991 0.796375,0.588186 0.889527,0.515754 0.854641,0.548281 0.815594,0.606813 0.83946,0.569796 0.364154,1.365815 -0.604853,0.793955 0.792285,0.618441 0.682771,0.649392 0.627278,0.774746 0.657527,0.715305 0.550875,0.783952 0.650591,0.751298 -0.0894,1.353256 -0.704638,0.672409 -0.04816,1.452733 0.809205,0.602656 0.867079,0.555891 0.793953,0.560552 0.819125,0.579903 1.371901,0.06364 0.736185,-0.650058 -0.22745,-1.418314 0.656382,-0.755158 -0.719151,-0.688853 -0.625597,-0.778537 -0.626083,-0.786802 -0.573391,-0.757593 -0.518087,-0.85758 -0.510978,-0.843208 -0.400786,-0.933731 -0.384141,-1.007189 0.620438,-1.261074 0.937147,-0.464646 0.95197,-0.402346 0.796146,-0.511522 0.873382,-0.487326 0.837943,-0.510342 0.892784,-0.46077 0.88,-0.381033 1.258592,0.488499 0.895054,-0.406932 0.938187,-0.455055 1.327962,0.709031 0.383425,0.912654 0.923722,-0.411885 0.943924,-0.375925 1.3441,0.260088 0.820209,-0.611008 1.356427,0.610935 0.854219,-0.511323 0.836944,-0.539093 0.871457,-0.51259 0.937989,-0.484796 0.968913,-0.370668 0.973847,-0.228981 0.966818,-0.134798 0.996642,-0.105575 0.929114,-0.06387 1.027672,-0.106958 0.99118,-0.237623 0.92386,-0.128007 0.94694,-1.013724 1.04275,-0.02487 1.000072,-0.01779 0.986887,0.04645 0.977648,0.0134 0.986413,0.14532 0.970001,0.153849 0.944019,0.07434 1.081876,-0.839899 0.955038,0.133455 1.011359,0.200735 1.022437,0.17272 0.963418,0.202259 0.958651,0.219891 0.94991,0.313447 0.945305,0.289833 0.911785,0.379497 0.869152,0.476664 0.839851,0.487777 0.842437,0.505386 0.801657,0.539543 0.795747,0.598365 0.865753,0.602288 0.740992,0.685005 0.822419,0.628147 0.798839,0.616144 0.814037,0.562537 0.838438,0.527514 0.81052,0.539762 0.789003,0.623311 0.833312,0.597657 0.734772,0.637737 0.612344,0.776218 0.689132,0.683675 0.789816,0.717196 0.774463,0.632737 0.730088,0.718767 -0.05282,1.38443 -0.02694,1.436852 0.730353,0.679632 0.796639,0.650843 0.804216,0.584576 0.825663,0.488537 0.774454,0.608838 0.756923,0.661061 0.72454,0.68288 -0.0409,1.372364 0.693764,0.769772 -0.208279,1.429456 0.612512,0.815339 0.686,0.762387 0.633603,0.720712 0.560599,0.7743 0.503344,0.881196 0.520898,0.869684 0.620556,0.781801 -0.197668,1.358193 0.59244,0.83456 0.577519,0.785494 -0.201315,1.283313 0.590029,0.762483 0.56693,0.825258 0.455431,0.929889 0.339141,0.939046 0.129783,0.971458 0.095049,0.972813 -0.968176,0.981862 0.167099,0.971695 0.02337,0.983139 0.101725,1.054232 0.075469,0.992997 0.068243,1.01154 0.182144,0.97525 0.117826,0.960183 0.117047,1.022918 0.049126,1.023952 0.156564,0.983823 0.127495,0.957726 0.154376,0.98721 1.09855,0.847465 -0.091242,0.988023 0.97261,1.015864 -0.085455,1.036425 -4.82e-4,1.09762 -0.155159,1.022215 -0.028552,1.034148 0.067259,1.038329 0.24568,0.921403 0.238031,1.052705 1.265805,0.607959 0.316539,0.98678 0.469894,0.817266 0.519061,0.779979 0.630381,0.805568 0.684809,0.735961 1.409588,0.0481 0.738925,0.627361 0.722486,0.662807 0.615392,0.809047 0.549189,0.800336 1.422687,0.05216 0.690615,0.733134 1.461579,0.20695 0.811211,-0.574766 0.731018,-0.618788 1.387461,0.123453 1.410293,0.187433 0.779612,-0.682455 0.731704,-0.693279 0.816852,-0.583018 1.468012,0.281754 0.895191,-0.43683 0.943821,-0.51336 0.886455,-0.454451 1.349604,0.291049 1.406198,0.260689 0.809633,-0.653536 1.328062,0.375983 0.573392,0.756079 0.643446,0.755327 0.670753,0.770889 0.738255,0.707106 0.768444,0.555863 0.854985,0.49005 0.344583,1.369953 0.867213,0.523129 0.901646,0.446309 0.907408,0.387146 0.994822,0.25722 0.419946,-0.909413 1.359957,-0.489038 1.287005,-0.44225 0.898038,0.422823 0.775396,0.612687 0.843879,0.597473 0.714217,0.712833 0.711087,0.779805 0.698267,0.654205 0.710186,-0.722674 1.455952,-0.235685 0.682518,-0.706086 0.741142,-0.686216 0.825164,-0.51664 0.858389,-0.52189 0.877345,-0.504044 0.86412,-0.574408 -0.09291,-1.381113 -0.260018,-1.37196 -0.198465,-1.380398 -0.796803,-0.61503 -0.70852,-0.767997 -0.824991,-0.564056 -0.901896,-0.584974 -0.842467,-0.504725 -0.829948,-0.569647 -0.881377,-0.55458 -0.439834,-1.336501 -1.283289,0.572042 -0.868571,-0.535894 -0.834262,-0.460677 -1.372674,0.328254 -0.868719,-0.537848 -1.336107,0.432797 -0.917186,-0.468886 -0.913629,-0.400347 -0.928028,-0.353581 -0.927929,-0.293579 -0.976774,-0.207358 -0.952384,-0.219448 -0.88198,-1.152272 0.08981,-0.953017 0.03456,-1.008894 0.02664,-0.955129 -0.890172,-1.11164 0.110971,-1.064104 0.04795,-1.019445 -0.738267,-1.25164 0.339091,-0.937186 -0.944682,-0.335692 -0.546359,-1.268082 0.433974,-0.867517 0.39346,-0.896897 L 24.940556,14.846696 24.01015,14.468027 23.360318,13.17631 23.685196,12.260182 22.722337,12.130444 21.76449,12.031154 20.8389,10.90668 19.883895,10.84686 18.886162,10.770429 18.019532,9.674338 17.008316,9.568015 16.056609,9.294742 15.069726,9.213723 14.346604,7.954718 13.451913,7.773065 12.473717,7.527934 11.526378,7.207875 10.605525,6.922335 9.806411,5.76525 8.833156,5.496921 7.916033,5.216213 6.994903,4.979362 5.996646,4.791471 5.042234,4.592643 4.102233,4.300527 3.250484,3.843172 2.38287,3.327159 1.561728,2.805002 0.808314,2.131493 0,1.453353 0,0"
         id="path2835-3" />
    </g>
    <path
       style="fill:none;stroke:#000000;stroke-width:1px;stroke-linecap:butt;stroke-linejoin:miter;stroke-opacity:1"
       d="m 660.09054,522.58469 0.96832,0.46959 0.74564,0.8519 0.6823,1.04601 0.89765,0.83042 0.71424,0.62189 0.33484,0.84193 0.0252,0.82754 -0.24835,0.90253 -0.21247,1.09251 -0.0642,1.04085 -0.39868,1.02099 -0.33898,1.10125 -0.41372,0.91605 -0.5401,0.81619 -0.78845,0.74033 -1.09608,0.51347 0.14596,1.31613 -0.78426,0.75158 -1.34434,0.17819 -0.75186,-0.66443 -0.86851,-0.62523 -0.61211,-0.83433 -0.81244,-0.69491 -0.91947,-0.57437 -0.7721,-0.42051 -0.86475,-0.39085 -0.84885,-0.49547 -0.52156,-0.85251 -0.42525,-0.68074 -0.082,-0.91055 0.0684,-1.10937 -0.91466,0.1381 -1.39979,-0.61929 -0.97178,-0.65743 -0.93028,0.24014 -0.74089,0.44374 -1.27896,0.30489 -0.9651,-0.5703 -0.68734,-0.78681 -0.34633,-1.04791 -1.38914,-0.62666 -0.15342,-1.06572 -0.34879,-0.96061 -0.29783,-0.94216 -0.45284,-0.95525 0.15735,-0.89862 0.80696,-0.74348 0.9551,-0.68441 0.88992,-0.25706 1.09616,0.0971 0.7773,0.49137 0.88386,0.79497 0.3822,0.74571 0.63427,0.68338 0.98374,0.15258 0.95153,0.11705 0.91905,0.33213 0.9526,0.3952 0.29816,1.35809 0.70219,0.52524 0.98711,0.60063 0.83637,0.49143 0.80246,0.56806 0.77182,0.59993 0.61456,0.72273 0.70092,0.8071 0.52743,1.05385 0.71974,0.4954 0.66723,0.61344 0.56134,0.61165 0.85685,0.28207 1.05984,0.2703 0.94873,0.18361 1.22022,0.0604 1.12596,-0.0325 0.98841,0.17737 1.03447,0.21784 0.98785,0.0374 0.83246,-0.20862 1.1688,-0.0913 1.11907,-0.0269 1.01969,-0.2657 0.84153,-0.62809 0.84264,-0.35135 0.96975,-0.27153 0.84555,-0.46681 1.02216,-0.50818 0.99369,-0.32647 0.9191,-0.35257 1.09859,-0.14276 0.33283,1.597 0.96228,0.35873 0.86298,0.57199 0.81147,0.0923 1.04087,-0.009 1.04156,-0.3476 1.0799,0.15163 0.9512,0.0876 -0.0739,1.29076 -0.92194,0.41835 -1.02412,0.23556 0.3488,0.79984 0.42451,0.87631 0.73191,0.7254 -0.31412,1.22682 -0.63208,0.74963 -1.0016,0.4364 -0.49349,1.2779 0.64313,0.82793 0.44668,0.76162 0.77402,-0.68756 0.61643,-0.86049 0.36666,-0.78702 1.39579,-0.452 0.45103,-0.74207 0.33171,-1.09177 0.81319,-0.37132 1.01867,-0.35227 0.25654,-1.61166 0.92626,-0.36071 1.08878,-0.33329 0.86755,-0.35123 -0.22166,-1.45928 0.28772,-0.98521 0.33062,-0.88782 -0.16456,-1.53978 0.71987,-0.74759 0.9126,-0.64719 0.003,-1.44218 0.7848,-0.78636 2.6183,-3.45561 -0.81594,0.73337 -0.78596,0.84817 -0.41371,1.01472 -0.26561,1.00754 -0.72745,0.74892 -0.73598,0.6324 -0.55058,0.88247 -0.50192,0.73637 -1.36921,0.0231 -0.91986,-0.49 -0.7114,-0.66885 -0.41702,-0.82304 -0.76655,-0.55559 -0.40816,-1.03155 -0.26257,-0.69551 -0.64941,-0.67889 -0.589,-1.21759 0.55491,-0.82935 0.52136,-0.93088 -0.87995,-0.12338 -0.82626,-1.07959 -0.94882,0.21218 -1.19493,-0.85219 -0.93431,-0.0194 -1.0632,-0.38287 -0.92518,-0.33457 -1.16249,-0.26664 -0.87243,-0.0663 -0.84071,-0.40294 -0.92041,-0.51782 -0.84192,0.0244 -1.00804,0.39499 -0.9121,0.22997 -1.01078,0.0938 -1.02908,0.14307 -1.01658,-0.36019 -0.97958,-0.12358 -0.91117,-0.38379 -1.01611,-0.0779 -1.2437,-0.026 -1.19803,-0.0493 -1.40148,0.40073 -0.88491,-0.3488 -0.70005,-0.72867 -0.91795,-0.41033 -0.99142,-0.51746 -0.83974,-0.55505 -0.79505,-0.61897 -0.56697,-0.78671 -0.68087,-0.65377 0.31639,-1.34813 -0.60179,-0.79637 -0.55171,-0.94751 -0.35892,-1.11528 -0.0215,-1.00189 0.94516,-0.87842 0.21174,-1.10062 0.20398,-1.08499 1.40744,-0.0739 0.30414,-0.99491 -0.0325,-0.86511 -0.22438,-0.81065 0.29664,-1.35095 1.15954,0.001 1.03703,0.0579 1.0965,0.20491 0.69807,0.54849 0.89862,0.40134 0.78501,0.4669 0.17446,1.26199 -0.79032,0.85564 -0.89653,0.52126 -0.31924,1.15181 -1.01538,0.33103 -1.03759,-0.46997 -1.42497,-0.0372 -0.15795,-1.00647 -0.21875,-1.06923 -0.30389,-0.76391 -1.41141,-0.60757 -0.28368,-0.8931 -0.32736,-0.78374 -0.57533,-0.71563 -0.59539,-0.78291 -0.30127,-0.85221 -0.47773,-0.87076 -0.74708,-0.74439 -0.70168,-0.76444 -0.30753,-0.94627 -0.43258,-0.87195 -0.39744,-1.02443 -0.2261,-0.93049 0.1014,-0.89504 -0.10397,-0.82161 -0.54517,-0.9544 -0.55784,-1.05379 -0.0103,-0.88177 0.20096,-1.16933 0.015,-0.99635 0.13801,-1.03823 -0.0127,-0.98842 -0.43125,-0.8404 -0.18109,-0.84613 -0.33316,-1.11519 -0.49091,-0.85539 -0.68969,-0.64342 -0.59631,-0.88477 -0.68839,-0.73643 -0.71627,-0.82564 -0.8639,-0.80595 -0.61136,-0.62198 -0.614,-0.90667 -0.67088,-0.66069 -0.8079,-0.6879 -0.43862,-0.79699 0.94716,-1.18457 1.1304,-0.0332 0.82184,-0.10048 0.95743,-0.36876 0.18679,-1.42807 0.80405,-0.74974 0.46486,-1.45301 -0.55505,-0.73391 -0.51018,-0.74312 -0.22505,-0.92821 -1.05778,0.31447 -1.02863,0.40022 -0.95414,0.23754 -0.87079,0.50211 -0.5864,0.80201 -1.06206,0.42899 -0.12616,0.71296 0.26131,0.96676 0.57647,0.88647 0.60107,0.97689 0.39373,0.82765 -0.50642,0.96868 -1.11539,0.3358 0.26355,0.93934 -0.18259,0.97432 -0.53576,0.68168 -0.73998,0.65824 -0.92586,0.69043 -0.44834,0.88215 -1.2625,0.52777 -0.91137,-0.61388 -1.31374,0.33141 -0.75047,0.42781 -0.92175,0.30908 -0.81383,0.50792 -0.94166,0.20286 0.008,1.44988 0.66808,0.70045 1.38579,-0.18538 0.82659,0.43593 0.5393,-0.71894 0.86393,-0.62746 0.90191,-0.6483 0.96238,-0.49484 1.10307,-0.21896 1.177,0.054 1.02098,-0.0397 0.99438,-0.0135 1.13241,0.81852 -0.20865,0.94073 -0.26809,0.94931 -0.47847,0.93947 -0.53919,1.00086 -0.53573,0.8783 -0.46279,0.88684 -0.15638,0.8343 -1.45429,0.39263 -0.79811,0.84192 -0.65645,0.87148 -0.93289,1.00773 -0.96036,0.23973 0.42565,0.97608 -0.0517,0.80652 -1.32105,0.8162 0.0522,0.79642 -0.82061,0.91791 0.36252,0.93542 0.53105,0.90693 0.40745,0.90593 -0.19757,1.08504 -0.4002,1.05882 -0.59114,0.82874 -0.39288,0.72492 -0.33287,1.04023 -0.58349,0.86081 0.10345,1.06899 0.39273,0.80125 -0.62905,0.76052 0.0838,1.55803 -0.38006,0.83279 -0.32016,0.80005 -0.32711,0.85798 0.0432,0.89601 -0.0272,1.13918 0.34785,1.03417 0.17854,0.91026 1.01245,0.9561 -0.46468,0.95866 -0.17746,0.83561 -0.15822,1.20708 -0.49109,0.71716 -0.3894,0.86896 -0.69291,0.55197 -0.94307,0.42936 -0.47127,0.7448 -0.65388,0.78983 -0.97351,0.34543 -0.8431,0.62895 -0.72088,0.68209 -0.38793,0.88349 -0.53457,0.99704 -0.93281,0.63027 -0.8758,0.31446 -0.86015,0.65106 -0.39481,0.60807 -0.63694,0.65548 -0.90176,0.63665 -0.76363,0.87249 -0.29141,0.8471 -0.69947,0.8904 -0.75779,0.80965 -0.70292,0.71893 -0.2453,1.08681 -0.0375,0.98282 0.54303,0.91717 0.13445,1.1796 -0.14675,1.86381 0.54165,0.79592 0.16242,0.90568 -0.16082,0.96699 -0.38655,0.92796 -0.68689,0.91178 -0.51239,0.73441 -0.0914,1.16895 -0.97344,0.83368 0.35685,1.01808 -0.72178,1.25354 -0.0934,1.05587 -0.13394,0.92883 -0.37367,0.78016 -0.30986,0.77816 -0.67541,0.86177 -1.10824,0.30232 -0.95569,0.41793 -1.52954,0.21097 -0.29821,0.8924 -0.38217,1.03467 -0.86972,1.20746 -0.14472,0.9074 -0.0764,0.90807 -0.0838,0.90208 -0.19709,0.98921 0.0641,1.07072 0.28212,0.97515 -0.91262,1.30528 0.44415,0.83849 -0.006,1.04911 -0.13227,0.87405 0.19156,0.94692 -0.044,1.04717 -0.19965,0.89952 -0.6026,0.70827 -0.62428,0.73114 -0.60243,0.85865 0.009,1.13929 0.0863,1.12829 -0.0136,1.03034 1.57976,0.61352 -0.22825,0.84563 0.23677,1.28047 -0.22702,0.89502 -0.48724,0.9424 -0.32569,0.8747 0.25058,1.13507 -0.25497,0.79955 -0.62569,0.91725 -0.37514,0.79761 1.05005,0.69628 0.75166,0.76407 0.37011,0.86194 0.58345,0.84176 0.0139,1.181 -0.22798,0.96999 0.82772,0.75384 0.26118,0.84219 0.19324,0.94479 0.26452,1.18882 -0.42264,0.81464 0.39728,1.14538 -0.72348,0.5658 -0.07,1.42533 0.45976,0.83397 0.40547,1.1101 -0.31099,1.32657 -0.16542,1.55861 0.47944,0.6138 0.68131,0.65887 0.30002,1.00032 -0.04,1.2524 0.88707,0.64392 0.82277,0.41059 0.87819,0.64008 0.36516,1.43175 1.09789,0.9961 1.03145,0.0857 1.14534,0.92406 0.1072,1.10579 0.18899,0.83955 -0.0688,0.99415 -0.34975,0.98144 -0.26016,0.86949 -0.048,1.03165 -1.01542,0.92716 -0.36951,0.9111 -0.0221,1.03293 0.45094,1.03299 0.54199,0.66166 0.75509,-0.45773 1.33633,0.46464 1.09057,0.24238 0.78967,0.75046 0.90431,0.55613 0.64259,0.95095 0.75134,0.61313 0.79355,0.62172 0.64505,0.73816 0.85694,-0.56619 1.28735,0.27786 0.87475,-0.51601 0.62883,-0.88859 0.49994,-0.75706 0.0543,-1.09088 0.13835,-1.04776 0.52042,-0.69372 0.0789,-1.51303 -0.71046,-1.05678 -0.0665,-1.37211 -0.51705,-0.79821 0.0711,-0.92817 0.18111,-0.92872 -0.14523,-0.83308 -0.004,-1.04229 0.13316,-0.99372 0.25065,-0.97081 1.02456,-0.65393 -0.69708,-1.15041 -0.0154,-0.96682 -0.31927,-0.82592 -1.31937,-0.87157 -0.0916,-0.85522 -1.19354,-0.9987 -0.1502,-1.07872 -0.0827,-0.83871 0.34834,-0.98171 0.39423,-0.97496 0.35485,-0.79825 0.58819,-0.79169 1.57641,-0.35885 1.10778,0.43004 0.89613,0.065 0.82493,0.42253 0.8801,-0.73305 0.9814,0.14006 0.71133,0.51515 1.50841,0.13009 1.22297,0.29186 0.0211,-0.98815 1.78416,0.079 0.68004,0.62189 0.78392,0.62434 0.44178,-0.97606 0.60864,-0.75261 1.41596,0.46077 0.0876,0.9145 1.02087,-0.32909 0.92678,-0.23808 1.20881,0.37778 0.79145,-0.48621 0.97363,-0.219 0.82777,1.32696 0.93092,0.0983 1.0368,0.10258 0.70903,0.6215 0.0124,1.44457 0.51766,0.61519 0.81399,0.48697 0.8572,0.67106 0.58409,0.64926 -0.60245,1.0038 0.26769,0.93007 -0.37149,0.87287 0.30461,0.98403 -0.26769,1.01935 0.008,0.92952 -0.23249,0.89249 -0.50748,0.73517 -0.97017,0.35323 -0.9503,0.29523 -0.47772,0.39058 -0.5273,0.84502 -0.91997,0.91998"
       id="path2848" />
    <g
       transform="matrix(-0.72182501,-0.69207562,0.69207562,-0.72182501,85.102158,520.19088)"
       id="layer1-5-9">
      <path
         style="fill:none;stroke:#000000;stroke-width:1px;stroke-linecap:butt;stroke-linejoin:miter;stroke-opacity:1"
         d="m -0.707107,-0.707107 -0.707107,-0.707107 -0.707106,-0.707106 -0.707107,-0.707107 -0.707107,-0.707107 -0.707107,-0.707107 -0.707106,-0.707106 -0.707107,-0.707107 -0.707107,-0.707107 -0.707107,-0.707107 -0.707107,-0.707107 -0.707106,-0.707106 -0.707107,-0.707107 -0.707107,-0.707107 -0.707107,-0.707107 -0.707106,-0.707106 -0.707107,-0.707107 -1.414214,0 -0.707107,-0.707107 -1.414213,0 -0.707107,-0.707107 -0.707107,-0.707107 -0.707107,-0.707106 -0.707106,-0.707107 -0.707107,-0.707107 -0.707107,-0.707107 -0.707107,-0.707107 -0.707106,-0.707106 -0.707107,-0.707107 -0.707107,-0.707107 -0.707107,-0.707107 -0.707107,-0.707106 -0.707106,0.707106 -1.414214,0 -1.414213,0 -0.707107,0.707107 -0.707107,0.707107 -1.414214,0 -0.707106,-0.707107 -0.707107,-0.707107 -0.707107,-0.707106 -1.414213,0 -0.707107,-0.707107 -0.707107,-0.707107 -0.707107,-0.707107 -0.707107,-0.707107 -0.707106,-0.707106 -0.707107,-0.707107 -0.707107,-0.707107 -0.707107,-0.707107 -0.707107,-0.707106 -0.707106,-0.707107 -0.707107,-0.707107 -0.707107,-0.707107 -0.707107,-0.707107 -0.707106,-0.707106 -0.707107,-0.707107 -0.707107,-0.707107 -0.707107,-0.707107 0,-1.414213 -0.707107,-0.707107 -0.707106,-0.707107 -0.707107,-0.707107 -0.707107,-0.707106 -0.707107,-0.707107 -0.707106,-0.707107 -0.707107,-0.707107 -0.707107,-0.707107 -0.707107,-0.707106 -0.707107,-0.707107 -0.707106,-0.707107 -0.707107,-0.707107 -0.707107,-0.707106 -0.707107,-0.707107 -0.707106,-0.707107 -0.707107,-0.707107 -0.707107,-0.707107 -0.707107,-0.707106 -0.707107,-0.707107 -0.707106,-0.707107 -0.707107,-0.707107 -0.707107,-0.707106 -0.707107,-0.707107 -0.707107,-0.707107 -0.707106,-0.707107 -0.707107,-0.707107 -0.707107,-0.707106 -0.707107,-0.707107 -0.707106,-0.707107 -0.707107,-0.707107 -0.707107,-0.707106 0,-1.414214 -0.707107,-0.707107 -0.707107,-0.707107 -0.707106,-0.707106 -0.707107,-0.707107 -0.707107,-0.707107 -0.707107,-0.707107 -0.707106,-0.707107 0,-1.414213 0.707106,-0.707107 0.707107,-0.707107 -0.707107,-0.707106 -0.707106,-0.707107 -0.707107,-0.707107 0,-1.414214 0.707107,-0.707106 0.707106,-0.707107 0,-1.414214 -0.707106,-0.707106 -0.707107,-0.707107 -0.707107,0.707107 -0.707107,0.707106 -0.707107,0.707107 -1.414213,0 -0.707107,0.707107 0,1.414213 -0.707107,0.707107 -0.707106,0.707107 0,1.414214 -0.707107,0.707106 -0.707107,0.707107 -0.707107,0.707107 0,1.414213 -0.707107,0.707107 -0.707106,0.707107 0,1.414214 -0.707107,0.707106 -0.707107,0.707107 0,1.414214 -0.707107,0.707107 -2.12132,3.535533 0.707107,-0.707106 0.707106,-0.707107 0.707107,-0.707107 0.707107,-0.707107 0.707107,-0.707106 0.707107,-0.707107 0.707106,-0.707107 0.707107,-0.707107 1.414214,0 0.707107,0.707107 0.707106,0.707107 0.707107,0.707107 0.707107,0.707106 0.707107,0.707107 0.707106,0.707107 0.707107,0.707107 0,1.414213 -0.707107,0.707107 -0.707106,0.707107 0.707106,0.707107 0,1.414213 0.707107,0.707107 0,1.414213 0.707107,0.707107 0.707107,0.707107 0.707107,0.707107 0.707106,0.707107 0.707107,0.707106 0.707107,0.707107 0.707107,0.707107 0.707106,0.707107 0.707107,0.707106 0.707107,0.707107 0.707107,0.707107 0.707107,0.707107 0.707106,0.707107 0.707107,0.707106 0.707107,0.707107 0.707107,0.707107 0.707106,0.707107 0.707107,0.707107 1.414214,0 0.707107,0.707106 0.707106,0.707107 0.707107,0.707107 0.707107,0.707107 0.707107,0.707106 0.707107,0.707107 0.707106,0.707107 0.707107,0.707107 0,1.414213 0.707107,0.707107 0.707107,0.707107 0.707106,0.707107 0.707107,0.707106 0,1.414214 0.707107,0.707107 0.707107,0.707107 0,1.414213 0.707107,0.707107 0.707106,0.707107 0.707107,0.707106 0,1.414214 -0.707107,0.707107 -0.707106,0.707107 -0.707107,0.707106 -0.707107,0.707107 -0.707107,0.707107 -0.707107,0.707107 -1.414213,0 -0.707107,-0.707107 -0.707107,-0.707107 -1.414213,0 -0.707107,-0.707107 -0.707107,-0.707106 -1.414213,0 -0.707107,-0.707107 -0.707107,-0.707107 -0.707107,-0.707107 -1.414213,0 -0.707107,-0.707107 -0.707107,-0.707106 -0.707107,-0.707107 -0.707106,-0.707107 -0.707107,-0.707107 -0.707107,-0.707106 -0.707107,-0.707107 -0.707107,-0.707107 -0.707106,-0.707107 -0.707107,-0.707107 -0.707107,-0.707106 -0.707107,-0.707107 -0.707106,-0.707107 -0.707107,-0.707107 -0.707107,-0.707106 -0.707107,-0.707107 -0.707107,-0.707107 -0.707106,-0.707107 -0.707107,-0.707107 -0.707107,-0.707106 -0.707107,-0.707107 -0.707106,-0.707107 -0.707107,-0.707107 -0.707107,-0.707106 -0.707107,-0.707107 -0.707107,-0.707107 -0.707106,-0.707107 -0.707107,-0.707107 -0.707107,-0.707106 -0.707107,-0.707107 -0.707107,-0.707107 -0.707106,-0.707107 -0.707107,-0.707107 -0.707107,-0.707106 -0.707107,-0.707107 0,-1.414214 0.707107,-0.707106 0.707107,-0.707107 0.707107,-0.707107 0,-1.414214 0.707106,-0.707106 0,-1.414214 -0.707106,-0.707107 -0.707107,-0.707106 -0.707107,-0.707107 -0.707107,0.707107 -0.707106,0.707106 -0.707107,0.707107 -0.707107,0.707107 -0.707107,0.707107 -1.414213,0 -0.707107,0.707106 -0.707107,0.707107 -0.707107,0.707107 -0.707106,0.707107 -0.707107,0.707107 -1.414214,0 -0.707107,-0.707107 -0.707106,0.707107 -0.707107,0.707106 -0.707104,0.707107 -0.70711,0.707107 -0.70711,0.707107 -0.7071,0.707106 -1.41422,0 -0.7071,-0.707106 -1.41422,0 -0.7071,0.707106 -0.70711,0.707107 -0.70711,0.707107 -0.7071,0.707107 0,1.414213 0.7071,0.707107 1.41422,0 0.7071,0.707107 0.70711,-0.707107 0.70711,-0.707107 0.7071,-0.707106 0.70711,-0.707107 0.70711,-0.707107 0.7071,-0.707107 0.70711,-0.707107 0.70711,-0.707106 1.414211,0 0.707106,0.707106 0.707107,0.707107 0.707107,0.707107 0.707107,0.707107 0.707107,0.707107 0.707106,0.707106 0.707107,0.707107 0,1.414214 0.707107,0.707107 0.707107,0.707106 0,1.414214 -0.707107,0.707107 0.707107,0.707106 0.707106,0.707107 0,1.414214 0.707107,0.707107 0,1.414213 0.707107,0.707107 0.707107,0.707107 0.707107,0.707106 0.707106,0.707107 0.707107,0.707107 0.707107,0.707107 0.707107,0.707107 0.707106,0.707106 0.707107,0.707107 0.707107,0.707107 0.707107,0.707107 0.707107,0.707106 1.414213,0 0.707107,0.707107 0.707107,0.707107 0.707107,0.707107 0.707106,0.707107 0.707107,0.707106 0.707107,0.707107 0.707107,0.707107 1.414213,0 0.707107,0.707107 0.707107,0.707107 0.707107,0.707106 0.707106,0.707107 0.707107,0.707107 0.707107,0.707107 0.707107,0.707106 0.707106,0.707107 0.707107,0.707107 0.707107,0.707107 0.707107,0.707107 0.707107,0.707106 0.707106,0.707107 0.707107,0.707107 0.707107,0.707107 0.707107,0.707106 0.707106,0.707107 L -62.225397,0 l 0.707107,0.707107 0.707107,0.707107 0.707107,0.707106 0.707106,0.707107 0.707107,0.707107 0.707107,0.707107 0.707107,0.707106 0.707107,0.707107 0.707106,0.707107 0.707107,0.707107 0,1.414213 0,1.414214 0.707107,0.707107 0.707107,0.707106 0.707106,0.707107 0.707107,0.707107 0.707107,0.707107 0.707107,0.707107 0.707107,0.707106 0,1.414214 0.707106,0.707107 0,1.414213 0.707107,0.707107 0.707107,0.707107 0.707107,0.707107 0.707106,0.707106 0.707107,0.707107 0.707107,0.707107 0.707107,0.707107 0,1.414213 0.707107,0.707107 0.707106,0.707107 0,1.414213 0.707107,0.707107 0.707107,0.707107 0.707107,0.707107 0.707106,0.707107 0.707107,0.707106 0.707107,0.707107 0,1.414214 0.707107,0.707106 0.707107,0.707107 0.707106,0.707107 0.707107,0.707107 0.707107,0.707107 0.707107,0.707106 0.707107,0.707107 0.707106,0.707107 0.707107,0.707107 0.707107,0.707107 0.707107,0.707106 0.707106,0.707107 1.414214,0 0.707107,0.707107 1.414213,0 0.707107,0.707107 0.707107,0.707106 0.707107,0.707107 0.707106,0.707107 0.707107,0.707107 0.707107,0.707107 0.707107,0.707106 1.414213,0 0.707107,0.707107 0.707107,0.707107 0.707107,0.707107 0.707106,0.707106 0.707107,0.707107 1.414214,0 0.707107,0.707107 0.707106,0.707107 0.707107,0.707107 0.707107,0.707106 1.414214,0 0.707106,0.707107 1.414214,0 0.707107,-0.707107 0.707106,-0.707106 1.414214,0 1.414214,0 0.707106,-0.707107 0.707107,-0.707107 0.707107,-0.707107 1.414213,0 0.707107,-0.707107 L 0,49.497475 l 0.707107,-0.707107 1.414213,0 1.414214,0 0.707107,-0.707107 1.414213,0 0.707107,0.707107 0.707107,0.707107 0.707107,0.707106 0.707106,0.707107 0.707107,0.707107 0.707107,0.707107 0,1.414213 0.707107,0.707107 0.707106,0.707107 0.707107,0.707107 0.707107,0.707106 0.707107,-0.707106 1.414213,0 1.414214,0 0.707107,0.707106 0.707107,0.707107 0.707106,0.707107 0.707107,0.707107 0.707107,0.707107 0.707107,0.707106 0.707106,-0.707106 1.414214,0 0.707107,-0.707107 0.707107,-0.707107 0.707106,-0.707107 0.707107,-0.707107 0.707107,-0.707106 0.707107,-0.707107 0,-1.414214 0,-1.414213 0,-1.414214 -0.707107,-0.707107 -0.707107,-0.707106 -0.707107,-0.707107 -0.707106,-0.707107 -0.707107,-0.707107 -0.707107,-0.707106 -0.707107,-0.707107 0,-1.414214 -1.414213,0 -0.707107,-0.707107 -0.707107,-0.707106 -1.414213,0 -0.707107,-0.707107 -1.414214,0 -0.707107,-0.707107 -0.707106,-0.707107 -0.707107,-0.707106 -0.707107,-0.707107 -0.707107,-0.707107 -0.707107,-0.707107 0,-1.414213 0.707107,-0.707107 0.707107,-0.707107 0.707107,-0.707107 0,-1.414213 0.707107,-0.707107 0.707106,-0.707107 0,-1.414213 0.707107,-0.707107 -0.707107,-0.707107 0,-1.414214 0.707107,-0.707106 0.707107,-0.707107 -0.707107,-0.707107 -0.707107,-0.707107 0,-1.414213 0.707107,-0.707107 -0.707107,-0.707107 -0.707106,-0.707107 0,-1.414213 -0.707107,-0.707107 -0.707107,-0.707107 0,-1.414213 -0.707107,-0.707107 -0.707107,-0.707107 -0.707106,-0.707107 0,-1.414213 -0.707107,-0.707107 -0.707107,-0.707107 -0.707107,-0.707107 -0.707106,-0.707106 0,-1.414214 L 7.071068,8.485281 6.363961,7.778175 5.656854,7.071068 4.949747,6.363961 4.242641,5.656854 3.535534,4.949747 2.828427,4.242641 2.12132,3.535534 1.414214,2.828427 0.707107,2.12132 0,1.414214 0,0"
         id="path5-6-0" />
    </g>
    <text
       xml:space="preserve"
       style="font-size:37.27065277px;font-style:normal;font-variant:normal;font-weight:normal;font-stretch:normal;text-align:start;line-height:125%;writing-mode:lr-tb;text-anchor:start;fill:#000000;fill-opacity:1;stroke:none;font-family:CMU Serif;-inkscape-font-specification:CMU Serif Medium"
       x="50.500088"
       y="653.44934"
       id="text2852-4"
       sodipodi:linespacing="125%"><tspan
   sodipodi:role="line"
   id="tspan2854-0"
   x="50.500088"
   y="653.44934" />original</text>
    <text
       xml:space="preserve"
       style="font-size:37.27065277px;font-style:normal;font-variant:normal;font-weight:normal;font-stretch:normal;text-align:start;line-height:125%;writing-mode:lr-tb;text-anchor:start;fill:#000000;fill-opacity:1;stroke:none;font-family:CMU Serif;-inkscape-font-specification:CMU Serif Medium"
       x="618.01453"
       y="659.03992"
       id="text2856-1"
       sodipodi:linespacing="125%"><tspan
         sodipodi:role="line"
         id="tspan2858-3"
         x="618.01453"
         y="659.03992">10%</tspan></text>
    <text
       xml:space="preserve"
       style="font-size:37.27065277px;font-style:normal;font-variant:normal;font-weight:normal;font-stretch:normal;text-align:start;line-height:125%;writing-mode:lr-tb;text-anchor:start;fill:#000000;fill-opacity:1;stroke:none;font-family:CMU Serif;-inkscape-font-specification:CMU Serif Medium"
       x="356.78745"
       y="659.03992"
       id="text2860-7"
       sodipodi:linespacing="125%"><tspan
         sodipodi:role="line"
         id="tspan2862-4"
         x="356.78745"
         y="659.03992">1%</tspan></text>
    <text
       xml:space="preserve"
       style="font-size:37.27065277px;font-style:normal;font-variant:normal;font-weight:normal;font-stretch:normal;text-align:start;line-height:125%;writing-mode:lr-tb;text-anchor:start;fill:#000000;fill-opacity:1;stroke:none;font-family:CMU Serif;-inkscape-font-specification:CMU Serif Medium"
       x="207.96075"
       y="659.03992"
       id="text2864-1"
       sodipodi:linespacing="125%"><tspan
         sodipodi:role="line"
         id="tspan2866-1"
         x="207.96075"
         y="659.03992">0.1%</tspan></text>
    <text
       sodipodi:linespacing="125%"
       id="text2896-3"
       y="659.03992"
       x="492.9357"
       style="font-size:37.27065277px;font-style:normal;font-variant:normal;font-weight:normal;font-stretch:normal;text-align:start;line-height:125%;writing-mode:lr-tb;text-anchor:start;fill:#000000;fill-opacity:1;stroke:none;font-family:CMU Serif;-inkscape-font-specification:CMU Serif Medium"
       xml:space="preserve"><tspan
         y="659.03992"
         x="492.9357"
         id="tspan2898-0"
         sodipodi:role="line">3%</tspan></text>
  </g>
</svg>
