<?xml version="1.0" encoding="UTF-8" standalone="no"?>
<!-- Created with Inkscape (http://www.inkscape.org/) -->

<svg
   xmlns:dc="http://purl.org/dc/elements/1.1/"
   xmlns:cc="http://creativecommons.org/ns#"
   xmlns:rdf="http://www.w3.org/1999/02/22-rdf-syntax-ns#"
   xmlns:svg="http://www.w3.org/2000/svg"
   xmlns="http://www.w3.org/2000/svg"
   xmlns:sodipodi="http://sodipodi.sourceforge.net/DTD/sodipodi-0.dtd"
   xmlns:inkscape="http://www.inkscape.org/namespaces/inkscape"
   width="744.09448819"
   height="1052.3622047"
   id="svg2977"
   version="1.1"
   inkscape:version="0.47 r22583"
   sodipodi:docname="narms.svg">
  <defs
     id="defs2979">
    <inkscape:perspective
       sodipodi:type="inkscape:persp3d"
       inkscape:vp_x="0 : 526.18109 : 1"
       inkscape:vp_y="0 : 1000 : 0"
       inkscape:vp_z="744.09448 : 526.18109 : 1"
       inkscape:persp3d-origin="372.04724 : 350.78739 : 1"
       id="perspective2985" />
  </defs>
  <sodipodi:namedview
     id="base"
     pagecolor="#ffffff"
     bordercolor="#666666"
     borderopacity="1.0"
     inkscape:pageopacity="0.0"
     inkscape:pageshadow="2"
     inkscape:zoom="0.26976117"
     inkscape:cx="-515.33736"
     inkscape:cy="-208.49827"
     inkscape:document-units="px"
     inkscape:current-layer="layer1"
     showgrid="false"
     inkscape:window-width="1680"
     inkscape:window-height="975"
     inkscape:window-x="0"
     inkscape:window-y="24"
     inkscape:window-maximized="1" />
  <metadata
     id="metadata2982">
    <rdf:RDF>
      <cc:Work
         rdf:about="">
        <dc:format>image/svg+xml</dc:format>
        <dc:type
           rdf:resource="http://purl.org/dc/dcmitype/StillImage" />
        <dc:title></dc:title>
      </cc:Work>
    </rdf:RDF>
  </metadata>
  <g
     inkscape:label="Layer 1"
     inkscape:groupmode="layer"
     id="layer1">
    <g
       id="g4729">
      <path
         sodipodi:type="star"
         style="fill:#cc0000;fill-opacity:1;stroke:none"
         id="path3826"
         sodipodi:sides="8"
         sodipodi:cx="-1417.1429"
         sodipodi:cy="340.93362"
         sodipodi:r1="450.56879"
         sodipodi:r2="225.28441"
         sodipodi:arg1="0.40405915"
         sodipodi:arg2="0.79675823"
         inkscape:flatsided="false"
         inkscape:rounded="0"
         inkscape:randomized="0"
         d="m -1002.8572,518.07648 -256.8055,-16.04338 10.2051,257.10366 -170.2445,-192.93326 -174.5837,189.01582 16.0434,-256.80546 -257.1037,10.20508 192.9333,-170.24451 -189.0158,-174.58366 256.8054,16.04338 -10.2051,-257.103666 170.2445,192.933266 174.5837,-189.015826 -16.0434,256.805466 257.1037,-10.20508 -192.9333,170.24451 189.0159,174.58366 z"
         transform="matrix(0.92235339,0.38634728,-0.38634728,0.92235339,-169.95445,827.47614)" />
      <path
         id="rect4499"
         d="m -1691.7173,1063.1473 0,229.9687 c -2.9349,1.1207 -5.8423,2.2965 -8.7187,3.5313 l -222.9375,-109.1563 103.6875,224.8126 c -0.9935,2.1309 -1.9761,4.272 -2.9063,6.4374 l -230.875,-4.1562 -3.0625,170.3438 228.7813,4.125 c 1.6947,4.7207 3.5455,9.3637 5.5312,13.9374 l -108.5312,221.6563 223.875,-103.25 c 2.4759,1.1533 4.9775,2.276 7.5,3.3437 l -4.0313,230.0626 170.375,2.9687 3.9688,-228.75 c 4.6774,-1.7065 9.2808,-3.5697 13.8125,-5.5625 l 221.6875,108.5625 -103.6875,-224.75 c 1.2457,-2.7175 2.4196,-5.4774 3.5625,-8.25 l 230.9687,2.2813 1.6875,-170.3438 -229.9687,-2.2812 c -1.3758,-3.6619 -2.8538,-7.2724 -4.4063,-10.8438 l 109.1875,-222.9688 -225.6562,104.0938 c -3.1195,-1.4318 -6.2769,-2.7978 -9.4688,-4.0938 l 0,-231.7187 -170.375,0 z"
         style="fill:#cc0000;fill-opacity:1;stroke:none" />
      <path
         id="path4542"
         d="m -775.9673,1063.1317 0,229.4062 c -3.1482,1.2073 -6.2631,2.474 -9.3438,3.8126 l -222.3125,-108.8438 103.6875,224.8125 c -1.8239,3.947 -3.582,7.9372 -5.1875,12 l -234.125,80.25 232.25,85.625 c 1.1986,3.2514 2.4435,6.475 3.7813,9.6563 l -163.9375,162.625 120,120.9687 162.875,-161.5625 c 1.5434,0.6964 3.0951,1.3677 4.6562,2.0312 l -4.0312,230.9063 170.375,2.9687 4,-229.3437 c 4.7095,-1.7114 9.3442,-3.5924 13.9062,-5.5937 l 165.125,161.4687 119.0938,-121.8437 -164.0625,-160.375 c 0.9943,-2.2957 1.9845,-4.5729 2.9062,-6.9063 l 234.12502,-80.2187 -232.21872,-85.5938 c -1.6199,-4.3983 -3.3765,-8.7312 -5.25,-13 l 161.375,-165.1875 -121.875,-119.0625 -160.2813,164.0938 c -1.7088,-0.7396 -3.4264,-1.4569 -5.1562,-2.1563 l 0,-230.9375 -170.375,0 z"
         style="fill:#cc0000;fill-opacity:1;stroke:none" />
      <path
         id="rect3899"
         d="m -775.6236,147.09997 0,229.40625 c -2.8624,1.0973 -5.6933,2.23161 -8.5,3.4375 l -163.875,-162.65625 -120.0313,120.90625 162.8126,161.59375 c -0.4322,0.97758 -0.8623,1.9529 -1.2813,2.9375 l -230.875,-4.15625 -3.0937,170.3125 229.375,4.15625 c 1.3151,3.62537 2.731,7.21116 4.2187,10.75 l -163.9375,162.6562 120,120.9376 162.8125,-161.56255 c 1.5723,0.71006 3.1281,1.38661 4.7188,2.0625 l -4.0313,230.90618 170.3438,2.9688 4.0312,-229.37498 c 4.7001,-1.70798 9.3218,-3.56565 13.875,-5.5625 l 165.125,161.43755 119.0937,-121.8126 -164.0312,-160.37495 c 0.445,-1.02758 0.8819,-2.05854 1.3125,-3.09375 l 230.90625,2.3125 1.6875,-170.375 -229.34375,-2.25 c -1.5525,-4.17466 -3.2498,-8.28633 -5.0312,-12.34375 l 161.3749,-165.15625 -121.8437,-119.0625 -160.3125,164.0625 c -1.6964,-0.73379 -3.4079,-1.43073 -5.125,-2.125 l 0,-230.9375 -170.375,0 z"
         style="fill:#cc0000;fill-opacity:1;stroke:none" />
    </g>
  </g>
</svg>
