<?xml version="1.0" encoding="UTF-8" standalone="no"?>
<svg
   xmlns:dc="http://purl.org/dc/elements/1.1/"
   xmlns:cc="http://creativecommons.org/ns#"
   xmlns:rdf="http://www.w3.org/1999/02/22-rdf-syntax-ns#"
   xmlns:svg="http://www.w3.org/2000/svg"
   xmlns="http://www.w3.org/2000/svg"
   xmlns:sodipodi="http://sodipodi.sourceforge.net/DTD/sodipodi-0.dtd"
   xmlns:inkscape="http://www.inkscape.org/namespaces/inkscape"
   width="400pt"
   height="400pt"
   viewBox="0 0 400 400"
   version="1.1"
   id="svg2"
   inkscape:version="0.47 r22583"
   sodipodi:docname="romer0009.svg">
  <metadata
     id="metadata11">
    <rdf:RDF>
      <cc:Work
         rdf:about="">
        <dc:format>image/svg+xml</dc:format>
        <dc:type
           rdf:resource="http://purl.org/dc/dcmitype/StillImage" />
        <dc:title></dc:title>
      </cc:Work>
    </rdf:RDF>
  </metadata>
  <defs
     id="defs9">
    <inkscape:perspective
       sodipodi:type="inkscape:persp3d"
       inkscape:vp_x="0 : 250 : 1"
       inkscape:vp_y="0 : 1000 : 0"
       inkscape:vp_z="500 : 250 : 1"
       inkscape:persp3d-origin="250 : 166.66667 : 1"
       id="perspective13" />
    <inkscape:perspective
       id="perspective2891"
       inkscape:persp3d-origin="0.5 : 0.33333333 : 1"
       inkscape:vp_z="1 : 0.5 : 1"
       inkscape:vp_y="0 : 1000 : 0"
       inkscape:vp_x="0 : 0.5 : 1"
       sodipodi:type="inkscape:persp3d" />
    <inkscape:perspective
       id="perspective2922"
       inkscape:persp3d-origin="0.5 : 0.33333333 : 1"
       inkscape:vp_z="1 : 0.5 : 1"
       inkscape:vp_y="0 : 1000 : 0"
       inkscape:vp_x="0 : 0.5 : 1"
       sodipodi:type="inkscape:persp3d" />
    <inkscape:perspective
       id="perspective2840"
       inkscape:persp3d-origin="0.5 : 0.33333333 : 1"
       inkscape:vp_z="1 : 0.5 : 1"
       inkscape:vp_y="0 : 1000 : 0"
       inkscape:vp_x="0 : 0.5 : 1"
       sodipodi:type="inkscape:persp3d" />
    <inkscape:perspective
       id="perspective2854"
       inkscape:persp3d-origin="0.5 : 0.33333333 : 1"
       inkscape:vp_z="1 : 0.5 : 1"
       inkscape:vp_y="0 : 1000 : 0"
       inkscape:vp_x="0 : 0.5 : 1"
       sodipodi:type="inkscape:persp3d" />
  </defs>
  <sodipodi:namedview
     pagecolor="#ffffff"
     bordercolor="#666666"
     borderopacity="1"
     objecttolerance="10"
     gridtolerance="10"
     guidetolerance="10"
     inkscape:pageopacity="0"
     inkscape:pageshadow="2"
     inkscape:window-width="1680"
     inkscape:window-height="975"
     id="namedview7"
     showgrid="false"
     inkscape:zoom="0.472"
     inkscape:cx="-32.838983"
     inkscape:cy="250"
     inkscape:window-x="0"
     inkscape:window-y="24"
     inkscape:window-maximized="1"
     inkscape:current-layer="svg2" />
  <g
     id="surface0"
     transform="translate(-722.22034,-37.288136)">
    <path
       style="fill:none;stroke:#000000;stroke-width:1;stroke-linecap:butt;stroke-linejoin:miter;stroke-miterlimit:10;stroke-opacity:1"
       d="m 107,152 1,-1 0,-1 1,-1 0,-1 1,-1 0,-1 0,-1 0,-1 0,-1 0,-1 0,-1 0,-1 0,-1 0,-1 0,-1 0,-1 0,-1 0,-1 0,-1 1,-1 0,-1 0,-1 0,-1 1,-1 0,-1 0,-1 1,-1 0,-1 0,-1 1,-1 0,-1 1,-1 0,-1 1,-1 0,-1 0,-1 0,-1 1,-1 0,-1 1,-1 0,-1 1,-1 0,-1 1,-1 0,-1 0,-1 0,-1 0,-1 1,-1 0,-1 0,-1 1,-1 0,-1 1,-1 0,-1 1,0 1,-1 0,-1 0,-1 1,0 1,0 1,-1 1,-1 1,-1 1,0 1,0 1,-1 1,0 1,0 1,0 1,-1 0,-1 0,-1 0,-1 0,-1 0,-1 0,-1 -1,-1 0,-1 -1,-1 0,-1 0,-1 0,-1 0,-1 0,-1 0,-1 0,-1 0,-1 0,-1 0,-1 1,-1 0,-1 1,-1 1,-1 1,0 1,0 1,0 1,0 1,0 1,0 1,0 1,1 0,1 0,1 0,1 0,1 1,1 0,1 0,1 1,1 1,0 1,1 0,1 -1,1 0,1 -1,1 0,1 0,1 0,1 0,1 0,1 0,1 1,1 1,0 1,0 1,1 1,0 1,0 1,1 1,0 1,1 1,0 1,0 1,1 1,1 1,0 1,0 1,1 1,1 0,1 1,1 0,1 0,1 1,1 0,1 1,1 0,1 0,1 1,1 0,1 0,1 1,1 0,1 0,1 1,1 0,1 0,1 0,1 1,1 0,1 0,1 0,1 0,1 0,1 1,1 0,1 0,1 0,1 1,1 0,1 0,1 0,1 0,1 0,1 1,1 1,1 1,0 1,1 0,1 0,1 0,1 1,1 0,1 0,1 0,1 0,1 0,1 0,1 0,1 0,1 0,1 0,1 1,1 1,1 1,1 0,1 0,1 -1,1 -1,1 0,1 -1,0 -1,0 -1,0 -1,-1 0,-1 0,-1 -1,-1 0,-1 -1,-1 0,-1 0,-1 0,-1 0,-1 0,-1 -1,-1 -1,-1 -1,-1 0,-1 -1,-1 0,-1 -1,-1 -1,0 -1,0 -1,0 -1,0 -1,0 -1,0 -1,1 0,1 0,1 0,1 0,1 0,1 0,1 0,1 0,1 0,1 0,1 0,1 0,1 0,1 0,1 0,1 0,1 0,1 0,1 0,1 0,1 0,1 0,1 0,1 0,1 0,1 0,1 0,1 0,1 0,1 0,1 0,1 0,1 0,1 0,1 0,1 0,1 0,1 0,1 0,1 0,1 0,1 0,1 0,1 0,1 0,1 0,1 0,1 0,1 0,1 1,1 0,1 0,1 0,1 0,1 0,1 0,1 0,1 1,1 0,1 0,1 0,1 0,1 0,1 0,1 0,1 0,1 0,1 0,1 0,1 0,1 0,1 -1,1 -1,1 0,1 0,1 -1,0 -1,1 0,1 0,1 -1,1 0,1 -1,1 0,1 0,1 0,1 0,1 0,1 0,1 1,1 1,0 1,0 1,0 1,0 1,0 1,0 1,-1 1,0 1,0 0,1 1,1 0,1 -1,1 -1,0 -1,0 -1,0 -1,0 -1,-1 -1,-1 -1,0 -1,0 -1,0 -1,0 -1,0 -1,-1 -1,-1 -1,0 -1,0 -1,-1 -1,0 -1,0 -1,-1 -1,0 -1,0 -1,0 -1,0 -1,0 0,-1 0,-1 0,-1 1,-1 1,0 1,0 1,-1 1,0 1,0 1,-1 0,-1 0,-1 0,-1 0,-1 0,-1 0,-1 0,-1 0,-1 0,-1 0,-1 0,-1 0,-1 0,-1 0,-1 0,-1 0,-1 0,-1 0,-1 0,-1 0,-1 0,-1 0,-1 0,-1 0,-1 0,-1 0,-1 0,-1 0,-1 0,-1 0,-1 0,-1 0,-1 0,-1 0,-1 0,-1 -1,-1 0,-1 0,-1 0,-1 0,-1 -1,-1 0,-1 -1,-1 0,-1 0,-1 -1,-1 -1,0 -1,0 -1,0 -1,0 -1,0 -1,0 -1,1 0,1 0,1 0,1 -1,1 0,1 0,1 -1,1 0,1 0,1 0,1 0,1 -1,1 0,1 0,1 0,1 0,1 0,1 0,1 0,1 0,1 1,1 0,1 0,1 0,1 0,1 0,1 0,1 0,1 0,1 0,1 0,1 0,1 0,1 0,1 0,1 0,1 0,1 0,1 0,1 -1,1 0,1 -1,1 0,1 -1,0 -1,0 -1,1 0,1 0,1 0,1 0,1 0,1 0,1 0,1 1,1 1,0 1,0 1,0 1,0 1,0 1,0 1,0 1,0 -4,1 -1,0 -1,1 -1,0 -1,0 -1,1 -1,0 -1,0 -1,1 -1,0 -1,0 -1,1 -1,0 -1,0 -1,0 -1,1 -1,0 -1,-1 -1,0 -1,0 -1,0 0,-1 0,-1 1,-1 1,0 1,0 1,-1 0,-1 0,-1 0,-1 0,-1 0,-1 1,0 1,0 1,-1 0,-1 0,-1 0,-1 0,-1 0,-1 1,-1 0,-1 0,-1 0,-1 0,-1 0,-1 0,-1 0,-1 0,-1 0,-1 0,-1 0,-1 0,-1 0,-1 0,-1 0,-1 0,-1 0,-1 0,-1 0,-1 0,-1 0,-1 0,-1 0,-1 0,-1 0,-1 0,-1 0,-1 0,-1 0,-1 0,-1 0,-1 0,-1 1,-1 0,-1 0,-1 0,-1 0,-1 0,-1 0,-1 0,-1 0,-1 0,-1 0,-1 0,-1 0,-1 0,-1 0,-1 0,-1 0,-1 -1,-1 0,-1 0,-1 0,-1 0,-1 1,-1 0,-1 0,-1 0,-1 0,-1 0,-1 0,-1 0,-1 0,-1 0,-1 0,-1 0,-1 0,-1 0,-1 0,-1 0,-1 0,-1 0,-1 0,-1 0,-1 0,-1 0,-1 -1,-1 -1,0 -1,0 -1,0 -1,0 -1,0 -1,0 -1,1 0,1 -1,1 0,1 -1,1 0,1 0,1 -1,1 -1,1 0,1 0,1 0,1 0,1 0,1 0,1 -1,1 0,1 0,1 0,1 -1,0 -1,1 -1,0 -1,-1 -1,0 -1,-1"
       id="path5" />
  </g>
  <g
     transform="translate(-544.72034,-35.288136)"
     id="surface0-9">
    <path
       style="fill:none;stroke:#000000;stroke-width:1;stroke-linecap:butt;stroke-linejoin:miter;stroke-miterlimit:10;stroke-opacity:1"
       d="m 88,81 1,-1 0,-1 1,-1 1,0 1,0 1,0 1,0 1,0 1,1 1,0 1,1 1,1 1,0 1,1 1,0 1,0 1,1 1,0 1,0 1,1 1,0 1,1 1,0 1,0 1,1 1,0 1,0 1,1 1,0 1,0 1,0 1,1 1,0 1,0 1,0 1,0 1,1 1,0 1,0 1,0 1,0 1,1 1,0 1,0 1,0 1,1 1,0 1,0 1,0 1,0 1,0 1,0 1,0 1,0 1,0 1,0 1,0 1,0 1,0 1,0 1,0 1,0 1,0 1,0 1,-1 1,0 1,0 1,0 1,0 1,0 1,0 1,-1 0,-1 0,-1 0,-1 0,-1 0,-1 0,-1 0,-1 -1,-1 0,-1 0,-1 0,-1 0,-1 0,-1 0,-1 0,-1 0,-1 0,-1 0,-1 1,-1 0,-1 1,-1 1,0 1,-1 1,0 1,0 1,0 1,0 1,0 1,1 1,1 0,1 0,1 0,1 0,1 0,1 0,1 1,1 1,1 1,0 0,1 0,1 0,1 0,1 0,1 0,1 0,1 0,1 0,1 1,1 1,0 0,1 1,1 1,1 1,0 1,0 1,0 1,1 1,0 1,0 1,1 1,1 1,0 1,1 0,1 1,1 0,1 0,1 1,1 0,1 0,1 0,1 1,1 0,1 0,1 0,1 0,1 0,1 1,1 0,1 0,1 0,1 0,1 0,1 1,1 0,1 0,1 0,1 1,1 0,1 0,1 0,1 0,1 0,1 0,1 0,1 0,1 0,1 0,1 0,1 0,1 -1,1 0,1 -1,1 0,1 -1,1 -1,1 0,1 0,1 0,1 0,1 0,1 -1,1 0,1 0,1 0,1 0,1 0,1 -1,1 0,1 0,1 0,1 -1,1 -1,0 -1,1 0,1 0,1 0,1 0,1 0,1 0,1 0,1 0,1 0,1 0,1 0,1 0,1 0,1 0,1 -1,1 0,1 0,1 0,1 0,1 0,1 0,1 0,1 0,1 0,1 -1,1 0,1 0,1 0,1 0,1 0,1 0,1 0,1 0,1 0,1 0,1 0,1 0,1 0,1 0,1 0,1 1,1 0,1 0,1 0,1 0,1 0,1 0,1 -1,1 0,1 0,1 0,1 -1,1 0,1 0,1 0,1 0,1 0,1 0,1 -1,1 0,1 -1,0 -1,1 0,1 0,1 0,1 0,1 0,1 0,1 1,1 1,0 1,0 1,0 1,0 1,0 1,1 0,1 0,1 0,1 -1,0 -1,0 -1,0 -1,0 -1,0 0,-1 -1,-1 -1,-1 -1,0 -1,0 -1,0 -1,0 -1,0 -1,-1 -1,0 -1,0 -1,-1 -1,0 -1,0 -1,-1 -1,0 -1,0 -1,0 -1,-1 0,-1 0,-1 0,-1 1,0 1,-1 1,0 1,0 1,0 1,0 1,-1 0,-1 0,-1 0,-1 0,-1 0,-1 0,-1 0,-1 0,-1 1,-1 0,-1 0,-1 0,-1 0,-1 0,-1 0,-1 0,-1 0,-1 0,-1 0,-1 0,-1 0,-1 0,-1 0,-1 0,-1 0,-1 0,-1 1,-1 0,-1 0,-1 0,-1 0,-1 0,-1 0,-1 0,-1 0,-1 0,-1 0,-1 0,-1 0,-1 0,-1 0,-1 -1,-1 0,-1 0,-1 0,-1 -1,-1 -1,0 -1,0 -1,0 -1,0 -1,0 -1,0 -1,1 0,1 0,1 -1,1 0,1 0,1 -1,1 0,1 0,1 -1,1 0,1 0,1 -1,1 0,1 0,1 -1,1 0,1 0,1 0,1 -1,1 0,1 0,1 0,1 0,1 0,1 -1,1 0,1 0,1 0,1 0,1 -1,1 0,1 0,1 0,1 -1,1 0,1 0,1 0,1 0,1 0,1 0,1 0,1 0,1 -1,1 -1,0 -1,0 -1,1 -1,1 0,1 0,1 0,1 0,1 0,1 0,1 0,1 1,1 1,0 1,0 1,0 -2,1 -1,0 -1,1 -1,0 -1,1 -1,0 -1,1 -1,0 -1,0 -1,0 -1,0 -1,0 -1,1 -1,0 -1,0 -1,0 -1,0 -1,-1 0,-1 1,-1 0,-1 1,0 1,-1 0,-1 0,-1 0,-1 1,0 1,0 1,0 1,-1 0,-1 0,-1 0,-1 0,-1 0,-1 0,-1 1,-1 1,-1 0,-1 0,-1 0,-1 0,-1 0,-1 0,-1 0,-1 0,-1 0,-1 0,-1 0,-1 1,-1 0,-1 0,-1 0,-1 0,-1 0,-1 0,-1 0,-1 0,-1 0,-1 0,-1 0,-1 1,-1 1,-1 0,-1 0,-1 0,-1 0,-1 1,-1 0,-1 0,-1 0,-1 0,-1 0,-1 0,-1 0,-1 0,-1 0,-1 0,-1 0,-1 1,-1 0,-1 0,-1 0,-1 1,-1 0,-1 0,-1 0,-1 0,-1 0,-1 0,-1 0,-1 1,-1 0,-1 0,-1 0,-1 0,-1 0,-1 0,-1 0,-1 0,-1 0,-1 -1,-1 -1,-1 -1,0 0,-1 0,-1 0,-1 0,-1 0,-1 -1,-1 0,-1 0,-1 0,-1 1,-1 0,-1 0,-1 0,-1 0,-1 0,-1 1,-1 0,-1 0,-1 0,-1 0,-1 0,-1 0,-1 0,-1 0,-1 0,-1 0,-1 0,-1 -1,-1 0,-1 0,-1 0,-1 0,-1 0,-1 0,-1 0,-1 0,-1 -1,-1 -1,-1 -1,-1 -1,0 -1,0 -1,0 -1,-1 -1,0 -1,0 -1,-1 -1,0 -1,-1 -1,0 -1,-1 -1,0 -1,0 -1,-1 -1,0 -1,-1 -1,-1 -1,0 0,-1 0,-1 -1,-1 -1,0 -1,0 -1,0 -1,-1 -1,0 -1,-1 -1,0 -1,-1 -1,-1 -1,0 -1,0 -1,0 -1,-1 -1,0 -1,-1 -1,-1 -1,0 -1,-1 -1,0 -1,-1 -1,0 -1,-1 -1,0 -1,0 -1,0 -1,0 -1,-1 -1,0 -1,0 -1,0 -1,0 -1,0 -1,0 -1,-1 -1,0 0,-1 0,-1"
       id="path2835" />
  </g>
  <g
     transform="translate(-363.72034,-32.288136)"
     id="surface0-6">
    <path
       style="fill:none;stroke:#000000;stroke-width:1;stroke-linecap:butt;stroke-linejoin:miter;stroke-miterlimit:10;stroke-opacity:1"
       d="m 58,92 1,-1 1,-1 1,0 1,0 1,0 1,0 1,0 1,1 1,1 1,0 1,1 1,0 1,0 1,0 1,0 1,0 1,0 1,1 1,0 1,0 1,0 1,0 1,0 1,0 1,0 1,0 1,0 1,0 1,0 1,0 1,0 1,0 1,-1 1,0 1,1 1,0 1,0 1,0 1,0 1,0 1,0 1,0 1,0 1,0 1,0 1,0 1,0 1,0 1,0 1,-1 1,0 1,0 1,0 1,-1 1,0 1,0 1,0 1,0 1,0 1,0 1,-1 1,0 1,0 1,0 1,0 1,0 1,-1 0,-1 0,-1 0,-1 0,-1 0,-1 0,-1 -1,-1 0,-1 0,-1 0,-1 0,-1 0,-1 0,-1 0,-1 0,-1 0,-1 1,-1 0,-1 1,-1 1,0 1,-1 1,0 1,0 1,0 1,0 1,0 1,1 1,1 0,1 0,1 0,1 0,1 0,1 0,1 1,1 1,0 0,1 0,1 0,1 0,1 0,1 0,1 0,1 0,1 0,1 1,1 1,0 0,1 1,1 1,0 1,0 1,0 1,0 1,0 1,1 1,0 1,0 1,0 1,0 1,0 1,1 1,1 1,0 1,1 1,0 1,1 1,0 1,0 1,1 1,0 1,0 1,0 1,0 1,0 1,0 1,0 1,0 1,0 1,0 1,1 1,0 1,0 1,0 1,1 1,0 1,0 1,1 1,0 1,0 1,0 1,0 1,0 1,0 1,0 1,0 1,0 1,0 1,0 1,0 1,0 1,-1 1,-1 1,-1 1,-1 1,0 1,1 1,0 1,0 1,0 1,0 1,0 1,0 1,1 1,1 1,0 0,1 0,1 -1,1 -1,1 -1,1 -1,0 -1,0 -1,0 -1,0 -1,0 -1,0 -1,0 -1,0 -1,0 -1,1 -1,0 -1,-1 -1,0 -1,0 -1,0 -1,0 -1,0 -1,0 -1,1 -1,0 -1,0 -1,0 -1,0 -1,1 -1,0 -1,0 -1,0 -1,0 -1,0 -1,0 -1,1 -1,0 -1,0 -1,1 -1,0 -1,0 -1,1 -1,0 -1,1 -1,0 -1,0 -1,-1 -1,0 -1,0 -1,0 -1,-1 -1,0 -1,0 -1,0 -1,0 -1,0 -1,0 -1,1 -1,1 0,1 0,1 0,1 0,1 -1,1 0,1 0,1 0,1 0,1 0,1 0,1 0,1 0,1 0,1 0,1 0,1 0,1 0,1 0,1 0,1 0,1 0,1 1,1 0,1 0,1 0,1 0,1 0,1 0,1 -1,1 0,1 0,1 0,1 0,1 0,1 0,1 0,1 0,1 0,1 0,1 0,1 0,1 0,1 0,1 0,1 0,1 0,1 0,1 0,1 0,1 0,1 0,1 0,1 0,1 0,1 1,1 0,1 0,1 0,1 0,1 0,1 0,1 0,1 0,1 0,1 -1,1 0,1 0,1 0,1 0,1 0,1 0,1 0,1 0,1 0,1 0,1 0,1 0,1 0,1 0,1 0,1 0,1 0,1 0,1 0,1 0,1 0,1 0,1 0,1 0,1 0,1 -1,1 0,1 0,1 0,1 0,1 0,1 -1,1 0,1 0,1 -1,1 -1,0 -1,1 0,1 0,1 0,1 0,1 0,1 0,1 0,1 1,1 1,0 1,0 1,0 1,0 1,0 1,0 1,-1 0,1 0,1 0,1 0,1 -1,1 -1,0 -1,0 -1,0 -1,0 0,-1 0,-1 -1,-1 -1,0 -1,0 -1,0 -1,0 -1,0 -1,0 -1,0 -1,-1 -1,0 -1,0 -1,0 -1,0 -1,0 -1,0 -1,1 -1,0 -1,0 -1,0 -1,0 -1,1 -1,0 -1,0 -1,1 -1,-1 -1,0 -1,0 -1,0 0,-1 0,-1 1,-1 1,0 1,-1 0,-1 0,-1 1,-1 1,-1 0,-1 0,-1 0,-1 0,-1 0,-1 0,-1 0,-1 0,-1 -1,-1 0,-1 0,-1 0,-1 0,-1 -1,-1 0,-1 0,-1 0,-1 0,-1 0,-1 0,-1 0,-1 -1,-1 0,-1 0,-1 0,-1 -1,-1 0,-1 0,-1 0,-1 1,-1 0,-1 0,-1 0,-1 0,-1 0,-1 0,-1 0,-1 0,-1 0,-1 0,-1 -1,-1 0,-1 0,-1 0,-1 -1,-1 0,-1 0,-1 0,-1 0,-1 0,-1 0,-1 0,-1 0,-1 0,-1 0,-1 -1,-1 0,-1 0,-1 0,-1 0,-1 -1,-1 0,-1 0,-1 0,-1 0,-1 0,-1 0,-1 0,-1 0,-1 -1,-1 -1,0 -1,0 -1,-1 0,-1 0,-1 0,-1 0,-1 0,-1 0,-1 0,-1 0,-1 0,-1 0,-1 0,-1 0,-1 0,-1 0,-1 0,-1 1,-1 0,-1 0,-1 0,-1 0,-1 0,-1 0,-1 0,-1 0,-1 1,-1 0,-1 0,-1 0,-1 0,-1 0,-1 0,-1 0,-1 0,-1 0,-1 0,-1 -1,-1 -1,0 -1,0 -1,0 -1,0 -1,0 -1,-1 -1,0 -1,0 -1,-1 -1,0 -1,0 -1,0 -1,0 -1,0 -1,-1 -1,0 -1,-1 -1,0 -1,-1 -1,-1 -1,0 -1,0 -1,0 -1,-1 -1,0 -1,0 -1,0 -1,0 -1,0 -1,-1 -1,0 -1,0 -1,0 -1,0 -1,-1 -1,0 -1,0 -1,0 -1,0 -1,-1 -1,0 -1,0 -1,0 -1,0 -1,0 -1,0 -1,-1 -1,0 -1,0 -1,0 -1,0 -1,0 -1,-1 -1,0 -1,-1 0,-1"
       id="path2848" />
  </g>
  <g
     transform="translate(-745.72034,148.71186)"
     id="surface0-0">
    <path
       style="fill:none;stroke:#000000;stroke-width:1;stroke-linecap:butt;stroke-linejoin:miter;stroke-miterlimit:10;stroke-opacity:1"
       d="m 118,226 1,-1 1,0 1,0 1,-1 0,-1 0,-1 0,-1 0,-1 1,0 1,0 1,-1 0,-1 0,-1 0,-1 0,-1 0,-1 0,-1 0,-1 1,-1 1,-1 0,-1 0,-1 0,-1 0,-1 1,-1 0,-1 0,-1 0,-1 0,-1 0,-1 0,-1 0,-1 0,-1 0,-1 0,-1 0,-1 0,-1 0,-1 0,-1 0,-1 0,-1 0,-1 0,-1 1,-1 0,-1 0,-1 0,-1 0,-1 0,-1 0,-1 0,-1 0,-1 0,-1 1,-1 0,-1 0,-1 0,-1 0,-1 0,-1 0,-1 0,-1 1,-1 0,-1 0,-1 0,-1 0,-1 0,-1 0,-1 0,-1 0,-1 1,-1 0,-1 0,-1 0,-1 0,-1 0,-1 1,-1 0,-1 0,-1 0,-1 0,-1 1,-1 0,-1 0,-1 0,-1 0,-1 0,-1 0,-1 0,-1 0,-1 0,-1 -1,-1 0,-1 1,-1 0,-1 0,-1 0,-1 0,-1 0,-1 1,-1 0,-1 0,-1 0,-1 0,-1 0,-1 0,-1 0,-1 0,-1 0,-1 0,-1 0,-1 0,-1 0,-1 0,-1 0,-1 0,-1 0,-1 0,-1 0,-1 0,-1 0,-1 0,-1 0,-1 0,-1 0,-1 0,-1 0,-1 0,-1 0,-1 0,-1 0,-1 0,-1 0,-1 0,-1 0,-1 0,-1 0,-1 0,-1 0,-1 0,-1 0,-1 0,-1 1,-1 1,-1 0,-1 1,-1 1,0 1,-1 1,0 1,0 1,0 1,0 1,-1 1,-1 0,-1 0,-1 0,-1 0,-1 0,-1 1,0 1,0 1,-1 0,-1 0,-1 1,-1 0,-1 0,-1 0,-1 1,0 1,0 1,-1 1,0 1,0 1,0 1,0 1,0 1,1 1,1 0,1 0,1 0,1 0,1 0,1 1,1 1,0 1,0 1,0 1,0 1,0 1,0 1,0 1,0 1,0 1,0 1,0 1,0 1,0 1,0 1,0 1,0 1,-1 1,0 1,0 1,0 1,0 1,-1 1,0 1,0 1,0 1,0 1,0 1,-1 1,0 1,-1 1,0 1,-1 1,0 1,0 1,1 0,1 1,1 1,1 0,1 1,1 0,1 0,1 0,1 -1,1 -1,1 -1,0 -1,0 -1,0 -1,-1 -1,0 -1,-1 -1,0 -1,0 -1,0 -1,0 -1,0 -1,0 -1,0 -1,0 -1,0 -1,0 -1,1 -1,0 -1,0 -1,0 -1,1 -1,0 -1,1 -1,1 -1,0 -1,1 -1,0 -1,0 -1,1 -1,1 0,1 0,1 0,1 0,1 0,1 0,1 0,1 1,1 1,1 1,0 1,0 1,1 1,0 1,0 1,1 1,0 1,0 1,0 1,0 1,0 1,0 1,0 1,1 1,0 1,0 1,0 1,0 1,0 1,0 1,-1 1,0 1,0 1,1 1,0 1,0 1,0 1,0 1,0 1,0 1,0 1,0 1,0 1,0 1,0 1,-1 1,0 1,0 1,-1 1,-1 1,-1 0,-1 1,-1 1,-1 1,-1 1,0 1,1 1,0 1,1 1,0 0,1 0,1 0,1 0,1 0,1 0,1 0,1 -1,0 -1,1 -1,0 -1,1 -1,0 -1,0 -1,0 -1,0 -1,0 -1,1 -1,0 -1,0 -1,0 -1,0 -1,0 -1,1 -1,1 -1,0 -1,0 -1,0 -1,0 -1,1 0,1 -1,0 -1,0 -1,0 -1,0 -1,0 -1,0 -1,0 -1,0 -1,1 -1,0 -1,0 -1,0 -1,0 -1,0 -1,0 -1,0 -1,1 -1,0 -1,0 -1,0 -1,1 -1,0 -1,0 -1,0 -1,0 -1,0 -1,1 0,1 0,1 0,1 0,1 0,1 0,1 0,1 0,1 0,1 -1,1 0,1 0,1 0,1 0,1 0,1 0,1 0,1 0,1 0,1 0,1 0,1 0,1 0,1 1,1 0,1 0,1 0,1 0,1 0,1 0,1 0,1 0,1 0,1 0,1 0,1 0,1 0,1 0,1 0,1 0,1 0,1 0,1 0,1 0,1 0,1 0,1 0,1 0,1 0,1 0,1 0,1 0,1 0,1 0,1 -1,1 0,1 0,1 0,1 0,1 0,1 0,1 0,1 0,1 0,1 0,1 0,1 0,1 0,1 0,1 0,1 0,1 0,1 -1,1 0,1 0,1 0,1 0,1 0,1 0,1 0,1 0,1 0,1 0,1 0,1 0,1 0,1 -1,1 0,1 0,1 0,1 0,1 0,1 0,1 0,1 0,1 -1,1 0,1 0,1 -1,1 -1,1 0,1 -1,0 -1,1 0,1 0,1 -1,0 -1,1 0,1 -1,1 0,1 0,1 0,1 0,1 0,1 0,1 1,1 1,0 1,0 1,0 1,0 1,0 1,0 1,-1 1,0 1,0 0,1 1,1 0,1 -1,1 -1,0 -1,0 -1,0 -1,0 -1,-1 -1,-1 -1,0 -1,0 -1,0 -1,0 -1,0 -1,-1 -1,-1 -1,0 -1,0 -1,-1 -1,0 -1,0 -1,0 -1,0 -1,0 -1,0 -1,0 -1,0 -1,0 -1,0 -1,0 -1,0 -1,1 -1,0 -1,1 -1,0 -1,0 -1,1 -1,0 -1,0 -1,0 -1,1 -1,0 -1,0 -1,0 -1,0 -1,0 -1,0 -1,1 -1,1 -1,0 -1,0 -1,0 -1,-1 0,-1"
       id="path2822" />
  </g>
  <g
     transform="translate(-541.22034,145.71186)"
     id="surface0-05">
    <path
       style="fill:none;stroke:#000000;stroke-width:1;stroke-linecap:butt;stroke-linejoin:miter;stroke-miterlimit:10;stroke-opacity:1"
       d="m 102,153 1,-1 1,0 1,1 0,1 0,1 1,1 1,1 1,1 1,0 1,0 1,0 1,0 1,0 1,0 1,0 1,0 1,0 1,0 1,0 1,-1 1,0 1,0 1,1 1,0 1,0 1,0 1,0 1,0 1,1 1,0 1,0 1,0 1,0 1,0 1,1 1,0 1,0 1,0 1,0 1,0 1,0 1,0 1,0 1,0 1,1 1,1 1,0 1,1 1,1 1,1 1,0 1,1 1,1 1,1 1,1 1,1 1,0 1,1 1,1 1,1 1,1 1,1 0,1 1,1 1,1 0,1 1,1 0,1 1,1 0,1 0,1 1,1 0,1 1,1 0,1 1,1 0,1 0,1 0,1 0,1 1,1 0,1 0,1 1,1 0,1 0,1 -1,0 -1,0 -1,1 -1,0 -1,0 -1,0 -1,1 -1,0 -1,0 -1,0 -1,0 -1,0 -1,1 -1,0 -1,1 0,1 0,1 0,1 0,1 0,1 0,1 0,1 1,1 1,0 1,0 0,1 0,1 1,1 1,0 1,0 1,1 0,1 0,1 0,1 0,1 0,1 0,1 1,1 1,1 -1,1 -1,0 -1,0 -1,0 -1,1 0,1 0,1 0,1 -1,0 -1,0 -1,1 -1,0 -1,0 -1,0 -1,0 -1,1 -1,0 -1,0 -1,1 -1,0 -1,0 -1,0 -1,0 -1,0 -1,1 -1,0 -1,0 -1,0 -1,0 -1,0 -1,0 -1,0 -1,0 -1,0 -1,0 -1,0 -1,0 -1,0 -1,-1 -1,0 0,-1 0,-1 -1,-1 -1,0 -1,0 -1,0 -1,0 -1,0 -1,0 -1,0 -1,0 -1,0 -1,0 -1,0 -1,0 -1,0 -1,0 -1,0 -1,0 -1,0 -1,0 -1,-1 -1,0 0,-1 1,-1 0,-1 0,-1 0,-1 0,-1 1,-1 0,-1 0,-1 0,-1 0,-1 0,-1 0,-1 0,-1 -1,-1 1,0 1,0 1,0 1,0 1,0 1,-1 0,-1 0,-1 0,-1 0,-1 0,-1 0,-1 0,-1 0,-1 -1,-1 0,-1 -1,-1 -1,-1 -1,-1 0,-1 -1,-1 0,-1 0,-1 0,-1 1,-1 0,-1 0,-1 1,-1 1,-1 1,0 1,-1 1,0 1,-1 0,-1 1,-1 0,-1 0,-1 0,-1 0,-1 0,-1 0,-1 0,-1 -1,-1 0,-1 0,-1 0,-1 0,-1 0,-1 0,-1 0,-1 -1,-1 -1,0 -1,0 -1,0 -1,0 -1,-1 -1,-1 -1,-1 -1,0 -1,0 -1,-1 0,-1 0,-1 0,-1 0,-1 -1,-1 -1,0 0,-1 0,-1 -1,-1 0,-1 0,-1"
       id="path2822-6" />
  </g>
  <g
     transform="translate(-369.22034,146.71186)"
     id="surface0-4">
    <path
       style="fill:none;stroke:#000000;stroke-width:1;stroke-linecap:butt;stroke-linejoin:miter;stroke-miterlimit:10;stroke-opacity:1"
       d="m 106,149 1,-1 1,0 1,0 1,-1 1,0 1,-1 0,-1 1,0 1,-1 0,-1 1,-1 1,-1 1,-1 0,-1 0,-1 0,-1 1,-1 0,-1 1,0 1,-1 1,-1 0,-1 0,-1 0,-1 0,-1 0,-1 0,-1 1,-1 0,-1 0,-1 0,-1 0,-1 0,-1 0,-1 0,-1 -1,-1 0,-1 1,-1 0,-1 0,-1 0,-1 0,-1 0,-1 0,-1 0,-1 0,-1 0,-1 0,-1 0,-1 0,-1 -1,-1 -1,0 -1,0 -1,0 -1,0 -1,0 -1,0 -1,0 0,-1 -1,-1 -1,-1 -1,-1 -1,-1 -1,-1 0,-1 0,-1 0,-1 0,-1 -1,-1 0,-1 0,-1 0,-1 0,-1 1,-1 0,-1 1,-1 1,0 1,0 1,-1 1,1 1,0 0,1 0,1 0,1 1,1 1,1 1,0 1,0 1,0 1,0 1,1 1,0 0,1 1,1 1,1 1,0 1,0 1,1 1,1 1,0 1,0 1,0 1,1 1,0 1,0 1,1 1,0 1,1 1,1 1,1 1,0 1,1 1,1 1,1 1,1 1,1 0,1 1,1 1,1 1,1 1,1 0,1 1,1 1,1 1,1 0,1 1,1 1,1 1,1 0,1 1,1 1,1 0,1 1,1 0,1 1,1 0,1 1,1 0,1 1,1 1,1 0,1 0,1 1,1 0,1 1,1 0,1 1,1 1,1 0,1 1,1 0,1 0,1 1,1 0,1 -1,0 -1,1 -1,0 -1,1 0,1 0,1 -1,1 0,1 0,1 0,1 -1,1 0,1 0,1 -1,1 0,1 -1,1 0,1 -1,1 0,1 0,1 -1,1 0,1 0,1 0,1 -1,1 0,1 0,1 -1,1 0,1 -1,1 0,1 0,1 -1,1 0,1 -1,1 -1,1 0,1 -1,1 0,1 0,1 0,1 0,1 0,1 0,1 0,1 0,1 0,1 0,1 0,1 0,1 0,1 0,1 0,1 0,1 0,1 0,1 0,1 0,1 1,1 1,1 0,1 0,1 0,1 0,1 0,1 0,1 0,1 0,1 0,1 0,1 0,1 1,1 0,1 0,1 0,1 1,1 1,0 0,1 0,1 -1,0 -1,1 0,1 0,1 0,1 0,1 0,1 0,1 -1,0 -1,0 -1,0 -1,0 -1,0 -1,1 0,1 -1,0 -1,0 -1,0 -1,0 -1,0 -1,1 -1,0 -1,0 -1,0 -1,0 -1,0 -1,0 -1,0 -1,0 -1,0 -1,0 -1,0 -1,0 -1,0 -1,0 -1,-1 -1,0 0,-1 1,-1 0,-1 1,0 1,0 1,-1 0,-1 0,-1 0,-1 0,-1 0,-1 0,-1 0,-1 0,-1 0,-1 0,-1 0,-1 1,0 1,0 1,0 1,0 1,0 1,0 1,-1 0,-1 0,-1 0,-1 0,-1 0,-1 0,-1 0,-1 0,-1 0,-1 0,-1 0,-1 0,-1 0,-1 0,-1 0,-1 0,-1 0,-1 0,-1 -1,-1 0,-1 0,-1 -1,-1 0,-1 0,-1 -1,-1 0,-1 0,-1 0,-1 0,-1 0,-1 -1,-1 0,-1 0,-1 0,-1 0,-1 0,-1 0,-1 0,-1 0,-1 1,-1 0,-1 0,-1 0,-1 1,-1 0,-1 0,-1 0,-1 0,-1 1,-1 0,-1 0,-1 0,-1 0,-1 1,-1 0,-1 0,-1 0,-1 0,-1 0,-1 0,-1 0,-1 -1,-1 0,-1 1,-1 0,-1 0,-1 1,-1 0,-1 0,-1 0,-1 0,-1 0,-1 0,-1 0,-1 0,-1 0,-1 -1,-1 -1,0 -1,0 -1,0 -1,-1 -1,0 -1,0 -1,0 -1,0 -1,0 -1,0 -1,1 0,1 -1,1 -1,1 -1,1 0,1 -1,1 -1,1 0,1 -1,1 -1,0 -1,1 0,1 -1,0 -1,1 -1,0 -1,1 0,1 -1,1 -1,1 -1,1 0,1 -1,1 -1,0 -1,0 -1,0 -1,-1 0,-1 -1,-1 0,-1 0,-1 0,-1"
       id="path5-6" />
  </g>
</svg>
