<?xml version="1.0" encoding="UTF-8" standalone="no"?>
<svg
   xmlns:dc="http://purl.org/dc/elements/1.1/"
   xmlns:cc="http://creativecommons.org/ns#"
   xmlns:rdf="http://www.w3.org/1999/02/22-rdf-syntax-ns#"
   xmlns:svg="http://www.w3.org/2000/svg"
   xmlns="http://www.w3.org/2000/svg"
   xmlns:sodipodi="http://sodipodi.sourceforge.net/DTD/sodipodi-0.dtd"
   xmlns:inkscape="http://www.inkscape.org/namespaces/inkscape"
   width="400pt"
   height="400pt"
   viewBox="0 0 400 400"
   version="1.1"
   id="svg2"
   inkscape:version="0.47 r22583"
   sodipodi:docname="subsample.svg">
  <metadata
     id="metadata29">
    <rdf:RDF>
      <cc:Work
         rdf:about="">
        <dc:format>image/svg+xml</dc:format>
        <dc:type
           rdf:resource="http://purl.org/dc/dcmitype/StillImage" />
        <dc:title></dc:title>
      </cc:Work>
    </rdf:RDF>
  </metadata>
  <defs
     id="defs27">
    <inkscape:perspective
       sodipodi:type="inkscape:persp3d"
       inkscape:vp_x="0 : 250 : 1"
       inkscape:vp_y="0 : 1000 : 0"
       inkscape:vp_z="500 : 250 : 1"
       inkscape:persp3d-origin="250 : 166.66667 : 1"
       id="perspective31" />
  </defs>
  <sodipodi:namedview
     pagecolor="#ffffff"
     bordercolor="#666666"
     borderopacity="1"
     objecttolerance="10"
     gridtolerance="10"
     guidetolerance="10"
     inkscape:pageopacity="0"
     inkscape:pageshadow="2"
     inkscape:window-width="1680"
     inkscape:window-height="975"
     id="namedview25"
     showgrid="false"
     inkscape:zoom="0.472"
     inkscape:cx="-32.838983"
     inkscape:cy="250"
     inkscape:window-x="0"
     inkscape:window-y="24"
     inkscape:window-maximized="1"
     inkscape:current-layer="svg2" />
  <path
     id="path5"
     d="m -848.8562,-83.633705 -0.25882,0.96593 -0.25882,0.96593 -0.25882,0.96592 -0.25881,0.96593 -0.25882,0.96592 0.7071,1.22475 -1.22474,0.70711 -0.25882,0.96592 -0.25882,0.96593 0.70711,1.22474 -0.25882,0.96593 -0.25882,0.96592 0.70711,1.22475 -0.25882,0.96592 -0.25882,0.96593 -1.22475,0.70711 -0.25882,0.96592 0.70711,1.22475 0.70711,1.22474 0.7071,1.22475 0.96593,0.25882 1.22474,-0.70711 0.96593,0.25882 0.70711,1.22474 0.7071,1.22475 0.70711,1.22474 0.70711,1.22475 1.22474,-0.70711 0.96593,0.25882 0.96592,0.25882 0.96593,0.25882 -0.25882,0.96592 0.70711,1.22475 -0.25882,0.96593 0.70711,1.22474 0.7071,1.22475 1.22475,-0.70711 1.22474,-0.70711 0.70711,1.22475 0.96592,0.25882 -0.25881,0.96592 0.7071,1.22475 -0.25882,0.96592 0.70711,1.22475 0.96593,0.25882 0.96592,0.25882 0.96593,0.25881 0.96592,0.25882 -0.25882,0.96593 0.70711,1.22474 0.70711,1.22475 0.7071,1.22474 1.22475,-0.7071 0.70711,1.22474 -0.25882,0.96593 -0.25882,0.96592 0.7071,1.22475 -0.25881,0.96592 0.7071,1.22475 1.22475,-0.70711 0.96592,0.25882 0.70711,1.22475 0.70711,1.22474 -0.25882,0.96593 -0.25882,0.96592 0.70711,1.22475 0.7071,1.22474 1.22475,-0.7071 1.22474,-0.70711 0.96593,0.25882 -0.25882,0.96592 0.70711,1.22475 -0.25882,0.96592 -0.25882,0.96593 0.7071,1.22475 0.70711,1.22474 0.96593,0.25882 0.96592,0.25882 -0.25882,0.96592 -0.25882,0.96593 -0.25881,0.96593 -0.25882,0.96592 -0.25882,0.96593 -0.25882,0.96592 -0.25882,0.96593 0.70711,1.22474 1.22474,-0.7071 0.96593,0.25882 0.96592,0.25881 -0.25882,0.96593 -0.25882,0.96593 -0.25881,0.96592 -0.25882,0.96593 -0.25882,0.96592 -0.25882,0.96593 -1.22475,0.70711 0.70711,1.2247397 0.96593,0.25882 1.22474,-0.70711 1.22475,-0.7070997 0.25881,-0.96593 0.96593,0.25882 -0.25882,0.9659297 0.70711,1.22474 -0.25882,0.96593 -0.25882,0.96592 -1.22474,0.70711 0.7071,1.22474 -0.25882,0.96593 -0.25882,0.96593 0.70711,1.22474 -0.25882,0.96593005 0.70711,1.22474 0.96592,0.25882 -0.25881,0.96592995 -0.25882,0.96592 -0.25882,0.96593 -0.25882,0.96592 0.70711,1.22475 0.7071,1.22474 0.96593,0.25882 0.7071,1.22475 -0.25881,0.96592 -0.25882,0.9659303 -0.25882,0.96593 -1.22475,0.7071 -0.25882,0.96593 0.70711,1.22474 0.96593,0.25882 0.7071,1.22475 -0.25882,0.96592 -0.25882,0.96593 -0.25881,0.96592 -0.25882,0.96593 -0.25882,0.96593 -0.25882,0.96592 -1.22475,0.70711 -0.25882,0.96592 -0.25881,0.96593 0.7071,1.22474 1.22475,-0.7071 -0.25882,0.96592 0.7071,1.22475 -0.25881,0.96592 -0.25882,0.96593 -0.25882,0.96593 -1.22475,0.7071 -0.25882,0.96593 0.70711,1.22474 0.96593,0.25882 0.96592,0.25882 -0.25882,0.96593 -0.25882,0.96592 -0.25881,0.96593 -1.22475,0.70711 -0.25882,0.96592 -0.25882,0.96593 -0.25882,0.96592 -0.25882,0.96593 -0.25882,0.96593 -0.25881,0.96592 -0.25882,0.96593 -0.25882,0.96592 -1.22475,0.70711 -0.25882,0.96593 -0.25882,0.96592 -1.22474,0.70711 -0.25882,0.96592 0.70711,1.22475 0.96592,0.25881 0.96593,0.25882 0.70711,1.22475 -0.25882,0.96592 -0.25882,0.96593 -1.22475,0.70711 -0.25882,0.96592 -0.25881,0.96593 -1.22475,0.70711 -0.25882,0.96592 0.70711,1.22475 -0.25882,0.96592 -0.25882,0.96593 -1.22475,0.7071 -0.25881,0.96593 -0.25882,0.96593 -1.22475,0.7071 -0.25882,0.96593 0.70711,1.22474 -0.25882,0.96593 -0.25882,0.96593 -1.22474,0.7071 -0.25882,0.96593 -1.22475,0.7071 0.70711,1.22475 0.70711,1.22474 -0.25882,0.96593 -0.25882,0.96593 -1.22475,0.7071 0.70711,1.22475 -0.25882,0.96592 -0.25882,0.96593 -0.25882,0.96593 -1.22474,0.7071 -0.25882,0.96593 -0.25882,0.96592 0.70711,1.22475 -0.25882,0.96592 -0.25882,0.96593 -0.25882,0.96593 -1.22475,0.7071 -0.25881,0.96593 0.7071,1.22474 -0.25882,0.96593 -0.25882,0.96592 -0.25881,0.96593 -1.22475,0.70711 -0.96593,-0.25882 -1.22474,0.70711 -0.25882,0.96592 0.70711,1.22475 -0.25882,0.96592 -1.22475,0.70711 -1.22474,0.707109 -1.22475,0.7071 -0.25882,0.965926 -0.25881,0.96592 -0.25882,0.96593 -1.22475,0.70711 -1.22474,0.7071 -0.25882,0.96593 -0.25882,0.96592 -0.25882,0.96593 -0.25882,0.96593 -0.25882,0.96592 -1.22474,0.70711 -0.25882,0.96593 -1.22475,0.7071 -0.25882,0.96593 -0.25882,0.96592 -0.25881,0.96593 -0.96593,-0.25882 -1.22475,0.70711 -0.25881,0.96592 -1.22475,0.70711 -1.22474,0.70711 -0.25882,0.96592 -0.25882,0.96593 -1.22475,0.7071 -0.25882,0.96593 -1.22474,0.70711 -1.22475,0.7071 -1.22474,0.70711 -0.25882,0.96593 -0.25882,0.96592 -1.22474,0.70711 -0.96593,-0.25882 -1.22474,0.70711 -0.25882,0.96592 -1.22475,0.70711 -1.22474,0.70711 -0.25882,0.96592 -1.22475,0.70711 -1.22474,0.70711 -1.22475,0.7071 -1.22474,0.70711 -0.25882,0.96593 -0.25882,0.96592 -0.96593,-0.25882 -1.22474,0.70711 -1.22475,0.70711 -0.96592,-0.25882 -0.96593,-0.25882 -1.22474,0.7071 -0.25882,0.96593 -1.22475,0.70711 -0.96592,-0.25882 -0.96593,-0.25882 -1.22474,0.70711 -1.22475,0.7071 -0.96592,-0.25882 -0.70711,-1.22474 -1.22474,0.70711 -1.22475,0.7071 -0.25882,0.96593 -0.25882,0.96592 -0.96592,-0.25882 -1.22475,0.70711 -0.96592,-0.25882 -0.96593,-0.25882 -0.96593,-0.25882 -0.96592,-0.25881 -1.22475,0.7071 -1.22474,0.70711 -0.96593,-0.25882 -0.96592,-0.25882 -0.96593,-0.25882 -0.96592,-0.25882 -1.22475,0.70711 -1.22474,0.70711 -0.96593,-0.25882 -0.70711,-1.22475 -0.96592,-0.25882 -0.70711,-1.22474 -1.22474,0.70711 -0.96593,-0.25882 -0.70711,-1.22475 -0.96592,-0.25882 -0.70711,-1.22474 1.22475,-0.70711 -0.70711,-1.22474 -0.70711,-1.22475 -0.7071,-1.22474 -0.96593,-0.25882 -0.96593,-0.25882 0.25882,-0.96593 0.25882,-0.96592 -0.7071,-1.22475 0.25881,-0.96592 0.25882,-0.96593 0.25882,-0.96593 1.22475,-0.7071 0.25882,-0.96593 0.25882,-0.96592 0.25882,-0.96593 1.22474,-0.70711 1.22474,-0.7071 0.25882,-0.96593 1.22475,-0.70711 0.25882,-0.96592 1.22474,-0.70711 -0.7071,-1.22474 -0.96593,-0.25882 -0.70711,-1.22475 -0.7071,-1.22474 -0.96593,-0.25882 -0.70711,-1.22475 -0.7071,-1.22474 0.25882,-0.96593 -0.70711,-1.22474 -0.70711,-1.22475 -0.96592,-0.25882 -0.96593,-0.25882 -0.96592,-0.25881 -0.70711,-1.22475 -0.96593,-0.25882 -0.7071,-1.22474 -0.70711,-1.22475 -0.96593,-0.25882 0.25882,-0.965916 -0.7071,-1.22475 -0.70711,-1.224739 -0.70711,-1.22475 0.25882,-0.96592 0.25882,-0.96593 -0.70711,-1.22474 -0.96592,-0.25882 -0.70711,-1.22475 0.25882,-0.96592 -0.70711,-1.22475 0.25882,-0.96592 -0.7071,-1.22475 0.25881,-0.96593 -0.7071,-1.22474 -0.70711,-1.22475 -0.96593,-0.25881 0.25882,-0.96593 -0.7071,-1.22475 -0.70711,-1.22474 -0.70711,-1.22474 -0.7071,-1.22475 -0.70711,-1.22474 0.25882,-0.96593 -0.70711,-1.22475 0.25882,-0.96592 0.25882,-0.96593 -0.70711,-1.22474 -0.7071,-1.22475 0.25882,-0.96592 0.25881,-0.96593 -0.7071,-1.22474 -0.70711,-1.22475 0.25882,-0.96592 -0.70711,-1.22475 -0.96592,-0.25882 0.25882,-0.96592 -0.70711,-1.22475 0.25882,-0.96592 -0.70711,-1.22475 0.25882,-0.96593 0.25882,-0.96592 0.25882,-0.96593 -0.70711,-1.22474 0.25882,-0.96593 -0.70711,-1.22474 0.25882,-0.96593 0.25882,-0.96592 0.25882,-0.96593 -0.7071,-1.22474 0.25881,-0.96593 -0.7071,-1.22474 0.25882,-0.96593 -0.70711,-1.22474 0.25882,-0.96593 1.22474,-0.70711 0.25882,-0.96592 0.25882,-0.96593 -0.7071,-1.22474 -0.70711,-1.22475 -0.96593,-0.25882 -0.7071,-1.22474 0.25881,-0.96593 0.25882,-0.96592 -0.7071,-1.22475 -0.70711,-1.22474 0.25882,-0.96593 0.25882,-0.96592 1.22474,-0.70711 -0.7071,-1.22475 0.25882,-0.96592 -0.70711,-1.22475 0.25882,-0.96592 -0.70711,-1.22475 0.25882,-0.96592 1.22474,-0.70711 0.25882,-0.96593 0.25882,-0.96592 0.25882,-0.96593 -0.7071,-1.22474 0.25881,-0.96593 0.25882,-0.96592 0.25882,-0.96593 -0.7071,-1.22474 0.25881,-0.96593 0.25882,-0.96593 0.25882,-0.96592 -0.7071,-1.2247503 0.25881,-0.96592 0.25882,-0.96593 0.25882,-0.96592 1.22475,-0.70711 0.25882,-0.96593 -0.70711,-1.22474 0.25882,-0.96593 -0.70711,-1.22474 -0.7071,-1.22474995 0.25881,-0.96592 0.25882,-0.96593005 0.25882,-0.96592 1.22475,-0.70711 0.25882,-0.96593 0.25882,-0.96592 0.25881,-0.96593 -0.7071,-1.22474 0.25882,-0.96593 0.25882,-0.96593 1.22474,-0.7071 0.96593,0.25882 1.22474,-0.7071097 0.25882,-0.96593 0.25882,-0.96592 -0.70711,-1.22475 0.25882,-0.96592 0.25882,-0.96593 -0.70711,-1.22474 0.25882,-0.96593 1.22475,-0.70711 1.22474,-0.7071 1.22475,-0.70711 -0.70711,-1.22474 0.25882,-0.96593 0.25882,-0.96593 0.25882,-0.96592 0.96592,0.25882 0.96593,0.25882 1.22475,-0.70711 0.25881,-0.96593 0.25882,-0.96592 0.25882,-0.96593 0.25882,-0.96592 0.25882,-0.96593 0.25882,-0.96593 0.25882,-0.96592 0.25882,-0.96593 -0.70711,-1.22474 1.22475,-0.70711 0.25881,-0.96592 1.22475,-0.70711 1.22474,-0.70711 0.25882,-0.96592 -0.7071,-1.22475 0.25882,-0.96592 0.25881,-0.96593 0.25882,-0.96593 1.22475,-0.7071 0.96592,0.25882 0.96593,0.25882 1.22474,-0.70711 -0.7071,-1.22475 0.25882,-0.96592 0.25882,-0.96593 1.22474,-0.7071 1.22475,-0.70711 -0.70711,-1.22475 1.22474,-0.7071 0.25882,-0.96593 -0.7071,-1.22474 1.22474,-0.70711 -0.70711,-1.22475 0.25882,-0.96592 0.25882,-0.96593 0.25882,-0.96592 0.25882,-0.96593 0.25882,-0.96592 1.22474,-0.70711 0.25882,-0.96593 0.96593,0.25882 -0.25882,0.96593 0.70711,1.22474 -0.25882,0.96593 0.7071,1.22474 0.70711,1.22475 0.96593,0.25882 0.96592,0.25882 0.96593,0.25882 1.22474,-0.70711 0.25882,-0.96593 0.25882,-0.96592 0.25882,-0.96593 1.22474,-0.70711 0.96593,0.25882 0.70711,1.22475 0.7071,1.22474 1.22475,-0.7071 1.22474,-0.70711 0.25882,-0.96593 0.25882,-0.96592 0.96593,0.25882 0.96592,0.25882 1.22475,-0.70711 0.25882,-0.96593 0.25882,-0.96592 1.22474,-0.70711 0.70711,1.22475 0.96592,0.25881 0.70711,1.22475 1.22475,-0.70711 0.25882,-0.96592 0.25881,-0.96593 1.22475,-0.70711 0.25882,-0.96592 0.96592,0.25882 0.70711,1.22474 1.22475,-0.7071 0.25881,-0.96593 1.22475,-0.70711 1.22474,-0.7071 0.96593,0.25882 0.96593,0.25881 1.22474,-0.7071 0.25882,-0.96593 1.22474,-0.70711 1.22475,-0.7071 0.96593,0.25882 1.22474,-0.70711 1.22475,-0.70711 0.25881,-0.96592 -0.7071,-1.22475 -0.70711,-1.22474 0.25882,-0.96593 0.25882,-0.96592 1.22474,-0.70711 0.25882,-0.96593 1.22475,-0.7071 1.22474,-0.70711 0.25882,-0.96593 0.25882,-0.96592 0.25882,-0.96593 0.25882,-0.96592 0.25882,-0.96593 0.25882,-0.96592 0.25882,-0.96593 1.22474,-0.70711 1.22475,-0.7071 z m 0,0"
     style="fill:none;stroke:#000000;stroke-width:1;stroke-linecap:butt;stroke-linejoin:miter;stroke-miterlimit:10;stroke-opacity:1" />
  <path
     id="path7"
     d="m -692.0187,-82.538365 -0.25882,0.96593 -0.25882,0.96592 -0.25881,0.96593 -0.25882,0.96592 -0.25882,0.96593 0.7071,1.22475 -0.25881,0.96592 -0.25882,0.96593 0.7071,1.22474 -0.25882,0.96593 0.70711,1.22474 0.70711,1.22475 0.7071,1.22474 0.70711,1.22475 0.70711,1.22474 0.96592,0.25882 0.96593,0.25882 0.96593,0.25882 0.96592,0.25882 1.22475,-0.70711 0.96592,0.25882 -0.25882,0.96593 -0.25882,0.96592 -0.25882,0.96593 -0.25881,0.96592 -0.25882,0.96593 -0.25882,0.96593 0.7071,1.22474 -0.25881,0.96593 0.7071,1.22474 0.70711,1.22475 0.70711,1.22474 0.7071,1.22475 0.96593,0.25882 0.96592,0.25881 0.96593,0.25882 0.96593,0.25882 1.22474,-0.7071 1.22475,-0.70711 1.22474,-0.70711 -0.25882,0.96593 -0.25882,0.96592 -1.22474,0.70711 -0.25882,0.96593 -0.25882,0.96592 -0.25882,0.96593 -1.22474,0.7071 -0.25882,0.96593 -0.25882,0.96593 -0.25882,0.96592 -0.25882,0.96593 -0.25882,0.96592 -0.25882,0.96593 -0.25882,0.96593 -0.25882,0.96592 -0.25882,0.96593 -0.25882,0.96592 -0.25881,0.96593 -0.25882,0.96592 -0.25882,0.96593 0.7071,1.22474 0.96593,0.25882 1.22475,-0.7071 0.25881,-0.96593 1.22475,-0.70711 1.22474,-0.7071 1.22475,-0.70711 1.22474,-0.70711 0.25882,-0.96592 0.70711,1.22474 0.70711,1.22475 1.22474,-0.70711 0.96593,0.25882 0.96592,0.25882 1.22475,-0.70711 1.22474,-0.7071 1.22475,-0.70711 0.96592,0.25882 1.22475,-0.70711 0.96592,0.25882 0.96593,0.25882 0.96593,0.25882 1.22474,-0.70711 0.96593,0.25882 0.96592,0.25882 1.22475,-0.70711 1.22474,-0.7071 0.96593,0.25882 1.22474,-0.70711 1.22475,-0.70711 1.22474,-0.7071 1.22475,-0.70711 1.22474,-0.70711 0.96593,0.25882 -1.22475,0.70711 -0.25882,0.96592 -1.22474,0.70711 -0.25882,0.96593 -1.22474,0.7071 -0.25882,0.96593 -0.25882,0.96592 -0.25882,0.96593 -1.22475,0.70711 0.70711,1.22474 -0.25882,0.96593 -0.25882,0.96592 -0.25882,0.96593 0.70711,1.22474 0.70711,1.22475 0.96592,0.25882 0.96593,0.25882 -0.25882,0.96592 -1.22475,0.70711 -0.25881,0.96593 -0.25882,0.96592 -0.25882,0.96593 -0.25882,0.96592 -0.25882,0.96593 -0.25882,0.96592 -0.25882,0.96593 -0.25882,0.96593 0.70711,1.22474 0.70711,1.22475 0.7071,1.22474 0.70711,1.22475 0.70711,1.22474 0.7071,1.22475 0.96593,0.25881 0.96592,0.25882 0.96593,0.25882 0.96593,0.25882 1.22474,-0.7071 0.96593,0.25881 0.96592,0.25882 -1.22474,0.70711 -1.22475,0.7071097 -0.96592,-0.25882 -1.22475,0.7071 -1.22474,0.70711 -1.22475,0.70711 -1.22474,0.7071 -0.25882,0.96593 -1.22475,0.70711 -1.22474,0.7071 -0.25882,0.96593 -1.22475,0.70711 -1.22474,0.7071 -1.22475,0.70711 -0.25881,0.96593005 -1.22475,0.7071 -1.22474,0.70711 -1.22475,0.70710995 -1.22474,0.7071 -0.25882,0.96593 -0.25882,0.96592 -0.25882,0.96593 -0.25882,0.96593 -0.25882,0.96592 0.70711,1.22475 0.7071,1.22474 0.70711,1.2247503 0.96593,0.25882 0.7071,1.22474 0.96593,0.25882 0.70711,1.22474 0.7071,1.22475 0.96593,0.25882 0.96593,0.25882 0.96592,0.25882 0.70711,1.22474 0.96592,0.25882 0.96593,0.25882 0.96593,0.25882 0.96592,0.25882 0.96593,0.25882 0.96592,0.25882 0.96593,0.25882 1.22474,-0.70711 -3.41541,1.15539 -0.96593,-0.25882 -1.22474,0.70711 -0.96593,-0.25882 -1.22474,0.70711 -0.96593,-0.25882 -0.96593,-0.25882 -1.22474,0.70711 -0.96593,-0.25882 -1.22474,0.7071 -0.96593,-0.25881 -1.22474,0.7071 -0.25882,0.96593 -1.22475,0.70711 -1.22474,0.7071 -1.22475,0.70711 -1.22474,0.70711 -1.22475,0.7071 -1.22474,0.70711 -1.22474,0.70711 -0.25882,0.96592 -1.22475,0.70711 -0.25882,0.96592 -0.25882,0.96593 -0.25882,0.96593 -0.25881,0.96592 0.7071,1.22475 0.70711,1.22474 -0.25882,0.96593 0.70711,1.22474 0.96592,0.25882 -2.63896,-1.74238 -0.7071,-1.22475 -0.96593,-0.25882 -0.96592,-0.25881 -0.96593,-0.25882 -0.96593,-0.25882 -0.96592,-0.25882 -0.96593,-0.25882 -0.96592,-0.25882 -0.96593,-0.25882 -0.96593,-0.25882 -0.96592,-0.25882 -0.96593,-0.25882 -0.96592,-0.25882 -0.96593,-0.25881 -0.96592,-0.25882 -1.22475,0.7071 -1.22474,0.70711 -0.25882,0.96593 -0.25882,0.96592 -0.25882,0.96593 -0.25882,0.96592 -0.25882,0.96593 0.70711,1.22474 -0.25882,0.96593 0.7071,1.22474 -0.25881,0.96593 0.7071,1.22475 0.70711,1.22474 -0.25882,0.96593 0.70711,1.22474 -1.41422,-2.44949 -0.7071,-1.22474 -0.96593,-0.25882 -0.70711,-1.22475 -0.7071,-1.22474 -0.96593,-0.25882 -0.96592,-0.25882 -0.96593,-0.25882 -0.96593,-0.25882 -0.96592,-0.25882 -0.96593,-0.25882 -0.96592,-0.25882 -0.70711,-1.22474 -0.96593,-0.25882 -0.96592,-0.25882 -0.70711,-1.22474 -0.96592,-0.25882 -0.96593,-0.25882 -0.70711,-1.22475 -0.96592,-0.25882 -0.96593,-0.25881 -0.70711,-1.22475 -0.96592,-0.25882 -0.96593,-0.25882 -0.7071,-1.22474 -0.96593,-0.25882 -0.96593,-0.25882 -0.7071,-1.22475 -0.96593,-0.25881 -0.96592,-0.25882 -0.70711,-1.22475 -0.96593,-0.25882 -0.7071,-1.22474 -0.96593,-0.25882 -0.70711,-1.22475 -1.22474,0.70711 -0.25882,0.96593 -0.25882,0.96592 -0.25882,0.96593 -0.25882,0.96592 -1.22474,0.70711 0.7071,1.22475 -0.25881,0.96592 -0.25882,0.96593 -0.25882,0.96592 -0.25882,0.96593 0.70711,1.22474 -0.25882,0.96593 -0.25882,0.96593 -0.25882,0.96592 0.7071,1.22475 -0.25881,0.96592 -0.25882,0.96593 0.7071,1.22474 -0.25882,0.96593 -0.25881,0.96592 0.7071,1.22475 -0.25882,0.96593 -0.25882,0.96592 -0.25881,0.96593 0.7071,1.22474 -0.25882,0.96593 0.70711,1.22475 -0.25882,0.96592 -0.25882,0.96593 -0.25882,0.96592 0.70711,1.22475 -0.25882,0.96593 -0.25882,0.96592 0.70711,1.22475 -0.25882,0.96592 -0.25882,0.96593 -0.25882,0.96592 0.70711,1.22475 -0.25882,0.96592 -0.25882,0.96593 -0.25882,0.96593 0.70711,1.22474 -0.25882,0.96593 -0.25882,0.96592 -0.25882,0.96593 -0.25882,0.96592 0.70711,1.22475 -0.25882,0.96592 -0.25882,0.96593 -0.25882,0.96593 -0.25882,0.96592 -0.25882,0.96593 0.70711,1.22474 -0.25882,0.96593 -0.25882,0.96592 -0.25882,0.96593 -0.25882,0.96593 0.70711,1.22474 -0.25882,0.96593 -0.25882,0.96592 -0.25882,0.96593 -0.25882,0.96592 -0.25882,0.96593 0.70711,1.22474 -0.25882,0.96593 -0.25882,0.96593 -0.25882,0.96592 -0.25881,0.96593 -0.25882,0.96592 -0.25882,0.96593 0.7071,1.22474 -0.25882,0.96593 -0.25881,0.965931 -0.25882,0.96592 -0.25882,0.965924 -0.25882,0.96592 -0.25882,0.96593 -0.25882,0.96593 -0.25882,0.96592 0.70711,1.22475 -0.25882,0.96592 -0.25882,0.96593 -0.25882,0.96592 -0.25882,0.96593 -0.25882,0.96593 -0.25882,0.96592 -0.25882,0.96593 -0.25881,0.96592 -0.25882,0.96593 -0.25882,0.96592 -0.25882,0.96593 -0.25882,0.96593 -0.25882,0.96592 -0.25882,0.96593 -0.25882,0.96592 -0.25882,0.96593 -1.22474,0.70711 0.70711,1.22474 -1.22475,0.70711 -0.25882,0.96592 -0.25882,0.96593 -0.25882,0.96593 -0.25882,0.96592 -0.25881,0.96593 -0.25882,0.96592 -0.25882,0.96593 -0.25882,0.96592 -1.22475,0.70711 -0.25882,0.96593 -0.25881,0.96592 -1.22475,0.70711 -0.25882,0.96593 -1.22474,0.7071 -0.25882,0.96593 -1.22475,0.70711 -0.25882,0.96592 -0.96592,-0.25882 -0.70711,-1.22474 -0.96592,-0.25882 0.25881,-0.96593 0.25882,-0.96592 1.22475,-0.70711 1.22474,-0.70711 0.25882,-0.96592 1.22475,-0.70711 1.22474,-0.70711 0.25882,-0.96592 1.22475,-0.70711 0.25881,-0.96593 0.25882,-0.96592 1.22475,-0.70711 0.25882,-0.96592 0.25882,-0.96593 0.25882,-0.96593 0.25881,-0.96592 0.25882,-0.96593 0.25882,-0.96592 1.22475,-0.70711 0.25882,-0.96593 0.25882,-0.96592 0.25881,-0.96593 0.25882,-0.96592 0.25882,-0.96593 0.25882,-0.96592 0.25882,-0.96593 0.25882,-0.96593 0.25882,-0.96592 0.25882,-0.96593 0.25882,-0.96592 0.25882,-0.96593 0.25882,-0.96593 0.25881,-0.96592 0.25882,-0.96593 0.25882,-0.96592 -0.7071,-1.22475 0.25881,-0.96592 0.25882,-0.96593 0.25882,-0.96593 0.25882,-0.96592 0.25882,-0.965924 0.25882,-0.96592 0.25882,-0.965931 0.25882,-0.96592 -0.18947,-3.1566 0.25882,-0.96593 0.25882,-0.96592 0.25882,-0.96593 0.25882,-0.96592 -0.44829,-2.19067 0.25882,-0.96593 0.25882,-0.96593 0.25882,-0.96592 0.25881,-0.96593 -0.18946,-3.15659 0.25881,-0.96593 0.25882,-0.96593 -0.18947,-3.15659 0.25882,-0.96593 0.25882,-0.96592 0.25882,-0.96593 -0.7071,-1.22475 0.25881,-0.96592 0.25882,-0.96593 0.25882,-0.96592 0.25882,-0.96593 -0.44829,-2.19067 0.25882,-0.96593 0.25882,-0.96592 -0.70711,-1.22475 0.25882,-0.96592 0.25882,-0.96593 0.25882,-0.96592 -0.7071,-1.22475 0.25881,-0.96592 0.25882,-0.96593 -0.44828,-2.19067 0.25881,-0.96593 0.25882,-0.96592 -0.7071,-1.22475 0.25882,-0.96593 -0.70711,-1.22474 0.25882,-0.96593 0.25882,-0.96592 -0.70711,-1.22475 0.25882,-0.96592 0.25882,-0.96593 -0.70711,-1.22475 0.25882,-0.96592 0.25882,-0.96593 0.25882,-0.96592 -0.70711,-1.22475 0.25882,-0.96592 0.25882,-0.96593 0.25882,-0.96593 -0.70711,-1.22474 0.25882,-0.96593 0.25882,-0.96592 0.25882,-0.96593 -0.70711,-1.22474 0.25882,-0.96593 0.25882,-0.96592 0.25882,-0.96593 1.22475,-0.70711 0.25881,-0.96592 0.25882,-0.96593 -0.7071,-1.22474 -1.22475,0.7071 -1.22474,0.70711 -0.96593,-0.25882 -1.22474,0.70711 -0.96593,-0.25882 -1.22474,0.70711 -0.96593,-0.25882 -0.96593,-0.25882 -1.22474,0.7071 -0.96593,-0.25881 -1.22474,0.7071 -0.96593,-0.25882 -1.22474,0.70711 -0.96593,-0.25882 -1.22474,0.70711 -0.96593,-0.25882 -0.96593,-0.25882 -1.22474,0.70711 -0.96593,-0.25882 -0.96592,-0.25882 -0.96593,-0.25882 -0.96592,-0.25882 -0.96593,-0.25882 -0.96592,-0.25882 -1.22475,0.70711 -0.96593,-0.25882 -0.96592,-0.25882 -0.96593,-0.25882 -1.22474,0.70711 -0.96593,-0.25882 -0.96592,-0.25882 -1.22475,0.70711 -0.96592,-0.25882 3.41541,-1.1554 1.22475,-0.7071 1.22474,-0.70711 0.25882,-0.96593 0.25882,-0.96592 0.25882,-0.96593 0.25882,-0.96592 -0.70711,-1.22475 -0.70711,-1.22474 -0.96592,-0.25882 -0.96593,-0.25882 -0.96592,-0.25882 -0.96593,-0.25882 -0.96592,-0.25882 -0.96593,-0.25882 -0.96593,-0.25882 -0.96592,-0.25882 -0.96593,-0.25881 -0.96592,-0.25882 -0.96593,-0.25882 -0.96593,-0.25882 -0.96592,-0.25882 -0.96593,-0.25882 -1.22474,0.70711 -0.96593,-0.25882 -1.22474,0.7071 0.25882,-0.96592 2.19067,-0.44829 0.25882,-0.96592 1.22474,-0.70711 0.25882,-0.96593 -0.70711,-1.2247403 0.25882,-0.96593 -0.7071,-1.22474 -0.70711,-1.22475 -0.70711,-1.22474 -0.96592,-0.25882 -0.70711,-1.22475 -0.70711,-1.22474 -0.96592,-0.25882 -0.70711,-1.22474995 -0.70711,-1.22474 -0.96592,-0.25882005 -0.96593,-0.25882 -0.70711,-1.22474 -0.96592,-0.25882 -0.96593,-0.25882 -0.96592,-0.25882 -0.96593,-0.25882 -0.70711,-1.22474 -0.96592,-0.25882 -0.96593,-0.25882 -0.96592,-0.25882 -0.96593,-0.25882 -0.96592,-0.25882 -0.96593,-0.25882 2.19067,-0.44829 0.96593,0.25882 1.22474,-0.7071 0.96593,0.25881 1.22474,-0.7071 0.96593,0.25882 0.96592,0.25882 0.96593,0.25882 0.96592,0.25881 1.22475,-0.7071 0.96593,0.25882 1.22474,-0.70711 1.22475,-0.70711 1.22474,-0.7071 0.96593,0.25882 0.96592,0.25881 1.22475,-0.7071 1.22474,-0.7071097 0.96593,0.2588197 1.22474,-0.7071097 0.25882,-0.96592 1.22475,-0.70711 0.25882,-0.96593 -0.70711,-1.22474 0.25882,-0.96593 -0.70711,-1.22474 -0.70711,-1.22475 -0.7071,-1.22474 -0.70711,-1.22475 -0.70711,-1.22474 -0.7071,-1.22475 -0.70711,-1.22474 -0.70711,-1.22475 -0.7071,-1.22474 -0.96593,-0.25882 -0.70711,-1.22474 -0.96592,-0.25882 -0.70711,-1.22475 -0.96592,-0.25882 -0.70711,-1.22474 -0.96593,-0.25882 -0.96592,-0.25882 -0.70711,-1.22474 0.96593,0.25881 0.96592,0.25882 0.96593,0.25882 0.96592,0.25882 0.96593,0.25882 1.22474,-0.70711 1.22475,-0.7071 1.22474,-0.70711 0.25882,-0.96593 0.25882,-0.96592 0.25882,-0.96593 0.25882,-0.96592 0.25882,-0.96593 -0.70711,-1.22474 0.25882,-0.96593 1.22475,-0.70711 0.25882,-0.96592 0.25882,-0.96593 0.25881,-0.96592 0.25882,-0.96593 0.25882,-0.96593 0.25882,-0.96592 -0.70711,-1.22475 0.25882,-0.96592 0.25882,-0.96593 -0.7071,-1.22474 -0.70711,-1.22475 0.25882,-0.96592 -0.70711,-1.22475 0.25882,-0.96592 -0.70711,-1.22475 -0.7071,-1.22474 0.25882,-0.96593 -0.70711,-1.22474 0.25882,-0.96593 0.70711,1.22474 0.7071,1.22475 0.96593,0.25882 0.7071,1.22474 0.96593,0.25882 0.70711,1.22475 0.96592,0.25882 0.96593,0.25882 0.70711,1.22474 0.96592,0.25882 0.96593,0.25882 0.96592,0.25882 0.96593,0.25882 0.96592,0.25882 0.96593,0.25881 0.96593,0.25882 0.96592,0.25882 0.96593,0.25882 0.96592,0.25882 0.96593,0.25882 0.96592,0.25882 1.22475,-0.70711 1.22474,-0.7071 1.22475,-0.70711 0.25882,-0.96593 0.25882,-0.96592 0.25882,-0.96593 0.44828,2.19067 0.70711,1.22475 -0.25882,0.96592 0.70711,1.22475 0.7071,1.22474 0.70711,1.22475 0.96593,0.25882 0.7071,1.22474 0.96593,0.25882 0.70711,1.22475 0.96592,0.25881 0.70711,1.22475 0.70711,1.22474 0.7071,1.22475 0.96593,0.25882 0.96592,0.25882 0.96593,0.25882 1.22475,-0.70711 1.22474,-0.70711 0.25882,-0.96592 0.25882,-0.96593 0.25882,-0.96593 0.25882,-0.96592 0.25882,-0.96593 0.25881,-0.96592 0.25882,-0.96593 0.25882,-0.96592 0.25882,-0.96593 0.25882,-0.96593 0.25882,-0.96592 0.25882,-0.96593 0.25882,-0.96592 0.25882,-0.96593 0.25882,-0.96593 0.25882,-0.96592 0.25881,-0.96593 0.25882,-0.96592 -0.7071,-1.22475 0.25882,-0.96592 0.25881,-0.96593 -0.7071,-1.22474 0.25882,-0.96593 0.25882,-0.96593 -0.70711,-1.22474 0.25882,-0.96593 0.7071,1.22475 0.70711,1.22474 0.70711,1.22475 0.70711,1.22474 0.96592,0.25882 0.96593,0.25882 0.96592,0.25882 1.22475,-0.70711 1.22474,-0.7071 0.96593,0.25882 1.22474,-0.70711 1.22475,-0.70711 1.22474,-0.7071 0.25882,-0.96593 1.22475,-0.70711 1.22474,-0.7071 0.25882,-0.96593 0.25882,-0.96593 0.25882,-0.96592 0.25882,-0.96593 0.25882,-0.96592 0.96592,0.25882 0.70711,1.22474 1.22474,-0.70711 0.96593,0.25882 0.96593,0.25882 1.22474,-0.7071 0.25882,-0.96593 1.22474,-0.70711 0.25882,-0.96592 0.25882,-0.96593 0.25882,-0.96593 1.22475,-0.7071 0.25882,-0.96593 0.25881,-0.96592 1.22475,-0.70711 0.25882,-0.96593 0.25882,-0.96592 z m 0,0"
     style="fill:none;stroke:#000000;stroke-width:1;stroke-linecap:butt;stroke-linejoin:miter;stroke-miterlimit:10;stroke-opacity:1" />
  <path
     id="path9"
     d="m -528.14662,-79.691355 0.70711,1.22474 -0.25882,0.96593 -0.25882,0.96593 -0.25882,0.96592 0.70711,1.22475 -0.25882,0.96592 -0.25882,0.96593 -0.25882,0.96592 -0.25882,0.96593 -0.25882,0.96593 0.70711,1.22474 -0.25882,0.96593 -1.22474,0.7071 -0.25882,0.96593 -0.25882,0.96593 -0.25882,0.96592 -0.25882,0.96593 0.70711,1.22474 0.96592,0.25882 0.96593,0.25882 -0.25882,0.96593 -0.25882,0.96592 -0.25882,0.96593 -0.25882,0.96592 -0.25882,0.96593 0.70711,1.22474 0.96593,0.25882 0.96592,0.25882 0.70711,1.22475 -0.25882,0.96592 -0.25882,0.96593 -0.25882,0.96592 -0.25882,0.96593 -0.25882,0.96593 0.70711,1.22474 1.22474,-0.70711 0.96593,0.25882 0.96593,0.25882 -0.25882,0.96593 0.7071,1.22474 -0.25881,0.96593 0.7071,1.22474 -0.25882,0.96593 -0.25882,0.96593 0.70711,1.22474 0.96593,0.25882 1.22474,-0.70711 0.70711,1.22475 -0.25882,0.96592 -0.25882,0.96593 -0.25882,0.96592 -0.25882,0.96593 0.70711,1.22475 -0.25882,0.96592 -0.25882,0.96593 0.70711,1.22474 1.22474,-0.7071 0.96593,0.25881 0.96592,0.25882 0.70711,1.22475 -0.25882,0.96592 -0.25882,0.96593 -0.25882,0.96593 -0.25882,0.96592 -0.25881,0.96593 -0.25882,0.96592 -1.22475,0.70711 -0.25882,0.96593 0.70711,1.22474 0.96593,0.25882 0.7071,1.22474 -0.25882,0.96593 -0.25882,0.96593 -1.22474,0.7071 -0.25882,0.96593 -0.25882,0.96592 0.70711,1.22475 -1.22475,0.70711 -0.25882,0.96592 -0.25882,0.96593 -0.25881,0.96592 -0.25882,0.9659297 0.7071,1.22474 0.96593,0.25882 0.70711,1.22475 0.96592,0.25882 -0.25882,0.96592 -1.22474,0.70711 -0.25882,0.96593 -0.25882,0.96592 -0.25882,0.96593 -0.25882,0.96592005 -1.22474,0.707109995763 0.7071,1.224749954237 0.96593,0.25881 0.96593,0.25882 1.22474,-0.7071 0.96593,0.25882 0.96592,0.25881 0.96593,0.25882 0.7071,1.22475 0.96593,0.25882 1.22475,-0.70711 0.96592,0.25882 1.22475,-0.70711 1.22474,-0.7071 0.96593,0.25882 1.22474,-0.70710995 1.22475,-0.70711 -0.25882,0.96592995 -0.25882,0.96592 -0.25882,0.96593 -0.25882,0.96593 -0.25882,0.96592 -0.25882,0.96593 -1.22474,0.7071 -0.25882,0.96593 -0.25882,0.96593 -1.22475,0.7071 -1.22474,0.7071103 -0.25882,0.96592 -1.22474,0.70711 0.7071,1.22475 0.70711,1.22474 -0.25882,0.96593 -1.22475,0.7071 -1.22474,0.70711 -1.22474,0.70711 -0.25882,0.96592 -0.25882,0.96593 -0.25882,0.96592 -0.25882,0.96593 -0.25882,0.96593 -0.25882,0.96592 0.70711,1.22475 0.96592,0.25882 0.96593,0.25882 -0.25882,0.96592 -1.22474,0.70711 -0.25882,0.96592 -0.25882,0.96593 -0.25882,0.96593 -0.25882,0.96592 -0.25882,0.96593 0.70711,1.22474 -0.25882,0.96593 -1.22475,0.7071 -0.25882,0.96593 -1.22474,0.70711 0.70711,1.22474 -1.22475,0.70711 -0.25882,0.96592 0.70711,1.22475 0.96592,0.25882 0.96593,0.25882 0.96593,0.25882 1.22474,-0.70711 0.96593,0.25882 -0.25882,0.96592 -0.25882,0.96593 -0.25882,0.96593 -0.25882,0.96592 -0.25882,0.96593 -0.25882,0.96593 -1.22474,0.70711 -0.25882,0.96592 -0.25882,0.96593 -0.25882,0.96592 -0.25882,0.96593 -1.22474,0.70711 -1.22475,0.7071 0.70711,1.22475 -0.25882,0.96592 -1.22475,0.70711 -0.25881,0.96593 0.7071,1.22474 0.96593,0.25882 0.96592,0.25882 0.70711,1.22474 -0.25882,0.96593 -0.25882,0.96592 -1.22474,0.70711 -0.25882,0.96593 -0.25882,0.96592 -0.25882,0.96593 -1.22474,0.70711 -1.22475,0.7071 -0.25882,0.96593 0.70711,1.22474 0.96592,0.25882 0.70711,1.22475 0.96593,0.25882 -0.25882,0.96592 -0.25882,0.96593 -1.22475,0.7071 -0.25881,0.96593 -1.22475,0.70711 -1.22474,0.7071 0.7071,1.22475 -1.22474,0.70711 -1.22475,0.7071 -1.22474,0.70711 -0.25882,0.96593 0.70711,1.22474 -0.25882,0.96593 -1.22475,0.7071 -1.22474,0.70711 -0.25882,0.96593 -1.22475,0.7071 -0.25882,0.96593 -1.22474,0.7071 -1.22475,0.70711 -0.25882,0.96593 0.70711,1.22474 0.96593,0.25882 -0.25882,0.96593 -0.25882,0.96592 -1.22475,0.70711 -0.25881,0.96593 -1.22475,0.7071 -0.25882,0.96593 -0.25882,0.96592 -0.25882,0.96593 -0.25882,0.96593 -0.96592,-0.25882 -1.22475,0.7071 -0.25882,0.965928 -1.22474,0.70711 -0.25882,0.965917 0.70711,1.22475 0.7071,1.22474 0.70711,1.22475 -1.22474,0.7071 -1.22475,0.70711 -1.22474,0.70711 -1.22475,0.7071 -0.25882,0.96593 -0.25882,0.96593 -1.22474,0.7071 -1.22475,0.70711 -0.25882,0.96592 -1.22474,0.70711 -1.22475,0.70711 0.70711,1.22474 0.70711,1.22475 -0.25882,0.96592 -1.22475,0.70711 -1.22474,0.70711 -0.96593,-0.25882 -1.22474,0.70711 -1.22475,0.7071 -0.25882,0.96593 -1.22474,0.7071 -1.22475,0.70711 -1.22474,0.70711 -0.25882,0.96592 -0.25882,0.96593 -0.25882,0.96593 -0.96592,-0.25882 -1.22475,0.7071 -0.96592,-0.25882 -1.22475,0.70711 -1.22474,0.70711 -0.96593,-0.25882 -1.22474,0.70711 -0.25882,0.96592 -0.25882,0.96593 -1.22475,0.7071 -0.96592,-0.25882 -1.22475,0.70711 -1.22474,0.70711 -0.96593,-0.25882 -1.22474,0.70711 -0.25882,0.96592 -1.22475,0.70711 -0.96592,-0.25882 -0.96593,-0.25882 -0.96592,-0.25882 -0.96593,-0.25882 -0.96594,-0.25882 -0.7071,-1.22474 -1.22475,0.70711 -1.22474,0.7071 -0.25882,0.96593 -0.96593,-0.25882 -1.22474,0.70711 -0.96593,-0.25882 -0.96592,-0.25882 -0.96593,-0.25882 -1.22475,0.70711 -0.96592,-0.25882 -0.96593,-0.25882 -1.22474,0.7071 -1.22475,0.70711 -0.25882,0.96593 -0.25881,0.96592 -1.22475,0.70711 -0.96592,-0.25882 -0.96593,-0.25882 -0.96593,-0.25882 -0.96592,-0.25882 -0.70711,-1.22474 0.25882,-0.96593 0.25882,-0.96592 0.25882,-0.96593 -0.70711,-1.22474 0.25882,-0.96593 0.25882,-0.96593 0.25882,-0.96592 0.25882,-0.96593 0.25882,-0.96592 0.25882,-0.96593 -0.70711,-1.22474 -0.70711,-1.22475 -0.7071,-1.22474 -0.70711,-1.22475 -0.70711,-1.22474 0.25882,-0.96593 -0.70711,-1.22474 -0.96592,-0.25882 -0.70711,-1.22475 -0.7071,-1.22474 0.25881,-0.96593 -0.7071,-1.22474 0.25882,-0.96593 -0.70711,-1.22474 -0.70711,-1.22475 -0.7071,-1.22474 0.25882,-0.96593 1.22474,-0.70711 -0.70711,-1.22474 -0.7071,-1.22475 -0.70711,-1.22474 0.25882,-0.96593 -0.70711,-1.224737 0.25882,-0.965928 1.22475,-0.7071 0.25882,-0.96593 -0.70711,-1.22475 -0.70711,-1.22474 0.25882,-0.96593 -0.70711,-1.22474 0.25882,-0.96593 0.25882,-0.96592 0.25882,-0.96593 0.25882,-0.96592 -0.70711,-1.22475 0.25882,-0.96593 -0.7071,-1.22474 0.25881,-0.96593 0.25882,-0.96592 0.25882,-0.96593 -0.7071,-1.22474 -0.70711,-1.22475 0.25882,-0.96592 -0.70711,-1.22475 0.25882,-0.96592 1.22475,-0.70711 0.25881,-0.96593 -0.7071,-1.22474 0.25882,-0.96593 -0.70711,-1.22474 0.25882,-0.96593 -0.70711,-1.22474 0.25882,-0.96593 1.22475,-0.70711 0.25882,-0.96592 -0.70711,-1.22475 -0.70711,-1.22474 -0.70711,-1.22475 0.25882,-0.96592 1.22475,-0.70711 0.25882,-0.96592 0.25882,-0.96593 -0.70711,-1.22474 -0.70711,-1.22475 0.25882,-0.96593 -0.7071,-1.22474 -0.70711,-1.22475 0.25882,-0.96592 -0.70711,-1.22475 1.22475,-0.7071 1.22474,-0.70711 0.25882,-0.96593 -0.70711,-1.22474 -0.7071,-1.22475 0.25882,-0.96593 0.25881,-0.96592 0.25882,-0.96593 -0.7071,-1.22474 0.25882,-0.96593 0.25881,-0.96592 0.96593,0.25882 1.22475,-0.70711 0.25881,-0.96593 -0.7071,-1.22474 -0.70711,-1.22475 0.25882,-0.96592 -0.70711,-1.22475 -0.7071,-1.22474 0.25882,-0.96593 1.22474,-0.70711 1.22475,-0.7071 0.25881,-0.96593 0.25882,-0.96592 -0.7071,-1.22475 -0.70711,-1.22474 0.25882,-0.96593 -0.70711,-1.22474 0.25882,-0.96593 -0.70711,-1.22474 0.25882,-0.96593 -0.7071,-1.22475 0.25882,-0.96592 0.25881,-0.96593 0.96593,0.25882 0.96593,0.25882 1.22474,-0.70711 0.25882,-0.96592 -0.70711,-1.22475 0.25882,-0.96592 -0.7071,-1.22475 0.25881,-0.96592 0.25882,-0.96593 0.25882,-0.9659203 0.25882,-0.96593 -0.7071,-1.22475 0.25881,-0.96592 -0.7071,-1.22475 0.25882,-0.96592 -0.70711,-1.22475 0.25882,-0.96592 1.22474,-0.70711 0.96593,0.25882 1.22474,-0.70711 1.22475,-0.70709995 -0.70711,-1.22475 0.25882,-0.96592005 0.25882,-0.96593 0.25882,-0.96593 -0.70711,-1.22474 0.25882,-0.96593 0.25882,-0.96592 1.22475,-0.70711 -0.70711,-1.22474 0.25882,-0.96593 0.25882,-0.9659297 0.25882,-0.96592 0.25882,-0.96593 0.25881,-0.96592 0.25882,-0.96593 1.22475,-0.70711 0.96592,0.25882 0.96593,0.25882 0.96592,0.25882 1.22475,-0.70711 -0.70711,-1.22474 0.25882,-0.96593 0.25882,-0.96592 1.22475,-0.70711 0.25881,-0.96593 0.25882,-0.96592 0.25882,-0.96593 -0.7071,-1.22474 0.25881,-0.96593 0.25882,-0.96592 1.22475,-0.70711 0.96592,0.25882 1.22475,-0.70711 0.25882,-0.96592 0.25882,-0.96593 -0.70711,-1.22474 1.22475,-0.70711 0.25881,-0.96593 0.25882,-0.96592 0.25882,-0.96593 0.25882,-0.96592 0.25882,-0.96593 0.25882,-0.96593 0.96593,0.25882 0.96592,0.25882 1.22475,-0.7071 0.25882,-0.96593 -0.70711,-1.22475 1.22474,-0.7071 0.25882,-0.96593 0.25882,-0.96592 0.25882,-0.96593 1.22475,-0.70711 0.96592,0.25882 0.70712,1.22475 1.22474,-0.70711 0.25882,-0.96593 0.25882,-0.96592 0.25882,-0.96593 0.25882,-0.96592 1.22474,-0.70711 1.22475,-0.70711 0.25882,-0.96592 0.25882,-0.96593 1.22474,-0.7071 0.96593,0.25881 0.7071,1.22475 0.70711,1.22474 1.22475,-0.7071 0.25882,-0.96593 0.25881,-0.96592 1.22475,-0.70711 1.22474,-0.70711 0.25882,-0.96592 1.22475,-0.70711 0.25882,-0.96593 0.96592,0.25882 0.70711,1.22475 0.96593,0.25882 1.22474,-0.70711 1.22475,-0.70711 0.25881,-0.96592 0.25882,-0.96593 1.22475,-0.70711 1.22474,-0.7071 0.25882,-0.96593 0.96593,0.25882 0.7071,1.22475 0.70711,1.22474 1.22475,-0.70711 1.22474,-0.7071 0.25882,-0.96593 1.22475,-0.70711 0.25881,-0.96592 1.22475,-0.70711 0.96593,0.25882 1.22474,-0.70711 1.22474,-0.7071 0.25882,-0.96593 0.25882,-0.96592 1.22475,-0.70711 0.7071,1.22474 1.22475,-0.7071 1.22474,-0.70711 -0.7071,-1.22474 0.25882,-0.96593 1.22474,-0.70711 0.96593,0.25882 1.22474,-0.7071 0.25882,-0.96593 0.25882,-0.96593 0.25882,-0.96592 0.25882,-0.96593 0.25882,-0.96592 1.22474,-0.70711 0.25882,-0.96593 0.25882,-0.96592 0.25882,-0.96593 1.22474,-0.70711 0.25882,-0.96592 1.22475,-0.70711 0.25882,-0.96592 0.25882,-0.96593 z m 0,0"
     style="fill:none;stroke:#000000;stroke-width:1;stroke-linecap:butt;stroke-linejoin:miter;stroke-miterlimit:10;stroke-opacity:1" />
  <path
     id="path11"
     d="m -374.08678,-69.255635 0.70711,1.22474 0.70711,1.22475 0.7071,1.22474 -0.25881,0.96593 0.7071,1.22474 -0.25882,0.96593 0.70711,1.22474 -0.25882,0.96593 -0.25882,0.96592 0.70711,1.22475 0.70711,1.22474 0.96592,0.25882 0.96593,0.25882 0.96592,0.25882 0.96593,0.25882 0.96592,0.25882 0.96593,0.25882 0.70711,1.22474 -0.25882,0.96593 -0.25882,0.96592 0.70711,1.22475 -0.25882,0.96593 -0.25882,0.96592 -0.25882,0.96593 -0.25882,0.96592 -0.25882,0.96593 -0.25882,0.96592 -0.25882,0.96593 -0.25882,0.96593 -0.25882,0.96592 0.70711,1.22475 0.96593,0.25882 1.22474,-0.70711 0.96593,0.25882 0.96592,0.25882 0.96593,0.25882 1.22474,-0.70711 0.96593,0.25882 0.96593,0.25882 0.96592,0.25882 0.96593,0.25882 0.7071,1.22474 -0.25881,0.96593 0.7071,1.22474 -0.25882,0.96593 -0.25882,0.96592 -0.25881,0.96593 0.7071,1.22474 -0.25882,0.96593 -1.22474,0.70711 -0.25882,0.96592 -0.25882,0.96593 -0.25882,0.96592 -0.25882,0.96593 -0.25882,0.96593 -1.22474,0.7071 -0.25882,0.96593 -0.25882,0.96592 -1.22475,0.70711 -0.25881,0.96593 -1.22475,0.7071 -0.25882,0.96593 -0.25882,0.96592 0.70711,1.22475 0.96593,0.25882 0.96592,0.25882 0.96593,0.25882 0.96592,0.25882 0.96593,0.25882 0.96592,0.25881 0.96593,0.25882 1.22475,-0.7071 0.7071,1.22474 0.96593,0.25882 0.96592,0.25882 0.96593,0.25882 0.96593,0.25882 0.7071,1.22474 0.96593,0.25882 0.96592,0.25882 0.70711,1.22475 -0.25882,0.96592 0.70711,1.2247497 -0.25882,0.96592 -0.25882,0.96593 -0.25882,0.96592 -0.25882,0.96593 -0.25882,0.96593 -0.25882,0.96592 -0.25881,0.96593 -0.25882,0.96592 -0.25882,0.96593005 -0.25882,0.96592 -1.22475,0.70711 -0.25882,0.96592995 -0.25882,0.96592 -1.22474,0.70711 -0.25882,0.96593 -1.22474,0.7071 -0.25882,0.96593 -1.22475,0.7071 -1.22474,0.70711 -1.22475,0.70711 -0.25882,0.96592 -1.22474,0.70711 -1.22475,0.7071103 -1.22474,0.7071 -1.22475,0.70711 -0.25882,0.96593 -1.22474,0.7071 -1.22474,0.70711 -1.22475,0.70711 -0.25882,0.96592 0.70711,1.22475 0.96592,0.25882 0.96593,0.25882 0.70711,1.22474 0.96592,0.25882 0.96593,0.25882 0.96592,0.25882 0.96593,0.25882 0.96593,0.25882 0.96592,0.25882 0.70711,1.22474 0.96592,0.25882 0.70711,1.22474 0.96593,0.25882 -0.25882,0.96593 0.7071,1.22474 0.96593,0.25882 -0.25882,0.96593 0.70711,1.22474 -0.25882,0.96593 -1.22475,0.70711 -0.25882,0.96592 -0.25881,0.96593 -0.25882,0.96592 -1.22475,0.70711 -0.25882,0.96593 -0.25882,0.96592 -1.22474,0.70711 -0.25882,0.96592 -1.22475,0.70711 -0.25881,0.96593 -1.22475,0.7071 -1.22474,0.70711 -1.22475,0.70711 -1.22474,0.7071 -1.22475,0.70711 -1.22474,0.70711 -1.22475,0.7071 -0.25882,0.96593 -1.22474,0.70711 -0.96593,-0.25882 -1.22474,0.70711 -1.22475,0.7071 -1.22474,0.70711 -1.22475,0.70711 -0.96592,-0.25882 -1.22475,0.7071 -1.22474,0.70711 -1.22475,0.70711 -1.22474,0.7071 -0.96593,-0.25881 -1.22474,0.7071 -0.96593,-0.25882 -0.96593,-0.25882 -0.96592,-0.25882 -1.22475,0.70711 -0.96592,-0.25882 -1.22475,0.70711 -0.96592,-0.25882 -1.22475,0.70711 -0.25882,0.96592 0.70711,1.22475 0.70711,1.22474 0.96592,0.25882 0.96593,0.25882 0.96592,0.25882 0.96593,0.25882 0.96593,0.25882 0.7071,1.22474 0.96593,0.25882 0.96592,0.25882 0.70711,1.22475 0.96593,0.25881 0.7071,1.22475 0.96593,0.25882 0.70711,1.22474 -0.25882,0.96593 0.7071,1.22474 -1.22474,0.70711 -0.25882,0.96593 -0.25882,0.96592 -0.25882,0.96593 -0.25882,0.96592 -1.22474,0.70711 -0.25882,0.96593 -1.22475,0.7071 -0.25881,0.96593 -1.22475,0.70711 -1.22474,0.7071 -1.22475,0.70711 -1.22474,0.70711 -0.96593,-0.25882 -1.22474,0.7071 -0.96593,-0.25881 -1.22475,0.7071 -0.96592,-0.25882 -1.22475,0.70711 -1.22474,0.70711 -0.96593,-0.25882 -1.22474,0.7071 -0.96593,-0.25881 -1.22474,0.7071 -0.96593,-0.25882 -1.22474,0.70711 -0.96593,-0.25882 -1.22474,0.70711 -1.22475,0.7071 -1.22474,0.70711 -0.96593,-0.25882 -1.22474,0.70711 -0.96593,-0.25882 -1.22475,0.70711 -0.96592,-0.25882 -1.22475,0.7071 -0.96592,-0.25881 -1.22475,0.7071 0.70711,1.22475 0.70711,1.22474 0.96592,0.25882 0.70711,1.22475 0.70711,1.22474 -0.25882,0.96593 -0.25882,0.96592 -0.25882,0.96593 -1.22475,0.7071 -0.25881,0.96593 -1.22475,0.70711 -0.25882,0.96592 -1.22474,0.70711 -1.22475,0.70711 -0.25882,0.96592 -0.25882,0.96593 -1.22474,0.70711 -0.25882,0.965918 -1.22475,0.70711 -0.25881,0.965917 -0.25882,0.96593 -0.25882,0.96593 -1.22475,0.7071 -0.25882,0.96593 -1.22474,0.7071 -0.25882,0.96593 -1.22474,0.70711 -0.25882,0.96592 -1.22475,0.70711 -0.96592,-0.25882 -1.22475,0.70711 -0.96593,-0.25882 -0.96592,-0.25882 -1.22475,0.70711 -1.22474,0.7071 -0.25882,0.96593 -0.25882,0.96592 -0.25882,0.96593 -0.25882,0.96593 -0.25882,0.96592 -0.25882,0.96593 0.70711,1.22474 -0.25882,0.96593 -0.25882,0.96592 -0.25882,0.96593 -0.25882,0.96593 -0.25881,0.96592 0.7071,1.22475 -0.25882,0.96592 -0.25882,0.96593 -1.22474,0.70711 -0.25882,0.96592 -1.22474,0.70711 -0.96593,-0.25882 -0.96593,-0.25882 -0.7071,-1.22474 -0.70711,-1.22475 0.25882,-0.96593 0.25882,-0.96592 0.25882,-0.96593 1.22474,-0.7071 0.25882,-0.96593 0.25882,-0.96593 0.25882,-0.96592 0.25882,-0.96593 0.25882,-0.96592 0.25882,-0.96593 0.25882,-0.96592 0.25881,-0.96593 0.25882,-0.96593 0.25882,-0.96592 0.25882,-0.96593 0.25882,-0.96592 -0.70711,-1.22475 -0.96592,-0.25882 -0.96593,-0.25882 -0.96592,-0.25882 -0.96593,-0.25881 -0.70711,-1.22475 -0.96592,-0.25882 -0.70711,-1.22474 -0.70711,-1.22475 0.25882,-0.96592 -0.7071,-1.22475 0.25882,-0.965927 0.25881,-0.96592 -0.7071,-1.224748 0.25882,-0.96592 -0.70711,-1.22475 0.25882,-0.96592 0.25882,-0.96593 -0.70711,-1.22474 0.25882,-0.96593 0.25882,-0.96592 -0.70711,-1.22475 -0.7071,-1.22474 0.25882,-0.96593 -0.70711,-1.22475 0.25882,-0.96592 -0.70711,-1.22475 0.25882,-0.96592 0.25882,-0.96593 0.25882,-0.96592 0.25882,-0.96593 0.25882,-0.96593 0.25882,-0.96592 0.25881,-0.96593 0.25882,-0.96592 1.22475,-0.70711 0.96592,0.25882 1.22475,-0.70711 1.22474,-0.7071 0.25882,-0.96593 -0.7071,-1.22474 -0.70711,-1.22475 0.25882,-0.96593 -0.70711,-1.22474 0.25882,-0.96593 -0.70711,-1.22474 -0.7071,-1.22475 0.25882,-0.96592 -0.70711,-1.22475 0.25882,-0.96592 -0.70711,-1.22475 0.25882,-0.96592 -0.70711,-1.22475 -0.7071,-1.22474 0.25882,-0.96593 0.25882,-0.96592 -0.70711,-1.22475 0.25882,-0.96593 -0.70711,-1.22474 0.25882,-0.96593 0.25882,-0.96592 0.25882,-0.96593 0.25882,-0.96592 0.25882,-0.96593 1.22474,-0.70711 0.25882,-0.96592 0.96593,0.25882 1.22474,-0.70711 0.96593,0.25882 0.96592,0.25882 1.22475,-0.70711 0.25882,-0.96592 0.25882,-0.96593 -0.70711,-1.22475 -0.96593,-0.25881 0.25882,-0.96593 -0.70711,-1.22475 -0.96592,-0.25881 -0.70711,-1.22475 -0.7071,-1.22474 -0.96593,-0.25882 -0.70711,-1.22475 -0.96592,-0.25882 -0.70711,-1.22474 -0.96593,-0.25882 -0.7071,-1.22475 -0.70711,-1.22474 -0.70711,-1.22475 -0.96592,-0.25881 -0.70711,-1.22475 -0.70711,-1.22474 -0.7071,-1.22475 -0.70711,-1.22474 -0.70711,-1.22475 -0.7071,-1.22474 -0.70711,-1.22475 -0.70711,-1.22474 -0.7071,-1.22475 -0.70711,-1.22474 -0.70711,-1.22475 -0.7071,-1.22474 0.25882,-0.96593 -0.70711,-1.22474 -0.70711,-1.22475 0.25882,-0.9659203 -0.70711,-1.22475 0.25882,-0.96593 0.25882,-0.96592 0.25882,-0.96593 -0.70711,-1.22474 0.25882,-0.96593 0.25882,-0.96592 -0.7071,-1.22475 0.25882,-0.96591995 0.25881,-0.96593 0.25882,-0.96593005 0.25882,-0.96592 0.25882,-0.96593 0.25882,-0.96592 0.25882,-0.96593 0.25882,-0.96592 0.25882,-0.96593 0.25882,-0.96593 0.25882,-0.96592 1.22474,-0.7071097 0.96593,0.2588197 1.22474,-0.7071097 0.96593,0.25882 0.96592,0.25882 1.22475,-0.70711 0.96592,0.25882 0.96593,0.25882 0.96593,0.25882 1.22474,-0.70711 0.96593,0.25882 0.96592,0.25882 0.96593,0.25882 0.7071,1.2247497 0.96593,0.25882 0.96593,0.25881 0.96592,0.25882 1.22475,-0.7071 0.25882,-0.96593 -0.70711,-1.2247397 0.25882,-0.96593 -0.70711,-1.22474 -0.70711,-1.22475 -0.96592,-0.25882 0.25882,-0.96592 -0.70711,-1.22475 -0.70711,-1.22474 -0.7071,-1.22475 0.25882,-0.96592 -0.70711,-1.22475 0.25882,-0.96593 -0.70711,-1.22474 0.25882,-0.96593 0.25882,-0.96592 0.25882,-0.96593 0.25882,-0.96592 -0.70711,-1.22475 0.25882,-0.96592 -0.70711,-1.22475 0.25882,-0.96592 0.25882,-0.96593 0.25882,-0.96593 0.25882,-0.96592 0.25882,-0.96593 0.25882,-0.96592 0.25882,-0.96593 0.25882,-0.96593 0.25882,-0.96592 0.25881,-0.96593 0.25882,-0.96592 0.25882,-0.96593 0.25882,-0.96592 0.25882,-0.96593 0.25882,-0.96593 1.22474,-0.7071 0.25882,-0.96593 1.22475,-0.70711 0.25882,-0.96592 0.96592,0.25882 0.96593,0.25882 1.22474,-0.70711 0.96593,0.25882 0.96593,0.25882 0.96592,0.25882 0.96593,0.25882 0.96593,0.25881 0.96592,0.25882 0.70711,1.22475 0.96592,0.25882 0.96593,0.25882 0.70711,1.22474 0.96592,0.25882 0.96593,0.25882 0.7071,1.22474 0.96593,0.25882 0.96592,0.25882 0.70711,1.22475 1.22475,-0.70711 0.25882,-0.96592 0.25881,-0.96593 0.25882,-0.96593 0.25882,-0.96592 0.25882,-0.96593 0.25882,-0.96592 0.25882,-0.96593 -0.70711,-1.22474 0.25882,-0.96593 0.25882,-0.96593 0.25882,-0.96592 0.25882,-0.96593 0.25882,-0.96592 0.25882,-0.96593 0.25882,-0.96593 0.25882,-0.96592 0.25881,-0.96593 0.25882,-0.96592 0.25882,-0.96593 0.25882,-0.96592 1.22475,-0.70711 0.25882,-0.96593 0.25881,-0.96592 1.22475,-0.70711 1.22474,-0.70711 0.96593,0.25882 0.96593,0.25882 0.96592,0.25882 0.96593,0.25882 0.96592,0.25882 0.70711,1.22474 0.96593,0.25882 0.7071,1.22475 0.96593,0.25882 0.70711,1.22474 0.7071,1.22475 0.96593,0.25882 0.96592,0.25881 1.22475,-0.7071 1.22474,-0.70711 0.25882,-0.96592 1.22475,-0.70711 0.25882,-0.96593 0.25882,-0.96592 0.25881,-0.96593 1.22475,-0.70711 0.25882,-0.96592 1.22474,-0.70711 0.96593,0.25882 1.22474,-0.70711 0.96593,0.25882 1.22474,-0.7071 0.96593,0.25881 1.22475,-0.7071 1.22474,-0.70711 1.22475,-0.70711 1.22474,-0.7071 0.96593,0.25882 1.22474,-0.70711 0.96593,0.25882 0.96592,0.25882 0.96593,0.25882 z m 0,0"
     style="fill:none;stroke:#000000;stroke-width:1;stroke-linecap:butt;stroke-linejoin:miter;stroke-miterlimit:10;stroke-opacity:1" />
  <path
     id="path13"
     d="m -229.69979,-77.251155 -0.25882,0.96592 0.70711,1.22475 -0.25882,0.96592 0.70711,1.22475 0.96592,0.25882 0.96593,0.25882 -0.25882,0.96592 -0.25882,0.96593 0.70711,1.22474 0.7071,1.22475 -0.25882,0.96593 0.70711,1.22474 0.70711,1.22474 0.96592,0.25882 0.96593,0.25882 0.96593,0.25882 -0.25882,0.96593 0.7071,1.22474 0.70711,1.22475 0.70711,1.22474 0.7071,1.22475 -0.25881,0.96592 0.7071,1.22475 0.96593,0.25882 0.96592,0.25882 0.96593,0.25882 0.96593,0.25881 0.7071,1.22475 -0.25882,0.96592 0.70711,1.22475 -0.25882,0.96593 0.70711,1.22474 0.7071,1.22475 0.96593,0.25881 0.96593,0.25882 -0.25882,0.96593 0.7071,1.22474 0.70711,1.22475 0.70711,1.22474 0.96592,0.25882 0.96593,0.25882 0.96592,0.25882 0.70711,1.22475 -0.25882,0.96592 0.70711,1.22475 -0.25882,0.96592 0.70711,1.22475 0.7071,1.22474 0.96593,0.25882 0.70711,1.22475 -0.25882,0.96592 -0.25882,0.96593 -0.25882,0.96592 0.70711,1.22475 0.96592,0.25882 0.70711,1.22474 -0.25882,0.96593 0.70711,1.22474 0.7071,1.22475 0.70711,1.22474 0.96593,0.25882 0.96592,0.25882 0.96593,0.25882 0.7071,1.22475 -0.25882,0.96592 -0.25881,0.96593 0.7071,1.22474 -0.25882,0.96593 0.70711,1.22474 -0.25882,0.96593 0.70711,1.22474 -0.25882,0.96593 -0.25882,0.96592 -0.25882,0.96593 -0.25882,0.9659297 0.70711,1.22474 0.96592,0.25882 -0.25881,0.96593 -0.25882,0.96592 -0.25882,0.96593 -0.25882,0.96592 -0.25882,0.96593 -0.25882,0.96593 -0.25882,0.96592 -1.22474,0.70711 -0.25882,0.96592005 0.7071,1.22474995 0.96593,0.25882 0.96593,0.25882 -0.25882,0.96592 -0.25882,0.96593 -1.22475,0.70711 0.70711,1.22474 -0.25882,0.96593 -0.25882,0.96592 0.70711,1.22475 0.96592,0.25882 -0.25882,0.96592 -0.25881,0.9659303 -0.25882,0.96592 -1.22475,0.70711 -0.25882,0.96593 -0.25882,0.96592 -0.25882,0.96593 0.70711,1.22474 -0.25882,0.96593 -0.25882,0.96592 -0.25882,0.96593 -1.22474,0.70711 -0.25882,0.96592 0.70711,1.22475 -0.25882,0.96592 -0.25882,0.96593 -1.22475,0.70711 -0.25881,0.96592 -1.22475,0.70711 -0.25882,0.96592 -1.22474,0.70711 -0.25882,0.96593 -0.25882,0.96592 -0.25882,0.96593 -0.25882,0.96592 -1.22474,0.70711 -0.25882,0.96593 -1.22475,0.7071 -0.25882,0.96593 -1.22474,0.70711 -1.22475,0.7071 -0.25882,0.96593 -1.22474,0.70711 -0.25882,0.96592 -0.25882,0.96593 -1.22474,0.7071 -1.22475,0.70711 -1.22474,0.70711 -1.22475,0.7071 -1.22474,0.70711 -0.25882,0.96593 -1.22475,0.7071 -0.25882,0.96593 -1.22474,0.70711 -0.25882,0.96592 -1.22475,0.70711 -0.25881,0.96592 -1.22475,0.70711 -1.22474,0.70711 -1.22475,0.70711 -0.25882,0.96592 -1.22474,0.70711 -1.22475,0.7071 -0.96592,-0.25881 -1.22475,0.7071 -1.22474,0.70711 -0.25882,0.96592 -1.22475,0.70711 -1.22474,0.70711 -1.22475,0.70711 -1.22474,0.7071 -1.22475,0.70711 -1.22474,0.70711 -0.25882,0.96593 -1.22475,0.7071 -1.22474,0.70711 -1.22475,0.70711 -0.25881,0.96592 -1.22475,0.70711 -1.22474,0.70711 -0.25882,0.96592 -0.25882,0.96593 -0.25882,0.96592 -0.96593,-0.25882 -1.22474,0.70711 -1.22475,0.70711 -1.22474,0.7071 -0.25882,0.96593 -0.96593,-0.25882 -0.96592,-0.25882 -1.22475,0.70711 -1.22474,0.70711 0.7071,1.22474 -1.22474,0.70711 -1.22475,0.7071 -1.22474,0.70711 -1.22475,0.70711 -1.22474,0.7071 -0.25882,0.96593 -1.22474,0.70711 -0.25882,0.96592 -0.25882,0.96593 -0.25882,0.96592 -0.25882,0.96593 -0.25882,0.96593 -0.25882,0.96592 -0.25882,0.96593 -0.25882,0.96592 -0.25882,0.96593 -0.25881,0.96593 -0.25882,0.96592 0.7071,1.22475 -0.25882,0.96592 -0.25881,0.96593 -0.25882,0.96592 -0.25882,0.96593 -0.25882,0.96593 0.7071,1.22474 -0.25881,0.965931 -0.25882,0.96592 -0.25882,0.965934 -0.25882,0.96592 -0.25882,0.96593 -0.25882,0.96593 -0.25882,0.96592 -0.25882,0.96592 -0.25882,0.96592 -0.25882,0.96593 -0.25881,0.96592 0.7071,1.22475 -0.25882,0.96592 -0.25882,0.96593 -0.25882,0.96593 -0.25881,0.96592 -0.25882,0.96593 -0.25882,0.96592 -0.25882,0.96593 -0.25882,0.96593 -0.25882,0.96592 -0.25882,0.96593 -1.22474,0.7071 -0.25882,0.96593 -0.25882,0.96593 -0.25882,0.96592 -0.25882,0.96593 -0.25882,0.96592 -0.25882,0.96593 -0.25882,0.96592 -1.22474,0.70711 -0.25882,0.96593 -1.22475,0.7071 -0.25881,0.96593 -1.22475,0.70711 -1.22474,0.7071 -0.25882,0.96593 -1.22475,0.70711 -1.22474,0.7071 -1.22475,0.70711 -0.96593,-0.25882 -0.96592,-0.25882 0.25882,-0.96592 0.25881,-0.96593 0.25882,-0.96593 0.25882,-0.96592 1.22475,-0.70711 1.22475,-0.70711 1.22474,-0.7071 1.22475,-0.70711 0.25881,-0.96592 1.22475,-0.70711 0.25882,-0.96593 1.22474,-0.7071 0.25882,-0.96593 0.25882,-0.96593 0.25882,-0.96592 1.22475,-0.70711 0.25881,-0.96592 0.25882,-0.96593 0.25882,-0.96593 0.25882,-0.96592 0.25882,-0.96593 0.25882,-0.96592 0.25882,-0.96593 0.25882,-0.96592 0.25882,-0.96593 0.25882,-0.96593 0.25882,-0.96592 0.25881,-0.96593 0.25882,-0.96592 0.25882,-0.96593 0.25882,-0.96593 0.25882,-0.96592 0.25882,-0.96592 -0.70711,-1.22474 0.25882,-0.96593 0.25882,-0.96592 0.25882,-0.965934 0.25882,-0.96593 0.25882,-0.965921 -0.70711,-1.22475 0.25882,-0.96592 0.25882,-0.96593 0.25882,-0.96592 0.25882,-0.96593 0.25882,-0.96593 0.25882,-0.96592 0.25881,-0.96593 0.25882,-0.96592 0.25882,-0.96593 0.25882,-0.96592 0.25882,-0.96593 0.25882,-0.96593 0.25882,-0.96592 0.25882,-0.96593 -0.70711,-1.22474 0.25882,-0.96593 0.25882,-0.96592 0.25882,-0.96593 0.25882,-0.96593 -0.70711,-1.22474 0.25882,-0.96593 -0.70711,-1.22474 -0.7071,-1.22475 -0.70711,-1.22474 -0.70711,-1.22475 -0.7071,-1.22474 -0.70711,-1.22475 -0.70711,-1.22474 -0.7071,-1.22475 -0.70711,-1.22474 0.25882,-0.96593 -0.70711,-1.22474 -0.70711,-1.22475 -0.7071,-1.22474 -0.70711,-1.22475 -0.70711,-1.22475 -0.7071,-1.22474 -0.70711,-1.22475 -0.70711,-1.22474 -0.7071,-1.22474 -0.70711,-1.22475 0.25882,-0.96593 -0.70711,-1.22474 -0.7071,-1.22475 -0.70711,-1.22474 -0.70711,-1.22475 -0.7071,-1.22474 -0.70712,-1.22474 -0.7071,-1.22475 -0.70711,-1.22474 -0.70711,-1.22475 -0.7071,-1.22474 -0.70711,-1.22475 -0.70711,-1.22474 -0.7071,-1.22475 -0.96593,-0.25882 -0.70711,-1.22474 -0.96592,-0.25882 -0.70711,-1.22475 -0.7071,-1.22474 -0.70711,-1.22475 -0.70711,-1.22474 -0.7071,-1.22475 0.25881,-0.96592 -0.7071,-1.22475 -0.70711,-1.22474 -0.70711,-1.22475 0.25882,-0.96592 0.25882,-0.96593 0.25882,-0.96592 -0.70711,-1.22475 0.25882,-0.96593 -0.7071,-1.22474 -0.70711,-1.22474 -0.70711,-1.22475 0.25882,-0.96593 -0.7071,-1.22474 0.25881,-0.96593 -0.7071,-1.2247403 0.25882,-0.96593 -0.70711,-1.22474 -0.70711,-1.22475 0.25882,-0.96592 1.22475,-0.70711 0.25882,-0.96593 -0.70711,-1.22474 0.25882,-0.96592995 -0.70711,-1.22474 0.25882,-0.96593005 -0.70711,-1.22474 0.25882,-0.96593 -0.7071,-1.22474 -0.70711,-1.22475 0.25882,-0.96592 0.25882,-0.96593 0.25882,-0.96592 1.22474,-0.70711 0.25882,-0.9659297 -0.70711,-1.22474 0.25882,-0.96593 0.25882,-0.96592 0.25882,-0.96593 -0.70711,-1.22474 0.25882,-0.96593 1.22475,-0.70711 1.22474,-0.7071 0.25882,-0.96593 0.25882,-0.96593 0.25882,-0.96592 1.22474,-0.70711 0.25882,-0.96592 0.25882,-0.96593 0.25882,-0.96593 0.96593,0.25882 0.96592,0.25882 1.22475,-0.7071 1.22474,-0.70711 0.25882,-0.96593 0.25882,-0.96592 0.25882,-0.96593 0.96593,0.25882 1.22474,-0.70711 0.25882,-0.96592 0.25882,-0.96593 0.25882,-0.96592 -0.70711,-1.22475 1.22475,-0.70711 1.22474,-0.7071 0.25882,-0.96593 1.22475,-0.7071 0.25882,-0.96593 0.25882,-0.96593 1.22474,-0.7071 1.22475,-0.70711 0.96592,0.25882 1.22475,-0.70711 1.22474,-0.7071 0.25882,-0.96593 0.25882,-0.96593 1.22475,-0.7071 0.25881,-0.96593 1.22475,-0.70711 0.96592,0.25882 1.22475,-0.7071 0.25882,-0.96593 1.22474,-0.70711 1.22475,-0.7071 1.22474,-0.70711 0.25882,-0.96593 1.22475,-0.7071 0.96592,0.25882 0.96593,0.25882 0.96592,0.25882 0.96593,0.25881 0.96593,0.25882 1.22474,-0.7071 1.22475,-0.70711 0.25882,-0.96593 0.25881,-0.96592 0.25882,-0.96593 1.22475,-0.7071 1.22474,-0.70711 1.22475,-0.70711 0.25882,-0.96592 0.25882,-0.96593 1.22474,-0.70711 0.25882,-0.96592 0.96593,0.25882 0.96592,0.25882 0.96593,0.25881 1.22474,-0.7071 0.25882,-0.96593 0.25882,-0.96592 1.22475,-0.70711 0.25881,-0.96593 1.22475,-0.7071 0.25882,-0.96593 1.22474,-0.70711 0.96593,0.25882 0.96592,0.25882 1.22475,-0.7071 0.25882,-0.96593 0.25882,-0.96593 1.22474,-0.7071 0.25882,-0.96593 0.25882,-0.96592 1.22475,-0.70711 0.25881,-0.96593 1.22475,-0.7071 0.25882,-0.96593 0.25882,-0.96593 0.25882,-0.96592 0.25882,-0.96593 1.22474,-0.7071 0.25882,-0.96593 0.96593,0.25882 z m 0,0"
     style="fill:none;stroke:#000000;stroke-width:1;stroke-linecap:butt;stroke-linejoin:miter;stroke-miterlimit:10;stroke-opacity:1" />
  <path
     id="path15"
     d="m -851.65244,171.83226 11.97005,9.41902 9.77937,9.86731 8.29582,11.54034 6.62278,10.05678 1.98262,11.91928 3.01789,8.05557 3.39684,14.36877 -2.39873,12.81586 1.98262,11.91928 -5.55532,13.00532 -1.17397,12.10875 -5.55532,13.00532 -2.91636,14.74771 -7.22835,11.52176 -8.71192,13.19479 -11.35087,11.45241 -11.79916,9.26174 -12.69574,4.88039 -13.14402,2.68973 -11.84993,-2.1399 -5.39804,-10.76389 7.48717,-12.48768 -11.19359,-12.3168 -5.84632,-12.95456 -6.29461,-15.14523 -3.39684,-14.36876 -1.20616,-14.81706 -2.17209,-15.07587 1.95044,-15.00653 0.0186,-15.52416 5.55532,-13.00533 4.77886,-10.10754 6.26243,-11.78058 6.96953,-10.55583 4.33057,-12.29822 5.72621,5.67544 11.98863,-6.10515 9.98743,-2.50025 11.54034,-8.29582 8.00481,-14.41953 z m 0,0"
     style="fill:none;stroke:#000000;stroke-width:1;stroke-linecap:butt;stroke-linejoin:miter;stroke-miterlimit:10;stroke-opacity:1" />
  <path
     id="path17"
     d="m -688.04417,170.2032 11.9007,13.54154 -4.65874,17.38667 17.52536,-3.5863 15.07588,-2.17209 -3.50335,20.80208 7.58871,10.31559 -17.73342,15.95387 13.38426,11.86852 -15.14523,6.29461 -7.93545,10.29701 -15.97245,-2.20926 -0.65634,10.1769 -15.12665,-9.22955 -15.12664,-9.22955 -2.2786,20.09497 0.61917,20.87142 -1.31268,20.3538 -2.2786,20.09497 -4.65874,17.38666 -10.4543,15.83375 8.26362,-15.38545 5.62467,-17.12785 2.79625,-22.02682 1.1232,-23.51038 -0.87799,-19.90552 1.76097,-18.16312 -16.55944,3.84512 -15.26535,-0.9845 3.03648,-7.46859 -14.23007,-4.84821 -4.17329,-11.47099 -12.22887,-8.4531 21.1996,-5.70762 -11.57252,-18.62999 7.93545,-10.29702 -1.39563,-17.97365 11.78058,6.26242 12.10875,1.17398 12.67716,10.64377 5.69401,-21.25037 13.66167,-4.62158 13.80036,-12.86662 z m 0,0"
     style="fill:none;stroke:#000000;stroke-width:1;stroke-linecap:butt;stroke-linejoin:miter;stroke-miterlimit:10;stroke-opacity:1" />
  <path
     id="path19"
     d="m -530.06237,171.14374 1.01669,11.66046 4.94975,8.57322 3.46618,10.24624 3.46618,10.24625 -2.65754,13.78178 0.49906,13.59231 14.55824,-0.24023 -6.26243,11.78057 -4.07175,11.3323 -2.39872,12.81585 3.53553,6.12372 -4.77886,10.10755 -0.65634,10.17688 -1.62226,9.91808 -9.16021,11.00412 -5.03768,11.07347 -6.0036,10.81466 -8.19428,11.26294 -11.28152,7.32988 -12.24745,7.07107 -13.59232,0.49906 -12.17811,2.94854 -0.49905,-13.59231 -6.55343,-14.1793 -1.20616,-14.81706 -1.20617,-14.81705 0.46687,-13.3335 -1.20616,-14.81704 2.39872,-12.81585 -0.49905,-13.59232 1.88108,-10.884 1.88108,-10.884 3.62347,-13.52296 7.41782,-8.36517 5.2965,-12.03939 6.96954,-10.55584 9.79796,-5.65685 11.98863,-6.10514 11.72982,-5.13922 10.57441,-8.55463 7.22835,-11.52176 z m 0,0"
     style="fill:none;stroke:#000000;stroke-width:1;stroke-linecap:butt;stroke-linejoin:miter;stroke-miterlimit:10;stroke-opacity:1" />
  <path
     id="path21"
     d="m -370.65526,179.81169 6.95095,4.96833 -1.88109,10.884 11.59111,3.10583 -1.88108,10.884 -4.77886,10.10755 15.9031,6.33177 -3.88229,14.48889 -15.99103,13.31491 13.9019,9.93666 -6.52124,12.74651 -15.92169,9.19238 -16.81826,4.81105 12.93598,9.67783 -4.77886,10.10754 -14.88641,5.32868 -15.59352,4.10394 -0.65633,10.1769 -9.41903,11.97005 -11.0227,6.36396 -1.17398,12.10875 -5.86491,2.56961 3.88229,-14.48889 -7.32989,-11.28153 -2.62037,-17.26654 5.55532,-13.00532 -4.55223,-17.78417 7.93546,-10.29702 -9.52056,-10.83323 -9.45121,-14.95576 -2.43091,-14.10995 4.07176,-11.33229 17.19719,1.50215 -4.88039,-12.69574 0.46687,-13.33349 4.33057,-12.29822 9.46979,-0.5684 10.81466,6.0036 2.39872,-12.81585 6.0036,-10.81466 11.52176,7.22835 9.60849,-8.81345 13.14403,-2.68972 z m 0,0"
     style="fill:none;stroke:#000000;stroke-width:1;stroke-linecap:butt;stroke-linejoin:miter;stroke-miterlimit:10;stroke-opacity:1" />
  <path
     id="path23"
     d="m -226.58716,168.43542 6.62278,10.05678 6.62278,10.05678 8.10634,8.38375 3.20737,11.21217 6.88159,9.09085 1.0167,11.66046 -0.65634,10.1769 0.30959,10.43571 -3.10583,11.59111 -6.96953,10.55584 -10.83324,9.52055 -9.86731,9.77938 -13.47219,7.77818 -9.60849,8.81345 -12.50627,8.03699 -4.07175,11.3323 -1.17398,12.10874 -2.39872,12.81586 -4.33058,12.29821 -11.28152,7.32989 9.1602,-11.00412 4.07176,-11.33229 2.1399,-11.84993 2.1399,-11.84993 1.17398,-12.10875 -8.22646,-15.66286 -8.22646,-15.66287 -9.71003,-13.98983 -3.91447,-12.43692 -3.65565,-13.40284 -0.49906,-13.59231 4.33057,-12.29822 8.12493,-7.14042 6.96953,-10.55583 11.54034,-8.29582 11.471,-4.17329 8.12492,-7.14041 10.3156,-7.58871 7.22835,-11.52176 z m 0,0"
     style="fill:none;stroke:#000000;stroke-width:1;stroke-linecap:butt;stroke-linejoin:miter;stroke-miterlimit:10;stroke-opacity:1" />
</svg>
