<?xml version="1.0" encoding="UTF-8"?>
<svg xmlns="http://www.w3.org/2000/svg" xmlns:xlink="http://www.w3.org/1999/xlink" width="750pt" height="3600pt" viewBox="0 0 750 3600" version="1.1">
<g id="surface1">
<path style="fill:none;stroke-width:0.01;stroke-linecap:butt;stroke-linejoin:miter;stroke:rgb(0%,0%,0%);stroke-opacity:1;stroke-miterlimit:10;" d="M 0.524492 0.369492 L 0.320469 0.3675 L 0.259492 0.255469 L 0.326484 0.4675 L 0.263477 0.471484 L 0.213477 0.298477 L 0.241484 0.374492 L 0.254492 0.430508 L 0.189453 0.426484 L 0.188477 0.465508 L 0.252461 0.4725 L 0.246484 0.5125 L 0.190469 0.594492 L 0.0454688 0.695508 L 0.0734766 0.744531 L 0.231484 0.646523 L 0.328477 0.539492 L 0.524492 0.554492 L 0.753516 0.5625 L 0.911523 0.676523 L 0.954531 0.621523 L 0.789531 0.496484 L 0.611523 0.453477 L 0.708516 0.4225 L 0.852539 0.450508 L 0.862539 0.396484 L 0.716523 0.369492 Z M 0.524492 0.369492 " transform="matrix(100,0,0,100,0,200)"/>
<path style="fill:none;stroke-width:0.01;stroke-linecap:butt;stroke-linejoin:miter;stroke:rgb(0%,0%,0%);stroke-opacity:1;stroke-miterlimit:10;" d="M 0.676523 0.3525 L 0.421484 0.3375 L 0.4575 0.240469 L 0.668516 0.300469 L 0.6875 0.217461 L 0.433477 0.138477 L 0.291484 0.3275 L 0.254492 0.419492 L 0.0464453 0.4125 L 0.0454687 0.534492 L 0.251484 0.5475 L 0.254492 0.614492 L 0.341484 0.686523 L 0.339492 0.852539 L 0.406484 0.861523 L 0.400508 0.6725 L 0.3275 0.616523 L 0.676523 0.605508 L 0.757539 0.710508 L 0.949531 0.653516 L 0.954531 0.604492 L 0.807539 0.6025 L 0.775547 0.483516 L 0.812539 0.294492 L 0.927539 0.242461 L 0.891523 0.204453 L 0.786523 0.263477 Z M 0.676523 0.3525 " transform="matrix(100,0,0,100,150,200)"/>
<path style="fill:none;stroke-width:0.01;stroke-linecap:butt;stroke-linejoin:miter;stroke:rgb(0%,0%,0%);stroke-opacity:1;stroke-miterlimit:10;" d="M 0.503516 0.3825 L 0.258477 0.404492 L 0.233477 0.305469 L 0.142461 0.143477 L 0.100469 0.157461 L 0.169453 0.309492 L 0.177461 0.426484 L 0.183477 0.471484 L 0.0454687 0.471484 L 0.0504688 0.526484 L 0.181484 0.529492 L 0.184453 0.584492 L 0.153477 0.678516 L 0.0704687 0.826523 L 0.117461 0.856523 L 0.202461 0.713516 L 0.277461 0.609492 L 0.503516 0.580508 L 0.728516 0.559492 L 0.952539 0.563516 L 0.954531 0.499492 L 0.759531 0.499492 L 0.586523 0.471484 L 0.712539 0.436484 L 0.817539 0.455508 L 0.827539 0.3975 L 0.707539 0.386484 Z M 0.503516 0.3825 " transform="matrix(100,0,0,100,300,200)"/>
<path style="fill:none;stroke-width:0.01;stroke-linecap:butt;stroke-linejoin:miter;stroke:rgb(0%,0%,0%);stroke-opacity:1;stroke-miterlimit:10;" d="M 0.544492 0.361484 L 0.301484 0.385508 L 0.326484 0.304492 L 0.481484 0.349492 L 0.488516 0.300469 L 0.311484 0.223477 L 0.198477 0.376484 L 0.201484 0.456484 L 0.0514453 0.433477 L 0.0454688 0.540508 L 0.204453 0.550508 L 0.214453 0.6025 L 0.380469 0.776523 L 0.5675 0.584492 L 0.523516 0.538516 L 0.388477 0.679531 L 0.331484 0.589492 L 0.544492 0.5725 L 0.772539 0.513516 L 0.889531 0.470508 L 0.883555 0.420508 L 0.760508 0.458477 L 0.623516 0.4525 L 0.780547 0.379492 L 0.954531 0.364492 L 0.943555 0.272461 L 0.764531 0.305469 Z M 0.544492 0.361484 " transform="matrix(100,0,0,100,450,200)"/>
<path style="fill:none;stroke-width:0.01;stroke-linecap:butt;stroke-linejoin:miter;stroke:rgb(0%,0%,0%);stroke-opacity:1;stroke-miterlimit:10;" d="M 0.583516 0.381484 L 0.370469 0.374492 L 0.390508 0.295469 L 0.479492 0.4425 L 0.556523 0.346484 L 0.376484 0.218477 L 0.271484 0.360469 L 0.258477 0.4275 L 0.0594531 0.415508 L 0.0454688 0.525508 L 0.245469 0.543516 L 0.258477 0.608516 L 0.378477 0.781523 L 0.585508 0.654531 L 0.564492 0.606523 L 0.409492 0.6925 L 0.375469 0.6075 L 0.583516 0.568516 L 0.809531 0.521484 L 0.954531 0.4875 L 0.950547 0.429492 L 0.806523 0.461484 L 0.659531 0.4575 L 0.653516 0.334492 L 0.705508 0.276484 L 0.674531 0.256484 L 0.628516 0.321484 Z M 0.583516 0.381484 " transform="matrix(100,0,0,100,600,200)"/>
<path style="fill:none;stroke-width:0.01;stroke-linecap:butt;stroke-linejoin:miter;stroke:rgb(0%,0%,0%);stroke-opacity:1;stroke-miterlimit:10;" d="M 0.509492 0.444492 L 0.298477 0.4425 L 0.266484 0.373477 L 0.0844531 0.5325 L 0.0454688 0.486484 L 0.196484 0.334492 L 0.209453 0.443477 L 0.186484 0.5225 L 0.0714453 0.530508 L 0.0834766 0.604492 L 0.189453 0.5975 L 0.191484 0.665508 L 0.217461 0.636523 L 0.292461 0.639531 L 0.297461 0.611523 L 0.224453 0.6075 L 0.270469 0.661523 L 0.509492 0.654531 L 0.760508 0.659531 L 0.954531 0.651523 L 0.953555 0.568516 L 0.760508 0.579492 L 0.6075 0.5525 L 0.765508 0.529492 L 0.781523 0.660508 L 0.867539 0.613516 L 0.818516 0.3975 Z M 0.509492 0.444492 " transform="matrix(100,0,0,100,0,350)"/>
<path style="fill:none;stroke-width:0.01;stroke-linecap:butt;stroke-linejoin:miter;stroke:rgb(0%,0%,0%);stroke-opacity:1;stroke-miterlimit:10;" d="M 0.6075 0.370469 L 0.3475 0.375469 L 0.331484 0.232461 L 0.252461 0.0454687 L 0.207461 0.0634375 L 0.255469 0.233477 L 0.239492 0.356484 L 0.205469 0.435508 L 0.113477 0.415508 L 0.0764453 0.496484 L 0.189453 0.514492 L 0.173477 0.585508 L 0.183477 0.725508 L 0.134453 0.925547 L 0.195469 0.954531 L 0.253477 0.768516 L 0.305469 0.595508 L 0.6075 0.605508 L 0.699531 0.709531 L 0.879531 0.615508 L 0.868555 0.5625 L 0.742539 0.599492 L 0.697539 0.479492 L 0.712539 0.321484 L 0.885547 0.381484 L 0.923555 0.279492 L 0.660508 0.204453 Z M 0.6075 0.370469 " transform="matrix(100,0,0,100,150,350)"/>
<path style="fill:none;stroke-width:0.01;stroke-linecap:butt;stroke-linejoin:miter;stroke:rgb(0%,0%,0%);stroke-opacity:1;stroke-miterlimit:10;" d="M 0.450508 0.531484 L 0.253477 0.516484 L 0.243477 0.385508 L 0.134453 0.208477 L 0.0964453 0.233477 L 0.177461 0.394492 L 0.168477 0.503516 L 0.149453 0.565508 L 0.0484375 0.556523 L 0.0454687 0.6225 L 0.144453 0.629531 L 0.132461 0.694531 L 0.197461 0.608516 L 0.410508 0.648516 L 0.428477 0.581523 L 0.211484 0.5275 L 0.239492 0.707539 L 0.450508 0.714531 L 0.518516 0.791523 L 0.6525 0.731523 L 0.649531 0.695508 L 0.5475 0.715508 L 0.5375 0.620508 L 0.707539 0.544492 L 0.954531 0.5175 L 0.938555 0.411484 L 0.680508 0.4675 Z M 0.450508 0.531484 " transform="matrix(100,0,0,100,300,350)"/>
<path style="fill:none;stroke-width:0.01;stroke-linecap:butt;stroke-linejoin:miter;stroke:rgb(0%,0%,0%);stroke-opacity:1;stroke-miterlimit:10;" d="M 0.528516 0.315469 L 0.351484 0.271484 L 0.256484 0.383477 L 0.163477 0.5725 L 0.107461 0.539492 L 0.193477 0.3775 L 0.259492 0.266484 L 0.255469 0.319492 L 0.0454688 0.318477 L 0.0494531 0.420508 L 0.256484 0.3975 L 0.268477 0.440508 L 0.213477 0.5325 L 0.158477 0.722539 L 0.0834766 0.733516 L 0.145469 0.524492 L 0.303477 0.488516 L 0.528516 0.4825 L 0.755508 0.466484 L 0.954531 0.4175 L 0.927539 0.3525 L 0.768516 0.401484 L 0.616523 0.389492 L 0.742539 0.335469 L 0.885547 0.331484 L 0.882539 0.268477 L 0.736523 0.267461 Z M 0.528516 0.315469 " transform="matrix(100,0,0,100,450,350)"/>
<path style="fill:none;stroke-width:0.01;stroke-linecap:butt;stroke-linejoin:miter;stroke:rgb(0%,0%,0%);stroke-opacity:1;stroke-miterlimit:10;" d="M 0.533516 0.3075 L 0.3325 0.349492 L 0.3075 0.311484 L 0.431484 0.280469 L 0.415508 0.236484 L 0.263477 0.273477 L 0.269492 0.348477 L 0.262461 0.425508 L 0.0454688 0.4875 L 0.0824609 0.575508 L 0.276484 0.519492 L 0.295469 0.568516 L 0.364492 0.610508 L 0.3875 0.761523 L 0.438477 0.763516 L 0.426484 0.604492 L 0.369492 0.5425 L 0.533516 0.503516 L 0.767539 0.453477 L 0.942539 0.478516 L 0.954531 0.4175 L 0.788516 0.376484 L 0.606523 0.380469 L 0.716523 0.3325 L 0.889531 0.311484 L 0.869531 0.240469 L 0.698516 0.275469 Z M 0.533516 0.3075 " transform="matrix(100,0,0,100,600,350)"/>
<path style="fill:none;stroke-width:0.01;stroke-linecap:butt;stroke-linejoin:miter;stroke:rgb(0%,0%,0%);stroke-opacity:1;stroke-miterlimit:10;" d="M 0.578516 0.4125 L 0.385508 0.3875 L 0.325469 0.4875 L 0.190469 0.356484 L 0.171484 0.380469 L 0.273477 0.488516 L 0.311484 0.386484 L 0.313477 0.438477 L 0.254492 0.446484 L 0.257461 0.483516 L 0.311484 0.4925 L 0.319492 0.545508 L 0.239492 0.581523 L 0.0834766 0.513516 L 0.0454688 0.573516 L 0.204453 0.643516 L 0.3575 0.5975 L 0.578516 0.581523 L 0.768516 0.5875 L 0.954531 0.5775 L 0.952539 0.508516 L 0.790547 0.520508 L 0.6575 0.493516 L 0.786523 0.460508 L 0.922539 0.445508 L 0.919531 0.378477 L 0.769531 0.4075 Z M 0.578516 0.4125 " transform="matrix(100,0,0,100,0,500)"/>
<path style="fill:none;stroke-width:0.01;stroke-linecap:butt;stroke-linejoin:miter;stroke:rgb(0%,0%,0%);stroke-opacity:1;stroke-miterlimit:10;" d="M 0.5375 0.443477 L 0.351484 0.460508 L 0.321484 0.3775 L 0.227461 0.242461 L 0.191484 0.262461 L 0.275469 0.391484 L 0.287461 0.464492 L 0.279492 0.520508 L 0.167461 0.498516 L 0.159453 0.5725 L 0.266484 0.576523 L 0.268477 0.648516 L 0.242461 0.752539 L 0.0634375 0.644531 L 0.0454687 0.683516 L 0.176484 0.757539 L 0.315469 0.680508 L 0.5375 0.640508 L 0.786523 0.6675 L 0.953555 0.676523 L 0.951563 0.609492 L 0.790547 0.599492 L 0.616523 0.553516 L 0.782539 0.5125 L 0.929531 0.584492 L 0.954531 0.501484 L 0.782539 0.441484 Z M 0.5375 0.443477 " transform="matrix(100,0,0,100,150,500)"/>
<path style="fill:none;stroke-width:0.01;stroke-linecap:butt;stroke-linejoin:miter;stroke:rgb(0%,0%,0%);stroke-opacity:1;stroke-miterlimit:10;" d="M 0.530508 0.378477 L 0.267461 0.3925 L 0.304492 0.262461 L 0.379492 0.162461 L 0.345469 0.147461 L 0.254492 0.253477 L 0.156484 0.368477 L 0.165469 0.4325 L 0.0454687 0.481484 L 0.0704687 0.549492 L 0.192461 0.510508 L 0.213477 0.553516 L 0.265469 0.724531 L 0.405508 0.852539 L 0.440508 0.811523 L 0.3275 0.723516 L 0.334492 0.5675 L 0.530508 0.5825 L 0.747539 0.5725 L 0.871523 0.566523 L 0.878555 0.518516 L 0.750508 0.525508 L 0.635508 0.4875 L 0.781523 0.454492 L 0.954531 0.436484 L 0.931563 0.3725 L 0.763516 0.3675 Z M 0.530508 0.378477 " transform="matrix(100,0,0,100,300,500)"/>
<path style="fill:none;stroke-width:0.01;stroke-linecap:butt;stroke-linejoin:miter;stroke:rgb(0%,0%,0%);stroke-opacity:1;stroke-miterlimit:10;" d="M 0.454492 0.358477 L 0.262461 0.355469 L 0.280469 0.237461 L 0.3525 0.205469 L 0.339492 0.180469 L 0.235469 0.237461 L 0.167461 0.3525 L 0.157461 0.4175 L 0.0454688 0.418477 L 0.0514453 0.480508 L 0.154453 0.480508 L 0.168477 0.558516 L 0.284492 0.715508 L 0.4725 0.819531 L 0.5325 0.751523 L 0.3075 0.6325 L 0.269492 0.549492 L 0.454492 0.536484 L 0.675508 0.576523 L 0.947539 0.603516 L 0.954531 0.519492 L 0.726523 0.515508 L 0.564492 0.441484 L 0.685508 0.414492 L 0.888555 0.3825 L 0.877539 0.301484 L 0.683516 0.3475 Z M 0.454492 0.358477 " transform="matrix(100,0,0,100,450,500)"/>
<path style="fill:none;stroke-width:0.01;stroke-linecap:butt;stroke-linejoin:miter;stroke:rgb(0%,0%,0%);stroke-opacity:1;stroke-miterlimit:10;" d="M 0.475508 0.289492 L 0.257461 0.309492 L 0.220469 0.253477 L 0.361484 0.263477 L 0.345469 0.161484 L 0.155469 0.206484 L 0.169453 0.315469 L 0.166484 0.376484 L 0.0454688 0.364492 L 0.0514453 0.4425 L 0.161484 0.440508 L 0.168477 0.511484 L 0.267461 0.6925 L 0.463516 0.838516 L 0.511484 0.770508 L 0.3175 0.621523 L 0.284492 0.519492 L 0.475508 0.490508 L 0.725508 0.494492 L 0.943555 0.520508 L 0.954531 0.444492 L 0.758516 0.409492 L 0.569492 0.383477 L 0.700508 0.333477 L 0.939531 0.331484 L 0.910547 0.230469 L 0.695508 0.259492 Z M 0.475508 0.289492 " transform="matrix(100,0,0,100,600,500)"/>
<path style="fill:none;stroke-width:0.01;stroke-linecap:butt;stroke-linejoin:miter;stroke:rgb(0%,0%,0%);stroke-opacity:1;stroke-miterlimit:10;" d="M 0.421484 0.440508 L 0.234492 0.438477 L 0.256484 0.305469 L 0.173477 0.0554688 L 0.0984766 0.0724609 L 0.172461 0.296484 L 0.103477 0.451484 L 0.116445 0.510508 L 0.0454688 0.514492 L 0.0464453 0.560508 L 0.115469 0.570508 L 0.147461 0.624531 L 0.190469 0.743516 L 0.160469 0.920547 L 0.231484 0.944531 L 0.254492 0.760508 L 0.251484 0.630508 L 0.421484 0.634531 L 0.701523 0.644531 L 0.954531 0.6275 L 0.938555 0.528516 L 0.693516 0.551523 L 0.498516 0.5375 L 0.5125 0.401484 L 0.596523 0.340469 L 0.564492 0.310469 L 0.490508 0.378477 Z M 0.421484 0.440508 " transform="matrix(100,0,0,100,0,650)"/>
<path style="fill:none;stroke-width:0.01;stroke-linecap:butt;stroke-linejoin:miter;stroke:rgb(0%,0%,0%);stroke-opacity:1;stroke-miterlimit:10;" d="M 0.446484 0.543516 L 0.250469 0.560508 L 0.267461 0.453477 L 0.285469 0.242461 L 0.221484 0.240469 L 0.201484 0.440508 L 0.154453 0.564492 L 0.142461 0.6125 L 0.0454687 0.614492 L 0.0464453 0.669531 L 0.134453 0.670508 L 0.138477 0.743516 L 0.131445 0.688516 L 0.0834766 0.604492 L 0.108477 0.5775 L 0.155469 0.675508 L 0.215469 0.729531 L 0.446484 0.738516 L 0.694531 0.726523 L 0.851523 0.759531 L 0.869531 0.703516 L 0.722539 0.664531 L 0.554492 0.635508 L 0.730508 0.559492 L 0.954531 0.461484 L 0.912539 0.3725 L 0.706523 0.471484 Z M 0.446484 0.543516 " transform="matrix(100,0,0,100,150,650)"/>
<path style="fill:none;stroke-width:0.01;stroke-linecap:butt;stroke-linejoin:miter;stroke:rgb(0%,0%,0%);stroke-opacity:1;stroke-miterlimit:10;" d="M 0.498516 0.414492 L 0.266484 0.401484 L 0.308477 0.343477 L 0.336484 0.209453 L 0.301484 0.201484 L 0.269492 0.319492 L 0.204453 0.3775 L 0.187461 0.455508 L 0.114453 0.429492 L 0.101445 0.471484 L 0.157461 0.510508 L 0.156484 0.593516 L 0.281484 0.798516 L 0.0454687 0.640508 L 0.0714453 0.539492 L 0.340469 0.715508 L 0.284492 0.6225 L 0.498516 0.633516 L 0.763516 0.624531 L 0.954531 0.609492 L 0.951563 0.545508 L 0.790547 0.556523 L 0.628516 0.521484 L 0.797539 0.4575 L 0.953555 0.428477 L 0.929531 0.356484 L 0.767539 0.396484 Z M 0.498516 0.414492 " transform="matrix(100,0,0,100,300,650)"/>
<path style="fill:none;stroke-width:0.01;stroke-linecap:butt;stroke-linejoin:miter;stroke:rgb(0%,0%,0%);stroke-opacity:1;stroke-miterlimit:10;" d="M 0.529492 0.466484 L 0.420508 0.450508 L 0.445508 0.388477 L 0.5725 0.446484 L 0.594492 0.398477 L 0.439492 0.321484 L 0.339492 0.431484 L 0.330469 0.495508 L 0.0454688 0.531484 L 0.0844531 0.644531 L 0.333477 0.609492 L 0.351484 0.670508 L 0.331484 0.595508 L 0.483516 0.6075 L 0.495508 0.560508 L 0.373477 0.5725 L 0.420508 0.6575 L 0.529492 0.636523 L 0.722539 0.6475 L 0.847539 0.678516 L 0.850547 0.628516 L 0.730508 0.6025 L 0.621523 0.558516 L 0.765508 0.536484 L 0.954531 0.520508 L 0.950547 0.430508 L 0.755508 0.474492 Z M 0.529492 0.466484 " transform="matrix(100,0,0,100,450,650)"/>
<path style="fill:none;stroke-width:0.01;stroke-linecap:butt;stroke-linejoin:miter;stroke:rgb(0%,0%,0%);stroke-opacity:1;stroke-miterlimit:10;" d="M 0.530508 0.430508 L 0.325469 0.431484 L 0.321484 0.3075 L 0.219453 0.126445 L 0.177461 0.150469 L 0.245469 0.309492 L 0.237461 0.4125 L 0.234492 0.489492 L 0.0534375 0.469492 L 0.0454688 0.573516 L 0.222461 0.5925 L 0.227461 0.645508 L 0.486484 0.873555 L 0.4625 0.464492 L 0.3775 0.450508 L 0.408477 0.706523 L 0.339492 0.6475 L 0.530508 0.631523 L 0.788516 0.626523 L 0.954531 0.611523 L 0.951563 0.560508 L 0.811523 0.569492 L 0.661523 0.533516 L 0.812539 0.4775 L 0.850547 0.613516 L 0.928555 0.5675 L 0.845547 0.333477 Z M 0.530508 0.430508 " transform="matrix(100,0,0,100,600,650)"/>
</g>
</svg>
