<?xml version="1.0" encoding="UTF-8" standalone="no"?>
<!-- Created with Inkscape (http://www.inkscape.org/) -->
<svg
   xmlns:dc="http://purl.org/dc/elements/1.1/"
   xmlns:cc="http://creativecommons.org/ns#"
   xmlns:rdf="http://www.w3.org/1999/02/22-rdf-syntax-ns#"
   xmlns:svg="http://www.w3.org/2000/svg"
   xmlns="http://www.w3.org/2000/svg"
   xmlns:sodipodi="http://sodipodi.sourceforge.net/DTD/sodipodi-0.dtd"
   xmlns:inkscape="http://www.inkscape.org/namespaces/inkscape"
   width="744.09448819"
   height="1052.3622047"
   id="svg2"
   sodipodi:version="0.32"
   inkscape:version="0.46"
   sodipodi:docname="narms.svg"
   inkscape:output_extension="org.inkscape.output.svg.inkscape">
  <defs
     id="defs4">
    <inkscape:perspective
       sodipodi:type="inkscape:persp3d"
       inkscape:vp_x="0 : 526.18109 : 1"
       inkscape:vp_y="0 : 1000 : 0"
       inkscape:vp_z="744.09448 : 526.18109 : 1"
       inkscape:persp3d-origin="372.04724 : 350.78739 : 1"
       id="perspective10" />
  </defs>
  <sodipodi:namedview
     id="base"
     pagecolor="#ffffff"
     bordercolor="#666666"
     borderopacity="1.0"
     gridtolerance="10000"
     guidetolerance="10"
     objecttolerance="10"
     inkscape:pageopacity="0.0"
     inkscape:pageshadow="2"
     inkscape:zoom="0.35355339"
     inkscape:cx="45.511709"
     inkscape:cy="799.75613"
     inkscape:document-units="px"
     inkscape:current-layer="layer1"
     showgrid="false"
     inkscape:window-width="1280"
     inkscape:window-height="923"
     inkscape:window-x="0"
     inkscape:window-y="6" />
  <metadata
     id="metadata7">
    <rdf:RDF>
      <cc:Work
         rdf:about="">
        <dc:format>image/svg+xml</dc:format>
        <dc:type
           rdf:resource="http://purl.org/dc/dcmitype/StillImage" />
      </cc:Work>
    </rdf:RDF>
  </metadata>
  <g
     inkscape:label="Layer 1"
     inkscape:groupmode="layer"
     id="layer1">
    <path
       style="fill:none;fill-rule:evenodd;stroke:#000000;stroke-width:1px;stroke-linecap:butt;stroke-linejoin:miter;stroke-opacity:1"
       d="M 199,409.36218 L 199,309.36218 L 223.00352,259.36218 L 245.75528,309.36218 L 245.75528,409.36218"
       id="path2403"
       sodipodi:nodetypes="ccccc" />
    <path
       style="fill:none;fill-rule:evenodd;stroke:#000000;stroke-width:1.132653px;stroke-linecap:butt;stroke-linejoin:miter;stroke-opacity:1"
       d="M 270.35857,409.36218 L 270.35857,259.36218 L 293.39498,309.36218 L 315.4661,259.36218 L 315.4661,409.36218"
       id="path2409"
       sodipodi:nodetypes="ccccc" />
    <path
       style="fill:none;fill-rule:evenodd;stroke:#000000;stroke-width:1px;stroke-linecap:butt;stroke-linejoin:miter;stroke-opacity:1"
       d="M -593.30152,646.11732 L -617.30152,696.11737 L -617.30152,742.33607 L -681.20772,705.42987 L -735.89522,700.14857 L -704.58272,745.92987 L -664.55152,769.02357 L -728.45772,805.92987 L -760.39522,850.64857 L -705.08272,846.42987 L -665.05152,823.30487 L -665.05152,897.11737 L -642.30152,947.11737 L -618.30152,897.11737 L -618.30152,850.86737 L -554.39522,887.77357 L -499.70772,893.08607 L -531.02022,847.27357 L -571.05152,824.17987 L -507.14522,787.27357 L -475.20772,742.58607 L -530.52022,746.77357 L -570.55152,769.89857 L -570.55152,696.11737 L -593.30152,646.11732 z"
       id="path2411"
       sodipodi:nodetypes="ccccccccccccccccccccccccc" />
    <path
       style="fill:none;fill-rule:evenodd;stroke:#000000;stroke-width:1.132653px;stroke-linecap:butt;stroke-linejoin:miter;stroke-opacity:1"
       d="M -294.65311,646.05482 L -294.65311,744.17987 L -402.74691,681.77357 L -370.49691,725.89857 L -425.30941,720.83607 L -340.30941,769.89857 L -448.43441,832.33607 L -394.09061,826.46107 L -425.87191,871.39857 L -340.87191,822.33607 L -340.87191,947.17987 L -318.80941,897.17987 L -295.77811,947.17987 L -295.77811,849.02357 L -187.65311,911.46107 L -219.90311,867.33607 L -165.09061,872.36737 L -250.09061,823.30487 L -141.96561,760.86737 L -196.30941,766.77357 L -164.52811,721.80487 L -249.52811,770.86737 L -249.52811,646.05482 L -271.59061,696.05487 L -294.65311,646.05482 z"
       id="path2443"
       sodipodi:nodetypes="ccccccccccccccccccccccccc" />
    <path
       style="fill:none;fill-rule:evenodd;stroke:#000000;stroke-width:1px;stroke-linecap:butt;stroke-linejoin:miter;stroke-opacity:1"
       d="M -276.38746,328.79717 L -300.41876,378.79717 L -300.41876,426.45342 L -407.69996,364.51592 L -375.44996,408.60967 L -430.26246,403.57842 L -347.29376,451.48467 L -411.57496,488.60967 L -443.48126,533.29717 L -388.19996,529.10967 L -345.82496,504.64092 L -345.82496,629.92217 L -323.76246,579.92217 L -300.69996,629.92217 L -300.69996,533.95342 L -237.51246,570.45342 L -182.82496,575.76592 L -214.10626,529.95342 L -255.29376,506.17217 L -146.91876,443.60967 L -201.26246,449.51592 L -169.48126,404.54717 L -253.63746,453.14092 L -253.63746,378.79717 L -276.38746,328.79717 z"
       id="path2458"
       sodipodi:nodetypes="ccccccccccccccccccccccccc" />
    <path
       sodipodi:nodetypes="ccccc"
       id="path2471"
       d="M 39.388573,396.89534 L 39.388573,296.89534 L 63.392093,246.89534 L 86.143853,296.89534 L 86.143853,396.89534"
       style="fill:none;fill-rule:evenodd;stroke:#000000;stroke-width:1px;stroke-linecap:butt;stroke-linejoin:miter;stroke-opacity:1" />
    <path
       sodipodi:nodetypes="ccccc"
       id="path2473"
       d="M 40.212448,396.89534 L 40.212448,246.89534 L 63.248858,296.89534 L 85.319978,246.89534 L 85.319978,396.89534"
       style="fill:none;fill-rule:evenodd;stroke:#000000;stroke-width:1.132653px;stroke-linecap:butt;stroke-linejoin:miter;stroke-opacity:1" />
    <path
       style="fill:none;fill-rule:evenodd;stroke:#000000;stroke-width:1px;stroke-linecap:butt;stroke-linejoin:miter;stroke-opacity:1"
       d="M -910.93417,646.05482 L -934.96537,696.05487 L -934.96537,742.24237 L -998.87167,705.36737 L -1053.5279,700.08607 L -1022.2467,745.86737 L -980.21537,770.14857 L -1087.9342,832.33607 L -1033.5904,826.46107 L -1065.3717,871.39857 L -980.37167,822.33607 L -980.37167,947.17987 L -958.30917,897.17987 L -935.24667,947.17987 L -935.24667,849.02357 L -827.12167,911.46107 L -859.40287,867.33607 L -804.59037,872.39857 L -888.46537,823.96107 L -824.77787,787.21107 L -792.87167,742.52357 L -848.15287,746.74237 L -888.18417,769.83607 L -888.18417,696.05487 L -910.93417,646.05482 z"
       id="path2475"
       sodipodi:nodetypes="ccccccccccccccccccccccccc" />
    <path
       style="fill:none;fill-rule:evenodd;stroke:#000000;stroke-width:1px;stroke-linecap:butt;stroke-linejoin:miter;stroke-opacity:1"
       d="M -588.33274,328.85967 L -612.36394,378.85967 L -612.36394,426.54717 L -719.6452,364.60967 L -687.3952,408.70342 L -742.2077,403.67217 L -657.20774,452.73467 L -765.3327,515.17217 L -710.98895,509.26592 L -742.7702,554.23467 L -660.11394,506.51592 L -660.11394,579.85967 L -637.36394,629.85967 L -613.36394,579.85967 L -613.36394,531.42217 L -504.55144,594.26592 L -536.80144,550.17217 L -481.98894,555.20342 L -565.83274,506.79717 L -502.17644,470.04717 L -470.27024,425.32842 L -525.55144,429.54717 L -565.58274,452.64092 L -565.58274,378.85967 L -588.33274,328.85967 z"
       id="path2488"
       sodipodi:nodetypes="ccccccccccccccccccccccccc" />
    <path
       style="fill:none;fill-rule:evenodd;stroke:#000000;stroke-width:1px;stroke-linecap:butt;stroke-linejoin:miter;stroke-opacity:1"
       d="M -916.65292,11.539522 L -940.65292,61.539522 L -940.65292,109.22701 L -1047.9654,47.258272 L -1015.6842,91.383272 L -1070.5279,86.320772 L -985.52792,135.38326 L -1093.6217,197.82076 L -1039.3092,191.94576 L -1071.0904,236.88326 L -986.09042,187.82076 L -986.09042,312.66451 L -963.99667,262.66451 L -940.96542,312.66451 L -940.96542,214.47701 L -832.84042,276.91451 L -865.12167,232.82076 L -810.27792,237.85201 L -895.30917,188.75826 L -787.18417,126.35201 L -841.49667,132.25826 L -809.71542,87.289522 L -893.90292,135.88326 L -893.90292,61.539522 L -916.65292,11.539522 z"
       id="path2501"
       sodipodi:nodetypes="ccccccccccccccccccccccccc" />
    <path
       style="fill:none;fill-rule:evenodd;stroke:#000000;stroke-width:1px;stroke-linecap:butt;stroke-linejoin:miter;stroke-opacity:1"
       d="M -616.48897,11.602022 L -616.48897,108.28952 L -681.20772,70.914522 L -735.89522,65.633272 L -704.58272,111.41452 L -664.55147,134.50827 L -728.45772,171.41452 L -760.39522,216.13327 L -705.08272,211.91452 L -665.05147,188.78952 L -665.05147,262.60202 L -642.30147,312.60202 L -618.30147,262.60202 L -618.30147,216.35202 L -554.39522,253.25827 L -499.70772,258.57077 L -531.02022,212.78952 L -571.05147,189.66452 L -507.14522,152.75827 L -475.20771,108.07077 L -530.52022,112.28952 L -571.36397,135.88327 L -571.36397,11.602022 L -593.45772,61.602022 L -616.48897,11.602022 z"
       id="path2514"
       sodipodi:nodetypes="ccccccccccccccccccccccccc" />
    <path
       style="fill:none;fill-rule:evenodd;stroke:#000000;stroke-width:1px;stroke-linecap:butt;stroke-linejoin:miter;stroke-opacity:1"
       d="M -271.43439,11.602022 L -295.46564,61.602022 L -295.46564,109.25827 L -402.74689,47.320772 L -370.49689,91.445772 L -425.30939,86.383272 L -340.30939,135.44577 L -448.43439,197.88327 L -394.09064,192.00827 L -425.87189,236.94577 L -343.21564,189.22702 L -343.21564,262.60202 L -320.46564,312.60202 L -296.46564,262.60202 L -296.46564,214.16452 L -187.62189,277.00827 L -219.90314,232.88327 L -165.09064,237.94577 L -250.09064,188.88327 L -141.96564,126.44577 L -196.30939,132.32077 L -164.52814,87.383272 L -248.68439,135.97702 L -248.68439,61.602022 L -271.43439,11.602022 z"
       id="path2527"
       sodipodi:nodetypes="ccccccccccccccccccccccccc" />
    <path
       style="fill:none;fill-rule:evenodd;stroke:#000000;stroke-width:1px;stroke-linecap:butt;stroke-linejoin:miter;stroke-opacity:1"
       d="M -915.88729,328.79717 L -939.88729,378.79717 L -939.88729,426.48467 L -1047.1998,364.51592 L -1014.9498,408.64092 L -1069.7623,403.57842 L -986.76229,451.48467 L -1051.0748,488.60967 L -1082.981,533.32842 L -1027.6998,529.10967 L -985.32479,504.64092 L -985.32479,629.92217 L -963.23104,579.92217 L -940.19979,629.92217 L -940.19979,533.98467 L -876.98104,570.48467 L -822.32479,575.76592 L -853.60604,529.98467 L -893.63729,506.89092 L -829.73104,469.98467 L -797.82479,425.26592 L -853.10604,429.48467 L -893.13729,452.57842 L -893.13729,378.79717 L -915.88729,328.79717 z"
       id="path2540"
       sodipodi:nodetypes="ccccccccccccccccccccccccc" />
  </g>
</svg>
