<?xml version="1.0" encoding="UTF-8"?>
<svg xmlns="http://www.w3.org/2000/svg" xmlns:xlink="http://www.w3.org/1999/xlink" width="750pt" height="3600pt" viewBox="0 0 750 3600" version="1.1">
<g id="surface1">
<path style="fill:none;stroke-width:0.01;stroke-linecap:butt;stroke-linejoin:miter;stroke:rgb(0%,0%,0%);stroke-opacity:1;stroke-miterlimit:10;" d="M 0.504492 0.349492 L 0.283477 0.3275 L 0.230469 0.241484 L 0.0844531 0.0454687 L 0.0604688 0.0834766 L 0.196484 0.223477 L 0.203477 0.328477 L 0.198477 0.393477 L 0.0954688 0.375469 L 0.0874609 0.4425 L 0.185469 0.461484 L 0.180469 0.524492 L 0.237461 0.694531 L 0.281484 0.954531 L 0.384492 0.943555 L 0.316484 0.702539 L 0.273477 0.540508 L 0.504492 0.5625 L 0.743516 0.589492 L 0.939531 0.5725 L 0.927539 0.495508 L 0.754531 0.498516 L 0.606523 0.444492 L 0.733516 0.384492 L 0.877539 0.386484 L 0.889531 0.309492 L 0.721523 0.296484 Z M 0.504492 0.349492 " transform="matrix(100,0,0,100,0,200)"/>
<path style="fill:none;stroke-width:0.01;stroke-linecap:butt;stroke-linejoin:miter;stroke:rgb(0%,0%,0%);stroke-opacity:1;stroke-miterlimit:10;" d="M 0.513516 0.314492 L 0.3125 0.325469 L 0.3975 0.258477 L 0.585508 0.111445 L 0.556523 0.0454687 L 0.287461 0.160469 L 0.203477 0.341484 L 0.192461 0.404492 L 0.0784766 0.410508 L 0.0864453 0.4775 L 0.193477 0.470508 L 0.205469 0.530508 L 0.3075 0.693516 L 0.421484 0.954531 L 0.505508 0.909531 L 0.361484 0.680508 L 0.308477 0.541523 L 0.513516 0.496484 L 0.725508 0.539492 L 0.916523 0.531484 L 0.921523 0.463516 L 0.754531 0.466484 L 0.6025 0.398477 L 0.713516 0.328477 L 0.848516 0.329492 L 0.832539 0.259492 L 0.691523 0.258477 Z M 0.513516 0.314492 " transform="matrix(100,0,0,100,150,200)"/>
<path style="fill:none;stroke-width:0.01;stroke-linecap:butt;stroke-linejoin:miter;stroke:rgb(0%,0%,0%);stroke-opacity:1;stroke-miterlimit:10;" d="M 0.524492 0.298477 L 0.296484 0.298477 L 0.399492 0.257461 L 0.6225 0.129453 L 0.599492 0.0484375 L 0.305469 0.140469 L 0.194453 0.298477 L 0.188477 0.3725 L 0.0524609 0.363477 L 0.0454687 0.446484 L 0.181484 0.456484 L 0.189453 0.536484 L 0.192461 0.713516 L 0.208477 0.951563 L 0.303477 0.934531 L 0.3125 0.693516 L 0.291484 0.558516 L 0.524492 0.539492 L 0.754531 0.5425 L 0.954531 0.498516 L 0.920547 0.4375 L 0.770508 0.458477 L 0.624531 0.413477 L 0.762539 0.339492 L 0.920547 0.349492 L 0.910547 0.271484 L 0.737539 0.259492 Z M 0.524492 0.298477 " transform="matrix(100,0,0,100,300,200)"/>
<path style="fill:none;stroke-width:0.01;stroke-linecap:butt;stroke-linejoin:miter;stroke:rgb(0%,0%,0%);stroke-opacity:1;stroke-miterlimit:10;" d="M 0.518516 0.510508 L 0.298477 0.5025 L 0.242461 0.424492 L 0.0664453 0.248477 L 0.0454688 0.293477 L 0.188477 0.413477 L 0.212461 0.5125 L 0.195469 0.581523 L 0.0794531 0.5675 L 0.0684375 0.644531 L 0.186484 0.6525 L 0.181484 0.716523 L 0.153477 0.633516 L 0.0464453 0.5025 L 0.0764453 0.4375 L 0.203477 0.606523 L 0.293477 0.701523 L 0.518516 0.714531 L 0.760508 0.751523 L 0.954531 0.729531 L 0.932539 0.666523 L 0.780547 0.680508 L 0.6225 0.614492 L 0.768516 0.539492 L 0.932539 0.544492 L 0.928555 0.465508 L 0.738516 0.4675 Z M 0.518516 0.510508 " transform="matrix(100,0,0,100,450,200)"/>
<path style="fill:none;stroke-width:0.01;stroke-linecap:butt;stroke-linejoin:miter;stroke:rgb(0%,0%,0%);stroke-opacity:1;stroke-miterlimit:10;" d="M 0.501484 0.296484 L 0.281484 0.291484 L 0.221484 0.221484 L 0.107461 0.0524609 L 0.0774609 0.0904687 L 0.190469 0.203477 L 0.197461 0.293477 L 0.183477 0.364492 L 0.0614453 0.3525 L 0.0454688 0.429492 L 0.168477 0.440508 L 0.162461 0.508516 L 0.198477 0.665508 L 0.266484 0.947539 L 0.356484 0.904531 L 0.301484 0.661523 L 0.261484 0.530508 L 0.501484 0.518516 L 0.732539 0.5625 L 0.922539 0.565508 L 0.924531 0.503516 L 0.760508 0.496484 L 0.6125 0.4025 L 0.764531 0.319492 L 0.954531 0.330469 L 0.940547 0.235469 L 0.754531 0.251484 Z M 0.501484 0.296484 " transform="matrix(100,0,0,100,600,200)"/>
<path style="fill:none;stroke-width:0.01;stroke-linecap:butt;stroke-linejoin:miter;stroke:rgb(0%,0%,0%);stroke-opacity:1;stroke-miterlimit:10;" d="M 0.498516 0.210469 L 0.319492 0.194453 L 0.378477 0.179453 L 0.5125 0.148477 L 0.5225 0.0994531 L 0.341484 0.0924609 L 0.245469 0.170469 L 0.252461 0.260469 L 0.0454688 0.247461 L 0.0464453 0.375469 L 0.246484 0.385508 L 0.265469 0.486484 L 0.3675 0.646523 L 0.526484 0.907539 L 0.6025 0.856523 L 0.446484 0.603516 L 0.356484 0.465508 L 0.498516 0.4425 L 0.764531 0.4275 L 0.954531 0.400508 L 0.944531 0.335469 L 0.759531 0.3575 L 0.6025 0.315469 L 0.766523 0.256484 L 0.929531 0.290469 L 0.942539 0.195469 L 0.744531 0.187461 Z M 0.498516 0.210469 " transform="matrix(100,0,0,100,0,350)"/>
<path style="fill:none;stroke-width:0.01;stroke-linecap:butt;stroke-linejoin:miter;stroke:rgb(0%,0%,0%);stroke-opacity:1;stroke-miterlimit:10;" d="M 0.456484 0.283477 L 0.286484 0.268477 L 0.346484 0.252461 L 0.495508 0.189453 L 0.4925 0.130469 L 0.3075 0.147461 L 0.206484 0.250469 L 0.217461 0.344492 L 0.0484375 0.336484 L 0.0454687 0.4375 L 0.206484 0.456484 L 0.223477 0.551523 L 0.333477 0.678516 L 0.503516 0.869531 L 0.5775 0.812539 L 0.4125 0.640508 L 0.316484 0.539492 L 0.456484 0.5275 L 0.729531 0.5575 L 0.954531 0.553516 L 0.946563 0.4725 L 0.752539 0.466484 L 0.578516 0.4025 L 0.716523 0.302461 L 0.895547 0.299492 L 0.905547 0.201484 L 0.711523 0.203477 Z M 0.456484 0.283477 " transform="matrix(100,0,0,100,150,350)"/>
<path style="fill:none;stroke-width:0.01;stroke-linecap:butt;stroke-linejoin:miter;stroke:rgb(0%,0%,0%);stroke-opacity:1;stroke-miterlimit:10;" d="M 0.4775 0.302461 L 0.285469 0.261484 L 0.241484 0.193477 L 0.138477 0.0564453 L 0.113477 0.0834766 L 0.208477 0.199453 L 0.210469 0.262461 L 0.206484 0.356484 L 0.0454687 0.3725 L 0.0554688 0.475508 L 0.209453 0.464492 L 0.230469 0.560508 L 0.353477 0.699531 L 0.524492 0.943555 L 0.591523 0.847539 L 0.416484 0.664531 L 0.325469 0.543516 L 0.4775 0.543516 L 0.729531 0.584492 L 0.954531 0.539492 L 0.944531 0.4775 L 0.769531 0.474492 L 0.599492 0.406484 L 0.751523 0.325469 L 0.938555 0.328477 L 0.918555 0.234492 L 0.714531 0.242461 Z M 0.4775 0.302461 " transform="matrix(100,0,0,100,300,350)"/>
<path style="fill:none;stroke-width:0.01;stroke-linecap:butt;stroke-linejoin:miter;stroke:rgb(0%,0%,0%);stroke-opacity:1;stroke-miterlimit:10;" d="M 0.545508 0.5275 L 0.323477 0.493516 L 0.247461 0.409492 L 0.0774609 0.217461 L 0.0454688 0.274492 L 0.214453 0.401484 L 0.235469 0.506484 L 0.224453 0.574492 L 0.0774609 0.569492 L 0.0714453 0.656523 L 0.211484 0.653516 L 0.214453 0.721523 L 0.197461 0.598516 L 0.0924609 0.388477 L 0.125469 0.311484 L 0.255469 0.5625 L 0.333477 0.725508 L 0.545508 0.726523 L 0.767539 0.782539 L 0.951563 0.764531 L 0.953555 0.693516 L 0.793516 0.6925 L 0.646523 0.624531 L 0.791523 0.544492 L 0.954531 0.550508 L 0.954531 0.466484 L 0.776523 0.470508 Z M 0.545508 0.5275 " transform="matrix(100,0,0,100,450,350)"/>
<path style="fill:none;stroke-width:0.01;stroke-linecap:butt;stroke-linejoin:miter;stroke:rgb(0%,0%,0%);stroke-opacity:1;stroke-miterlimit:10;" d="M 0.530508 0.3475 L 0.325469 0.359492 L 0.269492 0.260469 L 0.124453 0.0454687 L 0.0724609 0.0924609 L 0.233477 0.247461 L 0.236484 0.369492 L 0.227461 0.429492 L 0.101445 0.440508 L 0.108477 0.5225 L 0.229492 0.503516 L 0.242461 0.559492 L 0.276484 0.719531 L 0.329492 0.954531 L 0.423477 0.925547 L 0.356484 0.688516 L 0.320469 0.568516 L 0.530508 0.548516 L 0.749531 0.558516 L 0.927539 0.5375 L 0.920547 0.466484 L 0.765508 0.484492 L 0.618516 0.438477 L 0.713516 0.378477 L 0.846523 0.364492 L 0.854531 0.298477 L 0.696523 0.311484 Z M 0.530508 0.3475 " transform="matrix(100,0,0,100,600,350)"/>
<path style="fill:none;stroke-width:0.01;stroke-linecap:butt;stroke-linejoin:miter;stroke:rgb(0%,0%,0%);stroke-opacity:1;stroke-miterlimit:10;" d="M 0.524492 0.209453 L 0.301484 0.217461 L 0.232461 0.161484 L 0.0864453 0.0454688 L 0.0714453 0.0934766 L 0.206484 0.166484 L 0.230469 0.241484 L 0.220469 0.303477 L 0.108477 0.287461 L 0.0964453 0.3625 L 0.218477 0.370469 L 0.227461 0.425508 L 0.262461 0.639531 L 0.303477 0.954531 L 0.420508 0.922539 L 0.350469 0.636523 L 0.3175 0.435508 L 0.524492 0.419492 L 0.737539 0.409492 L 0.894531 0.390508 L 0.887539 0.339492 L 0.761523 0.356484 L 0.619531 0.308477 L 0.754531 0.214453 L 0.928555 0.208477 L 0.898555 0.120469 L 0.736523 0.141445 Z M 0.524492 0.209453 " transform="matrix(100,0,0,100,0,500)"/>
<path style="fill:none;stroke-width:0.01;stroke-linecap:butt;stroke-linejoin:miter;stroke:rgb(0%,0%,0%);stroke-opacity:1;stroke-miterlimit:10;" d="M 0.554492 0.284492 L 0.3325 0.278477 L 0.264492 0.199453 L 0.0854687 0.0454688 L 0.0604688 0.0894531 L 0.209453 0.195469 L 0.237461 0.295469 L 0.216484 0.356484 L 0.0904688 0.370469 L 0.0944531 0.446484 L 0.218477 0.4375 L 0.234492 0.5025 L 0.250469 0.6875 L 0.287461 0.954531 L 0.408477 0.951563 L 0.353477 0.6725 L 0.334492 0.514492 L 0.554492 0.480508 L 0.760508 0.5125 L 0.926523 0.5075 L 0.938555 0.448477 L 0.778516 0.4525 L 0.643516 0.376484 L 0.777539 0.325469 L 0.933555 0.3625 L 0.939531 0.288477 L 0.768516 0.258477 Z M 0.554492 0.284492 " transform="matrix(100,0,0,100,150,500)"/>
<path style="fill:none;stroke-width:0.01;stroke-linecap:butt;stroke-linejoin:miter;stroke:rgb(0%,0%,0%);stroke-opacity:1;stroke-miterlimit:10;" d="M 0.505508 0.257461 L 0.283477 0.255469 L 0.351484 0.228477 L 0.506484 0.161484 L 0.4925 0.0994531 L 0.274492 0.138477 L 0.185469 0.253477 L 0.185469 0.3375 L 0.0454687 0.3275 L 0.0484375 0.411484 L 0.171484 0.418477 L 0.169453 0.489492 L 0.202461 0.6425 L 0.270469 0.896523 L 0.3475 0.900547 L 0.298477 0.641523 L 0.267461 0.494492 L 0.505508 0.464492 L 0.750508 0.479492 L 0.944531 0.4575 L 0.954531 0.3725 L 0.778516 0.405508 L 0.596523 0.353477 L 0.723516 0.293477 L 0.876523 0.305469 L 0.864531 0.238477 L 0.702539 0.224453 Z M 0.505508 0.257461 " transform="matrix(100,0,0,100,300,500)"/>
<path style="fill:none;stroke-width:0.01;stroke-linecap:butt;stroke-linejoin:miter;stroke:rgb(0%,0%,0%);stroke-opacity:1;stroke-miterlimit:10;" d="M 0.5625 0.4975 L 0.310469 0.486484 L 0.229492 0.4225 L 0.0734766 0.276484 L 0.0454688 0.331484 L 0.206484 0.4175 L 0.227461 0.501484 L 0.228477 0.578516 L 0.105469 0.576523 L 0.0994531 0.653516 L 0.226484 0.659531 L 0.243477 0.723516 L 0.228477 0.624531 L 0.138477 0.481484 L 0.175469 0.428477 L 0.273477 0.618516 L 0.343477 0.711523 L 0.5625 0.697539 L 0.785547 0.665508 L 0.954531 0.615508 L 0.929531 0.558516 L 0.796523 0.599492 L 0.656523 0.578516 L 0.760508 0.480508 L 0.912539 0.463516 L 0.918555 0.3825 L 0.749531 0.414492 Z M 0.5625 0.4975 " transform="matrix(100,0,0,100,450,500)"/>
<path style="fill:none;stroke-width:0.01;stroke-linecap:butt;stroke-linejoin:miter;stroke:rgb(0%,0%,0%);stroke-opacity:1;stroke-miterlimit:10;" d="M 0.495508 0.315469 L 0.270469 0.326484 L 0.324492 0.286484 L 0.444492 0.167461 L 0.424492 0.121445 L 0.233477 0.208477 L 0.176484 0.328477 L 0.170469 0.395508 L 0.0454688 0.404492 L 0.0524609 0.483516 L 0.175469 0.473516 L 0.192461 0.5425 L 0.264492 0.666523 L 0.4075 0.878555 L 0.481484 0.835547 L 0.344492 0.648516 L 0.283477 0.541523 L 0.495508 0.5075 L 0.758516 0.5125 L 0.954531 0.4825 L 0.953555 0.4025 L 0.778516 0.444492 L 0.600508 0.401484 L 0.726523 0.348477 L 0.873555 0.3525 L 0.877539 0.268477 L 0.705508 0.261484 Z M 0.495508 0.315469 " transform="matrix(100,0,0,100,600,500)"/>
<path style="fill:none;stroke-width:0.01;stroke-linecap:butt;stroke-linejoin:miter;stroke:rgb(0%,0%,0%);stroke-opacity:1;stroke-miterlimit:10;" d="M 0.520508 0.277461 L 0.278477 0.278477 L 0.366484 0.260469 L 0.564492 0.209453 L 0.5675 0.138477 L 0.3225 0.140469 L 0.182461 0.254492 L 0.179453 0.319492 L 0.0504687 0.313477 L 0.0454688 0.3925 L 0.175469 0.3975 L 0.182461 0.4675 L 0.220469 0.609492 L 0.308477 0.861523 L 0.401484 0.825547 L 0.326484 0.6175 L 0.281484 0.483516 L 0.520508 0.478516 L 0.731523 0.484492 L 0.890547 0.458477 L 0.881523 0.409492 L 0.737539 0.419492 L 0.6175 0.374492 L 0.773516 0.294492 L 0.954531 0.309492 L 0.936562 0.210469 L 0.748516 0.212461 Z M 0.520508 0.277461 " transform="matrix(100,0,0,100,0,650)"/>
<path style="fill:none;stroke-width:0.01;stroke-linecap:butt;stroke-linejoin:miter;stroke:rgb(0%,0%,0%);stroke-opacity:1;stroke-miterlimit:10;" d="M 0.474492 0.228477 L 0.290469 0.214453 L 0.346484 0.195469 L 0.479492 0.133477 L 0.463516 0.0774609 L 0.295469 0.0964453 L 0.209453 0.193477 L 0.212461 0.277461 L 0.0474609 0.277461 L 0.0454687 0.3825 L 0.207461 0.385508 L 0.235469 0.479492 L 0.320469 0.620508 L 0.441484 0.922539 L 0.529492 0.873555 L 0.405508 0.603516 L 0.330469 0.466484 L 0.474492 0.454492 L 0.716523 0.5075 L 0.909531 0.509492 L 0.910547 0.4275 L 0.740508 0.4075 L 0.586523 0.3475 L 0.739531 0.275469 L 0.954531 0.298477 L 0.944531 0.215469 L 0.723516 0.196484 Z M 0.474492 0.228477 " transform="matrix(100,0,0,100,150,650)"/>
<path style="fill:none;stroke-width:0.01;stroke-linecap:butt;stroke-linejoin:miter;stroke:rgb(0%,0%,0%);stroke-opacity:1;stroke-miterlimit:10;" d="M 0.530508 0.301484 L 0.296484 0.306484 L 0.371484 0.269492 L 0.538516 0.128477 L 0.528516 0.0534375 L 0.277461 0.142461 L 0.188477 0.300469 L 0.185469 0.3775 L 0.0564453 0.3725 L 0.0454687 0.461484 L 0.178477 0.459492 L 0.188477 0.526484 L 0.213477 0.6825 L 0.234492 0.946562 L 0.3325 0.930547 L 0.303477 0.685508 L 0.284492 0.5475 L 0.530508 0.533516 L 0.773516 0.5625 L 0.948555 0.5525 L 0.947539 0.495508 L 0.778516 0.490508 L 0.6375 0.413477 L 0.767539 0.359492 L 0.919531 0.374492 L 0.954531 0.302461 L 0.764531 0.277461 Z M 0.530508 0.301484 " transform="matrix(100,0,0,100,300,650)"/>
<path style="fill:none;stroke-width:0.01;stroke-linecap:butt;stroke-linejoin:miter;stroke:rgb(0%,0%,0%);stroke-opacity:1;stroke-miterlimit:10;" d="M 0.520508 0.316484 L 0.280469 0.294492 L 0.207461 0.251484 L 0.0544531 0.169453 L 0.0454688 0.201484 L 0.170469 0.244492 L 0.201484 0.3225 L 0.198477 0.3825 L 0.0974609 0.373477 L 0.0874609 0.434492 L 0.191484 0.450508 L 0.204453 0.520508 L 0.224453 0.644531 L 0.258477 0.830547 L 0.320469 0.816523 L 0.288477 0.640508 L 0.280469 0.5425 L 0.520508 0.5275 L 0.727539 0.589492 L 0.907539 0.600508 L 0.903555 0.523516 L 0.757539 0.509492 L 0.630508 0.423477 L 0.780547 0.348477 L 0.954531 0.369492 L 0.951563 0.285469 L 0.763516 0.279492 Z M 0.520508 0.316484 " transform="matrix(100,0,0,100,450,650)"/>
<path style="fill:none;stroke-width:0.01;stroke-linecap:butt;stroke-linejoin:miter;stroke:rgb(0%,0%,0%);stroke-opacity:1;stroke-miterlimit:10;" d="M 0.559492 0.287461 L 0.345469 0.258477 L 0.283477 0.196484 L 0.0774609 0.0454688 L 0.0684375 0.0844531 L 0.221484 0.194453 L 0.262461 0.278477 L 0.256484 0.341484 L 0.159453 0.334492 L 0.155469 0.391484 L 0.245469 0.404492 L 0.253477 0.4625 L 0.318477 0.651523 L 0.369492 0.954531 L 0.475508 0.938555 L 0.373477 0.645508 L 0.344492 0.476484 L 0.559492 0.475508 L 0.751523 0.486484 L 0.906523 0.498516 L 0.908555 0.444492 L 0.767539 0.4475 L 0.653516 0.378477 L 0.779531 0.329492 L 0.916523 0.3225 L 0.931563 0.245469 L 0.759531 0.249492 Z M 0.559492 0.287461 " transform="matrix(100,0,0,100,600,650)"/>
</g>
</svg>
