<?xml version="1.0" encoding="UTF-8"?>
<svg xmlns="http://www.w3.org/2000/svg" xmlns:xlink="http://www.w3.org/1999/xlink" width="750pt" height="2800pt" viewBox="0 0 750 2800" version="1.1">
<g id="surface1">
<path style="fill:none;stroke-width:0.01;stroke-linecap:butt;stroke-linejoin:miter;stroke:rgb(0%,0%,0%);stroke-opacity:1;stroke-miterlimit:10;" d="M 0.573711 0.647422 L 0.954531 0.659687 L 0.942266 0.52457 L 0.573711 0.5 L 0.573711 0.340313 L 0.0454688 0.52457 Z M 0.573711 0.647422 " transform="matrix(100,0,0,100,0,200)"/>
<path style="fill:none;stroke-width:0.01;stroke-linecap:butt;stroke-linejoin:miter;stroke:rgb(0%,0%,0%);stroke-opacity:1;stroke-miterlimit:10;" d="M 0.546602 0.622383 L 0.93125 0.692305 L 0.954531 0.564102 L 0.569922 0.470859 L 0.569922 0.307695 L 0.0454687 0.50582 Z M 0.546602 0.622383 " transform="matrix(100,0,0,100,150,200)"/>
<path style="fill:none;stroke-width:0.01;stroke-linecap:butt;stroke-linejoin:miter;stroke:rgb(0%,0%,0%);stroke-opacity:1;stroke-miterlimit:10;" d="M 0.559805 0.655508 L 0.954531 0.655508 L 0.954531 0.511953 L 0.559805 0.5 L 0.559805 0.344492 L 0.0454687 0.535898 Z M 0.559805 0.655508 " transform="matrix(100,0,0,100,300,200)"/>
<path style="fill:none;stroke-width:0.01;stroke-linecap:butt;stroke-linejoin:miter;stroke:rgb(0%,0%,0%);stroke-opacity:1;stroke-miterlimit:10;" d="M 0.559805 0.649531 L 0.954531 0.661484 L 0.942578 0.51793 L 0.559805 0.494023 L 0.559805 0.338516 L 0.0454688 0.529922 Z M 0.559805 0.649531 " transform="matrix(100,0,0,100,450,200)"/>
<path style="fill:none;stroke-width:0.01;stroke-linecap:butt;stroke-linejoin:miter;stroke:rgb(0%,0%,0%);stroke-opacity:1;stroke-miterlimit:10;" d="M 0.559805 0.631563 L 0.942578 0.679414 L 0.954531 0.547852 L 0.571758 0.476094 L 0.58375 0.320586 L 0.0454688 0.511953 Z M 0.559805 0.631563 " transform="matrix(100,0,0,100,600,200)"/>
<path style="fill:none;stroke-width:0.01;stroke-linecap:butt;stroke-linejoin:miter;stroke:rgb(0%,0%,0%);stroke-opacity:1;stroke-miterlimit:10;" d="M 0.580937 0.643203 L 0.942109 0.668125 L 0.954531 0.543594 L 0.593398 0.493789 L 0.593398 0.331875 L 0.0454688 0.518672 Z M 0.580937 0.643203 " transform="matrix(100,0,0,100,0,350)"/>
<path style="fill:none;stroke-width:0.01;stroke-linecap:butt;stroke-linejoin:miter;stroke:rgb(0%,0%,0%);stroke-opacity:1;stroke-miterlimit:10;" d="M 0.596016 0.653633 L 0.954531 0.628047 L 0.941758 0.5 L 0.583242 0.512812 L 0.596016 0.346367 L 0.0454687 0.525625 Z M 0.596016 0.653633 " transform="matrix(100,0,0,100,150,350)"/>
<path style="fill:none;stroke-width:0.01;stroke-linecap:butt;stroke-linejoin:miter;stroke:rgb(0%,0%,0%);stroke-opacity:1;stroke-miterlimit:10;" d="M 0.51082 0.656914 L 0.954531 0.624453 L 0.943711 0.47293 L 0.5 0.48375 L 0.48918 0.343086 L 0.0454687 0.548711 Z M 0.51082 0.656914 " transform="matrix(100,0,0,100,300,350)"/>
<path style="fill:none;stroke-width:0.01;stroke-linecap:butt;stroke-linejoin:miter;stroke:rgb(0%,0%,0%);stroke-opacity:1;stroke-miterlimit:10;" d="M 0.56668 0.651523 L 0.954531 0.603047 L 0.930313 0.469688 L 0.542422 0.493945 L 0.542422 0.348477 L 0.0454688 0.530312 Z M 0.56668 0.651523 " transform="matrix(100,0,0,100,450,350)"/>
<path style="fill:none;stroke-width:0.01;stroke-linecap:butt;stroke-linejoin:miter;stroke:rgb(0%,0%,0%);stroke-opacity:1;stroke-miterlimit:10;" d="M 0.553125 0.653477 L 0.954531 0.665273 L 0.954531 0.523594 L 0.564922 0.488203 L 0.553125 0.334727 L 0.0454688 0.53543 Z M 0.553125 0.653477 " transform="matrix(100,0,0,100,600,350)"/>
</g>
</svg>
