<?xml version="1.0" encoding="UTF-8"?>
<svg xmlns="http://www.w3.org/2000/svg" xmlns:xlink="http://www.w3.org/1999/xlink" width="750pt" height="2800pt" viewBox="0 0 750 2800" version="1.1">
<g id="surface1">
<path style="fill:none;stroke-width:0.01;stroke-linecap:butt;stroke-linejoin:miter;stroke:rgb(0%,0%,0%);stroke-opacity:1;stroke-miterlimit:10;" d="M 0.837227 0.353359 L 0.495117 0.333828 L 0.651523 0.324063 L 0.935 0.363164 L 0.944766 0.275156 L 0.631953 0.236055 L 0.338711 0.304492 L 0.260508 0.431563 L 0.0552344 0.402266 L 0.0454688 0.529336 L 0.240977 0.548867 L 0.309375 0.695508 L 0.622188 0.763945 L 0.954531 0.705273 L 0.944766 0.62707 L 0.641758 0.656406 L 0.475547 0.646641 L 0.837227 0.646641 Z M 0.837227 0.353359 " transform="matrix(100,0,0,100,0,200)"/>
<path style="fill:none;stroke-width:0.01;stroke-linecap:butt;stroke-linejoin:miter;stroke:rgb(0%,0%,0%);stroke-opacity:1;stroke-miterlimit:10;" d="M 0.834648 0.345156 L 0.485 0.345156 L 0.644844 0.325156 L 0.93457 0.345156 L 0.93457 0.255234 L 0.624883 0.235273 L 0.325156 0.325156 L 0.255234 0.455039 L 0.0454687 0.445039 L 0.0454687 0.564922 L 0.245273 0.574922 L 0.325156 0.724766 L 0.624883 0.764727 L 0.954531 0.694805 L 0.93457 0.614883 L 0.644844 0.664844 L 0.475039 0.664844 L 0.834648 0.644844 Z M 0.834648 0.345156 " transform="matrix(100,0,0,100,150,200)"/>
<path style="fill:none;stroke-width:0.01;stroke-linecap:butt;stroke-linejoin:miter;stroke:rgb(0%,0%,0%);stroke-opacity:1;stroke-miterlimit:10;" d="M 0.834648 0.335156 L 0.485 0.345156 L 0.644844 0.325156 L 0.93457 0.335156 L 0.93457 0.245273 L 0.624883 0.235273 L 0.325156 0.325156 L 0.265234 0.455039 L 0.0454687 0.455039 L 0.0454687 0.574922 L 0.245273 0.584922 L 0.325156 0.724766 L 0.634883 0.764727 L 0.954531 0.674844 L 0.93457 0.604883 L 0.644844 0.664844 L 0.485 0.664844 L 0.834648 0.634883 Z M 0.834648 0.335156 " transform="matrix(100,0,0,100,300,200)"/>
<path style="fill:none;stroke-width:0.01;stroke-linecap:butt;stroke-linejoin:miter;stroke:rgb(0%,0%,0%);stroke-opacity:1;stroke-miterlimit:10;" d="M 0.842188 0.367227 L 0.505117 0.326367 L 0.65832 0.326367 L 0.934102 0.377422 L 0.954531 0.295703 L 0.648125 0.234414 L 0.351875 0.285508 L 0.270156 0.397852 L 0.0658984 0.367227 L 0.0454688 0.47957 L 0.239531 0.52043 L 0.30082 0.673633 L 0.607266 0.765586 L 0.954531 0.745156 L 0.954531 0.663438 L 0.637891 0.663438 L 0.464258 0.643008 L 0.842188 0.673633 Z M 0.842188 0.367227 " transform="matrix(100,0,0,100,450,200)"/>
<path style="fill:none;stroke-width:0.01;stroke-linecap:butt;stroke-linejoin:miter;stroke:rgb(0%,0%,0%);stroke-opacity:1;stroke-miterlimit:10;" d="M 0.842188 0.351875 L 0.494883 0.331445 L 0.65832 0.32125 L 0.934102 0.362109 L 0.944336 0.270156 L 0.637891 0.229297 L 0.331445 0.30082 L 0.259961 0.433594 L 0.0556641 0.413164 L 0.0454688 0.525547 L 0.239531 0.556172 L 0.311016 0.69918 L 0.617461 0.770703 L 0.954531 0.719609 L 0.944336 0.637891 L 0.648125 0.668555 L 0.474453 0.65832 L 0.842188 0.65832 Z M 0.842188 0.351875 " transform="matrix(100,0,0,100,600,200)"/>
<path style="fill:none;stroke-width:0.01;stroke-linecap:butt;stroke-linejoin:miter;stroke:rgb(0%,0%,0%);stroke-opacity:1;stroke-miterlimit:10;" d="M 0.842187 0.356992 L 0.494883 0.326367 L 0.65832 0.326367 L 0.934102 0.367227 L 0.954531 0.275273 L 0.648125 0.234414 L 0.34168 0.285508 L 0.270156 0.408086 L 0.0556641 0.377422 L 0.0454688 0.5 L 0.239531 0.530625 L 0.30082 0.683867 L 0.617461 0.765586 L 0.954531 0.724727 L 0.954531 0.643008 L 0.637891 0.663437 L 0.464258 0.643008 L 0.842187 0.663437 Z M 0.842187 0.356992 " transform="matrix(100,0,0,100,0,350)"/>
<path style="fill:none;stroke-width:0.01;stroke-linecap:butt;stroke-linejoin:miter;stroke:rgb(0%,0%,0%);stroke-opacity:1;stroke-miterlimit:10;" d="M 0.836914 0.323516 L 0.483945 0.355625 L 0.644375 0.323516 L 0.933164 0.312852 L 0.933164 0.227266 L 0.612305 0.227266 L 0.323516 0.344922 L 0.270039 0.483945 L 0.0454687 0.483945 L 0.0561328 0.612305 L 0.259375 0.601602 L 0.344922 0.751328 L 0.644375 0.772734 L 0.954531 0.687148 L 0.933164 0.612305 L 0.655078 0.676484 L 0.494648 0.687148 L 0.836914 0.644375 Z M 0.836914 0.323516 " transform="matrix(100,0,0,100,150,350)"/>
<path style="fill:none;stroke-width:0.01;stroke-linecap:butt;stroke-linejoin:miter;stroke:rgb(0%,0%,0%);stroke-opacity:1;stroke-miterlimit:10;" d="M 0.838477 0.354922 L 0.490312 0.335586 L 0.654727 0.325938 L 0.935195 0.364609 L 0.944883 0.267891 L 0.635391 0.238867 L 0.335586 0.306563 L 0.267891 0.432305 L 0.0551172 0.412969 L 0.0454687 0.529023 L 0.238867 0.558008 L 0.306563 0.703086 L 0.625742 0.761133 L 0.954531 0.703086 L 0.944883 0.616055 L 0.645078 0.664414 L 0.470977 0.654727 L 0.838477 0.645078 Z M 0.838477 0.354922 " transform="matrix(100,0,0,100,300,350)"/>
<path style="fill:none;stroke-width:0.01;stroke-linecap:butt;stroke-linejoin:miter;stroke:rgb(0%,0%,0%);stroke-opacity:1;stroke-miterlimit:10;" d="M 0.843438 0.353555 L 0.5 0.323242 L 0.661602 0.323242 L 0.934336 0.363633 L 0.954531 0.272734 L 0.641406 0.232305 L 0.338398 0.29293 L 0.267695 0.414141 L 0.0555469 0.393945 L 0.0454688 0.505039 L 0.247461 0.535352 L 0.308086 0.686875 L 0.621211 0.767695 L 0.954531 0.717187 L 0.954531 0.636367 L 0.641406 0.66668 L 0.469688 0.646445 L 0.843438 0.656562 Z M 0.843438 0.353555 " transform="matrix(100,0,0,100,450,350)"/>
<path style="fill:none;stroke-width:0.01;stroke-linecap:butt;stroke-linejoin:miter;stroke:rgb(0%,0%,0%);stroke-opacity:1;stroke-miterlimit:10;" d="M 0.846328 0.353906 L 0.5 0.321445 L 0.662344 0.321445 L 0.943711 0.364727 L 0.954531 0.278125 L 0.651523 0.224023 L 0.348477 0.278125 L 0.272734 0.408008 L 0.0562891 0.375547 L 0.0454688 0.49457 L 0.240273 0.52707 L 0.305195 0.678555 L 0.608242 0.775977 L 0.954531 0.743516 L 0.954531 0.667734 L 0.640703 0.667734 L 0.467539 0.646094 L 0.846328 0.678555 Z M 0.846328 0.353906 " transform="matrix(100,0,0,100,600,350)"/>
</g>
</svg>
