<?xml version="1.0" encoding="UTF-8"?>
<svg xmlns="http://www.w3.org/2000/svg" xmlns:xlink="http://www.w3.org/1999/xlink" width="750pt" height="2800pt" viewBox="0 0 750 2800" version="1.1">
<g id="surface1">
<path style="fill:none;stroke-width:0.01;stroke-linecap:butt;stroke-linejoin:miter;stroke:rgb(0%,0%,0%);stroke-opacity:1;stroke-miterlimit:10;" d="M 0.280078 0.602656 L 0.514648 0.543984 L 0.954531 0.543984 L 0.954531 0.397344 L 0.470664 0.397344 L 0.0454688 0.558633 Z M 0.280078 0.602656 " transform="matrix(100,0,0,100,0,200)"/>
<path style="fill:none;stroke-width:0.01;stroke-linecap:butt;stroke-linejoin:miter;stroke:rgb(0%,0%,0%);stroke-opacity:1;stroke-miterlimit:10;" d="M 0.291992 0.592461 L 0.523125 0.546211 L 0.939141 0.561641 L 0.954531 0.438359 L 0.476875 0.407539 L 0.0454687 0.546211 Z M 0.291992 0.592461 " transform="matrix(100,0,0,100,150,200)"/>
<path style="fill:none;stroke-width:0.01;stroke-linecap:butt;stroke-linejoin:miter;stroke:rgb(0%,0%,0%);stroke-opacity:1;stroke-miterlimit:10;" d="M 0.25625 0.644922 L 0.506602 0.565859 L 0.954531 0.5 L 0.941367 0.355078 L 0.46707 0.407773 L 0.0454687 0.605391 Z M 0.25625 0.644922 " transform="matrix(100,0,0,100,300,200)"/>
<path style="fill:none;stroke-width:0.01;stroke-linecap:butt;stroke-linejoin:miter;stroke:rgb(0%,0%,0%);stroke-opacity:1;stroke-miterlimit:10;" d="M 0.253242 0.467539 L 0.487031 0.493516 L 0.902578 0.623359 L 0.954531 0.480508 L 0.5 0.376641 L 0.0454688 0.428555 Z M 0.253242 0.467539 " transform="matrix(100,0,0,100,450,200)"/>
<path style="fill:none;stroke-width:0.01;stroke-linecap:butt;stroke-linejoin:miter;stroke:rgb(0%,0%,0%);stroke-opacity:1;stroke-miterlimit:10;" d="M 0.259375 0.49332 L 0.5 0.50668 L 0.927812 0.613633 L 0.954531 0.466563 L 0.5 0.386367 L 0.0454688 0.453203 Z M 0.259375 0.49332 " transform="matrix(100,0,0,100,600,200)"/>
<path style="fill:none;stroke-width:0.01;stroke-linecap:butt;stroke-linejoin:miter;stroke:rgb(0%,0%,0%);stroke-opacity:1;stroke-miterlimit:10;" d="M 0.319883 0.551445 L 0.542891 0.534297 L 0.937383 0.60293 L 0.954531 0.465703 L 0.491406 0.39707 L 0.0454688 0.5 Z M 0.319883 0.551445 " transform="matrix(100,0,0,100,0,350)"/>
<path style="fill:none;stroke-width:0.01;stroke-linecap:butt;stroke-linejoin:miter;stroke:rgb(0%,0%,0%);stroke-opacity:1;stroke-miterlimit:10;" d="M 0.283906 0.596875 L 0.522344 0.552148 L 0.954531 0.56707 L 0.954531 0.418047 L 0.477656 0.403125 L 0.0454687 0.552148 Z M 0.283906 0.596875 " transform="matrix(100,0,0,100,150,350)"/>
<path style="fill:none;stroke-width:0.01;stroke-linecap:butt;stroke-linejoin:miter;stroke:rgb(0%,0%,0%);stroke-opacity:1;stroke-miterlimit:10;" d="M 0.276328 0.507227 L 0.507227 0.507227 L 0.925703 0.608242 L 0.954531 0.478359 L 0.492773 0.391758 L 0.0454687 0.463906 Z M 0.276328 0.507227 " transform="matrix(100,0,0,100,300,350)"/>
<path style="fill:none;stroke-width:0.01;stroke-linecap:butt;stroke-linejoin:miter;stroke:rgb(0%,0%,0%);stroke-opacity:1;stroke-miterlimit:10;" d="M 0.272734 0.585234 L 0.514219 0.556836 L 0.940352 0.585234 L 0.954531 0.443164 L 0.485781 0.414766 L 0.0454688 0.542617 Z M 0.272734 0.585234 " transform="matrix(100,0,0,100,450,350)"/>
<path style="fill:none;stroke-width:0.01;stroke-linecap:butt;stroke-linejoin:miter;stroke:rgb(0%,0%,0%);stroke-opacity:1;stroke-miterlimit:10;" d="M 0.259375 0.600273 L 0.5 0.546797 L 0.954531 0.546797 L 0.954531 0.399727 L 0.486641 0.399727 L 0.0454688 0.560156 Z M 0.259375 0.600273 " transform="matrix(100,0,0,100,600,350)"/>
</g>
</svg>
