<?xml version="1.0" encoding="UTF-8"?>
<svg xmlns="http://www.w3.org/2000/svg" xmlns:xlink="http://www.w3.org/1999/xlink" width="750pt" height="2800pt" viewBox="0 0 750 2800" version="1.1">
<g id="surface1">
<path style="fill:none;stroke-width:0.01;stroke-linecap:butt;stroke-linejoin:miter;stroke:rgb(0%,0%,0%);stroke-opacity:1;stroke-miterlimit:10;" d="M 0.954531 0.659492 L 0.954531 0.468086 L 0.460117 0.436211 L 0.0454688 0.340508 Z M 0.954531 0.659492 " transform="matrix(100,0,0,100,0,200)"/>
<path style="fill:none;stroke-width:0.01;stroke-linecap:butt;stroke-linejoin:miter;stroke:rgb(0%,0%,0%);stroke-opacity:1;stroke-miterlimit:10;" d="M 0.954531 0.659492 L 0.938594 0.5 L 0.460117 0.452148 L 0.0454687 0.340508 Z M 0.954531 0.659492 " transform="matrix(100,0,0,100,150,200)"/>
<path style="fill:none;stroke-width:0.01;stroke-linecap:butt;stroke-linejoin:miter;stroke:rgb(0%,0%,0%);stroke-opacity:1;stroke-miterlimit:10;" d="M 0.954531 0.659492 L 0.938594 0.484062 L 0.460117 0.452148 L 0.0454687 0.340508 Z M 0.954531 0.659492 " transform="matrix(100,0,0,100,300,200)"/>
<path style="fill:none;stroke-width:0.01;stroke-linecap:butt;stroke-linejoin:miter;stroke:rgb(0%,0%,0%);stroke-opacity:1;stroke-miterlimit:10;" d="M 0.909102 0.651523 L 0.954531 0.5 L 0.469688 0.454531 L 0.0454688 0.348477 Z M 0.909102 0.651523 " transform="matrix(100,0,0,100,450,200)"/>
<path style="fill:none;stroke-width:0.01;stroke-linecap:butt;stroke-linejoin:miter;stroke:rgb(0%,0%,0%);stroke-opacity:1;stroke-miterlimit:10;" d="M 0.954531 0.659492 L 0.954531 0.515938 L 0.460117 0.468086 L 0.0454688 0.340508 Z M 0.954531 0.659492 " transform="matrix(100,0,0,100,600,200)"/>
<path style="fill:none;stroke-width:0.01;stroke-linecap:butt;stroke-linejoin:miter;stroke:rgb(0%,0%,0%);stroke-opacity:1;stroke-miterlimit:10;" d="M 0.954531 0.659492 L 0.954531 0.468086 L 0.460117 0.436211 L 0.0454688 0.340508 Z M 0.954531 0.659492 " transform="matrix(100,0,0,100,0,350)"/>
<path style="fill:none;stroke-width:0.01;stroke-linecap:butt;stroke-linejoin:miter;stroke:rgb(0%,0%,0%);stroke-opacity:1;stroke-miterlimit:10;" d="M 0.923711 0.654102 L 0.954531 0.46918 L 0.461484 0.438359 L 0.0454687 0.345898 Z M 0.923711 0.654102 " transform="matrix(100,0,0,100,150,350)"/>
<path style="fill:none;stroke-width:0.01;stroke-linecap:butt;stroke-linejoin:miter;stroke:rgb(0%,0%,0%);stroke-opacity:1;stroke-miterlimit:10;" d="M 0.954531 0.659492 L 0.954531 0.468086 L 0.460117 0.436211 L 0.0454687 0.340508 Z M 0.954531 0.659492 " transform="matrix(100,0,0,100,300,350)"/>
<path style="fill:none;stroke-width:0.01;stroke-linecap:butt;stroke-linejoin:miter;stroke:rgb(0%,0%,0%);stroke-opacity:1;stroke-miterlimit:10;" d="M 0.938867 0.656758 L 0.954531 0.452969 L 0.468633 0.437305 L 0.0454688 0.343242 Z M 0.938867 0.656758 " transform="matrix(100,0,0,100,450,350)"/>
<path style="fill:none;stroke-width:0.01;stroke-linecap:butt;stroke-linejoin:miter;stroke:rgb(0%,0%,0%);stroke-opacity:1;stroke-miterlimit:10;" d="M 0.954531 0.659492 L 0.954531 0.515937 L 0.460117 0.468086 L 0.0454688 0.340508 Z M 0.954531 0.659492 " transform="matrix(100,0,0,100,600,350)"/>
</g>
</svg>
