<?xml version="1.0" encoding="UTF-8"?>
<svg xmlns="http://www.w3.org/2000/svg" xmlns:xlink="http://www.w3.org/1999/xlink" width="750pt" height="2800pt" viewBox="0 0 750 2800" version="1.1">
<g id="surface1">
<path style="fill:none;stroke-width:0.01;stroke-linecap:butt;stroke-linejoin:miter;stroke:rgb(0%,0%,0%);stroke-opacity:1;stroke-miterlimit:10;" d="M 0.840898 0.39582 L 0.490547 0.348477 L 0.660977 0.357969 L 0.935625 0.405312 L 0.954531 0.320078 L 0.642031 0.263242 L 0.339023 0.310625 L 0.272734 0.452656 L 0.0454688 0.443164 L 0.0454688 0.575742 L 0.263242 0.575742 L 0.348477 0.736758 Z M 0.840898 0.39582 " transform="matrix(100,0,0,100,0,200)"/>
<path style="fill:none;stroke-width:0.01;stroke-linecap:butt;stroke-linejoin:miter;stroke:rgb(0%,0%,0%);stroke-opacity:1;stroke-miterlimit:10;" d="M 0.852383 0.372305 L 0.505117 0.362109 L 0.668555 0.351875 L 0.944336 0.372305 L 0.954531 0.290586 L 0.648125 0.259961 L 0.34168 0.331445 L 0.270156 0.464258 L 0.0556641 0.433594 L 0.0454687 0.556172 L 0.249727 0.576602 L 0.32125 0.740039 Z M 0.852383 0.372305 " transform="matrix(100,0,0,100,150,200)"/>
<path style="fill:none;stroke-width:0.01;stroke-linecap:butt;stroke-linejoin:miter;stroke:rgb(0%,0%,0%);stroke-opacity:1;stroke-miterlimit:10;" d="M 0.852383 0.372305 L 0.505117 0.351875 L 0.668555 0.34168 L 0.944336 0.382539 L 0.954531 0.290586 L 0.648125 0.259961 L 0.351875 0.32125 L 0.270156 0.454023 L 0.0556641 0.423398 L 0.0454687 0.545977 L 0.249727 0.576602 L 0.32125 0.740039 Z M 0.852383 0.372305 " transform="matrix(100,0,0,100,300,200)"/>
<path style="fill:none;stroke-width:0.01;stroke-linecap:butt;stroke-linejoin:miter;stroke:rgb(0%,0%,0%);stroke-opacity:1;stroke-miterlimit:10;" d="M 0.852383 0.372305 L 0.515313 0.351875 L 0.668555 0.34168 L 0.944336 0.382539 L 0.954531 0.290586 L 0.65832 0.259961 L 0.362109 0.32125 L 0.280391 0.454023 L 0.0658984 0.423398 L 0.0454688 0.545977 L 0.249727 0.576602 L 0.32125 0.740039 Z M 0.852383 0.372305 " transform="matrix(100,0,0,100,450,200)"/>
<path style="fill:none;stroke-width:0.01;stroke-linecap:butt;stroke-linejoin:miter;stroke:rgb(0%,0%,0%);stroke-opacity:1;stroke-miterlimit:10;" d="M 0.847031 0.387578 L 0.514648 0.348477 L 0.671055 0.348477 L 0.935 0.397344 L 0.954531 0.319141 L 0.661289 0.260508 L 0.358242 0.299609 L 0.280078 0.44625 L 0.0552344 0.416914 L 0.0454688 0.543984 L 0.260508 0.57332 L 0.338711 0.739492 Z M 0.847031 0.387578 " transform="matrix(100,0,0,100,600,200)"/>
<path style="fill:none;stroke-width:0.01;stroke-linecap:butt;stroke-linejoin:miter;stroke:rgb(0%,0%,0%);stroke-opacity:1;stroke-miterlimit:10;" d="M 0.85125 0.370859 L 0.5 0.370859 L 0.665273 0.350195 L 0.944219 0.370859 L 0.954531 0.277891 L 0.634297 0.257227 L 0.334727 0.339883 L 0.262383 0.47418 L 0.0557813 0.443164 L 0.0454688 0.567148 L 0.241719 0.587813 L 0.314063 0.742773 Z M 0.85125 0.370859 " transform="matrix(100,0,0,100,0,350)"/>
<path style="fill:none;stroke-width:0.01;stroke-linecap:butt;stroke-linejoin:miter;stroke:rgb(0%,0%,0%);stroke-opacity:1;stroke-miterlimit:10;" d="M 0.845859 0.381406 L 0.5 0.361641 L 0.658086 0.351797 L 0.944648 0.391289 L 0.954531 0.302383 L 0.638359 0.262852 L 0.341914 0.322148 L 0.272734 0.460469 L 0.0553516 0.440703 L 0.0454687 0.559297 L 0.252969 0.579063 L 0.332031 0.737148 Z M 0.845859 0.381406 " transform="matrix(100,0,0,100,150,350)"/>
<path style="fill:none;stroke-width:0.01;stroke-linecap:butt;stroke-linejoin:miter;stroke:rgb(0%,0%,0%);stroke-opacity:1;stroke-miterlimit:10;" d="M 0.85125 0.370859 L 0.510312 0.360547 L 0.665273 0.350195 L 0.944219 0.370859 L 0.954531 0.288242 L 0.644609 0.257227 L 0.355391 0.329531 L 0.272734 0.463828 L 0.0557812 0.432852 L 0.0454687 0.546484 L 0.241719 0.577461 L 0.314062 0.742773 Z M 0.85125 0.370859 " transform="matrix(100,0,0,100,300,350)"/>
<path style="fill:none;stroke-width:0.01;stroke-linecap:butt;stroke-linejoin:miter;stroke:rgb(0%,0%,0%);stroke-opacity:1;stroke-miterlimit:10;" d="M 0.853555 0.378789 L 0.530312 0.348477 L 0.681836 0.348477 L 0.944453 0.388906 L 0.954531 0.308086 L 0.661602 0.257578 L 0.378789 0.308086 L 0.287891 0.449492 L 0.0656641 0.409102 L 0.0454688 0.530312 L 0.257578 0.570703 L 0.328281 0.742422 Z M 0.853555 0.378789 " transform="matrix(100,0,0,100,450,350)"/>
<path style="fill:none;stroke-width:0.01;stroke-linecap:butt;stroke-linejoin:miter;stroke:rgb(0%,0%,0%);stroke-opacity:1;stroke-miterlimit:10;" d="M 0.847031 0.387578 L 0.485352 0.368047 L 0.651523 0.358242 L 0.944766 0.397344 L 0.954531 0.299609 L 0.631953 0.260508 L 0.319141 0.338711 L 0.260508 0.475547 L 0.0454688 0.475547 L 0.0454688 0.592852 L 0.250742 0.592852 L 0.338711 0.739492 Z M 0.847031 0.387578 " transform="matrix(100,0,0,100,600,350)"/>
</g>
</svg>
