<?xml version="1.0" encoding="UTF-8"?>
<svg xmlns="http://www.w3.org/2000/svg" xmlns:xlink="http://www.w3.org/1999/xlink" width="750pt" height="2800pt" viewBox="0 0 750 2800" version="1.1">
<g id="surface1">
<path style="fill:none;stroke-width:0.01;stroke-linecap:butt;stroke-linejoin:miter;stroke:rgb(0%,0%,0%);stroke-opacity:1;stroke-miterlimit:10;" d="M 0.546602 0.738945 L 0.569922 0.564102 L 0.954531 0.540781 L 0.93125 0.412578 L 0.558281 0.424258 L 0.558281 0.261055 L 0.0454688 0.470859 Z M 0.546602 0.738945 " transform="matrix(100,0,0,100,0,200)"/>
<path style="fill:none;stroke-width:0.01;stroke-linecap:butt;stroke-linejoin:miter;stroke:rgb(0%,0%,0%);stroke-opacity:1;stroke-miterlimit:10;" d="M 0.559805 0.727266 L 0.559805 0.58375 L 0.954531 0.58375 L 0.942578 0.440195 L 0.559805 0.440195 L 0.571758 0.272734 L 0.0454687 0.452148 Z M 0.559805 0.727266 " transform="matrix(100,0,0,100,150,200)"/>
<path style="fill:none;stroke-width:0.01;stroke-linecap:butt;stroke-linejoin:miter;stroke:rgb(0%,0%,0%);stroke-opacity:1;stroke-miterlimit:10;" d="M 0.580938 0.742852 L 0.568477 0.556055 L 0.954531 0.543594 L 0.942109 0.406602 L 0.556055 0.419062 L 0.556055 0.257148 L 0.0454687 0.456406 Z M 0.580938 0.742852 " transform="matrix(100,0,0,100,300,200)"/>
<path style="fill:none;stroke-width:0.01;stroke-linecap:butt;stroke-linejoin:miter;stroke:rgb(0%,0%,0%);stroke-opacity:1;stroke-miterlimit:10;" d="M 0.559805 0.727266 L 0.559805 0.571758 L 0.954531 0.571758 L 0.942578 0.428242 L 0.559805 0.428242 L 0.559805 0.272734 L 0.0454688 0.452148 Z M 0.559805 0.727266 " transform="matrix(100,0,0,100,450,200)"/>
<path style="fill:none;stroke-width:0.01;stroke-linecap:butt;stroke-linejoin:miter;stroke:rgb(0%,0%,0%);stroke-opacity:1;stroke-miterlimit:10;" d="M 0.56668 0.736367 L 0.56668 0.578789 L 0.954531 0.56668 L 0.942422 0.421211 L 0.56668 0.421211 L 0.56668 0.263633 L 0.0454688 0.457578 Z M 0.56668 0.736367 " transform="matrix(100,0,0,100,600,200)"/>
<path style="fill:none;stroke-width:0.01;stroke-linecap:butt;stroke-linejoin:miter;stroke:rgb(0%,0%,0%);stroke-opacity:1;stroke-miterlimit:10;" d="M 0.546602 0.727266 L 0.569922 0.575742 L 0.954531 0.564102 L 0.942891 0.435898 L 0.569922 0.424258 L 0.569922 0.272734 L 0.0454688 0.459219 Z M 0.546602 0.727266 " transform="matrix(100,0,0,100,0,350)"/>
<path style="fill:none;stroke-width:0.01;stroke-linecap:butt;stroke-linejoin:miter;stroke:rgb(0%,0%,0%);stroke-opacity:1;stroke-miterlimit:10;" d="M 0.56668 0.748477 L 0.56668 0.554531 L 0.954531 0.518164 L 0.942422 0.384844 L 0.56668 0.409102 L 0.554531 0.251523 L 0.0454687 0.469688 Z M 0.56668 0.748477 " transform="matrix(100,0,0,100,150,350)"/>
<path style="fill:none;stroke-width:0.01;stroke-linecap:butt;stroke-linejoin:miter;stroke:rgb(0%,0%,0%);stroke-opacity:1;stroke-miterlimit:10;" d="M 0.56668 0.736367 L 0.56668 0.56668 L 0.954531 0.554531 L 0.942422 0.421211 L 0.56668 0.421211 L 0.56668 0.263633 L 0.0454687 0.457578 Z M 0.56668 0.736367 " transform="matrix(100,0,0,100,300,350)"/>
<path style="fill:none;stroke-width:0.01;stroke-linecap:butt;stroke-linejoin:miter;stroke:rgb(0%,0%,0%);stroke-opacity:1;stroke-miterlimit:10;" d="M 0.573711 0.745703 L 0.561406 0.561406 L 0.954531 0.536836 L 0.929961 0.401719 L 0.561406 0.414023 L 0.549141 0.254297 L 0.0454688 0.463164 Z M 0.573711 0.745703 " transform="matrix(100,0,0,100,450,350)"/>
<path style="fill:none;stroke-width:0.01;stroke-linecap:butt;stroke-linejoin:miter;stroke:rgb(0%,0%,0%);stroke-opacity:1;stroke-miterlimit:10;" d="M 0.553125 0.724336 L 0.564922 0.582656 L 0.954531 0.57082 L 0.942734 0.440977 L 0.564922 0.42918 L 0.564922 0.275664 L 0.0454688 0.452773 Z M 0.553125 0.724336 " transform="matrix(100,0,0,100,600,350)"/>
</g>
</svg>
