<?xml version="1.0" encoding="UTF-8"?>
<svg xmlns="http://www.w3.org/2000/svg" xmlns:xlink="http://www.w3.org/1999/xlink" width="750pt" height="2800pt" viewBox="0 0 750 2800" version="1.1">
<g id="surface1">
<path style="fill:none;stroke-width:0.01;stroke-linecap:butt;stroke-linejoin:miter;stroke:rgb(0%,0%,0%);stroke-opacity:1;stroke-miterlimit:10;" d="M 0.790625 0.596875 L 0.283906 0.56707 L 0.522344 0.537266 L 0.939648 0.56707 L 0.954531 0.43293 L 0.477656 0.403125 L 0.0454688 0.537266 Z M 0.790625 0.596875 " transform="matrix(100,0,0,100,0,200)"/>
<path style="fill:none;stroke-width:0.01;stroke-linecap:butt;stroke-linejoin:miter;stroke:rgb(0%,0%,0%);stroke-opacity:1;stroke-miterlimit:10;" d="M 0.778594 0.551328 L 0.280078 0.536641 L 0.514648 0.536641 L 0.925234 0.595312 L 0.954531 0.463359 L 0.485352 0.404688 L 0.0454687 0.492656 Z M 0.778594 0.551328 " transform="matrix(100,0,0,100,150,200)"/>
<path style="fill:none;stroke-width:0.01;stroke-linecap:butt;stroke-linejoin:miter;stroke:rgb(0%,0%,0%);stroke-opacity:1;stroke-miterlimit:10;" d="M 0.790625 0.596875 L 0.283906 0.56707 L 0.522344 0.537266 L 0.954531 0.581953 L 0.954531 0.43293 L 0.492539 0.403125 L 0.0454687 0.537266 Z M 0.790625 0.596875 " transform="matrix(100,0,0,100,300,200)"/>
<path style="fill:none;stroke-width:0.01;stroke-linecap:butt;stroke-linejoin:miter;stroke:rgb(0%,0%,0%);stroke-opacity:1;stroke-miterlimit:10;" d="M 0.857148 0.589297 L 0.272734 0.556836 L 0.51625 0.556836 L 0.93832 0.589297 L 0.954531 0.459414 L 0.48375 0.410703 L 0.0454688 0.524336 Z M 0.857148 0.589297 " transform="matrix(100,0,0,100,450,200)"/>
<path style="fill:none;stroke-width:0.01;stroke-linecap:butt;stroke-linejoin:miter;stroke:rgb(0%,0%,0%);stroke-opacity:1;stroke-miterlimit:10;" d="M 0.829141 0.601875 L 0.280547 0.570547 L 0.515664 0.53918 L 0.938867 0.554844 L 0.954531 0.429453 L 0.484336 0.398125 L 0.0454688 0.53918 Z M 0.829141 0.601875 " transform="matrix(100,0,0,100,600,200)"/>
<path style="fill:none;stroke-width:0.01;stroke-linecap:butt;stroke-linejoin:miter;stroke:rgb(0%,0%,0%);stroke-opacity:1;stroke-miterlimit:10;" d="M 0.723867 0.601758 L 0.276133 0.561055 L 0.520352 0.533906 L 0.940977 0.533906 L 0.954531 0.398242 L 0.479648 0.398242 L 0.0454688 0.5475 Z M 0.723867 0.601758 " transform="matrix(100,0,0,100,0,350)"/>
<path style="fill:none;stroke-width:0.01;stroke-linecap:butt;stroke-linejoin:miter;stroke:rgb(0%,0%,0%);stroke-opacity:1;stroke-miterlimit:10;" d="M 0.815859 0.569336 L 0.276563 0.553945 L 0.523125 0.538516 L 0.939141 0.600156 L 0.954531 0.461484 L 0.492305 0.399844 L 0.0454687 0.507695 Z M 0.815859 0.569336 " transform="matrix(100,0,0,100,150,350)"/>
<path style="fill:none;stroke-width:0.01;stroke-linecap:butt;stroke-linejoin:miter;stroke:rgb(0%,0%,0%);stroke-opacity:1;stroke-miterlimit:10;" d="M 0.815859 0.600156 L 0.276563 0.569336 L 0.523125 0.538516 L 0.954531 0.553945 L 0.954531 0.415273 L 0.492305 0.399844 L 0.0454687 0.538516 Z M 0.815859 0.600156 " transform="matrix(100,0,0,100,300,350)"/>
<path style="fill:none;stroke-width:0.01;stroke-linecap:butt;stroke-linejoin:miter;stroke:rgb(0%,0%,0%);stroke-opacity:1;stroke-miterlimit:10;" d="M 0.887188 0.550508 L 0.281133 0.533672 L 0.516836 0.533672 L 0.937695 0.601016 L 0.954531 0.466328 L 0.5 0.398984 L 0.0454688 0.483164 Z M 0.887188 0.550508 " transform="matrix(100,0,0,100,450,350)"/>
<path style="fill:none;stroke-width:0.01;stroke-linecap:butt;stroke-linejoin:miter;stroke:rgb(0%,0%,0%);stroke-opacity:1;stroke-miterlimit:10;" d="M 0.91957 0.613633 L 0.290195 0.561172 L 0.5175 0.526211 L 0.954531 0.526211 L 0.954531 0.386367 L 0.4825 0.386367 L 0.0454688 0.543711 Z M 0.91957 0.613633 " transform="matrix(100,0,0,100,600,350)"/>
</g>
</svg>
