<?xml version="1.0" encoding="UTF-8"?>
<svg xmlns="http://www.w3.org/2000/svg" xmlns:xlink="http://www.w3.org/1999/xlink" width="750pt" height="2800pt" viewBox="0 0 750 2800" version="1.1">
<g id="surface1">
<path style="fill:none;stroke-width:0.01;stroke-linecap:butt;stroke-linejoin:miter;stroke:rgb(0%,0%,0%);stroke-opacity:1;stroke-miterlimit:10;" d="M 0.772734 0.136367 L 0.106055 0.0454687 L 0.0757422 0.409102 L 0.681836 0.5 L 0.924258 0.954531 Z M 0.772734 0.136367 " transform="matrix(100,0,0,100,0,200)"/>
<path style="fill:none;stroke-width:0.01;stroke-linecap:butt;stroke-linejoin:miter;stroke:rgb(0%,0%,0%);stroke-opacity:1;stroke-miterlimit:10;" d="M 0.775977 0.0779297 L 0.0616797 0.0454687 L 0.0616797 0.435078 L 0.711055 0.467539 L 0.93832 0.954531 Z M 0.775977 0.0779297 " transform="matrix(100,0,0,100,150,200)"/>
<path style="fill:none;stroke-width:0.01;stroke-linecap:butt;stroke-linejoin:miter;stroke:rgb(0%,0%,0%);stroke-opacity:1;stroke-miterlimit:10;" d="M 0.750781 0.108164 L 0.123828 0.0454687 L 0.0924609 0.390273 L 0.688086 0.452969 L 0.907539 0.954531 Z M 0.750781 0.108164 " transform="matrix(100,0,0,100,300,200)"/>
<path style="fill:none;stroke-width:0.01;stroke-linecap:butt;stroke-linejoin:miter;stroke:rgb(0%,0%,0%);stroke-opacity:1;stroke-miterlimit:10;" d="M 0.772734 0.136367 L 0.106055 0.0454687 L 0.0757422 0.409102 L 0.681836 0.5 L 0.924258 0.954531 Z M 0.772734 0.136367 " transform="matrix(100,0,0,100,450,200)"/>
<path style="fill:none;stroke-width:0.01;stroke-linecap:butt;stroke-linejoin:miter;stroke:rgb(0%,0%,0%);stroke-opacity:1;stroke-miterlimit:10;" d="M 0.778594 0.162773 L 0.104102 0.0454687 L 0.0747656 0.42668 L 0.690625 0.514648 L 0.925234 0.954531 Z M 0.778594 0.162773 " transform="matrix(100,0,0,100,600,200)"/>
<path style="fill:none;stroke-width:0.01;stroke-linecap:butt;stroke-linejoin:miter;stroke:rgb(0%,0%,0%);stroke-opacity:1;stroke-miterlimit:10;" d="M 0.787891 0.136367 L 0.0908984 0.0454687 L 0.060625 0.439375 L 0.696953 0.5 L 0.939375 0.954531 Z M 0.787891 0.136367 " transform="matrix(100,0,0,100,0,350)"/>
<path style="fill:none;stroke-width:0.01;stroke-linecap:butt;stroke-linejoin:miter;stroke:rgb(0%,0%,0%);stroke-opacity:1;stroke-miterlimit:10;" d="M 0.784102 0.1875 L 0.130664 0.0454687 L 0.0738672 0.414766 L 0.670469 0.528398 L 0.926133 0.954531 Z M 0.784102 0.1875 " transform="matrix(100,0,0,100,150,350)"/>
<path style="fill:none;stroke-width:0.01;stroke-linecap:butt;stroke-linejoin:miter;stroke:rgb(0%,0%,0%);stroke-opacity:1;stroke-miterlimit:10;" d="M 0.763945 0.162773 L 0.148086 0.0454687 L 0.0894531 0.397344 L 0.675937 0.485352 L 0.910547 0.954531 Z M 0.763945 0.162773 " transform="matrix(100,0,0,100,300,350)"/>
<path style="fill:none;stroke-width:0.01;stroke-linecap:butt;stroke-linejoin:miter;stroke:rgb(0%,0%,0%);stroke-opacity:1;stroke-miterlimit:10;" d="M 0.750781 0.108164 L 0.123828 0.0454687 L 0.0924609 0.421641 L 0.688086 0.452969 L 0.907539 0.954531 Z M 0.750781 0.108164 " transform="matrix(100,0,0,100,450,350)"/>
<path style="fill:none;stroke-width:0.01;stroke-linecap:butt;stroke-linejoin:miter;stroke:rgb(0%,0%,0%);stroke-opacity:1;stroke-miterlimit:10;" d="M 0.750781 0.108164 L 0.123828 0.0454687 L 0.0924609 0.390273 L 0.688086 0.452969 L 0.907539 0.954531 Z M 0.750781 0.108164 " transform="matrix(100,0,0,100,600,350)"/>
</g>
</svg>
