<?xml version="1.0" encoding="UTF-8"?>
<svg xmlns="http://www.w3.org/2000/svg" xmlns:xlink="http://www.w3.org/1999/xlink" width="750pt" height="2800pt" viewBox="0 0 750 2800" version="1.1">
<g id="surface1">
<path style="fill:none;stroke-width:0.01;stroke-linecap:butt;stroke-linejoin:miter;stroke:rgb(0%,0%,0%);stroke-opacity:1;stroke-miterlimit:10;" d="M 0.0454688 0.696563 L 0.573711 0.88082 L 0.561406 0.721133 L 0.942266 0.708828 L 0.954531 0.573711 L 0.561406 0.573711 L 0.549141 0.426289 L 0.929961 0.389453 L 0.917695 0.266602 L 0.549141 0.278867 L 0.536836 0.11918 L 0.0454688 0.328008 Z M 0.0454688 0.696563 " transform="matrix(100,0,0,100,0,200)"/>
<path style="fill:none;stroke-width:0.01;stroke-linecap:butt;stroke-linejoin:miter;stroke:rgb(0%,0%,0%);stroke-opacity:1;stroke-miterlimit:10;" d="M 0.0454687 0.677852 L 0.559297 0.888672 L 0.559297 0.730586 L 0.941367 0.730586 L 0.941367 0.598828 L 0.559297 0.585625 L 0.559297 0.414375 L 0.954531 0.427539 L 0.954531 0.282617 L 0.572461 0.269414 L 0.572461 0.111328 L 0.0454687 0.282617 Z M 0.0454687 0.677852 " transform="matrix(100,0,0,100,150,200)"/>
<path style="fill:none;stroke-width:0.01;stroke-linecap:butt;stroke-linejoin:miter;stroke:rgb(0%,0%,0%);stroke-opacity:1;stroke-miterlimit:10;" d="M 0.0454687 0.687891 L 0.578789 0.881836 L 0.56668 0.724258 L 0.954531 0.724258 L 0.954531 0.578789 L 0.56668 0.578789 L 0.554531 0.421211 L 0.942422 0.396953 L 0.918164 0.263633 L 0.554531 0.275742 L 0.542422 0.118164 L 0.0454687 0.324258 Z M 0.0454687 0.687891 " transform="matrix(100,0,0,100,300,200)"/>
<path style="fill:none;stroke-width:0.01;stroke-linecap:butt;stroke-linejoin:miter;stroke:rgb(0%,0%,0%);stroke-opacity:1;stroke-miterlimit:10;" d="M 0.0454688 0.680664 L 0.581602 0.878789 L 0.569922 0.715625 L 0.954531 0.715625 L 0.954531 0.575742 L 0.569922 0.564102 L 0.558281 0.412578 L 0.93125 0.377617 L 0.91957 0.249414 L 0.546602 0.272734 L 0.534961 0.121211 L 0.0454688 0.331016 Z M 0.0454688 0.680664 " transform="matrix(100,0,0,100,450,200)"/>
<path style="fill:none;stroke-width:0.01;stroke-linecap:butt;stroke-linejoin:miter;stroke:rgb(0%,0%,0%);stroke-opacity:1;stroke-miterlimit:10;" d="M 0.0454688 0.647734 L 0.556836 0.886367 L 0.556836 0.727266 L 0.931836 0.75 L 0.954531 0.625 L 0.568164 0.579531 L 0.568164 0.420469 L 0.954531 0.409102 L 0.943164 0.272734 L 0.568164 0.272734 L 0.568164 0.113633 L 0.0454688 0.306836 Z M 0.0454688 0.647734 " transform="matrix(100,0,0,100,600,200)"/>
<path style="fill:none;stroke-width:0.01;stroke-linecap:butt;stroke-linejoin:miter;stroke:rgb(0%,0%,0%);stroke-opacity:1;stroke-miterlimit:10;" d="M 0.0454688 0.690781 L 0.58418 0.870352 L 0.572969 0.713242 L 0.954531 0.690781 L 0.954531 0.556133 L 0.561719 0.556133 L 0.550508 0.410195 L 0.909648 0.365312 L 0.887188 0.230625 L 0.528047 0.275547 L 0.516836 0.129648 L 0.0454688 0.354102 Z M 0.0454688 0.690781 " transform="matrix(100,0,0,100,0,350)"/>
<path style="fill:none;stroke-width:0.01;stroke-linecap:butt;stroke-linejoin:miter;stroke:rgb(0%,0%,0%);stroke-opacity:1;stroke-miterlimit:10;" d="M 0.0454687 0.668125 L 0.556055 0.879844 L 0.556055 0.730391 L 0.929648 0.742852 L 0.942109 0.605859 L 0.556055 0.580938 L 0.556055 0.431523 L 0.954531 0.419062 L 0.942109 0.294531 L 0.568477 0.28207 L 0.568477 0.120156 L 0.0454687 0.294531 Z M 0.0454687 0.668125 " transform="matrix(100,0,0,100,150,350)"/>
<path style="fill:none;stroke-width:0.01;stroke-linecap:butt;stroke-linejoin:miter;stroke:rgb(0%,0%,0%);stroke-opacity:1;stroke-miterlimit:10;" d="M 0.0454687 0.667461 L 0.559805 0.882773 L 0.559805 0.727266 L 0.930625 0.739219 L 0.942578 0.607656 L 0.559805 0.58375 L 0.559805 0.428242 L 0.954531 0.41625 L 0.942578 0.284687 L 0.559805 0.284687 L 0.559805 0.117227 L 0.0454687 0.308594 Z M 0.0454687 0.667461 " transform="matrix(100,0,0,100,300,350)"/>
<path style="fill:none;stroke-width:0.01;stroke-linecap:butt;stroke-linejoin:miter;stroke:rgb(0%,0%,0%);stroke-opacity:1;stroke-miterlimit:10;" d="M 0.0454688 0.685391 L 0.571758 0.876797 L 0.559805 0.721289 L 0.942578 0.721289 L 0.954531 0.577734 L 0.559805 0.577734 L 0.547852 0.422266 L 0.930625 0.39832 L 0.918672 0.266758 L 0.547852 0.278711 L 0.547852 0.123203 L 0.0454688 0.326563 Z M 0.0454688 0.685391 " transform="matrix(100,0,0,100,450,350)"/>
<path style="fill:none;stroke-width:0.01;stroke-linecap:butt;stroke-linejoin:miter;stroke:rgb(0%,0%,0%);stroke-opacity:1;stroke-miterlimit:10;" d="M 0.0454688 0.649609 L 0.551797 0.879766 L 0.551797 0.718633 L 0.931523 0.753164 L 0.943047 0.615078 L 0.563281 0.580547 L 0.563281 0.419453 L 0.954531 0.40793 L 0.943047 0.281367 L 0.563281 0.269844 L 0.563281 0.120234 L 0.0454688 0.304375 Z M 0.0454688 0.649609 " transform="matrix(100,0,0,100,600,350)"/>
</g>
</svg>
