<?xml version="1.0" encoding="UTF-8"?>
<svg xmlns="http://www.w3.org/2000/svg" xmlns:xlink="http://www.w3.org/1999/xlink" width="750pt" height="2800pt" viewBox="0 0 750 2800" version="1.1">
<g id="surface1">
<path style="fill:none;stroke-width:0.01;stroke-linecap:butt;stroke-linejoin:miter;stroke:rgb(0%,0%,0%);stroke-opacity:1;stroke-miterlimit:10;" d="M 0.935977 0.574219 L 0.954531 0.425781 L 0.379414 0.5 L 0.0454688 0.481445 Z M 0.935977 0.574219 " transform="matrix(100,0,0,100,0,200)"/>
<path style="fill:none;stroke-width:0.01;stroke-linecap:butt;stroke-linejoin:miter;stroke:rgb(0%,0%,0%);stroke-opacity:1;stroke-miterlimit:10;" d="M 0.954531 0.575742 L 0.91668 0.424258 L 0.348477 0.5 L 0.0454687 0.481055 Z M 0.954531 0.575742 " transform="matrix(100,0,0,100,150,200)"/>
<path style="fill:none;stroke-width:0.01;stroke-linecap:butt;stroke-linejoin:miter;stroke:rgb(0%,0%,0%);stroke-opacity:1;stroke-miterlimit:10;" d="M 0.954531 0.566289 L 0.91668 0.433711 L 0.348477 0.490547 L 0.0454687 0.471602 Z M 0.954531 0.566289 " transform="matrix(100,0,0,100,300,200)"/>
<path style="fill:none;stroke-width:0.01;stroke-linecap:butt;stroke-linejoin:miter;stroke:rgb(0%,0%,0%);stroke-opacity:1;stroke-miterlimit:10;" d="M 0.954531 0.575742 L 0.859844 0.424258 L 0.329531 0.5 L 0.0454688 0.481055 Z M 0.954531 0.575742 " transform="matrix(100,0,0,100,450,200)"/>
<path style="fill:none;stroke-width:0.01;stroke-linecap:butt;stroke-linejoin:miter;stroke:rgb(0%,0%,0%);stroke-opacity:1;stroke-miterlimit:10;" d="M 0.954531 0.585234 L 0.935625 0.414766 L 0.367422 0.490547 L 0.0454688 0.490547 Z M 0.954531 0.585234 " transform="matrix(100,0,0,100,600,200)"/>
<path style="fill:none;stroke-width:0.01;stroke-linecap:butt;stroke-linejoin:miter;stroke:rgb(0%,0%,0%);stroke-opacity:1;stroke-miterlimit:10;" d="M 0.954531 0.566289 L 0.954531 0.433711 L 0.367422 0.490547 L 0.0454688 0.471602 Z M 0.954531 0.566289 " transform="matrix(100,0,0,100,0,350)"/>
<path style="fill:none;stroke-width:0.01;stroke-linecap:butt;stroke-linejoin:miter;stroke:rgb(0%,0%,0%);stroke-opacity:1;stroke-miterlimit:10;" d="M 0.954531 0.585234 L 0.935625 0.414766 L 0.367422 0.490547 L 0.0454687 0.490547 Z M 0.954531 0.585234 " transform="matrix(100,0,0,100,150,350)"/>
<path style="fill:none;stroke-width:0.01;stroke-linecap:butt;stroke-linejoin:miter;stroke:rgb(0%,0%,0%);stroke-opacity:1;stroke-miterlimit:10;" d="M 0.954531 0.594688 L 0.91668 0.405312 L 0.348477 0.5 L 0.0454687 0.5 Z M 0.954531 0.594688 " transform="matrix(100,0,0,100,300,350)"/>
<path style="fill:none;stroke-width:0.01;stroke-linecap:butt;stroke-linejoin:miter;stroke:rgb(0%,0%,0%);stroke-opacity:1;stroke-miterlimit:10;" d="M 0.954531 0.594688 L 0.897734 0.405312 L 0.348477 0.5 L 0.0454688 0.5 Z M 0.954531 0.594688 " transform="matrix(100,0,0,100,450,350)"/>
<path style="fill:none;stroke-width:0.01;stroke-linecap:butt;stroke-linejoin:miter;stroke:rgb(0%,0%,0%);stroke-opacity:1;stroke-miterlimit:10;" d="M 0.954531 0.60418 L 0.91668 0.39582 L 0.348477 0.509453 L 0.0454688 0.509453 Z M 0.954531 0.60418 " transform="matrix(100,0,0,100,600,350)"/>
</g>
</svg>
