<?xml version="1.0" encoding="UTF-8"?>
<svg xmlns="http://www.w3.org/2000/svg" xmlns:xlink="http://www.w3.org/1999/xlink" width="750pt" height="2800pt" viewBox="0 0 750 2800" version="1.1">
<g id="surface1">
<path style="fill:none;stroke-width:0.01;stroke-linecap:butt;stroke-linejoin:miter;stroke:rgb(0%,0%,0%);stroke-opacity:1;stroke-miterlimit:10;" d="M 0.0454688 0.647578 L 0.553125 0.718398 L 0.919141 0.742031 L 0.930937 0.612148 L 0.564922 0.576758 L 0.246172 0.482305 L 0.553125 0.411445 L 0.954531 0.399648 L 0.942734 0.257969 L 0.576758 0.257969 L 0.0454688 0.293398 Z M 0.0454688 0.647578 " transform="matrix(100,0,0,100,0,200)"/>
<path style="fill:none;stroke-width:0.01;stroke-linecap:butt;stroke-linejoin:miter;stroke:rgb(0%,0%,0%);stroke-opacity:1;stroke-miterlimit:10;" d="M 0.0454687 0.663633 L 0.56668 0.724258 L 0.942422 0.736367 L 0.954531 0.603047 L 0.578789 0.578789 L 0.251523 0.481836 L 0.554531 0.409102 L 0.954531 0.396953 L 0.942422 0.263633 L 0.578789 0.263633 L 0.0454687 0.3 Z M 0.0454687 0.663633 " transform="matrix(100,0,0,100,150,200)"/>
<path style="fill:none;stroke-width:0.01;stroke-linecap:butt;stroke-linejoin:miter;stroke:rgb(0%,0%,0%);stroke-opacity:1;stroke-miterlimit:10;" d="M 0.0454687 0.669688 L 0.56668 0.718164 L 0.942422 0.730313 L 0.954531 0.596953 L 0.578789 0.572734 L 0.239375 0.487891 L 0.542422 0.415156 L 0.942422 0.403047 L 0.930312 0.269687 L 0.56668 0.269687 L 0.0454687 0.306055 Z M 0.0454687 0.669688 " transform="matrix(100,0,0,100,300,200)"/>
<path style="fill:none;stroke-width:0.01;stroke-linecap:butt;stroke-linejoin:miter;stroke:rgb(0%,0%,0%);stroke-opacity:1;stroke-miterlimit:10;" d="M 0.0454688 0.686484 L 0.569922 0.733086 L 0.942891 0.733086 L 0.954531 0.593242 L 0.581602 0.581602 L 0.243594 0.5 L 0.52332 0.418398 L 0.90793 0.395117 L 0.884609 0.266914 L 0.546602 0.278555 L 0.0454688 0.336836 Z M 0.0454688 0.686484 " transform="matrix(100,0,0,100,450,200)"/>
<path style="fill:none;stroke-width:0.01;stroke-linecap:butt;stroke-linejoin:miter;stroke:rgb(0%,0%,0%);stroke-opacity:1;stroke-miterlimit:10;" d="M 0.0454688 0.696563 L 0.573711 0.708828 L 0.954531 0.696563 L 0.954531 0.561406 L 0.573711 0.561406 L 0.229727 0.5 L 0.52457 0.426289 L 0.893125 0.414023 L 0.88082 0.291172 L 0.536836 0.291172 L 0.0454688 0.328008 Z M 0.0454688 0.696563 " transform="matrix(100,0,0,100,600,200)"/>
<path style="fill:none;stroke-width:0.01;stroke-linecap:butt;stroke-linejoin:miter;stroke:rgb(0%,0%,0%);stroke-opacity:1;stroke-miterlimit:10;" d="M 0.0454688 0.668125 L 0.556055 0.71793 L 0.942109 0.71793 L 0.942109 0.593398 L 0.568477 0.568477 L 0.244727 0.493789 L 0.556055 0.419062 L 0.954531 0.419062 L 0.942109 0.28207 L 0.580937 0.28207 L 0.0454688 0.294531 Z M 0.0454688 0.668125 " transform="matrix(100,0,0,100,0,350)"/>
<path style="fill:none;stroke-width:0.01;stroke-linecap:butt;stroke-linejoin:miter;stroke:rgb(0%,0%,0%);stroke-opacity:1;stroke-miterlimit:10;" d="M 0.0454687 0.651523 L 0.554531 0.712109 L 0.930312 0.736367 L 0.942422 0.603047 L 0.56668 0.56668 L 0.251523 0.481836 L 0.554531 0.409102 L 0.954531 0.396953 L 0.942422 0.263633 L 0.578789 0.263633 L 0.0454687 0.287891 Z M 0.0454687 0.651523 " transform="matrix(100,0,0,100,150,350)"/>
<path style="fill:none;stroke-width:0.01;stroke-linecap:butt;stroke-linejoin:miter;stroke:rgb(0%,0%,0%);stroke-opacity:1;stroke-miterlimit:10;" d="M 0.0454687 0.701367 L 0.574805 0.735898 L 0.954531 0.724414 L 0.954531 0.586289 L 0.574805 0.586289 L 0.241094 0.517266 L 0.517266 0.425195 L 0.873984 0.390664 L 0.8625 0.264102 L 0.52875 0.287109 L 0.0454687 0.356172 Z M 0.0454687 0.701367 " transform="matrix(100,0,0,100,300,350)"/>
<path style="fill:none;stroke-width:0.01;stroke-linecap:butt;stroke-linejoin:miter;stroke:rgb(0%,0%,0%);stroke-opacity:1;stroke-miterlimit:10;" d="M 0.0454688 0.629883 L 0.529531 0.700703 L 0.883711 0.736133 L 0.907305 0.60625 L 0.553125 0.57082 L 0.246172 0.476406 L 0.553125 0.405547 L 0.954531 0.405547 L 0.954531 0.275664 L 0.576758 0.263867 L 0.0454688 0.275664 Z M 0.0454688 0.629883 " transform="matrix(100,0,0,100,450,350)"/>
<path style="fill:none;stroke-width:0.01;stroke-linecap:butt;stroke-linejoin:miter;stroke:rgb(0%,0%,0%);stroke-opacity:1;stroke-miterlimit:10;" d="M 0.0454688 0.680586 L 0.568477 0.71793 L 0.942109 0.71793 L 0.954531 0.580938 L 0.568477 0.568477 L 0.244727 0.493789 L 0.543594 0.431523 L 0.942109 0.431523 L 0.929648 0.294531 L 0.568477 0.28207 L 0.0454688 0.306992 Z M 0.0454688 0.680586 " transform="matrix(100,0,0,100,600,350)"/>
</g>
</svg>
