<?xml version="1.0" encoding="UTF-8"?>
<svg xmlns="http://www.w3.org/2000/svg" xmlns:xlink="http://www.w3.org/1999/xlink" width="750pt" height="2800pt" viewBox="0 0 750 2800" version="1.1">
<g id="surface1">
<path style="fill:none;stroke-width:0.01;stroke-linecap:butt;stroke-linejoin:miter;stroke:rgb(0%,0%,0%);stroke-opacity:1;stroke-miterlimit:10;" d="M 0.782148 0.108164 L 0.0924609 0.0454687 L 0.0611328 0.421641 L 0.719453 0.484336 L 0.938867 0.954531 Z M 0.782148 0.108164 " transform="matrix(100,0,0,100,0,200)"/>
<path style="fill:none;stroke-width:0.01;stroke-linecap:butt;stroke-linejoin:miter;stroke:rgb(0%,0%,0%);stroke-opacity:1;stroke-miterlimit:10;" d="M 0.778594 0.162773 L 0.133438 0.0454687 L 0.0747656 0.42668 L 0.690625 0.514648 L 0.925234 0.954531 Z M 0.778594 0.162773 " transform="matrix(100,0,0,100,150,200)"/>
<path style="fill:none;stroke-width:0.01;stroke-linecap:butt;stroke-linejoin:miter;stroke:rgb(0%,0%,0%);stroke-opacity:1;stroke-miterlimit:10;" d="M 0.787891 0.136367 L 0.0908984 0.0454687 L 0.060625 0.439375 L 0.696953 0.5 L 0.939375 0.954531 Z M 0.787891 0.136367 " transform="matrix(100,0,0,100,300,200)"/>
<path style="fill:none;stroke-width:0.01;stroke-linecap:butt;stroke-linejoin:miter;stroke:rgb(0%,0%,0%);stroke-opacity:1;stroke-miterlimit:10;" d="M 0.775977 0.0779297 L 0.0616797 0.0454687 L 0.0616797 0.467539 L 0.743516 0.467539 L 0.93832 0.954531 Z M 0.775977 0.0779297 " transform="matrix(100,0,0,100,450,200)"/>
<path style="fill:none;stroke-width:0.01;stroke-linecap:butt;stroke-linejoin:miter;stroke:rgb(0%,0%,0%);stroke-opacity:1;stroke-miterlimit:10;" d="M 0.742422 0.136367 L 0.136367 0.0454687 L 0.106055 0.378789 L 0.651523 0.469688 L 0.893945 0.954531 Z M 0.742422 0.136367 " transform="matrix(100,0,0,100,600,200)"/>
<path style="fill:none;stroke-width:0.01;stroke-linecap:butt;stroke-linejoin:miter;stroke:rgb(0%,0%,0%);stroke-opacity:1;stroke-miterlimit:10;" d="M 0.782148 0.108164 L 0.0924609 0.0454687 L 0.0611328 0.421641 L 0.719453 0.484336 L 0.938867 0.954531 Z M 0.782148 0.108164 " transform="matrix(100,0,0,100,0,350)"/>
<path style="fill:none;stroke-width:0.01;stroke-linecap:butt;stroke-linejoin:miter;stroke:rgb(0%,0%,0%);stroke-opacity:1;stroke-miterlimit:10;" d="M 0.763945 0.162773 L 0.148086 0.0454687 L 0.0894531 0.397344 L 0.646641 0.485352 L 0.910547 0.954531 Z M 0.763945 0.162773 " transform="matrix(100,0,0,100,150,350)"/>
<path style="fill:none;stroke-width:0.01;stroke-linecap:butt;stroke-linejoin:miter;stroke:rgb(0%,0%,0%);stroke-opacity:1;stroke-miterlimit:10;" d="M 0.766445 0.108164 L 0.108164 0.0454687 L 0.0767969 0.421641 L 0.70375 0.452969 L 0.923203 0.954531 Z M 0.766445 0.108164 " transform="matrix(100,0,0,100,300,350)"/>
<path style="fill:none;stroke-width:0.01;stroke-linecap:butt;stroke-linejoin:miter;stroke:rgb(0%,0%,0%);stroke-opacity:1;stroke-miterlimit:10;" d="M 0.772734 0.136367 L 0.136367 0.0454687 L 0.0757422 0.409102 L 0.681836 0.469688 L 0.924258 0.954531 Z M 0.772734 0.136367 " transform="matrix(100,0,0,100,450,350)"/>
<path style="fill:none;stroke-width:0.01;stroke-linecap:butt;stroke-linejoin:miter;stroke:rgb(0%,0%,0%);stroke-opacity:1;stroke-miterlimit:10;" d="M 0.759727 0.0779297 L 0.0779297 0.0454687 L 0.0779297 0.435078 L 0.694805 0.435078 L 0.92207 0.954531 Z M 0.759727 0.0779297 " transform="matrix(100,0,0,100,600,350)"/>
</g>
</svg>
