<?xml version="1.0" encoding="UTF-8"?>
<svg xmlns="http://www.w3.org/2000/svg" xmlns:xlink="http://www.w3.org/1999/xlink" width="750pt" height="2800pt" viewBox="0 0 750 2800" version="1.1">
<g id="surface1">
<path style="fill:none;stroke-width:0.01;stroke-linecap:butt;stroke-linejoin:miter;stroke:rgb(0%,0%,0%);stroke-opacity:1;stroke-miterlimit:10;" d="M 0.0454688 0.62625 L 0.5 0.638906 L 0.954531 0.474766 L 0.91668 0.361094 L 0.487383 0.512617 L 0.247461 0.563125 Z M 0.0454688 0.62625 " transform="matrix(100,0,0,100,0,200)"/>
<path style="fill:none;stroke-width:0.01;stroke-linecap:butt;stroke-linejoin:miter;stroke:rgb(0%,0%,0%);stroke-opacity:1;stroke-miterlimit:10;" d="M 0.0454687 0.554258 L 0.479648 0.608555 L 0.954531 0.5 L 0.927422 0.391445 L 0.506797 0.472852 L 0.262539 0.486445 Z M 0.0454687 0.554258 " transform="matrix(100,0,0,100,150,200)"/>
<path style="fill:none;stroke-width:0.01;stroke-linecap:butt;stroke-linejoin:miter;stroke:rgb(0%,0%,0%);stroke-opacity:1;stroke-miterlimit:10;" d="M 0.0454687 0.491719 L 0.475195 0.590898 L 0.954531 0.541328 L 0.954531 0.425625 L 0.524805 0.442148 L 0.309922 0.409102 Z M 0.0454687 0.491719 " transform="matrix(100,0,0,100,300,200)"/>
<path style="fill:none;stroke-width:0.01;stroke-linecap:butt;stroke-linejoin:miter;stroke:rgb(0%,0%,0%);stroke-opacity:1;stroke-miterlimit:10;" d="M 0.0454688 0.590898 L 0.493008 0.618867 L 0.954531 0.493008 L 0.926563 0.381133 L 0.506992 0.493008 L 0.269219 0.520977 Z M 0.0454688 0.590898 " transform="matrix(100,0,0,100,450,200)"/>
<path style="fill:none;stroke-width:0.01;stroke-linecap:butt;stroke-linejoin:miter;stroke:rgb(0%,0%,0%);stroke-opacity:1;stroke-miterlimit:10;" d="M 0.0454688 0.512812 L 0.480781 0.602422 L 0.954531 0.525625 L 0.941758 0.397578 L 0.493594 0.461602 L 0.250312 0.448789 Z M 0.0454688 0.512812 " transform="matrix(100,0,0,100,600,200)"/>
<path style="fill:none;stroke-width:0.01;stroke-linecap:butt;stroke-linejoin:miter;stroke:rgb(0%,0%,0%);stroke-opacity:1;stroke-miterlimit:10;" d="M 0.0454688 0.507109 L 0.485781 0.592344 L 0.954531 0.521289 L 0.940352 0.407656 L 0.514219 0.450273 L 0.272734 0.436094 Z M 0.0454688 0.507109 " transform="matrix(100,0,0,100,0,350)"/>
<path style="fill:none;stroke-width:0.01;stroke-linecap:butt;stroke-linejoin:miter;stroke:rgb(0%,0%,0%);stroke-opacity:1;stroke-miterlimit:10;" d="M 0.0454687 0.611758 L 0.492539 0.62668 L 0.954531 0.477656 L 0.924727 0.37332 L 0.507461 0.507461 L 0.283906 0.537266 Z M 0.0454687 0.611758 " transform="matrix(100,0,0,100,150,350)"/>
<path style="fill:none;stroke-width:0.01;stroke-linecap:butt;stroke-linejoin:miter;stroke:rgb(0%,0%,0%);stroke-opacity:1;stroke-miterlimit:10;" d="M 0.0454687 0.587969 L 0.485352 0.617305 L 0.954531 0.5 L 0.925234 0.382695 L 0.514648 0.485352 L 0.280078 0.514648 Z M 0.0454687 0.587969 " transform="matrix(100,0,0,100,300,350)"/>
<path style="fill:none;stroke-width:0.01;stroke-linecap:butt;stroke-linejoin:miter;stroke:rgb(0%,0%,0%);stroke-opacity:1;stroke-miterlimit:10;" d="M 0.0454688 0.534961 L 0.479023 0.604883 L 0.954531 0.506992 L 0.940547 0.395117 L 0.506992 0.465039 L 0.269219 0.465039 Z M 0.0454688 0.534961 " transform="matrix(100,0,0,100,450,350)"/>
<path style="fill:none;stroke-width:0.01;stroke-linecap:butt;stroke-linejoin:miter;stroke:rgb(0%,0%,0%);stroke-opacity:1;stroke-miterlimit:10;" d="M 0.0454688 0.5 L 0.486641 0.593594 L 0.954531 0.526719 L 0.954531 0.406406 L 0.5 0.446523 L 0.259375 0.433164 Z M 0.0454688 0.5 " transform="matrix(100,0,0,100,600,350)"/>
</g>
</svg>
