<?xml version="1.0" encoding="UTF-8"?>
<svg xmlns="http://www.w3.org/2000/svg" xmlns:xlink="http://www.w3.org/1999/xlink" width="750pt" height="2800pt" viewBox="0 0 750 2800" version="1.1">
<g id="surface1">
<path style="fill:none;stroke-width:0.01;stroke-linecap:butt;stroke-linejoin:miter;stroke:rgb(0%,0%,0%);stroke-opacity:1;stroke-miterlimit:10;" d="M 0.0454688 0.507344 L 0.470664 0.595312 L 0.954531 0.521992 L 0.939883 0.404688 L 0.514648 0.463359 L 0.265391 0.434023 L 0.80793 0.419336 Z M 0.0454688 0.507344 " transform="matrix(100,0,0,100,0,200)"/>
<path style="fill:none;stroke-width:0.01;stroke-linecap:butt;stroke-linejoin:miter;stroke:rgb(0%,0%,0%);stroke-opacity:1;stroke-miterlimit:10;" d="M 0.0454687 0.536641 L 0.485352 0.609961 L 0.954531 0.507344 L 0.925234 0.390039 L 0.5 0.463359 L 0.265391 0.448672 L 0.80793 0.448672 Z M 0.0454687 0.536641 " transform="matrix(100,0,0,100,150,200)"/>
<path style="fill:none;stroke-width:0.01;stroke-linecap:butt;stroke-linejoin:miter;stroke:rgb(0%,0%,0%);stroke-opacity:1;stroke-miterlimit:10;" d="M 0.0454687 0.532461 L 0.48375 0.597422 L 0.954531 0.51625 L 0.93832 0.402578 L 0.5 0.467539 L 0.256484 0.451289 L 0.889609 0.435078 Z M 0.0454687 0.532461 " transform="matrix(100,0,0,100,300,200)"/>
<path style="fill:none;stroke-width:0.01;stroke-linecap:butt;stroke-linejoin:miter;stroke:rgb(0%,0%,0%);stroke-opacity:1;stroke-miterlimit:10;" d="M 0.0454688 0.529336 L 0.485352 0.602656 L 0.954531 0.5 L 0.939883 0.397344 L 0.514648 0.456016 L 0.265391 0.441367 L 0.80793 0.441367 Z M 0.0454688 0.529336 " transform="matrix(100,0,0,100,450,200)"/>
<path style="fill:none;stroke-width:0.01;stroke-linecap:butt;stroke-linejoin:miter;stroke:rgb(0%,0%,0%);stroke-opacity:1;stroke-miterlimit:10;" d="M 0.0454688 0.575742 L 0.486211 0.61707 L 0.954531 0.506875 L 0.926992 0.38293 L 0.513789 0.479336 L 0.265859 0.479336 L 0.761719 0.493125 Z M 0.0454688 0.575742 " transform="matrix(100,0,0,100,600,200)"/>
<path style="fill:none;stroke-width:0.01;stroke-linecap:butt;stroke-linejoin:miter;stroke:rgb(0%,0%,0%);stroke-opacity:1;stroke-miterlimit:10;" d="M 0.0454688 0.493203 L 0.479648 0.588203 L 0.954531 0.520352 L 0.940977 0.411797 L 0.506797 0.4525 L 0.276133 0.425391 L 0.751016 0.411797 Z M 0.0454688 0.493203 " transform="matrix(100,0,0,100,0,350)"/>
<path style="fill:none;stroke-width:0.01;stroke-linecap:butt;stroke-linejoin:miter;stroke:rgb(0%,0%,0%);stroke-opacity:1;stroke-miterlimit:10;" d="M 0.0454687 0.575742 L 0.484844 0.621211 L 0.954531 0.5 L 0.924258 0.378789 L 0.5 0.469688 L 0.257578 0.484844 L 0.83332 0.484844 Z M 0.0454687 0.575742 " transform="matrix(100,0,0,100,150,350)"/>
<path style="fill:none;stroke-width:0.01;stroke-linecap:butt;stroke-linejoin:miter;stroke:rgb(0%,0%,0%);stroke-opacity:1;stroke-miterlimit:10;" d="M 0.0454687 0.493203 L 0.479648 0.588203 L 0.954531 0.520352 L 0.940977 0.411797 L 0.506797 0.4525 L 0.262539 0.425391 L 0.751016 0.411797 Z M 0.0454687 0.493203 " transform="matrix(100,0,0,100,300,350)"/>
<path style="fill:none;stroke-width:0.01;stroke-linecap:butt;stroke-linejoin:miter;stroke:rgb(0%,0%,0%);stroke-opacity:1;stroke-miterlimit:10;" d="M 0.0454688 0.492656 L 0.470664 0.595313 L 0.954531 0.536641 L 0.939883 0.419336 L 0.514648 0.448672 L 0.265391 0.434023 L 0.80793 0.404688 Z M 0.0454688 0.492656 " transform="matrix(100,0,0,100,450,350)"/>
<path style="fill:none;stroke-width:0.01;stroke-linecap:butt;stroke-linejoin:miter;stroke:rgb(0%,0%,0%);stroke-opacity:1;stroke-miterlimit:10;" d="M 0.0454688 0.481055 L 0.474766 0.594688 L 0.954531 0.54418 L 0.954531 0.430547 L 0.512617 0.45582 L 0.272734 0.41793 L 0.702031 0.405312 Z M 0.0454688 0.481055 " transform="matrix(100,0,0,100,600,350)"/>
</g>
</svg>
