<?xml version="1.0" encoding="UTF-8"?>
<svg xmlns="http://www.w3.org/2000/svg" xmlns:xlink="http://www.w3.org/1999/xlink" width="750pt" height="2800pt" viewBox="0 0 750 2800" version="1.1">
<g id="surface1">
<path style="fill:none;stroke-width:0.01;stroke-linecap:butt;stroke-linejoin:miter;stroke:rgb(0%,0%,0%);stroke-opacity:1;stroke-miterlimit:10;" d="M 0.852383 0.372305 L 0.515313 0.362109 L 0.668555 0.351875 L 0.944336 0.372305 L 0.954531 0.290586 L 0.648125 0.259961 L 0.351875 0.331445 L 0.280391 0.454023 L 0.0658984 0.423398 L 0.0454688 0.545977 L 0.249727 0.576602 L 0.32125 0.740039 Z M 0.852383 0.372305 " transform="matrix(100,0,0,100,0,200)"/>
<path style="fill:none;stroke-width:0.01;stroke-linecap:butt;stroke-linejoin:miter;stroke:rgb(0%,0%,0%);stroke-opacity:1;stroke-miterlimit:10;" d="M 0.853555 0.378789 L 0.510117 0.358594 L 0.671719 0.348477 L 0.944453 0.388906 L 0.954531 0.297969 L 0.651523 0.257578 L 0.348477 0.328281 L 0.277773 0.459609 L 0.0555469 0.429297 L 0.0454687 0.560625 L 0.257578 0.58082 L 0.328281 0.742422 Z M 0.853555 0.378789 " transform="matrix(100,0,0,100,150,200)"/>
<path style="fill:none;stroke-width:0.01;stroke-linecap:butt;stroke-linejoin:miter;stroke:rgb(0%,0%,0%);stroke-opacity:1;stroke-miterlimit:10;" d="M 0.845859 0.381406 L 0.5 0.361641 L 0.658086 0.351797 L 0.944648 0.391289 L 0.954531 0.302383 L 0.638359 0.262852 L 0.332031 0.322148 L 0.262852 0.460469 L 0.0553516 0.440703 L 0.0454687 0.56918 L 0.252969 0.579063 L 0.332031 0.737148 Z M 0.845859 0.381406 " transform="matrix(100,0,0,100,300,200)"/>
<path style="fill:none;stroke-width:0.01;stroke-linecap:butt;stroke-linejoin:miter;stroke:rgb(0%,0%,0%);stroke-opacity:1;stroke-miterlimit:10;" d="M 0.844648 0.380117 L 0.485 0.360156 L 0.654844 0.350156 L 0.94457 0.390117 L 0.954531 0.290195 L 0.634883 0.260234 L 0.325156 0.330156 L 0.255234 0.470039 L 0.0454688 0.460039 L 0.0454688 0.579922 L 0.245273 0.589922 L 0.325156 0.739766 Z M 0.844648 0.380117 " transform="matrix(100,0,0,100,450,200)"/>
<path style="fill:none;stroke-width:0.01;stroke-linecap:butt;stroke-linejoin:miter;stroke:rgb(0%,0%,0%);stroke-opacity:1;stroke-miterlimit:10;" d="M 0.843438 0.37375 L 0.469688 0.383828 L 0.641406 0.363633 L 0.944453 0.37375 L 0.954531 0.272734 L 0.621211 0.262617 L 0.297969 0.353555 L 0.247461 0.484844 L 0.0454688 0.484844 L 0.0454688 0.595977 L 0.237383 0.595977 L 0.318164 0.737383 Z M 0.843438 0.37375 " transform="matrix(100,0,0,100,600,200)"/>
<path style="fill:none;stroke-width:0.01;stroke-linecap:butt;stroke-linejoin:miter;stroke:rgb(0%,0%,0%);stroke-opacity:1;stroke-miterlimit:10;" d="M 0.852383 0.377422 L 0.515313 0.346797 L 0.67875 0.346797 L 0.944336 0.387656 L 0.954531 0.295703 L 0.65832 0.254844 L 0.372305 0.316133 L 0.280391 0.448945 L 0.0556641 0.408086 L 0.0454688 0.540859 L 0.249727 0.571484 L 0.32125 0.745156 Z M 0.852383 0.377422 " transform="matrix(100,0,0,100,0,350)"/>
<path style="fill:none;stroke-width:0.01;stroke-linecap:butt;stroke-linejoin:miter;stroke:rgb(0%,0%,0%);stroke-opacity:1;stroke-miterlimit:10;" d="M 0.844648 0.380117 L 0.505 0.360156 L 0.664844 0.350156 L 0.93457 0.390117 L 0.954531 0.300195 L 0.644844 0.260234 L 0.345156 0.330156 L 0.265234 0.460039 L 0.0554297 0.440078 L 0.0454687 0.559922 L 0.245273 0.579922 L 0.325156 0.739766 Z M 0.844648 0.380117 " transform="matrix(100,0,0,100,150,350)"/>
<path style="fill:none;stroke-width:0.01;stroke-linecap:butt;stroke-linejoin:miter;stroke:rgb(0%,0%,0%);stroke-opacity:1;stroke-miterlimit:10;" d="M 0.843438 0.37375 L 0.489883 0.37375 L 0.651523 0.353555 L 0.944453 0.37375 L 0.954531 0.282812 L 0.631328 0.262617 L 0.318164 0.343438 L 0.257578 0.474766 L 0.0555469 0.464648 L 0.0454687 0.575742 L 0.237383 0.585859 L 0.318164 0.737383 Z M 0.843438 0.37375 " transform="matrix(100,0,0,100,300,350)"/>
<path style="fill:none;stroke-width:0.01;stroke-linecap:butt;stroke-linejoin:miter;stroke:rgb(0%,0%,0%);stroke-opacity:1;stroke-miterlimit:10;" d="M 0.858281 0.360977 L 0.505352 0.371641 L 0.665781 0.350273 L 0.954531 0.360977 L 0.954531 0.264687 L 0.644375 0.254023 L 0.344922 0.350273 L 0.270039 0.46793 L 0.0668359 0.43582 L 0.0454688 0.553477 L 0.237969 0.585547 L 0.302148 0.745977 Z M 0.858281 0.360977 " transform="matrix(100,0,0,100,450,350)"/>
<path style="fill:none;stroke-width:0.01;stroke-linecap:butt;stroke-linejoin:miter;stroke:rgb(0%,0%,0%);stroke-opacity:1;stroke-miterlimit:10;" d="M 0.852383 0.372305 L 0.505117 0.362109 L 0.668555 0.351875 L 0.944336 0.372305 L 0.954531 0.280391 L 0.637891 0.259961 L 0.34168 0.34168 L 0.270156 0.464258 L 0.0658984 0.443828 L 0.0454688 0.566406 L 0.249727 0.586836 L 0.32125 0.740039 Z M 0.852383 0.372305 " transform="matrix(100,0,0,100,600,350)"/>
</g>
</svg>
