<?xml version="1.0" encoding="UTF-8"?>
<svg xmlns="http://www.w3.org/2000/svg" xmlns:xlink="http://www.w3.org/1999/xlink" width="750pt" height="2800pt" viewBox="0 0 750 2800" version="1.1">
<g id="surface1">
<path style="fill:none;stroke-width:0.01;stroke-linecap:butt;stroke-linejoin:miter;stroke:rgb(0%,0%,0%);stroke-opacity:1;stroke-miterlimit:10;" d="M 0.755664 0.5 L 0.272734 0.5 L 0.514219 0.514219 L 0.926133 0.613633 L 0.954531 0.471602 L 0.5 0.386367 L 0.0454688 0.443164 Z M 0.755664 0.5 " transform="matrix(100,0,0,100,0,200)"/>
<path style="fill:none;stroke-width:0.01;stroke-linecap:butt;stroke-linejoin:miter;stroke:rgb(0%,0%,0%);stroke-opacity:1;stroke-miterlimit:10;" d="M 0.803047 0.598477 L 0.287891 0.568164 L 0.530312 0.537891 L 0.954531 0.568164 L 0.954531 0.431836 L 0.484844 0.401523 L 0.0454687 0.537891 Z M 0.803047 0.598477 " transform="matrix(100,0,0,100,150,200)"/>
<path style="fill:none;stroke-width:0.01;stroke-linecap:butt;stroke-linejoin:miter;stroke:rgb(0%,0%,0%);stroke-opacity:1;stroke-miterlimit:10;" d="M 0.734141 0.5 L 0.279609 0.513789 L 0.513789 0.527539 L 0.926992 0.610195 L 0.954531 0.486211 L 0.5 0.389805 L 0.0454687 0.444922 Z M 0.734141 0.5 " transform="matrix(100,0,0,100,300,200)"/>
<path style="fill:none;stroke-width:0.01;stroke-linecap:butt;stroke-linejoin:miter;stroke:rgb(0%,0%,0%);stroke-opacity:1;stroke-miterlimit:10;" d="M 0.755664 0.606523 L 0.286914 0.563906 L 0.528398 0.535508 L 0.954531 0.535508 L 0.954531 0.407656 L 0.485781 0.393477 L 0.0454688 0.549727 Z M 0.755664 0.606523 " transform="matrix(100,0,0,100,450,200)"/>
<path style="fill:none;stroke-width:0.01;stroke-linecap:butt;stroke-linejoin:miter;stroke:rgb(0%,0%,0%);stroke-opacity:1;stroke-miterlimit:10;" d="M 0.778594 0.57332 L 0.280078 0.558633 L 0.514648 0.543984 L 0.939883 0.587969 L 0.954531 0.456016 L 0.485352 0.412031 L 0.0454688 0.514648 Z M 0.778594 0.57332 " transform="matrix(100,0,0,100,600,200)"/>
<path style="fill:none;stroke-width:0.01;stroke-linecap:butt;stroke-linejoin:miter;stroke:rgb(0%,0%,0%);stroke-opacity:1;stroke-miterlimit:10;" d="M 0.829141 0.578359 L 0.280547 0.562695 L 0.515664 0.547031 L 0.938867 0.594062 L 0.954531 0.452969 L 0.484336 0.405938 L 0.0454688 0.515664 Z M 0.829141 0.578359 " transform="matrix(100,0,0,100,0,350)"/>
<path style="fill:none;stroke-width:0.01;stroke-linecap:butt;stroke-linejoin:miter;stroke:rgb(0%,0%,0%);stroke-opacity:1;stroke-miterlimit:10;" d="M 0.778594 0.602656 L 0.280078 0.558633 L 0.529336 0.529336 L 0.954531 0.558633 L 0.954531 0.412031 L 0.485352 0.397344 L 0.0454687 0.543984 Z M 0.778594 0.602656 " transform="matrix(100,0,0,100,150,350)"/>
<path style="fill:none;stroke-width:0.01;stroke-linecap:butt;stroke-linejoin:miter;stroke:rgb(0%,0%,0%);stroke-opacity:1;stroke-miterlimit:10;" d="M 0.778594 0.595313 L 0.280078 0.565977 L 0.514648 0.536641 L 0.939883 0.551328 L 0.954531 0.419336 L 0.485352 0.404688 L 0.0454687 0.536641 Z M 0.778594 0.595313 " transform="matrix(100,0,0,100,300,350)"/>
<path style="fill:none;stroke-width:0.01;stroke-linecap:butt;stroke-linejoin:miter;stroke:rgb(0%,0%,0%);stroke-opacity:1;stroke-miterlimit:10;" d="M 0.723867 0.601758 L 0.289688 0.561055 L 0.520352 0.533906 L 0.940977 0.533906 L 0.954531 0.398242 L 0.479648 0.398242 L 0.0454688 0.5475 Z M 0.723867 0.601758 " transform="matrix(100,0,0,100,450,350)"/>
<path style="fill:none;stroke-width:0.01;stroke-linecap:butt;stroke-linejoin:miter;stroke:rgb(0%,0%,0%);stroke-opacity:1;stroke-miterlimit:10;" d="M 0.790625 0.56707 L 0.283906 0.552148 L 0.522344 0.537266 L 0.939648 0.596875 L 0.954531 0.462734 L 0.492539 0.403125 L 0.0454688 0.507461 Z M 0.790625 0.56707 " transform="matrix(100,0,0,100,600,350)"/>
</g>
</svg>
