<?xml version="1.0" encoding="UTF-8"?>
<svg xmlns="http://www.w3.org/2000/svg" xmlns:xlink="http://www.w3.org/1999/xlink" width="750pt" height="2800pt" viewBox="0 0 750 2800" version="1.1">
<g id="surface1">
<path style="fill:none;stroke-width:0.01;stroke-linecap:butt;stroke-linejoin:miter;stroke:rgb(0%,0%,0%);stroke-opacity:1;stroke-miterlimit:10;" d="M 0.0454688 0.523906 L 0.476094 0.603672 L 0.954531 0.507969 L 0.938594 0.396328 L 0.507969 0.460117 L 0.26875 0.44418 L 0.874805 0.428242 Z M 0.0454688 0.523906 " transform="matrix(100,0,0,100,0,200)"/>
<path style="fill:none;stroke-width:0.01;stroke-linecap:butt;stroke-linejoin:miter;stroke:rgb(0%,0%,0%);stroke-opacity:1;stroke-miterlimit:10;" d="M 0.0454687 0.543984 L 0.485352 0.602656 L 0.954531 0.514648 L 0.939883 0.397344 L 0.514648 0.470664 L 0.265391 0.456016 L 0.80793 0.456016 Z M 0.0454687 0.543984 " transform="matrix(100,0,0,100,150,200)"/>
<path style="fill:none;stroke-width:0.01;stroke-linecap:butt;stroke-linejoin:miter;stroke:rgb(0%,0%,0%);stroke-opacity:1;stroke-miterlimit:10;" d="M 0.0454687 0.486445 L 0.479648 0.594961 L 0.954531 0.527148 L 0.940977 0.418594 L 0.520352 0.445742 L 0.276133 0.418594 L 0.751016 0.405039 Z M 0.0454687 0.486445 " transform="matrix(100,0,0,100,300,200)"/>
<path style="fill:none;stroke-width:0.01;stroke-linecap:butt;stroke-linejoin:miter;stroke:rgb(0%,0%,0%);stroke-opacity:1;stroke-miterlimit:10;" d="M 0.0454688 0.571016 L 0.485781 0.613633 L 0.954531 0.5 L 0.926133 0.386367 L 0.5 0.471602 L 0.258516 0.471602 L 0.784102 0.485781 Z M 0.0454688 0.571016 " transform="matrix(100,0,0,100,450,200)"/>
<path style="fill:none;stroke-width:0.01;stroke-linecap:butt;stroke-linejoin:miter;stroke:rgb(0%,0%,0%);stroke-opacity:1;stroke-miterlimit:10;" d="M 0.0454688 0.507344 L 0.470664 0.595312 L 0.954531 0.521992 L 0.939883 0.404688 L 0.514648 0.463359 L 0.265391 0.434023 L 0.80793 0.419336 Z M 0.0454688 0.507344 " transform="matrix(100,0,0,100,600,200)"/>
<path style="fill:none;stroke-width:0.01;stroke-linecap:butt;stroke-linejoin:miter;stroke:rgb(0%,0%,0%);stroke-opacity:1;stroke-miterlimit:10;" d="M 0.0454688 0.5 L 0.487031 0.590898 L 0.954531 0.512969 L 0.941562 0.409102 L 0.512969 0.448047 L 0.26625 0.42207 L 0.720781 0.42207 Z M 0.0454688 0.5 " transform="matrix(100,0,0,100,0,350)"/>
<path style="fill:none;stroke-width:0.01;stroke-linecap:butt;stroke-linejoin:miter;stroke:rgb(0%,0%,0%);stroke-opacity:1;stroke-miterlimit:10;" d="M 0.0454687 0.479961 L 0.473281 0.600273 L 0.954531 0.560156 L 0.954531 0.439844 L 0.513359 0.466563 L 0.272734 0.426484 L 0.740625 0.399727 Z M 0.0454687 0.479961 " transform="matrix(100,0,0,100,150,350)"/>
<path style="fill:none;stroke-width:0.01;stroke-linecap:butt;stroke-linejoin:miter;stroke:rgb(0%,0%,0%);stroke-opacity:1;stroke-miterlimit:10;" d="M 0.0454687 0.526719 L 0.486641 0.606953 L 0.954531 0.513359 L 0.941172 0.393047 L 0.513359 0.459883 L 0.272734 0.446523 L 0.740625 0.446523 Z M 0.0454687 0.526719 " transform="matrix(100,0,0,100,300,350)"/>
<path style="fill:none;stroke-width:0.01;stroke-linecap:butt;stroke-linejoin:miter;stroke:rgb(0%,0%,0%);stroke-opacity:1;stroke-miterlimit:10;" d="M 0.0454688 0.507344 L 0.485352 0.595313 L 0.954531 0.521992 L 0.939883 0.404688 L 0.514648 0.448672 L 0.265391 0.434023 L 0.80793 0.419336 Z M 0.0454688 0.507344 " transform="matrix(100,0,0,100,450,350)"/>
<path style="fill:none;stroke-width:0.01;stroke-linecap:butt;stroke-linejoin:miter;stroke:rgb(0%,0%,0%);stroke-opacity:1;stroke-miterlimit:10;" d="M 0.0454688 0.519766 L 0.480234 0.598828 L 0.954531 0.519766 L 0.941367 0.401172 L 0.519766 0.453867 L 0.269414 0.440703 L 0.730586 0.440703 Z M 0.0454688 0.519766 " transform="matrix(100,0,0,100,600,350)"/>
</g>
</svg>
