<?xml version="1.0" encoding="UTF-8"?>
<svg xmlns="http://www.w3.org/2000/svg" xmlns:xlink="http://www.w3.org/1999/xlink" width="750pt" height="2800pt" viewBox="0 0 750 2800" version="1.1">
<g id="surface1">
<path style="fill:none;stroke-width:0.01;stroke-linecap:butt;stroke-linejoin:miter;stroke:rgb(0%,0%,0%);stroke-opacity:1;stroke-miterlimit:10;" d="M 0.238633 0.642031 L 0.545469 0.539766 L 0.954531 0.482969 L 0.931836 0.357969 L 0.568164 0.392031 L 0.0454688 0.460234 Z M 0.238633 0.642031 " transform="matrix(100,0,0,100,0,200)"/>
<path style="fill:none;stroke-width:0.01;stroke-linecap:butt;stroke-linejoin:miter;stroke:rgb(0%,0%,0%);stroke-opacity:1;stroke-miterlimit:10;" d="M 0.248789 0.625586 L 0.547852 0.529922 L 0.954531 0.505977 L 0.942578 0.374414 L 0.571758 0.386367 L 0.0454687 0.434219 Z M 0.248789 0.625586 " transform="matrix(100,0,0,100,150,200)"/>
<path style="fill:none;stroke-width:0.01;stroke-linecap:butt;stroke-linejoin:miter;stroke:rgb(0%,0%,0%);stroke-opacity:1;stroke-miterlimit:10;" d="M 0.246172 0.612148 L 0.541328 0.529531 L 0.954531 0.529531 L 0.930938 0.387852 L 0.576758 0.387852 L 0.0454687 0.423242 Z M 0.246172 0.612148 " transform="matrix(100,0,0,100,300,200)"/>
<path style="fill:none;stroke-width:0.01;stroke-linecap:butt;stroke-linejoin:miter;stroke:rgb(0%,0%,0%);stroke-opacity:1;stroke-miterlimit:10;" d="M 0.225156 0.589844 L 0.542266 0.536992 L 0.954531 0.558125 L 0.943984 0.420703 L 0.573984 0.410156 L 0.0454688 0.420703 Z M 0.225156 0.589844 " transform="matrix(100,0,0,100,450,200)"/>
<path style="fill:none;stroke-width:0.01;stroke-linecap:butt;stroke-linejoin:miter;stroke:rgb(0%,0%,0%);stroke-opacity:1;stroke-miterlimit:10;" d="M 0.251523 0.596953 L 0.554531 0.536367 L 0.954531 0.560625 L 0.954531 0.427266 L 0.578789 0.403047 L 0.0454688 0.403047 Z M 0.251523 0.596953 " transform="matrix(100,0,0,100,600,200)"/>
<path style="fill:none;stroke-width:0.01;stroke-linecap:butt;stroke-linejoin:miter;stroke:rgb(0%,0%,0%);stroke-opacity:1;stroke-miterlimit:10;" d="M 0.246172 0.612148 L 0.553125 0.529531 L 0.954531 0.529531 L 0.942734 0.387852 L 0.576758 0.387852 L 0.0454688 0.423242 Z M 0.246172 0.612148 " transform="matrix(100,0,0,100,0,350)"/>
<path style="fill:none;stroke-width:0.01;stroke-linecap:butt;stroke-linejoin:miter;stroke:rgb(0%,0%,0%);stroke-opacity:1;stroke-miterlimit:10;" d="M 0.243594 0.604883 L 0.546602 0.534961 L 0.954531 0.546602 L 0.942891 0.406758 L 0.581602 0.395117 L 0.0454687 0.418398 Z M 0.243594 0.604883 " transform="matrix(100,0,0,100,150,350)"/>
<path style="fill:none;stroke-width:0.01;stroke-linecap:butt;stroke-linejoin:miter;stroke:rgb(0%,0%,0%);stroke-opacity:1;stroke-miterlimit:10;" d="M 0.254297 0.622852 L 0.549141 0.536836 L 0.954531 0.5 L 0.942266 0.377148 L 0.573711 0.377148 L 0.0454687 0.426289 Z M 0.254297 0.622852 " transform="matrix(100,0,0,100,300,350)"/>
<path style="fill:none;stroke-width:0.01;stroke-linecap:butt;stroke-linejoin:miter;stroke:rgb(0%,0%,0%);stroke-opacity:1;stroke-miterlimit:10;" d="M 0.248789 0.619609 L 0.547852 0.535898 L 0.954531 0.523906 L 0.942578 0.380391 L 0.571758 0.392344 L 0.0454688 0.428242 Z M 0.248789 0.619609 " transform="matrix(100,0,0,100,450,350)"/>
<path style="fill:none;stroke-width:0.01;stroke-linecap:butt;stroke-linejoin:miter;stroke:rgb(0%,0%,0%);stroke-opacity:1;stroke-miterlimit:10;" d="M 0.246172 0.618047 L 0.541328 0.53543 L 0.954531 0.511797 L 0.930937 0.381953 L 0.576758 0.39375 L 0.0454688 0.42918 Z M 0.246172 0.618047 " transform="matrix(100,0,0,100,600,350)"/>
</g>
</svg>
