<?xml version="1.0" encoding="UTF-8"?>
<svg xmlns="http://www.w3.org/2000/svg" xmlns:xlink="http://www.w3.org/1999/xlink" width="750pt" height="2800pt" viewBox="0 0 750 2800" version="1.1">
<g id="surface1">
<path style="fill:none;stroke-width:0.01;stroke-linecap:butt;stroke-linejoin:miter;stroke:rgb(0%,0%,0%);stroke-opacity:1;stroke-miterlimit:10;" d="M 0.954531 0.314062 L 0.0867578 0.190078 L 0.0454688 0.685938 L 0.871914 0.809922 Z M 0.954531 0.314062 " transform="matrix(100,0,0,100,0,200)"/>
<path style="fill:none;stroke-width:0.01;stroke-linecap:butt;stroke-linejoin:miter;stroke:rgb(0%,0%,0%);stroke-opacity:1;stroke-miterlimit:10;" d="M 0.954531 0.348477 L 0.121211 0.196953 L 0.0454687 0.689375 L 0.878789 0.803047 Z M 0.954531 0.348477 " transform="matrix(100,0,0,100,150,200)"/>
<path style="fill:none;stroke-width:0.01;stroke-linecap:butt;stroke-linejoin:miter;stroke:rgb(0%,0%,0%);stroke-opacity:1;stroke-miterlimit:10;" d="M 0.954531 0.322148 L 0.0849609 0.203555 L 0.0454687 0.717383 L 0.875508 0.796445 Z M 0.954531 0.322148 " transform="matrix(100,0,0,100,300,200)"/>
<path style="fill:none;stroke-width:0.01;stroke-linecap:butt;stroke-linejoin:miter;stroke:rgb(0%,0%,0%);stroke-opacity:1;stroke-miterlimit:10;" d="M 0.954531 0.293398 L 0.0454688 0.210742 L 0.0454688 0.74793 L 0.871914 0.789258 Z M 0.954531 0.293398 " transform="matrix(100,0,0,100,450,200)"/>
<path style="fill:none;stroke-width:0.01;stroke-linecap:butt;stroke-linejoin:miter;stroke:rgb(0%,0%,0%);stroke-opacity:1;stroke-miterlimit:10;" d="M 0.954531 0.354531 L 0.0818359 0.209102 L 0.0454688 0.681836 L 0.881836 0.790898 Z M 0.954531 0.354531 " transform="matrix(100,0,0,100,600,200)"/>
<path style="fill:none;stroke-width:0.01;stroke-linecap:butt;stroke-linejoin:miter;stroke:rgb(0%,0%,0%);stroke-opacity:1;stroke-miterlimit:10;" d="M 0.954531 0.322148 L 0.0849609 0.203555 L 0.0454688 0.677852 L 0.875508 0.796445 Z M 0.954531 0.322148 " transform="matrix(100,0,0,100,0,350)"/>
<path style="fill:none;stroke-width:0.01;stroke-linecap:butt;stroke-linejoin:miter;stroke:rgb(0%,0%,0%);stroke-opacity:1;stroke-miterlimit:10;" d="M 0.954531 0.240273 L 0.0454687 0.240273 L 0.08875 0.759727 L 0.867969 0.759727 Z M 0.954531 0.240273 " transform="matrix(100,0,0,100,150,350)"/>
<path style="fill:none;stroke-width:0.01;stroke-linecap:butt;stroke-linejoin:miter;stroke:rgb(0%,0%,0%);stroke-opacity:1;stroke-miterlimit:10;" d="M 0.954531 0.329531 L 0.0833203 0.215898 L 0.0454687 0.70832 L 0.878789 0.784102 Z M 0.954531 0.329531 " transform="matrix(100,0,0,100,300,350)"/>
<path style="fill:none;stroke-width:0.01;stroke-linecap:butt;stroke-linejoin:miter;stroke:rgb(0%,0%,0%);stroke-opacity:1;stroke-miterlimit:10;" d="M 0.954531 0.240273 L 0.0454688 0.240273 L 0.0454688 0.716445 L 0.867969 0.759727 Z M 0.954531 0.240273 " transform="matrix(100,0,0,100,450,350)"/>
<path style="fill:none;stroke-width:0.01;stroke-linecap:butt;stroke-linejoin:miter;stroke:rgb(0%,0%,0%);stroke-opacity:1;stroke-miterlimit:10;" d="M 0.954531 0.348477 L 0.121211 0.196953 L 0.0454688 0.689375 L 0.878789 0.803047 Z M 0.954531 0.348477 " transform="matrix(100,0,0,100,600,350)"/>
</g>
</svg>
