<?xml version="1.0" encoding="UTF-8"?>
<svg xmlns="http://www.w3.org/2000/svg" xmlns:xlink="http://www.w3.org/1999/xlink" width="750pt" height="2800pt" viewBox="0 0 750 2800" version="1.1">
<g id="surface1">
<path style="fill:none;stroke-width:0.01;stroke-linecap:butt;stroke-linejoin:miter;stroke:rgb(0%,0%,0%);stroke-opacity:1;stroke-miterlimit:10;" d="M 0.0454688 0.679063 L 0.926992 0.651523 L 0.954531 0.320937 L 0.0454688 0.348477 Z M 0.0454688 0.679063 " transform="matrix(100,0,0,100,0,200)"/>
<path style="fill:none;stroke-width:0.01;stroke-linecap:butt;stroke-linejoin:miter;stroke:rgb(0%,0%,0%);stroke-opacity:1;stroke-miterlimit:10;" d="M 0.0454687 0.684648 L 0.954531 0.65625 L 0.954531 0.315352 L 0.0454687 0.34375 Z M 0.0454687 0.684648 " transform="matrix(100,0,0,100,150,200)"/>
<path style="fill:none;stroke-width:0.01;stroke-linecap:butt;stroke-linejoin:miter;stroke:rgb(0%,0%,0%);stroke-opacity:1;stroke-miterlimit:10;" d="M 0.0454687 0.62625 L 0.904023 0.676758 L 0.954531 0.348477 L 0.0454687 0.323242 Z M 0.0454687 0.62625 " transform="matrix(100,0,0,100,300,200)"/>
<path style="fill:none;stroke-width:0.01;stroke-linecap:butt;stroke-linejoin:miter;stroke:rgb(0%,0%,0%);stroke-opacity:1;stroke-miterlimit:10;" d="M 0.0454688 0.675937 L 0.925234 0.646641 L 0.954531 0.324063 L 0.0454688 0.324063 Z M 0.0454688 0.675937 " transform="matrix(100,0,0,100,450,200)"/>
<path style="fill:none;stroke-width:0.01;stroke-linecap:butt;stroke-linejoin:miter;stroke:rgb(0%,0%,0%);stroke-opacity:1;stroke-miterlimit:10;" d="M 0.0454688 0.684648 L 0.954531 0.65625 L 0.954531 0.315352 L 0.0454688 0.34375 Z M 0.0454688 0.684648 " transform="matrix(100,0,0,100,600,200)"/>
<path style="fill:none;stroke-width:0.01;stroke-linecap:butt;stroke-linejoin:miter;stroke:rgb(0%,0%,0%);stroke-opacity:1;stroke-miterlimit:10;" d="M 0.0454688 0.711055 L 0.954531 0.646094 L 0.954531 0.288945 L 0.0454688 0.321445 Z M 0.0454688 0.711055 " transform="matrix(100,0,0,100,0,350)"/>
<path style="fill:none;stroke-width:0.01;stroke-linecap:butt;stroke-linejoin:miter;stroke:rgb(0%,0%,0%);stroke-opacity:1;stroke-miterlimit:10;" d="M 0.0454687 0.688086 L 0.923203 0.688086 L 0.954531 0.374609 L 0.0454687 0.311914 Z M 0.0454687 0.688086 " transform="matrix(100,0,0,100,150,350)"/>
<path style="fill:none;stroke-width:0.01;stroke-linecap:butt;stroke-linejoin:miter;stroke:rgb(0%,0%,0%);stroke-opacity:1;stroke-miterlimit:10;" d="M 0.0454687 0.616875 L 0.902578 0.694805 L 0.954531 0.383125 L 0.0454687 0.305195 Z M 0.0454687 0.616875 " transform="matrix(100,0,0,100,300,350)"/>
<path style="fill:none;stroke-width:0.01;stroke-linecap:butt;stroke-linejoin:miter;stroke:rgb(0%,0%,0%);stroke-opacity:1;stroke-miterlimit:10;" d="M 0.0454688 0.668828 L 0.928555 0.668828 L 0.954531 0.331172 L 0.0454688 0.357148 Z M 0.0454688 0.668828 " transform="matrix(100,0,0,100,450,350)"/>
<path style="fill:none;stroke-width:0.01;stroke-linecap:butt;stroke-linejoin:miter;stroke:rgb(0%,0%,0%);stroke-opacity:1;stroke-miterlimit:10;" d="M 0.0454688 0.64707 L 0.901055 0.673789 L 0.954531 0.35293 L 0.0454688 0.326211 Z M 0.0454688 0.64707 " transform="matrix(100,0,0,100,600,350)"/>
</g>
</svg>
