<?xml version="1.0" encoding="UTF-8"?>
<svg xmlns="http://www.w3.org/2000/svg" xmlns:xlink="http://www.w3.org/1999/xlink" width="750pt" height="2800pt" viewBox="0 0 750 2800" version="1.1">
<g id="surface1">
<path style="fill:none;stroke-width:0.01;stroke-linecap:butt;stroke-linejoin:miter;stroke:rgb(0%,0%,0%);stroke-opacity:1;stroke-miterlimit:10;" d="M 0.0454688 0.513789 L 0.472461 0.596406 L 0.954531 0.513789 L 0.940781 0.403594 L 0.5 0.458672 L 0.265859 0.444922 Z M 0.0454688 0.513789 " transform="matrix(100,0,0,100,0,200)"/>
<path style="fill:none;stroke-width:0.01;stroke-linecap:butt;stroke-linejoin:miter;stroke:rgb(0%,0%,0%);stroke-opacity:1;stroke-miterlimit:10;" d="M 0.0454687 0.493203 L 0.479648 0.588203 L 0.954531 0.520352 L 0.940977 0.411797 L 0.506797 0.438945 L 0.262539 0.425391 Z M 0.0454687 0.493203 " transform="matrix(100,0,0,100,150,200)"/>
<path style="fill:none;stroke-width:0.01;stroke-linecap:butt;stroke-linejoin:miter;stroke:rgb(0%,0%,0%);stroke-opacity:1;stroke-miterlimit:10;" d="M 0.0454687 0.563125 L 0.487383 0.613633 L 0.954531 0.5 L 0.929297 0.386367 L 0.487383 0.487383 L 0.247461 0.5 Z M 0.0454687 0.563125 " transform="matrix(100,0,0,100,300,200)"/>
<path style="fill:none;stroke-width:0.01;stroke-linecap:butt;stroke-linejoin:miter;stroke:rgb(0%,0%,0%);stroke-opacity:1;stroke-miterlimit:10;" d="M 0.0454688 0.590898 L 0.493945 0.627266 L 0.954531 0.493945 L 0.918164 0.372734 L 0.481836 0.506055 L 0.239375 0.530312 Z M 0.0454688 0.590898 " transform="matrix(100,0,0,100,450,200)"/>
<path style="fill:none;stroke-width:0.01;stroke-linecap:butt;stroke-linejoin:miter;stroke:rgb(0%,0%,0%);stroke-opacity:1;stroke-miterlimit:10;" d="M 0.0454688 0.549727 L 0.485781 0.606523 L 0.954531 0.507109 L 0.926133 0.393477 L 0.514219 0.478711 L 0.272734 0.478711 Z M 0.0454688 0.549727 " transform="matrix(100,0,0,100,600,200)"/>
<path style="fill:none;stroke-width:0.01;stroke-linecap:butt;stroke-linejoin:miter;stroke:rgb(0%,0%,0%);stroke-opacity:1;stroke-miterlimit:10;" d="M 0.0454688 0.546797 L 0.486641 0.613633 L 0.954531 0.50668 L 0.927813 0.386367 L 0.5 0.479961 L 0.259375 0.479961 Z M 0.0454688 0.546797 " transform="matrix(100,0,0,100,0,350)"/>
<path style="fill:none;stroke-width:0.01;stroke-linecap:butt;stroke-linejoin:miter;stroke:rgb(0%,0%,0%);stroke-opacity:1;stroke-miterlimit:10;" d="M 0.0454687 0.53918 L 0.484336 0.601875 L 0.954531 0.507852 L 0.938867 0.398125 L 0.531367 0.46082 L 0.29625 0.46082 Z M 0.0454687 0.53918 " transform="matrix(100,0,0,100,150,350)"/>
<path style="fill:none;stroke-width:0.01;stroke-linecap:butt;stroke-linejoin:miter;stroke:rgb(0%,0%,0%);stroke-opacity:1;stroke-miterlimit:10;" d="M 0.0454687 0.484844 L 0.484844 0.590898 L 0.954531 0.515156 L 0.954531 0.409102 L 0.515156 0.439375 L 0.287891 0.409102 Z M 0.0454687 0.484844 " transform="matrix(100,0,0,100,300,350)"/>
<path style="fill:none;stroke-width:0.01;stroke-linecap:butt;stroke-linejoin:miter;stroke:rgb(0%,0%,0%);stroke-opacity:1;stroke-miterlimit:10;" d="M 0.0454688 0.481836 L 0.481836 0.590898 L 0.954531 0.530312 L 0.954531 0.409102 L 0.493945 0.445469 L 0.239375 0.421211 Z M 0.0454688 0.481836 " transform="matrix(100,0,0,100,450,350)"/>
<path style="fill:none;stroke-width:0.01;stroke-linecap:butt;stroke-linejoin:miter;stroke:rgb(0%,0%,0%);stroke-opacity:1;stroke-miterlimit:10;" d="M 0.0454688 0.565859 L 0.493398 0.618594 L 0.954531 0.5 L 0.928203 0.381406 L 0.493398 0.486836 L 0.25625 0.5 Z M 0.0454688 0.565859 " transform="matrix(100,0,0,100,600,350)"/>
</g>
</svg>
