<?xml version="1.0" encoding="UTF-8"?>
<svg xmlns="http://www.w3.org/2000/svg" xmlns:xlink="http://www.w3.org/1999/xlink" width="750pt" height="2800pt" viewBox="0 0 750 2800" version="1.1">
<g id="surface1">
<path style="fill:none;stroke-width:0.01;stroke-linecap:butt;stroke-linejoin:miter;stroke:rgb(0%,0%,0%);stroke-opacity:1;stroke-miterlimit:10;" d="M 0.829531 0.0454687 L 0.693164 0.295469 L 0.193164 0.227266 L 0.170469 0.5 L 0.625 0.590898 L 0.784102 0.954531 Z M 0.829531 0.0454687 " transform="matrix(100,0,0,100,0,200)"/>
<path style="fill:none;stroke-width:0.01;stroke-linecap:butt;stroke-linejoin:miter;stroke:rgb(0%,0%,0%);stroke-opacity:1;stroke-miterlimit:10;" d="M 0.829531 0.0454687 L 0.647734 0.363633 L 0.193164 0.340898 L 0.170469 0.590898 L 0.602266 0.613633 L 0.784102 0.954531 Z M 0.829531 0.0454687 " transform="matrix(100,0,0,100,150,200)"/>
<path style="fill:none;stroke-width:0.01;stroke-linecap:butt;stroke-linejoin:miter;stroke:rgb(0%,0%,0%);stroke-opacity:1;stroke-miterlimit:10;" d="M 0.840898 0.0454687 L 0.659102 0.318164 L 0.159102 0.272734 L 0.159102 0.545469 L 0.613633 0.590898 L 0.795469 0.954531 Z M 0.840898 0.0454687 " transform="matrix(100,0,0,100,300,200)"/>
<path style="fill:none;stroke-width:0.01;stroke-linecap:butt;stroke-linejoin:miter;stroke:rgb(0%,0%,0%);stroke-opacity:1;stroke-miterlimit:10;" d="M 0.818164 0.0454687 L 0.659102 0.363633 L 0.204531 0.318164 L 0.181836 0.568164 L 0.613633 0.613633 L 0.772734 0.954531 Z M 0.818164 0.0454687 " transform="matrix(100,0,0,100,450,200)"/>
<path style="fill:none;stroke-width:0.01;stroke-linecap:butt;stroke-linejoin:miter;stroke:rgb(0%,0%,0%);stroke-opacity:1;stroke-miterlimit:10;" d="M 0.829531 0.0454687 L 0.670469 0.340898 L 0.193164 0.295469 L 0.170469 0.545469 L 0.625 0.613633 L 0.784102 0.954531 Z M 0.829531 0.0454687 " transform="matrix(100,0,0,100,600,200)"/>
<path style="fill:none;stroke-width:0.01;stroke-linecap:butt;stroke-linejoin:miter;stroke:rgb(0%,0%,0%);stroke-opacity:1;stroke-miterlimit:10;" d="M 0.852266 0.0454687 L 0.670469 0.318164 L 0.170469 0.272734 L 0.147734 0.545469 L 0.625 0.590898 L 0.806836 0.954531 Z M 0.852266 0.0454687 " transform="matrix(100,0,0,100,0,350)"/>
<path style="fill:none;stroke-width:0.01;stroke-linecap:butt;stroke-linejoin:miter;stroke:rgb(0%,0%,0%);stroke-opacity:1;stroke-miterlimit:10;" d="M 0.840898 0.0454687 L 0.681836 0.295469 L 0.181836 0.227266 L 0.159102 0.522734 L 0.636367 0.568164 L 0.795469 0.954531 Z M 0.840898 0.0454687 " transform="matrix(100,0,0,100,150,350)"/>
<path style="fill:none;stroke-width:0.01;stroke-linecap:butt;stroke-linejoin:miter;stroke:rgb(0%,0%,0%);stroke-opacity:1;stroke-miterlimit:10;" d="M 0.840898 0.0454687 L 0.681836 0.318164 L 0.204531 0.25 L 0.159102 0.545469 L 0.636367 0.590898 L 0.795469 0.954531 Z M 0.840898 0.0454687 " transform="matrix(100,0,0,100,300,350)"/>
<path style="fill:none;stroke-width:0.01;stroke-linecap:butt;stroke-linejoin:miter;stroke:rgb(0%,0%,0%);stroke-opacity:1;stroke-miterlimit:10;" d="M 0.840898 0.0454687 L 0.659102 0.340898 L 0.181836 0.295469 L 0.159102 0.568164 L 0.613633 0.613633 L 0.795469 0.954531 Z M 0.840898 0.0454687 " transform="matrix(100,0,0,100,450,350)"/>
<path style="fill:none;stroke-width:0.01;stroke-linecap:butt;stroke-linejoin:miter;stroke:rgb(0%,0%,0%);stroke-opacity:1;stroke-miterlimit:10;" d="M 0.829531 0.0454687 L 0.670469 0.340898 L 0.193164 0.295469 L 0.170469 0.568164 L 0.625 0.613633 L 0.784102 0.954531 Z M 0.829531 0.0454687 " transform="matrix(100,0,0,100,600,350)"/>
</g>
</svg>
