<?xml version="1.0" encoding="UTF-8"?>
<svg xmlns="http://www.w3.org/2000/svg" xmlns:xlink="http://www.w3.org/1999/xlink" width="750pt" height="2800pt" viewBox="0 0 750 2800" version="1.1">
<g id="surface1">
<path style="fill:none;stroke-width:0.01;stroke-linecap:butt;stroke-linejoin:miter;stroke:rgb(0%,0%,0%);stroke-opacity:1;stroke-miterlimit:10;" d="M 0.280078 0.529336 L 0.514648 0.529336 L 0.925234 0.602656 L 0.954531 0.470664 L 0.485352 0.397344 L 0.0454688 0.485352 Z M 0.280078 0.529336 " transform="matrix(100,0,0,100,0,200)"/>
<path style="fill:none;stroke-width:0.01;stroke-linecap:butt;stroke-linejoin:miter;stroke:rgb(0%,0%,0%);stroke-opacity:1;stroke-miterlimit:10;" d="M 0.283906 0.596875 L 0.522344 0.537266 L 0.954531 0.537266 L 0.954531 0.403125 L 0.477656 0.403125 L 0.0454687 0.552148 Z M 0.283906 0.596875 " transform="matrix(100,0,0,100,150,200)"/>
<path style="fill:none;stroke-width:0.01;stroke-linecap:butt;stroke-linejoin:miter;stroke:rgb(0%,0%,0%);stroke-opacity:1;stroke-miterlimit:10;" d="M 0.309922 0.574375 L 0.541328 0.541328 L 0.954531 0.590898 L 0.954531 0.458672 L 0.491719 0.409102 L 0.0454687 0.524805 Z M 0.309922 0.574375 " transform="matrix(100,0,0,100,300,200)"/>
<path style="fill:none;stroke-width:0.01;stroke-linecap:butt;stroke-linejoin:miter;stroke:rgb(0%,0%,0%);stroke-opacity:1;stroke-miterlimit:10;" d="M 0.305195 0.589297 L 0.532461 0.556836 L 0.93832 0.589297 L 0.954531 0.459414 L 0.48375 0.410703 L 0.0454688 0.540586 Z M 0.305195 0.589297 " transform="matrix(100,0,0,100,450,200)"/>
<path style="fill:none;stroke-width:0.01;stroke-linecap:butt;stroke-linejoin:miter;stroke:rgb(0%,0%,0%);stroke-opacity:1;stroke-miterlimit:10;" d="M 0.291992 0.577031 L 0.523125 0.546211 L 0.954531 0.592461 L 0.954531 0.453789 L 0.492305 0.407539 L 0.0454688 0.53082 Z M 0.291992 0.577031 " transform="matrix(100,0,0,100,600,200)"/>
<path style="fill:none;stroke-width:0.01;stroke-linecap:butt;stroke-linejoin:miter;stroke:rgb(0%,0%,0%);stroke-opacity:1;stroke-miterlimit:10;" d="M 0.29625 0.641055 L 0.515664 0.562695 L 0.954531 0.484336 L 0.938867 0.358945 L 0.468633 0.390273 L 0.0454688 0.594062 Z M 0.29625 0.641055 " transform="matrix(100,0,0,100,0,350)"/>
<path style="fill:none;stroke-width:0.01;stroke-linecap:butt;stroke-linejoin:miter;stroke:rgb(0%,0%,0%);stroke-opacity:1;stroke-miterlimit:10;" d="M 0.269219 0.555937 L 0.506992 0.541953 L 0.940547 0.597891 L 0.954531 0.458047 L 0.493008 0.402109 L 0.0454687 0.513984 Z M 0.269219 0.555937 " transform="matrix(100,0,0,100,150,350)"/>
<path style="fill:none;stroke-width:0.01;stroke-linecap:butt;stroke-linejoin:miter;stroke:rgb(0%,0%,0%);stroke-opacity:1;stroke-miterlimit:10;" d="M 0.242031 0.610547 L 0.487734 0.549141 L 0.954531 0.536836 L 0.954531 0.389453 L 0.47543 0.401719 L 0.0454687 0.573711 Z M 0.242031 0.610547 " transform="matrix(100,0,0,100,300,350)"/>
<path style="fill:none;stroke-width:0.01;stroke-linecap:butt;stroke-linejoin:miter;stroke:rgb(0%,0%,0%);stroke-opacity:1;stroke-miterlimit:10;" d="M 0.287891 0.515156 L 0.515156 0.515156 L 0.924258 0.606055 L 0.954531 0.484844 L 0.5 0.393945 L 0.0454688 0.469688 Z M 0.287891 0.515156 " transform="matrix(100,0,0,100,450,350)"/>
<path style="fill:none;stroke-width:0.01;stroke-linecap:butt;stroke-linejoin:miter;stroke:rgb(0%,0%,0%);stroke-opacity:1;stroke-miterlimit:10;" d="M 0.300625 0.587734 L 0.523906 0.55582 L 0.954531 0.571758 L 0.954531 0.44418 L 0.492031 0.412266 L 0.0454688 0.539883 Z M 0.300625 0.587734 " transform="matrix(100,0,0,100,600,350)"/>
</g>
</svg>
