<?xml version="1.0" encoding="UTF-8"?>
<svg xmlns="http://www.w3.org/2000/svg" xmlns:xlink="http://www.w3.org/1999/xlink" width="750pt" height="2800pt" viewBox="0 0 750 2800" version="1.1">
<g id="surface1">
<path style="fill:none;stroke-width:0.01;stroke-linecap:butt;stroke-linejoin:miter;stroke:rgb(0%,0%,0%);stroke-opacity:1;stroke-miterlimit:10;" d="M 0.0454688 0.539531 L 0.559297 0.618594 L 0.928203 0.644922 L 0.954531 0.513164 L 0.585625 0.460469 L 0.269414 0.355078 Z M 0.0454688 0.539531 " transform="matrix(100,0,0,100,0,200)"/>
<path style="fill:none;stroke-width:0.01;stroke-linecap:butt;stroke-linejoin:miter;stroke:rgb(0%,0%,0%);stroke-opacity:1;stroke-miterlimit:10;" d="M 0.0454687 0.541328 L 0.564922 0.612148 L 0.942734 0.623984 L 0.954531 0.494102 L 0.576758 0.458672 L 0.246172 0.376016 Z M 0.0454687 0.541328 " transform="matrix(100,0,0,100,150,200)"/>
<path style="fill:none;stroke-width:0.01;stroke-linecap:butt;stroke-linejoin:miter;stroke:rgb(0%,0%,0%);stroke-opacity:1;stroke-miterlimit:10;" d="M 0.0454687 0.478086 L 0.549297 0.609531 L 0.92168 0.675234 L 0.954531 0.532852 L 0.560234 0.456172 L 0.231641 0.324766 Z M 0.0454687 0.478086 " transform="matrix(100,0,0,100,300,200)"/>
<path style="fill:none;stroke-width:0.01;stroke-linecap:butt;stroke-linejoin:miter;stroke:rgb(0%,0%,0%);stroke-opacity:1;stroke-miterlimit:10;" d="M 0.0454688 0.527734 L 0.566523 0.605313 L 0.943477 0.6275 L 0.954531 0.483359 L 0.566523 0.461211 L 0.233906 0.3725 Z M 0.0454688 0.527734 " transform="matrix(100,0,0,100,450,200)"/>
<path style="fill:none;stroke-width:0.01;stroke-linecap:butt;stroke-linejoin:miter;stroke:rgb(0%,0%,0%);stroke-opacity:1;stroke-miterlimit:10;" d="M 0.0454688 0.553828 L 0.559805 0.60168 L 0.942578 0.613633 L 0.954531 0.48207 L 0.571758 0.458125 L 0.248789 0.386367 Z M 0.0454688 0.553828 " transform="matrix(100,0,0,100,600,200)"/>
<path style="fill:none;stroke-width:0.01;stroke-linecap:butt;stroke-linejoin:miter;stroke:rgb(0%,0%,0%);stroke-opacity:1;stroke-miterlimit:10;" d="M 0.0454688 0.521641 L 0.550508 0.622656 L 0.925703 0.680391 L 0.954531 0.550508 L 0.593789 0.449492 L 0.290781 0.319609 Z M 0.0454688 0.521641 " transform="matrix(100,0,0,100,0,350)"/>
<path style="fill:none;stroke-width:0.01;stroke-linecap:butt;stroke-linejoin:miter;stroke:rgb(0%,0%,0%);stroke-opacity:1;stroke-miterlimit:10;" d="M 0.0454687 0.577734 L 0.571758 0.589727 L 0.954531 0.565781 L 0.942578 0.434219 L 0.571758 0.446172 L 0.248789 0.410273 Z M 0.0454687 0.577734 " transform="matrix(100,0,0,100,150,350)"/>
<path style="fill:none;stroke-width:0.01;stroke-linecap:butt;stroke-linejoin:miter;stroke:rgb(0%,0%,0%);stroke-opacity:1;stroke-miterlimit:10;" d="M 0.0454687 0.483945 L 0.558828 0.601602 L 0.933164 0.665781 L 0.954531 0.516055 L 0.558828 0.451875 L 0.227266 0.334219 Z M 0.0454687 0.483945 " transform="matrix(100,0,0,100,300,350)"/>
<path style="fill:none;stroke-width:0.01;stroke-linecap:butt;stroke-linejoin:miter;stroke:rgb(0%,0%,0%);stroke-opacity:1;stroke-miterlimit:10;" d="M 0.0454688 0.597422 L 0.564922 0.571445 L 0.954531 0.532461 L 0.941562 0.402578 L 0.57793 0.441563 L 0.26625 0.415586 Z M 0.0454688 0.597422 " transform="matrix(100,0,0,100,450,350)"/>
<path style="fill:none;stroke-width:0.01;stroke-linecap:butt;stroke-linejoin:miter;stroke:rgb(0%,0%,0%);stroke-opacity:1;stroke-miterlimit:10;" d="M 0.0454688 0.574727 L 0.568477 0.599609 L 0.954531 0.599609 L 0.954531 0.462656 L 0.580938 0.462656 L 0.257148 0.400391 Z M 0.0454688 0.574727 " transform="matrix(100,0,0,100,600,350)"/>
</g>
</svg>
