<?xml version="1.0" encoding="UTF-8"?>
<svg xmlns="http://www.w3.org/2000/svg" xmlns:xlink="http://www.w3.org/1999/xlink" width="750pt" height="2800pt" viewBox="0 0 750 2800" version="1.1">
<g id="surface1">
<path style="fill:none;stroke-width:0.01;stroke-linecap:butt;stroke-linejoin:miter;stroke:rgb(0%,0%,0%);stroke-opacity:1;stroke-miterlimit:10;" d="M 0.0454688 0.664141 L 0.954531 0.664141 L 0.929297 0.335859 L 0.0454688 0.361094 Z M 0.0454688 0.664141 " transform="matrix(100,0,0,100,0,200)"/>
<path style="fill:none;stroke-width:0.01;stroke-linecap:butt;stroke-linejoin:miter;stroke:rgb(0%,0%,0%);stroke-opacity:1;stroke-miterlimit:10;" d="M 0.0454687 0.698867 L 0.954531 0.613633 L 0.897734 0.301133 L 0.0454687 0.357969 Z M 0.0454687 0.698867 " transform="matrix(100,0,0,100,150,200)"/>
<path style="fill:none;stroke-width:0.01;stroke-linecap:butt;stroke-linejoin:miter;stroke:rgb(0%,0%,0%);stroke-opacity:1;stroke-miterlimit:10;" d="M 0.0454687 0.670469 L 0.954531 0.670469 L 0.954531 0.357969 L 0.0454687 0.329531 Z M 0.0454687 0.670469 " transform="matrix(100,0,0,100,300,200)"/>
<path style="fill:none;stroke-width:0.01;stroke-linecap:butt;stroke-linejoin:miter;stroke:rgb(0%,0%,0%);stroke-opacity:1;stroke-miterlimit:10;" d="M 0.0454688 0.689375 L 0.954531 0.613633 L 0.904023 0.310625 L 0.0454688 0.386367 Z M 0.0454688 0.689375 " transform="matrix(100,0,0,100,450,200)"/>
<path style="fill:none;stroke-width:0.01;stroke-linecap:butt;stroke-linejoin:miter;stroke:rgb(0%,0%,0%);stroke-opacity:1;stroke-miterlimit:10;" d="M 0.0454688 0.694805 L 0.954531 0.616875 L 0.902578 0.305195 L 0.0454688 0.383125 Z M 0.0454688 0.694805 " transform="matrix(100,0,0,100,600,200)"/>
<path style="fill:none;stroke-width:0.01;stroke-linecap:butt;stroke-linejoin:miter;stroke:rgb(0%,0%,0%);stroke-opacity:1;stroke-miterlimit:10;" d="M 0.0454688 0.675937 L 0.954531 0.646641 L 0.925234 0.324063 L 0.0454688 0.324063 Z M 0.0454688 0.675937 " transform="matrix(100,0,0,100,0,350)"/>
<path style="fill:none;stroke-width:0.01;stroke-linecap:butt;stroke-linejoin:miter;stroke:rgb(0%,0%,0%);stroke-opacity:1;stroke-miterlimit:10;" d="M 0.0454687 0.667461 L 0.954531 0.643555 L 0.930625 0.332539 L 0.0454687 0.380391 Z M 0.0454687 0.667461 " transform="matrix(100,0,0,100,150,350)"/>
<path style="fill:none;stroke-width:0.01;stroke-linecap:butt;stroke-linejoin:miter;stroke:rgb(0%,0%,0%);stroke-opacity:1;stroke-miterlimit:10;" d="M 0.0454687 0.65625 L 0.954531 0.684648 L 0.954531 0.34375 L 0.0454687 0.315352 Z M 0.0454687 0.65625 " transform="matrix(100,0,0,100,300,350)"/>
<path style="fill:none;stroke-width:0.01;stroke-linecap:butt;stroke-linejoin:miter;stroke:rgb(0%,0%,0%);stroke-opacity:1;stroke-miterlimit:10;" d="M 0.0454688 0.675937 L 0.954531 0.646641 L 0.925234 0.324063 L 0.0454688 0.324063 Z M 0.0454688 0.675937 " transform="matrix(100,0,0,100,450,350)"/>
<path style="fill:none;stroke-width:0.01;stroke-linecap:butt;stroke-linejoin:miter;stroke:rgb(0%,0%,0%);stroke-opacity:1;stroke-miterlimit:10;" d="M 0.0454688 0.646641 L 0.954531 0.705273 L 0.954531 0.382695 L 0.0454688 0.294727 Z M 0.0454688 0.646641 " transform="matrix(100,0,0,100,600,350)"/>
</g>
</svg>
