<?xml version="1.0" encoding="UTF-8"?>
<svg xmlns="http://www.w3.org/2000/svg" xmlns:xlink="http://www.w3.org/1999/xlink" width="750pt" height="2800pt" viewBox="0 0 750 2800" version="1.1">
<g id="surface1">
<path style="fill:none;stroke-width:0.01;stroke-linecap:butt;stroke-linejoin:miter;stroke:rgb(0%,0%,0%);stroke-opacity:1;stroke-miterlimit:10;" d="M 0.0454688 0.432422 L 0.573711 0.653555 L 0.573711 0.481562 L 0.954531 0.481562 L 0.954531 0.346445 L 0.573711 0.346445 Z M 0.0454688 0.432422 " transform="matrix(100,0,0,100,0,200)"/>
<path style="fill:none;stroke-width:0.01;stroke-linecap:butt;stroke-linejoin:miter;stroke:rgb(0%,0%,0%);stroke-opacity:1;stroke-miterlimit:10;" d="M 0.0454687 0.450195 L 0.593398 0.661875 L 0.593398 0.5 L 0.954531 0.475078 L 0.954531 0.338125 L 0.580938 0.363008 Z M 0.0454687 0.450195 " transform="matrix(100,0,0,100,150,200)"/>
<path style="fill:none;stroke-width:0.01;stroke-linecap:butt;stroke-linejoin:miter;stroke:rgb(0%,0%,0%);stroke-opacity:1;stroke-miterlimit:10;" d="M 0.0454687 0.452148 L 0.571758 0.667461 L 0.571758 0.511953 L 0.954531 0.476094 L 0.954531 0.332539 L 0.559805 0.368438 Z M 0.0454687 0.452148 " transform="matrix(100,0,0,100,300,200)"/>
<path style="fill:none;stroke-width:0.01;stroke-linecap:butt;stroke-linejoin:miter;stroke:rgb(0%,0%,0%);stroke-opacity:1;stroke-miterlimit:10;" d="M 0.0454688 0.435078 L 0.553125 0.659375 L 0.553125 0.505898 L 0.954531 0.482305 L 0.954531 0.340625 L 0.553125 0.352422 Z M 0.0454688 0.435078 " transform="matrix(100,0,0,100,450,200)"/>
<path style="fill:none;stroke-width:0.01;stroke-linecap:butt;stroke-linejoin:miter;stroke:rgb(0%,0%,0%);stroke-opacity:1;stroke-miterlimit:10;" d="M 0.0454688 0.432422 L 0.573711 0.653555 L 0.573711 0.481562 L 0.954531 0.493867 L 0.954531 0.358711 L 0.573711 0.346445 Z M 0.0454688 0.432422 " transform="matrix(100,0,0,100,600,200)"/>
<path style="fill:none;stroke-width:0.01;stroke-linecap:butt;stroke-linejoin:miter;stroke:rgb(0%,0%,0%);stroke-opacity:1;stroke-miterlimit:10;" d="M 0.0454688 0.434219 L 0.535898 0.649531 L 0.547852 0.494023 L 0.930625 0.541875 L 0.954531 0.39832 L 0.559805 0.350469 Z M 0.0454688 0.434219 " transform="matrix(100,0,0,100,0,350)"/>
<path style="fill:none;stroke-width:0.01;stroke-linecap:butt;stroke-linejoin:miter;stroke:rgb(0%,0%,0%);stroke-opacity:1;stroke-miterlimit:10;" d="M 0.0454687 0.43332 L 0.554531 0.651523 L 0.554531 0.493945 L 0.942422 0.506055 L 0.954531 0.372734 L 0.56668 0.348477 Z M 0.0454687 0.43332 " transform="matrix(100,0,0,100,150,350)"/>
<path style="fill:none;stroke-width:0.01;stroke-linecap:butt;stroke-linejoin:miter;stroke:rgb(0%,0%,0%);stroke-opacity:1;stroke-miterlimit:10;" d="M 0.0454687 0.441563 L 0.603906 0.649336 L 0.603906 0.480508 L 0.941563 0.493516 L 0.954531 0.363633 L 0.603906 0.350664 Z M 0.0454687 0.441563 " transform="matrix(100,0,0,100,300,350)"/>
<path style="fill:none;stroke-width:0.01;stroke-linecap:butt;stroke-linejoin:miter;stroke:rgb(0%,0%,0%);stroke-opacity:1;stroke-miterlimit:10;" d="M 0.0454688 0.446523 L 0.606953 0.64707 L 0.606953 0.473281 L 0.927812 0.513359 L 0.954531 0.393047 L 0.620312 0.35293 Z M 0.0454688 0.446523 " transform="matrix(100,0,0,100,450,350)"/>
<path style="fill:none;stroke-width:0.01;stroke-linecap:butt;stroke-linejoin:miter;stroke:rgb(0%,0%,0%);stroke-opacity:1;stroke-miterlimit:10;" d="M 0.0454688 0.436719 L 0.540273 0.666875 L 0.551797 0.505742 L 0.954531 0.482734 L 0.954531 0.333125 L 0.540273 0.356172 Z M 0.0454688 0.436719 " transform="matrix(100,0,0,100,600,350)"/>
</g>
</svg>
