<?xml version="1.0" encoding="UTF-8"?>
<svg xmlns="http://www.w3.org/2000/svg" xmlns:xlink="http://www.w3.org/1999/xlink" width="750pt" height="2800pt" viewBox="0 0 750 2800" version="1.1">
<g id="surface1">
<path style="fill:none;stroke-width:0.01;stroke-linecap:butt;stroke-linejoin:miter;stroke:rgb(0%,0%,0%);stroke-opacity:1;stroke-miterlimit:10;" d="M 0.838281 0.346719 L 0.489414 0.336133 L 0.648008 0.325586 L 0.933398 0.346719 L 0.943984 0.262148 L 0.626836 0.23043 L 0.330859 0.315 L 0.267461 0.441875 L 0.0560156 0.420703 L 0.0454688 0.547578 L 0.246289 0.558125 L 0.320312 0.706133 L 0.626836 0.76957 L 0.954531 0.716719 L 0.943984 0.642695 L 0.648008 0.674414 L 0.478867 0.663867 L 0.838281 0.663867 Z M 0.838281 0.346719 " transform="matrix(100,0,0,100,0,200)"/>
<path style="fill:none;stroke-width:0.01;stroke-linecap:butt;stroke-linejoin:miter;stroke:rgb(0%,0%,0%);stroke-opacity:1;stroke-miterlimit:10;" d="M 0.836367 0.354531 L 0.490898 0.354531 L 0.654531 0.336367 L 0.936367 0.354531 L 0.936367 0.263633 L 0.627266 0.245469 L 0.327266 0.327266 L 0.263633 0.454531 L 0.0545313 0.445469 L 0.0454687 0.563633 L 0.245469 0.581836 L 0.318164 0.727266 L 0.636367 0.754531 L 0.954531 0.672734 L 0.936367 0.590898 L 0.645469 0.654531 L 0.472734 0.663633 L 0.836367 0.627266 Z M 0.836367 0.354531 " transform="matrix(100,0,0,100,150,200)"/>
<path style="fill:none;stroke-width:0.01;stroke-linecap:butt;stroke-linejoin:miter;stroke:rgb(0%,0%,0%);stroke-opacity:1;stroke-miterlimit:10;" d="M 0.842188 0.34168 L 0.494883 0.34168 L 0.65832 0.32125 L 0.934102 0.34168 L 0.944336 0.249727 L 0.627695 0.229297 L 0.331445 0.311016 L 0.270156 0.443828 L 0.0556641 0.433594 L 0.0454687 0.556172 L 0.249727 0.566406 L 0.331445 0.719609 L 0.637891 0.770703 L 0.954531 0.69918 L 0.944336 0.617461 L 0.648125 0.668555 L 0.484688 0.668555 L 0.842188 0.648125 Z M 0.842188 0.34168 " transform="matrix(100,0,0,100,300,200)"/>
<path style="fill:none;stroke-width:0.01;stroke-linecap:butt;stroke-linejoin:miter;stroke:rgb(0%,0%,0%);stroke-opacity:1;stroke-miterlimit:10;" d="M 0.835156 0.362266 L 0.495391 0.334727 L 0.651523 0.334727 L 0.926992 0.371445 L 0.945352 0.279609 L 0.633164 0.242891 L 0.339297 0.297969 L 0.265859 0.426523 L 0.0638281 0.398984 L 0.0454688 0.518359 L 0.238281 0.545898 L 0.302578 0.692852 L 0.614766 0.757109 L 0.954531 0.692852 L 0.945352 0.610195 L 0.642344 0.656094 L 0.467852 0.646914 L 0.835156 0.637734 Z M 0.835156 0.362266 " transform="matrix(100,0,0,100,450,200)"/>
<path style="fill:none;stroke-width:0.01;stroke-linecap:butt;stroke-linejoin:miter;stroke:rgb(0%,0%,0%);stroke-opacity:1;stroke-miterlimit:10;" d="M 0.839727 0.346875 L 0.495234 0.337305 L 0.657891 0.327734 L 0.935391 0.346875 L 0.944961 0.260781 L 0.62918 0.241641 L 0.332539 0.318164 L 0.265547 0.452148 L 0.0550391 0.433008 L 0.0454688 0.557422 L 0.246406 0.566992 L 0.322969 0.720078 L 0.62918 0.758359 L 0.954531 0.681836 L 0.944961 0.605273 L 0.64832 0.662695 L 0.476094 0.662695 L 0.839727 0.633984 Z M 0.839727 0.346875 " transform="matrix(100,0,0,100,600,200)"/>
<path style="fill:none;stroke-width:0.01;stroke-linecap:butt;stroke-linejoin:miter;stroke:rgb(0%,0%,0%);stroke-opacity:1;stroke-miterlimit:10;" d="M 0.842187 0.346797 L 0.494883 0.326367 L 0.65832 0.316133 L 0.934102 0.356992 L 0.944336 0.265078 L 0.637891 0.234414 L 0.34168 0.295703 L 0.270156 0.428516 L 0.0556641 0.408086 L 0.0454688 0.52043 L 0.249727 0.540859 L 0.311016 0.694063 L 0.627695 0.765586 L 0.954531 0.714492 L 0.944336 0.632773 L 0.648125 0.663437 L 0.474453 0.653203 L 0.842187 0.653203 Z M 0.842187 0.346797 " transform="matrix(100,0,0,100,0,350)"/>
<path style="fill:none;stroke-width:0.01;stroke-linecap:butt;stroke-linejoin:miter;stroke:rgb(0%,0%,0%);stroke-opacity:1;stroke-miterlimit:10;" d="M 0.838477 0.345273 L 0.490313 0.335586 L 0.654727 0.325938 L 0.935195 0.345273 L 0.944883 0.258203 L 0.625742 0.238867 L 0.325937 0.31625 L 0.258203 0.441992 L 0.0454687 0.432305 L 0.0454687 0.558008 L 0.238867 0.567695 L 0.31625 0.722422 L 0.625742 0.761133 L 0.954531 0.68375 L 0.944883 0.606367 L 0.645078 0.664414 L 0.470977 0.664414 L 0.838477 0.635391 Z M 0.838477 0.345273 " transform="matrix(100,0,0,100,150,350)"/>
<path style="fill:none;stroke-width:0.01;stroke-linecap:butt;stroke-linejoin:miter;stroke:rgb(0%,0%,0%);stroke-opacity:1;stroke-miterlimit:10;" d="M 0.842188 0.346797 L 0.494883 0.336562 L 0.65832 0.326367 L 0.934102 0.346797 L 0.944336 0.254844 L 0.637891 0.234414 L 0.331445 0.316133 L 0.270156 0.448945 L 0.0556641 0.428516 L 0.0454687 0.551055 L 0.249727 0.571484 L 0.32125 0.714492 L 0.627695 0.765586 L 0.954531 0.704297 L 0.944336 0.622578 L 0.648125 0.673633 L 0.484688 0.663437 L 0.842188 0.653203 Z M 0.842188 0.346797 " transform="matrix(100,0,0,100,300,350)"/>
<path style="fill:none;stroke-width:0.01;stroke-linecap:butt;stroke-linejoin:miter;stroke:rgb(0%,0%,0%);stroke-opacity:1;stroke-miterlimit:10;" d="M 0.835977 0.346836 L 0.490117 0.346836 L 0.648203 0.32707 L 0.934766 0.346836 L 0.934766 0.257891 L 0.628477 0.238125 L 0.332031 0.32707 L 0.262852 0.455547 L 0.0553516 0.445664 L 0.0454688 0.564219 L 0.252969 0.574102 L 0.322148 0.722344 L 0.628477 0.761875 L 0.954531 0.692695 L 0.934766 0.613633 L 0.648203 0.663047 L 0.480234 0.663047 L 0.835977 0.643281 Z M 0.835977 0.346836 " transform="matrix(100,0,0,100,450,350)"/>
<path style="fill:none;stroke-width:0.01;stroke-linecap:butt;stroke-linejoin:miter;stroke:rgb(0%,0%,0%);stroke-opacity:1;stroke-miterlimit:10;" d="M 0.840898 0.345039 L 0.489688 0.334727 L 0.654961 0.324375 L 0.933867 0.345039 L 0.944219 0.262383 L 0.634297 0.231406 L 0.334727 0.303711 L 0.262383 0.438008 L 0.0454688 0.417344 L 0.0454688 0.541328 L 0.241719 0.551641 L 0.314063 0.706602 L 0.623984 0.768594 L 0.954531 0.706602 L 0.944219 0.634297 L 0.644609 0.665273 L 0.479336 0.654961 L 0.840898 0.654961 Z M 0.840898 0.345039 " transform="matrix(100,0,0,100,600,350)"/>
</g>
</svg>
