<?xml version="1.0" encoding="UTF-8"?>
<svg xmlns="http://www.w3.org/2000/svg" xmlns:xlink="http://www.w3.org/1999/xlink" width="750pt" height="2800pt" viewBox="0 0 750 2800" version="1.1">
<g id="surface1">
<path style="fill:none;stroke-width:0.01;stroke-linecap:butt;stroke-linejoin:miter;stroke:rgb(0%,0%,0%);stroke-opacity:1;stroke-miterlimit:10;" d="M 0.0454688 0.550508 L 0.348477 0.530312 L 0.914141 0.590898 L 0.954531 0.409102 Z M 0.0454688 0.550508 " transform="matrix(100,0,0,100,0,200)"/>
<path style="fill:none;stroke-width:0.01;stroke-linecap:butt;stroke-linejoin:miter;stroke:rgb(0%,0%,0%);stroke-opacity:1;stroke-miterlimit:10;" d="M 0.0454687 0.550508 L 0.368672 0.530312 L 0.934336 0.590898 L 0.954531 0.409102 Z M 0.0454687 0.550508 " transform="matrix(100,0,0,100,150,200)"/>
<path style="fill:none;stroke-width:0.01;stroke-linecap:butt;stroke-linejoin:miter;stroke:rgb(0%,0%,0%);stroke-opacity:1;stroke-miterlimit:10;" d="M 0.0454687 0.560625 L 0.368672 0.520195 L 0.954531 0.58082 L 0.954531 0.41918 Z M 0.0454687 0.560625 " transform="matrix(100,0,0,100,300,200)"/>
<path style="fill:none;stroke-width:0.01;stroke-linecap:butt;stroke-linejoin:miter;stroke:rgb(0%,0%,0%);stroke-opacity:1;stroke-miterlimit:10;" d="M 0.0454688 0.560625 L 0.348477 0.520195 L 0.893945 0.58082 L 0.954531 0.41918 Z M 0.0454688 0.560625 " transform="matrix(100,0,0,100,450,200)"/>
<path style="fill:none;stroke-width:0.01;stroke-linecap:butt;stroke-linejoin:miter;stroke:rgb(0%,0%,0%);stroke-opacity:1;stroke-miterlimit:10;" d="M 0.0454688 0.560625 L 0.368672 0.520195 L 0.954531 0.58082 L 0.954531 0.41918 Z M 0.0454688 0.560625 " transform="matrix(100,0,0,100,600,200)"/>
<path style="fill:none;stroke-width:0.01;stroke-linecap:butt;stroke-linejoin:miter;stroke:rgb(0%,0%,0%);stroke-opacity:1;stroke-miterlimit:10;" d="M 0.0454688 0.560625 L 0.368672 0.520195 L 0.954531 0.58082 L 0.954531 0.41918 Z M 0.0454688 0.560625 " transform="matrix(100,0,0,100,0,350)"/>
<path style="fill:none;stroke-width:0.01;stroke-linecap:butt;stroke-linejoin:miter;stroke:rgb(0%,0%,0%);stroke-opacity:1;stroke-miterlimit:10;" d="M 0.0454687 0.570703 L 0.348477 0.530312 L 0.914141 0.570703 L 0.954531 0.429297 Z M 0.0454687 0.570703 " transform="matrix(100,0,0,100,150,350)"/>
<path style="fill:none;stroke-width:0.01;stroke-linecap:butt;stroke-linejoin:miter;stroke:rgb(0%,0%,0%);stroke-opacity:1;stroke-miterlimit:10;" d="M 0.0454687 0.540391 L 0.368672 0.520195 L 0.914141 0.601016 L 0.954531 0.398984 Z M 0.0454687 0.540391 " transform="matrix(100,0,0,100,300,350)"/>
<path style="fill:none;stroke-width:0.01;stroke-linecap:butt;stroke-linejoin:miter;stroke:rgb(0%,0%,0%);stroke-opacity:1;stroke-miterlimit:10;" d="M 0.0454688 0.560625 L 0.348477 0.520195 L 0.934336 0.58082 L 0.954531 0.41918 Z M 0.0454688 0.560625 " transform="matrix(100,0,0,100,450,350)"/>
<path style="fill:none;stroke-width:0.01;stroke-linecap:butt;stroke-linejoin:miter;stroke:rgb(0%,0%,0%);stroke-opacity:1;stroke-miterlimit:10;" d="M 0.0454688 0.540391 L 0.368672 0.520195 L 0.954531 0.601016 L 0.954531 0.398984 Z M 0.0454688 0.540391 " transform="matrix(100,0,0,100,600,350)"/>
</g>
</svg>
