<?xml version="1.0" encoding="UTF-8"?>
<svg xmlns="http://www.w3.org/2000/svg" xmlns:xlink="http://www.w3.org/1999/xlink" width="750pt" height="3600pt" viewBox="0 0 750 3600" version="1.1">
<g id="surface1">
<path style="fill:none;stroke-width:0.01;stroke-linecap:butt;stroke-linejoin:miter;stroke:rgb(0%,0%,0%);stroke-opacity:1;stroke-miterlimit:10;" d="M 0.464492 0.403477 L 0.263477 0.429492 L 0.368477 0.4075 L 0.541523 0.413477 L 0.530508 0.358477 L 0.345469 0.375469 L 0.164453 0.4325 L 0.141445 0.503516 L 0.0464453 0.504492 L 0.0454688 0.561523 L 0.134453 0.5625 L 0.181484 0.646523 L 0.371484 0.691523 L 0.561523 0.643516 L 0.5575 0.593516 L 0.384492 0.626523 L 0.271484 0.620508 L 0.464492 0.580508 L 0.728516 0.679531 L 0.731523 0.594492 L 0.923555 0.583516 L 0.920547 0.513516 L 0.723516 0.5275 L 0.708516 0.4625 L 0.933555 0.5175 L 0.954531 0.425508 L 0.716523 0.394492 L 0.714531 0.308477 Z M 0.464492 0.403477 " transform="matrix(100,0,0,100,0,200)"/>
<path style="fill:none;stroke-width:0.01;stroke-linecap:butt;stroke-linejoin:miter;stroke:rgb(0%,0%,0%);stroke-opacity:1;stroke-miterlimit:10;" d="M 0.533516 0.445508 L 0.328477 0.4425 L 0.4425 0.401484 L 0.640508 0.380469 L 0.6225 0.318477 L 0.409492 0.343477 L 0.223477 0.4325 L 0.185469 0.505508 L 0.0484375 0.490508 L 0.0454687 0.576523 L 0.172461 0.5775 L 0.214453 0.668516 L 0.4025 0.681523 L 0.608516 0.638516 L 0.601523 0.594492 L 0.4225 0.636523 L 0.315469 0.630508 L 0.533516 0.6175 L 0.763516 0.639531 L 0.933555 0.6375 L 0.954531 0.5825 L 0.788516 0.5675 L 0.629531 0.530508 L 0.750508 0.483516 L 0.932539 0.446484 L 0.939531 0.378477 L 0.779531 0.4025 Z M 0.533516 0.445508 " transform="matrix(100,0,0,100,150,200)"/>
<path style="fill:none;stroke-width:0.01;stroke-linecap:butt;stroke-linejoin:miter;stroke:rgb(0%,0%,0%);stroke-opacity:1;stroke-miterlimit:10;" d="M 0.494492 0.421484 L 0.3125 0.431484 L 0.383477 0.411484 L 0.5225 0.416484 L 0.525508 0.3775 L 0.376484 0.3675 L 0.226484 0.415508 L 0.187461 0.480508 L 0.0494531 0.480508 L 0.0454687 0.554492 L 0.177461 0.551523 L 0.218477 0.631523 L 0.393477 0.6475 L 0.583516 0.616523 L 0.561523 0.573516 L 0.404492 0.595508 L 0.314492 0.6025 L 0.494492 0.5925 L 0.752539 0.680508 L 0.747539 0.6025 L 0.943555 0.598516 L 0.954531 0.533516 L 0.745508 0.531484 L 0.743516 0.450508 L 0.894531 0.438477 L 0.885547 0.3875 L 0.736523 0.393477 L 0.720508 0.319492 Z M 0.494492 0.421484 " transform="matrix(100,0,0,100,300,200)"/>
<path style="fill:none;stroke-width:0.01;stroke-linecap:butt;stroke-linejoin:miter;stroke:rgb(0%,0%,0%);stroke-opacity:1;stroke-miterlimit:10;" d="M 0.531484 0.421484 L 0.314492 0.391484 L 0.414492 0.394492 L 0.555508 0.4125 L 0.575508 0.365469 L 0.400508 0.341484 L 0.224453 0.3725 L 0.173477 0.450508 L 0.0574609 0.429492 L 0.0454688 0.498516 L 0.157461 0.520508 L 0.193477 0.611523 L 0.368477 0.658516 L 0.555508 0.636523 L 0.545508 0.599492 L 0.386484 0.610508 L 0.290469 0.5875 L 0.531484 0.5975 L 0.762539 0.5875 L 0.944531 0.598516 L 0.954531 0.530508 L 0.778516 0.533516 L 0.631523 0.5025 L 0.761523 0.446484 L 0.926523 0.421484 L 0.918555 0.3625 L 0.760508 0.375469 Z M 0.531484 0.421484 " transform="matrix(100,0,0,100,450,200)"/>
<path style="fill:none;stroke-width:0.01;stroke-linecap:butt;stroke-linejoin:miter;stroke:rgb(0%,0%,0%);stroke-opacity:1;stroke-miterlimit:10;" d="M 0.485508 0.429492 L 0.303477 0.424492 L 0.4125 0.416484 L 0.6325 0.445508 L 0.624531 0.385508 L 0.420508 0.368477 L 0.209453 0.408477 L 0.175469 0.473516 L 0.0544531 0.455508 L 0.0454688 0.519492 L 0.162461 0.539492 L 0.195469 0.616523 L 0.406484 0.631523 L 0.605508 0.590508 L 0.5875 0.536484 L 0.4025 0.583516 L 0.291484 0.581523 L 0.485508 0.596523 L 0.723516 0.605508 L 0.884531 0.583516 L 0.890547 0.5275 L 0.726523 0.538516 L 0.575508 0.514492 L 0.739531 0.480508 L 0.954531 0.501484 L 0.942539 0.419492 L 0.723516 0.4225 Z M 0.485508 0.429492 " transform="matrix(100,0,0,100,600,200)"/>
<path style="fill:none;stroke-width:0.01;stroke-linecap:butt;stroke-linejoin:miter;stroke:rgb(0%,0%,0%);stroke-opacity:1;stroke-miterlimit:10;" d="M 0.490508 0.4125 L 0.295469 0.424492 L 0.4075 0.416484 L 0.591523 0.444492 L 0.589492 0.383477 L 0.3875 0.376484 L 0.196484 0.410508 L 0.165469 0.484492 L 0.0494531 0.486484 L 0.0454688 0.556523 L 0.165469 0.559492 L 0.208477 0.636523 L 0.376484 0.649531 L 0.546523 0.603516 L 0.528516 0.559492 L 0.386484 0.6025 L 0.295469 0.604492 L 0.490508 0.595508 L 0.762539 0.684531 L 0.754531 0.614492 L 0.923555 0.610508 L 0.928555 0.549492 L 0.752539 0.545508 L 0.759531 0.460508 L 0.953555 0.465508 L 0.954531 0.403477 L 0.757539 0.390508 L 0.764531 0.315469 Z M 0.490508 0.4125 " transform="matrix(100,0,0,100,0,350)"/>
<path style="fill:none;stroke-width:0.01;stroke-linecap:butt;stroke-linejoin:miter;stroke:rgb(0%,0%,0%);stroke-opacity:1;stroke-miterlimit:10;" d="M 0.515508 0.423477 L 0.316484 0.400508 L 0.411484 0.419492 L 0.555508 0.444492 L 0.5725 0.404492 L 0.4025 0.359492 L 0.227461 0.370469 L 0.183477 0.446484 L 0.0614453 0.403477 L 0.0454687 0.480508 L 0.165469 0.5125 L 0.199453 0.600508 L 0.384492 0.6425 L 0.593516 0.619531 L 0.576523 0.5675 L 0.389492 0.578516 L 0.288477 0.5725 L 0.515508 0.583516 L 0.763516 0.674531 L 0.754531 0.598516 L 0.954531 0.560508 L 0.945547 0.498516 L 0.746523 0.534492 L 0.738516 0.4625 L 0.929531 0.440508 L 0.921523 0.376484 L 0.736523 0.391484 L 0.722539 0.325469 Z M 0.515508 0.423477 " transform="matrix(100,0,0,100,150,350)"/>
<path style="fill:none;stroke-width:0.01;stroke-linecap:butt;stroke-linejoin:miter;stroke:rgb(0%,0%,0%);stroke-opacity:1;stroke-miterlimit:10;" d="M 0.5225 0.395508 L 0.297461 0.385508 L 0.405508 0.390508 L 0.593516 0.436484 L 0.608516 0.366484 L 0.3975 0.328477 L 0.204453 0.363477 L 0.162461 0.449492 L 0.0454687 0.463516 L 0.0534375 0.526484 L 0.159453 0.519492 L 0.201484 0.608516 L 0.418477 0.615508 L 0.6275 0.551523 L 0.605508 0.489492 L 0.403477 0.549492 L 0.306484 0.565508 L 0.5225 0.5725 L 0.755508 0.685508 L 0.750508 0.611523 L 0.935547 0.609492 L 0.938555 0.548516 L 0.757539 0.5425 L 0.755508 0.4625 L 0.951563 0.454492 L 0.954531 0.390508 L 0.754531 0.3925 L 0.759531 0.314492 Z M 0.5225 0.395508 " transform="matrix(100,0,0,100,300,350)"/>
<path style="fill:none;stroke-width:0.01;stroke-linecap:butt;stroke-linejoin:miter;stroke:rgb(0%,0%,0%);stroke-opacity:1;stroke-miterlimit:10;" d="M 0.524492 0.406484 L 0.335469 0.391484 L 0.410508 0.390508 L 0.5575 0.403477 L 0.549492 0.368477 L 0.399492 0.3475 L 0.246484 0.369492 L 0.194453 0.4325 L 0.0544531 0.409492 L 0.0454688 0.484492 L 0.174453 0.508516 L 0.219453 0.5975 L 0.395508 0.6525 L 0.590508 0.628516 L 0.5925 0.5725 L 0.408477 0.585508 L 0.308477 0.578516 L 0.524492 0.573516 L 0.743516 0.585508 L 0.920547 0.583516 L 0.927539 0.538516 L 0.768516 0.528516 L 0.6225 0.501484 L 0.777539 0.455508 L 0.951563 0.453477 L 0.954531 0.395508 L 0.796523 0.398477 Z M 0.524492 0.406484 " transform="matrix(100,0,0,100,450,350)"/>
<path style="fill:none;stroke-width:0.01;stroke-linecap:butt;stroke-linejoin:miter;stroke:rgb(0%,0%,0%);stroke-opacity:1;stroke-miterlimit:10;" d="M 0.511484 0.405508 L 0.304492 0.406484 L 0.401484 0.415508 L 0.550508 0.449492 L 0.558516 0.4025 L 0.3825 0.366484 L 0.208477 0.380469 L 0.166484 0.451484 L 0.0544531 0.436484 L 0.0454688 0.501484 L 0.158477 0.516484 L 0.197461 0.605508 L 0.381484 0.636523 L 0.570508 0.586523 L 0.5575 0.531484 L 0.381484 0.573516 L 0.280469 0.575508 L 0.511484 0.573516 L 0.744531 0.680508 L 0.742539 0.608516 L 0.929531 0.641523 L 0.941562 0.5725 L 0.752539 0.541523 L 0.754531 0.465508 L 0.954531 0.440508 L 0.944531 0.374492 L 0.752539 0.388477 L 0.748516 0.319492 Z M 0.511484 0.405508 " transform="matrix(100,0,0,100,600,350)"/>
<path style="fill:none;stroke-width:0.01;stroke-linecap:butt;stroke-linejoin:miter;stroke:rgb(0%,0%,0%);stroke-opacity:1;stroke-miterlimit:10;" d="M 0.4625 0.394492 L 0.282461 0.393477 L 0.391484 0.393477 L 0.565508 0.413477 L 0.575508 0.3525 L 0.393477 0.335469 L 0.200469 0.368477 L 0.162461 0.440508 L 0.0504687 0.433477 L 0.0454688 0.495508 L 0.149453 0.503516 L 0.185469 0.581523 L 0.339492 0.618516 L 0.493516 0.589492 L 0.486484 0.536484 L 0.343477 0.560508 L 0.265469 0.559492 L 0.4625 0.558516 L 0.728516 0.6225 L 0.931563 0.664531 L 0.954531 0.580508 L 0.730508 0.544492 L 0.5525 0.475508 L 0.686523 0.449492 L 0.849531 0.459492 L 0.852539 0.4025 L 0.699531 0.403477 Z M 0.4625 0.394492 " transform="matrix(100,0,0,100,0,500)"/>
<path style="fill:none;stroke-width:0.01;stroke-linecap:butt;stroke-linejoin:miter;stroke:rgb(0%,0%,0%);stroke-opacity:1;stroke-miterlimit:10;" d="M 0.508516 0.411484 L 0.299492 0.403477 L 0.380469 0.409492 L 0.538516 0.443477 L 0.544492 0.391484 L 0.388477 0.355469 L 0.220469 0.3725 L 0.175469 0.456484 L 0.0464453 0.439492 L 0.0454687 0.515508 L 0.158477 0.531484 L 0.202461 0.6275 L 0.373477 0.6425 L 0.544492 0.606523 L 0.545508 0.569492 L 0.388477 0.5925 L 0.291484 0.588516 L 0.508516 0.573516 L 0.734531 0.680508 L 0.750508 0.6125 L 0.934531 0.6475 L 0.954531 0.584492 L 0.756523 0.5325 L 0.755508 0.459492 L 0.926523 0.449492 L 0.920547 0.393477 L 0.755508 0.395508 L 0.745508 0.319492 Z M 0.508516 0.411484 " transform="matrix(100,0,0,100,150,500)"/>
<path style="fill:none;stroke-width:0.01;stroke-linecap:butt;stroke-linejoin:miter;stroke:rgb(0%,0%,0%);stroke-opacity:1;stroke-miterlimit:10;" d="M 0.5225 0.419492 L 0.318477 0.416484 L 0.393477 0.425508 L 0.534492 0.471484 L 0.540508 0.4275 L 0.389492 0.381484 L 0.227461 0.393477 L 0.192461 0.474492 L 0.0454687 0.4675 L 0.0454687 0.559492 L 0.185469 0.548516 L 0.224453 0.6275 L 0.466484 0.628516 L 0.690508 0.534492 L 0.6575 0.4975 L 0.448477 0.573516 L 0.318477 0.5875 L 0.5225 0.583516 L 0.777539 0.673516 L 0.763516 0.616523 L 0.934531 0.6475 L 0.954531 0.584492 L 0.770508 0.549492 L 0.763516 0.474492 L 0.940547 0.488516 L 0.951563 0.429492 L 0.770508 0.4025 L 0.766523 0.326484 Z M 0.5225 0.419492 " transform="matrix(100,0,0,100,300,500)"/>
<path style="fill:none;stroke-width:0.01;stroke-linecap:butt;stroke-linejoin:miter;stroke:rgb(0%,0%,0%);stroke-opacity:1;stroke-miterlimit:10;" d="M 0.544492 0.401484 L 0.356484 0.386484 L 0.444492 0.374492 L 0.601523 0.404492 L 0.6075 0.3475 L 0.416484 0.328477 L 0.252461 0.371484 L 0.191484 0.444492 L 0.0524609 0.420508 L 0.0454688 0.499492 L 0.178477 0.519492 L 0.230469 0.609492 L 0.4275 0.638516 L 0.623516 0.611523 L 0.616523 0.559492 L 0.420508 0.594492 L 0.325469 0.583516 L 0.544492 0.573516 L 0.795547 0.671523 L 0.788516 0.599492 L 0.954531 0.579492 L 0.950547 0.5225 L 0.785547 0.538516 L 0.779531 0.456484 L 0.924531 0.438477 L 0.919531 0.380469 L 0.779531 0.399492 L 0.780547 0.328477 Z M 0.544492 0.401484 " transform="matrix(100,0,0,100,450,500)"/>
<path style="fill:none;stroke-width:0.01;stroke-linecap:butt;stroke-linejoin:miter;stroke:rgb(0%,0%,0%);stroke-opacity:1;stroke-miterlimit:10;" d="M 0.5375 0.4075 L 0.326484 0.3825 L 0.436484 0.399492 L 0.644531 0.451484 L 0.660508 0.378477 L 0.440508 0.341484 L 0.222461 0.369492 L 0.177461 0.4525 L 0.0494531 0.444492 L 0.0454688 0.5225 L 0.164453 0.525508 L 0.217461 0.623516 L 0.429492 0.658516 L 0.6475 0.6025 L 0.630508 0.554492 L 0.421484 0.594492 L 0.321484 0.593516 L 0.5375 0.5825 L 0.741523 0.625508 L 0.904531 0.638516 L 0.898555 0.579492 L 0.754531 0.554492 L 0.630508 0.506484 L 0.774531 0.498516 L 0.954531 0.514492 L 0.950547 0.4575 L 0.786523 0.445508 Z M 0.5375 0.4075 " transform="matrix(100,0,0,100,600,500)"/>
<path style="fill:none;stroke-width:0.01;stroke-linecap:butt;stroke-linejoin:miter;stroke:rgb(0%,0%,0%);stroke-opacity:1;stroke-miterlimit:10;" d="M 0.516484 0.423477 L 0.319492 0.405508 L 0.438477 0.398477 L 0.640508 0.410508 L 0.651523 0.3425 L 0.430508 0.3475 L 0.220469 0.391484 L 0.176484 0.455508 L 0.0524609 0.441484 L 0.0454688 0.516484 L 0.161484 0.530508 L 0.203477 0.629531 L 0.431484 0.6575 L 0.6575 0.609492 L 0.661523 0.533516 L 0.454492 0.590508 L 0.305469 0.603516 L 0.516484 0.596523 L 0.762539 0.615508 L 0.929531 0.610508 L 0.920547 0.533516 L 0.759531 0.546523 L 0.608516 0.511484 L 0.742539 0.475508 L 0.939531 0.4675 L 0.954531 0.408477 L 0.792539 0.423477 Z M 0.516484 0.423477 " transform="matrix(100,0,0,100,0,650)"/>
<path style="fill:none;stroke-width:0.01;stroke-linecap:butt;stroke-linejoin:miter;stroke:rgb(0%,0%,0%);stroke-opacity:1;stroke-miterlimit:10;" d="M 0.516484 0.4025 L 0.333477 0.379492 L 0.448477 0.385508 L 0.636523 0.423477 L 0.6575 0.355469 L 0.446484 0.3175 L 0.229492 0.361484 L 0.181484 0.444492 L 0.0554687 0.420508 L 0.0454687 0.4975 L 0.164453 0.519492 L 0.195469 0.613516 L 0.3825 0.678516 L 0.6075 0.6825 L 0.610508 0.625508 L 0.401484 0.631523 L 0.298477 0.595508 L 0.516484 0.5925 L 0.771523 0.595508 L 0.946563 0.591523 L 0.946563 0.5325 L 0.774531 0.528516 L 0.6225 0.501484 L 0.763516 0.4575 L 0.954531 0.443477 L 0.938555 0.3875 L 0.759531 0.3925 Z M 0.516484 0.4025 " transform="matrix(100,0,0,100,150,650)"/>
<path style="fill:none;stroke-width:0.01;stroke-linecap:butt;stroke-linejoin:miter;stroke:rgb(0%,0%,0%);stroke-opacity:1;stroke-miterlimit:10;" d="M 0.518516 0.410508 L 0.321484 0.406484 L 0.426484 0.3975 L 0.6375 0.416484 L 0.655508 0.356484 L 0.435508 0.3375 L 0.219453 0.393477 L 0.179453 0.474492 L 0.0514453 0.459492 L 0.0454687 0.5275 L 0.168477 0.550508 L 0.216484 0.639531 L 0.4375 0.6625 L 0.643516 0.624531 L 0.649531 0.566523 L 0.430508 0.616523 L 0.309492 0.603516 L 0.518516 0.5825 L 0.751523 0.640508 L 0.938555 0.654531 L 0.954531 0.596523 L 0.768516 0.5725 L 0.611523 0.509492 L 0.736523 0.496484 L 0.933555 0.5125 L 0.944531 0.451484 L 0.783516 0.438477 Z M 0.518516 0.410508 " transform="matrix(100,0,0,100,300,650)"/>
<path style="fill:none;stroke-width:0.01;stroke-linecap:butt;stroke-linejoin:miter;stroke:rgb(0%,0%,0%);stroke-opacity:1;stroke-miterlimit:10;" d="M 0.479492 0.383477 L 0.274492 0.399492 L 0.385508 0.370469 L 0.5775 0.364492 L 0.575508 0.291484 L 0.365469 0.309492 L 0.174453 0.391484 L 0.152461 0.4725 L 0.0484375 0.469492 L 0.0454688 0.529492 L 0.139453 0.5325 L 0.175469 0.614492 L 0.338477 0.605508 L 0.503516 0.554492 L 0.495508 0.521484 L 0.346484 0.569492 L 0.263477 0.575508 L 0.479492 0.568516 L 0.733516 0.710508 L 0.733516 0.624531 L 0.904531 0.645508 L 0.911523 0.578516 L 0.737539 0.555508 L 0.746523 0.466484 L 0.953555 0.464492 L 0.954531 0.3975 L 0.754531 0.385508 L 0.773516 0.289492 Z M 0.479492 0.383477 " transform="matrix(100,0,0,100,450,650)"/>
<path style="fill:none;stroke-width:0.01;stroke-linecap:butt;stroke-linejoin:miter;stroke:rgb(0%,0%,0%);stroke-opacity:1;stroke-miterlimit:10;" d="M 0.490508 0.415508 L 0.308477 0.401484 L 0.4075 0.406484 L 0.574492 0.461484 L 0.594492 0.406484 L 0.420508 0.364492 L 0.221484 0.383477 L 0.172461 0.4575 L 0.0594531 0.4175 L 0.0454688 0.476484 L 0.147461 0.518516 L 0.187461 0.620508 L 0.360469 0.684531 L 0.591523 0.685508 L 0.600508 0.620508 L 0.394492 0.620508 L 0.288477 0.5975 L 0.490508 0.5825 L 0.748516 0.6725 L 0.750508 0.594492 L 0.954531 0.5825 L 0.944531 0.513516 L 0.737539 0.523516 L 0.720508 0.451484 L 0.869531 0.423477 L 0.863555 0.376484 L 0.719531 0.3925 L 0.723516 0.314492 Z M 0.490508 0.415508 " transform="matrix(100,0,0,100,600,650)"/>
</g>
</svg>
