<?xml version="1.0" encoding="UTF-8"?>
<svg xmlns="http://www.w3.org/2000/svg" xmlns:xlink="http://www.w3.org/1999/xlink" width="750pt" height="2400pt" viewBox="0 0 750 2400" version="1.1">
<g id="surface1">
<path style="fill:none;stroke-width:0.01;stroke-linecap:butt;stroke-linejoin:miter;stroke:rgb(0%,0%,0%);stroke-opacity:1;stroke-miterlimit:10;" d="M 0.0790625 0.916875 L 0.377617 0.395117 L 0.377617 0.0454687 L 0.920937 0.0454687 L 0.920937 0.927656 L 0.377617 0.927656 L 0.377617 0.556484 L 0.149023 0.954531 Z M 0.0790625 0.916875 " transform="matrix(100,0,0,100,0,200)"/>
<path style="fill:none;stroke-width:0.01;stroke-linecap:butt;stroke-linejoin:miter;stroke:rgb(0%,0%,0%);stroke-opacity:1;stroke-miterlimit:10;" d="M 0.0454687 0.583047 L 0.488477 0.463086 L 0.488477 0.121602 L 0.954531 0.121602 L 0.954531 0.878398 L 0.488477 0.878398 L 0.488477 0.534609 L 0.0639063 0.649961 Z M 0.0454687 0.583047 " transform="matrix(100,0,0,100,150,200)"/>
<path style="fill:none;stroke-width:0.01;stroke-linecap:butt;stroke-linejoin:miter;stroke:rgb(0%,0%,0%);stroke-opacity:1;stroke-miterlimit:10;" d="M 0.0454687 0.702031 L 0.46875 0.456719 L 0.46875 0.105586 L 0.954531 0.105586 L 0.954531 0.894414 L 0.46875 0.894414 L 0.46875 0.538477 L 0.0815234 0.764531 Z M 0.0454687 0.702031 " transform="matrix(100,0,0,100,300,200)"/>
<path style="fill:none;stroke-width:0.01;stroke-linecap:butt;stroke-linejoin:miter;stroke:rgb(0%,0%,0%);stroke-opacity:1;stroke-miterlimit:10;" d="M 0.0454688 0.826328 L 0.431367 0.44043 L 0.431367 0.0752344 L 0.954531 0.0752344 L 0.954531 0.924766 L 0.431367 0.924766 L 0.431367 0.549219 L 0.0998437 0.880742 Z M 0.0454688 0.826328 " transform="matrix(100,0,0,100,450,200)"/>
<path style="fill:none;stroke-width:0.01;stroke-linecap:butt;stroke-linejoin:miter;stroke:rgb(0%,0%,0%);stroke-opacity:1;stroke-miterlimit:10;" d="M 0.0454688 0.465547 L 0.49082 0.465547 L 0.49082 0.123516 L 0.954531 0.123516 L 0.954531 0.876484 L 0.49082 0.876484 L 0.49082 0.534453 L 0.0454688 0.534453 Z M 0.0454688 0.465547 " transform="matrix(100,0,0,100,600,200)"/>
<path style="fill:none;stroke-width:0.01;stroke-linecap:butt;stroke-linejoin:miter;stroke:rgb(0%,0%,0%);stroke-opacity:1;stroke-miterlimit:10;" d="M 0.0454688 0.419258 L 0.0639062 0.352344 L 0.488477 0.467695 L 0.488477 0.121602 L 0.954531 0.121602 L 0.954531 0.878398 L 0.488477 0.878398 L 0.488477 0.536914 Z M 0.0454688 0.419258 " transform="matrix(100,0,0,100,0,350)"/>
<path style="fill:none;stroke-width:0.01;stroke-linecap:butt;stroke-linejoin:miter;stroke:rgb(0%,0%,0%);stroke-opacity:1;stroke-miterlimit:10;" d="M 0.0454687 0.300391 L 0.0815234 0.237852 L 0.46875 0.463906 L 0.46875 0.105586 L 0.954531 0.105586 L 0.954531 0.894414 L 0.46875 0.894414 L 0.46875 0.545703 Z M 0.0454687 0.300391 " transform="matrix(100,0,0,100,150,350)"/>
<path style="fill:none;stroke-width:0.01;stroke-linecap:butt;stroke-linejoin:miter;stroke:rgb(0%,0%,0%);stroke-opacity:1;stroke-miterlimit:10;" d="M 0.0454687 0.17625 L 0.0998438 0.121875 L 0.431367 0.453398 L 0.431367 0.0752344 L 0.954531 0.0752344 L 0.954531 0.924766 L 0.431367 0.924766 L 0.431367 0.562148 Z M 0.0454687 0.17625 " transform="matrix(100,0,0,100,300,350)"/>
<path style="fill:none;stroke-width:0.01;stroke-linecap:butt;stroke-linejoin:miter;stroke:rgb(0%,0%,0%);stroke-opacity:1;stroke-miterlimit:10;" d="M 0.0790625 0.0857813 L 0.149023 0.0454687 L 0.377617 0.446211 L 0.377617 0.0723437 L 0.920937 0.0723437 L 0.920937 0.954531 L 0.377617 0.954531 L 0.377617 0.607578 Z M 0.0790625 0.0857813 " transform="matrix(100,0,0,100,450,350)"/>
</g>
</svg>
