<?xml version="1.0" encoding="UTF-8"?>
<svg xmlns="http://www.w3.org/2000/svg" xmlns:xlink="http://www.w3.org/1999/xlink" width="750pt" height="2400pt" viewBox="0 0 750 2400" version="1.1">
<g id="surface1">
<path style="fill:none;stroke-width:0.01;stroke-linecap:butt;stroke-linejoin:miter;stroke:rgb(0%,0%,0%);stroke-opacity:1;stroke-miterlimit:10;" d="M 0.0454688 0.573984 L 0.196484 0.501523 L 0.341445 0.501523 L 0.15418 0.175312 L 0.28707 0.275 L 0.271953 0.108867 L 0.416953 0.35957 L 0.528711 0.163242 L 0.664609 0.0696094 L 0.652539 0.235742 L 0.577031 0.362578 L 0.954531 0.362578 L 0.803516 0.429023 L 0.954531 0.498477 L 0.664609 0.498477 L 0.776367 0.691797 L 0.791445 0.854883 L 0.652539 0.76125 L 0.583047 0.64043 L 0.471289 0.83375 L 0.338398 0.930391 L 0.350508 0.76125 L 0.419961 0.64043 L 0.196484 0.64043 Z M 0.0454688 0.573984 " transform="matrix(100,0,0,100,0,200)"/>
<path style="fill:none;stroke-width:0.01;stroke-linecap:butt;stroke-linejoin:miter;stroke:rgb(0%,0%,0%);stroke-opacity:1;stroke-miterlimit:10;" d="M 0.0543359 0.56957 L 0.202383 0.498516 L 0.344531 0.498516 L 0.160937 0.18168 L 0.29125 0.276445 L 0.276445 0.113555 L 0.421523 0.365273 L 0.605117 0.0454687 L 0.590313 0.205352 L 0.720625 0.113555 L 0.581445 0.356367 L 0.797617 0.356367 L 0.945664 0.424492 L 0.797617 0.495547 L 0.655469 0.495547 L 0.842031 0.81832 L 0.70875 0.723555 L 0.723555 0.883477 L 0.578477 0.631758 L 0.394883 0.954531 L 0.412656 0.79168 L 0.279375 0.886445 L 0.421523 0.637695 L 0.202383 0.637695 Z M 0.0543359 0.56957 " transform="matrix(100,0,0,100,150,200)"/>
<path style="fill:none;stroke-width:0.01;stroke-linecap:butt;stroke-linejoin:miter;stroke:rgb(0%,0%,0%);stroke-opacity:1;stroke-miterlimit:10;" d="M 0.0454687 0.573984 L 0.196484 0.501523 L 0.335391 0.501523 L 0.223633 0.308203 L 0.208555 0.145117 L 0.344453 0.23875 L 0.416953 0.35957 L 0.525664 0.16625 L 0.661602 0.0696094 L 0.649492 0.235742 L 0.580039 0.356523 L 0.803516 0.356523 L 0.954531 0.426016 L 0.803516 0.498477 L 0.661602 0.498477 L 0.77332 0.691797 L 0.791445 0.857891 L 0.652539 0.76125 L 0.583047 0.64043 L 0.471289 0.83375 L 0.335391 0.930391 L 0.347461 0.764258 L 0.416953 0.643477 L 0.196484 0.643477 Z M 0.0454687 0.573984 " transform="matrix(100,0,0,100,300,200)"/>
<path style="fill:none;stroke-width:0.01;stroke-linecap:butt;stroke-linejoin:miter;stroke:rgb(0%,0%,0%);stroke-opacity:1;stroke-miterlimit:10;" d="M 0.0543359 0.501484 L 0.344531 0.501484 L 0.157969 0.18168 L 0.288281 0.276445 L 0.273477 0.113555 L 0.418555 0.365273 L 0.605117 0.0454687 L 0.587344 0.205352 L 0.720625 0.113555 L 0.575508 0.365273 L 0.945664 0.365273 L 0.797617 0.43043 L 0.945664 0.498516 L 0.655469 0.498516 L 0.839062 0.81832 L 0.70875 0.723555 L 0.723555 0.883477 L 0.578477 0.631758 L 0.391914 0.954531 L 0.409688 0.79168 L 0.276445 0.886445 L 0.421523 0.634727 L 0.0543359 0.634727 L 0.202383 0.56957 Z M 0.0543359 0.501484 " transform="matrix(100,0,0,100,450,200)"/>
<path style="fill:none;stroke-width:0.01;stroke-linecap:butt;stroke-linejoin:miter;stroke:rgb(0%,0%,0%);stroke-opacity:1;stroke-miterlimit:10;" d="M 0.0454688 0.555859 L 0.196484 0.483398 L 0.341445 0.483398 L 0.15418 0.160234 L 0.28707 0.256875 L 0.271953 0.0907422 L 0.416953 0.341445 L 0.528711 0.148125 L 0.664609 0.0514844 L 0.652539 0.217617 L 0.577031 0.347461 L 0.954531 0.347461 L 0.803516 0.413906 L 0.954531 0.483398 L 0.664609 0.483398 L 0.776367 0.673672 L 0.791445 0.839766 L 0.652539 0.743125 L 0.583047 0.619297 L 0.392773 0.948516 L 0.410898 0.782383 L 0.275 0.879023 L 0.422969 0.625352 L 0.196484 0.625352 Z M 0.0454688 0.555859 " transform="matrix(100,0,0,100,600,200)"/>
<path style="fill:none;stroke-width:0.01;stroke-linecap:butt;stroke-linejoin:miter;stroke:rgb(0%,0%,0%);stroke-opacity:1;stroke-miterlimit:10;" d="M 0.0454688 0.504531 L 0.338398 0.504531 L 0.223633 0.308203 L 0.208555 0.145117 L 0.347461 0.23875 L 0.416953 0.35957 L 0.528711 0.16625 L 0.664609 0.0696094 L 0.649492 0.235742 L 0.580039 0.356523 L 0.803516 0.356523 L 0.954531 0.426016 L 0.803516 0.498477 L 0.664609 0.498477 L 0.776367 0.691797 L 0.791445 0.857891 L 0.652539 0.76125 L 0.583047 0.64043 L 0.471289 0.83375 L 0.338398 0.930391 L 0.350508 0.764258 L 0.419961 0.64043 L 0.0454688 0.64043 L 0.196484 0.573984 Z M 0.0454688 0.504531 " transform="matrix(100,0,0,100,0,350)"/>
<path style="fill:none;stroke-width:0.01;stroke-linecap:butt;stroke-linejoin:miter;stroke:rgb(0%,0%,0%);stroke-opacity:1;stroke-miterlimit:10;" d="M 0.0528906 0.571289 L 0.201445 0.5 L 0.344023 0.5 L 0.159844 0.182109 L 0.290547 0.277188 L 0.275703 0.113789 L 0.421289 0.366328 L 0.605469 0.0454687 L 0.587656 0.205898 L 0.721328 0.11082 L 0.575742 0.36332 L 0.947109 0.36332 L 0.798555 0.43168 L 0.947109 0.5 L 0.655977 0.5 L 0.840156 0.820859 L 0.709453 0.722812 L 0.724297 0.886211 L 0.578711 0.633672 L 0.394531 0.954531 L 0.412344 0.794102 L 0.278672 0.88918 L 0.421289 0.639648 L 0.201445 0.639648 Z M 0.0528906 0.571289 " transform="matrix(100,0,0,100,150,350)"/>
<path style="fill:none;stroke-width:0.01;stroke-linecap:butt;stroke-linejoin:miter;stroke:rgb(0%,0%,0%);stroke-opacity:1;stroke-miterlimit:10;" d="M 0.0454687 0.589102 L 0.196484 0.516602 L 0.335391 0.516602 L 0.223633 0.32332 L 0.208555 0.157188 L 0.344453 0.25082 L 0.419961 0.377695 L 0.607227 0.0545313 L 0.589102 0.217617 L 0.725 0.120977 L 0.577031 0.377695 L 0.954531 0.377695 L 0.803516 0.444141 L 0.954531 0.513594 L 0.658555 0.513594 L 0.84582 0.839766 L 0.71293 0.743125 L 0.728047 0.909258 L 0.580039 0.655547 L 0.471289 0.848828 L 0.335391 0.945469 L 0.347461 0.776367 L 0.416953 0.655547 L 0.196484 0.655547 Z M 0.0454687 0.589102 " transform="matrix(100,0,0,100,300,350)"/>
<path style="fill:none;stroke-width:0.01;stroke-linecap:butt;stroke-linejoin:miter;stroke:rgb(0%,0%,0%);stroke-opacity:1;stroke-miterlimit:10;" d="M 0.0454688 0.589102 L 0.196484 0.516602 L 0.341445 0.516602 L 0.15418 0.193437 L 0.28707 0.290078 L 0.271953 0.123984 L 0.419961 0.380703 L 0.610234 0.0545313 L 0.592109 0.220625 L 0.728047 0.123984 L 0.583047 0.371641 L 0.803516 0.371641 L 0.954531 0.441094 L 0.803516 0.513594 L 0.658555 0.513594 L 0.848828 0.842812 L 0.715937 0.746133 L 0.731055 0.912266 L 0.583047 0.658555 L 0.474336 0.848828 L 0.338398 0.945469 L 0.350508 0.779375 L 0.419961 0.658555 L 0.196484 0.658555 Z M 0.0454688 0.589102 " transform="matrix(100,0,0,100,450,350)"/>
</g>
</svg>
