<?xml version="1.0" encoding="UTF-8"?>
<svg xmlns="http://www.w3.org/2000/svg" xmlns:xlink="http://www.w3.org/1999/xlink" width="750pt" height="2400pt" viewBox="0 0 750 2400" version="1.1">
<g id="surface1">
<path style="fill:none;stroke-width:0.01;stroke-linecap:butt;stroke-linejoin:miter;stroke:rgb(0%,0%,0%);stroke-opacity:1;stroke-miterlimit:10;" d="M 0.895156 0.954531 L 0.895156 0.0454687 L 0.104844 0.498633 Z M 0.895156 0.954531 " transform="matrix(100,0,0,100,0,200)"/>
<path style="fill:none;stroke-width:0.01;stroke-linecap:butt;stroke-linejoin:miter;stroke:rgb(0%,0%,0%);stroke-opacity:1;stroke-miterlimit:10;" d="M 0.766641 0.954531 L 0.954531 0.236133 L 0.238867 0.0454687 L 0.0454687 0.763867 Z M 0.766641 0.954531 " transform="matrix(100,0,0,100,150,200)"/>
<path style="fill:none;stroke-width:0.01;stroke-linecap:butt;stroke-linejoin:miter;stroke:rgb(0%,0%,0%);stroke-opacity:1;stroke-miterlimit:10;" d="M 0.727266 0.946953 L 0.954531 0.431836 L 0.535352 0.0530469 L 0.0454687 0.335859 L 0.164141 0.888906 Z M 0.727266 0.946953 " transform="matrix(100,0,0,100,300,200)"/>
<path style="fill:none;stroke-width:0.01;stroke-linecap:butt;stroke-linejoin:miter;stroke:rgb(0%,0%,0%);stroke-opacity:1;stroke-miterlimit:10;" d="M 0.729648 0.893555 L 0.954531 0.498789 L 0.729648 0.106445 L 0.272734 0.106445 L 0.0454688 0.498789 L 0.272734 0.893555 Z M 0.729648 0.893555 " transform="matrix(100,0,0,100,450,200)"/>
<path style="fill:none;stroke-width:0.01;stroke-linecap:butt;stroke-linejoin:miter;stroke:rgb(0%,0%,0%);stroke-opacity:1;stroke-miterlimit:10;" d="M 0.728516 0.918906 L 0.954531 0.584766 L 0.836602 0.196563 L 0.458242 0.0491406 L 0.106875 0.250625 L 0.0454688 0.653555 L 0.323086 0.950859 Z M 0.728516 0.918906 " transform="matrix(100,0,0,100,600,200)"/>
<path style="fill:none;stroke-width:0.01;stroke-linecap:butt;stroke-linejoin:miter;stroke:rgb(0%,0%,0%);stroke-opacity:1;stroke-miterlimit:10;" d="M 0.739023 0.9075 L 0.954531 0.622617 L 0.9075 0.263438 L 0.625078 0.0454687 L 0.265898 0.0925 L 0.0454688 0.377383 L 0.0925 0.736562 L 0.379844 0.954531 Z M 0.739023 0.9075 " transform="matrix(100,0,0,100,0,350)"/>
<path style="fill:none;stroke-width:0.01;stroke-linecap:butt;stroke-linejoin:miter;stroke:rgb(0%,0%,0%);stroke-opacity:1;stroke-miterlimit:10;" d="M 0.747266 0.898789 L 0.946055 0.658789 L 0.946055 0.341211 L 0.747266 0.101211 L 0.434531 0.0454687 L 0.160625 0.203047 L 0.0539453 0.498789 L 0.160625 0.796953 L 0.434531 0.954531 Z M 0.747266 0.898789 " transform="matrix(100,0,0,100,150,350)"/>
<path style="fill:none;stroke-width:0.01;stroke-linecap:butt;stroke-linejoin:miter;stroke:rgb(0%,0%,0%);stroke-opacity:1;stroke-miterlimit:10;" d="M 0.730273 0.89457 L 0.914961 0.685898 L 0.946133 0.405234 L 0.807031 0.160586 L 0.547969 0.0454687 L 0.272109 0.10543 L 0.0826172 0.314102 L 0.0538672 0.594766 L 0.195352 0.839414 L 0.452031 0.954531 Z M 0.730273 0.89457 " transform="matrix(100,0,0,100,300,350)"/>
</g>
</svg>
