<?xml version="1.0" encoding="UTF-8"?>
<svg xmlns="http://www.w3.org/2000/svg" xmlns:xlink="http://www.w3.org/1999/xlink" width="750pt" height="2400pt" viewBox="0 0 750 2400" version="1.1">
<g id="surface1">
<path style="fill:none;stroke-width:0.01;stroke-linecap:butt;stroke-linejoin:miter;stroke:rgb(0%,0%,0%);stroke-opacity:1;stroke-miterlimit:10;" d="M 0.618398 0.702969 L 0.954531 0.622617 L 0.702969 0.381602 L 0.622617 0.0454687 L 0.381602 0.297031 L 0.0454688 0.377383 L 0.297031 0.618398 L 0.377383 0.954531 Z M 0.618398 0.702969 " transform="matrix(100,0,0,100,0,200)"/>
<path style="fill:none;stroke-width:0.01;stroke-linecap:butt;stroke-linejoin:miter;stroke:rgb(0%,0%,0%);stroke-opacity:1;stroke-miterlimit:10;" d="M 0.637109 0.67707 L 0.954531 0.664102 L 0.751562 0.420117 L 0.83793 0.111328 L 0.542109 0.230078 L 0.276523 0.0530078 L 0.295937 0.372617 L 0.0454687 0.569102 L 0.356406 0.648984 L 0.466523 0.946992 Z M 0.637109 0.67707 " transform="matrix(100,0,0,100,150,200)"/>
<path style="fill:none;stroke-width:0.01;stroke-linecap:butt;stroke-linejoin:miter;stroke:rgb(0%,0%,0%);stroke-opacity:1;stroke-miterlimit:10;" d="M 0.614141 0.695664 L 0.893398 0.72625 L 0.72625 0.5 L 0.893398 0.27375 L 0.614141 0.304336 L 0.5 0.0454687 L 0.385859 0.304336 L 0.106602 0.27375 L 0.27375 0.5 L 0.106602 0.72625 L 0.385859 0.695664 L 0.5 0.954531 Z M 0.614141 0.695664 " transform="matrix(100,0,0,100,300,200)"/>
<path style="fill:none;stroke-width:0.01;stroke-linecap:butt;stroke-linejoin:miter;stroke:rgb(0%,0%,0%);stroke-opacity:1;stroke-miterlimit:10;" d="M 0.624922 0.68582 L 0.893672 0.74668 L 0.738281 0.519961 L 0.954531 0.345703 L 0.679492 0.324688 L 0.677422 0.0496484 L 0.490547 0.251211 L 0.274297 0.0790625 L 0.31418 0.351992 L 0.0454688 0.414961 L 0.284805 0.553555 L 0.165117 0.801289 L 0.42125 0.702617 L 0.543047 0.950352 Z M 0.624922 0.68582 " transform="matrix(100,0,0,100,450,200)"/>
<path style="fill:none;stroke-width:0.01;stroke-linecap:butt;stroke-linejoin:miter;stroke:rgb(0%,0%,0%);stroke-opacity:1;stroke-miterlimit:10;" d="M 0.615195 0.697461 L 0.864063 0.777656 L 0.722148 0.559648 L 0.954531 0.440352 L 0.697461 0.384805 L 0.779727 0.135938 L 0.559648 0.277852 L 0.440352 0.0454687 L 0.384805 0.302539 L 0.135937 0.220273 L 0.277852 0.440352 L 0.0454688 0.559648 L 0.302539 0.615195 L 0.220273 0.864063 L 0.440352 0.720078 L 0.559648 0.954531 Z M 0.615195 0.697461 " transform="matrix(100,0,0,100,600,200)"/>
<path style="fill:none;stroke-width:0.01;stroke-linecap:butt;stroke-linejoin:miter;stroke:rgb(0%,0%,0%);stroke-opacity:1;stroke-miterlimit:10;" d="M 0.601719 0.699258 L 0.840391 0.796797 L 0.703398 0.578867 L 0.94832 0.5 L 0.703398 0.421133 L 0.840391 0.203203 L 0.601719 0.300742 L 0.566406 0.0454687 L 0.446055 0.27168 L 0.255078 0.0994141 L 0.309063 0.350547 L 0.0516797 0.342266 L 0.255078 0.5 L 0.0516797 0.657734 L 0.309063 0.647383 L 0.255078 0.900586 L 0.446055 0.72832 L 0.566406 0.954531 Z M 0.601719 0.699258 " transform="matrix(100,0,0,100,0,350)"/>
<path style="fill:none;stroke-width:0.01;stroke-linecap:butt;stroke-linejoin:miter;stroke:rgb(0%,0%,0%);stroke-opacity:1;stroke-miterlimit:10;" d="M 0.615195 0.697461 L 0.839375 0.806445 L 0.709805 0.592539 L 0.954531 0.547305 L 0.72418 0.452695 L 0.896953 0.27168 L 0.654258 0.329297 L 0.687148 0.0824609 L 0.524688 0.27168 L 0.405391 0.0516406 L 0.384805 0.302539 L 0.160625 0.193555 L 0.290195 0.407461 L 0.0454687 0.452695 L 0.27582 0.547305 L 0.103047 0.72832 L 0.347813 0.670703 L 0.312852 0.917539 L 0.475313 0.72832 L 0.594609 0.948359 Z M 0.615195 0.697461 " transform="matrix(100,0,0,100,150,350)"/>
</g>
</svg>
