<?xml version="1.0" encoding="UTF-8"?>
<svg xmlns="http://www.w3.org/2000/svg" xmlns:xlink="http://www.w3.org/1999/xlink" width="750pt" height="10800pt" viewBox="0 0 750 10800" version="1.1">
<g id="surface1">
<path style="fill:none;stroke-width:0.01;stroke-linecap:butt;stroke-linejoin:miter;stroke:rgb(0%,0%,0%);stroke-opacity:1;stroke-miterlimit:10;" d="M 0.552734 0.507266 L 0.578164 0.510898 L 0.585469 0.954531 L 0.421836 0.943633 L 0.414531 0.0454687 L 0.574531 0.0491016 L 0.574531 0.307266 L 0.556367 0.307266 Z M 0.552734 0.507266 " transform="matrix(100,0,0,100,0,200)"/>
<path style="fill:none;stroke-width:0.01;stroke-linecap:butt;stroke-linejoin:miter;stroke:rgb(0%,0%,0%);stroke-opacity:1;stroke-miterlimit:10;" d="M 0.629883 0.0454687 L 0.396094 0.0974219 L 0.370117 0.928555 L 0.629883 0.954531 L 0.57793 0.850664 Z M 0.629883 0.0454687 " transform="matrix(100,0,0,100,150,200)"/>
<path style="fill:none;stroke-width:0.01;stroke-linecap:butt;stroke-linejoin:miter;stroke:rgb(0%,0%,0%);stroke-opacity:1;stroke-miterlimit:10;" d="M 0.286094 0.0454687 L 0.713906 0.366328 L 0.713906 0.954531 L 0.286094 0.526719 Z M 0.286094 0.0454687 " transform="matrix(100,0,0,100,300,200)"/>
<path style="fill:none;stroke-width:0.01;stroke-linecap:butt;stroke-linejoin:miter;stroke:rgb(0%,0%,0%);stroke-opacity:1;stroke-miterlimit:10;" d="M 0.570352 0.294375 L 0.537891 0.954531 L 0.429648 0.770547 L 0.429648 0.0454687 L 0.50543 0.0562891 L 0.548711 0.0995703 L 0.51625 0.142852 L 0.49457 0.164492 L 0.548711 0.186133 L 0.570352 0.186133 Z M 0.570352 0.294375 " transform="matrix(100,0,0,100,450,200)"/>
<path style="fill:none;stroke-width:0.01;stroke-linecap:butt;stroke-linejoin:miter;stroke:rgb(0%,0%,0%);stroke-opacity:1;stroke-miterlimit:10;" d="M 0.420625 0.90043 L 0.528867 0.110391 L 0.554102 0.0454687 L 0.586563 0.0454687 L 0.51082 0.954531 L 0.413438 0.954531 Z M 0.420625 0.90043 " transform="matrix(100,0,0,100,600,200)"/>
<path style="fill:none;stroke-width:0.01;stroke-linecap:butt;stroke-linejoin:miter;stroke:rgb(0%,0%,0%);stroke-opacity:1;stroke-miterlimit:10;" d="M 0.406562 0.918594 L 0.41375 0.0454687 L 0.510781 0.0454687 L 0.507188 0.555703 L 0.593438 0.559297 L 0.597031 0.606016 L 0.5 0.598828 L 0.496406 0.954531 L 0.402969 0.954531 Z M 0.406562 0.918594 " transform="matrix(100,0,0,100,0,350)"/>
<path style="fill:none;stroke-width:0.01;stroke-linecap:butt;stroke-linejoin:miter;stroke:rgb(0%,0%,0%);stroke-opacity:1;stroke-miterlimit:10;" d="M 0.1925 0.19918 L 0.132344 0.954531 L 0.680469 0.941172 L 0.693867 0.874336 L 0.64707 0.847578 L 0.560156 0.840898 L 0.513359 0.827539 L 0.406406 0.81418 L 0.366328 0.81418 L 0.366328 0.693867 L 0.359609 0.212578 L 0.65375 0.212578 L 0.840898 0.219258 L 0.867656 0.219258 L 0.867656 0.19918 L 0.747344 0.18582 L 0.687148 0.18582 L 0.600273 0.145703 L 0.5 0.0922266 L 0.379687 0.0655078 L 0.359609 0.0454687 L 0.306133 0.0521484 Z M 0.1925 0.19918 " transform="matrix(100,0,0,100,150,350)"/>
<path style="fill:none;stroke-width:0.01;stroke-linecap:butt;stroke-linejoin:miter;stroke:rgb(0%,0%,0%);stroke-opacity:1;stroke-miterlimit:10;" d="M 0.792227 0.0454687 L 0.240273 0.0454687 L 0.207773 0.92207 L 0.792227 0.954531 Z M 0.792227 0.0454687 " transform="matrix(100,0,0,100,300,350)"/>
<path style="fill:none;stroke-width:0.01;stroke-linecap:butt;stroke-linejoin:miter;stroke:rgb(0%,0%,0%);stroke-opacity:1;stroke-miterlimit:10;" d="M 0.592344 0.0454687 L 0.464492 0.0880859 L 0.421875 0.144883 L 0.379258 0.230117 L 0.350859 0.372148 L 0.350859 0.5 L 0.365039 0.613633 L 0.407656 0.727266 L 0.450273 0.826719 L 0.563906 0.911914 L 0.634961 0.954531 L 0.649141 0.897734 L 0.620742 0.713086 L 0.620742 0.528398 L 0.606523 0.386367 L 0.620742 0.244336 L 0.620742 0.159102 Z M 0.592344 0.0454687 " transform="matrix(100,0,0,100,450,350)"/>
<path style="fill:none;stroke-width:0.01;stroke-linecap:butt;stroke-linejoin:miter;stroke:rgb(0%,0%,0%);stroke-opacity:1;stroke-miterlimit:10;" d="M 0.601016 0.0454687 L 0.466328 0.146445 L 0.398984 0.230625 L 0.331641 0.398984 L 0.331641 0.550508 L 0.365312 0.668359 L 0.449492 0.786211 L 0.5 0.887188 L 0.601016 0.954531 L 0.668359 0.954531 L 0.634688 0.601016 L 0.634688 0.247461 Z M 0.601016 0.0454687 " transform="matrix(100,0,0,100,600,350)"/>
<path style="fill:none;stroke-width:0.01;stroke-linecap:butt;stroke-linejoin:miter;stroke:rgb(0%,0%,0%);stroke-opacity:1;stroke-miterlimit:10;" d="M 0.508867 0.104492 L 0.561992 0.954531 L 0.60332 0.836484 L 0.567891 0.0454688 L 0.502969 0.0513672 L 0.526563 0.399648 L 0.39668 0.25207 L 0.520664 0.39375 L 0.544258 0.753828 L 0.432109 0.623984 L 0.544258 0.736133 L 0.538359 0.653477 L 0.438008 0.594453 L 0.538359 0.659375 L 0.508867 0.263867 L 0.402578 0.216641 L 0.508867 0.269766 Z M 0.508867 0.104492 " transform="matrix(100,0,0,100,0,500)"/>
<path style="fill:none;stroke-width:0.01;stroke-linecap:butt;stroke-linejoin:miter;stroke:rgb(0%,0%,0%);stroke-opacity:1;stroke-miterlimit:10;" d="M 0.459883 0.152422 L 0.549023 0.0454688 L 0.531211 0.954531 L 0.450977 0.883242 Z M 0.459883 0.152422 " transform="matrix(100,0,0,100,150,500)"/>
<path style="fill:none;stroke-width:0.01;stroke-linecap:butt;stroke-linejoin:miter;stroke:rgb(0%,0%,0%);stroke-opacity:1;stroke-miterlimit:10;" d="M 0.196953 0.106055 L 0.196953 0.772734 L 0.560625 0.954531 L 0.803047 0.954531 L 0.803047 0.0454688 Z M 0.196953 0.106055 " transform="matrix(100,0,0,100,300,500)"/>
<path style="fill:none;stroke-width:0.01;stroke-linecap:butt;stroke-linejoin:miter;stroke:rgb(0%,0%,0%);stroke-opacity:1;stroke-miterlimit:10;" d="M 0.222227 0.752539 L 0.222227 0.196953 L 0.62625 0.0454688 L 0.777773 0.0454688 L 0.777773 0.601016 L 0.525234 0.954531 Z M 0.222227 0.752539 " transform="matrix(100,0,0,100,450,500)"/>
<path style="fill:none;stroke-width:0.01;stroke-linecap:butt;stroke-linejoin:miter;stroke:rgb(0%,0%,0%);stroke-opacity:1;stroke-miterlimit:10;" d="M 0.536211 0.0454688 L 0.479883 0.150039 L 0.463789 0.954531 L 0.524141 0.954531 Z M 0.536211 0.0454688 " transform="matrix(100,0,0,100,600,500)"/>
<path style="fill:none;stroke-width:0.01;stroke-linecap:butt;stroke-linejoin:miter;stroke:rgb(0%,0%,0%);stroke-opacity:1;stroke-miterlimit:10;" d="M 0.314063 0.0454688 L 0.314063 0.541328 L 0.561992 0.954531 L 0.685937 0.954531 L 0.644609 0.293398 L 0.561992 0.0867578 Z M 0.314063 0.0454688 " transform="matrix(100,0,0,100,0,650)"/>
<path style="fill:none;stroke-width:0.01;stroke-linecap:butt;stroke-linejoin:miter;stroke:rgb(0%,0%,0%);stroke-opacity:1;stroke-miterlimit:10;" d="M 0.619883 0.0454688 L 0.480313 0.0454688 L 0.380117 0.954531 L 0.60918 0.954531 Z M 0.619883 0.0454688 " transform="matrix(100,0,0,100,150,650)"/>
<path style="fill:none;stroke-width:0.01;stroke-linecap:butt;stroke-linejoin:miter;stroke:rgb(0%,0%,0%);stroke-opacity:1;stroke-miterlimit:10;" d="M 0.613633 0.0454688 L 0.403828 0.0629297 L 0.386367 0.91957 L 0.613633 0.954531 Z M 0.613633 0.0454688 " transform="matrix(100,0,0,100,300,650)"/>
<path style="fill:none;stroke-width:0.01;stroke-linecap:butt;stroke-linejoin:miter;stroke:rgb(0%,0%,0%);stroke-opacity:1;stroke-miterlimit:10;" d="M 0.506094 0.0454688 L 0.485781 0.236211 L 0.497969 0.954531 L 0.514219 0.954531 L 0.510156 0.207773 Z M 0.506094 0.0454688 " transform="matrix(100,0,0,100,450,650)"/>
<path style="fill:none;stroke-width:0.01;stroke-linecap:butt;stroke-linejoin:miter;stroke:rgb(0%,0%,0%);stroke-opacity:1;stroke-miterlimit:10;" d="M 0.763164 0.0454688 L 0.236836 0.236836 L 0.284688 0.954531 L 0.763164 0.763164 Z M 0.763164 0.0454688 " transform="matrix(100,0,0,100,600,650)"/>
<path style="fill:none;stroke-width:0.01;stroke-linecap:butt;stroke-linejoin:miter;stroke:rgb(0%,0%,0%);stroke-opacity:1;stroke-miterlimit:10;" d="M 0.359102 0.0454687 L 0.422734 0.945469 L 0.640898 0.954531 L 0.622734 0.236367 Z M 0.359102 0.0454687 " transform="matrix(100,0,0,100,0,800)"/>
<path style="fill:none;stroke-width:0.01;stroke-linecap:butt;stroke-linejoin:miter;stroke:rgb(0%,0%,0%);stroke-opacity:1;stroke-miterlimit:10;" d="M 0.318164 0.181836 L 0.647734 0.0454687 L 0.704531 0.0568359 L 0.715898 0.795469 L 0.636367 0.806836 L 0.284102 0.954531 Z M 0.318164 0.181836 " transform="matrix(100,0,0,100,150,800)"/>
<path style="fill:none;stroke-width:0.01;stroke-linecap:butt;stroke-linejoin:miter;stroke:rgb(0%,0%,0%);stroke-opacity:1;stroke-miterlimit:10;" d="M 0.754531 0.863633 L 0.809102 0.0454687 L 0.227266 0.0636328 L 0.190898 0.954531 L 0.645469 0.9 Z M 0.754531 0.863633 " transform="matrix(100,0,0,100,300,800)"/>
<path style="fill:none;stroke-width:0.01;stroke-linecap:butt;stroke-linejoin:miter;stroke:rgb(0%,0%,0%);stroke-opacity:1;stroke-miterlimit:10;" d="M 0.803047 0.631328 L 0.843438 0.0454687 L 0.681836 0.0454687 L 0.196953 0.106055 L 0.156562 0.954531 L 0.681836 0.914141 L 0.803047 0.934336 Z M 0.803047 0.631328 " transform="matrix(100,0,0,100,450,800)"/>
<path style="fill:none;stroke-width:0.01;stroke-linecap:butt;stroke-linejoin:miter;stroke:rgb(0%,0%,0%);stroke-opacity:1;stroke-miterlimit:10;" d="M 0.722227 0.0656641 L 0.196953 0.0454687 L 0.156562 0.893945 L 0.681836 0.934336 L 0.803047 0.954531 L 0.843438 0.0858594 Z M 0.722227 0.0656641 " transform="matrix(100,0,0,100,600,800)"/>
<path style="fill:none;stroke-width:0.01;stroke-linecap:butt;stroke-linejoin:miter;stroke:rgb(0%,0%,0%);stroke-opacity:1;stroke-miterlimit:10;" d="M 0.644297 0.103164 L 0.283555 0.0454687 L 0.254688 0.839102 L 0.629883 0.940117 L 0.716445 0.954531 L 0.745313 0.132031 Z M 0.644297 0.103164 " transform="matrix(100,0,0,100,0,950)"/>
<path style="fill:none;stroke-width:0.01;stroke-linecap:butt;stroke-linejoin:miter;stroke:rgb(0%,0%,0%);stroke-opacity:1;stroke-miterlimit:10;" d="M 0.694805 0.193867 L 0.230977 0.0454687 L 0.193867 0.824687 L 0.67625 0.954531 L 0.787578 0.917422 L 0.806133 0.268086 Z M 0.694805 0.193867 " transform="matrix(100,0,0,100,150,950)"/>
<path style="fill:none;stroke-width:0.01;stroke-linecap:butt;stroke-linejoin:miter;stroke:rgb(0%,0%,0%);stroke-opacity:1;stroke-miterlimit:10;" d="M 0.348477 0.124023 L 0.326055 0.94332 L 0.617852 0.954531 L 0.662734 0.94332 L 0.673945 0.0566797 L 0.359727 0.0454687 Z M 0.348477 0.124023 " transform="matrix(100,0,0,100,300,950)"/>
<path style="fill:none;stroke-width:0.01;stroke-linecap:butt;stroke-linejoin:miter;stroke:rgb(0%,0%,0%);stroke-opacity:1;stroke-miterlimit:10;" d="M 0.236055 0.0454687 L 0.617305 0.104102 L 0.763945 0.104102 L 0.763945 0.954531 L 0.236055 0.954531 Z M 0.236055 0.0454687 " transform="matrix(100,0,0,100,450,950)"/>
<path style="fill:none;stroke-width:0.01;stroke-linecap:butt;stroke-linejoin:miter;stroke:rgb(0%,0%,0%);stroke-opacity:1;stroke-miterlimit:10;" d="M 0.233555 0.0454687 L 0.233555 0.891836 L 0.735117 0.954531 L 0.766445 0.0454687 Z M 0.233555 0.0454687 " transform="matrix(100,0,0,100,600,950)"/>
<path style="fill:none;stroke-width:0.01;stroke-linecap:butt;stroke-linejoin:miter;stroke:rgb(0%,0%,0%);stroke-opacity:1;stroke-miterlimit:10;" d="M 0.402578 0.337656 L 0.386367 0.954531 L 0.613633 0.613633 L 0.613633 0.0454687 Z M 0.402578 0.337656 " transform="matrix(100,0,0,100,0,1100)"/>
<path style="fill:none;stroke-width:0.01;stroke-linecap:butt;stroke-linejoin:miter;stroke:rgb(0%,0%,0%);stroke-opacity:1;stroke-miterlimit:10;" d="M 0.572734 0.945469 L 0.527266 0.945469 L 0.427266 0.954531 L 0.427266 0.109102 L 0.454531 0.109102 L 0.481836 0.0454687 L 0.572734 0.0727344 Z M 0.572734 0.945469 " transform="matrix(100,0,0,100,150,1100)"/>
<path style="fill:none;stroke-width:0.01;stroke-linecap:butt;stroke-linejoin:miter;stroke:rgb(0%,0%,0%);stroke-opacity:1;stroke-miterlimit:10;" d="M 0.278867 0.954531 L 0.585977 0.242031 L 0.671992 0.0454687 L 0.721133 0.0577344 L 0.401719 0.868555 L 0.352578 0.905391 Z M 0.278867 0.954531 " transform="matrix(100,0,0,100,300,1100)"/>
<path style="fill:none;stroke-width:0.01;stroke-linecap:butt;stroke-linejoin:miter;stroke:rgb(0%,0%,0%);stroke-opacity:1;stroke-miterlimit:10;" d="M 0.554102 0.0454687 L 0.445898 0.0454687 L 0.445898 0.954531 L 0.554102 0.954531 Z M 0.554102 0.0454687 " transform="matrix(100,0,0,100,450,1100)"/>
<path style="fill:none;stroke-width:0.01;stroke-linecap:butt;stroke-linejoin:miter;stroke:rgb(0%,0%,0%);stroke-opacity:1;stroke-miterlimit:10;" d="M 0.592344 0.116484 L 0.492891 0.116484 L 0.407656 0.0454687 L 0.393477 0.826719 L 0.492891 0.954531 L 0.606523 0.940352 Z M 0.592344 0.116484 " transform="matrix(100,0,0,100,600,1100)"/>
<path style="fill:none;stroke-width:0.01;stroke-linecap:butt;stroke-linejoin:miter;stroke:rgb(0%,0%,0%);stroke-opacity:1;stroke-miterlimit:10;" d="M 0.393047 0.954531 L 0.366328 0.179141 L 0.5 0.0454687 L 0.606953 0.0588281 L 0.633672 0.901055 L 0.580195 0.914453 Z M 0.393047 0.954531 " transform="matrix(100,0,0,100,0,1250)"/>
<path style="fill:none;stroke-width:0.01;stroke-linecap:butt;stroke-linejoin:miter;stroke:rgb(0%,0%,0%);stroke-opacity:1;stroke-miterlimit:10;" d="M 0.445 0.0454687 L 0.452344 0.903242 L 0.503672 0.939883 L 0.540313 0.954531 L 0.555 0.888555 L 0.547656 0.0674609 L 0.496328 0.0674609 Z M 0.445 0.0454687 " transform="matrix(100,0,0,100,150,1250)"/>
<path style="fill:none;stroke-width:0.01;stroke-linecap:butt;stroke-linejoin:miter;stroke:rgb(0%,0%,0%);stroke-opacity:1;stroke-miterlimit:10;" d="M 0.592461 0.0454687 L 0.407539 0.0454687 L 0.422969 0.677188 L 0.577031 0.954531 Z M 0.592461 0.0454687 " transform="matrix(100,0,0,100,300,1250)"/>
<path style="fill:none;stroke-width:0.01;stroke-linecap:butt;stroke-linejoin:miter;stroke:rgb(0%,0%,0%);stroke-opacity:1;stroke-miterlimit:10;" d="M 0.369023 0.0454687 L 0.369023 0.769648 L 0.523125 0.954531 L 0.615547 0.939141 L 0.630977 0.15332 L 0.523125 0.137891 L 0.430664 0.0608594 Z M 0.369023 0.0454687 " transform="matrix(100,0,0,100,450,1250)"/>
<path style="fill:none;stroke-width:0.01;stroke-linecap:butt;stroke-linejoin:miter;stroke:rgb(0%,0%,0%);stroke-opacity:1;stroke-miterlimit:10;" d="M 0.595703 0.0813281 L 0.535898 0.0813281 L 0.392344 0.0454687 L 0.404297 0.882773 L 0.523906 0.942578 L 0.607656 0.954531 Z M 0.595703 0.0813281 " transform="matrix(100,0,0,100,600,1250)"/>
<path style="fill:none;stroke-width:0.01;stroke-linecap:butt;stroke-linejoin:miter;stroke:rgb(0%,0%,0%);stroke-opacity:1;stroke-miterlimit:10;" d="M 0.367773 0.954531 L 0.54957 0.938008 L 0.698359 0.938008 L 0.698359 0.0454687 L 0.301641 0.0785156 Z M 0.367773 0.954531 " transform="matrix(100,0,0,100,0,1400)"/>
<path style="fill:none;stroke-width:0.01;stroke-linecap:butt;stroke-linejoin:miter;stroke:rgb(0%,0%,0%);stroke-opacity:1;stroke-miterlimit:10;" d="M 0.272734 0.0454687 L 0.33332 0.742422 L 0.651523 0.954531 L 0.727266 0.954531 L 0.712109 0.0454687 L 0.606055 0.060625 Z M 0.272734 0.0454687 " transform="matrix(100,0,0,100,150,1400)"/>
<path style="fill:none;stroke-width:0.01;stroke-linecap:butt;stroke-linejoin:miter;stroke:rgb(0%,0%,0%);stroke-opacity:1;stroke-miterlimit:10;" d="M 0.539336 0.0454687 L 0.504375 0.0804297 L 0.443164 0.115391 L 0.443164 0.325156 L 0.425703 0.333906 L 0.443164 0.692305 L 0.469414 0.692305 L 0.478164 0.884609 L 0.565547 0.93707 L 0.574297 0.954531 L 0.574297 0.902109 Z M 0.539336 0.0454687 " transform="matrix(100,0,0,100,300,1400)"/>
<path style="fill:none;stroke-width:0.01;stroke-linecap:butt;stroke-linejoin:miter;stroke:rgb(0%,0%,0%);stroke-opacity:1;stroke-miterlimit:10;" d="M 0.806836 0.0454687 L 0.738633 0.0454687 L 0.125 0.295469 L 0.170469 0.727266 L 0.784102 0.954531 L 0.875 0.954531 L 0.852266 0.795469 L 0.829531 0.545469 L 0.806836 0.386367 Z M 0.806836 0.0454687 " transform="matrix(100,0,0,100,450,1400)"/>
<path style="fill:none;stroke-width:0.01;stroke-linecap:butt;stroke-linejoin:miter;stroke:rgb(0%,0%,0%);stroke-opacity:1;stroke-miterlimit:10;" d="M 0.356445 0.0454687 L 0.691406 0.332539 L 0.691406 0.954531 L 0.308594 0.667461 Z M 0.356445 0.0454687 " transform="matrix(100,0,0,100,600,1400)"/>
<path style="fill:none;stroke-width:0.01;stroke-linecap:butt;stroke-linejoin:miter;stroke:rgb(0%,0%,0%);stroke-opacity:1;stroke-miterlimit:10;" d="M 0.704531 0.0530469 L 0.515156 0.0454687 L 0.439375 0.0908984 L 0.386367 0.181836 L 0.356055 0.234844 L 0.340898 0.356055 L 0.318164 0.484844 L 0.310625 0.590898 L 0.295469 0.659102 L 0.295469 0.727266 L 0.318164 0.795469 L 0.363633 0.856055 L 0.446953 0.909102 L 0.507578 0.939375 L 0.598477 0.954531 L 0.628789 0.954531 L 0.621211 0.507578 Z M 0.704531 0.0530469 " transform="matrix(100,0,0,100,0,1550)"/>
<path style="fill:none;stroke-width:0.01;stroke-linecap:butt;stroke-linejoin:miter;stroke:rgb(0%,0%,0%);stroke-opacity:1;stroke-miterlimit:10;" d="M 0.495391 0.155664 L 0.633164 0.0454687 L 0.522969 0.945352 L 0.366836 0.954531 Z M 0.495391 0.155664 " transform="matrix(100,0,0,100,150,1550)"/>
<path style="fill:none;stroke-width:0.01;stroke-linecap:butt;stroke-linejoin:miter;stroke:rgb(0%,0%,0%);stroke-opacity:1;stroke-miterlimit:10;" d="M 0.288945 0.240273 L 0.51625 0.0454687 L 0.711055 0.532461 L 0.321445 0.954531 Z M 0.288945 0.240273 " transform="matrix(100,0,0,100,300,1550)"/>
<path style="fill:none;stroke-width:0.01;stroke-linecap:butt;stroke-linejoin:miter;stroke:rgb(0%,0%,0%);stroke-opacity:1;stroke-miterlimit:10;" d="M 0.292227 0.227266 L 0.655859 0.0454687 L 0.759727 0.0454687 L 0.759727 0.824687 L 0.655859 0.824687 L 0.42207 0.954531 L 0.240273 0.928555 Z M 0.292227 0.227266 " transform="matrix(100,0,0,100,450,1550)"/>
<path style="fill:none;stroke-width:0.01;stroke-linecap:butt;stroke-linejoin:miter;stroke:rgb(0%,0%,0%);stroke-opacity:1;stroke-miterlimit:10;" d="M 0.759727 0.104961 L 0.954531 0.52707 L 0.954531 0.873359 L 0.92207 0.895039 L 0.0454688 0.11582 Z M 0.759727 0.104961 " transform="matrix(100,0,0,100,600,1550)"/>
<path style="fill:none;stroke-width:0.01;stroke-linecap:butt;stroke-linejoin:miter;stroke:rgb(0%,0%,0%);stroke-opacity:1;stroke-miterlimit:10;" d="M 0.338047 0.839609 L 0.609727 0.0558984 L 0.661953 0.0454688 L 0.672422 0.473867 L 0.578359 0.756016 L 0.557461 0.954531 L 0.327578 0.954531 Z M 0.338047 0.839609 " transform="matrix(100,0,0,100,0,1700)"/>
<path style="fill:none;stroke-width:0.01;stroke-linecap:butt;stroke-linejoin:miter;stroke:rgb(0%,0%,0%);stroke-opacity:1;stroke-miterlimit:10;" d="M 0.452852 0.954531 L 0.392266 0.954531 L 0.37207 0.671719 L 0.58082 0.0454688 L 0.62793 0.0521875 L 0.621211 0.402344 Z M 0.452852 0.954531 " transform="matrix(100,0,0,100,150,1700)"/>
<path style="fill:none;stroke-width:0.01;stroke-linecap:butt;stroke-linejoin:miter;stroke:rgb(0%,0%,0%);stroke-opacity:1;stroke-miterlimit:10;" d="M 0.511953 0.0454688 L 0.368438 0.069375 L 0.41625 0.667461 L 0.488047 0.954531 L 0.631563 0.930625 L 0.535898 0.571758 Z M 0.511953 0.0454688 " transform="matrix(100,0,0,100,300,1700)"/>
<path style="fill:none;stroke-width:0.01;stroke-linecap:butt;stroke-linejoin:miter;stroke:rgb(0%,0%,0%);stroke-opacity:1;stroke-miterlimit:10;" d="M 0.353359 0.456016 L 0.382695 0.162773 L 0.5 0.0454688 L 0.646641 0.0747656 L 0.617305 0.221406 L 0.587969 0.895898 L 0.470664 0.954531 L 0.353359 0.837227 Z M 0.353359 0.456016 " transform="matrix(100,0,0,100,450,1700)"/>
<path style="fill:none;stroke-width:0.01;stroke-linecap:butt;stroke-linejoin:miter;stroke:rgb(0%,0%,0%);stroke-opacity:1;stroke-miterlimit:10;" d="M 0.618594 0.835977 L 0.381406 0.954531 L 0.381406 0.361641 L 0.618594 0.0454688 Z M 0.618594 0.835977 " transform="matrix(100,0,0,100,600,1700)"/>
<path style="fill:none;stroke-width:0.01;stroke-linecap:butt;stroke-linejoin:miter;stroke:rgb(0%,0%,0%);stroke-opacity:1;stroke-miterlimit:10;" d="M 0.619609 0.882773 L 0.0454688 0.834922 L 0.0454688 0.595703 L 0.236836 0.21293 L 0.476094 0.117227 L 0.667461 0.117227 L 0.90668 0.069375 L 0.954531 0.356445 L 0.90668 0.78707 L 0.763164 0.930625 Z M 0.619609 0.882773 " transform="matrix(100,0,0,100,0,1850)"/>
<path style="fill:none;stroke-width:0.01;stroke-linecap:butt;stroke-linejoin:miter;stroke:rgb(0%,0%,0%);stroke-opacity:1;stroke-miterlimit:10;" d="M 0.822969 0.380391 L 0.894727 0.930625 L 0.655508 0.954531 L 0.41625 0.858867 L 0.248789 0.643555 L 0.105273 0.0454688 L 0.822969 0.0454688 L 0.846875 0.260781 Z M 0.822969 0.380391 " transform="matrix(100,0,0,100,150,1850)"/>
<path style="fill:none;stroke-width:0.01;stroke-linecap:butt;stroke-linejoin:miter;stroke:rgb(0%,0%,0%);stroke-opacity:1;stroke-miterlimit:10;" d="M 0.344492 0.954531 L 0.41625 0.308594 L 0.655508 0.0454688 L 0.631563 0.667461 Z M 0.344492 0.954531 " transform="matrix(100,0,0,100,300,1850)"/>
<path style="fill:none;stroke-width:0.01;stroke-linecap:butt;stroke-linejoin:miter;stroke:rgb(0%,0%,0%);stroke-opacity:1;stroke-miterlimit:10;" d="M 0.363633 0.954531 L 0.454531 0.396094 L 0.636367 0.0454688 L 0.636367 0.487031 L 0.545469 0.487031 Z M 0.363633 0.954531 " transform="matrix(100,0,0,100,450,1850)"/>
<path style="fill:none;stroke-width:0.01;stroke-linecap:butt;stroke-linejoin:miter;stroke:rgb(0%,0%,0%);stroke-opacity:1;stroke-miterlimit:10;" d="M 0.626836 0.658555 L 0.690273 0.0454688 L 0.563438 0.0877344 L 0.330859 0.595156 L 0.309727 0.954531 L 0.5 0.595156 Z M 0.626836 0.658555 " transform="matrix(100,0,0,100,600,1850)"/>
<path style="fill:none;stroke-width:0.01;stroke-linecap:butt;stroke-linejoin:miter;stroke:rgb(0%,0%,0%);stroke-opacity:1;stroke-miterlimit:10;" d="M 0.694805 0.261914 L 0.608242 0.0454688 L 0.218633 0.0454688 L 0.406211 0.853555 L 0.478359 0.882383 L 0.564922 0.925703 L 0.63707 0.940117 L 0.738086 0.954531 L 0.781367 0.940117 Z M 0.694805 0.261914 " transform="matrix(100,0,0,100,0,2000)"/>
<path style="fill:none;stroke-width:0.01;stroke-linecap:butt;stroke-linejoin:miter;stroke:rgb(0%,0%,0%);stroke-opacity:1;stroke-miterlimit:10;" d="M 0.548711 0.451289 L 0.711055 0.564922 L 0.743516 0.93832 L 0.646094 0.954531 L 0.321445 0.435078 L 0.256484 0.0454688 L 0.451289 0.159102 Z M 0.548711 0.451289 " transform="matrix(100,0,0,100,150,2000)"/>
<path style="fill:none;stroke-width:0.01;stroke-linecap:butt;stroke-linejoin:miter;stroke:rgb(0%,0%,0%);stroke-opacity:1;stroke-miterlimit:10;" d="M 0.729727 0.0454688 L 0.680859 0.0454688 L 0.377813 0.612422 L 0.270273 0.954531 L 0.504883 0.954531 L 0.543984 0.827461 L 0.622187 0.817695 Z M 0.729727 0.0454688 " transform="matrix(100,0,0,100,300,2000)"/>
<path style="fill:none;stroke-width:0.01;stroke-linecap:butt;stroke-linejoin:miter;stroke:rgb(0%,0%,0%);stroke-opacity:1;stroke-miterlimit:10;" d="M 0.704531 0.409102 L 0.704531 0.0454688 L 0.204531 0.0454688 L 0.431836 0.727266 L 0.704531 0.954531 L 0.795469 0.909102 Z M 0.704531 0.409102 " transform="matrix(100,0,0,100,450,2000)"/>
<path style="fill:none;stroke-width:0.01;stroke-linecap:butt;stroke-linejoin:miter;stroke:rgb(0%,0%,0%);stroke-opacity:1;stroke-miterlimit:10;" d="M 0.673555 0.0454688 L 0.409102 0.442148 L 0.243789 0.954531 L 0.640508 0.954531 L 0.541328 0.706602 L 0.590898 0.690078 L 0.756211 0.111563 Z M 0.673555 0.0454688 " transform="matrix(100,0,0,100,600,2000)"/>
<path style="fill:none;stroke-width:0.01;stroke-linecap:butt;stroke-linejoin:miter;stroke:rgb(0%,0%,0%);stroke-opacity:1;stroke-miterlimit:10;" d="M 0.847578 0.0989453 L 0.0989453 0.0454688 L 0.580195 0.794102 L 0.687148 0.901055 L 0.794102 0.954531 L 0.901055 0.740625 L 0.901055 0.312852 Z M 0.847578 0.0989453 " transform="matrix(100,0,0,100,0,2150)"/>
<path style="fill:none;stroke-width:0.01;stroke-linecap:butt;stroke-linejoin:miter;stroke:rgb(0%,0%,0%);stroke-opacity:1;stroke-miterlimit:10;" d="M 0.762227 0.0454688 L 0.237773 0.0454688 L 0.377617 0.569922 L 0.587422 0.954531 L 0.692305 0.954531 L 0.692305 0.604883 Z M 0.762227 0.0454688 " transform="matrix(100,0,0,100,150,2150)"/>
<path style="fill:none;stroke-width:0.01;stroke-linecap:butt;stroke-linejoin:miter;stroke:rgb(0%,0%,0%);stroke-opacity:1;stroke-miterlimit:10;" d="M 0.803047 0.178047 L 0.840898 0.91668 L 0.70832 0.954531 L 0.310625 0.651523 L 0.159102 0.0454688 L 0.765156 0.0454688 Z M 0.803047 0.178047 " transform="matrix(100,0,0,100,300,2150)"/>
<path style="fill:none;stroke-width:0.01;stroke-linecap:butt;stroke-linejoin:miter;stroke:rgb(0%,0%,0%);stroke-opacity:1;stroke-miterlimit:10;" d="M 0.681836 0.0454688 L 0.318164 0.0454688 L 0.318164 0.545469 L 0.363633 0.909102 L 0.590898 0.954531 L 0.681836 0.227266 Z M 0.681836 0.0454688 " transform="matrix(100,0,0,100,450,2150)"/>
<path style="fill:none;stroke-width:0.01;stroke-linecap:butt;stroke-linejoin:miter;stroke:rgb(0%,0%,0%);stroke-opacity:1;stroke-miterlimit:10;" d="M 0.651523 0.954531 L 0.550508 0.920859 L 0.382148 0.819883 L 0.348477 0.112813 L 0.382148 0.0454688 L 0.651523 0.0454688 Z M 0.651523 0.954531 " transform="matrix(100,0,0,100,600,2150)"/>
<path style="fill:none;stroke-width:0.01;stroke-linecap:butt;stroke-linejoin:miter;stroke:rgb(0%,0%,0%);stroke-opacity:1;stroke-miterlimit:10;" d="M 0.765859 0.0454688 L 0.662969 0.0454688 L 0.457109 0.131211 L 0.234141 0.645781 L 0.234141 0.954531 L 0.628633 0.937383 L 0.611484 0.560039 Z M 0.765859 0.0454688 " transform="matrix(100,0,0,100,0,2300)"/>
<path style="fill:none;stroke-width:0.01;stroke-linecap:butt;stroke-linejoin:miter;stroke:rgb(0%,0%,0%);stroke-opacity:1;stroke-miterlimit:10;" d="M 0.635117 0.0454688 L 0.291172 0.0700391 L 0.291172 0.389453 L 0.438594 0.929961 L 0.708828 0.954531 L 0.585977 0.340312 Z M 0.635117 0.0454688 " transform="matrix(100,0,0,100,150,2300)"/>
<path style="fill:none;stroke-width:0.01;stroke-linecap:butt;stroke-linejoin:miter;stroke:rgb(0%,0%,0%);stroke-opacity:1;stroke-miterlimit:10;" d="M 0.619063 0.0454688 L 0.316016 0.132031 L 0.402578 0.738086 L 0.48918 0.954531 L 0.683984 0.954531 L 0.662344 0.608242 Z M 0.619063 0.0454688 " transform="matrix(100,0,0,100,300,2300)"/>
<path style="fill:none;stroke-width:0.01;stroke-linecap:butt;stroke-linejoin:miter;stroke:rgb(0%,0%,0%);stroke-opacity:1;stroke-miterlimit:10;" d="M 0.765156 0.765156 L 0.765156 0.0454688 L 0.234844 0.0833203 L 0.234844 0.348477 L 0.386367 0.727266 L 0.613633 0.91668 L 0.765156 0.954531 Z M 0.765156 0.765156 " transform="matrix(100,0,0,100,450,2300)"/>
<path style="fill:none;stroke-width:0.01;stroke-linecap:butt;stroke-linejoin:miter;stroke:rgb(0%,0%,0%);stroke-opacity:1;stroke-miterlimit:10;" d="M 0.739883 0.5 L 0.765156 0.954531 L 0.234844 0.954531 L 0.234844 0.702031 L 0.487383 0.222227 L 0.765156 0.0454688 Z M 0.739883 0.5 " transform="matrix(100,0,0,100,600,2300)"/>
<path style="fill:none;stroke-width:0.01;stroke-linecap:butt;stroke-linejoin:miter;stroke:rgb(0%,0%,0%);stroke-opacity:1;stroke-miterlimit:10;" d="M 0.694805 0.954531 L 0.175313 0.867969 L 0.218633 0.651523 L 0.435078 0.218633 L 0.824688 0.0454688 L 0.738086 0.391758 L 0.738086 0.608242 Z M 0.694805 0.954531 " transform="matrix(100,0,0,100,0,2450)"/>
<path style="fill:none;stroke-width:0.01;stroke-linecap:butt;stroke-linejoin:miter;stroke:rgb(0%,0%,0%);stroke-opacity:1;stroke-miterlimit:10;" d="M 0.654375 0.268438 L 0.620078 0.0454688 L 0.328477 0.131211 L 0.39707 0.611484 L 0.568594 0.954531 L 0.671523 0.954531 L 0.671523 0.594336 Z M 0.654375 0.268438 " transform="matrix(100,0,0,100,150,2450)"/>
<path style="fill:none;stroke-width:0.01;stroke-linecap:butt;stroke-linejoin:miter;stroke:rgb(0%,0%,0%);stroke-opacity:1;stroke-miterlimit:10;" d="M 0.670469 0.897734 L 0.102266 0.897734 L 0.102266 0.670469 L 0.613633 0.0454688 L 0.840898 0.272734 L 0.897734 0.670469 L 0.897734 0.954531 Z M 0.670469 0.897734 " transform="matrix(100,0,0,100,300,2450)"/>
<path style="fill:none;stroke-width:0.01;stroke-linecap:butt;stroke-linejoin:miter;stroke:rgb(0%,0%,0%);stroke-opacity:1;stroke-miterlimit:10;" d="M 0.709805 0.884609 L 0.127031 0.884609 L 0.127031 0.465039 L 0.290195 0.0920703 L 0.686484 0.0454688 L 0.663164 0.348477 L 0.709805 0.534961 L 0.872969 0.698125 L 0.826328 0.954531 Z M 0.709805 0.884609 " transform="matrix(100,0,0,100,450,2450)"/>
<path style="fill:none;stroke-width:0.01;stroke-linecap:butt;stroke-linejoin:miter;stroke:rgb(0%,0%,0%);stroke-opacity:1;stroke-miterlimit:10;" d="M 0.348477 0.348477 L 0.651523 0.0454688 L 0.772734 0.106055 L 0.742422 0.530313 L 0.621211 0.560625 L 0.227266 0.954531 Z M 0.348477 0.348477 " transform="matrix(100,0,0,100,600,2450)"/>
<path style="fill:none;stroke-width:0.01;stroke-linecap:butt;stroke-linejoin:miter;stroke:rgb(0%,0%,0%);stroke-opacity:1;stroke-miterlimit:10;" d="M 0.318164 0.954531 L 0.386367 0.181836 L 0.568164 0.0454688 L 0.681836 0.0454688 L 0.636367 0.863633 L 0.545469 0.863633 Z M 0.318164 0.954531 " transform="matrix(100,0,0,100,0,2600)"/>
<path style="fill:none;stroke-width:0.01;stroke-linecap:butt;stroke-linejoin:miter;stroke:rgb(0%,0%,0%);stroke-opacity:1;stroke-miterlimit:10;" d="M 0.654531 0.0454688 L 0.290898 0.0636328 L 0.381836 0.590898 L 0.545469 0.954531 L 0.709102 0.954531 L 0.654531 0.481836 Z M 0.654531 0.0454688 " transform="matrix(100,0,0,100,150,2600)"/>
<path style="fill:none;stroke-width:0.01;stroke-linecap:butt;stroke-linejoin:miter;stroke:rgb(0%,0%,0%);stroke-opacity:1;stroke-miterlimit:10;" d="M 0.563906 0.684648 L 0.464492 0.954531 L 0.265625 0.940352 L 0.521289 0.301133 L 0.734375 0.0454688 L 0.691758 0.244336 Z M 0.563906 0.684648 " transform="matrix(100,0,0,100,300,2600)"/>
<path style="fill:none;stroke-width:0.01;stroke-linecap:butt;stroke-linejoin:miter;stroke:rgb(0%,0%,0%);stroke-opacity:1;stroke-miterlimit:10;" d="M 0.719453 0.0454688 L 0.280547 0.0767969 L 0.374609 0.641055 L 0.437305 0.891836 L 0.688086 0.954531 L 0.719453 0.923203 L 0.719453 0.170859 Z M 0.719453 0.0454688 " transform="matrix(100,0,0,100,450,2600)"/>
<path style="fill:none;stroke-width:0.01;stroke-linecap:butt;stroke-linejoin:miter;stroke:rgb(0%,0%,0%);stroke-opacity:1;stroke-miterlimit:10;" d="M 0.411602 0.0454688 L 0.361094 0.878789 L 0.563125 0.954531 L 0.638906 0.146445 Z M 0.411602 0.0454688 " transform="matrix(100,0,0,100,600,2600)"/>
<path style="fill:none;stroke-width:0.01;stroke-linecap:butt;stroke-linejoin:miter;stroke:rgb(0%,0%,0%);stroke-opacity:1;stroke-miterlimit:10;" d="M 0.340898 0.0908984 L 0.340898 0.545469 L 0.431836 0.954531 L 0.659102 0.924258 L 0.598477 0.560625 L 0.553047 0.0454688 L 0.356055 0.0454688 Z M 0.340898 0.0908984 " transform="matrix(100,0,0,100,0,2750)"/>
<path style="fill:none;stroke-width:0.01;stroke-linecap:butt;stroke-linejoin:miter;stroke:rgb(0%,0%,0%);stroke-opacity:1;stroke-miterlimit:10;" d="M 0.531992 0.0454688 L 0.468008 0.211914 L 0.468008 0.788086 L 0.531992 0.954531 L 0.519219 0.7625 L 0.519219 0.199102 Z M 0.531992 0.0454688 " transform="matrix(100,0,0,100,150,2750)"/>
<path style="fill:none;stroke-width:0.01;stroke-linecap:butt;stroke-linejoin:miter;stroke:rgb(0%,0%,0%);stroke-opacity:1;stroke-miterlimit:10;" d="M 0.884609 0.814688 L 0.849648 0.0454688 L 0.115391 0.0454688 L 0.115391 0.220273 L 0.255234 0.465039 L 0.709805 0.954531 Z M 0.884609 0.814688 " transform="matrix(100,0,0,100,300,2750)"/>
<path style="fill:none;stroke-width:0.01;stroke-linecap:butt;stroke-linejoin:miter;stroke:rgb(0%,0%,0%);stroke-opacity:1;stroke-miterlimit:10;" d="M 0.635117 0.954531 L 0.340313 0.954531 L 0.340313 0.536836 L 0.585977 0.0454688 L 0.659688 0.708828 Z M 0.635117 0.954531 " transform="matrix(100,0,0,100,450,2750)"/>
<path style="fill:none;stroke-width:0.01;stroke-linecap:butt;stroke-linejoin:miter;stroke:rgb(0%,0%,0%);stroke-opacity:1;stroke-miterlimit:10;" d="M 0.865859 0.888008 L 0.821523 0.488906 L 0.621953 0.178477 L 0.621953 0.0454688 L 0.134141 0.0454688 L 0.200664 0.355859 L 0.777148 0.954531 Z M 0.865859 0.888008 " transform="matrix(100,0,0,100,600,2750)"/>
<path style="fill:none;stroke-width:0.01;stroke-linecap:butt;stroke-linejoin:miter;stroke:rgb(0%,0%,0%);stroke-opacity:1;stroke-miterlimit:10;" d="M 0.666094 0.220273 L 0.736016 0.954531 L 0.596172 0.91957 L 0.473789 0.639844 L 0.386367 0.534961 L 0.298945 0.307695 L 0.263984 0.132852 L 0.316445 0.0629297 L 0.613633 0.0454688 L 0.578672 0.185313 Z M 0.666094 0.220273 " transform="matrix(100,0,0,100,0,2900)"/>
<path style="fill:none;stroke-width:0.01;stroke-linecap:butt;stroke-linejoin:miter;stroke:rgb(0%,0%,0%);stroke-opacity:1;stroke-miterlimit:10;" d="M 0.625391 0.954531 L 0.327578 0.813477 L 0.358945 0.233555 L 0.452969 0.202188 L 0.515664 0.123828 L 0.531367 0.0454688 L 0.625391 0.0454688 L 0.672422 0.0924609 L 0.656758 0.609727 Z M 0.625391 0.954531 " transform="matrix(100,0,0,100,150,2900)"/>
<path style="fill:none;stroke-width:0.01;stroke-linecap:butt;stroke-linejoin:miter;stroke:rgb(0%,0%,0%);stroke-opacity:1;stroke-miterlimit:10;" d="M 0.573984 0.679688 L 0.616289 0.954531 L 0.404844 0.954531 L 0.383711 0.108867 L 0.531719 0.0454688 Z M 0.573984 0.679688 " transform="matrix(100,0,0,100,300,2900)"/>
<path style="fill:none;stroke-width:0.01;stroke-linecap:butt;stroke-linejoin:miter;stroke:rgb(0%,0%,0%);stroke-opacity:1;stroke-miterlimit:10;" d="M 0.575742 0.791367 L 0.237773 0.954531 L 0.272734 0.196953 L 0.552461 0.0454688 L 0.703945 0.0454688 L 0.727266 0.115391 L 0.703945 0.150352 L 0.692305 0.150352 L 0.715625 0.185313 L 0.738945 0.196953 L 0.750586 0.243594 L 0.715625 0.301875 L 0.703945 0.301875 L 0.727266 0.325156 L 0.750586 0.348477 L 0.750586 0.395117 L 0.727266 0.406758 L 0.703945 0.406758 L 0.703945 0.418398 L 0.727266 0.453398 L 0.738945 0.453398 L 0.750586 0.47668 L 0.762227 0.52332 L 0.727266 0.546602 L 0.715625 0.546602 L 0.738945 0.593242 L 0.750586 0.593242 L 0.762227 0.628203 L 0.727266 0.663164 L 0.703945 0.698125 L 0.727266 0.709805 L 0.738945 0.744766 Z M 0.575742 0.791367 " transform="matrix(100,0,0,100,450,2900)"/>
<path style="fill:none;stroke-width:0.01;stroke-linecap:butt;stroke-linejoin:miter;stroke:rgb(0%,0%,0%);stroke-opacity:1;stroke-miterlimit:10;" d="M 0.185313 0.628203 L 0.185313 0.534961 L 0.301875 0.301875 L 0.441719 0.208633 L 0.604883 0.0920703 L 0.744766 0.0454688 L 0.791367 0.0454688 L 0.768047 0.115391 L 0.791367 0.161992 L 0.744766 0.231953 L 0.768047 0.278555 L 0.791367 0.348477 L 0.721445 0.371797 L 0.768047 0.465039 L 0.791367 0.511641 L 0.744766 0.558281 L 0.791367 0.628203 L 0.814687 0.698125 L 0.744766 0.744766 L 0.791367 0.861289 L 0.768047 0.93125 L 0.651523 0.954531 L 0.511641 0.90793 L 0.395117 0.884609 L 0.301875 0.838008 L 0.255234 0.791367 L 0.208633 0.768047 Z M 0.185313 0.628203 " transform="matrix(100,0,0,100,600,2900)"/>
<path style="fill:none;stroke-width:0.01;stroke-linecap:butt;stroke-linejoin:miter;stroke:rgb(0%,0%,0%);stroke-opacity:1;stroke-miterlimit:10;" d="M 0.638359 0.0454688 L 0.460469 0.0849609 L 0.282617 0.203555 L 0.302383 0.875508 L 0.381406 0.954531 L 0.717383 0.954531 L 0.677852 0.796445 Z M 0.638359 0.0454688 " transform="matrix(100,0,0,100,0,3050)"/>
<path style="fill:none;stroke-width:0.01;stroke-linecap:butt;stroke-linejoin:miter;stroke:rgb(0%,0%,0%);stroke-opacity:1;stroke-miterlimit:10;" d="M 0.272734 0.175313 L 0.294375 0.91125 L 0.359297 0.954531 L 0.727266 0.954531 L 0.662344 0.91125 L 0.727266 0.846328 L 0.705625 0.0454688 L 0.467539 0.0671094 Z M 0.272734 0.175313 " transform="matrix(100,0,0,100,150,3050)"/>
<path style="fill:none;stroke-width:0.01;stroke-linecap:butt;stroke-linejoin:miter;stroke:rgb(0%,0%,0%);stroke-opacity:1;stroke-miterlimit:10;" d="M 0.844844 0.923203 L 0.311914 0.954531 L 0.186523 0.860508 L 0.155156 0.0454688 L 0.562695 0.0454688 L 0.625391 0.578359 L 0.719453 0.70375 L 0.688086 0.797812 Z M 0.844844 0.923203 " transform="matrix(100,0,0,100,300,3050)"/>
<path style="fill:none;stroke-width:0.01;stroke-linecap:butt;stroke-linejoin:miter;stroke:rgb(0%,0%,0%);stroke-opacity:1;stroke-miterlimit:10;" d="M 0.705273 0.954531 L 0.485352 0.954531 L 0.265391 0.910547 L 0.265391 0.0747656 L 0.734609 0.0454688 Z M 0.705273 0.954531 " transform="matrix(100,0,0,100,450,3050)"/>
<path style="fill:none;stroke-width:0.01;stroke-linecap:butt;stroke-linejoin:miter;stroke:rgb(0%,0%,0%);stroke-opacity:1;stroke-miterlimit:10;" d="M 0.437148 0.0454688 L 0.272734 0.151836 L 0.263047 0.809492 L 0.359766 0.896523 L 0.446797 0.954531 L 0.533867 0.954531 L 0.601562 0.8675 L 0.669258 0.770781 L 0.727266 0.654727 L 0.736953 0.567695 L 0.736953 0.374258 L 0.717617 0.296914 L 0.678906 0.238867 L 0.640234 0.180859 L 0.562852 0.0938281 L 0.504844 0.0648047 Z M 0.437148 0.0454688 " transform="matrix(100,0,0,100,600,3050)"/>
<path style="fill:none;stroke-width:0.01;stroke-linecap:butt;stroke-linejoin:miter;stroke:rgb(0%,0%,0%);stroke-opacity:1;stroke-miterlimit:10;" d="M 0.44793 0.0454687 L 0.286914 0.149609 L 0.258516 0.8125 L 0.324805 0.888242 L 0.400586 0.935625 L 0.466875 0.954531 L 0.561562 0.907187 L 0.665703 0.793555 L 0.741484 0.594687 L 0.741484 0.405313 L 0.722539 0.282187 L 0.675195 0.1875 L 0.589961 0.0928125 L 0.533125 0.0549219 Z M 0.44793 0.0454687 " transform="matrix(100,0,0,100,0,3200)"/>
<path style="fill:none;stroke-width:0.01;stroke-linecap:butt;stroke-linejoin:miter;stroke:rgb(0%,0%,0%);stroke-opacity:1;stroke-miterlimit:10;" d="M 0.258828 0.138203 L 0.221719 0.917422 L 0.704063 0.954531 L 0.778281 0.898906 L 0.741172 0.806133 L 0.778281 0.0454687 L 0.537109 0.0640234 L 0.407227 0.119648 Z M 0.258828 0.138203 " transform="matrix(100,0,0,100,150,3200)"/>
<path style="fill:none;stroke-width:0.01;stroke-linecap:butt;stroke-linejoin:miter;stroke:rgb(0%,0%,0%);stroke-opacity:1;stroke-miterlimit:10;" d="M 0.617148 0.598398 L 0.410977 0.84207 L 0.317227 0.954531 L 0.467188 0.0454687 L 0.682773 0.0454687 Z M 0.617148 0.598398 " transform="matrix(100,0,0,100,300,3200)"/>
<path style="fill:none;stroke-width:0.01;stroke-linecap:butt;stroke-linejoin:miter;stroke:rgb(0%,0%,0%);stroke-opacity:1;stroke-miterlimit:10;" d="M 0.536836 0.83168 L 0.352578 0.954531 L 0.450859 0.229727 L 0.647422 0.0454687 L 0.561406 0.794844 L 0.555273 0.800977 Z M 0.536836 0.83168 " transform="matrix(100,0,0,100,450,3200)"/>
<path style="fill:none;stroke-width:0.01;stroke-linecap:butt;stroke-linejoin:miter;stroke:rgb(0%,0%,0%);stroke-opacity:1;stroke-miterlimit:10;" d="M 0.83332 0.0454687 L 0.16668 0.0757422 L 0.16668 0.530313 L 0.590898 0.954531 L 0.83332 0.924258 L 0.803047 0.469687 Z M 0.83332 0.0454687 " transform="matrix(100,0,0,100,600,3200)"/>
<path style="fill:none;stroke-width:0.01;stroke-linecap:butt;stroke-linejoin:miter;stroke:rgb(0%,0%,0%);stroke-opacity:1;stroke-miterlimit:10;" d="M 0.91957 0.0454687 L 0.0804297 0.0804297 L 0.115391 0.569922 L 0.674844 0.91957 L 0.814688 0.954531 L 0.849648 0.430078 Z M 0.91957 0.0454687 " transform="matrix(100,0,0,100,0,3350)"/>
<path style="fill:none;stroke-width:0.01;stroke-linecap:butt;stroke-linejoin:miter;stroke:rgb(0%,0%,0%);stroke-opacity:1;stroke-miterlimit:10;" d="M 0.110391 0.110391 L 0.110391 0.564922 L 0.759727 0.954531 L 0.857148 0.954531 L 0.889609 0.5 L 0.824688 0.0454687 Z M 0.110391 0.110391 " transform="matrix(100,0,0,100,150,3350)"/>
<path style="fill:none;stroke-width:0.01;stroke-linecap:butt;stroke-linejoin:miter;stroke:rgb(0%,0%,0%);stroke-opacity:1;stroke-miterlimit:10;" d="M 0.0941406 0.0779297 L 0.0941406 0.564922 L 0.678555 0.954531 L 0.905859 0.92207 L 0.873359 0.402578 L 0.808438 0.0454687 Z M 0.0941406 0.0779297 " transform="matrix(100,0,0,100,300,3350)"/>
<path style="fill:none;stroke-width:0.01;stroke-linecap:butt;stroke-linejoin:miter;stroke:rgb(0%,0%,0%);stroke-opacity:1;stroke-miterlimit:10;" d="M 0.543516 0.0454687 L 0.513047 0.0454687 L 0.5 0.0541406 L 0.486953 0.0715625 L 0.473906 0.0976562 L 0.456484 0.12375 L 0.443437 0.158555 L 0.434766 0.184648 L 0.434766 0.362969 L 0.430391 0.393437 L 0.478242 0.789258 L 0.491289 0.824063 L 0.495664 0.841445 L 0.5 0.854492 L 0.508711 0.889297 L 0.517383 0.911055 L 0.526094 0.932813 L 0.534805 0.945859 L 0.547852 0.954531 L 0.569609 0.950195 L 0.539141 0.48043 L 0.547852 0.0715625 Z M 0.543516 0.0454687 " transform="matrix(100,0,0,100,450,3350)"/>
<path style="fill:none;stroke-width:0.01;stroke-linecap:butt;stroke-linejoin:miter;stroke:rgb(0%,0%,0%);stroke-opacity:1;stroke-miterlimit:10;" d="M 0.526289 0.0454687 L 0.428633 0.105547 L 0.428633 0.954531 L 0.563867 0.939531 L 0.571367 0.0454687 Z M 0.526289 0.0454687 " transform="matrix(100,0,0,100,600,3350)"/>
</g>
</svg>
