<?xml version="1.0" encoding="UTF-8"?>
<svg xmlns="http://www.w3.org/2000/svg" xmlns:xlink="http://www.w3.org/1999/xlink" width="750pt" height="21600pt" viewBox="0 0 750 21600" version="1.1">
<g id="surface1">
<path style="fill:none;stroke-width:0.01;stroke-linecap:butt;stroke-linejoin:miter;stroke:rgb(0%,0%,0%);stroke-opacity:1;stroke-miterlimit:10;" d="M 0.954531 0.259375 L 0.66043 0.259375 L 0.66043 0.366328 L 0.152422 0.366328 L 0.0454688 0.687148 L 0.606953 0.687148 L 0.606953 0.740625 L 0.874336 0.740625 Z M 0.954531 0.259375 " transform="matrix(100,0,0,100,0,200)"/>
<path style="fill:none;stroke-width:0.01;stroke-linecap:butt;stroke-linejoin:miter;stroke:rgb(0%,0%,0%);stroke-opacity:1;stroke-miterlimit:10;" d="M 0.954531 0.265859 L 0.679063 0.238281 L 0.679063 0.348477 L 0.100547 0.293398 L 0.0454687 0.596406 L 0.623984 0.651523 L 0.623984 0.734141 L 0.871914 0.761719 Z M 0.954531 0.265859 " transform="matrix(100,0,0,100,150,200)"/>
<path style="fill:none;stroke-width:0.01;stroke-linecap:butt;stroke-linejoin:miter;stroke:rgb(0%,0%,0%);stroke-opacity:1;stroke-miterlimit:10;" d="M 0.954531 0.312852 L 0.580195 0.312852 L 0.526719 0.526719 L 0.152422 0.473281 L 0.0454687 0.687148 L 0.847578 0.687148 Z M 0.954531 0.312852 " transform="matrix(100,0,0,100,300,200)"/>
<path style="fill:none;stroke-width:0.01;stroke-linecap:butt;stroke-linejoin:miter;stroke:rgb(0%,0%,0%);stroke-opacity:1;stroke-miterlimit:10;" d="M 0.954531 0.287891 L 0.590898 0.287891 L 0.530312 0.469688 L 0.106055 0.469688 L 0.0454688 0.651523 L 0.83332 0.712109 Z M 0.954531 0.287891 " transform="matrix(100,0,0,100,450,200)"/>
<path style="fill:none;stroke-width:0.01;stroke-linecap:butt;stroke-linejoin:miter;stroke:rgb(0%,0%,0%);stroke-opacity:1;stroke-miterlimit:10;" d="M 0.794102 0.740625 L 0.954531 0.312852 L 0.526719 0.259375 L 0.473281 0.473281 L 0.0989453 0.473281 L 0.0454688 0.633672 Z M 0.794102 0.740625 " transform="matrix(100,0,0,100,600,200)"/>
<path style="fill:none;stroke-width:0.01;stroke-linecap:butt;stroke-linejoin:miter;stroke:rgb(0%,0%,0%);stroke-opacity:1;stroke-miterlimit:10;" d="M 0.954531 0.190078 L 0.830586 0.14875 L 0.5 0.190078 L 0.458672 0.39668 L 0.128086 0.39668 L 0.0454688 0.768594 L 0.417344 0.768594 L 0.458672 0.85125 L 0.789258 0.85125 L 0.913242 0.520664 Z M 0.954531 0.190078 " transform="matrix(100,0,0,100,0,350)"/>
<path style="fill:none;stroke-width:0.01;stroke-linecap:butt;stroke-linejoin:miter;stroke:rgb(0%,0%,0%);stroke-opacity:1;stroke-miterlimit:10;" d="M 0.90668 0.308594 L 0.667461 0.308594 L 0.667461 0.404297 L 0.0933203 0.404297 L 0.0454687 0.691406 L 0.954531 0.691406 Z M 0.90668 0.308594 " transform="matrix(100,0,0,100,150,350)"/>
<path style="fill:none;stroke-width:0.01;stroke-linecap:butt;stroke-linejoin:miter;stroke:rgb(0%,0%,0%);stroke-opacity:1;stroke-miterlimit:10;" d="M 0.954531 0.297969 L 0.550508 0.348477 L 0.550508 0.398984 L 0.0959766 0.398984 L 0.0454687 0.702031 L 0.853555 0.702031 Z M 0.954531 0.297969 " transform="matrix(100,0,0,100,300,350)"/>
<path style="fill:none;stroke-width:0.01;stroke-linecap:butt;stroke-linejoin:miter;stroke:rgb(0%,0%,0%);stroke-opacity:1;stroke-miterlimit:10;" d="M 0.0989453 0.366328 L 0.0454688 0.687148 L 0.954531 0.687148 L 0.954531 0.312852 L 0.687148 0.312852 L 0.687148 0.419805 Z M 0.0989453 0.366328 " transform="matrix(100,0,0,100,450,350)"/>
<path style="fill:none;stroke-width:0.01;stroke-linecap:butt;stroke-linejoin:miter;stroke:rgb(0%,0%,0%);stroke-opacity:1;stroke-miterlimit:10;" d="M 0.901055 0.33957 L 0.633672 0.33957 L 0.633672 0.5 L 0.0454688 0.5 L 0.0454688 0.66043 L 0.954531 0.606953 Z M 0.901055 0.33957 " transform="matrix(100,0,0,100,600,350)"/>
<path style="fill:none;stroke-width:0.01;stroke-linecap:butt;stroke-linejoin:miter;stroke:rgb(0%,0%,0%);stroke-opacity:1;stroke-miterlimit:10;" d="M 0.954531 0.33957 L 0.526719 0.393047 L 0.526719 0.5 L 0.0454688 0.5 L 0.0454688 0.66043 L 0.954531 0.66043 Z M 0.954531 0.33957 " transform="matrix(100,0,0,100,0,500)"/>
<path style="fill:none;stroke-width:0.01;stroke-linecap:butt;stroke-linejoin:miter;stroke:rgb(0%,0%,0%);stroke-opacity:1;stroke-miterlimit:10;" d="M 0.897734 0.357969 L 0.556836 0.414766 L 0.556836 0.471602 L 0.0454687 0.414766 L 0.0454687 0.642031 L 0.954531 0.642031 Z M 0.897734 0.357969 " transform="matrix(100,0,0,100,150,500)"/>
<path style="fill:none;stroke-width:0.01;stroke-linecap:butt;stroke-linejoin:miter;stroke:rgb(0%,0%,0%);stroke-opacity:1;stroke-miterlimit:10;" d="M 0.954531 0.305195 L 0.738086 0.348477 L 0.694805 0.478359 L 0.0454687 0.521641 L 0.0454687 0.694805 L 0.954531 0.694805 Z M 0.954531 0.305195 " transform="matrix(100,0,0,100,300,500)"/>
<path style="fill:none;stroke-width:0.01;stroke-linecap:butt;stroke-linejoin:miter;stroke:rgb(0%,0%,0%);stroke-opacity:1;stroke-miterlimit:10;" d="M 0.954531 0.340898 L 0.681836 0.340898 L 0.636367 0.431836 L 0.0454688 0.431836 L 0.0454688 0.659102 L 0.863633 0.659102 Z M 0.954531 0.340898 " transform="matrix(100,0,0,100,450,500)"/>
<path style="fill:none;stroke-width:0.01;stroke-linecap:butt;stroke-linejoin:miter;stroke:rgb(0%,0%,0%);stroke-opacity:1;stroke-miterlimit:10;" d="M 0.918906 0.348477 L 0.0454688 0.330664 L 0.116758 0.669336 L 0.954531 0.669336 Z M 0.918906 0.348477 " transform="matrix(100,0,0,100,600,500)"/>
<path style="fill:none;stroke-width:0.01;stroke-linecap:butt;stroke-linejoin:miter;stroke:rgb(0%,0%,0%);stroke-opacity:1;stroke-miterlimit:10;" d="M 0.901055 0.232617 L 0.0454688 0.268281 L 0.0454688 0.767383 L 0.954531 0.713906 Z M 0.901055 0.232617 " transform="matrix(100,0,0,100,0,650)"/>
<path style="fill:none;stroke-width:0.01;stroke-linecap:butt;stroke-linejoin:miter;stroke:rgb(0%,0%,0%);stroke-opacity:1;stroke-miterlimit:10;" d="M 0.954531 0.651523 L 0.08875 0.608242 L 0.0454687 0.348477 L 0.91125 0.370117 Z M 0.954531 0.651523 " transform="matrix(100,0,0,100,150,650)"/>
<path style="fill:none;stroke-width:0.01;stroke-linecap:butt;stroke-linejoin:miter;stroke:rgb(0%,0%,0%);stroke-opacity:1;stroke-miterlimit:10;" d="M 0.954531 0.334727 L 0.100547 0.362266 L 0.0454687 0.637734 L 0.899453 0.665273 Z M 0.954531 0.334727 " transform="matrix(100,0,0,100,300,650)"/>
<path style="fill:none;stroke-width:0.01;stroke-linecap:butt;stroke-linejoin:miter;stroke:rgb(0%,0%,0%);stroke-opacity:1;stroke-miterlimit:10;" d="M 0.954531 0.323242 L 0.121211 0.323242 L 0.0454688 0.676758 L 0.878789 0.676758 Z M 0.954531 0.323242 " transform="matrix(100,0,0,100,450,650)"/>
<path style="fill:none;stroke-width:0.01;stroke-linecap:butt;stroke-linejoin:miter;stroke:rgb(0%,0%,0%);stroke-opacity:1;stroke-miterlimit:10;" d="M 0.954531 0.338398 L 0.106055 0.338398 L 0.0454688 0.661602 L 0.914141 0.661602 Z M 0.954531 0.338398 " transform="matrix(100,0,0,100,600,650)"/>
<path style="fill:none;stroke-width:0.01;stroke-linecap:butt;stroke-linejoin:miter;stroke:rgb(0%,0%,0%);stroke-opacity:1;stroke-miterlimit:10;" d="M 0.954531 0.336836 L 0.115391 0.360156 L 0.0454688 0.663164 L 0.93125 0.663164 Z M 0.954531 0.336836 " transform="matrix(100,0,0,100,0,800)"/>
<path style="fill:none;stroke-width:0.01;stroke-linecap:butt;stroke-linejoin:miter;stroke:rgb(0%,0%,0%);stroke-opacity:1;stroke-miterlimit:10;" d="M 0.531719 0.848828 L 0.531719 0.912266 L 0.869961 0.933398 L 0.912266 0.806563 L 0.954531 0.0666016 L 0.616289 0.0877344 L 0.595156 0.383711 L 0.0877344 0.383711 L 0.0454687 0.679688 L 0.552852 0.658555 Z M 0.531719 0.848828 " transform="matrix(100,0,0,100,150,800)"/>
<path style="fill:none;stroke-width:0.01;stroke-linecap:butt;stroke-linejoin:miter;stroke:rgb(0%,0%,0%);stroke-opacity:1;stroke-miterlimit:10;" d="M 0.06875 0.336836 L 0.0454687 0.663164 L 0.954531 0.663164 L 0.954531 0.336836 Z M 0.06875 0.336836 " transform="matrix(100,0,0,100,300,800)"/>
<path style="fill:none;stroke-width:0.01;stroke-linecap:butt;stroke-linejoin:miter;stroke:rgb(0%,0%,0%);stroke-opacity:1;stroke-miterlimit:10;" d="M 0.954531 0.299141 L 0.0877344 0.299141 L 0.0454688 0.679688 L 0.954531 0.700859 Z M 0.954531 0.299141 " transform="matrix(100,0,0,100,450,800)"/>
<path style="fill:none;stroke-width:0.01;stroke-linecap:butt;stroke-linejoin:miter;stroke:rgb(0%,0%,0%);stroke-opacity:1;stroke-miterlimit:10;" d="M 0.954531 0.288945 L 0.0779297 0.288945 L 0.0454688 0.711055 L 0.92207 0.711055 Z M 0.954531 0.288945 " transform="matrix(100,0,0,100,600,800)"/>
<path style="fill:none;stroke-width:0.01;stroke-linecap:butt;stroke-linejoin:miter;stroke:rgb(0%,0%,0%);stroke-opacity:1;stroke-miterlimit:10;" d="M 0.954531 0.250742 L 0.0454688 0.280078 L 0.0454688 0.749258 L 0.895898 0.749258 Z M 0.954531 0.250742 " transform="matrix(100,0,0,100,0,950)"/>
<path style="fill:none;stroke-width:0.01;stroke-linecap:butt;stroke-linejoin:miter;stroke:rgb(0%,0%,0%);stroke-opacity:1;stroke-miterlimit:10;" d="M 0.0454687 0.293398 L 0.0454687 0.706602 L 0.926992 0.706602 L 0.954531 0.293398 Z M 0.0454687 0.293398 " transform="matrix(100,0,0,100,150,950)"/>
<path style="fill:none;stroke-width:0.01;stroke-linecap:butt;stroke-linejoin:miter;stroke:rgb(0%,0%,0%);stroke-opacity:1;stroke-miterlimit:10;" d="M 0.853555 0.386367 L 0.0580859 0.398984 L 0.0454687 0.613633 L 0.954531 0.613633 Z M 0.853555 0.386367 " transform="matrix(100,0,0,100,300,950)"/>
<path style="fill:none;stroke-width:0.01;stroke-linecap:butt;stroke-linejoin:miter;stroke:rgb(0%,0%,0%);stroke-opacity:1;stroke-miterlimit:10;" d="M 0.954531 0.417344 L 0.0867578 0.417344 L 0.0454688 0.582656 L 0.913242 0.582656 Z M 0.954531 0.417344 " transform="matrix(100,0,0,100,450,950)"/>
<path style="fill:none;stroke-width:0.01;stroke-linecap:butt;stroke-linejoin:miter;stroke:rgb(0%,0%,0%);stroke-opacity:1;stroke-miterlimit:10;" d="M 0.954531 0.409102 L 0.154531 0.409102 L 0.0454688 0.590898 L 0.881836 0.590898 Z M 0.954531 0.409102 " transform="matrix(100,0,0,100,600,950)"/>
<path style="fill:none;stroke-width:0.01;stroke-linecap:butt;stroke-linejoin:miter;stroke:rgb(0%,0%,0%);stroke-opacity:1;stroke-miterlimit:10;" d="M 0.954531 0.390273 L 0.139492 0.390273 L 0.0454688 0.578359 L 0.891836 0.609727 Z M 0.954531 0.390273 " transform="matrix(100,0,0,100,0,1100)"/>
<path style="fill:none;stroke-width:0.01;stroke-linecap:butt;stroke-linejoin:miter;stroke:rgb(0%,0%,0%);stroke-opacity:1;stroke-miterlimit:10;" d="M 0.954531 0.389805 L 0.183203 0.389805 L 0.0454687 0.582656 L 0.871914 0.610195 Z M 0.954531 0.389805 " transform="matrix(100,0,0,100,150,1100)"/>
<path style="fill:none;stroke-width:0.01;stroke-linecap:butt;stroke-linejoin:miter;stroke:rgb(0%,0%,0%);stroke-opacity:1;stroke-miterlimit:10;" d="M 0.192891 0.364883 L 0.0454687 0.610547 L 0.85625 0.635117 L 0.954531 0.414023 Z M 0.192891 0.364883 " transform="matrix(100,0,0,100,300,1100)"/>
<path style="fill:none;stroke-width:0.01;stroke-linecap:butt;stroke-linejoin:miter;stroke:rgb(0%,0%,0%);stroke-opacity:1;stroke-miterlimit:10;" d="M 0.954531 0.378789 L 0.186875 0.358594 L 0.0454688 0.601016 L 0.87375 0.641406 Z M 0.954531 0.378789 " transform="matrix(100,0,0,100,450,1100)"/>
<path style="fill:none;stroke-width:0.01;stroke-linecap:butt;stroke-linejoin:miter;stroke:rgb(0%,0%,0%);stroke-opacity:1;stroke-miterlimit:10;" d="M 0.954531 0.389805 L 0.155664 0.389805 L 0.0454688 0.582656 L 0.899453 0.610195 Z M 0.954531 0.389805 " transform="matrix(100,0,0,100,600,1100)"/>
<path style="fill:none;stroke-width:0.01;stroke-linecap:butt;stroke-linejoin:miter;stroke:rgb(0%,0%,0%);stroke-opacity:1;stroke-miterlimit:10;" d="M 0.954531 0.402578 L 0.110391 0.402578 L 0.0454688 0.564922 L 0.92207 0.597422 Z M 0.954531 0.402578 " transform="matrix(100,0,0,100,0,1250)"/>
<path style="fill:none;stroke-width:0.01;stroke-linecap:butt;stroke-linejoin:miter;stroke:rgb(0%,0%,0%);stroke-opacity:1;stroke-miterlimit:10;" d="M 0.0908984 0.409102 L 0.0454687 0.590898 L 0.909102 0.590898 L 0.954531 0.409102 Z M 0.0908984 0.409102 " transform="matrix(100,0,0,100,150,1250)"/>
<path style="fill:none;stroke-width:0.01;stroke-linecap:butt;stroke-linejoin:miter;stroke:rgb(0%,0%,0%);stroke-opacity:1;stroke-miterlimit:10;" d="M 0.954531 0.440703 L 0.0849609 0.401172 L 0.0454687 0.559297 L 0.954531 0.598828 Z M 0.954531 0.440703 " transform="matrix(100,0,0,100,300,1250)"/>
<path style="fill:none;stroke-width:0.01;stroke-linecap:butt;stroke-linejoin:miter;stroke:rgb(0%,0%,0%);stroke-opacity:1;stroke-miterlimit:10;" d="M 0.0804297 0.412578 L 0.0454688 0.587422 L 0.91957 0.587422 L 0.954531 0.412578 Z M 0.0804297 0.412578 " transform="matrix(100,0,0,100,450,1250)"/>
<path style="fill:none;stroke-width:0.01;stroke-linecap:butt;stroke-linejoin:miter;stroke:rgb(0%,0%,0%);stroke-opacity:1;stroke-miterlimit:10;" d="M 0.689375 0.0833203 L 0.310625 0.121211 L 0.310625 0.310625 L 0.0454688 0.310625 L 0.0833203 0.575742 L 0.424258 0.537891 L 0.424258 0.91668 L 0.803047 0.91668 L 0.954531 0.765156 Z M 0.689375 0.0833203 " transform="matrix(100,0,0,100,600,1250)"/>
<path style="fill:none;stroke-width:0.01;stroke-linecap:butt;stroke-linejoin:miter;stroke:rgb(0%,0%,0%);stroke-opacity:1;stroke-miterlimit:10;" d="M 0.74793 0.25207 L 0.128086 0.293398 L 0.0454688 0.334727 L 0.0454688 0.458672 L 0.0867578 0.582656 L 0.169414 0.706602 L 0.706602 0.74793 L 0.954531 0.74793 L 0.871914 0.334727 Z M 0.74793 0.25207 " transform="matrix(100,0,0,100,0,1400)"/>
<path style="fill:none;stroke-width:0.01;stroke-linecap:butt;stroke-linejoin:miter;stroke:rgb(0%,0%,0%);stroke-opacity:1;stroke-miterlimit:10;" d="M 0.920859 0.314805 L 0.0454687 0.348477 L 0.0791406 0.651523 L 0.954531 0.685195 Z M 0.920859 0.314805 " transform="matrix(100,0,0,100,150,1400)"/>
<path style="fill:none;stroke-width:0.01;stroke-linecap:butt;stroke-linejoin:miter;stroke:rgb(0%,0%,0%);stroke-opacity:1;stroke-miterlimit:10;" d="M 0.0454687 0.671992 L 0.954531 0.696563 L 0.929961 0.303438 L 0.0454687 0.303438 Z M 0.0454687 0.671992 " transform="matrix(100,0,0,100,300,1400)"/>
<path style="fill:none;stroke-width:0.01;stroke-linecap:butt;stroke-linejoin:miter;stroke:rgb(0%,0%,0%);stroke-opacity:1;stroke-miterlimit:10;" d="M 0.897734 0.230117 L 0.613633 0.258516 L 0.613633 0.34375 L 0.0738672 0.372148 L 0.0454688 0.713086 L 0.926133 0.769883 L 0.954531 0.400586 Z M 0.897734 0.230117 " transform="matrix(100,0,0,100,450,1400)"/>
<path style="fill:none;stroke-width:0.01;stroke-linecap:butt;stroke-linejoin:miter;stroke:rgb(0%,0%,0%);stroke-opacity:1;stroke-miterlimit:10;" d="M 0.954531 0.303047 L 0.681836 0.272734 L 0.651523 0.363633 L 0.0454688 0.33332 L 0.0454688 0.696953 L 0.893945 0.727266 Z M 0.954531 0.303047 " transform="matrix(100,0,0,100,600,1400)"/>
<path style="fill:none;stroke-width:0.01;stroke-linecap:butt;stroke-linejoin:miter;stroke:rgb(0%,0%,0%);stroke-opacity:1;stroke-miterlimit:10;" d="M 0.954531 0.244336 L 0.613633 0.272734 L 0.613633 0.329531 L 0.0454688 0.357969 L 0.0454688 0.727266 L 0.954531 0.755664 Z M 0.954531 0.244336 " transform="matrix(100,0,0,100,0,1550)"/>
<path style="fill:none;stroke-width:0.01;stroke-linecap:butt;stroke-linejoin:miter;stroke:rgb(0%,0%,0%);stroke-opacity:1;stroke-miterlimit:10;" d="M 0.0714453 0.331172 L 0.0454687 0.668828 L 0.928555 0.642852 L 0.954531 0.331172 Z M 0.0714453 0.331172 " transform="matrix(100,0,0,100,150,1550)"/>
<path style="fill:none;stroke-width:0.01;stroke-linecap:butt;stroke-linejoin:miter;stroke:rgb(0%,0%,0%);stroke-opacity:1;stroke-miterlimit:10;" d="M 0.0779297 0.240273 L 0.0454687 0.694805 L 0.92207 0.759727 L 0.954531 0.240273 Z M 0.0779297 0.240273 " transform="matrix(100,0,0,100,300,1550)"/>
<path style="fill:none;stroke-width:0.01;stroke-linecap:butt;stroke-linejoin:miter;stroke:rgb(0%,0%,0%);stroke-opacity:1;stroke-miterlimit:10;" d="M 0.954531 0.240273 L 0.0779297 0.207773 L 0.0454688 0.759727 L 0.92207 0.792227 Z M 0.954531 0.240273 " transform="matrix(100,0,0,100,450,1550)"/>
<path style="fill:none;stroke-width:0.01;stroke-linecap:butt;stroke-linejoin:miter;stroke:rgb(0%,0%,0%);stroke-opacity:1;stroke-miterlimit:10;" d="M 0.954531 0.240273 L 0.0779297 0.240273 L 0.0454688 0.694805 L 0.954531 0.759727 Z M 0.954531 0.240273 " transform="matrix(100,0,0,100,600,1550)"/>
<path style="fill:none;stroke-width:0.01;stroke-linecap:butt;stroke-linejoin:miter;stroke:rgb(0%,0%,0%);stroke-opacity:1;stroke-miterlimit:10;" d="M 0.954531 0.321445 L 0.0454688 0.256484 L 0.0454688 0.711055 L 0.92207 0.743516 Z M 0.954531 0.321445 " transform="matrix(100,0,0,100,0,1700)"/>
<path style="fill:none;stroke-width:0.01;stroke-linecap:butt;stroke-linejoin:miter;stroke:rgb(0%,0%,0%);stroke-opacity:1;stroke-miterlimit:10;" d="M 0.0757422 0.272734 L 0.0454687 0.636367 L 0.924258 0.727266 L 0.954531 0.303047 Z M 0.0757422 0.272734 " transform="matrix(100,0,0,100,150,1700)"/>
<path style="fill:none;stroke-width:0.01;stroke-linecap:butt;stroke-linejoin:miter;stroke:rgb(0%,0%,0%);stroke-opacity:1;stroke-miterlimit:10;" d="M 0.0454687 0.256484 L 0.0454687 0.711055 L 0.954531 0.743516 L 0.954531 0.321445 Z M 0.0454687 0.256484 " transform="matrix(100,0,0,100,300,1700)"/>
<path style="fill:none;stroke-width:0.01;stroke-linecap:butt;stroke-linejoin:miter;stroke:rgb(0%,0%,0%);stroke-opacity:1;stroke-miterlimit:10;" d="M 0.954531 0.264883 L 0.0767969 0.233555 L 0.0454688 0.766445 L 0.923203 0.766445 Z M 0.954531 0.264883 " transform="matrix(100,0,0,100,450,1700)"/>
<path style="fill:none;stroke-width:0.01;stroke-linecap:butt;stroke-linejoin:miter;stroke:rgb(0%,0%,0%);stroke-opacity:1;stroke-miterlimit:10;" d="M 0.954531 0.326211 L 0.0989453 0.35293 L 0.0454688 0.64707 L 0.954531 0.673789 Z M 0.954531 0.326211 " transform="matrix(100,0,0,100,600,1700)"/>
<path style="fill:none;stroke-width:0.01;stroke-linecap:butt;stroke-linejoin:miter;stroke:rgb(0%,0%,0%);stroke-opacity:1;stroke-miterlimit:10;" d="M 0.954531 0.230625 L 0.0454688 0.196953 L 0.0454688 0.769375 L 0.954531 0.803047 Z M 0.954531 0.230625 " transform="matrix(100,0,0,100,0,1850)"/>
<path style="fill:none;stroke-width:0.01;stroke-linecap:butt;stroke-linejoin:miter;stroke:rgb(0%,0%,0%);stroke-opacity:1;stroke-miterlimit:10;" d="M 0.954531 0.141133 L 0.0454687 0.236836 L 0.0454687 0.858867 L 0.954531 0.811016 Z M 0.954531 0.141133 " transform="matrix(100,0,0,100,150,1850)"/>
<path style="fill:none;stroke-width:0.01;stroke-linecap:butt;stroke-linejoin:miter;stroke:rgb(0%,0%,0%);stroke-opacity:1;stroke-miterlimit:10;" d="M 0.913242 0.190078 L 0.0454687 0.190078 L 0.0454687 0.809922 L 0.954531 0.768594 Z M 0.913242 0.190078 " transform="matrix(100,0,0,100,300,1850)"/>
<path style="fill:none;stroke-width:0.01;stroke-linecap:butt;stroke-linejoin:miter;stroke:rgb(0%,0%,0%);stroke-opacity:1;stroke-miterlimit:10;" d="M 0.954531 0.227266 L 0.0818359 0.263633 L 0.0454688 0.772734 L 0.954531 0.772734 Z M 0.954531 0.227266 " transform="matrix(100,0,0,100,450,1850)"/>
<path style="fill:none;stroke-width:0.01;stroke-linecap:butt;stroke-linejoin:miter;stroke:rgb(0%,0%,0%);stroke-opacity:1;stroke-miterlimit:10;" d="M 0.954531 0.207773 L 0.0779297 0.305195 L 0.0454688 0.792227 L 0.954531 0.792227 Z M 0.954531 0.207773 " transform="matrix(100,0,0,100,600,1850)"/>
<path style="fill:none;stroke-width:0.01;stroke-linecap:butt;stroke-linejoin:miter;stroke:rgb(0%,0%,0%);stroke-opacity:1;stroke-miterlimit:10;" d="M 0.0757422 0.227266 L 0.0454688 0.712109 L 0.893945 0.772734 L 0.954531 0.227266 Z M 0.0757422 0.227266 " transform="matrix(100,0,0,100,0,2000)"/>
<path style="fill:none;stroke-width:0.01;stroke-linecap:butt;stroke-linejoin:miter;stroke:rgb(0%,0%,0%);stroke-opacity:1;stroke-miterlimit:10;" d="M 0.954531 0.256484 L 0.0454687 0.191562 L 0.0454687 0.775977 L 0.954531 0.808438 Z M 0.954531 0.256484 " transform="matrix(100,0,0,100,150,2000)"/>
<path style="fill:none;stroke-width:0.01;stroke-linecap:butt;stroke-linejoin:miter;stroke:rgb(0%,0%,0%);stroke-opacity:1;stroke-miterlimit:10;" d="M 0.954531 0.262852 L 0.0454687 0.183789 L 0.0454687 0.737148 L 0.954531 0.816211 Z M 0.954531 0.262852 " transform="matrix(100,0,0,100,300,2000)"/>
<path style="fill:none;stroke-width:0.01;stroke-linecap:butt;stroke-linejoin:miter;stroke:rgb(0%,0%,0%);stroke-opacity:1;stroke-miterlimit:10;" d="M 0.954531 0.210742 L 0.0454688 0.348477 L 0.0454688 0.789258 L 0.954531 0.706602 Z M 0.954531 0.210742 " transform="matrix(100,0,0,100,450,2000)"/>
<path style="fill:none;stroke-width:0.01;stroke-linecap:butt;stroke-linejoin:miter;stroke:rgb(0%,0%,0%);stroke-opacity:1;stroke-miterlimit:10;" d="M 0.954531 0.175313 L 0.0779297 0.370117 L 0.0454688 0.824687 L 0.954531 0.662344 Z M 0.954531 0.175313 " transform="matrix(100,0,0,100,600,2000)"/>
<path style="fill:none;stroke-width:0.01;stroke-linecap:butt;stroke-linejoin:miter;stroke:rgb(0%,0%,0%);stroke-opacity:1;stroke-miterlimit:10;" d="M 0.954531 0.227266 L 0.0454688 0.348477 L 0.0454688 0.772734 L 0.893945 0.712109 L 0.954531 0.681836 Z M 0.954531 0.227266 " transform="matrix(100,0,0,100,0,2150)"/>
<path style="fill:none;stroke-width:0.01;stroke-linecap:butt;stroke-linejoin:miter;stroke:rgb(0%,0%,0%);stroke-opacity:1;stroke-miterlimit:10;" d="M 0.954531 0.177422 L 0.0747656 0.0601172 L 0.0454687 0.675937 L 0.925234 0.939883 Z M 0.954531 0.177422 " transform="matrix(100,0,0,100,150,2150)"/>
<path style="fill:none;stroke-width:0.01;stroke-linecap:butt;stroke-linejoin:miter;stroke:rgb(0%,0%,0%);stroke-opacity:1;stroke-miterlimit:10;" d="M 0.809922 0.128086 L 0.438008 0.0454688 L 0.39668 0.190078 L 0.231406 0.190078 L 0.190078 0.541328 L 0.376016 0.582656 L 0.376016 0.85125 L 0.665273 0.954531 L 0.809922 0.210742 Z M 0.809922 0.128086 " transform="matrix(100,0,0,100,300,2150)"/>
<path style="fill:none;stroke-width:0.01;stroke-linecap:butt;stroke-linejoin:miter;stroke:rgb(0%,0%,0%);stroke-opacity:1;stroke-miterlimit:10;" d="M 0.954531 0.247461 L 0.0959766 0.146445 L 0.0454688 0.651523 L 0.904023 0.853555 Z M 0.954531 0.247461 " transform="matrix(100,0,0,100,450,2150)"/>
<path style="fill:none;stroke-width:0.01;stroke-linecap:butt;stroke-linejoin:miter;stroke:rgb(0%,0%,0%);stroke-opacity:1;stroke-miterlimit:10;" d="M 0.954531 0.132031 L 0.08875 0.305195 L 0.0454688 0.867969 L 0.954531 0.738086 Z M 0.954531 0.132031 " transform="matrix(100,0,0,100,600,2150)"/>
<path style="fill:none;stroke-width:0.01;stroke-linecap:butt;stroke-linejoin:miter;stroke:rgb(0%,0%,0%);stroke-opacity:1;stroke-miterlimit:10;" d="M 0.954531 0.169414 L 0.0867578 0.334727 L 0.0454688 0.830586 L 0.913242 0.706602 Z M 0.954531 0.169414 " transform="matrix(100,0,0,100,0,2300)"/>
<path style="fill:none;stroke-width:0.01;stroke-linecap:butt;stroke-linejoin:miter;stroke:rgb(0%,0%,0%);stroke-opacity:1;stroke-miterlimit:10;" d="M 0.954531 0.107422 L 0.0454687 0.231406 L 0.0454687 0.892578 L 0.954531 0.809922 Z M 0.954531 0.107422 " transform="matrix(100,0,0,100,150,2300)"/>
<path style="fill:none;stroke-width:0.01;stroke-linecap:butt;stroke-linejoin:miter;stroke:rgb(0%,0%,0%);stroke-opacity:1;stroke-miterlimit:10;" d="M 0.915039 0.183789 L 0.0454687 0.22332 L 0.0454687 0.816211 L 0.954531 0.816211 Z M 0.915039 0.183789 " transform="matrix(100,0,0,100,300,2300)"/>
<path style="fill:none;stroke-width:0.01;stroke-linecap:butt;stroke-linejoin:miter;stroke:rgb(0%,0%,0%);stroke-opacity:1;stroke-miterlimit:10;" d="M 0.0454688 0.169414 L 0.0867578 0.789258 L 0.954531 0.830586 L 0.954531 0.169414 Z M 0.0454688 0.169414 " transform="matrix(100,0,0,100,450,2300)"/>
<path style="fill:none;stroke-width:0.01;stroke-linecap:butt;stroke-linejoin:miter;stroke:rgb(0%,0%,0%);stroke-opacity:1;stroke-miterlimit:10;" d="M 0.915039 0.22332 L 0.0849609 0.144258 L 0.0454688 0.737148 L 0.954531 0.855742 Z M 0.915039 0.22332 " transform="matrix(100,0,0,100,600,2300)"/>
<path style="fill:none;stroke-width:0.01;stroke-linecap:butt;stroke-linejoin:miter;stroke:rgb(0%,0%,0%);stroke-opacity:1;stroke-miterlimit:10;" d="M 0.954531 0.230117 L 0.0454688 0.34375 L 0.0454688 0.769883 L 0.954531 0.713086 Z M 0.954531 0.230117 " transform="matrix(100,0,0,100,0,2450)"/>
<path style="fill:none;stroke-width:0.01;stroke-linecap:butt;stroke-linejoin:miter;stroke:rgb(0%,0%,0%);stroke-opacity:1;stroke-miterlimit:10;" d="M 0.954531 0.25207 L 0.0454687 0.279609 L 0.0730078 0.74793 L 0.954531 0.74793 Z M 0.954531 0.25207 " transform="matrix(100,0,0,100,150,2450)"/>
<path style="fill:none;stroke-width:0.01;stroke-linecap:butt;stroke-linejoin:miter;stroke:rgb(0%,0%,0%);stroke-opacity:1;stroke-miterlimit:10;" d="M 0.954531 0.230117 L 0.0454687 0.230117 L 0.0454687 0.684648 L 0.954531 0.769883 Z M 0.954531 0.230117 " transform="matrix(100,0,0,100,300,2450)"/>
<path style="fill:none;stroke-width:0.01;stroke-linecap:butt;stroke-linejoin:miter;stroke:rgb(0%,0%,0%);stroke-opacity:1;stroke-miterlimit:10;" d="M 0.954531 0.265391 L 0.0454688 0.206758 L 0.0454688 0.675937 L 0.895898 0.793242 Z M 0.954531 0.265391 " transform="matrix(100,0,0,100,450,2450)"/>
<path style="fill:none;stroke-width:0.01;stroke-linecap:butt;stroke-linejoin:miter;stroke:rgb(0%,0%,0%);stroke-opacity:1;stroke-miterlimit:10;" d="M 0.954531 0.291172 L 0.0454688 0.217461 L 0.0454688 0.659688 L 0.954531 0.782539 Z M 0.954531 0.291172 " transform="matrix(100,0,0,100,600,2450)"/>
<path style="fill:none;stroke-width:0.01;stroke-linecap:butt;stroke-linejoin:miter;stroke:rgb(0%,0%,0%);stroke-opacity:1;stroke-miterlimit:10;" d="M 0.0454688 0.247461 L 0.0454688 0.702031 L 0.954531 0.752539 L 0.929297 0.272734 Z M 0.0454688 0.247461 " transform="matrix(100,0,0,100,0,2600)"/>
<path style="fill:none;stroke-width:0.01;stroke-linecap:butt;stroke-linejoin:miter;stroke:rgb(0%,0%,0%);stroke-opacity:1;stroke-miterlimit:10;" d="M 0.954531 0.196953 L 0.0707031 0.323242 L 0.0454687 0.803047 L 0.929297 0.702031 Z M 0.954531 0.196953 " transform="matrix(100,0,0,100,150,2600)"/>
<path style="fill:none;stroke-width:0.01;stroke-linecap:butt;stroke-linejoin:miter;stroke:rgb(0%,0%,0%);stroke-opacity:1;stroke-miterlimit:10;" d="M 0.905391 0.242031 L 0.0454687 0.291172 L 0.0454687 0.757969 L 0.954531 0.733398 Z M 0.905391 0.242031 " transform="matrix(100,0,0,100,300,2600)"/>
<path style="fill:none;stroke-width:0.01;stroke-linecap:butt;stroke-linejoin:miter;stroke:rgb(0%,0%,0%);stroke-opacity:1;stroke-miterlimit:10;" d="M 0.930625 0.0454688 L 0.069375 0.284688 L 0.069375 0.954531 L 0.930625 0.811016 Z M 0.930625 0.0454688 " transform="matrix(100,0,0,100,450,2600)"/>
<path style="fill:none;stroke-width:0.01;stroke-linecap:butt;stroke-linejoin:miter;stroke:rgb(0%,0%,0%);stroke-opacity:1;stroke-miterlimit:10;" d="M 0.909102 0.0681641 L 0.0908984 0.295469 L 0.0454688 0.931836 L 0.954531 0.704531 Z M 0.909102 0.0681641 " transform="matrix(100,0,0,100,600,2600)"/>
<path style="fill:none;stroke-width:0.01;stroke-linecap:butt;stroke-linejoin:miter;stroke:rgb(0%,0%,0%);stroke-opacity:1;stroke-miterlimit:10;" d="M 0.920859 0.146445 L 0.0454688 0.382148 L 0.0454688 0.853555 L 0.954531 0.718867 Z M 0.920859 0.146445 " transform="matrix(100,0,0,100,0,2750)"/>
<path style="fill:none;stroke-width:0.01;stroke-linecap:butt;stroke-linejoin:miter;stroke:rgb(0%,0%,0%);stroke-opacity:1;stroke-miterlimit:10;" d="M 0.0454687 0.358594 L 0.0454687 0.742422 L 0.954531 0.621211 L 0.934336 0.257578 Z M 0.0454687 0.358594 " transform="matrix(100,0,0,100,150,2750)"/>
<path style="fill:none;stroke-width:0.01;stroke-linecap:butt;stroke-linejoin:miter;stroke:rgb(0%,0%,0%);stroke-opacity:1;stroke-miterlimit:10;" d="M 0.954531 0.253789 L 0.0833203 0.102266 L 0.0454687 0.632578 L 0.954531 0.897734 Z M 0.954531 0.253789 " transform="matrix(100,0,0,100,300,2750)"/>
<path style="fill:none;stroke-width:0.01;stroke-linecap:butt;stroke-linejoin:miter;stroke:rgb(0%,0%,0%);stroke-opacity:1;stroke-miterlimit:10;" d="M 0.913242 0.293398 L 0.128086 0.0454688 L 0.0867578 0.665273 L 0.871914 0.954531 Z M 0.913242 0.293398 " transform="matrix(100,0,0,100,450,2750)"/>
<path style="fill:none;stroke-width:0.01;stroke-linecap:butt;stroke-linejoin:miter;stroke:rgb(0%,0%,0%);stroke-opacity:1;stroke-miterlimit:10;" d="M 0.0867578 0.293398 L 0.0454688 0.789258 L 0.954531 0.789258 L 0.954531 0.210742 Z M 0.0867578 0.293398 " transform="matrix(100,0,0,100,600,2750)"/>
<path style="fill:none;stroke-width:0.01;stroke-linecap:butt;stroke-linejoin:miter;stroke:rgb(0%,0%,0%);stroke-opacity:1;stroke-miterlimit:10;" d="M 0.954531 0.165078 L 0.0454688 0.165078 L 0.0454688 0.834922 L 0.954531 0.834922 Z M 0.954531 0.165078 " transform="matrix(100,0,0,100,0,2900)"/>
<path style="fill:none;stroke-width:0.01;stroke-linecap:butt;stroke-linejoin:miter;stroke:rgb(0%,0%,0%);stroke-opacity:1;stroke-miterlimit:10;" d="M 0.954531 0.141133 L 0.0454687 0.141133 L 0.0454687 0.811016 L 0.954531 0.858867 Z M 0.954531 0.141133 " transform="matrix(100,0,0,100,150,2900)"/>
<path style="fill:none;stroke-width:0.01;stroke-linecap:butt;stroke-linejoin:miter;stroke:rgb(0%,0%,0%);stroke-opacity:1;stroke-miterlimit:10;" d="M 0.954531 0.136367 L 0.0454687 0.272734 L 0.0454687 0.863633 L 0.954531 0.863633 Z M 0.954531 0.136367 " transform="matrix(100,0,0,100,300,2900)"/>
<path style="fill:none;stroke-width:0.01;stroke-linecap:butt;stroke-linejoin:miter;stroke:rgb(0%,0%,0%);stroke-opacity:1;stroke-miterlimit:10;" d="M 0.901055 0.205898 L 0.0454688 0.0454688 L 0.0454688 0.740625 L 0.954531 0.954531 Z M 0.901055 0.205898 " transform="matrix(100,0,0,100,450,2900)"/>
<path style="fill:none;stroke-width:0.01;stroke-linecap:butt;stroke-linejoin:miter;stroke:rgb(0%,0%,0%);stroke-opacity:1;stroke-miterlimit:10;" d="M 0.904023 0.196953 L 0.146445 0.0454688 L 0.0959766 0.702031 L 0.904023 0.954531 Z M 0.904023 0.196953 " transform="matrix(100,0,0,100,600,2900)"/>
<path style="fill:none;stroke-width:0.01;stroke-linecap:butt;stroke-linejoin:miter;stroke:rgb(0%,0%,0%);stroke-opacity:1;stroke-miterlimit:10;" d="M 0.954531 0.159102 L 0.0454688 0.272734 L 0.0454688 0.840898 L 0.954531 0.803047 Z M 0.954531 0.159102 " transform="matrix(100,0,0,100,0,3050)"/>
<path style="fill:none;stroke-width:0.01;stroke-linecap:butt;stroke-linejoin:miter;stroke:rgb(0%,0%,0%);stroke-opacity:1;stroke-miterlimit:10;" d="M 0.954531 0.196953 L 0.0454687 0.272734 L 0.0454687 0.803047 L 0.954531 0.765156 Z M 0.954531 0.196953 " transform="matrix(100,0,0,100,150,3050)"/>
<path style="fill:none;stroke-width:0.01;stroke-linecap:butt;stroke-linejoin:miter;stroke:rgb(0%,0%,0%);stroke-opacity:1;stroke-miterlimit:10;" d="M 0.0757422 0.242422 L 0.0454687 0.727266 L 0.954531 0.757578 L 0.954531 0.242422 Z M 0.0757422 0.242422 " transform="matrix(100,0,0,100,300,3050)"/>
<path style="fill:none;stroke-width:0.01;stroke-linecap:butt;stroke-linejoin:miter;stroke:rgb(0%,0%,0%);stroke-opacity:1;stroke-miterlimit:10;" d="M 0.954531 0.209102 L 0.0454688 0.209102 L 0.0454688 0.754531 L 0.954531 0.790898 Z M 0.954531 0.209102 " transform="matrix(100,0,0,100,450,3050)"/>
<path style="fill:none;stroke-width:0.01;stroke-linecap:butt;stroke-linejoin:miter;stroke:rgb(0%,0%,0%);stroke-opacity:1;stroke-miterlimit:10;" d="M 0.954531 0.209102 L 0.0454688 0.209102 L 0.0454688 0.718164 L 0.954531 0.790898 Z M 0.954531 0.209102 " transform="matrix(100,0,0,100,600,3050)"/>
<path style="fill:none;stroke-width:0.01;stroke-linecap:butt;stroke-linejoin:miter;stroke:rgb(0%,0%,0%);stroke-opacity:1;stroke-miterlimit:10;" d="M 0.954531 0.878789 L 0.0454688 0.689375 L 0.0454688 0.121211 L 0.91668 0.272734 Z M 0.954531 0.878789 " transform="matrix(100,0,0,100,0,3200)"/>
<path style="fill:none;stroke-width:0.01;stroke-linecap:butt;stroke-linejoin:miter;stroke:rgb(0%,0%,0%);stroke-opacity:1;stroke-miterlimit:10;" d="M 0.92207 0.207773 L 0.0454687 0.272734 L 0.0454687 0.792227 L 0.954531 0.727266 Z M 0.92207 0.207773 " transform="matrix(100,0,0,100,150,3200)"/>
<path style="fill:none;stroke-width:0.01;stroke-linecap:butt;stroke-linejoin:miter;stroke:rgb(0%,0%,0%);stroke-opacity:1;stroke-miterlimit:10;" d="M 0.954531 0.242422 L 0.0757422 0.303047 L 0.0454687 0.757578 L 0.924258 0.727266 Z M 0.954531 0.242422 " transform="matrix(100,0,0,100,300,3200)"/>
<path style="fill:none;stroke-width:0.01;stroke-linecap:butt;stroke-linejoin:miter;stroke:rgb(0%,0%,0%);stroke-opacity:1;stroke-miterlimit:10;" d="M 0.929961 0.315742 L 0.0700391 0.266602 L 0.0454688 0.708828 L 0.954531 0.733398 Z M 0.929961 0.315742 " transform="matrix(100,0,0,100,450,3200)"/>
<path style="fill:none;stroke-width:0.01;stroke-linecap:butt;stroke-linejoin:miter;stroke:rgb(0%,0%,0%);stroke-opacity:1;stroke-miterlimit:10;" d="M 0.928555 0.26625 L 0.0454688 0.26625 L 0.0454688 0.73375 L 0.954531 0.73375 Z M 0.928555 0.26625 " transform="matrix(100,0,0,100,600,3200)"/>
<path style="fill:none;stroke-width:0.01;stroke-linecap:butt;stroke-linejoin:miter;stroke:rgb(0%,0%,0%);stroke-opacity:1;stroke-miterlimit:10;" d="M 0.926133 0.0454687 L 0.130664 0.272734 L 0.0738672 0.954531 L 0.926133 0.784102 Z M 0.926133 0.0454687 " transform="matrix(100,0,0,100,0,3350)"/>
<path style="fill:none;stroke-width:0.01;stroke-linecap:butt;stroke-linejoin:miter;stroke:rgb(0%,0%,0%);stroke-opacity:1;stroke-miterlimit:10;" d="M 0.0454687 0.236836 L 0.0454687 0.954531 L 0.954531 0.667461 L 0.90668 0.0454687 Z M 0.0454687 0.236836 " transform="matrix(100,0,0,100,150,3350)"/>
<path style="fill:none;stroke-width:0.01;stroke-linecap:butt;stroke-linejoin:miter;stroke:rgb(0%,0%,0%);stroke-opacity:1;stroke-miterlimit:10;" d="M 0.893945 0.136367 L 0.0454687 0.318164 L 0.0454687 0.863633 L 0.954531 0.681836 Z M 0.893945 0.136367 " transform="matrix(100,0,0,100,300,3350)"/>
<path style="fill:none;stroke-width:0.01;stroke-linecap:butt;stroke-linejoin:miter;stroke:rgb(0%,0%,0%);stroke-opacity:1;stroke-miterlimit:10;" d="M 0.929961 0.229727 L 0.0454688 0.328008 L 0.0454688 0.770273 L 0.954531 0.671992 Z M 0.929961 0.229727 " transform="matrix(100,0,0,100,450,3350)"/>
<path style="fill:none;stroke-width:0.01;stroke-linecap:butt;stroke-linejoin:miter;stroke:rgb(0%,0%,0%);stroke-opacity:1;stroke-miterlimit:10;" d="M 0.954531 0.335859 L 0.0959766 0.209609 L 0.0454688 0.664141 L 0.954531 0.790391 Z M 0.954531 0.335859 " transform="matrix(100,0,0,100,600,3350)"/>
<path style="fill:none;stroke-width:0.01;stroke-linecap:butt;stroke-linejoin:miter;stroke:rgb(0%,0%,0%);stroke-opacity:1;stroke-miterlimit:10;" d="M 0.954531 0.245469 L 0.0454688 0.463633 L 0.0454688 0.754531 L 0.918164 0.572734 Z M 0.954531 0.245469 " transform="matrix(100,0,0,100,0,3500)"/>
<path style="fill:none;stroke-width:0.01;stroke-linecap:butt;stroke-linejoin:miter;stroke:rgb(0%,0%,0%);stroke-opacity:1;stroke-miterlimit:10;" d="M 0.954531 0.25207 L 0.0867578 0.417344 L 0.0454687 0.74793 L 0.954531 0.541328 Z M 0.954531 0.25207 " transform="matrix(100,0,0,100,150,3500)"/>
<path style="fill:none;stroke-width:0.01;stroke-linecap:butt;stroke-linejoin:miter;stroke:rgb(0%,0%,0%);stroke-opacity:1;stroke-miterlimit:10;" d="M 0.954531 0.25 L 0.136367 0.431836 L 0.0454687 0.75 L 0.863633 0.613633 Z M 0.954531 0.25 " transform="matrix(100,0,0,100,300,3500)"/>
<path style="fill:none;stroke-width:0.01;stroke-linecap:butt;stroke-linejoin:miter;stroke:rgb(0%,0%,0%);stroke-opacity:1;stroke-miterlimit:10;" d="M 0.954531 0.243086 L 0.124492 0.361641 L 0.0454688 0.756914 L 0.835977 0.677852 Z M 0.954531 0.243086 " transform="matrix(100,0,0,100,450,3500)"/>
<path style="fill:none;stroke-width:0.01;stroke-linecap:butt;stroke-linejoin:miter;stroke:rgb(0%,0%,0%);stroke-opacity:1;stroke-miterlimit:10;" d="M 0.954531 0.245469 L 0.0818359 0.390898 L 0.0454688 0.754531 L 0.954531 0.645469 Z M 0.954531 0.245469 " transform="matrix(100,0,0,100,600,3500)"/>
<path style="fill:none;stroke-width:0.01;stroke-linecap:butt;stroke-linejoin:miter;stroke:rgb(0%,0%,0%);stroke-opacity:1;stroke-miterlimit:10;" d="M 0.0779297 0.370117 L 0.0454688 0.727266 L 0.954531 0.597422 L 0.954531 0.272734 Z M 0.0779297 0.370117 " transform="matrix(100,0,0,100,0,3650)"/>
<path style="fill:none;stroke-width:0.01;stroke-linecap:butt;stroke-linejoin:miter;stroke:rgb(0%,0%,0%);stroke-opacity:1;stroke-miterlimit:10;" d="M 0.954531 0.236836 L 0.0933203 0.332539 L 0.0454687 0.763164 L 0.90668 0.715313 Z M 0.954531 0.236836 " transform="matrix(100,0,0,100,150,3650)"/>
<path style="fill:none;stroke-width:0.01;stroke-linecap:butt;stroke-linejoin:miter;stroke:rgb(0%,0%,0%);stroke-opacity:1;stroke-miterlimit:10;" d="M 0.954531 0.210742 L 0.169414 0.293398 L 0.0454687 0.789258 L 0.871914 0.706602 Z M 0.954531 0.210742 " transform="matrix(100,0,0,100,300,3650)"/>
<path style="fill:none;stroke-width:0.01;stroke-linecap:butt;stroke-linejoin:miter;stroke:rgb(0%,0%,0%);stroke-opacity:1;stroke-miterlimit:10;" d="M 0.954531 0.253789 L 0.159102 0.329531 L 0.0454688 0.70832 L 0.765156 0.746211 Z M 0.954531 0.253789 " transform="matrix(100,0,0,100,450,3650)"/>
<path style="fill:none;stroke-width:0.01;stroke-linecap:butt;stroke-linejoin:miter;stroke:rgb(0%,0%,0%);stroke-opacity:1;stroke-miterlimit:10;" d="M 0.954531 0.245469 L 0.227266 0.209102 L 0.0454688 0.681836 L 0.845469 0.790898 Z M 0.954531 0.245469 " transform="matrix(100,0,0,100,600,3650)"/>
<path style="fill:none;stroke-width:0.01;stroke-linecap:butt;stroke-linejoin:miter;stroke:rgb(0%,0%,0%);stroke-opacity:1;stroke-miterlimit:10;" d="M 0.954531 0.240273 L 0.142852 0.272734 L 0.0454688 0.694805 L 0.857148 0.759727 Z M 0.954531 0.240273 " transform="matrix(100,0,0,100,0,3800)"/>
<path style="fill:none;stroke-width:0.01;stroke-linecap:butt;stroke-linejoin:miter;stroke:rgb(0%,0%,0%);stroke-opacity:1;stroke-miterlimit:10;" d="M 0.954531 0.25207 L 0.100547 0.25207 L 0.0454687 0.692852 L 0.871914 0.74793 Z M 0.954531 0.25207 " transform="matrix(100,0,0,100,150,3800)"/>
<path style="fill:none;stroke-width:0.01;stroke-linecap:butt;stroke-linejoin:miter;stroke:rgb(0%,0%,0%);stroke-opacity:1;stroke-miterlimit:10;" d="M 0.954531 0.281133 L 0.180117 0.281133 L 0.0454687 0.685195 L 0.887188 0.718867 Z M 0.954531 0.281133 " transform="matrix(100,0,0,100,300,3800)"/>
<path style="fill:none;stroke-width:0.01;stroke-linecap:butt;stroke-linejoin:miter;stroke:rgb(0%,0%,0%);stroke-opacity:1;stroke-miterlimit:10;" d="M 0.954531 0.280547 L 0.108164 0.343242 L 0.0454688 0.719453 L 0.923203 0.719453 Z M 0.954531 0.280547 " transform="matrix(100,0,0,100,450,3800)"/>
<path style="fill:none;stroke-width:0.01;stroke-linecap:butt;stroke-linejoin:miter;stroke:rgb(0%,0%,0%);stroke-opacity:1;stroke-miterlimit:10;" d="M 0.954531 0.272734 L 0.121211 0.310625 L 0.0454688 0.727266 L 0.878789 0.651523 Z M 0.954531 0.272734 " transform="matrix(100,0,0,100,600,3800)"/>
<path style="fill:none;stroke-width:0.01;stroke-linecap:butt;stroke-linejoin:miter;stroke:rgb(0%,0%,0%);stroke-opacity:1;stroke-miterlimit:10;" d="M 0.954531 0.29625 L 0.108164 0.390273 L 0.0454688 0.70375 L 0.923203 0.672422 Z M 0.954531 0.29625 " transform="matrix(100,0,0,100,0,3950)"/>
<path style="fill:none;stroke-width:0.01;stroke-linecap:butt;stroke-linejoin:miter;stroke:rgb(0%,0%,0%);stroke-opacity:1;stroke-miterlimit:10;" d="M 0.925234 0.280078 L 0.0747656 0.338711 L 0.0454687 0.719922 L 0.954531 0.661289 Z M 0.925234 0.280078 " transform="matrix(100,0,0,100,150,3950)"/>
<path style="fill:none;stroke-width:0.01;stroke-linecap:butt;stroke-linejoin:miter;stroke:rgb(0%,0%,0%);stroke-opacity:1;stroke-miterlimit:10;" d="M 0.0738672 0.329531 L 0.0454687 0.698867 L 0.926133 0.670469 L 0.954531 0.301133 Z M 0.0738672 0.329531 " transform="matrix(100,0,0,100,300,3950)"/>
<path style="fill:none;stroke-width:0.01;stroke-linecap:butt;stroke-linejoin:miter;stroke:rgb(0%,0%,0%);stroke-opacity:1;stroke-miterlimit:10;" d="M 0.0714453 0.253242 L 0.0454688 0.668828 L 0.902578 0.746758 L 0.954531 0.253242 Z M 0.0714453 0.253242 " transform="matrix(100,0,0,100,450,3950)"/>
<path style="fill:none;stroke-width:0.01;stroke-linecap:butt;stroke-linejoin:miter;stroke:rgb(0%,0%,0%);stroke-opacity:1;stroke-miterlimit:10;" d="M 0.954531 0.245977 L 0.0989453 0.0855469 L 0.0454688 0.673789 L 0.874336 0.914453 Z M 0.954531 0.245977 " transform="matrix(100,0,0,100,600,3950)"/>
<path style="fill:none;stroke-width:0.01;stroke-linecap:butt;stroke-linejoin:miter;stroke:rgb(0%,0%,0%);stroke-opacity:1;stroke-miterlimit:10;" d="M 0.954531 0.303047 L 0.196953 0.151523 L 0.0454688 0.66668 L 0.803047 0.848477 Z M 0.954531 0.303047 " transform="matrix(100,0,0,100,0,4100)"/>
<path style="fill:none;stroke-width:0.01;stroke-linecap:butt;stroke-linejoin:miter;stroke:rgb(0%,0%,0%);stroke-opacity:1;stroke-miterlimit:10;" d="M 0.954531 0.222227 L 0.146445 0.323242 L 0.0454687 0.777773 L 0.853555 0.62625 Z M 0.954531 0.222227 " transform="matrix(100,0,0,100,150,4100)"/>
<path style="fill:none;stroke-width:0.01;stroke-linecap:butt;stroke-linejoin:miter;stroke:rgb(0%,0%,0%);stroke-opacity:1;stroke-miterlimit:10;" d="M 0.954531 0.179141 L 0.152422 0.446523 L 0.0454687 0.820859 L 0.901055 0.606953 Z M 0.954531 0.179141 " transform="matrix(100,0,0,100,300,4100)"/>
<path style="fill:none;stroke-width:0.01;stroke-linecap:butt;stroke-linejoin:miter;stroke:rgb(0%,0%,0%);stroke-opacity:1;stroke-miterlimit:10;" d="M 0.954531 0.264297 L 0.247461 0.0623047 L 0.0454688 0.735703 L 0.819883 0.937695 Z M 0.954531 0.264297 " transform="matrix(100,0,0,100,450,4100)"/>
<path style="fill:none;stroke-width:0.01;stroke-linecap:butt;stroke-linejoin:miter;stroke:rgb(0%,0%,0%);stroke-opacity:1;stroke-miterlimit:10;" d="M 0.954531 0.237227 L 0.0454688 0.322461 L 0.0454688 0.720156 L 0.926133 0.762773 Z M 0.954531 0.237227 " transform="matrix(100,0,0,100,600,4100)"/>
<path style="fill:none;stroke-width:0.01;stroke-linecap:butt;stroke-linejoin:miter;stroke:rgb(0%,0%,0%);stroke-opacity:1;stroke-miterlimit:10;" d="M 0.0454688 0.345625 L 0.199844 0.551445 L 0.954531 0.654375 L 0.903086 0.448555 Z M 0.0454688 0.345625 " transform="matrix(100,0,0,100,0,4250)"/>
<path style="fill:none;stroke-width:0.01;stroke-linecap:butt;stroke-linejoin:miter;stroke:rgb(0%,0%,0%);stroke-opacity:1;stroke-miterlimit:10;" d="M 0.91125 0.478359 L 0.0454687 0.348477 L 0.132031 0.521641 L 0.954531 0.651523 Z M 0.91125 0.478359 " transform="matrix(100,0,0,100,150,4250)"/>
<path style="fill:none;stroke-width:0.01;stroke-linecap:butt;stroke-linejoin:miter;stroke:rgb(0%,0%,0%);stroke-opacity:1;stroke-miterlimit:10;" d="M 0.928555 0.487031 L 0.0454687 0.331172 L 0.0974219 0.487031 L 0.954531 0.668828 Z M 0.928555 0.487031 " transform="matrix(100,0,0,100,300,4250)"/>
<path style="fill:none;stroke-width:0.01;stroke-linecap:butt;stroke-linejoin:miter;stroke:rgb(0%,0%,0%);stroke-opacity:1;stroke-miterlimit:10;" d="M 0.103477 0.509687 L 0.0454688 0.625742 L 0.896523 0.490313 L 0.954531 0.374258 Z M 0.103477 0.509687 " transform="matrix(100,0,0,100,450,4250)"/>
<path style="fill:none;stroke-width:0.01;stroke-linecap:butt;stroke-linejoin:miter;stroke:rgb(0%,0%,0%);stroke-opacity:1;stroke-miterlimit:10;" d="M 0.0933203 0.535898 L 0.0454688 0.655508 L 0.930625 0.464102 L 0.954531 0.344492 Z M 0.0933203 0.535898 " transform="matrix(100,0,0,100,600,4250)"/>
<path style="fill:none;stroke-width:0.01;stroke-linecap:butt;stroke-linejoin:miter;stroke:rgb(0%,0%,0%);stroke-opacity:1;stroke-miterlimit:10;" d="M 0.930625 0.188984 L 0.0454688 0.284688 L 0.0454688 0.811016 L 0.954531 0.78707 Z M 0.930625 0.188984 " transform="matrix(100,0,0,100,0,4400)"/>
<path style="fill:none;stroke-width:0.01;stroke-linecap:butt;stroke-linejoin:miter;stroke:rgb(0%,0%,0%);stroke-opacity:1;stroke-miterlimit:10;" d="M 0.954531 0.248789 L 0.0454687 0.224883 L 0.0454687 0.727266 L 0.954531 0.775117 Z M 0.954531 0.248789 " transform="matrix(100,0,0,100,150,4400)"/>
<path style="fill:none;stroke-width:0.01;stroke-linecap:butt;stroke-linejoin:miter;stroke:rgb(0%,0%,0%);stroke-opacity:1;stroke-miterlimit:10;" d="M 0.927812 0.0721875 L 0.0454687 0.33957 L 0.0454687 0.927813 L 0.954531 0.767383 Z M 0.927812 0.0721875 " transform="matrix(100,0,0,100,300,4400)"/>
<path style="fill:none;stroke-width:0.01;stroke-linecap:butt;stroke-linejoin:miter;stroke:rgb(0%,0%,0%);stroke-opacity:1;stroke-miterlimit:10;" d="M 0.918164 0.190898 L 0.0454688 0.336367 L 0.0818359 0.809102 L 0.954531 0.7 Z M 0.918164 0.190898 " transform="matrix(100,0,0,100,450,4400)"/>
<path style="fill:none;stroke-width:0.01;stroke-linecap:butt;stroke-linejoin:miter;stroke:rgb(0%,0%,0%);stroke-opacity:1;stroke-miterlimit:10;" d="M 0.0454688 0.247461 L 0.0791406 0.752539 L 0.954531 0.718867 L 0.920859 0.247461 Z M 0.0454688 0.247461 " transform="matrix(100,0,0,100,600,4400)"/>
<path style="fill:none;stroke-width:0.01;stroke-linecap:butt;stroke-linejoin:miter;stroke:rgb(0%,0%,0%);stroke-opacity:1;stroke-miterlimit:10;" d="M 0.954531 0.245469 L 0.0454688 0.209102 L 0.0818359 0.790898 L 0.954531 0.790898 Z M 0.954531 0.245469 " transform="matrix(100,0,0,100,0,4550)"/>
<path style="fill:none;stroke-width:0.01;stroke-linecap:butt;stroke-linejoin:miter;stroke:rgb(0%,0%,0%);stroke-opacity:1;stroke-miterlimit:10;" d="M 0.0454687 0.738086 L 0.0454687 0.132031 L 0.954531 0.175313 L 0.91125 0.867969 Z M 0.0454687 0.738086 " transform="matrix(100,0,0,100,150,4550)"/>
<path style="fill:none;stroke-width:0.01;stroke-linecap:butt;stroke-linejoin:miter;stroke:rgb(0%,0%,0%);stroke-opacity:1;stroke-miterlimit:10;" d="M 0.91668 0.840898 L 0.0454687 0.727266 L 0.0454687 0.159102 L 0.954531 0.196953 Z M 0.91668 0.840898 " transform="matrix(100,0,0,100,300,4550)"/>
<path style="fill:none;stroke-width:0.01;stroke-linecap:butt;stroke-linejoin:miter;stroke:rgb(0%,0%,0%);stroke-opacity:1;stroke-miterlimit:10;" d="M 0.954531 0.0959766 L 0.0454688 0.297969 L 0.0454688 0.904023 L 0.954531 0.752539 Z M 0.954531 0.0959766 " transform="matrix(100,0,0,100,450,4550)"/>
<path style="fill:none;stroke-width:0.01;stroke-linecap:butt;stroke-linejoin:miter;stroke:rgb(0%,0%,0%);stroke-opacity:1;stroke-miterlimit:10;" d="M 0.954531 0.107422 L 0.0454688 0.314062 L 0.0867578 0.892578 L 0.954531 0.685938 Z M 0.954531 0.107422 " transform="matrix(100,0,0,100,600,4550)"/>
<path style="fill:none;stroke-width:0.01;stroke-linecap:butt;stroke-linejoin:miter;stroke:rgb(0%,0%,0%);stroke-opacity:1;stroke-miterlimit:10;" d="M 0.954531 0.118164 L 0.0454688 0.336367 L 0.0454688 0.881836 L 0.954531 0.7 Z M 0.954531 0.118164 " transform="matrix(100,0,0,100,0,4700)"/>
<path style="fill:none;stroke-width:0.01;stroke-linecap:butt;stroke-linejoin:miter;stroke:rgb(0%,0%,0%);stroke-opacity:1;stroke-miterlimit:10;" d="M 0.929297 0.0454687 L 0.0707031 0.297969 L 0.0707031 0.954531 L 0.929297 0.702031 Z M 0.929297 0.0454687 " transform="matrix(100,0,0,100,150,4700)"/>
<path style="fill:none;stroke-width:0.01;stroke-linecap:butt;stroke-linejoin:miter;stroke:rgb(0%,0%,0%);stroke-opacity:1;stroke-miterlimit:10;" d="M 0.954531 0.196953 L 0.0454687 0.196953 L 0.0454687 0.803047 L 0.954531 0.803047 Z M 0.954531 0.196953 " transform="matrix(100,0,0,100,300,4700)"/>
<path style="fill:none;stroke-width:0.01;stroke-linecap:butt;stroke-linejoin:miter;stroke:rgb(0%,0%,0%);stroke-opacity:1;stroke-miterlimit:10;" d="M 0.924258 0.151523 L 0.0454688 0.242422 L 0.0454688 0.848477 L 0.954531 0.787891 Z M 0.924258 0.151523 " transform="matrix(100,0,0,100,450,4700)"/>
<path style="fill:none;stroke-width:0.01;stroke-linecap:butt;stroke-linejoin:miter;stroke:rgb(0%,0%,0%);stroke-opacity:1;stroke-miterlimit:10;" d="M 0.0454688 0.236055 L 0.0454688 0.734609 L 0.925234 0.763945 L 0.954531 0.294727 Z M 0.0454688 0.236055 " transform="matrix(100,0,0,100,600,4700)"/>
<path style="fill:none;stroke-width:0.01;stroke-linecap:butt;stroke-linejoin:miter;stroke:rgb(0%,0%,0%);stroke-opacity:1;stroke-miterlimit:10;" d="M 0.90668 0.069375 L 0.0454688 0.260781 L 0.0454688 0.930625 L 0.954531 0.78707 Z M 0.90668 0.069375 " transform="matrix(100,0,0,100,0,4850)"/>
<path style="fill:none;stroke-width:0.01;stroke-linecap:butt;stroke-linejoin:miter;stroke:rgb(0%,0%,0%);stroke-opacity:1;stroke-miterlimit:10;" d="M 0.909102 0.0454687 L 0.0908984 0.272734 L 0.0908984 0.954531 L 0.909102 0.818164 Z M 0.909102 0.0454687 " transform="matrix(100,0,0,100,150,4850)"/>
<path style="fill:none;stroke-width:0.01;stroke-linecap:butt;stroke-linejoin:miter;stroke:rgb(0%,0%,0%);stroke-opacity:1;stroke-miterlimit:10;" d="M 0.0454687 0.159102 L 0.0454687 0.954531 L 0.897734 0.954531 L 0.954531 0.0454687 Z M 0.0454687 0.159102 " transform="matrix(100,0,0,100,300,4850)"/>
<path style="fill:none;stroke-width:0.01;stroke-linecap:butt;stroke-linejoin:miter;stroke:rgb(0%,0%,0%);stroke-opacity:1;stroke-miterlimit:10;" d="M 0.0454688 0.121211 L 0.0959766 0.929297 L 0.954531 0.929297 L 0.904023 0.0707031 L 0.5 0.0707031 L 0.5 0.222227 Z M 0.0454688 0.121211 " transform="matrix(100,0,0,100,450,4850)"/>
<path style="fill:none;stroke-width:0.01;stroke-linecap:butt;stroke-linejoin:miter;stroke:rgb(0%,0%,0%);stroke-opacity:1;stroke-miterlimit:10;" d="M 0.929297 0.0454687 L 0.0707031 0.146445 L 0.0707031 0.904023 L 0.929297 0.954531 Z M 0.929297 0.0454687 " transform="matrix(100,0,0,100,600,4850)"/>
<path style="fill:none;stroke-width:0.01;stroke-linecap:butt;stroke-linejoin:miter;stroke:rgb(0%,0%,0%);stroke-opacity:1;stroke-miterlimit:10;" d="M 0.901055 0.0721875 L 0.0454688 0.125664 L 0.0989453 0.767383 L 0.954531 0.927813 Z M 0.901055 0.0721875 " transform="matrix(100,0,0,100,0,5000)"/>
<path style="fill:none;stroke-width:0.01;stroke-linecap:butt;stroke-linejoin:miter;stroke:rgb(0%,0%,0%);stroke-opacity:1;stroke-miterlimit:10;" d="M 0.853555 0.222227 L 0.0454687 0.222227 L 0.0454687 0.727266 L 0.954531 0.777773 Z M 0.853555 0.222227 " transform="matrix(100,0,0,100,150,5000)"/>
<path style="fill:none;stroke-width:0.01;stroke-linecap:butt;stroke-linejoin:miter;stroke:rgb(0%,0%,0%);stroke-opacity:1;stroke-miterlimit:10;" d="M 0.913242 0.0867578 L 0.0867578 0.334727 L 0.0454687 0.913242 L 0.954531 0.789258 Z M 0.913242 0.0867578 " transform="matrix(100,0,0,100,300,5000)"/>
<path style="fill:none;stroke-width:0.01;stroke-linecap:butt;stroke-linejoin:miter;stroke:rgb(0%,0%,0%);stroke-opacity:1;stroke-miterlimit:10;" d="M 0.0454688 0.857148 L 0.0454688 0.337656 L 0.889609 0.142852 L 0.954531 0.759727 Z M 0.0454688 0.857148 " transform="matrix(100,0,0,100,450,5000)"/>
<path style="fill:none;stroke-width:0.01;stroke-linecap:butt;stroke-linejoin:miter;stroke:rgb(0%,0%,0%);stroke-opacity:1;stroke-miterlimit:10;" d="M 0.909102 0.0454687 L 0.0454688 0.227266 L 0.0454688 0.954531 L 0.954531 0.954531 Z M 0.909102 0.0454687 " transform="matrix(100,0,0,100,600,5000)"/>
<path style="fill:none;stroke-width:0.01;stroke-linecap:butt;stroke-linejoin:miter;stroke:rgb(0%,0%,0%);stroke-opacity:1;stroke-miterlimit:10;" d="M 0.875508 0.0652344 L 0.559297 0.0652344 L 0.559297 0.183789 L 0.0454688 0.22332 L 0.0454688 0.855742 L 0.598828 0.816211 L 0.598828 0.934766 L 0.954531 0.895273 Z M 0.875508 0.0652344 " transform="matrix(100,0,0,100,0,5150)"/>
<path style="fill:none;stroke-width:0.01;stroke-linecap:butt;stroke-linejoin:miter;stroke:rgb(0%,0%,0%);stroke-opacity:1;stroke-miterlimit:10;" d="M 0.840898 0.0833203 L 0.462109 0.121211 L 0.5 0.196953 L 0.0454687 0.196953 L 0.0454687 0.803047 L 0.537891 0.803047 L 0.537891 0.91668 L 0.954531 0.91668 Z M 0.840898 0.0833203 " transform="matrix(100,0,0,100,150,5150)"/>
<path style="fill:none;stroke-width:0.01;stroke-linecap:butt;stroke-linejoin:miter;stroke:rgb(0%,0%,0%);stroke-opacity:1;stroke-miterlimit:10;" d="M 0.915039 0.124492 L 0.559297 0.0849609 L 0.519766 0.243086 L 0.0454687 0.203555 L 0.0849609 0.717383 L 0.559297 0.756914 L 0.559297 0.875508 L 0.954531 0.915039 Z M 0.915039 0.124492 " transform="matrix(100,0,0,100,300,5150)"/>
<path style="fill:none;stroke-width:0.01;stroke-linecap:butt;stroke-linejoin:miter;stroke:rgb(0%,0%,0%);stroke-opacity:1;stroke-miterlimit:10;" d="M 0.91668 0.178047 L 0.0454688 0.102266 L 0.0454688 0.594687 L 0.575742 0.670469 L 0.613633 0.784102 L 0.954531 0.897734 Z M 0.91668 0.178047 " transform="matrix(100,0,0,100,450,5150)"/>
<path style="fill:none;stroke-width:0.01;stroke-linecap:butt;stroke-linejoin:miter;stroke:rgb(0%,0%,0%);stroke-opacity:1;stroke-miterlimit:10;" d="M 0.881836 0.1 L 0.554531 0.136367 L 0.554531 0.281836 L 0.0454688 0.354531 L 0.0454688 0.863633 L 0.590898 0.827266 L 0.627266 0.9 L 0.954531 0.9 Z M 0.881836 0.1 " transform="matrix(100,0,0,100,600,5150)"/>
<path style="fill:none;stroke-width:0.01;stroke-linecap:butt;stroke-linejoin:miter;stroke:rgb(0%,0%,0%);stroke-opacity:1;stroke-miterlimit:10;" d="M 0.91957 0.115391 L 0.604883 0.0804297 L 0.604883 0.255234 L 0.0454688 0.255234 L 0.0454688 0.814687 L 0.604883 0.814687 L 0.604883 0.91957 L 0.954531 0.884609 Z M 0.91957 0.115391 " transform="matrix(100,0,0,100,0,5300)"/>
<path style="fill:none;stroke-width:0.01;stroke-linecap:butt;stroke-linejoin:miter;stroke:rgb(0%,0%,0%);stroke-opacity:1;stroke-miterlimit:10;" d="M 0.954531 0.163281 L 0.617852 0.129648 L 0.617852 0.264297 L 0.0454687 0.264297 L 0.0454687 0.735703 L 0.617852 0.769375 L 0.651523 0.870352 L 0.954531 0.870352 Z M 0.954531 0.163281 " transform="matrix(100,0,0,100,150,5300)"/>
<path style="fill:none;stroke-width:0.01;stroke-linecap:butt;stroke-linejoin:miter;stroke:rgb(0%,0%,0%);stroke-opacity:1;stroke-miterlimit:10;" d="M 0.954531 0.185313 L 0.569922 0.150352 L 0.569922 0.255234 L 0.0454687 0.185313 L 0.0454687 0.639844 L 0.604883 0.674844 L 0.604883 0.814687 L 0.954531 0.849648 Z M 0.954531 0.185313 " transform="matrix(100,0,0,100,300,5300)"/>
<path style="fill:none;stroke-width:0.01;stroke-linecap:butt;stroke-linejoin:miter;stroke:rgb(0%,0%,0%);stroke-opacity:1;stroke-miterlimit:10;" d="M 0.954531 0.150352 L 0.604883 0.150352 L 0.604883 0.255234 L 0.0454688 0.185313 L 0.0804297 0.604883 L 0.604883 0.674844 L 0.639844 0.849648 L 0.954531 0.849648 Z M 0.954531 0.150352 " transform="matrix(100,0,0,100,450,5300)"/>
<path style="fill:none;stroke-width:0.01;stroke-linecap:butt;stroke-linejoin:miter;stroke:rgb(0%,0%,0%);stroke-opacity:1;stroke-miterlimit:10;" d="M 0.893945 0.0908984 L 0.590898 0.0908984 L 0.590898 0.393945 L 0.0454688 0.424258 L 0.0454688 0.818164 L 0.560625 0.818164 L 0.560625 0.909102 L 0.954531 0.909102 Z M 0.893945 0.0908984 " transform="matrix(100,0,0,100,600,5300)"/>
<path style="fill:none;stroke-width:0.01;stroke-linecap:butt;stroke-linejoin:miter;stroke:rgb(0%,0%,0%);stroke-opacity:1;stroke-miterlimit:10;" d="M 0.924258 0.136367 L 0.621211 0.16668 L 0.621211 0.318164 L 0.0454688 0.318164 L 0.0454688 0.772734 L 0.651523 0.772734 L 0.651523 0.863633 L 0.954531 0.863633 Z M 0.924258 0.136367 " transform="matrix(100,0,0,100,0,5450)"/>
<path style="fill:none;stroke-width:0.01;stroke-linecap:butt;stroke-linejoin:miter;stroke:rgb(0%,0%,0%);stroke-opacity:1;stroke-miterlimit:10;" d="M 0.920859 0.112813 L 0.617852 0.0791406 L 0.617852 0.213789 L 0.0454687 0.213789 L 0.0454687 0.685195 L 0.651523 0.718867 L 0.651523 0.920859 L 0.954531 0.920859 Z M 0.920859 0.112813 " transform="matrix(100,0,0,100,150,5450)"/>
<path style="fill:none;stroke-width:0.01;stroke-linecap:butt;stroke-linejoin:miter;stroke:rgb(0%,0%,0%);stroke-opacity:1;stroke-miterlimit:10;" d="M 0.954531 0.115391 L 0.639844 0.0804297 L 0.639844 0.220273 L 0.0454687 0.185313 L 0.0454687 0.639844 L 0.604883 0.709805 L 0.604883 0.884609 L 0.91957 0.91957 Z M 0.954531 0.115391 " transform="matrix(100,0,0,100,300,5450)"/>
<path style="fill:none;stroke-width:0.01;stroke-linecap:butt;stroke-linejoin:miter;stroke:rgb(0%,0%,0%);stroke-opacity:1;stroke-miterlimit:10;" d="M 0.954531 0.129648 L 0.685195 0.0959766 L 0.685195 0.264297 L 0.0454688 0.196953 L 0.0454688 0.634687 L 0.651523 0.735703 L 0.651523 0.904023 L 0.954531 0.904023 Z M 0.954531 0.129648 " transform="matrix(100,0,0,100,450,5450)"/>
<path style="fill:none;stroke-width:0.01;stroke-linecap:butt;stroke-linejoin:miter;stroke:rgb(0%,0%,0%);stroke-opacity:1;stroke-miterlimit:10;" d="M 0.954531 0.145234 L 0.511094 0.167422 L 0.533242 0.256094 L 0.0454688 0.322617 L 0.0454688 0.854766 L 0.511094 0.832578 L 0.954531 0.832578 Z M 0.954531 0.145234 " transform="matrix(100,0,0,100,600,5450)"/>
<path style="fill:none;stroke-width:0.01;stroke-linecap:butt;stroke-linejoin:miter;stroke:rgb(0%,0%,0%);stroke-opacity:1;stroke-miterlimit:10;" d="M 0.954531 0.156328 L 0.488906 0.156328 L 0.511094 0.200664 L 0.0454688 0.222852 L 0.0454688 0.688477 L 0.488906 0.710625 L 0.488906 0.821523 L 0.954531 0.843672 Z M 0.954531 0.156328 " transform="matrix(100,0,0,100,0,5600)"/>
<path style="fill:none;stroke-width:0.01;stroke-linecap:butt;stroke-linejoin:miter;stroke:rgb(0%,0%,0%);stroke-opacity:1;stroke-miterlimit:10;" d="M 0.954531 0.161992 L 0.488359 0.138711 L 0.488359 0.208633 L 0.06875 0.161992 L 0.0454687 0.651523 L 0.488359 0.674844 L 0.488359 0.814687 L 0.93125 0.861289 Z M 0.954531 0.161992 " transform="matrix(100,0,0,100,150,5600)"/>
<path style="fill:none;stroke-width:0.01;stroke-linecap:butt;stroke-linejoin:miter;stroke:rgb(0%,0%,0%);stroke-opacity:1;stroke-miterlimit:10;" d="M 0.932383 0.178477 L 0.0454687 0.245 L 0.0454687 0.821523 L 0.954531 0.755 Z M 0.932383 0.178477 " transform="matrix(100,0,0,100,300,5600)"/>
<path style="fill:none;stroke-width:0.01;stroke-linecap:butt;stroke-linejoin:miter;stroke:rgb(0%,0%,0%);stroke-opacity:1;stroke-miterlimit:10;" d="M 0.933867 0.221094 L 0.644609 0.20043 L 0.644609 0.241719 L 0.0454688 0.221094 L 0.0454688 0.758281 L 0.644609 0.758281 L 0.644609 0.79957 L 0.954531 0.79957 Z M 0.933867 0.221094 " transform="matrix(100,0,0,100,450,5600)"/>
<path style="fill:none;stroke-width:0.01;stroke-linecap:butt;stroke-linejoin:miter;stroke:rgb(0%,0%,0%);stroke-opacity:1;stroke-miterlimit:10;" d="M 0.932383 0.245 L 0.0676172 0.156328 L 0.0454688 0.688477 L 0.644141 0.777148 L 0.666289 0.843672 L 0.954531 0.843672 Z M 0.932383 0.245 " transform="matrix(100,0,0,100,600,5600)"/>
<path style="fill:none;stroke-width:0.01;stroke-linecap:butt;stroke-linejoin:miter;stroke:rgb(0%,0%,0%);stroke-opacity:1;stroke-miterlimit:10;" d="M 0.878789 0.171719 L 0.0454688 0.171719 L 0.0959766 0.525234 L 0.5 0.525234 L 0.525234 0.803047 L 0.954531 0.828281 L 0.954531 0.525234 Z M 0.878789 0.171719 " transform="matrix(100,0,0,100,0,5750)"/>
<path style="fill:none;stroke-width:0.01;stroke-linecap:butt;stroke-linejoin:miter;stroke:rgb(0%,0%,0%);stroke-opacity:1;stroke-miterlimit:10;" d="M 0.878789 0.184336 L 0.0454687 0.234844 L 0.0707031 0.588398 L 0.601016 0.588398 L 0.601016 0.815664 L 0.954531 0.815664 L 0.929297 0.436875 Z M 0.878789 0.184336 " transform="matrix(100,0,0,100,150,5750)"/>
<path style="fill:none;stroke-width:0.01;stroke-linecap:butt;stroke-linejoin:miter;stroke:rgb(0%,0%,0%);stroke-opacity:1;stroke-miterlimit:10;" d="M 0.0454687 0.296641 L 0.0454687 0.58375 L 0.452148 0.58375 L 0.476094 0.775117 L 0.930625 0.799062 L 0.954531 0.224883 L 0.547852 0.200938 L 0.476094 0.296641 Z M 0.0454687 0.296641 " transform="matrix(100,0,0,100,300,5750)"/>
<path style="fill:none;stroke-width:0.01;stroke-linecap:butt;stroke-linejoin:miter;stroke:rgb(0%,0%,0%);stroke-opacity:1;stroke-miterlimit:10;" d="M 0.704531 0.931836 L 0.318164 0.954531 L 0.318164 0.727266 L 0.227266 0.704531 L 0.0681641 0.636367 L 0.0454688 0.568164 L 0.0681641 0.477266 L 0.113633 0.386367 L 0.204531 0.363633 L 0.477266 0.363633 L 0.613633 0.0454687 L 0.863633 0.0908984 L 0.931836 0.181836 L 0.954531 0.386367 Z M 0.704531 0.931836 " transform="matrix(100,0,0,100,450,5750)"/>
<path style="fill:none;stroke-width:0.01;stroke-linecap:butt;stroke-linejoin:miter;stroke:rgb(0%,0%,0%);stroke-opacity:1;stroke-miterlimit:10;" d="M 0.954531 0.175313 L 0.0454688 0.142852 L 0.0454688 0.564922 L 0.207773 0.857148 L 0.92207 0.792227 L 0.889609 0.532461 Z M 0.954531 0.175313 " transform="matrix(100,0,0,100,600,5750)"/>
<path style="fill:none;stroke-width:0.01;stroke-linecap:butt;stroke-linejoin:miter;stroke:rgb(0%,0%,0%);stroke-opacity:1;stroke-miterlimit:10;" d="M 0.954531 0.124492 L 0.0454688 0.203555 L 0.124492 0.598828 L 0.243086 0.875508 L 0.915039 0.835977 L 0.915039 0.440703 Z M 0.954531 0.124492 " transform="matrix(100,0,0,100,0,5900)"/>
<path style="fill:none;stroke-width:0.01;stroke-linecap:butt;stroke-linejoin:miter;stroke:rgb(0%,0%,0%);stroke-opacity:1;stroke-miterlimit:10;" d="M 0.905391 0.14375 L 0.0454687 0.16832 L 0.0700391 0.561406 L 0.192891 0.85625 L 0.954531 0.782539 L 0.905391 0.463164 Z M 0.905391 0.14375 " transform="matrix(100,0,0,100,150,5900)"/>
<path style="fill:none;stroke-width:0.01;stroke-linecap:butt;stroke-linejoin:miter;stroke:rgb(0%,0%,0%);stroke-opacity:1;stroke-miterlimit:10;" d="M 0.866563 0.177422 L 0.0454687 0.206758 L 0.104102 0.587969 L 0.221406 0.822578 L 0.954531 0.822578 L 0.925234 0.529336 Z M 0.866563 0.177422 " transform="matrix(100,0,0,100,300,5900)"/>
<path style="fill:none;stroke-width:0.01;stroke-linecap:butt;stroke-linejoin:miter;stroke:rgb(0%,0%,0%);stroke-opacity:1;stroke-miterlimit:10;" d="M 0.954531 0.162344 L 0.0714453 0.136367 L 0.0454688 0.448047 L 0.123359 0.863633 L 0.928555 0.863633 L 0.954531 0.474023 Z M 0.954531 0.162344 " transform="matrix(100,0,0,100,450,5900)"/>
<path style="fill:none;stroke-width:0.01;stroke-linecap:butt;stroke-linejoin:miter;stroke:rgb(0%,0%,0%);stroke-opacity:1;stroke-miterlimit:10;" d="M 0.954531 0.272734 L 0.0454688 0.272734 L 0.0454688 0.651523 L 0.954531 0.727266 Z M 0.954531 0.272734 " transform="matrix(100,0,0,100,600,5900)"/>
<path style="fill:none;stroke-width:0.01;stroke-linecap:butt;stroke-linejoin:miter;stroke:rgb(0%,0%,0%);stroke-opacity:1;stroke-miterlimit:10;" d="M 0.954531 0.290195 L 0.115391 0.290195 L 0.0454688 0.639844 L 0.884609 0.709805 Z M 0.954531 0.290195 " transform="matrix(100,0,0,100,0,6050)"/>
<path style="fill:none;stroke-width:0.01;stroke-linecap:butt;stroke-linejoin:miter;stroke:rgb(0%,0%,0%);stroke-opacity:1;stroke-miterlimit:10;" d="M 0.954531 0.210742 L 0.0454687 0.210742 L 0.128086 0.789258 L 0.954531 0.789258 Z M 0.954531 0.210742 " transform="matrix(100,0,0,100,150,6050)"/>
<path style="fill:none;stroke-width:0.01;stroke-linecap:butt;stroke-linejoin:miter;stroke:rgb(0%,0%,0%);stroke-opacity:1;stroke-miterlimit:10;" d="M 0.954531 0.234844 L 0.0454687 0.234844 L 0.0454687 0.689375 L 0.954531 0.765156 Z M 0.954531 0.234844 " transform="matrix(100,0,0,100,300,6050)"/>
<path style="fill:none;stroke-width:0.01;stroke-linecap:butt;stroke-linejoin:miter;stroke:rgb(0%,0%,0%);stroke-opacity:1;stroke-miterlimit:10;" d="M 0.882773 0.41625 L 0.0454688 0.440195 L 0.165078 0.58375 L 0.954531 0.58375 Z M 0.882773 0.41625 " transform="matrix(100,0,0,100,450,6050)"/>
<path style="fill:none;stroke-width:0.01;stroke-linecap:butt;stroke-linejoin:miter;stroke:rgb(0%,0%,0%);stroke-opacity:1;stroke-miterlimit:10;" d="M 0.824688 0.08875 L 0.435078 0.132031 L 0.478359 0.391758 L 0.0454688 0.348477 L 0.08875 0.694805 L 0.478359 0.694805 L 0.521641 0.867969 L 0.954531 0.91125 Z M 0.824688 0.08875 " transform="matrix(100,0,0,100,600,6050)"/>
<path style="fill:none;stroke-width:0.01;stroke-linecap:butt;stroke-linejoin:miter;stroke:rgb(0%,0%,0%);stroke-opacity:1;stroke-miterlimit:10;" d="M 0.840898 0.367422 L 0.0454688 0.443164 L 0.178047 0.613633 L 0.954531 0.632578 Z M 0.840898 0.367422 " transform="matrix(100,0,0,100,0,6200)"/>
<path style="fill:none;stroke-width:0.01;stroke-linecap:butt;stroke-linejoin:miter;stroke:rgb(0%,0%,0%);stroke-opacity:1;stroke-miterlimit:10;" d="M 0.886367 0.397734 L 0.0454687 0.420469 L 0.136367 0.579531 L 0.954531 0.602266 Z M 0.886367 0.397734 " transform="matrix(100,0,0,100,150,6200)"/>
<path style="fill:none;stroke-width:0.01;stroke-linecap:butt;stroke-linejoin:miter;stroke:rgb(0%,0%,0%);stroke-opacity:1;stroke-miterlimit:10;" d="M 0.954531 0.290195 L 0.150352 0.290195 L 0.0454687 0.709805 L 0.954531 0.709805 Z M 0.954531 0.290195 " transform="matrix(100,0,0,100,300,6200)"/>
<path style="fill:none;stroke-width:0.01;stroke-linecap:butt;stroke-linejoin:miter;stroke:rgb(0%,0%,0%);stroke-opacity:1;stroke-miterlimit:10;" d="M 0.954531 0.255234 L 0.0454688 0.255234 L 0.0454688 0.744766 L 0.884609 0.674844 Z M 0.954531 0.255234 " transform="matrix(100,0,0,100,450,6200)"/>
<path style="fill:none;stroke-width:0.01;stroke-linecap:butt;stroke-linejoin:miter;stroke:rgb(0%,0%,0%);stroke-opacity:1;stroke-miterlimit:10;" d="M 0.897734 0.244336 L 0.0454688 0.301133 L 0.102266 0.755664 L 0.954531 0.698867 Z M 0.897734 0.244336 " transform="matrix(100,0,0,100,600,6200)"/>
<path style="fill:none;stroke-width:0.01;stroke-linecap:butt;stroke-linejoin:miter;stroke:rgb(0%,0%,0%);stroke-opacity:1;stroke-miterlimit:10;" d="M 0.954531 0.240273 L 0.0454688 0.240273 L 0.0454688 0.759727 L 0.954531 0.759727 Z M 0.954531 0.240273 " transform="matrix(100,0,0,100,0,6350)"/>
<path style="fill:none;stroke-width:0.01;stroke-linecap:butt;stroke-linejoin:miter;stroke:rgb(0%,0%,0%);stroke-opacity:1;stroke-miterlimit:10;" d="M 0.954531 0.244336 L 0.0454687 0.301133 L 0.0454687 0.755664 L 0.954531 0.698867 Z M 0.954531 0.244336 " transform="matrix(100,0,0,100,150,6350)"/>
<path style="fill:none;stroke-width:0.01;stroke-linecap:butt;stroke-linejoin:miter;stroke:rgb(0%,0%,0%);stroke-opacity:1;stroke-miterlimit:10;" d="M 0.236484 0.401172 L 0.236484 0.664687 L 0.579063 0.664687 L 0.592227 0.915039 L 0.618594 0.954531 L 0.763516 0.954531 L 0.763516 0.0454688 L 0.697617 0.0454688 L 0.697617 0.0849609 L 0.618594 0.0981641 L 0.579063 0.0981641 L 0.565859 0.401172 Z M 0.236484 0.401172 " transform="matrix(100,0,0,100,300,6350)"/>
<path style="fill:none;stroke-width:0.01;stroke-linecap:butt;stroke-linejoin:miter;stroke:rgb(0%,0%,0%);stroke-opacity:1;stroke-miterlimit:10;" d="M 0.928555 0.136367 L 0.0454688 0.136367 L 0.0714453 0.837656 L 0.850664 0.863633 L 0.954531 0.759727 Z M 0.928555 0.136367 " transform="matrix(100,0,0,100,450,6350)"/>
<path style="fill:none;stroke-width:0.01;stroke-linecap:butt;stroke-linejoin:miter;stroke:rgb(0%,0%,0%);stroke-opacity:1;stroke-miterlimit:10;" d="M 0.615781 0.937383 L 0.572891 0.954531 L 0.512852 0.885937 L 0.315625 0.885937 L 0.272734 0.91168 L 0.186953 0.817305 L 0.178398 0.757305 L 0.289883 0.0454688 L 0.349922 0.0626172 L 0.392812 0.122656 L 0.590039 0.139805 L 0.658672 0.139805 L 0.821602 0.165508 L 0.813047 0.225547 L 0.67582 0.242695 L 0.624375 0.765859 L 0.658672 0.783008 L 0.718711 0.817305 L 0.744414 0.817305 L 0.735859 0.894492 L 0.641523 0.894492 Z M 0.615781 0.937383 " transform="matrix(100,0,0,100,600,6350)"/>
<path style="fill:none;stroke-width:0.01;stroke-linecap:butt;stroke-linejoin:miter;stroke:rgb(0%,0%,0%);stroke-opacity:1;stroke-miterlimit:10;" d="M 0.604883 0.360156 L 0.272734 0.377617 L 0.272734 0.569922 L 0.604883 0.534961 L 0.622383 0.91957 L 0.727266 0.954531 L 0.727266 0.0454687 L 0.604883 0.0629297 Z M 0.604883 0.360156 " transform="matrix(100,0,0,100,0,6500)"/>
<path style="fill:none;stroke-width:0.01;stroke-linecap:butt;stroke-linejoin:miter;stroke:rgb(0%,0%,0%);stroke-opacity:1;stroke-miterlimit:10;" d="M 0.708516 0.321914 L 0.717891 0.767109 L 0.703828 0.954531 L 0.450781 0.949844 L 0.427383 0.912383 L 0.408633 0.870195 L 0.399258 0.846758 L 0.39457 0.809297 L 0.408633 0.762422 L 0.418008 0.743672 L 0.441406 0.738984 L 0.539844 0.743672 L 0.535156 0.724922 L 0.43207 0.720234 L 0.399258 0.696797 L 0.371133 0.659336 L 0.35707 0.603086 L 0.352383 0.570273 L 0.352383 0.528125 L 0.371133 0.471875 L 0.507031 0.471875 L 0.497656 0.44375 L 0.37582 0.453125 L 0.35707 0.434414 L 0.33832 0.401602 L 0.31957 0.373477 L 0.305547 0.331289 L 0.296172 0.242266 L 0.300859 0.195391 L 0.314883 0.153242 L 0.324258 0.134492 L 0.460156 0.134492 L 0.464844 0.10168 L 0.324258 0.111055 L 0.300859 0.0923047 L 0.286797 0.0641797 L 0.282109 0.0501563 L 0.685117 0.0501563 L 0.699141 0.0454687 Z M 0.708516 0.321914 " transform="matrix(100,0,0,100,150,6500)"/>
<path style="fill:none;stroke-width:0.01;stroke-linecap:butt;stroke-linejoin:miter;stroke:rgb(0%,0%,0%);stroke-opacity:1;stroke-miterlimit:10;" d="M 0.788477 0.430078 L 0.823438 0.954531 L 0.263984 0.954531 L 0.176563 0.0454687 L 0.613633 0.0804297 L 0.788477 0.0804297 Z M 0.788477 0.430078 " transform="matrix(100,0,0,100,300,6500)"/>
<path style="fill:none;stroke-width:0.01;stroke-linecap:butt;stroke-linejoin:miter;stroke:rgb(0%,0%,0%);stroke-opacity:1;stroke-miterlimit:10;" d="M 0.168711 0.399844 L 0.168711 0.646367 L 0.569336 0.646367 L 0.569336 0.954531 L 0.831289 0.939141 L 0.815859 0.0762891 L 0.800469 0.0454687 L 0.569336 0.0608594 L 0.569336 0.399844 Z M 0.168711 0.399844 " transform="matrix(100,0,0,100,450,6500)"/>
<path style="fill:none;stroke-width:0.01;stroke-linecap:butt;stroke-linejoin:miter;stroke:rgb(0%,0%,0%);stroke-opacity:1;stroke-miterlimit:10;" d="M 0.778789 0.954531 L 0.572734 0.954531 L 0.548477 0.918164 L 0.548477 0.712109 L 0.23332 0.712109 L 0.23332 0.663633 L 0.281836 0.627266 L 0.306055 0.627266 L 0.306055 0.603047 L 0.269687 0.578789 L 0.245469 0.554531 L 0.23332 0.493945 L 0.23332 0.457578 L 0.293945 0.421211 L 0.318164 0.409102 L 0.293945 0.384844 L 0.257578 0.360625 L 0.23332 0.348477 L 0.221211 0.324258 L 0.23332 0.3 L 0.560625 0.3 L 0.572734 0.0696875 L 0.596953 0.0575781 L 0.778789 0.0454687 L 0.778789 0.0939453 Z M 0.778789 0.954531 " transform="matrix(100,0,0,100,600,6500)"/>
<path style="fill:none;stroke-width:0.01;stroke-linecap:butt;stroke-linejoin:miter;stroke:rgb(0%,0%,0%);stroke-opacity:1;stroke-miterlimit:10;" d="M 0.594414 0.124492 L 0.546133 0.0454687 L 0.423125 0.0498438 L 0.405586 0.901836 L 0.436328 0.954531 L 0.563672 0.954531 Z M 0.594414 0.124492 " transform="matrix(100,0,0,100,0,6650)"/>
<path style="fill:none;stroke-width:0.01;stroke-linecap:butt;stroke-linejoin:miter;stroke:rgb(0%,0%,0%);stroke-opacity:1;stroke-miterlimit:10;" d="M 0.573047 0.150977 L 0.536523 0.0576172 L 0.520273 0.0454687 L 0.418828 0.0535547 L 0.418828 0.950469 L 0.540586 0.954531 L 0.573047 0.950469 L 0.581172 0.727266 Z M 0.573047 0.150977 " transform="matrix(100,0,0,100,150,6650)"/>
<path style="fill:none;stroke-width:0.01;stroke-linecap:butt;stroke-linejoin:miter;stroke:rgb(0%,0%,0%);stroke-opacity:1;stroke-miterlimit:10;" d="M 0.794102 0.936719 L 0.348477 0.954531 L 0.205898 0.0454687 L 0.722812 0.0632813 Z M 0.794102 0.936719 " transform="matrix(100,0,0,100,300,6650)"/>
<path style="fill:none;stroke-width:0.01;stroke-linecap:butt;stroke-linejoin:miter;stroke:rgb(0%,0%,0%);stroke-opacity:1;stroke-miterlimit:10;" d="M 0.256484 0.92207 L 0.711055 0.92207 L 0.840898 0.954531 L 0.873359 0.889609 L 0.808438 0.0779297 L 0.646094 0.0454687 L 0.126641 0.0454687 Z M 0.256484 0.92207 " transform="matrix(100,0,0,100,450,6650)"/>
<path style="fill:none;stroke-width:0.01;stroke-linecap:butt;stroke-linejoin:miter;stroke:rgb(0%,0%,0%);stroke-opacity:1;stroke-miterlimit:10;" d="M 0.814687 0.832148 L 0.954531 0.587422 L 0.954531 0.167852 L 0.220273 0.132852 L 0.0454688 0.4825 L 0.0804297 0.867148 Z M 0.814687 0.832148 " transform="matrix(100,0,0,100,600,6650)"/>
<path style="fill:none;stroke-width:0.01;stroke-linecap:butt;stroke-linejoin:miter;stroke:rgb(0%,0%,0%);stroke-opacity:1;stroke-miterlimit:10;" d="M 0.782539 0.733398 L 0.954531 0.512266 L 0.954531 0.266602 L 0.192891 0.266602 L 0.0454688 0.364883 L 0.0700391 0.733398 Z M 0.782539 0.733398 " transform="matrix(100,0,0,100,0,6800)"/>
<path style="fill:none;stroke-width:0.01;stroke-linecap:butt;stroke-linejoin:miter;stroke:rgb(0%,0%,0%);stroke-opacity:1;stroke-miterlimit:10;" d="M 0.446094 0.0814063 L 0.446094 0.950937 L 0.539531 0.954531 L 0.553906 0.954531 L 0.546719 0.0490625 L 0.446094 0.0454687 Z M 0.446094 0.0814063 " transform="matrix(100,0,0,100,150,6800)"/>
<path style="fill:none;stroke-width:0.01;stroke-linecap:butt;stroke-linejoin:miter;stroke:rgb(0%,0%,0%);stroke-opacity:1;stroke-miterlimit:10;" d="M 0.348477 0.234844 L 0.159102 0.310625 L 0.0833203 0.424258 L 0.0454687 0.689375 L 0.121211 0.765156 L 0.310625 0.91668 L 0.689375 0.954531 L 0.840898 0.954531 L 0.91668 0.840898 L 0.954531 0.159102 L 0.878789 0.0454687 L 0.803047 0.159102 L 0.651523 0.272734 Z M 0.348477 0.234844 " transform="matrix(100,0,0,100,300,6800)"/>
<path style="fill:none;stroke-width:0.01;stroke-linecap:butt;stroke-linejoin:miter;stroke:rgb(0%,0%,0%);stroke-opacity:1;stroke-miterlimit:10;" d="M 0.372734 0.736367 L 0.0818359 0.736367 L 0.0454688 0.590898 L 0.154531 0.445469 L 0.190898 0.372734 L 0.518164 0.409102 L 0.590898 0.227266 L 0.918164 0.227266 L 0.954531 0.3 L 0.772734 0.772734 Z M 0.372734 0.736367 " transform="matrix(100,0,0,100,450,6800)"/>
<path style="fill:none;stroke-width:0.01;stroke-linecap:butt;stroke-linejoin:miter;stroke:rgb(0%,0%,0%);stroke-opacity:1;stroke-miterlimit:10;" d="M 0.0454688 0.411602 L 0.0454688 0.638906 L 0.398984 0.613633 L 0.424258 0.689375 L 0.651523 0.689375 L 0.727266 0.638906 L 0.853555 0.537891 L 0.954531 0.512617 L 0.878789 0.462109 L 0.752539 0.411602 L 0.676758 0.335859 L 0.424258 0.310625 L 0.398984 0.361094 L 0.398984 0.411602 Z M 0.0454688 0.411602 " transform="matrix(100,0,0,100,600,6800)"/>
<path style="fill:none;stroke-width:0.01;stroke-linecap:butt;stroke-linejoin:miter;stroke:rgb(0%,0%,0%);stroke-opacity:1;stroke-miterlimit:10;" d="M 0.514648 0.294727 L 0.0454688 0.294727 L 0.0454688 0.734609 L 0.543984 0.734609 L 0.543984 0.851914 L 0.895898 0.851914 L 0.954531 0.236055 L 0.80793 0.148086 Z M 0.514648 0.294727 " transform="matrix(100,0,0,100,0,6950)"/>
<path style="fill:none;stroke-width:0.01;stroke-linecap:butt;stroke-linejoin:miter;stroke:rgb(0%,0%,0%);stroke-opacity:1;stroke-miterlimit:10;" d="M 0.913242 0.778906 L 0.85125 0.861563 L 0.520664 0.840898 L 0.520664 0.530977 L 0.0661328 0.510312 L 0.0454687 0.179766 L 0.809922 0.20043 L 0.954531 0.138437 Z M 0.913242 0.778906 " transform="matrix(100,0,0,100,150,6950)"/>
<path style="fill:none;stroke-width:0.01;stroke-linecap:butt;stroke-linejoin:miter;stroke:rgb(0%,0%,0%);stroke-opacity:1;stroke-miterlimit:10;" d="M 0.866563 0.0747656 L 0.0454687 0.133437 L 0.104102 0.749258 L 0.368047 0.749258 L 0.368047 0.925234 L 0.895898 0.895898 L 0.954531 0.690625 Z M 0.866563 0.0747656 " transform="matrix(100,0,0,100,300,6950)"/>
<path style="fill:none;stroke-width:0.01;stroke-linecap:butt;stroke-linejoin:miter;stroke:rgb(0%,0%,0%);stroke-opacity:1;stroke-miterlimit:10;" d="M 0.92207 0.0454687 L 0.727266 0.0779297 L 0.662344 0.142852 L 0.0454688 0.142852 L 0.110391 0.727266 L 0.337656 0.727266 L 0.337656 0.954531 L 0.92207 0.954531 L 0.954531 0.727266 Z M 0.92207 0.0454687 " transform="matrix(100,0,0,100,450,6950)"/>
<path style="fill:none;stroke-width:0.01;stroke-linecap:butt;stroke-linejoin:miter;stroke:rgb(0%,0%,0%);stroke-opacity:1;stroke-miterlimit:10;" d="M 0.59207 0.0454687 L 0.40793 0.0569531 L 0.384922 0.114492 L 0.40793 0.241094 L 0.315898 0.241094 L 0.396445 0.735898 L 0.476992 0.735898 L 0.511523 0.943047 L 0.661094 0.954531 L 0.684102 0.850977 Z M 0.59207 0.0454687 " transform="matrix(100,0,0,100,600,6950)"/>
<path style="fill:none;stroke-width:0.01;stroke-linecap:butt;stroke-linejoin:miter;stroke:rgb(0%,0%,0%);stroke-opacity:1;stroke-miterlimit:10;" d="M 0.840898 0.0833203 L 0.0454688 0.121211 L 0.121211 0.537891 L 0.424258 0.575742 L 0.424258 0.91668 L 0.91668 0.878789 L 0.954531 0.575742 Z M 0.840898 0.0833203 " transform="matrix(100,0,0,100,0,7100)"/>
<path style="fill:none;stroke-width:0.01;stroke-linecap:butt;stroke-linejoin:miter;stroke:rgb(0%,0%,0%);stroke-opacity:1;stroke-miterlimit:10;" d="M 0.867969 0.110391 L 0.0454687 0.110391 L 0.08875 0.5 L 0.435078 0.543281 L 0.435078 0.889609 L 0.91125 0.889609 L 0.954531 0.586562 Z M 0.867969 0.110391 " transform="matrix(100,0,0,100,150,7100)"/>
<path style="fill:none;stroke-width:0.01;stroke-linecap:butt;stroke-linejoin:miter;stroke:rgb(0%,0%,0%);stroke-opacity:1;stroke-miterlimit:10;" d="M 0.954531 0.159102 L 0.0454687 0.159102 L 0.0908984 0.613633 L 0.454531 0.613633 L 0.5 0.840898 L 0.863633 0.840898 L 0.909102 0.613633 Z M 0.954531 0.159102 " transform="matrix(100,0,0,100,300,7100)"/>
<path style="fill:none;stroke-width:0.01;stroke-linecap:butt;stroke-linejoin:miter;stroke:rgb(0%,0%,0%);stroke-opacity:1;stroke-miterlimit:10;" d="M 0.891836 0.0611328 L 0.0454688 0.123828 L 0.0767969 0.750781 L 0.390273 0.750781 L 0.421641 0.907539 L 0.923203 0.938867 L 0.954531 0.750781 Z M 0.891836 0.0611328 " transform="matrix(100,0,0,100,450,7100)"/>
<path style="fill:none;stroke-width:0.01;stroke-linecap:butt;stroke-linejoin:miter;stroke:rgb(0%,0%,0%);stroke-opacity:1;stroke-miterlimit:10;" d="M 0.91125 0.08875 L 0.0454688 0.08875 L 0.0454688 0.521641 L 0.521641 0.608242 L 0.521641 0.867969 L 0.954531 0.91125 Z M 0.91125 0.08875 " transform="matrix(100,0,0,100,600,7100)"/>
<path style="fill:none;stroke-width:0.01;stroke-linecap:butt;stroke-linejoin:miter;stroke:rgb(0%,0%,0%);stroke-opacity:1;stroke-miterlimit:10;" d="M 0.62625 0.0454687 L 0.306406 0.0454687 L 0.37375 0.786211 L 0.491602 0.769375 L 0.508398 0.954531 L 0.693594 0.954531 Z M 0.62625 0.0454687 " transform="matrix(100,0,0,100,0,7250)"/>
<path style="fill:none;stroke-width:0.01;stroke-linecap:butt;stroke-linejoin:miter;stroke:rgb(0%,0%,0%);stroke-opacity:1;stroke-miterlimit:10;" d="M 0.763945 0.0454687 L 0.382695 0.0601172 L 0.353359 0.133437 L 0.19207 0.148086 L 0.221406 0.236055 L 0.104102 0.250742 L 0.148086 0.412031 L 0.280078 0.412031 L 0.294727 0.5 L 0.353359 0.529336 L 0.470664 0.822578 L 0.514648 0.925234 L 0.837227 0.954531 L 0.895898 0.631953 Z M 0.763945 0.0454687 " transform="matrix(100,0,0,100,150,7250)"/>
<path style="fill:none;stroke-width:0.01;stroke-linecap:butt;stroke-linejoin:miter;stroke:rgb(0%,0%,0%);stroke-opacity:1;stroke-miterlimit:10;" d="M 0.803047 0.0454687 L 0.404297 0.0773437 L 0.372422 0.188984 L 0.149141 0.188984 L 0.276719 0.715312 L 0.452148 0.73125 L 0.452148 0.954531 L 0.850859 0.954531 L 0.850859 0.603672 Z M 0.803047 0.0454687 " transform="matrix(100,0,0,100,300,7250)"/>
<path style="fill:none;stroke-width:0.01;stroke-linecap:butt;stroke-linejoin:miter;stroke:rgb(0%,0%,0%);stroke-opacity:1;stroke-miterlimit:10;" d="M 0.954531 0.331172 L 0.885273 0.313867 L 0.876641 0.339844 L 0.720781 0.339844 L 0.720781 0.3225 L 0.712109 0.374453 L 0.0454688 0.374453 L 0.0800781 0.660156 L 0.686133 0.660156 L 0.686133 0.6775 L 0.83332 0.686133 L 0.83332 0.668828 L 0.867969 0.668828 L 0.919922 0.616875 Z M 0.954531 0.331172 " transform="matrix(100,0,0,100,450,7250)"/>
<path style="fill:none;stroke-width:0.01;stroke-linecap:butt;stroke-linejoin:miter;stroke:rgb(0%,0%,0%);stroke-opacity:1;stroke-miterlimit:10;" d="M 0.485781 0.0454687 L 0.355117 0.0454687 L 0.34375 0.0966016 L 0.394883 0.3125 L 0.394883 0.369336 L 0.400586 0.392031 L 0.485781 0.784102 L 0.514219 0.795469 L 0.548281 0.954531 L 0.65625 0.954531 L 0.622148 0.778398 L 0.610781 0.806836 L 0.525586 0.380664 L 0.542617 0.340898 Z M 0.485781 0.0454687 " transform="matrix(100,0,0,100,600,7250)"/>
<path style="fill:none;stroke-width:0.01;stroke-linecap:butt;stroke-linejoin:miter;stroke:rgb(0%,0%,0%);stroke-opacity:1;stroke-miterlimit:10;" d="M 0.954531 0.750586 L 0.896289 0.820508 L 0.838008 0.832148 L 0.52332 0.820508 L 0.52332 0.727266 L 0.208633 0.738945 L 0.150352 0.715625 L 0.0804297 0.645703 L 0.0454688 0.564102 L 0.0454688 0.412578 L 0.06875 0.342656 L 0.127031 0.272734 L 0.196953 0.261055 L 0.255234 0.261055 L 0.5 0.237773 L 0.5 0.179492 L 0.791367 0.179492 L 0.896289 0.167852 L 0.93125 0.179492 L 0.942891 0.249414 Z M 0.954531 0.750586 " transform="matrix(100,0,0,100,0,7400)"/>
<path style="fill:none;stroke-width:0.01;stroke-linecap:butt;stroke-linejoin:miter;stroke:rgb(0%,0%,0%);stroke-opacity:1;stroke-miterlimit:10;" d="M 0.917695 0.0823047 L 0.549141 0.0700391 L 0.5 0.11918 L 0.5 0.156016 L 0.180586 0.14375 L 0.131445 0.16832 L 0.0823047 0.205156 L 0.0577344 0.266602 L 0.0454687 0.328008 L 0.0454687 0.536836 L 0.0700391 0.598281 L 0.0946094 0.659688 L 0.14375 0.721133 L 0.217461 0.757969 L 0.52457 0.757969 L 0.52457 0.905391 L 0.893125 0.929961 L 0.954531 0.819414 L 0.942266 0.14375 Z M 0.917695 0.0823047 " transform="matrix(100,0,0,100,150,7400)"/>
<path style="fill:none;stroke-width:0.01;stroke-linecap:butt;stroke-linejoin:miter;stroke:rgb(0%,0%,0%);stroke-opacity:1;stroke-miterlimit:10;" d="M 0.90332 0.186289 L 0.544805 0.160703 L 0.493594 0.224727 L 0.173477 0.199102 L 0.122266 0.211914 L 0.0838672 0.250313 L 0.0582422 0.327148 L 0.0454687 0.378359 L 0.0454687 0.42957 L 0.0710547 0.480781 L 0.109492 0.544805 L 0.135078 0.57043 L 0.186289 0.583242 L 0.250313 0.608828 L 0.314336 0.621641 L 0.416758 0.621641 L 0.531992 0.634453 L 0.519219 0.749688 L 0.531992 0.813711 L 0.890508 0.839297 L 0.928945 0.775273 L 0.954531 0.724063 L 0.941758 0.263125 Z M 0.90332 0.186289 " transform="matrix(100,0,0,100,300,7400)"/>
<path style="fill:none;stroke-width:0.01;stroke-linecap:butt;stroke-linejoin:miter;stroke:rgb(0%,0%,0%);stroke-opacity:1;stroke-miterlimit:10;" d="M 0.592773 0.0454687 L 0.351562 0.0454687 L 0.333008 0.954531 L 0.592773 0.935977 L 0.648438 0.880352 L 0.666992 0.175313 Z M 0.592773 0.0454687 " transform="matrix(100,0,0,100,450,7400)"/>
<path style="fill:none;stroke-width:0.01;stroke-linecap:butt;stroke-linejoin:miter;stroke:rgb(0%,0%,0%);stroke-opacity:1;stroke-miterlimit:10;" d="M 0.646367 0.10707 L 0.569336 0.0454687 L 0.338203 0.0608594 L 0.338203 0.954531 L 0.569336 0.954531 L 0.661797 0.89293 L 0.615547 0.831289 L 0.630977 0.214961 Z M 0.646367 0.10707 " transform="matrix(100,0,0,100,600,7400)"/>
<path style="fill:none;stroke-width:0.01;stroke-linecap:butt;stroke-linejoin:miter;stroke:rgb(0%,0%,0%);stroke-opacity:1;stroke-miterlimit:10;" d="M 0.690078 0.838828 L 0.607422 0.805781 L 0.623984 0.194219 L 0.673555 0.161172 L 0.574375 0.0785156 L 0.326445 0.0454687 L 0.309922 0.954531 L 0.590898 0.938008 L 0.607422 0.904961 Z M 0.690078 0.838828 " transform="matrix(100,0,0,100,0,7550)"/>
</g>
</svg>
