<?xml version="1.0" encoding="UTF-8"?>
<svg xmlns="http://www.w3.org/2000/svg" xmlns:xlink="http://www.w3.org/1999/xlink" width="750pt" height="10000pt" viewBox="0 0 750 10000" version="1.1">
<g id="surface1">
<path style="fill:none;stroke-width:0.01;stroke-linecap:butt;stroke-linejoin:miter;stroke:rgb(0%,0%,0%);stroke-opacity:1;stroke-miterlimit:10;" d="M 0.642031 0.0454687 L 0.642031 0.727266 L 0.528398 0.954531 L 0.414766 0.556836 L 0.357969 0.443164 L 0.414766 0.215898 Z M 0.642031 0.0454687 " transform="matrix(100,0,0,100,0,200)"/>
<path style="fill:none;stroke-width:0.01;stroke-linecap:butt;stroke-linejoin:miter;stroke:rgb(0%,0%,0%);stroke-opacity:1;stroke-miterlimit:10;" d="M 0.582656 0.0454687 L 0.582656 0.954531 L 0.417344 0.954531 L 0.417344 0.376016 Z M 0.582656 0.0454687 " transform="matrix(100,0,0,100,150,200)"/>
<path style="fill:none;stroke-width:0.01;stroke-linecap:butt;stroke-linejoin:miter;stroke:rgb(0%,0%,0%);stroke-opacity:1;stroke-miterlimit:10;" d="M 0.5 0.954531 L 0.272734 0.613633 L 0.272734 0.0454687 L 0.5 0.159102 L 0.727266 0.613633 Z M 0.5 0.954531 " transform="matrix(100,0,0,100,300,200)"/>
<path style="fill:none;stroke-width:0.01;stroke-linecap:butt;stroke-linejoin:miter;stroke:rgb(0%,0%,0%);stroke-opacity:1;stroke-miterlimit:10;" d="M 0.480938 0.0998828 L 0.578945 0.197891 L 0.595273 0.225078 L 0.6225 0.758555 L 0.611602 0.943672 L 0.578945 0.954531 L 0.535391 0.949102 L 0.535391 0.807578 L 0.513594 0.617031 L 0.519063 0.535391 L 0.497266 0.535391 L 0.486406 0.568047 L 0.502734 0.611602 L 0.464609 0.62793 L 0.426523 0.617031 L 0.3775 0.584375 L 0.399297 0.573477 L 0.437383 0.600703 L 0.453711 0.595273 L 0.45918 0.562617 L 0.431953 0.54082 L 0.399297 0.529922 L 0.404727 0.502734 L 0.415625 0.486406 L 0.448281 0.480938 L 0.453711 0.470078 L 0.448281 0.235977 L 0.442852 0.0998828 L 0.442852 0.0944531 L 0.421055 0.078125 L 0.442852 0.0672266 L 0.470078 0.0672266 L 0.508164 0.0617969 L 0.535391 0.0563281 L 0.573477 0.0454687 L 0.578945 0.0563281 L 0.578945 0.0726563 L 0.557148 0.0944531 L 0.524492 0.0944531 Z M 0.480938 0.0998828 " transform="matrix(100,0,0,100,450,200)"/>
<path style="fill:none;stroke-width:0.01;stroke-linecap:butt;stroke-linejoin:miter;stroke:rgb(0%,0%,0%);stroke-opacity:1;stroke-miterlimit:10;" d="M 0.181836 0.0974219 L 0.31168 0.0844141 L 0.493516 0.0584375 L 0.610391 0.0454687 L 0.68832 0.0584375 L 0.818164 0.18832 L 0.818164 0.954531 L 0.68832 0.798711 L 0.480508 0.512969 L 0.389609 0.383125 L 0.298711 0.214297 L 0.272734 0.123359 Z M 0.181836 0.0974219 " transform="matrix(100,0,0,100,600,200)"/>
<path style="fill:none;stroke-width:0.01;stroke-linecap:butt;stroke-linejoin:miter;stroke:rgb(0%,0%,0%);stroke-opacity:1;stroke-miterlimit:10;" d="M 0.878789 0.0454687 L 0.878789 0.954531 L 0.727266 0.954531 L 0.651523 0.651523 L 0.121211 0.651523 L 0.575742 0.196953 Z M 0.878789 0.0454687 " transform="matrix(100,0,0,100,0,350)"/>
<path style="fill:none;stroke-width:0.01;stroke-linecap:butt;stroke-linejoin:miter;stroke:rgb(0%,0%,0%);stroke-opacity:1;stroke-miterlimit:10;" d="M 0.954531 0.550508 L 0.853555 0.853555 L 0.550508 0.752539 L 0.0454687 0.550508 L 0.247461 0.247461 L 0.550508 0.146445 L 0.954531 0.146445 Z M 0.954531 0.550508 " transform="matrix(100,0,0,100,150,350)"/>
<path style="fill:none;stroke-width:0.01;stroke-linecap:butt;stroke-linejoin:miter;stroke:rgb(0%,0%,0%);stroke-opacity:1;stroke-miterlimit:10;" d="M 0.727266 0.954531 L 0.575742 0.424258 L 0.348477 0.575742 L 0.196953 0.651523 L 0.121211 0.272734 L 0.196953 0.0454687 L 0.803047 0.0454687 L 0.803047 0.272734 L 0.878789 0.5 L 0.803047 0.651523 Z M 0.727266 0.954531 " transform="matrix(100,0,0,100,300,350)"/>
<path style="fill:none;stroke-width:0.01;stroke-linecap:butt;stroke-linejoin:miter;stroke:rgb(0%,0%,0%);stroke-opacity:1;stroke-miterlimit:10;" d="M 0.824688 0.240273 L 0.954531 0.889609 L 0.435078 0.889609 L 0.305195 0.629883 L 0.0454688 0.370117 L 0.305195 0.110391 Z M 0.824688 0.240273 " transform="matrix(100,0,0,100,450,350)"/>
<path style="fill:none;stroke-width:0.01;stroke-linecap:butt;stroke-linejoin:miter;stroke:rgb(0%,0%,0%);stroke-opacity:1;stroke-miterlimit:10;" d="M 0.601016 0.247461 L 0.651523 0.601016 L 0.702031 0.853555 L 0.702031 0.954531 L 0.449492 0.954531 L 0.297969 0.803047 L 0.297969 0.449492 L 0.348477 0.0959766 L 0.5 0.0454687 Z M 0.601016 0.247461 " transform="matrix(100,0,0,100,600,350)"/>
<path style="fill:none;stroke-width:0.01;stroke-linecap:butt;stroke-linejoin:miter;stroke:rgb(0%,0%,0%);stroke-opacity:1;stroke-miterlimit:10;" d="M 0.681836 0.0454688 L 0.681836 0.954531 L 0.5 0.772734 L 0.409102 0.5 L 0.318164 0.227266 Z M 0.681836 0.0454688 " transform="matrix(100,0,0,100,0,500)"/>
<path style="fill:none;stroke-width:0.01;stroke-linecap:butt;stroke-linejoin:miter;stroke:rgb(0%,0%,0%);stroke-opacity:1;stroke-miterlimit:10;" d="M 0.578672 0.954531 L 0.578672 0.797187 L 0.543711 0.709805 L 0.316445 0.657344 L 0.526211 0.674844 L 0.543711 0.657344 L 0.50875 0.604883 L 0.526211 0.552461 L 0.473789 0.4825 L 0.456289 0.465039 L 0.229023 0.395117 L 0.421328 0.412578 L 0.456289 0.412578 L 0.438828 0.377617 L 0.438828 0.132852 L 0.386367 0.0454688 L 0.438828 0.0804297 L 0.526211 0.115391 L 0.561172 0.115391 L 0.613633 0.167852 L 0.666094 0.325156 L 0.701055 0.395117 L 0.736016 0.5 L 0.770977 0.727266 L 0.770977 0.762227 L 0.718516 0.91957 Z M 0.578672 0.954531 " transform="matrix(100,0,0,100,150,500)"/>
<path style="fill:none;stroke-width:0.01;stroke-linecap:butt;stroke-linejoin:miter;stroke:rgb(0%,0%,0%);stroke-opacity:1;stroke-miterlimit:10;" d="M 0.550508 0.0454688 L 0.550508 0.398984 L 0.601016 0.853555 L 0.550508 0.954531 L 0.449492 0.904023 L 0.398984 0.702031 L 0.398984 0.146445 Z M 0.550508 0.0454688 " transform="matrix(100,0,0,100,300,500)"/>
<path style="fill:none;stroke-width:0.01;stroke-linecap:butt;stroke-linejoin:miter;stroke:rgb(0%,0%,0%);stroke-opacity:1;stroke-miterlimit:10;" d="M 0.5 0.0454688 L 0.613633 0.954531 L 0.386367 0.954531 L 0.386367 0.840898 Z M 0.5 0.0454688 " transform="matrix(100,0,0,100,450,500)"/>
<path style="fill:none;stroke-width:0.01;stroke-linecap:butt;stroke-linejoin:miter;stroke:rgb(0%,0%,0%);stroke-opacity:1;stroke-miterlimit:10;" d="M 0.537891 0.0454688 L 0.613633 0.954531 L 0.462109 0.954531 L 0.386367 0.5 Z M 0.537891 0.0454688 " transform="matrix(100,0,0,100,600,500)"/>
<path style="fill:none;stroke-width:0.01;stroke-linecap:butt;stroke-linejoin:miter;stroke:rgb(0%,0%,0%);stroke-opacity:1;stroke-miterlimit:10;" d="M 0.419805 0.0454688 L 0.580195 0.847578 L 0.473281 0.954531 Z M 0.419805 0.0454688 " transform="matrix(100,0,0,100,0,650)"/>
<path style="fill:none;stroke-width:0.01;stroke-linecap:butt;stroke-linejoin:miter;stroke:rgb(0%,0%,0%);stroke-opacity:1;stroke-miterlimit:10;" d="M 0.702031 0.550508 L 0.601016 0.853555 L 0.398984 0.954531 L 0.297969 0.752539 L 0.297969 0.449492 L 0.398984 0.146445 L 0.601016 0.0454688 Z M 0.702031 0.550508 " transform="matrix(100,0,0,100,150,650)"/>
<path style="fill:none;stroke-width:0.01;stroke-linecap:butt;stroke-linejoin:miter;stroke:rgb(0%,0%,0%);stroke-opacity:1;stroke-miterlimit:10;" d="M 0.954531 0.409102 L 0.772734 0.954531 L 0.0454687 0.590898 L 0.590898 0.0454688 Z M 0.954531 0.409102 " transform="matrix(100,0,0,100,300,650)"/>
<path style="fill:none;stroke-width:0.01;stroke-linecap:butt;stroke-linejoin:miter;stroke:rgb(0%,0%,0%);stroke-opacity:1;stroke-miterlimit:10;" d="M 0.954531 0.590898 L 0.590898 0.863633 L 0.227266 0.772734 L 0.0454688 0.5 L 0.0454688 0.227266 L 0.409102 0.136367 L 0.681836 0.227266 L 0.954531 0.227266 Z M 0.954531 0.590898 " transform="matrix(100,0,0,100,450,650)"/>
<path style="fill:none;stroke-width:0.01;stroke-linecap:butt;stroke-linejoin:miter;stroke:rgb(0%,0%,0%);stroke-opacity:1;stroke-miterlimit:10;" d="M 0.954531 0.5 L 0.449492 0.803047 L 0.146445 0.702031 L 0.0454688 0.398984 L 0.0454688 0.196953 L 0.348477 0.297969 Z M 0.954531 0.5 " transform="matrix(100,0,0,100,600,650)"/>
<path style="fill:none;stroke-width:0.01;stroke-linecap:butt;stroke-linejoin:miter;stroke:rgb(0%,0%,0%);stroke-opacity:1;stroke-miterlimit:10;" d="M 0.954531 0.676758 L 0.601016 0.676758 L 0.0454688 0.323242 L 0.5 0.424258 L 0.853555 0.474766 Z M 0.954531 0.676758 " transform="matrix(100,0,0,100,0,800)"/>
<path style="fill:none;stroke-width:0.01;stroke-linecap:butt;stroke-linejoin:miter;stroke:rgb(0%,0%,0%);stroke-opacity:1;stroke-miterlimit:10;" d="M 0.792227 0.175313 L 0.792227 0.629883 L 0.857148 0.889609 L 0.597422 0.954531 L 0.532461 0.759727 L 0.272734 0.564922 L 0.272734 0.5 L 0.207773 0.175313 L 0.142852 0.0454687 L 0.597422 0.110391 Z M 0.792227 0.175313 " transform="matrix(100,0,0,100,150,800)"/>
<path style="fill:none;stroke-width:0.01;stroke-linecap:butt;stroke-linejoin:miter;stroke:rgb(0%,0%,0%);stroke-opacity:1;stroke-miterlimit:10;" d="M 0.784102 0.0454687 L 0.840898 0.670469 L 0.556836 0.954531 L 0.386367 0.897734 L 0.329531 0.670469 L 0.159102 0.556836 L 0.159102 0.386367 L 0.272734 0.386367 L 0.386367 0.215898 L 0.556836 0.159102 Z M 0.784102 0.0454687 " transform="matrix(100,0,0,100,300,800)"/>
<path style="fill:none;stroke-width:0.01;stroke-linecap:butt;stroke-linejoin:miter;stroke:rgb(0%,0%,0%);stroke-opacity:1;stroke-miterlimit:10;" d="M 0.57793 0.0454687 L 0.57793 0.824687 L 0.448047 0.954531 L 0.42207 0.824687 L 0.5 0.590898 L 0.5 0.357148 L 0.448047 0.279219 L 0.448047 0.175313 L 0.5 0.123359 Z M 0.57793 0.0454687 " transform="matrix(100,0,0,100,450,800)"/>
<path style="fill:none;stroke-width:0.01;stroke-linecap:butt;stroke-linejoin:miter;stroke:rgb(0%,0%,0%);stroke-opacity:1;stroke-miterlimit:10;" d="M 0.954531 0.0933203 L 0.954531 0.90668 L 0.858867 0.954531 L 0.811016 0.691406 L 0.739219 0.595703 L 0.0454688 0.523906 L 0.691406 0.5 L 0.739219 0.284688 L 0.715313 0.260781 L 0.117227 0.165078 L 0.691406 0.188984 L 0.811016 0.0454687 L 0.90668 0.0454687 Z M 0.954531 0.0933203 " transform="matrix(100,0,0,100,600,800)"/>
<path style="fill:none;stroke-width:0.01;stroke-linecap:butt;stroke-linejoin:miter;stroke:rgb(0%,0%,0%);stroke-opacity:1;stroke-miterlimit:10;" d="M 0.954531 0.409102 L 0.409102 0.772734 L 0.0454688 0.409102 L 0.0454688 0.227266 L 0.409102 0.227266 Z M 0.954531 0.409102 " transform="matrix(100,0,0,100,0,950)"/>
<path style="fill:none;stroke-width:0.01;stroke-linecap:butt;stroke-linejoin:miter;stroke:rgb(0%,0%,0%);stroke-opacity:1;stroke-miterlimit:10;" d="M 0.272734 0.215898 L 0.0454687 0.670469 L 0.613633 0.784102 L 0.954531 0.556836 L 0.727266 0.215898 Z M 0.272734 0.215898 " transform="matrix(100,0,0,100,150,950)"/>
<path style="fill:none;stroke-width:0.01;stroke-linecap:butt;stroke-linejoin:miter;stroke:rgb(0%,0%,0%);stroke-opacity:1;stroke-miterlimit:10;" d="M 0.863633 0.0454687 L 0.5 0.954531 L 0.136367 0.590898 Z M 0.863633 0.0454687 " transform="matrix(100,0,0,100,300,950)"/>
<path style="fill:none;stroke-width:0.01;stroke-linecap:butt;stroke-linejoin:miter;stroke:rgb(0%,0%,0%);stroke-opacity:1;stroke-miterlimit:10;" d="M 0.944883 0.0454687 L 0.635391 0.103477 L 0.383945 0.335586 L 0.287227 0.567695 L 0.209883 0.741797 L 0.0744531 0.896523 L 0.0551172 0.935195 L 0.267891 0.954531 L 0.577383 0.896523 L 0.751445 0.664414 L 0.809492 0.490312 L 0.906172 0.238867 Z M 0.944883 0.0454687 " transform="matrix(100,0,0,100,450,950)"/>
<path style="fill:none;stroke-width:0.01;stroke-linecap:butt;stroke-linejoin:miter;stroke:rgb(0%,0%,0%);stroke-opacity:1;stroke-miterlimit:10;" d="M 0.606953 0.0989453 L 0.606953 0.847578 L 0.5 0.954531 L 0.5 0.553477 L 0.393047 0.419805 L 0.473281 0.366328 L 0.526719 0.0454687 Z M 0.606953 0.0989453 " transform="matrix(100,0,0,100,600,950)"/>
<path style="fill:none;stroke-width:0.01;stroke-linecap:butt;stroke-linejoin:miter;stroke:rgb(0%,0%,0%);stroke-opacity:1;stroke-miterlimit:10;" d="M 0.709805 0.0454687 L 0.709805 0.954531 L 0.430078 0.744766 L 0.290195 0.674844 L 0.430078 0.534961 L 0.5 0.395117 L 0.360156 0.325156 L 0.360156 0.185313 L 0.430078 0.115391 Z M 0.709805 0.0454687 " transform="matrix(100,0,0,100,0,1100)"/>
<path style="fill:none;stroke-width:0.01;stroke-linecap:butt;stroke-linejoin:miter;stroke:rgb(0%,0%,0%);stroke-opacity:1;stroke-miterlimit:10;" d="M 0.409961 0.0626172 L 0.375625 0.19125 L 0.384219 0.448555 L 0.409961 0.800156 L 0.427109 0.954531 L 0.581484 0.945977 L 0.607188 0.740156 L 0.624375 0.525742 L 0.598633 0.285586 L 0.521445 0.131211 L 0.47 0.0454687 Z M 0.409961 0.0626172 " transform="matrix(100,0,0,100,150,1100)"/>
<path style="fill:none;stroke-width:0.01;stroke-linecap:butt;stroke-linejoin:miter;stroke:rgb(0%,0%,0%);stroke-opacity:1;stroke-miterlimit:10;" d="M 0.784102 0.329531 L 0.670469 0.0454687 L 0.386367 0.159102 L 0.215898 0.159102 L 0.215898 0.613633 L 0.329531 0.613633 L 0.443164 0.784102 L 0.556836 0.954531 L 0.670469 0.954531 Z M 0.784102 0.329531 " transform="matrix(100,0,0,100,300,1100)"/>
<path style="fill:none;stroke-width:0.01;stroke-linecap:butt;stroke-linejoin:miter;stroke:rgb(0%,0%,0%);stroke-opacity:1;stroke-miterlimit:10;" d="M 0.740625 0.179141 L 0.954531 0.5 L 0.794102 0.874336 L 0.526719 0.874336 L 0.419805 0.66043 L 0.0454688 0.5 L 0.366328 0.33957 L 0.526719 0.125664 Z M 0.740625 0.179141 " transform="matrix(100,0,0,100,450,1100)"/>
<path style="fill:none;stroke-width:0.01;stroke-linecap:butt;stroke-linejoin:miter;stroke:rgb(0%,0%,0%);stroke-opacity:1;stroke-miterlimit:10;" d="M 0.853555 0.348477 L 0.954531 0.853555 L 0.449492 0.954531 L 0.146445 0.752539 L 0.0454688 0.550508 L 0.247461 0.348477 L 0.449492 0.0454687 L 0.651523 0.0454687 Z M 0.853555 0.348477 " transform="matrix(100,0,0,100,600,1100)"/>
<path style="fill:none;stroke-width:0.01;stroke-linecap:butt;stroke-linejoin:miter;stroke:rgb(0%,0%,0%);stroke-opacity:1;stroke-miterlimit:10;" d="M 0.623984 0.0454687 L 0.706602 0.954531 L 0.376016 0.954531 L 0.293398 0.623984 L 0.293398 0.293398 Z M 0.623984 0.0454687 " transform="matrix(100,0,0,100,0,1250)"/>
<path style="fill:none;stroke-width:0.01;stroke-linecap:butt;stroke-linejoin:miter;stroke:rgb(0%,0%,0%);stroke-opacity:1;stroke-miterlimit:10;" d="M 0.664141 0.0707031 L 0.891406 0.247461 L 0.91668 0.878789 L 0.689375 0.954531 L 0.638906 0.777773 L 0.487383 0.702031 L 0.462109 0.525234 L 0.0833203 0.525234 L 0.436875 0.5 L 0.462109 0.37375 L 0.588398 0.323242 L 0.588398 0.0454687 Z M 0.664141 0.0707031 " transform="matrix(100,0,0,100,150,1250)"/>
<path style="fill:none;stroke-width:0.01;stroke-linecap:butt;stroke-linejoin:miter;stroke:rgb(0%,0%,0%);stroke-opacity:1;stroke-miterlimit:10;" d="M 0.934336 0.247461 L 0.954531 0.429297 L 0.954531 0.671719 L 0.813125 0.752539 L 0.813125 0.590898 L 0.0454687 0.590898 L 0.79293 0.590898 L 0.79293 0.449492 L 0.813125 0.409102 L 0.853555 0.388906 L 0.83332 0.328281 L 0.87375 0.267695 Z M 0.934336 0.247461 " transform="matrix(100,0,0,100,300,1250)"/>
<path style="fill:none;stroke-width:0.01;stroke-linecap:butt;stroke-linejoin:miter;stroke:rgb(0%,0%,0%);stroke-opacity:1;stroke-miterlimit:10;" d="M 0.755664 0.0738672 L 0.784102 0.897734 L 0.556836 0.954531 L 0.585234 0.670469 L 0.215898 0.613633 L 0.556836 0.670469 L 0.642031 0.528398 L 0.642031 0.443164 L 0.613633 0.329531 L 0.443164 0.244336 L 0.414766 0.130664 L 0.585234 0.102266 L 0.642031 0.0454687 Z M 0.755664 0.0738672 " transform="matrix(100,0,0,100,450,1250)"/>
<path style="fill:none;stroke-width:0.01;stroke-linecap:butt;stroke-linejoin:miter;stroke:rgb(0%,0%,0%);stroke-opacity:1;stroke-miterlimit:10;" d="M 0.62625 0.0707031 L 0.62625 0.929297 L 0.474766 0.954531 L 0.5 0.676758 L 0.5 0.601016 L 0.474766 0.5 L 0.5 0.424258 L 0.37375 0.348477 L 0.37375 0.222227 L 0.5 0.196953 L 0.5 0.0454687 Z M 0.62625 0.0707031 " transform="matrix(100,0,0,100,600,1250)"/>
<path style="fill:none;stroke-width:0.01;stroke-linecap:butt;stroke-linejoin:miter;stroke:rgb(0%,0%,0%);stroke-opacity:1;stroke-miterlimit:10;" d="M 0.418164 0.0454687 L 0.581836 0.136367 L 0.563633 0.518164 L 0.563633 0.918164 L 0.545469 0.954531 L 0.418164 0.954531 L 0.454531 0.7 L 0.454531 0.609102 L 0.436367 0.409102 L 0.436367 0.281836 L 0.418164 0.136367 Z M 0.418164 0.0454687 " transform="matrix(100,0,0,100,0,1400)"/>
<path style="fill:none;stroke-width:0.01;stroke-linecap:butt;stroke-linejoin:miter;stroke:rgb(0%,0%,0%);stroke-opacity:1;stroke-miterlimit:10;" d="M 0.871914 0.128086 L 0.871914 0.706602 L 0.706602 0.954531 L 0.623984 0.623984 L 0.128086 0.541328 L 0.458672 0.541328 L 0.623984 0.376016 L 0.623984 0.0454687 Z M 0.871914 0.128086 " transform="matrix(100,0,0,100,150,1400)"/>
<path style="fill:none;stroke-width:0.01;stroke-linecap:butt;stroke-linejoin:miter;stroke:rgb(0%,0%,0%);stroke-opacity:1;stroke-miterlimit:10;" d="M 0.752539 0.272734 L 0.752539 0.424258 L 0.954531 0.575742 L 0.803047 0.62625 L 0.752539 0.727266 L 0.601016 0.676758 L 0.348477 0.575742 L 0.0454687 0.525234 L 0.247461 0.474766 L 0.5 0.37375 L 0.601016 0.323242 Z M 0.752539 0.272734 " transform="matrix(100,0,0,100,300,1400)"/>
<path style="fill:none;stroke-width:0.01;stroke-linecap:butt;stroke-linejoin:miter;stroke:rgb(0%,0%,0%);stroke-opacity:1;stroke-miterlimit:10;" d="M 0.633125 0.0714453 L 0.633125 0.850664 L 0.555195 0.954531 L 0.548711 0.81168 L 0.477266 0.707773 L 0.43832 0.668828 L 0.470781 0.629883 L 0.470781 0.480508 L 0.451289 0.441562 L 0.373359 0.402578 L 0.366875 0.376641 L 0.412344 0.370117 L 0.444805 0.350664 L 0.48375 0.331172 L 0.490273 0.279219 L 0.431836 0.220781 L 0.43832 0.194805 L 0.522734 0.175313 L 0.522734 0.129883 L 0.555195 0.110391 L 0.555195 0.0779297 L 0.587656 0.0454687 Z M 0.633125 0.0714453 " transform="matrix(100,0,0,100,450,1400)"/>
<path style="fill:none;stroke-width:0.01;stroke-linecap:butt;stroke-linejoin:miter;stroke:rgb(0%,0%,0%);stroke-opacity:1;stroke-miterlimit:10;" d="M 0.783008 0.302734 L 0.800156 0.577188 L 0.680117 0.834492 L 0.422813 0.954531 L 0.302734 0.903086 L 0.199844 0.783008 L 0.199844 0.680117 L 0.285586 0.560039 L 0.525742 0.0454687 L 0.697266 0.0626172 L 0.800156 0.148359 Z M 0.783008 0.302734 " transform="matrix(100,0,0,100,600,1400)"/>
<path style="fill:none;stroke-width:0.01;stroke-linecap:butt;stroke-linejoin:miter;stroke:rgb(0%,0%,0%);stroke-opacity:1;stroke-miterlimit:10;" d="M 0.786211 0.58418 L 0.718867 0.853555 L 0.617852 0.954531 L 0.382148 0.786211 L 0.213789 0.617852 L 0.41582 0.382148 L 0.58418 0.112813 L 0.718867 0.0454687 L 0.786211 0.247461 Z M 0.786211 0.58418 " transform="matrix(100,0,0,100,0,1550)"/>
<path style="fill:none;stroke-width:0.01;stroke-linecap:butt;stroke-linejoin:miter;stroke:rgb(0%,0%,0%);stroke-opacity:1;stroke-miterlimit:10;" d="M 0.939883 0.265391 L 0.851914 0.133438 L 0.734609 0.133438 L 0.5 0.0454687 L 0.382695 0.0747656 L 0.280078 0.11875 L 0.177422 0.265391 L 0.104102 0.338711 L 0.0454687 0.485352 L 0.0747656 0.57332 L 0.162773 0.705273 L 0.338711 0.851914 L 0.456016 0.925234 L 0.57332 0.954531 L 0.631953 0.954531 L 0.866563 0.910547 L 0.895898 0.88125 L 0.939883 0.80793 L 0.954531 0.602656 Z M 0.939883 0.265391 " transform="matrix(100,0,0,100,150,1550)"/>
<path style="fill:none;stroke-width:0.01;stroke-linecap:butt;stroke-linejoin:miter;stroke:rgb(0%,0%,0%);stroke-opacity:1;stroke-miterlimit:10;" d="M 0.863633 0.318164 L 0.954531 0.772734 L 0.772734 0.681836 L 0.5 0.590898 L 0.0454687 0.5 L 0.409102 0.227266 Z M 0.863633 0.318164 " transform="matrix(100,0,0,100,300,1550)"/>
<path style="fill:none;stroke-width:0.01;stroke-linecap:butt;stroke-linejoin:miter;stroke:rgb(0%,0%,0%);stroke-opacity:1;stroke-miterlimit:10;" d="M 0.871914 0.25207 L 0.954531 0.665273 L 0.871914 0.74793 L 0.541328 0.74793 L 0.0454688 0.5 L 0.0454688 0.417344 L 0.458672 0.25207 Z M 0.871914 0.25207 " transform="matrix(100,0,0,100,450,1550)"/>
<path style="fill:none;stroke-width:0.01;stroke-linecap:butt;stroke-linejoin:miter;stroke:rgb(0%,0%,0%);stroke-opacity:1;stroke-miterlimit:10;" d="M 0.513359 0.0454687 L 0.620312 0.0721875 L 0.673789 0.179141 L 0.64707 0.874336 L 0.593594 0.954531 L 0.459883 0.954531 L 0.433164 0.606953 L 0.326211 0.580195 L 0.326211 0.526719 L 0.406406 0.446523 L 0.406406 0.286094 L 0.459883 0.259375 L 0.459883 0.125664 Z M 0.513359 0.0454687 " transform="matrix(100,0,0,100,600,1550)"/>
<path style="fill:none;stroke-width:0.01;stroke-linecap:butt;stroke-linejoin:miter;stroke:rgb(0%,0%,0%);stroke-opacity:1;stroke-miterlimit:10;" d="M 0.613633 0.414766 L 0.5 0.0454688 L 0.329531 0.272734 L 0.329531 0.613633 L 0.471602 0.642031 L 0.528398 0.897734 L 0.670469 0.954531 Z M 0.613633 0.414766 " transform="matrix(100,0,0,100,0,1700)"/>
<path style="fill:none;stroke-width:0.01;stroke-linecap:butt;stroke-linejoin:miter;stroke:rgb(0%,0%,0%);stroke-opacity:1;stroke-miterlimit:10;" d="M 0.579063 0.717383 L 0.460469 0.954531 L 0.341914 0.638359 L 0.341914 0.361641 L 0.460469 0.282617 L 0.381406 0.124492 L 0.5 0.0454688 L 0.658086 0.0454688 Z M 0.579063 0.717383 " transform="matrix(100,0,0,100,150,1700)"/>
<path style="fill:none;stroke-width:0.01;stroke-linecap:butt;stroke-linejoin:miter;stroke:rgb(0%,0%,0%);stroke-opacity:1;stroke-miterlimit:10;" d="M 0.727266 0.0454688 L 0.651523 0.954531 L 0.424258 0.727266 L 0.272734 0.5 L 0.348477 0.196953 Z M 0.727266 0.0454688 " transform="matrix(100,0,0,100,300,1700)"/>
<path style="fill:none;stroke-width:0.01;stroke-linecap:butt;stroke-linejoin:miter;stroke:rgb(0%,0%,0%);stroke-opacity:1;stroke-miterlimit:10;" d="M 0.674844 0.325156 L 0.604883 0.954531 L 0.395117 0.954531 L 0.325156 0.185313 L 0.534961 0.0454688 Z M 0.674844 0.325156 " transform="matrix(100,0,0,100,450,1700)"/>
<path style="fill:none;stroke-width:0.01;stroke-linecap:butt;stroke-linejoin:miter;stroke:rgb(0%,0%,0%);stroke-opacity:1;stroke-miterlimit:10;" d="M 0.889609 0.954531 L 0.110391 0.435078 L 0.110391 0.0454688 L 0.5 0.175313 Z M 0.889609 0.954531 " transform="matrix(100,0,0,100,600,1700)"/>
<path style="fill:none;stroke-width:0.01;stroke-linecap:butt;stroke-linejoin:miter;stroke:rgb(0%,0%,0%);stroke-opacity:1;stroke-miterlimit:10;" d="M 0.272734 0.102266 L 0.215898 0.613633 L 0.613633 0.954531 L 0.784102 0.784102 L 0.443164 0.0454688 Z M 0.272734 0.102266 " transform="matrix(100,0,0,100,0,1850)"/>
<path style="fill:none;stroke-width:0.01;stroke-linecap:butt;stroke-linejoin:miter;stroke:rgb(0%,0%,0%);stroke-opacity:1;stroke-miterlimit:10;" d="M 0.840898 0.727266 L 0.386367 0.0454688 L 0.159102 0.5 L 0.386367 0.954531 Z M 0.840898 0.727266 " transform="matrix(100,0,0,100,150,1850)"/>
<path style="fill:none;stroke-width:0.01;stroke-linecap:butt;stroke-linejoin:miter;stroke:rgb(0%,0%,0%);stroke-opacity:1;stroke-miterlimit:10;" d="M 0.889609 0.954531 L 0.370117 0.0454688 L 0.110391 0.435078 L 0.370117 0.954531 Z M 0.889609 0.954531 " transform="matrix(100,0,0,100,300,1850)"/>
<path style="fill:none;stroke-width:0.01;stroke-linecap:butt;stroke-linejoin:miter;stroke:rgb(0%,0%,0%);stroke-opacity:1;stroke-miterlimit:10;" d="M 0.398984 0.0454688 L 0.196953 0.550508 L 0.702031 0.954531 L 0.803047 0.752539 Z M 0.398984 0.0454688 " transform="matrix(100,0,0,100,450,1850)"/>
<path style="fill:none;stroke-width:0.01;stroke-linecap:butt;stroke-linejoin:miter;stroke:rgb(0%,0%,0%);stroke-opacity:1;stroke-miterlimit:10;" d="M 0.587969 0.104102 L 0.412031 0.0454688 L 0.412031 0.778594 L 0.587969 0.954531 Z M 0.587969 0.104102 " transform="matrix(100,0,0,100,600,1850)"/>
<path style="fill:none;stroke-width:0.01;stroke-linecap:butt;stroke-linejoin:miter;stroke:rgb(0%,0%,0%);stroke-opacity:1;stroke-miterlimit:10;" d="M 0.904023 0.348477 L 0.5 0.954531 L 0.196953 0.954531 L 0.297969 0.651523 L 0.0959766 0.449492 L 0.297969 0.247461 L 0.5 0.348477 L 0.904023 0.0454688 Z M 0.904023 0.348477 " transform="matrix(100,0,0,100,0,2000)"/>
<path style="fill:none;stroke-width:0.01;stroke-linecap:butt;stroke-linejoin:miter;stroke:rgb(0%,0%,0%);stroke-opacity:1;stroke-miterlimit:10;" d="M 0.588086 0.0454688 L 0.411914 0.0511328 L 0.434648 0.556836 L 0.457383 0.954531 L 0.519883 0.875 L 0.536914 0.857969 L 0.576719 0.426133 Z M 0.588086 0.0454688 " transform="matrix(100,0,0,100,150,2000)"/>
<path style="fill:none;stroke-width:0.01;stroke-linecap:butt;stroke-linejoin:miter;stroke:rgb(0%,0%,0%);stroke-opacity:1;stroke-miterlimit:10;" d="M 0.617305 0.954531 L 0.587969 0.57332 L 0.587969 0.250742 L 0.558633 0.104102 L 0.382695 0.0454688 L 0.382695 0.368047 L 0.441367 0.57332 L 0.412031 0.954531 L 0.558633 0.954531 Z M 0.617305 0.954531 " transform="matrix(100,0,0,100,300,2000)"/>
<path style="fill:none;stroke-width:0.01;stroke-linecap:butt;stroke-linejoin:miter;stroke:rgb(0%,0%,0%);stroke-opacity:1;stroke-miterlimit:10;" d="M 0.66043 0.312852 L 0.66043 0.687148 L 0.446523 0.954531 L 0.33957 0.633672 L 0.33957 0.205898 L 0.5 0.0454688 Z M 0.66043 0.312852 " transform="matrix(100,0,0,100,450,2000)"/>
<path style="fill:none;stroke-width:0.01;stroke-linecap:butt;stroke-linejoin:miter;stroke:rgb(0%,0%,0%);stroke-opacity:1;stroke-miterlimit:10;" d="M 0.62625 0.117617 L 0.604609 0.954531 L 0.431445 0.954531 L 0.424258 0.91125 L 0.37375 0.889609 L 0.37375 0.788594 L 0.395391 0.77418 L 0.395391 0.528867 L 0.438672 0.507227 L 0.496406 0.485586 L 0.48918 0.139258 L 0.518047 0.132031 L 0.539688 0.0959766 L 0.539688 0.0454688 L 0.62625 0.0526563 Z M 0.62625 0.117617 " transform="matrix(100,0,0,100,600,2000)"/>
<path style="fill:none;stroke-width:0.01;stroke-linecap:butt;stroke-linejoin:miter;stroke:rgb(0%,0%,0%);stroke-opacity:1;stroke-miterlimit:10;" d="M 0.597109 0.0532422 L 0.589336 0.713672 L 0.519414 0.876836 L 0.418398 0.954531 L 0.402891 0.845781 L 0.410664 0.674844 L 0.418398 0.0454688 Z M 0.597109 0.0532422 " transform="matrix(100,0,0,100,0,2150)"/>
<path style="fill:none;stroke-width:0.01;stroke-linecap:butt;stroke-linejoin:miter;stroke:rgb(0%,0%,0%);stroke-opacity:1;stroke-miterlimit:10;" d="M 0.608477 0.0454688 L 0.432852 0.0661328 L 0.412187 0.241719 L 0.370859 0.241719 L 0.381211 0.644609 L 0.412187 0.644609 L 0.443164 0.882227 L 0.536172 0.892578 L 0.567148 0.954531 L 0.618789 0.861563 L 0.629141 0.0867578 Z M 0.608477 0.0454688 " transform="matrix(100,0,0,100,150,2150)"/>
<path style="fill:none;stroke-width:0.01;stroke-linecap:butt;stroke-linejoin:miter;stroke:rgb(0%,0%,0%);stroke-opacity:1;stroke-miterlimit:10;" d="M 0.518359 0.0546484 L 0.545898 0.155664 L 0.545898 0.605586 L 0.573477 0.780078 L 0.564297 0.890273 L 0.555078 0.954531 L 0.49082 0.908633 L 0.454102 0.825977 L 0.444922 0.816797 L 0.435703 0.486211 L 0.426523 0.330117 L 0.435703 0.155664 L 0.481641 0.137266 L 0.472461 0.0730078 L 0.481641 0.0454688 Z M 0.518359 0.0546484 " transform="matrix(100,0,0,100,300,2150)"/>
<path style="fill:none;stroke-width:0.01;stroke-linecap:butt;stroke-linejoin:miter;stroke:rgb(0%,0%,0%);stroke-opacity:1;stroke-miterlimit:10;" d="M 0.784102 0.0454688 L 0.897734 0.727266 L 0.784102 0.954531 L 0.443164 0.840898 L 0.102266 0.613633 Z M 0.784102 0.0454688 " transform="matrix(100,0,0,100,450,2150)"/>
<path style="fill:none;stroke-width:0.01;stroke-linecap:butt;stroke-linejoin:miter;stroke:rgb(0%,0%,0%);stroke-opacity:1;stroke-miterlimit:10;" d="M 0.431836 0.0454688 L 0.55 0.0454688 L 0.586367 0.2 L 0.595469 0.918164 L 0.540898 0.954531 L 0.55 0.854531 L 0.522734 0.709102 L 0.486367 0.545469 L 0.440898 0.390898 L 0.404531 0.281836 Z M 0.431836 0.0454688 " transform="matrix(100,0,0,100,600,2150)"/>
<path style="fill:none;stroke-width:0.01;stroke-linecap:butt;stroke-linejoin:miter;stroke:rgb(0%,0%,0%);stroke-opacity:1;stroke-miterlimit:10;" d="M 0.733086 0.0454688 L 0.756406 0.93125 L 0.663164 0.954531 L 0.243594 0.488359 Z M 0.733086 0.0454688 " transform="matrix(100,0,0,100,0,2300)"/>
<path style="fill:none;stroke-width:0.01;stroke-linecap:butt;stroke-linejoin:miter;stroke:rgb(0%,0%,0%);stroke-opacity:1;stroke-miterlimit:10;" d="M 0.954531 0.206445 L 0.954531 0.774609 L 0.878789 0.793555 L 0.878789 0.679922 L 0.424258 0.528398 L 0.0454687 0.471602 L 0.0454687 0.452656 L 0.765156 0.452656 L 0.784102 0.414766 L 0.821953 0.357969 L 0.859844 0.282187 Z M 0.954531 0.206445 " transform="matrix(100,0,0,100,150,2300)"/>
<path style="fill:none;stroke-width:0.01;stroke-linecap:butt;stroke-linejoin:miter;stroke:rgb(0%,0%,0%);stroke-opacity:1;stroke-miterlimit:10;" d="M 0.439375 0.0454688 L 0.681836 0.106055 L 0.621211 0.954531 L 0.318164 0.83332 L 0.318164 0.348477 Z M 0.439375 0.0454688 " transform="matrix(100,0,0,100,300,2300)"/>
<path style="fill:none;stroke-width:0.01;stroke-linecap:butt;stroke-linejoin:miter;stroke:rgb(0%,0%,0%);stroke-opacity:1;stroke-miterlimit:10;" d="M 0.547852 0.284688 L 0.595703 0.117227 L 0.619609 0.0454688 L 0.739219 0.141133 L 0.715313 0.882773 L 0.691406 0.954531 L 0.619609 0.90668 L 0.619609 0.763164 L 0.476094 0.667461 L 0.428242 0.619609 L 0.308594 0.619609 L 0.260781 0.5 L 0.380391 0.452148 L 0.452148 0.356445 Z M 0.547852 0.284688 " transform="matrix(100,0,0,100,450,2300)"/>
<path style="fill:none;stroke-width:0.01;stroke-linecap:butt;stroke-linejoin:miter;stroke:rgb(0%,0%,0%);stroke-opacity:1;stroke-miterlimit:10;" d="M 0.706602 0.0454688 L 0.899453 0.128086 L 0.871914 0.926992 L 0.734141 0.954531 L 0.734141 0.734141 L 0.568867 0.679063 L 0.431133 0.651523 L 0.403594 0.541328 L 0.376016 0.376016 L 0.100547 0.320937 L 0.541328 0.293398 Z M 0.706602 0.0454688 " transform="matrix(100,0,0,100,600,2300)"/>
<path style="fill:none;stroke-width:0.01;stroke-linecap:butt;stroke-linejoin:miter;stroke:rgb(0%,0%,0%);stroke-opacity:1;stroke-miterlimit:10;" d="M 0.537891 0.0454688 L 0.594688 0.102266 L 0.575742 0.803047 L 0.556836 0.859844 L 0.481055 0.954531 L 0.462109 0.784102 L 0.462109 0.651523 L 0.405313 0.518945 L 0.405313 0.424258 L 0.443164 0.386367 L 0.5 0.329531 L 0.5 0.215898 L 0.424258 0.178047 Z M 0.537891 0.0454688 " transform="matrix(100,0,0,100,0,2450)"/>
<path style="fill:none;stroke-width:0.01;stroke-linecap:butt;stroke-linejoin:miter;stroke:rgb(0%,0%,0%);stroke-opacity:1;stroke-miterlimit:10;" d="M 0.954531 0.462109 L 0.878789 0.91668 L 0.5 0.91668 L 0.196953 0.765156 L 0.0454687 0.613633 L 0.121211 0.310625 L 0.348477 0.310625 L 0.5 0.234844 L 0.803047 0.0833203 Z M 0.954531 0.462109 " transform="matrix(100,0,0,100,150,2450)"/>
<path style="fill:none;stroke-width:0.01;stroke-linecap:butt;stroke-linejoin:miter;stroke:rgb(0%,0%,0%);stroke-opacity:1;stroke-miterlimit:10;" d="M 0.91668 0.424258 L 0.91668 0.954531 L 0.689375 0.878789 L 0.537891 0.727266 L 0.310625 0.727266 L 0.0833203 0.272734 L 0.386367 0.196953 L 0.537891 0.0454688 L 0.840898 0.121211 Z M 0.91668 0.424258 " transform="matrix(100,0,0,100,300,2450)"/>
<path style="fill:none;stroke-width:0.01;stroke-linecap:butt;stroke-linejoin:miter;stroke:rgb(0%,0%,0%);stroke-opacity:1;stroke-miterlimit:10;" d="M 0.629883 0.0454688 L 0.759727 0.5 L 0.759727 0.824687 L 0.694805 0.954531 L 0.5 0.954531 L 0.240273 0.824687 L 0.240273 0.564922 L 0.435078 0.435078 Z M 0.629883 0.0454688 " transform="matrix(100,0,0,100,450,2450)"/>
<path style="fill:none;stroke-width:0.01;stroke-linecap:butt;stroke-linejoin:miter;stroke:rgb(0%,0%,0%);stroke-opacity:1;stroke-miterlimit:10;" d="M 0.840898 0.5 L 0.954531 0.954531 L 0.386367 0.613633 L 0.0454688 0.386367 L 0.5 0.272734 L 0.954531 0.0454688 Z M 0.840898 0.5 " transform="matrix(100,0,0,100,600,2450)"/>
<path style="fill:none;stroke-width:0.01;stroke-linecap:butt;stroke-linejoin:miter;stroke:rgb(0%,0%,0%);stroke-opacity:1;stroke-miterlimit:10;" d="M 0.572734 0.3 L 0.590898 0.409102 L 0.590898 0.518164 L 0.536367 0.554531 L 0.590898 0.627266 L 0.590898 0.681836 L 0.572734 0.809102 L 0.554531 0.9 L 0.463633 0.954531 L 0.463633 0.863633 L 0.445469 0.809102 L 0.445469 0.663633 L 0.463633 0.609102 L 0.463633 0.554531 L 0.445469 0.463633 L 0.445469 0.390898 L 0.463633 0.281836 L 0.427266 0.263633 L 0.409102 0.172734 L 0.463633 0.172734 L 0.5 0.136367 L 0.5 0.0454688 L 0.590898 0.0818359 L 0.590898 0.190898 Z M 0.572734 0.3 " transform="matrix(100,0,0,100,0,2600)"/>
<path style="fill:none;stroke-width:0.01;stroke-linecap:butt;stroke-linejoin:miter;stroke:rgb(0%,0%,0%);stroke-opacity:1;stroke-miterlimit:10;" d="M 0.954531 0.0707031 L 0.954531 0.727266 L 0.904023 0.929297 L 0.752539 0.929297 L 0.752539 0.676758 L 0.0454687 0.62625 L 0.752539 0.525234 L 0.853555 0.37375 L 0.752539 0.121211 Z M 0.954531 0.0707031 " transform="matrix(100,0,0,100,150,2600)"/>
<path style="fill:none;stroke-width:0.01;stroke-linecap:butt;stroke-linejoin:miter;stroke:rgb(0%,0%,0%);stroke-opacity:1;stroke-miterlimit:10;" d="M 0.863633 0.5 L 0.772734 0.727266 L 0.590898 0.681836 L 0.590898 0.590898 L 0.272734 0.590898 L 0.0454687 0.5 L 0.636367 0.409102 L 0.772734 0.272734 L 0.909102 0.272734 L 0.954531 0.5 Z M 0.863633 0.5 " transform="matrix(100,0,0,100,300,2600)"/>
<path style="fill:none;stroke-width:0.01;stroke-linecap:butt;stroke-linejoin:miter;stroke:rgb(0%,0%,0%);stroke-opacity:1;stroke-miterlimit:10;" d="M 0.878789 0.5 L 0.424258 0.954531 L 0.121211 0.651523 L 0.121211 0.196953 L 0.575742 0.0454688 Z M 0.878789 0.5 " transform="matrix(100,0,0,100,450,2600)"/>
<path style="fill:none;stroke-width:0.01;stroke-linecap:butt;stroke-linejoin:miter;stroke:rgb(0%,0%,0%);stroke-opacity:1;stroke-miterlimit:10;" d="M 0.11918 0.585977 L 0.807109 0.364883 L 0.85625 0.14375 L 0.954531 0.11918 L 0.954531 0.85625 L 0.88082 0.88082 L 0.463164 0.708828 L 0.0454688 0.585977 Z M 0.11918 0.585977 " transform="matrix(100,0,0,100,600,2600)"/>
<path style="fill:none;stroke-width:0.01;stroke-linecap:butt;stroke-linejoin:miter;stroke:rgb(0%,0%,0%);stroke-opacity:1;stroke-miterlimit:10;" d="M 0.954531 0.465039 L 0.814688 0.744766 L 0.744766 0.954531 L 0.604883 0.674844 L 0.0454688 0.604883 L 0.674844 0.325156 L 0.115391 0.255234 L 0.534961 0.185313 L 0.674844 0.0454688 L 0.814688 0.0454688 Z M 0.954531 0.465039 " transform="matrix(100,0,0,100,0,2750)"/>
<path style="fill:none;stroke-width:0.01;stroke-linecap:butt;stroke-linejoin:miter;stroke:rgb(0%,0%,0%);stroke-opacity:1;stroke-miterlimit:10;" d="M 0.651523 0.227266 L 0.712109 0.651523 L 0.712109 0.83332 L 0.530312 0.954531 L 0.469688 0.712109 L 0.348477 0.712109 L 0.287891 0.409102 L 0.409102 0.348477 L 0.409102 0.0454688 Z M 0.651523 0.227266 " transform="matrix(100,0,0,100,150,2750)"/>
<path style="fill:none;stroke-width:0.01;stroke-linecap:butt;stroke-linejoin:miter;stroke:rgb(0%,0%,0%);stroke-opacity:1;stroke-miterlimit:10;" d="M 0.5 0.0454688 L 0.69582 0.199297 L 0.681836 0.465039 L 0.625859 0.716797 L 0.583906 0.884609 L 0.527969 0.954531 L 0.416094 0.940547 L 0.360156 0.56293 L 0.360156 0.520977 L 0.30418 0.43707 L 0.430078 0.33918 L 0.458047 0.129375 Z M 0.5 0.0454688 " transform="matrix(100,0,0,100,300,2750)"/>
<path style="fill:none;stroke-width:0.01;stroke-linecap:butt;stroke-linejoin:miter;stroke:rgb(0%,0%,0%);stroke-opacity:1;stroke-miterlimit:10;" d="M 0.485781 0.0454688 L 0.684648 0.0454688 L 0.684648 0.926133 L 0.571016 0.954531 L 0.571016 0.528398 L 0.400586 0.528398 L 0.400586 0.443164 L 0.315352 0.414766 L 0.34375 0.357969 L 0.457383 0.329531 Z M 0.485781 0.0454688 " transform="matrix(100,0,0,100,450,2750)"/>
<path style="fill:none;stroke-width:0.01;stroke-linecap:butt;stroke-linejoin:miter;stroke:rgb(0%,0%,0%);stroke-opacity:1;stroke-miterlimit:10;" d="M 0.491875 0.0454688 L 0.637969 0.0941406 L 0.637969 0.92207 L 0.573047 0.954531 L 0.540586 0.581172 L 0.491875 0.5 L 0.491875 0.418828 L 0.362031 0.418828 L 0.362031 0.321445 L 0.443164 0.288945 L 0.508125 0.272734 Z M 0.491875 0.0454688 " transform="matrix(100,0,0,100,600,2750)"/>
<path style="fill:none;stroke-width:0.01;stroke-linecap:butt;stroke-linejoin:miter;stroke:rgb(0%,0%,0%);stroke-opacity:1;stroke-miterlimit:10;" d="M 0.642031 0.0454688 L 0.698867 0.5 L 0.642031 0.784102 L 0.642031 0.954531 L 0.528398 0.897734 L 0.528398 0.386367 L 0.357969 0.386367 L 0.301133 0.215898 L 0.357969 0.0454688 Z M 0.642031 0.0454688 " transform="matrix(100,0,0,100,0,2900)"/>
<path style="fill:none;stroke-width:0.01;stroke-linecap:butt;stroke-linejoin:miter;stroke:rgb(0%,0%,0%);stroke-opacity:1;stroke-miterlimit:10;" d="M 0.954531 0.443164 L 0.954531 0.784102 L 0.784102 0.954531 L 0.613633 0.897734 L 0.443164 0.897734 L 0.386367 0.784102 L 0.0454687 0.840898 L 0.102266 0.329531 L 0.272734 0.386367 L 0.159102 0.272734 L 0.386367 0.102266 L 0.670469 0.0454688 L 0.840898 0.102266 L 0.954531 0.215898 Z M 0.954531 0.443164 " transform="matrix(100,0,0,100,150,2900)"/>
<path style="fill:none;stroke-width:0.01;stroke-linecap:butt;stroke-linejoin:miter;stroke:rgb(0%,0%,0%);stroke-opacity:1;stroke-miterlimit:10;" d="M 0.548711 0.0454688 L 0.711055 0.175313 L 0.808438 0.305195 L 0.808438 0.629883 L 0.711055 0.727266 L 0.548711 0.824687 L 0.451289 0.92207 L 0.321445 0.954531 L 0.191562 0.857148 L 0.224023 0.662344 L 0.353906 0.532461 L 0.386367 0.402578 L 0.451289 0.272734 L 0.48375 0.207773 Z M 0.548711 0.0454688 " transform="matrix(100,0,0,100,300,2900)"/>
<path style="fill:none;stroke-width:0.01;stroke-linecap:butt;stroke-linejoin:miter;stroke:rgb(0%,0%,0%);stroke-opacity:1;stroke-miterlimit:10;" d="M 0.424258 0.0454688 L 0.676758 0.0454688 L 0.727266 0.196953 L 0.777773 0.348477 L 0.777773 0.601016 L 0.727266 0.752539 L 0.727266 0.853555 L 0.525234 0.954531 L 0.272734 0.853555 L 0.272734 0.651523 L 0.222227 0.5 L 0.323242 0.348477 L 0.323242 0.196953 L 0.272734 0.0959766 Z M 0.424258 0.0454688 " transform="matrix(100,0,0,100,450,2900)"/>
<path style="fill:none;stroke-width:0.01;stroke-linecap:butt;stroke-linejoin:miter;stroke:rgb(0%,0%,0%);stroke-opacity:1;stroke-miterlimit:10;" d="M 0.236836 0.332539 L 0.523906 0.0933203 L 0.715313 0.0933203 L 0.858867 0.141133 L 0.954531 0.284688 L 0.954531 0.90668 L 0.763164 0.858867 L 0.667461 0.858867 L 0.476094 0.763164 L 0.188984 0.763164 L 0.0454688 0.571758 L 0.0933203 0.380391 Z M 0.236836 0.332539 " transform="matrix(100,0,0,100,600,2900)"/>
<path style="fill:none;stroke-width:0.01;stroke-linecap:butt;stroke-linejoin:miter;stroke:rgb(0%,0%,0%);stroke-opacity:1;stroke-miterlimit:10;" d="M 0.558633 0.827461 L 0.568438 0.172539 L 0.431563 0.0454688 L 0.421797 0.201875 L 0.441367 0.456016 L 0.451133 0.700391 L 0.451133 0.749258 L 0.421797 0.798125 L 0.421797 0.847031 L 0.441367 0.935 L 0.539102 0.954531 L 0.578203 0.895898 Z M 0.558633 0.827461 " transform="matrix(100,0,0,100,0,3050)"/>
<path style="fill:none;stroke-width:0.01;stroke-linecap:butt;stroke-linejoin:miter;stroke:rgb(0%,0%,0%);stroke-opacity:1;stroke-miterlimit:10;" d="M 0.590234 0.954531 L 0.52082 0.954531 L 0.486133 0.947617 L 0.486133 0.857383 L 0.506953 0.725547 L 0.472227 0.663086 L 0.430586 0.628398 L 0.395898 0.614492 L 0.388984 0.406328 L 0.402852 0.371602 L 0.423672 0.364688 L 0.423672 0.302227 L 0.430586 0.205078 L 0.409766 0.128711 L 0.395898 0.0871094 L 0.395898 0.0454688 L 0.597148 0.0523828 L 0.611016 0.343867 Z M 0.590234 0.954531 " transform="matrix(100,0,0,100,150,3050)"/>
<path style="fill:none;stroke-width:0.01;stroke-linecap:butt;stroke-linejoin:miter;stroke:rgb(0%,0%,0%);stroke-opacity:1;stroke-miterlimit:10;" d="M 0.863633 0.409102 L 0.681836 0.954531 L 0.5 0.954531 L 0.136367 0.590898 L 0.5 0.590898 L 0.863633 0.0454688 Z M 0.863633 0.409102 " transform="matrix(100,0,0,100,300,3050)"/>
<path style="fill:none;stroke-width:0.01;stroke-linecap:butt;stroke-linejoin:miter;stroke:rgb(0%,0%,0%);stroke-opacity:1;stroke-miterlimit:10;" d="M 0.541328 0.0454688 L 0.789258 0.623984 L 0.871914 0.871914 L 0.541328 0.954531 L 0.458672 0.789258 L 0.293398 0.541328 L 0.128086 0.210742 L 0.210742 0.128086 L 0.293398 0.0454688 Z M 0.541328 0.0454688 " transform="matrix(100,0,0,100,450,3050)"/>
<path style="fill:none;stroke-width:0.01;stroke-linecap:butt;stroke-linejoin:miter;stroke:rgb(0%,0%,0%);stroke-opacity:1;stroke-miterlimit:10;" d="M 0.803047 0.196953 L 0.803047 0.954531 L 0.651523 0.803047 L 0.196953 0.348477 L 0.196953 0.0454688 Z M 0.803047 0.196953 " transform="matrix(100,0,0,100,600,3050)"/>
<path style="fill:none;stroke-width:0.01;stroke-linecap:butt;stroke-linejoin:miter;stroke:rgb(0%,0%,0%);stroke-opacity:1;stroke-miterlimit:10;" d="M 0.613633 0.0454687 L 0.585234 0.357969 L 0.585234 0.585234 L 0.613633 0.869336 L 0.5 0.954531 L 0.471602 0.8125 L 0.443164 0.670469 L 0.386367 0.556836 L 0.471602 0.414766 L 0.5 0.357969 L 0.528398 0.215898 L 0.5 0.0454687 Z M 0.613633 0.0454687 " transform="matrix(100,0,0,100,0,3200)"/>
<path style="fill:none;stroke-width:0.01;stroke-linecap:butt;stroke-linejoin:miter;stroke:rgb(0%,0%,0%);stroke-opacity:1;stroke-miterlimit:10;" d="M 0.954531 0.29168 L 0.954531 0.632578 L 0.91668 0.821953 L 0.803047 0.859844 L 0.765156 0.784102 L 0.651523 0.746211 L 0.651523 0.897734 L 0.348477 0.746211 L 0.0454687 0.784102 L 0.121211 0.70832 L 0.5 0.70832 L 0.689375 0.632578 L 0.727266 0.518945 L 0.613633 0.481055 L 0.575742 0.518945 L 0.159102 0.405313 L 0.613633 0.140156 L 0.613633 0.367422 L 0.727266 0.443164 L 0.803047 0.253789 L 0.727266 0.102266 Z M 0.954531 0.29168 " transform="matrix(100,0,0,100,150,3200)"/>
<path style="fill:none;stroke-width:0.01;stroke-linecap:butt;stroke-linejoin:miter;stroke:rgb(0%,0%,0%);stroke-opacity:1;stroke-miterlimit:10;" d="M 0.849648 0.115391 L 0.849648 0.884609 L 0.569922 0.954531 L 0.220273 0.954531 L 0.290195 0.814687 L 0.360156 0.604883 L 0.150352 0.465039 L 0.150352 0.0454687 L 0.639844 0.0454687 Z M 0.849648 0.115391 " transform="matrix(100,0,0,100,300,3200)"/>
<path style="fill:none;stroke-width:0.01;stroke-linecap:butt;stroke-linejoin:miter;stroke:rgb(0%,0%,0%);stroke-opacity:1;stroke-miterlimit:10;" d="M 0.609961 0.0601172 L 0.653945 0.822578 L 0.551328 0.954531 L 0.536641 0.895898 L 0.507344 0.749258 L 0.521992 0.661289 L 0.346055 0.646641 L 0.346055 0.456016 L 0.360703 0.324063 L 0.346055 0.162773 L 0.360703 0.0894531 L 0.360703 0.0454687 Z M 0.609961 0.0601172 " transform="matrix(100,0,0,100,450,3200)"/>
</g>
</svg>
