<?xml version="1.0" encoding="UTF-8"?>
<svg xmlns="http://www.w3.org/2000/svg" xmlns:xlink="http://www.w3.org/1999/xlink" width="750pt" height="13600pt" viewBox="0 0 750 13600" version="1.1">
<g id="surface1">
<path style="fill:none;stroke-width:0.01;stroke-linecap:butt;stroke-linejoin:miter;stroke:rgb(0%,0%,0%);stroke-opacity:1;stroke-miterlimit:10;" d="M 0.477266 0.840898 L 0.0454688 0.840898 L 0.0908984 0.659102 L 0.340898 0.522734 L 0.409102 0.25 L 0.454531 0.159102 L 0.704531 0.181836 L 0.772734 0.227266 L 0.886367 0.25 L 0.954531 0.318164 L 0.954531 0.409102 L 0.931836 0.454531 L 0.886367 0.477266 L 0.795469 0.5 L 0.772734 0.613633 L 0.772734 0.772734 L 0.863633 0.772734 L 0.931836 0.795469 L 0.931836 0.840898 Z M 0.477266 0.840898 " transform="matrix(100,0,0,100,0,200)"/>
<path style="fill:none;stroke-width:0.01;stroke-linecap:butt;stroke-linejoin:miter;stroke:rgb(0%,0%,0%);stroke-opacity:1;stroke-miterlimit:10;" d="M 0.635117 0.0454687 L 0.11918 0.0454687 L 0.389453 0.315742 L 0.487734 0.929961 L 0.88082 0.954531 L 0.88082 0.684258 L 0.782539 0.610547 L 0.708828 0.561406 L 0.659687 0.512266 L 0.659687 0.340313 L 0.708828 0.266602 L 0.733398 0.16832 L 0.782539 0.11918 L 0.83168 0.0946094 Z M 0.635117 0.0454687 " transform="matrix(100,0,0,100,150,200)"/>
<path style="fill:none;stroke-width:0.01;stroke-linecap:butt;stroke-linejoin:miter;stroke:rgb(0%,0%,0%);stroke-opacity:1;stroke-miterlimit:10;" d="M 0.519922 0.954531 L 0.294297 0.954531 L 0.32082 0.629414 L 0.446914 0.450234 L 0.460195 0.377227 L 0.460195 0.304258 L 0.493359 0.191445 L 0.513281 0.138359 L 0.539805 0.0985547 L 0.579609 0.0521094 L 0.599531 0.0454687 L 0.626094 0.0587109 L 0.659258 0.0919141 L 0.659258 0.23125 L 0.692422 0.264414 L 0.705703 0.290977 L 0.705703 0.363984 L 0.645977 0.344063 L 0.612812 0.344063 L 0.553086 0.363984 L 0.526523 0.397148 L 0.519922 0.436953 L 0.519922 0.476758 L 0.533164 0.509961 L 0.553086 0.523242 L 0.58625 0.543125 L 0.626094 0.543125 L 0.659258 0.549766 L 0.619453 0.954531 Z M 0.519922 0.954531 " transform="matrix(100,0,0,100,300,200)"/>
<path style="fill:none;stroke-width:0.01;stroke-linecap:butt;stroke-linejoin:miter;stroke:rgb(0%,0%,0%);stroke-opacity:1;stroke-miterlimit:10;" d="M 0.643789 0.796836 L 0.625234 0.314453 L 0.671602 0.295937 L 0.699453 0.268086 L 0.699453 0.212422 L 0.690156 0.184609 L 0.671602 0.166055 L 0.643789 0.156758 L 0.60668 0.1475 L 0.597422 0.1475 L 0.578867 0.0454687 L 0.458242 0.0454687 L 0.291289 0.128945 L 0.291289 0.648438 L 0.411875 0.843242 L 0.448984 0.954531 L 0.671602 0.954531 L 0.699453 0.917422 L 0.708711 0.889609 L 0.699453 0.8525 L 0.680898 0.833945 Z M 0.643789 0.796836 " transform="matrix(100,0,0,100,450,200)"/>
<path style="fill:none;stroke-width:0.01;stroke-linecap:butt;stroke-linejoin:miter;stroke:rgb(0%,0%,0%);stroke-opacity:1;stroke-miterlimit:10;" d="M 0.554258 0.954531 L 0.255781 0.954531 L 0.255781 0.696758 L 0.350742 0.506797 L 0.432148 0.0997266 L 0.445742 0.0454687 L 0.581406 0.0454687 L 0.608555 0.153984 L 0.635703 0.303242 L 0.717109 0.330391 L 0.744219 0.398242 L 0.730664 0.466094 L 0.703516 0.506797 L 0.635703 0.5475 L 0.649258 0.954531 Z M 0.554258 0.954531 " transform="matrix(100,0,0,100,600,200)"/>
<path style="fill:none;stroke-width:0.01;stroke-linecap:butt;stroke-linejoin:miter;stroke:rgb(0%,0%,0%);stroke-opacity:1;stroke-miterlimit:10;" d="M 0.863633 0.818164 L 0.954531 0.545469 L 0.954531 0.272734 L 0.409102 0.181836 L 0.136367 0.181836 L 0.227266 0.454531 L 0.0454688 0.727266 Z M 0.863633 0.818164 " transform="matrix(100,0,0,100,0,350)"/>
<path style="fill:none;stroke-width:0.01;stroke-linecap:butt;stroke-linejoin:miter;stroke:rgb(0%,0%,0%);stroke-opacity:1;stroke-miterlimit:10;" d="M 0.457383 0.121211 L 0.381641 0.339023 L 0.353203 0.537891 L 0.173281 0.746211 L 0.144883 0.954531 L 0.703594 0.954531 L 0.713086 0.537891 L 0.731992 0.509453 L 0.788828 0.490547 L 0.826719 0.443164 L 0.845625 0.386367 L 0.855117 0.310625 L 0.836172 0.225391 L 0.788828 0.215898 L 0.694141 0.1875 L 0.694141 0.0833203 L 0.665703 0.064375 L 0.599414 0.0454687 L 0.533125 0.0454687 L 0.504727 0.064375 L 0.476328 0.0833203 Z M 0.457383 0.121211 " transform="matrix(100,0,0,100,150,350)"/>
<path style="fill:none;stroke-width:0.01;stroke-linecap:butt;stroke-linejoin:miter;stroke:rgb(0%,0%,0%);stroke-opacity:1;stroke-miterlimit:10;" d="M 0.524805 0.136367 L 0.0454687 0.10332 L 0.144609 0.764453 L 0.376016 0.880156 L 0.673555 0.89668 L 0.690078 0.830586 L 0.772734 0.797539 L 0.855391 0.731406 L 0.921484 0.731406 L 0.938008 0.665273 L 0.954531 0.59918 L 0.888438 0.533047 L 0.805781 0.483477 L 0.772734 0.136367 Z M 0.524805 0.136367 " transform="matrix(100,0,0,100,300,350)"/>
<path style="fill:none;stroke-width:0.01;stroke-linecap:butt;stroke-linejoin:miter;stroke:rgb(0%,0%,0%);stroke-opacity:1;stroke-miterlimit:10;" d="M 0.511094 0.755 L 0.0454688 0.732812 L 0.111992 0.466758 L 0.245 0.267187 L 0.666289 0.245 L 0.755 0.400234 L 0.799336 0.533242 L 0.865859 0.55543 L 0.910195 0.577617 L 0.954531 0.621953 L 0.954531 0.732812 Z M 0.511094 0.755 " transform="matrix(100,0,0,100,450,350)"/>
<path style="fill:none;stroke-width:0.01;stroke-linecap:butt;stroke-linejoin:miter;stroke:rgb(0%,0%,0%);stroke-opacity:1;stroke-miterlimit:10;" d="M 0.672422 0.954531 L 0.155156 0.954531 L 0.217852 0.656758 L 0.405938 0.437305 L 0.452969 0.264883 L 0.547031 0.108164 L 0.562695 0.0454687 L 0.719453 0.0611328 L 0.750781 0.139492 L 0.829141 0.139492 L 0.813477 0.217852 L 0.782148 0.233555 L 0.829141 0.264883 L 0.844844 0.311914 L 0.844844 0.405938 L 0.829141 0.5 L 0.797813 0.547031 L 0.70375 0.562695 Z M 0.672422 0.954531 " transform="matrix(100,0,0,100,600,350)"/>
<path style="fill:none;stroke-width:0.01;stroke-linecap:butt;stroke-linejoin:miter;stroke:rgb(0%,0%,0%);stroke-opacity:1;stroke-miterlimit:10;" d="M 0.954531 0.777773 L 0.0454688 0.777773 L 0.247461 0.272734 L 0.550508 0.222227 L 0.803047 0.272734 L 0.904023 0.424258 L 0.904023 0.62625 Z M 0.954531 0.777773 " transform="matrix(100,0,0,100,0,500)"/>
<path style="fill:none;stroke-width:0.01;stroke-linecap:butt;stroke-linejoin:miter;stroke:rgb(0%,0%,0%);stroke-opacity:1;stroke-miterlimit:10;" d="M 0.568867 0.954531 L 0.155664 0.954531 L 0.210742 0.348477 L 0.376016 0.293398 L 0.403594 0.238281 L 0.431133 0.0730078 L 0.431133 0.0454688 L 0.568867 0.0730078 L 0.679063 0.100547 L 0.761719 0.128086 L 0.789258 0.128086 L 0.789258 0.210742 L 0.679063 0.210742 L 0.679063 0.320938 L 0.789258 0.376016 L 0.844336 0.458672 L 0.816797 0.541328 L 0.734141 0.568867 L 0.679063 0.623984 L 0.706602 0.761719 L 0.679063 0.871914 L 0.761719 0.899453 L 0.761719 0.954531 Z M 0.568867 0.954531 " transform="matrix(100,0,0,100,150,500)"/>
<path style="fill:none;stroke-width:0.01;stroke-linecap:butt;stroke-linejoin:miter;stroke:rgb(0%,0%,0%);stroke-opacity:1;stroke-miterlimit:10;" d="M 0.690625 0.668633 L 0.763945 0.492656 L 0.837227 0.492656 L 0.925234 0.463359 L 0.939883 0.404688 L 0.954531 0.360703 L 0.925234 0.316719 L 0.88125 0.287383 L 0.822578 0.272734 L 0.0454687 0.272734 L 0.0601172 0.448672 L 0.368047 0.668633 L 0.382695 0.727266 L 0.690625 0.712617 Z M 0.690625 0.668633 " transform="matrix(100,0,0,100,300,500)"/>
<path style="fill:none;stroke-width:0.01;stroke-linecap:butt;stroke-linejoin:miter;stroke:rgb(0%,0%,0%);stroke-opacity:1;stroke-miterlimit:10;" d="M 0.581484 0.954531 L 0.229844 0.954531 L 0.246992 0.714414 L 0.281289 0.620078 L 0.32418 0.560039 L 0.36707 0.508594 L 0.392812 0.474258 L 0.409961 0.319883 L 0.418516 0.165508 L 0.478555 0.0797656 L 0.521445 0.0454688 L 0.590039 0.0454688 L 0.641523 0.0883203 L 0.658672 0.105508 L 0.692969 0.165508 L 0.684375 0.225547 L 0.744414 0.242695 L 0.770156 0.277031 L 0.770156 0.414219 L 0.744414 0.448555 L 0.67582 0.482852 L 0.667227 0.482852 L 0.650078 0.954531 Z M 0.581484 0.954531 " transform="matrix(100,0,0,100,450,500)"/>
<path style="fill:none;stroke-width:0.01;stroke-linecap:butt;stroke-linejoin:miter;stroke:rgb(0%,0%,0%);stroke-opacity:1;stroke-miterlimit:10;" d="M 0.611836 0.831875 L 0.597422 0.261914 L 0.611836 0.240273 L 0.611836 0.153672 L 0.590195 0.168125 L 0.546914 0.0454688 L 0.496406 0.0598828 L 0.453086 0.0815234 L 0.445898 0.168125 L 0.431445 0.20418 L 0.388164 0.254688 L 0.388164 0.528867 L 0.51082 0.723672 L 0.546914 0.853555 L 0.561328 0.904023 L 0.575742 0.918477 L 0.590195 0.940117 L 0.604609 0.954531 Z M 0.611836 0.831875 " transform="matrix(100,0,0,100,600,500)"/>
<path style="fill:none;stroke-width:0.01;stroke-linecap:butt;stroke-linejoin:miter;stroke:rgb(0%,0%,0%);stroke-opacity:1;stroke-miterlimit:10;" d="M 0.669492 0.538516 L 0.654102 0.0454688 L 0.376719 0.0762891 L 0.284297 0.276562 L 0.268867 0.754219 L 0.438359 0.954531 L 0.623281 0.954531 L 0.684883 0.89293 L 0.669492 0.800469 L 0.715703 0.785039 L 0.731133 0.754219 L 0.731133 0.692617 L 0.715703 0.661797 L 0.669492 0.646367 Z M 0.669492 0.538516 " transform="matrix(100,0,0,100,0,650)"/>
<path style="fill:none;stroke-width:0.01;stroke-linecap:butt;stroke-linejoin:miter;stroke:rgb(0%,0%,0%);stroke-opacity:1;stroke-miterlimit:10;" d="M 0.629883 0.777461 L 0.64168 0.387852 L 0.677109 0.364219 L 0.688906 0.328789 L 0.688906 0.305195 L 0.677109 0.293398 L 0.64168 0.281602 L 0.629883 0.269766 L 0.64168 0.139922 L 0.629883 0.104492 L 0.618047 0.0572656 L 0.582656 0.0454688 L 0.53543 0.0454688 L 0.476406 0.0690625 L 0.42918 0.316992 L 0.346523 0.423242 L 0.311094 0.470469 L 0.311094 0.730234 L 0.334727 0.812852 L 0.39375 0.907305 L 0.405547 0.954531 L 0.618047 0.954531 L 0.653477 0.942734 L 0.677109 0.907305 L 0.665273 0.883711 L 0.629883 0.860078 L 0.618047 0.848281 Z M 0.629883 0.777461 " transform="matrix(100,0,0,100,150,650)"/>
<path style="fill:none;stroke-width:0.01;stroke-linecap:butt;stroke-linejoin:miter;stroke:rgb(0%,0%,0%);stroke-opacity:1;stroke-miterlimit:10;" d="M 0.617656 0.954531 L 0.264687 0.954531 L 0.275391 0.633672 L 0.382344 0.473281 L 0.43582 0.184492 L 0.46793 0.0882422 L 0.521406 0.0668359 L 0.542773 0.0454688 L 0.628359 0.0454688 L 0.628359 0.216563 L 0.681836 0.237969 L 0.724609 0.270039 L 0.735313 0.334219 L 0.735313 0.387695 L 0.724609 0.441172 L 0.639023 0.473281 L 0.606953 0.494648 Z M 0.617656 0.954531 " transform="matrix(100,0,0,100,300,650)"/>
<path style="fill:none;stroke-width:0.01;stroke-linecap:butt;stroke-linejoin:miter;stroke:rgb(0%,0%,0%);stroke-opacity:1;stroke-miterlimit:10;" d="M 0.875508 0.816211 L 0.0454688 0.816211 L 0.0454688 0.381406 L 0.164023 0.183789 L 0.361641 0.22332 L 0.401172 0.618594 L 0.717383 0.658086 L 0.954531 0.658086 Z M 0.875508 0.816211 " transform="matrix(100,0,0,100,450,650)"/>
<path style="fill:none;stroke-width:0.01;stroke-linecap:butt;stroke-linejoin:miter;stroke:rgb(0%,0%,0%);stroke-opacity:1;stroke-miterlimit:10;" d="M 0.425781 0.954531 L 0.741172 0.954531 L 0.741172 0.917422 L 0.796836 0.898906 L 0.833945 0.861797 L 0.871055 0.713359 L 0.833945 0.620586 L 0.796836 0.564922 L 0.741172 0.527813 L 0.685547 0.509258 L 0.685547 0.416523 L 0.704063 0.268086 L 0.629883 0.0454688 L 0.5 0.0454688 L 0.388672 0.119648 L 0.314453 0.175313 L 0.277383 0.286641 L 0.258828 0.435078 L 0.221719 0.657695 L 0.221719 0.824688 L 0.128945 0.954531 Z M 0.425781 0.954531 " transform="matrix(100,0,0,100,600,650)"/>
<path style="fill:none;stroke-width:0.01;stroke-linecap:butt;stroke-linejoin:miter;stroke:rgb(0%,0%,0%);stroke-opacity:1;stroke-miterlimit:10;" d="M 0.614375 0.201992 L 0.626445 0.250156 L 0.626445 0.954531 L 0.542148 0.948516 L 0.512031 0.88832 L 0.493984 0.828125 L 0.475938 0.798008 L 0.415703 0.713711 L 0.385625 0.611367 L 0.373555 0.460859 L 0.379609 0.322383 L 0.373555 0.274219 L 0.391641 0.226055 L 0.427773 0.165859 L 0.457852 0.129727 L 0.469883 0.0815625 L 0.530117 0.0514844 L 0.602344 0.0454687 L 0.620391 0.0514844 L 0.620391 0.117695 L 0.614375 0.165859 Z M 0.614375 0.201992 " transform="matrix(100,0,0,100,0,800)"/>
<path style="fill:none;stroke-width:0.01;stroke-linecap:butt;stroke-linejoin:miter;stroke:rgb(0%,0%,0%);stroke-opacity:1;stroke-miterlimit:10;" d="M 0.805781 0.731406 L 0.0950391 0.731406 L 0.0454687 0.64875 L 0.0619922 0.59918 L 0.111563 0.533047 L 0.177695 0.483477 L 0.276875 0.40082 L 0.276875 0.334727 L 0.309922 0.268594 L 0.359492 0.268594 L 0.475195 0.285117 L 0.557852 0.301641 L 0.623984 0.318164 L 0.723125 0.301641 L 0.756211 0.318164 L 0.739688 0.384297 L 0.723125 0.417344 L 0.640508 0.466953 L 0.673555 0.54957 L 0.805781 0.54957 L 0.904961 0.582656 L 0.954531 0.64875 L 0.938008 0.714883 Z M 0.805781 0.731406 " transform="matrix(100,0,0,100,150,800)"/>
<path style="fill:none;stroke-width:0.01;stroke-linecap:butt;stroke-linejoin:miter;stroke:rgb(0%,0%,0%);stroke-opacity:1;stroke-miterlimit:10;" d="M 0.628828 0.331797 L 0.628828 0.954531 L 0.600195 0.954531 L 0.593047 0.940234 L 0.507148 0.91875 L 0.492852 0.847188 L 0.399805 0.71832 L 0.37832 0.610938 L 0.37832 0.539375 L 0.371172 0.439141 L 0.371172 0.36043 L 0.406953 0.295977 L 0.442734 0.253047 L 0.464219 0.167148 L 0.478516 0.0669141 L 0.521484 0.0454687 L 0.550117 0.0526172 L 0.57875 0.0669141 L 0.593047 0.0955469 L 0.62168 0.102734 L 0.628828 0.145664 L 0.607383 0.174297 L 0.607383 0.20293 L 0.614531 0.28168 Z M 0.628828 0.331797 " transform="matrix(100,0,0,100,300,800)"/>
<path style="fill:none;stroke-width:0.01;stroke-linecap:butt;stroke-linejoin:miter;stroke:rgb(0%,0%,0%);stroke-opacity:1;stroke-miterlimit:10;" d="M 0.772734 0.621211 L 0.772734 0.409102 L 0.742422 0.287891 L 0.863633 0.287891 L 0.863633 0.136367 L 0.803047 0.0757422 L 0.712109 0.0757422 L 0.681836 0.0454687 L 0.106055 0.0454687 L 0.16668 0.681836 L 0.378789 0.954531 L 0.5 0.954531 L 0.621211 0.924258 L 0.681836 0.893945 L 0.803047 0.863633 L 0.893945 0.83332 L 0.83332 0.772734 L 0.772734 0.742422 Z M 0.772734 0.621211 " transform="matrix(100,0,0,100,450,800)"/>
<path style="fill:none;stroke-width:0.01;stroke-linecap:butt;stroke-linejoin:miter;stroke:rgb(0%,0%,0%);stroke-opacity:1;stroke-miterlimit:10;" d="M 0.741797 0.412969 L 0.780469 0.0454687 L 0.219531 0.0454687 L 0.219531 0.451641 L 0.412969 0.896523 L 0.625742 0.954531 L 0.645078 0.761133 L 0.722422 0.722422 L 0.761133 0.664414 L 0.741797 0.606367 L 0.703086 0.548359 Z M 0.741797 0.412969 " transform="matrix(100,0,0,100,600,800)"/>
<path style="fill:none;stroke-width:0.01;stroke-linecap:butt;stroke-linejoin:miter;stroke:rgb(0%,0%,0%);stroke-opacity:1;stroke-miterlimit:10;" d="M 0.648203 0.722344 L 0.0454688 0.722344 L 0.0948438 0.504922 L 0.233203 0.39625 L 0.252969 0.386367 L 0.252969 0.336953 L 0.282617 0.317188 L 0.302383 0.346836 L 0.361641 0.317188 L 0.420938 0.287539 L 0.519766 0.287539 L 0.598828 0.277656 L 0.658086 0.277656 L 0.697617 0.297422 L 0.717383 0.32707 L 0.7075 0.366602 L 0.687734 0.386367 L 0.638359 0.386367 L 0.717383 0.60375 L 0.796445 0.60375 L 0.865625 0.623516 L 0.905156 0.653164 L 0.944648 0.682813 L 0.954531 0.722344 Z M 0.648203 0.722344 " transform="matrix(100,0,0,100,0,950)"/>
<path style="fill:none;stroke-width:0.01;stroke-linecap:butt;stroke-linejoin:miter;stroke:rgb(0%,0%,0%);stroke-opacity:1;stroke-miterlimit:10;" d="M 0.91957 0.167852 L 0.0629297 0.167852 L 0.0454687 0.342656 L 0.0454687 0.552461 L 0.0629297 0.604883 L 0.360156 0.779727 L 0.622383 0.814687 L 0.657344 0.832148 L 0.709805 0.814687 L 0.814688 0.797187 L 0.91957 0.762227 L 0.954531 0.727266 L 0.93707 0.674844 L 0.832148 0.622383 L 0.867148 0.395117 Z M 0.91957 0.167852 " transform="matrix(100,0,0,100,150,950)"/>
<path style="fill:none;stroke-width:0.01;stroke-linecap:butt;stroke-linejoin:miter;stroke:rgb(0%,0%,0%);stroke-opacity:1;stroke-miterlimit:10;" d="M 0.954531 0.597422 L 0.0454687 0.597422 L 0.142852 0.5 L 0.532461 0.532461 L 0.727266 0.402578 L 0.857148 0.5 Z M 0.954531 0.597422 " transform="matrix(100,0,0,100,300,950)"/>
<path style="fill:none;stroke-width:0.01;stroke-linecap:butt;stroke-linejoin:miter;stroke:rgb(0%,0%,0%);stroke-opacity:1;stroke-miterlimit:10;" d="M 0.775117 0.494023 L 0.834922 0.458125 L 0.822969 0.362422 L 0.547852 0.362422 L 0.464102 0.350469 L 0.404297 0.362422 L 0.296641 0.410273 L 0.21293 0.470078 L 0.0813281 0.625586 L 0.0454688 0.649531 L 0.954531 0.649531 L 0.918672 0.60168 L 0.846875 0.60168 Z M 0.775117 0.494023 " transform="matrix(100,0,0,100,450,950)"/>
<path style="fill:none;stroke-width:0.01;stroke-linecap:butt;stroke-linejoin:miter;stroke:rgb(0%,0%,0%);stroke-opacity:1;stroke-miterlimit:10;" d="M 0.954531 0.488633 L 0.0454688 0.420469 L 0.0908984 0.465898 L 0.25 0.488633 L 0.363633 0.579531 L 0.590898 0.579531 L 0.75 0.534102 Z M 0.954531 0.488633 " transform="matrix(100,0,0,100,600,950)"/>
<path style="fill:none;stroke-width:0.01;stroke-linecap:butt;stroke-linejoin:miter;stroke:rgb(0%,0%,0%);stroke-opacity:1;stroke-miterlimit:10;" d="M 0.829141 0.656758 L 0.0454688 0.656758 L 0.264883 0.468633 L 0.264883 0.405938 L 0.578359 0.343242 L 0.766445 0.374609 L 0.923203 0.374609 L 0.954531 0.468633 L 0.829141 0.531367 Z M 0.829141 0.656758 " transform="matrix(100,0,0,100,0,1100)"/>
<path style="fill:none;stroke-width:0.01;stroke-linecap:butt;stroke-linejoin:miter;stroke:rgb(0%,0%,0%);stroke-opacity:1;stroke-miterlimit:10;" d="M 0.901523 0.45832 L 0.924258 0.125 L 0.196953 0.109844 L 0.16668 0.246211 L 0.106055 0.268945 L 0.0833203 0.337109 L 0.0454687 0.375 L 0.0757422 0.420469 L 0.0908984 0.496211 L 0.151523 0.518945 L 0.151523 0.617422 L 0.174258 0.670469 L 0.287891 0.784102 L 0.295469 0.844688 L 0.318164 0.890156 L 0.356055 0.882578 L 0.719688 0.882578 L 0.719688 0.844688 L 0.696953 0.837109 L 0.719688 0.821953 L 0.772734 0.844688 L 0.863633 0.844688 L 0.939375 0.852266 L 0.954531 0.814375 L 0.946953 0.715898 L 0.871211 0.670469 L 0.871211 0.571953 Z M 0.901523 0.45832 " transform="matrix(100,0,0,100,150,1100)"/>
<path style="fill:none;stroke-width:0.01;stroke-linecap:butt;stroke-linejoin:miter;stroke:rgb(0%,0%,0%);stroke-opacity:1;stroke-miterlimit:10;" d="M 0.954531 0.627852 L 0.0454687 0.627852 L 0.357969 0.457383 L 0.5 0.372148 L 0.585234 0.428984 L 0.670469 0.428984 L 0.784102 0.485781 L 0.8125 0.542617 L 0.8125 0.599414 Z M 0.954531 0.627852 " transform="matrix(100,0,0,100,300,1100)"/>
<path style="fill:none;stroke-width:0.01;stroke-linecap:butt;stroke-linejoin:miter;stroke:rgb(0%,0%,0%);stroke-opacity:1;stroke-miterlimit:10;" d="M 0.827695 0.774844 L 0.806563 0.436563 L 0.891133 0.457734 L 0.933398 0.351992 L 0.933398 0.246289 L 0.806563 0.225156 L 0.78543 0.140586 L 0.679688 0.161719 L 0.552852 0.0983203 L 0.468281 0.161719 L 0.320312 0.161719 L 0.193437 0.330859 L 0.108867 0.41543 L 0.0454688 0.90168 L 0.954531 0.90168 L 0.954531 0.859414 Z M 0.827695 0.774844 " transform="matrix(100,0,0,100,450,1100)"/>
<path style="fill:none;stroke-width:0.01;stroke-linecap:butt;stroke-linejoin:miter;stroke:rgb(0%,0%,0%);stroke-opacity:1;stroke-miterlimit:10;" d="M 0.867969 0.813867 L 0.867969 0.467539 L 0.954531 0.445898 L 0.954531 0.316016 L 0.781367 0.251094 L 0.781367 0.186133 L 0.803047 0.142852 L 0.781367 0.0995703 L 0.608242 0.0779297 L 0.391758 0.0562891 L 0.0454688 0.229453 L 0.0454688 0.943711 L 0.954531 0.943711 L 0.954531 0.92207 L 0.846328 0.90043 Z M 0.867969 0.813867 " transform="matrix(100,0,0,100,600,1100)"/>
<path style="fill:none;stroke-width:0.01;stroke-linecap:butt;stroke-linejoin:miter;stroke:rgb(0%,0%,0%);stroke-opacity:1;stroke-miterlimit:10;" d="M 0.954531 0.0918359 L 0.0454688 0.0547266 L 0.0825781 0.333008 L 0.193867 0.5 L 0.564922 0.666992 L 0.750469 0.778281 L 0.787578 0.833945 L 0.898906 0.945273 L 0.954531 0.945273 Z M 0.954531 0.0918359 " transform="matrix(100,0,0,100,0,1250)"/>
<path style="fill:none;stroke-width:0.01;stroke-linecap:butt;stroke-linejoin:miter;stroke:rgb(0%,0%,0%);stroke-opacity:1;stroke-miterlimit:10;" d="M 0.954531 0.78707 L 0.0454687 0.78707 L 0.0933203 0.667461 L 0.284687 0.619609 L 0.404297 0.476094 L 0.595703 0.332539 L 0.78707 0.284688 L 0.882773 0.21293 L 0.954531 0.21293 L 0.954531 0.308594 Z M 0.954531 0.78707 " transform="matrix(100,0,0,100,150,1250)"/>
<path style="fill:none;stroke-width:0.01;stroke-linecap:butt;stroke-linejoin:miter;stroke:rgb(0%,0%,0%);stroke-opacity:1;stroke-miterlimit:10;" d="M 0.806563 0.954531 L 0.21457 0.954531 L 0.151172 0.743125 L 0.151172 0.235742 L 0.341445 0.0666016 L 0.552852 0.0454687 L 0.764258 0.0877344 L 0.78543 0.151172 L 0.679688 0.193437 L 0.637422 0.21457 L 0.658555 0.468281 L 0.679688 0.595156 L 0.827695 0.637422 L 0.848828 0.679688 L 0.848828 0.743125 L 0.764258 0.764258 L 0.700859 0.78543 L 0.78543 0.912266 Z M 0.806563 0.954531 " transform="matrix(100,0,0,100,300,1250)"/>
<path style="fill:none;stroke-width:0.01;stroke-linecap:butt;stroke-linejoin:miter;stroke:rgb(0%,0%,0%);stroke-opacity:1;stroke-miterlimit:10;" d="M 0.899453 0.376016 L 0.899453 0.128086 L 0.0454688 0.128086 L 0.183203 0.376016 L 0.376016 0.376016 L 0.376016 0.761719 L 0.458672 0.871914 L 0.596406 0.871914 L 0.789258 0.789258 L 0.871914 0.789258 L 0.926992 0.761719 L 0.954531 0.651523 L 0.899453 0.568867 L 0.844336 0.568867 Z M 0.899453 0.376016 " transform="matrix(100,0,0,100,450,1250)"/>
<path style="fill:none;stroke-width:0.01;stroke-linecap:butt;stroke-linejoin:miter;stroke:rgb(0%,0%,0%);stroke-opacity:1;stroke-miterlimit:10;" d="M 0.719922 0.42668 L 0.661289 0.338711 L 0.749258 0.309375 L 0.749258 0.250742 L 0.602656 0.280078 L 0.543984 0.19207 L 0.309375 0.280078 L 0.0454688 0.397344 L 0.0454688 0.80793 L 0.954531 0.80793 L 0.719922 0.778594 L 0.690625 0.690625 L 0.690625 0.57332 L 0.837227 0.543984 L 0.925234 0.514648 L 0.866563 0.456016 Z M 0.719922 0.42668 " transform="matrix(100,0,0,100,600,1250)"/>
<path style="fill:none;stroke-width:0.01;stroke-linecap:butt;stroke-linejoin:miter;stroke:rgb(0%,0%,0%);stroke-opacity:1;stroke-miterlimit:10;" d="M 0.954531 0.91957 L 0.0454688 0.91957 L 0.115391 0.5 L 0.185312 0.290195 L 0.395117 0.150352 L 0.604883 0.0804297 L 0.744766 0.220273 L 0.814688 0.290195 L 0.884609 0.430078 Z M 0.954531 0.91957 " transform="matrix(100,0,0,100,0,1400)"/>
<path style="fill:none;stroke-width:0.01;stroke-linecap:butt;stroke-linejoin:miter;stroke:rgb(0%,0%,0%);stroke-opacity:1;stroke-miterlimit:10;" d="M 0.827266 0.790898 L 0.827266 0.590898 L 0.918164 0.572734 L 0.954531 0.536367 L 0.954531 0.481836 L 0.772734 0.445469 L 0.736367 0.354531 L 0.845469 0.354531 L 0.845469 0.3 L 0.809102 0.227266 L 0.7 0.209102 L 0.463633 0.245469 L 0.354531 0.281836 L 0.190898 0.281836 L 0.0636328 0.390898 L 0.0454687 0.790898 Z M 0.827266 0.790898 " transform="matrix(100,0,0,100,150,1400)"/>
<path style="fill:none;stroke-width:0.01;stroke-linecap:butt;stroke-linejoin:miter;stroke:rgb(0%,0%,0%);stroke-opacity:1;stroke-miterlimit:10;" d="M 0.778594 0.397344 L 0.778594 0.719922 L 0.675937 0.822578 L 0.558633 0.954531 L 0.514648 0.895898 L 0.353359 0.895898 L 0.294727 0.763945 L 0.294727 0.5 L 0.177422 0.294727 L 0.148086 0.265391 L 0.11875 0.133437 L 0.11875 0.0454687 L 0.851914 0.0747656 L 0.88125 0.11875 L 0.866563 0.250742 L 0.80793 0.280078 L 0.763945 0.309375 Z M 0.778594 0.397344 " transform="matrix(100,0,0,100,300,1400)"/>
<path style="fill:none;stroke-width:0.01;stroke-linecap:butt;stroke-linejoin:miter;stroke:rgb(0%,0%,0%);stroke-opacity:1;stroke-miterlimit:10;" d="M 0.548281 0.153398 L 0.53125 0.136367 L 0.576719 0.130664 L 0.582383 0.119336 L 0.571016 0.0738672 L 0.480117 0.0738672 L 0.463086 0.0681641 L 0.428984 0.0454687 L 0.383516 0.0511328 L 0.338086 0.0738672 L 0.332383 0.142031 L 0.315352 0.159102 L 0.275586 0.176133 L 0.235781 0.204531 L 0.21875 0.238633 L 0.207383 0.284102 L 0.230117 0.954531 L 0.735781 0.954531 L 0.747148 0.926133 L 0.764219 0.590898 L 0.713086 0.431836 L 0.769883 0.4375 L 0.792617 0.414766 L 0.792617 0.375 L 0.769883 0.340898 L 0.724414 0.335234 L 0.678984 0.329531 L 0.65625 0.323867 Z M 0.548281 0.153398 " transform="matrix(100,0,0,100,450,1400)"/>
<path style="fill:none;stroke-width:0.01;stroke-linecap:butt;stroke-linejoin:miter;stroke:rgb(0%,0%,0%);stroke-opacity:1;stroke-miterlimit:10;" d="M 0.671523 0.354219 L 0.671523 0.216992 L 0.740156 0.182695 L 0.740156 0.0969141 L 0.585781 0.0454687 L 0.517148 0.0626172 L 0.448555 0.148359 L 0.39707 0.234141 L 0.277031 0.354219 L 0.208398 0.439961 L 0.156953 0.954531 L 0.740156 0.954531 L 0.740156 0.851641 L 0.825898 0.834492 L 0.843047 0.783008 L 0.843047 0.748711 L 0.80875 0.697266 L 0.722969 0.697266 Z M 0.671523 0.354219 " transform="matrix(100,0,0,100,600,1400)"/>
<path style="fill:none;stroke-width:0.01;stroke-linecap:butt;stroke-linejoin:miter;stroke:rgb(0%,0%,0%);stroke-opacity:1;stroke-miterlimit:10;" d="M 0.782813 0.0858594 L 0.782813 0.186875 L 0.843438 0.287891 L 0.863633 0.388906 L 0.782813 0.409102 L 0.762617 0.429297 L 0.782813 0.510117 L 0.863633 0.550508 L 0.904023 0.691914 L 0.904023 0.83332 L 0.762617 0.87375 L 0.661602 0.893945 L 0.661602 0.954531 L 0.41918 0.934336 L 0.358594 0.772734 L 0.318164 0.691914 L 0.318164 0.489883 L 0.136367 0.287891 L 0.0959766 0.0454687 Z M 0.782813 0.0858594 " transform="matrix(100,0,0,100,0,1550)"/>
<path style="fill:none;stroke-width:0.01;stroke-linecap:butt;stroke-linejoin:miter;stroke:rgb(0%,0%,0%);stroke-opacity:1;stroke-miterlimit:10;" d="M 0.670469 0.689375 L 0.645195 0.297969 L 0.683086 0.285352 L 0.70832 0.222227 L 0.70832 0.171719 L 0.645195 0.146445 L 0.58207 0.121211 L 0.556836 0.0454687 L 0.493672 0.0454687 L 0.443164 0.133828 L 0.405312 0.222227 L 0.392695 0.272734 L 0.392695 0.348477 L 0.29168 0.462109 L 0.228555 0.664141 L 0.241172 0.891406 L 0.228555 0.954531 L 0.733594 0.954531 L 0.746211 0.941914 L 0.771445 0.904023 L 0.758828 0.866172 L 0.733594 0.828281 L 0.683086 0.815664 L 0.670469 0.752539 Z M 0.670469 0.689375 " transform="matrix(100,0,0,100,150,1550)"/>
<path style="fill:none;stroke-width:0.01;stroke-linecap:butt;stroke-linejoin:miter;stroke:rgb(0%,0%,0%);stroke-opacity:1;stroke-miterlimit:10;" d="M 0.838281 0.700859 L 0.795977 0.383711 L 0.880547 0.383711 L 0.922852 0.299141 L 0.90168 0.193437 L 0.859414 0.172305 L 0.774844 0.151172 L 0.753711 0.108867 L 0.669141 0.0454687 L 0.542266 0.0666016 L 0.478867 0.130039 L 0.436562 0.341445 L 0.41543 0.447148 L 0.246289 0.573984 L 0.0771484 0.954531 L 0.880547 0.954531 Z M 0.838281 0.700859 " transform="matrix(100,0,0,100,300,1550)"/>
<path style="fill:none;stroke-width:0.01;stroke-linecap:butt;stroke-linejoin:miter;stroke:rgb(0%,0%,0%);stroke-opacity:1;stroke-miterlimit:10;" d="M 0.731914 0.741172 L 0.731914 0.518555 L 0.898906 0.5 L 0.954531 0.444336 L 0.954531 0.351562 L 0.787578 0.370117 L 0.694805 0.277383 L 0.787578 0.258828 L 0.806133 0.221719 L 0.750469 0.166055 L 0.602031 0.166055 L 0.360859 0.184609 L 0.175313 0.221719 L 0.101094 0.314453 L 0.0454688 0.5 L 0.0454688 0.833945 L 0.731914 0.833945 Z M 0.731914 0.741172 " transform="matrix(100,0,0,100,450,1550)"/>
<path style="fill:none;stroke-width:0.01;stroke-linecap:butt;stroke-linejoin:miter;stroke:rgb(0%,0%,0%);stroke-opacity:1;stroke-miterlimit:10;" d="M 0.798711 0.746758 L 0.798711 0.435078 L 0.824688 0.357148 L 0.824688 0.227266 L 0.746758 0.227266 L 0.694805 0.201289 L 0.694805 0.0714453 L 0.564922 0.0454687 L 0.487031 0.0714453 L 0.383125 0.0974219 L 0.357148 0.253242 L 0.253242 0.409102 L 0.201289 0.642852 L 0.175313 0.876641 L 0.175313 0.954531 L 0.824688 0.954531 L 0.824688 0.850664 Z M 0.798711 0.746758 " transform="matrix(100,0,0,100,600,1550)"/>
<path style="fill:none;stroke-width:0.01;stroke-linecap:butt;stroke-linejoin:miter;stroke:rgb(0%,0%,0%);stroke-opacity:1;stroke-miterlimit:10;" d="M 0.883516 0.263242 L 0.807773 0.765156 L 0.826719 0.821953 L 0.826719 0.869336 L 0.798281 0.91668 L 0.722539 0.91668 L 0.646797 0.954531 L 0.599414 0.907187 L 0.533125 0.91668 L 0.457383 0.897734 L 0.305859 0.727266 L 0.116484 0.594687 L 0.0880859 0.518945 L 0.0880859 0.39582 L 0.0975391 0.0454688 L 0.883516 0.064375 L 0.911914 0.102266 Z M 0.883516 0.263242 " transform="matrix(100,0,0,100,0,1700)"/>
<path style="fill:none;stroke-width:0.01;stroke-linecap:butt;stroke-linejoin:miter;stroke:rgb(0%,0%,0%);stroke-opacity:1;stroke-miterlimit:10;" d="M 0.883242 0.811953 L 0.829766 0.722812 L 0.936719 0.740625 L 0.954531 0.633672 L 0.901055 0.580195 L 0.794102 0.562383 L 0.705 0.295 L 0.705 0.223711 L 0.562383 0.116758 L 0.366328 0.170234 L 0.188047 0.277188 L 0.0989453 0.401953 L 0.0454687 0.580195 L 0.0454687 0.758477 L 0.0632812 0.883242 L 0.901055 0.883242 Z M 0.883242 0.811953 " transform="matrix(100,0,0,100,150,1700)"/>
<path style="fill:none;stroke-width:0.01;stroke-linecap:butt;stroke-linejoin:miter;stroke:rgb(0%,0%,0%);stroke-opacity:1;stroke-miterlimit:10;" d="M 0.809102 0.0818359 L 0.0454687 0.0818359 L 0.3 0.336367 L 0.336367 0.590898 L 0.372734 0.881836 L 0.590898 0.918164 L 0.7 0.845469 L 0.881836 0.809102 L 0.954531 0.663633 L 0.881836 0.590898 L 0.809102 0.554531 Z M 0.809102 0.0818359 " transform="matrix(100,0,0,100,300,1700)"/>
<path style="fill:none;stroke-width:0.01;stroke-linecap:butt;stroke-linejoin:miter;stroke:rgb(0%,0%,0%);stroke-opacity:1;stroke-miterlimit:10;" d="M 0.863633 0.954531 L 0.106055 0.954531 L 0.136367 0.83332 L 0.227266 0.742422 L 0.318164 0.621211 L 0.318164 0.227266 L 0.409102 0.106055 L 0.560625 0.0454688 L 0.712109 0.0757422 L 0.742422 0.227266 L 0.83332 0.257578 L 0.893945 0.5 L 0.772734 0.560625 Z M 0.863633 0.954531 " transform="matrix(100,0,0,100,450,1700)"/>
<path style="fill:none;stroke-width:0.01;stroke-linecap:butt;stroke-linejoin:miter;stroke:rgb(0%,0%,0%);stroke-opacity:1;stroke-miterlimit:10;" d="M 0.88082 0.0823047 L 0.0454688 0.131445 L 0.0454688 0.549141 L 0.0700391 0.647422 L 0.291172 0.843984 L 0.438594 0.893125 L 0.585977 0.917695 L 0.659688 0.794844 L 0.782539 0.794844 L 0.905391 0.770273 L 0.954531 0.696562 L 0.929961 0.598281 L 0.807109 0.52457 Z M 0.88082 0.0823047 " transform="matrix(100,0,0,100,600,1700)"/>
<path style="fill:none;stroke-width:0.01;stroke-linecap:butt;stroke-linejoin:miter;stroke:rgb(0%,0%,0%);stroke-opacity:1;stroke-miterlimit:10;" d="M 0.90668 0.834922 L 0.0454688 0.834922 L 0.284687 0.595703 L 0.380391 0.452148 L 0.428242 0.308594 L 0.619609 0.165078 L 0.858867 0.165078 L 0.858867 0.308594 L 0.954531 0.308594 L 0.954531 0.356445 L 0.763164 0.5 Z M 0.90668 0.834922 " transform="matrix(100,0,0,100,0,1850)"/>
<path style="fill:none;stroke-width:0.01;stroke-linecap:butt;stroke-linejoin:miter;stroke:rgb(0%,0%,0%);stroke-opacity:1;stroke-miterlimit:10;" d="M 0.92207 0.727266 L 0.954531 0.597422 L 0.954531 0.532461 L 0.792227 0.5 L 0.694805 0.370117 L 0.727266 0.337656 L 0.662344 0.272734 L 0.435078 0.272734 L 0.370117 0.402578 L 0.240273 0.467539 L 0.0779297 0.532461 L 0.0454687 0.694805 Z M 0.92207 0.727266 " transform="matrix(100,0,0,100,150,1850)"/>
<path style="fill:none;stroke-width:0.01;stroke-linecap:butt;stroke-linejoin:miter;stroke:rgb(0%,0%,0%);stroke-opacity:1;stroke-miterlimit:10;" d="M 0.954531 0.319414 L 0.0454687 0.319414 L 0.219805 0.443945 L 0.294531 0.493789 L 0.356797 0.556055 L 0.543594 0.668125 L 0.680586 0.655664 L 0.817578 0.680586 L 0.917188 0.668125 L 0.942109 0.605859 L 0.942109 0.556055 L 0.817578 0.543594 L 0.854922 0.394141 L 0.879844 0.356797 Z M 0.954531 0.319414 " transform="matrix(100,0,0,100,300,1850)"/>
<path style="fill:none;stroke-width:0.01;stroke-linecap:butt;stroke-linejoin:miter;stroke:rgb(0%,0%,0%);stroke-opacity:1;stroke-miterlimit:10;" d="M 0.817578 0.624531 L 0.0454688 0.624531 L 0.157539 0.537344 L 0.244727 0.437734 L 0.394141 0.412813 L 0.493789 0.38793 L 0.531133 0.375469 L 0.842461 0.375469 L 0.917187 0.412813 L 0.942109 0.512461 L 0.954531 0.624531 Z M 0.817578 0.624531 " transform="matrix(100,0,0,100,450,1850)"/>
<path style="fill:none;stroke-width:0.01;stroke-linecap:butt;stroke-linejoin:miter;stroke:rgb(0%,0%,0%);stroke-opacity:1;stroke-miterlimit:10;" d="M 0.820859 0.767383 L 0.0454688 0.767383 L 0.0721875 0.553477 L 0.125664 0.446523 L 0.286094 0.419805 L 0.5 0.312852 L 0.687148 0.259375 L 0.847578 0.232617 L 0.874336 0.259375 L 0.794102 0.33957 L 0.794102 0.393047 L 0.954531 0.419805 L 0.954531 0.553477 L 0.820859 0.553477 Z M 0.820859 0.767383 " transform="matrix(100,0,0,100,600,1850)"/>
<path style="fill:none;stroke-width:0.01;stroke-linecap:butt;stroke-linejoin:miter;stroke:rgb(0%,0%,0%);stroke-opacity:1;stroke-miterlimit:10;" d="M 0.7375 0.217461 L 0.721133 0.0946094 L 0.794844 0.0946094 L 0.852187 0.0700391 L 0.852187 0.0454688 L 0.28707 0.0454688 L 0.164219 0.135547 L 0.147813 0.258398 L 0.156016 0.512266 L 0.172383 0.667891 L 0.221523 0.782539 L 0.295234 0.839883 L 0.385352 0.864453 L 0.401719 0.913594 L 0.434492 0.954531 L 0.606484 0.954531 L 0.655625 0.946367 L 0.696562 0.921797 L 0.704766 0.864453 L 0.622852 0.848086 L 0.680195 0.692461 L 0.7375 0.700664 L 0.786641 0.684258 L 0.827617 0.659688 L 0.843984 0.61875 L 0.827617 0.569609 L 0.7375 0.561406 Z M 0.7375 0.217461 " transform="matrix(100,0,0,100,0,2000)"/>
<path style="fill:none;stroke-width:0.01;stroke-linecap:butt;stroke-linejoin:miter;stroke:rgb(0%,0%,0%);stroke-opacity:1;stroke-miterlimit:10;" d="M 0.835508 0.705625 L 0.0562891 0.705625 L 0.0454687 0.597422 L 0.142852 0.521641 L 0.370117 0.391758 L 0.370117 0.348477 L 0.380937 0.326836 L 0.413438 0.326836 L 0.575742 0.294375 L 0.608242 0.316016 L 0.662344 0.305195 L 0.770547 0.316016 L 0.824688 0.326836 L 0.846328 0.370117 L 0.846328 0.435078 L 0.748906 0.445898 L 0.770547 0.51082 L 0.889609 0.5 L 0.954531 0.532461 L 0.943711 0.705625 L 0.878789 0.705625 Z M 0.835508 0.705625 " transform="matrix(100,0,0,100,150,2000)"/>
<path style="fill:none;stroke-width:0.01;stroke-linecap:butt;stroke-linejoin:miter;stroke:rgb(0%,0%,0%);stroke-opacity:1;stroke-miterlimit:10;" d="M 0.778594 0.617305 L 0.0454687 0.617305 L 0.133437 0.5 L 0.42668 0.382695 L 0.543984 0.412031 L 0.719922 0.382695 L 0.866563 0.441367 L 0.954531 0.5 L 0.954531 0.558633 Z M 0.778594 0.617305 " transform="matrix(100,0,0,100,300,2000)"/>
<path style="fill:none;stroke-width:0.01;stroke-linecap:butt;stroke-linejoin:miter;stroke:rgb(0%,0%,0%);stroke-opacity:1;stroke-miterlimit:10;" d="M 0.835977 0.822813 L 0.0454688 0.809609 L 0.0717969 0.625156 L 0.0717969 0.559297 L 0.0849609 0.506602 L 0.150859 0.453867 L 0.177188 0.401172 L 0.322148 0.322148 L 0.427539 0.216719 L 0.546133 0.203555 L 0.717383 0.177187 L 0.783281 0.203555 L 0.822813 0.243086 L 0.835977 0.322148 L 0.822813 0.361641 L 0.770078 0.374844 L 0.783281 0.559297 L 0.862305 0.559297 L 0.941367 0.598828 L 0.954531 0.664687 L 0.941367 0.74375 L 0.915039 0.783281 Z M 0.835977 0.822813 " transform="matrix(100,0,0,100,450,2000)"/>
<path style="fill:none;stroke-width:0.01;stroke-linecap:butt;stroke-linejoin:miter;stroke:rgb(0%,0%,0%);stroke-opacity:1;stroke-miterlimit:10;" d="M 0.929297 0.133828 L 0.0454688 0.0833203 L 0.222227 0.411602 L 0.323242 0.563125 L 0.37375 0.815664 L 0.651523 0.91668 L 0.752539 0.790391 L 0.878789 0.790391 L 0.929297 0.739883 L 0.954531 0.664141 L 0.853555 0.563125 Z M 0.929297 0.133828 " transform="matrix(100,0,0,100,600,2000)"/>
<path style="fill:none;stroke-width:0.01;stroke-linecap:butt;stroke-linejoin:miter;stroke:rgb(0%,0%,0%);stroke-opacity:1;stroke-miterlimit:10;" d="M 0.939375 0.628789 L 0.0454688 0.628789 L 0.121211 0.568164 L 0.303047 0.446953 L 0.439375 0.431836 L 0.560625 0.431836 L 0.636367 0.401523 L 0.803047 0.371211 L 0.909102 0.41668 L 0.939375 0.446953 L 0.954531 0.507578 L 0.878789 0.537891 Z M 0.939375 0.628789 " transform="matrix(100,0,0,100,0,2150)"/>
<path style="fill:none;stroke-width:0.01;stroke-linecap:butt;stroke-linejoin:miter;stroke:rgb(0%,0%,0%);stroke-opacity:1;stroke-miterlimit:10;" d="M 0.757969 0.770273 L 0.0454687 0.770273 L 0.16832 0.647422 L 0.242031 0.52457 L 0.242031 0.303438 L 0.291172 0.229727 L 0.635117 0.229727 L 0.733398 0.303438 L 0.733398 0.47543 L 0.83168 0.573711 L 0.929961 0.647422 L 0.954531 0.745703 Z M 0.757969 0.770273 " transform="matrix(100,0,0,100,150,2150)"/>
<path style="fill:none;stroke-width:0.01;stroke-linecap:butt;stroke-linejoin:miter;stroke:rgb(0%,0%,0%);stroke-opacity:1;stroke-miterlimit:10;" d="M 0.722617 0.0454688 L 0.203164 0.0454688 L 0.221719 0.639141 L 0.407227 0.750469 L 0.425781 0.935977 L 0.574219 0.954531 L 0.592773 0.935977 L 0.666992 0.935977 L 0.722617 0.880352 L 0.685547 0.824687 L 0.648438 0.769023 L 0.666992 0.435078 L 0.759727 0.416523 L 0.796836 0.360859 L 0.778281 0.249531 L 0.704063 0.249531 Z M 0.722617 0.0454688 " transform="matrix(100,0,0,100,300,2150)"/>
<path style="fill:none;stroke-width:0.01;stroke-linecap:butt;stroke-linejoin:miter;stroke:rgb(0%,0%,0%);stroke-opacity:1;stroke-miterlimit:10;" d="M 0.846328 0.0454688 L 0.196953 0.0454688 L 0.153672 0.391758 L 0.153672 0.694805 L 0.326836 0.867969 L 0.5 0.954531 L 0.803047 0.954531 L 0.759727 0.867969 L 0.803047 0.694805 L 0.846328 0.608242 L 0.846328 0.521641 L 0.803047 0.478359 Z M 0.846328 0.0454688 " transform="matrix(100,0,0,100,450,2150)"/>
<path style="fill:none;stroke-width:0.01;stroke-linecap:butt;stroke-linejoin:miter;stroke:rgb(0%,0%,0%);stroke-opacity:1;stroke-miterlimit:10;" d="M 0.738633 0.704531 L 0.738633 0.545469 L 0.875 0.5 L 0.897734 0.431836 L 0.852266 0.363633 L 0.715898 0.340898 L 0.738633 0.0454688 L 0.147734 0.0454688 L 0.102266 0.522734 L 0.193164 0.772734 L 0.397734 0.954531 L 0.556836 0.909102 L 0.647734 0.931836 L 0.784102 0.931836 L 0.829531 0.863633 L 0.715898 0.818164 Z M 0.738633 0.704531 " transform="matrix(100,0,0,100,600,2150)"/>
<path style="fill:none;stroke-width:0.01;stroke-linecap:butt;stroke-linejoin:miter;stroke:rgb(0%,0%,0%);stroke-opacity:1;stroke-miterlimit:10;" d="M 0.954531 0.1925 L 0.0454688 0.139023 L 0.179141 0.566836 L 0.33957 0.64707 L 0.419805 0.754023 L 0.713906 0.860977 L 0.820859 0.834219 L 0.954531 0.272734 Z M 0.954531 0.1925 " transform="matrix(100,0,0,100,0,2300)"/>
<path style="fill:none;stroke-width:0.01;stroke-linecap:butt;stroke-linejoin:miter;stroke:rgb(0%,0%,0%);stroke-opacity:1;stroke-miterlimit:10;" d="M 0.954531 0.661797 L 0.0454687 0.661797 L 0.0454687 0.600156 L 0.10707 0.492305 L 0.276563 0.415273 L 0.553945 0.446055 L 0.584727 0.384453 L 0.630977 0.353633 L 0.692617 0.338203 Z M 0.954531 0.661797 " transform="matrix(100,0,0,100,150,2300)"/>
<path style="fill:none;stroke-width:0.01;stroke-linecap:butt;stroke-linejoin:miter;stroke:rgb(0%,0%,0%);stroke-opacity:1;stroke-miterlimit:10;" d="M 0.696289 0.685938 L 0.696289 0.417344 L 0.737617 0.376016 L 0.716953 0.293398 L 0.654961 0.272734 L 0.634297 0.231406 L 0.613633 0.0867578 L 0.592969 0.0454688 L 0.510312 0.0661328 L 0.324375 0.190078 L 0.262383 0.355391 L 0.262383 0.665273 L 0.324375 0.954531 L 0.737617 0.954531 Z M 0.696289 0.685938 " transform="matrix(100,0,0,100,300,2300)"/>
<path style="fill:none;stroke-width:0.01;stroke-linecap:butt;stroke-linejoin:miter;stroke:rgb(0%,0%,0%);stroke-opacity:1;stroke-miterlimit:10;" d="M 0.665273 0.231406 L 0.665273 0.355391 L 0.768594 0.39668 L 0.809922 0.479336 L 0.74793 0.561992 L 0.706602 0.582656 L 0.685938 0.706602 L 0.685938 0.913242 L 0.60332 0.954531 L 0.479336 0.913242 L 0.231406 0.685938 L 0.190078 0.60332 L 0.231406 0.190078 L 0.231406 0.0454688 L 0.727266 0.0867578 L 0.727266 0.128086 Z M 0.665273 0.231406 " transform="matrix(100,0,0,100,450,2300)"/>
<path style="fill:none;stroke-width:0.01;stroke-linecap:butt;stroke-linejoin:miter;stroke:rgb(0%,0%,0%);stroke-opacity:1;stroke-miterlimit:10;" d="M 0.954531 0.788242 L 0.0454688 0.777148 L 0.0565234 0.666289 L 0.0676172 0.577617 L 0.100898 0.488906 L 0.156328 0.44457 L 0.200664 0.400234 L 0.211758 0.333711 L 0.211758 0.267188 L 0.267188 0.245 L 0.322617 0.211758 L 0.400234 0.211758 L 0.488906 0.245 L 0.621953 0.245 L 0.666289 0.289375 L 0.666289 0.311523 L 0.633047 0.322617 Z M 0.954531 0.788242 " transform="matrix(100,0,0,100,600,2300)"/>
<path style="fill:none;stroke-width:0.01;stroke-linecap:butt;stroke-linejoin:miter;stroke:rgb(0%,0%,0%);stroke-opacity:1;stroke-miterlimit:10;" d="M 0.954531 0.267773 L 0.0454688 0.267773 L 0.0652344 0.475313 L 0.282617 0.692695 L 0.391289 0.722344 L 0.539531 0.732227 L 0.559297 0.692695 L 0.618594 0.702578 L 0.687734 0.692695 L 0.766797 0.663047 L 0.77668 0.60375 L 0.717383 0.564219 Z M 0.954531 0.267773 " transform="matrix(100,0,0,100,0,2450)"/>
<path style="fill:none;stroke-width:0.01;stroke-linecap:butt;stroke-linejoin:miter;stroke:rgb(0%,0%,0%);stroke-opacity:1;stroke-miterlimit:10;" d="M 0.895508 0.818789 L 0.0454687 0.818789 L 0.0572656 0.594453 L 0.0572656 0.511797 L 0.175312 0.346523 L 0.246172 0.2875 L 0.376016 0.228438 L 0.446875 0.181211 L 0.588555 0.193047 L 0.683008 0.204844 L 0.706602 0.25207 L 0.765625 0.25207 L 0.919141 0.2875 L 0.942734 0.35832 L 0.954531 0.417344 L 0.895508 0.452773 L 0.789258 0.452773 L 0.647578 0.46457 Z M 0.895508 0.818789 " transform="matrix(100,0,0,100,150,2450)"/>
<path style="fill:none;stroke-width:0.01;stroke-linecap:butt;stroke-linejoin:miter;stroke:rgb(0%,0%,0%);stroke-opacity:1;stroke-miterlimit:10;" d="M 0.588711 0.755 L 0.688477 0.599766 L 0.732813 0.588711 L 0.799336 0.588711 L 0.865859 0.577617 L 0.910195 0.522188 L 0.910195 0.488906 L 0.865859 0.422383 L 0.888008 0.322617 L 0.910195 0.211758 L 0.932383 0.0676172 L 0.134141 0.0454688 L 0.111992 0.145234 L 0.0787109 0.30043 L 0.0676172 0.477812 L 0.0676172 0.777148 L 0.123047 0.854766 L 0.211758 0.910195 L 0.30043 0.921289 L 0.355859 0.932383 L 0.411289 0.954531 L 0.455664 0.954531 L 0.544336 0.932383 L 0.55543 0.899102 L 0.5 0.876953 Z M 0.588711 0.755 " transform="matrix(100,0,0,100,300,2450)"/>
<path style="fill:none;stroke-width:0.01;stroke-linecap:butt;stroke-linejoin:miter;stroke:rgb(0%,0%,0%);stroke-opacity:1;stroke-miterlimit:10;" d="M 0.954531 0.81207 L 0.0454688 0.81207 L 0.0454688 0.581406 L 0.0590234 0.337187 L 0.126875 0.310039 L 0.194727 0.269336 L 0.208281 0.242188 L 0.330391 0.228633 L 0.425391 0.18793 L 0.493203 0.201484 L 0.574609 0.201484 L 0.642461 0.228633 L 0.656055 0.282891 L 0.615352 0.337187 L 0.574609 0.350742 L 0.778164 0.730664 L 0.832422 0.744219 L 0.927422 0.771367 Z M 0.954531 0.81207 " transform="matrix(100,0,0,100,450,2450)"/>
<path style="fill:none;stroke-width:0.01;stroke-linecap:butt;stroke-linejoin:miter;stroke:rgb(0%,0%,0%);stroke-opacity:1;stroke-miterlimit:10;" d="M 0.886992 0.917695 L 0.874688 0.622852 L 0.837852 0.426289 L 0.936133 0.426289 L 0.923828 0.352578 L 0.874688 0.328008 L 0.776406 0.328008 L 0.653555 0.131445 L 0.715 0.11918 L 0.727266 0.0823047 L 0.665859 0.0577344 L 0.604414 0.0577344 L 0.481562 0.0454688 L 0.30957 0.0700391 L 0.223594 0.106875 L 0.113008 0.16832 L 0.0761719 0.278867 L 0.0638672 0.5 L 0.0761719 0.770273 L 0.0884375 0.954531 Z M 0.886992 0.917695 " transform="matrix(100,0,0,100,600,2450)"/>
<path style="fill:none;stroke-width:0.01;stroke-linecap:butt;stroke-linejoin:miter;stroke:rgb(0%,0%,0%);stroke-opacity:1;stroke-miterlimit:10;" d="M 0.954531 0.362266 L 0.0454688 0.334727 L 0.128086 0.472461 L 0.224531 0.513789 L 0.307148 0.582656 L 0.5 0.623984 L 0.596406 0.665273 L 0.692852 0.610195 L 0.775469 0.623984 L 0.858125 0.623984 L 0.940781 0.568867 L 0.954531 0.472461 Z M 0.954531 0.362266 " transform="matrix(100,0,0,100,0,2600)"/>
<path style="fill:none;stroke-width:0.01;stroke-linecap:butt;stroke-linejoin:miter;stroke:rgb(0%,0%,0%);stroke-opacity:1;stroke-miterlimit:10;" d="M 0.954531 0.657031 L 0.0454687 0.657031 L 0.0619922 0.442148 L 0.128086 0.359492 L 0.260312 0.359492 L 0.392578 0.342969 L 0.425625 0.359492 L 0.508281 0.376016 L 0.657031 0.392578 L 0.789258 0.425625 L 0.855391 0.541328 L 0.871914 0.590898 Z M 0.954531 0.657031 " transform="matrix(100,0,0,100,150,2600)"/>
<path style="fill:none;stroke-width:0.01;stroke-linecap:butt;stroke-linejoin:miter;stroke:rgb(0%,0%,0%);stroke-opacity:1;stroke-miterlimit:10;" d="M 0.795156 0.340625 L 0.795156 0.0454688 L 0.157617 0.0454688 L 0.110391 0.187148 L 0.0867578 0.269766 L 0.0985938 0.399648 L 0.0985938 0.576758 L 0.14582 0.718398 L 0.240273 0.824687 L 0.299297 0.883711 L 0.39375 0.942734 L 0.46457 0.954531 L 0.476406 0.942734 L 0.511797 0.954531 L 0.594453 0.954531 L 0.60625 0.907305 L 0.547227 0.871914 L 0.665273 0.706602 L 0.818789 0.706602 L 0.877813 0.659375 L 0.901406 0.612148 L 0.913242 0.553125 L 0.889609 0.494102 L 0.771562 0.458672 Z M 0.795156 0.340625 " transform="matrix(100,0,0,100,300,2600)"/>
<path style="fill:none;stroke-width:0.01;stroke-linecap:butt;stroke-linejoin:miter;stroke:rgb(0%,0%,0%);stroke-opacity:1;stroke-miterlimit:10;" d="M 0.954531 0.82707 L 0.0454688 0.82707 L 0.0454688 0.738359 L 0.0565234 0.68293 L 0.111992 0.649648 L 0.145234 0.57207 L 0.156328 0.505547 L 0.167422 0.483359 L 0.256094 0.42793 L 0.267188 0.394687 L 0.278281 0.305977 L 0.311523 0.239453 L 0.378047 0.195117 L 0.433477 0.17293 L 0.477812 0.206211 L 0.544336 0.217305 L 0.599766 0.206211 L 0.666289 0.217305 L 0.710625 0.250547 L 0.69957 0.283828 L 0.644141 0.31707 Z M 0.954531 0.82707 " transform="matrix(100,0,0,100,450,2600)"/>
<path style="fill:none;stroke-width:0.01;stroke-linecap:butt;stroke-linejoin:miter;stroke:rgb(0%,0%,0%);stroke-opacity:1;stroke-miterlimit:10;" d="M 0.954531 0.305195 L 0.0454688 0.305195 L 0.0754297 0.515 L 0.125391 0.544961 L 0.295195 0.584922 L 0.385117 0.644844 L 0.495 0.664844 L 0.584922 0.694805 L 0.624883 0.654844 L 0.634883 0.624883 L 0.714805 0.624883 L 0.794688 0.614883 L 0.874609 0.594922 L 0.93457 0.544961 L 0.94457 0.485 L 0.904609 0.445039 L 0.834648 0.435078 Z M 0.954531 0.305195 " transform="matrix(100,0,0,100,600,2600)"/>
<path style="fill:none;stroke-width:0.01;stroke-linecap:butt;stroke-linejoin:miter;stroke:rgb(0%,0%,0%);stroke-opacity:1;stroke-miterlimit:10;" d="M 0.954531 0.380664 L 0.0454688 0.380664 L 0.113633 0.426133 L 0.238633 0.551133 L 0.340898 0.607969 L 0.420469 0.619336 L 0.5 0.585234 L 0.579531 0.596602 L 0.670469 0.585234 L 0.75 0.585234 L 0.852266 0.551133 L 0.920469 0.505664 L 0.943164 0.460234 Z M 0.954531 0.380664 " transform="matrix(100,0,0,100,0,2750)"/>
<path style="fill:none;stroke-width:0.01;stroke-linecap:butt;stroke-linejoin:miter;stroke:rgb(0%,0%,0%);stroke-opacity:1;stroke-miterlimit:10;" d="M 0.941758 0.884141 L 0.0710547 0.884141 L 0.0582422 0.756094 L 0.0454687 0.589609 L 0.0454687 0.371953 L 0.0710547 0.295117 L 0.135078 0.21832 L 0.28875 0.128672 L 0.391172 0.115859 L 0.442383 0.128672 L 0.557617 0.128672 L 0.608828 0.141484 L 0.621641 0.179883 L 0.583242 0.205508 L 0.685664 0.384766 L 0.7625 0.410391 L 0.864922 0.423164 L 0.90332 0.474375 L 0.941758 0.551211 L 0.954531 0.602422 L 0.890508 0.628047 Z M 0.941758 0.884141 " transform="matrix(100,0,0,100,150,2750)"/>
<path style="fill:none;stroke-width:0.01;stroke-linecap:butt;stroke-linejoin:miter;stroke:rgb(0%,0%,0%);stroke-opacity:1;stroke-miterlimit:10;" d="M 0.954531 0.800313 L 0.0454687 0.800313 L 0.110391 0.68668 L 0.191562 0.589297 L 0.321445 0.475664 L 0.321445 0.378242 L 0.370117 0.29707 L 0.48375 0.199687 L 0.613633 0.232148 L 0.727266 0.248359 L 0.824688 0.264609 L 0.889609 0.29707 L 0.889609 0.362031 L 0.840898 0.394492 L 0.792227 0.410703 Z M 0.954531 0.800313 " transform="matrix(100,0,0,100,300,2750)"/>
<path style="fill:none;stroke-width:0.01;stroke-linecap:butt;stroke-linejoin:miter;stroke:rgb(0%,0%,0%);stroke-opacity:1;stroke-miterlimit:10;" d="M 0.940625 0.0454688 L 0.0871875 0.0454688 L 0.0686328 0.1475 L 0.0686328 0.360859 L 0.059375 0.462891 L 0.059375 0.67625 L 0.161406 0.806133 L 0.207773 0.861797 L 0.244883 0.917422 L 0.346953 0.935977 L 0.421133 0.954531 L 0.448984 0.926719 L 0.458242 0.935977 L 0.504648 0.945273 L 0.532461 0.926719 L 0.541758 0.908164 L 0.504648 0.871055 L 0.699453 0.694805 L 0.736562 0.694805 L 0.801484 0.67625 L 0.866406 0.67625 L 0.940625 0.666992 L 0.940625 0.602031 L 0.931367 0.564922 L 0.912813 0.546367 L 0.940625 0.453633 Z M 0.940625 0.0454688 " transform="matrix(100,0,0,100,450,2750)"/>
<path style="fill:none;stroke-width:0.01;stroke-linecap:butt;stroke-linejoin:miter;stroke:rgb(0%,0%,0%);stroke-opacity:1;stroke-miterlimit:10;" d="M 0.954531 0.217461 L 0.0454688 0.192891 L 0.0577344 0.291172 L 0.106875 0.463164 L 0.180586 0.573711 L 0.242031 0.610547 L 0.291172 0.721133 L 0.352578 0.782539 L 0.463164 0.807109 L 0.47543 0.782539 L 0.549141 0.794844 L 0.647422 0.794844 L 0.671992 0.757969 L 0.659688 0.708828 L 0.610547 0.684258 Z M 0.954531 0.217461 " transform="matrix(100,0,0,100,600,2750)"/>
<path style="fill:none;stroke-width:0.01;stroke-linecap:butt;stroke-linejoin:miter;stroke:rgb(0%,0%,0%);stroke-opacity:1;stroke-miterlimit:10;" d="M 0.778086 0.237969 L 0.778086 0.0454688 L 0.478594 0.0454688 L 0.43582 0.120313 L 0.393047 0.237969 L 0.350273 0.270039 L 0.264688 0.323516 L 0.232617 0.451875 L 0.232617 0.633672 L 0.221914 0.751328 L 0.264688 0.815508 L 0.328867 0.890391 L 0.40375 0.954531 L 0.46793 0.933164 L 0.510703 0.933164 L 0.553477 0.922461 L 0.574883 0.890391 L 0.553477 0.858281 L 0.66043 0.644375 L 0.703203 0.633672 L 0.735313 0.633672 L 0.75668 0.601602 L 0.767383 0.558828 L 0.735313 0.537422 L 0.745977 0.462578 Z M 0.778086 0.237969 " transform="matrix(100,0,0,100,0,2900)"/>
<path style="fill:none;stroke-width:0.01;stroke-linecap:butt;stroke-linejoin:miter;stroke:rgb(0%,0%,0%);stroke-opacity:1;stroke-miterlimit:10;" d="M 0.90832 0.199531 L 0.0454687 0.199531 L 0.168711 0.476875 L 0.230352 0.538516 L 0.230352 0.692617 L 0.261172 0.754219 L 0.307383 0.785039 L 0.369023 0.800469 L 0.446055 0.769648 L 0.507695 0.600156 L 0.630977 0.615547 L 0.800469 0.600156 L 0.89293 0.569336 L 0.954531 0.507695 L 0.954531 0.415273 L 0.90832 0.353633 L 0.84668 0.322813 Z M 0.90832 0.199531 " transform="matrix(100,0,0,100,150,2900)"/>
<path style="fill:none;stroke-width:0.01;stroke-linecap:butt;stroke-linejoin:miter;stroke:rgb(0%,0%,0%);stroke-opacity:1;stroke-miterlimit:10;" d="M 0.832578 0.178477 L 0.821523 0.0454688 L 0.378047 0.0454688 L 0.355859 0.123047 L 0.200664 0.200664 L 0.156328 0.344805 L 0.134141 0.566523 L 0.134141 0.69957 L 0.156328 0.788242 L 0.211758 0.843672 L 0.278281 0.899102 L 0.289375 0.943477 L 0.44457 0.954531 L 0.44457 0.943477 L 0.566523 0.943477 L 0.599766 0.910195 L 0.544336 0.888008 L 0.677383 0.666289 L 0.766094 0.666289 L 0.843672 0.644141 L 0.865859 0.577617 L 0.865859 0.522188 L 0.766094 0.488906 L 0.777148 0.422383 Z M 0.832578 0.178477 " transform="matrix(100,0,0,100,300,2900)"/>
<path style="fill:none;stroke-width:0.01;stroke-linecap:butt;stroke-linejoin:miter;stroke:rgb(0%,0%,0%);stroke-opacity:1;stroke-miterlimit:10;" d="M 0.954531 0.742852 L 0.0578906 0.742852 L 0.0454688 0.543594 L 0.120156 0.468867 L 0.207344 0.369258 L 0.331875 0.294531 L 0.531133 0.257148 L 0.61832 0.294531 L 0.705469 0.294531 L 0.767734 0.331875 L 0.780195 0.431523 L 0.742852 0.493789 Z M 0.954531 0.742852 " transform="matrix(100,0,0,100,450,2900)"/>
<path style="fill:none;stroke-width:0.01;stroke-linecap:butt;stroke-linejoin:miter;stroke:rgb(0%,0%,0%);stroke-opacity:1;stroke-miterlimit:10;" d="M 0.954531 0.183203 L 0.0546484 0.183203 L 0.0454688 0.376016 L 0.0454688 0.495391 L 0.0821875 0.623984 L 0.128086 0.679063 L 0.155664 0.706602 L 0.164844 0.780078 L 0.320938 0.816797 L 0.403594 0.807617 L 0.431133 0.780078 L 0.477031 0.770898 L 0.532148 0.770898 L 0.550508 0.752539 L 0.559687 0.724961 L 0.522969 0.715781 L 0.881094 0.320937 L 0.945352 0.311758 Z M 0.954531 0.183203 " transform="matrix(100,0,0,100,600,2900)"/>
<path style="fill:none;stroke-width:0.01;stroke-linecap:butt;stroke-linejoin:miter;stroke:rgb(0%,0%,0%);stroke-opacity:1;stroke-miterlimit:10;" d="M 0.954531 0.793047 L 0.0454688 0.793047 L 0.0454688 0.661484 L 0.105273 0.458125 L 0.153125 0.39832 L 0.224883 0.362422 L 0.236836 0.290664 L 0.284687 0.242812 L 0.392344 0.206953 L 0.440195 0.206953 L 0.547852 0.278711 L 0.595703 0.302617 L 0.703359 0.314609 L 0.751211 0.338516 L 0.775117 0.39832 L 0.775117 0.446172 L 0.727266 0.470078 L 0.703359 0.470078 Z M 0.954531 0.793047 " transform="matrix(100,0,0,100,0,3050)"/>
<path style="fill:none;stroke-width:0.01;stroke-linecap:butt;stroke-linejoin:miter;stroke:rgb(0%,0%,0%);stroke-opacity:1;stroke-miterlimit:10;" d="M 0.954531 0.8075 L 0.0454687 0.8075 L 0.0454687 0.740625 L 0.0588281 0.64707 L 0.0588281 0.540117 L 0.0989453 0.486641 L 0.139023 0.419805 L 0.232617 0.35293 L 0.299453 0.312852 L 0.312852 0.259375 L 0.459883 0.1925 L 0.540117 0.205898 L 0.580195 0.245977 L 0.66043 0.245977 L 0.767383 0.259375 L 0.820859 0.286094 L 0.820859 0.366328 L 0.8075 0.379687 L 0.727266 0.419805 Z M 0.954531 0.8075 " transform="matrix(100,0,0,100,150,3050)"/>
<path style="fill:none;stroke-width:0.01;stroke-linecap:butt;stroke-linejoin:miter;stroke:rgb(0%,0%,0%);stroke-opacity:1;stroke-miterlimit:10;" d="M 0.94332 0.836719 L 0.0454687 0.836719 L 0.0454687 0.5 L 0.0566797 0.365313 L 0.0903516 0.309219 L 0.146445 0.264297 L 0.23625 0.196953 L 0.337266 0.163281 L 0.449492 0.185742 L 0.505625 0.174531 L 0.561719 0.185742 L 0.595391 0.208203 L 0.58418 0.241875 L 0.550508 0.275547 L 0.718867 0.567344 L 0.819883 0.589805 L 0.898438 0.623438 L 0.932109 0.690781 L 0.954531 0.746914 Z M 0.94332 0.836719 " transform="matrix(100,0,0,100,300,3050)"/>
<path style="fill:none;stroke-width:0.01;stroke-linecap:butt;stroke-linejoin:miter;stroke:rgb(0%,0%,0%);stroke-opacity:1;stroke-miterlimit:10;" d="M 0.847578 0.580195 L 0.0454688 0.580195 L 0.272734 0.473281 L 0.513359 0.459883 L 0.593594 0.419805 L 0.64707 0.419805 L 0.713906 0.459883 L 0.820859 0.459883 L 0.927812 0.473281 L 0.954531 0.553477 Z M 0.847578 0.580195 " transform="matrix(100,0,0,100,450,3050)"/>
<path style="fill:none;stroke-width:0.01;stroke-linecap:butt;stroke-linejoin:miter;stroke:rgb(0%,0%,0%);stroke-opacity:1;stroke-miterlimit:10;" d="M 0.954531 0.218633 L 0.738086 0.550508 L 0.79582 0.593789 L 0.824688 0.680391 L 0.79582 0.738086 L 0.752539 0.766953 L 0.680391 0.781367 L 0.593789 0.781367 L 0.564922 0.810234 L 0.406211 0.781367 L 0.261914 0.752539 L 0.0454688 0.478359 L 0.0598828 0.189766 Z M 0.954531 0.218633 " transform="matrix(100,0,0,100,600,3050)"/>
<path style="fill:none;stroke-width:0.01;stroke-linecap:butt;stroke-linejoin:miter;stroke:rgb(0%,0%,0%);stroke-opacity:1;stroke-miterlimit:10;" d="M 0.954531 0.231133 L 0.0582422 0.231133 L 0.0454688 0.371953 L 0.0582422 0.487187 L 0.0710547 0.551211 L 0.173477 0.640859 L 0.275938 0.730469 L 0.301523 0.756094 L 0.480781 0.768867 L 0.531992 0.717656 L 0.608828 0.730469 L 0.71125 0.743281 L 0.800898 0.717656 L 0.852109 0.679258 L 0.852109 0.615234 L 0.826523 0.576836 L 0.724063 0.551211 Z M 0.954531 0.231133 " transform="matrix(100,0,0,100,0,3200)"/>
<path style="fill:none;stroke-width:0.01;stroke-linecap:butt;stroke-linejoin:miter;stroke:rgb(0%,0%,0%);stroke-opacity:1;stroke-miterlimit:10;" d="M 0.91957 0.801563 L 0.0541797 0.792852 L 0.0541797 0.722891 L 0.0454687 0.609258 L 0.0541797 0.539336 L 0.0541797 0.451914 L 0.0629297 0.390742 L 0.141602 0.28582 L 0.167852 0.259609 L 0.176562 0.242148 L 0.263984 0.198437 L 0.307695 0.198437 L 0.351406 0.224648 L 0.49125 0.224648 L 0.526211 0.250859 L 0.526211 0.277109 L 0.50875 0.29457 L 0.447539 0.329531 L 0.657344 0.565547 L 0.805938 0.583047 L 0.867148 0.618008 L 0.91082 0.670469 L 0.93707 0.71418 L 0.954531 0.766602 Z M 0.91957 0.801563 " transform="matrix(100,0,0,100,150,3200)"/>
<path style="fill:none;stroke-width:0.01;stroke-linecap:butt;stroke-linejoin:miter;stroke:rgb(0%,0%,0%);stroke-opacity:1;stroke-miterlimit:10;" d="M 0.713906 0.232617 L 0.727266 0.0454687 L 0.406406 0.0454687 L 0.406406 0.139023 L 0.366328 0.179141 L 0.245977 0.245977 L 0.205898 0.366328 L 0.1925 0.486641 L 0.1925 0.620312 L 0.219258 0.727266 L 0.299453 0.834219 L 0.326211 0.860977 L 0.326211 0.927813 L 0.433164 0.954531 L 0.459883 0.914453 L 0.513359 0.927813 L 0.580195 0.927813 L 0.606953 0.860977 L 0.553477 0.847578 L 0.673789 0.553477 L 0.740625 0.540117 L 0.794102 0.513359 L 0.8075 0.446523 L 0.8075 0.393047 L 0.700547 0.35293 Z M 0.713906 0.232617 " transform="matrix(100,0,0,100,300,3200)"/>
<path style="fill:none;stroke-width:0.01;stroke-linecap:butt;stroke-linejoin:miter;stroke:rgb(0%,0%,0%);stroke-opacity:1;stroke-miterlimit:10;" d="M 0.954531 0.784609 L 0.0454688 0.784609 L 0.0539453 0.665664 L 0.0539453 0.436289 L 0.0624609 0.342813 L 0.138906 0.274844 L 0.206875 0.223867 L 0.32582 0.215391 L 0.36832 0.232383 L 0.461758 0.223867 L 0.538242 0.223867 L 0.546719 0.274844 L 0.538242 0.300352 L 0.470273 0.308828 L 0.67418 0.580703 L 0.776133 0.606211 L 0.86957 0.640195 L 0.929062 0.67418 L 0.946055 0.716641 Z M 0.954531 0.784609 " transform="matrix(100,0,0,100,450,3200)"/>
<path style="fill:none;stroke-width:0.01;stroke-linecap:butt;stroke-linejoin:miter;stroke:rgb(0%,0%,0%);stroke-opacity:1;stroke-miterlimit:10;" d="M 0.954531 0.101484 L 0.0952734 0.101484 L 0.0578906 0.313203 L 0.0454688 0.549805 L 0.0952734 0.686797 L 0.17 0.811328 L 0.232266 0.873594 L 0.306992 0.886055 L 0.394141 0.886055 L 0.481328 0.898516 L 0.568477 0.898516 L 0.61832 0.848711 L 0.61832 0.798867 L 0.543594 0.773984 L 0.71793 0.475078 L 0.780195 0.475078 L 0.892266 0.437734 L 0.917187 0.350547 L 0.929648 0.288281 L 0.904727 0.226016 L 0.954531 0.138867 Z M 0.954531 0.101484 " transform="matrix(100,0,0,100,600,3200)"/>
<path style="fill:none;stroke-width:0.01;stroke-linecap:butt;stroke-linejoin:miter;stroke:rgb(0%,0%,0%);stroke-opacity:1;stroke-miterlimit:10;" d="M 0.818984 0.922656 L 0.818984 0.587734 L 0.866836 0.55582 L 0.898711 0.476094 L 0.834922 0.412266 L 0.707344 0.396328 L 0.67543 0.364453 L 0.595703 0.157109 L 0.659492 0.141133 L 0.691406 0.109258 L 0.67543 0.0614062 L 0.563789 0.0454687 L 0.404297 0.0773437 L 0.32457 0.157109 L 0.196953 0.220898 L 0.133164 0.332539 L 0.101289 0.667461 L 0.117227 0.954531 Z M 0.818984 0.922656 " transform="matrix(100,0,0,100,0,3350)"/>
<path style="fill:none;stroke-width:0.01;stroke-linecap:butt;stroke-linejoin:miter;stroke:rgb(0%,0%,0%);stroke-opacity:1;stroke-miterlimit:10;" d="M 0.920234 0.277031 L 0.0454687 0.277031 L 0.0969141 0.328477 L 0.165508 0.448555 L 0.199844 0.60293 L 0.285586 0.654375 L 0.542891 0.722969 L 0.714414 0.70582 L 0.834492 0.70582 L 0.851641 0.60293 L 0.885938 0.568594 L 0.954531 0.431406 L 0.937383 0.345625 Z M 0.920234 0.277031 " transform="matrix(100,0,0,100,150,3350)"/>
<path style="fill:none;stroke-width:0.01;stroke-linecap:butt;stroke-linejoin:miter;stroke:rgb(0%,0%,0%);stroke-opacity:1;stroke-miterlimit:10;" d="M 0.954531 0.275664 L 0.683008 0.57082 L 0.765625 0.629883 L 0.742031 0.700703 L 0.671211 0.736133 L 0.564922 0.724336 L 0.494102 0.724336 L 0.376016 0.74793 L 0.281602 0.724336 L 0.222539 0.64168 L 0.151719 0.594453 L 0.0808594 0.57082 L 0.0454687 0.488203 L 0.0454687 0.25207 Z M 0.954531 0.275664 " transform="matrix(100,0,0,100,300,3350)"/>
<path style="fill:none;stroke-width:0.01;stroke-linecap:butt;stroke-linejoin:miter;stroke:rgb(0%,0%,0%);stroke-opacity:1;stroke-miterlimit:10;" d="M 0.877734 0.884141 L 0.0582422 0.884141 L 0.0582422 0.820117 L 0.0454688 0.666445 L 0.0454688 0.538398 L 0.0582422 0.384766 L 0.109492 0.346367 L 0.147891 0.269531 L 0.160703 0.167109 L 0.339961 0.115859 L 0.403984 0.154297 L 0.468008 0.167109 L 0.557617 0.179883 L 0.596016 0.205508 L 0.596016 0.243906 L 0.57043 0.282344 L 0.506406 0.295117 L 0.698477 0.679258 L 0.826523 0.69207 L 0.90332 0.704883 L 0.954531 0.78168 L 0.954531 0.832891 Z M 0.877734 0.884141 " transform="matrix(100,0,0,100,450,3350)"/>
<path style="fill:none;stroke-width:0.01;stroke-linecap:butt;stroke-linejoin:miter;stroke:rgb(0%,0%,0%);stroke-opacity:1;stroke-miterlimit:10;" d="M 0.67625 0.416523 L 0.657695 0.156758 L 0.67625 0.101094 L 0.713359 0.0825781 L 0.453633 0.0454687 L 0.360859 0.305195 L 0.305195 0.509258 L 0.286641 0.694805 L 0.416523 0.861797 L 0.472188 0.935977 L 0.602031 0.954531 L 0.583477 0.769023 L 0.67625 0.787578 L 0.67625 0.731914 L 0.713359 0.67625 L 0.639141 0.602031 Z M 0.67625 0.416523 " transform="matrix(100,0,0,100,600,3350)"/>
<path style="fill:none;stroke-width:0.01;stroke-linecap:butt;stroke-linejoin:miter;stroke:rgb(0%,0%,0%);stroke-opacity:1;stroke-miterlimit:10;" d="M 0.954531 0.840898 L 0.0661328 0.840898 L 0.107422 0.778906 L 0.0867578 0.613633 L 0.0454688 0.510312 L 0.107422 0.386367 L 0.190078 0.262383 L 0.355391 0.20043 L 0.458672 0.159102 L 0.541328 0.20043 L 0.60332 0.159102 L 0.706602 0.159102 L 0.74793 0.221094 L 0.727266 0.303711 L 0.665273 0.324375 L 0.768594 0.592969 L 0.871914 0.778906 Z M 0.954531 0.840898 " transform="matrix(100,0,0,100,0,3500)"/>
<path style="fill:none;stroke-width:0.01;stroke-linecap:butt;stroke-linejoin:miter;stroke:rgb(0%,0%,0%);stroke-opacity:1;stroke-miterlimit:10;" d="M 0.654375 0.422812 L 0.688672 0.148359 L 0.722969 0.0969141 L 0.70582 0.0797656 L 0.431406 0.0454687 L 0.39707 0.199844 L 0.328477 0.302734 L 0.277031 0.371367 L 0.277031 0.800156 L 0.362773 0.920234 L 0.414219 0.954531 L 0.551445 0.954531 L 0.620078 0.937383 L 0.620078 0.920234 L 0.637227 0.920234 L 0.688672 0.885938 L 0.688672 0.800156 L 0.671523 0.748711 L 0.620078 0.731563 Z M 0.654375 0.422812 " transform="matrix(100,0,0,100,150,3500)"/>
<path style="fill:none;stroke-width:0.01;stroke-linecap:butt;stroke-linejoin:miter;stroke:rgb(0%,0%,0%);stroke-opacity:1;stroke-miterlimit:10;" d="M 0.912695 0.954531 L 0.278711 0.954531 L 0.159102 0.834922 L 0.11125 0.655508 L 0.0992969 0.452148 L 0.0873047 0.368437 L 0.0992969 0.296641 L 0.159102 0.188984 L 0.218906 0.117227 L 0.266758 0.0813281 L 0.446172 0.0454687 L 0.458125 0.069375 L 0.529922 0.0574219 L 0.565781 0.0813281 L 0.589727 0.117227 L 0.529922 0.141133 L 0.697383 0.356445 L 0.816992 0.356445 L 0.864844 0.392344 L 0.900703 0.440195 L 0.900703 0.488047 L 0.840898 0.511953 L 0.876797 0.619609 L 0.912695 0.763164 Z M 0.912695 0.954531 " transform="matrix(100,0,0,100,300,3500)"/>
<path style="fill:none;stroke-width:0.01;stroke-linecap:butt;stroke-linejoin:miter;stroke:rgb(0%,0%,0%);stroke-opacity:1;stroke-miterlimit:10;" d="M 0.954531 0.780898 L 0.0454688 0.780898 L 0.0760938 0.719609 L 0.137383 0.607266 L 0.178242 0.525547 L 0.270156 0.474453 L 0.30082 0.382539 L 0.30082 0.280391 L 0.34168 0.229297 L 0.362109 0.219102 L 0.413164 0.219102 L 0.454023 0.249727 L 0.545977 0.259961 L 0.648125 0.249727 L 0.719609 0.270156 L 0.750273 0.311016 L 0.750273 0.351875 L 0.69918 0.382539 L 0.65832 0.392734 Z M 0.954531 0.780898 " transform="matrix(100,0,0,100,450,3500)"/>
<path style="fill:none;stroke-width:0.01;stroke-linecap:butt;stroke-linejoin:miter;stroke:rgb(0%,0%,0%);stroke-opacity:1;stroke-miterlimit:10;" d="M 0.954531 0.102266 L 0.0738672 0.102266 L 0.0454688 0.301133 L 0.102266 0.585234 L 0.1875 0.784102 L 0.244336 0.869336 L 0.471602 0.897734 L 0.585234 0.869336 L 0.670469 0.869336 L 0.755664 0.8125 L 0.755664 0.755664 L 0.727266 0.698867 L 0.840898 0.272734 L 0.926133 0.244336 Z M 0.954531 0.102266 " transform="matrix(100,0,0,100,600,3500)"/>
<path style="fill:none;stroke-width:0.01;stroke-linecap:butt;stroke-linejoin:miter;stroke:rgb(0%,0%,0%);stroke-opacity:1;stroke-miterlimit:10;" d="M 0.954531 0.909102 L 0.0454688 0.909102 L 0.0454688 0.66668 L 0.196953 0.484844 L 0.257578 0.33332 L 0.287891 0.212109 L 0.409102 0.121211 L 0.530312 0.0908984 L 0.590898 0.181836 L 0.681836 0.121211 L 0.803047 0.181836 L 0.83332 0.272734 L 0.83332 0.33332 L 0.772734 0.363633 Z M 0.954531 0.909102 " transform="matrix(100,0,0,100,0,3650)"/>
<path style="fill:none;stroke-width:0.01;stroke-linecap:butt;stroke-linejoin:miter;stroke:rgb(0%,0%,0%);stroke-opacity:1;stroke-miterlimit:10;" d="M 0.896289 0.0920703 L 0.150352 0.0454687 L 0.103711 0.441719 L 0.173672 0.628203 L 0.266914 0.768047 L 0.313516 0.884609 L 0.47668 0.93125 L 0.639844 0.954531 L 0.709805 0.838008 L 0.779727 0.838008 L 0.826328 0.768047 L 0.779727 0.674844 Z M 0.896289 0.0920703 " transform="matrix(100,0,0,100,150,3650)"/>
<path style="fill:none;stroke-width:0.01;stroke-linecap:butt;stroke-linejoin:miter;stroke:rgb(0%,0%,0%);stroke-opacity:1;stroke-miterlimit:10;" d="M 0.782812 0.12625 L 0.803047 0.0454687 L 0.338398 0.0454687 L 0.338398 0.12625 L 0.297969 0.20707 L 0.217188 0.368672 L 0.196953 0.530313 L 0.217188 0.752539 L 0.257578 0.87375 L 0.398984 0.914141 L 0.520195 0.954531 L 0.58082 0.934336 L 0.661602 0.914141 L 0.681836 0.853555 L 0.621211 0.83332 L 0.661602 0.611094 L 0.742422 0.590898 L 0.782812 0.510117 L 0.722227 0.449492 Z M 0.782812 0.12625 " transform="matrix(100,0,0,100,300,3650)"/>
<path style="fill:none;stroke-width:0.01;stroke-linecap:butt;stroke-linejoin:miter;stroke:rgb(0%,0%,0%);stroke-opacity:1;stroke-miterlimit:10;" d="M 0.716094 0.209375 L 0.716094 0.0454687 L 0.418047 0.0454687 L 0.43293 0.194492 L 0.388242 0.254102 L 0.298789 0.343516 L 0.254102 0.403125 L 0.23918 0.522344 L 0.254102 0.716094 L 0.283906 0.835313 L 0.358437 0.894922 L 0.447852 0.924727 L 0.552148 0.954531 L 0.552148 0.894922 L 0.596875 0.909844 L 0.611758 0.894922 L 0.62668 0.850234 L 0.596875 0.82043 L 0.686289 0.537266 L 0.716094 0.537266 L 0.745898 0.492539 L 0.76082 0.43293 L 0.716094 0.403125 Z M 0.716094 0.209375 " transform="matrix(100,0,0,100,450,3650)"/>
<path style="fill:none;stroke-width:0.01;stroke-linecap:butt;stroke-linejoin:miter;stroke:rgb(0%,0%,0%);stroke-opacity:1;stroke-miterlimit:10;" d="M 0.954531 0.0767969 L 0.0454688 0.0767969 L 0.202187 0.641055 L 0.358945 0.766445 L 0.421641 0.891836 L 0.641055 0.923203 L 0.70375 0.797812 L 0.766445 0.766445 L 0.797813 0.735117 L 0.797813 0.672422 L 0.735117 0.609727 L 0.766445 0.327578 L 0.766445 0.170859 Z M 0.954531 0.0767969 " transform="matrix(100,0,0,100,600,3650)"/>
<path style="fill:none;stroke-width:0.01;stroke-linecap:butt;stroke-linejoin:miter;stroke:rgb(0%,0%,0%);stroke-opacity:1;stroke-miterlimit:10;" d="M 0.954531 0.878789 L 0.0454688 0.878789 L 0.0454688 0.632578 L 0.0549219 0.556836 L 0.064375 0.509453 L 0.0928125 0.452656 L 0.1875 0.339023 L 0.320078 0.234844 L 0.29168 0.215898 L 0.282187 0.178047 L 0.329531 0.159102 L 0.424258 0.121211 L 0.575742 0.130664 L 0.60418 0.149609 L 0.869336 0.149609 L 0.954531 0.159102 L 0.954531 0.376875 Z M 0.954531 0.878789 " transform="matrix(100,0,0,100,0,3800)"/>
<path style="fill:none;stroke-width:0.01;stroke-linecap:butt;stroke-linejoin:miter;stroke:rgb(0%,0%,0%);stroke-opacity:1;stroke-miterlimit:10;" d="M 0.8125 0.244336 L 0.8125 0.0454687 L 0.159102 0.0454687 L 0.1875 0.130664 L 0.159102 0.357969 L 0.272734 0.613633 L 0.357969 0.869336 L 0.471602 0.954531 L 0.698867 0.897734 L 0.8125 0.926133 L 0.840898 0.8125 L 0.698867 0.8125 Z M 0.8125 0.244336 " transform="matrix(100,0,0,100,150,3800)"/>
<path style="fill:none;stroke-width:0.01;stroke-linecap:butt;stroke-linejoin:miter;stroke:rgb(0%,0%,0%);stroke-opacity:1;stroke-miterlimit:10;" d="M 0.854453 0.954531 L 0.145547 0.946211 L 0.170547 0.737695 L 0.162227 0.662617 L 0.178906 0.595898 L 0.220586 0.52918 L 0.312344 0.420781 L 0.404102 0.320703 L 0.4875 0.262305 L 0.4875 0.228945 L 0.49582 0.145547 L 0.52918 0.0788281 L 0.604258 0.0704688 L 0.662617 0.0454687 L 0.779414 0.0537891 L 0.854453 0.112187 Z M 0.854453 0.954531 " transform="matrix(100,0,0,100,300,3800)"/>
<path style="fill:none;stroke-width:0.01;stroke-linecap:butt;stroke-linejoin:miter;stroke:rgb(0%,0%,0%);stroke-opacity:1;stroke-miterlimit:10;" d="M 0.954531 0.727266 L 0.0454688 0.727266 L 0.0989453 0.629219 L 0.152422 0.531211 L 0.286094 0.477734 L 0.268281 0.406406 L 0.286094 0.344023 L 0.33957 0.281641 L 0.401953 0.272734 L 0.464336 0.272734 L 0.526719 0.317305 L 0.642617 0.326211 L 0.74957 0.308359 L 0.776289 0.35293 L 0.785195 0.3975 L 0.74957 0.424258 L 0.642617 0.433164 Z M 0.954531 0.727266 " transform="matrix(100,0,0,100,450,3800)"/>
<path style="fill:none;stroke-width:0.01;stroke-linecap:butt;stroke-linejoin:miter;stroke:rgb(0%,0%,0%);stroke-opacity:1;stroke-miterlimit:10;" d="M 0.842891 0.0853125 L 0.0454688 0.0534375 L 0.0454688 0.372422 L 0.0614063 0.531914 L 0.0773437 0.627578 L 0.157109 0.723281 L 0.236836 0.771133 L 0.284688 0.882773 L 0.348477 0.930625 L 0.460117 0.946562 L 0.492031 0.898711 L 0.587734 0.930625 L 0.635547 0.914687 L 0.651523 0.866836 L 0.651523 0.818984 L 0.587734 0.803047 L 0.699375 0.5 L 0.747227 0.484063 L 0.858867 0.468086 L 0.938594 0.420273 L 0.954531 0.340508 L 0.938594 0.260781 L 0.890742 0.228867 L 0.858867 0.21293 Z M 0.842891 0.0853125 " transform="matrix(100,0,0,100,600,3800)"/>
<path style="fill:none;stroke-width:0.01;stroke-linecap:butt;stroke-linejoin:miter;stroke:rgb(0%,0%,0%);stroke-opacity:1;stroke-miterlimit:10;" d="M 0.929297 0.159102 L 0.929297 0.0454687 L 0.121211 0.0454687 L 0.0833203 0.133828 L 0.0580859 0.449492 L 0.0707031 0.62625 L 0.0959766 0.765156 L 0.209609 0.878789 L 0.260117 0.91668 L 0.297969 0.941914 L 0.424258 0.954531 L 0.462109 0.91668 L 0.512617 0.929297 L 0.613633 0.929297 L 0.651523 0.878789 L 0.588398 0.828281 L 0.714648 0.601016 L 0.790391 0.613633 L 0.878789 0.601016 L 0.941914 0.525234 L 0.941914 0.474766 L 0.91668 0.449492 L 0.878789 0.411602 Z M 0.929297 0.159102 " transform="matrix(100,0,0,100,0,3950)"/>
<path style="fill:none;stroke-width:0.01;stroke-linecap:butt;stroke-linejoin:miter;stroke:rgb(0%,0%,0%);stroke-opacity:1;stroke-miterlimit:10;" d="M 0.883047 0.862617 L 0.0454687 0.862617 L 0.0556641 0.791133 L 0.0556641 0.454023 L 0.0658984 0.351875 L 0.0863281 0.311016 L 0.157813 0.239531 L 0.198672 0.208867 L 0.219102 0.157812 L 0.280391 0.137383 L 0.413164 0.137383 L 0.433594 0.178242 L 0.505117 0.188477 L 0.566406 0.168047 L 0.597031 0.239531 L 0.607266 0.280391 L 0.556172 0.30082 L 0.65832 0.443828 L 0.709414 0.515313 L 0.780898 0.535742 L 0.883047 0.545977 L 0.923906 0.566406 L 0.934102 0.617461 L 0.954531 0.65832 L 0.944336 0.688984 L 0.862617 0.69918 L 0.872813 0.760469 Z M 0.883047 0.862617 " transform="matrix(100,0,0,100,150,3950)"/>
<path style="fill:none;stroke-width:0.01;stroke-linecap:butt;stroke-linejoin:miter;stroke:rgb(0%,0%,0%);stroke-opacity:1;stroke-miterlimit:10;" d="M 0.908516 0.1375 L 0.896992 0.0914844 L 0.0684766 0.0914844 L 0.0454687 0.218086 L 0.0569531 0.37918 L 0.0454687 0.551797 L 0.0569531 0.678359 L 0.126016 0.77043 L 0.160547 0.793438 L 0.206562 0.873984 L 0.275586 0.896992 L 0.367656 0.908516 L 0.425195 0.839453 L 0.482734 0.8625 L 0.551797 0.850977 L 0.574805 0.793438 L 0.574805 0.747422 L 0.494258 0.758906 L 0.689883 0.482734 L 0.747422 0.47125 L 0.839453 0.459727 L 0.896992 0.436719 L 0.931523 0.402188 L 0.954531 0.333125 L 0.954531 0.298633 L 0.908516 0.275586 L 0.8625 0.264102 Z M 0.908516 0.1375 " transform="matrix(100,0,0,100,300,3950)"/>
<path style="fill:none;stroke-width:0.01;stroke-linecap:butt;stroke-linejoin:miter;stroke:rgb(0%,0%,0%);stroke-opacity:1;stroke-miterlimit:10;" d="M 0.954531 0.243984 L 0.0454688 0.243984 L 0.0767969 0.369375 L 0.108164 0.452969 L 0.170859 0.526133 L 0.285781 0.620156 L 0.327578 0.661953 L 0.348477 0.724648 L 0.43207 0.756016 L 0.526133 0.745547 L 0.578359 0.70375 L 0.609727 0.620156 L 0.672422 0.599258 L 0.776914 0.599258 L 0.829141 0.557461 L 0.839609 0.505234 L 0.850039 0.463437 L 0.797813 0.43207 L 0.745547 0.411172 Z M 0.954531 0.243984 " transform="matrix(100,0,0,100,450,3950)"/>
<path style="fill:none;stroke-width:0.01;stroke-linecap:butt;stroke-linejoin:miter;stroke:rgb(0%,0%,0%);stroke-opacity:1;stroke-miterlimit:10;" d="M 0.844141 0.149336 L 0.844141 0.0454687 L 0.350664 0.0454687 L 0.31168 0.110391 L 0.220781 0.149336 L 0.168828 0.214297 L 0.142852 0.474023 L 0.129883 0.642852 L 0.142852 0.772734 L 0.194805 0.876641 L 0.285703 0.928555 L 0.363633 0.941563 L 0.454531 0.954531 L 0.441562 0.928555 L 0.506484 0.941563 L 0.623359 0.941563 L 0.636367 0.889609 L 0.571445 0.863633 L 0.662344 0.629883 L 0.727266 0.629883 L 0.818164 0.616875 L 0.870117 0.57793 L 0.870117 0.512969 L 0.844141 0.461055 L 0.792227 0.435078 Z M 0.844141 0.149336 " transform="matrix(100,0,0,100,600,3950)"/>
<path style="fill:none;stroke-width:0.01;stroke-linecap:butt;stroke-linejoin:miter;stroke:rgb(0%,0%,0%);stroke-opacity:1;stroke-miterlimit:10;" d="M 0.954531 0.364102 L 0.0454688 0.364102 L 0.0829297 0.439062 L 0.129805 0.495313 L 0.195391 0.551563 L 0.373477 0.607773 L 0.514062 0.635898 L 0.579648 0.635898 L 0.645273 0.617148 L 0.710859 0.607773 L 0.82332 0.589023 L 0.888945 0.551563 L 0.93582 0.504688 L 0.945156 0.439062 Z M 0.954531 0.364102 " transform="matrix(100,0,0,100,0,4100)"/>
<path style="fill:none;stroke-width:0.01;stroke-linecap:butt;stroke-linejoin:miter;stroke:rgb(0%,0%,0%);stroke-opacity:1;stroke-miterlimit:10;" d="M 0.915039 0.717383 L 0.0454687 0.717383 L 0.0652344 0.598828 L 0.104727 0.440703 L 0.183789 0.282617 L 0.559297 0.282617 L 0.638359 0.341914 L 0.796445 0.361641 L 0.915039 0.440703 L 0.954531 0.559297 L 0.954531 0.618594 Z M 0.915039 0.717383 " transform="matrix(100,0,0,100,150,4100)"/>
<path style="fill:none;stroke-width:0.01;stroke-linecap:butt;stroke-linejoin:miter;stroke:rgb(0%,0%,0%);stroke-opacity:1;stroke-miterlimit:10;" d="M 0.85957 0.194727 L 0.873125 0.0454687 L 0.153984 0.0454687 L 0.153984 0.181133 L 0.113281 0.506797 L 0.0997266 0.628906 L 0.0997266 0.751016 L 0.194727 0.85957 L 0.316836 0.913828 L 0.411797 0.954531 L 0.506797 0.940977 L 0.5475 0.940977 L 0.628906 0.927422 L 0.642461 0.886719 L 0.628906 0.832422 L 0.574609 0.846016 L 0.696758 0.615352 L 0.751016 0.601758 L 0.818867 0.601758 L 0.873125 0.588203 L 0.900273 0.5475 L 0.886719 0.506797 L 0.886719 0.466094 L 0.805273 0.4525 L 0.832422 0.371094 Z M 0.85957 0.194727 " transform="matrix(100,0,0,100,300,4100)"/>
<path style="fill:none;stroke-width:0.01;stroke-linecap:butt;stroke-linejoin:miter;stroke:rgb(0%,0%,0%);stroke-opacity:1;stroke-miterlimit:10;" d="M 0.954531 0.166953 L 0.0814453 0.166953 L 0.0544531 0.274961 L 0.0454688 0.391992 L 0.0454688 0.59 L 0.0724609 0.671016 L 0.153477 0.761016 L 0.261484 0.806016 L 0.3425 0.815039 L 0.396484 0.833047 L 0.4325 0.806016 L 0.459492 0.806016 L 0.5225 0.797031 L 0.531484 0.770039 L 0.540508 0.725039 L 0.495508 0.707031 L 0.666523 0.473008 L 0.747539 0.473008 L 0.828516 0.455 L 0.855547 0.41 L 0.864531 0.346992 L 0.828516 0.310977 L 0.819531 0.274961 Z M 0.954531 0.166953 " transform="matrix(100,0,0,100,450,4100)"/>
<path style="fill:none;stroke-width:0.01;stroke-linecap:butt;stroke-linejoin:miter;stroke:rgb(0%,0%,0%);stroke-opacity:1;stroke-miterlimit:10;" d="M 0.935977 0.611328 L 0.0454688 0.611328 L 0.156758 0.5 L 0.32375 0.407227 L 0.509258 0.388672 L 0.639141 0.425781 L 0.787578 0.407227 L 0.898906 0.462891 L 0.954531 0.537109 Z M 0.935977 0.611328 " transform="matrix(100,0,0,100,600,4100)"/>
<path style="fill:none;stroke-width:0.01;stroke-linecap:butt;stroke-linejoin:miter;stroke:rgb(0%,0%,0%);stroke-opacity:1;stroke-miterlimit:10;" d="M 0.954531 0.691758 L 0.0454688 0.691758 L 0.0596484 0.620742 L 0.0738672 0.535508 L 0.159102 0.450273 L 0.272734 0.393477 L 0.400586 0.336641 L 0.514219 0.322461 L 0.585234 0.308242 L 0.684648 0.365039 L 0.741484 0.336641 L 0.855117 0.350859 L 0.940352 0.379258 L 0.954531 0.464492 L 0.954531 0.507109 L 0.883516 0.549727 Z M 0.954531 0.691758 " transform="matrix(100,0,0,100,0,4250)"/>
<path style="fill:none;stroke-width:0.01;stroke-linecap:butt;stroke-linejoin:miter;stroke:rgb(0%,0%,0%);stroke-opacity:1;stroke-miterlimit:10;" d="M 0.917422 0.328398 L 0.0454687 0.328398 L 0.0547266 0.588125 L 0.138203 0.615938 L 0.286641 0.662344 L 0.388672 0.671602 L 0.462891 0.653047 L 0.555664 0.634492 L 0.620586 0.60668 L 0.685547 0.513906 L 0.778281 0.495352 L 0.871055 0.467539 L 0.935977 0.411875 L 0.954531 0.356211 Z M 0.917422 0.328398 " transform="matrix(100,0,0,100,150,4250)"/>
<path style="fill:none;stroke-width:0.01;stroke-linecap:butt;stroke-linejoin:miter;stroke:rgb(0%,0%,0%);stroke-opacity:1;stroke-miterlimit:10;" d="M 0.858867 0.252773 L 0.0454687 0.220898 L 0.0933203 0.44418 L 0.109258 0.539883 L 0.236836 0.603672 L 0.364453 0.699375 L 0.460117 0.715313 L 0.587734 0.763164 L 0.667461 0.779102 L 0.73125 0.747227 L 0.874805 0.667461 L 0.842891 0.651523 L 0.922656 0.651523 L 0.954531 0.587734 L 0.954531 0.523906 L 0.922656 0.460117 L 0.826953 0.44418 Z M 0.858867 0.252773 " transform="matrix(100,0,0,100,300,4250)"/>
<path style="fill:none;stroke-width:0.01;stroke-linecap:butt;stroke-linejoin:miter;stroke:rgb(0%,0%,0%);stroke-opacity:1;stroke-miterlimit:10;" d="M 0.954531 0.651523 L 0.054375 0.651523 L 0.0454688 0.535664 L 0.0454688 0.482188 L 0.0810937 0.428711 L 0.205898 0.428711 L 0.268281 0.419805 L 0.312852 0.410859 L 0.375234 0.375234 L 0.428711 0.375234 L 0.437617 0.393047 L 0.473281 0.375234 L 0.562383 0.357383 L 0.615859 0.357383 L 0.678242 0.348477 L 0.731719 0.366328 L 0.740625 0.393047 L 0.74957 0.428711 L 0.74957 0.473281 L 0.678242 0.491094 L 0.713906 0.553477 L 0.722812 0.580195 L 0.829766 0.589141 L 0.892148 0.606953 L 0.927812 0.624766 Z M 0.954531 0.651523 " transform="matrix(100,0,0,100,450,4250)"/>
<path style="fill:none;stroke-width:0.01;stroke-linecap:butt;stroke-linejoin:miter;stroke:rgb(0%,0%,0%);stroke-opacity:1;stroke-miterlimit:10;" d="M 0.834922 0.655508 L 0.834922 0.392344 L 0.954531 0.344492 L 0.954531 0.248789 L 0.858867 0.224883 L 0.715313 0.200938 L 0.5 0.200938 L 0.21293 0.248789 L 0.069375 0.368437 L 0.0454688 0.631563 L 0.069375 0.775117 L 0.78707 0.799062 Z M 0.834922 0.655508 " transform="matrix(100,0,0,100,600,4250)"/>
<path style="fill:none;stroke-width:0.01;stroke-linecap:butt;stroke-linejoin:miter;stroke:rgb(0%,0%,0%);stroke-opacity:1;stroke-miterlimit:10;" d="M 0.954531 0.825742 L 0.0454688 0.825742 L 0.0908984 0.704531 L 0.121211 0.598477 L 0.303047 0.477266 L 0.409102 0.431836 L 0.378789 0.340898 L 0.393945 0.280313 L 0.454531 0.204531 L 0.606055 0.189375 L 0.742422 0.204531 L 0.863633 0.174258 L 0.939375 0.189375 Z M 0.954531 0.825742 " transform="matrix(100,0,0,100,0,4400)"/>
<path style="fill:none;stroke-width:0.01;stroke-linecap:butt;stroke-linejoin:miter;stroke:rgb(0%,0%,0%);stroke-opacity:1;stroke-miterlimit:10;" d="M 0.884609 0.150352 L 0.0454687 0.150352 L 0.185312 0.534961 L 0.290195 0.814687 L 0.290195 0.849648 L 0.534961 0.814687 L 0.709805 0.709805 L 0.849648 0.709805 L 0.954531 0.639844 L 0.954531 0.465039 L 0.91957 0.395117 L 0.849648 0.395117 Z M 0.884609 0.150352 " transform="matrix(100,0,0,100,150,4400)"/>
<path style="fill:none;stroke-width:0.01;stroke-linecap:butt;stroke-linejoin:miter;stroke:rgb(0%,0%,0%);stroke-opacity:1;stroke-miterlimit:10;" d="M 0.745898 0.880039 L 0.716094 0.537266 L 0.731016 0.43293 L 0.805508 0.43293 L 0.865117 0.403125 L 0.880039 0.343516 L 0.835313 0.298789 L 0.686289 0.268984 L 0.671367 0.164687 L 0.731016 0.164687 L 0.790625 0.134883 L 0.775703 0.0752734 L 0.686289 0.0454687 L 0.56707 0.0454687 L 0.462734 0.0752734 L 0.328633 0.164687 L 0.224297 0.298789 L 0.149766 0.43293 L 0.119961 0.775703 L 0.149766 0.954531 L 0.76082 0.954531 Z M 0.745898 0.880039 " transform="matrix(100,0,0,100,300,4400)"/>
<path style="fill:none;stroke-width:0.01;stroke-linecap:butt;stroke-linejoin:miter;stroke:rgb(0%,0%,0%);stroke-opacity:1;stroke-miterlimit:10;" d="M 0.904023 0.392695 L 0.0454688 0.392695 L 0.323242 0.518945 L 0.436875 0.569453 L 0.613633 0.594687 L 0.727266 0.607305 L 0.790391 0.607305 L 0.891406 0.594687 L 0.941914 0.569453 L 0.954531 0.518945 L 0.941914 0.493672 L 0.91668 0.493672 L 0.866172 0.481055 Z M 0.904023 0.392695 " transform="matrix(100,0,0,100,450,4400)"/>
<path style="fill:none;stroke-width:0.01;stroke-linecap:butt;stroke-linejoin:miter;stroke:rgb(0%,0%,0%);stroke-opacity:1;stroke-miterlimit:10;" d="M 0.954531 0.798711 L 0.0454688 0.798711 L 0.0974219 0.746758 L 0.279219 0.616875 L 0.357148 0.461055 L 0.383125 0.331172 L 0.512969 0.305195 L 0.616875 0.227266 L 0.694805 0.201289 L 0.798711 0.253242 L 0.850664 0.409102 L 0.902578 0.487031 L 0.954531 0.512969 Z M 0.954531 0.798711 " transform="matrix(100,0,0,100,600,4400)"/>
</g>
</svg>
