<?xml version="1.0" encoding="UTF-8"?>
<svg xmlns="http://www.w3.org/2000/svg" xmlns:xlink="http://www.w3.org/1999/xlink" width="750pt" height="14400pt" viewBox="0 0 750 14400" version="1.1">
<g id="surface1">
<path style="fill:none;stroke-width:0.01;stroke-linecap:butt;stroke-linejoin:miter;stroke:rgb(0%,0%,0%);stroke-opacity:1;stroke-miterlimit:10;" d="M 0.208633 0.348477 L 0.255234 0.768047 L 0.301875 0.884609 L 0.651523 0.884609 L 0.698125 0.371797 L 0.838008 0.371797 L 0.954531 0.161992 L 0.0454688 0.115391 Z M 0.208633 0.348477 " transform="matrix(100,0,0,100,0,200)"/>
<path style="fill:none;stroke-width:0.01;stroke-linecap:butt;stroke-linejoin:miter;stroke:rgb(0%,0%,0%);stroke-opacity:1;stroke-miterlimit:10;" d="M 0.069375 0.0454687 L 0.165078 0.763164 L 0.404297 0.954531 L 0.5 0.954531 L 0.595703 0.858867 L 0.834922 0.811016 L 0.930625 0.571758 L 0.930625 0.141133 Z M 0.069375 0.0454687 " transform="matrix(100,0,0,100,150,200)"/>
<path style="fill:none;stroke-width:0.01;stroke-linecap:butt;stroke-linejoin:miter;stroke:rgb(0%,0%,0%);stroke-opacity:1;stroke-miterlimit:10;" d="M 0.0454687 0.796445 L 0.124492 0.539531 L 0.183789 0.480234 L 0.420937 0.282617 L 0.579063 0.262852 L 0.658086 0.203555 L 0.756914 0.22332 L 0.77668 0.322148 L 0.835977 0.677852 L 0.895273 0.677852 L 0.954531 0.796445 Z M 0.0454687 0.796445 " transform="matrix(100,0,0,100,300,200)"/>
<path style="fill:none;stroke-width:0.01;stroke-linecap:butt;stroke-linejoin:miter;stroke:rgb(0%,0%,0%);stroke-opacity:1;stroke-miterlimit:10;" d="M 0.874336 0.0588281 L 0.0454688 0.112305 L 0.259375 0.780742 L 0.393047 0.860977 L 0.526719 0.941172 L 0.633672 0.887695 L 0.794102 0.64707 L 0.874336 0.540117 L 0.954531 0.35293 L 0.794102 0.272734 L 0.794102 0.112305 Z M 0.874336 0.0588281 " transform="matrix(100,0,0,100,450,200)"/>
<path style="fill:none;stroke-width:0.01;stroke-linecap:butt;stroke-linejoin:miter;stroke:rgb(0%,0%,0%);stroke-opacity:1;stroke-miterlimit:10;" d="M 0.478359 0.153672 L 0.261914 0.283555 L 0.218633 0.543281 L 0.0454688 0.716445 L 0.0454688 0.846328 L 0.824688 0.846328 L 0.91125 0.716445 L 0.954531 0.5 L 0.867969 0.413438 L 0.738086 0.326836 L 0.694805 0.153672 Z M 0.478359 0.153672 " transform="matrix(100,0,0,100,600,200)"/>
<path style="fill:none;stroke-width:0.01;stroke-linecap:butt;stroke-linejoin:miter;stroke:rgb(0%,0%,0%);stroke-opacity:1;stroke-miterlimit:10;" d="M 0.487383 0.0454687 L 0.285352 0.0707031 L 0.222227 0.727266 L 0.297969 0.828281 L 0.323242 0.866172 L 0.398984 0.904023 L 0.487383 0.954531 L 0.550508 0.954531 L 0.613633 0.929297 L 0.651523 0.891406 L 0.702031 0.866172 L 0.739883 0.815664 L 0.739883 0.765156 L 0.714648 0.727266 L 0.664141 0.727266 L 0.676758 0.525234 L 0.752539 0.474766 L 0.765156 0.436875 L 0.777773 0.386367 L 0.727266 0.361094 L 0.676758 0.335859 L 0.689375 0.184336 L 0.62625 0.0959766 L 0.575742 0.0707031 Z M 0.487383 0.0454687 " transform="matrix(100,0,0,100,0,350)"/>
<path style="fill:none;stroke-width:0.01;stroke-linecap:butt;stroke-linejoin:miter;stroke:rgb(0%,0%,0%);stroke-opacity:1;stroke-miterlimit:10;" d="M 0.550508 0.365312 L 0.0454687 0.365312 L 0.281133 0.567344 L 0.382148 0.634688 L 0.752539 0.634688 L 0.920859 0.5 L 0.954531 0.365312 L 0.651523 0.365312 Z M 0.550508 0.365312 " transform="matrix(100,0,0,100,150,350)"/>
<path style="fill:none;stroke-width:0.01;stroke-linecap:butt;stroke-linejoin:miter;stroke:rgb(0%,0%,0%);stroke-opacity:1;stroke-miterlimit:10;" d="M 0.714648 0.954531 L 0.285352 0.954531 L 0.348477 0.790391 L 0.386367 0.588398 L 0.449492 0.411602 L 0.474766 0.272734 L 0.563125 0.108594 L 0.601016 0.0580859 L 0.714648 0.0454687 Z M 0.714648 0.954531 " transform="matrix(100,0,0,100,300,350)"/>
<path style="fill:none;stroke-width:0.01;stroke-linecap:butt;stroke-linejoin:miter;stroke:rgb(0%,0%,0%);stroke-opacity:1;stroke-miterlimit:10;" d="M 0.661289 0.631953 L 0.0454688 0.631953 L 0.19207 0.514648 L 0.456016 0.368047 L 0.954531 0.631953 L 0.749258 0.631953 Z M 0.661289 0.631953 " transform="matrix(100,0,0,100,450,350)"/>
<path style="fill:none;stroke-width:0.01;stroke-linecap:butt;stroke-linejoin:miter;stroke:rgb(0%,0%,0%);stroke-opacity:1;stroke-miterlimit:10;" d="M 0.77668 0.559297 L 0.77668 0.0454687 L 0.262852 0.0454687 L 0.22332 0.361641 L 0.5 0.717383 L 0.539531 0.915039 L 0.658086 0.954531 L 0.697617 0.835977 L 0.737148 0.796445 L 0.77668 0.717383 Z M 0.77668 0.559297 " transform="matrix(100,0,0,100,600,350)"/>
<path style="fill:none;stroke-width:0.01;stroke-linecap:butt;stroke-linejoin:miter;stroke:rgb(0%,0%,0%);stroke-opacity:1;stroke-miterlimit:10;" d="M 0.571758 0.21293 L 0.069375 0.165078 L 0.0454688 0.356445 L 0.284687 0.715313 L 0.619609 0.834922 L 0.763164 0.78707 L 0.858867 0.763164 L 0.954531 0.715313 L 0.954531 0.667461 L 0.858867 0.595703 L 0.811016 0.595703 L 0.834922 0.236836 L 0.90668 0.236836 L 0.954531 0.21293 Z M 0.571758 0.21293 " transform="matrix(100,0,0,100,0,500)"/>
<path style="fill:none;stroke-width:0.01;stroke-linecap:butt;stroke-linejoin:miter;stroke:rgb(0%,0%,0%);stroke-opacity:1;stroke-miterlimit:10;" d="M 0.586562 0.0454688 L 0.442266 0.0742969 L 0.427852 0.218633 L 0.413438 0.377344 L 0.456719 0.608242 L 0.543281 0.824688 L 0.586562 0.954531 Z M 0.586562 0.0454688 " transform="matrix(100,0,0,100,150,500)"/>
<path style="fill:none;stroke-width:0.01;stroke-linecap:butt;stroke-linejoin:miter;stroke:rgb(0%,0%,0%);stroke-opacity:1;stroke-miterlimit:10;" d="M 0.575742 0.843438 L 0.575742 0.954531 L 0.484844 0.83332 L 0.434336 0.459609 L 0.424258 0.409102 L 0.444453 0.277773 L 0.474766 0.0959766 L 0.515156 0.0454688 L 0.575742 0.176758 Z M 0.575742 0.843438 " transform="matrix(100,0,0,100,300,500)"/>
<path style="fill:none;stroke-width:0.01;stroke-linecap:butt;stroke-linejoin:miter;stroke:rgb(0%,0%,0%);stroke-opacity:1;stroke-miterlimit:10;" d="M 0.759023 0.954531 L 0.270273 0.954531 L 0.289844 0.700391 L 0.260508 0.710156 L 0.231172 0.710156 L 0.231172 0.651523 L 0.280078 0.651523 L 0.280078 0.416914 L 0.250742 0.407148 L 0.240977 0.377813 L 0.250742 0.358242 L 0.270273 0.358242 L 0.299609 0.299609 L 0.622187 0.0552344 L 0.768828 0.0454688 Z M 0.759023 0.954531 " transform="matrix(100,0,0,100,450,500)"/>
<path style="fill:none;stroke-width:0.01;stroke-linecap:butt;stroke-linejoin:miter;stroke:rgb(0%,0%,0%);stroke-opacity:1;stroke-miterlimit:10;" d="M 0.691172 0.0454688 L 0.308828 0.0454688 L 0.291836 0.215391 L 0.291836 0.504258 L 0.334336 0.614688 L 0.376797 0.691172 L 0.410781 0.733633 L 0.436289 0.835586 L 0.444766 0.886563 L 0.470273 0.929062 L 0.504258 0.954531 L 0.555234 0.954531 L 0.623203 0.920547 L 0.67418 0.878086 L 0.708164 0.844102 L 0.691172 0.793125 L 0.665664 0.767617 L 0.640195 0.759141 L 0.691172 0.308828 L 0.708164 0.291836 Z M 0.691172 0.0454688 " transform="matrix(100,0,0,100,600,500)"/>
<path style="fill:none;stroke-width:0.01;stroke-linecap:butt;stroke-linejoin:miter;stroke:rgb(0%,0%,0%);stroke-opacity:1;stroke-miterlimit:10;" d="M 0.727266 0.196953 L 0.0454688 0.196953 L 0.121211 0.424258 L 0.348477 0.613633 L 0.5 0.803047 L 0.803047 0.727266 L 0.765156 0.5 L 0.91668 0.537891 L 0.954531 0.424258 L 0.91668 0.386367 L 0.727266 0.348477 Z M 0.727266 0.196953 " transform="matrix(100,0,0,100,0,650)"/>
<path style="fill:none;stroke-width:0.01;stroke-linecap:butt;stroke-linejoin:miter;stroke:rgb(0%,0%,0%);stroke-opacity:1;stroke-miterlimit:10;" d="M 0.954531 0.834922 L 0.0454687 0.78707 L 0.0933203 0.404297 L 0.236836 0.260781 L 0.476094 0.165078 L 0.858867 0.165078 L 0.90668 0.308594 Z M 0.954531 0.834922 " transform="matrix(100,0,0,100,150,650)"/>
<path style="fill:none;stroke-width:0.01;stroke-linecap:butt;stroke-linejoin:miter;stroke:rgb(0%,0%,0%);stroke-opacity:1;stroke-miterlimit:10;" d="M 0.613633 0.954531 L 0.234844 0.954531 L 0.234844 0.512617 L 0.37375 0.424258 L 0.386367 0.260117 L 0.436875 0.133828 L 0.449492 0.108594 L 0.5 0.0580859 L 0.550508 0.0454688 L 0.638906 0.0454688 L 0.664141 0.133828 L 0.727266 0.159102 L 0.752539 0.184336 L 0.765156 0.247461 L 0.752539 0.297969 L 0.714648 0.310625 L 0.765156 0.361094 L 0.752539 0.424258 L 0.752539 0.487383 L 0.714648 0.525234 L 0.664141 0.537891 L 0.638906 0.62625 Z M 0.613633 0.954531 " transform="matrix(100,0,0,100,300,650)"/>
<path style="fill:none;stroke-width:0.01;stroke-linecap:butt;stroke-linejoin:miter;stroke:rgb(0%,0%,0%);stroke-opacity:1;stroke-miterlimit:10;" d="M 0.733086 0.0454688 L 0.127031 0.0920703 L 0.196953 0.90793 L 0.406758 0.954531 L 0.52332 0.93125 L 0.593242 0.861289 L 0.593242 0.651523 L 0.686484 0.604883 L 0.872969 0.418398 L 0.826328 0.325156 L 0.849648 0.278555 L 0.872969 0.138711 L 0.849648 0.0920703 Z M 0.733086 0.0454688 " transform="matrix(100,0,0,100,450,650)"/>
<path style="fill:none;stroke-width:0.01;stroke-linecap:butt;stroke-linejoin:miter;stroke:rgb(0%,0%,0%);stroke-opacity:1;stroke-miterlimit:10;" d="M 0.679922 0.954531 L 0.679922 0.518945 L 0.717812 0.5 L 0.755664 0.462109 L 0.755664 0.405312 L 0.736758 0.367422 L 0.755664 0.310625 L 0.755664 0.253789 L 0.717812 0.196953 L 0.642031 0.196953 L 0.642031 0.121211 L 0.452656 0.0454688 L 0.433711 0.234844 L 0.376875 0.556836 L 0.263242 0.727266 L 0.244336 0.954531 Z M 0.679922 0.954531 " transform="matrix(100,0,0,100,600,650)"/>
<path style="fill:none;stroke-width:0.01;stroke-linecap:butt;stroke-linejoin:miter;stroke:rgb(0%,0%,0%);stroke-opacity:1;stroke-miterlimit:10;" d="M 0.954531 0.21293 L 0.0454688 0.260781 L 0.260781 0.667461 L 0.5 0.78707 L 0.643555 0.667461 L 0.834922 0.715312 L 0.954531 0.643555 L 0.954531 0.452148 Z M 0.954531 0.21293 " transform="matrix(100,0,0,100,0,800)"/>
<path style="fill:none;stroke-width:0.01;stroke-linecap:butt;stroke-linejoin:miter;stroke:rgb(0%,0%,0%);stroke-opacity:1;stroke-miterlimit:10;" d="M 0.576758 0.824687 L 0.576758 0.954531 L 0.458672 0.812852 L 0.423242 0.470469 L 0.482305 0.269766 L 0.553125 0.128086 L 0.576758 0.0454687 Z M 0.576758 0.824687 " transform="matrix(100,0,0,100,150,800)"/>
<path style="fill:none;stroke-width:0.01;stroke-linecap:butt;stroke-linejoin:miter;stroke:rgb(0%,0%,0%);stroke-opacity:1;stroke-miterlimit:10;" d="M 0.694805 0.0454687 L 0.305195 0.0454687 L 0.331172 0.305195 L 0.590898 0.746758 L 0.694805 0.954531 Z M 0.694805 0.0454687 " transform="matrix(100,0,0,100,300,800)"/>
<path style="fill:none;stroke-width:0.01;stroke-linecap:butt;stroke-linejoin:miter;stroke:rgb(0%,0%,0%);stroke-opacity:1;stroke-miterlimit:10;" d="M 0.954531 0.125664 L 0.0989453 0.232617 L 0.0454688 0.874336 L 0.205898 0.820859 L 0.419805 0.606953 L 0.580195 0.5 L 0.740625 0.446523 Z M 0.954531 0.125664 " transform="matrix(100,0,0,100,450,800)"/>
<path style="fill:none;stroke-width:0.01;stroke-linecap:butt;stroke-linejoin:miter;stroke:rgb(0%,0%,0%);stroke-opacity:1;stroke-miterlimit:10;" d="M 0.589805 0.954531 L 0.45918 0.949102 L 0.470078 0.87832 L 0.3775 0.720469 L 0.382969 0.617031 L 0.382969 0.426523 L 0.453711 0.323086 L 0.470078 0.306758 L 0.470078 0.225078 L 0.491836 0.132539 L 0.519063 0.0726562 L 0.546289 0.0563281 L 0.595273 0.0454687 L 0.6225 0.0508984 L 0.6225 0.954531 Z M 0.589805 0.954531 " transform="matrix(100,0,0,100,600,800)"/>
<path style="fill:none;stroke-width:0.01;stroke-linecap:butt;stroke-linejoin:miter;stroke:rgb(0%,0%,0%);stroke-opacity:1;stroke-miterlimit:10;" d="M 0.655664 0.954531 L 0.344336 0.954531 L 0.394141 0.406602 L 0.655664 0.0454687 Z M 0.655664 0.954531 " transform="matrix(100,0,0,100,0,950)"/>
<path style="fill:none;stroke-width:0.01;stroke-linecap:butt;stroke-linejoin:miter;stroke:rgb(0%,0%,0%);stroke-opacity:1;stroke-miterlimit:10;" d="M 0.595703 0.763164 L 0.0454687 0.763164 L 0.0933203 0.523906 L 0.236836 0.332539 L 0.356445 0.236836 L 0.547852 0.236836 L 0.739219 0.308594 L 0.834922 0.5 L 0.858867 0.595703 L 0.930625 0.595703 L 0.954531 0.667461 L 0.954531 0.763164 Z M 0.595703 0.763164 " transform="matrix(100,0,0,100,150,950)"/>
<path style="fill:none;stroke-width:0.01;stroke-linecap:butt;stroke-linejoin:miter;stroke:rgb(0%,0%,0%);stroke-opacity:1;stroke-miterlimit:10;" d="M 0.862109 0.731133 L 0.862109 0.5 L 0.90832 0.5 L 0.954531 0.453789 L 0.954531 0.407539 L 0.90832 0.361328 L 0.815859 0.315117 L 0.769648 0.222656 L 0.461484 0.238047 L 0.384453 0.284297 L 0.369023 0.392148 L 0.1225 0.623281 L 0.0608594 0.700313 L 0.0454687 0.777344 Z M 0.862109 0.731133 " transform="matrix(100,0,0,100,300,950)"/>
<path style="fill:none;stroke-width:0.01;stroke-linecap:butt;stroke-linejoin:miter;stroke:rgb(0%,0%,0%);stroke-opacity:1;stroke-miterlimit:10;" d="M 0.692305 0.954531 L 0.150352 0.954531 L 0.132852 0.814687 L 0.150352 0.674844 L 0.185313 0.552461 L 0.237773 0.412578 L 0.325156 0.377617 L 0.377617 0.307695 L 0.412578 0.255234 L 0.465039 0.132852 L 0.674844 0.0454687 L 0.727266 0.0629297 L 0.744766 0.132852 L 0.814687 0.115391 L 0.849648 0.150352 L 0.867148 0.202813 L 0.779727 0.255234 L 0.779727 0.657344 L 0.814687 0.709805 L 0.832148 0.762227 L 0.814687 0.814687 L 0.744766 0.832148 L 0.674844 0.832148 Z M 0.692305 0.954531 " transform="matrix(100,0,0,100,450,950)"/>
<path style="fill:none;stroke-width:0.01;stroke-linecap:butt;stroke-linejoin:miter;stroke:rgb(0%,0%,0%);stroke-opacity:1;stroke-miterlimit:10;" d="M 0.954531 0.942109 L 0.904727 0.456406 L 0.680586 0.107734 L 0.580938 0.0454687 L 0.493789 0.0454687 L 0.443945 0.0828125 L 0.406602 0.145078 L 0.28207 0.145078 L 0.194883 0.269609 L 0.207344 0.493789 L 0.17 0.630742 L 0.157539 0.71793 L 0.0454688 0.954531 Z M 0.954531 0.942109 " transform="matrix(100,0,0,100,600,950)"/>
<path style="fill:none;stroke-width:0.01;stroke-linecap:butt;stroke-linejoin:miter;stroke:rgb(0%,0%,0%);stroke-opacity:1;stroke-miterlimit:10;" d="M 0.637422 0.0666016 L 0.595156 0.0454687 L 0.552852 0.0736328 L 0.524648 0.144102 L 0.475352 0.285078 L 0.426016 0.334375 L 0.383711 0.37668 L 0.369609 0.54582 L 0.362578 0.743125 L 0.433047 0.806563 L 0.433047 0.877031 L 0.45418 0.919297 L 0.496484 0.9475 L 0.531719 0.954531 L 0.552852 0.869961 L 0.595156 0.869961 L 0.637422 0.86293 L 0.637422 0.820664 L 0.62332 0.78543 L 0.595156 0.771328 L 0.630391 0.559883 Z M 0.637422 0.0666016 " transform="matrix(100,0,0,100,0,1100)"/>
<path style="fill:none;stroke-width:0.01;stroke-linecap:butt;stroke-linejoin:miter;stroke:rgb(0%,0%,0%);stroke-opacity:1;stroke-miterlimit:10;" d="M 0.618047 0.895508 L 0.618047 0.0454687 L 0.488203 0.0690625 L 0.417344 0.210742 L 0.405547 0.293398 L 0.39375 0.387852 L 0.381953 0.423242 L 0.381953 0.517695 L 0.547227 0.765625 L 0.547227 0.919141 L 0.60625 0.954531 Z M 0.618047 0.895508 " transform="matrix(100,0,0,100,150,1100)"/>
<path style="fill:none;stroke-width:0.01;stroke-linecap:butt;stroke-linejoin:miter;stroke:rgb(0%,0%,0%);stroke-opacity:1;stroke-miterlimit:10;" d="M 0.927812 0.954531 L 0.0721875 0.901055 L 0.33957 0.0989453 L 0.713906 0.0454687 L 0.874336 0.152422 Z M 0.927812 0.954531 " transform="matrix(100,0,0,100,300,1100)"/>
<path style="fill:none;stroke-width:0.01;stroke-linecap:butt;stroke-linejoin:miter;stroke:rgb(0%,0%,0%);stroke-opacity:1;stroke-miterlimit:10;" d="M 0.395117 0.465039 L 0.150352 0.867148 L 0.150352 0.954531 L 0.814687 0.93707 L 0.814687 0.465039 L 0.849648 0.395117 L 0.849648 0.220273 L 0.779727 0.0978906 L 0.692305 0.0454687 L 0.552461 0.0629297 L 0.447539 0.237773 Z M 0.395117 0.465039 " transform="matrix(100,0,0,100,450,1100)"/>
<path style="fill:none;stroke-width:0.01;stroke-linecap:butt;stroke-linejoin:miter;stroke:rgb(0%,0%,0%);stroke-opacity:1;stroke-miterlimit:10;" d="M 0.635391 0.0454687 L 0.113164 0.0454687 L 0.113164 0.122813 L 0.151836 0.354922 L 0.190508 0.470977 L 0.248555 0.606367 L 0.306563 0.68375 L 0.345273 0.741797 L 0.364609 0.915859 L 0.461328 0.954531 L 0.577383 0.954531 L 0.654727 0.915859 L 0.712773 0.857852 L 0.732109 0.741797 L 0.828828 0.761133 L 0.848164 0.722422 L 0.848164 0.587031 L 0.751445 0.606367 L 0.770781 0.258203 L 0.770781 0.180859 L 0.828828 0.180859 L 0.886836 0.161523 L 0.8675 0.0841406 L 0.809492 0.0841406 Z M 0.635391 0.0454687 " transform="matrix(100,0,0,100,600,1100)"/>
<path style="fill:none;stroke-width:0.01;stroke-linecap:butt;stroke-linejoin:miter;stroke:rgb(0%,0%,0%);stroke-opacity:1;stroke-miterlimit:10;" d="M 0.580586 0.954531 L 0.419414 0.954531 L 0.432305 0.902969 L 0.425859 0.741797 L 0.419414 0.651523 L 0.425859 0.567695 L 0.43875 0.503242 L 0.470977 0.451641 L 0.529023 0.335586 L 0.529023 0.219531 L 0.535469 0.161523 L 0.541914 0.109922 L 0.56125 0.07125 L 0.580586 0.0454687 Z M 0.580586 0.954531 " transform="matrix(100,0,0,100,0,1250)"/>
<path style="fill:none;stroke-width:0.01;stroke-linecap:butt;stroke-linejoin:miter;stroke:rgb(0%,0%,0%);stroke-opacity:1;stroke-miterlimit:10;" d="M 0.638906 0.954531 L 0.361094 0.946133 L 0.37793 0.819883 L 0.386367 0.744102 L 0.394766 0.651523 L 0.403203 0.558906 L 0.411602 0.466328 L 0.478945 0.390586 L 0.537891 0.323242 L 0.563125 0.323242 L 0.613633 0.213789 L 0.638906 0.0538672 L 0.638906 0.0454687 Z M 0.638906 0.954531 " transform="matrix(100,0,0,100,150,1250)"/>
<path style="fill:none;stroke-width:0.01;stroke-linecap:butt;stroke-linejoin:miter;stroke:rgb(0%,0%,0%);stroke-opacity:1;stroke-miterlimit:10;" d="M 0.626836 0.0454687 L 0.373164 0.0666016 L 0.404844 0.922852 L 0.447148 0.954531 L 0.595156 0.954531 Z M 0.626836 0.0454687 " transform="matrix(100,0,0,100,300,1250)"/>
<path style="fill:none;stroke-width:0.01;stroke-linecap:butt;stroke-linejoin:miter;stroke:rgb(0%,0%,0%);stroke-opacity:1;stroke-miterlimit:10;" d="M 0.910547 0.0454687 L 0.0796484 0.0454687 L 0.0992188 0.162773 L 0.187188 0.201875 L 0.236055 0.260508 L 0.255625 0.397344 L 0.294727 0.514648 L 0.324063 0.622188 L 0.353359 0.710156 L 0.392461 0.798125 L 0.431563 0.876328 L 0.480469 0.91543 L 0.539102 0.954531 L 0.636836 0.944766 L 0.685742 0.935 L 0.773711 0.837227 L 0.86168 0.700391 L 0.88125 0.514648 L 0.88125 0.407148 L 0.920352 0.368047 L 0.920352 0.309375 Z M 0.910547 0.0454687 " transform="matrix(100,0,0,100,450,1250)"/>
<path style="fill:none;stroke-width:0.01;stroke-linecap:butt;stroke-linejoin:miter;stroke:rgb(0%,0%,0%);stroke-opacity:1;stroke-miterlimit:10;" d="M 0.548203 0.596406 L 0.548203 0.954531 L 0.479336 0.871914 L 0.451797 0.637734 L 0.465547 0.334727 L 0.451797 0.155664 L 0.548203 0.0454687 Z M 0.548203 0.596406 " transform="matrix(100,0,0,100,600,1250)"/>
<path style="fill:none;stroke-width:0.01;stroke-linecap:butt;stroke-linejoin:miter;stroke:rgb(0%,0%,0%);stroke-opacity:1;stroke-miterlimit:10;" d="M 0.651523 0.887187 L 0.0454688 0.887187 L 0.0454688 0.58418 L 0.0791406 0.382148 L 0.146445 0.180117 L 0.348477 0.112813 L 0.483164 0.146445 L 0.58418 0.281133 L 0.617852 0.382148 L 0.819883 0.41582 L 0.954531 0.550508 L 0.954531 0.819883 L 0.819883 0.819883 Z M 0.651523 0.887187 " transform="matrix(100,0,0,100,0,1400)"/>
<path style="fill:none;stroke-width:0.01;stroke-linecap:butt;stroke-linejoin:miter;stroke:rgb(0%,0%,0%);stroke-opacity:1;stroke-miterlimit:10;" d="M 0.66043 0.954531 L 0.33957 0.945625 L 0.33957 0.86543 L 0.348477 0.740625 L 0.357383 0.615859 L 0.375234 0.54457 L 0.491094 0.419805 L 0.606953 0.125664 L 0.606953 0.0632813 L 0.66043 0.0454687 Z M 0.66043 0.954531 " transform="matrix(100,0,0,100,150,1400)"/>
<path style="fill:none;stroke-width:0.01;stroke-linecap:butt;stroke-linejoin:miter;stroke:rgb(0%,0%,0%);stroke-opacity:1;stroke-miterlimit:10;" d="M 0.618047 0.0454687 L 0.576758 0.0572656 L 0.547227 0.139922 L 0.511797 0.181211 L 0.46457 0.240273 L 0.42918 0.299297 L 0.411445 0.328789 L 0.399648 0.42918 L 0.387852 0.523594 L 0.381953 0.588555 L 0.381953 0.706602 L 0.387852 0.795156 L 0.423242 0.877813 L 0.446875 0.919141 L 0.458672 0.930938 L 0.576758 0.954531 L 0.612148 0.954531 Z M 0.618047 0.0454687 " transform="matrix(100,0,0,100,300,1400)"/>
<path style="fill:none;stroke-width:0.01;stroke-linecap:butt;stroke-linejoin:miter;stroke:rgb(0%,0%,0%);stroke-opacity:1;stroke-miterlimit:10;" d="M 0.723438 0.315117 L 0.723438 0.361328 L 0.90832 0.361328 L 0.939141 0.407539 L 0.954531 0.453789 L 0.923711 0.5 L 0.8775 0.515391 L 0.815859 0.53082 L 0.708008 0.546211 L 0.723438 0.638672 L 0.630977 0.715703 L 0.507695 0.654102 L 0.353633 0.638672 L 0.245781 0.453789 L 0.137891 0.422969 L 0.0762891 0.361328 L 0.0454688 0.315117 L 0.0454688 0.284297 Z M 0.723438 0.315117 " transform="matrix(100,0,0,100,450,1400)"/>
<path style="fill:none;stroke-width:0.01;stroke-linecap:butt;stroke-linejoin:miter;stroke:rgb(0%,0%,0%);stroke-opacity:1;stroke-miterlimit:10;" d="M 0.954531 0.318164 L 0.0454688 0.390898 L 0.190898 0.463633 L 0.372734 0.572734 L 0.518164 0.645469 L 0.627266 0.681836 L 0.7 0.572734 L 0.809102 0.463633 Z M 0.954531 0.318164 " transform="matrix(100,0,0,100,600,1400)"/>
<path style="fill:none;stroke-width:0.01;stroke-linecap:butt;stroke-linejoin:miter;stroke:rgb(0%,0%,0%);stroke-opacity:1;stroke-miterlimit:10;" d="M 0.920859 0.163281 L 0.0454688 0.163281 L 0.146445 0.297969 L 0.281133 0.432656 L 0.382148 0.5 L 0.550508 0.836719 L 0.920859 0.836719 L 0.954531 0.702031 Z M 0.920859 0.163281 " transform="matrix(100,0,0,100,0,1550)"/>
<path style="fill:none;stroke-width:0.01;stroke-linecap:butt;stroke-linejoin:miter;stroke:rgb(0%,0%,0%);stroke-opacity:1;stroke-miterlimit:10;" d="M 0.594063 0.954531 L 0.520898 0.912734 L 0.468633 0.850039 L 0.353711 0.776914 L 0.343242 0.735117 L 0.311914 0.620156 L 0.311914 0.160391 L 0.426836 0.108164 L 0.489531 0.0663672 L 0.562695 0.0454687 L 0.688086 0.0558984 L 0.688086 0.933633 L 0.677656 0.954531 L 0.656758 0.954531 Z M 0.594063 0.954531 " transform="matrix(100,0,0,100,150,1550)"/>
<path style="fill:none;stroke-width:0.01;stroke-linecap:butt;stroke-linejoin:miter;stroke:rgb(0%,0%,0%);stroke-opacity:1;stroke-miterlimit:10;" d="M 0.575742 0.954531 L 0.5 0.853555 L 0.449492 0.525234 L 0.424258 0.297969 L 0.525234 0.0454687 Z M 0.575742 0.954531 " transform="matrix(100,0,0,100,300,1550)"/>
<path style="fill:none;stroke-width:0.01;stroke-linecap:butt;stroke-linejoin:miter;stroke:rgb(0%,0%,0%);stroke-opacity:1;stroke-miterlimit:10;" d="M 0.924258 0.954531 L 0.924258 0.469688 L 0.621211 0.227266 L 0.803047 0.106055 L 0.742422 0.0454687 L 0.439375 0.16668 L 0.318164 0.348477 L 0.257578 0.469688 L 0.0757422 0.651523 L 0.196953 0.954531 Z M 0.924258 0.954531 " transform="matrix(100,0,0,100,450,1550)"/>
<path style="fill:none;stroke-width:0.01;stroke-linecap:butt;stroke-linejoin:miter;stroke:rgb(0%,0%,0%);stroke-opacity:1;stroke-miterlimit:10;" d="M 0.444922 0.183203 L 0.389805 0.541328 L 0.417344 0.899453 L 0.582656 0.954531 L 0.610195 0.844336 L 0.610195 0.0454687 Z M 0.444922 0.183203 " transform="matrix(100,0,0,100,600,1550)"/>
<path style="fill:none;stroke-width:0.01;stroke-linecap:butt;stroke-linejoin:miter;stroke:rgb(0%,0%,0%);stroke-opacity:1;stroke-miterlimit:10;" d="M 0.954531 0.651523 L 0.954531 0.893945 L 0.0454688 0.893945 L 0.287891 0.530313 L 0.287891 0.348477 L 0.590898 0.106055 L 0.772734 0.287891 L 0.954531 0.348477 L 0.893945 0.530313 Z M 0.954531 0.651523 " transform="matrix(100,0,0,100,0,1700)"/>
<path style="fill:none;stroke-width:0.01;stroke-linecap:butt;stroke-linejoin:miter;stroke:rgb(0%,0%,0%);stroke-opacity:1;stroke-miterlimit:10;" d="M 0.878789 0.569453 L 0.954531 0.329531 L 0.954531 0.203281 L 0.0454687 0.178047 L 0.234844 0.443164 L 0.323242 0.506328 L 0.361094 0.531562 L 0.335859 0.58207 L 0.323242 0.645195 L 0.37375 0.670469 L 0.424258 0.758828 L 0.563125 0.796719 L 0.689375 0.821953 L 0.739883 0.809336 L 0.777773 0.784102 L 0.866172 0.758828 L 0.954531 0.720977 L 0.954531 0.683086 L 0.941914 0.607305 Z M 0.878789 0.569453 " transform="matrix(100,0,0,100,150,1700)"/>
<path style="fill:none;stroke-width:0.01;stroke-linecap:butt;stroke-linejoin:miter;stroke:rgb(0%,0%,0%);stroke-opacity:1;stroke-miterlimit:10;" d="M 0.781367 0.564922 L 0.954531 0.478359 L 0.478359 0.435078 L 0.261914 0.478359 L 0.0454687 0.564922 Z M 0.781367 0.564922 " transform="matrix(100,0,0,100,300,1700)"/>
<path style="fill:none;stroke-width:0.01;stroke-linecap:butt;stroke-linejoin:miter;stroke:rgb(0%,0%,0%);stroke-opacity:1;stroke-miterlimit:10;" d="M 0.79582 0.334063 L 0.867969 0.218633 L 0.0454688 0.218633 L 0.0454688 0.290781 L 0.175313 0.319609 L 0.189766 0.593789 L 0.233047 0.709219 L 0.334062 0.766953 L 0.478359 0.781367 L 0.579375 0.723672 L 0.622656 0.622656 L 0.766953 0.622656 L 0.896836 0.608242 L 0.954531 0.550508 L 0.954531 0.463906 L 0.925703 0.406211 Z M 0.79582 0.334063 " transform="matrix(100,0,0,100,450,1700)"/>
<path style="fill:none;stroke-width:0.01;stroke-linecap:butt;stroke-linejoin:miter;stroke:rgb(0%,0%,0%);stroke-opacity:1;stroke-miterlimit:10;" d="M 0.798711 0.149336 L 0.850664 0.668828 L 0.928555 0.668828 L 0.954531 0.824687 L 0.694805 0.850664 L 0.538945 0.850664 L 0.227266 0.798711 L 0.0974219 0.668828 L 0.0454688 0.487031 L 0.0714453 0.201289 Z M 0.798711 0.149336 " transform="matrix(100,0,0,100,600,1700)"/>
<path style="fill:none;stroke-width:0.01;stroke-linecap:butt;stroke-linejoin:miter;stroke:rgb(0%,0%,0%);stroke-opacity:1;stroke-miterlimit:10;" d="M 0.832148 0.674844 L 0.0454688 0.657344 L 0.0804297 0.5 L 0.4825 0.377617 L 0.639844 0.342656 L 0.709805 0.325156 L 0.797188 0.342656 L 0.902109 0.395117 L 0.954531 0.4825 L 0.902109 0.534961 L 0.779727 0.587422 Z M 0.832148 0.674844 " transform="matrix(100,0,0,100,0,1850)"/>
<path style="fill:none;stroke-width:0.01;stroke-linecap:butt;stroke-linejoin:miter;stroke:rgb(0%,0%,0%);stroke-opacity:1;stroke-miterlimit:10;" d="M 0.862539 0.954531 L 0.137461 0.954531 L 0.148281 0.91125 L 0.213203 0.824687 L 0.234844 0.738086 L 0.267305 0.716445 L 0.288945 0.564922 L 0.299766 0.316016 L 0.299766 0.142852 L 0.408008 0.121211 L 0.440469 0.0995703 L 0.440469 0.0562891 L 0.49457 0.0454688 L 0.581172 0.240273 L 0.624453 0.251094 L 0.711055 0.251094 L 0.765156 0.283555 L 0.797617 0.316016 L 0.819258 0.370117 L 0.819258 0.413438 L 0.765156 0.467539 L 0.700234 0.48918 Z M 0.862539 0.954531 " transform="matrix(100,0,0,100,150,1850)"/>
<path style="fill:none;stroke-width:0.01;stroke-linecap:butt;stroke-linejoin:miter;stroke:rgb(0%,0%,0%);stroke-opacity:1;stroke-miterlimit:10;" d="M 0.892266 0.213555 L 0.0454687 0.213555 L 0.0952734 0.587187 L 0.244727 0.649453 L 0.356797 0.736602 L 0.369258 0.761523 L 0.61832 0.786445 L 0.767734 0.786445 L 0.792656 0.749063 L 0.730391 0.724141 L 0.730391 0.661875 L 0.867383 0.674336 L 0.929648 0.649453 L 0.954531 0.574727 L 0.904727 0.549805 L 0.842461 0.537344 Z M 0.892266 0.213555 " transform="matrix(100,0,0,100,300,1850)"/>
<path style="fill:none;stroke-width:0.01;stroke-linecap:butt;stroke-linejoin:miter;stroke:rgb(0%,0%,0%);stroke-opacity:1;stroke-miterlimit:10;" d="M 0.784102 0.759727 L 0.751641 0.532461 L 0.913945 0.532461 L 0.930195 0.418828 L 0.897734 0.337656 L 0.735391 0.337656 L 0.70293 0.191562 L 0.784102 0.224023 L 0.832773 0.159102 L 0.816562 0.110391 L 0.751641 0.0616797 L 0.654219 0.0454688 L 0.475664 0.0616797 L 0.29707 0.159102 L 0.118516 0.240273 L 0.0860547 0.435078 L 0.0698047 0.954531 L 0.784102 0.954531 Z M 0.784102 0.759727 " transform="matrix(100,0,0,100,450,1850)"/>
<path style="fill:none;stroke-width:0.01;stroke-linecap:butt;stroke-linejoin:miter;stroke:rgb(0%,0%,0%);stroke-opacity:1;stroke-miterlimit:10;" d="M 0.789258 0.789258 L 0.761719 0.431133 L 0.899453 0.403594 L 0.954531 0.265859 L 0.706602 0.210742 L 0.541328 0.210742 L 0.210742 0.265859 L 0.0454688 0.486211 L 0.0454688 0.789258 Z M 0.789258 0.789258 " transform="matrix(100,0,0,100,600,1850)"/>
<path style="fill:none;stroke-width:0.01;stroke-linecap:butt;stroke-linejoin:miter;stroke:rgb(0%,0%,0%);stroke-opacity:1;stroke-miterlimit:10;" d="M 0.772734 0.318164 L 0.772734 0.0454688 L 0.0454688 0.0454688 L 0.0454688 0.681836 L 0.318164 0.863633 L 0.772734 0.954531 L 0.954531 0.863633 L 0.772734 0.681836 Z M 0.772734 0.318164 " transform="matrix(100,0,0,100,0,2000)"/>
<path style="fill:none;stroke-width:0.01;stroke-linecap:butt;stroke-linejoin:miter;stroke:rgb(0%,0%,0%);stroke-opacity:1;stroke-miterlimit:10;" d="M 0.78543 0.595156 L 0.0454687 0.595156 L 0.404844 0.404844 L 0.531719 0.426016 L 0.658555 0.426016 L 0.743125 0.489414 L 0.78543 0.510586 L 0.954531 0.510586 L 0.954531 0.595156 Z M 0.78543 0.595156 " transform="matrix(100,0,0,100,150,2000)"/>
<path style="fill:none;stroke-width:0.01;stroke-linecap:butt;stroke-linejoin:miter;stroke:rgb(0%,0%,0%);stroke-opacity:1;stroke-miterlimit:10;" d="M 0.876641 0.253242 L 0.850664 0.435078 L 0.954531 0.512969 L 0.928555 0.642852 L 0.798711 0.668828 L 0.772734 0.746758 L 0.668828 0.720781 L 0.305195 0.720781 L 0.149336 0.538945 L 0.0714453 0.409102 L 0.0454687 0.253242 Z M 0.876641 0.253242 " transform="matrix(100,0,0,100,300,2000)"/>
<path style="fill:none;stroke-width:0.01;stroke-linecap:butt;stroke-linejoin:miter;stroke:rgb(0%,0%,0%);stroke-opacity:1;stroke-miterlimit:10;" d="M 0.875508 0.915039 L 0.0454688 0.915039 L 0.0849609 0.598828 L 0.322148 0.361641 L 0.440703 0.164023 L 0.638359 0.124492 L 0.835977 0.0849609 L 0.954531 0.164023 L 0.915039 0.243086 L 0.835977 0.361641 L 0.756914 0.361641 L 0.796445 0.598828 Z M 0.875508 0.915039 " transform="matrix(100,0,0,100,450,2000)"/>
<path style="fill:none;stroke-width:0.01;stroke-linecap:butt;stroke-linejoin:miter;stroke:rgb(0%,0%,0%);stroke-opacity:1;stroke-miterlimit:10;" d="M 0.918164 0.363633 L 0.954531 0.490898 L 0.918164 0.563633 L 0.736367 0.545469 L 0.736367 0.636367 L 0.536367 0.636367 L 0.3 0.563633 L 0.190898 0.454531 L 0.0454688 0.363633 Z M 0.918164 0.363633 " transform="matrix(100,0,0,100,600,2000)"/>
<path style="fill:none;stroke-width:0.01;stroke-linecap:butt;stroke-linejoin:miter;stroke:rgb(0%,0%,0%);stroke-opacity:1;stroke-miterlimit:10;" d="M 0.687148 0.419805 L 0.740625 0.312852 L 0.0454688 0.312852 L 0.0454688 0.633672 L 0.312852 0.687148 L 0.954531 0.687148 L 0.794102 0.580195 Z M 0.687148 0.419805 " transform="matrix(100,0,0,100,0,2150)"/>
<path style="fill:none;stroke-width:0.01;stroke-linecap:butt;stroke-linejoin:miter;stroke:rgb(0%,0%,0%);stroke-opacity:1;stroke-miterlimit:10;" d="M 0.891133 0.891133 L 0.0454687 0.891133 L 0.0877344 0.679688 L 0.172305 0.489414 L 0.299141 0.320312 L 0.404844 0.235742 L 0.404844 0.130039 L 0.531719 0.108867 L 0.658555 0.108867 L 0.743125 0.130039 L 0.78543 0.21457 L 0.848828 0.235742 L 0.933398 0.278008 L 0.954531 0.341445 L 0.912266 0.404844 L 0.806563 0.447148 Z M 0.891133 0.891133 " transform="matrix(100,0,0,100,150,2150)"/>
<path style="fill:none;stroke-width:0.01;stroke-linecap:butt;stroke-linejoin:miter;stroke:rgb(0%,0%,0%);stroke-opacity:1;stroke-miterlimit:10;" d="M 0.954531 0.727266 L 0.702031 0.361094 L 0.765156 0.348477 L 0.765156 0.285352 L 0.714648 0.272734 L 0.62625 0.260117 L 0.5 0.260117 L 0.436875 0.234844 L 0.222227 0.247461 L 0.133828 0.323242 L 0.0959766 0.386367 L 0.0707031 0.474766 L 0.0454687 0.62625 L 0.0454687 0.765156 Z M 0.954531 0.727266 " transform="matrix(100,0,0,100,300,2150)"/>
<path style="fill:none;stroke-width:0.01;stroke-linecap:butt;stroke-linejoin:miter;stroke:rgb(0%,0%,0%);stroke-opacity:1;stroke-miterlimit:10;" d="M 0.91668 0.869336 L 0.0454688 0.869336 L 0.121211 0.774609 L 0.253789 0.642031 L 0.329531 0.509453 L 0.348477 0.357969 L 0.386367 0.263242 L 0.5 0.168555 L 0.575742 0.130664 L 0.70832 0.149609 L 0.746211 0.149609 L 0.746211 0.225391 L 0.803047 0.225391 L 0.91668 0.263242 L 0.954531 0.357969 L 0.935625 0.433711 L 0.859844 0.471602 L 0.784102 0.471602 Z M 0.91668 0.869336 " transform="matrix(100,0,0,100,450,2150)"/>
<path style="fill:none;stroke-width:0.01;stroke-linecap:butt;stroke-linejoin:miter;stroke:rgb(0%,0%,0%);stroke-opacity:1;stroke-miterlimit:10;" d="M 0.617461 0.617461 L 0.627695 0.535742 L 0.688984 0.505117 L 0.719609 0.474453 L 0.709414 0.413164 L 0.648125 0.392734 L 0.668555 0.229297 L 0.668555 0.0965234 L 0.709414 0.0760938 L 0.688984 0.0658984 L 0.423398 0.0454688 L 0.423398 0.106758 L 0.32125 0.188477 L 0.290586 0.402969 L 0.280391 0.627695 L 0.30082 0.770703 L 0.392734 0.842188 L 0.413164 0.893242 L 0.433594 0.944336 L 0.505117 0.954531 L 0.535742 0.954531 L 0.566406 0.893242 L 0.586836 0.903477 L 0.627695 0.883047 L 0.637891 0.852383 L 0.627695 0.811523 L 0.597031 0.801328 Z M 0.617461 0.617461 " transform="matrix(100,0,0,100,600,2150)"/>
<path style="fill:none;stroke-width:0.01;stroke-linecap:butt;stroke-linejoin:miter;stroke:rgb(0%,0%,0%);stroke-opacity:1;stroke-miterlimit:10;" d="M 0.635117 0.303438 L 0.635117 0.954531 L 0.602383 0.934062 L 0.418086 0.708828 L 0.364883 0.573711 L 0.368945 0.508203 L 0.373047 0.38125 L 0.38125 0.254297 L 0.393516 0.209258 L 0.430391 0.131445 L 0.450859 0.0823047 L 0.5 0.0618359 L 0.532773 0.0454688 L 0.573711 0.0495313 L 0.626953 0.0495313 L 0.635117 0.0577344 Z M 0.635117 0.303438 " transform="matrix(100,0,0,100,0,2300)"/>
<path style="fill:none;stroke-width:0.01;stroke-linecap:butt;stroke-linejoin:miter;stroke:rgb(0%,0%,0%);stroke-opacity:1;stroke-miterlimit:10;" d="M 0.867969 0.218633 L 0.0454687 0.175313 L 0.0454687 0.456719 L 0.153672 0.716445 L 0.218633 0.759727 L 0.348477 0.781367 L 0.435078 0.824687 L 0.478359 0.824687 L 0.5 0.759727 L 0.586562 0.759727 L 0.608242 0.608242 L 0.716445 0.564922 L 0.824688 0.521641 L 0.91125 0.478359 L 0.954531 0.391758 L 0.954531 0.283555 Z M 0.867969 0.218633 " transform="matrix(100,0,0,100,150,2300)"/>
<path style="fill:none;stroke-width:0.01;stroke-linecap:butt;stroke-linejoin:miter;stroke:rgb(0%,0%,0%);stroke-opacity:1;stroke-miterlimit:10;" d="M 0.921484 0.260313 L 0.0454687 0.260313 L 0.128086 0.409102 L 0.359492 0.541328 L 0.557852 0.690078 L 0.640508 0.690078 L 0.640508 0.723125 L 0.723125 0.739687 L 0.855391 0.690078 L 0.938008 0.690078 L 0.954531 0.640508 L 0.954531 0.574375 L 0.888438 0.541328 Z M 0.921484 0.260313 " transform="matrix(100,0,0,100,300,2300)"/>
<path style="fill:none;stroke-width:0.01;stroke-linecap:butt;stroke-linejoin:miter;stroke:rgb(0%,0%,0%);stroke-opacity:1;stroke-miterlimit:10;" d="M 0.674844 0.604883 L 0.674844 0.0454688 L 0.534961 0.0874219 L 0.395117 0.171328 L 0.311172 0.269219 L 0.325156 0.451055 L 0.381133 0.800703 L 0.506992 0.940547 L 0.688828 0.954531 Z M 0.674844 0.604883 " transform="matrix(100,0,0,100,450,2300)"/>
<path style="fill:none;stroke-width:0.01;stroke-linecap:butt;stroke-linejoin:miter;stroke:rgb(0%,0%,0%);stroke-opacity:1;stroke-miterlimit:10;" d="M 0.848242 0.0454688 L 0.17375 0.0454688 L 0.151758 0.521992 L 0.17375 0.712617 L 0.254414 0.837227 L 0.327695 0.917891 L 0.430352 0.939883 L 0.488984 0.954531 L 0.525664 0.947227 L 0.555 0.917891 L 0.635625 0.917891 L 0.694297 0.903242 L 0.723594 0.859219 L 0.723594 0.815234 L 0.664961 0.793242 L 0.738281 0.543984 L 0.811602 0.543984 L 0.840898 0.521992 L 0.848242 0.470664 L 0.818906 0.368047 Z M 0.848242 0.0454688 " transform="matrix(100,0,0,100,600,2300)"/>
<path style="fill:none;stroke-width:0.01;stroke-linecap:butt;stroke-linejoin:miter;stroke:rgb(0%,0%,0%);stroke-opacity:1;stroke-miterlimit:10;" d="M 0.752539 0.58418 L 0.730078 0.202578 L 0.819883 0.191367 L 0.864766 0.135234 L 0.864766 0.0791406 L 0.707617 0.0678906 L 0.651523 0.0566797 L 0.550508 0.0454688 L 0.393359 0.0454688 L 0.303594 0.101562 L 0.124023 0.213789 L 0.112812 0.516836 L 0.135234 0.76375 L 0.157695 0.842305 L 0.382148 0.954531 L 0.875977 0.954531 L 0.887188 0.898438 L 0.875977 0.831094 L 0.808633 0.819883 L 0.741289 0.819883 Z M 0.752539 0.58418 " transform="matrix(100,0,0,100,0,2450)"/>
<path style="fill:none;stroke-width:0.01;stroke-linecap:butt;stroke-linejoin:miter;stroke:rgb(0%,0%,0%);stroke-opacity:1;stroke-miterlimit:10;" d="M 0.835977 0.677852 L 0.835977 0.243086 L 0.954531 0.203555 L 0.954531 0.0849609 L 0.598828 0.0849609 L 0.282617 0.124492 L 0.124492 0.164023 L 0.0454687 0.519766 L 0.124492 0.915039 L 0.796445 0.915039 Z M 0.835977 0.677852 " transform="matrix(100,0,0,100,150,2450)"/>
<path style="fill:none;stroke-width:0.01;stroke-linecap:butt;stroke-linejoin:miter;stroke:rgb(0%,0%,0%);stroke-opacity:1;stroke-miterlimit:10;" d="M 0.845469 0.954531 L 0.0818359 0.954531 L 0.227266 0.809102 L 0.263633 0.663633 L 0.227266 0.336367 L 0.3 0.190898 L 0.445469 0.0454688 L 0.518164 0.0454688 L 0.663633 0.154531 L 0.772734 0.336367 L 0.845469 0.445469 L 0.881836 0.554531 L 0.918164 0.736367 L 0.809102 0.772734 L 0.772734 0.845469 Z M 0.845469 0.954531 " transform="matrix(100,0,0,100,300,2450)"/>
<path style="fill:none;stroke-width:0.01;stroke-linecap:butt;stroke-linejoin:miter;stroke:rgb(0%,0%,0%);stroke-opacity:1;stroke-miterlimit:10;" d="M 0.781367 0.629883 L 0.738086 0.456719 L 0.91125 0.413438 L 0.954531 0.283555 L 0.651523 0.240273 L 0.261914 0.370117 L 0.08875 0.543281 L 0.0454688 0.759727 Z M 0.781367 0.629883 " transform="matrix(100,0,0,100,450,2450)"/>
<path style="fill:none;stroke-width:0.01;stroke-linecap:butt;stroke-linejoin:miter;stroke:rgb(0%,0%,0%);stroke-opacity:1;stroke-miterlimit:10;" d="M 0.824688 0.716445 L 0.0454688 0.716445 L 0.218633 0.456719 L 0.435078 0.283555 L 0.694805 0.283555 L 0.781367 0.370117 L 0.91125 0.413438 L 0.954531 0.5 L 0.781367 0.543281 Z M 0.824688 0.716445 " transform="matrix(100,0,0,100,600,2450)"/>
<path style="fill:none;stroke-width:0.01;stroke-linecap:butt;stroke-linejoin:miter;stroke:rgb(0%,0%,0%);stroke-opacity:1;stroke-miterlimit:10;" d="M 0.70375 0.891836 L 0.923203 0.891836 L 0.923203 0.547031 L 0.954531 0.484336 L 0.923203 0.233555 L 0.609727 0.108164 L 0.233555 0.202188 L 0.170859 0.452969 L 0.0454688 0.860508 Z M 0.70375 0.891836 " transform="matrix(100,0,0,100,0,2600)"/>
<path style="fill:none;stroke-width:0.01;stroke-linecap:butt;stroke-linejoin:miter;stroke:rgb(0%,0%,0%);stroke-opacity:1;stroke-miterlimit:10;" d="M 0.681133 0.236836 L 0.660625 0.147969 L 0.694805 0.141133 L 0.694805 0.0796484 L 0.660625 0.0796484 L 0.619609 0.0523047 L 0.571758 0.0454688 L 0.489766 0.0591406 L 0.462422 0.168477 L 0.41457 0.223164 L 0.346211 0.284688 L 0.325703 0.387227 L 0.305195 0.571758 L 0.305195 0.667461 L 0.312031 0.852031 L 0.394062 0.920352 L 0.469258 0.954531 L 0.646953 0.947695 L 0.694805 0.626445 Z M 0.681133 0.236836 " transform="matrix(100,0,0,100,150,2600)"/>
<path style="fill:none;stroke-width:0.01;stroke-linecap:butt;stroke-linejoin:miter;stroke:rgb(0%,0%,0%);stroke-opacity:1;stroke-miterlimit:10;" d="M 0.954531 0.447539 L 0.0454687 0.377617 L 0.220273 0.622383 L 0.884609 0.622383 Z M 0.954531 0.447539 " transform="matrix(100,0,0,100,300,2600)"/>
<path style="fill:none;stroke-width:0.01;stroke-linecap:butt;stroke-linejoin:miter;stroke:rgb(0%,0%,0%);stroke-opacity:1;stroke-miterlimit:10;" d="M 0.889609 0.0454688 L 0.132031 0.0454688 L 0.110391 0.370117 L 0.110391 0.651523 L 0.175313 0.759727 L 0.326836 0.889609 L 0.478359 0.932891 L 0.651523 0.954531 L 0.651523 0.91125 L 0.738086 0.932891 L 0.867969 0.889609 L 0.867969 0.803047 L 0.781367 0.738086 L 0.803047 0.478359 L 0.889609 0.478359 L 0.889609 0.348477 L 0.824688 0.305195 L 0.824688 0.0454688 Z M 0.889609 0.0454688 " transform="matrix(100,0,0,100,450,2600)"/>
<path style="fill:none;stroke-width:0.01;stroke-linecap:butt;stroke-linejoin:miter;stroke:rgb(0%,0%,0%);stroke-opacity:1;stroke-miterlimit:10;" d="M 0.954531 0.159102 L 0.0454688 0.159102 L 0.0681641 0.318164 L 0.0681641 0.454531 L 0.136367 0.590898 L 0.25 0.636367 L 0.295469 0.659102 L 0.340898 0.75 L 0.477266 0.840898 L 0.613633 0.818164 L 0.704531 0.772734 L 0.818164 0.772734 L 0.909102 0.75 L 0.954531 0.681836 L 0.863633 0.613633 L 0.863633 0.545469 L 0.954531 0.545469 Z M 0.954531 0.159102 " transform="matrix(100,0,0,100,600,2600)"/>
<path style="fill:none;stroke-width:0.01;stroke-linecap:butt;stroke-linejoin:miter;stroke:rgb(0%,0%,0%);stroke-opacity:1;stroke-miterlimit:10;" d="M 0.929297 0.445273 L 0.0454688 0.445273 L 0.0707031 0.478945 L 0.441094 0.521055 L 0.449492 0.537891 L 0.525234 0.554727 L 0.592578 0.504219 L 0.668359 0.521055 L 0.811445 0.521055 L 0.895625 0.504219 L 0.954531 0.462109 Z M 0.929297 0.445273 " transform="matrix(100,0,0,100,0,2750)"/>
<path style="fill:none;stroke-width:0.01;stroke-linecap:butt;stroke-linejoin:miter;stroke:rgb(0%,0%,0%);stroke-opacity:1;stroke-miterlimit:10;" d="M 0.954531 0.748906 L 0.0454687 0.738086 L 0.0671094 0.543281 L 0.0995703 0.467539 L 0.251094 0.316016 L 0.391758 0.251094 L 0.478359 0.283555 L 0.532461 0.305195 L 0.629883 0.283555 L 0.683984 0.283555 L 0.727266 0.316016 L 0.748906 0.370117 L 0.705625 0.413438 L 0.673164 0.413438 Z M 0.954531 0.748906 " transform="matrix(100,0,0,100,150,2750)"/>
<path style="fill:none;stroke-width:0.01;stroke-linecap:butt;stroke-linejoin:miter;stroke:rgb(0%,0%,0%);stroke-opacity:1;stroke-miterlimit:10;" d="M 0.813711 0.954531 L 0.160703 0.941758 L 0.135078 0.57043 L 0.147891 0.28875 L 0.250313 0.2375 L 0.28875 0.186289 L 0.339961 0.0838672 L 0.455195 0.0582422 L 0.544805 0.0454688 L 0.608828 0.0454688 L 0.660039 0.109492 L 0.647266 0.147891 L 0.608828 0.173477 L 0.685664 0.314336 L 0.775273 0.314336 L 0.864922 0.352734 L 0.864922 0.391172 L 0.788086 0.42957 L 0.788086 0.493594 L 0.800898 0.647266 L 0.813711 0.775273 Z M 0.813711 0.954531 " transform="matrix(100,0,0,100,300,2750)"/>
<path style="fill:none;stroke-width:0.01;stroke-linecap:butt;stroke-linejoin:miter;stroke:rgb(0%,0%,0%);stroke-opacity:1;stroke-miterlimit:10;" d="M 0.954531 0.19207 L 0.0454688 0.19207 L 0.133438 0.294727 L 0.206758 0.382695 L 0.221406 0.470664 L 0.236055 0.661289 L 0.250742 0.749258 L 0.353359 0.793242 L 0.456016 0.80793 L 0.514648 0.778594 L 0.675937 0.778594 L 0.778594 0.734609 L 0.837227 0.675937 L 0.851914 0.617305 L 0.822578 0.529336 L 0.734609 0.5 Z M 0.954531 0.19207 " transform="matrix(100,0,0,100,450,2750)"/>
<path style="fill:none;stroke-width:0.01;stroke-linecap:butt;stroke-linejoin:miter;stroke:rgb(0%,0%,0%);stroke-opacity:1;stroke-miterlimit:10;" d="M 0.667461 0.224883 L 0.452148 0.224883 L 0.308594 0.392344 L 0.236836 0.511953 L 0.141133 0.703359 L 0.0454688 0.775117 L 0.930625 0.775117 L 0.954531 0.679414 L 0.90668 0.559805 L 0.78707 0.511953 L 0.715313 0.559805 L 0.691406 0.41625 Z M 0.667461 0.224883 " transform="matrix(100,0,0,100,600,2750)"/>
<path style="fill:none;stroke-width:0.01;stroke-linecap:butt;stroke-linejoin:miter;stroke:rgb(0%,0%,0%);stroke-opacity:1;stroke-miterlimit:10;" d="M 0.7 0.0454688 L 0.209102 0.0454688 L 0.190898 0.609102 L 0.245469 0.754531 L 0.318164 0.827266 L 0.390898 0.9 L 0.445469 0.954531 L 0.645469 0.954531 L 0.663633 0.863633 L 0.736367 0.827266 L 0.772734 0.790898 L 0.790898 0.7 L 0.736367 0.681836 L 0.790898 0.645469 L 0.809102 0.572734 L 0.809102 0.5 L 0.772734 0.481836 L 0.681836 0.481836 Z M 0.7 0.0454688 " transform="matrix(100,0,0,100,0,2900)"/>
<path style="fill:none;stroke-width:0.01;stroke-linecap:butt;stroke-linejoin:miter;stroke:rgb(0%,0%,0%);stroke-opacity:1;stroke-miterlimit:10;" d="M 0.715898 0.954531 L 0.125 0.954531 L 0.125 0.863633 L 0.215898 0.772734 L 0.284102 0.659102 L 0.329531 0.431836 L 0.397734 0.204531 L 0.443164 0.113633 L 0.556836 0.0454688 L 0.670469 0.0681641 L 0.738633 0.409102 L 0.715898 0.522734 L 0.806836 0.545469 L 0.852266 0.636367 L 0.875 0.727266 L 0.829531 0.772734 L 0.738633 0.795469 Z M 0.715898 0.954531 " transform="matrix(100,0,0,100,150,2900)"/>
<path style="fill:none;stroke-width:0.01;stroke-linecap:butt;stroke-linejoin:miter;stroke:rgb(0%,0%,0%);stroke-opacity:1;stroke-miterlimit:10;" d="M 0.829141 0.327578 L 0.0454687 0.390273 L 0.139492 0.515664 L 0.264883 0.578359 L 0.327578 0.641055 L 0.70375 0.672422 L 0.860508 0.672422 L 0.954531 0.578359 L 0.891836 0.452969 Z M 0.829141 0.327578 " transform="matrix(100,0,0,100,300,2900)"/>
<path style="fill:none;stroke-width:0.01;stroke-linecap:butt;stroke-linejoin:miter;stroke:rgb(0%,0%,0%);stroke-opacity:1;stroke-miterlimit:10;" d="M 0.954531 0.517148 L 0.885937 0.542891 L 0.714414 0.405664 L 0.337031 0.405664 L 0.242695 0.474258 L 0.208398 0.5 L 0.0797656 0.525742 L 0.0626172 0.568594 L 0.0454688 0.594336 L 0.954531 0.594336 Z M 0.954531 0.517148 " transform="matrix(100,0,0,100,450,2900)"/>
<path style="fill:none;stroke-width:0.01;stroke-linecap:butt;stroke-linejoin:miter;stroke:rgb(0%,0%,0%);stroke-opacity:1;stroke-miterlimit:10;" d="M 0.954531 0.123672 L 0.065 0.123672 L 0.0454688 0.42668 L 0.0552344 0.563555 L 0.0943359 0.631953 L 0.270273 0.768828 L 0.397344 0.817695 L 0.475547 0.837227 L 0.55375 0.876328 L 0.592852 0.837227 L 0.680859 0.847031 L 0.798125 0.856797 L 0.856797 0.847031 L 0.905664 0.827461 L 0.935 0.817695 L 0.925234 0.768828 L 0.905664 0.749258 L 0.954531 0.710156 Z M 0.954531 0.123672 " transform="matrix(100,0,0,100,600,2900)"/>
<path style="fill:none;stroke-width:0.01;stroke-linecap:butt;stroke-linejoin:miter;stroke:rgb(0%,0%,0%);stroke-opacity:1;stroke-miterlimit:10;" d="M 0.888008 0.638594 L 0.0454688 0.638594 L 0.111992 0.57207 L 0.222852 0.494453 L 0.322617 0.416836 L 0.455664 0.361406 L 0.599766 0.383594 L 0.666289 0.450117 L 0.777148 0.42793 L 0.888008 0.472266 L 0.932383 0.494453 L 0.954531 0.560977 L 0.954531 0.6275 Z M 0.888008 0.638594 " transform="matrix(100,0,0,100,0,3050)"/>
<path style="fill:none;stroke-width:0.01;stroke-linecap:butt;stroke-linejoin:miter;stroke:rgb(0%,0%,0%);stroke-opacity:1;stroke-miterlimit:10;" d="M 0.954531 0.937539 L 0.0454687 0.937539 L 0.0539453 0.742148 L 0.0539453 0.359805 L 0.0879297 0.232383 L 0.138906 0.198398 L 0.232383 0.138906 L 0.317344 0.0964453 L 0.495742 0.0624609 L 0.589219 0.104922 L 0.725156 0.104922 L 0.801602 0.121914 L 0.852578 0.147422 L 0.886563 0.198398 L 0.878086 0.240859 L 0.852578 0.291836 L 0.954531 0.376797 Z M 0.954531 0.937539 " transform="matrix(100,0,0,100,150,3050)"/>
<path style="fill:none;stroke-width:0.01;stroke-linecap:butt;stroke-linejoin:miter;stroke:rgb(0%,0%,0%);stroke-opacity:1;stroke-miterlimit:10;" d="M 0.863633 0.636367 L 0.0454687 0.636367 L 0.0908984 0.590898 L 0.0908984 0.477266 L 0.181836 0.409102 L 0.295469 0.386367 L 0.431836 0.363633 L 0.545469 0.386367 L 0.613633 0.409102 L 0.727266 0.431836 L 0.886367 0.454531 L 0.954531 0.522734 L 0.954531 0.636367 Z M 0.863633 0.636367 " transform="matrix(100,0,0,100,300,3050)"/>
<path style="fill:none;stroke-width:0.01;stroke-linecap:butt;stroke-linejoin:miter;stroke:rgb(0%,0%,0%);stroke-opacity:1;stroke-miterlimit:10;" d="M 0.835312 0.932188 L 0.0454688 0.932188 L 0.0603516 0.738437 L 0.0603516 0.410586 L 0.105078 0.321172 L 0.209375 0.201953 L 0.268984 0.157227 L 0.313711 0.127422 L 0.388242 0.0678125 L 0.492539 0.0678125 L 0.522344 0.0976172 L 0.641563 0.0826953 L 0.671367 0.0976172 L 0.686289 0.172148 L 0.62668 0.201953 L 0.731016 0.425469 L 0.82043 0.425469 L 0.894922 0.440391 L 0.954531 0.5 L 0.954531 0.574531 L 0.909844 0.634141 L 0.805508 0.634141 Z M 0.835312 0.932188 " transform="matrix(100,0,0,100,450,3050)"/>
<path style="fill:none;stroke-width:0.01;stroke-linecap:butt;stroke-linejoin:miter;stroke:rgb(0%,0%,0%);stroke-opacity:1;stroke-miterlimit:10;" d="M 0.763164 0.954531 L 0.117227 0.954531 L 0.0933203 0.619609 L 0.117227 0.476094 L 0.236836 0.332539 L 0.332539 0.165078 L 0.404297 0.069375 L 0.643555 0.0454688 L 0.739219 0.0933203 L 0.739219 0.165078 L 0.834922 0.21293 L 0.90668 0.308594 L 0.882773 0.428242 L 0.858867 0.476094 L 0.739219 0.523906 L 0.78707 0.811016 Z M 0.763164 0.954531 " transform="matrix(100,0,0,100,600,3050)"/>
<path style="fill:none;stroke-width:0.01;stroke-linecap:butt;stroke-linejoin:miter;stroke:rgb(0%,0%,0%);stroke-opacity:1;stroke-miterlimit:10;" d="M 0.954531 0.362266 L 0.0454688 0.362266 L 0.100547 0.5 L 0.183203 0.555078 L 0.265859 0.568867 L 0.279609 0.623984 L 0.376016 0.637734 L 0.458672 0.582656 L 0.610195 0.458672 L 0.775469 0.444922 L 0.926992 0.431133 Z M 0.954531 0.362266 " transform="matrix(100,0,0,100,0,3200)"/>
<path style="fill:none;stroke-width:0.01;stroke-linecap:butt;stroke-linejoin:miter;stroke:rgb(0%,0%,0%);stroke-opacity:1;stroke-miterlimit:10;" d="M 0.867383 0.935859 L 0.805117 0.686797 L 0.892266 0.686797 L 0.954531 0.61207 L 0.929648 0.537344 L 0.867383 0.512461 L 0.693008 0.5 L 0.506211 0.188672 L 0.556055 0.176211 L 0.630742 0.113945 L 0.543594 0.0641406 L 0.431523 0.0890234 L 0.356797 0.0516797 L 0.232266 0.101484 L 0.232266 0.126406 L 0.145078 0.201133 L 0.0828125 0.263398 L 0.0454687 0.487539 L 0.0703516 0.798867 L 0.0828125 0.94832 Z M 0.867383 0.935859 " transform="matrix(100,0,0,100,150,3200)"/>
<path style="fill:none;stroke-width:0.01;stroke-linecap:butt;stroke-linejoin:miter;stroke:rgb(0%,0%,0%);stroke-opacity:1;stroke-miterlimit:10;" d="M 0.665273 0.179766 L 0.654961 0.107422 L 0.706602 0.0867578 L 0.727266 0.0454687 L 0.407031 0.0454687 L 0.376016 0.128086 L 0.334727 0.179766 L 0.293398 0.314062 L 0.272734 0.561992 L 0.272734 0.809922 L 0.293398 0.892578 L 0.365703 0.944219 L 0.469023 0.954531 L 0.510312 0.954531 L 0.541328 0.892578 L 0.592969 0.882227 L 0.634297 0.861562 L 0.644609 0.79957 L 0.623984 0.768594 L 0.592969 0.74793 L 0.60332 0.60332 L 0.654961 0.60332 L 0.665273 0.561992 L 0.665273 0.530977 L 0.654961 0.510312 L 0.623984 0.510312 L 0.623984 0.386367 L 0.665273 0.386367 L 0.696289 0.345039 L 0.706602 0.272734 L 0.685938 0.25207 L 0.644609 0.231406 Z M 0.665273 0.179766 " transform="matrix(100,0,0,100,300,3200)"/>
<path style="fill:none;stroke-width:0.01;stroke-linecap:butt;stroke-linejoin:miter;stroke:rgb(0%,0%,0%);stroke-opacity:1;stroke-miterlimit:10;" d="M 0.700547 0.901055 L 0.700547 0.66043 L 0.780742 0.633672 L 0.834219 0.526719 L 0.8075 0.446523 L 0.700547 0.419805 L 0.64707 0.393047 L 0.64707 0.179141 L 0.754023 0.179141 L 0.754023 0.0721875 L 0.620312 0.0454687 L 0.433164 0.0721875 L 0.326211 0.179141 L 0.326211 0.259375 L 0.1925 0.366328 L 0.165781 0.66043 L 0.219258 0.901055 L 0.272734 0.927813 L 0.35293 0.927813 L 0.433164 0.954531 Z M 0.700547 0.901055 " transform="matrix(100,0,0,100,450,3200)"/>
<path style="fill:none;stroke-width:0.01;stroke-linecap:butt;stroke-linejoin:miter;stroke:rgb(0%,0%,0%);stroke-opacity:1;stroke-miterlimit:10;" d="M 0.824688 0.292227 L 0.0454688 0.292227 L 0.201289 0.42207 L 0.331172 0.551953 L 0.409102 0.655859 L 0.564922 0.707773 L 0.694805 0.707773 L 0.720781 0.655859 L 0.824688 0.655859 L 0.928555 0.57793 L 0.954531 0.474023 L 0.876641 0.396094 L 0.798711 0.396094 Z M 0.824688 0.292227 " transform="matrix(100,0,0,100,600,3200)"/>
<path style="fill:none;stroke-width:0.01;stroke-linecap:butt;stroke-linejoin:miter;stroke:rgb(0%,0%,0%);stroke-opacity:1;stroke-miterlimit:10;" d="M 0.830586 0.809922 L 0.830586 0.685938 L 0.954531 0.644609 L 0.954531 0.520664 L 0.871914 0.520664 L 0.789258 0.314062 L 0.871914 0.272734 L 0.913242 0.190078 L 0.830586 0.14875 L 0.541328 0.190078 L 0.25207 0.39668 L 0.128086 0.561992 L 0.0867578 0.768594 L 0.0454688 0.85125 Z M 0.830586 0.809922 " transform="matrix(100,0,0,100,0,3350)"/>
<path style="fill:none;stroke-width:0.01;stroke-linecap:butt;stroke-linejoin:miter;stroke:rgb(0%,0%,0%);stroke-opacity:1;stroke-miterlimit:10;" d="M 0.954531 0.332539 L 0.0454687 0.332539 L 0.141133 0.476094 L 0.284687 0.523906 L 0.715313 0.667461 Z M 0.954531 0.332539 " transform="matrix(100,0,0,100,150,3350)"/>
<path style="fill:none;stroke-width:0.01;stroke-linecap:butt;stroke-linejoin:miter;stroke:rgb(0%,0%,0%);stroke-opacity:1;stroke-miterlimit:10;" d="M 0.90793 0.348477 L 0.208633 0.395117 L 0.115391 0.441719 L 0.0454687 0.651523 L 0.838008 0.651523 L 0.791367 0.511641 L 0.861289 0.511641 L 0.954531 0.465039 Z M 0.90793 0.348477 " transform="matrix(100,0,0,100,300,3350)"/>
<path style="fill:none;stroke-width:0.01;stroke-linecap:butt;stroke-linejoin:miter;stroke:rgb(0%,0%,0%);stroke-opacity:1;stroke-miterlimit:10;" d="M 0.89707 0.0454687 L 0.0924609 0.0454687 L 0.10293 0.243984 L 0.113359 0.338047 L 0.155156 0.484336 L 0.176055 0.620156 L 0.22832 0.682852 L 0.343242 0.766445 L 0.395508 0.797812 L 0.395508 0.850039 L 0.426836 0.923203 L 0.541797 0.954531 L 0.677656 0.954531 L 0.729883 0.891836 L 0.823945 0.891836 L 0.834375 0.829141 L 0.89707 0.829141 L 0.907539 0.682852 Z M 0.89707 0.0454687 " transform="matrix(100,0,0,100,450,3350)"/>
<path style="fill:none;stroke-width:0.01;stroke-linecap:butt;stroke-linejoin:miter;stroke:rgb(0%,0%,0%);stroke-opacity:1;stroke-miterlimit:10;" d="M 0.756523 0.0454687 L 0.261484 0.0454687 L 0.243477 0.189453 L 0.279492 0.423477 L 0.351484 0.549492 L 0.396484 0.666523 L 0.423477 0.747539 L 0.441484 0.891523 L 0.513516 0.927539 L 0.6575 0.945547 L 0.756523 0.954531 Z M 0.756523 0.0454687 " transform="matrix(100,0,0,100,600,3350)"/>
<path style="fill:none;stroke-width:0.01;stroke-linecap:butt;stroke-linejoin:miter;stroke:rgb(0%,0%,0%);stroke-opacity:1;stroke-miterlimit:10;" d="M 0.954531 0.681836 L 0.798711 0.344141 L 0.487031 0.318164 L 0.357148 0.344141 L 0.0454688 0.525977 L 0.0454688 0.681836 Z M 0.954531 0.681836 " transform="matrix(100,0,0,100,0,3500)"/>
<path style="fill:none;stroke-width:0.01;stroke-linecap:butt;stroke-linejoin:miter;stroke:rgb(0%,0%,0%);stroke-opacity:1;stroke-miterlimit:10;" d="M 0.592969 0.954531 L 0.407031 0.954531 L 0.407031 0.637734 L 0.427695 0.438008 L 0.448359 0.334727 L 0.455234 0.245195 L 0.475898 0.14875 L 0.496563 0.0730078 L 0.510312 0.0523437 L 0.592969 0.0454687 Z M 0.592969 0.954531 " transform="matrix(100,0,0,100,150,3500)"/>
<path style="fill:none;stroke-width:0.01;stroke-linecap:butt;stroke-linejoin:miter;stroke:rgb(0%,0%,0%);stroke-opacity:1;stroke-miterlimit:10;" d="M 0.954531 0.716094 L 0.0454687 0.716094 L 0.0752734 0.656484 L 0.119961 0.492539 L 0.17957 0.403125 L 0.388242 0.283906 L 0.477656 0.283906 L 0.62668 0.313711 L 0.716094 0.328633 L 0.745898 0.403125 L 0.775703 0.462734 L 0.880039 0.477656 L 0.954531 0.507461 Z M 0.954531 0.716094 " transform="matrix(100,0,0,100,300,3500)"/>
<path style="fill:none;stroke-width:0.01;stroke-linecap:butt;stroke-linejoin:miter;stroke:rgb(0%,0%,0%);stroke-opacity:1;stroke-miterlimit:10;" d="M 0.729453 0.0454687 L 0.287891 0.0454687 L 0.270547 0.253242 L 0.287891 0.374453 L 0.305195 0.487031 L 0.348477 0.547617 L 0.530312 0.703477 L 0.590898 0.75543 L 0.590898 0.790039 L 0.59957 0.954531 L 0.694805 0.954531 L 0.703477 0.772734 L 0.729453 0.790039 Z M 0.729453 0.0454687 " transform="matrix(100,0,0,100,450,3500)"/>
<path style="fill:none;stroke-width:0.01;stroke-linecap:butt;stroke-linejoin:miter;stroke:rgb(0%,0%,0%);stroke-opacity:1;stroke-miterlimit:10;" d="M 0.954531 0.912109 L 0.0575781 0.9 L 0.0454688 0.827266 L 0.0818359 0.681836 L 0.106055 0.584844 L 0.154531 0.536367 L 0.227266 0.475742 L 0.3 0.403047 L 0.336367 0.318164 L 0.348477 0.209102 L 0.384844 0.112109 L 0.421211 0.0878906 L 0.724258 0.0878906 L 0.83332 0.136367 L 0.893945 0.221211 L 0.954531 0.306055 Z M 0.954531 0.912109 " transform="matrix(100,0,0,100,600,3500)"/>
<path style="fill:none;stroke-width:0.01;stroke-linecap:butt;stroke-linejoin:miter;stroke:rgb(0%,0%,0%);stroke-opacity:1;stroke-miterlimit:10;" d="M 0.636367 0.0454687 L 0.44918 0.0454687 L 0.422461 0.0721875 L 0.417109 0.14707 L 0.368984 0.205898 L 0.347578 0.259375 L 0.315508 0.323516 L 0.304805 0.387695 L 0.310156 0.473281 L 0.331562 0.633672 L 0.368984 0.719258 L 0.374336 0.810156 L 0.363633 0.874336 L 0.336914 0.879688 L 0.336914 0.954531 L 0.695195 0.954531 L 0.695195 0.0935938 L 0.689844 0.0775391 L 0.663086 0.0668359 Z M 0.636367 0.0454687 " transform="matrix(100,0,0,100,0,3650)"/>
<path style="fill:none;stroke-width:0.01;stroke-linecap:butt;stroke-linejoin:miter;stroke:rgb(0%,0%,0%);stroke-opacity:1;stroke-miterlimit:10;" d="M 0.405938 0.311914 L 0.280547 0.343242 L 0.123828 0.468633 L 0.123828 0.860508 L 0.264883 0.923203 L 0.421641 0.938867 L 0.531367 0.954531 L 0.860508 0.860508 L 0.876172 0.0454687 L 0.547031 0.217852 Z M 0.405938 0.311914 " transform="matrix(100,0,0,100,150,3650)"/>
<path style="fill:none;stroke-width:0.01;stroke-linecap:butt;stroke-linejoin:miter;stroke:rgb(0%,0%,0%);stroke-opacity:1;stroke-miterlimit:10;" d="M 0.954531 0.651523 L 0.0454687 0.651523 L 0.100547 0.431133 L 0.265859 0.403594 L 0.376016 0.403594 L 0.679063 0.376016 L 0.844336 0.348477 L 0.926992 0.541328 Z M 0.954531 0.651523 " transform="matrix(100,0,0,100,300,3650)"/>
<path style="fill:none;stroke-width:0.01;stroke-linecap:butt;stroke-linejoin:miter;stroke:rgb(0%,0%,0%);stroke-opacity:1;stroke-miterlimit:10;" d="M 0.942891 0.0804297 L 0.0571094 0.0571094 L 0.0454688 0.278555 L 0.06875 0.465039 L 0.115391 0.569922 L 0.220273 0.686484 L 0.325156 0.733086 L 0.383438 0.872969 L 0.465039 0.942891 L 0.581602 0.93125 L 0.593242 0.90793 L 0.663164 0.91957 L 0.768047 0.90793 L 0.791367 0.872969 L 0.803047 0.791367 L 0.779727 0.733086 L 0.709805 0.721445 L 0.779727 0.453398 L 0.861289 0.453398 L 0.91957 0.418398 L 0.954531 0.360156 L 0.954531 0.290195 L 0.872969 0.243594 Z M 0.942891 0.0804297 " transform="matrix(100,0,0,100,450,3650)"/>
<path style="fill:none;stroke-width:0.01;stroke-linecap:butt;stroke-linejoin:miter;stroke:rgb(0%,0%,0%);stroke-opacity:1;stroke-miterlimit:10;" d="M 0.52875 0.0454687 L 0.47125 0.0454687 L 0.482031 0.368828 L 0.489219 0.659883 L 0.489219 0.803633 L 0.5 0.893477 L 0.514375 0.950938 L 0.52875 0.954531 Z M 0.52875 0.0454687 " transform="matrix(100,0,0,100,600,3650)"/>
<path style="fill:none;stroke-width:0.01;stroke-linecap:butt;stroke-linejoin:miter;stroke:rgb(0%,0%,0%);stroke-opacity:1;stroke-miterlimit:10;" d="M 0.772734 0.590898 L 0.803047 0.257578 L 0.893945 0.227266 L 0.924258 0.136367 L 0.803047 0.0757422 L 0.772734 0.0454687 L 0.106055 0.0454687 L 0.0757422 0.227266 L 0.136367 0.590898 L 0.196953 0.742422 L 0.287891 0.803047 L 0.409102 0.893945 L 0.772734 0.954531 L 0.924258 0.893945 L 0.924258 0.83332 L 0.772734 0.803047 Z M 0.772734 0.590898 " transform="matrix(100,0,0,100,0,3800)"/>
<path style="fill:none;stroke-width:0.01;stroke-linecap:butt;stroke-linejoin:miter;stroke:rgb(0%,0%,0%);stroke-opacity:1;stroke-miterlimit:10;" d="M 0.790625 0.619219 L 0.0454687 0.619219 L 0.164688 0.529805 L 0.298789 0.5 L 0.313711 0.425469 L 0.477656 0.380781 L 0.790625 0.380781 L 0.909844 0.410586 L 0.954531 0.455273 L 0.954531 0.544727 L 0.82043 0.574531 Z M 0.790625 0.619219 " transform="matrix(100,0,0,100,150,3800)"/>
<path style="fill:none;stroke-width:0.01;stroke-linecap:butt;stroke-linejoin:miter;stroke:rgb(0%,0%,0%);stroke-opacity:1;stroke-miterlimit:10;" d="M 0.838828 0.194219 L 0.0454687 0.194219 L 0.111563 0.491719 L 0.309922 0.623984 L 0.342969 0.706602 L 0.392578 0.772734 L 0.541328 0.789258 L 0.590898 0.772734 L 0.723125 0.805781 L 0.772734 0.723125 L 0.756211 0.657031 L 0.690078 0.640508 L 0.739688 0.409102 L 0.822305 0.409102 L 0.904961 0.376016 L 0.954531 0.276875 L 0.954531 0.243789 Z M 0.838828 0.194219 " transform="matrix(100,0,0,100,300,3800)"/>
<path style="fill:none;stroke-width:0.01;stroke-linecap:butt;stroke-linejoin:miter;stroke:rgb(0%,0%,0%);stroke-opacity:1;stroke-miterlimit:10;" d="M 0.81207 0.954531 L 0.120078 0.940977 L 0.133633 0.76457 L 0.133633 0.615352 L 0.377891 0.371094 L 0.364297 0.276133 L 0.391445 0.181133 L 0.445742 0.0861719 L 0.527148 0.0454687 L 0.581406 0.0454687 L 0.608555 0.113281 L 0.717109 0.153984 L 0.771367 0.208281 L 0.784922 0.262539 L 0.744219 0.316836 L 0.662813 0.330391 L 0.662813 0.411797 L 0.730664 0.846016 L 0.798516 0.85957 L 0.879922 0.900273 Z M 0.81207 0.954531 " transform="matrix(100,0,0,100,450,3800)"/>
<path style="fill:none;stroke-width:0.01;stroke-linecap:butt;stroke-linejoin:miter;stroke:rgb(0%,0%,0%);stroke-opacity:1;stroke-miterlimit:10;" d="M 0.876797 0.954531 L 0.0873047 0.942578 L 0.11125 0.822969 L 0.147148 0.631563 L 0.218906 0.476094 L 0.302617 0.344492 L 0.374414 0.272734 L 0.374414 0.141133 L 0.446172 0.069375 L 0.458125 0.0454687 L 0.541875 0.0454687 L 0.613633 0.0813281 L 0.673438 0.105273 L 0.745234 0.165078 L 0.757188 0.224883 L 0.745234 0.284688 L 0.685391 0.320586 L 0.709336 0.404297 L 0.757188 0.834922 L 0.852852 0.858867 L 0.912695 0.90668 Z M 0.876797 0.954531 " transform="matrix(100,0,0,100,600,3800)"/>
<path style="fill:none;stroke-width:0.01;stroke-linecap:butt;stroke-linejoin:miter;stroke:rgb(0%,0%,0%);stroke-opacity:1;stroke-miterlimit:10;" d="M 0.680664 0.954531 L 0.365977 0.954531 L 0.365977 0.861289 L 0.331016 0.651523 L 0.319336 0.453398 L 0.342656 0.360156 L 0.424258 0.103711 L 0.645703 0.0454687 L 0.680664 0.0454687 Z M 0.680664 0.954531 " transform="matrix(100,0,0,100,0,3950)"/>
<path style="fill:none;stroke-width:0.01;stroke-linecap:butt;stroke-linejoin:miter;stroke:rgb(0%,0%,0%);stroke-opacity:1;stroke-miterlimit:10;" d="M 0.473281 0.33957 L 0.419805 0.446523 L 0.406406 0.566836 L 0.419805 0.687148 L 0.459883 0.754023 L 0.5 0.820859 L 0.486641 0.927813 L 0.553477 0.954531 L 0.593594 0.941172 L 0.593594 0.8075 L 0.580195 0.727266 L 0.593594 0.366328 L 0.593594 0.0454687 L 0.553477 0.0588281 L 0.526719 0.179141 L 0.513359 0.272734 Z M 0.473281 0.33957 " transform="matrix(100,0,0,100,150,3950)"/>
<path style="fill:none;stroke-width:0.01;stroke-linecap:butt;stroke-linejoin:miter;stroke:rgb(0%,0%,0%);stroke-opacity:1;stroke-miterlimit:10;" d="M 0.559609 0.0454687 L 0.440391 0.0454687 L 0.485078 0.358438 L 0.514922 0.596875 L 0.529805 0.894922 L 0.559609 0.954531 Z M 0.559609 0.0454687 " transform="matrix(100,0,0,100,300,3950)"/>
<path style="fill:none;stroke-width:0.01;stroke-linecap:butt;stroke-linejoin:miter;stroke:rgb(0%,0%,0%);stroke-opacity:1;stroke-miterlimit:10;" d="M 0.594062 0.0924609 L 0.515664 0.0454687 L 0.452969 0.123828 L 0.452969 0.405938 L 0.421641 0.468633 L 0.390273 0.719453 L 0.311914 0.938867 L 0.688086 0.954531 L 0.672422 0.249219 L 0.688086 0.155156 L 0.672422 0.0767969 Z M 0.594062 0.0924609 " transform="matrix(100,0,0,100,450,3950)"/>
<path style="fill:none;stroke-width:0.01;stroke-linecap:butt;stroke-linejoin:miter;stroke:rgb(0%,0%,0%);stroke-opacity:1;stroke-miterlimit:10;" d="M 0.651523 0.146445 L 0.651523 0.0454687 L 0.449492 0.0454687 L 0.348477 0.752539 L 0.5 0.954531 L 0.651523 0.904023 Z M 0.651523 0.146445 " transform="matrix(100,0,0,100,600,3950)"/>
<path style="fill:none;stroke-width:0.01;stroke-linecap:butt;stroke-linejoin:miter;stroke:rgb(0%,0%,0%);stroke-opacity:1;stroke-miterlimit:10;" d="M 0.551445 0.0454687 L 0.482852 0.114063 L 0.448555 0.868789 L 0.551445 0.954531 Z M 0.551445 0.0454687 " transform="matrix(100,0,0,100,0,4100)"/>
<path style="fill:none;stroke-width:0.01;stroke-linecap:butt;stroke-linejoin:miter;stroke:rgb(0%,0%,0%);stroke-opacity:1;stroke-miterlimit:10;" d="M 0.769883 0.954531 L 0.286914 0.954531 L 0.230117 0.755664 L 0.258516 0.414766 L 0.272734 0.116484 L 0.514219 0.0454687 L 0.769883 0.0454687 L 0.769883 0.173281 Z M 0.769883 0.954531 " transform="matrix(100,0,0,100,150,4100)"/>
<path style="fill:none;stroke-width:0.01;stroke-linecap:butt;stroke-linejoin:miter;stroke:rgb(0%,0%,0%);stroke-opacity:1;stroke-miterlimit:10;" d="M 0.954531 0.227266 L 0.0454687 0.227266 L 0.118164 0.372734 L 0.409102 0.481836 L 0.518164 0.590898 L 0.7 0.7 L 0.772734 0.772734 L 0.954531 0.772734 Z M 0.954531 0.227266 " transform="matrix(100,0,0,100,300,4100)"/>
<path style="fill:none;stroke-width:0.01;stroke-linecap:butt;stroke-linejoin:miter;stroke:rgb(0%,0%,0%);stroke-opacity:1;stroke-miterlimit:10;" d="M 0.954531 0.793242 L 0.0454688 0.793242 L 0.19207 0.617305 L 0.280078 0.382695 L 0.57332 0.324063 L 0.80793 0.265391 L 0.954531 0.206758 Z M 0.954531 0.793242 " transform="matrix(100,0,0,100,450,4100)"/>
<path style="fill:none;stroke-width:0.01;stroke-linecap:butt;stroke-linejoin:miter;stroke:rgb(0%,0%,0%);stroke-opacity:1;stroke-miterlimit:10;" d="M 0.809102 0.245469 L 0.772734 0.172734 L 0.0454688 0.209102 L 0.118164 0.572734 L 0.3 0.681836 L 0.445469 0.754531 L 0.590898 0.790898 L 0.772734 0.790898 L 0.918164 0.827266 L 0.954531 0.718164 L 0.809102 0.645469 L 0.772734 0.5 L 0.918164 0.536367 L 0.954531 0.390898 Z M 0.809102 0.245469 " transform="matrix(100,0,0,100,600,4100)"/>
<path style="fill:none;stroke-width:0.01;stroke-linecap:butt;stroke-linejoin:miter;stroke:rgb(0%,0%,0%);stroke-opacity:1;stroke-miterlimit:10;" d="M 0.609336 0.505742 L 0.609336 0.954531 L 0.505742 0.954531 L 0.436719 0.724414 L 0.402188 0.402188 L 0.390664 0.264102 L 0.494258 0.172031 L 0.597812 0.0569531 L 0.609336 0.0454687 Z M 0.609336 0.505742 " transform="matrix(100,0,0,100,0,4250)"/>
<path style="fill:none;stroke-width:0.01;stroke-linecap:butt;stroke-linejoin:miter;stroke:rgb(0%,0%,0%);stroke-opacity:1;stroke-miterlimit:10;" d="M 0.550859 0.0581641 L 0.461875 0.0454687 L 0.449141 0.147188 L 0.461875 0.503164 L 0.455508 0.738398 L 0.468203 0.821055 L 0.512695 0.910039 L 0.550859 0.954531 Z M 0.550859 0.0581641 " transform="matrix(100,0,0,100,150,4250)"/>
<path style="fill:none;stroke-width:0.01;stroke-linecap:butt;stroke-linejoin:miter;stroke:rgb(0%,0%,0%);stroke-opacity:1;stroke-miterlimit:10;" d="M 0.560625 0.681836 L 0.560625 0.954531 L 0.439375 0.878789 L 0.469688 0.0908984 L 0.545469 0.0454687 L 0.560625 0.121211 Z M 0.560625 0.681836 " transform="matrix(100,0,0,100,300,4250)"/>
<path style="fill:none;stroke-width:0.01;stroke-linecap:butt;stroke-linejoin:miter;stroke:rgb(0%,0%,0%);stroke-opacity:1;stroke-miterlimit:10;" d="M 0.693672 0.954531 L 0.35375 0.954531 L 0.322148 0.725313 L 0.306328 0.535586 L 0.322148 0.361641 L 0.33793 0.211445 L 0.345859 0.179844 L 0.432812 0.164023 L 0.503945 0.0849609 L 0.575117 0.0454687 L 0.64625 0.0454687 L 0.693672 0.06125 Z M 0.693672 0.954531 " transform="matrix(100,0,0,100,450,4250)"/>
<path style="fill:none;stroke-width:0.01;stroke-linecap:butt;stroke-linejoin:miter;stroke:rgb(0%,0%,0%);stroke-opacity:1;stroke-miterlimit:10;" d="M 0.954531 0.069375 L 0.0454688 0.069375 L 0.0454688 0.595703 L 0.188984 0.739219 L 0.380391 0.834922 L 0.476094 0.930625 L 0.954531 0.882773 Z M 0.954531 0.069375 " transform="matrix(100,0,0,100,600,4250)"/>
<path style="fill:none;stroke-width:0.01;stroke-linecap:butt;stroke-linejoin:miter;stroke:rgb(0%,0%,0%);stroke-opacity:1;stroke-miterlimit:10;" d="M 0.604063 0.0454687 L 0.549297 0.0892578 L 0.516445 0.242617 L 0.505469 0.297383 L 0.417852 0.352148 L 0.406914 0.472617 L 0.406914 0.647852 L 0.395937 0.779297 L 0.439766 0.866914 L 0.494531 0.910742 L 0.560234 0.943594 L 0.604063 0.954531 Z M 0.604063 0.0454687 " transform="matrix(100,0,0,100,0,4400)"/>
<path style="fill:none;stroke-width:0.01;stroke-linecap:butt;stroke-linejoin:miter;stroke:rgb(0%,0%,0%);stroke-opacity:1;stroke-miterlimit:10;" d="M 0.803047 0.310625 L 0.0454687 0.310625 L 0.272734 0.386367 L 0.424258 0.613633 L 0.575742 0.689375 L 0.727266 0.613633 L 0.840898 0.651523 L 0.91668 0.613633 L 0.954531 0.537891 L 0.840898 0.424258 Z M 0.803047 0.310625 " transform="matrix(100,0,0,100,150,4400)"/>
<path style="fill:none;stroke-width:0.01;stroke-linecap:butt;stroke-linejoin:miter;stroke:rgb(0%,0%,0%);stroke-opacity:1;stroke-miterlimit:10;" d="M 0.675625 0.0661328 L 0.613633 0.0454687 L 0.479336 0.0454687 L 0.345039 0.20043 L 0.324375 0.448359 L 0.334727 0.634297 L 0.417344 0.706602 L 0.438008 0.758281 L 0.448359 0.840898 L 0.427695 0.954531 L 0.665273 0.954531 Z M 0.675625 0.0661328 " transform="matrix(100,0,0,100,300,4400)"/>
<path style="fill:none;stroke-width:0.01;stroke-linecap:butt;stroke-linejoin:miter;stroke:rgb(0%,0%,0%);stroke-opacity:1;stroke-miterlimit:10;" d="M 0.954531 0.325156 L 0.849648 0.534961 L 0.639844 0.639844 L 0.395117 0.709805 L 0.115391 0.569922 L 0.115391 0.465039 L 0.0454688 0.290195 Z M 0.954531 0.325156 " transform="matrix(100,0,0,100,450,4400)"/>
<path style="fill:none;stroke-width:0.01;stroke-linecap:butt;stroke-linejoin:miter;stroke:rgb(0%,0%,0%);stroke-opacity:1;stroke-miterlimit:10;" d="M 0.70832 0.935625 L 0.462109 0.91668 L 0.272734 0.859844 L 0.234844 0.784102 L 0.234844 0.196953 L 0.405312 0.121211 L 0.651523 0.0454687 L 0.727266 0.064375 L 0.765156 0.954531 Z M 0.70832 0.935625 " transform="matrix(100,0,0,100,600,4400)"/>
<path style="fill:none;stroke-width:0.01;stroke-linecap:butt;stroke-linejoin:miter;stroke:rgb(0%,0%,0%);stroke-opacity:1;stroke-miterlimit:10;" d="M 0.808438 0.954531 L 0.159102 0.694805 L 0.159102 0.0454687 L 0.840898 0.0454687 Z M 0.808438 0.954531 " transform="matrix(100,0,0,100,0,4550)"/>
<path style="fill:none;stroke-width:0.01;stroke-linecap:butt;stroke-linejoin:miter;stroke:rgb(0%,0%,0%);stroke-opacity:1;stroke-miterlimit:10;" d="M 0.248555 0.799805 L 0.422617 0.896523 L 0.422617 0.954531 L 0.461328 0.954531 L 0.5 0.896523 L 0.732109 0.915859 L 0.751445 0.0648047 L 0.616055 0.0454687 L 0.5 0.0841406 L 0.287227 0.180859 L 0.267891 0.219531 L 0.248555 0.490313 Z M 0.248555 0.799805 " transform="matrix(100,0,0,100,150,4550)"/>
<path style="fill:none;stroke-width:0.01;stroke-linecap:butt;stroke-linejoin:miter;stroke:rgb(0%,0%,0%);stroke-opacity:1;stroke-miterlimit:10;" d="M 0.0454687 0.674844 L 0.0454687 0.430078 L 0.395117 0.325156 L 0.91957 0.360156 L 0.954531 0.534961 L 0.814688 0.534961 L 0.814688 0.674844 Z M 0.0454687 0.674844 " transform="matrix(100,0,0,100,300,4550)"/>
<path style="fill:none;stroke-width:0.01;stroke-linecap:butt;stroke-linejoin:miter;stroke:rgb(0%,0%,0%);stroke-opacity:1;stroke-miterlimit:10;" d="M 0.0454688 0.175313 L 0.08875 0.521641 L 0.348477 0.824688 L 0.91125 0.824688 L 0.954531 0.608242 L 0.91125 0.564922 L 0.91125 0.175313 L 0.08875 0.175313 Z M 0.0454688 0.175313 " transform="matrix(100,0,0,100,450,4550)"/>
<path style="fill:none;stroke-width:0.01;stroke-linecap:butt;stroke-linejoin:miter;stroke:rgb(0%,0%,0%);stroke-opacity:1;stroke-miterlimit:10;" d="M 0.0454688 0.819141 L 0.0454688 0.432305 L 0.122813 0.374258 L 0.122813 0.161523 L 0.374258 0.180859 L 0.432305 0.238867 L 0.529023 0.238867 L 0.529023 0.296914 L 0.509688 0.31625 L 0.819141 0.548359 L 0.896523 0.548359 L 0.915859 0.567695 L 0.857852 0.606367 L 0.954531 0.68375 L 0.954531 0.838477 Z M 0.0454688 0.819141 " transform="matrix(100,0,0,100,600,4550)"/>
<path style="fill:none;stroke-width:0.01;stroke-linecap:butt;stroke-linejoin:miter;stroke:rgb(0%,0%,0%);stroke-opacity:1;stroke-miterlimit:10;" d="M 0.360156 0.884609 L 0.569922 0.954531 L 0.849648 0.954531 L 0.849648 0.0454687 L 0.150352 0.0454687 Z M 0.360156 0.884609 " transform="matrix(100,0,0,100,0,4700)"/>
<path style="fill:none;stroke-width:0.01;stroke-linecap:butt;stroke-linejoin:miter;stroke:rgb(0%,0%,0%);stroke-opacity:1;stroke-miterlimit:10;" d="M 0.954531 0.481836 L 0.772734 0.372734 L 0.409102 0.336367 L 0.0454687 0.663633 L 0.954531 0.663633 Z M 0.954531 0.481836 " transform="matrix(100,0,0,100,150,4700)"/>
<path style="fill:none;stroke-width:0.01;stroke-linecap:butt;stroke-linejoin:miter;stroke:rgb(0%,0%,0%);stroke-opacity:1;stroke-miterlimit:10;" d="M 0.732539 0.0454687 L 0.746641 0.37668 L 0.760742 0.510586 L 0.781875 0.53875 L 0.781875 0.595156 L 0.711406 0.630391 L 0.669141 0.778359 L 0.683242 0.813594 L 0.683242 0.919297 L 0.563438 0.940469 L 0.521133 0.954531 L 0.4225 0.933398 L 0.380195 0.834727 L 0.246289 0.693789 L 0.232188 0.630391 L 0.225156 0.383711 L 0.218125 0.221641 L 0.253359 0.0454687 Z M 0.732539 0.0454687 " transform="matrix(100,0,0,100,300,4700)"/>
<path style="fill:none;stroke-width:0.01;stroke-linecap:butt;stroke-linejoin:miter;stroke:rgb(0%,0%,0%);stroke-opacity:1;stroke-miterlimit:10;" d="M 0.954531 0.266602 L 0.0454688 0.266602 L 0.414023 0.585977 L 0.635117 0.684258 L 0.757969 0.733398 L 0.85625 0.733398 L 0.954531 0.659688 L 0.929961 0.610547 L 0.88082 0.585977 L 0.807109 0.585977 L 0.88082 0.315742 Z M 0.954531 0.266602 " transform="matrix(100,0,0,100,450,4700)"/>
<path style="fill:none;stroke-width:0.01;stroke-linecap:butt;stroke-linejoin:miter;stroke:rgb(0%,0%,0%);stroke-opacity:1;stroke-miterlimit:10;" d="M 0.378789 0.181836 L 0.0454688 0.454531 L 0.0454688 0.818164 L 0.954531 0.787891 L 0.954531 0.33332 L 0.893945 0.212109 L 0.681836 0.181836 Z M 0.378789 0.181836 " transform="matrix(100,0,0,100,600,4700)"/>
<path style="fill:none;stroke-width:0.01;stroke-linecap:butt;stroke-linejoin:miter;stroke:rgb(0%,0%,0%);stroke-opacity:1;stroke-miterlimit:10;" d="M 0.381836 0.0636328 L 0.345469 0.154531 L 0.236367 0.227266 L 0.254531 0.790898 L 0.618164 0.954531 L 0.763633 0.954531 L 0.763633 0.0454687 Z M 0.381836 0.0636328 " transform="matrix(100,0,0,100,0,4850)"/>
<path style="fill:none;stroke-width:0.01;stroke-linecap:butt;stroke-linejoin:miter;stroke:rgb(0%,0%,0%);stroke-opacity:1;stroke-miterlimit:10;" d="M 0.0454687 0.597422 L 0.435078 0.857148 L 0.889609 0.857148 L 0.954531 0.662344 L 0.954531 0.142852 L 0.0454687 0.142852 Z M 0.0454687 0.597422 " transform="matrix(100,0,0,100,150,4850)"/>
<path style="fill:none;stroke-width:0.01;stroke-linecap:butt;stroke-linejoin:miter;stroke:rgb(0%,0%,0%);stroke-opacity:1;stroke-miterlimit:10;" d="M 0.414766 0.230117 L 0.954531 0.173281 L 0.897734 0.372148 L 0.784102 0.428984 L 0.613633 0.826719 L 0.329531 0.826719 L 0.1875 0.599414 L 0.0454687 0.230117 Z M 0.414766 0.230117 " transform="matrix(100,0,0,100,300,4850)"/>
<path style="fill:none;stroke-width:0.01;stroke-linecap:butt;stroke-linejoin:miter;stroke:rgb(0%,0%,0%);stroke-opacity:1;stroke-miterlimit:10;" d="M 0.5 0.727266 L 0.0454688 0.727266 L 0.102266 0.556836 L 0.556836 0.272734 L 0.840898 0.443164 L 0.954531 0.670469 Z M 0.5 0.727266 " transform="matrix(100,0,0,100,450,4850)"/>
</g>
</svg>
