<?xml version="1.0" encoding="UTF-8"?>
<svg xmlns="http://www.w3.org/2000/svg" xmlns:xlink="http://www.w3.org/1999/xlink" width="750pt" height="12400pt" viewBox="0 0 750 12400" version="1.1">
<g id="surface1">
<path style="fill:none;stroke-width:0.01;stroke-linecap:butt;stroke-linejoin:miter;stroke:rgb(0%,0%,0%);stroke-opacity:1;stroke-miterlimit:10;" d="M 0.752539 0.108594 L 0.550508 0.0833203 L 0.196953 0.184336 L 0.0454688 0.335859 L 0.0959766 0.563125 L 0.121211 0.790391 L 0.247461 0.891406 L 0.424258 0.891406 L 0.676758 0.91668 L 0.853555 0.891406 L 0.954531 0.840898 L 0.929297 0.765156 L 0.904023 0.664141 L 0.878789 0.260117 L 0.904023 0.234844 L 0.954531 0.159102 Z M 0.752539 0.108594 " transform="matrix(100,0,0,100,0,200)"/>
<path style="fill:none;stroke-width:0.01;stroke-linecap:butt;stroke-linejoin:miter;stroke:rgb(0%,0%,0%);stroke-opacity:1;stroke-miterlimit:10;" d="M 0.234844 0.272734 L 0.234844 0.651523 L 0.462109 0.954531 L 0.613633 0.954531 L 0.613633 0.803047 L 0.765156 0.878789 L 0.613633 0.727266 L 0.613633 0.5 L 0.689375 0.348477 L 0.613633 0.121211 L 0.386367 0.0454687 Z M 0.234844 0.272734 " transform="matrix(100,0,0,100,150,200)"/>
<path style="fill:none;stroke-width:0.01;stroke-linecap:butt;stroke-linejoin:miter;stroke:rgb(0%,0%,0%);stroke-opacity:1;stroke-miterlimit:10;" d="M 0.0933203 0.188984 L 0.141133 0.763164 L 0.284687 0.954531 L 0.523906 0.90668 L 0.90668 0.90668 L 0.715313 0.858867 L 0.715313 0.188984 L 0.858867 0.141133 L 0.763164 0.0454687 Z M 0.0933203 0.188984 " transform="matrix(100,0,0,100,300,200)"/>
<path style="fill:none;stroke-width:0.01;stroke-linecap:butt;stroke-linejoin:miter;stroke:rgb(0%,0%,0%);stroke-opacity:1;stroke-miterlimit:10;" d="M 0.165078 0.332539 L 0.165078 0.715313 L 0.404297 0.858867 L 0.691406 0.954531 L 0.691406 0.858867 L 0.834922 0.858867 L 0.834922 0.811016 L 0.643555 0.763164 L 0.643555 0.332539 L 0.78707 0.332539 L 0.78707 0.284687 L 0.595703 0.284687 L 0.643555 0.141133 L 0.739219 0.0933203 L 0.595703 0.0454687 L 0.356445 0.236836 Z M 0.165078 0.332539 " transform="matrix(100,0,0,100,450,200)"/>
<path style="fill:none;stroke-width:0.01;stroke-linecap:butt;stroke-linejoin:miter;stroke:rgb(0%,0%,0%);stroke-opacity:1;stroke-miterlimit:10;" d="M 0.668828 0.0454687 L 0.824688 0.0714453 L 0.850664 0.149336 L 0.720781 0.175312 L 0.798711 0.253242 L 0.798711 0.331172 L 0.694805 0.331172 L 0.694805 0.746758 L 0.798711 0.746758 L 0.798711 0.876641 L 0.694805 0.876641 L 0.746758 0.954531 L 0.357148 0.954531 L 0.305195 0.850664 L 0.201289 0.798711 L 0.149336 0.487031 L 0.149336 0.279219 L 0.305195 0.0974219 L 0.409102 0.0454687 Z M 0.668828 0.0454687 " transform="matrix(100,0,0,100,600,200)"/>
<path style="fill:none;stroke-width:0.01;stroke-linecap:butt;stroke-linejoin:miter;stroke:rgb(0%,0%,0%);stroke-opacity:1;stroke-miterlimit:10;" d="M 0.142852 0.781367 L 0.380937 0.954531 L 0.835508 0.954531 L 0.857148 0.846328 L 0.727266 0.759727 L 0.727266 0.218633 L 0.813867 0.196953 L 0.813867 0.0671094 L 0.48918 0.0454687 L 0.142852 0.218633 Z M 0.142852 0.781367 " transform="matrix(100,0,0,100,0,350)"/>
<path style="fill:none;stroke-width:0.01;stroke-linecap:butt;stroke-linejoin:miter;stroke:rgb(0%,0%,0%);stroke-opacity:1;stroke-miterlimit:10;" d="M 0.164023 0.717383 L 0.401172 0.915039 L 0.796445 0.954531 L 0.835977 0.0454687 L 0.480234 0.0454687 L 0.203555 0.203555 Z M 0.164023 0.717383 " transform="matrix(100,0,0,100,150,350)"/>
<path style="fill:none;stroke-width:0.01;stroke-linecap:butt;stroke-linejoin:miter;stroke:rgb(0%,0%,0%);stroke-opacity:1;stroke-miterlimit:10;" d="M 0.468281 0.0454687 L 0.256875 0.193437 L 0.235742 0.700859 L 0.383711 0.891133 L 0.595156 0.954531 L 0.616289 0.933398 L 0.721992 0.912266 L 0.637422 0.891133 L 0.637422 0.78543 L 0.743125 0.764258 L 0.658555 0.721992 L 0.658555 0.172305 L 0.764258 0.151172 L 0.658555 0.108867 L 0.658555 0.0454687 Z M 0.468281 0.0454687 " transform="matrix(100,0,0,100,300,350)"/>
<path style="fill:none;stroke-width:0.01;stroke-linecap:butt;stroke-linejoin:miter;stroke:rgb(0%,0%,0%);stroke-opacity:1;stroke-miterlimit:10;" d="M 0.194375 0.829141 L 0.413789 0.954531 L 0.852656 0.938867 L 0.852656 0.860508 L 0.805625 0.813477 L 0.789961 0.29625 L 0.852656 0.29625 L 0.852656 0.202187 L 0.836992 0.0611328 L 0.554844 0.0454687 L 0.46082 0.0924609 L 0.319766 0.139492 L 0.178672 0.29625 L 0.147344 0.374609 L 0.147344 0.735117 Z M 0.194375 0.829141 " transform="matrix(100,0,0,100,450,350)"/>
<path style="fill:none;stroke-width:0.01;stroke-linecap:butt;stroke-linejoin:miter;stroke:rgb(0%,0%,0%);stroke-opacity:1;stroke-miterlimit:10;" d="M 0.824688 0.0454687 L 0.478359 0.0454687 L 0.175313 0.132031 L 0.175313 0.651523 L 0.305195 0.781367 L 0.391758 0.954531 L 0.521641 0.954531 L 0.694805 0.91125 L 0.608242 0.867969 L 0.651523 0.738086 L 0.781367 0.738086 L 0.651523 0.738086 L 0.694805 0.175312 Z M 0.824688 0.0454687 " transform="matrix(100,0,0,100,600,350)"/>
<path style="fill:none;stroke-width:0.01;stroke-linecap:butt;stroke-linejoin:miter;stroke:rgb(0%,0%,0%);stroke-opacity:1;stroke-miterlimit:10;" d="M 0.838008 0.115391 L 0.814688 0.0454688 L 0.511641 0.06875 L 0.371797 0.115391 L 0.185312 0.278555 L 0.161992 0.768047 L 0.348477 0.90793 L 0.371797 0.954531 L 0.604883 0.93125 L 0.814688 0.90793 L 0.814688 0.861289 L 0.698125 0.791367 L 0.698125 0.185313 Z M 0.838008 0.115391 " transform="matrix(100,0,0,100,0,500)"/>
<path style="fill:none;stroke-width:0.01;stroke-linecap:butt;stroke-linejoin:miter;stroke:rgb(0%,0%,0%);stroke-opacity:1;stroke-miterlimit:10;" d="M 0.954531 0.0454688 L 0.240273 0.110391 L 0.0454687 0.240273 L 0.0454687 0.629883 L 0.305195 0.889609 L 0.694805 0.954531 L 0.954531 0.954531 L 0.824688 0.824688 L 0.759727 0.240273 Z M 0.954531 0.0454688 " transform="matrix(100,0,0,100,150,500)"/>
<path style="fill:none;stroke-width:0.01;stroke-linecap:butt;stroke-linejoin:miter;stroke:rgb(0%,0%,0%);stroke-opacity:1;stroke-miterlimit:10;" d="M 0.840898 0.0454688 L 0.386367 0.121211 L 0.159102 0.386367 L 0.159102 0.689375 L 0.348477 0.91668 L 0.575742 0.954531 L 0.727266 0.954531 L 0.765156 0.878789 L 0.689375 0.803047 L 0.727266 0.196953 Z M 0.840898 0.0454688 " transform="matrix(100,0,0,100,300,500)"/>
<path style="fill:none;stroke-width:0.01;stroke-linecap:butt;stroke-linejoin:miter;stroke:rgb(0%,0%,0%);stroke-opacity:1;stroke-miterlimit:10;" d="M 0.926133 0.954531 L 0.755664 0.897734 L 0.698867 0.215898 L 0.926133 0.159102 L 0.926133 0.102266 L 0.642031 0.102266 L 0.301133 0.0454688 L 0.0738672 0.329531 L 0.0738672 0.727266 L 0.301133 0.897734 L 0.585234 0.954531 Z M 0.926133 0.954531 " transform="matrix(100,0,0,100,450,500)"/>
<path style="fill:none;stroke-width:0.01;stroke-linecap:butt;stroke-linejoin:miter;stroke:rgb(0%,0%,0%);stroke-opacity:1;stroke-miterlimit:10;" d="M 0.631563 0.0454688 L 0.655508 0.141133 L 0.822969 0.141133 L 0.727266 0.165078 L 0.703359 0.308594 L 0.799062 0.308594 L 0.775117 0.380391 L 0.703359 0.380391 L 0.703359 0.643555 L 0.822969 0.667461 L 0.822969 0.715313 L 0.703359 0.763164 L 0.655508 0.882773 L 0.751211 0.882773 L 0.631563 0.90668 L 0.535898 0.954531 L 0.392344 0.954531 L 0.320586 0.930625 L 0.248789 0.882773 L 0.177031 0.78707 L 0.177031 0.141133 L 0.41625 0.0454688 Z M 0.631563 0.0454688 " transform="matrix(100,0,0,100,600,500)"/>
<path style="fill:none;stroke-width:0.01;stroke-linecap:butt;stroke-linejoin:miter;stroke:rgb(0%,0%,0%);stroke-opacity:1;stroke-miterlimit:10;" d="M 0.362578 0.0666016 L 0.616289 0.0454688 L 0.679688 0.108867 L 0.78543 0.108867 L 0.679688 0.172305 L 0.700859 0.256875 L 0.827695 0.278008 L 0.700859 0.341445 L 0.700859 0.700859 L 0.848828 0.78543 L 0.700859 0.806563 L 0.658555 0.869961 L 0.78543 0.891133 L 0.637422 0.933398 L 0.426016 0.954531 L 0.447148 0.869961 L 0.299141 0.827695 L 0.172305 0.827695 L 0.151172 0.806563 L 0.151172 0.21457 L 0.256875 0.151172 Z M 0.362578 0.0666016 " transform="matrix(100,0,0,100,0,650)"/>
<path style="fill:none;stroke-width:0.01;stroke-linecap:butt;stroke-linejoin:miter;stroke:rgb(0%,0%,0%);stroke-opacity:1;stroke-miterlimit:10;" d="M 0.531367 0.108164 L 0.374609 0.108164 L 0.217852 0.264883 L 0.217852 0.766445 L 0.374609 0.829141 L 0.374609 0.954531 L 0.468633 0.954531 L 0.531367 0.923203 L 0.688086 0.923203 L 0.562695 0.891836 L 0.594063 0.797813 L 0.750781 0.766445 L 0.656758 0.735117 L 0.688086 0.327578 L 0.782148 0.29625 L 0.688086 0.327578 L 0.656758 0.139492 L 0.782148 0.108164 L 0.656758 0.0767969 L 0.656758 0.0454688 Z M 0.531367 0.108164 " transform="matrix(100,0,0,100,150,650)"/>
<path style="fill:none;stroke-width:0.01;stroke-linecap:butt;stroke-linejoin:miter;stroke:rgb(0%,0%,0%);stroke-opacity:1;stroke-miterlimit:10;" d="M 0.834922 0.90668 L 0.882773 0.763164 L 0.739219 0.715313 L 0.691406 0.236836 L 0.882773 0.236836 L 0.882773 0.0454688 L 0.452148 0.0454688 L 0.117227 0.284688 L 0.117227 0.811016 L 0.404297 0.954531 Z M 0.834922 0.90668 " transform="matrix(100,0,0,100,300,650)"/>
<path style="fill:none;stroke-width:0.01;stroke-linecap:butt;stroke-linejoin:miter;stroke:rgb(0%,0%,0%);stroke-opacity:1;stroke-miterlimit:10;" d="M 0.874336 0.954531 L 0.66043 0.901055 L 0.606953 0.152422 L 0.820859 0.0989453 L 0.606953 0.0454688 L 0.179141 0.0454688 L 0.125664 0.419805 L 0.125664 0.794102 L 0.33957 0.954531 L 0.66043 0.954531 Z M 0.874336 0.954531 " transform="matrix(100,0,0,100,450,650)"/>
<path style="fill:none;stroke-width:0.01;stroke-linecap:butt;stroke-linejoin:miter;stroke:rgb(0%,0%,0%);stroke-opacity:1;stroke-miterlimit:10;" d="M 0.954531 0.0738672 L 0.215898 0.130664 L 0.0454688 0.414766 L 0.159102 0.8125 L 0.670469 0.926133 L 0.954531 0.926133 L 0.784102 0.869336 L 0.727266 0.0738672 Z M 0.954531 0.0738672 " transform="matrix(100,0,0,100,600,650)"/>
<path style="fill:none;stroke-width:0.01;stroke-linecap:butt;stroke-linejoin:miter;stroke:rgb(0%,0%,0%);stroke-opacity:1;stroke-miterlimit:10;" d="M 0.809922 0.0867578 L 0.438008 0.0454687 L 0.314063 0.0867578 L 0.190078 0.25207 L 0.190078 0.582656 L 0.314063 0.74793 L 0.479336 0.954531 L 0.644609 0.913242 L 0.809922 0.913242 L 0.768594 0.74793 L 0.60332 0.74793 L 0.685937 0.210742 Z M 0.809922 0.0867578 " transform="matrix(100,0,0,100,0,800)"/>
<path style="fill:none;stroke-width:0.01;stroke-linecap:butt;stroke-linejoin:miter;stroke:rgb(0%,0%,0%);stroke-opacity:1;stroke-miterlimit:10;" d="M 0.954531 0.0454687 L 0.0454687 0.0454687 L 0.0454687 0.651523 L 0.348477 0.803047 L 0.878789 0.878789 L 0.727266 0.954531 L 0.651523 0.0454687 Z M 0.954531 0.0454687 " transform="matrix(100,0,0,100,150,800)"/>
<path style="fill:none;stroke-width:0.01;stroke-linecap:butt;stroke-linejoin:miter;stroke:rgb(0%,0%,0%);stroke-opacity:1;stroke-miterlimit:10;" d="M 0.840898 0.0454687 L 0.272734 0.0454687 L 0.159102 0.727266 L 0.613633 0.954531 L 0.840898 0.954531 L 0.613633 0.954531 Z M 0.840898 0.0454687 " transform="matrix(100,0,0,100,300,800)"/>
<path style="fill:none;stroke-width:0.01;stroke-linecap:butt;stroke-linejoin:miter;stroke:rgb(0%,0%,0%);stroke-opacity:1;stroke-miterlimit:10;" d="M 0.798711 0.201289 L 0.616875 0.175313 L 0.590898 0.0714453 L 0.798711 0.0454687 L 0.512969 0.123359 L 0.175313 0.279219 L 0.201289 0.720781 L 0.487031 0.954531 L 0.668828 0.954531 L 0.668828 0.876641 L 0.824688 0.850664 L 0.824688 0.798711 L 0.668828 0.798711 L 0.642852 0.305195 L 0.798711 0.305195 Z M 0.798711 0.201289 " transform="matrix(100,0,0,100,450,800)"/>
<path style="fill:none;stroke-width:0.01;stroke-linecap:butt;stroke-linejoin:miter;stroke:rgb(0%,0%,0%);stroke-opacity:1;stroke-miterlimit:10;" d="M 0.755 0.111992 L 0.488906 0.0454687 L 0.200664 0.333711 L 0.200664 0.865859 L 0.378047 0.954531 L 0.666289 0.954531 L 0.710625 0.732812 L 0.799336 0.732812 L 0.688477 0.710625 L 0.688477 0.355859 L 0.799336 0.355859 L 0.688477 0.378047 L 0.688477 0.111992 Z M 0.755 0.111992 " transform="matrix(100,0,0,100,600,800)"/>
<path style="fill:none;stroke-width:0.01;stroke-linecap:butt;stroke-linejoin:miter;stroke:rgb(0%,0%,0%);stroke-opacity:1;stroke-miterlimit:10;" d="M 0.871055 0.806133 L 0.889609 0.731914 L 0.759727 0.67625 L 0.778281 0.156758 L 0.889609 0.156758 L 0.871055 0.0454687 L 0.110391 0.0825781 L 0.128945 0.713359 L 0.351562 0.880352 L 0.425781 0.898906 L 0.462891 0.954531 L 0.611328 0.935977 L 0.796836 0.935977 L 0.833945 0.898906 L 0.759727 0.861797 L 0.741172 0.806133 Z M 0.871055 0.806133 " transform="matrix(100,0,0,100,0,950)"/>
<path style="fill:none;stroke-width:0.01;stroke-linecap:butt;stroke-linejoin:miter;stroke:rgb(0%,0%,0%);stroke-opacity:1;stroke-miterlimit:10;" d="M 0.878789 0.0757422 L 0.363633 0.0454687 L 0.151523 0.16668 L 0.121211 0.863633 L 0.393945 0.924258 L 0.727266 0.954531 L 0.848477 0.954531 L 0.848477 0.893945 L 0.727266 0.863633 L 0.757578 0.136367 Z M 0.878789 0.0757422 " transform="matrix(100,0,0,100,150,950)"/>
<path style="fill:none;stroke-width:0.01;stroke-linecap:butt;stroke-linejoin:miter;stroke:rgb(0%,0%,0%);stroke-opacity:1;stroke-miterlimit:10;" d="M 0.797188 0.150352 L 0.797188 0.0454687 L 0.447539 0.0804297 L 0.132852 0.325156 L 0.167852 0.779727 L 0.412578 0.884609 L 0.657344 0.954531 L 0.832148 0.91957 L 0.867148 0.849648 L 0.692305 0.814687 L 0.692305 0.220273 Z M 0.797188 0.150352 " transform="matrix(100,0,0,100,300,950)"/>
<path style="fill:none;stroke-width:0.01;stroke-linecap:butt;stroke-linejoin:miter;stroke:rgb(0%,0%,0%);stroke-opacity:1;stroke-miterlimit:10;" d="M 0.81043 0.134141 L 0.81043 0.0898047 L 0.655195 0.111992 L 0.655195 0.0454687 L 0.411289 0.0676172 L 0.18957 0.222852 L 0.18957 0.732812 L 0.433477 0.865859 L 0.477812 0.954531 L 0.566523 0.954531 L 0.633047 0.910195 L 0.766094 0.910195 L 0.788242 0.865859 L 0.677383 0.843672 L 0.69957 0.710625 L 0.788242 0.710625 L 0.81043 0.688477 L 0.69957 0.688477 L 0.721719 0.245 Z M 0.81043 0.134141 " transform="matrix(100,0,0,100,450,950)"/>
<path style="fill:none;stroke-width:0.01;stroke-linecap:butt;stroke-linejoin:miter;stroke:rgb(0%,0%,0%);stroke-opacity:1;stroke-miterlimit:10;" d="M 0.863633 0.146445 L 0.863633 0.0656641 L 0.5 0.0454687 L 0.338398 0.12625 L 0.136367 0.227266 L 0.136367 0.752539 L 0.257578 0.87375 L 0.439375 0.934336 L 0.621211 0.954531 L 0.722227 0.914141 L 0.823242 0.914141 L 0.863633 0.853555 L 0.742422 0.83332 L 0.742422 0.16668 Z M 0.863633 0.146445 " transform="matrix(100,0,0,100,600,950)"/>
<path style="fill:none;stroke-width:0.01;stroke-linecap:butt;stroke-linejoin:miter;stroke:rgb(0%,0%,0%);stroke-opacity:1;stroke-miterlimit:10;" d="M 0.820234 0.210742 L 0.737617 0.169414 L 0.716953 0.0454687 L 0.79957 0.0454687 L 0.489687 0.0454687 L 0.407031 0.0867578 L 0.159102 0.272734 L 0.20043 0.809922 L 0.448359 0.933867 L 0.737617 0.954531 L 0.737617 0.913242 L 0.840898 0.892578 L 0.840898 0.809922 L 0.716953 0.830586 L 0.716953 0.231406 Z M 0.820234 0.210742 " transform="matrix(100,0,0,100,0,1100)"/>
<path style="fill:none;stroke-width:0.01;stroke-linecap:butt;stroke-linejoin:miter;stroke:rgb(0%,0%,0%);stroke-opacity:1;stroke-miterlimit:10;" d="M 0.796445 0.243086 L 0.677852 0.243086 L 0.638359 0.0454687 L 0.796445 0.0454687 L 0.440703 0.124492 L 0.203555 0.361641 L 0.243086 0.717383 L 0.401172 0.875508 L 0.559297 0.954531 L 0.638359 0.915039 L 0.796445 0.915039 L 0.677852 0.875508 L 0.677852 0.361641 Z M 0.796445 0.243086 " transform="matrix(100,0,0,100,150,1100)"/>
<path style="fill:none;stroke-width:0.01;stroke-linecap:butt;stroke-linejoin:miter;stroke:rgb(0%,0%,0%);stroke-opacity:1;stroke-miterlimit:10;" d="M 0.785938 0.177422 L 0.800586 0.0747656 L 0.683281 0.0894531 L 0.683281 0.0601172 L 0.521992 0.0454687 L 0.331367 0.148086 L 0.199414 0.250742 L 0.199414 0.690625 L 0.360703 0.851914 L 0.419336 0.925234 L 0.492656 0.954531 L 0.727266 0.939883 L 0.727266 0.895898 L 0.639297 0.895898 L 0.653945 0.793242 L 0.741953 0.793242 L 0.77125 0.749258 L 0.683281 0.734609 L 0.683281 0.19207 Z M 0.785938 0.177422 " transform="matrix(100,0,0,100,300,1100)"/>
<path style="fill:none;stroke-width:0.01;stroke-linecap:butt;stroke-linejoin:miter;stroke:rgb(0%,0%,0%);stroke-opacity:1;stroke-miterlimit:10;" d="M 0.8125 0.215898 L 0.8125 0.0454687 L 0.130664 0.0454687 L 0.130664 0.670469 L 0.471602 0.954531 L 0.869336 0.954531 L 0.698867 0.897734 L 0.698867 0.272734 Z M 0.8125 0.215898 " transform="matrix(100,0,0,100,450,1100)"/>
<path style="fill:none;stroke-width:0.01;stroke-linecap:butt;stroke-linejoin:miter;stroke:rgb(0%,0%,0%);stroke-opacity:1;stroke-miterlimit:10;" d="M 0.846328 0.175313 L 0.673164 0.175313 L 0.673164 0.0454687 L 0.456719 0.175313 L 0.196953 0.261914 L 0.153672 0.738086 L 0.370117 0.824687 L 0.456719 0.91125 L 0.629883 0.954531 L 0.759727 0.867969 L 0.846328 0.824687 L 0.716445 0.824687 L 0.716445 0.261914 Z M 0.846328 0.175313 " transform="matrix(100,0,0,100,600,1100)"/>
<path style="fill:none;stroke-width:0.01;stroke-linecap:butt;stroke-linejoin:miter;stroke:rgb(0%,0%,0%);stroke-opacity:1;stroke-miterlimit:10;" d="M 0.863633 0.0454687 L 0.363633 0.0454687 L 0.181836 0.136367 L 0.136367 0.227266 L 0.136367 0.727266 L 0.318164 0.863633 L 0.590898 0.954531 L 0.818164 0.909102 L 0.681836 0.909102 L 0.681836 0.0908984 Z M 0.863633 0.0454687 " transform="matrix(100,0,0,100,0,1250)"/>
<path style="fill:none;stroke-width:0.01;stroke-linecap:butt;stroke-linejoin:miter;stroke:rgb(0%,0%,0%);stroke-opacity:1;stroke-miterlimit:10;" d="M 0.954531 0.069375 L 0.523906 0.117227 L 0.141133 0.21293 L 0.0454687 0.595703 L 0.141133 0.78707 L 0.284687 0.930625 L 0.858867 0.930625 L 0.667461 0.882773 L 0.763164 0.117227 Z M 0.954531 0.069375 " transform="matrix(100,0,0,100,150,1250)"/>
<path style="fill:none;stroke-width:0.01;stroke-linecap:butt;stroke-linejoin:miter;stroke:rgb(0%,0%,0%);stroke-opacity:1;stroke-miterlimit:10;" d="M 0.878789 0.0454687 L 0.323242 0.0454687 L 0.0707031 0.297969 L 0.121211 0.752539 L 0.424258 0.954531 L 0.777773 0.904023 L 0.929297 0.904023 L 0.777773 0.904023 L 0.777773 0.247461 Z M 0.878789 0.0454687 " transform="matrix(100,0,0,100,300,1250)"/>
<path style="fill:none;stroke-width:0.01;stroke-linecap:butt;stroke-linejoin:miter;stroke:rgb(0%,0%,0%);stroke-opacity:1;stroke-miterlimit:10;" d="M 0.840898 0.207773 L 0.873359 0.110391 L 0.48375 0.0454687 L 0.126641 0.272734 L 0.126641 0.759727 L 0.418828 0.954531 L 0.678555 0.889609 L 0.840898 0.889609 L 0.711055 0.889609 L 0.678555 0.207773 Z M 0.840898 0.207773 " transform="matrix(100,0,0,100,450,1250)"/>
<path style="fill:none;stroke-width:0.01;stroke-linecap:butt;stroke-linejoin:miter;stroke:rgb(0%,0%,0%);stroke-opacity:1;stroke-miterlimit:10;" d="M 0.954531 0.803047 L 0.651523 0.863633 L 0.287891 0.924258 L 0.0454688 0.742422 L 0.0454688 0.136367 L 0.469688 0.0757422 L 0.712109 0.136367 L 0.954531 0.136367 L 0.712109 0.196953 L 0.772734 0.681836 L 0.772734 0.803047 Z M 0.954531 0.803047 " transform="matrix(100,0,0,100,600,1250)"/>
<path style="fill:none;stroke-width:0.01;stroke-linecap:butt;stroke-linejoin:miter;stroke:rgb(0%,0%,0%);stroke-opacity:1;stroke-miterlimit:10;" d="M 0.954531 0.759727 L 0.759727 0.889609 L 0.759727 0.175313 L 0.954531 0.175313 L 0.694805 0.175313 L 0.370117 0.0454687 L 0.110391 0.240273 L 0.0454688 0.759727 L 0.305195 0.889609 L 0.629883 0.954531 Z M 0.954531 0.759727 " transform="matrix(100,0,0,100,0,1400)"/>
<path style="fill:none;stroke-width:0.01;stroke-linecap:butt;stroke-linejoin:miter;stroke:rgb(0%,0%,0%);stroke-opacity:1;stroke-miterlimit:10;" d="M 0.880352 0.898906 L 0.880352 0.843242 L 0.787578 0.824687 L 0.769023 0.193867 L 0.769023 0.175313 L 0.898906 0.156758 L 0.898906 0.101094 L 0.657695 0.0454687 L 0.546367 0.0454687 L 0.286641 0.101094 L 0.119648 0.230977 L 0.101094 0.750469 L 0.360859 0.880352 L 0.546367 0.954531 L 0.67625 0.935977 L 0.843242 0.898906 Z M 0.880352 0.898906 " transform="matrix(100,0,0,100,150,1400)"/>
<path style="fill:none;stroke-width:0.01;stroke-linecap:butt;stroke-linejoin:miter;stroke:rgb(0%,0%,0%);stroke-opacity:1;stroke-miterlimit:10;" d="M 0.883516 0.102266 L 0.769883 0.102266 L 0.599414 0.0454687 L 0.116484 0.244336 L 0.116484 0.8125 L 0.428984 0.954531 L 0.741484 0.954531 L 0.883516 0.897734 L 0.798281 0.840898 L 0.769883 0.130664 Z M 0.883516 0.102266 " transform="matrix(100,0,0,100,300,1400)"/>
<path style="fill:none;stroke-width:0.01;stroke-linecap:butt;stroke-linejoin:miter;stroke:rgb(0%,0%,0%);stroke-opacity:1;stroke-miterlimit:10;" d="M 0.106055 0.83332 L 0.378789 0.954531 L 0.893945 0.954531 L 0.909102 0.863633 L 0.787891 0.818164 L 0.803047 0.16668 L 0.878789 0.151523 L 0.878789 0.060625 L 0.454531 0.0454687 L 0.272734 0.106055 L 0.106055 0.196953 L 0.0908984 0.545469 Z M 0.106055 0.83332 " transform="matrix(100,0,0,100,450,1400)"/>
<path style="fill:none;stroke-width:0.01;stroke-linecap:butt;stroke-linejoin:miter;stroke:rgb(0%,0%,0%);stroke-opacity:1;stroke-miterlimit:10;" d="M 0.926133 0.102266 L 0.585234 0.0454687 L 0.130664 0.102266 L 0.0738672 0.613633 L 0.357969 0.897734 L 0.585234 0.954531 L 0.926133 0.897734 L 0.755664 0.897734 L 0.755664 0.215898 Z M 0.926133 0.102266 " transform="matrix(100,0,0,100,600,1400)"/>
<path style="fill:none;stroke-width:0.01;stroke-linecap:butt;stroke-linejoin:miter;stroke:rgb(0%,0%,0%);stroke-opacity:1;stroke-miterlimit:10;" d="M 0.913242 0.128086 L 0.582656 0.0454687 L 0.169414 0.210742 L 0.0867578 0.458672 L 0.0867578 0.789258 L 0.334727 0.954531 L 0.913242 0.954531 L 0.74793 0.954531 L 0.665273 0.293398 Z M 0.913242 0.128086 " transform="matrix(100,0,0,100,0,1550)"/>
<path style="fill:none;stroke-width:0.01;stroke-linecap:butt;stroke-linejoin:miter;stroke:rgb(0%,0%,0%);stroke-opacity:1;stroke-miterlimit:10;" d="M 0.823242 0.106055 L 0.803047 0.0454687 L 0.459609 0.0454687 L 0.338398 0.0656641 L 0.176758 0.227266 L 0.176758 0.752539 L 0.358594 0.87375 L 0.5 0.934336 L 0.681836 0.954531 L 0.782812 0.934336 L 0.782812 0.893945 L 0.702031 0.87375 L 0.702031 0.83332 L 0.782812 0.83332 L 0.803047 0.752539 L 0.803047 0.732305 L 0.702031 0.712109 L 0.722227 0.146445 Z M 0.823242 0.106055 " transform="matrix(100,0,0,100,150,1550)"/>
<path style="fill:none;stroke-width:0.01;stroke-linecap:butt;stroke-linejoin:miter;stroke:rgb(0%,0%,0%);stroke-opacity:1;stroke-miterlimit:10;" d="M 0.859844 0.0833203 L 0.405312 0.0454687 L 0.140156 0.234844 L 0.140156 0.727266 L 0.367422 0.91668 L 0.670469 0.954531 L 0.859844 0.878789 L 0.746211 0.878789 L 0.746211 0.196953 Z M 0.859844 0.0833203 " transform="matrix(100,0,0,100,300,1550)"/>
<path style="fill:none;stroke-width:0.01;stroke-linecap:butt;stroke-linejoin:miter;stroke:rgb(0%,0%,0%);stroke-opacity:1;stroke-miterlimit:10;" d="M 0.81418 0.152422 L 0.80082 0.0721875 L 0.546797 0.0454687 L 0.413086 0.0588281 L 0.18582 0.286094 L 0.225937 0.713906 L 0.332891 0.847578 L 0.426484 0.887695 L 0.49332 0.954531 L 0.667109 0.954531 L 0.693867 0.914453 L 0.760703 0.914453 L 0.760703 0.860977 L 0.680469 0.834219 L 0.693867 0.780742 L 0.760703 0.794102 L 0.80082 0.754023 L 0.81418 0.700547 L 0.80082 0.673789 L 0.693867 0.66043 L 0.707227 0.1925 L 0.760703 0.179141 Z M 0.81418 0.152422 " transform="matrix(100,0,0,100,450,1550)"/>
<path style="fill:none;stroke-width:0.01;stroke-linecap:butt;stroke-linejoin:miter;stroke:rgb(0%,0%,0%);stroke-opacity:1;stroke-miterlimit:10;" d="M 0.954531 0.136367 L 0.5 0.136367 L 0.272734 0.0908984 L 0.0454688 0.227266 L 0.0908984 0.727266 L 0.409102 0.909102 L 0.727266 0.909102 L 0.954531 0.863633 L 0.772734 0.863633 L 0.772734 0.181836 Z M 0.954531 0.136367 " transform="matrix(100,0,0,100,600,1550)"/>
<path style="fill:none;stroke-width:0.01;stroke-linecap:butt;stroke-linejoin:miter;stroke:rgb(0%,0%,0%);stroke-opacity:1;stroke-miterlimit:10;" d="M 0.788477 0.185313 L 0.770977 0.0804297 L 0.683555 0.0804297 L 0.666094 0.0454688 L 0.49125 0.0804297 L 0.211523 0.237773 L 0.211523 0.762227 L 0.368867 0.884609 L 0.543711 0.954531 L 0.701055 0.93707 L 0.736016 0.902109 L 0.701055 0.867148 L 0.648594 0.849648 L 0.666094 0.762227 L 0.770977 0.762227 L 0.788477 0.709805 L 0.718516 0.674844 L 0.701055 0.202813 Z M 0.788477 0.185313 " transform="matrix(100,0,0,100,0,1700)"/>
<path style="fill:none;stroke-width:0.01;stroke-linecap:butt;stroke-linejoin:miter;stroke:rgb(0%,0%,0%);stroke-opacity:1;stroke-miterlimit:10;" d="M 0.902109 0.115391 L 0.5175 0.0454688 L 0.307695 0.0804297 L 0.0629297 0.220273 L 0.0629297 0.814688 L 0.237773 0.91957 L 0.727266 0.954531 L 0.832148 0.954531 L 0.93707 0.91957 L 0.797188 0.91957 L 0.797188 0.220273 Z M 0.902109 0.115391 " transform="matrix(100,0,0,100,150,1700)"/>
<path style="fill:none;stroke-width:0.01;stroke-linecap:butt;stroke-linejoin:miter;stroke:rgb(0%,0%,0%);stroke-opacity:1;stroke-miterlimit:10;" d="M 0.910547 0.133437 L 0.851914 0.0454688 L 0.558633 0.0747656 L 0.382695 0.104102 L 0.0894531 0.250742 L 0.11875 0.749258 L 0.382695 0.895898 L 0.763945 0.954531 L 0.793242 0.895898 L 0.910547 0.866563 L 0.793242 0.866563 L 0.793242 0.19207 Z M 0.910547 0.133437 " transform="matrix(100,0,0,100,300,1700)"/>
<path style="fill:none;stroke-width:0.01;stroke-linecap:butt;stroke-linejoin:miter;stroke:rgb(0%,0%,0%);stroke-opacity:1;stroke-miterlimit:10;" d="M 0.954531 0.0454688 L 0.449492 0.0454688 L 0.0454688 0.247461 L 0.0454688 0.550508 L 0.348477 0.853555 L 0.752539 0.954531 L 0.752539 0.651523 L 0.651523 0.247461 Z M 0.954531 0.0454688 " transform="matrix(100,0,0,100,450,1700)"/>
<path style="fill:none;stroke-width:0.01;stroke-linecap:butt;stroke-linejoin:miter;stroke:rgb(0%,0%,0%);stroke-opacity:1;stroke-miterlimit:10;" d="M 0.803047 0.153672 L 0.803047 0.0454688 L 0.521641 0.0671094 L 0.348477 0.110391 L 0.196953 0.196953 L 0.196953 0.673164 L 0.435078 0.91125 L 0.521641 0.954531 L 0.694805 0.954531 L 0.803047 0.932891 L 0.803047 0.91125 L 0.716445 0.889609 L 0.716445 0.738086 L 0.803047 0.738086 L 0.803047 0.716445 L 0.716445 0.716445 L 0.738086 0.196953 L 0.716445 0.153672 Z M 0.803047 0.153672 " transform="matrix(100,0,0,100,600,1700)"/>
<path style="fill:none;stroke-width:0.01;stroke-linecap:butt;stroke-linejoin:miter;stroke:rgb(0%,0%,0%);stroke-opacity:1;stroke-miterlimit:10;" d="M 0.954531 0.106055 L 0.590898 0.106055 L 0.348477 0.16668 L 0.0454688 0.348477 L 0.106055 0.83332 L 0.530312 0.893945 L 0.893945 0.893945 L 0.712109 0.83332 L 0.712109 0.287891 Z M 0.954531 0.106055 " transform="matrix(100,0,0,100,0,1850)"/>
<path style="fill:none;stroke-width:0.01;stroke-linecap:butt;stroke-linejoin:miter;stroke:rgb(0%,0%,0%);stroke-opacity:1;stroke-miterlimit:10;" d="M 0.954531 0.121211 L 0.575742 0.0454688 L 0.196953 0.121211 L 0.0454687 0.196953 L 0.0454687 0.878789 L 0.424258 0.954531 L 0.727266 0.954531 L 0.954531 0.878789 L 0.727266 0.878789 L 0.727266 0.196953 Z M 0.954531 0.121211 " transform="matrix(100,0,0,100,150,1850)"/>
<path style="fill:none;stroke-width:0.01;stroke-linecap:butt;stroke-linejoin:miter;stroke:rgb(0%,0%,0%);stroke-opacity:1;stroke-miterlimit:10;" d="M 0.846328 0.824687 L 0.716445 0.824687 L 0.716445 0.08875 L 0.846328 0.08875 L 0.413438 0.0454688 L 0.153672 0.305195 L 0.196953 0.694805 L 0.456719 0.824687 L 0.629883 0.954531 L 0.673164 0.954531 L 0.673164 0.867969 Z M 0.846328 0.824687 " transform="matrix(100,0,0,100,300,1850)"/>
<path style="fill:none;stroke-width:0.01;stroke-linecap:butt;stroke-linejoin:miter;stroke:rgb(0%,0%,0%);stroke-opacity:1;stroke-miterlimit:10;" d="M 0.835977 0.0454688 L 0.322148 0.0849609 L 0.0849609 0.203555 L 0.0849609 0.796445 L 0.361641 0.954531 L 0.915039 0.954531 L 0.796445 0.915039 L 0.756914 0.203555 Z M 0.835977 0.0454688 " transform="matrix(100,0,0,100,450,1850)"/>
<path style="fill:none;stroke-width:0.01;stroke-linecap:butt;stroke-linejoin:miter;stroke:rgb(0%,0%,0%);stroke-opacity:1;stroke-miterlimit:10;" d="M 0.863633 0.818164 L 0.681836 0.818164 L 0.727266 0.136367 L 0.863633 0.0908984 L 0.818164 0.0454688 L 0.454531 0.0454688 L 0.136367 0.318164 L 0.136367 0.727266 L 0.545469 0.863633 L 0.727266 0.954531 Z M 0.863633 0.818164 " transform="matrix(100,0,0,100,600,1850)"/>
<path style="fill:none;stroke-width:0.01;stroke-linecap:butt;stroke-linejoin:miter;stroke:rgb(0%,0%,0%);stroke-opacity:1;stroke-miterlimit:10;" d="M 0.874336 0.901055 L 0.901055 0.794102 L 0.794102 0.767383 L 0.740625 0.125664 L 0.847578 0.125664 L 0.874336 0.0454688 L 0.366328 0.0454688 L 0.205898 0.0989453 L 0.0989453 0.205898 L 0.0989453 0.794102 L 0.366328 0.954531 L 0.740625 0.901055 Z M 0.874336 0.901055 " transform="matrix(100,0,0,100,0,2000)"/>
<path style="fill:none;stroke-width:0.01;stroke-linecap:butt;stroke-linejoin:miter;stroke:rgb(0%,0%,0%);stroke-opacity:1;stroke-miterlimit:10;" d="M 0.855742 0.0849609 L 0.697617 0.0454688 L 0.460469 0.0849609 L 0.104727 0.243086 L 0.104727 0.559297 L 0.420937 0.915039 L 0.77668 0.954531 L 0.895273 0.875508 L 0.77668 0.875508 L 0.77668 0.243086 L 0.895273 0.203555 Z M 0.855742 0.0849609 " transform="matrix(100,0,0,100,150,2000)"/>
<path style="fill:none;stroke-width:0.01;stroke-linecap:butt;stroke-linejoin:miter;stroke:rgb(0%,0%,0%);stroke-opacity:1;stroke-miterlimit:10;" d="M 0.855742 0.0454688 L 0.381406 0.0454688 L 0.22332 0.203555 L 0.144258 0.243086 L 0.144258 0.756914 L 0.262852 0.875508 L 0.381406 0.954531 L 0.618594 0.954531 L 0.658086 0.915039 L 0.816211 0.875508 L 0.855742 0.796445 L 0.737148 0.796445 L 0.77668 0.164023 Z M 0.855742 0.0454688 " transform="matrix(100,0,0,100,300,2000)"/>
<path style="fill:none;stroke-width:0.01;stroke-linecap:butt;stroke-linejoin:miter;stroke:rgb(0%,0%,0%);stroke-opacity:1;stroke-miterlimit:10;" d="M 0.886367 0.0454688 L 0.568164 0.0908984 L 0.204531 0.227266 L 0.113633 0.772734 L 0.295469 0.954531 L 0.886367 0.954531 L 0.75 0.863633 L 0.75 0.227266 Z M 0.886367 0.0454688 " transform="matrix(100,0,0,100,450,2000)"/>
<path style="fill:none;stroke-width:0.01;stroke-linecap:butt;stroke-linejoin:miter;stroke:rgb(0%,0%,0%);stroke-opacity:1;stroke-miterlimit:10;" d="M 0.954531 0.0738672 L 0.784102 0.0738672 L 0.386367 0.130664 L 0.159102 0.1875 L 0.0454688 0.642031 L 0.272734 0.755664 L 0.613633 0.926133 L 0.954531 0.869336 L 0.784102 0.869336 L 0.784102 0.244336 Z M 0.954531 0.0738672 " transform="matrix(100,0,0,100,600,2000)"/>
<path style="fill:none;stroke-width:0.01;stroke-linecap:butt;stroke-linejoin:miter;stroke:rgb(0%,0%,0%);stroke-opacity:1;stroke-miterlimit:10;" d="M 0.803047 0.218633 L 0.629883 0.08875 L 0.716445 0.0454688 L 0.629883 0.08875 L 0.326836 0.175313 L 0.153672 0.305195 L 0.110391 0.694805 L 0.326836 0.867969 L 0.759727 0.954531 L 0.889609 0.91125 L 0.759727 0.867969 L 0.716445 0.348477 Z M 0.803047 0.218633 " transform="matrix(100,0,0,100,0,2150)"/>
<path style="fill:none;stroke-width:0.01;stroke-linecap:butt;stroke-linejoin:miter;stroke:rgb(0%,0%,0%);stroke-opacity:1;stroke-miterlimit:10;" d="M 0.869336 0.130664 L 0.642031 0.0454688 L 0.386367 0.130664 L 0.159102 0.301133 L 0.130664 0.613633 L 0.272734 0.869336 L 0.443164 0.954531 L 0.670469 0.954531 L 0.840898 0.926133 L 0.869336 0.869336 L 0.755664 0.840898 L 0.755664 0.215898 Z M 0.869336 0.130664 " transform="matrix(100,0,0,100,150,2150)"/>
<path style="fill:none;stroke-width:0.01;stroke-linecap:butt;stroke-linejoin:miter;stroke:rgb(0%,0%,0%);stroke-opacity:1;stroke-miterlimit:10;" d="M 0.798281 0.954531 L 0.713086 0.869336 L 0.684648 0.301133 L 0.798281 0.244336 L 0.769883 0.159102 L 0.684648 0.102266 L 0.684648 0.0454688 L 0.457383 0.0738672 L 0.201719 0.272734 L 0.230117 0.727266 L 0.372148 0.869336 Z M 0.798281 0.954531 " transform="matrix(100,0,0,100,300,2150)"/>
<path style="fill:none;stroke-width:0.01;stroke-linecap:butt;stroke-linejoin:miter;stroke:rgb(0%,0%,0%);stroke-opacity:1;stroke-miterlimit:10;" d="M 0.405938 0.0454688 L 0.0924609 0.202188 L 0.123828 0.766445 L 0.468633 0.954531 L 0.907539 0.954531 L 0.907539 0.829141 L 0.782148 0.829141 L 0.782148 0.202188 L 0.876172 0.202188 L 0.876172 0.0454688 Z M 0.405938 0.0454688 " transform="matrix(100,0,0,100,450,2150)"/>
<path style="fill:none;stroke-width:0.01;stroke-linecap:butt;stroke-linejoin:miter;stroke:rgb(0%,0%,0%);stroke-opacity:1;stroke-miterlimit:10;" d="M 0.857148 0.110391 L 0.467539 0.0454688 L 0.142852 0.0454688 L 0.0779297 0.435078 L 0.272734 0.824687 L 0.597422 0.954531 L 0.92207 0.889609 L 0.727266 0.824687 L 0.727266 0.305195 Z M 0.857148 0.110391 " transform="matrix(100,0,0,100,600,2150)"/>
<path style="fill:none;stroke-width:0.01;stroke-linecap:butt;stroke-linejoin:miter;stroke:rgb(0%,0%,0%);stroke-opacity:1;stroke-miterlimit:10;" d="M 0.784102 0.310625 L 0.670469 0.272734 L 0.632578 0.0833203 L 0.746211 0.0454688 L 0.481055 0.0454688 L 0.178047 0.234844 L 0.140156 0.689375 L 0.443164 0.954531 L 0.859844 0.954531 L 0.70832 0.878789 L 0.70832 0.5 L 0.670469 0.386367 Z M 0.784102 0.310625 " transform="matrix(100,0,0,100,0,2300)"/>
<path style="fill:none;stroke-width:0.01;stroke-linecap:butt;stroke-linejoin:miter;stroke:rgb(0%,0%,0%);stroke-opacity:1;stroke-miterlimit:10;" d="M 0.8075 0.259375 L 0.834219 0.152422 L 0.673789 0.179141 L 0.673789 0.0989453 L 0.780742 0.0721875 L 0.540117 0.0454688 L 0.379687 0.0721875 L 0.165781 0.232617 L 0.165781 0.767383 L 0.459883 0.954531 L 0.700547 0.927813 L 0.834219 0.927813 L 0.834219 0.901055 L 0.700547 0.847578 L 0.700547 0.312852 Z M 0.8075 0.259375 " transform="matrix(100,0,0,100,150,2300)"/>
<path style="fill:none;stroke-width:0.01;stroke-linecap:butt;stroke-linejoin:miter;stroke:rgb(0%,0%,0%);stroke-opacity:1;stroke-miterlimit:10;" d="M 0.878789 0.0454688 L 0.454531 0.0454688 L 0.303047 0.0757422 L 0.060625 0.196953 L 0.060625 0.712109 L 0.303047 0.893945 L 0.727266 0.954531 L 0.878789 0.954531 L 0.878789 0.863633 L 0.727266 0.83332 L 0.727266 0.16668 L 0.939375 0.136367 Z M 0.878789 0.0454688 " transform="matrix(100,0,0,100,300,2300)"/>
<path style="fill:none;stroke-width:0.01;stroke-linecap:butt;stroke-linejoin:miter;stroke:rgb(0%,0%,0%);stroke-opacity:1;stroke-miterlimit:10;" d="M 0.797187 0.954531 L 0.412578 0.91957 L 0.377617 0.849648 L 0.237773 0.744766 L 0.202813 0.290195 L 0.377617 0.220273 L 0.4825 0.0454688 L 0.762227 0.115391 L 0.762227 0.220273 L 0.692305 0.290195 L 0.657344 0.465039 L 0.692305 0.849648 Z M 0.797187 0.954531 " transform="matrix(100,0,0,100,450,2300)"/>
<path style="fill:none;stroke-width:0.01;stroke-linecap:butt;stroke-linejoin:miter;stroke:rgb(0%,0%,0%);stroke-opacity:1;stroke-miterlimit:10;" d="M 0.869961 0.151172 L 0.891133 0.0666016 L 0.468281 0.0454688 L 0.320312 0.151172 L 0.108867 0.21457 L 0.108867 0.764258 L 0.278008 0.891133 L 0.679688 0.954531 L 0.848828 0.912266 L 0.869961 0.827695 L 0.764258 0.78543 L 0.78543 0.172305 Z M 0.869961 0.151172 " transform="matrix(100,0,0,100,600,2300)"/>
<path style="fill:none;stroke-width:0.01;stroke-linecap:butt;stroke-linejoin:miter;stroke:rgb(0%,0%,0%);stroke-opacity:1;stroke-miterlimit:10;" d="M 0.897734 0.0454688 L 0.215898 0.159102 L 0.102266 0.727266 L 0.329531 0.954531 L 0.784102 0.954531 L 0.670469 0.954531 L 0.670469 0.5 Z M 0.897734 0.0454688 " transform="matrix(100,0,0,100,0,2450)"/>
<path style="fill:none;stroke-width:0.01;stroke-linecap:butt;stroke-linejoin:miter;stroke:rgb(0%,0%,0%);stroke-opacity:1;stroke-miterlimit:10;" d="M 0.889609 0.0454688 L 0.435078 0.110391 L 0.110391 0.175313 L 0.110391 0.759727 L 0.5 0.954531 L 0.889609 0.889609 L 0.759727 0.824687 L 0.759727 0.305195 Z M 0.889609 0.0454688 " transform="matrix(100,0,0,100,150,2450)"/>
<path style="fill:none;stroke-width:0.01;stroke-linecap:butt;stroke-linejoin:miter;stroke:rgb(0%,0%,0%);stroke-opacity:1;stroke-miterlimit:10;" d="M 0.954531 0.0849609 L 0.598828 0.0849609 L 0.243086 0.164023 L 0.0454687 0.203555 L 0.0454687 0.677852 L 0.440703 0.875508 L 0.717383 0.915039 L 0.954531 0.875508 L 0.835977 0.756914 L 0.835977 0.203555 Z M 0.954531 0.0849609 " transform="matrix(100,0,0,100,300,2450)"/>
<path style="fill:none;stroke-width:0.01;stroke-linecap:butt;stroke-linejoin:miter;stroke:rgb(0%,0%,0%);stroke-opacity:1;stroke-miterlimit:10;" d="M 0.772734 0.0454688 L 0.409102 0.0454688 L 0.136367 0.227266 L 0.136367 0.772734 L 0.590898 0.954531 L 0.863633 0.954531 L 0.772734 0.863633 Z M 0.772734 0.0454688 " transform="matrix(100,0,0,100,450,2450)"/>
<path style="fill:none;stroke-width:0.01;stroke-linecap:butt;stroke-linejoin:miter;stroke:rgb(0%,0%,0%);stroke-opacity:1;stroke-miterlimit:10;" d="M 0.670469 0.0454688 L 0.215898 0.272734 L 0.215898 0.727266 L 0.784102 0.954531 L 0.670469 0.727266 Z M 0.670469 0.0454688 " transform="matrix(100,0,0,100,600,2450)"/>
<path style="fill:none;stroke-width:0.01;stroke-linecap:butt;stroke-linejoin:miter;stroke:rgb(0%,0%,0%);stroke-opacity:1;stroke-miterlimit:10;" d="M 0.954531 0.0454688 L 0.227266 0.136367 L 0.0454688 0.590898 L 0.227266 0.863633 L 0.590898 0.954531 L 0.954531 0.954531 L 0.863633 0.954531 L 0.863633 0.5 Z M 0.954531 0.0454688 " transform="matrix(100,0,0,100,0,2600)"/>
<path style="fill:none;stroke-width:0.01;stroke-linecap:butt;stroke-linejoin:miter;stroke:rgb(0%,0%,0%);stroke-opacity:1;stroke-miterlimit:10;" d="M 0.954531 0.0454688 L 0.575742 0.0454688 L 0.121211 0.121211 L 0.0454687 0.727266 L 0.196953 0.878789 L 0.803047 0.954531 L 0.954531 0.878789 L 0.803047 0.878789 L 0.727266 0.348477 Z M 0.954531 0.0454688 " transform="matrix(100,0,0,100,150,2600)"/>
<path style="fill:none;stroke-width:0.01;stroke-linecap:butt;stroke-linejoin:miter;stroke:rgb(0%,0%,0%);stroke-opacity:1;stroke-miterlimit:10;" d="M 0.765156 0.0454688 L 0.386367 0.121211 L 0.159102 0.348477 L 0.159102 0.803047 L 0.689375 0.954531 L 0.840898 0.954531 L 0.613633 0.878789 L 0.613633 0.272734 Z M 0.765156 0.0454688 " transform="matrix(100,0,0,100,300,2600)"/>
<path style="fill:none;stroke-width:0.01;stroke-linecap:butt;stroke-linejoin:miter;stroke:rgb(0%,0%,0%);stroke-opacity:1;stroke-miterlimit:10;" d="M 0.83332 0.0454688 L 0.409102 0.106055 L 0.106055 0.227266 L 0.106055 0.772734 L 0.893945 0.954531 L 0.83332 0.893945 L 0.772734 0.409102 Z M 0.83332 0.0454688 " transform="matrix(100,0,0,100,450,2600)"/>
<path style="fill:none;stroke-width:0.01;stroke-linecap:butt;stroke-linejoin:miter;stroke:rgb(0%,0%,0%);stroke-opacity:1;stroke-miterlimit:10;" d="M 0.794102 0.259375 L 0.633672 0.0454688 L 0.366328 0.0454688 L 0.205898 0.259375 L 0.152422 0.847578 L 0.687148 0.954531 L 0.847578 0.954531 L 0.740625 0.901055 L 0.687148 0.419805 Z M 0.794102 0.259375 " transform="matrix(100,0,0,100,600,2600)"/>
<path style="fill:none;stroke-width:0.01;stroke-linecap:butt;stroke-linejoin:miter;stroke:rgb(0%,0%,0%);stroke-opacity:1;stroke-miterlimit:10;" d="M 0.846328 0.175313 L 0.759727 0.0454688 L 0.413438 0.08875 L 0.153672 0.305195 L 0.153672 0.738086 L 0.326836 0.954531 L 0.586562 0.954531 L 0.846328 0.91125 L 0.716445 0.91125 L 0.716445 0.305195 Z M 0.846328 0.175313 " transform="matrix(100,0,0,100,0,2750)"/>
<path style="fill:none;stroke-width:0.01;stroke-linecap:butt;stroke-linejoin:miter;stroke:rgb(0%,0%,0%);stroke-opacity:1;stroke-miterlimit:10;" d="M 0.789258 0.954531 L 0.210742 0.871914 L 0.128086 0.210742 L 0.706602 0.0454688 L 0.871914 0.0454688 L 0.706602 0.128086 L 0.789258 0.541328 Z M 0.789258 0.954531 " transform="matrix(100,0,0,100,150,2750)"/>
<path style="fill:none;stroke-width:0.01;stroke-linecap:butt;stroke-linejoin:miter;stroke:rgb(0%,0%,0%);stroke-opacity:1;stroke-miterlimit:10;" d="M 0.803047 0.175313 L 0.586562 0.0454688 L 0.196953 0.348477 L 0.110391 0.824687 L 0.370117 0.954531 L 0.889609 0.954531 L 0.716445 0.954531 L 0.716445 0.348477 Z M 0.803047 0.175313 " transform="matrix(100,0,0,100,300,2750)"/>
<path style="fill:none;stroke-width:0.01;stroke-linecap:butt;stroke-linejoin:miter;stroke:rgb(0%,0%,0%);stroke-opacity:1;stroke-miterlimit:10;" d="M 0.929961 0.192891 L 0.85625 0.11918 L 0.684258 0.14375 L 0.561406 0.0946094 L 0.635117 0.0700391 L 0.364883 0.14375 L 0.0454688 0.242031 L 0.0700391 0.807109 L 0.463164 0.929961 L 0.708828 0.905391 L 0.905391 0.905391 L 0.954531 0.85625 L 0.782539 0.83168 L 0.757969 0.561406 L 0.733398 0.315742 Z M 0.929961 0.192891 " transform="matrix(100,0,0,100,450,2750)"/>
<path style="fill:none;stroke-width:0.01;stroke-linecap:butt;stroke-linejoin:miter;stroke:rgb(0%,0%,0%);stroke-opacity:1;stroke-miterlimit:10;" d="M 0.784102 0.0833203 L 0.405312 0.0454688 L 0.178047 0.196953 L 0.140156 0.765156 L 0.443164 0.954531 L 0.859844 0.878789 L 0.746211 0.803047 L 0.746211 0.424258 Z M 0.784102 0.0833203 " transform="matrix(100,0,0,100,600,2750)"/>
<path style="fill:none;stroke-width:0.01;stroke-linecap:butt;stroke-linejoin:miter;stroke:rgb(0%,0%,0%);stroke-opacity:1;stroke-miterlimit:10;" d="M 0.858867 0.0454688 L 0.236836 0.236836 L 0.141133 0.715312 L 0.380391 0.858867 L 0.858867 0.954531 L 0.715313 0.90668 L 0.811016 0.428242 L 0.811016 0.188984 Z M 0.858867 0.0454688 " transform="matrix(100,0,0,100,0,2900)"/>
<path style="fill:none;stroke-width:0.01;stroke-linecap:butt;stroke-linejoin:miter;stroke:rgb(0%,0%,0%);stroke-opacity:1;stroke-miterlimit:10;" d="M 0.954531 0.0661328 L 0.417344 0.107422 L 0.0454687 0.272734 L 0.128086 0.809922 L 0.5 0.933867 L 0.954531 0.85125 L 0.830586 0.809922 L 0.74793 0.272734 Z M 0.954531 0.0661328 " transform="matrix(100,0,0,100,150,2900)"/>
<path style="fill:none;stroke-width:0.01;stroke-linecap:butt;stroke-linejoin:miter;stroke:rgb(0%,0%,0%);stroke-opacity:1;stroke-miterlimit:10;" d="M 0.863633 0.0454688 L 0.454531 0.0454688 L 0.181836 0.227266 L 0.136367 0.727266 L 0.5 0.954531 L 0.772734 0.909102 L 0.636367 0.909102 L 0.636367 0.409102 L 0.681836 0.272734 L 0.863633 0.227266 Z M 0.863633 0.0454688 " transform="matrix(100,0,0,100,300,2900)"/>
<path style="fill:none;stroke-width:0.01;stroke-linecap:butt;stroke-linejoin:miter;stroke:rgb(0%,0%,0%);stroke-opacity:1;stroke-miterlimit:10;" d="M 0.858867 0.069375 L 0.595703 0.0454688 L 0.380391 0.0933203 L 0.117227 0.21293 L 0.141133 0.78707 L 0.428242 0.954531 L 0.763164 0.930625 L 0.882773 0.90668 L 0.763164 0.90668 L 0.739219 0.21293 L 0.739219 0.165078 Z M 0.858867 0.069375 " transform="matrix(100,0,0,100,450,2900)"/>
<path style="fill:none;stroke-width:0.01;stroke-linecap:butt;stroke-linejoin:miter;stroke:rgb(0%,0%,0%);stroke-opacity:1;stroke-miterlimit:10;" d="M 0.8125 0.0738672 L 0.386367 0.0454688 L 0.159102 0.215898 L 0.130664 0.755664 L 0.414766 0.954531 L 0.840898 0.954531 L 0.840898 0.897734 L 0.727266 0.869336 L 0.727266 0.1875 L 0.869336 0.1875 Z M 0.8125 0.0738672 " transform="matrix(100,0,0,100,600,2900)"/>
<path style="fill:none;stroke-width:0.01;stroke-linecap:butt;stroke-linejoin:miter;stroke:rgb(0%,0%,0%);stroke-opacity:1;stroke-miterlimit:10;" d="M 0.838008 0.208633 L 0.814688 0.138711 L 0.721445 0.0454688 L 0.371797 0.0454688 L 0.138711 0.255234 L 0.115391 0.744766 L 0.418398 0.90793 L 0.768047 0.954531 L 0.814688 0.90793 L 0.884609 0.861289 L 0.884609 0.791367 L 0.768047 0.791367 L 0.768047 0.325156 Z M 0.838008 0.208633 " transform="matrix(100,0,0,100,0,3050)"/>
<path style="fill:none;stroke-width:0.01;stroke-linecap:butt;stroke-linejoin:miter;stroke:rgb(0%,0%,0%);stroke-opacity:1;stroke-miterlimit:10;" d="M 0.146445 0.247461 L 0.180117 0.819883 L 0.483164 0.954531 L 0.786211 0.954531 L 0.752539 0.247461 L 0.853555 0.180117 L 0.853555 0.0454688 L 0.449492 0.0454688 Z M 0.146445 0.247461 " transform="matrix(100,0,0,100,150,3050)"/>
<path style="fill:none;stroke-width:0.01;stroke-linecap:butt;stroke-linejoin:miter;stroke:rgb(0%,0%,0%);stroke-opacity:1;stroke-miterlimit:10;" d="M 0.151523 0.772734 L 0.454531 0.954531 L 0.606055 0.924258 L 0.636367 0.803047 L 0.848477 0.560625 L 0.878789 0.16668 L 0.787891 0.0454688 L 0.303047 0.0454688 L 0.121211 0.16668 Z M 0.151523 0.772734 " transform="matrix(100,0,0,100,300,3050)"/>
<path style="fill:none;stroke-width:0.01;stroke-linecap:butt;stroke-linejoin:miter;stroke:rgb(0%,0%,0%);stroke-opacity:1;stroke-miterlimit:10;" d="M 0.759727 0.0454688 L 0.370117 0.305195 L 0.110391 0.694805 L 0.240273 0.824687 L 0.629883 0.954531 L 0.889609 0.954531 L 0.759727 0.954531 L 0.629883 0.564922 Z M 0.759727 0.0454688 " transform="matrix(100,0,0,100,450,3050)"/>
<path style="fill:none;stroke-width:0.01;stroke-linecap:butt;stroke-linejoin:miter;stroke:rgb(0%,0%,0%);stroke-opacity:1;stroke-miterlimit:10;" d="M 0.727266 0.0454688 L 0.159102 0.272734 L 0.159102 0.727266 L 0.5 0.954531 L 0.840898 0.954531 L 0.613633 0.954531 L 0.613633 0.386367 Z M 0.727266 0.0454688 " transform="matrix(100,0,0,100,600,3050)"/>
<path style="fill:none;stroke-width:0.01;stroke-linecap:butt;stroke-linejoin:miter;stroke:rgb(0%,0%,0%);stroke-opacity:1;stroke-miterlimit:10;" d="M 0.636367 0.0454687 L 0.181836 0.227266 L 0.0908984 0.409102 L 0.0908984 0.681836 L 0.363633 0.863633 L 0.727266 0.954531 L 0.909102 0.863633 L 0.727266 0.863633 L 0.636367 0.5 Z M 0.636367 0.0454687 " transform="matrix(100,0,0,100,0,3200)"/>
<path style="fill:none;stroke-width:0.01;stroke-linecap:butt;stroke-linejoin:miter;stroke:rgb(0%,0%,0%);stroke-opacity:1;stroke-miterlimit:10;" d="M 0.91668 0.0454687 L 0.5 0.0833203 L 0.0833203 0.234844 L 0.121211 0.727266 L 0.310625 0.878789 L 0.727266 0.954531 L 0.878789 0.878789 L 0.765156 0.878789 L 0.803047 0.234844 Z M 0.91668 0.0454687 " transform="matrix(100,0,0,100,150,3200)"/>
<path style="fill:none;stroke-width:0.01;stroke-linecap:butt;stroke-linejoin:miter;stroke:rgb(0%,0%,0%);stroke-opacity:1;stroke-miterlimit:10;" d="M 0.85125 0.0867578 L 0.561992 0.0454687 L 0.231406 0.169414 L 0.14875 0.25207 L 0.190078 0.830586 L 0.39668 0.871914 L 0.520664 0.954531 L 0.85125 0.954531 L 0.727266 0.954531 L 0.727266 0.210742 Z M 0.85125 0.0867578 " transform="matrix(100,0,0,100,300,3200)"/>
<path style="fill:none;stroke-width:0.01;stroke-linecap:butt;stroke-linejoin:miter;stroke:rgb(0%,0%,0%);stroke-opacity:1;stroke-miterlimit:10;" d="M 0.876172 0.108164 L 0.688086 0.108164 L 0.625391 0.0454687 L 0.374609 0.108164 L 0.123828 0.264883 L 0.123828 0.735117 L 0.343242 0.860508 L 0.656758 0.954531 L 0.876172 0.923203 L 0.750781 0.923203 L 0.750781 0.264883 Z M 0.876172 0.108164 " transform="matrix(100,0,0,100,450,3200)"/>
<path style="fill:none;stroke-width:0.01;stroke-linecap:butt;stroke-linejoin:miter;stroke:rgb(0%,0%,0%);stroke-opacity:1;stroke-miterlimit:10;" d="M 0.884609 0.849648 L 0.744766 0.814687 L 0.744766 0.0804297 L 0.814687 0.0454687 L 0.465039 0.0804297 L 0.150352 0.185313 L 0.115391 0.814687 L 0.325156 0.849648 L 0.639844 0.954531 L 0.709805 0.884609 Z M 0.884609 0.849648 " transform="matrix(100,0,0,100,600,3200)"/>
<path style="fill:none;stroke-width:0.01;stroke-linecap:butt;stroke-linejoin:miter;stroke:rgb(0%,0%,0%);stroke-opacity:1;stroke-miterlimit:10;" d="M 0.759727 0.0454687 L 0.240273 0.0454687 L 0.110391 0.305195 L 0.110391 0.694805 L 0.370117 0.824688 L 0.889609 0.954531 L 0.629883 0.954531 L 0.629883 0.435078 Z M 0.759727 0.0454687 " transform="matrix(100,0,0,100,0,3350)"/>
<path style="fill:none;stroke-width:0.01;stroke-linecap:butt;stroke-linejoin:miter;stroke:rgb(0%,0%,0%);stroke-opacity:1;stroke-miterlimit:10;" d="M 0.891133 0.172305 L 0.869961 0.0877344 L 0.679688 0.0666016 L 0.616289 0.0454687 L 0.426016 0.0666016 L 0.0666016 0.21457 L 0.0666016 0.743125 L 0.341445 0.869961 L 0.426016 0.912266 L 0.721992 0.954531 L 0.806563 0.954531 L 0.933398 0.933398 L 0.912266 0.912266 L 0.869961 0.848828 L 0.869961 0.235742 Z M 0.891133 0.172305 " transform="matrix(100,0,0,100,150,3350)"/>
<path style="fill:none;stroke-width:0.01;stroke-linecap:butt;stroke-linejoin:miter;stroke:rgb(0%,0%,0%);stroke-opacity:1;stroke-miterlimit:10;" d="M 0.954531 0.145469 L 0.518164 0.145469 L 0.209102 0.2 L 0.0454687 0.272734 L 0.0454687 0.727266 L 0.354531 0.818164 L 0.627266 0.854531 L 0.790898 0.8 L 0.954531 0.8 L 0.954531 0.745469 L 0.9 0.727266 L 0.9 0.236367 Z M 0.954531 0.145469 " transform="matrix(100,0,0,100,300,3350)"/>
<path style="fill:none;stroke-width:0.01;stroke-linecap:butt;stroke-linejoin:miter;stroke:rgb(0%,0%,0%);stroke-opacity:1;stroke-miterlimit:10;" d="M 0.121211 0.247461 L 0.121211 0.752539 L 0.28957 0.870352 L 0.306406 0.920859 L 0.441094 0.937695 L 0.54207 0.920859 L 0.643086 0.954531 L 0.609414 0.937695 L 0.659922 0.836719 L 0.744102 0.836719 L 0.845117 0.853555 L 0.845117 0.803047 L 0.794609 0.752539 L 0.794609 0.129648 L 0.861953 0.129648 L 0.878789 0.0454687 L 0.71043 0.0454687 L 0.474766 0.0623047 L 0.272734 0.129648 Z M 0.121211 0.247461 " transform="matrix(100,0,0,100,450,3350)"/>
<path style="fill:none;stroke-width:0.01;stroke-linecap:butt;stroke-linejoin:miter;stroke:rgb(0%,0%,0%);stroke-opacity:1;stroke-miterlimit:10;" d="M 0.681836 0.0454687 L 0.136367 0.227266 L 0.136367 0.772734 L 0.863633 0.954531 L 0.681836 0.954531 Z M 0.681836 0.0454687 " transform="matrix(100,0,0,100,600,3350)"/>
<path style="fill:none;stroke-width:0.01;stroke-linecap:butt;stroke-linejoin:miter;stroke:rgb(0%,0%,0%);stroke-opacity:1;stroke-miterlimit:10;" d="M 0.784102 0.0454687 L 0.215898 0.386367 L 0.102266 0.727266 L 0.670469 0.954531 L 0.897734 0.954531 L 0.670469 0.954531 L 0.556836 0.5 Z M 0.784102 0.0454687 " transform="matrix(100,0,0,100,0,3500)"/>
<path style="fill:none;stroke-width:0.01;stroke-linecap:butt;stroke-linejoin:miter;stroke:rgb(0%,0%,0%);stroke-opacity:1;stroke-miterlimit:10;" d="M 0.904023 0.0454687 L 0.196953 0.247461 L 0.0959766 0.651523 L 0.398984 0.954531 L 0.803047 0.954531 L 0.702031 0.954531 L 0.601016 0.550508 Z M 0.904023 0.0454687 " transform="matrix(100,0,0,100,150,3500)"/>
<path style="fill:none;stroke-width:0.01;stroke-linecap:butt;stroke-linejoin:miter;stroke:rgb(0%,0%,0%);stroke-opacity:1;stroke-miterlimit:10;" d="M 0.878789 0.0454687 L 0.424258 0.121211 L 0.121211 0.348477 L 0.121211 0.803047 L 0.575742 0.954531 L 0.878789 0.878789 L 0.803047 0.803047 L 0.727266 0.5 Z M 0.878789 0.0454687 " transform="matrix(100,0,0,100,300,3500)"/>
<path style="fill:none;stroke-width:0.01;stroke-linecap:butt;stroke-linejoin:miter;stroke:rgb(0%,0%,0%);stroke-opacity:1;stroke-miterlimit:10;" d="M 0.706602 0.0454687 L 0.128086 0.293398 L 0.128086 0.789258 L 0.623984 0.954531 L 0.871914 0.871914 L 0.706602 0.871914 L 0.623984 0.458672 Z M 0.706602 0.0454687 " transform="matrix(100,0,0,100,450,3500)"/>
<path style="fill:none;stroke-width:0.01;stroke-linecap:butt;stroke-linejoin:miter;stroke:rgb(0%,0%,0%);stroke-opacity:1;stroke-miterlimit:10;" d="M 0.845469 0.809102 L 0.7 0.809102 L 0.663633 0.372734 L 0.663633 0.154531 L 0.845469 0.154531 L 0.845469 0.0454687 L 0.445469 0.0818359 L 0.154531 0.3 L 0.154531 0.7 L 0.445469 0.881836 L 0.627266 0.954531 L 0.7 0.845469 Z M 0.845469 0.809102 " transform="matrix(100,0,0,100,600,3500)"/>
<path style="fill:none;stroke-width:0.01;stroke-linecap:butt;stroke-linejoin:miter;stroke:rgb(0%,0%,0%);stroke-opacity:1;stroke-miterlimit:10;" d="M 0.818164 0.136367 L 0.818164 0.0454687 L 0.424258 0.0454687 L 0.212109 0.287891 L 0.181836 0.742422 L 0.393945 0.954531 L 0.818164 0.954531 L 0.818164 0.83332 L 0.696953 0.803047 L 0.696953 0.196953 Z M 0.818164 0.136367 " transform="matrix(100,0,0,100,0,3650)"/>
<path style="fill:none;stroke-width:0.01;stroke-linecap:butt;stroke-linejoin:miter;stroke:rgb(0%,0%,0%);stroke-opacity:1;stroke-miterlimit:10;" d="M 0.904023 0.853555 L 0.904023 0.752539 L 0.769375 0.752539 L 0.769375 0.213789 L 0.904023 0.146445 L 0.870352 0.0454687 L 0.466328 0.0791406 L 0.129648 0.281133 L 0.0959766 0.752539 L 0.432656 0.954531 L 0.735703 0.954531 Z M 0.904023 0.853555 " transform="matrix(100,0,0,100,150,3650)"/>
<path style="fill:none;stroke-width:0.01;stroke-linecap:butt;stroke-linejoin:miter;stroke:rgb(0%,0%,0%);stroke-opacity:1;stroke-miterlimit:10;" d="M 0.8125 0.130664 L 0.8125 0.0454687 L 0.471602 0.0738672 L 0.130664 0.244336 L 0.130664 0.727266 L 0.301133 0.840898 L 0.5 0.954531 L 0.642031 0.926133 L 0.727266 0.840898 L 0.840898 0.840898 L 0.869336 0.755664 L 0.727266 0.727266 L 0.727266 0.215898 Z M 0.8125 0.130664 " transform="matrix(100,0,0,100,300,3650)"/>
<path style="fill:none;stroke-width:0.01;stroke-linecap:butt;stroke-linejoin:miter;stroke:rgb(0%,0%,0%);stroke-opacity:1;stroke-miterlimit:10;" d="M 0.901055 0.0721875 L 0.366328 0.179141 L 0.0989453 0.286094 L 0.0454688 0.767383 L 0.419805 0.927813 L 0.954531 0.874336 L 0.740625 0.820859 L 0.740625 0.33957 L 0.954531 0.232617 Z M 0.901055 0.0721875 " transform="matrix(100,0,0,100,450,3650)"/>
<path style="fill:none;stroke-width:0.01;stroke-linecap:butt;stroke-linejoin:miter;stroke:rgb(0%,0%,0%);stroke-opacity:1;stroke-miterlimit:10;" d="M 0.954531 0.1875 L 0.954531 0.0738672 L 0.727266 0.0738672 L 0.698867 0.0454687 L 0.0454688 0.215898 L 0.0454688 0.8125 L 0.215898 0.954531 L 0.926133 0.954531 L 0.926133 0.869336 L 0.755664 0.840898 L 0.755664 0.244336 Z M 0.954531 0.1875 " transform="matrix(100,0,0,100,600,3650)"/>
<path style="fill:none;stroke-width:0.01;stroke-linecap:butt;stroke-linejoin:miter;stroke:rgb(0%,0%,0%);stroke-opacity:1;stroke-miterlimit:10;" d="M 0.794102 0.0454687 L 0.312852 0.0989453 L 0.0989453 0.366328 L 0.152422 0.740625 L 0.366328 0.901055 L 0.847578 0.954531 L 0.901055 0.740625 L 0.687148 0.740625 L 0.633672 0.312852 L 0.901055 0.312852 Z M 0.794102 0.0454687 " transform="matrix(100,0,0,100,0,3800)"/>
<path style="fill:none;stroke-width:0.01;stroke-linecap:butt;stroke-linejoin:miter;stroke:rgb(0%,0%,0%);stroke-opacity:1;stroke-miterlimit:10;" d="M 0.83332 0.0454687 L 0.409102 0.106055 L 0.16668 0.348477 L 0.16668 0.772734 L 0.348477 0.954531 L 0.83332 0.893945 L 0.772734 0.893945 L 0.651523 0.590898 L 0.651523 0.409102 Z M 0.83332 0.0454687 " transform="matrix(100,0,0,100,150,3800)"/>
<path style="fill:none;stroke-width:0.01;stroke-linecap:butt;stroke-linejoin:miter;stroke:rgb(0%,0%,0%);stroke-opacity:1;stroke-miterlimit:10;" d="M 0.818164 0.0454687 L 0.272734 0.227266 L 0.181836 0.863633 L 0.636367 0.863633 L 0.727266 0.954531 L 0.818164 0.863633 L 0.636367 0.772734 L 0.636367 0.5 Z M 0.818164 0.0454687 " transform="matrix(100,0,0,100,300,3800)"/>
<path style="fill:none;stroke-width:0.01;stroke-linecap:butt;stroke-linejoin:miter;stroke:rgb(0%,0%,0%);stroke-opacity:1;stroke-miterlimit:10;" d="M 0.846328 0.175313 L 0.846328 0.0454687 L 0.5 0.0454687 L 0.153672 0.305195 L 0.196953 0.824688 L 0.413437 0.954531 L 0.716445 0.954531 L 0.846328 0.91125 L 0.846328 0.738086 L 0.716445 0.738086 L 0.759727 0.305195 Z M 0.846328 0.175313 " transform="matrix(100,0,0,100,450,3800)"/>
<path style="fill:none;stroke-width:0.01;stroke-linecap:butt;stroke-linejoin:miter;stroke:rgb(0%,0%,0%);stroke-opacity:1;stroke-miterlimit:10;" d="M 0.897734 0.244336 L 0.897734 0.130664 L 0.869336 0.0454687 L 0.414766 0.0738672 L 0.1875 0.1875 L 0.102266 0.5 L 0.130664 0.869336 L 0.556836 0.926133 L 0.670469 0.954531 L 0.897734 0.926133 L 0.897734 0.8125 L 0.755664 0.784102 L 0.784102 0.301133 Z M 0.897734 0.244336 " transform="matrix(100,0,0,100,600,3800)"/>
<path style="fill:none;stroke-width:0.01;stroke-linecap:butt;stroke-linejoin:miter;stroke:rgb(0%,0%,0%);stroke-opacity:1;stroke-miterlimit:10;" d="M 0.863633 0.0454687 L 0.0454688 0.227266 L 0.0454688 0.681836 L 0.590898 0.954531 L 0.954531 0.863633 L 0.590898 0.863633 L 0.681836 0.409102 Z M 0.863633 0.0454687 " transform="matrix(100,0,0,100,0,3950)"/>
<path style="fill:none;stroke-width:0.01;stroke-linecap:butt;stroke-linejoin:miter;stroke:rgb(0%,0%,0%);stroke-opacity:1;stroke-miterlimit:10;" d="M 0.863633 0.0454687 L 0.5 0.136367 L 0.136367 0.318164 L 0.136367 0.681836 L 0.5 0.863633 L 0.772734 0.954531 L 0.681836 0.863633 L 0.590898 0.5 Z M 0.863633 0.0454687 " transform="matrix(100,0,0,100,150,3950)"/>
<path style="fill:none;stroke-width:0.01;stroke-linecap:butt;stroke-linejoin:miter;stroke:rgb(0%,0%,0%);stroke-opacity:1;stroke-miterlimit:10;" d="M 0.826523 0.160703 L 0.826523 0.0966797 L 0.736875 0.0710547 L 0.724063 0.0454687 L 0.403984 0.0582422 L 0.173477 0.211914 L 0.173477 0.788086 L 0.352734 0.890508 L 0.493594 0.928945 L 0.724063 0.954531 L 0.813711 0.890508 L 0.826523 0.839297 L 0.736875 0.826523 L 0.7625 0.199102 Z M 0.826523 0.160703 " transform="matrix(100,0,0,100,300,3950)"/>
<path style="fill:none;stroke-width:0.01;stroke-linecap:butt;stroke-linejoin:miter;stroke:rgb(0%,0%,0%);stroke-opacity:1;stroke-miterlimit:10;" d="M 0.91668 0.253789 L 0.935625 0.159102 L 0.821953 0.159102 L 0.765156 0.102266 L 0.821953 0.0833203 L 0.878789 0.064375 L 0.840898 0.0454687 L 0.70832 0.064375 L 0.121211 0.121211 L 0.0833203 0.29168 L 0.064375 0.859844 L 0.613633 0.954531 L 0.765156 0.91668 L 0.91668 0.91668 L 0.91668 0.803047 L 0.784102 0.784102 L 0.803047 0.348477 L 0.803047 0.310625 Z M 0.91668 0.253789 " transform="matrix(100,0,0,100,450,3950)"/>
<path style="fill:none;stroke-width:0.01;stroke-linecap:butt;stroke-linejoin:miter;stroke:rgb(0%,0%,0%);stroke-opacity:1;stroke-miterlimit:10;" d="M 0.954531 0.0454687 L 0.0454688 0.227266 L 0.0454688 0.590898 L 0.409102 0.954531 L 0.954531 0.954531 L 0.772734 0.954531 L 0.772734 0.590898 Z M 0.954531 0.0454687 " transform="matrix(100,0,0,100,600,3950)"/>
<path style="fill:none;stroke-width:0.01;stroke-linecap:butt;stroke-linejoin:miter;stroke:rgb(0%,0%,0%);stroke-opacity:1;stroke-miterlimit:10;" d="M 0.876641 0.0454687 L 0.590898 0.0454687 L 0.149336 0.149336 L 0.0974219 0.824688 L 0.383125 0.954531 L 0.850664 0.954531 L 0.876641 0.850664 L 0.720781 0.824688 L 0.720781 0.175313 L 0.902578 0.175313 Z M 0.876641 0.0454687 " transform="matrix(100,0,0,100,0,4100)"/>
</g>
</svg>
