<?xml version="1.0" encoding="UTF-8"?>
<svg xmlns="http://www.w3.org/2000/svg" xmlns:xlink="http://www.w3.org/1999/xlink" width="750pt" height="18000pt" viewBox="0 0 750 18000" version="1.1">
<g id="surface1">
<path style="fill:none;stroke-width:0.01;stroke-linecap:butt;stroke-linejoin:miter;stroke:rgb(0%,0%,0%);stroke-opacity:1;stroke-miterlimit:10;" d="M 0.638359 0.164023 L 0.559297 0.954531 L 0.361641 0.915039 L 0.401172 0.480234 L 0.440703 0.124492 L 0.440703 0.0454687 Z M 0.638359 0.164023 " transform="matrix(100,0,0,100,0,200)"/>
<path style="fill:none;stroke-width:0.01;stroke-linecap:butt;stroke-linejoin:miter;stroke:rgb(0%,0%,0%);stroke-opacity:1;stroke-miterlimit:10;" d="M 0.675625 0.438008 L 0.613633 0.541328 L 0.572305 0.665273 L 0.530977 0.768594 L 0.530977 0.892578 L 0.469023 0.954531 L 0.283047 0.85125 L 0.283047 0.665273 L 0.345039 0.644609 L 0.365703 0.458672 L 0.365703 0.0867578 L 0.469023 0.0454687 L 0.530977 0.107422 L 0.592969 0.128086 L 0.716953 0.128086 L 0.613633 0.128086 L 0.613633 0.314062 L 0.654961 0.376016 Z M 0.675625 0.438008 " transform="matrix(100,0,0,100,150,200)"/>
<path style="fill:none;stroke-width:0.01;stroke-linecap:butt;stroke-linejoin:miter;stroke:rgb(0%,0%,0%);stroke-opacity:1;stroke-miterlimit:10;" d="M 0.759727 0.928555 L 0.57793 0.954531 L 0.42207 0.928555 L 0.214297 0.954531 L 0.240273 0.642852 L 0.318164 0.0454687 L 0.396094 0.331172 L 0.42207 0.512969 L 0.629883 0.642852 L 0.759727 0.720781 L 0.785703 0.798711 Z M 0.759727 0.928555 " transform="matrix(100,0,0,100,300,200)"/>
<path style="fill:none;stroke-width:0.01;stroke-linecap:butt;stroke-linejoin:miter;stroke:rgb(0%,0%,0%);stroke-opacity:1;stroke-miterlimit:10;" d="M 0.601016 0.853555 L 0.550508 0.474766 L 0.550508 0.0454687 L 0.449492 0.146445 L 0.398984 0.37375 L 0.398984 0.752539 L 0.449492 0.954531 L 0.575742 0.954531 Z M 0.601016 0.853555 " transform="matrix(100,0,0,100,450,200)"/>
<path style="fill:none;stroke-width:0.01;stroke-linecap:butt;stroke-linejoin:miter;stroke:rgb(0%,0%,0%);stroke-opacity:1;stroke-miterlimit:10;" d="M 0.746211 0.803047 L 0.746211 0.613633 L 0.670469 0.5 L 0.746211 0.424258 L 0.70832 0.310625 L 0.594688 0.310625 L 0.556836 0.196953 L 0.670469 0.159102 L 0.632578 0.0833203 L 0.518945 0.0454687 L 0.29168 0.121211 L 0.253789 0.462109 L 0.29168 0.765156 L 0.405312 0.954531 L 0.518945 0.954531 Z M 0.746211 0.803047 " transform="matrix(100,0,0,100,600,200)"/>
<path style="fill:none;stroke-width:0.01;stroke-linecap:butt;stroke-linejoin:miter;stroke:rgb(0%,0%,0%);stroke-opacity:1;stroke-miterlimit:10;" d="M 0.555078 0.389805 L 0.555078 0.196953 L 0.431133 0.210742 L 0.417344 0.0454687 L 0.362266 0.0454687 L 0.376016 0.706602 L 0.389805 0.940781 L 0.458672 0.954531 L 0.5 0.899453 L 0.527539 0.789258 L 0.527539 0.720391 L 0.637734 0.679062 L 0.637734 0.623984 L 0.555078 0.513789 Z M 0.555078 0.389805 " transform="matrix(100,0,0,100,0,350)"/>
<path style="fill:none;stroke-width:0.01;stroke-linecap:butt;stroke-linejoin:miter;stroke:rgb(0%,0%,0%);stroke-opacity:1;stroke-miterlimit:10;" d="M 0.568711 0.288594 L 0.558125 0.394297 L 0.536992 0.510586 L 0.536992 0.595156 L 0.526445 0.679688 L 0.505273 0.806563 L 0.505273 0.933398 L 0.494727 0.954531 L 0.463008 0.933398 L 0.452422 0.827695 L 0.441875 0.774844 L 0.473555 0.743125 L 0.484141 0.711406 L 0.452422 0.648008 L 0.452422 0.605703 L 0.463008 0.563438 L 0.431289 0.478867 L 0.452422 0.309727 L 0.473555 0.235742 L 0.452422 0.172305 L 0.441875 0.0454687 L 0.473555 0.108867 L 0.526445 0.172305 L 0.568711 0.235742 Z M 0.568711 0.288594 " transform="matrix(100,0,0,100,150,350)"/>
<path style="fill:none;stroke-width:0.01;stroke-linecap:butt;stroke-linejoin:miter;stroke:rgb(0%,0%,0%);stroke-opacity:1;stroke-miterlimit:10;" d="M 0.536367 0.954531 L 0.609102 0.772734 L 0.536367 0.590898 L 0.645469 0.518164 L 0.681836 0.409102 L 0.572734 0.3 L 0.645469 0.227266 L 0.536367 0.118164 L 0.354531 0.0454687 L 0.318164 0.227266 L 0.318164 0.554531 L 0.354531 0.918164 Z M 0.536367 0.954531 " transform="matrix(100,0,0,100,300,350)"/>
<path style="fill:none;stroke-width:0.01;stroke-linecap:butt;stroke-linejoin:miter;stroke:rgb(0%,0%,0%);stroke-opacity:1;stroke-miterlimit:10;" d="M 0.768594 0.830586 L 0.479336 0.954531 L 0.355391 0.954531 L 0.314063 0.706602 L 0.314063 0.541328 L 0.231406 0.334727 L 0.314063 0.0454687 L 0.355391 0.0867578 L 0.520664 0.293398 L 0.520664 0.376016 L 0.479336 0.5 L 0.520664 0.582656 L 0.644609 0.623984 Z M 0.768594 0.830586 " transform="matrix(100,0,0,100,450,350)"/>
<path style="fill:none;stroke-width:0.01;stroke-linecap:butt;stroke-linejoin:miter;stroke:rgb(0%,0%,0%);stroke-opacity:1;stroke-miterlimit:10;" d="M 0.713906 0.473281 L 0.66043 0.0454687 L 0.446523 0.0989453 L 0.286094 0.312852 L 0.286094 0.580195 L 0.393047 0.901055 L 0.33957 0.954531 L 0.606953 0.847578 L 0.713906 0.794102 Z M 0.713906 0.473281 " transform="matrix(100,0,0,100,600,350)"/>
<path style="fill:none;stroke-width:0.01;stroke-linecap:butt;stroke-linejoin:miter;stroke:rgb(0%,0%,0%);stroke-opacity:1;stroke-miterlimit:10;" d="M 0.689375 0.348477 L 0.5 0.878789 L 0.386367 0.954531 L 0.310625 0.727266 L 0.462109 0.348477 L 0.613633 0.0454688 L 0.651523 0.121211 Z M 0.689375 0.348477 " transform="matrix(100,0,0,100,0,500)"/>
<path style="fill:none;stroke-width:0.01;stroke-linecap:butt;stroke-linejoin:miter;stroke:rgb(0%,0%,0%);stroke-opacity:1;stroke-miterlimit:10;" d="M 0.769375 0.449492 L 0.398984 0.0454688 L 0.230625 0.0791406 L 0.163281 0.281133 L 0.129648 0.58418 L 0.230625 0.786211 L 0.365312 0.819883 L 0.466328 0.954531 L 0.567344 0.887188 L 0.634688 0.819883 L 0.769375 0.685195 L 0.870352 0.718867 Z M 0.769375 0.449492 " transform="matrix(100,0,0,100,150,500)"/>
<path style="fill:none;stroke-width:0.01;stroke-linecap:butt;stroke-linejoin:miter;stroke:rgb(0%,0%,0%);stroke-opacity:1;stroke-miterlimit:10;" d="M 0.938867 0.954531 L 0.155156 0.954531 L 0.0611328 0.0454688 L 0.249219 0.0767969 L 0.656758 0.139492 Z M 0.938867 0.954531 " transform="matrix(100,0,0,100,300,500)"/>
<path style="fill:none;stroke-width:0.01;stroke-linecap:butt;stroke-linejoin:miter;stroke:rgb(0%,0%,0%);stroke-opacity:1;stroke-miterlimit:10;" d="M 0.814687 0.954531 L 0.185313 0.954531 L 0.185313 0.0454688 L 0.604883 0.395117 Z M 0.814687 0.954531 " transform="matrix(100,0,0,100,450,500)"/>
<path style="fill:none;stroke-width:0.01;stroke-linecap:butt;stroke-linejoin:miter;stroke:rgb(0%,0%,0%);stroke-opacity:1;stroke-miterlimit:10;" d="M 0.521133 0.172305 L 0.542266 0.341445 L 0.563438 0.489414 L 0.605703 0.616289 L 0.648008 0.743125 L 0.648008 0.933398 L 0.542266 0.954531 L 0.41543 0.954531 L 0.436562 0.827695 L 0.351992 0.637422 L 0.351992 0.320312 L 0.41543 0.172305 L 0.41543 0.0877344 L 0.457734 0.0454688 L 0.521133 0.0454688 Z M 0.521133 0.172305 " transform="matrix(100,0,0,100,600,500)"/>
<path style="fill:none;stroke-width:0.01;stroke-linecap:butt;stroke-linejoin:miter;stroke:rgb(0%,0%,0%);stroke-opacity:1;stroke-miterlimit:10;" d="M 0.676758 0.297969 L 0.651523 0.424258 L 0.62625 0.525234 L 0.575742 0.575742 L 0.525234 0.727266 L 0.550508 0.954531 L 0.297969 0.954531 L 0.398984 0.777773 L 0.398984 0.727266 L 0.348477 0.575742 L 0.348477 0.449492 L 0.398984 0.247461 L 0.424258 0.0454688 L 0.525234 0.0959766 L 0.550508 0.146445 L 0.702031 0.196953 Z M 0.676758 0.297969 " transform="matrix(100,0,0,100,0,650)"/>
<path style="fill:none;stroke-width:0.01;stroke-linecap:butt;stroke-linejoin:miter;stroke:rgb(0%,0%,0%);stroke-opacity:1;stroke-miterlimit:10;" d="M 0.681836 0.0454688 L 0.645469 0.336367 L 0.681836 0.590898 L 0.754531 0.7 L 0.790898 0.918164 L 0.536367 0.954531 L 0.209102 0.954531 L 0.354531 0.772734 L 0.390898 0.409102 L 0.354531 0.0454688 Z M 0.681836 0.0454688 " transform="matrix(100,0,0,100,150,650)"/>
<path style="fill:none;stroke-width:0.01;stroke-linecap:butt;stroke-linejoin:miter;stroke:rgb(0%,0%,0%);stroke-opacity:1;stroke-miterlimit:10;" d="M 0.621953 0.111992 L 0.533242 0.577617 L 0.488906 0.865859 L 0.466758 0.954531 L 0.378047 0.932383 L 0.378047 0.710625 L 0.422383 0.156328 L 0.44457 0.0454688 L 0.599766 0.0454688 Z M 0.621953 0.111992 " transform="matrix(100,0,0,100,300,650)"/>
<path style="fill:none;stroke-width:0.01;stroke-linecap:butt;stroke-linejoin:miter;stroke:rgb(0%,0%,0%);stroke-opacity:1;stroke-miterlimit:10;" d="M 0.569922 0.721445 L 0.336836 0.954531 L 0.313516 0.604883 L 0.336836 0.06875 L 0.453398 0.0454688 L 0.453398 0.231953 L 0.5 0.371797 L 0.546602 0.418398 L 0.639844 0.488359 L 0.686484 0.511641 Z M 0.569922 0.721445 " transform="matrix(100,0,0,100,450,650)"/>
<path style="fill:none;stroke-width:0.01;stroke-linecap:butt;stroke-linejoin:miter;stroke:rgb(0%,0%,0%);stroke-opacity:1;stroke-miterlimit:10;" d="M 0.64707 0.33957 L 0.566836 0.0454688 L 0.379688 0.0454688 L 0.35293 0.232617 L 0.379688 0.393047 L 0.379688 0.633672 L 0.406406 0.847578 L 0.459883 0.954531 L 0.566836 0.954531 L 0.64707 0.927812 L 0.620312 0.794102 L 0.64707 0.66043 L 0.64707 0.526719 Z M 0.64707 0.33957 " transform="matrix(100,0,0,100,600,650)"/>
<path style="fill:none;stroke-width:0.01;stroke-linecap:butt;stroke-linejoin:miter;stroke:rgb(0%,0%,0%);stroke-opacity:1;stroke-miterlimit:10;" d="M 0.636367 0.348477 L 0.515156 0.0757422 L 0.393945 0.0454687 L 0.272734 0.16668 L 0.363633 0.621211 L 0.393945 0.83332 L 0.454531 0.954531 L 0.545469 0.893945 L 0.727266 0.83332 Z M 0.636367 0.348477 " transform="matrix(100,0,0,100,0,800)"/>
<path style="fill:none;stroke-width:0.01;stroke-linecap:butt;stroke-linejoin:miter;stroke:rgb(0%,0%,0%);stroke-opacity:1;stroke-miterlimit:10;" d="M 0.646641 0.104102 L 0.705273 0.719922 L 0.558633 0.749258 L 0.529336 0.925234 L 0.353359 0.954531 L 0.324063 0.749258 L 0.324063 0.280078 L 0.294727 0.0454687 Z M 0.646641 0.104102 " transform="matrix(100,0,0,100,150,800)"/>
<path style="fill:none;stroke-width:0.01;stroke-linecap:butt;stroke-linejoin:miter;stroke:rgb(0%,0%,0%);stroke-opacity:1;stroke-miterlimit:10;" d="M 0.608711 0.0849609 L 0.529648 0.460469 L 0.470352 0.697617 L 0.43082 0.954531 L 0.411055 0.737148 L 0.411055 0.341914 L 0.391289 0.203555 L 0.43082 0.0849609 L 0.490117 0.0454687 Z M 0.608711 0.0849609 " transform="matrix(100,0,0,100,300,800)"/>
<path style="fill:none;stroke-width:0.01;stroke-linecap:butt;stroke-linejoin:miter;stroke:rgb(0%,0%,0%);stroke-opacity:1;stroke-miterlimit:10;" d="M 0.433711 0.405313 L 0.376875 0.443164 L 0.301133 0.613633 L 0.301133 0.803047 L 0.357969 0.954531 L 0.452656 0.878789 L 0.585234 0.651523 L 0.698867 0.386367 L 0.642031 0.367422 L 0.528398 0.310625 L 0.414766 0.234844 L 0.39582 0.0454687 L 0.357969 0.0454687 L 0.376875 0.424258 Z M 0.433711 0.405313 " transform="matrix(100,0,0,100,450,800)"/>
<path style="fill:none;stroke-width:0.01;stroke-linecap:butt;stroke-linejoin:miter;stroke:rgb(0%,0%,0%);stroke-opacity:1;stroke-miterlimit:10;" d="M 0.691406 0.858867 L 0.595703 0.0454687 L 0.404297 0.141133 L 0.308594 0.332539 L 0.404297 0.763164 L 0.404297 0.954531 Z M 0.691406 0.858867 " transform="matrix(100,0,0,100,600,800)"/>
<path style="fill:none;stroke-width:0.01;stroke-linecap:butt;stroke-linejoin:miter;stroke:rgb(0%,0%,0%);stroke-opacity:1;stroke-miterlimit:10;" d="M 0.782148 0.484336 L 0.405938 0.0454687 L 0.217852 0.0454687 L 0.186523 0.327578 L 0.311914 0.672422 L 0.437305 0.954531 L 0.5 0.829141 L 0.625391 0.70375 L 0.750781 0.641055 L 0.813477 0.578359 Z M 0.782148 0.484336 " transform="matrix(100,0,0,100,0,950)"/>
<path style="fill:none;stroke-width:0.01;stroke-linecap:butt;stroke-linejoin:miter;stroke:rgb(0%,0%,0%);stroke-opacity:1;stroke-miterlimit:10;" d="M 0.909102 0.431836 L 0.681836 0.25 L 0.5 0.386367 L 0.363633 0.204531 L 0.0908984 0.295469 L 0.0454687 0.704531 L 0.136367 0.795469 L 0.409102 0.704531 L 0.636367 0.613633 L 0.954531 0.568164 Z M 0.909102 0.431836 " transform="matrix(100,0,0,100,150,950)"/>
<path style="fill:none;stroke-width:0.01;stroke-linecap:butt;stroke-linejoin:miter;stroke:rgb(0%,0%,0%);stroke-opacity:1;stroke-miterlimit:10;" d="M 0.742422 0.287891 L 0.681836 0.83332 L 0.439375 0.954531 L 0.257578 0.954531 L 0.257578 0.287891 L 0.318164 0.0454687 L 0.5 0.0454687 L 0.621211 0.106055 Z M 0.742422 0.287891 " transform="matrix(100,0,0,100,300,950)"/>
<path style="fill:none;stroke-width:0.01;stroke-linecap:butt;stroke-linejoin:miter;stroke:rgb(0%,0%,0%);stroke-opacity:1;stroke-miterlimit:10;" d="M 0.824688 0.370117 L 0.564922 0.175313 L 0.305195 0.0454687 L 0.175313 0.305195 L 0.305195 0.759727 L 0.435078 0.889609 L 0.759727 0.954531 Z M 0.824688 0.370117 " transform="matrix(100,0,0,100,450,950)"/>
<path style="fill:none;stroke-width:0.01;stroke-linecap:butt;stroke-linejoin:miter;stroke:rgb(0%,0%,0%);stroke-opacity:1;stroke-miterlimit:10;" d="M 0.280078 0.631953 L 0.0454688 0.719922 L 0.0747656 0.602656 L 0.0454688 0.280078 L 0.368047 0.309375 L 0.719922 0.368047 L 0.837227 0.338711 L 0.925234 0.42668 L 0.954531 0.456016 L 0.954531 0.57332 L 0.631953 0.602656 Z M 0.280078 0.631953 " transform="matrix(100,0,0,100,600,950)"/>
<path style="fill:none;stroke-width:0.01;stroke-linecap:butt;stroke-linejoin:miter;stroke:rgb(0%,0%,0%);stroke-opacity:1;stroke-miterlimit:10;" d="M 0.560625 0.106055 L 0.560625 0.303047 L 0.575742 0.545469 L 0.560625 0.712109 L 0.560625 0.818164 L 0.590898 0.909102 L 0.515156 0.924258 L 0.439375 0.954531 L 0.424258 0.848477 L 0.409102 0.772734 L 0.439375 0.621211 L 0.454531 0.378789 L 0.484844 0.0757422 L 0.484844 0.0454687 Z M 0.560625 0.106055 " transform="matrix(100,0,0,100,0,1100)"/>
<path style="fill:none;stroke-width:0.01;stroke-linecap:butt;stroke-linejoin:miter;stroke:rgb(0%,0%,0%);stroke-opacity:1;stroke-miterlimit:10;" d="M 0.878789 0.689375 L 0.5 0.0833203 L 0.234844 0.0454687 L 0.310625 0.348477 L 0.272734 0.537891 L 0.159102 0.689375 L 0.121211 0.840898 L 0.196953 0.91668 L 0.348477 0.954531 L 0.537891 0.803047 L 0.727266 0.765156 Z M 0.878789 0.689375 " transform="matrix(100,0,0,100,150,1100)"/>
<path style="fill:none;stroke-width:0.01;stroke-linecap:butt;stroke-linejoin:miter;stroke:rgb(0%,0%,0%);stroke-opacity:1;stroke-miterlimit:10;" d="M 0.554258 0.561055 L 0.513555 0.940977 L 0.459297 0.954531 L 0.405039 0.873125 L 0.418594 0.710313 L 0.486445 0.656055 L 0.459297 0.5475 L 0.459297 0.466094 L 0.486445 0.343945 L 0.486445 0.303242 L 0.5 0.248984 L 0.472852 0.194727 L 0.486445 0.0997266 L 0.527148 0.0454687 L 0.581406 0.0454687 L 0.594961 0.153984 L 0.581406 0.289687 L 0.581406 0.466094 Z M 0.554258 0.561055 " transform="matrix(100,0,0,100,300,1100)"/>
<path style="fill:none;stroke-width:0.01;stroke-linecap:butt;stroke-linejoin:miter;stroke:rgb(0%,0%,0%);stroke-opacity:1;stroke-miterlimit:10;" d="M 0.915039 0.717383 L 0.717383 0.954531 L 0.0849609 0.954531 L 0.164023 0.756914 L 0.164023 0.361641 L 0.282617 0.0454687 L 0.401172 0.0849609 L 0.440703 0.322148 L 0.519766 0.440703 L 0.638359 0.559297 L 0.796445 0.598828 L 0.915039 0.638359 Z M 0.915039 0.717383 " transform="matrix(100,0,0,100,450,1100)"/>
<path style="fill:none;stroke-width:0.01;stroke-linecap:butt;stroke-linejoin:miter;stroke:rgb(0%,0%,0%);stroke-opacity:1;stroke-miterlimit:10;" d="M 0.715313 0.715312 L 0.667461 0.428242 L 0.619609 0.0454687 L 0.476094 0.0454687 L 0.284688 0.188984 L 0.332539 0.619609 L 0.380391 0.858867 L 0.523906 0.954531 L 0.619609 0.858867 Z M 0.715313 0.715312 " transform="matrix(100,0,0,100,600,1100)"/>
<path style="fill:none;stroke-width:0.01;stroke-linecap:butt;stroke-linejoin:miter;stroke:rgb(0%,0%,0%);stroke-opacity:1;stroke-miterlimit:10;" d="M 0.792227 0.694805 L 0.662344 0.0454687 L 0.337656 0.110391 L 0.207773 0.370117 L 0.337656 0.889609 L 0.597422 0.954531 Z M 0.792227 0.694805 " transform="matrix(100,0,0,100,0,1250)"/>
<path style="fill:none;stroke-width:0.01;stroke-linecap:butt;stroke-linejoin:miter;stroke:rgb(0%,0%,0%);stroke-opacity:1;stroke-miterlimit:10;" d="M 0.620586 0.305195 L 0.620586 0.0454687 L 0.527813 0.0640234 L 0.416523 0.101094 L 0.416523 0.249531 L 0.397969 0.379414 L 0.32375 0.490742 L 0.397969 0.694805 L 0.453633 0.750469 L 0.416523 0.917422 L 0.397969 0.954531 L 0.67625 0.954531 L 0.657695 0.657695 Z M 0.620586 0.305195 " transform="matrix(100,0,0,100,150,1250)"/>
<path style="fill:none;stroke-width:0.01;stroke-linecap:butt;stroke-linejoin:miter;stroke:rgb(0%,0%,0%);stroke-opacity:1;stroke-miterlimit:10;" d="M 0.954531 0.623984 L 0.623984 0.376016 L 0.293398 0.0454687 L 0.0454687 0.293398 L 0.376016 0.706602 L 0.458672 0.954531 L 0.789258 0.954531 Z M 0.954531 0.623984 " transform="matrix(100,0,0,100,300,1250)"/>
<path style="fill:none;stroke-width:0.01;stroke-linecap:butt;stroke-linejoin:miter;stroke:rgb(0%,0%,0%);stroke-opacity:1;stroke-miterlimit:10;" d="M 0.613633 0.402578 L 0.418828 0.954531 L 0.321445 0.92207 L 0.48375 0.0454687 L 0.678555 0.0454687 L 0.646094 0.207773 Z M 0.613633 0.402578 " transform="matrix(100,0,0,100,450,1250)"/>
<path style="fill:none;stroke-width:0.01;stroke-linecap:butt;stroke-linejoin:miter;stroke:rgb(0%,0%,0%);stroke-opacity:1;stroke-miterlimit:10;" d="M 0.740625 0.152422 L 0.526719 0.0454687 L 0.205898 0.0454687 L 0.205898 0.312852 L 0.473281 0.526719 L 0.633672 0.847578 L 0.740625 0.954531 L 0.794102 0.633672 Z M 0.740625 0.152422 " transform="matrix(100,0,0,100,600,1250)"/>
<path style="fill:none;stroke-width:0.01;stroke-linecap:butt;stroke-linejoin:miter;stroke:rgb(0%,0%,0%);stroke-opacity:1;stroke-miterlimit:10;" d="M 0.573984 0.795977 L 0.510586 0.880547 L 0.447148 0.943984 L 0.299141 0.922852 L 0.172305 0.817109 L 0.0666016 0.795977 L 0.0454688 0.669141 L 0.193438 0.478867 L 0.404844 0.288594 L 0.489414 0.246289 L 0.595156 0.182891 L 0.658555 0.140586 L 0.806563 0.0560156 L 0.869961 0.161719 L 0.912266 0.330859 L 0.891133 0.5 L 0.954531 0.542266 L 0.891133 0.58457 L 0.806563 0.669141 L 0.743125 0.690273 Z M 0.573984 0.795977 " transform="matrix(100,0,0,100,0,1400)"/>
<path style="fill:none;stroke-width:0.01;stroke-linecap:butt;stroke-linejoin:miter;stroke:rgb(0%,0%,0%);stroke-opacity:1;stroke-miterlimit:10;" d="M 0.689375 0.272734 L 0.689375 0.954531 L 0.234844 0.954531 L 0.234844 0.272734 L 0.462109 0.0454687 L 0.765156 0.121211 Z M 0.689375 0.272734 " transform="matrix(100,0,0,100,150,1400)"/>
<path style="fill:none;stroke-width:0.01;stroke-linecap:butt;stroke-linejoin:miter;stroke:rgb(0%,0%,0%);stroke-opacity:1;stroke-miterlimit:10;" d="M 0.736367 0.336367 L 0.627266 0.481836 L 0.554531 0.7 L 0.481836 0.881836 L 0.481836 0.954531 L 0.190898 0.954531 L 0.190898 0.7 L 0.227266 0.336367 L 0.227266 0.0454687 L 0.372734 0.118164 L 0.445469 0.154531 L 0.663633 0.227266 L 0.809102 0.227266 Z M 0.736367 0.336367 " transform="matrix(100,0,0,100,300,1400)"/>
<path style="fill:none;stroke-width:0.01;stroke-linecap:butt;stroke-linejoin:miter;stroke:rgb(0%,0%,0%);stroke-opacity:1;stroke-miterlimit:10;" d="M 0.873359 0.629883 L 0.48375 0.0454687 L 0.256484 0.0779297 L 0.159102 0.207773 L 0.126641 0.402578 L 0.126641 0.954531 L 0.224023 0.889609 L 0.418828 0.792227 L 0.613633 0.759727 L 0.840898 0.759727 Z M 0.873359 0.629883 " transform="matrix(100,0,0,100,450,1400)"/>
<path style="fill:none;stroke-width:0.01;stroke-linecap:butt;stroke-linejoin:miter;stroke:rgb(0%,0%,0%);stroke-opacity:1;stroke-miterlimit:10;" d="M 0.840898 0.310625 L 0.689375 0.651523 L 0.575742 0.840898 L 0.537891 0.954531 L 0.272734 0.91668 L 0.196953 0.840898 L 0.159102 0.310625 L 0.159102 0.0454687 L 0.348477 0.0454687 L 0.537891 0.121211 L 0.651523 0.159102 L 0.840898 0.159102 Z M 0.840898 0.310625 " transform="matrix(100,0,0,100,600,1400)"/>
<path style="fill:none;stroke-width:0.01;stroke-linecap:butt;stroke-linejoin:miter;stroke:rgb(0%,0%,0%);stroke-opacity:1;stroke-miterlimit:10;" d="M 0.761719 0.706602 L 0.486211 0.0730078 L 0.320937 0.0454687 L 0.238281 0.210742 L 0.238281 0.403594 L 0.265859 0.596406 L 0.238281 0.844336 L 0.265859 0.954531 L 0.403594 0.871914 L 0.486211 0.844336 L 0.568867 0.789258 L 0.679063 0.816797 Z M 0.761719 0.706602 " transform="matrix(100,0,0,100,0,1550)"/>
<path style="fill:none;stroke-width:0.01;stroke-linecap:butt;stroke-linejoin:miter;stroke:rgb(0%,0%,0%);stroke-opacity:1;stroke-miterlimit:10;" d="M 0.752539 0.196953 L 0.777773 0.121211 L 0.702031 0.0959766 L 0.651523 0.0454687 L 0.550508 0.0707031 L 0.449492 0.0454687 L 0.272734 0.146445 L 0.146445 0.222227 L 0.121211 0.752539 L 0.146445 0.954531 L 0.37375 0.929297 L 0.5 0.878789 L 0.575742 0.777773 L 0.777773 0.777773 L 0.777773 0.575742 L 0.853555 0.575742 L 0.878789 0.474766 L 0.777773 0.424258 L 0.777773 0.37375 L 0.853555 0.37375 L 0.853555 0.323242 Z M 0.752539 0.196953 " transform="matrix(100,0,0,100,150,1550)"/>
<path style="fill:none;stroke-width:0.01;stroke-linecap:butt;stroke-linejoin:miter;stroke:rgb(0%,0%,0%);stroke-opacity:1;stroke-miterlimit:10;" d="M 0.691406 0.715312 L 0.428242 0.0454687 L 0.332539 0.069375 L 0.284687 0.165078 L 0.332539 0.332539 L 0.308594 0.571758 L 0.260781 0.811016 L 0.260781 0.954531 L 0.404297 0.954531 L 0.5 0.882773 L 0.595703 0.834922 L 0.739219 0.811016 Z M 0.691406 0.715312 " transform="matrix(100,0,0,100,300,1550)"/>
<path style="fill:none;stroke-width:0.01;stroke-linecap:butt;stroke-linejoin:miter;stroke:rgb(0%,0%,0%);stroke-opacity:1;stroke-miterlimit:10;" d="M 0.709805 0.604883 L 0.593242 0.441719 L 0.406758 0.115391 L 0.266914 0.0454687 L 0.243594 0.161992 L 0.173672 0.441719 L 0.173672 0.581602 L 0.196953 0.791367 L 0.173672 0.954531 L 0.290195 0.954531 L 0.406758 0.884609 L 0.5 0.814688 L 0.826328 0.814688 Z M 0.709805 0.604883 " transform="matrix(100,0,0,100,450,1550)"/>
<path style="fill:none;stroke-width:0.01;stroke-linecap:butt;stroke-linejoin:miter;stroke:rgb(0%,0%,0%);stroke-opacity:1;stroke-miterlimit:10;" d="M 0.696953 0.924258 L 0.636367 0.621211 L 0.66668 0.590898 L 0.66668 0.5 L 0.575742 0.469688 L 0.606055 0.378789 L 0.545469 0.257578 L 0.515156 0.196953 L 0.33332 0.0454687 L 0.303047 0.136367 L 0.303047 0.287891 L 0.393945 0.378789 L 0.363633 0.560625 L 0.363633 0.772734 L 0.484844 0.924258 L 0.545469 0.954531 Z M 0.696953 0.924258 " transform="matrix(100,0,0,100,600,1550)"/>
<path style="fill:none;stroke-width:0.01;stroke-linecap:butt;stroke-linejoin:miter;stroke:rgb(0%,0%,0%);stroke-opacity:1;stroke-miterlimit:10;" d="M 0.609727 0.202188 L 0.547031 0.954531 L 0.390273 0.860508 L 0.390273 0.390273 L 0.421641 0.139492 L 0.515664 0.0454688 Z M 0.609727 0.202188 " transform="matrix(100,0,0,100,0,1700)"/>
<path style="fill:none;stroke-width:0.01;stroke-linecap:butt;stroke-linejoin:miter;stroke:rgb(0%,0%,0%);stroke-opacity:1;stroke-miterlimit:10;" d="M 0.617852 0.247461 L 0.58418 0.685195 L 0.550508 0.920859 L 0.516836 0.954531 L 0.449492 0.853555 L 0.382148 0.58418 L 0.41582 0.382148 L 0.41582 0.146445 L 0.483164 0.0454688 L 0.617852 0.0791406 Z M 0.617852 0.247461 " transform="matrix(100,0,0,100,150,1700)"/>
<path style="fill:none;stroke-width:0.01;stroke-linecap:butt;stroke-linejoin:miter;stroke:rgb(0%,0%,0%);stroke-opacity:1;stroke-miterlimit:10;" d="M 0.651523 0.247461 L 0.651523 0.617852 L 0.617852 0.954531 L 0.281133 0.920859 L 0.314805 0.718867 L 0.348477 0.348477 L 0.449492 0.146445 L 0.58418 0.0454688 L 0.718867 0.0791406 Z M 0.651523 0.247461 " transform="matrix(100,0,0,100,300,1700)"/>
<path style="fill:none;stroke-width:0.01;stroke-linecap:butt;stroke-linejoin:miter;stroke:rgb(0%,0%,0%);stroke-opacity:1;stroke-miterlimit:10;" d="M 0.623984 0.954531 L 0.623984 0.665273 L 0.706602 0.541328 L 0.706602 0.169414 L 0.293398 0.0454688 L 0.334727 0.293398 L 0.293398 0.5 L 0.334727 0.74793 L 0.376016 0.871914 L 0.458672 0.954531 Z M 0.623984 0.954531 " transform="matrix(100,0,0,100,450,1700)"/>
<path style="fill:none;stroke-width:0.01;stroke-linecap:butt;stroke-linejoin:miter;stroke:rgb(0%,0%,0%);stroke-opacity:1;stroke-miterlimit:10;" d="M 0.901055 0.312852 L 0.794102 0.205898 L 0.366328 0.0454688 L 0.259375 0.205898 L 0.0989453 0.633672 L 0.152422 0.794102 L 0.366328 0.954531 L 0.473281 0.794102 L 0.633672 0.580195 Z M 0.901055 0.312852 " transform="matrix(100,0,0,100,600,1700)"/>
<path style="fill:none;stroke-width:0.01;stroke-linecap:butt;stroke-linejoin:miter;stroke:rgb(0%,0%,0%);stroke-opacity:1;stroke-miterlimit:10;" d="M 0.685195 0.0791406 L 0.617852 0.348477 L 0.382148 0.954531 L 0.314805 0.786211 L 0.314805 0.550508 L 0.348477 0.247461 L 0.449492 0.0454688 Z M 0.685195 0.0791406 " transform="matrix(100,0,0,100,0,1850)"/>
<path style="fill:none;stroke-width:0.01;stroke-linecap:butt;stroke-linejoin:miter;stroke:rgb(0%,0%,0%);stroke-opacity:1;stroke-miterlimit:10;" d="M 0.954531 0.318164 L 0.5 0.136367 L 0.0454687 0.590898 L 0.409102 0.863633 L 0.772734 0.772734 Z M 0.954531 0.318164 " transform="matrix(100,0,0,100,150,1850)"/>
<path style="fill:none;stroke-width:0.01;stroke-linecap:butt;stroke-linejoin:miter;stroke:rgb(0%,0%,0%);stroke-opacity:1;stroke-miterlimit:10;" d="M 0.727266 0.409102 L 0.5 0.954531 L 0.272734 0.818164 L 0.318164 0.0454688 L 0.5 0.181836 L 0.681836 0.227266 Z M 0.727266 0.409102 " transform="matrix(100,0,0,100,300,1850)"/>
<path style="fill:none;stroke-width:0.01;stroke-linecap:butt;stroke-linejoin:miter;stroke:rgb(0%,0%,0%);stroke-opacity:1;stroke-miterlimit:10;" d="M 0.789258 0.871914 L 0.789258 0.541328 L 0.954531 0.541328 L 0.293398 0.0454688 L 0.0454688 0.293398 L 0.0454688 0.789258 L 0.210742 0.954531 Z M 0.789258 0.871914 " transform="matrix(100,0,0,100,450,1850)"/>
<path style="fill:none;stroke-width:0.01;stroke-linecap:butt;stroke-linejoin:miter;stroke:rgb(0%,0%,0%);stroke-opacity:1;stroke-miterlimit:10;" d="M 0.954531 0.541328 L 0.830586 0.25207 L 0.74793 0.0867578 L 0.376016 0.0867578 L 0.128086 0.25207 L 0.0454688 0.376016 L 0.169414 0.789258 L 0.25207 0.871914 L 0.5 0.913242 L 0.623984 0.830586 L 0.706602 0.74793 Z M 0.954531 0.541328 " transform="matrix(100,0,0,100,600,1850)"/>
<path style="fill:none;stroke-width:0.01;stroke-linecap:butt;stroke-linejoin:miter;stroke:rgb(0%,0%,0%);stroke-opacity:1;stroke-miterlimit:10;" d="M 0.772734 0.409102 L 0.772734 0.0454688 L 0.5 0.0454688 L 0.227266 0.863633 L 0.409102 0.954531 L 0.681836 0.954531 Z M 0.772734 0.409102 " transform="matrix(100,0,0,100,0,2000)"/>
<path style="fill:none;stroke-width:0.01;stroke-linecap:butt;stroke-linejoin:miter;stroke:rgb(0%,0%,0%);stroke-opacity:1;stroke-miterlimit:10;" d="M 0.694805 0.738086 L 0.564922 0.954531 L 0.261914 0.91125 L 0.132031 0.867969 L 0.132031 0.435078 L 0.175312 0.0454688 L 0.435078 0.218633 L 0.651523 0.435078 L 0.867969 0.564922 Z M 0.694805 0.738086 " transform="matrix(100,0,0,100,150,2000)"/>
<path style="fill:none;stroke-width:0.01;stroke-linecap:butt;stroke-linejoin:miter;stroke:rgb(0%,0%,0%);stroke-opacity:1;stroke-miterlimit:10;" d="M 0.574375 0.0950391 L 0.640508 0.772734 L 0.623984 0.921484 L 0.541328 0.954531 L 0.475195 0.921484 L 0.458672 0.756211 L 0.392578 0.541328 L 0.359492 0.409102 L 0.392578 0.210742 L 0.409102 0.0950391 L 0.458672 0.0619922 L 0.508281 0.0454688 Z M 0.574375 0.0950391 " transform="matrix(100,0,0,100,300,2000)"/>
<path style="fill:none;stroke-width:0.01;stroke-linecap:butt;stroke-linejoin:miter;stroke:rgb(0%,0%,0%);stroke-opacity:1;stroke-miterlimit:10;" d="M 0.688086 0.358945 L 0.594062 0.672422 L 0.5 0.829141 L 0.311914 0.954531 L 0.343242 0.578359 L 0.374609 0.233555 L 0.405938 0.0454688 L 0.437305 0.139492 L 0.5 0.264883 L 0.656758 0.264883 Z M 0.688086 0.358945 " transform="matrix(100,0,0,100,450,2000)"/>
<path style="fill:none;stroke-width:0.01;stroke-linecap:butt;stroke-linejoin:miter;stroke:rgb(0%,0%,0%);stroke-opacity:1;stroke-miterlimit:10;" d="M 0.840898 0.196953 L 0.727266 0.159102 L 0.727266 0.0833203 L 0.575742 0.0454688 L 0.272734 0.159102 L 0.159102 0.348477 L 0.159102 0.651523 L 0.234844 0.840898 L 0.272734 0.954531 L 0.462109 0.878789 L 0.613633 0.954531 L 0.727266 0.91668 L 0.727266 0.651523 Z M 0.840898 0.196953 " transform="matrix(100,0,0,100,600,2000)"/>
<path style="fill:none;stroke-width:0.01;stroke-linecap:butt;stroke-linejoin:miter;stroke:rgb(0%,0%,0%);stroke-opacity:1;stroke-miterlimit:10;" d="M 0.681836 0.272734 L 0.454531 0.954531 L 0.318164 0.863633 L 0.318164 0.363633 L 0.363633 0.0454688 L 0.636367 0.0454688 Z M 0.681836 0.272734 " transform="matrix(100,0,0,100,0,2150)"/>
<path style="fill:none;stroke-width:0.01;stroke-linecap:butt;stroke-linejoin:miter;stroke:rgb(0%,0%,0%);stroke-opacity:1;stroke-miterlimit:10;" d="M 0.670469 0.204531 L 0.579531 0.431836 L 0.511367 0.954531 L 0.375 0.954531 L 0.329531 0.840898 L 0.352266 0.659102 L 0.329531 0.477266 L 0.352266 0.181836 L 0.397734 0.0681641 L 0.443164 0.0454688 L 0.556836 0.0681641 L 0.647734 0.0681641 Z M 0.670469 0.204531 " transform="matrix(100,0,0,100,150,2150)"/>
<path style="fill:none;stroke-width:0.01;stroke-linecap:butt;stroke-linejoin:miter;stroke:rgb(0%,0%,0%);stroke-opacity:1;stroke-miterlimit:10;" d="M 0.735703 0.180117 L 0.702031 0.58418 L 0.634688 0.887187 L 0.5 0.954531 L 0.365312 0.819883 L 0.297969 0.41582 L 0.264297 0.247461 L 0.297969 0.146445 L 0.5 0.0454688 L 0.668359 0.0454688 Z M 0.735703 0.180117 " transform="matrix(100,0,0,100,300,2150)"/>
<path style="fill:none;stroke-width:0.01;stroke-linecap:butt;stroke-linejoin:miter;stroke:rgb(0%,0%,0%);stroke-opacity:1;stroke-miterlimit:10;" d="M 0.698867 0.215898 L 0.471602 0.954531 L 0.301133 0.926133 L 0.357969 0.613633 L 0.414766 0.1875 L 0.471602 0.0454688 L 0.670469 0.102266 Z M 0.698867 0.215898 " transform="matrix(100,0,0,100,450,2150)"/>
<path style="fill:none;stroke-width:0.01;stroke-linecap:butt;stroke-linejoin:miter;stroke:rgb(0%,0%,0%);stroke-opacity:1;stroke-miterlimit:10;" d="M 0.668633 0.221406 L 0.463359 0.954531 L 0.419336 0.895898 L 0.316719 0.895898 L 0.390039 0.0454688 L 0.434023 0.0747656 L 0.492656 0.11875 L 0.580664 0.133437 L 0.624648 0.162773 L 0.683281 0.19207 Z M 0.668633 0.221406 " transform="matrix(100,0,0,100,600,2150)"/>
<path style="fill:none;stroke-width:0.01;stroke-linecap:butt;stroke-linejoin:miter;stroke:rgb(0%,0%,0%);stroke-opacity:1;stroke-miterlimit:10;" d="M 0.661602 0.247461 L 0.459609 0.934336 L 0.378789 0.954531 L 0.318164 0.893945 L 0.338398 0.227266 L 0.358594 0.12625 L 0.398984 0.0454688 L 0.601016 0.0656641 L 0.681836 0.106055 Z M 0.661602 0.247461 " transform="matrix(100,0,0,100,0,2300)"/>
<path style="fill:none;stroke-width:0.01;stroke-linecap:butt;stroke-linejoin:miter;stroke:rgb(0%,0%,0%);stroke-opacity:1;stroke-miterlimit:10;" d="M 0.622383 0.325156 L 0.465039 0.0454688 L 0.342656 0.0454688 L 0.342656 0.954531 L 0.430078 0.867148 L 0.465039 0.744766 L 0.5175 0.604883 L 0.552461 0.5 L 0.657344 0.465039 Z M 0.622383 0.325156 " transform="matrix(100,0,0,100,150,2300)"/>
<path style="fill:none;stroke-width:0.01;stroke-linecap:butt;stroke-linejoin:miter;stroke:rgb(0%,0%,0%);stroke-opacity:1;stroke-miterlimit:10;" d="M 0.594063 0.249219 L 0.625391 0.437305 L 0.609727 0.531367 L 0.5 0.688086 L 0.452969 0.829141 L 0.468633 0.954531 L 0.405938 0.829141 L 0.374609 0.562695 L 0.390273 0.437305 L 0.452969 0.29625 L 0.484336 0.202188 L 0.484336 0.0454688 L 0.578359 0.0767969 L 0.625391 0.155156 Z M 0.594063 0.249219 " transform="matrix(100,0,0,100,300,2300)"/>
<path style="fill:none;stroke-width:0.01;stroke-linecap:butt;stroke-linejoin:miter;stroke:rgb(0%,0%,0%);stroke-opacity:1;stroke-miterlimit:10;" d="M 0.665273 0.376016 L 0.706602 0.623984 L 0.5 0.954531 L 0.334727 0.913242 L 0.293398 0.458672 L 0.334727 0.0454688 L 0.582656 0.128086 L 0.706602 0.169414 Z M 0.665273 0.376016 " transform="matrix(100,0,0,100,450,2300)"/>
<path style="fill:none;stroke-width:0.01;stroke-linecap:butt;stroke-linejoin:miter;stroke:rgb(0%,0%,0%);stroke-opacity:1;stroke-miterlimit:10;" d="M 0.541328 0.541328 L 0.376016 0.789258 L 0.293398 0.954531 L 0.210742 0.830586 L 0.293398 0.582656 L 0.334727 0.458672 L 0.334727 0.25207 L 0.417344 0.0454688 L 0.74793 0.0454688 L 0.789258 0.169414 L 0.74793 0.376016 Z M 0.541328 0.541328 " transform="matrix(100,0,0,100,600,2300)"/>
<path style="fill:none;stroke-width:0.01;stroke-linecap:butt;stroke-linejoin:miter;stroke:rgb(0%,0%,0%);stroke-opacity:1;stroke-miterlimit:10;" d="M 0.803047 0.608242 L 0.932891 0.435078 L 0.803047 0.305195 L 0.543281 0.261914 L 0.543281 0.175313 L 0.370117 0.0454688 L 0.240273 0.132031 L 0.153672 0.261914 L 0.0671094 0.521641 L 0.0671094 0.867969 L 0.110391 0.954531 L 0.326836 0.824687 L 0.456719 0.738086 L 0.629883 0.738086 Z M 0.803047 0.608242 " transform="matrix(100,0,0,100,0,2450)"/>
<path style="fill:none;stroke-width:0.01;stroke-linecap:butt;stroke-linejoin:miter;stroke:rgb(0%,0%,0%);stroke-opacity:1;stroke-miterlimit:10;" d="M 0.828281 0.5 L 0.777773 0.247461 L 0.62625 0.146445 L 0.525234 0.0959766 L 0.323242 0.0454688 L 0.171719 0.146445 L 0.222227 0.601016 L 0.575742 0.954531 L 0.777773 0.904023 L 0.828281 0.752539 Z M 0.828281 0.5 " transform="matrix(100,0,0,100,150,2450)"/>
<path style="fill:none;stroke-width:0.01;stroke-linecap:butt;stroke-linejoin:miter;stroke:rgb(0%,0%,0%);stroke-opacity:1;stroke-miterlimit:10;" d="M 0.91668 0.348477 L 0.689375 0.575742 L 0.537891 0.575742 L 0.462109 0.878789 L 0.310625 0.954531 L 0.159102 0.5 L 0.0833203 0.272734 L 0.159102 0.0454688 L 0.537891 0.0454688 L 0.91668 0.121211 Z M 0.91668 0.348477 " transform="matrix(100,0,0,100,300,2450)"/>
<path style="fill:none;stroke-width:0.01;stroke-linecap:butt;stroke-linejoin:miter;stroke:rgb(0%,0%,0%);stroke-opacity:1;stroke-miterlimit:10;" d="M 0.863633 0.727266 L 0.863633 0.545469 L 0.636367 0.454531 L 0.636367 0.363633 L 0.545469 0.318164 L 0.636367 0.181836 L 0.409102 0.0454688 L 0.181836 0.0908984 L 0.136367 0.318164 L 0.227266 0.545469 L 0.318164 0.863633 L 0.409102 0.954531 L 0.545469 0.909102 L 0.590898 0.818164 L 0.727266 0.818164 Z M 0.863633 0.727266 " transform="matrix(100,0,0,100,450,2450)"/>
<path style="fill:none;stroke-width:0.01;stroke-linecap:butt;stroke-linejoin:miter;stroke:rgb(0%,0%,0%);stroke-opacity:1;stroke-miterlimit:10;" d="M 0.954531 0.633672 L 0.580195 0.794102 L 0.152422 0.901055 L 0.0454688 0.633672 L 0.0454688 0.0989453 L 0.312852 0.259375 L 0.473281 0.366328 L 0.847578 0.419805 L 0.794102 0.419805 Z M 0.954531 0.633672 " transform="matrix(100,0,0,100,600,2450)"/>
<path style="fill:none;stroke-width:0.01;stroke-linecap:butt;stroke-linejoin:miter;stroke:rgb(0%,0%,0%);stroke-opacity:1;stroke-miterlimit:10;" d="M 0.954531 0.784102 L 0.91668 0.632578 L 0.765156 0.632578 L 0.689375 0.443164 L 0.575742 0.215898 L 0.462109 0.140156 L 0.272734 0.215898 L 0.121211 0.29168 L 0.0833203 0.594687 L 0.0454688 0.859844 L 0.196953 0.859844 L 0.5 0.821953 L 0.803047 0.859844 Z M 0.954531 0.784102 " transform="matrix(100,0,0,100,0,2600)"/>
<path style="fill:none;stroke-width:0.01;stroke-linecap:butt;stroke-linejoin:miter;stroke:rgb(0%,0%,0%);stroke-opacity:1;stroke-miterlimit:10;" d="M 0.853555 0.348477 L 0.702031 0.803047 L 0.550508 0.954531 L 0.146445 0.904023 L 0.196953 0.247461 L 0.247461 0.0454688 L 0.601016 0.146445 L 0.752539 0.146445 Z M 0.853555 0.348477 " transform="matrix(100,0,0,100,150,2600)"/>
<path style="fill:none;stroke-width:0.01;stroke-linecap:butt;stroke-linejoin:miter;stroke:rgb(0%,0%,0%);stroke-opacity:1;stroke-miterlimit:10;" d="M 0.848477 0.803047 L 0.727266 0.409102 L 0.454531 0.0757422 L 0.272734 0.0454688 L 0.151523 0.196953 L 0.151523 0.348477 L 0.181836 0.681836 L 0.303047 0.893945 L 0.424258 0.954531 L 0.575742 0.893945 L 0.727266 0.803047 Z M 0.848477 0.803047 " transform="matrix(100,0,0,100,300,2600)"/>
<path style="fill:none;stroke-width:0.01;stroke-linecap:butt;stroke-linejoin:miter;stroke:rgb(0%,0%,0%);stroke-opacity:1;stroke-miterlimit:10;" d="M 0.78707 0.667461 L 0.547852 0.90668 L 0.356445 0.954531 L 0.21293 0.811016 L 0.21293 0.236836 L 0.356445 0.0454688 L 0.691406 0.0933203 L 0.739219 0.141133 L 0.78707 0.476094 Z M 0.78707 0.667461 " transform="matrix(100,0,0,100,450,2600)"/>
<path style="fill:none;stroke-width:0.01;stroke-linecap:butt;stroke-linejoin:miter;stroke:rgb(0%,0%,0%);stroke-opacity:1;stroke-miterlimit:10;" d="M 0.718867 0.685195 L 0.483164 0.281133 L 0.449492 0.112813 L 0.348477 0.0454688 L 0.213789 0.112813 L 0.213789 0.348477 L 0.281133 0.786211 L 0.348477 0.920859 L 0.483164 0.954531 L 0.550508 0.853555 L 0.786211 0.819883 Z M 0.718867 0.685195 " transform="matrix(100,0,0,100,600,2600)"/>
<path style="fill:none;stroke-width:0.01;stroke-linecap:butt;stroke-linejoin:miter;stroke:rgb(0%,0%,0%);stroke-opacity:1;stroke-miterlimit:10;" d="M 0.756914 0.0849609 L 0.796445 0.440703 L 0.559297 0.717383 L 0.440703 0.835977 L 0.243086 0.954531 L 0.203555 0.756914 L 0.203555 0.480234 L 0.322148 0.243086 L 0.440703 0.0454688 L 0.559297 0.0454688 Z M 0.756914 0.0849609 " transform="matrix(100,0,0,100,0,2750)"/>
<path style="fill:none;stroke-width:0.01;stroke-linecap:butt;stroke-linejoin:miter;stroke:rgb(0%,0%,0%);stroke-opacity:1;stroke-miterlimit:10;" d="M 0.679063 0.596406 L 0.348477 0.954531 L 0.238281 0.899453 L 0.210742 0.706602 L 0.210742 0.458672 L 0.238281 0.265859 L 0.293398 0.100547 L 0.431133 0.0454688 L 0.568867 0.0730078 L 0.651523 0.155664 L 0.734141 0.293398 L 0.789258 0.348477 Z M 0.679063 0.596406 " transform="matrix(100,0,0,100,150,2750)"/>
<path style="fill:none;stroke-width:0.01;stroke-linecap:butt;stroke-linejoin:miter;stroke:rgb(0%,0%,0%);stroke-opacity:1;stroke-miterlimit:10;" d="M 0.681836 0.461055 L 0.603906 0.616875 L 0.5 0.720781 L 0.448047 0.798711 L 0.42207 0.850664 L 0.370117 0.954531 L 0.240273 0.954531 L 0.240273 0.876641 L 0.292227 0.694805 L 0.292227 0.435078 L 0.318164 0.123359 L 0.318164 0.0454688 L 0.318164 0.175313 L 0.448047 0.305195 L 0.57793 0.357148 L 0.707773 0.357148 L 0.759727 0.383125 Z M 0.681836 0.461055 " transform="matrix(100,0,0,100,300,2750)"/>
<path style="fill:none;stroke-width:0.01;stroke-linecap:butt;stroke-linejoin:miter;stroke:rgb(0%,0%,0%);stroke-opacity:1;stroke-miterlimit:10;" d="M 0.727266 0.556836 L 0.556836 0.0454688 L 0.329531 0.0454688 L 0.272734 0.329531 L 0.159102 0.727266 L 0.272734 0.954531 L 0.5 0.954531 L 0.840898 0.840898 Z M 0.727266 0.556836 " transform="matrix(100,0,0,100,450,2750)"/>
<path style="fill:none;stroke-width:0.01;stroke-linecap:butt;stroke-linejoin:miter;stroke:rgb(0%,0%,0%);stroke-opacity:1;stroke-miterlimit:10;" d="M 0.762227 0.325156 L 0.727266 0.534961 L 0.587422 0.814688 L 0.552461 0.884609 L 0.4825 0.91957 L 0.342656 0.954531 L 0.237773 0.91957 L 0.202813 0.639844 L 0.202813 0.0454688 L 0.307695 0.0804297 L 0.4825 0.150352 L 0.657344 0.150352 L 0.797187 0.185313 Z M 0.762227 0.325156 " transform="matrix(100,0,0,100,600,2750)"/>
<path style="fill:none;stroke-width:0.01;stroke-linecap:butt;stroke-linejoin:miter;stroke:rgb(0%,0%,0%);stroke-opacity:1;stroke-miterlimit:10;" d="M 0.717383 0.598828 L 0.559297 0.440703 L 0.519766 0.282617 L 0.480234 0.0454688 L 0.243086 0.0454688 L 0.164023 0.203555 L 0.322148 0.756914 L 0.322148 0.954531 L 0.480234 0.915039 L 0.559297 0.796445 L 0.677852 0.756914 L 0.835977 0.717383 Z M 0.717383 0.598828 " transform="matrix(100,0,0,100,0,2900)"/>
<path style="fill:none;stroke-width:0.01;stroke-linecap:butt;stroke-linejoin:miter;stroke:rgb(0%,0%,0%);stroke-opacity:1;stroke-miterlimit:10;" d="M 0.772734 0.279219 L 0.538945 0.590898 L 0.279219 0.902578 L 0.227266 0.954531 L 0.201289 0.902578 L 0.201289 0.590898 L 0.253242 0.331172 L 0.279219 0.0454688 L 0.383125 0.0454688 L 0.564922 0.0974219 L 0.694805 0.123359 L 0.798711 0.149336 Z M 0.772734 0.279219 " transform="matrix(100,0,0,100,150,2900)"/>
<path style="fill:none;stroke-width:0.01;stroke-linecap:butt;stroke-linejoin:miter;stroke:rgb(0%,0%,0%);stroke-opacity:1;stroke-miterlimit:10;" d="M 0.716445 0.586562 L 0.543281 0.305195 L 0.413438 0.153672 L 0.370117 0.0454688 L 0.283555 0.0454688 L 0.196953 0.08875 L 0.326836 0.456719 L 0.370117 0.846328 L 0.348477 0.954531 L 0.435078 0.932891 L 0.543281 0.824687 L 0.716445 0.759727 L 0.803047 0.738086 Z M 0.716445 0.586562 " transform="matrix(100,0,0,100,300,2900)"/>
<path style="fill:none;stroke-width:0.01;stroke-linecap:butt;stroke-linejoin:miter;stroke:rgb(0%,0%,0%);stroke-opacity:1;stroke-miterlimit:10;" d="M 0.633047 0.621953 L 0.30043 0.954531 L 0.211758 0.843672 L 0.211758 0.688477 L 0.256094 0.466758 L 0.30043 0.0454688 L 0.5 0.156328 L 0.610859 0.267188 L 0.721719 0.355859 L 0.788242 0.400234 L 0.721719 0.511094 Z M 0.633047 0.621953 " transform="matrix(100,0,0,100,450,2900)"/>
<path style="fill:none;stroke-width:0.01;stroke-linecap:butt;stroke-linejoin:miter;stroke:rgb(0%,0%,0%);stroke-opacity:1;stroke-miterlimit:10;" d="M 0.713359 0.694805 L 0.342305 0.0454688 L 0.286641 0.0454688 L 0.286641 0.305195 L 0.305195 0.546367 L 0.286641 0.769023 L 0.286641 0.954531 L 0.397969 0.898906 L 0.453633 0.806133 L 0.472188 0.694805 L 0.657695 0.694805 Z M 0.713359 0.694805 " transform="matrix(100,0,0,100,600,2900)"/>
<path style="fill:none;stroke-width:0.01;stroke-linecap:butt;stroke-linejoin:miter;stroke:rgb(0%,0%,0%);stroke-opacity:1;stroke-miterlimit:10;" d="M 0.735117 0.578359 L 0.672422 0.452969 L 0.484336 0.358945 L 0.390273 0.390273 L 0.390273 0.233555 L 0.264883 0.0454688 L 0.202187 0.108164 L 0.264883 0.452969 L 0.264883 0.735117 L 0.327578 0.891836 L 0.452969 0.954531 L 0.672422 0.954531 L 0.797813 0.891836 Z M 0.735117 0.578359 " transform="matrix(100,0,0,100,0,3050)"/>
<path style="fill:none;stroke-width:0.01;stroke-linecap:butt;stroke-linejoin:miter;stroke:rgb(0%,0%,0%);stroke-opacity:1;stroke-miterlimit:10;" d="M 0.954531 0.386367 L 0.636367 0.704531 L 0.409102 0.840898 L 0.136367 0.75 L 0.136367 0.25 L 0.0454687 0.159102 L 0.181836 0.204531 L 0.409102 0.295469 L 0.5 0.295469 L 0.636367 0.340898 Z M 0.954531 0.386367 " transform="matrix(100,0,0,100,150,3050)"/>
<path style="fill:none;stroke-width:0.01;stroke-linecap:butt;stroke-linejoin:miter;stroke:rgb(0%,0%,0%);stroke-opacity:1;stroke-miterlimit:10;" d="M 0.779727 0.5 L 0.604883 0.814688 L 0.395117 0.954531 L 0.325156 0.779727 L 0.220273 0.674844 L 0.220273 0.5 L 0.325156 0.220273 L 0.465039 0.0454688 L 0.639844 0.0454688 L 0.709805 0.220273 L 0.779727 0.255234 Z M 0.779727 0.5 " transform="matrix(100,0,0,100,300,3050)"/>
<path style="fill:none;stroke-width:0.01;stroke-linecap:butt;stroke-linejoin:miter;stroke:rgb(0%,0%,0%);stroke-opacity:1;stroke-miterlimit:10;" d="M 0.651523 0.712109 L 0.772734 0.469687 L 0.651523 0.409102 L 0.469688 0.0454688 L 0.227266 0.106055 L 0.287891 0.530313 L 0.409102 0.893945 L 0.590898 0.954531 L 0.712109 0.893945 Z M 0.651523 0.712109 " transform="matrix(100,0,0,100,450,3050)"/>
<path style="fill:none;stroke-width:0.01;stroke-linecap:butt;stroke-linejoin:miter;stroke:rgb(0%,0%,0%);stroke-opacity:1;stroke-miterlimit:10;" d="M 0.884609 0.290195 L 0.0454688 0.150352 L 0.255234 0.569922 L 0.325156 0.779727 L 0.674844 0.849648 L 0.954531 0.779727 Z M 0.884609 0.290195 " transform="matrix(100,0,0,100,600,3050)"/>
<path style="fill:none;stroke-width:0.01;stroke-linecap:butt;stroke-linejoin:miter;stroke:rgb(0%,0%,0%);stroke-opacity:1;stroke-miterlimit:10;" d="M 0.663633 0.790898 L 0.645469 0.554531 L 0.590898 0.354531 L 0.536367 0.154531 L 0.536367 0.0818359 L 0.390898 0.0454687 L 0.390898 0.227266 L 0.372734 0.3 L 0.336367 0.481836 L 0.372734 0.554531 L 0.427266 0.627266 L 0.409102 0.754531 L 0.390898 0.863633 L 0.372734 0.954531 L 0.445469 0.954531 L 0.481836 0.9 L 0.5 0.863633 L 0.536367 0.845469 L 0.590898 0.845469 Z M 0.663633 0.790898 " transform="matrix(100,0,0,100,0,3200)"/>
<path style="fill:none;stroke-width:0.01;stroke-linecap:butt;stroke-linejoin:miter;stroke:rgb(0%,0%,0%);stroke-opacity:1;stroke-miterlimit:10;" d="M 0.593594 0.606953 L 0.433164 0.794102 L 0.299453 0.954531 L 0.1925 0.954531 L 0.139023 0.927813 L 0.165781 0.767383 L 0.219258 0.473281 L 0.272734 0.366328 L 0.299453 0.286094 L 0.326211 0.125664 L 0.379687 0.0454687 L 0.727266 0.125664 L 0.860977 0.179141 L 0.8075 0.312852 L 0.727266 0.393047 Z M 0.593594 0.606953 " transform="matrix(100,0,0,100,150,3200)"/>
<path style="fill:none;stroke-width:0.01;stroke-linecap:butt;stroke-linejoin:miter;stroke:rgb(0%,0%,0%);stroke-opacity:1;stroke-miterlimit:10;" d="M 0.884609 0.674844 L 0.674844 0.360156 L 0.430078 0.115391 L 0.290195 0.0454687 L 0.150352 0.0454687 L 0.115391 0.150352 L 0.290195 0.395117 L 0.255234 0.639844 L 0.290195 0.91957 L 0.395117 0.954531 L 0.569922 0.884609 L 0.674844 0.849648 Z M 0.884609 0.674844 " transform="matrix(100,0,0,100,300,3200)"/>
<path style="fill:none;stroke-width:0.01;stroke-linecap:butt;stroke-linejoin:miter;stroke:rgb(0%,0%,0%);stroke-opacity:1;stroke-miterlimit:10;" d="M 0.636367 0.5 L 0.318164 0.954531 L 0.181836 0.727266 L 0.181836 0.409102 L 0.227266 0.136367 L 0.363633 0.0454687 L 0.636367 0.181836 L 0.772734 0.181836 L 0.818164 0.318164 Z M 0.636367 0.5 " transform="matrix(100,0,0,100,450,3200)"/>
<path style="fill:none;stroke-width:0.01;stroke-linecap:butt;stroke-linejoin:miter;stroke:rgb(0%,0%,0%);stroke-opacity:1;stroke-miterlimit:10;" d="M 0.863633 0.530313 L 0.621211 0.530313 L 0.560625 0.348477 L 0.439375 0.16668 L 0.257578 0.0454687 L 0.0757422 0.348477 L 0.318164 0.651523 L 0.439375 0.893945 L 0.681836 0.954531 L 0.863633 0.954531 L 0.924258 0.893945 Z M 0.863633 0.530313 " transform="matrix(100,0,0,100,600,3200)"/>
<path style="fill:none;stroke-width:0.01;stroke-linecap:butt;stroke-linejoin:miter;stroke:rgb(0%,0%,0%);stroke-opacity:1;stroke-miterlimit:10;" d="M 0.954531 0.752539 L 0.449492 0.146445 L 0.0454688 0.247461 L 0.146445 0.853555 Z M 0.954531 0.752539 " transform="matrix(100,0,0,100,0,3350)"/>
<path style="fill:none;stroke-width:0.01;stroke-linecap:butt;stroke-linejoin:miter;stroke:rgb(0%,0%,0%);stroke-opacity:1;stroke-miterlimit:10;" d="M 0.835977 0.677852 L 0.677852 0.519766 L 0.717383 0.361641 L 0.519766 0.203555 L 0.480234 0.124492 L 0.243086 0.0454687 L 0.164023 0.164023 L 0.203555 0.480234 L 0.282617 0.677852 L 0.203555 0.756914 L 0.203555 0.954531 L 0.440703 0.796445 L 0.519766 0.796445 Z M 0.835977 0.677852 " transform="matrix(100,0,0,100,150,3350)"/>
<path style="fill:none;stroke-width:0.01;stroke-linecap:butt;stroke-linejoin:miter;stroke:rgb(0%,0%,0%);stroke-opacity:1;stroke-miterlimit:10;" d="M 0.744766 0.430078 L 0.639844 0.709805 L 0.5 0.814687 L 0.430078 0.91957 L 0.255234 0.954531 L 0.290195 0.604883 L 0.290195 0.290195 L 0.395117 0.150352 L 0.534961 0.0804297 L 0.674844 0.0454687 L 0.674844 0.185313 Z M 0.744766 0.430078 " transform="matrix(100,0,0,100,300,3350)"/>
<path style="fill:none;stroke-width:0.01;stroke-linecap:butt;stroke-linejoin:miter;stroke:rgb(0%,0%,0%);stroke-opacity:1;stroke-miterlimit:10;" d="M 0.858867 0.380391 L 0.667461 0.571758 L 0.523906 0.715313 L 0.380391 0.954531 L 0.188984 0.90668 L 0.141133 0.571758 L 0.188984 0.284688 L 0.284688 0.0454687 L 0.476094 0.0933203 L 0.571758 0.188984 L 0.715313 0.236836 Z M 0.858867 0.380391 " transform="matrix(100,0,0,100,450,3350)"/>
<path style="fill:none;stroke-width:0.01;stroke-linecap:butt;stroke-linejoin:miter;stroke:rgb(0%,0%,0%);stroke-opacity:1;stroke-miterlimit:10;" d="M 0.954531 0.386367 L 0.727266 0.234844 L 0.462109 0.196953 L 0.348477 0.310625 L 0.159102 0.348477 L 0.0454688 0.462109 L 0.0454688 0.689375 L 0.159102 0.765156 L 0.272734 0.803047 L 0.424258 0.689375 L 0.613633 0.537891 L 0.840898 0.5 Z M 0.954531 0.386367 " transform="matrix(100,0,0,100,600,3350)"/>
<path style="fill:none;stroke-width:0.01;stroke-linecap:butt;stroke-linejoin:miter;stroke:rgb(0%,0%,0%);stroke-opacity:1;stroke-miterlimit:10;" d="M 0.715313 0.188984 L 0.571758 0.476094 L 0.571758 0.858867 L 0.476094 0.90668 L 0.284687 0.954531 L 0.284687 0.667461 L 0.332539 0.380391 L 0.428242 0.0933203 L 0.571758 0.0454687 Z M 0.715313 0.188984 " transform="matrix(100,0,0,100,0,3500)"/>
<path style="fill:none;stroke-width:0.01;stroke-linecap:butt;stroke-linejoin:miter;stroke:rgb(0%,0%,0%);stroke-opacity:1;stroke-miterlimit:10;" d="M 0.927812 0.580195 L 0.66043 0.740625 L 0.393047 0.954531 L 0.179141 0.847578 L 0.0721875 0.526719 L 0.232617 0.0454687 L 0.33957 0.0454687 L 0.606953 0.259375 L 0.820859 0.312852 L 0.927812 0.312852 Z M 0.927812 0.580195 " transform="matrix(100,0,0,100,150,3500)"/>
<path style="fill:none;stroke-width:0.01;stroke-linecap:butt;stroke-linejoin:miter;stroke:rgb(0%,0%,0%);stroke-opacity:1;stroke-miterlimit:10;" d="M 0.785703 0.694805 L 0.551953 0.0454687 L 0.448047 0.0714453 L 0.396094 0.279219 L 0.396094 0.409102 L 0.370117 0.461055 L 0.214297 0.590898 L 0.214297 0.928555 L 0.396094 0.954531 L 0.474023 0.824688 L 0.681836 0.772734 Z M 0.785703 0.694805 " transform="matrix(100,0,0,100,300,3500)"/>
<path style="fill:none;stroke-width:0.01;stroke-linecap:butt;stroke-linejoin:miter;stroke:rgb(0%,0%,0%);stroke-opacity:1;stroke-miterlimit:10;" d="M 0.818164 0.5 L 0.454531 0.0454687 L 0.181836 0.318164 L 0.272734 0.681836 L 0.454531 0.772734 L 0.818164 0.954531 Z M 0.818164 0.5 " transform="matrix(100,0,0,100,450,3500)"/>
<path style="fill:none;stroke-width:0.01;stroke-linecap:butt;stroke-linejoin:miter;stroke:rgb(0%,0%,0%);stroke-opacity:1;stroke-miterlimit:10;" d="M 0.809102 0.409102 L 0.627266 0.663633 L 0.409102 0.736367 L 0.336367 0.809102 L 0.3 0.918164 L 0.190898 0.954531 L 0.227266 0.736367 L 0.154531 0.372734 L 0.190898 0.0454687 L 0.372734 0.118164 L 0.554531 0.227266 L 0.627266 0.227266 L 0.809102 0.263633 L 0.845469 0.336367 Z M 0.809102 0.409102 " transform="matrix(100,0,0,100,600,3500)"/>
<path style="fill:none;stroke-width:0.01;stroke-linecap:butt;stroke-linejoin:miter;stroke:rgb(0%,0%,0%);stroke-opacity:1;stroke-miterlimit:10;" d="M 0.534961 0.744766 L 0.395117 0.954531 L 0.325156 0.954531 L 0.290195 0.569922 L 0.290195 0.360156 L 0.430078 0.0804297 L 0.569922 0.0454687 L 0.674844 0.115391 L 0.604883 0.185313 L 0.604883 0.430078 L 0.709805 0.430078 L 0.604883 0.5 L 0.569922 0.604883 Z M 0.534961 0.744766 " transform="matrix(100,0,0,100,0,3650)"/>
<path style="fill:none;stroke-width:0.01;stroke-linecap:butt;stroke-linejoin:miter;stroke:rgb(0%,0%,0%);stroke-opacity:1;stroke-miterlimit:10;" d="M 0.742422 0.530313 L 0.439375 0.0454687 L 0.318164 0.16668 L 0.257578 0.530313 L 0.257578 0.893945 L 0.318164 0.954531 L 0.560625 0.893945 L 0.742422 0.83332 Z M 0.742422 0.530313 " transform="matrix(100,0,0,100,150,3650)"/>
<path style="fill:none;stroke-width:0.01;stroke-linecap:butt;stroke-linejoin:miter;stroke:rgb(0%,0%,0%);stroke-opacity:1;stroke-miterlimit:10;" d="M 0.752539 0.474766 L 0.272734 0.954531 L 0.247461 0.904023 L 0.323242 0.676758 L 0.348477 0.449492 L 0.37375 0.323242 L 0.5 0.196953 L 0.601016 0.0454687 L 0.676758 0.146445 L 0.702031 0.247461 L 0.702031 0.323242 Z M 0.752539 0.474766 " transform="matrix(100,0,0,100,300,3650)"/>
<path style="fill:none;stroke-width:0.01;stroke-linecap:butt;stroke-linejoin:miter;stroke:rgb(0%,0%,0%);stroke-opacity:1;stroke-miterlimit:10;" d="M 0.784102 0.698867 L 0.784102 0.528398 L 0.443164 0.471602 L 0.443164 0.1875 L 0.215898 0.0738672 L 0.0454688 0.0738672 L 0.215898 0.357969 L 0.272734 0.755664 L 0.272734 0.926133 L 0.613633 0.926133 L 0.954531 0.869336 Z M 0.784102 0.698867 " transform="matrix(100,0,0,100,450,3650)"/>
<path style="fill:none;stroke-width:0.01;stroke-linecap:butt;stroke-linejoin:miter;stroke:rgb(0%,0%,0%);stroke-opacity:1;stroke-miterlimit:10;" d="M 0.766094 0.621953 L 0.322617 0.0454687 L 0.233906 0.0898047 L 0.30043 0.200664 L 0.30043 0.400234 L 0.344805 0.755 L 0.344805 0.954531 L 0.389141 0.954531 L 0.566523 0.777148 L 0.566523 0.710625 L 0.610859 0.688477 Z M 0.766094 0.621953 " transform="matrix(100,0,0,100,600,3650)"/>
<path style="fill:none;stroke-width:0.01;stroke-linecap:butt;stroke-linejoin:miter;stroke:rgb(0%,0%,0%);stroke-opacity:1;stroke-miterlimit:10;" d="M 0.672734 0.409102 L 0.6 0.5 L 0.509102 0.554531 L 0.509102 0.627266 L 0.472734 0.7 L 0.436367 0.718164 L 0.4 0.845469 L 0.381836 0.918164 L 0.290898 0.954531 L 0.290898 0.863633 L 0.309102 0.754531 L 0.309102 0.718164 L 0.345469 0.627266 L 0.327266 0.463633 L 0.363633 0.372734 L 0.436367 0.263633 L 0.472734 0.154531 L 0.527266 0.0818359 L 0.6 0.0454687 L 0.654531 0.0636328 L 0.690898 0.0818359 L 0.690898 0.190898 L 0.672734 0.281836 L 0.709102 0.354531 Z M 0.672734 0.409102 " transform="matrix(100,0,0,100,0,3800)"/>
<path style="fill:none;stroke-width:0.01;stroke-linecap:butt;stroke-linejoin:miter;stroke:rgb(0%,0%,0%);stroke-opacity:1;stroke-miterlimit:10;" d="M 0.954531 0.181836 L 0.136367 0.0908984 L 0.0454687 0.727266 L 0.0454687 0.909102 L 0.772734 0.909102 Z M 0.954531 0.181836 " transform="matrix(100,0,0,100,150,3800)"/>
<path style="fill:none;stroke-width:0.01;stroke-linecap:butt;stroke-linejoin:miter;stroke:rgb(0%,0%,0%);stroke-opacity:1;stroke-miterlimit:10;" d="M 0.64707 0.66043 L 0.513359 0.0989453 L 0.433164 0.0454687 L 0.35293 0.286094 L 0.406406 0.633672 L 0.433164 0.820859 L 0.433164 0.954531 L 0.513359 0.954531 L 0.566836 0.901055 L 0.593594 0.820859 Z M 0.64707 0.66043 " transform="matrix(100,0,0,100,300,3800)"/>
<path style="fill:none;stroke-width:0.01;stroke-linecap:butt;stroke-linejoin:miter;stroke:rgb(0%,0%,0%);stroke-opacity:1;stroke-miterlimit:10;" d="M 0.687148 0.259375 L 0.687148 0.740625 L 0.633672 0.847578 L 0.419805 0.954531 L 0.312852 0.847578 L 0.312852 0.312852 L 0.366328 0.0454687 L 0.526719 0.152422 Z M 0.687148 0.259375 " transform="matrix(100,0,0,100,450,3800)"/>
<path style="fill:none;stroke-width:0.01;stroke-linecap:butt;stroke-linejoin:miter;stroke:rgb(0%,0%,0%);stroke-opacity:1;stroke-miterlimit:10;" d="M 0.738086 0.694805 L 0.694805 0.456719 L 0.564922 0.218633 L 0.478359 0.0454687 L 0.370117 0.0454687 L 0.348477 0.196953 L 0.326836 0.283555 L 0.218633 0.478359 L 0.283555 0.716445 L 0.413438 0.759727 L 0.5 0.954531 L 0.5 0.932891 L 0.586563 0.846328 L 0.673164 0.781367 L 0.781367 0.781367 Z M 0.738086 0.694805 " transform="matrix(100,0,0,100,600,3800)"/>
<path style="fill:none;stroke-width:0.01;stroke-linecap:butt;stroke-linejoin:miter;stroke:rgb(0%,0%,0%);stroke-opacity:1;stroke-miterlimit:10;" d="M 0.696953 0.924258 L 0.484844 0.0454687 L 0.33332 0.0454687 L 0.303047 0.257578 L 0.363633 0.5 L 0.424258 0.681836 L 0.484844 0.893945 L 0.515156 0.954531 Z M 0.696953 0.924258 " transform="matrix(100,0,0,100,0,3950)"/>
<path style="fill:none;stroke-width:0.01;stroke-linecap:butt;stroke-linejoin:miter;stroke:rgb(0%,0%,0%);stroke-opacity:1;stroke-miterlimit:10;" d="M 0.814688 0.884609 L 0.814688 0.604883 L 0.185312 0.0454687 L 0.255234 0.534961 L 0.255234 0.954531 Z M 0.814688 0.884609 " transform="matrix(100,0,0,100,150,3950)"/>
<path style="fill:none;stroke-width:0.01;stroke-linecap:butt;stroke-linejoin:miter;stroke:rgb(0%,0%,0%);stroke-opacity:1;stroke-miterlimit:10;" d="M 0.689375 0.121211 L 0.462109 0.727266 L 0.310625 0.954531 L 0.310625 0.272734 L 0.386367 0.0454687 Z M 0.689375 0.121211 " transform="matrix(100,0,0,100,300,3950)"/>
<path style="fill:none;stroke-width:0.01;stroke-linecap:butt;stroke-linejoin:miter;stroke:rgb(0%,0%,0%);stroke-opacity:1;stroke-miterlimit:10;" d="M 0.878789 0.5 L 0.5 0.878789 L 0.121211 0.954531 L 0.121211 0.727266 L 0.196953 0.0454687 L 0.651523 0.0454687 L 0.878789 0.121211 Z M 0.878789 0.5 " transform="matrix(100,0,0,100,450,3950)"/>
<path style="fill:none;stroke-width:0.01;stroke-linecap:butt;stroke-linejoin:miter;stroke:rgb(0%,0%,0%);stroke-opacity:1;stroke-miterlimit:10;" d="M 0.618164 0.7 L 0.381836 0.0454687 L 0.327266 0.0454687 L 0.4 0.354531 L 0.418164 0.445469 L 0.4 0.518164 L 0.4 0.590898 L 0.345469 0.663633 L 0.4 0.936367 L 0.418164 0.954531 L 0.509102 0.954531 L 0.563633 0.918164 L 0.6 0.881836 L 0.636367 0.881836 L 0.672734 0.863633 Z M 0.618164 0.7 " transform="matrix(100,0,0,100,600,3950)"/>
<path style="fill:none;stroke-width:0.01;stroke-linecap:butt;stroke-linejoin:miter;stroke:rgb(0%,0%,0%);stroke-opacity:1;stroke-miterlimit:10;" d="M 0.638359 0.322148 L 0.559297 0.559297 L 0.559297 0.835977 L 0.519766 0.954531 L 0.480234 0.915039 L 0.361641 0.440703 L 0.401172 0.0454687 L 0.480234 0.0454687 L 0.559297 0.203555 Z M 0.638359 0.322148 " transform="matrix(100,0,0,100,0,4100)"/>
<path style="fill:none;stroke-width:0.01;stroke-linecap:butt;stroke-linejoin:miter;stroke:rgb(0%,0%,0%);stroke-opacity:1;stroke-miterlimit:10;" d="M 0.698867 0.840898 L 0.670469 0.727266 L 0.585234 0.670469 L 0.613633 0.528398 L 0.556836 0.414766 L 0.471602 0.386367 L 0.5 0.244336 L 0.443164 0.130664 L 0.386367 0.0738672 L 0.301133 0.0454687 L 0.301133 0.301133 L 0.386367 0.556836 L 0.443164 0.755664 L 0.5 0.897734 L 0.670469 0.954531 Z M 0.698867 0.840898 " transform="matrix(100,0,0,100,150,4100)"/>
<path style="fill:none;stroke-width:0.01;stroke-linecap:butt;stroke-linejoin:miter;stroke:rgb(0%,0%,0%);stroke-opacity:1;stroke-miterlimit:10;" d="M 0.719453 0.264883 L 0.688086 0.515664 L 0.750781 0.609727 L 0.719453 0.672422 L 0.594063 0.672422 L 0.562695 0.829141 L 0.5 0.923203 L 0.311914 0.954531 L 0.343242 0.797812 L 0.280547 0.609727 L 0.249219 0.452969 L 0.280547 0.0767969 L 0.374609 0.0454687 L 0.531367 0.108164 L 0.688086 0.139492 L 0.750781 0.139492 Z M 0.719453 0.264883 " transform="matrix(100,0,0,100,300,4100)"/>
<path style="fill:none;stroke-width:0.01;stroke-linecap:butt;stroke-linejoin:miter;stroke:rgb(0%,0%,0%);stroke-opacity:1;stroke-miterlimit:10;" d="M 0.709805 0.395117 L 0.569922 0.954531 L 0.290195 0.884609 L 0.290195 0.534961 L 0.5 0.0454687 Z M 0.709805 0.395117 " transform="matrix(100,0,0,100,450,4100)"/>
<path style="fill:none;stroke-width:0.01;stroke-linecap:butt;stroke-linejoin:miter;stroke:rgb(0%,0%,0%);stroke-opacity:1;stroke-miterlimit:10;" d="M 0.727266 0.334727 L 0.727266 0.541328 L 0.768594 0.665273 L 0.644609 0.74793 L 0.60332 0.830586 L 0.60332 0.913242 L 0.520664 0.954531 L 0.314063 0.830586 L 0.190078 0.293398 L 0.314063 0.0454687 L 0.39668 0.0454687 L 0.520664 0.128086 L 0.644609 0.169414 L 0.809922 0.210742 Z M 0.727266 0.334727 " transform="matrix(100,0,0,100,600,4100)"/>
<path style="fill:none;stroke-width:0.01;stroke-linecap:butt;stroke-linejoin:miter;stroke:rgb(0%,0%,0%);stroke-opacity:1;stroke-miterlimit:10;" d="M 0.560625 0.196953 L 0.621211 0.560625 L 0.651523 0.772734 L 0.560625 0.954531 L 0.409102 0.893945 L 0.348477 0.651523 L 0.378789 0.287891 L 0.409102 0.0454687 Z M 0.560625 0.196953 " transform="matrix(100,0,0,100,0,4250)"/>
<path style="fill:none;stroke-width:0.01;stroke-linecap:butt;stroke-linejoin:miter;stroke:rgb(0%,0%,0%);stroke-opacity:1;stroke-miterlimit:10;" d="M 0.646641 0.250742 L 0.705273 0.485352 L 0.587969 0.719922 L 0.529336 0.866563 L 0.382695 0.954531 L 0.294727 0.954531 L 0.353359 0.778594 L 0.412031 0.397344 L 0.412031 0.162773 L 0.529336 0.104102 L 0.646641 0.0454687 L 0.705273 0.133437 Z M 0.646641 0.250742 " transform="matrix(100,0,0,100,150,4250)"/>
<path style="fill:none;stroke-width:0.01;stroke-linecap:butt;stroke-linejoin:miter;stroke:rgb(0%,0%,0%);stroke-opacity:1;stroke-miterlimit:10;" d="M 0.954531 0.639844 L 0.674844 0.430078 L 0.674844 0.150352 L 0.325156 0.0804297 L 0.0454687 0.290195 L 0.115391 0.430078 L 0.325156 0.639844 L 0.465039 0.849648 L 0.744766 0.91957 Z M 0.954531 0.639844 " transform="matrix(100,0,0,100,300,4250)"/>
<path style="fill:none;stroke-width:0.01;stroke-linecap:butt;stroke-linejoin:miter;stroke:rgb(0%,0%,0%);stroke-opacity:1;stroke-miterlimit:10;" d="M 0.863633 0.0454687 L 0.803047 0.530313 L 0.681836 0.651523 L 0.560625 0.83332 L 0.257578 0.954531 L 0.136367 0.83332 L 0.136367 0.469687 L 0.318164 0.287891 L 0.560625 0.16668 Z M 0.863633 0.0454687 " transform="matrix(100,0,0,100,450,4250)"/>
<path style="fill:none;stroke-width:0.01;stroke-linecap:butt;stroke-linejoin:miter;stroke:rgb(0%,0%,0%);stroke-opacity:1;stroke-miterlimit:10;" d="M 0.706602 0.431133 L 0.706602 0.376016 L 0.954531 0.376016 L 0.926992 0.238281 L 0.734141 0.210742 L 0.458672 0.183203 L 0.293398 0.155664 L 0.155664 0.183203 L 0.0730078 0.210742 L 0.0454688 0.403594 L 0.0730078 0.513789 L 0.0730078 0.789258 L 0.100547 0.844336 L 0.293398 0.844336 L 0.431133 0.734141 L 0.513789 0.596406 L 0.541328 0.541328 Z M 0.706602 0.431133 " transform="matrix(100,0,0,100,600,4250)"/>
<path style="fill:none;stroke-width:0.01;stroke-linecap:butt;stroke-linejoin:miter;stroke:rgb(0%,0%,0%);stroke-opacity:1;stroke-miterlimit:10;" d="M 0.651523 0.247461 L 0.617852 0.718867 L 0.550508 0.853555 L 0.449492 0.954531 L 0.382148 0.718867 L 0.348477 0.213789 L 0.449492 0.112813 L 0.651523 0.0454687 Z M 0.651523 0.247461 " transform="matrix(100,0,0,100,0,4400)"/>
<path style="fill:none;stroke-width:0.01;stroke-linecap:butt;stroke-linejoin:miter;stroke:rgb(0%,0%,0%);stroke-opacity:1;stroke-miterlimit:10;" d="M 0.64707 0.152422 L 0.620312 0.446523 L 0.593594 0.633672 L 0.566836 0.847578 L 0.459883 0.954531 L 0.35293 0.901055 L 0.35293 0.179141 L 0.406406 0.0454687 L 0.540117 0.0989453 Z M 0.64707 0.152422 " transform="matrix(100,0,0,100,150,4400)"/>
<path style="fill:none;stroke-width:0.01;stroke-linecap:butt;stroke-linejoin:miter;stroke:rgb(0%,0%,0%);stroke-opacity:1;stroke-miterlimit:10;" d="M 0.691406 0.0454687 L 0.284687 0.069375 L 0.284687 0.811016 L 0.332539 0.882773 L 0.476094 0.954531 L 0.571758 0.90668 L 0.547852 0.811016 L 0.643555 0.763164 L 0.667461 0.643555 L 0.595703 0.595703 L 0.595703 0.404297 L 0.691406 0.380391 L 0.715313 0.260781 L 0.667461 0.21293 Z M 0.691406 0.0454687 " transform="matrix(100,0,0,100,300,4400)"/>
<path style="fill:none;stroke-width:0.01;stroke-linecap:butt;stroke-linejoin:miter;stroke:rgb(0%,0%,0%);stroke-opacity:1;stroke-miterlimit:10;" d="M 0.688477 0.222852 L 0.466758 0.799336 L 0.400234 0.954531 L 0.311523 0.910195 L 0.355859 0.55543 L 0.355859 0.311523 L 0.422383 0.0454687 L 0.644141 0.0454687 L 0.688477 0.0898047 Z M 0.688477 0.222852 " transform="matrix(100,0,0,100,450,4400)"/>
<path style="fill:none;stroke-width:0.01;stroke-linecap:butt;stroke-linejoin:miter;stroke:rgb(0%,0%,0%);stroke-opacity:1;stroke-miterlimit:10;" d="M 0.881836 0.7 L 0.481836 0.845469 L 0.3 0.954531 L 0.190898 0.954531 L 0.190898 0.881836 L 0.118164 0.736367 L 0.118164 0.518164 L 0.154531 0.263633 L 0.263633 0.0454687 L 0.372734 0.3 L 0.627266 0.445469 L 0.772734 0.554531 Z M 0.881836 0.7 " transform="matrix(100,0,0,100,600,4400)"/>
<path style="fill:none;stroke-width:0.01;stroke-linecap:butt;stroke-linejoin:miter;stroke:rgb(0%,0%,0%);stroke-opacity:1;stroke-miterlimit:10;" d="M 0.629883 0.512969 L 0.525977 0.123359 L 0.396094 0.0454687 L 0.292227 0.0454687 L 0.318164 0.201289 L 0.344141 0.461055 L 0.396094 0.954531 L 0.448047 0.902578 L 0.57793 0.850664 L 0.655859 0.876641 L 0.655859 0.772734 L 0.707773 0.746758 L 0.681836 0.642852 L 0.629883 0.642852 Z M 0.629883 0.512969 " transform="matrix(100,0,0,100,0,4550)"/>
<path style="fill:none;stroke-width:0.01;stroke-linecap:butt;stroke-linejoin:miter;stroke:rgb(0%,0%,0%);stroke-opacity:1;stroke-miterlimit:10;" d="M 0.755664 0.670469 L 0.755664 0.102266 L 0.471602 0.0454687 L 0.414766 0.272734 L 0.301133 0.443164 L 0.244336 0.670469 L 0.357969 0.954531 L 0.755664 0.954531 Z M 0.755664 0.670469 " transform="matrix(100,0,0,100,150,4550)"/>
<path style="fill:none;stroke-width:0.01;stroke-linecap:butt;stroke-linejoin:miter;stroke:rgb(0%,0%,0%);stroke-opacity:1;stroke-miterlimit:10;" d="M 0.739219 0.763164 L 0.404297 0.954531 L 0.117227 0.90668 L 0.069375 0.284688 L 0.308594 0.0933203 L 0.547852 0.0454687 L 0.882773 0.0933203 L 0.930625 0.188984 L 0.739219 0.236836 L 0.691406 0.332539 L 0.691406 0.619609 L 0.882773 0.619609 Z M 0.739219 0.763164 " transform="matrix(100,0,0,100,300,4550)"/>
<path style="fill:none;stroke-width:0.01;stroke-linecap:butt;stroke-linejoin:miter;stroke:rgb(0%,0%,0%);stroke-opacity:1;stroke-miterlimit:10;" d="M 0.954531 0.240273 L 0.564922 0.759727 L 0.0454688 0.889609 L 0.0454688 0.110391 L 0.564922 0.110391 Z M 0.954531 0.240273 " transform="matrix(100,0,0,100,450,4550)"/>
<path style="fill:none;stroke-width:0.01;stroke-linecap:butt;stroke-linejoin:miter;stroke:rgb(0%,0%,0%);stroke-opacity:1;stroke-miterlimit:10;" d="M 0.849648 0.674844 L 0.5 0.674844 L 0.430078 0.954531 L 0.0804297 0.744766 L 0.0804297 0.465039 L 0.360156 0.325156 L 0.360156 0.0454687 L 0.639844 0.255234 L 0.91957 0.534961 Z M 0.849648 0.674844 " transform="matrix(100,0,0,100,600,4550)"/>
<path style="fill:none;stroke-width:0.01;stroke-linecap:butt;stroke-linejoin:miter;stroke:rgb(0%,0%,0%);stroke-opacity:1;stroke-miterlimit:10;" d="M 0.763164 0.476094 L 0.523906 0.763164 L 0.284687 0.90668 L 0.141133 0.954531 L 0.284687 0.715313 L 0.236836 0.428242 L 0.284687 0.0933203 L 0.380391 0.0454687 L 0.571758 0.0454687 L 0.811016 0.0933203 L 0.858867 0.188984 Z M 0.763164 0.476094 " transform="matrix(100,0,0,100,0,4700)"/>
<path style="fill:none;stroke-width:0.01;stroke-linecap:butt;stroke-linejoin:miter;stroke:rgb(0%,0%,0%);stroke-opacity:1;stroke-miterlimit:10;" d="M 0.646641 0.221406 L 0.558633 0.543984 L 0.529336 0.661289 L 0.470664 0.895898 L 0.382695 0.954531 L 0.294727 0.954531 L 0.294727 0.514648 L 0.353359 0.250742 L 0.324063 0.0454687 L 0.558633 0.104102 L 0.705273 0.133437 Z M 0.646641 0.221406 " transform="matrix(100,0,0,100,150,4700)"/>
<path style="fill:none;stroke-width:0.01;stroke-linecap:butt;stroke-linejoin:miter;stroke:rgb(0%,0%,0%);stroke-opacity:1;stroke-miterlimit:10;" d="M 0.772734 0.263633 L 0.663633 0.590898 L 0.554531 0.772734 L 0.481836 0.881836 L 0.372734 0.954531 L 0.227266 0.918164 L 0.263633 0.7 L 0.227266 0.481836 L 0.372734 0.190898 L 0.445469 0.118164 L 0.590898 0.0454687 L 0.772734 0.0818359 Z M 0.772734 0.263633 " transform="matrix(100,0,0,100,300,4700)"/>
<path style="fill:none;stroke-width:0.01;stroke-linecap:butt;stroke-linejoin:miter;stroke:rgb(0%,0%,0%);stroke-opacity:1;stroke-miterlimit:10;" d="M 0.597422 0.824688 L 0.564922 0.629883 L 0.5 0.370117 L 0.5 0.175313 L 0.402578 0.0454687 L 0.402578 0.337656 L 0.435078 0.564922 L 0.435078 0.824688 L 0.5 0.954531 L 0.564922 0.954531 Z M 0.597422 0.824688 " transform="matrix(100,0,0,100,450,4700)"/>
<path style="fill:none;stroke-width:0.01;stroke-linecap:butt;stroke-linejoin:miter;stroke:rgb(0%,0%,0%);stroke-opacity:1;stroke-miterlimit:10;" d="M 0.571016 0.357969 L 0.457383 0.0454687 L 0.34375 0.0454687 L 0.286914 0.272734 L 0.34375 0.443164 L 0.372148 0.670469 L 0.372148 0.840898 L 0.400586 0.954531 L 0.571016 0.784102 L 0.713086 0.755664 L 0.713086 0.670469 L 0.65625 0.556836 Z M 0.571016 0.357969 " transform="matrix(100,0,0,100,600,4700)"/>
<path style="fill:none;stroke-width:0.01;stroke-linecap:butt;stroke-linejoin:miter;stroke:rgb(0%,0%,0%);stroke-opacity:1;stroke-miterlimit:10;" d="M 0.741484 0.301133 L 0.542617 0.556836 L 0.457383 0.755664 L 0.372148 0.897734 L 0.230117 0.954531 L 0.230117 0.784102 L 0.286914 0.613633 L 0.315352 0.329531 L 0.315352 0.0454687 L 0.457383 0.102266 L 0.542617 0.159102 L 0.769883 0.215898 Z M 0.741484 0.301133 " transform="matrix(100,0,0,100,0,4850)"/>
<path style="fill:none;stroke-width:0.01;stroke-linecap:butt;stroke-linejoin:miter;stroke:rgb(0%,0%,0%);stroke-opacity:1;stroke-miterlimit:10;" d="M 0.889609 0.694805 L 0.629883 0.435078 L 0.110391 0.0454687 L 0.110391 0.564922 L 0.370117 0.954531 Z M 0.889609 0.694805 " transform="matrix(100,0,0,100,150,4850)"/>
<path style="fill:none;stroke-width:0.01;stroke-linecap:butt;stroke-linejoin:miter;stroke:rgb(0%,0%,0%);stroke-opacity:1;stroke-miterlimit:10;" d="M 0.483164 0.954531 L 0.180117 0.954531 L 0.213789 0.887188 L 0.213789 0.348477 L 0.180117 0.146445 L 0.247461 0.0454687 L 0.382148 0.213789 L 0.483164 0.281133 L 0.516836 0.483164 L 0.718867 0.516836 L 0.819883 0.550508 Z M 0.483164 0.954531 " transform="matrix(100,0,0,100,300,4850)"/>
<path style="fill:none;stroke-width:0.01;stroke-linecap:butt;stroke-linejoin:miter;stroke:rgb(0%,0%,0%);stroke-opacity:1;stroke-miterlimit:10;" d="M 0.594062 0.390273 L 0.594062 0.641055 L 0.531367 0.766445 L 0.5 0.860508 L 0.468633 0.954531 L 0.280547 0.954531 L 0.311914 0.766445 L 0.311914 0.578359 L 0.280547 0.421641 L 0.405938 0.233555 L 0.437305 0.0767969 L 0.468633 0.0454687 L 0.531367 0.139492 L 0.562695 0.233555 L 0.656758 0.29625 L 0.719453 0.29625 Z M 0.594062 0.390273 " transform="matrix(100,0,0,100,450,4850)"/>
<path style="fill:none;stroke-width:0.01;stroke-linecap:butt;stroke-linejoin:miter;stroke:rgb(0%,0%,0%);stroke-opacity:1;stroke-miterlimit:10;" d="M 0.884609 0.465039 L 0.325156 0.954531 L 0.185313 0.884609 L 0.115391 0.744766 L 0.534961 0.0454687 L 0.744766 0.0454687 Z M 0.884609 0.465039 " transform="matrix(100,0,0,100,600,4850)"/>
<path style="fill:none;stroke-width:0.01;stroke-linecap:butt;stroke-linejoin:miter;stroke:rgb(0%,0%,0%);stroke-opacity:1;stroke-miterlimit:10;" d="M 0.871914 0.417344 L 0.789258 0.169414 L 0.128086 0.169414 L 0.0454688 0.417344 L 0.210742 0.665273 L 0.458672 0.74793 L 0.789258 0.830586 L 0.954531 0.830586 Z M 0.871914 0.417344 " transform="matrix(100,0,0,100,0,5000)"/>
<path style="fill:none;stroke-width:0.01;stroke-linecap:butt;stroke-linejoin:miter;stroke:rgb(0%,0%,0%);stroke-opacity:1;stroke-miterlimit:10;" d="M 0.685938 0.5 L 0.561992 0.623984 L 0.520664 0.830586 L 0.39668 0.913242 L 0.272734 0.954531 L 0.314063 0.74793 L 0.314063 0.582656 L 0.190078 0.210742 L 0.355391 0.0454687 L 0.479336 0.128086 L 0.685938 0.169414 L 0.809922 0.210742 Z M 0.685938 0.5 " transform="matrix(100,0,0,100,150,5000)"/>
<path style="fill:none;stroke-width:0.01;stroke-linecap:butt;stroke-linejoin:miter;stroke:rgb(0%,0%,0%);stroke-opacity:1;stroke-miterlimit:10;" d="M 0.768594 0.376016 L 0.60332 0.541328 L 0.561992 0.623984 L 0.520664 0.830586 L 0.438008 0.954531 L 0.272734 0.954531 L 0.107422 0.871914 L 0.231406 0.541328 L 0.272734 0.417344 L 0.355391 0.0454687 L 0.520664 0.0867578 L 0.727266 0.128086 L 0.892578 0.169414 Z M 0.768594 0.376016 " transform="matrix(100,0,0,100,300,5000)"/>
<path style="fill:none;stroke-width:0.01;stroke-linecap:butt;stroke-linejoin:miter;stroke:rgb(0%,0%,0%);stroke-opacity:1;stroke-miterlimit:10;" d="M 0.803047 0.651523 L 0.863633 0.227266 L 0.681836 0.106055 L 0.257578 0.0454687 L 0.196953 0.348477 L 0.196953 0.651523 L 0.136367 0.83332 L 0.318164 0.954531 L 0.621211 0.83332 Z M 0.803047 0.651523 " transform="matrix(100,0,0,100,450,5000)"/>
<path style="fill:none;stroke-width:0.01;stroke-linecap:butt;stroke-linejoin:miter;stroke:rgb(0%,0%,0%);stroke-opacity:1;stroke-miterlimit:10;" d="M 0.853555 0.601016 L 0.550508 0.0454687 L 0.297969 0.146445 L 0.146445 0.348477 L 0.146445 0.702031 L 0.247461 0.954531 L 0.297969 0.954531 L 0.449492 0.853555 L 0.651523 0.752539 Z M 0.853555 0.601016 " transform="matrix(100,0,0,100,600,5000)"/>
<path style="fill:none;stroke-width:0.01;stroke-linecap:butt;stroke-linejoin:miter;stroke:rgb(0%,0%,0%);stroke-opacity:1;stroke-miterlimit:10;" d="M 0.867969 0.218633 L 0.694805 0.478359 L 0.564922 0.694805 L 0.435078 0.824688 L 0.305195 0.954531 L 0.218633 0.781367 L 0.132031 0.218633 L 0.261914 0.0454687 L 0.478359 0.218633 L 0.608242 0.218633 Z M 0.867969 0.218633 " transform="matrix(100,0,0,100,0,5150)"/>
<path style="fill:none;stroke-width:0.01;stroke-linecap:butt;stroke-linejoin:miter;stroke:rgb(0%,0%,0%);stroke-opacity:1;stroke-miterlimit:10;" d="M 0.696953 0.621211 L 0.636367 0.409102 L 0.515156 0.136367 L 0.303047 0.0454687 L 0.303047 0.257578 L 0.393945 0.560625 L 0.454531 0.803047 L 0.484844 0.924258 L 0.636367 0.954531 L 0.66668 0.893945 Z M 0.696953 0.621211 " transform="matrix(100,0,0,100,150,5150)"/>
<path style="fill:none;stroke-width:0.01;stroke-linecap:butt;stroke-linejoin:miter;stroke:rgb(0%,0%,0%);stroke-opacity:1;stroke-miterlimit:10;" d="M 0.902109 0.115391 L 0.797188 0.430078 L 0.447539 0.5 L 0.272734 0.674844 L 0.237773 0.814687 L 0.167852 0.954531 L 0.0978906 0.849648 L 0.0978906 0.534961 L 0.167852 0.115391 L 0.272734 0.0454687 L 0.552461 0.115391 L 0.727266 0.0804297 Z M 0.902109 0.115391 " transform="matrix(100,0,0,100,300,5150)"/>
<path style="fill:none;stroke-width:0.01;stroke-linecap:butt;stroke-linejoin:miter;stroke:rgb(0%,0%,0%);stroke-opacity:1;stroke-miterlimit:10;" d="M 0.836719 0.41582 L 0.836719 0.112813 L 0.601016 0.112813 L 0.432656 0.146445 L 0.230625 0.0454687 L 0.163281 0.314805 L 0.230625 0.685195 L 0.264297 0.954531 L 0.432656 0.887188 L 0.601016 0.718867 L 0.702031 0.58418 Z M 0.836719 0.41582 " transform="matrix(100,0,0,100,450,5150)"/>
<path style="fill:none;stroke-width:0.01;stroke-linecap:butt;stroke-linejoin:miter;stroke:rgb(0%,0%,0%);stroke-opacity:1;stroke-miterlimit:10;" d="M 0.407227 0.0825781 L 0.5 0.268086 L 0.574219 0.397969 L 0.648438 0.509258 L 0.759727 0.639141 L 0.704063 0.750469 L 0.592773 0.843242 L 0.5 0.935977 L 0.425781 0.954531 L 0.370117 0.898906 L 0.333008 0.824688 L 0.277383 0.67625 L 0.240273 0.546367 L 0.295937 0.342305 L 0.314453 0.230977 L 0.295937 0.0640234 L 0.314453 0.0454687 Z M 0.407227 0.0825781 " transform="matrix(100,0,0,100,600,5150)"/>
<path style="fill:none;stroke-width:0.01;stroke-linecap:butt;stroke-linejoin:miter;stroke:rgb(0%,0%,0%);stroke-opacity:1;stroke-miterlimit:10;" d="M 0.765156 0.575742 L 0.613633 0.803047 L 0.386367 0.954531 L 0.234844 0.727266 L 0.234844 0.5 L 0.310625 0.121211 L 0.462109 0.0454687 L 0.765156 0.121211 Z M 0.765156 0.575742 " transform="matrix(100,0,0,100,0,5300)"/>
<path style="fill:none;stroke-width:0.01;stroke-linecap:butt;stroke-linejoin:miter;stroke:rgb(0%,0%,0%);stroke-opacity:1;stroke-miterlimit:10;" d="M 0.820859 0.740625 L 0.767383 0.473281 L 0.606953 0.473281 L 0.66043 0.205898 L 0.5 0.152422 L 0.232617 0.0454687 L 0.232617 0.366328 L 0.125664 0.633672 L 0.179141 0.794102 L 0.393047 0.901055 L 0.553477 0.954531 L 0.874336 0.954531 Z M 0.820859 0.740625 " transform="matrix(100,0,0,100,150,5300)"/>
<path style="fill:none;stroke-width:0.01;stroke-linecap:butt;stroke-linejoin:miter;stroke:rgb(0%,0%,0%);stroke-opacity:1;stroke-miterlimit:10;" d="M 0.582656 0.0454687 L 0.610195 0.141875 L 0.582656 0.25207 L 0.568867 0.348477 L 0.555078 0.472461 L 0.555078 0.830586 L 0.527539 0.954531 L 0.472461 0.954531 L 0.431133 0.816797 L 0.417344 0.679063 L 0.389805 0.527539 L 0.431133 0.444922 L 0.431133 0.348477 L 0.403594 0.279609 L 0.417344 0.210742 L 0.444922 0.141875 L 0.513789 0.0454687 Z M 0.582656 0.0454687 " transform="matrix(100,0,0,100,300,5300)"/>
<path style="fill:none;stroke-width:0.01;stroke-linecap:butt;stroke-linejoin:miter;stroke:rgb(0%,0%,0%);stroke-opacity:1;stroke-miterlimit:10;" d="M 0.738086 0.954531 L 0.781367 0.651523 L 0.694805 0.478359 L 0.608242 0.261914 L 0.521641 0.08875 L 0.348477 0.0454687 L 0.305195 0.132031 L 0.218633 0.218633 L 0.218633 0.738086 L 0.261914 0.954531 Z M 0.738086 0.954531 " transform="matrix(100,0,0,100,450,5300)"/>
<path style="fill:none;stroke-width:0.01;stroke-linecap:butt;stroke-linejoin:miter;stroke:rgb(0%,0%,0%);stroke-opacity:1;stroke-miterlimit:10;" d="M 0.851914 0.543984 L 0.558633 0.631953 L 0.558633 0.749258 L 0.412031 0.895898 L 0.353359 0.954531 L 0.206758 0.925234 L 0.148086 0.866563 L 0.177422 0.837227 L 0.236055 0.631953 L 0.353359 0.42668 L 0.353359 0.104102 L 0.441367 0.0454687 L 0.5 0.133437 L 0.617305 0.309375 L 0.734609 0.368047 L 0.851914 0.456016 Z M 0.851914 0.543984 " transform="matrix(100,0,0,100,600,5300)"/>
<path style="fill:none;stroke-width:0.01;stroke-linecap:butt;stroke-linejoin:miter;stroke:rgb(0%,0%,0%);stroke-opacity:1;stroke-miterlimit:10;" d="M 0.954531 0.253789 L 0.575742 0.329531 L 0.613633 0.443164 L 0.689375 0.443164 L 0.462109 0.518945 L 0.462109 0.594687 L 0.424258 0.746211 L 0.234844 0.746211 L 0.159102 0.670469 L 0.159102 0.405313 L 0.0454688 0.29168 Z M 0.954531 0.253789 " transform="matrix(100,0,0,100,0,5450)"/>
<path style="fill:none;stroke-width:0.01;stroke-linecap:butt;stroke-linejoin:miter;stroke:rgb(0%,0%,0%);stroke-opacity:1;stroke-miterlimit:10;" d="M 0.690625 0.661289 L 0.602656 0.485352 L 0.631953 0.338711 L 0.514648 0.19207 L 0.397344 0.0454687 L 0.368047 0.221406 L 0.368047 0.514648 L 0.338711 0.602656 L 0.309375 0.749258 L 0.309375 0.778594 L 0.368047 0.837227 L 0.397344 0.925234 L 0.456016 0.954531 L 0.514648 0.895898 L 0.57332 0.866563 L 0.690625 0.866563 Z M 0.690625 0.661289 " transform="matrix(100,0,0,100,150,5450)"/>
<path style="fill:none;stroke-width:0.01;stroke-linecap:butt;stroke-linejoin:miter;stroke:rgb(0%,0%,0%);stroke-opacity:1;stroke-miterlimit:10;" d="M 0.789258 0.458672 L 0.706602 0.789258 L 0.665273 0.913242 L 0.5 0.954531 L 0.210742 0.789258 L 0.210742 0.458672 L 0.25207 0.210742 L 0.376016 0.0454687 L 0.541328 0.128086 L 0.706602 0.293398 Z M 0.789258 0.458672 " transform="matrix(100,0,0,100,300,5450)"/>
<path style="fill:none;stroke-width:0.01;stroke-linecap:butt;stroke-linejoin:miter;stroke:rgb(0%,0%,0%);stroke-opacity:1;stroke-miterlimit:10;" d="M 0.668828 0.175313 L 0.642852 0.461055 L 0.616875 0.694805 L 0.564922 0.902578 L 0.331172 0.954531 L 0.357148 0.824688 L 0.383125 0.590898 L 0.357148 0.409102 L 0.383125 0.279219 L 0.487031 0.0454687 L 0.512969 0.0454687 L 0.616875 0.0974219 Z M 0.668828 0.175313 " transform="matrix(100,0,0,100,450,5450)"/>
<path style="fill:none;stroke-width:0.01;stroke-linecap:butt;stroke-linejoin:miter;stroke:rgb(0%,0%,0%);stroke-opacity:1;stroke-miterlimit:10;" d="M 0.611484 0.199844 L 0.577187 0.542891 L 0.560039 0.783008 L 0.560039 0.954531 L 0.491406 0.954531 L 0.422813 0.920234 L 0.388516 0.834492 L 0.354219 0.662969 L 0.457109 0.577188 L 0.439961 0.542891 L 0.422813 0.354219 L 0.422813 0.216992 L 0.439961 0.131211 L 0.439961 0.0454687 L 0.491406 0.0797656 L 0.628633 0.0797656 L 0.645781 0.0969141 Z M 0.611484 0.199844 " transform="matrix(100,0,0,100,600,5450)"/>
<path style="fill:none;stroke-width:0.01;stroke-linecap:butt;stroke-linejoin:miter;stroke:rgb(0%,0%,0%);stroke-opacity:1;stroke-miterlimit:10;" d="M 0.763164 0.715313 L 0.739219 0.834922 L 0.691406 0.811016 L 0.667461 0.858867 L 0.595703 0.930625 L 0.547852 0.954531 L 0.428242 0.930625 L 0.332539 0.882773 L 0.284687 0.834922 L 0.236836 0.715313 L 0.284687 0.547852 L 0.332539 0.21293 L 0.428242 0.0454687 L 0.476094 0.0454687 L 0.476094 0.260781 L 0.5 0.428242 L 0.547852 0.571758 L 0.619609 0.619609 L 0.739219 0.643555 Z M 0.763164 0.715313 " transform="matrix(100,0,0,100,0,5600)"/>
<path style="fill:none;stroke-width:0.01;stroke-linecap:butt;stroke-linejoin:miter;stroke:rgb(0%,0%,0%);stroke-opacity:1;stroke-miterlimit:10;" d="M 0.684648 0.727266 L 0.741484 0.556836 L 0.684648 0.443164 L 0.684648 0.357969 L 0.65625 0.244336 L 0.627852 0.130664 L 0.514219 0.0454687 L 0.34375 0.159102 L 0.258516 0.357969 L 0.258516 0.585234 L 0.34375 0.8125 L 0.428984 0.897734 L 0.627852 0.954531 L 0.741484 0.954531 L 0.741484 0.869336 L 0.627852 0.869336 Z M 0.684648 0.727266 " transform="matrix(100,0,0,100,150,5600)"/>
<path style="fill:none;stroke-width:0.01;stroke-linecap:butt;stroke-linejoin:miter;stroke:rgb(0%,0%,0%);stroke-opacity:1;stroke-miterlimit:10;" d="M 0.882773 0.428242 L 0.739219 0.667461 L 0.547852 0.811016 L 0.260781 0.954531 L 0.117227 0.954531 L 0.165078 0.715313 L 0.308594 0.667461 L 0.452148 0.523906 L 0.643555 0.236836 L 0.643555 0.0454687 L 0.78707 0.0454687 L 0.882773 0.141133 Z M 0.882773 0.428242 " transform="matrix(100,0,0,100,300,5600)"/>
<path style="fill:none;stroke-width:0.01;stroke-linecap:butt;stroke-linejoin:miter;stroke:rgb(0%,0%,0%);stroke-opacity:1;stroke-miterlimit:10;" d="M 0.691406 0.141133 L 0.619609 0.332539 L 0.619609 0.811016 L 0.595703 0.930625 L 0.452148 0.954531 L 0.356445 0.930625 L 0.356445 0.858867 L 0.404297 0.643555 L 0.356445 0.523906 L 0.308594 0.308594 L 0.428242 0.308594 L 0.356445 0.188984 L 0.404297 0.069375 L 0.380391 0.069375 L 0.523906 0.069375 L 0.667461 0.0454687 Z M 0.691406 0.141133 " transform="matrix(100,0,0,100,450,5600)"/>
<path style="fill:none;stroke-width:0.01;stroke-linecap:butt;stroke-linejoin:miter;stroke:rgb(0%,0%,0%);stroke-opacity:1;stroke-miterlimit:10;" d="M 0.720781 0.798711 L 0.0454688 0.902578 L 0.201289 0.564922 L 0.227266 0.0974219 L 0.357148 0.279219 L 0.720781 0.279219 L 0.902578 0.305195 L 0.954531 0.461055 L 0.928555 0.590898 Z M 0.720781 0.798711 " transform="matrix(100,0,0,100,600,5600)"/>
<path style="fill:none;stroke-width:0.01;stroke-linecap:butt;stroke-linejoin:miter;stroke:rgb(0%,0%,0%);stroke-opacity:1;stroke-miterlimit:10;" d="M 0.867148 0.325156 L 0.622383 0.639844 L 0.5175 0.709805 L 0.447539 0.884609 L 0.202813 0.954531 L 0.132852 0.779727 L 0.202813 0.150352 L 0.237773 0.0454687 L 0.412578 0.115391 L 0.587422 0.185313 L 0.727266 0.185313 Z M 0.867148 0.325156 " transform="matrix(100,0,0,100,0,5750)"/>
<path style="fill:none;stroke-width:0.01;stroke-linecap:butt;stroke-linejoin:miter;stroke:rgb(0%,0%,0%);stroke-opacity:1;stroke-miterlimit:10;" d="M 0.571758 0.954531 L 0.464102 0.87082 L 0.440195 0.643555 L 0.404297 0.428242 L 0.368437 0.165078 L 0.368437 0.0454687 L 0.428242 0.0454687 L 0.452148 0.200938 L 0.5 0.380391 L 0.535898 0.523906 L 0.559805 0.655508 L 0.559805 0.727266 L 0.58375 0.882773 L 0.607656 0.90668 L 0.631563 0.942578 Z M 0.571758 0.954531 " transform="matrix(100,0,0,100,150,5750)"/>
<path style="fill:none;stroke-width:0.01;stroke-linecap:butt;stroke-linejoin:miter;stroke:rgb(0%,0%,0%);stroke-opacity:1;stroke-miterlimit:10;" d="M 0.689375 0.689375 L 0.613633 0.0833203 L 0.386367 0.0454687 L 0.310625 0.386367 L 0.386367 0.765156 L 0.424258 0.91668 L 0.613633 0.954531 L 0.689375 0.91668 Z M 0.689375 0.689375 " transform="matrix(100,0,0,100,300,5750)"/>
<path style="fill:none;stroke-width:0.01;stroke-linecap:butt;stroke-linejoin:miter;stroke:rgb(0%,0%,0%);stroke-opacity:1;stroke-miterlimit:10;" d="M 0.533672 0.853555 L 0.601016 0.0454687 L 0.483164 0.0623047 L 0.398984 0.146445 L 0.449492 0.398984 L 0.466328 0.533672 L 0.432656 0.651523 L 0.41582 0.836719 L 0.41582 0.954531 L 0.483164 0.954531 Z M 0.533672 0.853555 " transform="matrix(100,0,0,100,450,5750)"/>
<path style="fill:none;stroke-width:0.01;stroke-linecap:butt;stroke-linejoin:miter;stroke:rgb(0%,0%,0%);stroke-opacity:1;stroke-miterlimit:10;" d="M 0.849648 0.744766 L 0.639844 0.255234 L 0.360156 0.0454687 L 0.150352 0.0454687 L 0.220273 0.465039 L 0.290195 0.814687 L 0.360156 0.954531 L 0.290195 0.814687 Z M 0.849648 0.744766 " transform="matrix(100,0,0,100,600,5750)"/>
<path style="fill:none;stroke-width:0.01;stroke-linecap:butt;stroke-linejoin:miter;stroke:rgb(0%,0%,0%);stroke-opacity:1;stroke-miterlimit:10;" d="M 0.803047 0.608242 L 0.456719 0.0454687 L 0.283555 0.0454687 L 0.196953 0.435078 L 0.196953 0.954531 L 0.413438 0.824688 L 0.5 0.738086 L 0.629883 0.694805 Z M 0.803047 0.608242 " transform="matrix(100,0,0,100,0,5900)"/>
<path style="fill:none;stroke-width:0.01;stroke-linecap:butt;stroke-linejoin:miter;stroke:rgb(0%,0%,0%);stroke-opacity:1;stroke-miterlimit:10;" d="M 0.581172 0.110391 L 0.613633 0.5 L 0.613633 0.662344 L 0.581172 0.824688 L 0.548711 0.954531 L 0.451289 0.954531 L 0.386367 0.727266 L 0.386367 0.435078 L 0.418828 0.142852 L 0.418828 0.0454687 Z M 0.581172 0.110391 " transform="matrix(100,0,0,100,150,5900)"/>
<path style="fill:none;stroke-width:0.01;stroke-linecap:butt;stroke-linejoin:miter;stroke:rgb(0%,0%,0%);stroke-opacity:1;stroke-miterlimit:10;" d="M 0.90793 0.418398 L 0.698125 0.325156 L 0.651523 0.208633 L 0.558281 0.115391 L 0.441719 0.0920703 L 0.348477 0.06875 L 0.231953 0.0920703 L 0.0920703 0.161992 L 0.0454687 0.255234 L 0.115391 0.395117 L 0.185313 0.488359 L 0.255234 0.674844 L 0.301875 0.814687 L 0.278555 0.93125 L 0.348477 0.814687 L 0.441719 0.721445 L 0.534961 0.651523 L 0.628203 0.604883 L 0.721445 0.581602 L 0.838008 0.558281 L 0.954531 0.534961 Z M 0.90793 0.418398 " transform="matrix(100,0,0,100,300,5900)"/>
<path style="fill:none;stroke-width:0.01;stroke-linecap:butt;stroke-linejoin:miter;stroke:rgb(0%,0%,0%);stroke-opacity:1;stroke-miterlimit:10;" d="M 0.91668 0.5 L 0.765156 0.878789 L 0.310625 0.954531 L 0.159102 0.727266 L 0.0833203 0.0454687 L 0.310625 0.121211 L 0.613633 0.196953 L 0.91668 0.272734 Z M 0.91668 0.5 " transform="matrix(100,0,0,100,450,5900)"/>
<path style="fill:none;stroke-width:0.01;stroke-linecap:butt;stroke-linejoin:miter;stroke:rgb(0%,0%,0%);stroke-opacity:1;stroke-miterlimit:10;" d="M 0.668828 0.642852 L 0.642852 0.487031 L 0.746758 0.487031 L 0.746758 0.357148 L 0.616875 0.357148 L 0.590898 0.201289 L 0.538945 0.0454687 L 0.357148 0.0714453 L 0.253242 0.201289 L 0.253242 0.409102 L 0.279219 0.590898 L 0.305195 0.876641 L 0.279219 0.954531 L 0.383125 0.954531 L 0.461055 0.850664 L 0.512969 0.798711 L 0.694805 0.746758 Z M 0.668828 0.642852 " transform="matrix(100,0,0,100,600,5900)"/>
<path style="fill:none;stroke-width:0.01;stroke-linecap:butt;stroke-linejoin:miter;stroke:rgb(0%,0%,0%);stroke-opacity:1;stroke-miterlimit:10;" d="M 0.624766 0.330664 L 0.535664 0.508906 L 0.517813 0.633672 L 0.517813 0.901055 L 0.5 0.954531 L 0.375234 0.954531 L 0.357383 0.722813 L 0.357383 0.54457 L 0.393047 0.330664 L 0.428711 0.13457 L 0.482187 0.0454687 L 0.571289 0.0632813 L 0.642617 0.0632813 L 0.642617 0.0989453 L 0.606953 0.116758 L 0.606953 0.205898 L 0.642617 0.241523 Z M 0.624766 0.330664 " transform="matrix(100,0,0,100,0,6050)"/>
<path style="fill:none;stroke-width:0.01;stroke-linecap:butt;stroke-linejoin:miter;stroke:rgb(0%,0%,0%);stroke-opacity:1;stroke-miterlimit:10;" d="M 0.529648 0.361641 L 0.509883 0.480234 L 0.450586 0.618594 L 0.411055 0.756914 L 0.371523 0.895273 L 0.332031 0.954531 L 0.233203 0.915039 L 0.252969 0.677852 L 0.272734 0.559297 L 0.233203 0.519766 L 0.272734 0.282617 L 0.391289 0.0652344 L 0.391289 0.0454687 L 0.766797 0.0454687 L 0.7075 0.144258 L 0.648203 0.262852 Z M 0.529648 0.361641 " transform="matrix(100,0,0,100,150,6050)"/>
<path style="fill:none;stroke-width:0.01;stroke-linecap:butt;stroke-linejoin:miter;stroke:rgb(0%,0%,0%);stroke-opacity:1;stroke-miterlimit:10;" d="M 0.684258 0.315742 L 0.610547 0.438594 L 0.536836 0.610547 L 0.512266 0.83168 L 0.487734 0.954531 L 0.414023 0.954531 L 0.340313 0.635117 L 0.266602 0.487734 L 0.291172 0.291172 L 0.364883 0.0946094 L 0.463164 0.0454687 L 0.610547 0.0454687 L 0.708828 0.0700391 L 0.733398 0.11918 L 0.708828 0.14375 L 0.659687 0.217461 Z M 0.684258 0.315742 " transform="matrix(100,0,0,100,300,6050)"/>
<path style="fill:none;stroke-width:0.01;stroke-linecap:butt;stroke-linejoin:miter;stroke:rgb(0%,0%,0%);stroke-opacity:1;stroke-miterlimit:10;" d="M 0.564922 0.160898 L 0.579375 0.954531 L 0.492773 0.651523 L 0.449492 0.492773 L 0.420625 0.334063 L 0.420625 0.146445 L 0.435078 0.0454687 Z M 0.564922 0.160898 " transform="matrix(100,0,0,100,450,6050)"/>
<path style="fill:none;stroke-width:0.01;stroke-linecap:butt;stroke-linejoin:miter;stroke:rgb(0%,0%,0%);stroke-opacity:1;stroke-miterlimit:10;" d="M 0.435078 0.201289 L 0.525977 0.461055 L 0.629883 0.824688 L 0.655859 0.850664 L 0.681836 0.941563 L 0.590898 0.954531 L 0.487031 0.941563 L 0.435078 0.954531 L 0.383125 0.928555 L 0.383125 0.824688 L 0.370117 0.512969 L 0.383125 0.383125 L 0.370117 0.279219 L 0.344141 0.227266 L 0.318164 0.0454687 L 0.370117 0.136367 Z M 0.435078 0.201289 " transform="matrix(100,0,0,100,600,6050)"/>
<path style="fill:none;stroke-width:0.01;stroke-linecap:butt;stroke-linejoin:miter;stroke:rgb(0%,0%,0%);stroke-opacity:1;stroke-miterlimit:10;" d="M 0.615703 0.0785156 L 0.54957 0.227266 L 0.533047 0.392578 L 0.5 0.590898 L 0.5 0.772734 L 0.483477 0.888438 L 0.433867 0.954531 L 0.384297 0.954531 L 0.40082 0.657031 L 0.384297 0.458672 L 0.40082 0.293398 L 0.483477 0.0950391 L 0.466953 0.0454688 Z M 0.615703 0.0785156 " transform="matrix(100,0,0,100,0,6200)"/>
<path style="fill:none;stroke-width:0.01;stroke-linecap:butt;stroke-linejoin:miter;stroke:rgb(0%,0%,0%);stroke-opacity:1;stroke-miterlimit:10;" d="M 0.573984 0.21457 L 0.552852 0.468281 L 0.531719 0.658555 L 0.531719 0.848828 L 0.489414 0.954531 L 0.426016 0.912266 L 0.468281 0.658555 L 0.489414 0.426016 L 0.489414 0.193438 L 0.510586 0.0877344 L 0.531719 0.0454688 L 0.552852 0.0454688 Z M 0.573984 0.21457 " transform="matrix(100,0,0,100,150,6200)"/>
<path style="fill:none;stroke-width:0.01;stroke-linecap:butt;stroke-linejoin:miter;stroke:rgb(0%,0%,0%);stroke-opacity:1;stroke-miterlimit:10;" d="M 0.644609 0.417344 L 0.561992 0.830586 L 0.438008 0.954531 L 0.272734 0.871914 L 0.355391 0.376016 L 0.355391 0.0454688 L 0.561992 0.0867578 L 0.727266 0.210742 Z M 0.644609 0.417344 " transform="matrix(100,0,0,100,300,6200)"/>
<path style="fill:none;stroke-width:0.01;stroke-linecap:butt;stroke-linejoin:miter;stroke:rgb(0%,0%,0%);stroke-opacity:1;stroke-miterlimit:10;" d="M 0.853555 0.0454688 L 0.954531 0.247461 L 0.247461 0.954531 L 0.0454688 0.752539 Z M 0.853555 0.0454688 " transform="matrix(100,0,0,100,450,6200)"/>
</g>
</svg>
