<?xml version="1.0" encoding="UTF-8"?>
<svg xmlns="http://www.w3.org/2000/svg" xmlns:xlink="http://www.w3.org/1999/xlink" width="750pt" height="10000pt" viewBox="0 0 750 10000" version="1.1">
<g id="surface1">
<path style="fill:none;stroke-width:0.01;stroke-linecap:butt;stroke-linejoin:miter;stroke:rgb(0%,0%,0%);stroke-opacity:1;stroke-miterlimit:10;" d="M 0.487461 0.0454687 L 0.473164 0.954531 L 0.516094 0.954531 L 0.526836 0.0454687 Z M 0.487461 0.0454687 " transform="matrix(100,0,0,100,0,200)"/>
<path style="fill:none;stroke-width:0.01;stroke-linecap:butt;stroke-linejoin:miter;stroke:rgb(0%,0%,0%);stroke-opacity:1;stroke-miterlimit:10;" d="M 0.422969 0.954531 L 0.407539 0.630977 L 0.407539 0.415273 L 0.376719 0.199531 L 0.422969 0.0454687 L 0.46918 0.0916797 L 0.515391 0.322812 L 0.577031 0.538516 L 0.607852 0.769648 L 0.623281 0.954531 Z M 0.422969 0.954531 " transform="matrix(100,0,0,100,150,200)"/>
<path style="fill:none;stroke-width:0.01;stroke-linecap:butt;stroke-linejoin:miter;stroke:rgb(0%,0%,0%);stroke-opacity:1;stroke-miterlimit:10;" d="M 0.767187 0.303438 L 0.767187 0.0454687 L 0.662773 0.0454687 L 0.232813 0.868555 L 0.245078 0.905391 L 0.269648 0.954531 L 0.288086 0.954531 Z M 0.767187 0.303438 " transform="matrix(100,0,0,100,300,200)"/>
<path style="fill:none;stroke-width:0.01;stroke-linecap:butt;stroke-linejoin:miter;stroke:rgb(0%,0%,0%);stroke-opacity:1;stroke-miterlimit:10;" d="M 0.345625 0.937383 L 0.740156 0.337031 L 0.740156 0.114063 L 0.70582 0.0454687 L 0.259844 0.868789 L 0.277031 0.954531 Z M 0.345625 0.937383 " transform="matrix(100,0,0,100,450,200)"/>
<path style="fill:none;stroke-width:0.01;stroke-linecap:butt;stroke-linejoin:miter;stroke:rgb(0%,0%,0%);stroke-opacity:1;stroke-miterlimit:10;" d="M 0.559063 0.950977 L 0.533984 0.954531 L 0.440938 0.0454687 L 0.466016 0.0454687 Z M 0.559063 0.950977 " transform="matrix(100,0,0,100,600,200)"/>
<path style="fill:none;stroke-width:0.01;stroke-linecap:butt;stroke-linejoin:miter;stroke:rgb(0%,0%,0%);stroke-opacity:1;stroke-miterlimit:10;" d="M 0.593789 0.954531 L 0.507227 0.954531 L 0.406211 0.0598828 L 0.449492 0.0454687 L 0.492773 0.0598828 Z M 0.593789 0.954531 " transform="matrix(100,0,0,100,0,350)"/>
<path style="fill:none;stroke-width:0.01;stroke-linecap:butt;stroke-linejoin:miter;stroke:rgb(0%,0%,0%);stroke-opacity:1;stroke-miterlimit:10;" d="M 0.641836 0.0454687 L 0.583828 0.0454687 L 0.358164 0.941641 L 0.371055 0.954531 Z M 0.641836 0.0454687 " transform="matrix(100,0,0,100,150,350)"/>
<path style="fill:none;stroke-width:0.01;stroke-linecap:butt;stroke-linejoin:miter;stroke:rgb(0%,0%,0%);stroke-opacity:1;stroke-miterlimit:10;" d="M 0.672422 0.0767969 L 0.343242 0.954531 L 0.327578 0.860508 L 0.641055 0.0454687 Z M 0.672422 0.0767969 " transform="matrix(100,0,0,100,300,350)"/>
<path style="fill:none;stroke-width:0.01;stroke-linecap:butt;stroke-linejoin:miter;stroke:rgb(0%,0%,0%);stroke-opacity:1;stroke-miterlimit:10;" d="M 0.806211 0.246406 L 0.76793 0.418672 L 0.710508 0.552617 L 0.653125 0.610039 L 0.547852 0.657891 L 0.471289 0.734453 L 0.346875 0.849297 L 0.21293 0.944961 L 0.184219 0.954531 L 0.184219 0.897148 L 0.260781 0.858867 L 0.327734 0.782305 L 0.423438 0.590898 L 0.49043 0.466523 L 0.557422 0.35168 L 0.595703 0.284687 L 0.653125 0.160273 L 0.710508 0.0550391 L 0.76793 0.0454687 L 0.796641 0.102852 L 0.815781 0.169844 Z M 0.806211 0.246406 " transform="matrix(100,0,0,100,450,350)"/>
<path style="fill:none;stroke-width:0.01;stroke-linecap:butt;stroke-linejoin:miter;stroke:rgb(0%,0%,0%);stroke-opacity:1;stroke-miterlimit:10;" d="M 0.889609 0.0454687 L 0.932891 0.738086 L 0.803047 0.954531 L 0.629883 0.867969 L 0.5 0.824688 L 0.240273 0.781367 L 0.196953 0.608242 L 0.0671094 0.478359 L 0.153672 0.435078 L 0.370117 0.651523 L 0.5 0.608242 L 0.629883 0.391758 L 0.673164 0.261914 Z M 0.889609 0.0454687 " transform="matrix(100,0,0,100,600,350)"/>
<path style="fill:none;stroke-width:0.01;stroke-linecap:butt;stroke-linejoin:miter;stroke:rgb(0%,0%,0%);stroke-opacity:1;stroke-miterlimit:10;" d="M 0.887109 0.0513281 L 0.587969 0.27418 L 0.458945 0.42082 L 0.365117 0.526406 L 0.288867 0.626094 L 0.218477 0.72582 L 0.165703 0.825508 L 0.130508 0.954531 L 0.112891 0.948672 L 0.11875 0.895898 L 0.153945 0.80793 L 0.212617 0.690625 L 0.277109 0.57332 L 0.3475 0.461875 L 0.482422 0.285938 L 0.570391 0.19207 L 0.716992 0.0454688 Z M 0.887109 0.0513281 " transform="matrix(100,0,0,100,0,500)"/>
<path style="fill:none;stroke-width:0.01;stroke-linecap:butt;stroke-linejoin:miter;stroke:rgb(0%,0%,0%);stroke-opacity:1;stroke-miterlimit:10;" d="M 0.954531 0.0981641 L 0.440703 0.0981641 L 0.0454687 0.559297 L 0.0454687 0.585625 L 0.954531 0.901836 Z M 0.954531 0.0981641 " transform="matrix(100,0,0,100,150,500)"/>
<path style="fill:none;stroke-width:0.01;stroke-linecap:butt;stroke-linejoin:miter;stroke:rgb(0%,0%,0%);stroke-opacity:1;stroke-miterlimit:10;" d="M 0.768828 0.289844 L 0.641758 0.465781 L 0.534219 0.583086 L 0.456016 0.700391 L 0.397344 0.778594 L 0.319141 0.866562 L 0.289844 0.954531 L 0.231172 0.954531 L 0.280078 0.827461 L 0.407148 0.583086 L 0.524453 0.397344 L 0.651523 0.19207 L 0.749258 0.065 L 0.768828 0.0454688 Z M 0.768828 0.289844 " transform="matrix(100,0,0,100,300,500)"/>
<path style="fill:none;stroke-width:0.01;stroke-linecap:butt;stroke-linejoin:miter;stroke:rgb(0%,0%,0%);stroke-opacity:1;stroke-miterlimit:10;" d="M 0.867969 0.305195 L 0.608242 0.651523 L 0.391758 0.781367 L 0.132031 0.954531 L 0.0454688 0.694805 L 0.218633 0.521641 L 0.305195 0.132031 L 0.391758 0.0454688 L 0.954531 0.0454688 Z M 0.867969 0.305195 " transform="matrix(100,0,0,100,450,500)"/>
<path style="fill:none;stroke-width:0.01;stroke-linecap:butt;stroke-linejoin:miter;stroke:rgb(0%,0%,0%);stroke-opacity:1;stroke-miterlimit:10;" d="M 0.0454688 0.361094 L 0.101016 0.260117 L 0.146445 0.234844 L 0.196953 0.229805 L 0.954531 0.421719 L 0.954531 0.770195 L 0.87375 0.719688 L 0.949492 0.714648 L 0.954531 0.66918 L 0.782813 0.664141 L 0.515156 0.512617 L 0.717188 0.497461 L 0.712109 0.467188 L 0.449492 0.472227 L 0.358594 0.41668 L 0.489883 0.406562 L 0.494961 0.381328 L 0.303047 0.386367 L 0.161602 0.300508 L 0.146445 0.290391 L 0.116172 0.295469 L 0.0858594 0.315664 L 0.0757422 0.33082 Z M 0.0454688 0.361094 " transform="matrix(100,0,0,100,600,500)"/>
<path style="fill:none;stroke-width:0.01;stroke-linecap:butt;stroke-linejoin:miter;stroke:rgb(0%,0%,0%);stroke-opacity:1;stroke-miterlimit:10;" d="M 0.661367 0.0454688 L 0.166484 0.900742 L 0.166484 0.954531 L 0.833516 0.0454688 Z M 0.661367 0.0454688 " transform="matrix(100,0,0,100,0,650)"/>
<path style="fill:none;stroke-width:0.01;stroke-linecap:butt;stroke-linejoin:miter;stroke:rgb(0%,0%,0%);stroke-opacity:1;stroke-miterlimit:10;" d="M 0.954531 0.506797 L 0.940977 0.710313 L 0.76457 0.615352 L 0.493203 0.642461 L 0.438945 0.683164 L 0.384648 0.76457 L 0.303242 0.791719 L 0.262539 0.805273 L 0.194727 0.778164 L 0.113281 0.751016 L 0.0454687 0.696758 L 0.0590234 0.5475 L 0.0861719 0.4525 L 0.0590234 0.221836 L 0.14043 0.425391 L 0.181133 0.561055 L 0.276133 0.561055 L 0.371094 0.466094 L 0.479648 0.316836 L 0.642461 0.221836 L 0.751016 0.194727 L 0.846016 0.221836 L 0.913828 0.262539 L 0.954531 0.316836 Z M 0.954531 0.506797 " transform="matrix(100,0,0,100,150,650)"/>
<path style="fill:none;stroke-width:0.01;stroke-linecap:butt;stroke-linejoin:miter;stroke:rgb(0%,0%,0%);stroke-opacity:1;stroke-miterlimit:10;" d="M 0.837656 0.0454688 L 0.162344 0.954531 L 0.218633 0.954531 L 0.837656 0.201289 Z M 0.837656 0.0454688 " transform="matrix(100,0,0,100,300,650)"/>
<path style="fill:none;stroke-width:0.01;stroke-linecap:butt;stroke-linejoin:miter;stroke:rgb(0%,0%,0%);stroke-opacity:1;stroke-miterlimit:10;" d="M 0.555469 0.0454688 L 0.197578 0.954531 L 0.340742 0.950977 L 0.802422 0.12418 L 0.802422 0.0454688 Z M 0.555469 0.0454688 " transform="matrix(100,0,0,100,450,650)"/>
<path style="fill:none;stroke-width:0.01;stroke-linecap:butt;stroke-linejoin:miter;stroke:rgb(0%,0%,0%);stroke-opacity:1;stroke-miterlimit:10;" d="M 0.539375 0.0454688 L 0.385469 0.54293 L 0.381875 0.693281 L 0.36043 0.746953 L 0.303164 0.789922 L 0.263789 0.829258 L 0.256641 0.832852 L 0.253047 0.954531 L 0.313906 0.954531 L 0.36043 0.911602 L 0.399805 0.804219 L 0.417695 0.704023 L 0.428438 0.650313 L 0.553672 0.385469 L 0.746953 0.0454688 Z M 0.539375 0.0454688 " transform="matrix(100,0,0,100,600,650)"/>
<path style="fill:none;stroke-width:0.01;stroke-linecap:butt;stroke-linejoin:miter;stroke:rgb(0%,0%,0%);stroke-opacity:1;stroke-miterlimit:10;" d="M 0.632422 0.0454687 L 0.449883 0.585898 L 0.435586 0.671797 L 0.435586 0.704023 L 0.431992 0.743359 L 0.396211 0.786328 L 0.29957 0.850742 L 0.285273 0.879375 L 0.278086 0.908008 L 0.263789 0.929492 L 0.213672 0.954531 L 0.235156 0.954531 L 0.267344 0.943789 L 0.313906 0.925898 L 0.431992 0.84 L 0.460625 0.789922 L 0.464219 0.686094 L 0.528633 0.54293 L 0.786328 0.0454687 Z M 0.632422 0.0454687 " transform="matrix(100,0,0,100,0,800)"/>
<path style="fill:none;stroke-width:0.01;stroke-linecap:butt;stroke-linejoin:miter;stroke:rgb(0%,0%,0%);stroke-opacity:1;stroke-miterlimit:10;" d="M 0.537031 0.0454687 L 0.449492 0.0521875 L 0.442773 0.260938 L 0.462969 0.321563 L 0.429297 0.328281 L 0.41582 0.537031 L 0.382148 0.752539 L 0.388906 0.954531 L 0.617852 0.0454687 L 0.543789 0.0454687 Z M 0.537031 0.0454687 " transform="matrix(100,0,0,100,150,800)"/>
<path style="fill:none;stroke-width:0.01;stroke-linecap:butt;stroke-linejoin:miter;stroke:rgb(0%,0%,0%);stroke-opacity:1;stroke-miterlimit:10;" d="M 0.553789 0.0454687 L 0.478477 0.0454687 L 0.408555 0.954531 L 0.591445 0.0454687 Z M 0.553789 0.0454687 " transform="matrix(100,0,0,100,300,800)"/>
<path style="fill:none;stroke-width:0.01;stroke-linecap:butt;stroke-linejoin:miter;stroke:rgb(0%,0%,0%);stroke-opacity:1;stroke-miterlimit:10;" d="M 0.492109 0.0454687 L 0.468398 0.638359 L 0.428867 0.772734 L 0.397227 0.820156 L 0.389336 0.954531 L 0.460469 0.867578 L 0.563242 0.298438 L 0.610664 0.0454687 Z M 0.492109 0.0454687 " transform="matrix(100,0,0,100,450,800)"/>
<path style="fill:none;stroke-width:0.01;stroke-linecap:butt;stroke-linejoin:miter;stroke:rgb(0%,0%,0%);stroke-opacity:1;stroke-miterlimit:10;" d="M 0.585547 0.0454687 L 0.483945 0.655078 L 0.457227 0.751328 L 0.43582 0.847578 L 0.414453 0.954531 L 0.430469 0.745977 L 0.462578 0.478594 L 0.46793 0.360977 L 0.494648 0.104297 L 0.494648 0.0454687 Z M 0.585547 0.0454687 " transform="matrix(100,0,0,100,600,800)"/>
<path style="fill:none;stroke-width:0.01;stroke-linecap:butt;stroke-linejoin:miter;stroke:rgb(0%,0%,0%);stroke-opacity:1;stroke-miterlimit:10;" d="M 0.57625 0.0454687 L 0.453086 0.0454687 L 0.42375 0.332852 L 0.435469 0.485352 L 0.42375 0.567461 L 0.435469 0.714063 L 0.441367 0.80207 L 0.441367 0.931094 L 0.447227 0.954531 L 0.476523 0.837227 L 0.494141 0.614375 L 0.523477 0.368047 L 0.546914 0.221406 Z M 0.57625 0.0454687 " transform="matrix(100,0,0,100,0,950)"/>
<path style="fill:none;stroke-width:0.01;stroke-linecap:butt;stroke-linejoin:miter;stroke:rgb(0%,0%,0%);stroke-opacity:1;stroke-miterlimit:10;" d="M 0.571953 0.0585156 L 0.513086 0.0454687 L 0.480391 0.222031 L 0.473828 0.398633 L 0.441133 0.75832 L 0.428047 0.954531 L 0.460742 0.712539 L 0.526172 0.339766 Z M 0.571953 0.0585156 " transform="matrix(100,0,0,100,150,950)"/>
<path style="fill:none;stroke-width:0.01;stroke-linecap:butt;stroke-linejoin:miter;stroke:rgb(0%,0%,0%);stroke-opacity:1;stroke-miterlimit:10;" d="M 0.600586 0.0454687 L 0.496289 0.0454687 L 0.466484 0.723555 L 0.444102 0.880039 L 0.406836 0.909844 L 0.399414 0.917305 L 0.406836 0.954531 L 0.451563 0.954531 L 0.466484 0.872578 L 0.488828 0.701211 Z M 0.600586 0.0454687 " transform="matrix(100,0,0,100,300,950)"/>
<path style="fill:none;stroke-width:0.01;stroke-linecap:butt;stroke-linejoin:miter;stroke:rgb(0%,0%,0%);stroke-opacity:1;stroke-miterlimit:10;" d="M 0.693945 0.0454687 L 0.378789 0.0454687 L 0.306055 0.712109 L 0.330312 0.954531 L 0.5 0.615156 Z M 0.693945 0.0454687 " transform="matrix(100,0,0,100,450,950)"/>
<path style="fill:none;stroke-width:0.01;stroke-linecap:butt;stroke-linejoin:miter;stroke:rgb(0%,0%,0%);stroke-opacity:1;stroke-miterlimit:10;" d="M 0.439648 0.0454687 L 0.42543 0.776992 L 0.42543 0.840898 L 0.41832 0.954531 L 0.546172 0.215898 L 0.58168 0.0596484 Z M 0.439648 0.0454687 " transform="matrix(100,0,0,100,600,950)"/>
<path style="fill:none;stroke-width:0.01;stroke-linecap:butt;stroke-linejoin:miter;stroke:rgb(0%,0%,0%);stroke-opacity:1;stroke-miterlimit:10;" d="M 0.636367 0.0584375 L 0.590898 0.318164 L 0.545469 0.642852 L 0.493516 0.837656 L 0.409102 0.928555 L 0.376641 0.954531 L 0.363633 0.909102 L 0.42207 0.837656 L 0.512969 0.610391 L 0.532461 0.279219 L 0.545469 0.0454687 Z M 0.636367 0.0584375 " transform="matrix(100,0,0,100,0,1100)"/>
<path style="fill:none;stroke-width:0.01;stroke-linecap:butt;stroke-linejoin:miter;stroke:rgb(0%,0%,0%);stroke-opacity:1;stroke-miterlimit:10;" d="M 0.562813 0.0454687 L 0.44457 0.0602344 L 0.437188 0.954531 Z M 0.562813 0.0454687 " transform="matrix(100,0,0,100,150,1100)"/>
<path style="fill:none;stroke-width:0.01;stroke-linecap:butt;stroke-linejoin:miter;stroke:rgb(0%,0%,0%);stroke-opacity:1;stroke-miterlimit:10;" d="M 0.684063 0.0454687 L 0.406094 0.0529687 L 0.330938 0.74418 L 0.315937 0.954531 L 0.376016 0.879414 L 0.518789 0.49625 Z M 0.684063 0.0454687 " transform="matrix(100,0,0,100,300,1100)"/>
<path style="fill:none;stroke-width:0.01;stroke-linecap:butt;stroke-linejoin:miter;stroke:rgb(0%,0%,0%);stroke-opacity:1;stroke-miterlimit:10;" d="M 0.680313 0.0454687 L 0.394805 0.0454687 L 0.327187 0.699102 L 0.319687 0.954531 L 0.379805 0.826836 Z M 0.680313 0.0454687 " transform="matrix(100,0,0,100,450,1100)"/>
<path style="fill:none;stroke-width:0.01;stroke-linecap:butt;stroke-linejoin:miter;stroke:rgb(0%,0%,0%);stroke-opacity:1;stroke-miterlimit:10;" d="M 0.705195 0.0517578 L 0.370586 0.0454687 L 0.301133 0.765156 L 0.294805 0.941914 L 0.301133 0.954531 L 0.351641 0.897734 L 0.383203 0.834609 Z M 0.705195 0.0517578 " transform="matrix(100,0,0,100,600,1100)"/>
<path style="fill:none;stroke-width:0.01;stroke-linecap:butt;stroke-linejoin:miter;stroke:rgb(0%,0%,0%);stroke-opacity:1;stroke-miterlimit:10;" d="M 0.711211 0.0454687 L 0.389805 0.0454687 L 0.325547 0.706602 L 0.288789 0.780078 L 0.288789 0.954531 L 0.353086 0.936172 L 0.527539 0.486211 Z M 0.711211 0.0454687 " transform="matrix(100,0,0,100,0,1250)"/>
<path style="fill:none;stroke-width:0.01;stroke-linecap:butt;stroke-linejoin:miter;stroke:rgb(0%,0%,0%);stroke-opacity:1;stroke-miterlimit:10;" d="M 0.684805 0.0454687 L 0.315195 0.0454687 L 0.355156 0.954531 Z M 0.684805 0.0454687 " transform="matrix(100,0,0,100,150,1250)"/>
<path style="fill:none;stroke-width:0.01;stroke-linecap:butt;stroke-linejoin:miter;stroke:rgb(0%,0%,0%);stroke-opacity:1;stroke-miterlimit:10;" d="M 0.566172 0.0454687 L 0.468359 0.0454687 L 0.433828 0.954531 L 0.502891 0.465469 Z M 0.566172 0.0454687 " transform="matrix(100,0,0,100,300,1250)"/>
<path style="fill:none;stroke-width:0.01;stroke-linecap:butt;stroke-linejoin:miter;stroke:rgb(0%,0%,0%);stroke-opacity:1;stroke-miterlimit:10;" d="M 0.629336 0.0454687 L 0.400234 0.0454687 L 0.370664 0.592383 L 0.38543 0.954531 L 0.392812 0.954531 Z M 0.629336 0.0454687 " transform="matrix(100,0,0,100,450,1250)"/>
<path style="fill:none;stroke-width:0.01;stroke-linecap:butt;stroke-linejoin:miter;stroke:rgb(0%,0%,0%);stroke-opacity:1;stroke-miterlimit:10;" d="M 0.601016 0.0454687 L 0.463281 0.0454687 L 0.398984 0.954531 L 0.472461 0.945352 Z M 0.601016 0.0454687 " transform="matrix(100,0,0,100,600,1250)"/>
<path style="fill:none;stroke-width:0.01;stroke-linecap:butt;stroke-linejoin:miter;stroke:rgb(0%,0%,0%);stroke-opacity:1;stroke-miterlimit:10;" d="M 0.591914 0.0454687 L 0.47957 0.0454687 L 0.408086 0.954531 L 0.448945 0.954531 Z M 0.591914 0.0454687 " transform="matrix(100,0,0,100,0,1400)"/>
<path style="fill:none;stroke-width:0.01;stroke-linecap:butt;stroke-linejoin:miter;stroke:rgb(0%,0%,0%);stroke-opacity:1;stroke-miterlimit:10;" d="M 0.572227 0.0624609 L 0.470273 0.0454687 L 0.427773 0.954531 L 0.444766 0.937539 Z M 0.572227 0.0624609 " transform="matrix(100,0,0,100,150,1400)"/>
<path style="fill:none;stroke-width:0.01;stroke-linecap:butt;stroke-linejoin:miter;stroke:rgb(0%,0%,0%);stroke-opacity:1;stroke-miterlimit:10;" d="M 0.62293 0.0454687 L 0.462852 0.056875 L 0.37707 0.954531 L 0.417109 0.954531 L 0.457109 0.771602 L 0.582891 0.182695 L 0.62293 0.0626172 Z M 0.62293 0.0454687 " transform="matrix(100,0,0,100,300,1400)"/>
<path style="fill:none;stroke-width:0.01;stroke-linecap:butt;stroke-linejoin:miter;stroke:rgb(0%,0%,0%);stroke-opacity:1;stroke-miterlimit:10;" d="M 0.515156 0.0454687 L 0.363633 0.954531 L 0.636367 0.0757422 Z M 0.515156 0.0454687 " transform="matrix(100,0,0,100,450,1400)"/>
<path style="fill:none;stroke-width:0.01;stroke-linecap:butt;stroke-linejoin:miter;stroke:rgb(0%,0%,0%);stroke-opacity:1;stroke-miterlimit:10;" d="M 0.511445 0.0454687 L 0.379922 0.954531 L 0.620078 0.0454687 Z M 0.511445 0.0454687 " transform="matrix(100,0,0,100,600,1400)"/>
<path style="fill:none;stroke-width:0.01;stroke-linecap:butt;stroke-linejoin:miter;stroke:rgb(0%,0%,0%);stroke-opacity:1;stroke-miterlimit:10;" d="M 0.547539 0.0454687 L 0.488125 0.0454687 L 0.452461 0.948594 L 0.47625 0.954531 Z M 0.547539 0.0454687 " transform="matrix(100,0,0,100,0,1550)"/>
<path style="fill:none;stroke-width:0.01;stroke-linecap:butt;stroke-linejoin:miter;stroke:rgb(0%,0%,0%);stroke-opacity:1;stroke-miterlimit:10;" d="M 0.562852 0.0454687 L 0.495156 0.0454687 L 0.437148 0.954531 L 0.495156 0.944883 Z M 0.562852 0.0454687 " transform="matrix(100,0,0,100,150,1550)"/>
<path style="fill:none;stroke-width:0.01;stroke-linecap:butt;stroke-linejoin:miter;stroke:rgb(0%,0%,0%);stroke-opacity:1;stroke-miterlimit:10;" d="M 0.59125 0.0454687 L 0.53043 0.0454687 L 0.491055 0.528633 L 0.46957 0.689688 L 0.430195 0.87582 L 0.40875 0.954531 L 0.430195 0.933086 L 0.487461 0.786328 L 0.53043 0.525039 L 0.559063 0.249453 Z M 0.59125 0.0454687 " transform="matrix(100,0,0,100,300,1550)"/>
<path style="fill:none;stroke-width:0.01;stroke-linecap:butt;stroke-linejoin:miter;stroke:rgb(0%,0%,0%);stroke-opacity:1;stroke-miterlimit:10;" d="M 0.601953 0.0454687 L 0.398047 0.0454687 L 0.423516 0.954531 L 0.491484 0.716641 Z M 0.601953 0.0454687 " transform="matrix(100,0,0,100,450,1550)"/>
<path style="fill:none;stroke-width:0.01;stroke-linecap:butt;stroke-linejoin:miter;stroke:rgb(0%,0%,0%);stroke-opacity:1;stroke-miterlimit:10;" d="M 0.558984 0.0593359 L 0.510391 0.0454687 L 0.441016 0.954531 Z M 0.558984 0.0593359 " transform="matrix(100,0,0,100,600,1550)"/>
<path style="fill:none;stroke-width:0.01;stroke-linecap:butt;stroke-linejoin:miter;stroke:rgb(0%,0%,0%);stroke-opacity:1;stroke-miterlimit:10;" d="M 0.803047 0.0454688 L 0.272734 0.121211 L 0.196953 0.954531 L 0.424258 0.803047 L 0.689375 0.765156 Z M 0.803047 0.0454688 " transform="matrix(100,0,0,100,0,1700)"/>
<path style="fill:none;stroke-width:0.01;stroke-linecap:butt;stroke-linejoin:miter;stroke:rgb(0%,0%,0%);stroke-opacity:1;stroke-miterlimit:10;" d="M 0.638359 0.717383 L 0.559297 0.954531 L 0.243086 0.954531 L 0.401172 0.0454688 L 0.756914 0.203555 Z M 0.638359 0.717383 " transform="matrix(100,0,0,100,150,1700)"/>
<path style="fill:none;stroke-width:0.01;stroke-linecap:butt;stroke-linejoin:miter;stroke:rgb(0%,0%,0%);stroke-opacity:1;stroke-miterlimit:10;" d="M 0.582656 0.0546484 L 0.449492 0.0454688 L 0.440313 0.224531 L 0.431133 0.275039 L 0.417344 0.357656 L 0.426523 0.362266 L 0.426523 0.504609 L 0.435703 0.752539 L 0.444922 0.954531 L 0.467852 0.816797 L 0.486211 0.633164 L 0.504609 0.518359 L 0.522969 0.394414 L 0.545898 0.242891 L 0.564297 0.105156 Z M 0.582656 0.0546484 " transform="matrix(100,0,0,100,300,1700)"/>
<path style="fill:none;stroke-width:0.01;stroke-linecap:butt;stroke-linejoin:miter;stroke:rgb(0%,0%,0%);stroke-opacity:1;stroke-miterlimit:10;" d="M 0.579609 0.0454688 L 0.453555 0.0454688 L 0.426992 0.549766 L 0.426992 0.722305 L 0.420391 0.848359 L 0.420391 0.947891 L 0.433633 0.954531 L 0.453555 0.874922 L 0.466836 0.636016 L 0.506641 0.490039 L 0.533164 0.344062 L 0.566367 0.171523 Z M 0.579609 0.0454688 " transform="matrix(100,0,0,100,450,1700)"/>
<path style="fill:none;stroke-width:0.01;stroke-linecap:butt;stroke-linejoin:miter;stroke:rgb(0%,0%,0%);stroke-opacity:1;stroke-miterlimit:10;" d="M 0.577969 0.0454688 L 0.417539 0.0454688 L 0.368555 0.633672 L 0.34625 0.713906 L 0.337344 0.76293 L 0.337344 0.794102 L 0.350703 0.896602 L 0.359609 0.945625 L 0.364063 0.954531 L 0.381914 0.941172 L 0.662656 0.0454688 Z M 0.577969 0.0454688 " transform="matrix(100,0,0,100,600,1700)"/>
<path style="fill:none;stroke-width:0.01;stroke-linecap:butt;stroke-linejoin:miter;stroke:rgb(0%,0%,0%);stroke-opacity:1;stroke-miterlimit:10;" d="M 0.521484 0.0454688 L 0.6075 0.0454688 L 0.447773 0.929961 L 0.398633 0.954531 L 0.3925 0.893125 L 0.447773 0.825547 L 0.472344 0.628984 Z M 0.521484 0.0454688 " transform="matrix(100,0,0,100,0,1850)"/>
<path style="fill:none;stroke-width:0.01;stroke-linecap:butt;stroke-linejoin:miter;stroke:rgb(0%,0%,0%);stroke-opacity:1;stroke-miterlimit:10;" d="M 0.579922 0.0454688 L 0.365117 0.0454688 L 0.315195 0.844648 L 0.315195 0.954531 L 0.684805 0.0554297 Z M 0.579922 0.0454688 " transform="matrix(100,0,0,100,150,1850)"/>
<path style="fill:none;stroke-width:0.01;stroke-linecap:butt;stroke-linejoin:miter;stroke:rgb(0%,0%,0%);stroke-opacity:1;stroke-miterlimit:10;" d="M 0.519336 0.0454688 L 0.422617 0.0454688 L 0.409727 0.529023 L 0.403281 0.954531 L 0.596719 0.0583594 Z M 0.519336 0.0454688 " transform="matrix(100,0,0,100,300,1850)"/>
<path style="fill:none;stroke-width:0.01;stroke-linecap:butt;stroke-linejoin:miter;stroke:rgb(0%,0%,0%);stroke-opacity:1;stroke-miterlimit:10;" d="M 0.609492 0.0537109 L 0.555781 0.475195 L 0.493789 0.884297 L 0.39875 0.954531 L 0.390508 0.929766 L 0.49793 0.690078 L 0.526875 0.376016 L 0.526875 0.0454688 Z M 0.609492 0.0537109 " transform="matrix(100,0,0,100,450,1850)"/>
<path style="fill:none;stroke-width:0.01;stroke-linecap:butt;stroke-linejoin:miter;stroke:rgb(0%,0%,0%);stroke-opacity:1;stroke-miterlimit:10;" d="M 0.686836 0.0454688 L 0.395781 0.0454688 L 0.313164 0.954531 L 0.367031 0.954531 Z M 0.686836 0.0454688 " transform="matrix(100,0,0,100,600,1850)"/>
<path style="fill:none;stroke-width:0.01;stroke-linecap:butt;stroke-linejoin:miter;stroke:rgb(0%,0%,0%);stroke-opacity:1;stroke-miterlimit:10;" d="M 0.711758 0.0454688 L 0.308867 0.954531 L 0.308867 0.913242 L 0.319219 0.840898 L 0.288242 0.644609 L 0.319219 0.644609 L 0.319219 0.592969 L 0.360547 0.0557812 Z M 0.711758 0.0454688 " transform="matrix(100,0,0,100,0,2000)"/>
<path style="fill:none;stroke-width:0.01;stroke-linecap:butt;stroke-linejoin:miter;stroke:rgb(0%,0%,0%);stroke-opacity:1;stroke-miterlimit:10;" d="M 0.693047 0.0454688 L 0.434023 0.0454688 L 0.306953 0.944766 L 0.311836 0.954531 L 0.375352 0.856797 Z M 0.693047 0.0454688 " transform="matrix(100,0,0,100,150,2000)"/>
<path style="fill:none;stroke-width:0.01;stroke-linecap:butt;stroke-linejoin:miter;stroke:rgb(0%,0%,0%);stroke-opacity:1;stroke-miterlimit:10;" d="M 0.703867 0.0454688 L 0.616992 0.286094 L 0.543438 0.446523 L 0.503359 0.620313 L 0.423125 0.754023 L 0.376328 0.860977 L 0.336211 0.947852 L 0.309492 0.954531 L 0.296133 0.894375 L 0.296133 0.80082 L 0.309492 0.747344 L 0.302812 0.727266 L 0.409766 0.0454688 Z M 0.703867 0.0454688 " transform="matrix(100,0,0,100,300,2000)"/>
<path style="fill:none;stroke-width:0.01;stroke-linecap:butt;stroke-linejoin:miter;stroke:rgb(0%,0%,0%);stroke-opacity:1;stroke-miterlimit:10;" d="M 0.706914 0.0454688 L 0.394844 0.0454688 L 0.293086 0.913828 L 0.299883 0.954531 L 0.347344 0.893477 L 0.503398 0.5475 Z M 0.706914 0.0454688 " transform="matrix(100,0,0,100,450,2000)"/>
<path style="fill:none;stroke-width:0.01;stroke-linecap:butt;stroke-linejoin:miter;stroke:rgb(0%,0%,0%);stroke-opacity:1;stroke-miterlimit:10;" d="M 0.674648 0.0454688 L 0.387578 0.0502344 L 0.325352 0.954531 L 0.397148 0.76793 L 0.516758 0.437812 L 0.59332 0.255977 Z M 0.674648 0.0454688 " transform="matrix(100,0,0,100,600,2000)"/>
<path style="fill:none;stroke-width:0.01;stroke-linecap:butt;stroke-linejoin:miter;stroke:rgb(0%,0%,0%);stroke-opacity:1;stroke-miterlimit:10;" d="M 0.426328 0.0454688 L 0.372422 0.950938 L 0.372422 0.954531 L 0.393984 0.954531 L 0.627578 0.0454688 Z M 0.426328 0.0454688 " transform="matrix(100,0,0,100,0,2150)"/>
<path style="fill:none;stroke-width:0.01;stroke-linecap:butt;stroke-linejoin:miter;stroke:rgb(0%,0%,0%);stroke-opacity:1;stroke-miterlimit:10;" d="M 0.566211 0.0454688 L 0.462422 0.954531 L 0.433789 0.950977 L 0.458828 0.45707 L 0.483906 0.0454688 Z M 0.566211 0.0454688 " transform="matrix(100,0,0,100,150,2150)"/>
<path style="fill:none;stroke-width:0.01;stroke-linecap:butt;stroke-linejoin:miter;stroke:rgb(0%,0%,0%);stroke-opacity:1;stroke-miterlimit:10;" d="M 0.558438 0.0541016 L 0.502148 0.0454688 L 0.441562 0.954531 L 0.463203 0.859297 L 0.51082 0.413438 Z M 0.558438 0.0541016 " transform="matrix(100,0,0,100,300,2150)"/>
<path style="fill:none;stroke-width:0.01;stroke-linecap:butt;stroke-linejoin:miter;stroke:rgb(0%,0%,0%);stroke-opacity:1;stroke-miterlimit:10;" d="M 0.567422 0.0454688 L 0.4825 0.0454688 L 0.432578 0.954531 L 0.447539 0.92457 Z M 0.567422 0.0454688 " transform="matrix(100,0,0,100,450,2150)"/>
<path style="fill:none;stroke-width:0.01;stroke-linecap:butt;stroke-linejoin:miter;stroke:rgb(0%,0%,0%);stroke-opacity:1;stroke-miterlimit:10;" d="M 0.620273 0.0454688 L 0.510195 0.0535938 L 0.379727 0.954531 L 0.400117 0.938242 L 0.502031 0.534648 Z M 0.620273 0.0454688 " transform="matrix(100,0,0,100,600,2150)"/>
<path style="fill:none;stroke-width:0.01;stroke-linecap:butt;stroke-linejoin:miter;stroke:rgb(0%,0%,0%);stroke-opacity:1;stroke-miterlimit:10;" d="M 0.696445 0.0454688 L 0.503867 0.0608594 L 0.318945 0.684883 L 0.34207 0.815859 L 0.303555 0.8775 L 0.326641 0.954531 Z M 0.696445 0.0454688 " transform="matrix(100,0,0,100,0,2300)"/>
<path style="fill:none;stroke-width:0.01;stroke-linecap:butt;stroke-linejoin:miter;stroke:rgb(0%,0%,0%);stroke-opacity:1;stroke-miterlimit:10;" d="M 0.889609 0.0454688 L 0.42207 0.0627734 L 0.110391 0.954531 L 0.214297 0.867969 L 0.664492 0.296523 Z M 0.889609 0.0454688 " transform="matrix(100,0,0,100,150,2300)"/>
<path style="fill:none;stroke-width:0.01;stroke-linecap:butt;stroke-linejoin:miter;stroke:rgb(0%,0%,0%);stroke-opacity:1;stroke-miterlimit:10;" d="M 0.778086 0.152422 L 0.681836 0.644375 L 0.617656 0.751328 L 0.5 0.815508 L 0.211211 0.954531 L 0.414453 0.772734 L 0.574883 0.644375 L 0.628359 0.537422 L 0.628359 0.376992 L 0.66043 0.0454688 L 0.767383 0.0882422 L 0.788789 0.120313 Z M 0.778086 0.152422 " transform="matrix(100,0,0,100,300,2300)"/>
<path style="fill:none;stroke-width:0.01;stroke-linecap:butt;stroke-linejoin:miter;stroke:rgb(0%,0%,0%);stroke-opacity:1;stroke-miterlimit:10;" d="M 0.664648 0.0454688 L 0.435586 0.0454688 L 0.363984 0.854336 L 0.356836 0.947383 L 0.335352 0.954531 L 0.392617 0.954531 L 0.5 0.63957 Z M 0.664648 0.0454688 " transform="matrix(100,0,0,100,450,2300)"/>
<path style="fill:none;stroke-width:0.01;stroke-linecap:butt;stroke-linejoin:miter;stroke:rgb(0%,0%,0%);stroke-opacity:1;stroke-miterlimit:10;" d="M 0.908437 0.0717969 L 0.381406 0.849141 L 0.262852 0.954531 L 0.183789 0.928203 L 0.131094 0.849141 L 0.0915625 0.822813 L 0.131094 0.677852 L 0.157461 0.440703 L 0.157461 0.0454688 Z M 0.908437 0.0717969 " transform="matrix(100,0,0,100,600,2300)"/>
<path style="fill:none;stroke-width:0.01;stroke-linecap:butt;stroke-linejoin:miter;stroke:rgb(0%,0%,0%);stroke-opacity:1;stroke-miterlimit:10;" d="M 0.446523 0.811953 L 0.5 0.598047 L 0.535664 0.437617 L 0.553477 0.348477 L 0.589141 0.241523 L 0.589141 0.152422 L 0.571289 0.0454688 L 0.535664 0.13457 L 0.482187 0.348477 L 0.464336 0.562383 L 0.410859 0.954531 Z M 0.446523 0.811953 " transform="matrix(100,0,0,100,0,2450)"/>
<path style="fill:none;stroke-width:0.01;stroke-linecap:butt;stroke-linejoin:miter;stroke:rgb(0%,0%,0%);stroke-opacity:1;stroke-miterlimit:10;" d="M 0.580313 0.0454688 L 0.419687 0.954531 L 0.426992 0.81582 L 0.441602 0.775664 L 0.448867 0.742773 L 0.445234 0.67707 L 0.467148 0.494531 L 0.474453 0.490859 L 0.470781 0.406914 L 0.474453 0.381328 L 0.503633 0.0454688 Z M 0.580313 0.0454688 " transform="matrix(100,0,0,100,150,2450)"/>
<path style="fill:none;stroke-width:0.01;stroke-linecap:butt;stroke-linejoin:miter;stroke:rgb(0%,0%,0%);stroke-opacity:1;stroke-miterlimit:10;" d="M 0.690078 0.0454688 L 0.546836 0.0564844 L 0.320937 0.849844 L 0.309922 0.893945 L 0.326445 0.954531 L 0.342969 0.954531 Z M 0.690078 0.0454688 " transform="matrix(100,0,0,100,300,2450)"/>
<path style="fill:none;stroke-width:0.01;stroke-linecap:butt;stroke-linejoin:miter;stroke:rgb(0%,0%,0%);stroke-opacity:1;stroke-miterlimit:10;" d="M 0.653359 0.0454688 L 0.541836 0.0454688 L 0.447031 0.491641 L 0.564141 0.491641 L 0.558555 0.513945 L 0.441445 0.508359 L 0.396836 0.692422 L 0.486055 0.686836 L 0.480469 0.725859 L 0.385664 0.731445 L 0.363359 0.82625 L 0.441445 0.82625 L 0.435859 0.848594 L 0.363359 0.848594 L 0.357773 0.898789 L 0.413555 0.898789 L 0.407969 0.926641 L 0.352188 0.926641 L 0.346641 0.948984 L 0.396836 0.954531 L 0.653359 0.235078 Z M 0.653359 0.0454688 " transform="matrix(100,0,0,100,450,2450)"/>
<path style="fill:none;stroke-width:0.01;stroke-linecap:butt;stroke-linejoin:miter;stroke:rgb(0%,0%,0%);stroke-opacity:1;stroke-miterlimit:10;" d="M 0.779531 0.585078 L 0.779531 0.954531 L 0.721211 0.857305 L 0.653125 0.726055 L 0.575352 0.565625 L 0.482969 0.405195 L 0.429492 0.312852 L 0.356602 0.254492 L 0.293398 0.312852 L 0.235039 0.424648 L 0.220469 0.439219 L 0.235039 0.380898 L 0.288516 0.259375 L 0.307969 0.205898 L 0.264219 0.142695 L 0.317695 0.0794922 L 0.341992 0.0746094 L 0.351719 0.0600391 L 0.371172 0.0454688 L 0.410078 0.0648828 L 0.478125 0.128086 L 0.560781 0.239922 L 0.662852 0.380898 L 0.735781 0.512148 Z M 0.779531 0.585078 " transform="matrix(100,0,0,100,600,2450)"/>
<path style="fill:none;stroke-width:0.01;stroke-linecap:butt;stroke-linejoin:miter;stroke:rgb(0%,0%,0%);stroke-opacity:1;stroke-miterlimit:10;" d="M 0.612891 0.0454688 L 0.52375 0.0573438 L 0.434648 0.877305 L 0.404922 0.918906 L 0.387109 0.912969 L 0.393047 0.930781 L 0.398984 0.936719 L 0.416797 0.948594 L 0.428711 0.954531 L 0.446523 0.942656 L 0.464336 0.883242 L 0.47625 0.800078 Z M 0.612891 0.0454688 " transform="matrix(100,0,0,100,0,2600)"/>
<path style="fill:none;stroke-width:0.01;stroke-linecap:butt;stroke-linejoin:miter;stroke:rgb(0%,0%,0%);stroke-opacity:1;stroke-miterlimit:10;" d="M 0.650781 0.0454688 L 0.519648 0.0454688 L 0.349219 0.954531 Z M 0.650781 0.0454688 " transform="matrix(100,0,0,100,150,2600)"/>
<path style="fill:none;stroke-width:0.01;stroke-linecap:butt;stroke-linejoin:miter;stroke:rgb(0%,0%,0%);stroke-opacity:1;stroke-miterlimit:10;" d="M 0.5 0.0454688 L 0.642852 0.954531 L 0.448047 0.954531 L 0.383125 0.175313 L 0.357148 0.0454688 Z M 0.5 0.0454688 " transform="matrix(100,0,0,100,300,2600)"/>
<path style="fill:none;stroke-width:0.01;stroke-linecap:butt;stroke-linejoin:miter;stroke:rgb(0%,0%,0%);stroke-opacity:1;stroke-miterlimit:10;" d="M 0.608477 0.0454688 L 0.608477 0.469023 L 0.391523 0.954531 L 0.401875 0.85125 L 0.47418 0.572305 L 0.577461 0.0661328 Z M 0.608477 0.0454688 " transform="matrix(100,0,0,100,450,2600)"/>
<path style="fill:none;stroke-width:0.01;stroke-linecap:butt;stroke-linejoin:miter;stroke:rgb(0%,0%,0%);stroke-opacity:1;stroke-miterlimit:10;" d="M 0.680898 0.0454688 L 0.402578 0.0454688 L 0.346953 0.444336 L 0.384062 0.453633 L 0.365508 0.657695 L 0.337656 0.657695 L 0.319102 0.945273 L 0.356211 0.954531 L 0.39332 0.861797 L 0.476797 0.666992 L 0.560313 0.360859 Z M 0.680898 0.0454688 " transform="matrix(100,0,0,100,600,2600)"/>
<path style="fill:none;stroke-width:0.01;stroke-linecap:butt;stroke-linejoin:miter;stroke:rgb(0%,0%,0%);stroke-opacity:1;stroke-miterlimit:10;" d="M 0.653242 0.0454688 L 0.497422 0.0454688 L 0.357148 0.93375 L 0.346758 0.949336 L 0.357148 0.954531 L 0.414297 0.767539 L 0.554531 0.336367 Z M 0.653242 0.0454688 " transform="matrix(100,0,0,100,0,2750)"/>
<path style="fill:none;stroke-width:0.01;stroke-linecap:butt;stroke-linejoin:miter;stroke:rgb(0%,0%,0%);stroke-opacity:1;stroke-miterlimit:10;" d="M 0.554141 0.0454688 L 0.515469 0.0532031 L 0.484531 0.339453 L 0.47293 0.501953 L 0.465195 0.648945 L 0.445859 0.877188 L 0.445859 0.939063 L 0.453594 0.954531 L 0.461328 0.826875 L 0.488398 0.57543 L 0.507734 0.412969 L 0.523203 0.254336 L 0.534805 0.173125 Z M 0.554141 0.0454688 " transform="matrix(100,0,0,100,150,2750)"/>
<path style="fill:none;stroke-width:0.01;stroke-linecap:butt;stroke-linejoin:miter;stroke:rgb(0%,0%,0%);stroke-opacity:1;stroke-miterlimit:10;" d="M 0.62457 0.0454688 L 0.563359 0.0454688 L 0.545898 0.425703 L 0.541523 0.591797 L 0.519648 0.670469 L 0.475977 0.67918 L 0.484688 0.718516 L 0.454102 0.740391 L 0.423516 0.770977 L 0.39293 0.836523 L 0.37543 0.954531 L 0.397305 0.871484 L 0.419141 0.832148 L 0.454102 0.805937 L 0.480352 0.770977 L 0.484688 0.722891 L 0.467227 0.67918 L 0.506563 0.670469 L 0.524023 0.674844 L 0.532773 0.69668 L 0.537148 0.718516 L 0.554648 0.67918 L 0.563359 0.574297 L 0.585234 0.412578 L 0.59832 0.259609 L 0.61582 0.150352 Z M 0.62457 0.0454688 " transform="matrix(100,0,0,100,300,2750)"/>
<path style="fill:none;stroke-width:0.01;stroke-linecap:butt;stroke-linejoin:miter;stroke:rgb(0%,0%,0%);stroke-opacity:1;stroke-miterlimit:10;" d="M 0.623281 0.0454688 L 0.479453 0.0454688 L 0.453789 0.343359 L 0.448633 0.497422 L 0.407539 0.733711 L 0.407539 0.790195 L 0.376719 0.913438 L 0.386992 0.939141 L 0.397266 0.954531 L 0.417813 0.918594 L 0.489727 0.702891 L 0.535938 0.507695 L 0.592461 0.225234 Z M 0.623281 0.0454688 " transform="matrix(100,0,0,100,450,2750)"/>
<path style="fill:none;stroke-width:0.01;stroke-linecap:butt;stroke-linejoin:miter;stroke:rgb(0%,0%,0%);stroke-opacity:1;stroke-miterlimit:10;" d="M 0.130664 0.613633 L 0.1875 0.954531 L 0.471602 0.954531 L 0.698867 0.5 L 0.869336 0.159102 L 0.698867 0.0454688 L 0.585234 0.0454688 L 0.414766 0.329531 Z M 0.130664 0.613633 " transform="matrix(100,0,0,100,600,2750)"/>
<path style="fill:none;stroke-width:0.01;stroke-linecap:butt;stroke-linejoin:miter;stroke:rgb(0%,0%,0%);stroke-opacity:1;stroke-miterlimit:10;" d="M 0.58418 0.112813 L 0.516836 0.954531 L 0.41582 0.920859 L 0.41582 0.146445 L 0.449492 0.0454688 Z M 0.58418 0.112813 " transform="matrix(100,0,0,100,0,2900)"/>
<path style="fill:none;stroke-width:0.01;stroke-linecap:butt;stroke-linejoin:miter;stroke:rgb(0%,0%,0%);stroke-opacity:1;stroke-miterlimit:10;" d="M 0.798281 0.954531 L 0.745547 0.954531 L 0.745547 0.92207 L 0.704961 0.82875 L 0.652188 0.694805 L 0.591328 0.544648 L 0.538555 0.435078 L 0.46957 0.337656 L 0.384336 0.260547 L 0.295039 0.1875 L 0.258516 0.146914 L 0.173281 0.0819922 L 0.173281 0.0454688 L 0.400586 0.219961 L 0.481719 0.293008 L 0.522305 0.329531 L 0.562891 0.394492 L 0.587266 0.426953 L 0.615664 0.487813 L 0.676523 0.60957 L 0.721172 0.723203 L 0.794219 0.861211 L 0.802344 0.901797 L 0.826719 0.954531 Z M 0.798281 0.954531 " transform="matrix(100,0,0,100,150,2900)"/>
<path style="fill:none;stroke-width:0.01;stroke-linecap:butt;stroke-linejoin:miter;stroke:rgb(0%,0%,0%);stroke-opacity:1;stroke-miterlimit:10;" d="M 0.190195 0.405039 L 0.719375 0.278398 L 0.954531 0.21957 L 0.954531 0.635703 L 0.149492 0.509062 L 0.126875 0.509062 L 0.122344 0.581406 L 0.117812 0.635703 L 0.108789 0.680898 L 0.104258 0.726133 L 0.0951953 0.753281 L 0.0680859 0.78043 L 0.0454687 0.735195 L 0.0771094 0.626641 L 0.0816406 0.558789 L 0.0951953 0.509062 L 0.113281 0.445742 L 0.131406 0.427617 Z M 0.190195 0.405039 " transform="matrix(100,0,0,100,300,2900)"/>
<path style="fill:none;stroke-width:0.01;stroke-linecap:butt;stroke-linejoin:miter;stroke:rgb(0%,0%,0%);stroke-opacity:1;stroke-miterlimit:10;" d="M 0.8825 0.437188 L 0.886172 0.0454688 L 0.620117 0.0971875 L 0.394687 0.148945 L 0.261641 0.167422 L 0.235781 0.182188 L 0.224687 0.222852 L 0.2025 0.337383 L 0.176641 0.474141 L 0.154453 0.621953 L 0.14707 0.743906 L 0.132305 0.858477 L 0.113828 0.954531 L 0.135977 0.950859 L 0.14707 0.89543 L 0.165547 0.78457 L 0.17293 0.636719 L 0.206211 0.455664 L 0.217305 0.381758 L 0.243164 0.348477 L 0.250547 0.337383 L 0.272734 0.333711 L 0.2875 0.333711 Z M 0.8825 0.437188 " transform="matrix(100,0,0,100,450,2900)"/>
<path style="fill:none;stroke-width:0.01;stroke-linecap:butt;stroke-linejoin:miter;stroke:rgb(0%,0%,0%);stroke-opacity:1;stroke-miterlimit:10;" d="M 0.919102 0.954531 L 0.628945 0.954531 L 0.583828 0.909414 L 0.532227 0.838477 L 0.467773 0.786914 L 0.409727 0.709531 L 0.351719 0.638633 L 0.287227 0.529023 L 0.248555 0.451641 L 0.222773 0.393633 L 0.177617 0.303359 L 0.151836 0.232422 L 0.113164 0.129258 L 0.0938281 0.0648047 L 0.0808984 0.0454688 L 0.0938281 0.0648047 L 0.113164 0.103477 L 0.138945 0.148633 L 0.177617 0.232422 L 0.209883 0.309805 L 0.261445 0.387187 L 0.313008 0.470977 L 0.383945 0.535469 L 0.435508 0.599922 L 0.5 0.651523 L 0.551563 0.709531 L 0.628945 0.767578 L 0.706328 0.819141 L 0.764336 0.864297 L 0.841719 0.922305 Z M 0.919102 0.954531 " transform="matrix(100,0,0,100,600,2900)"/>
<path style="fill:none;stroke-width:0.01;stroke-linecap:butt;stroke-linejoin:miter;stroke:rgb(0%,0%,0%);stroke-opacity:1;stroke-miterlimit:10;" d="M 0.623164 0.0454688 L 0.447227 0.0571875 L 0.400313 0.409102 L 0.365117 0.714063 L 0.359219 0.784453 L 0.318164 0.954531 L 0.365117 0.860703 L 0.400313 0.719922 L 0.470664 0.57918 L 0.552773 0.414961 L 0.646641 0.151016 L 0.681836 0.0454688 Z M 0.623164 0.0454688 " transform="matrix(100,0,0,100,0,3050)"/>
<path style="fill:none;stroke-width:0.01;stroke-linecap:butt;stroke-linejoin:miter;stroke:rgb(0%,0%,0%);stroke-opacity:1;stroke-miterlimit:10;" d="M 0.912148 0.0454688 L 0.591836 0.0548828 L 0.436406 0.375195 L 0.346914 0.568281 L 0.280977 0.667227 L 0.233867 0.728438 L 0.191484 0.770859 L 0.158516 0.780273 L 0.134961 0.808516 L 0.12082 0.850938 L 0.0878516 0.94043 L 0.0925391 0.954531 L 0.10668 0.954531 L 0.130234 0.912148 L 0.149063 0.898008 L 0.191484 0.912148 L 0.238594 0.912148 L 0.280977 0.89332 L 0.370469 0.803828 L 0.912148 0.0925391 Z M 0.912148 0.0454688 " transform="matrix(100,0,0,100,150,3050)"/>
<path style="fill:none;stroke-width:0.01;stroke-linecap:butt;stroke-linejoin:miter;stroke:rgb(0%,0%,0%);stroke-opacity:1;stroke-miterlimit:10;" d="M 0.954531 0.91668 L 0.0833203 0.91668 L 0.0454687 0.0833203 L 0.272734 0.310625 L 0.575742 0.613633 L 0.840898 0.840898 Z M 0.954531 0.91668 " transform="matrix(100,0,0,100,300,3050)"/>
<path style="fill:none;stroke-width:0.01;stroke-linecap:butt;stroke-linejoin:miter;stroke:rgb(0%,0%,0%);stroke-opacity:1;stroke-miterlimit:10;" d="M 0.954531 0.952773 L 0.380586 0.94918 L 0.355625 0.795898 L 0.337773 0.703203 L 0.319961 0.617656 L 0.309258 0.560625 L 0.291445 0.46793 L 0.277188 0.432266 L 0.259375 0.396602 L 0.237969 0.40375 L 0.23082 0.418008 L 0.23082 0.475039 L 0.220156 0.585547 L 0.202305 0.94918 L 0.0454688 0.945625 L 0.0454688 0.464336 L 0.0953516 0.46793 L 0.1025 0.514258 L 0.1025 0.592695 L 0.109609 0.671133 L 0.109609 0.742422 L 0.116758 0.788789 L 0.131016 0.795898 L 0.148828 0.713906 L 0.163086 0.606953 L 0.170234 0.503555 L 0.173789 0.396602 L 0.180937 0.318164 L 0.191641 0.214805 L 0.19875 0.129219 L 0.205898 0.0472266 L 0.352031 0.0472266 L 0.373438 0.125664 L 0.398398 0.236172 L 0.437617 0.371641 L 0.462578 0.482188 L 0.487539 0.589141 L 0.533867 0.767383 L 0.558828 0.885039 L 0.576641 0.913555 L 0.598047 0.94918 L 0.772734 0.945625 L 0.80125 0.91 L 0.840469 0.827969 L 0.876133 0.745977 L 0.911758 0.646172 L 0.947422 0.53207 L 0.954531 0.507148 Z M 0.954531 0.952773 " transform="matrix(100,0,0,100,450,3050)"/>
<path style="fill:none;stroke-width:0.01;stroke-linecap:butt;stroke-linejoin:miter;stroke:rgb(0%,0%,0%);stroke-opacity:1;stroke-miterlimit:10;" d="M 0.673789 0.954531 L 0.638164 0.86543 L 0.593594 0.731719 L 0.549023 0.615859 L 0.495547 0.535664 L 0.450977 0.428711 L 0.406406 0.330664 L 0.344023 0.268281 L 0.299453 0.214805 L 0.254883 0.179141 L 0.254883 0.13457 L 0.245977 0.09 L 0.228164 0.0454688 L 0.281641 0.107852 L 0.299453 0.161328 L 0.388594 0.214805 L 0.424258 0.259375 L 0.504453 0.366328 L 0.540117 0.428711 L 0.575742 0.491094 L 0.6025 0.535664 L 0.611406 0.589141 L 0.64707 0.624766 L 0.682695 0.705 L 0.718359 0.794102 L 0.754023 0.901055 L 0.771836 0.954531 Z M 0.673789 0.954531 " transform="matrix(100,0,0,100,600,3050)"/>
<path style="fill:none;stroke-width:0.01;stroke-linecap:butt;stroke-linejoin:miter;stroke:rgb(0%,0%,0%);stroke-opacity:1;stroke-miterlimit:10;" d="M 0.954531 0.150664 L 0.760938 0.159102 L 0.651523 0.420039 L 0.533672 0.62207 L 0.449492 0.756719 L 0.41582 0.790391 L 0.37375 0.697812 L 0.323242 0.630469 L 0.180117 0.571562 L 0.0454688 0.537891 L 0.0791406 0.495781 L 0.281133 0.579961 L 0.382148 0.62207 L 0.441094 0.689375 L 0.466328 0.739883 L 0.41582 0.798828 L 0.491602 0.849336 L 0.58418 0.773555 L 0.744102 0.630469 L 0.878789 0.470547 L 0.954531 0.319023 Z M 0.954531 0.150664 " transform="matrix(100,0,0,100,0,3200)"/>
<path style="fill:none;stroke-width:0.01;stroke-linecap:butt;stroke-linejoin:miter;stroke:rgb(0%,0%,0%);stroke-opacity:1;stroke-miterlimit:10;" d="M 0.764844 0.0454687 L 0.474961 0.553672 L 0.403359 0.557266 L 0.381875 0.564414 L 0.338945 0.682539 L 0.338945 0.711172 L 0.346094 0.800625 L 0.253047 0.954531 L 0.235156 0.954531 L 0.335352 0.711172 L 0.331797 0.682539 L 0.381875 0.557266 L 0.403359 0.553672 L 0.610937 0.0454687 Z M 0.764844 0.0454687 " transform="matrix(100,0,0,100,150,3200)"/>
</g>
</svg>
