<?xml version="1.0" encoding="UTF-8"?>
<svg xmlns="http://www.w3.org/2000/svg" xmlns:xlink="http://www.w3.org/1999/xlink" width="750pt" height="10400pt" viewBox="0 0 750 10400" version="1.1">
<g id="surface1">
<path style="fill:none;stroke-width:0.01;stroke-linecap:butt;stroke-linejoin:miter;stroke:rgb(0%,0%,0%);stroke-opacity:1;stroke-miterlimit:10;" d="M 0.0454688 0.180117 L 0.0454688 0.853555 L 0.483164 0.853555 L 0.954531 0.819883 L 0.954531 0.146445 Z M 0.0454688 0.180117 " transform="matrix(100,0,0,100,0,200)"/>
<path style="fill:none;stroke-width:0.01;stroke-linecap:butt;stroke-linejoin:miter;stroke:rgb(0%,0%,0%);stroke-opacity:1;stroke-miterlimit:10;" d="M 0.0454687 0.458672 L 0.169414 0.623984 L 0.376016 0.789258 L 0.623984 0.830586 L 0.913242 0.789258 L 0.954531 0.169414 L 0.0454687 0.169414 L 0.0454687 0.25207 Z M 0.0454687 0.458672 " transform="matrix(100,0,0,100,150,200)"/>
<path style="fill:none;stroke-width:0.01;stroke-linecap:butt;stroke-linejoin:miter;stroke:rgb(0%,0%,0%);stroke-opacity:1;stroke-miterlimit:10;" d="M 0.435078 0.110391 L 0.370117 0.240273 L 0.337656 0.370117 L 0.337656 0.727266 L 0.370117 0.857148 L 0.435078 0.92207 L 0.564922 0.92207 L 0.662344 0.954531 L 0.662344 0.0454687 Z M 0.435078 0.110391 " transform="matrix(100,0,0,100,300,200)"/>
<path style="fill:none;stroke-width:0.01;stroke-linecap:butt;stroke-linejoin:miter;stroke:rgb(0%,0%,0%);stroke-opacity:1;stroke-miterlimit:10;" d="M 0.0454688 0.185313 L 0.0454688 0.814688 L 0.954531 0.814688 L 0.954531 0.255234 Z M 0.0454688 0.185313 " transform="matrix(100,0,0,100,450,200)"/>
<path style="fill:none;stroke-width:0.01;stroke-linecap:butt;stroke-linejoin:miter;stroke:rgb(0%,0%,0%);stroke-opacity:1;stroke-miterlimit:10;" d="M 0.272734 0.0454687 L 0.272734 0.897734 L 0.727266 0.954531 L 0.670469 0.727266 L 0.670469 0.0454687 Z M 0.272734 0.0454687 " transform="matrix(100,0,0,100,600,200)"/>
<path style="fill:none;stroke-width:0.01;stroke-linecap:butt;stroke-linejoin:miter;stroke:rgb(0%,0%,0%);stroke-opacity:1;stroke-miterlimit:10;" d="M 0.0454688 0.320586 L 0.0454688 0.679414 L 0.954531 0.679414 L 0.930625 0.535898 L 0.78707 0.488047 L 0.739219 0.511953 L 0.523906 0.344492 L 0.452148 0.41625 L 0.380391 0.41625 L 0.332539 0.368438 L 0.308594 0.344492 Z M 0.0454688 0.320586 " transform="matrix(100,0,0,100,0,350)"/>
<path style="fill:none;stroke-width:0.01;stroke-linecap:butt;stroke-linejoin:miter;stroke:rgb(0%,0%,0%);stroke-opacity:1;stroke-miterlimit:10;" d="M 0.0454687 0.324063 L 0.0454687 0.646641 L 0.221406 0.675937 L 0.719922 0.675937 L 0.80793 0.558633 L 0.954531 0.412031 L 0.954531 0.382695 Z M 0.0454687 0.324063 " transform="matrix(100,0,0,100,150,350)"/>
<path style="fill:none;stroke-width:0.01;stroke-linecap:butt;stroke-linejoin:miter;stroke:rgb(0%,0%,0%);stroke-opacity:1;stroke-miterlimit:10;" d="M 0.0454687 0.219258 L 0.0454687 0.727266 L 0.954531 0.780742 L 0.66043 0.433164 L 0.66043 0.219258 Z M 0.0454687 0.219258 " transform="matrix(100,0,0,100,300,350)"/>
<path style="fill:none;stroke-width:0.01;stroke-linecap:butt;stroke-linejoin:miter;stroke:rgb(0%,0%,0%);stroke-opacity:1;stroke-miterlimit:10;" d="M 0.164023 0.0454687 L 0.124492 0.954531 L 0.480234 0.875508 L 0.677852 0.875508 L 0.717383 0.717383 L 0.559297 0.638359 L 0.638359 0.519766 L 0.598828 0.440703 L 0.598828 0.282617 L 0.835977 0.164023 L 0.875508 0.0454687 Z M 0.164023 0.0454687 " transform="matrix(100,0,0,100,450,350)"/>
<path style="fill:none;stroke-width:0.01;stroke-linecap:butt;stroke-linejoin:miter;stroke:rgb(0%,0%,0%);stroke-opacity:1;stroke-miterlimit:10;" d="M 0.0454688 0.411055 L 0.0454688 0.371523 L 0.947969 0.364961 L 0.954531 0.635039 L 0.216719 0.635039 L 0.216719 0.457188 L 0.0454688 0.457188 Z M 0.0454688 0.411055 " transform="matrix(100,0,0,100,600,350)"/>
<path style="fill:none;stroke-width:0.01;stroke-linecap:butt;stroke-linejoin:miter;stroke:rgb(0%,0%,0%);stroke-opacity:1;stroke-miterlimit:10;" d="M 0.0454688 0.305195 L 0.0454688 0.694805 L 0.902578 0.694805 L 0.954531 0.409102 L 0.954531 0.331172 Z M 0.0454688 0.305195 " transform="matrix(100,0,0,100,0,500)"/>
<path style="fill:none;stroke-width:0.01;stroke-linecap:butt;stroke-linejoin:miter;stroke:rgb(0%,0%,0%);stroke-opacity:1;stroke-miterlimit:10;" d="M 0.064375 0.320078 L 0.0454687 0.660977 L 0.91668 0.679922 L 0.954531 0.585234 L 0.91668 0.547344 L 0.91668 0.357969 Z M 0.064375 0.320078 " transform="matrix(100,0,0,100,150,500)"/>
<path style="fill:none;stroke-width:0.01;stroke-linecap:butt;stroke-linejoin:miter;stroke:rgb(0%,0%,0%);stroke-opacity:1;stroke-miterlimit:10;" d="M 0.0454687 0.171719 L 0.0454687 0.828281 L 0.954531 0.828281 L 0.954531 0.222227 L 0.196953 0.222227 Z M 0.0454687 0.171719 " transform="matrix(100,0,0,100,300,500)"/>
<path style="fill:none;stroke-width:0.01;stroke-linecap:butt;stroke-linejoin:miter;stroke:rgb(0%,0%,0%);stroke-opacity:1;stroke-miterlimit:10;" d="M 0.0454688 0.303047 L 0.0454688 0.696953 L 0.954531 0.696953 L 0.893945 0.454531 L 0.439375 0.454531 L 0.439375 0.33332 Z M 0.0454688 0.303047 " transform="matrix(100,0,0,100,450,500)"/>
<path style="fill:none;stroke-width:0.01;stroke-linecap:butt;stroke-linejoin:miter;stroke:rgb(0%,0%,0%);stroke-opacity:1;stroke-miterlimit:10;" d="M 0.0454688 0.391758 L 0.932891 0.413437 L 0.954531 0.586563 L 0.0454688 0.608242 Z M 0.0454688 0.391758 " transform="matrix(100,0,0,100,600,500)"/>
<path style="fill:none;stroke-width:0.01;stroke-linecap:butt;stroke-linejoin:miter;stroke:rgb(0%,0%,0%);stroke-opacity:1;stroke-miterlimit:10;" d="M 0.0454688 0.578359 L 0.954531 0.625391 L 0.954531 0.405938 L 0.0454688 0.374609 Z M 0.0454688 0.578359 " transform="matrix(100,0,0,100,0,650)"/>
<path style="fill:none;stroke-width:0.01;stroke-linecap:butt;stroke-linejoin:miter;stroke:rgb(0%,0%,0%);stroke-opacity:1;stroke-miterlimit:10;" d="M 0.132852 0.0804297 L 0.902109 0.0454688 L 0.762227 0.325156 L 0.727266 0.954531 L 0.0978906 0.884609 Z M 0.132852 0.0804297 " transform="matrix(100,0,0,100,150,650)"/>
<path style="fill:none;stroke-width:0.01;stroke-linecap:butt;stroke-linejoin:miter;stroke:rgb(0%,0%,0%);stroke-opacity:1;stroke-miterlimit:10;" d="M 0.0454687 0.296641 L 0.0454687 0.703359 L 0.882773 0.703359 L 0.954531 0.607656 L 0.930625 0.296641 Z M 0.0454687 0.296641 " transform="matrix(100,0,0,100,300,650)"/>
<path style="fill:none;stroke-width:0.01;stroke-linecap:butt;stroke-linejoin:miter;stroke:rgb(0%,0%,0%);stroke-opacity:1;stroke-miterlimit:10;" d="M 0.0454688 0.954531 L 0.0454688 0.0454688 L 0.954531 0.121211 L 0.954531 0.878789 Z M 0.0454688 0.954531 " transform="matrix(100,0,0,100,450,650)"/>
<path style="fill:none;stroke-width:0.01;stroke-linecap:butt;stroke-linejoin:miter;stroke:rgb(0%,0%,0%);stroke-opacity:1;stroke-miterlimit:10;" d="M 0.0454688 0.185313 L 0.0454688 0.814687 L 0.768047 0.814687 L 0.90793 0.558281 L 0.954531 0.441719 L 0.90793 0.255234 L 0.744766 0.255234 L 0.651523 0.185313 Z M 0.0454688 0.185313 " transform="matrix(100,0,0,100,600,650)"/>
<path style="fill:none;stroke-width:0.01;stroke-linecap:butt;stroke-linejoin:miter;stroke:rgb(0%,0%,0%);stroke-opacity:1;stroke-miterlimit:10;" d="M 0.167852 0.307695 L 0.0978906 0.342656 L 0.0454688 0.447539 L 0.0454688 0.5175 L 0.0804297 0.622383 L 0.115391 0.674844 L 0.185312 0.709805 L 0.272734 0.727266 L 0.954531 0.692305 L 0.954531 0.272734 L 0.430078 0.272734 Z M 0.167852 0.307695 " transform="matrix(100,0,0,100,0,800)"/>
<path style="fill:none;stroke-width:0.01;stroke-linecap:butt;stroke-linejoin:miter;stroke:rgb(0%,0%,0%);stroke-opacity:1;stroke-miterlimit:10;" d="M 0.0454687 0.409102 L 0.0818359 0.590898 L 0.954531 0.590898 L 0.9 0.554531 L 0.827266 0.5 L 0.790898 0.427266 L 0.118164 0.409102 Z M 0.0454687 0.409102 " transform="matrix(100,0,0,100,150,800)"/>
<path style="fill:none;stroke-width:0.01;stroke-linecap:butt;stroke-linejoin:miter;stroke:rgb(0%,0%,0%);stroke-opacity:1;stroke-miterlimit:10;" d="M 0.141133 0.547852 L 0.954531 0.563789 L 0.954531 0.436211 L 0.842891 0.468086 L 0.795039 0.452148 L 0.109258 0.436211 L 0.0614063 0.515937 L 0.0454687 0.547852 Z M 0.141133 0.547852 " transform="matrix(100,0,0,100,300,800)"/>
<path style="fill:none;stroke-width:0.01;stroke-linecap:butt;stroke-linejoin:miter;stroke:rgb(0%,0%,0%);stroke-opacity:1;stroke-miterlimit:10;" d="M 0.0707031 0.613633 L 0.0454688 0.411602 L 0.954531 0.386367 L 0.929297 0.537891 L 0.853555 0.588398 Z M 0.0707031 0.613633 " transform="matrix(100,0,0,100,450,800)"/>
<path style="fill:none;stroke-width:0.01;stroke-linecap:butt;stroke-linejoin:miter;stroke:rgb(0%,0%,0%);stroke-opacity:1;stroke-miterlimit:10;" d="M 0.0454688 0.360156 L 0.849648 0.430078 L 0.954531 0.639844 L 0.0454688 0.639844 Z M 0.0454688 0.360156 " transform="matrix(100,0,0,100,600,800)"/>
<path style="fill:none;stroke-width:0.01;stroke-linecap:butt;stroke-linejoin:miter;stroke:rgb(0%,0%,0%);stroke-opacity:1;stroke-miterlimit:10;" d="M 0.0738672 0.102266 L 0.0454688 0.869336 L 0.954531 0.897734 L 0.897734 0.755664 L 0.840898 0.102266 Z M 0.0738672 0.102266 " transform="matrix(100,0,0,100,0,950)"/>
<path style="fill:none;stroke-width:0.01;stroke-linecap:butt;stroke-linejoin:miter;stroke:rgb(0%,0%,0%);stroke-opacity:1;stroke-miterlimit:10;" d="M 0.0454687 0.265391 L 0.0454687 0.734609 L 0.954531 0.734609 L 0.954531 0.675937 L 0.719922 0.646641 L 0.719922 0.5 L 0.690625 0.470664 L 0.631953 0.412031 L 0.631953 0.294727 Z M 0.0454687 0.265391 " transform="matrix(100,0,0,100,150,950)"/>
<path style="fill:none;stroke-width:0.01;stroke-linecap:butt;stroke-linejoin:miter;stroke:rgb(0%,0%,0%);stroke-opacity:1;stroke-miterlimit:10;" d="M 0.0454687 0.437695 L 0.954531 0.445 L 0.954531 0.562305 L 0.0454687 0.562305 Z M 0.0454687 0.437695 " transform="matrix(100,0,0,100,300,950)"/>
<path style="fill:none;stroke-width:0.01;stroke-linecap:butt;stroke-linejoin:miter;stroke:rgb(0%,0%,0%);stroke-opacity:1;stroke-miterlimit:10;" d="M 0.0454688 0.372734 L 0.0454688 0.609102 L 0.954531 0.627266 L 0.954531 0.536367 L 0.7 0.518164 L 0.627266 0.481836 L 0.554531 0.463633 L 0.554531 0.390898 Z M 0.0454688 0.372734 " transform="matrix(100,0,0,100,450,950)"/>
<path style="fill:none;stroke-width:0.01;stroke-linecap:butt;stroke-linejoin:miter;stroke:rgb(0%,0%,0%);stroke-opacity:1;stroke-miterlimit:10;" d="M 0.0747656 0.309375 L 0.0454688 0.690625 L 0.954531 0.661289 L 0.954531 0.309375 Z M 0.0747656 0.309375 " transform="matrix(100,0,0,100,600,950)"/>
<path style="fill:none;stroke-width:0.01;stroke-linecap:butt;stroke-linejoin:miter;stroke:rgb(0%,0%,0%);stroke-opacity:1;stroke-miterlimit:10;" d="M 0.153672 0.251094 L 0.0454688 0.705625 L 0.91125 0.748906 L 0.954531 0.294375 Z M 0.153672 0.251094 " transform="matrix(100,0,0,100,0,1100)"/>
<path style="fill:none;stroke-width:0.01;stroke-linecap:butt;stroke-linejoin:miter;stroke:rgb(0%,0%,0%);stroke-opacity:1;stroke-miterlimit:10;" d="M 0.0454687 0.613633 L 0.954531 0.638906 L 0.954531 0.537891 L 0.702031 0.361094 L 0.0707031 0.361094 Z M 0.0454687 0.613633 " transform="matrix(100,0,0,100,150,1100)"/>
<path style="fill:none;stroke-width:0.01;stroke-linecap:butt;stroke-linejoin:miter;stroke:rgb(0%,0%,0%);stroke-opacity:1;stroke-miterlimit:10;" d="M 0.06875 0.255234 L 0.0454687 0.721445 L 0.93125 0.744766 L 0.954531 0.511641 L 0.814688 0.558281 L 0.768047 0.558281 L 0.651523 0.628203 L 0.395117 0.604883 L 0.395117 0.301875 Z M 0.06875 0.255234 " transform="matrix(100,0,0,100,300,1100)"/>
<path style="fill:none;stroke-width:0.01;stroke-linecap:butt;stroke-linejoin:miter;stroke:rgb(0%,0%,0%);stroke-opacity:1;stroke-miterlimit:10;" d="M 0.0454688 0.339023 L 0.0454688 0.642031 L 0.954531 0.660977 L 0.954531 0.471602 L 0.840898 0.471602 L 0.689375 0.357969 Z M 0.0454688 0.339023 " transform="matrix(100,0,0,100,450,1100)"/>
<path style="fill:none;stroke-width:0.01;stroke-linecap:butt;stroke-linejoin:miter;stroke:rgb(0%,0%,0%);stroke-opacity:1;stroke-miterlimit:10;" d="M 0.0454688 0.290195 L 0.0454688 0.639844 L 0.954531 0.709805 L 0.744766 0.325156 Z M 0.0454688 0.290195 " transform="matrix(100,0,0,100,600,1100)"/>
<path style="fill:none;stroke-width:0.01;stroke-linecap:butt;stroke-linejoin:miter;stroke:rgb(0%,0%,0%);stroke-opacity:1;stroke-miterlimit:10;" d="M 0.0454688 0.560625 L 0.954531 0.560625 L 0.939375 0.439375 L 0.0454688 0.439375 Z M 0.0454688 0.560625 " transform="matrix(100,0,0,100,0,1250)"/>
<path style="fill:none;stroke-width:0.01;stroke-linecap:butt;stroke-linejoin:miter;stroke:rgb(0%,0%,0%);stroke-opacity:1;stroke-miterlimit:10;" d="M 0.0454687 0.693437 L 0.0454687 0.306563 L 0.451641 0.287227 L 0.509688 0.364609 L 0.567695 0.461328 L 0.722422 0.558008 L 0.954531 0.616055 L 0.935195 0.712773 Z M 0.0454687 0.693437 " transform="matrix(100,0,0,100,150,1250)"/>
<path style="fill:none;stroke-width:0.01;stroke-linecap:butt;stroke-linejoin:miter;stroke:rgb(0%,0%,0%);stroke-opacity:1;stroke-miterlimit:10;" d="M 0.0454687 0.319883 L 0.0454687 0.680117 L 0.199844 0.680117 L 0.234141 0.577188 L 0.937383 0.594336 L 0.954531 0.337031 Z M 0.0454687 0.319883 " transform="matrix(100,0,0,100,300,1250)"/>
<path style="fill:none;stroke-width:0.01;stroke-linecap:butt;stroke-linejoin:miter;stroke:rgb(0%,0%,0%);stroke-opacity:1;stroke-miterlimit:10;" d="M 0.0454688 0.318164 L 0.0454688 0.681836 L 0.918164 0.681836 L 0.954531 0.5 L 0.954531 0.318164 Z M 0.0454688 0.318164 " transform="matrix(100,0,0,100,450,1250)"/>
<path style="fill:none;stroke-width:0.01;stroke-linecap:butt;stroke-linejoin:miter;stroke:rgb(0%,0%,0%);stroke-opacity:1;stroke-miterlimit:10;" d="M 0.0454688 0.233555 L 0.0454688 0.735117 L 0.954531 0.766445 L 0.829141 0.641055 L 0.766445 0.233555 L 0.139492 0.264883 Z M 0.0454688 0.233555 " transform="matrix(100,0,0,100,600,1250)"/>
<path style="fill:none;stroke-width:0.01;stroke-linecap:butt;stroke-linejoin:miter;stroke:rgb(0%,0%,0%);stroke-opacity:1;stroke-miterlimit:10;" d="M 0.0454688 0.320937 L 0.0730078 0.706602 L 0.623984 0.679063 L 0.679063 0.486211 L 0.926992 0.458672 L 0.954531 0.293398 Z M 0.0454688 0.320937 " transform="matrix(100,0,0,100,0,1400)"/>
<path style="fill:none;stroke-width:0.01;stroke-linecap:butt;stroke-linejoin:miter;stroke:rgb(0%,0%,0%);stroke-opacity:1;stroke-miterlimit:10;" d="M 0.0714453 0.370117 L 0.0454687 0.57793 L 0.850664 0.629883 L 0.876641 0.525977 L 0.902578 0.474023 L 0.954531 0.42207 L 0.149336 0.396094 Z M 0.0714453 0.370117 " transform="matrix(100,0,0,100,150,1400)"/>
<path style="fill:none;stroke-width:0.01;stroke-linecap:butt;stroke-linejoin:miter;stroke:rgb(0%,0%,0%);stroke-opacity:1;stroke-miterlimit:10;" d="M 0.0454687 0.386367 L 0.0454687 0.585234 L 0.784102 0.613633 L 0.8125 0.528398 L 0.926133 0.471602 L 0.954531 0.443164 Z M 0.0454687 0.386367 " transform="matrix(100,0,0,100,300,1400)"/>
<path style="fill:none;stroke-width:0.01;stroke-linecap:butt;stroke-linejoin:miter;stroke:rgb(0%,0%,0%);stroke-opacity:1;stroke-miterlimit:10;" d="M 0.0454688 0.361641 L 0.0454688 0.598828 L 0.875508 0.638359 L 0.954531 0.401172 Z M 0.0454688 0.361641 " transform="matrix(100,0,0,100,450,1400)"/>
<path style="fill:none;stroke-width:0.01;stroke-linecap:butt;stroke-linejoin:miter;stroke:rgb(0%,0%,0%);stroke-opacity:1;stroke-miterlimit:10;" d="M 0.0454688 0.738086 L 0.0671094 0.305195 L 0.932891 0.261914 L 0.954531 0.456719 L 0.932891 0.738086 Z M 0.0454688 0.738086 " transform="matrix(100,0,0,100,600,1400)"/>
<path style="fill:none;stroke-width:0.01;stroke-linecap:butt;stroke-linejoin:miter;stroke:rgb(0%,0%,0%);stroke-opacity:1;stroke-miterlimit:10;" d="M 0.0454688 0.293398 L 0.0454688 0.789258 L 0.954531 0.665273 L 0.871914 0.210742 Z M 0.0454688 0.293398 " transform="matrix(100,0,0,100,0,1550)"/>
<path style="fill:none;stroke-width:0.01;stroke-linecap:butt;stroke-linejoin:miter;stroke:rgb(0%,0%,0%);stroke-opacity:1;stroke-miterlimit:10;" d="M 0.0454687 0.327266 L 0.0454687 0.672734 L 0.954531 0.563633 L 0.536367 0.490898 L 0.227266 0.327266 Z M 0.0454687 0.327266 " transform="matrix(100,0,0,100,150,1550)"/>
<path style="fill:none;stroke-width:0.01;stroke-linecap:butt;stroke-linejoin:miter;stroke:rgb(0%,0%,0%);stroke-opacity:1;stroke-miterlimit:10;" d="M 0.0454687 0.344141 L 0.0454687 0.707773 L 0.772734 0.629883 L 0.954531 0.292227 Z M 0.0454687 0.344141 " transform="matrix(100,0,0,100,300,1550)"/>
<path style="fill:none;stroke-width:0.01;stroke-linecap:butt;stroke-linejoin:miter;stroke:rgb(0%,0%,0%);stroke-opacity:1;stroke-miterlimit:10;" d="M 0.0454688 0.307148 L 0.0454688 0.665273 L 0.926992 0.692852 L 0.954531 0.307148 L 0.128086 0.334727 Z M 0.0454688 0.307148 " transform="matrix(100,0,0,100,450,1550)"/>
<path style="fill:none;stroke-width:0.01;stroke-linecap:butt;stroke-linejoin:miter;stroke:rgb(0%,0%,0%);stroke-opacity:1;stroke-miterlimit:10;" d="M 0.0454688 0.221406 L 0.0601172 0.793242 L 0.954531 0.793242 L 0.954531 0.587969 L 0.822578 0.353359 L 0.734609 0.206758 Z M 0.0454688 0.221406 " transform="matrix(100,0,0,100,600,1550)"/>
<path style="fill:none;stroke-width:0.01;stroke-linecap:butt;stroke-linejoin:miter;stroke:rgb(0%,0%,0%);stroke-opacity:1;stroke-miterlimit:10;" d="M 0.0454688 0.374609 L 0.0454688 0.625391 L 0.923203 0.594062 L 0.954531 0.437305 Z M 0.0454688 0.374609 " transform="matrix(100,0,0,100,0,1700)"/>
<path style="fill:none;stroke-width:0.01;stroke-linecap:butt;stroke-linejoin:miter;stroke:rgb(0%,0%,0%);stroke-opacity:1;stroke-miterlimit:10;" d="M 0.0779297 0.370117 L 0.0454687 0.629883 L 0.954531 0.629883 L 0.954531 0.435078 Z M 0.0779297 0.370117 " transform="matrix(100,0,0,100,150,1700)"/>
<path style="fill:none;stroke-width:0.01;stroke-linecap:butt;stroke-linejoin:miter;stroke:rgb(0%,0%,0%);stroke-opacity:1;stroke-miterlimit:10;" d="M 0.0454687 0.681836 L 0.0454687 0.318164 L 0.909102 0.363633 L 0.954531 0.681836 Z M 0.0454687 0.681836 " transform="matrix(100,0,0,100,300,1700)"/>
<path style="fill:none;stroke-width:0.01;stroke-linecap:butt;stroke-linejoin:miter;stroke:rgb(0%,0%,0%);stroke-opacity:1;stroke-miterlimit:10;" d="M 0.0454688 0.286094 L 0.0454688 0.713906 L 0.954531 0.713906 L 0.901055 0.286094 Z M 0.0454688 0.286094 " transform="matrix(100,0,0,100,450,1700)"/>
<path style="fill:none;stroke-width:0.01;stroke-linecap:butt;stroke-linejoin:miter;stroke:rgb(0%,0%,0%);stroke-opacity:1;stroke-miterlimit:10;" d="M 0.0454688 0.322148 L 0.0454688 0.638359 L 0.954531 0.677852 L 0.875508 0.519766 L 0.835977 0.361641 Z M 0.0454688 0.322148 " transform="matrix(100,0,0,100,600,1700)"/>
<path style="fill:none;stroke-width:0.01;stroke-linecap:butt;stroke-linejoin:miter;stroke:rgb(0%,0%,0%);stroke-opacity:1;stroke-miterlimit:10;" d="M 0.0454688 0.404844 L 0.0454688 0.573984 L 0.954531 0.595156 L 0.700859 0.531719 L 0.616289 0.573984 L 0.510586 0.531719 L 0.426016 0.510586 L 0.404844 0.404844 Z M 0.0454688 0.404844 " transform="matrix(100,0,0,100,0,1850)"/>
<path style="fill:none;stroke-width:0.01;stroke-linecap:butt;stroke-linejoin:miter;stroke:rgb(0%,0%,0%);stroke-opacity:1;stroke-miterlimit:10;" d="M 0.0933203 0.284688 L 0.0454687 0.715312 L 0.954531 0.715312 L 0.90668 0.284688 Z M 0.0933203 0.284688 " transform="matrix(100,0,0,100,150,1850)"/>
<path style="fill:none;stroke-width:0.01;stroke-linecap:butt;stroke-linejoin:miter;stroke:rgb(0%,0%,0%);stroke-opacity:1;stroke-miterlimit:10;" d="M 0.0454687 0.5 L 0.0454687 0.395117 L 0.849648 0.395117 L 0.954531 0.604883 Z M 0.0454687 0.5 " transform="matrix(100,0,0,100,300,1850)"/>
<path style="fill:none;stroke-width:0.01;stroke-linecap:butt;stroke-linejoin:miter;stroke:rgb(0%,0%,0%);stroke-opacity:1;stroke-miterlimit:10;" d="M 0.0920703 0.896289 L 0.0454688 0.103711 L 0.185313 0.313516 L 0.371797 0.453398 L 0.511641 0.546602 L 0.744766 0.52332 L 0.954531 0.5 L 0.93125 0.896289 Z M 0.0920703 0.896289 " transform="matrix(100,0,0,100,450,1850)"/>
<path style="fill:none;stroke-width:0.01;stroke-linecap:butt;stroke-linejoin:miter;stroke:rgb(0%,0%,0%);stroke-opacity:1;stroke-miterlimit:10;" d="M 0.0867578 0.376016 L 0.0454688 0.623984 L 0.954531 0.582656 L 0.913242 0.417344 Z M 0.0867578 0.376016 " transform="matrix(100,0,0,100,600,1850)"/>
<path style="fill:none;stroke-width:0.01;stroke-linecap:butt;stroke-linejoin:miter;stroke:rgb(0%,0%,0%);stroke-opacity:1;stroke-miterlimit:10;" d="M 0.231406 0.0454688 L 0.231406 0.954531 L 0.768594 0.913242 L 0.768594 0.0867578 L 0.355391 0.0867578 Z M 0.231406 0.0454688 " transform="matrix(100,0,0,100,0,2000)"/>
<path style="fill:none;stroke-width:0.01;stroke-linecap:butt;stroke-linejoin:miter;stroke:rgb(0%,0%,0%);stroke-opacity:1;stroke-miterlimit:10;" d="M 0.146445 0.0454688 L 0.146445 0.954531 L 0.803047 0.904023 L 0.853555 0.0959766 Z M 0.146445 0.0454688 " transform="matrix(100,0,0,100,150,2000)"/>
<path style="fill:none;stroke-width:0.01;stroke-linecap:butt;stroke-linejoin:miter;stroke:rgb(0%,0%,0%);stroke-opacity:1;stroke-miterlimit:10;" d="M 0.0454687 0.295 L 0.0454687 0.687148 L 0.722812 0.705 L 0.954531 0.562383 L 0.954531 0.508906 L 0.651523 0.295 Z M 0.0454687 0.295 " transform="matrix(100,0,0,100,300,2000)"/>
<path style="fill:none;stroke-width:0.01;stroke-linecap:butt;stroke-linejoin:miter;stroke:rgb(0%,0%,0%);stroke-opacity:1;stroke-miterlimit:10;" d="M 0.0454688 0.310625 L 0.0454688 0.689375 L 0.765156 0.689375 L 0.91668 0.613633 L 0.954531 0.556836 L 0.897734 0.481055 L 0.613633 0.310625 Z M 0.0454688 0.310625 " transform="matrix(100,0,0,100,450,2000)"/>
<path style="fill:none;stroke-width:0.01;stroke-linecap:butt;stroke-linejoin:miter;stroke:rgb(0%,0%,0%);stroke-opacity:1;stroke-miterlimit:10;" d="M 0.0908984 0.5 L 0.272734 0.681836 L 0.454531 0.727266 L 0.681836 0.772734 L 0.909102 0.772734 L 0.954531 0.227266 L 0.0454688 0.227266 L 0.0454688 0.318164 Z M 0.0908984 0.5 " transform="matrix(100,0,0,100,600,2000)"/>
<path style="fill:none;stroke-width:0.01;stroke-linecap:butt;stroke-linejoin:miter;stroke:rgb(0%,0%,0%);stroke-opacity:1;stroke-miterlimit:10;" d="M 0.0454688 0.272734 L 0.0454688 0.727266 L 0.913242 0.727266 L 0.954531 0.314063 Z M 0.0454688 0.272734 " transform="matrix(100,0,0,100,0,2150)"/>
<path style="fill:none;stroke-width:0.01;stroke-linecap:butt;stroke-linejoin:miter;stroke:rgb(0%,0%,0%);stroke-opacity:1;stroke-miterlimit:10;" d="M 0.0454687 0.272734 L 0.0454687 0.670469 L 0.954531 0.727266 L 0.897734 0.272734 Z M 0.0454687 0.272734 " transform="matrix(100,0,0,100,150,2150)"/>
<path style="fill:none;stroke-width:0.01;stroke-linecap:butt;stroke-linejoin:miter;stroke:rgb(0%,0%,0%);stroke-opacity:1;stroke-miterlimit:10;" d="M 0.113633 0.0454688 L 0.159102 0.954531 L 0.886367 0.954531 L 0.795469 0.636367 L 0.75 0.0908984 Z M 0.113633 0.0454688 " transform="matrix(100,0,0,100,300,2150)"/>
<path style="fill:none;stroke-width:0.01;stroke-linecap:butt;stroke-linejoin:miter;stroke:rgb(0%,0%,0%);stroke-opacity:1;stroke-miterlimit:10;" d="M 0.231406 0.0454688 L 0.231406 0.913242 L 0.685938 0.954531 L 0.727266 0.334727 L 0.727266 0.210742 L 0.768594 0.0454688 Z M 0.231406 0.0454688 " transform="matrix(100,0,0,100,450,2150)"/>
<path style="fill:none;stroke-width:0.01;stroke-linecap:butt;stroke-linejoin:miter;stroke:rgb(0%,0%,0%);stroke-opacity:1;stroke-miterlimit:10;" d="M 0.0454688 0.204531 L 0.0454688 0.840898 L 0.954531 0.840898 L 0.909102 0.159102 Z M 0.0454688 0.204531 " transform="matrix(100,0,0,100,600,2150)"/>
<path style="fill:none;stroke-width:0.01;stroke-linecap:butt;stroke-linejoin:miter;stroke:rgb(0%,0%,0%);stroke-opacity:1;stroke-miterlimit:10;" d="M 0.0454688 0.196953 L 0.0454688 0.803047 L 0.954531 0.803047 L 0.954531 0.257578 Z M 0.0454688 0.196953 " transform="matrix(100,0,0,100,0,2300)"/>
<path style="fill:none;stroke-width:0.01;stroke-linecap:butt;stroke-linejoin:miter;stroke:rgb(0%,0%,0%);stroke-opacity:1;stroke-miterlimit:10;" d="M 0.0959766 0.297969 L 0.0454687 0.752539 L 0.954531 0.752539 L 0.904023 0.247461 Z M 0.0959766 0.297969 " transform="matrix(100,0,0,100,150,2300)"/>
<path style="fill:none;stroke-width:0.01;stroke-linecap:butt;stroke-linejoin:miter;stroke:rgb(0%,0%,0%);stroke-opacity:1;stroke-miterlimit:10;" d="M 0.0454687 0.335859 L 0.121211 0.664141 L 0.954531 0.664141 L 0.954531 0.335859 Z M 0.0454687 0.335859 " transform="matrix(100,0,0,100,300,2300)"/>
<path style="fill:none;stroke-width:0.01;stroke-linecap:butt;stroke-linejoin:miter;stroke:rgb(0%,0%,0%);stroke-opacity:1;stroke-miterlimit:10;" d="M 0.0454688 0.292227 L 0.0454688 0.707773 L 0.746758 0.681836 L 0.876641 0.551953 L 0.954531 0.525977 L 0.902578 0.344141 Z M 0.0454688 0.292227 " transform="matrix(100,0,0,100,450,2300)"/>
<path style="fill:none;stroke-width:0.01;stroke-linecap:butt;stroke-linejoin:miter;stroke:rgb(0%,0%,0%);stroke-opacity:1;stroke-miterlimit:10;" d="M 0.688477 0.688477 L 0.488906 0.688477 L 0.44457 0.621953 L 0.400234 0.610859 L 0.344805 0.610859 L 0.311523 0.588711 L 0.400234 0.544336 L 0.366953 0.522188 L 0.30043 0.522188 L 0.278281 0.511094 L 0.278281 0.488906 L 0.233906 0.477812 L 0.178477 0.44457 L 0.156328 0.411289 L 0.0454688 0.411289 L 0.145234 0.389141 L 0.178477 0.366953 L 0.18957 0.355859 L 0.245 0.344805 L 0.233906 0.311523 L 0.954531 0.311523 L 0.910195 0.366953 L 0.799336 0.44457 L 0.788242 0.566523 L 0.777148 0.666289 L 0.777148 0.688477 Z M 0.688477 0.688477 " transform="matrix(100,0,0,100,600,2300)"/>
<path style="fill:none;stroke-width:0.01;stroke-linecap:butt;stroke-linejoin:miter;stroke:rgb(0%,0%,0%);stroke-opacity:1;stroke-miterlimit:10;" d="M 0.943164 0.272734 L 0.0568359 0.25 L 0.0454688 0.75 L 0.954531 0.738633 Z M 0.943164 0.272734 " transform="matrix(100,0,0,100,0,2450)"/>
<path style="fill:none;stroke-width:0.01;stroke-linecap:butt;stroke-linejoin:miter;stroke:rgb(0%,0%,0%);stroke-opacity:1;stroke-miterlimit:10;" d="M 0.0454687 0.41625 L 0.954531 0.464102 L 0.954531 0.58375 L 0.069375 0.58375 Z M 0.0454687 0.41625 " transform="matrix(100,0,0,100,150,2450)"/>
<path style="fill:none;stroke-width:0.01;stroke-linecap:butt;stroke-linejoin:miter;stroke:rgb(0%,0%,0%);stroke-opacity:1;stroke-miterlimit:10;" d="M 0.0454687 0.344141 L 0.0584375 0.681836 L 0.928555 0.668828 L 0.954531 0.318164 Z M 0.0454687 0.344141 " transform="matrix(100,0,0,100,300,2450)"/>
<path style="fill:none;stroke-width:0.01;stroke-linecap:butt;stroke-linejoin:miter;stroke:rgb(0%,0%,0%);stroke-opacity:1;stroke-miterlimit:10;" d="M 0.0454688 0.325156 L 0.0454688 0.674844 L 0.93125 0.628203 L 0.954531 0.348477 L 0.115391 0.348477 Z M 0.0454688 0.325156 " transform="matrix(100,0,0,100,450,2450)"/>
<path style="fill:none;stroke-width:0.01;stroke-linecap:butt;stroke-linejoin:miter;stroke:rgb(0%,0%,0%);stroke-opacity:1;stroke-miterlimit:10;" d="M 0.786211 0.41582 L 0.180117 0.41582 L 0.0791406 0.449492 L 0.0454688 0.58418 L 0.954531 0.58418 L 0.954531 0.41582 Z M 0.786211 0.41582 " transform="matrix(100,0,0,100,600,2450)"/>
<path style="fill:none;stroke-width:0.01;stroke-linecap:butt;stroke-linejoin:miter;stroke:rgb(0%,0%,0%);stroke-opacity:1;stroke-miterlimit:10;" d="M 0.0454688 0.240273 L 0.0454688 0.781367 L 0.954531 0.781367 L 0.932891 0.218633 Z M 0.0454688 0.240273 " transform="matrix(100,0,0,100,0,2600)"/>
<path style="fill:none;stroke-width:0.01;stroke-linecap:butt;stroke-linejoin:miter;stroke:rgb(0%,0%,0%);stroke-opacity:1;stroke-miterlimit:10;" d="M 0.0730078 0.348477 L 0.0454687 0.651523 L 0.899453 0.651523 L 0.926992 0.458672 L 0.954531 0.348477 Z M 0.0730078 0.348477 " transform="matrix(100,0,0,100,150,2600)"/>
<path style="fill:none;stroke-width:0.01;stroke-linecap:butt;stroke-linejoin:miter;stroke:rgb(0%,0%,0%);stroke-opacity:1;stroke-miterlimit:10;" d="M 0.0849609 0.124492 L 0.0454687 0.875508 L 0.954531 0.835977 L 0.954531 0.124492 Z M 0.0849609 0.124492 " transform="matrix(100,0,0,100,300,2600)"/>
<path style="fill:none;stroke-width:0.01;stroke-linecap:butt;stroke-linejoin:miter;stroke:rgb(0%,0%,0%);stroke-opacity:1;stroke-miterlimit:10;" d="M 0.0833203 0.121211 L 0.0454688 0.878789 L 0.954531 0.91668 L 0.954531 0.0833203 Z M 0.0833203 0.121211 " transform="matrix(100,0,0,100,450,2600)"/>
<path style="fill:none;stroke-width:0.01;stroke-linecap:butt;stroke-linejoin:miter;stroke:rgb(0%,0%,0%);stroke-opacity:1;stroke-miterlimit:10;" d="M 0.0454688 0.107422 L 0.0454688 0.933867 L 0.954531 0.933867 L 0.954531 0.0661328 Z M 0.0454688 0.107422 " transform="matrix(100,0,0,100,600,2600)"/>
<path style="fill:none;stroke-width:0.01;stroke-linecap:butt;stroke-linejoin:miter;stroke:rgb(0%,0%,0%);stroke-opacity:1;stroke-miterlimit:10;" d="M 0.0454688 0.892578 L 0.0454688 0.107422 L 0.954531 0.0661328 L 0.954531 0.933867 Z M 0.0454688 0.892578 " transform="matrix(100,0,0,100,0,2750)"/>
<path style="fill:none;stroke-width:0.01;stroke-linecap:butt;stroke-linejoin:miter;stroke:rgb(0%,0%,0%);stroke-opacity:1;stroke-miterlimit:10;" d="M 0.0454687 0.290898 L 0.0454687 0.690898 L 0.809102 0.690898 L 0.845469 0.709102 L 0.845469 0.618164 L 0.954531 0.636367 L 0.918164 0.490898 L 0.809102 0.472734 L 0.845469 0.418164 L 0.663633 0.4 L 0.645469 0.290898 Z M 0.0454687 0.290898 " transform="matrix(100,0,0,100,150,2750)"/>
<path style="fill:none;stroke-width:0.01;stroke-linecap:butt;stroke-linejoin:miter;stroke:rgb(0%,0%,0%);stroke-opacity:1;stroke-miterlimit:10;" d="M 0.0616797 0.0454688 L 0.0616797 0.954531 L 0.93832 0.92207 L 0.93832 0.0454688 Z M 0.0616797 0.0454688 " transform="matrix(100,0,0,100,300,2750)"/>
<path style="fill:none;stroke-width:0.01;stroke-linecap:butt;stroke-linejoin:miter;stroke:rgb(0%,0%,0%);stroke-opacity:1;stroke-miterlimit:10;" d="M 0.110391 0.0454688 L 0.0779297 0.954531 L 0.889609 0.92207 L 0.92207 0.0779297 Z M 0.110391 0.0454688 " transform="matrix(100,0,0,100,450,2750)"/>
<path style="fill:none;stroke-width:0.01;stroke-linecap:butt;stroke-linejoin:miter;stroke:rgb(0%,0%,0%);stroke-opacity:1;stroke-miterlimit:10;" d="M 0.110391 0.0454688 L 0.110391 0.954531 L 0.857148 0.954531 L 0.889609 0.0779297 Z M 0.110391 0.0454688 " transform="matrix(100,0,0,100,600,2750)"/>
<path style="fill:none;stroke-width:0.01;stroke-linecap:butt;stroke-linejoin:miter;stroke:rgb(0%,0%,0%);stroke-opacity:1;stroke-miterlimit:10;" d="M 0.334727 0.0454688 L 0.35125 0.954531 L 0.64875 0.954531 L 0.665273 0.0454688 L 0.384297 0.0619922 Z M 0.334727 0.0454688 " transform="matrix(100,0,0,100,0,2900)"/>
<path style="fill:none;stroke-width:0.01;stroke-linecap:butt;stroke-linejoin:miter;stroke:rgb(0%,0%,0%);stroke-opacity:1;stroke-miterlimit:10;" d="M 0.0730078 0.844336 L 0.0454687 0.155664 L 0.954531 0.155664 L 0.596406 0.679063 L 0.596406 0.816797 Z M 0.0730078 0.844336 " transform="matrix(100,0,0,100,150,2900)"/>
<path style="fill:none;stroke-width:0.01;stroke-linecap:butt;stroke-linejoin:miter;stroke:rgb(0%,0%,0%);stroke-opacity:1;stroke-miterlimit:10;" d="M 0.0454687 0.538867 L 0.0514453 0.467109 L 0.942578 0.461133 L 0.954531 0.526914 Z M 0.0454687 0.538867 " transform="matrix(100,0,0,100,300,2900)"/>
<path style="fill:none;stroke-width:0.01;stroke-linecap:butt;stroke-linejoin:miter;stroke:rgb(0%,0%,0%);stroke-opacity:1;stroke-miterlimit:10;" d="M 0.121211 0.0454688 L 0.121211 0.954531 L 0.878789 0.91668 L 0.878789 0.0833203 Z M 0.121211 0.0454688 " transform="matrix(100,0,0,100,450,2900)"/>
<path style="fill:none;stroke-width:0.01;stroke-linecap:butt;stroke-linejoin:miter;stroke:rgb(0%,0%,0%);stroke-opacity:1;stroke-miterlimit:10;" d="M 0.136367 0.0454688 L 0.1 0.954531 L 0.9 0.918164 L 0.863633 0.0818359 Z M 0.136367 0.0454688 " transform="matrix(100,0,0,100,600,2900)"/>
<path style="fill:none;stroke-width:0.01;stroke-linecap:butt;stroke-linejoin:miter;stroke:rgb(0%,0%,0%);stroke-opacity:1;stroke-miterlimit:10;" d="M 0.9 0.0454688 L 0.1 0.0454688 L 0.136367 0.954531 L 0.863633 0.954531 Z M 0.9 0.0454688 " transform="matrix(100,0,0,100,0,3050)"/>
<path style="fill:none;stroke-width:0.01;stroke-linecap:butt;stroke-linejoin:miter;stroke:rgb(0%,0%,0%);stroke-opacity:1;stroke-miterlimit:10;" d="M 0.700859 0.108867 L 0.573984 0.130039 L 0.447148 0.193438 L 0.341445 0.235742 L 0.235742 0.299141 L 0.151172 0.341445 L 0.0877344 0.426016 L 0.0454687 0.489414 L 0.0877344 0.616289 L 0.172305 0.679688 L 0.299141 0.78543 L 0.468281 0.869961 L 0.616289 0.891133 L 0.954531 0.891133 L 0.954531 0.108867 Z M 0.700859 0.108867 " transform="matrix(100,0,0,100,150,3050)"/>
<path style="fill:none;stroke-width:0.01;stroke-linecap:butt;stroke-linejoin:miter;stroke:rgb(0%,0%,0%);stroke-opacity:1;stroke-miterlimit:10;" d="M 0.869336 0.954531 L 0.0454687 0.926133 L 0.102266 0.0454688 L 0.954531 0.102266 Z M 0.869336 0.954531 " transform="matrix(100,0,0,100,300,3050)"/>
<path style="fill:none;stroke-width:0.01;stroke-linecap:butt;stroke-linejoin:miter;stroke:rgb(0%,0%,0%);stroke-opacity:1;stroke-miterlimit:10;" d="M 0.0454688 0.402578 L 0.153672 0.554102 L 0.305195 0.640703 L 0.586563 0.683984 L 0.889609 0.662344 L 0.954531 0.640703 L 0.932891 0.337656 L 0.846328 0.316016 L 0.348477 0.337656 L 0.153672 0.359297 Z M 0.0454688 0.402578 " transform="matrix(100,0,0,100,450,3050)"/>
<path style="fill:none;stroke-width:0.01;stroke-linecap:butt;stroke-linejoin:miter;stroke:rgb(0%,0%,0%);stroke-opacity:1;stroke-miterlimit:10;" d="M 0.117227 0.0454688 L 0.069375 0.954531 L 0.930625 0.90668 L 0.930625 0.667461 L 0.595703 0.619609 L 0.595703 0.523906 L 0.643555 0.476094 L 0.643555 0.0933203 Z M 0.117227 0.0454688 " transform="matrix(100,0,0,100,600,3050)"/>
<path style="fill:none;stroke-width:0.01;stroke-linecap:butt;stroke-linejoin:miter;stroke:rgb(0%,0%,0%);stroke-opacity:1;stroke-miterlimit:10;" d="M 0.0454688 0.125664 L 0.0454688 0.874336 L 0.954531 0.874336 L 0.954531 0.179141 L 0.259375 0.125664 Z M 0.0454688 0.125664 " transform="matrix(100,0,0,100,0,3200)"/>
<path style="fill:none;stroke-width:0.01;stroke-linecap:butt;stroke-linejoin:miter;stroke:rgb(0%,0%,0%);stroke-opacity:1;stroke-miterlimit:10;" d="M 0.0454687 0.589297 L 0.954531 0.573047 L 0.93832 0.410703 L 0.0616797 0.410703 Z M 0.0454687 0.589297 " transform="matrix(100,0,0,100,150,3200)"/>
<path style="fill:none;stroke-width:0.01;stroke-linecap:butt;stroke-linejoin:miter;stroke:rgb(0%,0%,0%);stroke-opacity:1;stroke-miterlimit:10;" d="M 0.0603516 0.574531 L 0.939648 0.619219 L 0.954531 0.395664 L 0.0454687 0.380781 Z M 0.0603516 0.574531 " transform="matrix(100,0,0,100,300,3200)"/>
<path style="fill:none;stroke-width:0.01;stroke-linecap:butt;stroke-linejoin:miter;stroke:rgb(0%,0%,0%);stroke-opacity:1;stroke-miterlimit:10;" d="M 0.0454688 0.689375 L 0.0454688 0.285352 L 0.815664 0.297969 L 0.954531 0.714648 L 0.0833203 0.689375 Z M 0.0454688 0.689375 " transform="matrix(100,0,0,100,450,3200)"/>
<path style="fill:none;stroke-width:0.01;stroke-linecap:butt;stroke-linejoin:miter;stroke:rgb(0%,0%,0%);stroke-opacity:1;stroke-miterlimit:10;" d="M 0.08875 0.0454687 L 0.0454688 0.91125 L 0.91125 0.954531 L 0.954531 0.08875 Z M 0.08875 0.0454687 " transform="matrix(100,0,0,100,600,3200)"/>
<path style="fill:none;stroke-width:0.01;stroke-linecap:butt;stroke-linejoin:miter;stroke:rgb(0%,0%,0%);stroke-opacity:1;stroke-miterlimit:10;" d="M 0.110391 0.08875 L 0.153672 0.954531 L 0.889609 0.954531 L 0.846328 0.0454687 Z M 0.110391 0.08875 " transform="matrix(100,0,0,100,0,3350)"/>
<path style="fill:none;stroke-width:0.01;stroke-linecap:butt;stroke-linejoin:miter;stroke:rgb(0%,0%,0%);stroke-opacity:1;stroke-miterlimit:10;" d="M 0.0676172 0.178477 L 0.0454687 0.777148 L 0.932383 0.821523 L 0.954531 0.355859 L 0.888008 0.355859 L 0.888008 0.422383 L 0.843672 0.466758 L 0.488906 0.311523 L 0.44457 0.289375 L 0.400234 0.333711 L 0.333711 0.289375 L 0.289375 0.222852 L 0.289375 0.178477 L 0.134141 0.178477 Z M 0.0676172 0.178477 " transform="matrix(100,0,0,100,150,3350)"/>
<path style="fill:none;stroke-width:0.01;stroke-linecap:butt;stroke-linejoin:miter;stroke:rgb(0%,0%,0%);stroke-opacity:1;stroke-miterlimit:10;" d="M 0.5 0.0454687 L 0.342656 0.0978906 L 0.220273 0.150352 L 0.167852 0.220273 L 0.0978906 0.360156 L 0.0629297 0.465039 L 0.0629297 0.587422 L 0.0978906 0.709805 L 0.150352 0.779727 L 0.272734 0.849648 L 0.412578 0.93707 L 0.5175 0.954531 L 0.832148 0.902109 L 0.832148 0.832148 L 0.867148 0.727266 L 0.93707 0.569922 L 0.93707 0.465039 L 0.902109 0.395117 L 0.902109 0.342656 L 0.91957 0.202813 L 0.902109 0.115391 L 0.849648 0.0629297 L 0.692305 0.0629297 Z M 0.5 0.0454687 " transform="matrix(100,0,0,100,300,3350)"/>
<path style="fill:none;stroke-width:0.01;stroke-linecap:butt;stroke-linejoin:miter;stroke:rgb(0%,0%,0%);stroke-opacity:1;stroke-miterlimit:10;" d="M 0.449492 0.358594 L 0.20707 0.398984 L 0.12625 0.439375 L 0.0656641 0.459609 L 0.0454688 0.5 L 0.0656641 0.540391 L 0.106055 0.560625 L 0.186875 0.601016 L 0.328281 0.621211 L 0.510117 0.641406 L 0.954531 0.641406 L 0.87375 0.560625 L 0.83332 0.479805 L 0.772734 0.41918 L 0.712109 0.378789 L 0.510117 0.378789 Z M 0.449492 0.358594 " transform="matrix(100,0,0,100,450,3350)"/>
</g>
</svg>
