<?xml version="1.0" encoding="UTF-8"?>
<svg xmlns="http://www.w3.org/2000/svg" xmlns:xlink="http://www.w3.org/1999/xlink" width="750pt" height="12800pt" viewBox="0 0 750 12800" version="1.1">
<g id="surface1">
<path style="fill:none;stroke-width:0.01;stroke-linecap:butt;stroke-linejoin:miter;stroke:rgb(0%,0%,0%);stroke-opacity:1;stroke-miterlimit:10;" d="M 0.584609 0.954531 L 0.466562 0.954531 L 0.474414 0.757773 L 0.462617 0.667266 L 0.458672 0.54918 L 0.458672 0.458672 L 0.446875 0.316992 L 0.438984 0.242227 L 0.438984 0.198945 L 0.415391 0.116289 L 0.431133 0.0454687 L 0.478359 0.0454687 L 0.454727 0.12418 L 0.45082 0.15957 L 0.45082 0.175312 L 0.458672 0.206797 L 0.505898 0.659375 L 0.517695 0.667266 L 0.529531 0.620039 L 0.568867 0.616094 Z M 0.584609 0.954531 " transform="matrix(100,0,0,100,0,200)"/>
<path style="fill:none;stroke-width:0.01;stroke-linecap:butt;stroke-linejoin:miter;stroke:rgb(0%,0%,0%);stroke-opacity:1;stroke-miterlimit:10;" d="M 0.873594 0.176211 L 0.0578906 0.157539 L 0.0890234 0.263398 L 0.0890234 0.412813 L 0.0641406 0.425273 L 0.0578906 0.481328 L 0.0890234 0.512461 L 0.0952734 0.624531 L 0.0703516 0.674336 L 0.0766016 0.71793 L 0.0454687 0.842461 L 0.624531 0.842461 L 0.736602 0.730391 L 0.954531 0.736602 L 0.954531 0.711719 L 0.867383 0.674336 L 0.867383 0.574727 L 0.83 0.537344 L 0.848711 0.512461 L 0.755273 0.512461 L 0.755273 0.462656 L 0.861133 0.462656 L 0.861133 0.437734 L 0.786445 0.431523 L 0.786445 0.394141 L 0.873594 0.394141 Z M 0.873594 0.176211 " transform="matrix(100,0,0,100,150,200)"/>
<path style="fill:none;stroke-width:0.01;stroke-linecap:butt;stroke-linejoin:miter;stroke:rgb(0%,0%,0%);stroke-opacity:1;stroke-miterlimit:10;" d="M 0.690234 0.0454687 L 0.610117 0.0454687 L 0.606133 0.0654687 L 0.626133 0.113555 L 0.626133 0.12957 L 0.610117 0.145586 L 0.602109 0.173594 L 0.598125 0.185625 L 0.638164 0.181602 L 0.594102 0.189609 L 0.594102 0.213672 L 0.554063 0.22168 L 0.56207 0.249687 L 0.51 0.249687 L 0.51 0.281719 L 0.49 0.285742 L 0.49 0.313789 L 0.457969 0.313789 L 0.453945 0.357813 L 0.421914 0.357813 L 0.409883 0.393867 L 0.385859 0.393867 L 0.381875 0.425898 L 0.337813 0.445937 L 0.329805 0.498008 L 0.329805 0.550078 L 0.309766 0.554063 L 0.309766 0.594102 L 0.349805 0.614141 L 0.369844 0.630156 L 0.373867 0.642187 L 0.397891 0.65418 L 0.413906 0.674219 L 0.526016 0.746289 L 0.56207 0.774336 L 0.594102 0.822383 L 0.626133 0.85043 L 0.650195 0.894492 L 0.674219 0.934531 L 0.690234 0.954531 Z M 0.690234 0.0454687 " transform="matrix(100,0,0,100,300,200)"/>
<path style="fill:none;stroke-width:0.01;stroke-linecap:butt;stroke-linejoin:miter;stroke:rgb(0%,0%,0%);stroke-opacity:1;stroke-miterlimit:10;" d="M 0.795469 0.0454687 L 0.159102 0.0454687 L 0.159102 0.113633 L 0.363633 0.363633 L 0.522734 0.590898 L 0.636367 0.863633 L 0.727266 0.954531 L 0.795469 0.704531 L 0.75 0.568164 L 0.840898 0.363633 L 0.840898 0.227266 Z M 0.795469 0.0454687 " transform="matrix(100,0,0,100,450,200)"/>
<path style="fill:none;stroke-width:0.01;stroke-linecap:butt;stroke-linejoin:miter;stroke:rgb(0%,0%,0%);stroke-opacity:1;stroke-miterlimit:10;" d="M 0.765313 0.0454687 L 0.234687 0.0454687 L 0.247031 0.251133 L 0.255234 0.395117 L 0.284023 0.428008 L 0.300508 0.452695 L 0.308711 0.50207 L 0.349844 0.588437 L 0.374531 0.625469 L 0.362188 0.765312 L 0.353984 0.896953 L 0.358086 0.925742 L 0.399219 0.954531 L 0.456797 0.946328 L 0.485586 0.909297 L 0.534961 0.880508 L 0.534961 0.831133 L 0.530859 0.72418 L 0.530859 0.683047 L 0.567891 0.711836 L 0.592539 0.650156 L 0.625469 0.56375 L 0.625469 0.489727 L 0.683047 0.378633 L 0.691289 0.333398 L 0.703633 0.247031 L 0.72418 0.172969 L 0.736523 0.103047 Z M 0.765313 0.0454687 " transform="matrix(100,0,0,100,600,200)"/>
<path style="fill:none;stroke-width:0.01;stroke-linecap:butt;stroke-linejoin:miter;stroke:rgb(0%,0%,0%);stroke-opacity:1;stroke-miterlimit:10;" d="M 0.558867 0.0977734 L 0.585039 0.248203 L 0.598086 0.4575 L 0.591562 0.699492 L 0.571953 0.849883 L 0.558867 0.928398 L 0.519609 0.954531 L 0.5 0.895664 L 0.480391 0.751797 L 0.460742 0.69293 L 0.414961 0.640625 L 0.401914 0.424805 L 0.434609 0.405156 L 0.473828 0.320156 L 0.473828 0.235117 L 0.493477 0.130469 L 0.486914 0.0454687 L 0.552305 0.0454687 Z M 0.558867 0.0977734 " transform="matrix(100,0,0,100,0,350)"/>
<path style="fill:none;stroke-width:0.01;stroke-linecap:butt;stroke-linejoin:miter;stroke:rgb(0%,0%,0%);stroke-opacity:1;stroke-miterlimit:10;" d="M 0.739805 0.954531 L 0.267344 0.954531 L 0.278086 0.900859 L 0.270938 0.814961 L 0.260195 0.77918 L 0.285273 0.725469 L 0.292422 0.682539 L 0.292422 0.628828 L 0.295977 0.585898 L 0.295977 0.546523 L 0.317461 0.532227 L 0.335352 0.381875 L 0.335352 0.28168 L 0.331797 0.210078 L 0.321055 0.127773 L 0.321055 0.0848438 L 0.310312 0.0454687 L 0.739805 0.0454687 Z M 0.739805 0.954531 " transform="matrix(100,0,0,100,150,350)"/>
<path style="fill:none;stroke-width:0.01;stroke-linecap:butt;stroke-linejoin:miter;stroke:rgb(0%,0%,0%);stroke-opacity:1;stroke-miterlimit:10;" d="M 0.611875 0.0525391 L 0.416562 0.0454687 L 0.38457 0.0987109 L 0.370391 0.144883 L 0.370391 0.1875 L 0.373945 0.223008 L 0.39168 0.258516 L 0.405898 0.290469 L 0.405898 0.311797 L 0.398789 0.340195 L 0.388125 0.389922 L 0.39168 0.428984 L 0.402344 0.475156 L 0.416562 0.531953 L 0.427188 0.585234 L 0.427188 0.631406 L 0.423633 0.652695 L 0.405898 0.670469 L 0.38457 0.720156 L 0.3775 0.755664 L 0.3775 0.798281 L 0.388125 0.837344 L 0.405898 0.872852 L 0.427188 0.904844 L 0.437852 0.940352 L 0.448516 0.954531 L 0.629609 0.954531 Z M 0.611875 0.0525391 " transform="matrix(100,0,0,100,300,350)"/>
<path style="fill:none;stroke-width:0.01;stroke-linecap:butt;stroke-linejoin:miter;stroke:rgb(0%,0%,0%);stroke-opacity:1;stroke-miterlimit:10;" d="M 0.569805 0.0454687 L 0.523281 0.0490234 L 0.519687 0.113477 L 0.508945 0.163555 L 0.505352 0.217266 L 0.501797 0.263789 L 0.494648 0.29957 L 0.491055 0.346094 L 0.483906 0.42125 L 0.480313 0.467773 L 0.476719 0.521484 L 0.476719 0.628828 L 0.466016 0.704023 L 0.462422 0.750547 L 0.455273 0.800625 L 0.448086 0.84 L 0.437383 0.87582 L 0.437383 0.947383 L 0.430195 0.954531 L 0.53043 0.954531 L 0.53043 0.936641 L 0.533984 0.893711 L 0.541172 0.865078 L 0.544727 0.825703 L 0.54832 0.77918 L 0.54832 0.750547 L 0.537578 0.721914 L 0.533984 0.693281 L 0.54832 0.664648 L 0.551914 0.625273 L 0.533984 0.596641 L 0.54832 0.553672 L 0.551914 0.525039 L 0.54832 0.496406 L 0.541172 0.460625 L 0.537578 0.424844 L 0.537578 0.385469 L 0.544727 0.331797 L 0.537578 0.263789 L 0.544727 0.210078 L 0.555469 0.16 L 0.559063 0.12418 L 0.562617 0.0883984 Z M 0.569805 0.0454687 " transform="matrix(100,0,0,100,450,350)"/>
<path style="fill:none;stroke-width:0.01;stroke-linecap:butt;stroke-linejoin:miter;stroke:rgb(0%,0%,0%);stroke-opacity:1;stroke-miterlimit:10;" d="M 0.525039 0.954531 L 0.478516 0.947383 L 0.485703 0.915156 L 0.492852 0.882969 L 0.482109 0.850742 L 0.460625 0.79707 L 0.449883 0.764844 L 0.449883 0.696836 L 0.439141 0.664648 L 0.435586 0.63957 L 0.442734 0.582305 L 0.442734 0.514297 L 0.435586 0.467773 L 0.464219 0.403359 L 0.478516 0.346094 L 0.482109 0.310313 L 0.482109 0.263789 L 0.492852 0.217266 L 0.507148 0.167148 L 0.510742 0.134922 L 0.514297 0.0991406 L 0.528633 0.0741016 L 0.532227 0.0454687 L 0.564414 0.0526172 L 0.564414 0.16 L 0.557266 0.328203 L 0.557266 0.371172 L 0.550117 0.696836 L 0.532227 0.850742 Z M 0.525039 0.954531 " transform="matrix(100,0,0,100,600,350)"/>
<path style="fill:none;stroke-width:0.01;stroke-linecap:butt;stroke-linejoin:miter;stroke:rgb(0%,0%,0%);stroke-opacity:1;stroke-miterlimit:10;" d="M 0.566211 0.0454688 L 0.473164 0.0454688 L 0.487461 0.0741016 L 0.494648 0.113477 L 0.476719 0.152813 L 0.483906 0.256641 L 0.483906 0.389063 L 0.46957 0.478516 L 0.455273 0.535781 L 0.437383 0.571562 L 0.423047 0.614531 L 0.444531 0.689687 L 0.466016 0.750547 L 0.473164 0.850742 L 0.466016 0.890117 L 0.444531 0.936641 L 0.444531 0.954531 L 0.562617 0.950977 L 0.573359 0.77918 L 0.569805 0.682539 L 0.569805 0.582305 L 0.573359 0.435586 L 0.576953 0.29957 L 0.576953 0.0883984 Z M 0.566211 0.0454688 " transform="matrix(100,0,0,100,0,500)"/>
<path style="fill:none;stroke-width:0.01;stroke-linecap:butt;stroke-linejoin:miter;stroke:rgb(0%,0%,0%);stroke-opacity:1;stroke-miterlimit:10;" d="M 0.585625 0.0454688 L 0.407773 0.0520312 L 0.420937 0.0915625 L 0.427539 0.144258 L 0.427539 0.210156 L 0.440703 0.25625 L 0.453867 0.315547 L 0.447305 0.381406 L 0.480234 0.447305 L 0.480234 0.506602 L 0.486836 0.572461 L 0.519766 0.677852 L 0.552695 0.829375 L 0.572461 0.901836 L 0.579063 0.954531 L 0.592227 0.862305 L 0.585625 0.605391 L 0.579063 0.434141 L 0.579063 0.25625 Z M 0.585625 0.0454688 " transform="matrix(100,0,0,100,150,500)"/>
<path style="fill:none;stroke-width:0.01;stroke-linecap:butt;stroke-linejoin:miter;stroke:rgb(0%,0%,0%);stroke-opacity:1;stroke-miterlimit:10;" d="M 0.799453 0.947422 L 0.257578 0.954531 L 0.264687 0.922461 L 0.232617 0.840469 L 0.200547 0.747773 L 0.182695 0.715703 L 0.179141 0.694297 L 0.186289 0.683594 L 0.175586 0.605156 L 0.172031 0.587344 L 0.186289 0.54457 L 0.186289 0.533867 L 0.172031 0.512461 L 0.157773 0.451875 L 0.161328 0.0454688 L 0.827969 0.0454688 L 0.838672 0.0810937 L 0.838672 0.152422 L 0.842227 0.241523 L 0.838672 0.327109 L 0.835117 0.401953 L 0.827969 0.44832 L 0.827969 0.530312 L 0.817305 0.590898 L 0.810156 0.633672 L 0.810156 0.701445 L 0.803047 0.794102 L 0.803047 0.861836 L 0.806602 0.933164 Z M 0.799453 0.947422 " transform="matrix(100,0,0,100,300,500)"/>
<path style="fill:none;stroke-width:0.01;stroke-linecap:butt;stroke-linejoin:miter;stroke:rgb(0%,0%,0%);stroke-opacity:1;stroke-miterlimit:10;" d="M 0.663633 0.942422 L 0.675742 0.651523 L 0.675742 0.396953 L 0.639375 0.215156 L 0.651523 0.118164 L 0.627266 0.0454688 L 0.506055 0.142422 L 0.457578 0.203047 L 0.43332 0.263633 L 0.421211 0.372734 L 0.396953 0.493945 L 0.324258 0.56668 L 0.409102 0.663633 L 0.457578 0.724258 L 0.506055 0.821211 L 0.518164 0.881836 L 0.530312 0.954531 Z M 0.663633 0.942422 " transform="matrix(100,0,0,100,450,500)"/>
<path style="fill:none;stroke-width:0.01;stroke-linecap:butt;stroke-linejoin:miter;stroke:rgb(0%,0%,0%);stroke-opacity:1;stroke-miterlimit:10;" d="M 0.704023 0.0454688 L 0.331797 0.0454688 L 0.324609 0.0883984 L 0.335352 0.149258 L 0.331797 0.231562 L 0.331797 0.263789 L 0.335352 0.292422 L 0.324609 0.310313 L 0.321055 0.346094 L 0.321055 0.42125 L 0.331797 0.514297 L 0.328203 0.593047 L 0.328203 0.650313 L 0.331797 0.678945 L 0.317461 0.743359 L 0.29957 0.832852 L 0.292422 0.904453 L 0.295977 0.954531 L 0.643164 0.950977 L 0.650313 0.879375 L 0.653906 0.829258 L 0.646758 0.754102 L 0.653906 0.657461 L 0.668203 0.525039 L 0.682539 0.42125 L 0.689687 0.342539 L 0.675391 0.206523 L 0.668203 0.185039 L 0.693281 0.195781 L 0.707578 0.167148 L 0.707578 0.0848438 Z M 0.704023 0.0454688 " transform="matrix(100,0,0,100,600,500)"/>
<path style="fill:none;stroke-width:0.01;stroke-linecap:butt;stroke-linejoin:miter;stroke:rgb(0%,0%,0%);stroke-opacity:1;stroke-miterlimit:10;" d="M 0.580313 0.954531 L 0.412383 0.947227 L 0.426992 0.910742 L 0.434297 0.870586 L 0.434297 0.804844 L 0.445234 0.731836 L 0.459844 0.666133 L 0.467148 0.578477 L 0.467148 0.52375 L 0.470781 0.46168 L 0.456172 0.392305 L 0.445234 0.282773 L 0.441602 0.238945 L 0.434297 0.198789 L 0.42332 0.136719 L 0.419687 0.0600391 L 0.42332 0.0454688 L 0.445234 0.107539 L 0.474453 0.158633 L 0.503633 0.228008 L 0.551133 0.293711 L 0.580313 0.304688 L 0.583984 0.311992 L 0.587617 0.428789 L 0.587617 0.779297 Z M 0.580313 0.954531 " transform="matrix(100,0,0,100,0,650)"/>
<path style="fill:none;stroke-width:0.01;stroke-linecap:butt;stroke-linejoin:miter;stroke:rgb(0%,0%,0%);stroke-opacity:1;stroke-miterlimit:10;" d="M 0.601992 0.0454688 L 0.398008 0.0454688 L 0.40875 0.152813 L 0.415898 0.278086 L 0.412305 0.381875 L 0.40875 0.471367 L 0.426641 0.646758 L 0.433789 0.800625 L 0.444531 0.900859 L 0.448086 0.950977 L 0.601992 0.954531 Z M 0.601992 0.0454688 " transform="matrix(100,0,0,100,150,650)"/>
<path style="fill:none;stroke-width:0.01;stroke-linecap:butt;stroke-linejoin:miter;stroke:rgb(0%,0%,0%);stroke-opacity:1;stroke-miterlimit:10;" d="M 0.532461 0.954531 L 0.475156 0.954531 L 0.467539 0.801758 L 0.463711 0.675703 L 0.471367 0.645156 L 0.478984 0.59168 L 0.478984 0.54582 L 0.471367 0.473281 L 0.471367 0.415977 L 0.478984 0.331914 L 0.482813 0.274648 L 0.490469 0.167695 L 0.494258 0.0798438 L 0.498086 0.0454688 L 0.509531 0.148594 L 0.513359 0.33957 L 0.528633 0.515273 L 0.532461 0.664258 L 0.536289 0.851406 Z M 0.532461 0.954531 " transform="matrix(100,0,0,100,300,650)"/>
<path style="fill:none;stroke-width:0.01;stroke-linecap:butt;stroke-linejoin:miter;stroke:rgb(0%,0%,0%);stroke-opacity:1;stroke-miterlimit:10;" d="M 0.521484 0.954531 L 0.478516 0.954531 L 0.474961 0.70043 L 0.471367 0.596641 L 0.478516 0.532227 L 0.492852 0.431992 L 0.5 0.342539 L 0.507148 0.292422 L 0.5 0.22082 L 0.489258 0.170742 L 0.496406 0.12418 L 0.521484 0.08125 L 0.525039 0.0454688 L 0.528633 0.20293 L 0.517891 0.467773 L 0.525039 0.596641 Z M 0.521484 0.954531 " transform="matrix(100,0,0,100,450,650)"/>
<path style="fill:none;stroke-width:0.01;stroke-linecap:butt;stroke-linejoin:miter;stroke:rgb(0%,0%,0%);stroke-opacity:1;stroke-miterlimit:10;" d="M 0.578359 0.954531 L 0.374609 0.946719 L 0.413789 0.774297 L 0.437305 0.562695 L 0.445156 0.476484 L 0.507852 0.272734 L 0.586211 0.108164 L 0.617539 0.0454688 L 0.625391 0.327578 L 0.594062 0.531367 L 0.601875 0.735117 L 0.594062 0.891836 Z M 0.578359 0.954531 " transform="matrix(100,0,0,100,600,650)"/>
<path style="fill:none;stroke-width:0.01;stroke-linecap:butt;stroke-linejoin:miter;stroke:rgb(0%,0%,0%);stroke-opacity:1;stroke-miterlimit:10;" d="M 0.760352 0.954531 L 0.151367 0.954531 L 0.195508 0.866289 L 0.319063 0.689766 L 0.416133 0.47793 L 0.460273 0.319062 L 0.469102 0.177852 L 0.469102 0.0454687 L 0.548555 0.116055 L 0.654453 0.28375 L 0.707422 0.372031 L 0.778008 0.548555 L 0.822148 0.733906 L 0.839805 0.866289 L 0.848633 0.936875 Z M 0.760352 0.954531 " transform="matrix(100,0,0,100,0,800)"/>
<path style="fill:none;stroke-width:0.01;stroke-linecap:butt;stroke-linejoin:miter;stroke:rgb(0%,0%,0%);stroke-opacity:1;stroke-miterlimit:10;" d="M 0.825117 0.948242 L 0.174883 0.954531 L 0.200117 0.910352 L 0.256953 0.828281 L 0.288516 0.771445 L 0.345313 0.664141 L 0.421094 0.531562 L 0.446328 0.474766 L 0.484219 0.41793 L 0.528398 0.323242 L 0.623125 0.152773 L 0.654688 0.0454687 L 0.698867 0.0707031 L 0.743047 0.0896484 L 0.724102 0.165391 L 0.736758 0.215898 L 0.743047 0.29168 L 0.799883 0.342187 L 0.799883 0.430547 L 0.806172 0.70832 Z M 0.825117 0.948242 " transform="matrix(100,0,0,100,150,800)"/>
<path style="fill:none;stroke-width:0.01;stroke-linecap:butt;stroke-linejoin:miter;stroke:rgb(0%,0%,0%);stroke-opacity:1;stroke-miterlimit:10;" d="M 0.576484 0.0539453 L 0.449023 0.0454687 L 0.449023 0.0794531 L 0.466016 0.138906 L 0.440508 0.198398 L 0.423516 0.240859 L 0.474492 0.308828 L 0.516992 0.385312 L 0.491484 0.461758 L 0.466016 0.495742 L 0.483008 0.546719 L 0.508516 0.691172 L 0.508516 0.742148 L 0.474492 0.776133 L 0.491484 0.835586 L 0.508516 0.895078 L 0.525508 0.954531 L 0.533984 0.716641 L 0.550977 0.342813 Z M 0.576484 0.0539453 " transform="matrix(100,0,0,100,300,800)"/>
<path style="fill:none;stroke-width:0.01;stroke-linecap:butt;stroke-linejoin:miter;stroke:rgb(0%,0%,0%);stroke-opacity:1;stroke-miterlimit:10;" d="M 0.602656 0.954531 L 0.375352 0.954531 L 0.390039 0.910547 L 0.397344 0.822578 L 0.397344 0.763945 L 0.404688 0.712617 L 0.42668 0.661289 L 0.448672 0.580664 L 0.441367 0.507344 L 0.463359 0.456016 L 0.448672 0.375352 L 0.456016 0.309375 L 0.456016 0.265391 L 0.448672 0.22875 L 0.485352 0.184766 L 0.492656 0.15543 L 0.5 0.11875 L 0.529336 0.0454687 L 0.529336 0.0601172 L 0.536641 0.133437 L 0.536641 0.15543 L 0.492656 0.184766 L 0.470664 0.22875 L 0.485352 0.280078 L 0.5 0.346055 L 0.521992 0.42668 L 0.551328 0.529336 L 0.57332 0.551328 L 0.609961 0.602656 L 0.624648 0.712617 Z M 0.602656 0.954531 " transform="matrix(100,0,0,100,450,800)"/>
<path style="fill:none;stroke-width:0.01;stroke-linecap:butt;stroke-linejoin:miter;stroke:rgb(0%,0%,0%);stroke-opacity:1;stroke-miterlimit:10;" d="M 0.418164 0.172734 L 0.472734 0.3 L 0.527266 0.4 L 0.581836 0.5 L 0.609102 0.609102 L 0.681836 0.809102 L 0.7 0.863633 L 0.690898 0.9 L 0.654531 0.945469 L 0.6 0.954531 L 0.545469 0.818164 L 0.418164 0.627266 L 0.354531 0.563633 L 0.318164 0.436367 L 0.345469 0.327266 L 0.318164 0.2 L 0.318164 0.0818359 L 0.3 0.0454687 L 0.336367 0.0908984 Z M 0.418164 0.172734 " transform="matrix(100,0,0,100,600,800)"/>
<path style="fill:none;stroke-width:0.01;stroke-linecap:butt;stroke-linejoin:miter;stroke:rgb(0%,0%,0%);stroke-opacity:1;stroke-miterlimit:10;" d="M 0.576523 0.0454687 L 0.428008 0.0454687 L 0.41 0.0769531 L 0.418984 0.121953 L 0.418984 0.144453 L 0.405508 0.175977 L 0.378477 0.211953 L 0.365 0.256992 L 0.355977 0.32 L 0.360469 0.383008 L 0.3875 0.463984 L 0.41 0.513516 L 0.4325 0.563008 L 0.463984 0.616992 L 0.513516 0.698008 L 0.545 0.756523 L 0.571992 0.837539 L 0.585508 0.864531 L 0.603516 0.945547 L 0.630508 0.954531 L 0.639531 0.923047 L 0.644023 0.756523 L 0.635 0.581016 L 0.630508 0.373984 L 0.630508 0.234492 L 0.616992 0.103945 L 0.608008 0.0454687 Z M 0.576523 0.0454687 " transform="matrix(100,0,0,100,0,950)"/>
<path style="fill:none;stroke-width:0.01;stroke-linecap:butt;stroke-linejoin:miter;stroke:rgb(0%,0%,0%);stroke-opacity:1;stroke-miterlimit:10;" d="M 0.508633 0.0454687 L 0.48707 0.118711 L 0.474141 0.200547 L 0.448281 0.252266 L 0.443984 0.325508 L 0.435391 0.441836 L 0.439688 0.528008 L 0.431055 0.584023 L 0.400898 0.730508 L 0.400898 0.808047 L 0.405195 0.881289 L 0.409531 0.933008 L 0.409531 0.954531 L 0.599102 0.954531 L 0.573242 0.760664 L 0.564609 0.558164 L 0.551719 0.39875 L 0.543086 0.256562 L 0.534453 0.179023 L 0.530156 0.110078 Z M 0.508633 0.0454687 " transform="matrix(100,0,0,100,150,950)"/>
<path style="fill:none;stroke-width:0.01;stroke-linecap:butt;stroke-linejoin:miter;stroke:rgb(0%,0%,0%);stroke-opacity:1;stroke-miterlimit:10;" d="M 0.551484 0.954531 L 0.476914 0.954531 L 0.469805 0.926133 L 0.448516 0.879961 L 0.441406 0.851562 L 0.45207 0.805391 L 0.45918 0.752148 L 0.45918 0.713086 L 0.444961 0.677539 L 0.46625 0.627852 L 0.46625 0.610078 L 0.462695 0.571016 L 0.462695 0.539062 L 0.469805 0.485781 L 0.473359 0.478711 L 0.480469 0.464492 L 0.484023 0.450273 L 0.484023 0.414766 L 0.473359 0.311797 L 0.476914 0.237227 L 0.487578 0.194609 L 0.480469 0.144883 L 0.480469 0.0951563 L 0.484023 0.0596484 L 0.484023 0.0454687 L 0.515977 0.0525391 L 0.515977 0.0845312 L 0.526641 0.134219 L 0.537305 0.155547 L 0.519531 0.194609 L 0.523086 0.215898 L 0.54082 0.251406 L 0.54793 0.315352 L 0.54082 0.507109 L 0.551484 0.727266 L 0.558594 0.926133 Z M 0.551484 0.954531 " transform="matrix(100,0,0,100,300,950)"/>
<path style="fill:none;stroke-width:0.01;stroke-linecap:butt;stroke-linejoin:miter;stroke:rgb(0%,0%,0%);stroke-opacity:1;stroke-miterlimit:10;" d="M 0.649219 0.0454687 L 0.488516 0.0454687 L 0.483945 0.105156 L 0.470156 0.137266 L 0.456367 0.174023 L 0.442617 0.187773 L 0.447188 0.238281 L 0.447188 0.293398 L 0.428828 0.334727 L 0.415078 0.362266 L 0.405859 0.371445 L 0.37832 0.417344 L 0.350781 0.454102 L 0.346172 0.486211 L 0.359961 0.559688 L 0.355391 0.605586 L 0.359961 0.642344 L 0.38293 0.674453 L 0.410469 0.697422 L 0.456367 0.775469 L 0.497695 0.876484 L 0.520664 0.926992 L 0.534453 0.954531 L 0.548203 0.945352 L 0.571172 0.812227 L 0.60332 0.591836 L 0.630859 0.477031 L 0.640039 0.275039 L 0.640039 0.137266 L 0.653828 0.0683984 Z M 0.649219 0.0454687 " transform="matrix(100,0,0,100,450,950)"/>
<path style="fill:none;stroke-width:0.01;stroke-linecap:butt;stroke-linejoin:miter;stroke:rgb(0%,0%,0%);stroke-opacity:1;stroke-miterlimit:10;" d="M 0.630625 0.954531 L 0.452969 0.954531 L 0.442539 0.902305 L 0.390273 0.829141 L 0.379844 0.70375 L 0.390273 0.599258 L 0.421641 0.505234 L 0.421641 0.358945 L 0.379844 0.254453 L 0.369375 0.160391 L 0.400742 0.0454687 L 0.484336 0.212656 L 0.536563 0.338047 L 0.56793 0.390273 L 0.578359 0.484336 L 0.588828 0.672422 L 0.620156 0.766445 L 0.630625 0.839609 Z M 0.630625 0.954531 " transform="matrix(100,0,0,100,600,950)"/>
<path style="fill:none;stroke-width:0.01;stroke-linecap:butt;stroke-linejoin:miter;stroke:rgb(0%,0%,0%);stroke-opacity:1;stroke-miterlimit:10;" d="M 0.67 0.0454687 L 0.261992 0.0454687 L 0.265586 0.0991406 L 0.258398 0.181445 L 0.261992 0.260195 L 0.276289 0.338945 L 0.272734 0.396211 L 0.261992 0.453477 L 0.272734 0.550117 L 0.272734 0.603789 L 0.294219 0.682539 L 0.301367 0.729062 L 0.308516 0.77918 L 0.319258 0.832852 L 0.315664 0.861484 L 0.312109 0.900859 L 0.304922 0.925898 L 0.294219 0.954531 L 0.741602 0.950977 L 0.727266 0.882969 L 0.698633 0.764844 L 0.680742 0.682539 L 0.67 0.62168 L 0.673594 0.560859 L 0.695078 0.482109 L 0.720117 0.428437 L 0.709375 0.371172 L 0.691484 0.217266 L 0.680742 0.102734 Z M 0.67 0.0454687 " transform="matrix(100,0,0,100,0,1100)"/>
<path style="fill:none;stroke-width:0.01;stroke-linecap:butt;stroke-linejoin:miter;stroke:rgb(0%,0%,0%);stroke-opacity:1;stroke-miterlimit:10;" d="M 0.624375 0.954531 L 0.375625 0.954531 L 0.371094 0.936445 L 0.38918 0.868594 L 0.380156 0.814336 L 0.393711 0.76457 L 0.398242 0.683164 L 0.393711 0.542969 L 0.402773 0.542969 L 0.407266 0.461562 L 0.402773 0.384648 L 0.420859 0.330391 L 0.461563 0.262539 L 0.506797 0.167578 L 0.529414 0.0816406 L 0.533906 0.0454687 L 0.5475 0.104258 L 0.561055 0.144961 L 0.570117 0.194727 L 0.579141 0.262539 L 0.579141 0.334922 L 0.606289 0.384648 L 0.615352 0.420859 L 0.61082 0.4525 L 0.606289 0.538438 L 0.606289 0.624375 L 0.624375 0.714844 L 0.628906 0.836953 L 0.628906 0.931914 Z M 0.624375 0.954531 " transform="matrix(100,0,0,100,150,1100)"/>
<path style="fill:none;stroke-width:0.01;stroke-linecap:butt;stroke-linejoin:miter;stroke:rgb(0%,0%,0%);stroke-opacity:1;stroke-miterlimit:10;" d="M 0.66082 0.0594531 L 0.33918 0.0454687 L 0.346172 0.150352 L 0.388125 0.353164 L 0.423086 0.479023 L 0.472031 0.667852 L 0.479023 0.75875 L 0.493008 0.849648 L 0.493008 0.898594 L 0.541953 0.954531 L 0.56293 0.814687 L 0.590898 0.653828 L 0.625859 0.5 L 0.632852 0.30418 L 0.646836 0.17832 Z M 0.66082 0.0594531 " transform="matrix(100,0,0,100,300,1100)"/>
<path style="fill:none;stroke-width:0.01;stroke-linecap:butt;stroke-linejoin:miter;stroke:rgb(0%,0%,0%);stroke-opacity:1;stroke-miterlimit:10;" d="M 0.515742 0.954531 L 0.358242 0.954531 L 0.367227 0.855547 L 0.367227 0.756523 L 0.349219 0.662031 L 0.340234 0.626016 L 0.344727 0.495508 L 0.367227 0.455 L 0.403242 0.365 L 0.439258 0.184961 L 0.46625 0.0454687 L 0.48875 0.135469 L 0.524766 0.274961 L 0.542773 0.310977 L 0.560742 0.301992 L 0.560742 0.229961 L 0.583242 0.234492 L 0.605742 0.234492 L 0.64625 0.229961 L 0.659766 0.333477 L 0.655273 0.4775 L 0.596758 0.675508 L 0.560742 0.806016 L 0.529258 0.923047 Z M 0.515742 0.954531 " transform="matrix(100,0,0,100,450,1100)"/>
<path style="fill:none;stroke-width:0.01;stroke-linecap:butt;stroke-linejoin:miter;stroke:rgb(0%,0%,0%);stroke-opacity:1;stroke-miterlimit:10;" d="M 0.673398 0.954531 L 0.326602 0.954531 L 0.387539 0.771797 L 0.434414 0.579648 L 0.471875 0.471875 L 0.504688 0.410977 L 0.532813 0.307891 L 0.598398 0.167305 L 0.626523 0.10168 L 0.668711 0.0454687 Z M 0.673398 0.954531 " transform="matrix(100,0,0,100,600,1100)"/>
<path style="fill:none;stroke-width:0.01;stroke-linecap:butt;stroke-linejoin:miter;stroke:rgb(0%,0%,0%);stroke-opacity:1;stroke-miterlimit:10;" d="M 0.551211 0.544805 L 0.538398 0.954531 L 0.448789 0.877734 L 0.5 0.7625 L 0.435977 0.634453 L 0.538398 0.506406 L 0.564023 0.0454687 L 0.474375 0.160703 L 0.512813 0.250312 Z M 0.551211 0.544805 " transform="matrix(100,0,0,100,0,1250)"/>
<path style="fill:none;stroke-width:0.01;stroke-linecap:butt;stroke-linejoin:miter;stroke:rgb(0%,0%,0%);stroke-opacity:1;stroke-miterlimit:10;" d="M 0.577734 0.954531 L 0.39832 0.954531 L 0.41625 0.894727 L 0.440195 0.828945 L 0.458125 0.799062 L 0.458125 0.727266 L 0.470078 0.607656 L 0.488047 0.446172 L 0.488047 0.332539 L 0.464102 0.230859 L 0.440195 0.147148 L 0.428242 0.0454687 L 0.470078 0.0933203 L 0.51793 0.230859 L 0.541875 0.338516 L 0.571758 0.392344 L 0.58375 0.458125 L 0.60168 0.559805 L 0.595703 0.661484 L 0.60168 0.781094 L 0.577734 0.87082 Z M 0.577734 0.954531 " transform="matrix(100,0,0,100,150,1250)"/>
<path style="fill:none;stroke-width:0.01;stroke-linecap:butt;stroke-linejoin:miter;stroke:rgb(0%,0%,0%);stroke-opacity:1;stroke-miterlimit:10;" d="M 0.556133 0.0561328 L 0.358281 0.0454687 L 0.35293 0.125664 L 0.374336 0.3075 L 0.411758 0.521406 L 0.422461 0.590898 L 0.459883 0.649727 L 0.513359 0.815508 L 0.534766 0.874336 L 0.566836 0.954531 L 0.582891 0.868984 L 0.593594 0.729961 L 0.625664 0.671133 L 0.64707 0.617656 L 0.64707 0.537422 L 0.641719 0.344922 L 0.641719 0.0561328 Z M 0.556133 0.0561328 " transform="matrix(100,0,0,100,300,1250)"/>
<path style="fill:none;stroke-width:0.01;stroke-linecap:butt;stroke-linejoin:miter;stroke:rgb(0%,0%,0%);stroke-opacity:1;stroke-miterlimit:10;" d="M 0.559063 0.0454687 L 0.498203 0.0454687 L 0.487461 0.120625 L 0.473164 0.192188 L 0.45168 0.260195 L 0.440938 0.324609 L 0.437383 0.392617 L 0.440938 0.449883 L 0.448086 0.54293 L 0.45168 0.650313 L 0.46957 0.746953 L 0.473164 0.822109 L 0.473164 0.893711 L 0.476719 0.954531 L 0.555469 0.947383 L 0.551914 0.682539 L 0.555469 0.449883 L 0.562617 0.238711 L 0.562617 0.131367 Z M 0.559063 0.0454687 " transform="matrix(100,0,0,100,450,1250)"/>
<path style="fill:none;stroke-width:0.01;stroke-linecap:butt;stroke-linejoin:miter;stroke:rgb(0%,0%,0%);stroke-opacity:1;stroke-miterlimit:10;" d="M 0.624609 0.0454687 L 0.31543 0.0454687 L 0.301563 0.10543 L 0.329258 0.16082 L 0.352344 0.202344 L 0.389258 0.216211 L 0.416953 0.28543 L 0.463086 0.368477 L 0.481523 0.446914 L 0.472305 0.497695 L 0.5 0.576133 L 0.518477 0.617656 L 0.513828 0.677656 L 0.546133 0.788398 L 0.596914 0.880703 L 0.629219 0.936094 L 0.633828 0.945312 L 0.670742 0.954531 L 0.698437 0.917617 L 0.68457 0.788398 L 0.647656 0.659219 L 0.629219 0.557695 L 0.638438 0.474609 L 0.629219 0.377695 L 0.587695 0.28543 L 0.596914 0.206953 L 0.601523 0.146992 L 0.629219 0.0823828 Z M 0.624609 0.0454687 " transform="matrix(100,0,0,100,600,1250)"/>
<path style="fill:none;stroke-width:0.01;stroke-linecap:butt;stroke-linejoin:miter;stroke:rgb(0%,0%,0%);stroke-opacity:1;stroke-miterlimit:10;" d="M 0.657813 0.0454687 L 0.342188 0.0517578 L 0.436875 0.297969 L 0.449492 0.436875 L 0.474766 0.676758 L 0.493672 0.803047 L 0.518945 0.954531 L 0.512617 0.91668 L 0.525234 0.758828 L 0.525234 0.556836 L 0.54418 0.436875 L 0.506328 0.386367 L 0.512617 0.316914 L 0.487383 0.253789 L 0.506328 0.196953 L 0.5 0.140156 L 0.537891 0.108594 L 0.588398 0.0833203 Z M 0.657813 0.0454687 " transform="matrix(100,0,0,100,0,1400)"/>
<path style="fill:none;stroke-width:0.01;stroke-linecap:butt;stroke-linejoin:miter;stroke:rgb(0%,0%,0%);stroke-opacity:1;stroke-miterlimit:10;" d="M 0.555469 0.0454687 L 0.423047 0.0454687 L 0.415898 0.0848438 L 0.440937 0.152812 L 0.46957 0.242305 L 0.505352 0.335352 L 0.519687 0.385469 L 0.526836 0.424844 L 0.494648 0.496406 L 0.455273 0.589492 L 0.440937 0.632422 L 0.444531 0.661055 L 0.433789 0.707578 L 0.423047 0.736211 L 0.440937 0.836445 L 0.455273 0.91875 L 0.466016 0.950977 L 0.544727 0.954531 L 0.544727 0.768438 L 0.584102 0.610938 L 0.576953 0.492852 L 0.569805 0.474961 L 0.559063 0.231563 L 0.526836 0.231563 L 0.526836 0.163555 L 0.53043 0.127773 L 0.559063 0.12418 Z M 0.555469 0.0454687 " transform="matrix(100,0,0,100,150,1400)"/>
<path style="fill:none;stroke-width:0.01;stroke-linecap:butt;stroke-linejoin:miter;stroke:rgb(0%,0%,0%);stroke-opacity:1;stroke-miterlimit:10;" d="M 0.646758 0.0454687 L 0.353242 0.0454687 L 0.37832 0.08125 L 0.406953 0.152812 L 0.449883 0.231563 L 0.489258 0.306719 L 0.510742 0.36043 L 0.550117 0.406953 L 0.610937 0.5 L 0.63957 0.564414 L 0.643164 0.643164 L 0.628828 0.732656 L 0.632422 0.893711 L 0.625273 0.954531 Z M 0.646758 0.0454687 " transform="matrix(100,0,0,100,300,1400)"/>
<path style="fill:none;stroke-width:0.01;stroke-linecap:butt;stroke-linejoin:miter;stroke:rgb(0%,0%,0%);stroke-opacity:1;stroke-miterlimit:10;" d="M 0.614531 0.954531 L 0.403359 0.950977 L 0.399805 0.915156 L 0.392617 0.904453 L 0.399805 0.886523 L 0.381875 0.861484 L 0.374727 0.79707 L 0.374727 0.754102 L 0.399805 0.746953 L 0.403359 0.714727 L 0.435586 0.671797 L 0.449883 0.618125 L 0.428438 0.560859 L 0.414102 0.528633 L 0.414102 0.507148 L 0.417695 0.478516 L 0.435586 0.435586 L 0.453477 0.37832 L 0.485703 0.29957 L 0.5 0.242305 L 0.496406 0.199375 L 0.517891 0.16 L 0.54293 0.142109 L 0.557266 0.0955469 L 0.57875 0.0526172 L 0.600195 0.0454687 L 0.593047 0.163555 L 0.600195 0.270938 L 0.607383 0.471367 L 0.625273 0.657461 L 0.618125 0.786328 L 0.614531 0.843594 Z M 0.614531 0.954531 " transform="matrix(100,0,0,100,450,1400)"/>
<path style="fill:none;stroke-width:0.01;stroke-linecap:butt;stroke-linejoin:miter;stroke:rgb(0%,0%,0%);stroke-opacity:1;stroke-miterlimit:10;" d="M 0.582305 0.0490234 L 0.410508 0.0454687 L 0.431992 0.145664 L 0.453477 0.235156 L 0.460625 0.313906 L 0.474961 0.367578 L 0.489258 0.446328 L 0.5 0.514297 L 0.514297 0.582305 L 0.528633 0.63957 L 0.54293 0.689687 L 0.557266 0.736211 L 0.553672 0.814961 L 0.557266 0.879375 L 0.575156 0.943789 L 0.571562 0.954531 L 0.589492 0.954531 Z M 0.582305 0.0490234 " transform="matrix(100,0,0,100,600,1400)"/>
<path style="fill:none;stroke-width:0.01;stroke-linecap:butt;stroke-linejoin:miter;stroke:rgb(0%,0%,0%);stroke-opacity:1;stroke-miterlimit:10;" d="M 0.729063 0.0454687 L 0.263789 0.0454687 L 0.321055 0.381875 L 0.356836 0.489258 L 0.399805 0.596641 L 0.449883 0.71832 L 0.478516 0.818555 L 0.492852 0.890117 L 0.5 0.925898 L 0.557266 0.954531 L 0.564414 0.904453 L 0.550117 0.890117 L 0.550117 0.868633 L 0.571562 0.861484 L 0.57875 0.732656 L 0.614531 0.704023 L 0.643164 0.696836 L 0.678945 0.446328 L 0.714727 0.238711 L 0.736211 0.117031 Z M 0.729063 0.0454687 " transform="matrix(100,0,0,100,0,1550)"/>
<path style="fill:none;stroke-width:0.01;stroke-linecap:butt;stroke-linejoin:miter;stroke:rgb(0%,0%,0%);stroke-opacity:1;stroke-miterlimit:10;" d="M 0.865625 0.954531 L 0.134375 0.954531 L 0.160742 0.868906 L 0.167344 0.789844 L 0.239805 0.585625 L 0.318828 0.414375 L 0.371523 0.28918 L 0.391289 0.196953 L 0.43082 0.111328 L 0.444023 0.0717969 L 0.470352 0.0454687 L 0.503281 0.0454687 L 0.53625 0.0586328 L 0.56918 0.0520313 L 0.602109 0.0652344 L 0.621875 0.0981641 L 0.687734 0.216719 L 0.753633 0.401172 L 0.786563 0.519766 L 0.727266 0.539531 L 0.733867 0.585625 L 0.786563 0.638359 L 0.799727 0.651523 L 0.832656 0.783281 L 0.859023 0.868906 Z M 0.865625 0.954531 " transform="matrix(100,0,0,100,150,1550)"/>
<path style="fill:none;stroke-width:0.01;stroke-linecap:butt;stroke-linejoin:miter;stroke:rgb(0%,0%,0%);stroke-opacity:1;stroke-miterlimit:10;" d="M 0.629375 0.0454687 L 0.377617 0.0454687 L 0.370625 0.353164 L 0.391602 0.444063 L 0.41957 0.486016 L 0.468516 0.576914 L 0.510508 0.674844 L 0.566445 0.835664 L 0.587422 0.954531 L 0.594414 0.786719 L 0.594414 0.527969 L 0.587422 0.325156 L 0.594414 0.171328 L 0.629375 0.0664453 Z M 0.629375 0.0454687 " transform="matrix(100,0,0,100,300,1550)"/>
<path style="fill:none;stroke-width:0.01;stroke-linecap:butt;stroke-linejoin:miter;stroke:rgb(0%,0%,0%);stroke-opacity:1;stroke-miterlimit:10;" d="M 0.578867 0.954531 L 0.472188 0.954531 L 0.476797 0.847852 L 0.462891 0.773672 L 0.421133 0.680898 L 0.439687 0.0454687 L 0.509258 0.161406 L 0.560313 0.328398 L 0.56957 0.370117 L 0.574219 0.509258 L 0.578867 0.694805 L 0.574219 0.810742 L 0.574219 0.898906 Z M 0.578867 0.954531 " transform="matrix(100,0,0,100,450,1550)"/>
<path style="fill:none;stroke-width:0.01;stroke-linecap:butt;stroke-linejoin:miter;stroke:rgb(0%,0%,0%);stroke-opacity:1;stroke-miterlimit:10;" d="M 0.613633 0.954531 L 0.446953 0.949492 L 0.411602 0.474766 L 0.406562 0.459609 L 0.381328 0.439375 L 0.386367 0.398984 L 0.371211 0.338398 L 0.386367 0.247461 L 0.361094 0.161602 L 0.371211 0.0454687 L 0.391406 0.106055 L 0.421719 0.181836 L 0.441914 0.222227 L 0.45707 0.272734 L 0.507578 0.404023 L 0.527773 0.545469 L 0.558086 0.611094 L 0.593438 0.737383 L 0.603555 0.777773 L 0.603555 0.813125 L 0.62375 0.888906 L 0.638906 0.944453 Z M 0.613633 0.954531 " transform="matrix(100,0,0,100,600,1550)"/>
<path style="fill:none;stroke-width:0.01;stroke-linecap:butt;stroke-linejoin:miter;stroke:rgb(0%,0%,0%);stroke-opacity:1;stroke-miterlimit:10;" d="M 0.537578 0.954531 L 0.412305 0.950977 L 0.401562 0.886523 L 0.394414 0.84 L 0.376523 0.746953 L 0.362187 0.693281 L 0.344297 0.661055 L 0.333555 0.589492 L 0.322852 0.539375 L 0.287031 0.449883 L 0.244102 0.342539 L 0.233359 0.313906 L 0.236953 0.295977 L 0.236953 0.206523 L 0.269141 0.199375 L 0.279883 0.177891 L 0.265586 0.156406 L 0.25125 0.117031 L 0.269141 0.0562109 L 0.276289 0.0454688 L 0.691484 0.0454688 L 0.702227 0.0776563 L 0.705781 0.106289 L 0.695078 0.16 L 0.755898 0.199375 L 0.766641 0.224414 L 0.763047 0.29957 L 0.741602 0.389063 L 0.723711 0.410508 L 0.705781 0.431992 L 0.677148 0.424844 L 0.659258 0.474961 L 0.641367 0.517891 L 0.641367 0.568008 L 0.630625 0.625273 L 0.60918 0.682539 L 0.594844 0.743359 L 0.587695 0.811367 L 0.562617 0.850742 L 0.541172 0.890117 L 0.537578 0.933086 Z M 0.537578 0.954531 " transform="matrix(100,0,0,100,0,1700)"/>
<path style="fill:none;stroke-width:0.01;stroke-linecap:butt;stroke-linejoin:miter;stroke:rgb(0%,0%,0%);stroke-opacity:1;stroke-miterlimit:10;" d="M 0.843594 0.954531 L 0.167148 0.954531 L 0.167148 0.793477 L 0.156406 0.739805 L 0.192187 0.618125 L 0.206523 0.439141 L 0.192187 0.328203 L 0.181445 0.228008 L 0.188633 0.12418 L 0.195781 0.0454688 L 0.843594 0.0454688 Z M 0.843594 0.954531 " transform="matrix(100,0,0,100,150,1700)"/>
<path style="fill:none;stroke-width:0.01;stroke-linecap:butt;stroke-linejoin:miter;stroke:rgb(0%,0%,0%);stroke-opacity:1;stroke-miterlimit:10;" d="M 0.502695 0.0616016 L 0.249883 0.0454688 L 0.244492 0.11 L 0.292891 0.206836 L 0.362812 0.368203 L 0.438125 0.491914 L 0.47043 0.551094 L 0.502695 0.594141 L 0.508086 0.642539 L 0.508086 0.712461 L 0.534961 0.750117 L 0.561875 0.793164 L 0.631797 0.89 L 0.685586 0.94918 L 0.739375 0.954531 L 0.755508 0.868477 L 0.733984 0.669453 L 0.712461 0.513438 L 0.690977 0.400469 L 0.685586 0.287539 L 0.696328 0.206836 L 0.696328 0.0884766 L 0.707109 0.0562109 Z M 0.502695 0.0616016 " transform="matrix(100,0,0,100,300,1700)"/>
<path style="fill:none;stroke-width:0.01;stroke-linecap:butt;stroke-linejoin:miter;stroke:rgb(0%,0%,0%);stroke-opacity:1;stroke-miterlimit:10;" d="M 0.650938 0.0525391 L 0.253203 0.0525391 L 0.256758 0.123594 L 0.246094 0.219453 L 0.246094 0.421875 L 0.260313 0.443164 L 0.242539 0.496445 L 0.249648 0.542617 L 0.238984 0.595898 L 0.246094 0.649141 L 0.263867 0.681094 L 0.281602 0.798281 L 0.292266 0.833789 L 0.299375 0.883516 L 0.299375 0.954531 L 0.654492 0.954531 L 0.665117 0.908398 L 0.675781 0.798281 L 0.693555 0.720156 L 0.718398 0.666914 L 0.739688 0.617188 L 0.757461 0.57457 L 0.761016 0.535508 L 0.750352 0.496445 L 0.714844 0.372148 L 0.721953 0.0454688 Z M 0.650938 0.0525391 " transform="matrix(100,0,0,100,450,1700)"/>
<path style="fill:none;stroke-width:0.01;stroke-linecap:butt;stroke-linejoin:miter;stroke:rgb(0%,0%,0%);stroke-opacity:1;stroke-miterlimit:10;" d="M 0.674414 0.0666016 L 0.325586 0.0454688 L 0.357305 0.151172 L 0.357305 0.246289 L 0.389023 0.394297 L 0.441875 0.510586 L 0.473555 0.573984 L 0.494727 0.732539 L 0.536992 0.869961 L 0.558125 0.954531 L 0.632148 0.891133 L 0.653281 0.721992 L 0.653281 0.5 L 0.663867 0.320312 L 0.674414 0.161719 Z M 0.674414 0.0666016 " transform="matrix(100,0,0,100,600,1700)"/>
<path style="fill:none;stroke-width:0.01;stroke-linecap:butt;stroke-linejoin:miter;stroke:rgb(0%,0%,0%);stroke-opacity:1;stroke-miterlimit:10;" d="M 0.688008 0.954531 L 0.311992 0.954531 L 0.350078 0.811758 L 0.359609 0.702266 L 0.402422 0.569023 L 0.421484 0.492852 L 0.426211 0.383398 L 0.440508 0.307227 L 0.483359 0.207266 L 0.507148 0.140664 L 0.535703 0.116836 L 0.554727 0.0644922 L 0.564258 0.0454688 L 0.573789 0.164453 L 0.592812 0.340547 L 0.616602 0.530938 L 0.630898 0.569023 L 0.640391 0.630898 L 0.664219 0.773672 L 0.683242 0.873633 Z M 0.688008 0.954531 " transform="matrix(100,0,0,100,0,1850)"/>
<path style="fill:none;stroke-width:0.01;stroke-linecap:butt;stroke-linejoin:miter;stroke:rgb(0%,0%,0%);stroke-opacity:1;stroke-miterlimit:10;" d="M 0.46625 0.954531 L 0.292266 0.954531 L 0.320664 0.933242 L 0.327773 0.919023 L 0.324219 0.901289 L 0.349063 0.837344 L 0.3775 0.801836 L 0.409453 0.784102 L 0.420117 0.752148 L 0.434297 0.713086 L 0.413008 0.677539 L 0.395234 0.613633 L 0.416562 0.560352 L 0.434297 0.560352 L 0.448516 0.539062 L 0.505313 0.514219 L 0.505313 0.5 L 0.523086 0.446719 L 0.526641 0.428984 L 0.508867 0.379258 L 0.505313 0.340195 L 0.498242 0.304688 L 0.505313 0.272734 L 0.530195 0.244336 L 0.526641 0.212344 L 0.491133 0.183945 L 0.523086 0.151992 L 0.487578 0.0951562 L 0.484023 0.0454688 L 0.583438 0.0525391 L 0.594102 0.0809766 L 0.594102 0.155547 L 0.629609 0.201719 L 0.654492 0.258516 L 0.668672 0.318906 L 0.707734 0.357969 L 0.700625 0.407656 L 0.69707 0.471602 L 0.69 0.617188 L 0.69 0.741484 L 0.700625 0.844453 L 0.69707 0.954531 Z M 0.46625 0.954531 " transform="matrix(100,0,0,100,150,1850)"/>
<path style="fill:none;stroke-width:0.01;stroke-linecap:butt;stroke-linejoin:miter;stroke:rgb(0%,0%,0%);stroke-opacity:1;stroke-miterlimit:10;" d="M 0.900547 0.144453 L 0.0454687 0.144453 L 0.261484 0.351484 L 0.3875 0.4775 L 0.594492 0.639531 L 0.720508 0.810547 L 0.765508 0.855547 L 0.828516 0.702539 L 0.891523 0.468516 L 0.918555 0.288477 L 0.954531 0.144453 Z M 0.900547 0.144453 " transform="matrix(100,0,0,100,300,1850)"/>
<path style="fill:none;stroke-width:0.01;stroke-linecap:butt;stroke-linejoin:miter;stroke:rgb(0%,0%,0%);stroke-opacity:1;stroke-miterlimit:10;" d="M 0.796445 0.954531 L 0.203555 0.954531 L 0.322148 0.717383 L 0.618594 0.262852 L 0.796445 0.0454688 Z M 0.796445 0.954531 " transform="matrix(100,0,0,100,450,1850)"/>
<path style="fill:none;stroke-width:0.01;stroke-linecap:butt;stroke-linejoin:miter;stroke:rgb(0%,0%,0%);stroke-opacity:1;stroke-miterlimit:10;" d="M 0.701289 0.0584375 L 0.298711 0.0454688 L 0.298711 0.123359 L 0.285703 0.240273 L 0.337656 0.435078 L 0.363633 0.655859 L 0.389609 0.837656 L 0.389609 0.954531 L 0.467539 0.941562 L 0.480508 0.850664 L 0.441562 0.746758 L 0.519492 0.707773 L 0.519492 0.616875 L 0.597422 0.538945 L 0.597422 0.435078 L 0.675313 0.357148 L 0.68832 0.279219 L 0.701289 0.253242 L 0.714297 0.162344 Z M 0.701289 0.0584375 " transform="matrix(100,0,0,100,600,1850)"/>
<path style="fill:none;stroke-width:0.01;stroke-linecap:butt;stroke-linejoin:miter;stroke:rgb(0%,0%,0%);stroke-opacity:1;stroke-miterlimit:10;" d="M 0.574883 0.954531 L 0.318164 0.954531 L 0.33957 0.890391 L 0.40375 0.762031 L 0.446523 0.623008 L 0.478594 0.548125 L 0.510703 0.473281 L 0.56418 0.291445 L 0.585547 0.195195 L 0.617656 0.109609 L 0.639023 0.0454688 L 0.681836 0.0989453 L 0.639023 0.248672 L 0.628359 0.430469 L 0.628359 0.601602 L 0.617656 0.751328 L 0.585547 0.879687 Z M 0.574883 0.954531 " transform="matrix(100,0,0,100,0,2000)"/>
<path style="fill:none;stroke-width:0.01;stroke-linecap:butt;stroke-linejoin:miter;stroke:rgb(0%,0%,0%);stroke-opacity:1;stroke-miterlimit:10;" d="M 0.503945 0.0454688 L 0.401172 0.0454688 L 0.416992 0.156133 L 0.440703 0.266797 L 0.480234 0.440703 L 0.496055 0.527656 L 0.480234 0.654141 L 0.480234 0.796445 L 0.496055 0.954531 L 0.535586 0.859687 L 0.527656 0.669961 L 0.543477 0.535586 L 0.575117 0.385391 L 0.590898 0.164023 L 0.598828 0.0533594 L 0.598828 0.0454688 Z M 0.503945 0.0454688 " transform="matrix(100,0,0,100,150,2000)"/>
<path style="fill:none;stroke-width:0.01;stroke-linecap:butt;stroke-linejoin:miter;stroke:rgb(0%,0%,0%);stroke-opacity:1;stroke-miterlimit:10;" d="M 0.476914 0.954531 L 0.413008 0.950977 L 0.413008 0.89418 L 0.427188 0.869336 L 0.427188 0.716602 L 0.444961 0.627852 L 0.462695 0.542617 L 0.484023 0.492891 L 0.491133 0.471602 L 0.491133 0.457383 L 0.501758 0.421875 L 0.505313 0.386367 L 0.498242 0.336641 L 0.512422 0.258516 L 0.523086 0.198164 L 0.530195 0.123594 L 0.53375 0.0454688 L 0.586992 0.0525391 L 0.576367 0.0916016 L 0.565703 0.162656 L 0.54793 0.286914 L 0.53375 0.354414 L 0.523086 0.428984 L 0.508867 0.524844 L 0.501758 0.638477 L 0.501758 0.688203 L 0.484023 0.745039 L 0.473359 0.798281 L 0.476914 0.869336 L 0.487578 0.922578 Z M 0.476914 0.954531 " transform="matrix(100,0,0,100,300,2000)"/>
<path style="fill:none;stroke-width:0.01;stroke-linecap:butt;stroke-linejoin:miter;stroke:rgb(0%,0%,0%);stroke-opacity:1;stroke-miterlimit:10;" d="M 0.616328 0.0454688 L 0.505352 0.0454688 L 0.46957 0.224414 L 0.455273 0.331797 L 0.437383 0.431992 L 0.423047 0.564414 L 0.412305 0.63957 L 0.415898 0.678945 L 0.405156 0.732656 L 0.39082 0.775586 L 0.383672 0.811367 L 0.39082 0.865078 L 0.398008 0.908008 L 0.401562 0.933086 L 0.39082 0.954531 L 0.419453 0.954531 L 0.440938 0.911602 L 0.455273 0.857891 L 0.462422 0.804219 L 0.466016 0.707578 L 0.483906 0.661055 L 0.491055 0.610938 L 0.508945 0.568008 L 0.526836 0.528633 L 0.541172 0.439141 L 0.54832 0.381875 L 0.566211 0.331797 L 0.584102 0.213672 L 0.601992 0.12418 L 0.60918 0.0848438 Z M 0.616328 0.0454688 " transform="matrix(100,0,0,100,450,2000)"/>
<path style="fill:none;stroke-width:0.01;stroke-linecap:butt;stroke-linejoin:miter;stroke:rgb(0%,0%,0%);stroke-opacity:1;stroke-miterlimit:10;" d="M 0.487578 0.954531 L 0.437852 0.954531 L 0.448516 0.858672 L 0.45918 0.784102 L 0.448516 0.73793 L 0.448516 0.702422 L 0.469805 0.642031 L 0.484023 0.528398 L 0.487578 0.439648 L 0.491133 0.283398 L 0.498242 0.215898 L 0.505313 0.180391 L 0.498242 0.130664 L 0.473359 0.0703125 L 0.473359 0.0454688 L 0.555039 0.0525391 L 0.54793 0.0845313 L 0.555039 0.1875 L 0.562148 0.34375 L 0.558594 0.482227 L 0.544375 0.642031 L 0.544375 0.897734 L 0.505313 0.901289 L 0.484023 0.936797 Z M 0.487578 0.954531 " transform="matrix(100,0,0,100,600,2000)"/>
<path style="fill:none;stroke-width:0.01;stroke-linecap:butt;stroke-linejoin:miter;stroke:rgb(0%,0%,0%);stroke-opacity:1;stroke-miterlimit:10;" d="M 0.568164 0.954531 L 0.399336 0.954531 L 0.431836 0.740273 L 0.457773 0.590898 L 0.470781 0.551953 L 0.496758 0.506484 L 0.509727 0.448047 L 0.542227 0.357148 L 0.56168 0.26625 L 0.574688 0.155859 L 0.587656 0.0908984 L 0.600664 0.0454688 L 0.600664 0.201289 Z M 0.568164 0.954531 " transform="matrix(100,0,0,100,0,2150)"/>
<path style="fill:none;stroke-width:0.01;stroke-linecap:butt;stroke-linejoin:miter;stroke:rgb(0%,0%,0%);stroke-opacity:1;stroke-miterlimit:10;" d="M 0.564297 0.954531 L 0.408164 0.954531 L 0.435703 0.789258 L 0.444922 0.541328 L 0.5 0.366836 L 0.518359 0.229102 L 0.527539 0.100547 L 0.564297 0.0546484 L 0.564297 0.0454688 L 0.591836 0.164844 L 0.582656 0.495391 L 0.573477 0.770898 Z M 0.564297 0.954531 " transform="matrix(100,0,0,100,150,2150)"/>
<path style="fill:none;stroke-width:0.01;stroke-linecap:butt;stroke-linejoin:miter;stroke:rgb(0%,0%,0%);stroke-opacity:1;stroke-miterlimit:10;" d="M 0.561797 0.28375 L 0.552969 0.47793 L 0.526484 0.645625 L 0.535312 0.760352 L 0.526484 0.875117 L 0.526484 0.928086 L 0.482344 0.954531 L 0.473516 0.742734 L 0.438203 0.530898 L 0.438203 0.416133 L 0.491172 0.239648 L 0.526484 0.107227 L 0.544141 0.0719141 L 0.561797 0.0454688 L 0.552969 0.177852 Z M 0.561797 0.28375 " transform="matrix(100,0,0,100,300,2150)"/>
<path style="fill:none;stroke-width:0.01;stroke-linecap:butt;stroke-linejoin:miter;stroke:rgb(0%,0%,0%);stroke-opacity:1;stroke-miterlimit:10;" d="M 0.76293 0.954531 L 0.219258 0.954531 L 0.281641 0.847578 L 0.370781 0.66043 L 0.406406 0.562383 L 0.459883 0.446523 L 0.531211 0.33957 L 0.575742 0.25043 L 0.6025 0.188047 L 0.611406 0.0989453 L 0.638164 0.054375 L 0.664883 0.0454688 L 0.709453 0.0632812 L 0.709453 0.13457 L 0.718359 0.214805 L 0.700547 0.286094 L 0.727266 0.410859 L 0.745117 0.491094 L 0.736172 0.553477 L 0.718359 0.615859 L 0.745117 0.713906 L 0.780742 0.74957 L 0.780742 0.803047 Z M 0.76293 0.954531 " transform="matrix(100,0,0,100,450,2150)"/>
<path style="fill:none;stroke-width:0.01;stroke-linecap:butt;stroke-linejoin:miter;stroke:rgb(0%,0%,0%);stroke-opacity:1;stroke-miterlimit:10;" d="M 0.587266 0.0454688 L 0.26 0.0454688 L 0.281836 0.14 L 0.296367 0.198164 L 0.318164 0.249102 L 0.332734 0.292734 L 0.34 0.358164 L 0.369102 0.394531 L 0.376367 0.452734 L 0.376367 0.489102 L 0.405469 0.518164 L 0.405469 0.547266 L 0.42 0.583633 L 0.434531 0.612734 L 0.441836 0.627266 L 0.456367 0.663633 L 0.478164 0.641836 L 0.521836 0.692734 L 0.558164 0.758164 L 0.572734 0.838164 L 0.616367 0.881836 L 0.681836 0.910898 L 0.74 0.954531 L 0.725469 0.809102 L 0.674531 0.532734 L 0.638164 0.314531 L 0.609102 0.176367 Z M 0.587266 0.0454688 " transform="matrix(100,0,0,100,600,2150)"/>
<path style="fill:none;stroke-width:0.01;stroke-linecap:butt;stroke-linejoin:miter;stroke:rgb(0%,0%,0%);stroke-opacity:1;stroke-miterlimit:10;" d="M 0.561641 0.954531 L 0.443516 0.949414 L 0.438359 0.887773 L 0.453789 0.800469 L 0.443516 0.759375 L 0.474336 0.569336 L 0.474336 0.502578 L 0.46918 0.456328 L 0.494883 0.117344 L 0.489727 0.0454688 L 0.53082 0.158438 L 0.546211 0.173867 L 0.551367 0.405 L 0.561641 0.656641 L 0.561641 0.862109 Z M 0.561641 0.954531 " transform="matrix(100,0,0,100,0,2300)"/>
<path style="fill:none;stroke-width:0.01;stroke-linecap:butt;stroke-linejoin:miter;stroke:rgb(0%,0%,0%);stroke-opacity:1;stroke-miterlimit:10;" d="M 0.62168 0.0454688 L 0.381875 0.0454688 L 0.37832 0.954531 L 0.575156 0.954531 L 0.585898 0.818555 L 0.596641 0.575156 L 0.607383 0.363984 L 0.610937 0.199375 Z M 0.62168 0.0454688 " transform="matrix(100,0,0,100,150,2300)"/>
<path style="fill:none;stroke-width:0.01;stroke-linecap:butt;stroke-linejoin:miter;stroke:rgb(0%,0%,0%);stroke-opacity:1;stroke-miterlimit:10;" d="M 0.603906 0.0541016 L 0.383125 0.0454688 L 0.426406 0.257578 L 0.439375 0.383125 L 0.42207 0.443711 L 0.409102 0.487031 L 0.417734 0.582266 L 0.413438 0.660156 L 0.40043 0.660156 L 0.413438 0.716445 L 0.430742 0.772734 L 0.435078 0.850664 L 0.42207 0.906914 L 0.430742 0.950234 L 0.452383 0.945898 L 0.478359 0.954531 L 0.508672 0.950234 L 0.525977 0.841992 L 0.538945 0.746758 L 0.560625 0.699141 L 0.573594 0.586562 L 0.582266 0.448047 L 0.608242 0.309531 L 0.616875 0.274883 L 0.582266 0.196953 L 0.59957 0.149336 L 0.616875 0.0930859 Z M 0.603906 0.0541016 " transform="matrix(100,0,0,100,300,2300)"/>
<path style="fill:none;stroke-width:0.01;stroke-linecap:butt;stroke-linejoin:miter;stroke:rgb(0%,0%,0%);stroke-opacity:1;stroke-miterlimit:10;" d="M 0.482109 0.0454688 L 0.439141 0.0454688 L 0.446328 0.113477 L 0.453477 0.174297 L 0.464219 0.256641 L 0.471367 0.306719 L 0.474961 0.37832 L 0.467773 0.439141 L 0.471367 0.528633 L 0.467773 0.596641 L 0.471367 0.682539 L 0.474961 0.736211 L 0.485703 0.79707 L 0.492852 0.829258 L 0.521484 0.87582 L 0.535781 0.933086 L 0.532227 0.954531 L 0.560859 0.954531 L 0.54293 0.84 L 0.525039 0.664648 L 0.521484 0.535781 L 0.535781 0.431992 L 0.521484 0.328203 L 0.507148 0.206523 L 0.492852 0.127773 Z M 0.482109 0.0454688 " transform="matrix(100,0,0,100,450,2300)"/>
<path style="fill:none;stroke-width:0.01;stroke-linecap:butt;stroke-linejoin:miter;stroke:rgb(0%,0%,0%);stroke-opacity:1;stroke-miterlimit:10;" d="M 0.582305 0.954531 L 0.424844 0.954531 L 0.424844 0.861484 L 0.417695 0.754102 L 0.424844 0.689688 L 0.446328 0.596641 L 0.453477 0.460625 L 0.439141 0.389063 L 0.460625 0.310313 L 0.496406 0.181445 L 0.510742 0.0454688 L 0.525039 0.12418 L 0.553672 0.403359 L 0.568008 0.661055 Z M 0.582305 0.954531 " transform="matrix(100,0,0,100,600,2300)"/>
<path style="fill:none;stroke-width:0.01;stroke-linecap:butt;stroke-linejoin:miter;stroke:rgb(0%,0%,0%);stroke-opacity:1;stroke-miterlimit:10;" d="M 0.820859 0.0454688 L 0.116758 0.0632812 L 0.179141 0.312852 L 0.259375 0.491094 L 0.366328 0.687148 L 0.428711 0.856523 L 0.473281 0.954531 L 0.491094 0.687148 L 0.571289 0.829766 L 0.615859 0.883242 L 0.705 0.847578 L 0.740625 0.811953 L 0.74957 0.820859 L 0.776289 0.526719 L 0.811953 0.259375 L 0.847578 0.161328 L 0.883242 0.0632812 Z M 0.820859 0.0454688 " transform="matrix(100,0,0,100,0,2450)"/>
<path style="fill:none;stroke-width:0.01;stroke-linecap:butt;stroke-linejoin:miter;stroke:rgb(0%,0%,0%);stroke-opacity:1;stroke-miterlimit:10;" d="M 0.940781 0.954531 L 0.0592188 0.954531 L 0.114336 0.844336 L 0.231406 0.672187 L 0.25207 0.589531 L 0.320938 0.417344 L 0.410469 0.128086 L 0.506875 0.0454688 L 0.582656 0.14875 L 0.672188 0.231406 L 0.754805 0.314063 L 0.816797 0.458672 L 0.865 0.60332 L 0.933867 0.789258 Z M 0.940781 0.954531 " transform="matrix(100,0,0,100,150,2450)"/>
<path style="fill:none;stroke-width:0.01;stroke-linecap:butt;stroke-linejoin:miter;stroke:rgb(0%,0%,0%);stroke-opacity:1;stroke-miterlimit:10;" d="M 0.593398 0.0454688 L 0.423203 0.0454688 L 0.423203 0.140937 L 0.402461 0.27375 L 0.394141 0.369258 L 0.39 0.49793 L 0.394141 0.614141 L 0.406602 0.854922 L 0.406602 0.954531 L 0.435664 0.896445 L 0.506211 0.742852 L 0.576797 0.651523 L 0.605859 0.585078 L 0.597539 0.50207 L 0.597539 0.427344 L 0.61 0.377539 L 0.601719 0.298672 L 0.597539 0.149219 Z M 0.593398 0.0454688 " transform="matrix(100,0,0,100,300,2450)"/>
<path style="fill:none;stroke-width:0.01;stroke-linecap:butt;stroke-linejoin:miter;stroke:rgb(0%,0%,0%);stroke-opacity:1;stroke-miterlimit:10;" d="M 0.742188 0.954531 L 0.272734 0.954531 L 0.257812 0.850234 L 0.257812 0.753359 L 0.272734 0.69375 L 0.354687 0.529805 L 0.429219 0.343516 L 0.466484 0.276445 L 0.56332 0.164687 L 0.615508 0.0454688 L 0.645313 0.149766 L 0.69 0.254102 L 0.712383 0.321172 L 0.734727 0.37332 L 0.742188 0.403125 Z M 0.742188 0.954531 " transform="matrix(100,0,0,100,450,2450)"/>
<path style="fill:none;stroke-width:0.01;stroke-linecap:butt;stroke-linejoin:miter;stroke:rgb(0%,0%,0%);stroke-opacity:1;stroke-miterlimit:10;" d="M 0.775352 0.954531 L 0.224648 0.954531 L 0.364492 0.762227 L 0.495625 0.534961 L 0.556836 0.386367 L 0.644219 0.229023 L 0.69668 0.0978906 L 0.740391 0.0454688 L 0.775352 0.115391 Z M 0.775352 0.954531 " transform="matrix(100,0,0,100,600,2450)"/>
<path style="fill:none;stroke-width:0.01;stroke-linecap:butt;stroke-linejoin:miter;stroke:rgb(0%,0%,0%);stroke-opacity:1;stroke-miterlimit:10;" d="M 0.575078 0.0535547 L 0.457383 0.0454688 L 0.449258 0.150977 L 0.437109 0.240273 L 0.428984 0.29707 L 0.420859 0.329531 L 0.412734 0.345781 L 0.416797 0.37418 L 0.400586 0.435078 L 0.404609 0.528398 L 0.416797 0.593359 L 0.46957 0.747578 L 0.526367 0.893672 L 0.562891 0.954531 L 0.566953 0.954531 L 0.579141 0.93832 L 0.579141 0.905859 L 0.599414 0.836836 L 0.583203 0.633945 L 0.583203 0.581172 L 0.571016 0.581172 L 0.558828 0.463477 L 0.571016 0.447227 L 0.571016 0.431016 L 0.583203 0.418828 L 0.587266 0.288945 L 0.575078 0.122578 Z M 0.575078 0.0535547 " transform="matrix(100,0,0,100,0,2600)"/>
<path style="fill:none;stroke-width:0.01;stroke-linecap:butt;stroke-linejoin:miter;stroke:rgb(0%,0%,0%);stroke-opacity:1;stroke-miterlimit:10;" d="M 0.524062 0.954531 L 0.451836 0.954531 L 0.457852 0.912383 L 0.475938 0.858203 L 0.487969 0.791992 L 0.481953 0.695664 L 0.481953 0.587305 L 0.506016 0.503008 L 0.512031 0.400664 L 0.493984 0.292305 L 0.506016 0.165859 L 0.536133 0.0454688 L 0.536133 0.0996484 L 0.530117 0.183906 L 0.548164 0.208008 L 0.506016 0.214023 L 0.5 0.244141 L 0.548164 0.256172 L 0.548164 0.40668 L 0.530117 0.484961 L 0.542148 0.587305 L 0.542148 0.659531 L 0.530117 0.773945 L 0.530117 0.846172 L 0.536133 0.918437 Z M 0.524062 0.954531 " transform="matrix(100,0,0,100,150,2600)"/>
<path style="fill:none;stroke-width:0.01;stroke-linecap:butt;stroke-linejoin:miter;stroke:rgb(0%,0%,0%);stroke-opacity:1;stroke-miterlimit:10;" d="M 0.605586 0.954531 L 0.337148 0.954531 L 0.358633 0.900859 L 0.380117 0.872227 L 0.380117 0.84 L 0.369375 0.793477 L 0.380117 0.764844 L 0.394414 0.736211 L 0.387266 0.707578 L 0.430195 0.657461 L 0.426641 0.607383 L 0.433789 0.546523 L 0.444531 0.517891 L 0.466016 0.478516 L 0.458828 0.453477 L 0.46957 0.435586 L 0.491055 0.414102 L 0.480313 0.374727 L 0.476719 0.353242 L 0.491055 0.335352 L 0.508945 0.310313 L 0.519687 0.28168 L 0.519687 0.238711 L 0.516094 0.199375 L 0.526836 0.170742 L 0.519687 0.145664 L 0.537578 0.0776563 L 0.533984 0.0454688 L 0.662852 0.0454688 L 0.648516 0.346094 L 0.641367 0.482109 L 0.634219 0.603789 L 0.623477 0.704023 L 0.619883 0.789922 L 0.619883 0.857891 L 0.612734 0.915156 Z M 0.605586 0.954531 " transform="matrix(100,0,0,100,300,2600)"/>
<path style="fill:none;stroke-width:0.01;stroke-linecap:butt;stroke-linejoin:miter;stroke:rgb(0%,0%,0%);stroke-opacity:1;stroke-miterlimit:10;" d="M 0.568008 0.954531 L 0.399805 0.954531 L 0.399805 0.882969 L 0.381875 0.836445 L 0.371172 0.825703 L 0.381875 0.771992 L 0.374727 0.653906 L 0.371172 0.607383 L 0.346094 0.510742 L 0.36043 0.439141 L 0.374727 0.374727 L 0.381875 0.324609 L 0.424844 0.231562 L 0.439141 0.142109 L 0.417695 0.12418 L 0.410508 0.117031 L 0.442734 0.0705078 L 0.431992 0.0454688 L 0.653906 0.0454688 L 0.63957 0.120625 L 0.618125 0.206523 L 0.600195 0.274531 L 0.582305 0.417695 L 0.575156 0.514297 L 0.564414 0.600195 L 0.568008 0.693281 L 0.568008 0.789922 L 0.571562 0.890117 Z M 0.568008 0.954531 " transform="matrix(100,0,0,100,450,2600)"/>
<path style="fill:none;stroke-width:0.01;stroke-linecap:butt;stroke-linejoin:miter;stroke:rgb(0%,0%,0%);stroke-opacity:1;stroke-miterlimit:10;" d="M 0.551328 0.954531 L 0.441367 0.954531 L 0.448672 0.895898 L 0.478008 0.734609 L 0.5 0.639297 L 0.492656 0.492656 L 0.492656 0.346055 L 0.5 0.243398 L 0.492656 0.170078 L 0.529336 0.0967578 L 0.536641 0.0454688 L 0.551328 0.324063 L 0.551328 0.763945 L 0.558633 0.888555 Z M 0.551328 0.954531 " transform="matrix(100,0,0,100,600,2600)"/>
<path style="fill:none;stroke-width:0.01;stroke-linecap:butt;stroke-linejoin:miter;stroke:rgb(0%,0%,0%);stroke-opacity:1;stroke-miterlimit:10;" d="M 0.686445 0.954531 L 0.317109 0.954531 L 0.324219 0.936797 L 0.31 0.922578 L 0.331328 0.911914 L 0.324219 0.88707 L 0.327773 0.858672 L 0.341992 0.837344 L 0.352617 0.808945 L 0.352617 0.773438 L 0.38457 0.734375 L 0.3775 0.713086 L 0.38457 0.691758 L 0.39168 0.681094 L 0.413008 0.659805 L 0.409453 0.634961 L 0.427187 0.606523 L 0.45207 0.563906 L 0.462695 0.521289 L 0.455625 0.503555 L 0.469805 0.482227 L 0.476914 0.464492 L 0.469805 0.457383 L 0.491133 0.428984 L 0.491133 0.421875 L 0.476914 0.414766 L 0.498242 0.393477 L 0.487578 0.379258 L 0.512422 0.34375 L 0.523086 0.304688 L 0.530195 0.26207 L 0.519531 0.265625 L 0.537305 0.215898 L 0.558594 0.183945 L 0.565703 0.11293 L 0.565703 0.0596484 L 0.569258 0.0454688 L 0.672227 0.0525391 L 0.675781 0.347305 L 0.675781 0.571016 L 0.679336 0.727266 L 0.69 0.883516 Z M 0.686445 0.954531 " transform="matrix(100,0,0,100,0,2750)"/>
<path style="fill:none;stroke-width:0.01;stroke-linecap:butt;stroke-linejoin:miter;stroke:rgb(0%,0%,0%);stroke-opacity:1;stroke-miterlimit:10;" d="M 0.598438 0.0454688 L 0.40875 0.0454688 L 0.40875 0.0705078 L 0.405156 0.0919922 L 0.40875 0.131367 L 0.415898 0.149258 L 0.415898 0.181445 L 0.40875 0.213672 L 0.412305 0.238711 L 0.415898 0.288828 L 0.415898 0.338945 L 0.419453 0.392617 L 0.419453 0.467773 L 0.415898 0.532227 L 0.415898 0.600195 L 0.40875 0.653906 L 0.401563 0.714727 L 0.40875 0.832852 L 0.40875 0.890117 L 0.423047 0.954531 L 0.566211 0.954531 L 0.587695 0.711172 L 0.594844 0.528633 L 0.598438 0.403359 L 0.598438 0.0919922 Z M 0.598438 0.0454688 " transform="matrix(100,0,0,100,150,2750)"/>
<path style="fill:none;stroke-width:0.01;stroke-linecap:butt;stroke-linejoin:miter;stroke:rgb(0%,0%,0%);stroke-opacity:1;stroke-miterlimit:10;" d="M 0.552695 0.150859 L 0.519766 0.295781 L 0.486836 0.407773 L 0.453867 0.513164 L 0.414375 0.572461 L 0.401172 0.611992 L 0.460469 0.763516 L 0.506602 0.954531 L 0.53293 0.849141 L 0.513164 0.651523 L 0.539531 0.572461 L 0.572461 0.506602 L 0.598828 0.414375 L 0.598828 0.190391 L 0.592227 0.0454688 L 0.572461 0.0652344 Z M 0.552695 0.150859 " transform="matrix(100,0,0,100,300,2750)"/>
<path style="fill:none;stroke-width:0.01;stroke-linecap:butt;stroke-linejoin:miter;stroke:rgb(0%,0%,0%);stroke-opacity:1;stroke-miterlimit:10;" d="M 0.572852 0.128711 L 0.558984 0.0454688 L 0.447969 0.260586 L 0.399375 0.413242 L 0.392422 0.663086 L 0.399375 0.857383 L 0.441016 0.954531 L 0.489609 0.836562 L 0.545117 0.642266 L 0.558984 0.538164 L 0.572852 0.475703 L 0.607578 0.441016 L 0.600625 0.316094 L 0.572852 0.163438 Z M 0.572852 0.128711 " transform="matrix(100,0,0,100,450,2750)"/>
<path style="fill:none;stroke-width:0.01;stroke-linecap:butt;stroke-linejoin:miter;stroke:rgb(0%,0%,0%);stroke-opacity:1;stroke-miterlimit:10;" d="M 0.74043 0.954531 L 0.338594 0.954531 L 0.285898 0.875508 L 0.25957 0.809609 L 0.266133 0.684453 L 0.332031 0.447305 L 0.378125 0.302383 L 0.411055 0.210156 L 0.404492 0.157461 L 0.424258 0.0783984 L 0.437422 0.0454688 L 0.555977 0.190391 L 0.635039 0.249688 L 0.648203 0.322148 L 0.648203 0.401172 L 0.667969 0.572461 L 0.700938 0.704219 L 0.727266 0.770078 L 0.720703 0.888672 Z M 0.74043 0.954531 " transform="matrix(100,0,0,100,600,2750)"/>
<path style="fill:none;stroke-width:0.01;stroke-linecap:butt;stroke-linejoin:miter;stroke:rgb(0%,0%,0%);stroke-opacity:1;stroke-miterlimit:10;" d="M 0.709336 0.0454688 L 0.296641 0.0454688 L 0.254766 0.117227 L 0.272734 0.200938 L 0.308594 0.254766 L 0.356445 0.356445 L 0.404297 0.470078 L 0.440195 0.631563 L 0.476094 0.751211 L 0.541875 0.811016 L 0.607656 0.882773 L 0.661484 0.918672 L 0.703359 0.954531 L 0.715313 0.858867 L 0.727266 0.613633 L 0.733242 0.344492 L 0.745234 0.0454688 L 0.727266 0.0454688 Z M 0.709336 0.0454688 " transform="matrix(100,0,0,100,0,2900)"/>
<path style="fill:none;stroke-width:0.01;stroke-linecap:butt;stroke-linejoin:miter;stroke:rgb(0%,0%,0%);stroke-opacity:1;stroke-miterlimit:10;" d="M 0.685 0.0666016 L 0.315 0.0454688 L 0.325586 0.108867 L 0.367852 0.256875 L 0.441875 0.426016 L 0.515859 0.58457 L 0.558125 0.732539 L 0.60043 0.859414 L 0.653281 0.954531 L 0.674414 0.679688 L 0.674414 0.246289 Z M 0.685 0.0666016 " transform="matrix(100,0,0,100,150,2900)"/>
<path style="fill:none;stroke-width:0.01;stroke-linecap:butt;stroke-linejoin:miter;stroke:rgb(0%,0%,0%);stroke-opacity:1;stroke-miterlimit:10;" d="M 0.593047 0.0454688 L 0.485703 0.0454688 L 0.485703 0.102734 L 0.464219 0.199375 L 0.442734 0.328203 L 0.435586 0.37832 L 0.414102 0.431992 L 0.385469 0.485703 L 0.417695 0.589492 L 0.439141 0.643164 L 0.431992 0.661055 L 0.414102 0.70043 L 0.403359 0.736211 L 0.406953 0.754102 L 0.439141 0.829258 L 0.45707 0.872227 L 0.446328 0.922344 L 0.414102 0.954531 L 0.57875 0.954531 L 0.564414 0.822109 L 0.557266 0.610938 L 0.560859 0.442734 L 0.571563 0.303164 L 0.593047 0.20293 L 0.600195 0.0955469 L 0.614531 0.0454688 Z M 0.593047 0.0454688 " transform="matrix(100,0,0,100,300,2900)"/>
<path style="fill:none;stroke-width:0.01;stroke-linecap:butt;stroke-linejoin:miter;stroke:rgb(0%,0%,0%);stroke-opacity:1;stroke-miterlimit:10;" d="M 0.714727 0.882969 L 0.70043 0.91875 L 0.650313 0.925898 L 0.593047 0.91875 L 0.564414 0.954531 L 0.5 0.954531 L 0.428438 0.854336 L 0.37832 0.668203 L 0.335352 0.474961 L 0.292422 0.396211 L 0.29957 0.260195 L 0.29957 0.152812 L 0.285273 0.0955469 L 0.29957 0.0454688 L 0.335352 0.0597656 L 0.385469 0.0883984 L 0.406953 0.109883 L 0.37832 0.16 L 0.428438 0.195781 L 0.392617 0.224414 L 0.442734 0.288828 L 0.521484 0.310313 L 0.564414 0.331797 L 0.449883 0.346094 L 0.514297 0.403359 L 0.45707 0.417695 L 0.514297 0.474961 L 0.550117 0.510742 L 0.54293 0.582305 L 0.492852 0.603789 L 0.585898 0.653906 L 0.600195 0.689688 L 0.571562 0.789922 L 0.593047 0.811367 L 0.585898 0.861484 L 0.664648 0.854336 Z M 0.714727 0.882969 " transform="matrix(100,0,0,100,450,2900)"/>
<path style="fill:none;stroke-width:0.01;stroke-linecap:butt;stroke-linejoin:miter;stroke:rgb(0%,0%,0%);stroke-opacity:1;stroke-miterlimit:10;" d="M 0.604766 0.954531 L 0.398789 0.950977 L 0.402344 0.915469 L 0.395234 0.865781 L 0.405898 0.823164 L 0.427188 0.784102 L 0.430742 0.734375 L 0.416563 0.659805 L 0.409453 0.58168 L 0.416563 0.503555 L 0.423633 0.432539 L 0.45207 0.379258 L 0.45918 0.333086 L 0.455625 0.244336 L 0.462695 0.173281 L 0.45207 0.120039 L 0.448516 0.0596484 L 0.448516 0.0454688 L 0.555039 0.0525391 L 0.558594 0.180391 L 0.555039 0.311797 L 0.565703 0.436094 L 0.579883 0.553281 L 0.579883 0.638477 L 0.583438 0.73082 L 0.586992 0.780547 L 0.594102 0.844453 Z M 0.604766 0.954531 " transform="matrix(100,0,0,100,600,2900)"/>
<path style="fill:none;stroke-width:0.01;stroke-linecap:butt;stroke-linejoin:miter;stroke:rgb(0%,0%,0%);stroke-opacity:1;stroke-miterlimit:10;" d="M 0.668281 0.954531 L 0.31625 0.954531 L 0.347187 0.881055 L 0.370391 0.850078 L 0.381992 0.834609 L 0.393633 0.730156 L 0.416836 0.57543 L 0.428438 0.536758 L 0.436172 0.467109 L 0.455508 0.409102 L 0.474844 0.370391 L 0.509687 0.304648 L 0.529023 0.258203 L 0.540625 0.215664 L 0.556094 0.146016 L 0.567695 0.091875 L 0.57543 0.0725391 L 0.583164 0.0454688 L 0.594766 0.103477 L 0.598633 0.169258 L 0.590898 0.300781 L 0.606367 0.440039 L 0.641211 0.621875 L 0.672148 0.741797 L 0.68375 0.838477 Z M 0.668281 0.954531 " transform="matrix(100,0,0,100,0,3050)"/>
<path style="fill:none;stroke-width:0.01;stroke-linecap:butt;stroke-linejoin:miter;stroke:rgb(0%,0%,0%);stroke-opacity:1;stroke-miterlimit:10;" d="M 0.576953 0.0454688 L 0.433789 0.0454688 L 0.415898 0.0919922 L 0.412305 0.167148 L 0.40875 0.245898 L 0.415898 0.324609 L 0.419453 0.439141 L 0.426641 0.510742 L 0.433789 0.539375 L 0.455273 0.568008 L 0.458828 0.603789 L 0.46957 0.643164 L 0.46957 0.668203 L 0.455273 0.693281 L 0.483906 0.714727 L 0.487461 0.746953 L 0.473164 0.782734 L 0.462422 0.800625 L 0.455273 0.84 L 0.455273 0.87582 L 0.473164 0.897266 L 0.480313 0.925898 L 0.473164 0.954531 L 0.562617 0.954531 L 0.559063 0.900859 L 0.559063 0.843594 L 0.555469 0.818555 L 0.512539 0.79707 L 0.505352 0.768438 L 0.516094 0.732656 L 0.483906 0.714727 L 0.466016 0.689688 L 0.508945 0.668203 L 0.537578 0.646758 L 0.54832 0.607383 L 0.54832 0.528633 L 0.555469 0.496406 L 0.555469 0.399805 L 0.576953 0.37832 L 0.551914 0.356836 L 0.555469 0.331797 L 0.562617 0.288828 L 0.566211 0.253047 L 0.59125 0.213672 L 0.580547 0.163555 L 0.584102 0.12418 L 0.587695 0.0741016 Z M 0.576953 0.0454688 " transform="matrix(100,0,0,100,150,3050)"/>
<path style="fill:none;stroke-width:0.01;stroke-linecap:butt;stroke-linejoin:miter;stroke:rgb(0%,0%,0%);stroke-opacity:1;stroke-miterlimit:10;" d="M 0.473164 0.954531 L 0.358633 0.954531 L 0.376523 0.900859 L 0.380117 0.87582 L 0.380117 0.822109 L 0.412305 0.750547 L 0.437383 0.668203 L 0.45168 0.625273 L 0.46957 0.575156 L 0.466016 0.467773 L 0.458828 0.338945 L 0.458828 0.256641 L 0.462422 0.134922 L 0.462422 0.0669141 L 0.448086 0.0454688 L 0.641367 0.0454688 L 0.60918 0.109883 L 0.605586 0.174297 L 0.598438 0.245898 L 0.594844 0.317461 L 0.584102 0.392617 L 0.562617 0.464219 L 0.541172 0.564414 L 0.526836 0.636016 L 0.505352 0.729063 L 0.494648 0.782734 L 0.491055 0.857891 L 0.473164 0.922344 Z M 0.473164 0.954531 " transform="matrix(100,0,0,100,300,3050)"/>
<path style="fill:none;stroke-width:0.01;stroke-linecap:butt;stroke-linejoin:miter;stroke:rgb(0%,0%,0%);stroke-opacity:1;stroke-miterlimit:10;" d="M 0.840898 0.954531 L 0.159102 0.946445 L 0.215898 0.800313 L 0.264609 0.678555 L 0.29707 0.589297 L 0.256484 0.548711 L 0.370117 0.532461 L 0.410703 0.491875 L 0.451289 0.386367 L 0.524336 0.321445 L 0.540586 0.272734 L 0.540586 0.232148 L 0.589297 0.183438 L 0.759727 0.110391 L 0.808438 0.0779297 L 0.840898 0.0454688 L 0.840898 0.386367 Z M 0.840898 0.954531 " transform="matrix(100,0,0,100,450,3050)"/>
<path style="fill:none;stroke-width:0.01;stroke-linecap:butt;stroke-linejoin:miter;stroke:rgb(0%,0%,0%);stroke-opacity:1;stroke-miterlimit:10;" d="M 0.612734 0.0454688 L 0.383672 0.0454688 L 0.401562 0.109883 L 0.40875 0.156406 L 0.40875 0.177891 L 0.419453 0.228008 L 0.437383 0.28168 L 0.444531 0.356836 L 0.458828 0.446328 L 0.480313 0.546523 L 0.494648 0.593047 L 0.512539 0.650313 L 0.516094 0.682539 L 0.512539 0.721914 L 0.519687 0.77918 L 0.519687 0.829258 L 0.516094 0.872227 L 0.533984 0.911602 L 0.523281 0.954531 L 0.616328 0.954531 L 0.605586 0.761289 L 0.616328 0.492852 L 0.612734 0.428438 Z M 0.612734 0.0454688 " transform="matrix(100,0,0,100,600,3050)"/>
<path style="fill:none;stroke-width:0.01;stroke-linecap:butt;stroke-linejoin:miter;stroke:rgb(0%,0%,0%);stroke-opacity:1;stroke-miterlimit:10;" d="M 0.677539 0.954531 L 0.322461 0.950977 L 0.329531 0.876406 L 0.325977 0.848008 L 0.375703 0.748594 L 0.389922 0.659805 L 0.404102 0.613633 L 0.428984 0.560352 L 0.439648 0.524844 L 0.439648 0.432539 L 0.443164 0.347305 L 0.443164 0.322461 L 0.453828 0.283398 L 0.475156 0.240781 L 0.478711 0.176836 L 0.489336 0.109375 L 0.485781 0.0880859 L 0.450273 0.0454687 L 0.677539 0.0525391 Z M 0.677539 0.954531 " transform="matrix(100,0,0,100,0,3200)"/>
<path style="fill:none;stroke-width:0.01;stroke-linecap:butt;stroke-linejoin:miter;stroke:rgb(0%,0%,0%);stroke-opacity:1;stroke-miterlimit:10;" d="M 0.58125 0.0454687 L 0.335313 0.0454687 L 0.330898 0.273828 L 0.471445 0.739336 L 0.502188 0.756914 L 0.493398 0.818398 L 0.524141 0.884297 L 0.585625 0.928203 L 0.655898 0.954531 L 0.669102 0.879883 Z M 0.58125 0.0454687 " transform="matrix(100,0,0,100,150,3200)"/>
<path style="fill:none;stroke-width:0.01;stroke-linecap:butt;stroke-linejoin:miter;stroke:rgb(0%,0%,0%);stroke-opacity:1;stroke-miterlimit:10;" d="M 0.711289 0.954531 L 0.69707 0.780547 L 0.668672 0.507109 L 0.661563 0.318906 L 0.640273 0.137773 L 0.643828 0.0454687 L 0.288711 0.0454687 L 0.324219 0.137773 L 0.373945 0.219453 L 0.427188 0.315352 L 0.437852 0.404102 L 0.423633 0.439648 L 0.427188 0.471602 L 0.423633 0.514219 L 0.515977 0.528398 L 0.53375 0.549727 L 0.498242 0.602969 L 0.469805 0.705977 L 0.469805 0.759219 L 0.427188 0.798281 L 0.402344 0.848008 L 0.398789 0.922578 L 0.409453 0.954531 Z M 0.711289 0.954531 " transform="matrix(100,0,0,100,300,3200)"/>
<path style="fill:none;stroke-width:0.01;stroke-linecap:butt;stroke-linejoin:miter;stroke:rgb(0%,0%,0%);stroke-opacity:1;stroke-miterlimit:10;" d="M 0.553281 0.0525391 L 0.436094 0.0454687 L 0.439648 0.144883 L 0.432539 0.205273 L 0.428984 0.347305 L 0.42543 0.414766 L 0.446719 0.446719 L 0.439648 0.524844 L 0.450273 0.652695 L 0.453828 0.823164 L 0.457383 0.954531 L 0.57457 0.954531 L 0.560352 0.265625 Z M 0.553281 0.0525391 " transform="matrix(100,0,0,100,450,3200)"/>
<path style="fill:none;stroke-width:0.01;stroke-linecap:butt;stroke-linejoin:miter;stroke:rgb(0%,0%,0%);stroke-opacity:1;stroke-miterlimit:10;" d="M 0.618125 0.696836 L 0.600195 0.954531 L 0.414102 0.954531 L 0.374727 0.750547 L 0.371172 0.732656 L 0.367578 0.643164 L 0.371172 0.5 L 0.367578 0.464219 L 0.37832 0.431992 L 0.410508 0.342539 L 0.424844 0.303164 L 0.464219 0.213672 L 0.492852 0.12418 L 0.5 0.0919922 L 0.496406 0.0454687 L 0.514297 0.0454687 L 0.525039 0.0883984 L 0.550117 0.127773 L 0.560859 0.149258 L 0.557266 0.185039 L 0.571562 0.22082 L 0.585898 0.267344 L 0.596641 0.328203 L 0.625273 0.381875 L 0.62168 0.460625 L 0.632422 0.539375 L 0.632422 0.628828 Z M 0.618125 0.696836 " transform="matrix(100,0,0,100,600,3200)"/>
<path style="fill:none;stroke-width:0.01;stroke-linecap:butt;stroke-linejoin:miter;stroke:rgb(0%,0%,0%);stroke-opacity:1;stroke-miterlimit:10;" d="M 0.940898 0.0454687 L 0.0591016 0.0454687 L 0.0772656 0.136367 L 0.168164 0.281836 L 0.168164 0.363633 L 0.159102 0.4 L 0.213633 0.518164 L 0.25 0.681836 L 0.304531 0.845469 L 0.331836 0.9 L 0.45 0.954531 L 0.504531 0.954531 L 0.540898 0.772734 L 0.65 0.818164 L 0.759102 0.863633 L 0.777266 0.772734 L 0.804531 0.690898 L 0.868164 0.627266 L 0.940898 0.509102 L 0.940898 0.2 Z M 0.940898 0.0454687 " transform="matrix(100,0,0,100,0,3350)"/>
<path style="fill:none;stroke-width:0.01;stroke-linecap:butt;stroke-linejoin:miter;stroke:rgb(0%,0%,0%);stroke-opacity:1;stroke-miterlimit:10;" d="M 0.706602 0.0454687 L 0.293398 0.0454687 L 0.340625 0.269766 L 0.399648 0.470469 L 0.446875 0.659375 L 0.482305 0.812852 L 0.541328 0.954531 L 0.600352 0.930937 L 0.635781 0.635781 L 0.659375 0.458672 L 0.683008 0.234375 L 0.706602 0.163516 Z M 0.706602 0.0454687 " transform="matrix(100,0,0,100,150,3350)"/>
<path style="fill:none;stroke-width:0.01;stroke-linecap:butt;stroke-linejoin:miter;stroke:rgb(0%,0%,0%);stroke-opacity:1;stroke-miterlimit:10;" d="M 0.836445 0.954531 L 0.163555 0.954531 L 0.238711 0.77918 L 0.29957 0.585898 L 0.342539 0.478516 L 0.381875 0.37832 L 0.406953 0.338945 L 0.460625 0.29957 L 0.514297 0.242305 L 0.539375 0.0454687 L 0.836445 0.0454687 Z M 0.836445 0.954531 " transform="matrix(100,0,0,100,300,3350)"/>
<path style="fill:none;stroke-width:0.01;stroke-linecap:butt;stroke-linejoin:miter;stroke:rgb(0%,0%,0%);stroke-opacity:1;stroke-miterlimit:10;" d="M 0.521484 0.0454687 L 0.331797 0.0454687 L 0.503594 0.732656 L 0.517891 0.786328 L 0.532227 0.832852 L 0.532227 0.857891 L 0.535781 0.879375 L 0.54293 0.950977 L 0.650313 0.954531 L 0.668203 0.439141 L 0.603789 0.249453 L 0.582305 0.20293 L 0.546523 0.0919922 Z M 0.521484 0.0454687 " transform="matrix(100,0,0,100,450,3350)"/>
<path style="fill:none;stroke-width:0.01;stroke-linecap:butt;stroke-linejoin:miter;stroke:rgb(0%,0%,0%);stroke-opacity:1;stroke-miterlimit:10;" d="M 0.703477 0.0454687 L 0.296523 0.0454687 L 0.365234 0.204023 L 0.4075 0.325586 L 0.449805 0.463008 L 0.497344 0.621563 L 0.555508 0.732539 L 0.587227 0.843555 L 0.608359 0.88582 L 0.613633 0.922852 L 0.634766 0.954531 L 0.666484 0.764258 L 0.69293 0.41543 Z M 0.703477 0.0454687 " transform="matrix(100,0,0,100,600,3350)"/>
<path style="fill:none;stroke-width:0.01;stroke-linecap:butt;stroke-linejoin:miter;stroke:rgb(0%,0%,0%);stroke-opacity:1;stroke-miterlimit:10;" d="M 0.739805 0.954531 L 0.260195 0.954531 L 0.292422 0.868633 L 0.288828 0.804219 L 0.28168 0.746953 L 0.278086 0.686094 L 0.260195 0.618125 L 0.267344 0.568008 L 0.295977 0.474961 L 0.331797 0.385469 L 0.37832 0.303164 L 0.385469 0.217266 L 0.389063 0.167148 L 0.353242 0.0991406 L 0.328203 0.0454687 L 0.739805 0.0454687 Z M 0.739805 0.954531 " transform="matrix(100,0,0,100,0,3500)"/>
<path style="fill:none;stroke-width:0.01;stroke-linecap:butt;stroke-linejoin:miter;stroke:rgb(0%,0%,0%);stroke-opacity:1;stroke-miterlimit:10;" d="M 0.580547 0.954531 L 0.437383 0.954531 L 0.426641 0.886523 L 0.426641 0.832852 L 0.437383 0.775586 L 0.433789 0.707578 L 0.423047 0.63957 L 0.430195 0.557266 L 0.433789 0.485703 L 0.426641 0.392617 L 0.423047 0.338945 L 0.433789 0.274531 L 0.433789 0.228008 L 0.423047 0.167148 L 0.419453 0.0597656 L 0.419453 0.0454687 L 0.573359 0.0454687 L 0.573359 0.288828 L 0.576953 0.406953 L 0.573359 0.471367 L 0.573359 0.489258 L 0.566211 0.514297 L 0.569805 0.550117 L 0.576953 0.607383 L 0.569805 0.675391 L 0.566211 0.729062 L 0.569805 0.771992 L 0.580547 0.825703 L 0.580547 0.879375 Z M 0.580547 0.954531 " transform="matrix(100,0,0,100,150,3500)"/>
<path style="fill:none;stroke-width:0.01;stroke-linecap:butt;stroke-linejoin:miter;stroke:rgb(0%,0%,0%);stroke-opacity:1;stroke-miterlimit:10;" d="M 0.569258 0.0525391 L 0.484023 0.0454687 L 0.491133 0.162656 L 0.484023 0.26207 L 0.473359 0.350859 L 0.473359 0.428984 L 0.45918 0.489336 L 0.448516 0.549727 L 0.45207 0.595898 L 0.448516 0.642031 L 0.437852 0.670469 L 0.430742 0.691758 L 0.434297 0.716602 L 0.420117 0.741484 L 0.420117 0.776992 L 0.416562 0.801836 L 0.398789 0.826719 L 0.373945 0.837344 L 0.416562 0.862227 L 0.416562 0.876406 L 0.38457 0.890625 L 0.370391 0.897734 L 0.39168 0.915469 L 0.39168 0.947461 L 0.381055 0.954531 L 0.629609 0.954531 L 0.601211 0.652695 L 0.597656 0.41832 L 0.586992 0.308242 L 0.586992 0.151992 Z M 0.569258 0.0525391 " transform="matrix(100,0,0,100,300,3500)"/>
<path style="fill:none;stroke-width:0.01;stroke-linecap:butt;stroke-linejoin:miter;stroke:rgb(0%,0%,0%);stroke-opacity:1;stroke-miterlimit:10;" d="M 0.543281 0.0454687 L 0.413437 0.0454687 L 0.442266 0.353281 L 0.466328 0.46875 L 0.5 0.665937 L 0.519258 0.79582 L 0.519258 0.877578 L 0.514414 0.954531 L 0.552891 0.858359 L 0.567344 0.714063 L 0.586563 0.598594 L 0.576953 0.497578 L 0.562539 0.358086 L 0.562539 0.228242 L 0.552891 0.117617 Z M 0.543281 0.0454687 " transform="matrix(100,0,0,100,450,3500)"/>
<path style="fill:none;stroke-width:0.01;stroke-linecap:butt;stroke-linejoin:miter;stroke:rgb(0%,0%,0%);stroke-opacity:1;stroke-miterlimit:10;" d="M 0.661289 0.954531 L 0.338711 0.947227 L 0.390039 0.719922 L 0.478008 0.558633 L 0.543984 0.390039 L 0.580664 0.338711 L 0.565977 0.265391 L 0.558633 0.184766 L 0.536641 0.0967578 L 0.521992 0.0454687 L 0.580664 0.0674609 L 0.617305 0.0894531 L 0.624648 0.221406 L 0.631953 0.397344 L 0.653945 0.617305 L 0.661289 0.800586 Z M 0.661289 0.954531 " transform="matrix(100,0,0,100,600,3500)"/>
<path style="fill:none;stroke-width:0.01;stroke-linecap:butt;stroke-linejoin:miter;stroke:rgb(0%,0%,0%);stroke-opacity:1;stroke-miterlimit:10;" d="M 0.492305 0.0454687 L 0.630977 0.0454687 L 0.646367 0.954531 L 0.553945 0.923711 L 0.523125 0.476875 L 0.384453 0.214961 L 0.353633 0.0454687 Z M 0.492305 0.0454687 " transform="matrix(100,0,0,100,0,3650)"/>
<path style="fill:none;stroke-width:0.01;stroke-linecap:butt;stroke-linejoin:miter;stroke:rgb(0%,0%,0%);stroke-opacity:1;stroke-miterlimit:10;" d="M 0.869336 0.0880859 L 0.0454687 0.0880859 L 0.159102 0.372148 L 0.1875 0.514219 L 0.272734 0.713086 L 0.301133 0.855117 L 0.471602 0.911914 L 0.471602 0.741484 L 0.670469 0.741484 L 0.642031 0.571016 L 0.613633 0.372148 L 0.670469 0.230117 L 0.840898 0.258516 L 0.954531 0.286914 Z M 0.869336 0.0880859 " transform="matrix(100,0,0,100,150,3650)"/>
<path style="fill:none;stroke-width:0.01;stroke-linecap:butt;stroke-linejoin:miter;stroke:rgb(0%,0%,0%);stroke-opacity:1;stroke-miterlimit:10;" d="M 0.888438 0.285117 L 0.0454687 0.466953 L 0.161172 0.714883 L 0.921484 0.615703 L 0.938008 0.533047 L 0.954531 0.384297 Z M 0.888438 0.285117 " transform="matrix(100,0,0,100,300,3650)"/>
<path style="fill:none;stroke-width:0.01;stroke-linecap:butt;stroke-linejoin:miter;stroke:rgb(0%,0%,0%);stroke-opacity:1;stroke-miterlimit:10;" d="M 0.606641 0.0454687 L 0.595391 0.954531 L 0.438281 0.954531 L 0.41582 0.864766 L 0.393359 0.550508 L 0.404609 0.0454687 Z M 0.606641 0.0454687 " transform="matrix(100,0,0,100,450,3650)"/>
<path style="fill:none;stroke-width:0.01;stroke-linecap:butt;stroke-linejoin:miter;stroke:rgb(0%,0%,0%);stroke-opacity:1;stroke-miterlimit:10;" d="M 0.649961 0.954531 L 0.350039 0.954531 L 0.415664 0.617148 L 0.396914 0.570273 L 0.387539 0.448438 L 0.387539 0.364102 L 0.415664 0.307891 L 0.48125 0.270391 L 0.528125 0.195391 L 0.574961 0.10168 L 0.612461 0.0454687 Z M 0.649961 0.954531 " transform="matrix(100,0,0,100,600,3650)"/>
<path style="fill:none;stroke-width:0.01;stroke-linecap:butt;stroke-linejoin:miter;stroke:rgb(0%,0%,0%);stroke-opacity:1;stroke-miterlimit:10;" d="M 0.738516 0.0454687 L 0.261484 0.0454687 L 0.315469 0.135469 L 0.351484 0.171484 L 0.414492 0.297461 L 0.396484 0.3425 L 0.405508 0.360469 L 0.4325 0.4325 L 0.4775 0.4775 L 0.513516 0.594492 L 0.531484 0.648516 L 0.594492 0.792539 L 0.630508 0.882539 L 0.6575 0.927539 L 0.684531 0.954531 Z M 0.738516 0.0454687 " transform="matrix(100,0,0,100,0,3800)"/>
<path style="fill:none;stroke-width:0.01;stroke-linecap:butt;stroke-linejoin:miter;stroke:rgb(0%,0%,0%);stroke-opacity:1;stroke-miterlimit:10;" d="M 0.642344 0.0454687 L 0.357656 0.0454687 L 0.362656 0.0704297 L 0.387617 0.105391 L 0.402578 0.145352 L 0.407578 0.190312 L 0.397617 0.245273 L 0.392617 0.280234 L 0.412578 0.360156 L 0.432578 0.405078 L 0.452539 0.450039 L 0.467539 0.470039 L 0.472539 0.5 L 0.462539 0.549961 L 0.467539 0.574922 L 0.4825 0.649844 L 0.5125 0.754727 L 0.532461 0.869648 L 0.557461 0.954531 L 0.567422 0.784727 L 0.582422 0.779727 L 0.582422 0.789727 L 0.592422 0.799687 L 0.597422 0.814687 L 0.602383 0.834648 L 0.617383 0.834648 L 0.627383 0.529961 L 0.632383 0.460039 Z M 0.642344 0.0454687 " transform="matrix(100,0,0,100,150,3800)"/>
<path style="fill:none;stroke-width:0.01;stroke-linecap:butt;stroke-linejoin:miter;stroke:rgb(0%,0%,0%);stroke-opacity:1;stroke-miterlimit:10;" d="M 0.493398 0.0454687 L 0.361641 0.0454687 L 0.335313 0.164023 L 0.414375 0.322148 L 0.440703 0.453867 L 0.46707 0.585625 L 0.440703 0.638359 L 0.440703 0.74375 L 0.480234 0.875508 L 0.53293 0.954531 L 0.546133 0.809609 L 0.625156 0.796445 L 0.664687 0.0454687 Z M 0.493398 0.0454687 " transform="matrix(100,0,0,100,300,3800)"/>
<path style="fill:none;stroke-width:0.01;stroke-linecap:butt;stroke-linejoin:miter;stroke:rgb(0%,0%,0%);stroke-opacity:1;stroke-miterlimit:10;" d="M 0.624453 0.0454687 L 0.234844 0.0454687 L 0.191562 0.0995703 L 0.224023 0.142852 L 0.278125 0.153672 L 0.299766 0.251094 L 0.397188 0.337656 L 0.47293 0.348477 L 0.462109 0.435078 L 0.49457 0.456719 L 0.451289 0.554102 L 0.537891 0.629883 L 0.570352 0.716445 L 0.635273 0.846328 L 0.646094 0.90043 L 0.743516 0.954531 L 0.732695 0.781367 L 0.711055 0.738086 L 0.678555 0.694805 L 0.678555 0.651523 L 0.721875 0.629883 L 0.765156 0.619062 L 0.775977 0.283555 L 0.711055 0.240273 L 0.711055 0.186133 L 0.700234 0.153672 L 0.743516 0.121211 L 0.765156 0.08875 L 0.808438 0.0671094 Z M 0.624453 0.0454687 " transform="matrix(100,0,0,100,450,3800)"/>
<path style="fill:none;stroke-width:0.01;stroke-linecap:butt;stroke-linejoin:miter;stroke:rgb(0%,0%,0%);stroke-opacity:1;stroke-miterlimit:10;" d="M 0.581172 0.0454687 L 0.469336 0.0454687 L 0.462109 0.0995703 L 0.462109 0.132031 L 0.429648 0.222227 L 0.418828 0.272734 L 0.422422 0.316016 L 0.444102 0.435078 L 0.480156 0.590195 L 0.49457 0.644297 L 0.512617 0.752539 L 0.534258 0.92207 L 0.52707 0.936523 L 0.49457 0.943711 L 0.487383 0.954531 L 0.555898 0.954531 L 0.566758 0.63707 Z M 0.581172 0.0454687 " transform="matrix(100,0,0,100,600,3800)"/>
<path style="fill:none;stroke-width:0.01;stroke-linecap:butt;stroke-linejoin:miter;stroke:rgb(0%,0%,0%);stroke-opacity:1;stroke-miterlimit:10;" d="M 0.514375 0.879766 L 0.525898 0.925781 L 0.525898 0.948789 L 0.485625 0.954531 L 0.485625 0.925781 L 0.479844 0.89125 L 0.468359 0.8625 L 0.451094 0.816445 L 0.445352 0.758906 L 0.41082 0.724414 L 0.382031 0.638086 L 0.376289 0.569063 L 0.376289 0.488477 L 0.382031 0.402188 L 0.393555 0.344648 L 0.387813 0.287109 L 0.387813 0.154766 L 0.399297 0.10875 L 0.387813 0.0627344 L 0.382031 0.0512109 L 0.617969 0.0454687 L 0.623711 0.189297 L 0.612187 0.22957 L 0.537383 0.264102 L 0.537383 0.40793 L 0.56043 0.436719 L 0.566172 0.448203 L 0.571914 0.488477 L 0.566172 0.5 L 0.525898 0.52875 L 0.537383 0.672617 L 0.56043 0.707148 L 0.566172 0.753164 L 0.554648 0.810703 L 0.543164 0.845234 Z M 0.514375 0.879766 " transform="matrix(100,0,0,100,0,3950)"/>
<path style="fill:none;stroke-width:0.01;stroke-linecap:butt;stroke-linejoin:miter;stroke:rgb(0%,0%,0%);stroke-opacity:1;stroke-miterlimit:10;" d="M 0.735508 0.0454687 L 0.396367 0.0454687 L 0.382227 0.0690234 L 0.386953 0.219727 L 0.363398 0.285664 L 0.306875 0.299805 L 0.264492 0.375195 L 0.26918 0.422266 L 0.26918 0.474102 L 0.255078 0.483516 L 0.255078 0.502344 L 0.278633 0.577734 L 0.321016 0.808516 L 0.297461 0.822656 L 0.316289 0.883906 L 0.316289 0.954531 L 0.349258 0.916875 L 0.353984 0.756719 L 0.443477 0.643672 L 0.744922 0.0595703 Z M 0.735508 0.0454687 " transform="matrix(100,0,0,100,150,3950)"/>
<path style="fill:none;stroke-width:0.01;stroke-linecap:butt;stroke-linejoin:miter;stroke:rgb(0%,0%,0%);stroke-opacity:1;stroke-miterlimit:10;" d="M 0.815234 0.0454687 L 0.184766 0.0747656 L 0.199414 0.162773 L 0.258047 0.236055 L 0.287383 0.324063 L 0.316719 0.441367 L 0.360703 0.558633 L 0.404688 0.646641 L 0.448672 0.690625 L 0.478008 0.763945 L 0.536641 0.822578 L 0.580664 0.939883 L 0.624648 0.954531 L 0.595312 0.851914 L 0.624648 0.719922 L 0.624648 0.646641 L 0.712617 0.646641 L 0.683281 0.57332 L 0.712617 0.42668 L 0.69793 0.309375 L 0.668633 0.236055 L 0.653945 0.133437 L 0.683281 0.0747656 Z M 0.815234 0.0454687 " transform="matrix(100,0,0,100,300,3950)"/>
<path style="fill:none;stroke-width:0.01;stroke-linecap:butt;stroke-linejoin:miter;stroke:rgb(0%,0%,0%);stroke-opacity:1;stroke-miterlimit:10;" d="M 0.558789 0.0544922 L 0.395977 0.0544922 L 0.409531 0.185664 L 0.414062 0.258047 L 0.418594 0.366563 L 0.414062 0.5475 L 0.418594 0.615352 L 0.423125 0.665078 L 0.427617 0.696758 L 0.432148 0.723867 L 0.432148 0.728398 L 0.459297 0.76457 L 0.459297 0.782695 L 0.468359 0.823398 L 0.472852 0.877656 L 0.495469 0.904805 L 0.518086 0.931914 L 0.527148 0.950039 L 0.527148 0.954531 L 0.558789 0.646992 L 0.576875 0.479648 L 0.585938 0.316836 L 0.604023 0.104258 L 0.604023 0.0454687 Z M 0.558789 0.0544922 " transform="matrix(100,0,0,100,450,3950)"/>
<path style="fill:none;stroke-width:0.01;stroke-linecap:butt;stroke-linejoin:miter;stroke:rgb(0%,0%,0%);stroke-opacity:1;stroke-miterlimit:10;" d="M 0.735547 0.0454687 L 0.264453 0.0454687 L 0.280977 0.177695 L 0.355391 0.342969 L 0.438008 0.582656 L 0.528906 0.822305 L 0.595039 0.954531 L 0.628086 0.847109 L 0.619844 0.764453 L 0.611562 0.74793 L 0.595039 0.541328 L 0.628086 0.442148 L 0.669414 0.35125 L 0.677695 0.185938 L 0.685938 0.144609 L 0.694219 0.119844 Z M 0.735547 0.0454687 " transform="matrix(100,0,0,100,600,3950)"/>
<path style="fill:none;stroke-width:0.01;stroke-linecap:butt;stroke-linejoin:miter;stroke:rgb(0%,0%,0%);stroke-opacity:1;stroke-miterlimit:10;" d="M 0.59125 0.0454687 L 0.405156 0.0490234 L 0.426641 0.0955469 L 0.40875 0.134922 L 0.398008 0.185039 L 0.401562 0.224414 L 0.415898 0.260195 L 0.433789 0.285273 L 0.45168 0.29957 L 0.455273 0.317461 L 0.458828 0.331797 L 0.473164 0.346094 L 0.501797 0.367578 L 0.526836 0.389063 L 0.541172 0.439141 L 0.551914 0.514297 L 0.544727 0.546523 L 0.53043 0.596641 L 0.53043 0.628828 L 0.541172 0.664648 L 0.54832 0.682539 L 0.544727 0.711172 L 0.555469 0.739805 L 0.54832 0.768437 L 0.551914 0.829258 L 0.551914 0.84 L 0.537578 0.850742 L 0.53043 0.87582 L 0.523281 0.890117 L 0.512539 0.908008 L 0.512539 0.954531 L 0.601992 0.950977 L 0.598438 0.868633 L 0.573359 0.868633 L 0.569805 0.829258 L 0.59125 0.829258 L 0.594844 0.786328 L 0.587695 0.682539 L 0.576953 0.593047 L 0.580547 0.535781 L 0.587695 0.492852 L 0.587695 0.428438 L 0.584102 0.367578 L 0.580547 0.228008 L 0.594844 0.0991406 Z M 0.59125 0.0454687 " transform="matrix(100,0,0,100,0,4100)"/>
<path style="fill:none;stroke-width:0.01;stroke-linecap:butt;stroke-linejoin:miter;stroke:rgb(0%,0%,0%);stroke-opacity:1;stroke-miterlimit:10;" d="M 0.610859 0.954531 L 0.374336 0.954531 L 0.433477 0.621953 L 0.485234 0.318906 L 0.52957 0.141523 L 0.522188 0.0454687 L 0.573906 0.148945 L 0.596094 0.318906 L 0.610859 0.488906 L 0.625664 0.78457 L 0.625664 0.873242 Z M 0.610859 0.954531 " transform="matrix(100,0,0,100,150,4100)"/>
<path style="fill:none;stroke-width:0.01;stroke-linecap:butt;stroke-linejoin:miter;stroke:rgb(0%,0%,0%);stroke-opacity:1;stroke-miterlimit:10;" d="M 0.612578 0.0621484 L 0.387422 0.0454687 L 0.404102 0.245625 L 0.387422 0.395742 L 0.395742 0.49582 L 0.379062 0.604258 L 0.420781 0.704336 L 0.4875 0.879492 L 0.520859 0.954531 L 0.537539 0.904492 L 0.579219 0.912852 L 0.612578 0.846133 L 0.604258 0.729375 L 0.595898 0.704336 L 0.579219 0.629258 L 0.570898 0.537539 L 0.604258 0.420781 L 0.620938 0.362383 L 0.587578 0.312344 L 0.595898 0.220586 L 0.595898 0.145547 Z M 0.612578 0.0621484 " transform="matrix(100,0,0,100,300,4100)"/>
<path style="fill:none;stroke-width:0.01;stroke-linecap:butt;stroke-linejoin:miter;stroke:rgb(0%,0%,0%);stroke-opacity:1;stroke-miterlimit:10;" d="M 0.79168 0.0454687 L 0.147734 0.060625 L 0.193164 0.151523 L 0.253789 0.242422 L 0.314375 0.318164 L 0.375 0.454531 L 0.435625 0.575742 L 0.473477 0.643945 L 0.503789 0.712109 L 0.534102 0.780313 L 0.579531 0.871211 L 0.640156 0.939375 L 0.670469 0.954531 L 0.693164 0.931836 L 0.723477 0.772734 L 0.761367 0.590898 L 0.799258 0.303047 L 0.844688 0.106055 L 0.852266 0.060625 Z M 0.79168 0.0454687 " transform="matrix(100,0,0,100,450,4100)"/>
<path style="fill:none;stroke-width:0.01;stroke-linecap:butt;stroke-linejoin:miter;stroke:rgb(0%,0%,0%);stroke-opacity:1;stroke-miterlimit:10;" d="M 0.550313 0.0454687 L 0.505586 0.0454687 L 0.494414 0.123711 L 0.498125 0.175859 L 0.486953 0.24293 L 0.479492 0.302539 L 0.47207 0.350977 L 0.460898 0.403125 L 0.453437 0.470195 L 0.457148 0.5 L 0.449688 0.578242 L 0.445977 0.622969 L 0.453437 0.656484 L 0.457148 0.708633 L 0.464609 0.768242 L 0.46832 0.794336 L 0.457148 0.812969 L 0.490703 0.876289 L 0.483242 0.913555 L 0.47207 0.954531 L 0.490703 0.932187 L 0.498125 0.894922 L 0.501875 0.857656 L 0.505586 0.812969 L 0.509297 0.768242 L 0.516758 0.667656 L 0.513047 0.62668 L 0.520508 0.56332 L 0.524219 0.511172 L 0.524219 0.406836 L 0.535391 0.339805 L 0.542852 0.295078 L 0.546563 0.198203 L 0.554023 0.108789 Z M 0.550313 0.0454687 " transform="matrix(100,0,0,100,600,4100)"/>
<path style="fill:none;stroke-width:0.01;stroke-linecap:butt;stroke-linejoin:miter;stroke:rgb(0%,0%,0%);stroke-opacity:1;stroke-miterlimit:10;" d="M 0.602852 0.264414 L 0.563047 0.954531 L 0.523242 0.888203 L 0.490039 0.715664 L 0.443594 0.609492 L 0.436953 0.576328 L 0.41043 0.516602 L 0.397148 0.377227 L 0.443594 0.257812 L 0.49668 0.151641 L 0.536484 0.0454687 L 0.543125 0.244531 L 0.549766 0.297617 L 0.58957 0.237891 L 0.596211 0.224609 Z M 0.602852 0.264414 " transform="matrix(100,0,0,100,0,4250)"/>
<path style="fill:none;stroke-width:0.01;stroke-linecap:butt;stroke-linejoin:miter;stroke:rgb(0%,0%,0%);stroke-opacity:1;stroke-miterlimit:10;" d="M 0.544727 0.954531 L 0.37332 0.954531 L 0.410586 0.82043 L 0.410586 0.581953 L 0.418047 0.5 L 0.455273 0.43293 L 0.455273 0.0454687 L 0.5 0.119961 L 0.522344 0.201953 L 0.559609 0.276445 L 0.574531 0.380781 L 0.596875 0.470195 L 0.62668 0.5 L 0.62668 0.574531 L 0.596875 0.678828 L 0.604336 0.798047 L 0.596875 0.872578 L 0.581953 0.917305 Z M 0.544727 0.954531 " transform="matrix(100,0,0,100,150,4250)"/>
<path style="fill:none;stroke-width:0.01;stroke-linecap:butt;stroke-linejoin:miter;stroke:rgb(0%,0%,0%);stroke-opacity:1;stroke-miterlimit:10;" d="M 0.592773 0.954531 L 0.407227 0.954531 L 0.458242 0.620586 L 0.448984 0.523203 L 0.435078 0.416523 L 0.435078 0.281992 L 0.439688 0.230977 L 0.411875 0.170703 L 0.407227 0.119648 L 0.421133 0.0500781 L 0.439688 0.0454687 L 0.453633 0.0918359 L 0.462891 0.156758 L 0.476797 0.25418 L 0.509258 0.314453 L 0.513906 0.337656 L 0.513906 0.360859 L 0.546367 0.416523 L 0.546367 0.448984 L 0.537109 0.490742 L 0.555664 0.578867 L 0.560313 0.60668 L 0.574219 0.648438 L 0.546367 0.694805 L 0.537109 0.736562 L 0.564922 0.764375 L 0.583477 0.806133 Z M 0.592773 0.954531 " transform="matrix(100,0,0,100,300,4250)"/>
</g>
</svg>
