<?xml version="1.0" encoding="UTF-8"?>
<svg xmlns="http://www.w3.org/2000/svg" xmlns:xlink="http://www.w3.org/1999/xlink" width="750pt" height="17600pt" viewBox="0 0 750 17600" version="1.1">
<g id="surface1">
<path style="fill:none;stroke-width:0.01;stroke-linecap:butt;stroke-linejoin:miter;stroke:rgb(0%,0%,0%);stroke-opacity:1;stroke-miterlimit:10;" d="M 0.604883 0.0454687 L 0.395117 0.0454687 L 0.395117 0.954531 L 0.587422 0.954531 Z M 0.604883 0.0454687 " transform="matrix(100,0,0,100,0,200)"/>
<path style="fill:none;stroke-width:0.01;stroke-linecap:butt;stroke-linejoin:miter;stroke:rgb(0%,0%,0%);stroke-opacity:1;stroke-miterlimit:10;" d="M 0.0541016 0.352813 L 0.0454687 0.655859 L 0.945898 0.638516 L 0.954531 0.344141 Z M 0.0541016 0.352813 " transform="matrix(100,0,0,100,150,200)"/>
<path style="fill:none;stroke-width:0.01;stroke-linecap:butt;stroke-linejoin:miter;stroke:rgb(0%,0%,0%);stroke-opacity:1;stroke-miterlimit:10;" d="M 0.954531 0.361484 L 0.0541016 0.335508 L 0.0454687 0.664492 L 0.954531 0.655859 Z M 0.954531 0.361484 " transform="matrix(100,0,0,100,300,200)"/>
<path style="fill:none;stroke-width:0.01;stroke-linecap:butt;stroke-linejoin:miter;stroke:rgb(0%,0%,0%);stroke-opacity:1;stroke-miterlimit:10;" d="M 0.954531 0.401367 L 0.0540234 0.358477 L 0.0454688 0.615781 L 0.945977 0.641523 Z M 0.954531 0.401367 " transform="matrix(100,0,0,100,450,200)"/>
<path style="fill:none;stroke-width:0.01;stroke-linecap:butt;stroke-linejoin:miter;stroke:rgb(0%,0%,0%);stroke-opacity:1;stroke-miterlimit:10;" d="M 0.945898 0.608242 L 0.0454688 0.63418 L 0.0541016 0.383125 L 0.954531 0.36582 Z M 0.945898 0.608242 " transform="matrix(100,0,0,100,600,200)"/>
<path style="fill:none;stroke-width:0.01;stroke-linecap:butt;stroke-linejoin:miter;stroke:rgb(0%,0%,0%);stroke-opacity:1;stroke-miterlimit:10;" d="M 0.954531 0.373008 L 0.152422 0.359609 L 0.0454688 0.640391 L 0.914453 0.640391 Z M 0.954531 0.373008 " transform="matrix(100,0,0,100,0,350)"/>
<path style="fill:none;stroke-width:0.01;stroke-linecap:butt;stroke-linejoin:miter;stroke:rgb(0%,0%,0%);stroke-opacity:1;stroke-miterlimit:10;" d="M 0.954531 0.346445 L 0.893125 0.678125 L 0.0454687 0.628984 L 0.14375 0.321875 Z M 0.954531 0.346445 " transform="matrix(100,0,0,100,150,350)"/>
<path style="fill:none;stroke-width:0.01;stroke-linecap:butt;stroke-linejoin:miter;stroke:rgb(0%,0%,0%);stroke-opacity:1;stroke-miterlimit:10;" d="M 0.0454687 0.628203 L 0.896289 0.698125 L 0.954531 0.348477 L 0.150352 0.301875 Z M 0.0454687 0.628203 " transform="matrix(100,0,0,100,300,350)"/>
<path style="fill:none;stroke-width:0.01;stroke-linecap:butt;stroke-linejoin:miter;stroke:rgb(0%,0%,0%);stroke-opacity:1;stroke-miterlimit:10;" d="M 0.130664 0.386367 L 0.0454688 0.613633 L 0.940352 0.599414 L 0.954531 0.400586 Z M 0.130664 0.386367 " transform="matrix(100,0,0,100,450,350)"/>
<path style="fill:none;stroke-width:0.01;stroke-linecap:butt;stroke-linejoin:miter;stroke:rgb(0%,0%,0%);stroke-opacity:1;stroke-miterlimit:10;" d="M 0.136367 0.371211 L 0.0454688 0.628789 L 0.909102 0.628789 L 0.954531 0.371211 Z M 0.136367 0.371211 " transform="matrix(100,0,0,100,600,350)"/>
<path style="fill:none;stroke-width:0.01;stroke-linecap:butt;stroke-linejoin:miter;stroke:rgb(0%,0%,0%);stroke-opacity:1;stroke-miterlimit:10;" d="M 0.954531 0.371211 L 0.136367 0.401523 L 0.0454688 0.628789 L 0.909102 0.613633 Z M 0.954531 0.371211 " transform="matrix(100,0,0,100,0,500)"/>
<path style="fill:none;stroke-width:0.01;stroke-linecap:butt;stroke-linejoin:miter;stroke:rgb(0%,0%,0%);stroke-opacity:1;stroke-miterlimit:10;" d="M 0.114062 0.414219 L 0.0454687 0.620078 L 0.903086 0.585781 L 0.954531 0.379922 Z M 0.114062 0.414219 " transform="matrix(100,0,0,100,150,500)"/>
<path style="fill:none;stroke-width:0.01;stroke-linecap:butt;stroke-linejoin:miter;stroke:rgb(0%,0%,0%);stroke-opacity:1;stroke-miterlimit:10;" d="M 0.0454687 0.414453 L 0.0454687 0.574883 L 0.933164 0.585547 L 0.954531 0.425117 Z M 0.0454687 0.414453 " transform="matrix(100,0,0,100,300,500)"/>
<path style="fill:none;stroke-width:0.01;stroke-linecap:butt;stroke-linejoin:miter;stroke:rgb(0%,0%,0%);stroke-opacity:1;stroke-miterlimit:10;" d="M 0.954531 0.436094 L 0.0596484 0.393477 L 0.0454688 0.578125 L 0.954531 0.606523 Z M 0.954531 0.436094 " transform="matrix(100,0,0,100,450,500)"/>
<path style="fill:none;stroke-width:0.01;stroke-linecap:butt;stroke-linejoin:miter;stroke:rgb(0%,0%,0%);stroke-opacity:1;stroke-miterlimit:10;" d="M 0.261172 0.0454688 L 0.338203 0.954531 L 0.738828 0.939141 L 0.708008 0.0454688 Z M 0.261172 0.0454688 " transform="matrix(100,0,0,100,600,500)"/>
<path style="fill:none;stroke-width:0.01;stroke-linecap:butt;stroke-linejoin:miter;stroke:rgb(0%,0%,0%);stroke-opacity:1;stroke-miterlimit:10;" d="M 0.0454688 0.593398 L 0.0454688 0.38168 L 0.954531 0.419062 L 0.954531 0.61832 Z M 0.0454688 0.593398 " transform="matrix(100,0,0,100,0,650)"/>
<path style="fill:none;stroke-width:0.01;stroke-linecap:butt;stroke-linejoin:miter;stroke:rgb(0%,0%,0%);stroke-opacity:1;stroke-miterlimit:10;" d="M 0.0454687 0.409102 L 0.0454687 0.615156 L 0.954531 0.615156 L 0.954531 0.384844 Z M 0.0454687 0.409102 " transform="matrix(100,0,0,100,150,650)"/>
<path style="fill:none;stroke-width:0.01;stroke-linecap:butt;stroke-linejoin:miter;stroke:rgb(0%,0%,0%);stroke-opacity:1;stroke-miterlimit:10;" d="M 0.766445 0.0454688 L 0.641055 0.0767969 L 0.390273 0.170859 L 0.264883 0.264883 L 0.233555 0.390273 L 0.202187 0.484336 L 0.264883 0.609727 L 0.358945 0.70375 L 0.515664 0.829141 L 0.641055 0.923203 L 0.766445 0.954531 L 0.797813 0.672422 L 0.766445 0.139492 Z M 0.766445 0.0454688 " transform="matrix(100,0,0,100,300,650)"/>
<path style="fill:none;stroke-width:0.01;stroke-linecap:butt;stroke-linejoin:miter;stroke:rgb(0%,0%,0%);stroke-opacity:1;stroke-miterlimit:10;" d="M 0.846328 0.0454688 L 0.586563 0.0454688 L 0.370117 0.08875 L 0.240273 0.175313 L 0.153672 0.305195 L 0.110391 0.435078 L 0.196953 0.608242 L 0.370117 0.781367 L 0.543281 0.867969 L 0.889609 0.954531 Z M 0.846328 0.0454688 " transform="matrix(100,0,0,100,450,650)"/>
<path style="fill:none;stroke-width:0.01;stroke-linecap:butt;stroke-linejoin:miter;stroke:rgb(0%,0%,0%);stroke-opacity:1;stroke-miterlimit:10;" d="M 0.927812 0.0632813 L 0.054375 0.0454688 L 0.054375 0.936719 L 0.945625 0.954531 Z M 0.927812 0.0632813 " transform="matrix(100,0,0,100,600,650)"/>
<path style="fill:none;stroke-width:0.01;stroke-linecap:butt;stroke-linejoin:miter;stroke:rgb(0%,0%,0%);stroke-opacity:1;stroke-miterlimit:10;" d="M 0.77043 0.0569531 L 0.172031 0.0454687 L 0.241094 0.931523 L 0.827969 0.954531 Z M 0.77043 0.0569531 " transform="matrix(100,0,0,100,0,800)"/>
<path style="fill:none;stroke-width:0.01;stroke-linecap:butt;stroke-linejoin:miter;stroke:rgb(0%,0%,0%);stroke-opacity:1;stroke-miterlimit:10;" d="M 0.937695 0.356914 L 0.0454687 0.340078 L 0.112812 0.643086 L 0.954531 0.659922 Z M 0.937695 0.356914 " transform="matrix(100,0,0,100,150,800)"/>
<path style="fill:none;stroke-width:0.01;stroke-linecap:butt;stroke-linejoin:miter;stroke:rgb(0%,0%,0%);stroke-opacity:1;stroke-miterlimit:10;" d="M 0.0640234 0.221719 L 0.0454687 0.778281 L 0.954531 0.759727 L 0.954531 0.240273 Z M 0.0640234 0.221719 " transform="matrix(100,0,0,100,300,800)"/>
<path style="fill:none;stroke-width:0.01;stroke-linecap:butt;stroke-linejoin:miter;stroke:rgb(0%,0%,0%);stroke-opacity:1;stroke-miterlimit:10;" d="M 0.0454688 0.412031 L 0.148086 0.631953 L 0.954531 0.602656 L 0.895898 0.368047 Z M 0.0454688 0.412031 " transform="matrix(100,0,0,100,450,800)"/>
<path style="fill:none;stroke-width:0.01;stroke-linecap:butt;stroke-linejoin:miter;stroke:rgb(0%,0%,0%);stroke-opacity:1;stroke-miterlimit:10;" d="M 0.125664 0.586914 L 0.954531 0.560156 L 0.901055 0.413086 L 0.0454688 0.413086 Z M 0.125664 0.586914 " transform="matrix(100,0,0,100,600,800)"/>
<path style="fill:none;stroke-width:0.01;stroke-linecap:butt;stroke-linejoin:miter;stroke:rgb(0%,0%,0%);stroke-opacity:1;stroke-miterlimit:10;" d="M 0.665273 0.169414 L 0.0454688 0.210742 L 0.0454688 0.541328 L 0.128086 0.830586 L 0.954531 0.789258 Z M 0.665273 0.169414 " transform="matrix(100,0,0,100,0,950)"/>
<path style="fill:none;stroke-width:0.01;stroke-linecap:butt;stroke-linejoin:miter;stroke:rgb(0%,0%,0%);stroke-opacity:1;stroke-miterlimit:10;" d="M 0.954531 0.427031 L 0.0454687 0.41582 L 0.0791406 0.572969 L 0.954531 0.58418 Z M 0.954531 0.427031 " transform="matrix(100,0,0,100,150,950)"/>
<path style="fill:none;stroke-width:0.01;stroke-linecap:butt;stroke-linejoin:miter;stroke:rgb(0%,0%,0%);stroke-opacity:1;stroke-miterlimit:10;" d="M 0.954531 0.438594 L 0.0454687 0.426289 L 0.0700391 0.573711 L 0.954531 0.573711 Z M 0.954531 0.438594 " transform="matrix(100,0,0,100,300,950)"/>
<path style="fill:none;stroke-width:0.01;stroke-linecap:butt;stroke-linejoin:miter;stroke:rgb(0%,0%,0%);stroke-opacity:1;stroke-miterlimit:10;" d="M 0.941367 0.447305 L 0.0454688 0.407773 L 0.0717969 0.579063 L 0.954531 0.592227 Z M 0.941367 0.447305 " transform="matrix(100,0,0,100,450,950)"/>
<path style="fill:none;stroke-width:0.01;stroke-linecap:butt;stroke-linejoin:miter;stroke:rgb(0%,0%,0%);stroke-opacity:1;stroke-miterlimit:10;" d="M 0.954531 0.443164 L 0.0454688 0.414766 L 0.0738672 0.556836 L 0.954531 0.585234 Z M 0.954531 0.443164 " transform="matrix(100,0,0,100,600,950)"/>
<path style="fill:none;stroke-width:0.01;stroke-linecap:butt;stroke-linejoin:miter;stroke:rgb(0%,0%,0%);stroke-opacity:1;stroke-miterlimit:10;" d="M 0.954531 0.455273 L 0.0454688 0.425469 L 0.0603516 0.559609 L 0.954531 0.574531 Z M 0.954531 0.455273 " transform="matrix(100,0,0,100,0,1100)"/>
<path style="fill:none;stroke-width:0.01;stroke-linecap:butt;stroke-linejoin:miter;stroke:rgb(0%,0%,0%);stroke-opacity:1;stroke-miterlimit:10;" d="M 0.954531 0.457109 L 0.0454687 0.422813 L 0.0454687 0.560039 L 0.954531 0.577188 Z M 0.954531 0.457109 " transform="matrix(100,0,0,100,150,1100)"/>
<path style="fill:none;stroke-width:0.01;stroke-linecap:butt;stroke-linejoin:miter;stroke:rgb(0%,0%,0%);stroke-opacity:1;stroke-miterlimit:10;" d="M 0.954531 0.435078 L 0.0454687 0.435078 L 0.0640234 0.546367 L 0.954531 0.564922 Z M 0.954531 0.435078 " transform="matrix(100,0,0,100,300,1100)"/>
<path style="fill:none;stroke-width:0.01;stroke-linecap:butt;stroke-linejoin:miter;stroke:rgb(0%,0%,0%);stroke-opacity:1;stroke-miterlimit:10;" d="M 0.890313 0.0553516 L 0.168984 0.0454687 L 0.109687 0.934766 L 0.850781 0.954531 Z M 0.890313 0.0553516 " transform="matrix(100,0,0,100,450,1100)"/>
<path style="fill:none;stroke-width:0.01;stroke-linecap:butt;stroke-linejoin:miter;stroke:rgb(0%,0%,0%);stroke-opacity:1;stroke-miterlimit:10;" d="M 0.854531 0.0818359 L 0.172734 0.0454687 L 0.145469 0.9 L 0.827266 0.954531 Z M 0.854531 0.0818359 " transform="matrix(100,0,0,100,600,1100)"/>
<path style="fill:none;stroke-width:0.01;stroke-linecap:butt;stroke-linejoin:miter;stroke:rgb(0%,0%,0%);stroke-opacity:1;stroke-miterlimit:10;" d="M 0.0629297 0.412578 L 0.0454688 0.569922 L 0.93707 0.587422 L 0.954531 0.430078 Z M 0.0629297 0.412578 " transform="matrix(100,0,0,100,0,1250)"/>
<path style="fill:none;stroke-width:0.01;stroke-linecap:butt;stroke-linejoin:miter;stroke:rgb(0%,0%,0%);stroke-opacity:1;stroke-miterlimit:10;" d="M 0.0454687 0.405664 L 0.0454687 0.542891 L 0.954531 0.594336 L 0.954531 0.422813 Z M 0.0454687 0.405664 " transform="matrix(100,0,0,100,150,1250)"/>
<path style="fill:none;stroke-width:0.01;stroke-linecap:butt;stroke-linejoin:miter;stroke:rgb(0%,0%,0%);stroke-opacity:1;stroke-miterlimit:10;" d="M 0.0616797 0.183438 L 0.0454687 0.767852 L 0.954531 0.816562 L 0.954531 0.199687 Z M 0.0616797 0.183438 " transform="matrix(100,0,0,100,300,1250)"/>
<path style="fill:none;stroke-width:0.01;stroke-linecap:butt;stroke-linejoin:miter;stroke:rgb(0%,0%,0%);stroke-opacity:1;stroke-miterlimit:10;" d="M 0.0454688 0.209102 L 0.0636328 0.790898 L 0.936367 0.809102 L 0.954531 0.190898 Z M 0.0454688 0.209102 " transform="matrix(100,0,0,100,450,1250)"/>
<path style="fill:none;stroke-width:0.01;stroke-linecap:butt;stroke-linejoin:miter;stroke:rgb(0%,0%,0%);stroke-opacity:1;stroke-miterlimit:10;" d="M 0.0454688 0.326211 L 0.0454688 0.64707 L 0.954531 0.673789 L 0.954531 0.35293 Z M 0.0454688 0.326211 " transform="matrix(100,0,0,100,600,1250)"/>
<path style="fill:none;stroke-width:0.01;stroke-linecap:butt;stroke-linejoin:miter;stroke:rgb(0%,0%,0%);stroke-opacity:1;stroke-miterlimit:10;" d="M 0.941172 0.673789 L 0.0454688 0.64707 L 0.0588281 0.326211 L 0.954531 0.33957 Z M 0.941172 0.673789 " transform="matrix(100,0,0,100,0,1400)"/>
<path style="fill:none;stroke-width:0.01;stroke-linecap:butt;stroke-linejoin:miter;stroke:rgb(0%,0%,0%);stroke-opacity:1;stroke-miterlimit:10;" d="M 0.667969 0.0454687 L 0.351797 0.0652344 L 0.332031 0.954531 L 0.648203 0.954531 Z M 0.667969 0.0454687 " transform="matrix(100,0,0,100,150,1400)"/>
<path style="fill:none;stroke-width:0.01;stroke-linecap:butt;stroke-linejoin:miter;stroke:rgb(0%,0%,0%);stroke-opacity:1;stroke-miterlimit:10;" d="M 0.663633 0.0636328 L 0.354531 0.0454687 L 0.336367 0.954531 L 0.663633 0.954531 Z M 0.663633 0.0636328 " transform="matrix(100,0,0,100,300,1400)"/>
<path style="fill:none;stroke-width:0.01;stroke-linecap:butt;stroke-linejoin:miter;stroke:rgb(0%,0%,0%);stroke-opacity:1;stroke-miterlimit:10;" d="M 0.0454688 0.151172 L 0.108867 0.869961 L 0.954531 0.848828 L 0.954531 0.130039 Z M 0.0454688 0.151172 " transform="matrix(100,0,0,100,450,1400)"/>
<path style="fill:none;stroke-width:0.01;stroke-linecap:butt;stroke-linejoin:miter;stroke:rgb(0%,0%,0%);stroke-opacity:1;stroke-miterlimit:10;" d="M 0.759727 0.0454687 L 0.175313 0.0671094 L 0.283555 0.932891 L 0.824688 0.954531 Z M 0.759727 0.0454687 " transform="matrix(100,0,0,100,600,1400)"/>
<path style="fill:none;stroke-width:0.01;stroke-linecap:butt;stroke-linejoin:miter;stroke:rgb(0%,0%,0%);stroke-opacity:1;stroke-miterlimit:10;" d="M 0.926563 0.0804297 L 0.0454688 0.0944141 L 0.129375 0.91957 L 0.926563 0.905586 L 0.954531 0.122383 Z M 0.926563 0.0804297 " transform="matrix(100,0,0,100,0,1550)"/>
<path style="fill:none;stroke-width:0.01;stroke-linecap:butt;stroke-linejoin:miter;stroke:rgb(0%,0%,0%);stroke-opacity:1;stroke-miterlimit:10;" d="M 0.406406 0.0588281 L 0.232617 0.941172 L 0.687148 0.954531 L 0.767383 0.0454687 Z M 0.406406 0.0588281 " transform="matrix(100,0,0,100,150,1550)"/>
<path style="fill:none;stroke-width:0.01;stroke-linecap:butt;stroke-linejoin:miter;stroke:rgb(0%,0%,0%);stroke-opacity:1;stroke-miterlimit:10;" d="M 0.383711 0.0454687 L 0.172305 0.954531 L 0.764258 0.954531 L 0.827695 0.0454687 Z M 0.383711 0.0454687 " transform="matrix(100,0,0,100,300,1550)"/>
<path style="fill:none;stroke-width:0.01;stroke-linecap:butt;stroke-linejoin:miter;stroke:rgb(0%,0%,0%);stroke-opacity:1;stroke-miterlimit:10;" d="M 0.651523 0.0454687 L 0.348477 0.0454687 L 0.348477 0.920859 L 0.651523 0.954531 Z M 0.651523 0.0454687 " transform="matrix(100,0,0,100,450,1550)"/>
<path style="fill:none;stroke-width:0.01;stroke-linecap:butt;stroke-linejoin:miter;stroke:rgb(0%,0%,0%);stroke-opacity:1;stroke-miterlimit:10;" d="M 0.658398 0.0454687 L 0.520664 0.100547 L 0.438008 0.183203 L 0.410469 0.238281 L 0.38293 0.307148 L 0.355391 0.389805 L 0.341602 0.486211 L 0.355391 0.568867 L 0.369141 0.665273 L 0.410469 0.761719 L 0.479336 0.858125 L 0.575742 0.926992 L 0.658398 0.954531 Z M 0.658398 0.0454687 " transform="matrix(100,0,0,100,600,1550)"/>
<path style="fill:none;stroke-width:0.01;stroke-linecap:butt;stroke-linejoin:miter;stroke:rgb(0%,0%,0%);stroke-opacity:1;stroke-miterlimit:10;" d="M 0.954531 0.382148 L 0.0454688 0.382148 L 0.0454688 0.617852 L 0.954531 0.617852 Z M 0.954531 0.382148 " transform="matrix(100,0,0,100,0,1700)"/>
<path style="fill:none;stroke-width:0.01;stroke-linecap:butt;stroke-linejoin:miter;stroke:rgb(0%,0%,0%);stroke-opacity:1;stroke-miterlimit:10;" d="M 0.521641 0.08875 L 0.218633 0.391758 L 0.218633 0.608242 L 0.261914 0.824687 L 0.435078 0.867969 L 0.651523 0.954531 L 0.781367 0.0454688 Z M 0.521641 0.08875 " transform="matrix(100,0,0,100,150,1700)"/>
<path style="fill:none;stroke-width:0.01;stroke-linecap:butt;stroke-linejoin:miter;stroke:rgb(0%,0%,0%);stroke-opacity:1;stroke-miterlimit:10;" d="M 0.820859 0.0454688 L 0.553477 0.0989453 L 0.393047 0.205898 L 0.232617 0.366328 L 0.179141 0.580195 L 0.286094 0.794102 L 0.606953 0.954531 L 0.820859 0.954531 Z M 0.820859 0.0454688 " transform="matrix(100,0,0,100,300,1700)"/>
<path style="fill:none;stroke-width:0.01;stroke-linecap:butt;stroke-linejoin:miter;stroke:rgb(0%,0%,0%);stroke-opacity:1;stroke-miterlimit:10;" d="M 0.884609 0.0454688 L 0.674844 0.115391 L 0.325156 0.185313 L 0.255234 0.395117 L 0.185313 0.534961 L 0.115391 0.674844 L 0.185313 0.814688 L 0.395117 0.954531 L 0.744766 0.954531 Z M 0.884609 0.0454688 " transform="matrix(100,0,0,100,450,1700)"/>
<path style="fill:none;stroke-width:0.01;stroke-linecap:butt;stroke-linejoin:miter;stroke:rgb(0%,0%,0%);stroke-opacity:1;stroke-miterlimit:10;" d="M 0.954531 0.0454688 L 0.550508 0.0454688 L 0.348477 0.146445 L 0.146445 0.247461 L 0.0454688 0.449492 L 0.146445 0.752539 L 0.348477 0.853555 L 0.752539 0.954531 L 0.954531 0.954531 Z M 0.954531 0.0454688 " transform="matrix(100,0,0,100,600,1700)"/>
<path style="fill:none;stroke-width:0.01;stroke-linecap:butt;stroke-linejoin:miter;stroke:rgb(0%,0%,0%);stroke-opacity:1;stroke-miterlimit:10;" d="M 0.345273 0.954531 L 0.616055 0.954531 L 0.654727 0.0454688 L 0.403281 0.0648047 Z M 0.345273 0.954531 " transform="matrix(100,0,0,100,0,1850)"/>
<path style="fill:none;stroke-width:0.01;stroke-linecap:butt;stroke-linejoin:miter;stroke:rgb(0%,0%,0%);stroke-opacity:1;stroke-miterlimit:10;" d="M 0.378789 0.0454688 L 0.661602 0.0454688 L 0.601016 0.954531 L 0.338398 0.934336 Z M 0.378789 0.0454688 " transform="matrix(100,0,0,100,150,1850)"/>
<path style="fill:none;stroke-width:0.01;stroke-linecap:butt;stroke-linejoin:miter;stroke:rgb(0%,0%,0%);stroke-opacity:1;stroke-miterlimit:10;" d="M 0.588711 0.0676172 L 0.322617 0.289375 L 0.30043 0.732813 L 0.477813 0.954531 L 0.610859 0.932383 L 0.69957 0.0454688 Z M 0.588711 0.0676172 " transform="matrix(100,0,0,100,300,1850)"/>
<path style="fill:none;stroke-width:0.01;stroke-linecap:butt;stroke-linejoin:miter;stroke:rgb(0%,0%,0%);stroke-opacity:1;stroke-miterlimit:10;" d="M 0.860508 0.0454688 L 0.170859 0.0454688 L 0.139492 0.954531 L 0.860508 0.954531 Z M 0.860508 0.0454688 " transform="matrix(100,0,0,100,450,1850)"/>
<path style="fill:none;stroke-width:0.01;stroke-linecap:butt;stroke-linejoin:miter;stroke:rgb(0%,0%,0%);stroke-opacity:1;stroke-miterlimit:10;" d="M 0.820859 0.0454688 L 0.205898 0.0454688 L 0.179141 0.927813 L 0.794102 0.954531 Z M 0.820859 0.0454688 " transform="matrix(100,0,0,100,600,1850)"/>
<path style="fill:none;stroke-width:0.01;stroke-linecap:butt;stroke-linejoin:miter;stroke:rgb(0%,0%,0%);stroke-opacity:1;stroke-miterlimit:10;" d="M 0.1925 0.0721875 L 0.1925 0.954531 L 0.8075 0.954531 L 0.8075 0.0454688 Z M 0.1925 0.0721875 " transform="matrix(100,0,0,100,0,2000)"/>
<path style="fill:none;stroke-width:0.01;stroke-linecap:butt;stroke-linejoin:miter;stroke:rgb(0%,0%,0%);stroke-opacity:1;stroke-miterlimit:10;" d="M 0.8075 0.0454688 L 0.219258 0.0454688 L 0.1925 0.927813 L 0.8075 0.954531 Z M 0.8075 0.0454688 " transform="matrix(100,0,0,100,150,2000)"/>
<path style="fill:none;stroke-width:0.01;stroke-linecap:butt;stroke-linejoin:miter;stroke:rgb(0%,0%,0%);stroke-opacity:1;stroke-miterlimit:10;" d="M 0.954531 0.16668 L 0.0454687 0.196953 L 0.0454687 0.83332 L 0.924258 0.83332 Z M 0.954531 0.16668 " transform="matrix(100,0,0,100,300,2000)"/>
<path style="fill:none;stroke-width:0.01;stroke-linecap:butt;stroke-linejoin:miter;stroke:rgb(0%,0%,0%);stroke-opacity:1;stroke-miterlimit:10;" d="M 0.405938 0.0454688 L 0.374609 0.954531 L 0.594062 0.954531 L 0.625391 0.0767969 Z M 0.405938 0.0454688 " transform="matrix(100,0,0,100,450,2000)"/>
<path style="fill:none;stroke-width:0.01;stroke-linecap:butt;stroke-linejoin:miter;stroke:rgb(0%,0%,0%);stroke-opacity:1;stroke-miterlimit:10;" d="M 0.821953 0.0454688 L 0.178047 0.0833203 L 0.178047 0.954531 L 0.784102 0.954531 Z M 0.821953 0.0454688 " transform="matrix(100,0,0,100,600,2000)"/>
<path style="fill:none;stroke-width:0.01;stroke-linecap:butt;stroke-linejoin:miter;stroke:rgb(0%,0%,0%);stroke-opacity:1;stroke-miterlimit:10;" d="M 0.954531 0.125664 L 0.0454688 0.179141 L 0.0454688 0.874336 L 0.954531 0.874336 Z M 0.954531 0.125664 " transform="matrix(100,0,0,100,0,2150)"/>
<path style="fill:none;stroke-width:0.01;stroke-linecap:butt;stroke-linejoin:miter;stroke:rgb(0%,0%,0%);stroke-opacity:1;stroke-miterlimit:10;" d="M 0.692852 0.0454688 L 0.307148 0.0730078 L 0.307148 0.954531 L 0.692852 0.926992 Z M 0.692852 0.0454688 " transform="matrix(100,0,0,100,150,2150)"/>
<path style="fill:none;stroke-width:0.01;stroke-linecap:butt;stroke-linejoin:miter;stroke:rgb(0%,0%,0%);stroke-opacity:1;stroke-miterlimit:10;" d="M 0.678555 0.954531 L 0.256484 0.954531 L 0.288945 0.0454688 L 0.743516 0.0454688 Z M 0.678555 0.954531 " transform="matrix(100,0,0,100,300,2150)"/>
<path style="fill:none;stroke-width:0.01;stroke-linecap:butt;stroke-linejoin:miter;stroke:rgb(0%,0%,0%);stroke-opacity:1;stroke-miterlimit:10;" d="M 0.289375 0.0898047 L 0.296758 0.89543 L 0.695859 0.954531 L 0.710625 0.0454688 Z M 0.289375 0.0898047 " transform="matrix(100,0,0,100,450,2150)"/>
<path style="fill:none;stroke-width:0.01;stroke-linecap:butt;stroke-linejoin:miter;stroke:rgb(0%,0%,0%);stroke-opacity:1;stroke-miterlimit:10;" d="M 0.91 0.954531 L 0.161328 0.936719 L 0.09 0.0454688 L 0.91 0.0632812 Z M 0.91 0.954531 " transform="matrix(100,0,0,100,600,2150)"/>
<path style="fill:none;stroke-width:0.01;stroke-linecap:butt;stroke-linejoin:miter;stroke:rgb(0%,0%,0%);stroke-opacity:1;stroke-miterlimit:10;" d="M 0.0454688 0.710625 L 0.0565234 0.256094 L 0.954531 0.267188 L 0.954531 0.743906 Z M 0.0454688 0.710625 " transform="matrix(100,0,0,100,0,2300)"/>
<path style="fill:none;stroke-width:0.01;stroke-linecap:butt;stroke-linejoin:miter;stroke:rgb(0%,0%,0%);stroke-opacity:1;stroke-miterlimit:10;" d="M 0.57207 0.0454688 L 0.416836 0.0454688 L 0.42793 0.954531 L 0.583164 0.954531 Z M 0.57207 0.0454688 " transform="matrix(100,0,0,100,150,2300)"/>
<path style="fill:none;stroke-width:0.01;stroke-linecap:butt;stroke-linejoin:miter;stroke:rgb(0%,0%,0%);stroke-opacity:1;stroke-miterlimit:10;" d="M 0.743281 0.0454688 L 0.256719 0.0838672 L 0.269531 0.954531 L 0.704883 0.941758 Z M 0.743281 0.0454688 " transform="matrix(100,0,0,100,300,2300)"/>
<path style="fill:none;stroke-width:0.01;stroke-linecap:butt;stroke-linejoin:miter;stroke:rgb(0%,0%,0%);stroke-opacity:1;stroke-miterlimit:10;" d="M 0.730586 0.954531 L 0.269414 0.954531 L 0.269414 0.0454688 L 0.691055 0.0454688 L 0.704219 0.308945 L 0.704219 0.519766 L 0.730586 0.74375 Z M 0.730586 0.954531 " transform="matrix(100,0,0,100,450,2300)"/>
<path style="fill:none;stroke-width:0.01;stroke-linecap:butt;stroke-linejoin:miter;stroke:rgb(0%,0%,0%);stroke-opacity:1;stroke-miterlimit:10;" d="M 0.713086 0.0454688 L 0.173281 0.0454688 L 0.159102 0.286914 L 0.315352 0.897734 L 0.840898 0.954531 L 0.798281 0.798281 L 0.755664 0.542617 L 0.741484 0.301133 Z M 0.713086 0.0454688 " transform="matrix(100,0,0,100,600,2300)"/>
<path style="fill:none;stroke-width:0.01;stroke-linecap:butt;stroke-linejoin:miter;stroke:rgb(0%,0%,0%);stroke-opacity:1;stroke-miterlimit:10;" d="M 0.797188 0.298945 L 0.0454688 0.333906 L 0.0629297 0.368867 L 0.150352 0.473789 L 0.255234 0.561172 L 0.447539 0.631133 L 0.569922 0.666094 L 0.814688 0.701055 L 0.954531 0.701055 Z M 0.797188 0.298945 " transform="matrix(100,0,0,100,0,2450)"/>
<path style="fill:none;stroke-width:0.01;stroke-linecap:butt;stroke-linejoin:miter;stroke:rgb(0%,0%,0%);stroke-opacity:1;stroke-miterlimit:10;" d="M 0.954531 0.732422 L 0.871914 0.742773 L 0.768594 0.742773 L 0.634297 0.711758 L 0.520664 0.680781 L 0.39668 0.618789 L 0.283047 0.567148 L 0.20043 0.494844 L 0.14875 0.453516 L 0.0867578 0.401875 L 0.0557813 0.360547 L 0.0454687 0.277891 L 0.355391 0.257227 L 0.417344 0.329531 L 0.5 0.391523 L 0.592969 0.443164 L 0.696289 0.463828 L 0.79957 0.47418 L 0.902891 0.484492 Z M 0.954531 0.732422 " transform="matrix(100,0,0,100,150,2450)"/>
<path style="fill:none;stroke-width:0.01;stroke-linecap:butt;stroke-linejoin:miter;stroke:rgb(0%,0%,0%);stroke-opacity:1;stroke-miterlimit:10;" d="M 0.954531 0.7775 L 0.887578 0.78707 L 0.753594 0.7775 L 0.600469 0.758359 L 0.437813 0.700938 L 0.37082 0.681836 L 0.236836 0.624414 L 0.150703 0.576563 L 0.0741797 0.538281 L 0.0550391 0.528711 L 0.0454687 0.21293 L 0.141133 0.299063 L 0.227266 0.366016 L 0.322969 0.423438 L 0.399531 0.471289 L 0.504766 0.50957 L 0.62918 0.547852 L 0.724883 0.566992 L 0.878008 0.566992 L 0.90668 0.557422 Z M 0.954531 0.7775 " transform="matrix(100,0,0,100,300,2450)"/>
<path style="fill:none;stroke-width:0.01;stroke-linecap:butt;stroke-linejoin:miter;stroke:rgb(0%,0%,0%);stroke-opacity:1;stroke-miterlimit:10;" d="M 0.0818359 0.372734 L 0.445469 0.736367 L 0.590898 0.845469 L 0.7 0.881836 L 0.845469 0.954531 L 0.918164 0.954531 L 0.663633 0.0454688 L 0.518164 0.0818359 L 0.336367 0.0818359 L 0.227266 0.118164 L 0.154531 0.190898 Z M 0.0818359 0.372734 " transform="matrix(100,0,0,100,450,2450)"/>
<path style="fill:none;stroke-width:0.01;stroke-linecap:butt;stroke-linejoin:miter;stroke:rgb(0%,0%,0%);stroke-opacity:1;stroke-miterlimit:10;" d="M 0.0454688 0.445234 L 0.0564063 0.554766 L 0.954531 0.543828 L 0.954531 0.445234 Z M 0.0454688 0.445234 " transform="matrix(100,0,0,100,600,2450)"/>
<path style="fill:none;stroke-width:0.01;stroke-linecap:butt;stroke-linejoin:miter;stroke:rgb(0%,0%,0%);stroke-opacity:1;stroke-miterlimit:10;" d="M 0.0454688 0.441875 L 0.0454688 0.558125 L 0.954531 0.526445 L 0.954531 0.441875 Z M 0.0454688 0.441875 " transform="matrix(100,0,0,100,0,2600)"/>
<path style="fill:none;stroke-width:0.01;stroke-linecap:butt;stroke-linejoin:miter;stroke:rgb(0%,0%,0%);stroke-opacity:1;stroke-miterlimit:10;" d="M 0.0454687 0.465039 L 0.0654297 0.574922 L 0.954531 0.554961 L 0.954531 0.425078 Z M 0.0454687 0.465039 " transform="matrix(100,0,0,100,150,2600)"/>
<path style="fill:none;stroke-width:0.01;stroke-linecap:butt;stroke-linejoin:miter;stroke:rgb(0%,0%,0%);stroke-opacity:1;stroke-miterlimit:10;" d="M 0.90793 0.06875 L 0.0454687 0.0454688 L 0.0920703 0.90793 L 0.954531 0.954531 Z M 0.90793 0.06875 " transform="matrix(100,0,0,100,300,2600)"/>
<path style="fill:none;stroke-width:0.01;stroke-linecap:butt;stroke-linejoin:miter;stroke:rgb(0%,0%,0%);stroke-opacity:1;stroke-miterlimit:10;" d="M 0.459766 0.670469 L 0.459766 0.741484 L 0.464492 0.803047 L 0.464492 0.86457 L 0.469219 0.907187 L 0.469219 0.935625 L 0.473945 0.954531 L 0.540234 0.954531 L 0.535508 0.926133 L 0.530781 0.869336 L 0.530781 0.646797 L 0.526055 0.419492 L 0.530781 0.234844 L 0.535508 0.182773 L 0.535508 0.130664 L 0.545 0.0880859 L 0.540234 0.0549219 L 0.545 0.0454688 L 0.478711 0.0501953 L 0.469219 0.0880859 L 0.464492 0.168555 L 0.459766 0.225391 L 0.459766 0.305859 L 0.455 0.376875 L 0.455 0.462109 L 0.459766 0.537891 L 0.455 0.589961 Z M 0.459766 0.670469 " transform="matrix(100,0,0,100,450,2600)"/>
<path style="fill:none;stroke-width:0.01;stroke-linecap:butt;stroke-linejoin:miter;stroke:rgb(0%,0%,0%);stroke-opacity:1;stroke-miterlimit:10;" d="M 0.455469 0.743672 L 0.460156 0.809297 L 0.464844 0.86082 L 0.469531 0.907695 L 0.478906 0.945156 L 0.535156 0.954531 L 0.535156 0.926445 L 0.525781 0.865508 L 0.521094 0.757734 L 0.516406 0.659336 L 0.516406 0.368789 L 0.521094 0.298516 L 0.521094 0.228203 L 0.530469 0.153242 L 0.535156 0.0969922 L 0.544531 0.0688672 L 0.549219 0.0454688 L 0.483594 0.0501563 L 0.478906 0.0735547 L 0.464844 0.13918 L 0.460156 0.218828 L 0.455469 0.303203 L 0.450781 0.396914 L 0.450781 0.626523 Z M 0.455469 0.743672 " transform="matrix(100,0,0,100,600,2600)"/>
<path style="fill:none;stroke-width:0.01;stroke-linecap:butt;stroke-linejoin:miter;stroke:rgb(0%,0%,0%);stroke-opacity:1;stroke-miterlimit:10;" d="M 0.451914 0.709219 L 0.461523 0.810234 L 0.471133 0.867969 L 0.490391 0.916055 L 0.5 0.944922 L 0.548086 0.954531 L 0.543281 0.916055 L 0.528867 0.858359 L 0.519258 0.766953 L 0.514414 0.675547 L 0.509609 0.569727 L 0.509609 0.449492 L 0.514414 0.338867 L 0.514414 0.266719 L 0.519258 0.228242 L 0.524062 0.160898 L 0.538477 0.0983594 L 0.552891 0.0454688 L 0.490391 0.0502734 L 0.475938 0.0742969 L 0.466328 0.132031 L 0.456719 0.208984 L 0.447109 0.324453 L 0.447109 0.651523 Z M 0.451914 0.709219 " transform="matrix(100,0,0,100,0,2750)"/>
<path style="fill:none;stroke-width:0.01;stroke-linecap:butt;stroke-linejoin:miter;stroke:rgb(0%,0%,0%);stroke-opacity:1;stroke-miterlimit:10;" d="M 0.0454687 0.229727 L 0.16832 0.794844 L 0.954531 0.770273 L 0.88082 0.205156 Z M 0.0454687 0.229727 " transform="matrix(100,0,0,100,150,2750)"/>
<path style="fill:none;stroke-width:0.01;stroke-linecap:butt;stroke-linejoin:miter;stroke:rgb(0%,0%,0%);stroke-opacity:1;stroke-miterlimit:10;" d="M 0.0454687 0.266602 L 0.192891 0.733398 L 0.954531 0.733398 L 0.85625 0.266602 Z M 0.0454687 0.266602 " transform="matrix(100,0,0,100,300,2750)"/>
<path style="fill:none;stroke-width:0.01;stroke-linecap:butt;stroke-linejoin:miter;stroke:rgb(0%,0%,0%);stroke-opacity:1;stroke-miterlimit:10;" d="M 0.627266 0.0454688 L 0.336367 0.0454688 L 0.336367 0.954531 L 0.663633 0.954531 Z M 0.627266 0.0454688 " transform="matrix(100,0,0,100,450,2750)"/>
<path style="fill:none;stroke-width:0.01;stroke-linecap:butt;stroke-linejoin:miter;stroke:rgb(0%,0%,0%);stroke-opacity:1;stroke-miterlimit:10;" d="M 0.365312 0.0454688 L 0.365312 0.954531 L 0.634688 0.954531 L 0.634688 0.0454688 Z M 0.365312 0.0454688 " transform="matrix(100,0,0,100,600,2750)"/>
<path style="fill:none;stroke-width:0.01;stroke-linecap:butt;stroke-linejoin:miter;stroke:rgb(0%,0%,0%);stroke-opacity:1;stroke-miterlimit:10;" d="M 0.377617 0.263984 L 0.255234 0.316445 L 0.167852 0.368867 L 0.0978906 0.438828 L 0.0629297 0.50875 L 0.0454688 0.596172 L 0.0804297 0.648594 L 0.115391 0.718516 L 0.237773 0.770977 L 0.954531 0.736016 L 0.93707 0.229023 Z M 0.377617 0.263984 " transform="matrix(100,0,0,100,0,2900)"/>
<path style="fill:none;stroke-width:0.01;stroke-linecap:butt;stroke-linejoin:miter;stroke:rgb(0%,0%,0%);stroke-opacity:1;stroke-miterlimit:10;" d="M 0.409102 0.25207 L 0.276875 0.285117 L 0.161172 0.35125 L 0.0785156 0.417344 L 0.0454687 0.5 L 0.0454687 0.582656 L 0.0950391 0.665273 L 0.177695 0.731406 L 0.276875 0.74793 L 0.392578 0.764453 L 0.954531 0.764453 L 0.954531 0.235547 Z M 0.409102 0.25207 " transform="matrix(100,0,0,100,150,2900)"/>
<path style="fill:none;stroke-width:0.01;stroke-linecap:butt;stroke-linejoin:miter;stroke:rgb(0%,0%,0%);stroke-opacity:1;stroke-miterlimit:10;" d="M 0.633672 0.0454688 L 0.419805 0.205898 L 0.312852 0.312852 L 0.259375 0.580195 L 0.312852 0.794102 L 0.526719 0.901055 L 0.740625 0.954531 Z M 0.633672 0.0454688 " transform="matrix(100,0,0,100,300,2900)"/>
<path style="fill:none;stroke-width:0.01;stroke-linecap:butt;stroke-linejoin:miter;stroke:rgb(0%,0%,0%);stroke-opacity:1;stroke-miterlimit:10;" d="M 0.0454688 0.247461 L 0.0454688 0.803047 L 0.954531 0.803047 L 0.954531 0.196953 Z M 0.0454688 0.247461 " transform="matrix(100,0,0,100,450,2900)"/>
<path style="fill:none;stroke-width:0.01;stroke-linecap:butt;stroke-linejoin:miter;stroke:rgb(0%,0%,0%);stroke-opacity:1;stroke-miterlimit:10;" d="M 0.954531 0.247461 L 0.0454688 0.247461 L 0.0454688 0.752539 L 0.954531 0.752539 Z M 0.954531 0.247461 " transform="matrix(100,0,0,100,600,2900)"/>
<path style="fill:none;stroke-width:0.01;stroke-linecap:butt;stroke-linejoin:miter;stroke:rgb(0%,0%,0%);stroke-opacity:1;stroke-miterlimit:10;" d="M 0.954531 0.236836 L 0.0454688 0.236836 L 0.0454688 0.763164 L 0.954531 0.763164 Z M 0.954531 0.236836 " transform="matrix(100,0,0,100,0,3050)"/>
<path style="fill:none;stroke-width:0.01;stroke-linecap:butt;stroke-linejoin:miter;stroke:rgb(0%,0%,0%);stroke-opacity:1;stroke-miterlimit:10;" d="M 0.954531 0.1875 L 0.0454687 0.1875 L 0.0454687 0.8125 L 0.954531 0.755664 Z M 0.954531 0.1875 " transform="matrix(100,0,0,100,150,3050)"/>
<path style="fill:none;stroke-width:0.01;stroke-linecap:butt;stroke-linejoin:miter;stroke:rgb(0%,0%,0%);stroke-opacity:1;stroke-miterlimit:10;" d="M 0.954531 0.177031 L 0.069375 0.200938 L 0.0454687 0.822969 L 0.954531 0.822969 Z M 0.954531 0.177031 " transform="matrix(100,0,0,100,300,3050)"/>
<path style="fill:none;stroke-width:0.01;stroke-linecap:butt;stroke-linejoin:miter;stroke:rgb(0%,0%,0%);stroke-opacity:1;stroke-miterlimit:10;" d="M 0.954531 0.180586 L 0.0454688 0.180586 L 0.0454688 0.819414 L 0.954531 0.819414 Z M 0.954531 0.180586 " transform="matrix(100,0,0,100,450,3050)"/>
<path style="fill:none;stroke-width:0.01;stroke-linecap:butt;stroke-linejoin:miter;stroke:rgb(0%,0%,0%);stroke-opacity:1;stroke-miterlimit:10;" d="M 0.954531 0.180586 L 0.0454688 0.180586 L 0.0454688 0.819414 L 0.954531 0.819414 Z M 0.954531 0.180586 " transform="matrix(100,0,0,100,600,3050)"/>
<path style="fill:none;stroke-width:0.01;stroke-linecap:butt;stroke-linejoin:miter;stroke:rgb(0%,0%,0%);stroke-opacity:1;stroke-miterlimit:10;" d="M 0.954531 0.205156 L 0.0454688 0.205156 L 0.0454688 0.794844 L 0.954531 0.794844 Z M 0.954531 0.205156 " transform="matrix(100,0,0,100,0,3200)"/>
<path style="fill:none;stroke-width:0.01;stroke-linecap:butt;stroke-linejoin:miter;stroke:rgb(0%,0%,0%);stroke-opacity:1;stroke-miterlimit:10;" d="M 0.931836 0.784102 L 0.0454687 0.784102 L 0.0908984 0.215898 L 0.954531 0.215898 Z M 0.931836 0.784102 " transform="matrix(100,0,0,100,150,3200)"/>
<path style="fill:none;stroke-width:0.01;stroke-linecap:butt;stroke-linejoin:miter;stroke:rgb(0%,0%,0%);stroke-opacity:1;stroke-miterlimit:10;" d="M 0.400586 0.0454687 L 0.400586 0.954531 L 0.571016 0.954531 L 0.599414 0.0738672 Z M 0.400586 0.0454687 " transform="matrix(100,0,0,100,300,3200)"/>
<path style="fill:none;stroke-width:0.01;stroke-linecap:butt;stroke-linejoin:miter;stroke:rgb(0%,0%,0%);stroke-opacity:1;stroke-miterlimit:10;" d="M 0.363633 0.0454687 L 0.409102 0.954531 L 0.636367 0.954531 L 0.636367 0.0908984 Z M 0.363633 0.0454687 " transform="matrix(100,0,0,100,450,3200)"/>
<path style="fill:none;stroke-width:0.01;stroke-linecap:butt;stroke-linejoin:miter;stroke:rgb(0%,0%,0%);stroke-opacity:1;stroke-miterlimit:10;" d="M 0.0454688 0.331641 L 0.0791406 0.668359 L 0.954531 0.651523 L 0.937695 0.331641 Z M 0.0454688 0.331641 " transform="matrix(100,0,0,100,600,3200)"/>
<path style="fill:none;stroke-width:0.01;stroke-linecap:butt;stroke-linejoin:miter;stroke:rgb(0%,0%,0%);stroke-opacity:1;stroke-miterlimit:10;" d="M 0.0454688 0.279414 L 0.0855469 0.50668 L 0.0855469 0.720586 L 0.954531 0.720586 L 0.954531 0.49332 L 0.941172 0.386367 L 0.954531 0.279414 Z M 0.0454688 0.279414 " transform="matrix(100,0,0,100,0,3350)"/>
<path style="fill:none;stroke-width:0.01;stroke-linecap:butt;stroke-linejoin:miter;stroke:rgb(0%,0%,0%);stroke-opacity:1;stroke-miterlimit:10;" d="M 0.0454687 0.337031 L 0.0797656 0.645781 L 0.954531 0.662969 L 0.937383 0.337031 Z M 0.0454687 0.337031 " transform="matrix(100,0,0,100,150,3350)"/>
<path style="fill:none;stroke-width:0.01;stroke-linecap:butt;stroke-linejoin:miter;stroke:rgb(0%,0%,0%);stroke-opacity:1;stroke-miterlimit:10;" d="M 0.0454687 0.123047 L 0.0454687 0.876953 L 0.954531 0.899102 L 0.910195 0.100898 Z M 0.0454687 0.123047 " transform="matrix(100,0,0,100,300,3350)"/>
<path style="fill:none;stroke-width:0.01;stroke-linecap:butt;stroke-linejoin:miter;stroke:rgb(0%,0%,0%);stroke-opacity:1;stroke-miterlimit:10;" d="M 0.763164 0.78707 L 0.0454688 0.834922 L 0.236836 0.165078 L 0.954531 0.165078 Z M 0.763164 0.78707 " transform="matrix(100,0,0,100,450,3350)"/>
<path style="fill:none;stroke-width:0.01;stroke-linecap:butt;stroke-linejoin:miter;stroke:rgb(0%,0%,0%);stroke-opacity:1;stroke-miterlimit:10;" d="M 0.646641 0.250742 L 0.763945 0.954531 L 0.353359 0.925234 L 0.236055 0.0747656 L 0.646641 0.0454687 Z M 0.646641 0.250742 " transform="matrix(100,0,0,100,600,3350)"/>
<path style="fill:none;stroke-width:0.01;stroke-linecap:butt;stroke-linejoin:miter;stroke:rgb(0%,0%,0%);stroke-opacity:1;stroke-miterlimit:10;" d="M 0.744766 0.325156 L 0.814688 0.954531 L 0.360156 0.954531 L 0.185312 0.0454687 L 0.674844 0.0804297 Z M 0.744766 0.325156 " transform="matrix(100,0,0,100,0,3500)"/>
<path style="fill:none;stroke-width:0.01;stroke-linecap:butt;stroke-linejoin:miter;stroke:rgb(0%,0%,0%);stroke-opacity:1;stroke-miterlimit:10;" d="M 0.538945 0.123359 L 0.655859 0.81168 L 0.616875 0.863633 L 0.590898 0.954531 L 0.525977 0.954531 L 0.344141 0.0584375 L 0.525977 0.0454687 Z M 0.538945 0.123359 " transform="matrix(100,0,0,100,150,3500)"/>
<path style="fill:none;stroke-width:0.01;stroke-linecap:butt;stroke-linejoin:miter;stroke:rgb(0%,0%,0%);stroke-opacity:1;stroke-miterlimit:10;" d="M 0.619609 0.811016 L 0.78707 0.0933203 L 0.5 0.0454687 L 0.452148 0.069375 L 0.21293 0.954531 L 0.595703 0.954531 Z M 0.619609 0.811016 " transform="matrix(100,0,0,100,300,3500)"/>
<path style="fill:none;stroke-width:0.01;stroke-linecap:butt;stroke-linejoin:miter;stroke:rgb(0%,0%,0%);stroke-opacity:1;stroke-miterlimit:10;" d="M 0.0454688 0.286094 L 0.0632813 0.678242 L 0.936719 0.713906 L 0.954531 0.286094 Z M 0.0454688 0.286094 " transform="matrix(100,0,0,100,450,3500)"/>
<path style="fill:none;stroke-width:0.01;stroke-linecap:butt;stroke-linejoin:miter;stroke:rgb(0%,0%,0%);stroke-opacity:1;stroke-miterlimit:10;" d="M 0.0454688 0.684883 L 0.0454688 0.345898 L 0.954531 0.315117 L 0.939141 0.669492 Z M 0.0454688 0.684883 " transform="matrix(100,0,0,100,600,3500)"/>
<path style="fill:none;stroke-width:0.01;stroke-linecap:butt;stroke-linejoin:miter;stroke:rgb(0%,0%,0%);stroke-opacity:1;stroke-miterlimit:10;" d="M 0.954531 0.401172 L 0.0454688 0.401172 L 0.0454688 0.598828 L 0.954531 0.598828 Z M 0.954531 0.401172 " transform="matrix(100,0,0,100,0,3650)"/>
<path style="fill:none;stroke-width:0.01;stroke-linecap:butt;stroke-linejoin:miter;stroke:rgb(0%,0%,0%);stroke-opacity:1;stroke-miterlimit:10;" d="M 0.954531 0.16668 L 0.257578 0.16668 L 0.196953 0.227266 L 0.136367 0.318164 L 0.0757422 0.409102 L 0.0454687 0.5 L 0.0757422 0.590898 L 0.136367 0.681836 L 0.196953 0.772734 L 0.287891 0.83332 L 0.954531 0.83332 Z M 0.954531 0.16668 " transform="matrix(100,0,0,100,150,3650)"/>
<path style="fill:none;stroke-width:0.01;stroke-linecap:butt;stroke-linejoin:miter;stroke:rgb(0%,0%,0%);stroke-opacity:1;stroke-miterlimit:10;" d="M 0.670469 0.0454687 L 0.215898 0.272734 L 0.215898 0.613633 L 0.329531 0.840898 L 0.556836 0.954531 L 0.784102 0.954531 Z M 0.670469 0.0454687 " transform="matrix(100,0,0,100,300,3650)"/>
<path style="fill:none;stroke-width:0.01;stroke-linecap:butt;stroke-linejoin:miter;stroke:rgb(0%,0%,0%);stroke-opacity:1;stroke-miterlimit:10;" d="M 0.651523 0.0454687 L 0.348477 0.247461 L 0.247461 0.449492 L 0.247461 0.651523 L 0.449492 0.752539 L 0.651523 0.954531 L 0.752539 0.651523 Z M 0.651523 0.0454687 " transform="matrix(100,0,0,100,450,3650)"/>
<path style="fill:none;stroke-width:0.01;stroke-linecap:butt;stroke-linejoin:miter;stroke:rgb(0%,0%,0%);stroke-opacity:1;stroke-miterlimit:10;" d="M 0.706602 0.0454687 L 0.458672 0.293398 L 0.293398 0.541328 L 0.376016 0.706602 L 0.541328 0.871914 L 0.706602 0.954531 Z M 0.706602 0.0454687 " transform="matrix(100,0,0,100,600,3650)"/>
<path style="fill:none;stroke-width:0.01;stroke-linecap:butt;stroke-linejoin:miter;stroke:rgb(0%,0%,0%);stroke-opacity:1;stroke-miterlimit:10;" d="M 0.665273 0.0454687 L 0.334727 0.293398 L 0.25207 0.541328 L 0.334727 0.789258 L 0.5 0.954531 L 0.74793 0.954531 Z M 0.665273 0.0454687 " transform="matrix(100,0,0,100,0,3800)"/>
<path style="fill:none;stroke-width:0.01;stroke-linecap:butt;stroke-linejoin:miter;stroke:rgb(0%,0%,0%);stroke-opacity:1;stroke-miterlimit:10;" d="M 0.438008 0.0454687 L 0.438008 0.954531 L 0.561992 0.954531 L 0.561992 0.0867578 Z M 0.438008 0.0454687 " transform="matrix(100,0,0,100,150,3800)"/>
<path style="fill:none;stroke-width:0.01;stroke-linecap:butt;stroke-linejoin:miter;stroke:rgb(0%,0%,0%);stroke-opacity:1;stroke-miterlimit:10;" d="M 0.954531 0.388672 L 0.156758 0.407227 L 0.156758 0.462891 L 0.101094 0.462891 L 0.0454687 0.537109 L 0.0825781 0.592773 L 0.138203 0.592773 L 0.156758 0.611328 L 0.954531 0.611328 Z M 0.954531 0.388672 " transform="matrix(100,0,0,100,300,3800)"/>
<path style="fill:none;stroke-width:0.01;stroke-linecap:butt;stroke-linejoin:miter;stroke:rgb(0%,0%,0%);stroke-opacity:1;stroke-miterlimit:10;" d="M 0.758281 0.0454687 L 0.613633 0.0867578 L 0.489688 0.128086 L 0.427695 0.210742 L 0.345039 0.272734 L 0.283047 0.39668 L 0.241719 0.5 L 0.262383 0.623984 L 0.303711 0.74793 L 0.407031 0.85125 L 0.530977 0.933867 L 0.654961 0.954531 L 0.737617 0.954531 Z M 0.758281 0.0454687 " transform="matrix(100,0,0,100,450,3800)"/>
<path style="fill:none;stroke-width:0.01;stroke-linecap:butt;stroke-linejoin:miter;stroke:rgb(0%,0%,0%);stroke-opacity:1;stroke-miterlimit:10;" d="M 0.895898 0.236055 L 0.0454688 0.236055 L 0.0454688 0.529336 L 0.104102 0.617305 L 0.162773 0.705273 L 0.19207 0.763945 L 0.954531 0.734609 L 0.925234 0.587969 L 0.925234 0.470664 Z M 0.895898 0.236055 " transform="matrix(100,0,0,100,600,3800)"/>
<path style="fill:none;stroke-width:0.01;stroke-linecap:butt;stroke-linejoin:miter;stroke:rgb(0%,0%,0%);stroke-opacity:1;stroke-miterlimit:10;" d="M 0.954531 0.338711 L 0.221406 0.338711 L 0.162773 0.397344 L 0.104102 0.485352 L 0.0454688 0.661289 L 0.895898 0.631953 L 0.954531 0.57332 L 0.925234 0.543984 Z M 0.954531 0.338711 " transform="matrix(100,0,0,100,0,3950)"/>
<path style="fill:none;stroke-width:0.01;stroke-linecap:butt;stroke-linejoin:miter;stroke:rgb(0%,0%,0%);stroke-opacity:1;stroke-miterlimit:10;" d="M 0.92207 0.256484 L 0.110391 0.256484 L 0.0454687 0.743516 L 0.954531 0.743516 Z M 0.92207 0.256484 " transform="matrix(100,0,0,100,150,3950)"/>
<path style="fill:none;stroke-width:0.01;stroke-linecap:butt;stroke-linejoin:miter;stroke:rgb(0%,0%,0%);stroke-opacity:1;stroke-miterlimit:10;" d="M 0.954531 0.394297 L 0.130039 0.394297 L 0.108867 0.436563 L 0.0877344 0.478867 L 0.0666016 0.542266 L 0.0454687 0.605703 L 0.954531 0.605703 Z M 0.954531 0.394297 " transform="matrix(100,0,0,100,300,3950)"/>
<path style="fill:none;stroke-width:0.01;stroke-linecap:butt;stroke-linejoin:miter;stroke:rgb(0%,0%,0%);stroke-opacity:1;stroke-miterlimit:10;" d="M 0.93125 0.663164 L 0.954531 0.336836 L 0.0454688 0.360156 L 0.0454688 0.663164 Z M 0.93125 0.663164 " transform="matrix(100,0,0,100,450,3950)"/>
<path style="fill:none;stroke-width:0.01;stroke-linecap:butt;stroke-linejoin:miter;stroke:rgb(0%,0%,0%);stroke-opacity:1;stroke-miterlimit:10;" d="M 0.954531 0.709805 L 0.954531 0.255234 L 0.0804297 0.255234 L 0.0454688 0.744766 Z M 0.954531 0.709805 " transform="matrix(100,0,0,100,600,3950)"/>
<path style="fill:none;stroke-width:0.01;stroke-linecap:butt;stroke-linejoin:miter;stroke:rgb(0%,0%,0%);stroke-opacity:1;stroke-miterlimit:10;" d="M 0.954531 0.379414 L 0.0454688 0.342305 L 0.0454688 0.639141 L 0.954531 0.657695 Z M 0.954531 0.379414 " transform="matrix(100,0,0,100,0,4100)"/>
<path style="fill:none;stroke-width:0.01;stroke-linecap:butt;stroke-linejoin:miter;stroke:rgb(0%,0%,0%);stroke-opacity:1;stroke-miterlimit:10;" d="M 0.954531 0.309727 L 0.0666016 0.309727 L 0.0454687 0.457734 L 0.0666016 0.563437 L 0.108867 0.648008 L 0.130039 0.690273 L 0.933398 0.669141 Z M 0.954531 0.309727 " transform="matrix(100,0,0,100,150,4100)"/>
<path style="fill:none;stroke-width:0.01;stroke-linecap:butt;stroke-linejoin:miter;stroke:rgb(0%,0%,0%);stroke-opacity:1;stroke-miterlimit:10;" d="M 0.954531 0.441367 L 0.0454687 0.441367 L 0.0454687 0.558633 L 0.895898 0.558633 Z M 0.954531 0.441367 " transform="matrix(100,0,0,100,300,4100)"/>
<path style="fill:none;stroke-width:0.01;stroke-linecap:butt;stroke-linejoin:miter;stroke:rgb(0%,0%,0%);stroke-opacity:1;stroke-miterlimit:10;" d="M 0.954531 0.572734 L 0.954531 0.427266 L 0.0454688 0.427266 L 0.0818359 0.572734 Z M 0.954531 0.572734 " transform="matrix(100,0,0,100,450,4100)"/>
<path style="fill:none;stroke-width:0.01;stroke-linecap:butt;stroke-linejoin:miter;stroke:rgb(0%,0%,0%);stroke-opacity:1;stroke-miterlimit:10;" d="M 0.954531 0.601016 L 0.954531 0.398984 L 0.0454688 0.449492 L 0.0454688 0.601016 Z M 0.954531 0.601016 " transform="matrix(100,0,0,100,600,4100)"/>
<path style="fill:none;stroke-width:0.01;stroke-linecap:butt;stroke-linejoin:miter;stroke:rgb(0%,0%,0%);stroke-opacity:1;stroke-miterlimit:10;" d="M 0.954531 0.590898 L 0.954531 0.409102 L 0.0454688 0.409102 L 0.0454688 0.590898 Z M 0.954531 0.590898 " transform="matrix(100,0,0,100,0,4250)"/>
<path style="fill:none;stroke-width:0.01;stroke-linecap:butt;stroke-linejoin:miter;stroke:rgb(0%,0%,0%);stroke-opacity:1;stroke-miterlimit:10;" d="M 0.954531 0.329531 L 0.0454687 0.386367 L 0.0454687 0.613633 L 0.954531 0.670469 Z M 0.954531 0.329531 " transform="matrix(100,0,0,100,150,4250)"/>
<path style="fill:none;stroke-width:0.01;stroke-linecap:butt;stroke-linejoin:miter;stroke:rgb(0%,0%,0%);stroke-opacity:1;stroke-miterlimit:10;" d="M 0.954531 0.366328 L 0.0454687 0.366328 L 0.0454687 0.580195 L 0.847578 0.633672 Z M 0.954531 0.366328 " transform="matrix(100,0,0,100,300,4250)"/>
<path style="fill:none;stroke-width:0.01;stroke-linecap:butt;stroke-linejoin:miter;stroke:rgb(0%,0%,0%);stroke-opacity:1;stroke-miterlimit:10;" d="M 0.923203 0.437305 L 0.0454688 0.437305 L 0.0454688 0.531367 L 0.954531 0.562695 Z M 0.923203 0.437305 " transform="matrix(100,0,0,100,450,4250)"/>
<path style="fill:none;stroke-width:0.01;stroke-linecap:butt;stroke-linejoin:miter;stroke:rgb(0%,0%,0%);stroke-opacity:1;stroke-miterlimit:10;" d="M 0.954531 0.431133 L 0.0454688 0.431133 L 0.0454688 0.568867 L 0.954531 0.568867 Z M 0.954531 0.431133 " transform="matrix(100,0,0,100,600,4250)"/>
<path style="fill:none;stroke-width:0.01;stroke-linecap:butt;stroke-linejoin:miter;stroke:rgb(0%,0%,0%);stroke-opacity:1;stroke-miterlimit:10;" d="M 0.0454688 0.555078 L 0.954531 0.555078 L 0.954531 0.444922 L 0.0730078 0.444922 Z M 0.0454688 0.555078 " transform="matrix(100,0,0,100,0,4400)"/>
<path style="fill:none;stroke-width:0.01;stroke-linecap:butt;stroke-linejoin:miter;stroke:rgb(0%,0%,0%);stroke-opacity:1;stroke-miterlimit:10;" d="M 0.954531 0.448047 L 0.0454687 0.448047 L 0.0454687 0.551953 L 0.954531 0.525977 Z M 0.954531 0.448047 " transform="matrix(100,0,0,100,150,4400)"/>
<path style="fill:none;stroke-width:0.01;stroke-linecap:butt;stroke-linejoin:miter;stroke:rgb(0%,0%,0%);stroke-opacity:1;stroke-miterlimit:10;" d="M 0.954531 0.551953 L 0.954531 0.448047 L 0.0454687 0.474023 L 0.0454687 0.551953 Z M 0.954531 0.551953 " transform="matrix(100,0,0,100,300,4400)"/>
<path style="fill:none;stroke-width:0.01;stroke-linecap:butt;stroke-linejoin:miter;stroke:rgb(0%,0%,0%);stroke-opacity:1;stroke-miterlimit:10;" d="M 0.926992 0.444922 L 0.0454688 0.444922 L 0.0454688 0.555078 L 0.954531 0.555078 Z M 0.926992 0.444922 " transform="matrix(100,0,0,100,450,4400)"/>
<path style="fill:none;stroke-width:0.01;stroke-linecap:butt;stroke-linejoin:miter;stroke:rgb(0%,0%,0%);stroke-opacity:1;stroke-miterlimit:10;" d="M 0.954531 0.443164 L 0.0454688 0.443164 L 0.0454688 0.556836 L 0.954531 0.528398 Z M 0.954531 0.443164 " transform="matrix(100,0,0,100,600,4400)"/>
<path style="fill:none;stroke-width:0.01;stroke-linecap:butt;stroke-linejoin:miter;stroke:rgb(0%,0%,0%);stroke-opacity:1;stroke-miterlimit:10;" d="M 0.954531 0.234844 L 0.222227 0.234844 L 0.0959766 0.361094 L 0.0707031 0.436875 L 0.0454688 0.487383 L 0.121211 0.664141 L 0.222227 0.765156 L 0.929297 0.765156 Z M 0.954531 0.234844 " transform="matrix(100,0,0,100,0,4550)"/>
<path style="fill:none;stroke-width:0.01;stroke-linecap:butt;stroke-linejoin:miter;stroke:rgb(0%,0%,0%);stroke-opacity:1;stroke-miterlimit:10;" d="M 0.521641 0.0454687 L 0.487031 0.0800781 L 0.469688 0.140703 L 0.452383 0.218633 L 0.452383 0.452383 L 0.443711 0.530313 L 0.452383 0.608242 L 0.452383 0.686133 L 0.461055 0.772734 L 0.478359 0.859297 L 0.495664 0.91125 L 0.512969 0.945898 L 0.538945 0.954531 L 0.556289 0.954531 L 0.487031 0.694805 Z M 0.521641 0.0454687 " transform="matrix(100,0,0,100,150,4550)"/>
<path style="fill:none;stroke-width:0.01;stroke-linecap:butt;stroke-linejoin:miter;stroke:rgb(0%,0%,0%);stroke-opacity:1;stroke-miterlimit:10;" d="M 0.546289 0.0959766 L 0.554727 0.887188 L 0.554727 0.954531 L 0.512617 0.954531 L 0.487383 0.912461 L 0.445273 0.474766 L 0.462109 0.129648 L 0.495781 0.0538672 L 0.554727 0.0454687 Z M 0.546289 0.0959766 " transform="matrix(100,0,0,100,300,4550)"/>
<path style="fill:none;stroke-width:0.01;stroke-linecap:butt;stroke-linejoin:miter;stroke:rgb(0%,0%,0%);stroke-opacity:1;stroke-miterlimit:10;" d="M 0.343242 0.0454687 L 0.186523 0.0454687 L 0.719453 0.954531 L 0.813477 0.954531 Z M 0.343242 0.0454687 " transform="matrix(100,0,0,100,450,4550)"/>
<path style="fill:none;stroke-width:0.01;stroke-linecap:butt;stroke-linejoin:miter;stroke:rgb(0%,0%,0%);stroke-opacity:1;stroke-miterlimit:10;" d="M 0.318164 0.0454687 L 0.227266 0.0757422 L 0.712109 0.954531 L 0.772734 0.954531 Z M 0.318164 0.0454687 " transform="matrix(100,0,0,100,600,4550)"/>
<path style="fill:none;stroke-width:0.01;stroke-linecap:butt;stroke-linejoin:miter;stroke:rgb(0%,0%,0%);stroke-opacity:1;stroke-miterlimit:10;" d="M 0.348477 0.0454687 L 0.227266 0.0757422 L 0.651523 0.954531 L 0.772734 0.954531 Z M 0.348477 0.0454687 " transform="matrix(100,0,0,100,0,4700)"/>
<path style="fill:none;stroke-width:0.01;stroke-linecap:butt;stroke-linejoin:miter;stroke:rgb(0%,0%,0%);stroke-opacity:1;stroke-miterlimit:10;" d="M 0.378789 0.0454687 L 0.257578 0.0454687 L 0.681836 0.954531 L 0.742422 0.954531 Z M 0.378789 0.0454687 " transform="matrix(100,0,0,100,150,4700)"/>
<path style="fill:none;stroke-width:0.01;stroke-linecap:butt;stroke-linejoin:miter;stroke:rgb(0%,0%,0%);stroke-opacity:1;stroke-miterlimit:10;" d="M 0.90668 0.188984 L 0.0454687 0.141133 L 0.0454687 0.858867 L 0.954531 0.858867 L 0.954531 0.332539 Z M 0.90668 0.188984 " transform="matrix(100,0,0,100,300,4700)"/>
<path style="fill:none;stroke-width:0.01;stroke-linecap:butt;stroke-linejoin:miter;stroke:rgb(0%,0%,0%);stroke-opacity:1;stroke-miterlimit:10;" d="M 0.0530859 0.358672 L 0.0454688 0.687148 L 0.931641 0.648984 L 0.954531 0.312852 Z M 0.0530859 0.358672 " transform="matrix(100,0,0,100,450,4700)"/>
<path style="fill:none;stroke-width:0.01;stroke-linecap:butt;stroke-linejoin:miter;stroke:rgb(0%,0%,0%);stroke-opacity:1;stroke-miterlimit:10;" d="M 0.954531 0.267109 L 0.0604688 0.25957 L 0.0454688 0.725391 L 0.954531 0.74043 Z M 0.954531 0.267109 " transform="matrix(100,0,0,100,600,4700)"/>
<path style="fill:none;stroke-width:0.01;stroke-linecap:butt;stroke-linejoin:miter;stroke:rgb(0%,0%,0%);stroke-opacity:1;stroke-miterlimit:10;" d="M 0.912695 0.141133 L 0.248789 0.165078 L 0.183008 0.751211 L 0.0454688 0.858867 L 0.954531 0.852852 Z M 0.912695 0.141133 " transform="matrix(100,0,0,100,0,4850)"/>
<path style="fill:none;stroke-width:0.01;stroke-linecap:butt;stroke-linejoin:miter;stroke:rgb(0%,0%,0%);stroke-opacity:1;stroke-miterlimit:10;" d="M 0.902578 0.162344 L 0.123359 0.170977 L 0.0454687 0.837656 L 0.954531 0.829023 Z M 0.902578 0.162344 " transform="matrix(100,0,0,100,150,4850)"/>
<path style="fill:none;stroke-width:0.01;stroke-linecap:butt;stroke-linejoin:miter;stroke:rgb(0%,0%,0%);stroke-opacity:1;stroke-miterlimit:10;" d="M 0.0454687 0.686484 L 0.0454687 0.290195 L 0.954531 0.313516 L 0.954531 0.709805 Z M 0.0454687 0.686484 " transform="matrix(100,0,0,100,300,4850)"/>
<path style="fill:none;stroke-width:0.01;stroke-linecap:butt;stroke-linejoin:miter;stroke:rgb(0%,0%,0%);stroke-opacity:1;stroke-miterlimit:10;" d="M 0.0994531 0.306484 L 0.0454688 0.693516 L 0.891523 0.702539 L 0.954531 0.558516 L 0.936562 0.504492 L 0.936562 0.423477 L 0.945547 0.297461 Z M 0.0994531 0.306484 " transform="matrix(100,0,0,100,450,4850)"/>
<path style="fill:none;stroke-width:0.01;stroke-linecap:butt;stroke-linejoin:miter;stroke:rgb(0%,0%,0%);stroke-opacity:1;stroke-miterlimit:10;" d="M 0.930625 0.380391 L 0.954531 0.631563 L 0.0454688 0.619609 L 0.0574219 0.368437 Z M 0.930625 0.380391 " transform="matrix(100,0,0,100,600,4850)"/>
<path style="fill:none;stroke-width:0.01;stroke-linecap:butt;stroke-linejoin:miter;stroke:rgb(0%,0%,0%);stroke-opacity:1;stroke-miterlimit:10;" d="M 0.0454688 0.188047 L 0.0454688 0.811953 L 0.936719 0.811953 L 0.954531 0.188047 Z M 0.0454688 0.188047 " transform="matrix(100,0,0,100,0,5000)"/>
<path style="fill:none;stroke-width:0.01;stroke-linecap:butt;stroke-linejoin:miter;stroke:rgb(0%,0%,0%);stroke-opacity:1;stroke-miterlimit:10;" d="M 0.0629297 0.316445 L 0.0454687 0.683555 L 0.93707 0.683555 L 0.954531 0.333906 Z M 0.0629297 0.316445 " transform="matrix(100,0,0,100,150,5000)"/>
<path style="fill:none;stroke-width:0.01;stroke-linecap:butt;stroke-linejoin:miter;stroke:rgb(0%,0%,0%);stroke-opacity:1;stroke-miterlimit:10;" d="M 0.0574219 0.266758 L 0.0454687 0.709336 L 0.954531 0.733242 L 0.942578 0.290664 Z M 0.0574219 0.266758 " transform="matrix(100,0,0,100,300,5000)"/>
<path style="fill:none;stroke-width:0.01;stroke-linecap:butt;stroke-linejoin:miter;stroke:rgb(0%,0%,0%);stroke-opacity:1;stroke-miterlimit:10;" d="M 0.931836 0.238633 L 0.0681641 0.215898 L 0.0454688 0.761367 L 0.954531 0.784102 Z M 0.931836 0.238633 " transform="matrix(100,0,0,100,450,5000)"/>
<path style="fill:none;stroke-width:0.01;stroke-linecap:butt;stroke-linejoin:miter;stroke:rgb(0%,0%,0%);stroke-opacity:1;stroke-miterlimit:10;" d="M 0.954531 0.255234 L 0.06875 0.231953 L 0.0454688 0.744766 L 0.954531 0.768047 Z M 0.954531 0.255234 " transform="matrix(100,0,0,100,600,5000)"/>
<path style="fill:none;stroke-width:0.01;stroke-linecap:butt;stroke-linejoin:miter;stroke:rgb(0%,0%,0%);stroke-opacity:1;stroke-miterlimit:10;" d="M 0.954531 0.114063 L 0.0454688 0.0797656 L 0.0454688 0.885938 L 0.954531 0.920234 Z M 0.954531 0.114063 " transform="matrix(100,0,0,100,0,5150)"/>
<path style="fill:none;stroke-width:0.01;stroke-linecap:butt;stroke-linejoin:miter;stroke:rgb(0%,0%,0%);stroke-opacity:1;stroke-miterlimit:10;" d="M 0.940352 0.0809766 L 0.954531 0.919023 L 0.0454687 0.876406 L 0.0454687 0.0951563 Z M 0.940352 0.0809766 " transform="matrix(100,0,0,100,150,5150)"/>
<path style="fill:none;stroke-width:0.01;stroke-linecap:butt;stroke-linejoin:miter;stroke:rgb(0%,0%,0%);stroke-opacity:1;stroke-miterlimit:10;" d="M 0.0818359 0.154531 L 0.0454687 0.845469 L 0.954531 0.845469 L 0.954531 0.154531 Z M 0.0818359 0.154531 " transform="matrix(100,0,0,100,300,5150)"/>
<path style="fill:none;stroke-width:0.01;stroke-linecap:butt;stroke-linejoin:miter;stroke:rgb(0%,0%,0%);stroke-opacity:1;stroke-miterlimit:10;" d="M 0.0454688 0.136367 L 0.0454688 0.863633 L 0.954531 0.863633 L 0.954531 0.136367 Z M 0.0454688 0.136367 " transform="matrix(100,0,0,100,450,5150)"/>
<path style="fill:none;stroke-width:0.01;stroke-linecap:butt;stroke-linejoin:miter;stroke:rgb(0%,0%,0%);stroke-opacity:1;stroke-miterlimit:10;" d="M 0.0454688 0.840898 L 0.954531 0.840898 L 0.954531 0.159102 L 0.0454688 0.159102 Z M 0.0454688 0.840898 " transform="matrix(100,0,0,100,600,5150)"/>
<path style="fill:none;stroke-width:0.01;stroke-linecap:butt;stroke-linejoin:miter;stroke:rgb(0%,0%,0%);stroke-opacity:1;stroke-miterlimit:10;" d="M 0.779727 0.0454687 L 0.30418 0.0454687 L 0.290195 0.0734375 L 0.220273 0.0734375 L 0.220273 0.912578 L 0.276211 0.912578 L 0.318164 0.954531 L 0.779727 0.954531 Z M 0.779727 0.0454687 " transform="matrix(100,0,0,100,0,5300)"/>
<path style="fill:none;stroke-width:0.01;stroke-linecap:butt;stroke-linejoin:miter;stroke:rgb(0%,0%,0%);stroke-opacity:1;stroke-miterlimit:10;" d="M 0.0454687 0.389141 L 0.0454687 0.610859 L 0.943477 0.610859 L 0.954531 0.389141 L 0.5 0.400234 L 0.455664 0.433477 L 0.422383 0.44457 L 0.344805 0.44457 L 0.344805 0.400234 Z M 0.0454687 0.389141 " transform="matrix(100,0,0,100,150,5300)"/>
<path style="fill:none;stroke-width:0.01;stroke-linecap:butt;stroke-linejoin:miter;stroke:rgb(0%,0%,0%);stroke-opacity:1;stroke-miterlimit:10;" d="M 0.954531 0.353359 L 0.0454687 0.353359 L 0.0454687 0.646641 L 0.954531 0.646641 Z M 0.954531 0.353359 " transform="matrix(100,0,0,100,300,5300)"/>
<path style="fill:none;stroke-width:0.01;stroke-linecap:butt;stroke-linejoin:miter;stroke:rgb(0%,0%,0%);stroke-opacity:1;stroke-miterlimit:10;" d="M 0.0454688 0.742422 L 0.954531 0.742422 L 0.954531 0.257578 L 0.0454688 0.287891 Z M 0.0454688 0.742422 " transform="matrix(100,0,0,100,450,5300)"/>
<path style="fill:none;stroke-width:0.01;stroke-linecap:butt;stroke-linejoin:miter;stroke:rgb(0%,0%,0%);stroke-opacity:1;stroke-miterlimit:10;" d="M 0.0779297 0.727266 L 0.954531 0.727266 L 0.954531 0.272734 L 0.0454688 0.272734 Z M 0.0779297 0.727266 " transform="matrix(100,0,0,100,600,5300)"/>
<path style="fill:none;stroke-width:0.01;stroke-linecap:butt;stroke-linejoin:miter;stroke:rgb(0%,0%,0%);stroke-opacity:1;stroke-miterlimit:10;" d="M 0.824688 0.0547266 L 0.0454688 0.0732813 L 0.212422 0.945273 L 0.954531 0.926719 Z M 0.824688 0.0547266 " transform="matrix(100,0,0,100,0,5450)"/>
<path style="fill:none;stroke-width:0.01;stroke-linecap:butt;stroke-linejoin:miter;stroke:rgb(0%,0%,0%);stroke-opacity:1;stroke-miterlimit:10;" d="M 0.0454687 0.227266 L 0.0908984 0.772734 L 0.954531 0.75 L 0.886367 0.227266 Z M 0.0454687 0.227266 " transform="matrix(100,0,0,100,150,5450)"/>
<path style="fill:none;stroke-width:0.01;stroke-linecap:butt;stroke-linejoin:miter;stroke:rgb(0%,0%,0%);stroke-opacity:1;stroke-miterlimit:10;" d="M 0.0454687 0.21293 L 0.117227 0.78707 L 0.954531 0.763164 L 0.930625 0.21293 Z M 0.0454687 0.21293 " transform="matrix(100,0,0,100,300,5450)"/>
<path style="fill:none;stroke-width:0.01;stroke-linecap:butt;stroke-linejoin:miter;stroke:rgb(0%,0%,0%);stroke-opacity:1;stroke-miterlimit:10;" d="M 0.0959766 0.765156 L 0.954531 0.765156 L 0.929297 0.234844 L 0.0454688 0.260117 Z M 0.0959766 0.765156 " transform="matrix(100,0,0,100,450,5450)"/>
<path style="fill:none;stroke-width:0.01;stroke-linecap:butt;stroke-linejoin:miter;stroke:rgb(0%,0%,0%);stroke-opacity:1;stroke-miterlimit:10;" d="M 0.320742 0.0454687 L 0.231133 0.954531 L 0.730469 0.954531 L 0.768867 0.0454687 Z M 0.320742 0.0454687 " transform="matrix(100,0,0,100,600,5450)"/>
<path style="fill:none;stroke-width:0.01;stroke-linecap:butt;stroke-linejoin:miter;stroke:rgb(0%,0%,0%);stroke-opacity:1;stroke-miterlimit:10;" d="M 0.756094 0.0582422 L 0.295117 0.0454687 L 0.243906 0.954531 L 0.730469 0.941758 Z M 0.756094 0.0582422 " transform="matrix(100,0,0,100,0,5600)"/>
<path style="fill:none;stroke-width:0.01;stroke-linecap:butt;stroke-linejoin:miter;stroke:rgb(0%,0%,0%);stroke-opacity:1;stroke-miterlimit:10;" d="M 0.760703 0.0454687 L 0.306133 0.0588281 L 0.239297 0.941172 L 0.720586 0.954531 Z M 0.760703 0.0454687 " transform="matrix(100,0,0,100,150,5600)"/>
<path style="fill:none;stroke-width:0.01;stroke-linecap:butt;stroke-linejoin:miter;stroke:rgb(0%,0%,0%);stroke-opacity:1;stroke-miterlimit:10;" d="M 0.759727 0.0454687 L 0.326836 0.0454687 L 0.240273 0.940117 L 0.730898 0.954531 Z M 0.759727 0.0454687 " transform="matrix(100,0,0,100,300,5600)"/>
<path style="fill:none;stroke-width:0.01;stroke-linecap:butt;stroke-linejoin:miter;stroke:rgb(0%,0%,0%);stroke-opacity:1;stroke-miterlimit:10;" d="M 0.146445 0.934336 L 0.79293 0.954531 L 0.853555 0.0454687 L 0.247461 0.0454687 Z M 0.146445 0.934336 " transform="matrix(100,0,0,100,450,5600)"/>
<path style="fill:none;stroke-width:0.01;stroke-linecap:butt;stroke-linejoin:miter;stroke:rgb(0%,0%,0%);stroke-opacity:1;stroke-miterlimit:10;" d="M 0.602773 0.0454687 L 0.405156 0.0454687 L 0.397227 0.954531 L 0.602773 0.946641 Z M 0.602773 0.0454687 " transform="matrix(100,0,0,100,600,5600)"/>
<path style="fill:none;stroke-width:0.01;stroke-linecap:butt;stroke-linejoin:miter;stroke:rgb(0%,0%,0%);stroke-opacity:1;stroke-miterlimit:10;" d="M 0.764766 0.0454687 L 0.30582 0.0454687 L 0.235234 0.936875 L 0.703008 0.954531 Z M 0.764766 0.0454687 " transform="matrix(100,0,0,100,0,5750)"/>
<path style="fill:none;stroke-width:0.01;stroke-linecap:butt;stroke-linejoin:miter;stroke:rgb(0%,0%,0%);stroke-opacity:1;stroke-miterlimit:10;" d="M 0.739883 0.0623047 L 0.276953 0.0454687 L 0.260117 0.929297 L 0.672578 0.954531 Z M 0.739883 0.0623047 " transform="matrix(100,0,0,100,150,5750)"/>
<path style="fill:none;stroke-width:0.01;stroke-linecap:butt;stroke-linejoin:miter;stroke:rgb(0%,0%,0%);stroke-opacity:1;stroke-miterlimit:10;" d="M 0.759727 0.0454687 L 0.300859 0.0454687 L 0.240273 0.954531 L 0.73375 0.954531 Z M 0.759727 0.0454687 " transform="matrix(100,0,0,100,300,5750)"/>
<path style="fill:none;stroke-width:0.01;stroke-linecap:butt;stroke-linejoin:miter;stroke:rgb(0%,0%,0%);stroke-opacity:1;stroke-miterlimit:10;" d="M 0.7375 0.954531 L 0.246094 0.913594 L 0.295234 0.0454687 L 0.753906 0.0782031 Z M 0.7375 0.954531 " transform="matrix(100,0,0,100,450,5750)"/>
<path style="fill:none;stroke-width:0.01;stroke-linecap:butt;stroke-linejoin:miter;stroke:rgb(0%,0%,0%);stroke-opacity:1;stroke-miterlimit:10;" d="M 0.753438 0.0695703 L 0.270703 0.0454687 L 0.246563 0.946484 L 0.753438 0.954531 Z M 0.753438 0.0695703 " transform="matrix(100,0,0,100,600,5750)"/>
<path style="fill:none;stroke-width:0.01;stroke-linecap:butt;stroke-linejoin:miter;stroke:rgb(0%,0%,0%);stroke-opacity:1;stroke-miterlimit:10;" d="M 0.25207 0.0454687 L 0.25207 0.954531 L 0.74793 0.954531 L 0.731406 0.227266 L 0.574375 0.202461 L 0.557852 0.0454687 Z M 0.25207 0.0454687 " transform="matrix(100,0,0,100,0,5900)"/>
<path style="fill:none;stroke-width:0.01;stroke-linecap:butt;stroke-linejoin:miter;stroke:rgb(0%,0%,0%);stroke-opacity:1;stroke-miterlimit:10;" d="M 0.902773 0.0799609 L 0.10875 0.0454687 L 0.0972266 0.908516 L 0.879766 0.954531 Z M 0.902773 0.0799609 " transform="matrix(100,0,0,100,150,5900)"/>
<path style="fill:none;stroke-width:0.01;stroke-linecap:butt;stroke-linejoin:miter;stroke:rgb(0%,0%,0%);stroke-opacity:1;stroke-miterlimit:10;" d="M 0.0985938 0.0454687 L 0.0749609 0.942734 L 0.889609 0.954531 L 0.925039 0.0690625 Z M 0.0985938 0.0454687 " transform="matrix(100,0,0,100,300,5900)"/>
<path style="fill:none;stroke-width:0.01;stroke-linecap:butt;stroke-linejoin:miter;stroke:rgb(0%,0%,0%);stroke-opacity:1;stroke-miterlimit:10;" d="M 0.0631641 0.930937 L 0.110391 0.0454687 L 0.936836 0.0572656 L 0.889609 0.954531 Z M 0.0631641 0.930937 " transform="matrix(100,0,0,100,450,5900)"/>
<path style="fill:none;stroke-width:0.01;stroke-linecap:butt;stroke-linejoin:miter;stroke:rgb(0%,0%,0%);stroke-opacity:1;stroke-miterlimit:10;" d="M 0.735703 0.0454687 L 0.264297 0.0566797 L 0.241875 0.954531 L 0.758125 0.954531 Z M 0.735703 0.0454687 " transform="matrix(100,0,0,100,600,5900)"/>
<path style="fill:none;stroke-width:0.01;stroke-linecap:butt;stroke-linejoin:miter;stroke:rgb(0%,0%,0%);stroke-opacity:1;stroke-miterlimit:10;" d="M 0.58082 0.0454687 L 0.398984 0.0454687 L 0.449492 0.954531 L 0.601016 0.944453 Z M 0.58082 0.0454687 " transform="matrix(100,0,0,100,0,6050)"/>
<path style="fill:none;stroke-width:0.01;stroke-linecap:butt;stroke-linejoin:miter;stroke:rgb(0%,0%,0%);stroke-opacity:1;stroke-miterlimit:10;" d="M 0.954531 0.199844 L 0.885938 0.834492 L 0.0540234 0.791602 L 0.0454687 0.165508 Z M 0.954531 0.199844 " transform="matrix(100,0,0,100,150,6050)"/>
<path style="fill:none;stroke-width:0.01;stroke-linecap:butt;stroke-linejoin:miter;stroke:rgb(0%,0%,0%);stroke-opacity:1;stroke-miterlimit:10;" d="M 0.0454687 0.220273 L 0.06875 0.779727 L 0.954531 0.779727 L 0.954531 0.243594 Z M 0.0454687 0.220273 " transform="matrix(100,0,0,100,300,6050)"/>
<path style="fill:none;stroke-width:0.01;stroke-linecap:butt;stroke-linejoin:miter;stroke:rgb(0%,0%,0%);stroke-opacity:1;stroke-miterlimit:10;" d="M 0.954531 0.344492 L 0.0454688 0.320586 L 0.069375 0.655508 L 0.954531 0.679414 Z M 0.954531 0.344492 " transform="matrix(100,0,0,100,450,6050)"/>
</g>
</svg>
