<?xml version="1.0" encoding="UTF-8"?>
<svg xmlns="http://www.w3.org/2000/svg" xmlns:xlink="http://www.w3.org/1999/xlink" width="750pt" height="11200pt" viewBox="0 0 750 11200" version="1.1">
<g id="surface1">
<path style="fill:none;stroke-width:0.01;stroke-linecap:butt;stroke-linejoin:miter;stroke:rgb(0%,0%,0%);stroke-opacity:1;stroke-miterlimit:10;" d="M 0.486211 0.768594 L 0.534453 0.954531 L 0.534453 0.0454687 L 0.472461 0.238281 L 0.465547 0.720391 Z M 0.486211 0.768594 " transform="matrix(100,0,0,100,0,200)"/>
<path style="fill:none;stroke-width:0.01;stroke-linecap:butt;stroke-linejoin:miter;stroke:rgb(0%,0%,0%);stroke-opacity:1;stroke-miterlimit:10;" d="M 0.609727 0.0454687 L 0.437305 0.954531 L 0.390273 0.70375 L 0.515664 0.0454687 Z M 0.609727 0.0454687 " transform="matrix(100,0,0,100,150,200)"/>
<path style="fill:none;stroke-width:0.01;stroke-linecap:butt;stroke-linejoin:miter;stroke:rgb(0%,0%,0%);stroke-opacity:1;stroke-miterlimit:10;" d="M 0.318164 0.888438 L 0.632227 0.0454687 L 0.681836 0.954531 L 0.318164 0.938008 Z M 0.318164 0.888438 " transform="matrix(100,0,0,100,300,200)"/>
<path style="fill:none;stroke-width:0.01;stroke-linecap:butt;stroke-linejoin:miter;stroke:rgb(0%,0%,0%);stroke-opacity:1;stroke-miterlimit:10;" d="M 0.6275 0.0454687 L 0.549883 0.0454687 L 0.3725 0.766094 L 0.378047 0.954531 L 0.411289 0.932383 L 0.511094 0.633047 L 0.55543 0.344805 Z M 0.6275 0.0454687 " transform="matrix(100,0,0,100,450,200)"/>
<path style="fill:none;stroke-width:0.01;stroke-linecap:butt;stroke-linejoin:miter;stroke:rgb(0%,0%,0%);stroke-opacity:1;stroke-miterlimit:10;" d="M 0.716445 0.0454687 L 0.621211 0.192656 L 0.57793 0.296523 L 0.508672 0.357148 L 0.465352 0.357148 L 0.42207 0.40043 L 0.413438 0.504336 L 0.396094 0.651523 L 0.396094 0.75543 L 0.387461 0.859297 L 0.361484 0.937227 L 0.283555 0.954531 L 0.292227 0.83332 L 0.352812 0.798711 L 0.352812 0.63418 L 0.370117 0.495664 L 0.396094 0.357148 L 0.439375 0.183984 L 0.474023 0.0974219 L 0.534648 0.0454687 Z M 0.716445 0.0454687 " transform="matrix(100,0,0,100,600,200)"/>
<path style="fill:none;stroke-width:0.01;stroke-linecap:butt;stroke-linejoin:miter;stroke:rgb(0%,0%,0%);stroke-opacity:1;stroke-miterlimit:10;" d="M 0.616875 0.0454687 L 0.357148 0.201289 L 0.383125 0.954531 L 0.642852 0.928555 Z M 0.616875 0.0454687 " transform="matrix(100,0,0,100,0,350)"/>
<path style="fill:none;stroke-width:0.01;stroke-linecap:butt;stroke-linejoin:miter;stroke:rgb(0%,0%,0%);stroke-opacity:1;stroke-miterlimit:10;" d="M 0.740156 0.765859 L 0.740156 0.0454687 L 0.477148 0.645781 L 0.414219 0.645781 L 0.317031 0.93168 L 0.259844 0.93168 L 0.259844 0.954531 L 0.60293 0.954531 L 0.625781 0.920234 L 0.66582 0.880234 L 0.700117 0.82875 L 0.740156 0.78875 Z M 0.740156 0.765859 " transform="matrix(100,0,0,100,150,350)"/>
<path style="fill:none;stroke-width:0.01;stroke-linecap:butt;stroke-linejoin:miter;stroke:rgb(0%,0%,0%);stroke-opacity:1;stroke-miterlimit:10;" d="M 0.650313 0.0454687 L 0.557266 0.0454687 L 0.381875 0.256641 L 0.349687 0.253047 L 0.363984 0.589492 L 0.374727 0.582305 L 0.535781 0.782734 L 0.532227 0.807812 L 0.560859 0.847188 L 0.568008 0.954531 L 0.650313 0.954531 Z M 0.650313 0.0454687 " transform="matrix(100,0,0,100,300,350)"/>
<path style="fill:none;stroke-width:0.01;stroke-linecap:butt;stroke-linejoin:miter;stroke:rgb(0%,0%,0%);stroke-opacity:1;stroke-miterlimit:10;" d="M 0.538359 0.0572656 L 0.550195 0.458672 L 0.550195 0.683008 L 0.532461 0.836484 L 0.514766 0.860078 L 0.485234 0.883711 L 0.467539 0.907305 L 0.467539 0.936836 L 0.449805 0.954531 L 0.449805 0.812852 L 0.467539 0.830586 L 0.473438 0.830586 L 0.485234 0.824688 L 0.502969 0.795156 L 0.520664 0.742031 L 0.520664 0.618047 L 0.526562 0.488203 L 0.526562 0.346523 L 0.520664 0.0454687 Z M 0.538359 0.0572656 " transform="matrix(100,0,0,100,450,350)"/>
<path style="fill:none;stroke-width:0.01;stroke-linecap:butt;stroke-linejoin:miter;stroke:rgb(0%,0%,0%);stroke-opacity:1;stroke-miterlimit:10;" d="M 0.454531 0.0584375 L 0.506484 0.954531 L 0.545469 0.941562 L 0.493516 0.0454687 Z M 0.454531 0.0584375 " transform="matrix(100,0,0,100,600,350)"/>
<path style="fill:none;stroke-width:0.01;stroke-linecap:butt;stroke-linejoin:miter;stroke:rgb(0%,0%,0%);stroke-opacity:1;stroke-miterlimit:10;" d="M 0.801914 0.710312 L 0.720508 0.717109 L 0.673008 0.676406 L 0.639062 0.594961 L 0.639062 0.5475 L 0.679766 0.411797 L 0.700117 0.350742 L 0.727266 0.303242 L 0.78832 0.221836 L 0.822266 0.174375 L 0.815469 0.133633 L 0.781563 0.0522266 L 0.740859 0.0454688 L 0.700117 0.113281 L 0.578008 0.194727 L 0.489805 0.276133 L 0.42875 0.323594 L 0.367695 0.357539 L 0.313437 0.398242 L 0.265937 0.405039 L 0.238789 0.391445 L 0.21168 0.398242 L 0.177734 0.398242 L 0.16418 0.391445 L 0.177734 0.405039 L 0.232031 0.411797 L 0.279492 0.432148 L 0.340586 0.418594 L 0.388047 0.377891 L 0.483047 0.337187 L 0.550898 0.276133 L 0.632305 0.221836 L 0.659414 0.174375 L 0.713711 0.0929297 L 0.747617 0.0725781 L 0.822266 0.153984 L 0.801914 0.221836 L 0.686562 0.350742 L 0.679766 0.425391 L 0.632305 0.581406 L 0.625508 0.642461 L 0.625508 0.723867 L 0.605156 0.798516 L 0.598359 0.85957 L 0.611953 0.900273 L 0.673008 0.913828 L 0.774766 0.93418 L 0.829023 0.954531 L 0.83582 0.710312 Z M 0.801914 0.710312 " transform="matrix(100,0,0,100,0,500)"/>
<path style="fill:none;stroke-width:0.01;stroke-linecap:butt;stroke-linejoin:miter;stroke:rgb(0%,0%,0%);stroke-opacity:1;stroke-miterlimit:10;" d="M 0.0517578 0.569453 L 0.0896484 0.550508 L 0.114883 0.493672 L 0.146445 0.462109 L 0.190664 0.449492 L 0.29168 0.424258 L 0.354805 0.41793 L 0.424258 0.405312 L 0.518945 0.430547 L 0.607305 0.449492 L 0.70832 0.474766 L 0.752539 0.468438 L 0.796719 0.436875 L 0.840898 0.41793 L 0.891406 0.481055 L 0.954531 0.537891 L 0.885117 0.531562 L 0.803047 0.537891 L 0.733594 0.569453 L 0.676758 0.54418 L 0.58207 0.518945 L 0.45582 0.45582 L 0.398984 0.430547 L 0.316914 0.436875 L 0.260117 0.449492 L 0.196953 0.474766 L 0.146445 0.5 L 0.114883 0.525234 L 0.0833203 0.563125 L 0.0454687 0.594688 Z M 0.0517578 0.569453 " transform="matrix(100,0,0,100,150,500)"/>
<path style="fill:none;stroke-width:0.01;stroke-linecap:butt;stroke-linejoin:miter;stroke:rgb(0%,0%,0%);stroke-opacity:1;stroke-miterlimit:10;" d="M 0.516094 0.0597656 L 0.505352 0.0955469 L 0.505352 0.134922 L 0.501797 0.177891 L 0.505352 0.22082 L 0.505352 0.288828 L 0.501797 0.338945 L 0.505352 0.424844 L 0.505352 0.653906 L 0.508945 0.725469 L 0.501797 0.764844 L 0.498203 0.804219 L 0.494648 0.879375 L 0.494648 0.922344 L 0.491055 0.954531 L 0.483906 0.950977 L 0.487461 0.897266 L 0.491055 0.800625 L 0.498203 0.721914 L 0.498203 0.410508 L 0.494648 0.321055 L 0.491055 0.260195 L 0.498203 0.210078 L 0.498203 0.152813 L 0.494648 0.113477 L 0.505352 0.0741016 L 0.505352 0.0454688 L 0.516094 0.0454688 Z M 0.516094 0.0597656 " transform="matrix(100,0,0,100,300,500)"/>
<path style="fill:none;stroke-width:0.01;stroke-linecap:butt;stroke-linejoin:miter;stroke:rgb(0%,0%,0%);stroke-opacity:1;stroke-miterlimit:10;" d="M 0.508945 0.582305 L 0.448086 0.77918 L 0.430195 0.865078 L 0.423047 0.915156 L 0.412305 0.954531 L 0.405156 0.954531 L 0.433789 0.814961 L 0.46957 0.650313 L 0.487461 0.489258 L 0.516094 0.310313 L 0.508945 0.224414 L 0.53043 0.0454688 L 0.594844 0.0454688 L 0.580547 0.210078 L 0.559063 0.367578 L 0.544727 0.446328 L 0.526836 0.539375 Z M 0.508945 0.582305 " transform="matrix(100,0,0,100,450,500)"/>
<path style="fill:none;stroke-width:0.01;stroke-linecap:butt;stroke-linejoin:miter;stroke:rgb(0%,0%,0%);stroke-opacity:1;stroke-miterlimit:10;" d="M 0.623984 0.322891 L 0.293398 0.39375 L 0.0454688 0.417344 L 0.0454688 0.470469 L 0.476406 0.594453 L 0.742031 0.647578 L 0.948633 0.724336 L 0.954531 0.275664 Z M 0.623984 0.322891 " transform="matrix(100,0,0,100,600,500)"/>
<path style="fill:none;stroke-width:0.01;stroke-linecap:butt;stroke-linejoin:miter;stroke:rgb(0%,0%,0%);stroke-opacity:1;stroke-miterlimit:10;" d="M 0.523594 0.0497266 L 0.523594 0.246992 L 0.515 0.431406 L 0.515 0.753008 L 0.510703 0.950273 L 0.476406 0.954531 L 0.476406 0.937383 L 0.485 0.774453 L 0.489297 0.577187 L 0.489297 0.384219 L 0.506445 0.169805 L 0.497852 0.0454688 Z M 0.523594 0.0497266 " transform="matrix(100,0,0,100,0,650)"/>
<path style="fill:none;stroke-width:0.01;stroke-linecap:butt;stroke-linejoin:miter;stroke:rgb(0%,0%,0%);stroke-opacity:1;stroke-miterlimit:10;" d="M 0.516094 0.954531 L 0.505352 0.446328 L 0.498203 0.303164 L 0.491055 0.138516 L 0.491055 0.0454688 L 0.491055 0.54293 L 0.487461 0.714727 L 0.483906 0.915156 L 0.483906 0.954531 Z M 0.516094 0.954531 " transform="matrix(100,0,0,100,150,650)"/>
<path style="fill:none;stroke-width:0.01;stroke-linecap:butt;stroke-linejoin:miter;stroke:rgb(0%,0%,0%);stroke-opacity:1;stroke-miterlimit:10;" d="M 0.885 0.0454688 L 0.875078 0.954531 L 0.810469 0.870078 L 0.770742 0.840273 L 0.731016 0.770742 L 0.696211 0.731016 L 0.676367 0.706172 L 0.601836 0.671367 L 0.572031 0.616758 L 0.542227 0.572031 L 0.527305 0.552148 L 0.4975 0.542227 L 0.467695 0.5025 L 0.437891 0.477656 L 0.408086 0.467695 L 0.378281 0.408086 L 0.328633 0.348477 L 0.278945 0.318672 L 0.259063 0.298789 L 0.219336 0.323633 L 0.204414 0.388242 L 0.174609 0.457773 L 0.134883 0.462734 L 0.115 0.358437 L 0.139844 0.30875 L 0.174609 0.278945 L 0.204414 0.219336 L 0.224297 0.149766 L 0.23918 0.0901562 L 0.264023 0.0454688 Z M 0.885 0.0454688 " transform="matrix(100,0,0,100,300,650)"/>
<path style="fill:none;stroke-width:0.01;stroke-linecap:butt;stroke-linejoin:miter;stroke:rgb(0%,0%,0%);stroke-opacity:1;stroke-miterlimit:10;" d="M 0.538281 0.954531 L 0.461719 0.954531 L 0.471289 0.552617 L 0.471289 0.0550391 L 0.50957 0.0454688 L 0.528711 0.0454688 L 0.538281 0.275117 L 0.528711 0.476094 L 0.528711 0.820586 Z M 0.538281 0.954531 " transform="matrix(100,0,0,100,450,650)"/>
<path style="fill:none;stroke-width:0.01;stroke-linecap:butt;stroke-linejoin:miter;stroke:rgb(0%,0%,0%);stroke-opacity:1;stroke-miterlimit:10;" d="M 0.507148 0.954531 L 0.489258 0.950977 L 0.492852 0.632422 L 0.492852 0.374727 L 0.489258 0.0454688 L 0.510742 0.0454688 Z M 0.507148 0.954531 " transform="matrix(100,0,0,100,600,650)"/>
<path style="fill:none;stroke-width:0.01;stroke-linecap:butt;stroke-linejoin:miter;stroke:rgb(0%,0%,0%);stroke-opacity:1;stroke-miterlimit:10;" d="M 0.712891 0.954531 L 0.597812 0.954531 L 0.482734 0.62082 L 0.448203 0.482734 L 0.37918 0.344648 L 0.344648 0.241094 L 0.333125 0.149023 L 0.287109 0.0454687 L 0.333125 0.126016 L 0.390664 0.195039 L 0.436719 0.344648 L 0.505742 0.482734 L 0.52875 0.597812 L 0.586289 0.701367 L 0.655352 0.816445 Z M 0.712891 0.954531 " transform="matrix(100,0,0,100,0,800)"/>
<path style="fill:none;stroke-width:0.01;stroke-linecap:butt;stroke-linejoin:miter;stroke:rgb(0%,0%,0%);stroke-opacity:1;stroke-miterlimit:10;" d="M 0.535781 0.0454687 L 0.510742 0.0454687 L 0.464219 0.954531 L 0.489258 0.954531 L 0.492852 0.736211 L 0.514297 0.45707 L 0.517891 0.285273 L 0.525039 0.235156 Z M 0.535781 0.0454687 " transform="matrix(100,0,0,100,150,800)"/>
<path style="fill:none;stroke-width:0.01;stroke-linecap:butt;stroke-linejoin:miter;stroke:rgb(0%,0%,0%);stroke-opacity:1;stroke-miterlimit:10;" d="M 0.551484 0.0525391 L 0.501758 0.0454687 L 0.501758 0.169727 L 0.491133 0.322461 L 0.484023 0.468047 L 0.476914 0.620742 L 0.462695 0.798281 L 0.448516 0.954531 L 0.473359 0.954531 L 0.494687 0.787656 L 0.508867 0.57457 L 0.515977 0.457383 L 0.530195 0.283398 L 0.53375 0.180391 Z M 0.551484 0.0525391 " transform="matrix(100,0,0,100,300,800)"/>
<path style="fill:none;stroke-width:0.01;stroke-linecap:butt;stroke-linejoin:miter;stroke:rgb(0%,0%,0%);stroke-opacity:1;stroke-miterlimit:10;" d="M 0.0454688 0.596406 L 0.513789 0.376016 L 0.899453 0.293398 L 0.954531 0.293398 L 0.954531 0.348477 L 0.789258 0.458672 L 0.486211 0.513789 L 0.0730078 0.706602 Z M 0.0454688 0.596406 " transform="matrix(100,0,0,100,450,800)"/>
<path style="fill:none;stroke-width:0.01;stroke-linecap:butt;stroke-linejoin:miter;stroke:rgb(0%,0%,0%);stroke-opacity:1;stroke-miterlimit:10;" d="M 0.641914 0.954531 L 0.419141 0.954531 L 0.440703 0.879102 L 0.444297 0.792852 L 0.444297 0.638359 L 0.433516 0.570078 L 0.426328 0.508984 L 0.422734 0.476641 L 0.401172 0.379609 L 0.393984 0.336523 L 0.386797 0.329336 L 0.379609 0.358086 L 0.365234 0.361641 L 0.358086 0.347305 L 0.368828 0.340117 L 0.386797 0.235898 L 0.383203 0.16043 L 0.379609 0.10293 L 0.361641 0.113711 L 0.361641 0.0885547 L 0.376016 0.0454687 L 0.397578 0.0454687 L 0.393984 0.10293 L 0.401172 0.174805 L 0.422734 0.243086 L 0.440703 0.350898 L 0.455078 0.458672 L 0.465859 0.555703 L 0.469453 0.623984 L 0.476641 0.685039 L 0.487422 0.720977 L 0.501797 0.742539 L 0.534141 0.670664 L 0.562891 0.458672 L 0.595234 0.268242 L 0.623984 0.124492 L 0.641914 0.0454687 Z M 0.641914 0.954531 " transform="matrix(100,0,0,100,600,800)"/>
<path style="fill:none;stroke-width:0.01;stroke-linecap:butt;stroke-linejoin:miter;stroke:rgb(0%,0%,0%);stroke-opacity:1;stroke-miterlimit:10;" d="M 0.616055 0.200195 L 0.538672 0.587031 L 0.461328 0.954531 L 0.383945 0.935195 L 0.461328 0.238867 L 0.461328 0.0841406 L 0.616055 0.0454687 Z M 0.616055 0.200195 " transform="matrix(100,0,0,100,0,950)"/>
<path style="fill:none;stroke-width:0.01;stroke-linecap:butt;stroke-linejoin:miter;stroke:rgb(0%,0%,0%);stroke-opacity:1;stroke-miterlimit:10;" d="M 0.650313 0.170078 L 0.430352 0.646641 L 0.371719 0.800586 L 0.327695 0.888555 L 0.298398 0.785938 L 0.298398 0.851914 L 0.305703 0.939883 L 0.327695 0.954531 L 0.664961 0.287383 L 0.694297 0.243398 L 0.701602 0.0454687 L 0.694297 0.0527734 Z M 0.650313 0.170078 " transform="matrix(100,0,0,100,150,950)"/>
<path style="fill:none;stroke-width:0.01;stroke-linecap:butt;stroke-linejoin:miter;stroke:rgb(0%,0%,0%);stroke-opacity:1;stroke-miterlimit:10;" d="M 0.342969 0.0454687 L 0.524805 0.590898 L 0.607422 0.954531 L 0.657031 0.772734 L 0.640508 0.475195 L 0.524805 0.326445 L 0.458672 0.161172 Z M 0.342969 0.0454687 " transform="matrix(100,0,0,100,300,950)"/>
<path style="fill:none;stroke-width:0.01;stroke-linecap:butt;stroke-linejoin:miter;stroke:rgb(0%,0%,0%);stroke-opacity:1;stroke-miterlimit:10;" d="M 0.575156 0.0454687 L 0.5 0.0454687 L 0.435586 0.714727 L 0.428438 0.922344 L 0.424844 0.954531 L 0.471367 0.950977 L 0.492852 0.782734 L 0.507148 0.585898 L 0.525039 0.399805 L 0.546523 0.245898 L 0.564414 0.113477 Z M 0.575156 0.0454687 " transform="matrix(100,0,0,100,450,950)"/>
<path style="fill:none;stroke-width:0.01;stroke-linecap:butt;stroke-linejoin:miter;stroke:rgb(0%,0%,0%);stroke-opacity:1;stroke-miterlimit:10;" d="M 0.501797 0.0454687 L 0.473164 0.0454687 L 0.473164 0.292422 L 0.483906 0.553672 L 0.483906 0.743359 L 0.491055 0.954531 L 0.526836 0.954531 L 0.519687 0.754102 L 0.512539 0.689687 L 0.498203 0.560859 L 0.501797 0.489258 L 0.505352 0.417695 L 0.505352 0.181445 Z M 0.501797 0.0454687 " transform="matrix(100,0,0,100,600,950)"/>
<path style="fill:none;stroke-width:0.01;stroke-linecap:butt;stroke-linejoin:miter;stroke:rgb(0%,0%,0%);stroke-opacity:1;stroke-miterlimit:10;" d="M 0.495781 0.0454687 L 0.474766 0.0454687 L 0.470547 0.247461 L 0.483164 0.453711 L 0.478945 0.5 L 0.495781 0.495781 L 0.504219 0.495781 L 0.508398 0.546289 L 0.508398 0.601016 L 0.483164 0.601016 L 0.495781 0.74832 L 0.521055 0.954531 L 0.529453 0.866172 L 0.516836 0.723047 L 0.521055 0.588398 L 0.525234 0.487383 L 0.516836 0.348477 L 0.504219 0.239063 L 0.495781 0.192773 L 0.491602 0.0707031 Z M 0.495781 0.0454687 " transform="matrix(100,0,0,100,0,1100)"/>
<path style="fill:none;stroke-width:0.01;stroke-linecap:butt;stroke-linejoin:miter;stroke:rgb(0%,0%,0%);stroke-opacity:1;stroke-miterlimit:10;" d="M 0.575742 0.0541016 L 0.536797 0.0454687 L 0.523828 0.149336 L 0.48918 0.344141 L 0.454531 0.525977 L 0.432891 0.651523 L 0.424258 0.738086 L 0.424258 0.954531 L 0.432891 0.898281 L 0.437227 0.73375 L 0.471875 0.582266 L 0.48918 0.443711 L 0.515156 0.335508 L 0.545469 0.192656 L 0.558438 0.123359 Z M 0.575742 0.0541016 " transform="matrix(100,0,0,100,150,1100)"/>
<path style="fill:none;stroke-width:0.01;stroke-linecap:butt;stroke-linejoin:miter;stroke:rgb(0%,0%,0%);stroke-opacity:1;stroke-miterlimit:10;" d="M 0.672109 0.0454687 L 0.451445 0.0454687 L 0.398516 0.221992 L 0.363203 0.407344 L 0.345547 0.575039 L 0.336719 0.680938 L 0.327891 0.778008 L 0.327891 0.839805 L 0.336719 0.936875 L 0.363203 0.954531 L 0.416133 0.725078 L 0.504414 0.424961 L 0.566211 0.248437 L 0.619141 0.151367 Z M 0.672109 0.0454687 " transform="matrix(100,0,0,100,300,1100)"/>
<path style="fill:none;stroke-width:0.01;stroke-linecap:butt;stroke-linejoin:miter;stroke:rgb(0%,0%,0%);stroke-opacity:1;stroke-miterlimit:10;" d="M 0.566211 0.0454687 L 0.523281 0.396211 L 0.501797 0.585898 L 0.487461 0.732656 L 0.473164 0.822109 L 0.466016 0.954531 L 0.455273 0.954531 L 0.458828 0.843594 L 0.444531 0.822109 L 0.433789 0.825703 L 0.433789 0.811367 L 0.444531 0.804219 L 0.458828 0.814961 L 0.458828 0.818555 L 0.473164 0.761289 L 0.494648 0.550117 L 0.512539 0.37832 L 0.526836 0.242305 L 0.54832 0.0454687 Z M 0.566211 0.0454687 " transform="matrix(100,0,0,100,450,1100)"/>
<path style="fill:none;stroke-width:0.01;stroke-linecap:butt;stroke-linejoin:miter;stroke:rgb(0%,0%,0%);stroke-opacity:1;stroke-miterlimit:10;" d="M 0.604023 0.8775 L 0.557773 0.700313 L 0.503867 0.484609 L 0.473047 0.330508 L 0.442227 0.238047 L 0.403711 0.161016 L 0.357461 0.0608594 L 0.334375 0.0454687 L 0.395977 0.176406 L 0.411406 0.176406 L 0.442227 0.1225 L 0.496133 0.10707 L 0.550078 0.099375 L 0.596289 0.0839844 L 0.650234 0.0762891 L 0.665625 0.0762891 L 0.588594 0.0916797 L 0.496133 0.130195 L 0.434531 0.15332 L 0.403711 0.207227 L 0.449922 0.322812 L 0.488437 0.53082 L 0.519258 0.638672 L 0.557773 0.785039 L 0.604023 0.954531 L 0.619414 0.946836 Z M 0.604023 0.8775 " transform="matrix(100,0,0,100,600,1100)"/>
<path style="fill:none;stroke-width:0.01;stroke-linecap:butt;stroke-linejoin:miter;stroke:rgb(0%,0%,0%);stroke-opacity:1;stroke-miterlimit:10;" d="M 0.439609 0.0772266 L 0.458672 0.217109 L 0.484102 0.318828 L 0.490469 0.433242 L 0.522266 0.547695 L 0.541328 0.655742 L 0.560391 0.757461 L 0.579453 0.852813 L 0.58582 0.954531 L 0.579453 0.922773 L 0.547695 0.770195 L 0.509531 0.61125 L 0.484102 0.503164 L 0.465039 0.41418 L 0.452305 0.280664 L 0.420547 0.128086 L 0.41418 0.0517969 L 0.420547 0.0454687 Z M 0.439609 0.0772266 " transform="matrix(100,0,0,100,0,1250)"/>
<path style="fill:none;stroke-width:0.01;stroke-linecap:butt;stroke-linejoin:miter;stroke:rgb(0%,0%,0%);stroke-opacity:1;stroke-miterlimit:10;" d="M 0.954531 0.0664844 L 0.355508 0.0664844 L 0.103242 0.555195 L 0.0612109 0.549922 L 0.0454687 0.576211 L 0.0559766 0.623477 L 0.0822266 0.681289 L 0.11375 0.744336 L 0.145312 0.728594 L 0.213594 0.728594 L 0.281914 0.775898 L 0.444805 0.770625 L 0.623477 0.81793 L 0.949297 0.933516 Z M 0.954531 0.0664844 " transform="matrix(100,0,0,100,150,1250)"/>
<path style="fill:none;stroke-width:0.01;stroke-linecap:butt;stroke-linejoin:miter;stroke:rgb(0%,0%,0%);stroke-opacity:1;stroke-miterlimit:10;" d="M 0.689688 0.950781 L 0.640859 0.826836 L 0.565742 0.676563 L 0.513164 0.530039 L 0.471836 0.413594 L 0.426758 0.25957 L 0.39668 0.180703 L 0.359141 0.0942969 L 0.321563 0.0492187 L 0.310313 0.0454687 L 0.325312 0.0942969 L 0.362891 0.184453 L 0.39293 0.270859 L 0.434258 0.394805 L 0.479336 0.552578 L 0.513164 0.646523 L 0.561992 0.74418 L 0.60332 0.819297 L 0.640859 0.898203 L 0.663398 0.947031 L 0.663398 0.950781 L 0.667148 0.954531 Z M 0.689688 0.950781 " transform="matrix(100,0,0,100,300,1250)"/>
<path style="fill:none;stroke-width:0.01;stroke-linecap:butt;stroke-linejoin:miter;stroke:rgb(0%,0%,0%);stroke-opacity:1;stroke-miterlimit:10;" d="M 0.684336 0.0454687 L 0.412305 0.0454687 L 0.312109 0.954531 L 0.687891 0.954531 Z M 0.684336 0.0454687 " transform="matrix(100,0,0,100,450,1250)"/>
<path style="fill:none;stroke-width:0.01;stroke-linecap:butt;stroke-linejoin:miter;stroke:rgb(0%,0%,0%);stroke-opacity:1;stroke-miterlimit:10;" d="M 0.564414 0.954531 L 0.510742 0.950977 L 0.503594 0.800625 L 0.489258 0.63957 L 0.474961 0.442734 L 0.471367 0.367578 L 0.460625 0.267344 L 0.45707 0.199375 L 0.449883 0.117031 L 0.442734 0.0741016 L 0.435586 0.0454687 L 0.478516 0.0454687 L 0.489258 0.0919922 L 0.496406 0.206523 L 0.507148 0.342539 L 0.510742 0.449883 L 0.528633 0.607383 L 0.54293 0.714727 L 0.550117 0.807813 L 0.557266 0.872227 Z M 0.564414 0.954531 " transform="matrix(100,0,0,100,600,1250)"/>
<path style="fill:none;stroke-width:0.01;stroke-linecap:butt;stroke-linejoin:miter;stroke:rgb(0%,0%,0%);stroke-opacity:1;stroke-miterlimit:10;" d="M 0.37082 0.229258 L 0.455273 0.328633 L 0.529805 0.363398 L 0.619219 0.398164 L 0.658984 0.437891 L 0.713594 0.452813 L 0.753359 0.462734 L 0.808008 0.482617 L 0.8825 0.487578 L 0.907344 0.542227 L 0.927227 0.552148 L 0.937148 0.56707 L 0.937148 0.954531 L 0.8825 0.939648 L 0.812969 0.850234 L 0.798047 0.795586 L 0.738437 0.750859 L 0.673867 0.696211 L 0.579492 0.646562 L 0.524844 0.56707 L 0.485078 0.532305 L 0.43543 0.492539 L 0.350977 0.368359 L 0.301289 0.273984 L 0.266523 0.224297 L 0.221797 0.184531 L 0.187031 0.119961 L 0.162188 0.0851953 L 0.1175 0.0802344 L 0.0976172 0.115 L 0.0826953 0.139844 L 0.0678125 0.149766 L 0.0628516 0.115 L 0.0926562 0.0851953 L 0.107539 0.0603516 L 0.142344 0.0504297 L 0.172148 0.0454687 L 0.216836 0.110039 L 0.256602 0.144805 L 0.30625 0.164687 L 0.341016 0.189531 Z M 0.37082 0.229258 " transform="matrix(100,0,0,100,0,1400)"/>
<path style="fill:none;stroke-width:0.01;stroke-linecap:butt;stroke-linejoin:miter;stroke:rgb(0%,0%,0%);stroke-opacity:1;stroke-miterlimit:10;" d="M 0.601992 0.954531 L 0.53043 0.954531 L 0.533984 0.822109 L 0.505352 0.363984 L 0.491055 0.195781 L 0.476719 0.102734 L 0.405156 0.109883 L 0.398008 0.0454687 L 0.562617 0.0454687 L 0.573359 0.292422 L 0.580547 0.489258 L 0.59125 0.653906 Z M 0.601992 0.954531 " transform="matrix(100,0,0,100,150,1400)"/>
<path style="fill:none;stroke-width:0.01;stroke-linecap:butt;stroke-linejoin:miter;stroke:rgb(0%,0%,0%);stroke-opacity:1;stroke-miterlimit:10;" d="M 0.51293 0.954531 L 0.495703 0.954531 L 0.491367 0.721875 L 0.48707 0.502148 L 0.491367 0.260898 L 0.48707 0.0454687 L 0.5 0.101484 L 0.504297 0.239336 L 0.5 0.407383 L 0.5 0.58832 L 0.504297 0.730508 L 0.504297 0.842539 Z M 0.51293 0.954531 " transform="matrix(100,0,0,100,300,1400)"/>
<path style="fill:none;stroke-width:0.01;stroke-linecap:butt;stroke-linejoin:miter;stroke:rgb(0%,0%,0%);stroke-opacity:1;stroke-miterlimit:10;" d="M 0.67082 0.601328 L 0.61293 0.543437 L 0.578164 0.450781 L 0.549219 0.358125 L 0.531836 0.282852 L 0.514492 0.196016 L 0.502891 0.138086 L 0.473945 0.109141 L 0.439219 0.16707 L 0.416055 0.201797 L 0.392891 0.265508 L 0.375508 0.300234 L 0.346563 0.265508 L 0.323398 0.114922 L 0.317617 0.0570312 L 0.306016 0.0454687 L 0.213359 0.103359 L 0.21918 0.126523 L 0.271289 0.109141 L 0.288633 0.103359 L 0.300234 0.16125 L 0.282852 0.555 L 0.27707 0.740312 L 0.265508 0.867695 L 0.242344 0.954531 L 0.253906 0.94875 L 0.288633 0.78082 L 0.294453 0.520273 L 0.311797 0.282852 L 0.311797 0.143906 L 0.334961 0.271289 L 0.358125 0.317617 L 0.392891 0.334961 L 0.433398 0.282852 L 0.445 0.21918 L 0.468164 0.184414 L 0.491328 0.201797 L 0.508672 0.271289 L 0.543438 0.381289 L 0.595547 0.578164 L 0.624492 0.624492 L 0.665039 0.682383 L 0.688203 0.682383 L 0.746094 0.555 L 0.786641 0.450781 L 0.775039 0.416055 L 0.734492 0.497109 L 0.705547 0.589766 Z M 0.67082 0.601328 " transform="matrix(100,0,0,100,450,1400)"/>
<path style="fill:none;stroke-width:0.01;stroke-linecap:butt;stroke-linejoin:miter;stroke:rgb(0%,0%,0%);stroke-opacity:1;stroke-miterlimit:10;" d="M 0.784102 0.817383 L 0.733164 0.70375 L 0.690039 0.558789 L 0.674375 0.452969 L 0.670469 0.347188 L 0.658711 0.25707 L 0.643008 0.174766 L 0.596016 0.135586 L 0.552891 0.166914 L 0.509805 0.225703 L 0.478438 0.304063 L 0.443164 0.417695 L 0.423594 0.515664 L 0.419688 0.617539 L 0.40793 0.652812 L 0.392227 0.578359 L 0.376563 0.452969 L 0.368711 0.351094 L 0.349141 0.143398 L 0.325625 0.0454687 L 0.313867 0.0728906 L 0.309961 0.108164 L 0.302109 0.178672 L 0.302109 0.304063 L 0.282539 0.233555 L 0.255078 0.127734 L 0.239414 0.166914 L 0.239414 0.276641 L 0.215898 0.445156 L 0.204141 0.570547 L 0.192383 0.668477 L 0.18457 0.891836 L 0.18457 0.946719 L 0.196328 0.950625 L 0.200234 0.813477 L 0.227656 0.531367 L 0.251172 0.292305 L 0.251172 0.202188 L 0.247266 0.155156 L 0.255078 0.139492 L 0.274687 0.206094 L 0.298203 0.304063 L 0.309961 0.221797 L 0.309961 0.123828 L 0.313867 0.0964063 L 0.325625 0.0924609 L 0.329531 0.119922 L 0.341289 0.198281 L 0.364805 0.496094 L 0.380469 0.609727 L 0.38832 0.66457 L 0.419688 0.66457 L 0.419688 0.574453 L 0.431445 0.5 L 0.458867 0.413789 L 0.505859 0.268828 L 0.541133 0.229609 L 0.588164 0.237461 L 0.627344 0.25707 L 0.639102 0.31582 L 0.646953 0.386367 L 0.658711 0.476484 L 0.662617 0.590117 L 0.686133 0.672422 L 0.740977 0.833086 L 0.780156 0.950625 L 0.81543 0.954531 L 0.811523 0.872266 Z M 0.784102 0.817383 " transform="matrix(100,0,0,100,600,1400)"/>
<path style="fill:none;stroke-width:0.01;stroke-linecap:butt;stroke-linejoin:miter;stroke:rgb(0%,0%,0%);stroke-opacity:1;stroke-miterlimit:10;" d="M 0.610547 0.0454687 L 0.585977 0.389453 L 0.549141 0.647422 L 0.512266 0.85625 L 0.47543 0.954531 L 0.426289 0.905391 L 0.401719 0.83168 L 0.389453 0.819414 L 0.389453 0.598281 L 0.414023 0.610547 L 0.426289 0.684258 L 0.450859 0.696562 L 0.47543 0.671992 L 0.5 0.487734 L 0.549141 0.254297 L 0.536836 0.0577344 Z M 0.610547 0.0454687 " transform="matrix(100,0,0,100,0,1550)"/>
<path style="fill:none;stroke-width:0.01;stroke-linecap:butt;stroke-linejoin:miter;stroke:rgb(0%,0%,0%);stroke-opacity:1;stroke-miterlimit:10;" d="M 0.61918 0.954531 L 0.497227 0.954531 L 0.458438 0.616406 L 0.43625 0.466758 L 0.419609 0.305977 L 0.397461 0.128594 L 0.38082 0.0454687 L 0.408555 0.123047 L 0.441797 0.217305 L 0.475039 0.311523 L 0.486133 0.405781 L 0.50832 0.466758 L 0.530469 0.538789 L 0.541562 0.655195 L 0.596992 0.832578 Z M 0.61918 0.954531 " transform="matrix(100,0,0,100,150,1550)"/>
<path style="fill:none;stroke-width:0.01;stroke-linecap:butt;stroke-linejoin:miter;stroke:rgb(0%,0%,0%);stroke-opacity:1;stroke-miterlimit:10;" d="M 0.686602 0.0454687 L 0.313398 0.0454687 L 0.686602 0.954531 Z M 0.686602 0.0454687 " transform="matrix(100,0,0,100,300,1550)"/>
<path style="fill:none;stroke-width:0.01;stroke-linecap:butt;stroke-linejoin:miter;stroke:rgb(0%,0%,0%);stroke-opacity:1;stroke-miterlimit:10;" d="M 0.545859 0.103828 L 0.537539 0.278984 L 0.5125 0.454141 L 0.4875 0.662617 L 0.454141 0.954531 L 0.479141 0.554219 L 0.49582 0.237266 L 0.50418 0.0454687 L 0.545859 0.0537891 Z M 0.545859 0.103828 " transform="matrix(100,0,0,100,450,1550)"/>
<path style="fill:none;stroke-width:0.01;stroke-linecap:butt;stroke-linejoin:miter;stroke:rgb(0%,0%,0%);stroke-opacity:1;stroke-miterlimit:10;" d="M 0.521484 0.0454687 L 0.478516 0.0454687 L 0.474961 0.292422 L 0.485703 0.381875 L 0.482109 0.528633 L 0.482109 0.70043 L 0.478516 0.847188 L 0.471367 0.954531 L 0.525039 0.954531 L 0.514297 0.87582 L 0.514297 0.607383 L 0.525039 0.489258 L 0.517891 0.417695 L 0.517891 0.331797 L 0.510742 0.263789 L 0.521484 0.199375 L 0.528633 0.0955469 Z M 0.521484 0.0454687 " transform="matrix(100,0,0,100,600,1550)"/>
<path style="fill:none;stroke-width:0.01;stroke-linecap:butt;stroke-linejoin:miter;stroke:rgb(0%,0%,0%);stroke-opacity:1;stroke-miterlimit:10;" d="M 0.49418 0.954531 L 0.474844 0.954531 L 0.474844 0.881055 L 0.467109 0.846211 L 0.447773 0.830742 L 0.451641 0.826875 L 0.474844 0.765 L 0.486445 0.730156 L 0.509687 0.521289 L 0.521289 0.312383 L 0.517422 0.300781 L 0.517422 0.254336 L 0.529023 0.111211 L 0.521289 0.0454688 L 0.536758 0.0454688 L 0.540625 0.142148 L 0.552227 0.180859 L 0.536758 0.389766 L 0.529023 0.587031 L 0.521289 0.718555 L 0.517422 0.838477 L 0.509687 0.927461 Z M 0.49418 0.954531 " transform="matrix(100,0,0,100,0,1700)"/>
<path style="fill:none;stroke-width:0.01;stroke-linecap:butt;stroke-linejoin:miter;stroke:rgb(0%,0%,0%);stroke-opacity:1;stroke-miterlimit:10;" d="M 0.635391 0.954531 L 0.529023 0.954531 L 0.548359 0.877188 L 0.558008 0.790117 L 0.519336 0.703086 L 0.480664 0.538672 L 0.441992 0.422617 L 0.422617 0.325938 L 0.393633 0.209883 L 0.364609 0.113164 L 0.364609 0.0454688 L 0.393633 0.142148 L 0.451641 0.258203 L 0.480664 0.451641 L 0.519336 0.538672 L 0.558008 0.645078 L 0.596719 0.809492 L 0.616055 0.8675 Z M 0.635391 0.954531 " transform="matrix(100,0,0,100,150,1700)"/>
<path style="fill:none;stroke-width:0.01;stroke-linecap:butt;stroke-linejoin:miter;stroke:rgb(0%,0%,0%);stroke-opacity:1;stroke-miterlimit:10;" d="M 0.636367 0.0454688 L 0.524062 0.0454688 L 0.443867 0.296797 L 0.422461 0.189844 L 0.401055 0.184492 L 0.422461 0.366328 L 0.363633 0.56418 L 0.363633 0.954531 L 0.374336 0.94918 L 0.368984 0.601602 L 0.395703 0.548125 L 0.454531 0.43582 Z M 0.636367 0.0454688 " transform="matrix(100,0,0,100,300,1700)"/>
<path style="fill:none;stroke-width:0.01;stroke-linecap:butt;stroke-linejoin:miter;stroke:rgb(0%,0%,0%);stroke-opacity:1;stroke-miterlimit:10;" d="M 0.595234 0.0454688 L 0.602422 0.954531 L 0.401172 0.954531 L 0.401172 0.94375 L 0.397578 0.918594 L 0.397578 0.89707 L 0.401172 0.886289 L 0.401172 0.871914 L 0.419141 0.850352 L 0.437109 0.825195 L 0.444297 0.81082 L 0.440703 0.789258 L 0.444297 0.756914 L 0.444297 0.681445 L 0.451484 0.591641 L 0.462266 0.473047 L 0.465859 0.386797 L 0.473047 0.296992 L 0.473047 0.264648 L 0.462266 0.235898 L 0.469453 0.164023 L 0.483828 0.10293 L 0.491016 0.0634375 L 0.491016 0.0490625 Z M 0.595234 0.0454688 " transform="matrix(100,0,0,100,450,1700)"/>
<path style="fill:none;stroke-width:0.01;stroke-linecap:butt;stroke-linejoin:miter;stroke:rgb(0%,0%,0%);stroke-opacity:1;stroke-miterlimit:10;" d="M 0.954531 0.435078 L 0.954531 0.846328 L 0.813867 0.835508 L 0.759727 0.792227 L 0.738086 0.759727 L 0.705625 0.694805 L 0.705625 0.629883 L 0.662344 0.608242 L 0.619063 0.597422 L 0.543281 0.597422 L 0.391758 0.586562 L 0.370117 0.575742 L 0.305195 0.48918 L 0.251094 0.402578 L 0.186133 0.348477 L 0.121211 0.370117 L 0.0562891 0.380938 L 0.0454688 0.359297 L 0.0995703 0.283555 L 0.164492 0.272734 L 0.196953 0.272734 L 0.218633 0.240273 L 0.229453 0.164492 L 0.218633 0.153672 L 0.348477 0.207773 L 0.402578 0.218633 L 0.456719 0.186133 L 0.532461 0.229453 L 0.586563 0.283555 L 0.640703 0.348477 L 0.716445 0.370117 L 0.813867 0.370117 L 0.878789 0.391758 L 0.932891 0.380938 Z M 0.954531 0.435078 " transform="matrix(100,0,0,100,600,1700)"/>
<path style="fill:none;stroke-width:0.01;stroke-linecap:butt;stroke-linejoin:miter;stroke:rgb(0%,0%,0%);stroke-opacity:1;stroke-miterlimit:10;" d="M 0.501797 0.0526172 L 0.505352 0.399805 L 0.508945 0.539375 L 0.494648 0.689688 L 0.491055 0.807813 L 0.462422 0.954531 L 0.537578 0.950977 L 0.537578 0.0454688 Z M 0.501797 0.0526172 " transform="matrix(100,0,0,100,0,1850)"/>
<path style="fill:none;stroke-width:0.01;stroke-linecap:butt;stroke-linejoin:miter;stroke:rgb(0%,0%,0%);stroke-opacity:1;stroke-miterlimit:10;" d="M 0.893125 0.487734 L 0.88082 0.954531 L 0.807109 0.893125 L 0.708828 0.782539 L 0.512266 0.659688 L 0.426289 0.585977 L 0.340313 0.5 L 0.266602 0.401719 L 0.192891 0.377148 L 0.14375 0.278867 L 0.11918 0.156016 L 0.106875 0.0700391 L 0.106875 0.0454688 L 0.180586 0.0454688 L 0.278867 0.16832 L 0.414023 0.229727 L 0.52457 0.303438 L 0.647422 0.340312 L 0.757969 0.414023 L 0.843984 0.463164 Z M 0.893125 0.487734 " transform="matrix(100,0,0,100,150,1850)"/>
<path style="fill:none;stroke-width:0.01;stroke-linecap:butt;stroke-linejoin:miter;stroke:rgb(0%,0%,0%);stroke-opacity:1;stroke-miterlimit:10;" d="M 0.757109 0.0454688 L 0.775469 0.954531 L 0.683672 0.853555 L 0.628555 0.743359 L 0.518359 0.660703 L 0.545898 0.633164 L 0.49082 0.633164 L 0.417344 0.596406 L 0.371445 0.532148 L 0.334727 0.504609 L 0.334727 0.477031 L 0.371445 0.421953 L 0.398984 0.412773 L 0.398984 0.293398 L 0.297969 0.128086 L 0.224531 0.0454688 Z M 0.757109 0.0454688 " transform="matrix(100,0,0,100,300,1850)"/>
<path style="fill:none;stroke-width:0.01;stroke-linecap:butt;stroke-linejoin:miter;stroke:rgb(0%,0%,0%);stroke-opacity:1;stroke-miterlimit:10;" d="M 0.658281 0.954531 L 0.585234 0.808438 L 0.568984 0.743516 L 0.560859 0.68668 L 0.536523 0.621758 L 0.504062 0.548711 L 0.504062 0.51625 L 0.528398 0.435078 L 0.504062 0.386367 L 0.487813 0.378242 L 0.447227 0.321445 L 0.422891 0.288945 L 0.406641 0.248359 L 0.398555 0.183438 L 0.37418 0.175313 L 0.341719 0.175313 L 0.341719 0.150977 L 0.349844 0.126641 L 0.341719 0.0779297 L 0.341719 0.0454688 L 0.39043 0.0535547 L 0.414766 0.0454688 L 0.447227 0.0779297 L 0.447227 0.142852 L 0.455352 0.183438 L 0.487813 0.224023 L 0.504062 0.256484 L 0.528398 0.305195 L 0.552773 0.337656 L 0.585234 0.305195 L 0.62582 0.272734 L 0.642031 0.288945 Z M 0.658281 0.954531 " transform="matrix(100,0,0,100,450,1850)"/>
<path style="fill:none;stroke-width:0.01;stroke-linecap:butt;stroke-linejoin:miter;stroke:rgb(0%,0%,0%);stroke-opacity:1;stroke-miterlimit:10;" d="M 0.288594 0.954531 L 0.753711 0.943984 L 0.753711 0.848828 L 0.732539 0.806563 L 0.732539 0.764258 L 0.721992 0.700859 L 0.721992 0.669141 L 0.669141 0.605703 L 0.669141 0.552852 L 0.679688 0.468281 L 0.658555 0.362578 L 0.658555 0.330859 L 0.679688 0.246289 L 0.648008 0.193438 L 0.648008 0.119453 L 0.542266 0.0560156 L 0.489414 0.0454688 L 0.426016 0.0666016 L 0.373164 0.119453 L 0.330859 0.140586 L 0.299141 0.204023 L 0.320312 0.246289 L 0.341445 0.309727 L 0.362578 0.341445 L 0.351992 0.41543 L 0.320312 0.510586 L 0.288594 0.542266 L 0.341445 0.595156 L 0.330859 0.658555 L 0.351992 0.764258 L 0.320312 0.827695 L 0.256875 0.859414 L 0.246289 0.922852 Z M 0.288594 0.954531 " transform="matrix(100,0,0,100,600,1850)"/>
<path style="fill:none;stroke-width:0.01;stroke-linecap:butt;stroke-linejoin:miter;stroke:rgb(0%,0%,0%);stroke-opacity:1;stroke-miterlimit:10;" d="M 0.659883 0.0454688 L 0.659883 0.954531 L 0.340117 0.950938 L 0.354492 0.875508 L 0.368828 0.803633 L 0.393984 0.710195 L 0.411953 0.692227 L 0.419141 0.645508 L 0.426328 0.559297 L 0.447891 0.512578 L 0.476641 0.419141 L 0.480234 0.340117 L 0.505391 0.264648 L 0.508984 0.149648 L 0.523359 0.0778125 L 0.526953 0.0490625 L 0.526953 0.0454688 Z M 0.659883 0.0454688 " transform="matrix(100,0,0,100,0,2000)"/>
<path style="fill:none;stroke-width:0.01;stroke-linecap:butt;stroke-linejoin:miter;stroke:rgb(0%,0%,0%);stroke-opacity:1;stroke-miterlimit:10;" d="M 0.624531 0.923398 L 0.624531 0.0454688 L 0.587188 0.16375 L 0.580938 0.120156 L 0.506211 0.151289 L 0.475078 0.188672 L 0.443945 0.238477 L 0.456406 0.269609 L 0.506211 0.369258 L 0.456406 0.493789 L 0.437734 0.512461 L 0.38793 0.512461 L 0.375469 0.580938 L 0.406602 0.668125 L 0.412813 0.71793 L 0.419063 0.767734 L 0.406602 0.798867 L 0.487539 0.792656 L 0.537344 0.798867 L 0.537344 0.954531 Z M 0.624531 0.923398 " transform="matrix(100,0,0,100,150,2000)"/>
<path style="fill:none;stroke-width:0.01;stroke-linecap:butt;stroke-linejoin:miter;stroke:rgb(0%,0%,0%);stroke-opacity:1;stroke-miterlimit:10;" d="M 0.938594 0.24082 L 0.954531 0.687383 L 0.922656 0.727266 L 0.850859 0.695391 L 0.795039 0.647539 L 0.723281 0.559805 L 0.67543 0.511953 L 0.595703 0.52793 L 0.515938 0.647539 L 0.476094 0.735234 L 0.468086 0.783086 L 0.404297 0.830938 L 0.300625 0.807031 L 0.204961 0.783086 L 0.125195 0.791055 L 0.0933203 0.799063 L 0.0773438 0.830938 L 0.0454687 0.751211 L 0.069375 0.655508 L 0.0614063 0.607656 L 0.069375 0.448164 L 0.157109 0.41625 L 0.300625 0.384375 L 0.348477 0.400313 L 0.372422 0.424258 L 0.44418 0.408281 L 0.5 0.352461 L 0.523906 0.280703 L 0.571758 0.232852 L 0.603672 0.216914 L 0.683398 0.185 L 0.739219 0.169062 L 0.811016 0.177031 L 0.850859 0.192969 Z M 0.938594 0.24082 " transform="matrix(100,0,0,100,300,2000)"/>
<path style="fill:none;stroke-width:0.01;stroke-linecap:butt;stroke-linejoin:miter;stroke:rgb(0%,0%,0%);stroke-opacity:1;stroke-miterlimit:10;" d="M 0.954531 0.425898 L 0.944648 0.742109 L 0.845859 0.742109 L 0.756914 0.692695 L 0.687734 0.633398 L 0.56918 0.544453 L 0.490117 0.53457 L 0.361641 0.564219 L 0.272734 0.613633 L 0.22332 0.633398 L 0.144258 0.613633 L 0.0948437 0.564219 L 0.0454688 0.564219 L 0.0553516 0.544453 L 0.0849609 0.504922 L 0.0948437 0.46543 L 0.124492 0.416016 L 0.164023 0.376484 L 0.183789 0.317187 L 0.154141 0.277656 L 0.173906 0.257891 L 0.312266 0.297422 L 0.420937 0.317187 L 0.598828 0.317187 L 0.687734 0.346836 L 0.756914 0.376484 L 0.835977 0.386367 L 0.905156 0.386367 Z M 0.954531 0.425898 " transform="matrix(100,0,0,100,450,2000)"/>
<path style="fill:none;stroke-width:0.01;stroke-linecap:butt;stroke-linejoin:miter;stroke:rgb(0%,0%,0%);stroke-opacity:1;stroke-miterlimit:10;" d="M 0.851602 0.146445 L 0.839922 0.954531 L 0.614609 0.946758 L 0.579648 0.900156 L 0.556328 0.857422 L 0.540781 0.7875 L 0.521367 0.721445 L 0.498047 0.670938 L 0.49418 0.632109 L 0.490273 0.608789 L 0.478633 0.604883 L 0.447539 0.608789 L 0.420352 0.589336 L 0.400938 0.566055 L 0.393164 0.558281 L 0.346523 0.558281 L 0.292148 0.538867 L 0.237773 0.527188 L 0.171719 0.527188 L 0.148398 0.52332 L 0.148398 0.480586 L 0.152305 0.465039 L 0.160078 0.445625 L 0.179492 0.426172 L 0.20668 0.414531 L 0.284375 0.367891 L 0.327109 0.352383 L 0.354297 0.321289 L 0.369844 0.297969 L 0.385391 0.286328 L 0.404805 0.278555 L 0.416484 0.255234 L 0.435898 0.231953 L 0.466992 0.204727 L 0.486406 0.189219 L 0.525234 0.127031 L 0.575742 0.103711 L 0.610703 0.107617 L 0.657344 0.111484 L 0.703945 0.115391 L 0.735039 0.0842969 L 0.74668 0.06875 L 0.766133 0.0609766 L 0.777773 0.0532422 L 0.808867 0.0454688 L 0.832148 0.0493359 L 0.843828 0.0493359 Z M 0.851602 0.146445 " transform="matrix(100,0,0,100,600,2000)"/>
<path style="fill:none;stroke-width:0.01;stroke-linecap:butt;stroke-linejoin:miter;stroke:rgb(0%,0%,0%);stroke-opacity:1;stroke-miterlimit:10;" d="M 0.904336 0.0454688 L 0.904336 0.954531 L 0.894258 0.823945 L 0.86918 0.77875 L 0.808906 0.688359 L 0.808906 0.602969 L 0.798828 0.552734 L 0.783789 0.517578 L 0.758672 0.5025 L 0.758672 0.422148 L 0.753633 0.351836 L 0.738555 0.32168 L 0.698398 0.296602 L 0.693359 0.281523 L 0.623047 0.366914 L 0.607969 0.361875 L 0.602969 0.331758 L 0.602969 0.291563 L 0.587891 0.256406 L 0.567813 0.231289 L 0.532656 0.206172 L 0.4975 0.201172 L 0.432188 0.160977 L 0.40707 0.166016 L 0.381953 0.191094 L 0.32168 0.216211 L 0.256406 0.241328 L 0.176055 0.261445 L 0.0956641 0.256406 L 0.115781 0.22625 L 0.13082 0.186094 L 0.140898 0.160977 L 0.150938 0.115781 L 0.160977 0.085625 L 0.166016 0.0655469 L 0.160977 0.0454688 Z M 0.904336 0.0454688 " transform="matrix(100,0,0,100,0,2150)"/>
<path style="fill:none;stroke-width:0.01;stroke-linecap:butt;stroke-linejoin:miter;stroke:rgb(0%,0%,0%);stroke-opacity:1;stroke-miterlimit:10;" d="M 0.918477 0.0742969 L 0.918477 0.954531 L 0.12 0.949727 L 0.153672 0.906445 L 0.168125 0.867969 L 0.201797 0.839102 L 0.216211 0.791016 L 0.163281 0.762148 L 0.134453 0.776563 L 0.105586 0.742891 L 0.0863281 0.738086 L 0.0767187 0.699609 L 0.110391 0.627461 L 0.124805 0.588984 L 0.115195 0.521641 L 0.105586 0.492773 L 0.134453 0.492773 L 0.168125 0.487969 L 0.216211 0.46875 L 0.240273 0.463906 L 0.27875 0.449492 L 0.312422 0.420625 L 0.350898 0.42543 L 0.374922 0.386953 L 0.423047 0.319609 L 0.461523 0.295586 L 0.504805 0.281133 L 0.552891 0.252266 L 0.596211 0.228242 L 0.629883 0.199375 L 0.644297 0.156094 L 0.677969 0.132031 L 0.716445 0.103164 L 0.750117 0.112813 L 0.778984 0.132031 L 0.822266 0.08875 L 0.855938 0.0694922 L 0.884805 0.0454688 L 0.923281 0.0454688 Z M 0.918477 0.0742969 " transform="matrix(100,0,0,100,150,2150)"/>
<path style="fill:none;stroke-width:0.01;stroke-linecap:butt;stroke-linejoin:miter;stroke:rgb(0%,0%,0%);stroke-opacity:1;stroke-miterlimit:10;" d="M 0.792734 0.0454688 L 0.797461 0.954531 L 0.202539 0.954531 L 0.202539 0.925977 L 0.226328 0.902188 L 0.231094 0.859336 L 0.226328 0.816523 L 0.235859 0.768906 L 0.231094 0.735586 L 0.245352 0.711797 L 0.269141 0.702266 L 0.288203 0.702266 L 0.311992 0.692773 L 0.335781 0.692773 L 0.364336 0.668984 L 0.378633 0.607109 L 0.402422 0.554727 L 0.426211 0.521406 L 0.440508 0.497617 L 0.450039 0.459531 L 0.469063 0.430977 L 0.464297 0.488086 L 0.459531 0.530938 L 0.473828 0.564258 L 0.511914 0.554727 L 0.526172 0.507148 L 0.540469 0.478594 L 0.573789 0.469062 L 0.621367 0.435742 L 0.640391 0.392891 L 0.640391 0.350078 L 0.668984 0.331016 L 0.697539 0.316758 L 0.716563 0.264414 L 0.716563 0.178711 L 0.730859 0.150156 L 0.745117 0.135898 L 0.759414 0.102578 L 0.778437 0.0787891 Z M 0.792734 0.0454688 " transform="matrix(100,0,0,100,300,2150)"/>
<path style="fill:none;stroke-width:0.01;stroke-linecap:butt;stroke-linejoin:miter;stroke:rgb(0%,0%,0%);stroke-opacity:1;stroke-miterlimit:10;" d="M 0.954531 0.198359 L 0.954531 0.735547 L 0.855391 0.694219 L 0.739688 0.644609 L 0.632227 0.652891 L 0.541328 0.694219 L 0.433867 0.719023 L 0.334727 0.760313 L 0.243789 0.760313 L 0.202461 0.743789 L 0.10332 0.785117 L 0.0454688 0.801641 L 0.0950391 0.727266 L 0.161172 0.669414 L 0.210742 0.619844 L 0.25207 0.561992 L 0.326445 0.512383 L 0.45043 0.471094 L 0.557852 0.421484 L 0.64875 0.371914 L 0.723125 0.305781 L 0.789258 0.256211 L 0.830586 0.223125 L 0.880156 0.198359 L 0.921484 0.198359 Z M 0.954531 0.198359 " transform="matrix(100,0,0,100,450,2150)"/>
<path style="fill:none;stroke-width:0.01;stroke-linecap:butt;stroke-linejoin:miter;stroke:rgb(0%,0%,0%);stroke-opacity:1;stroke-miterlimit:10;" d="M 0.372734 0.409102 L 0.536367 0.463633 L 0.7 0.390898 L 0.845469 0.318164 L 0.954531 0.245469 L 0.936367 0.681836 L 0.827266 0.790898 L 0.663633 0.845469 L 0.518164 0.827266 L 0.372734 0.7 L 0.227266 0.572734 L 0.118164 0.5 L 0.0454688 0.409102 L 0.0818359 0.154531 L 0.154531 0.209102 L 0.227266 0.281836 L 0.281836 0.336367 Z M 0.372734 0.409102 " transform="matrix(100,0,0,100,600,2150)"/>
<path style="fill:none;stroke-width:0.01;stroke-linecap:butt;stroke-linejoin:miter;stroke:rgb(0%,0%,0%);stroke-opacity:1;stroke-miterlimit:10;" d="M 0.659297 0.0765234 L 0.66707 0.954531 L 0.628203 0.93125 L 0.597109 0.876836 L 0.542734 0.768047 L 0.496133 0.690352 L 0.449492 0.604883 L 0.410664 0.527188 L 0.364023 0.465039 L 0.364023 0.426172 L 0.348477 0.402891 L 0.33293 0.371797 L 0.35625 0.37957 L 0.35625 0.255234 L 0.348477 0.185313 L 0.340703 0.0998438 L 0.387344 0.0609766 L 0.441719 0.0454688 L 0.488359 0.0998438 L 0.542734 0.0842969 L 0.597109 0.0609766 Z M 0.659297 0.0765234 " transform="matrix(100,0,0,100,0,2300)"/>
<path style="fill:none;stroke-width:0.01;stroke-linecap:butt;stroke-linejoin:miter;stroke:rgb(0%,0%,0%);stroke-opacity:1;stroke-miterlimit:10;" d="M 0.673984 0.0454688 L 0.67832 0.945859 L 0.673984 0.954531 L 0.665273 0.911055 L 0.643555 0.893633 L 0.621797 0.867539 L 0.595703 0.84582 L 0.565234 0.828398 L 0.547852 0.754453 L 0.539141 0.684844 L 0.539141 0.602227 L 0.53043 0.558711 L 0.517383 0.493477 L 0.491289 0.393438 L 0.456484 0.310781 L 0.430391 0.241211 L 0.413008 0.197695 L 0.378203 0.149844 L 0.352109 0.101992 L 0.330352 0.0889453 L 0.32168 0.0802344 L 0.326016 0.0715625 L 0.669648 0.0715625 Z M 0.673984 0.0454688 " transform="matrix(100,0,0,100,150,2300)"/>
<path style="fill:none;stroke-width:0.01;stroke-linecap:butt;stroke-linejoin:miter;stroke:rgb(0%,0%,0%);stroke-opacity:1;stroke-miterlimit:10;" d="M 0.781602 0.0543359 L 0.772734 0.954531 L 0.577617 0.954531 L 0.528828 0.794883 L 0.511094 0.728398 L 0.484492 0.653008 L 0.453438 0.590898 L 0.417969 0.537695 L 0.386914 0.502227 L 0.338125 0.475625 L 0.315977 0.471172 L 0.320391 0.448984 L 0.293789 0.440117 L 0.280469 0.417969 L 0.280469 0.386914 L 0.25832 0.395781 L 0.231719 0.400234 L 0.222852 0.378047 L 0.218398 0.364727 L 0.231719 0.342578 L 0.231719 0.324844 L 0.236133 0.302656 L 0.240586 0.289375 L 0.25832 0.271602 L 0.289375 0.25832 L 0.342578 0.236133 L 0.404648 0.218398 L 0.453438 0.19625 L 0.502227 0.178477 L 0.55543 0.147461 L 0.595352 0.120859 L 0.639687 0.0853516 L 0.653008 0.0676172 L 0.675156 0.05875 L 0.719531 0.0454688 L 0.750547 0.0454688 Z M 0.781602 0.0543359 " transform="matrix(100,0,0,100,300,2300)"/>
<path style="fill:none;stroke-width:0.01;stroke-linecap:butt;stroke-linejoin:miter;stroke:rgb(0%,0%,0%);stroke-opacity:1;stroke-miterlimit:10;" d="M 0.652734 0.0491016 L 0.649102 0.954531 L 0.54 0.652734 L 0.492734 0.536367 L 0.456367 0.449102 L 0.423633 0.372734 L 0.394531 0.336367 L 0.365469 0.296367 L 0.347266 0.278164 L 0.347266 0.270898 L 0.350898 0.256367 L 0.350898 0.227266 L 0.376367 0.216367 L 0.412734 0.205469 L 0.430898 0.205469 L 0.463633 0.198164 L 0.485469 0.176367 L 0.518164 0.169102 L 0.536367 0.161836 L 0.561836 0.132734 L 0.572734 0.114531 L 0.58 0.0963672 L 0.616367 0.06 L 0.634531 0.0454688 Z M 0.652734 0.0491016 " transform="matrix(100,0,0,100,450,2300)"/>
<path style="fill:none;stroke-width:0.01;stroke-linecap:butt;stroke-linejoin:miter;stroke:rgb(0%,0%,0%);stroke-opacity:1;stroke-miterlimit:10;" d="M 0.817852 0.242539 L 0.817852 0.948203 L 0.468203 0.954531 L 0.423711 0.776523 L 0.398281 0.693906 L 0.366484 0.560391 L 0.353789 0.465039 L 0.328359 0.382383 L 0.309297 0.325156 L 0.25207 0.306094 L 0.239336 0.331523 L 0.226641 0.344258 L 0.207578 0.331523 L 0.182148 0.318828 L 0.194844 0.293398 L 0.194844 0.236172 L 0.213906 0.134453 L 0.233008 0.0835938 L 0.239336 0.0454688 L 0.264766 0.0772266 L 0.296563 0.0899609 L 0.328359 0.109023 L 0.423711 0.267969 L 0.455508 0.306094 L 0.493633 0.356953 L 0.544492 0.401445 L 0.582656 0.41418 L 0.627148 0.420547 L 0.678008 0.401445 L 0.728867 0.382383 L 0.760664 0.318828 L 0.786094 0.280664 Z M 0.817852 0.242539 " transform="matrix(100,0,0,100,600,2300)"/>
<path style="fill:none;stroke-width:0.01;stroke-linecap:butt;stroke-linejoin:miter;stroke:rgb(0%,0%,0%);stroke-opacity:1;stroke-miterlimit:10;" d="M 0.804102 0.150117 L 0.804102 0.948008 L 0.75832 0.954531 L 0.732187 0.934922 L 0.725625 0.915312 L 0.738711 0.882617 L 0.699492 0.836836 L 0.640625 0.817187 L 0.614453 0.75832 L 0.568672 0.660234 L 0.549063 0.594844 L 0.516367 0.522891 L 0.464023 0.4575 L 0.418242 0.379023 L 0.385547 0.30707 L 0.339766 0.228594 L 0.300508 0.182813 L 0.280898 0.163164 L 0.228594 0.17625 L 0.195898 0.189336 L 0.195898 0.0585156 L 0.267813 0.0519922 L 0.333242 0.0454688 L 0.39207 0.0716016 L 0.4575 0.0977734 L 0.516367 0.117383 L 0.581758 0.130469 L 0.640625 0.143555 L 0.764883 0.143555 Z M 0.804102 0.150117 " transform="matrix(100,0,0,100,0,2450)"/>
<path style="fill:none;stroke-width:0.01;stroke-linecap:butt;stroke-linejoin:miter;stroke:rgb(0%,0%,0%);stroke-opacity:1;stroke-miterlimit:10;" d="M 0.858125 0.128086 L 0.858125 0.954531 L 0.658398 0.761719 L 0.555078 0.651523 L 0.472461 0.575742 L 0.410469 0.534453 L 0.362266 0.513789 L 0.327813 0.451797 L 0.286484 0.376016 L 0.272734 0.300273 L 0.272734 0.258945 L 0.265859 0.190078 L 0.25207 0.169414 L 0.203867 0.141875 L 0.176289 0.121211 L 0.155664 0.107422 L 0.141875 0.100547 L 0.176289 0.0592187 L 0.183203 0.0454688 L 0.217617 0.0454688 L 0.25207 0.0661328 L 0.300273 0.107422 L 0.334727 0.162539 L 0.369141 0.238281 L 0.38293 0.286484 L 0.438008 0.314063 L 0.541328 0.286484 L 0.679063 0.245195 L 0.823711 0.135 L 0.858125 0.0936719 Z M 0.858125 0.128086 " transform="matrix(100,0,0,100,150,2450)"/>
<path style="fill:none;stroke-width:0.01;stroke-linecap:butt;stroke-linejoin:miter;stroke:rgb(0%,0%,0%);stroke-opacity:1;stroke-miterlimit:10;" d="M 0.295195 0.422734 L 0.295195 0.386797 L 0.316758 0.397578 L 0.334727 0.372422 L 0.331133 0.347305 L 0.352695 0.340117 L 0.356289 0.293398 L 0.359883 0.250273 L 0.374219 0.178398 L 0.385 0.113711 L 0.388594 0.070625 L 0.392187 0.0454688 L 0.704805 0.0454688 L 0.704805 0.954531 L 0.679648 0.94375 L 0.622187 0.875508 L 0.607813 0.871914 L 0.607813 0.832383 L 0.568281 0.796445 L 0.564688 0.825195 L 0.546719 0.774883 L 0.492812 0.69582 L 0.460469 0.649102 L 0.446094 0.631172 L 0.420937 0.616797 L 0.377813 0.591641 L 0.331133 0.588047 L 0.316758 0.526953 L 0.295195 0.465859 Z M 0.295195 0.422734 " transform="matrix(100,0,0,100,300,2450)"/>
<path style="fill:none;stroke-width:0.01;stroke-linecap:butt;stroke-linejoin:miter;stroke:rgb(0%,0%,0%);stroke-opacity:1;stroke-miterlimit:10;" d="M 0.724531 0.954531 L 0.527383 0.954531 L 0.516445 0.845 L 0.549297 0.735469 L 0.494531 0.571211 L 0.417852 0.560234 L 0.352148 0.571211 L 0.275469 0.516445 L 0.30832 0.406914 L 0.297383 0.297383 L 0.319258 0.253555 L 0.297383 0.176875 L 0.242617 0.0673437 L 0.242617 0.0454688 L 0.330234 0.133086 L 0.439766 0.209766 L 0.53832 0.374023 L 0.604063 0.560234 L 0.680742 0.647852 L 0.757383 0.866914 Z M 0.724531 0.954531 " transform="matrix(100,0,0,100,450,2450)"/>
<path style="fill:none;stroke-width:0.01;stroke-linecap:butt;stroke-linejoin:miter;stroke:rgb(0%,0%,0%);stroke-opacity:1;stroke-miterlimit:10;" d="M 0.551914 0.954531 L 0.458828 0.954531 L 0.466016 0.804219 L 0.476719 0.696836 L 0.480313 0.560859 L 0.480313 0.403359 L 0.476719 0.28168 L 0.462422 0.12418 L 0.448086 0.0454688 L 0.551914 0.0454688 Z M 0.551914 0.954531 " transform="matrix(100,0,0,100,600,2450)"/>
<path style="fill:none;stroke-width:0.01;stroke-linecap:butt;stroke-linejoin:miter;stroke:rgb(0%,0%,0%);stroke-opacity:1;stroke-miterlimit:10;" d="M 0.573711 0.0761719 L 0.567578 0.954531 L 0.530703 0.807109 L 0.5 0.715 L 0.47543 0.69043 L 0.450859 0.628984 L 0.432422 0.592148 L 0.426289 0.493867 L 0.444727 0.432422 L 0.444727 0.334141 L 0.438594 0.266602 L 0.456992 0.100742 L 0.463164 0.0577344 L 0.5 0.0577344 L 0.536836 0.0454688 L 0.555273 0.0516016 Z M 0.573711 0.0761719 " transform="matrix(100,0,0,100,0,2600)"/>
<path style="fill:none;stroke-width:0.01;stroke-linecap:butt;stroke-linejoin:miter;stroke:rgb(0%,0%,0%);stroke-opacity:1;stroke-miterlimit:10;" d="M 0.537578 0.0454688 L 0.519687 0.0454688 L 0.501797 0.120625 L 0.505352 0.167148 L 0.462422 0.181445 L 0.491055 0.22082 L 0.491055 0.256641 L 0.523281 0.278086 L 0.512539 0.528633 L 0.491055 0.535781 L 0.487461 0.77918 L 0.505352 0.782734 L 0.512539 0.872227 L 0.473164 0.882969 L 0.46957 0.950977 L 0.537578 0.954531 Z M 0.537578 0.0454688 " transform="matrix(100,0,0,100,150,2600)"/>
<path style="fill:none;stroke-width:0.01;stroke-linecap:butt;stroke-linejoin:miter;stroke:rgb(0%,0%,0%);stroke-opacity:1;stroke-miterlimit:10;" d="M 0.480078 0.0454688 L 0.476094 0.0853125 L 0.464102 0.137148 L 0.432227 0.188984 L 0.424258 0.244805 L 0.412266 0.272734 L 0.388359 0.312617 L 0.376406 0.364453 L 0.372422 0.428242 L 0.36043 0.476094 L 0.348477 0.539883 L 0.348477 0.587734 L 0.336523 0.635547 L 0.340508 0.695391 L 0.352461 0.719297 L 0.376406 0.707344 L 0.412266 0.679414 L 0.436211 0.679414 L 0.460117 0.707344 L 0.496016 0.735234 L 0.52793 0.771133 L 0.547852 0.775117 L 0.567773 0.799063 L 0.599687 0.854883 L 0.623594 0.886758 L 0.643555 0.938594 L 0.655508 0.954531 L 0.663477 0.954531 L 0.663477 0.0454688 Z M 0.480078 0.0454688 " transform="matrix(100,0,0,100,300,2600)"/>
<path style="fill:none;stroke-width:0.01;stroke-linecap:butt;stroke-linejoin:miter;stroke:rgb(0%,0%,0%);stroke-opacity:1;stroke-miterlimit:10;" d="M 0.943398 0.0499219 L 0.934492 0.954531 L 0.555703 0.954531 L 0.55125 0.852031 L 0.524492 0.758477 L 0.479961 0.673789 L 0.457656 0.584688 L 0.426484 0.535664 L 0.40418 0.486641 L 0.386367 0.45543 L 0.34625 0.437617 L 0.28832 0.446523 L 0.248203 0.433164 L 0.212578 0.44207 L 0.14125 0.45543 L 0.105625 0.459883 L 0.0833203 0.437617 L 0.0655078 0.433164 L 0.0566016 0.406406 L 0.0922266 0.393047 L 0.127891 0.406406 L 0.172461 0.3975 L 0.190273 0.384141 L 0.190273 0.379687 L 0.212578 0.410859 L 0.248203 0.415312 L 0.279414 0.406406 L 0.30168 0.384141 L 0.341797 0.375234 L 0.364063 0.393047 L 0.40418 0.388594 L 0.44875 0.393047 L 0.462109 0.419805 L 0.479961 0.415312 L 0.49332 0.379687 L 0.533437 0.348477 L 0.564609 0.344023 L 0.582461 0.326211 L 0.600273 0.312852 L 0.626992 0.268281 L 0.662656 0.23707 L 0.689375 0.1925 L 0.742852 0.116758 L 0.782969 0.09 L 0.823086 0.0677344 L 0.854297 0.0588281 L 0.889922 0.0454688 L 0.91668 0.0454688 Z M 0.943398 0.0499219 " transform="matrix(100,0,0,100,450,2600)"/>
<path style="fill:none;stroke-width:0.01;stroke-linecap:butt;stroke-linejoin:miter;stroke:rgb(0%,0%,0%);stroke-opacity:1;stroke-miterlimit:10;" d="M 0.604883 0.453398 L 0.52332 0.47668 L 0.511641 0.616563 L 0.534961 0.674844 L 0.534961 0.849648 L 0.52332 0.942891 L 0.488359 0.954531 L 0.441719 0.756406 L 0.441719 0.604883 L 0.453398 0.5 L 0.395117 0.453398 L 0.406758 0.0454688 L 0.418398 0.0804297 L 0.47668 0.208633 L 0.5 0.255234 L 0.604883 0.173672 Z M 0.604883 0.453398 " transform="matrix(100,0,0,100,600,2600)"/>
<path style="fill:none;stroke-width:0.01;stroke-linecap:butt;stroke-linejoin:miter;stroke:rgb(0%,0%,0%);stroke-opacity:1;stroke-miterlimit:10;" d="M 0.954531 0.391211 L 0.954531 0.618477 L 0.886836 0.637812 L 0.814297 0.628125 L 0.765977 0.594297 L 0.68375 0.565273 L 0.601562 0.570117 L 0.519336 0.565273 L 0.451641 0.565273 L 0.379102 0.51207 L 0.398438 0.521758 L 0.350078 0.48793 L 0.31625 0.497578 L 0.267891 0.507266 L 0.224375 0.502422 L 0.195352 0.51207 L 0.15668 0.51207 L 0.118008 0.497578 L 0.0938281 0.468555 L 0.0599609 0.425039 L 0.0502734 0.410547 L 0.0454688 0.400859 L 0.0502734 0.362188 L 0.0696484 0.37668 L 0.0841406 0.391211 L 0.0986328 0.410547 L 0.118008 0.434727 L 0.161523 0.449219 L 0.190508 0.454062 L 0.243711 0.43957 L 0.267891 0.425039 L 0.306563 0.410547 L 0.350078 0.415391 L 0.393633 0.429883 L 0.456484 0.429883 L 0.509687 0.444375 L 0.577383 0.46375 L 0.620898 0.473398 L 0.678906 0.478242 L 0.722422 0.48793 L 0.770781 0.48793 L 0.828828 0.473398 L 0.8675 0.458906 L 0.901367 0.454062 L 0.920703 0.449219 L 0.944883 0.425039 Z M 0.954531 0.391211 " transform="matrix(100,0,0,100,0,2750)"/>
<path style="fill:none;stroke-width:0.01;stroke-linecap:butt;stroke-linejoin:miter;stroke:rgb(0%,0%,0%);stroke-opacity:1;stroke-miterlimit:10;" d="M 0.624766 0.295 L 0.393047 0.0454688 L 0.375234 0.508906 L 0.624766 0.954531 Z M 0.624766 0.295 " transform="matrix(100,0,0,100,150,2750)"/>
<path style="fill:none;stroke-width:0.01;stroke-linecap:butt;stroke-linejoin:miter;stroke:rgb(0%,0%,0%);stroke-opacity:1;stroke-miterlimit:10;" d="M 0.527969 0.0454688 L 0.569922 0.786719 L 0.583906 0.926562 L 0.5 0.954531 L 0.416094 0.0454688 Z M 0.527969 0.0454688 " transform="matrix(100,0,0,100,300,2750)"/>
<path style="fill:none;stroke-width:0.01;stroke-linecap:butt;stroke-linejoin:miter;stroke:rgb(0%,0%,0%);stroke-opacity:1;stroke-miterlimit:10;" d="M 0.536094 0.954531 L 0.463906 0.954531 L 0.472383 0.665664 L 0.506367 0.546719 L 0.536094 0.0454688 Z M 0.536094 0.954531 " transform="matrix(100,0,0,100,450,2750)"/>
<path style="fill:none;stroke-width:0.01;stroke-linecap:butt;stroke-linejoin:miter;stroke:rgb(0%,0%,0%);stroke-opacity:1;stroke-miterlimit:10;" d="M 0.681836 0.0785156 L 0.318164 0.0454688 L 0.301641 0.822305 L 0.54957 0.954531 L 0.632227 0.491719 L 0.698359 0.392578 Z M 0.681836 0.0785156 " transform="matrix(100,0,0,100,600,2750)"/>
<path style="fill:none;stroke-width:0.01;stroke-linecap:butt;stroke-linejoin:miter;stroke:rgb(0%,0%,0%);stroke-opacity:1;stroke-miterlimit:10;" d="M 0.516094 0.16 L 0.516094 0.0454688 L 0.501797 0.0454688 L 0.487461 0.324609 L 0.498203 0.356836 L 0.512539 0.363984 L 0.494648 0.503594 L 0.498203 0.593047 L 0.487461 0.682539 L 0.483906 0.761289 L 0.487461 0.850742 L 0.491055 0.954531 L 0.516094 0.954531 Z M 0.516094 0.16 " transform="matrix(100,0,0,100,0,2900)"/>
<path style="fill:none;stroke-width:0.01;stroke-linecap:butt;stroke-linejoin:miter;stroke:rgb(0%,0%,0%);stroke-opacity:1;stroke-miterlimit:10;" d="M 0.954531 0.19918 L 0.713906 0.252656 L 0.553477 0.252656 L 0.473281 0.279414 L 0.446523 0.306133 L 0.326211 0.319531 L 0.312852 0.386367 L 0.286094 0.439844 L 0.1925 0.573516 L 0.0454687 0.707227 L 0.165781 0.747344 L 0.245977 0.693867 L 0.299453 0.65375 L 0.366328 0.600273 L 0.433164 0.613633 L 0.566836 0.65375 L 0.727266 0.733945 L 0.860977 0.760703 L 0.941172 0.80082 Z M 0.954531 0.19918 " transform="matrix(100,0,0,100,150,2900)"/>
<path style="fill:none;stroke-width:0.01;stroke-linecap:butt;stroke-linejoin:miter;stroke:rgb(0%,0%,0%);stroke-opacity:1;stroke-miterlimit:10;" d="M 0.517773 0.0525391 L 0.482227 0.0454688 L 0.489336 0.0738672 L 0.514219 0.304688 L 0.514219 0.443164 L 0.496445 0.460938 L 0.485781 0.588789 L 0.5 0.776992 L 0.510664 0.805391 L 0.507109 0.954531 L 0.517773 0.954531 Z M 0.517773 0.0525391 " transform="matrix(100,0,0,100,300,2900)"/>
<path style="fill:none;stroke-width:0.01;stroke-linecap:butt;stroke-linejoin:miter;stroke:rgb(0%,0%,0%);stroke-opacity:1;stroke-miterlimit:10;" d="M 0.551641 0.954531 L 0.448359 0.954531 L 0.469023 0.403594 L 0.469023 0.0454688 L 0.524102 0.0592187 L 0.544766 0.314063 Z M 0.551641 0.954531 " transform="matrix(100,0,0,100,450,2900)"/>
<path style="fill:none;stroke-width:0.01;stroke-linecap:butt;stroke-linejoin:miter;stroke:rgb(0%,0%,0%);stroke-opacity:1;stroke-miterlimit:10;" d="M 0.534766 0.0454688 L 0.406406 0.0454688 L 0.401055 0.371641 L 0.390391 0.53207 L 0.374336 0.655078 L 0.342227 0.745977 L 0.342227 0.804805 L 0.336914 0.954531 L 0.358281 0.954531 L 0.395703 0.847578 L 0.411758 0.75668 L 0.401055 0.687148 L 0.422461 0.639023 L 0.454531 0.612305 L 0.491992 0.585547 L 0.524063 0.510703 L 0.556133 0.366328 L 0.593594 0.264688 L 0.631016 0.157773 L 0.64707 0.0935938 L 0.663086 0.0454688 Z M 0.534766 0.0454688 " transform="matrix(100,0,0,100,600,2900)"/>
<path style="fill:none;stroke-width:0.01;stroke-linecap:butt;stroke-linejoin:miter;stroke:rgb(0%,0%,0%);stroke-opacity:1;stroke-miterlimit:10;" d="M 0.645938 0.954531 L 0.354063 0.954531 L 0.395742 0.896172 L 0.479141 0.620938 L 0.479141 0.329023 L 0.437461 0.278984 L 0.5125 0.270625 L 0.579219 0.0454688 L 0.637617 0.128867 Z M 0.645938 0.954531 " transform="matrix(100,0,0,100,0,3050)"/>
<path style="fill:none;stroke-width:0.01;stroke-linecap:butt;stroke-linejoin:miter;stroke:rgb(0%,0%,0%);stroke-opacity:1;stroke-miterlimit:10;" d="M 0.954531 0.438906 L 0.949648 0.634414 L 0.842148 0.600195 L 0.754141 0.585547 L 0.641758 0.585547 L 0.578203 0.570859 L 0.514648 0.551328 L 0.451133 0.541563 L 0.387578 0.551328 L 0.333828 0.546445 L 0.265391 0.531758 L 0.19207 0.531758 L 0.143203 0.526875 L 0.0943359 0.487773 L 0.0601172 0.453555 L 0.0454687 0.414453 L 0.0503516 0.375352 L 0.065 0.365586 L 0.0943359 0.419336 L 0.128555 0.453555 L 0.152969 0.478008 L 0.172539 0.482891 L 0.211641 0.473125 L 0.250742 0.438906 L 0.294727 0.424258 L 0.358242 0.40957 L 0.421797 0.424258 L 0.504883 0.424258 L 0.563555 0.438906 L 0.631953 0.463359 L 0.700391 0.468242 L 0.822578 0.473125 L 0.876328 0.473125 L 0.910547 0.478008 L 0.939883 0.468242 Z M 0.954531 0.438906 " transform="matrix(100,0,0,100,150,3050)"/>
<path style="fill:none;stroke-width:0.01;stroke-linecap:butt;stroke-linejoin:miter;stroke:rgb(0%,0%,0%);stroke-opacity:1;stroke-miterlimit:10;" d="M 0.173984 0.570781 L 0.192617 0.634141 L 0.252227 0.559609 L 0.270859 0.533516 L 0.27832 0.507461 L 0.274609 0.481367 L 0.296953 0.466484 L 0.323008 0.466484 L 0.419883 0.492539 L 0.52793 0.548438 L 0.602461 0.593164 L 0.658359 0.656484 L 0.710508 0.734727 L 0.751484 0.790625 L 0.781289 0.842773 L 0.818555 0.921016 L 0.826016 0.954531 L 0.818555 0.0454688 L 0.606172 0.0528906 L 0.554023 0.108789 L 0.513047 0.146055 L 0.46832 0.194492 L 0.431055 0.228008 L 0.382656 0.265273 L 0.360273 0.291367 L 0.330469 0.332344 L 0.304414 0.358438 L 0.274609 0.354688 L 0.248516 0.380781 L 0.237344 0.429219 L 0.233594 0.477656 L 0.237344 0.518633 L 0.218711 0.540977 L 0.192617 0.555898 Z M 0.173984 0.570781 " transform="matrix(100,0,0,100,300,3050)"/>
<path style="fill:none;stroke-width:0.01;stroke-linecap:butt;stroke-linejoin:miter;stroke:rgb(0%,0%,0%);stroke-opacity:1;stroke-miterlimit:10;" d="M 0.825469 0.0454688 L 0.724453 0.0903516 L 0.702031 0.157695 L 0.601016 0.202578 L 0.556133 0.191367 L 0.432656 0.202578 L 0.331641 0.269922 L 0.253086 0.393359 L 0.219414 0.449492 L 0.208203 0.494375 L 0.196953 0.539297 L 0.185742 0.617852 L 0.174531 0.662734 L 0.208203 0.752539 L 0.264297 0.76375 L 0.354102 0.76375 L 0.522461 0.786211 L 0.589805 0.797422 L 0.657109 0.842305 L 0.769375 0.920859 L 0.825469 0.954531 Z M 0.825469 0.0454688 " transform="matrix(100,0,0,100,450,3050)"/>
<path style="fill:none;stroke-width:0.01;stroke-linecap:butt;stroke-linejoin:miter;stroke:rgb(0%,0%,0%);stroke-opacity:1;stroke-miterlimit:10;" d="M 0.329531 0.159102 L 0.594688 0.121211 L 0.746211 0.0454688 L 0.746211 0.954531 L 0.594688 0.765156 L 0.443164 0.727266 L 0.29168 0.689375 L 0.253789 0.613633 L 0.329531 0.5 L 0.481055 0.462109 L 0.443164 0.348477 Z M 0.329531 0.159102 " transform="matrix(100,0,0,100,600,3050)"/>
<path style="fill:none;stroke-width:0.01;stroke-linecap:butt;stroke-linejoin:miter;stroke:rgb(0%,0%,0%);stroke-opacity:1;stroke-miterlimit:10;" d="M 0.355039 0.0454687 L 0.344297 0.0633594 L 0.344297 0.0848437 L 0.347891 0.102734 L 0.355039 0.113477 L 0.398008 0.117031 L 0.415898 0.12418 L 0.419453 0.156406 L 0.426641 0.217266 L 0.440937 0.256641 L 0.458828 0.328203 L 0.473164 0.367578 L 0.476719 0.399805 L 0.501797 0.45707 L 0.512539 0.496406 L 0.501797 0.550117 L 0.526836 0.618125 L 0.551914 0.63957 L 0.566211 0.678945 L 0.594844 0.711172 L 0.594844 0.775586 L 0.601992 0.807812 L 0.605586 0.843594 L 0.62707 0.879375 L 0.655703 0.915156 L 0.655703 0.954531 L 0.652109 0.0454687 Z M 0.355039 0.0454687 " transform="matrix(100,0,0,100,0,3200)"/>
<path style="fill:none;stroke-width:0.01;stroke-linecap:butt;stroke-linejoin:miter;stroke:rgb(0%,0%,0%);stroke-opacity:1;stroke-miterlimit:10;" d="M 0.273906 0.892656 L 0.283438 0.783203 L 0.311992 0.697539 L 0.335781 0.583281 L 0.373867 0.469062 L 0.388164 0.388164 L 0.402422 0.311992 L 0.411953 0.269141 L 0.416719 0.216797 L 0.430977 0.145391 L 0.459531 0.0740234 L 0.478594 0.0501953 L 0.483359 0.0454687 L 0.726094 0.0454687 L 0.726094 0.954531 L 0.702266 0.921211 L 0.664219 0.835547 L 0.607109 0.778438 L 0.545234 0.768906 L 0.478594 0.778438 L 0.407188 0.806992 L 0.364336 0.859336 L 0.326289 0.897422 L 0.297734 0.916484 L 0.288203 0.921211 Z M 0.273906 0.892656 " transform="matrix(100,0,0,100,150,3200)"/>
<path style="fill:none;stroke-width:0.01;stroke-linecap:butt;stroke-linejoin:miter;stroke:rgb(0%,0%,0%);stroke-opacity:1;stroke-miterlimit:10;" d="M 0.456484 0.0454687 L 0.437148 0.267891 L 0.427461 0.403281 L 0.417813 0.567695 L 0.417813 0.780469 L 0.388789 0.915859 L 0.398438 0.954531 L 0.437148 0.954531 L 0.485508 0.906172 L 0.495156 0.722422 L 0.514492 0.625742 L 0.553203 0.412969 L 0.591875 0.267891 L 0.601562 0.142148 L 0.611211 0.0454687 Z M 0.456484 0.0454687 " transform="matrix(100,0,0,100,300,3200)"/>
<path style="fill:none;stroke-width:0.01;stroke-linecap:butt;stroke-linejoin:miter;stroke:rgb(0%,0%,0%);stroke-opacity:1;stroke-miterlimit:10;" d="M 0.725781 0.539141 L 0.725781 0.954531 L 0.659531 0.9425 L 0.539141 0.773945 L 0.466875 0.503008 L 0.358516 0.268203 L 0.328398 0.183906 L 0.29832 0.171875 L 0.274219 0.0876172 L 0.292305 0.0454687 L 0.346484 0.0996484 L 0.394648 0.153828 L 0.448828 0.220039 L 0.509023 0.328398 L 0.557188 0.3525 L 0.641484 0.430781 L 0.683633 0.509023 Z M 0.725781 0.539141 " transform="matrix(100,0,0,100,450,3200)"/>
<path style="fill:none;stroke-width:0.01;stroke-linecap:butt;stroke-linejoin:miter;stroke:rgb(0%,0%,0%);stroke-opacity:1;stroke-miterlimit:10;" d="M 0.491094 0.11082 L 0.461367 0.360352 L 0.396016 0.942656 L 0.485156 0.954531 L 0.532695 0.912969 L 0.508906 0.841641 L 0.497031 0.758477 L 0.556445 0.378203 L 0.603984 0.0751562 L 0.598047 0.0454687 L 0.550508 0.0989453 L 0.508906 0.0989453 L 0.502969 0.0514062 Z M 0.491094 0.11082 " transform="matrix(100,0,0,100,600,3200)"/>
<path style="fill:none;stroke-width:0.01;stroke-linecap:butt;stroke-linejoin:miter;stroke:rgb(0%,0%,0%);stroke-opacity:1;stroke-miterlimit:10;" d="M 0.285547 0.0454687 L 0.308867 0.106055 L 0.364805 0.199297 L 0.411406 0.259922 L 0.439375 0.353164 L 0.47668 0.451055 L 0.518633 0.534961 L 0.588594 0.66082 L 0.630547 0.800703 L 0.64918 0.847305 L 0.658516 0.889297 L 0.6725 0.940547 L 0.691133 0.954531 L 0.714453 0.93125 L 0.709805 0.0454687 Z M 0.285547 0.0454687 " transform="matrix(100,0,0,100,0,3350)"/>
<path style="fill:none;stroke-width:0.01;stroke-linecap:butt;stroke-linejoin:miter;stroke:rgb(0%,0%,0%);stroke-opacity:1;stroke-miterlimit:10;" d="M 0.68668 0.0454687 L 0.654219 0.134727 L 0.646094 0.256484 L 0.597422 0.524336 L 0.548711 0.759727 L 0.5 0.92207 L 0.459414 0.954531 L 0.451289 0.946445 L 0.435078 0.93832 L 0.426953 0.913945 L 0.418828 0.897734 L 0.402578 0.857148 L 0.394492 0.743516 L 0.31332 0.0454687 L 0.378242 0.0616797 L 0.386367 0.183438 L 0.394492 0.288945 L 0.402578 0.386367 L 0.418828 0.5 L 0.435078 0.605508 L 0.451289 0.654219 L 0.459414 0.711055 L 0.48375 0.70293 L 0.491875 0.68668 L 0.5 0.662344 L 0.51625 0.573047 L 0.548711 0.370117 L 0.581172 0.150977 L 0.597422 0.0454687 Z M 0.68668 0.0454687 " transform="matrix(100,0,0,100,150,3350)"/>
<path style="fill:none;stroke-width:0.01;stroke-linecap:butt;stroke-linejoin:miter;stroke:rgb(0%,0%,0%);stroke-opacity:1;stroke-miterlimit:10;" d="M 0.274336 0.267969 L 0.274336 0.496836 L 0.325156 0.579453 L 0.36332 0.623984 L 0.433242 0.617617 L 0.484102 0.58582 L 0.560391 0.617617 L 0.617617 0.617617 L 0.655742 0.700273 L 0.712969 0.897344 L 0.725664 0.954531 L 0.719336 0.0454687 L 0.668477 0.0835937 L 0.649414 0.153516 L 0.61125 0.178945 L 0.573125 0.242539 L 0.496836 0.248906 L 0.452305 0.248906 L 0.426875 0.274336 L 0.38875 0.261602 L 0.350586 0.242539 L 0.293398 0.236172 Z M 0.274336 0.267969 " transform="matrix(100,0,0,100,300,3350)"/>
<path style="fill:none;stroke-width:0.01;stroke-linecap:butt;stroke-linejoin:miter;stroke:rgb(0%,0%,0%);stroke-opacity:1;stroke-miterlimit:10;" d="M 0.5 0.848828 L 0.5 0.531719 L 0.478867 0.299141 L 0.457734 0.130039 L 0.41543 0.0454687 L 0.563438 0.0666016 L 0.58457 0.235742 L 0.58457 0.721992 L 0.542266 0.954531 L 0.478867 0.912266 Z M 0.5 0.848828 " transform="matrix(100,0,0,100,450,3350)"/>
<path style="fill:none;stroke-width:0.01;stroke-linecap:butt;stroke-linejoin:miter;stroke:rgb(0%,0%,0%);stroke-opacity:1;stroke-miterlimit:10;" d="M 0.485234 0.954531 L 0.532461 0.954531 L 0.491133 0.0454687 L 0.467539 0.0454687 L 0.485234 0.446875 L 0.485234 0.7125 Z M 0.485234 0.954531 " transform="matrix(100,0,0,100,600,3350)"/>
<path style="fill:none;stroke-width:0.01;stroke-linecap:butt;stroke-linejoin:miter;stroke:rgb(0%,0%,0%);stroke-opacity:1;stroke-miterlimit:10;" d="M 0.43625 0.954531 L 0.399219 0.954531 L 0.395117 0.584336 L 0.411562 0.567891 L 0.407461 0.284023 L 0.506172 0.0536719 L 0.526719 0.0536719 L 0.543203 0.0454687 L 0.56375 0.0578125 L 0.59668 0.0536719 L 0.604883 0.0783594 L 0.604883 0.296367 L 0.419805 0.551406 Z M 0.43625 0.954531 " transform="matrix(100,0,0,100,0,3500)"/>
<path style="fill:none;stroke-width:0.01;stroke-linecap:butt;stroke-linejoin:miter;stroke:rgb(0%,0%,0%);stroke-opacity:1;stroke-miterlimit:10;" d="M 0.482227 0.0454687 L 0.471602 0.0525391 L 0.482227 0.322461 L 0.496445 0.485781 L 0.507109 0.954531 L 0.528398 0.954531 L 0.514219 0.794727 L 0.503555 0.776992 L 0.507109 0.649141 L 0.503555 0.439648 L 0.503555 0.26918 L 0.496445 0.251406 L 0.492891 0.212344 L 0.485781 0.198164 L 0.482227 0.151992 L 0.496445 0.134219 L 0.5 0.120039 L 0.492891 0.109375 L 0.489336 0.0560938 Z M 0.482227 0.0454687 " transform="matrix(100,0,0,100,150,3500)"/>
<path style="fill:none;stroke-width:0.01;stroke-linecap:butt;stroke-linejoin:miter;stroke:rgb(0%,0%,0%);stroke-opacity:1;stroke-miterlimit:10;" d="M 0.487461 0.0454687 L 0.419453 0.532227 L 0.405156 0.575156 L 0.40875 0.933086 L 0.39082 0.936641 L 0.37293 0.936641 L 0.376523 0.954531 L 0.569805 0.954531 L 0.433789 0.857891 L 0.433789 0.804219 L 0.423047 0.761289 L 0.419453 0.714727 L 0.419453 0.668203 L 0.426641 0.646758 L 0.433789 0.636016 L 0.62707 0.0454687 Z M 0.487461 0.0454687 " transform="matrix(100,0,0,100,300,3500)"/>
<path style="fill:none;stroke-width:0.01;stroke-linecap:butt;stroke-linejoin:miter;stroke:rgb(0%,0%,0%);stroke-opacity:1;stroke-miterlimit:10;" d="M 0.514102 0.0623828 L 0.514102 0.954531 L 0.485898 0.553633 L 0.491523 0.0454687 L 0.514102 0.0454687 Z M 0.514102 0.0623828 " transform="matrix(100,0,0,100,450,3500)"/>
<path style="fill:none;stroke-width:0.01;stroke-linecap:butt;stroke-linejoin:miter;stroke:rgb(0%,0%,0%);stroke-opacity:1;stroke-miterlimit:10;" d="M 0.487578 0.954531 L 0.501758 0.954531 L 0.512422 0.0454687 L 0.487578 0.0525391 Z M 0.487578 0.954531 " transform="matrix(100,0,0,100,600,3500)"/>
<path style="fill:none;stroke-width:0.01;stroke-linecap:butt;stroke-linejoin:miter;stroke:rgb(0%,0%,0%);stroke-opacity:1;stroke-miterlimit:10;" d="M 0.506016 0.0535156 L 0.493984 0.0454687 L 0.493984 0.946484 L 0.501992 0.954531 Z M 0.506016 0.0535156 " transform="matrix(100,0,0,100,0,3650)"/>
<path style="fill:none;stroke-width:0.01;stroke-linecap:butt;stroke-linejoin:miter;stroke:rgb(0%,0%,0%);stroke-opacity:1;stroke-miterlimit:10;" d="M 0.557344 0.954531 L 0.434492 0.954531 L 0.418086 0.561406 L 0.418086 0.422187 L 0.409922 0.0454687 L 0.590078 0.946367 Z M 0.557344 0.954531 " transform="matrix(100,0,0,100,150,3650)"/>
<path style="fill:none;stroke-width:0.01;stroke-linecap:butt;stroke-linejoin:miter;stroke:rgb(0%,0%,0%);stroke-opacity:1;stroke-miterlimit:10;" d="M 0.543984 0.954531 L 0.441367 0.947227 L 0.419336 0.0454687 L 0.478008 0.324063 L 0.580664 0.947227 Z M 0.543984 0.954531 " transform="matrix(100,0,0,100,300,3650)"/>
</g>
</svg>
