<?xml version="1.0" encoding="UTF-8"?>
<svg xmlns="http://www.w3.org/2000/svg" xmlns:xlink="http://www.w3.org/1999/xlink" width="750pt" height="12400pt" viewBox="0 0 750 12400" version="1.1">
<g id="surface1">
<path style="fill:none;stroke-width:0.01;stroke-linecap:butt;stroke-linejoin:miter;stroke:rgb(0%,0%,0%);stroke-opacity:1;stroke-miterlimit:10;" d="M 0.312852 0.633672 L 0.366328 0.847578 L 0.526719 0.847578 L 0.580195 0.954531 L 0.687148 0.901055 L 0.687148 0.740625 L 0.633672 0.633672 L 0.633672 0.366328 L 0.526719 0.205898 L 0.419805 0.0454687 L 0.366328 0.259375 L 0.473281 0.366328 L 0.526719 0.526719 Z M 0.312852 0.633672 " transform="matrix(100,0,0,100,0,200)"/>
<path style="fill:none;stroke-width:0.01;stroke-linecap:butt;stroke-linejoin:miter;stroke:rgb(0%,0%,0%);stroke-opacity:1;stroke-miterlimit:10;" d="M 0.0978906 0.604883 L 0.0978906 0.465039 L 0.202813 0.325156 L 0.342656 0.115391 L 0.5175 0.0454687 L 0.832148 0.0454687 L 0.902109 0.185313 L 0.902109 0.430078 L 0.867148 0.604883 L 0.867148 0.849648 L 0.832148 0.91957 L 0.692305 0.954531 L 0.447539 0.954531 L 0.272734 0.849648 L 0.132852 0.814688 Z M 0.0978906 0.604883 " transform="matrix(100,0,0,100,150,200)"/>
<path style="fill:none;stroke-width:0.01;stroke-linecap:butt;stroke-linejoin:miter;stroke:rgb(0%,0%,0%);stroke-opacity:1;stroke-miterlimit:10;" d="M 0.161992 0.395117 L 0.161992 0.301875 L 0.208633 0.231953 L 0.278555 0.138711 L 0.371797 0.0920703 L 0.534961 0.06875 L 0.698125 0.0454687 L 0.768047 0.06875 L 0.838008 0.325156 L 0.861289 0.488359 L 0.884609 0.604883 L 0.768047 0.838008 L 0.674844 0.93125 L 0.511641 0.954531 L 0.395117 0.93125 L 0.208633 0.698125 L 0.161992 0.628203 L 0.115391 0.558281 L 0.115391 0.488359 Z M 0.161992 0.395117 " transform="matrix(100,0,0,100,300,200)"/>
<path style="fill:none;stroke-width:0.01;stroke-linecap:butt;stroke-linejoin:miter;stroke:rgb(0%,0%,0%);stroke-opacity:1;stroke-miterlimit:10;" d="M 0.598828 0.203555 L 0.677852 0.361641 L 0.717383 0.559297 L 0.717383 0.677852 L 0.638359 0.835977 L 0.559297 0.915039 L 0.401172 0.954531 L 0.322148 0.835977 L 0.282617 0.717383 L 0.282617 0.559297 L 0.322148 0.203555 L 0.440703 0.0454687 L 0.598828 0.124492 L 0.480234 0.401172 L 0.440703 0.559297 L 0.440703 0.875508 L 0.401172 0.796445 L 0.401172 0.519766 L 0.559297 0.124492 Z M 0.598828 0.203555 " transform="matrix(100,0,0,100,450,200)"/>
<path style="fill:none;stroke-width:0.01;stroke-linecap:butt;stroke-linejoin:miter;stroke:rgb(0%,0%,0%);stroke-opacity:1;stroke-miterlimit:10;" d="M 0.665273 0.0454687 L 0.665273 0.334727 L 0.74793 0.665273 L 0.74793 0.830586 L 0.665273 0.954531 L 0.5 0.913242 L 0.458672 0.74793 L 0.334727 0.582656 L 0.293398 0.5 L 0.25207 0.541328 L 0.293398 0.376016 L 0.417344 0.376016 L 0.458672 0.25207 L 0.458672 0.128086 L 0.541328 0.0454687 Z M 0.665273 0.0454687 " transform="matrix(100,0,0,100,600,200)"/>
<path style="fill:none;stroke-width:0.01;stroke-linecap:butt;stroke-linejoin:miter;stroke:rgb(0%,0%,0%);stroke-opacity:1;stroke-miterlimit:10;" d="M 0.446055 0.15332 L 0.369023 0.1225 L 0.307383 0.137891 L 0.276562 0.230352 L 0.291992 0.353633 L 0.307383 0.476875 L 0.291992 0.584727 L 0.261172 0.677188 L 0.245781 0.769648 L 0.307383 0.800469 L 0.322813 0.90832 L 0.384453 0.862109 L 0.446055 0.954531 L 0.507695 0.954531 L 0.553945 0.831289 L 0.446055 0.646367 L 0.523125 0.723438 L 0.569336 0.646367 L 0.646367 0.615547 L 0.661797 0.569336 L 0.446055 0.615547 L 0.446055 0.291992 L 0.584727 0.168711 L 0.615547 0.15332 L 0.677188 0.230352 L 0.677188 0.276563 L 0.738828 0.261172 L 0.754219 0.137891 L 0.723438 0.0454687 L 0.615547 0.10707 Z M 0.446055 0.15332 " transform="matrix(100,0,0,100,0,350)"/>
<path style="fill:none;stroke-width:0.01;stroke-linecap:butt;stroke-linejoin:miter;stroke:rgb(0%,0%,0%);stroke-opacity:1;stroke-miterlimit:10;" d="M 0.939141 0.376719 L 0.0608594 0.376719 L 0.0454687 0.453789 L 0.0916797 0.515391 L 0.1225 0.561641 L 0.245781 0.607852 L 0.492305 0.607852 L 0.630977 0.623281 L 0.738828 0.607852 L 0.831289 0.592461 L 0.89293 0.546211 L 0.954531 0.515391 Z M 0.939141 0.376719 " transform="matrix(100,0,0,100,150,350)"/>
<path style="fill:none;stroke-width:0.01;stroke-linecap:butt;stroke-linejoin:miter;stroke:rgb(0%,0%,0%);stroke-opacity:1;stroke-miterlimit:10;" d="M 0.419492 0.670469 L 0.324805 0.679922 L 0.286914 0.717812 L 0.23957 0.736758 L 0.211172 0.765156 L 0.201719 0.784102 L 0.211172 0.840898 L 0.249062 0.878789 L 0.315352 0.907188 L 0.410039 0.935625 L 0.485781 0.954531 L 0.571016 0.954531 L 0.627852 0.945078 L 0.675195 0.935625 L 0.694141 0.878789 L 0.731992 0.8125 L 0.769883 0.689375 L 0.807773 0.585234 L 0.817227 0.5 L 0.826719 0.433711 L 0.798281 0.386367 L 0.731992 0.348477 L 0.627852 0.339023 L 0.580508 0.348477 L 0.571016 0.310625 L 0.55207 0.1875 L 0.523672 0.0928125 L 0.485781 0.0454687 L 0.428984 0.064375 L 0.353203 0.064375 L 0.334297 0.102266 L 0.258516 0.121211 L 0.201719 0.140156 L 0.173281 0.168555 L 0.192227 0.263242 L 0.23957 0.329531 L 0.296406 0.376875 L 0.400586 0.405312 L 0.476328 0.424258 L 0.466875 0.5 L 0.476328 0.566289 L 0.476328 0.60418 L 0.44793 0.632578 Z M 0.419492 0.670469 " transform="matrix(100,0,0,100,300,350)"/>
<path style="fill:none;stroke-width:0.01;stroke-linecap:butt;stroke-linejoin:miter;stroke:rgb(0%,0%,0%);stroke-opacity:1;stroke-miterlimit:10;" d="M 0.882773 0.78707 L 0.691406 0.858867 L 0.571758 0.90668 L 0.5 0.954531 L 0.356445 0.811016 L 0.117227 0.619609 L 0.0454688 0.5 L 0.0933203 0.452148 L 0.069375 0.308594 L 0.165078 0.165078 L 0.428242 0.0933203 L 0.643555 0.0454687 L 0.811016 0.141133 L 0.811016 0.284687 L 0.882773 0.5 L 0.954531 0.667461 L 0.954531 0.739219 Z M 0.882773 0.78707 " transform="matrix(100,0,0,100,450,350)"/>
<path style="fill:none;stroke-width:0.01;stroke-linecap:butt;stroke-linejoin:miter;stroke:rgb(0%,0%,0%);stroke-opacity:1;stroke-miterlimit:10;" d="M 0.871914 0.546484 L 0.954531 0.629141 L 0.954531 0.670469 L 0.871914 0.670469 L 0.789258 0.649805 L 0.654961 0.649805 L 0.541328 0.629141 L 0.417344 0.639453 L 0.314063 0.618789 L 0.190078 0.598125 L 0.0764453 0.608477 L 0.0454688 0.608477 L 0.0867578 0.556836 L 0.107422 0.515508 L 0.324375 0.515508 L 0.355391 0.567148 L 0.334727 0.577461 L 0.365703 0.546484 L 0.448359 0.546484 L 0.438008 0.515508 L 0.551641 0.52582 L 0.644609 0.536172 L 0.685938 0.484492 L 0.685938 0.432852 L 0.675625 0.391523 L 0.685938 0.360547 L 0.696289 0.350195 L 0.696289 0.391523 L 0.706602 0.47418 L 0.706602 0.546484 L 0.758281 0.546484 L 0.820234 0.52582 L 0.871914 0.484492 L 0.85125 0.401875 L 0.892578 0.329531 L 0.933867 0.329531 L 0.923555 0.339883 L 0.882227 0.391523 L 0.902891 0.401875 L 0.954531 0.401875 L 0.882227 0.453516 L 0.871914 0.47418 L 0.85125 0.494844 L 0.85125 0.515508 Z M 0.871914 0.546484 " transform="matrix(100,0,0,100,600,350)"/>
<path style="fill:none;stroke-width:0.01;stroke-linecap:butt;stroke-linejoin:miter;stroke:rgb(0%,0%,0%);stroke-opacity:1;stroke-miterlimit:10;" d="M 0.746758 0.279219 L 0.616875 0.305195 L 0.461055 0.331172 L 0.279219 0.383125 L 0.175313 0.409102 L 0.0714453 0.461055 L 0.0454688 0.538945 L 0.227266 0.668828 L 0.512969 0.720781 L 0.694805 0.720781 L 0.772734 0.642852 L 0.902578 0.668828 L 0.954531 0.642852 L 0.954531 0.279219 Z M 0.746758 0.279219 " transform="matrix(100,0,0,100,0,500)"/>
<path style="fill:none;stroke-width:0.01;stroke-linecap:butt;stroke-linejoin:miter;stroke:rgb(0%,0%,0%);stroke-opacity:1;stroke-miterlimit:10;" d="M 0.636367 0.693164 L 0.386367 0.647734 L 0.204531 0.579531 L 0.0454687 0.511367 L 0.0454687 0.420469 L 0.25 0.397734 L 0.386367 0.306836 L 0.522734 0.329531 L 0.659102 0.375 L 0.727266 0.443164 L 0.727266 0.397734 L 0.931836 0.420469 L 0.954531 0.602266 L 0.909102 0.693164 L 0.704531 0.670469 Z M 0.636367 0.693164 " transform="matrix(100,0,0,100,150,500)"/>
<path style="fill:none;stroke-width:0.01;stroke-linecap:butt;stroke-linejoin:miter;stroke:rgb(0%,0%,0%);stroke-opacity:1;stroke-miterlimit:10;" d="M 0.361641 0.598828 L 0.243086 0.598828 L 0.243086 0.440703 L 0.124492 0.282617 L 0.164023 0.0454688 L 0.282617 0.124492 L 0.559297 0.124492 L 0.638359 0.203555 L 0.717383 0.243086 L 0.717383 0.401172 L 0.756914 0.519766 L 0.875508 0.915039 L 0.796445 0.954531 L 0.559297 0.954531 Z M 0.361641 0.598828 " transform="matrix(100,0,0,100,300,500)"/>
<path style="fill:none;stroke-width:0.01;stroke-linecap:butt;stroke-linejoin:miter;stroke:rgb(0%,0%,0%);stroke-opacity:1;stroke-miterlimit:10;" d="M 0.449492 0.247461 L 0.247461 0.196953 L 0.146445 0.297969 L 0.0454688 0.5 L 0.146445 0.954531 L 0.247461 0.954531 L 0.449492 0.904023 L 0.651523 0.853555 L 0.853555 0.853555 L 0.904023 0.702031 L 0.954531 0.449492 L 0.954531 0.0454688 L 0.803047 0.297969 Z M 0.449492 0.247461 " transform="matrix(100,0,0,100,450,500)"/>
<path style="fill:none;stroke-width:0.01;stroke-linecap:butt;stroke-linejoin:miter;stroke:rgb(0%,0%,0%);stroke-opacity:1;stroke-miterlimit:10;" d="M 0.185313 0.849648 L 0.0454688 0.569922 L 0.0454688 0.220273 L 0.395117 0.150352 L 0.674844 0.220273 L 0.814687 0.220273 L 0.884609 0.5 L 0.884609 0.639844 L 0.954531 0.779727 L 0.604883 0.779727 Z M 0.185313 0.849648 " transform="matrix(100,0,0,100,600,500)"/>
<path style="fill:none;stroke-width:0.01;stroke-linecap:butt;stroke-linejoin:miter;stroke:rgb(0%,0%,0%);stroke-opacity:1;stroke-miterlimit:10;" d="M 0.598281 0.616719 L 0.450859 0.616719 L 0.340313 0.579844 L 0.254297 0.592148 L 0.156016 0.579844 L 0.0454688 0.518438 L 0.0577344 0.444727 L 0.266602 0.395586 L 0.463164 0.407852 L 0.536836 0.334141 L 0.647422 0.346445 L 0.745703 0.371016 L 0.83168 0.395586 L 0.905391 0.395586 L 0.929961 0.358711 L 0.929961 0.444727 L 0.954531 0.567578 L 0.929961 0.628984 L 0.905391 0.665859 L 0.807109 0.665859 L 0.721133 0.653555 Z M 0.598281 0.616719 " transform="matrix(100,0,0,100,0,650)"/>
<path style="fill:none;stroke-width:0.01;stroke-linecap:butt;stroke-linejoin:miter;stroke:rgb(0%,0%,0%);stroke-opacity:1;stroke-miterlimit:10;" d="M 0.404297 0.260781 L 0.356445 0.356445 L 0.380391 0.571758 L 0.404297 0.667461 L 0.380391 0.78707 L 0.380391 0.930625 L 0.452148 0.954531 L 0.476094 0.90668 L 0.523906 0.834922 L 0.5 0.691406 L 0.476094 0.595703 L 0.595703 0.547852 L 0.571758 0.452148 L 0.595703 0.21293 L 0.643555 0.0933203 L 0.571758 0.0933203 L 0.547852 0.0454688 L 0.452148 0.117227 Z M 0.404297 0.260781 " transform="matrix(100,0,0,100,150,650)"/>
<path style="fill:none;stroke-width:0.01;stroke-linecap:butt;stroke-linejoin:miter;stroke:rgb(0%,0%,0%);stroke-opacity:1;stroke-miterlimit:10;" d="M 0.42207 0.954531 L 0.240273 0.954531 L 0.292227 0.694805 L 0.318164 0.538945 L 0.292227 0.331172 L 0.26625 0.201289 L 0.26625 0.149336 L 0.448047 0.149336 L 0.57793 0.0454688 L 0.73375 0.0714453 L 0.73375 0.201289 L 0.759727 0.305195 L 0.73375 0.487031 L 0.73375 0.642852 L 0.707773 0.798711 L 0.655859 0.928555 Z M 0.42207 0.954531 " transform="matrix(100,0,0,100,300,650)"/>
<path style="fill:none;stroke-width:0.01;stroke-linecap:butt;stroke-linejoin:miter;stroke:rgb(0%,0%,0%);stroke-opacity:1;stroke-miterlimit:10;" d="M 0.5 0.792227 L 0.402578 0.954531 L 0.272734 0.954531 L 0.110391 0.792227 L 0.0779297 0.467539 L 0.240273 0.402578 L 0.337656 0.142852 L 0.240273 0.0454688 L 0.532461 0.207773 L 0.597422 0.402578 L 0.532461 0.5 L 0.694805 0.597422 L 0.92207 0.662344 L 0.824688 0.759727 L 0.662344 0.759727 Z M 0.5 0.792227 " transform="matrix(100,0,0,100,450,650)"/>
<path style="fill:none;stroke-width:0.01;stroke-linecap:butt;stroke-linejoin:miter;stroke:rgb(0%,0%,0%);stroke-opacity:1;stroke-miterlimit:10;" d="M 0.954531 0.527539 L 0.183203 0.555078 L 0.238281 0.417344 L 0.183203 0.196953 L 0.128086 0.169414 L 0.0730078 0.417344 L 0.100547 0.610195 L 0.0454688 0.74793 L 0.100547 0.803047 L 0.238281 0.830586 L 0.376016 0.720391 L 0.403594 0.582656 L 0.458672 0.389805 L 0.568867 0.444922 L 0.761719 0.5 L 0.844336 0.472461 Z M 0.954531 0.527539 " transform="matrix(100,0,0,100,600,650)"/>
<path style="fill:none;stroke-width:0.01;stroke-linecap:butt;stroke-linejoin:miter;stroke:rgb(0%,0%,0%);stroke-opacity:1;stroke-miterlimit:10;" d="M 0.626836 0.806563 L 0.521133 0.848828 L 0.58457 0.954531 L 0.457734 0.954531 L 0.330859 0.912266 L 0.351992 0.78543 L 0.373164 0.721992 L 0.309727 0.679688 L 0.309727 0.637422 L 0.351992 0.489414 L 0.373164 0.299141 L 0.457734 0.235742 L 0.521133 0.151172 L 0.542266 0.0877344 L 0.58457 0.0454687 L 0.626836 0.0877344 L 0.605703 0.172305 L 0.605703 0.278008 L 0.690273 0.299141 L 0.669141 0.362578 L 0.58457 0.383711 L 0.605703 0.426016 L 0.605703 0.489414 L 0.626836 0.637422 L 0.648008 0.679688 Z M 0.626836 0.806563 " transform="matrix(100,0,0,100,0,800)"/>
<path style="fill:none;stroke-width:0.01;stroke-linecap:butt;stroke-linejoin:miter;stroke:rgb(0%,0%,0%);stroke-opacity:1;stroke-miterlimit:10;" d="M 0.327578 0.452969 L 0.390273 0.327578 L 0.515664 0.327578 L 0.609727 0.421641 L 0.829141 0.421641 L 0.954531 0.484336 L 0.954531 0.609727 L 0.891836 0.672422 L 0.452969 0.641055 L 0.170859 0.578359 L 0.0454687 0.578359 L 0.202187 0.515664 Z M 0.327578 0.452969 " transform="matrix(100,0,0,100,150,800)"/>
<path style="fill:none;stroke-width:0.01;stroke-linecap:butt;stroke-linejoin:miter;stroke:rgb(0%,0%,0%);stroke-opacity:1;stroke-miterlimit:10;" d="M 0.515156 0.143945 L 0.5 0.204531 L 0.515156 0.25 L 0.492422 0.295469 L 0.477266 0.325742 L 0.431836 0.325742 L 0.409102 0.356055 L 0.454531 0.386367 L 0.446953 0.41668 L 0.409102 0.446953 L 0.393945 0.454531 L 0.454531 0.492422 L 0.454531 0.530313 L 0.393945 0.530313 L 0.446953 0.568164 L 0.5 0.598477 L 0.507578 0.659102 L 0.477266 0.689375 L 0.492422 0.825742 L 0.484844 0.91668 L 0.484844 0.931836 L 0.522734 0.954531 L 0.560625 0.946953 L 0.575742 0.886367 L 0.58332 0.810625 L 0.598477 0.628789 L 0.606055 0.424258 L 0.606055 0.227266 L 0.598477 0.113633 L 0.598477 0.0833203 L 0.575742 0.0454687 L 0.537891 0.060625 L 0.530312 0.0681641 Z M 0.515156 0.143945 " transform="matrix(100,0,0,100,300,800)"/>
<path style="fill:none;stroke-width:0.01;stroke-linecap:butt;stroke-linejoin:miter;stroke:rgb(0%,0%,0%);stroke-opacity:1;stroke-miterlimit:10;" d="M 0.247461 0.601016 L 0.196953 0.752539 L 0.348477 0.853555 L 0.5 0.954531 L 0.601016 0.954531 L 0.702031 0.904023 L 0.803047 0.702031 L 0.803047 0.5 L 0.752539 0.398984 L 0.752539 0.196953 L 0.550508 0.247461 L 0.398984 0.146445 L 0.297969 0.0454687 L 0.297969 0.297969 L 0.398984 0.348477 Z M 0.247461 0.601016 " transform="matrix(100,0,0,100,450,800)"/>
<path style="fill:none;stroke-width:0.01;stroke-linecap:butt;stroke-linejoin:miter;stroke:rgb(0%,0%,0%);stroke-opacity:1;stroke-miterlimit:10;" d="M 0.677383 0.577617 L 0.677383 0.710625 L 0.69957 0.843672 L 0.677383 0.910195 L 0.544336 0.954531 L 0.433477 0.932383 L 0.366953 0.865859 L 0.344805 0.710625 L 0.366953 0.599766 L 0.322617 0.533242 L 0.30043 0.44457 L 0.344805 0.333711 L 0.389141 0.245 L 0.411289 0.178477 L 0.522188 0.0898047 L 0.610859 0.0454687 L 0.633047 0.0454687 L 0.677383 0.111992 L 0.69957 0.311523 L 0.677383 0.44457 Z M 0.677383 0.577617 " transform="matrix(100,0,0,100,600,800)"/>
<path style="fill:none;stroke-width:0.01;stroke-linecap:butt;stroke-linejoin:miter;stroke:rgb(0%,0%,0%);stroke-opacity:1;stroke-miterlimit:10;" d="M 0.534297 0.954531 L 0.414219 0.937383 L 0.379922 0.903086 L 0.39707 0.834492 L 0.39707 0.765859 L 0.345625 0.680117 L 0.345625 0.628633 L 0.414219 0.577188 L 0.379922 0.508594 L 0.345625 0.405664 L 0.362773 0.285586 L 0.414219 0.268438 L 0.5 0.114063 L 0.517148 0.0454687 L 0.637227 0.0626172 L 0.620078 0.114063 L 0.654375 0.302734 L 0.585781 0.491406 L 0.568594 0.628633 L 0.585781 0.714414 L 0.585781 0.800156 L 0.551445 0.885938 Z M 0.534297 0.954531 " transform="matrix(100,0,0,100,0,950)"/>
<path style="fill:none;stroke-width:0.01;stroke-linecap:butt;stroke-linejoin:miter;stroke:rgb(0%,0%,0%);stroke-opacity:1;stroke-miterlimit:10;" d="M 0.493594 0.0454687 L 0.583242 0.0454687 L 0.583242 0.199102 L 0.621641 0.365547 L 0.608828 0.531992 L 0.596016 0.672852 L 0.57043 0.788086 L 0.544805 0.916133 L 0.468008 0.954531 L 0.403984 0.877734 L 0.403984 0.724063 L 0.378359 0.621641 L 0.403984 0.480781 L 0.378359 0.327148 L 0.378359 0.160703 L 0.391172 0.0710547 L 0.403984 0.0454687 Z M 0.493594 0.0454687 " transform="matrix(100,0,0,100,150,950)"/>
<path style="fill:none;stroke-width:0.01;stroke-linecap:butt;stroke-linejoin:miter;stroke:rgb(0%,0%,0%);stroke-opacity:1;stroke-miterlimit:10;" d="M 0.393945 0.318164 L 0.393945 0.5 L 0.424258 0.651523 L 0.484844 0.83332 L 0.545469 0.954531 L 0.606055 0.924258 L 0.575742 0.5 L 0.575742 0.227266 L 0.606055 0.0454687 L 0.515156 0.136367 L 0.454531 0.196953 Z M 0.393945 0.318164 " transform="matrix(100,0,0,100,300,950)"/>
<path style="fill:none;stroke-width:0.01;stroke-linecap:butt;stroke-linejoin:miter;stroke:rgb(0%,0%,0%);stroke-opacity:1;stroke-miterlimit:10;" d="M 0.629883 0.92207 L 0.435078 0.889609 L 0.272734 0.857148 L 0.207773 0.629883 L 0.175313 0.370117 L 0.370117 0.175313 L 0.467539 0.0779297 L 0.597422 0.0779297 L 0.824688 0.0454687 L 0.824688 0.824687 L 0.759727 0.954531 Z M 0.629883 0.92207 " transform="matrix(100,0,0,100,450,950)"/>
<path style="fill:none;stroke-width:0.01;stroke-linecap:butt;stroke-linejoin:miter;stroke:rgb(0%,0%,0%);stroke-opacity:1;stroke-miterlimit:10;" d="M 0.681836 0.83332 L 0.681836 0.681836 L 0.621211 0.287891 L 0.651523 0.16668 L 0.621211 0.0454687 L 0.5 0.0757422 L 0.439375 0.136367 L 0.409102 0.196953 L 0.378789 0.318164 L 0.348477 0.378789 L 0.318164 0.530313 L 0.378789 0.590898 L 0.439375 0.83332 L 0.439375 0.863633 L 0.409102 0.924258 L 0.5 0.954531 L 0.621211 0.924258 Z M 0.681836 0.83332 " transform="matrix(100,0,0,100,600,950)"/>
<path style="fill:none;stroke-width:0.01;stroke-linecap:butt;stroke-linejoin:miter;stroke:rgb(0%,0%,0%);stroke-opacity:1;stroke-miterlimit:10;" d="M 0.45793 0.0959766 L 0.441094 0.163281 L 0.441094 0.297969 L 0.37375 0.331641 L 0.37375 0.348477 L 0.390586 0.449492 L 0.407422 0.58418 L 0.441094 0.718867 L 0.441094 0.870352 L 0.45793 0.920859 L 0.441094 0.937695 L 0.474766 0.954531 L 0.508398 0.937695 L 0.54207 0.920859 L 0.575742 0.870352 L 0.592578 0.617852 L 0.592578 0.213789 L 0.62625 0.0791406 L 0.62625 0.0454687 L 0.575742 0.0623047 Z M 0.45793 0.0959766 " transform="matrix(100,0,0,100,0,1100)"/>
<path style="fill:none;stroke-width:0.01;stroke-linecap:butt;stroke-linejoin:miter;stroke:rgb(0%,0%,0%);stroke-opacity:1;stroke-miterlimit:10;" d="M 0.800703 0.5 L 0.744766 0.486016 L 0.66082 0.444062 L 0.548945 0.444062 L 0.465039 0.5 L 0.395117 0.430078 L 0.283203 0.430078 L 0.185312 0.513984 L 0.0734375 0.527969 L 0.0454687 0.541953 L 0.0734375 0.597891 L 0.143359 0.611875 L 0.297187 0.541953 L 0.325156 0.597891 L 0.395117 0.625859 L 0.576914 0.625859 L 0.66082 0.555938 L 0.870625 0.555938 L 0.898594 0.597891 L 0.898594 0.793711 L 0.912578 0.82168 L 0.954531 0.849648 L 0.940547 0.737773 L 0.954531 0.611875 L 0.940547 0.444062 L 0.954531 0.374141 L 0.954531 0.150352 L 0.884609 0.192305 L 0.884609 0.486016 Z M 0.800703 0.5 " transform="matrix(100,0,0,100,150,1100)"/>
<path style="fill:none;stroke-width:0.01;stroke-linecap:butt;stroke-linejoin:miter;stroke:rgb(0%,0%,0%);stroke-opacity:1;stroke-miterlimit:10;" d="M 0.626836 0.954531 L 0.669141 0.573984 L 0.669141 0.193437 L 0.563438 0.130039 L 0.41543 0.0454687 L 0.330859 0.0666016 L 0.373164 0.193437 L 0.351992 0.341445 L 0.351992 0.510586 L 0.41543 0.700859 L 0.457734 0.78543 L 0.457734 0.891133 L 0.478867 0.954531 Z M 0.626836 0.954531 " transform="matrix(100,0,0,100,300,1100)"/>
<path style="fill:none;stroke-width:0.01;stroke-linecap:butt;stroke-linejoin:miter;stroke:rgb(0%,0%,0%);stroke-opacity:1;stroke-miterlimit:10;" d="M 0.638359 0.875508 L 0.598828 0.638359 L 0.440703 0.717383 L 0.282617 0.717383 L 0.124492 0.756914 L 0.0849609 0.717383 L 0.0849609 0.598828 L 0.0454688 0.519766 L 0.0849609 0.401172 L 0.164023 0.203555 L 0.164023 0.124492 L 0.322148 0.124492 L 0.401172 0.243086 L 0.559297 0.164023 L 0.638359 0.243086 L 0.875508 0.282617 L 0.954531 0.282617 L 0.875508 0.440703 L 0.717383 0.519766 L 0.717383 0.559297 L 0.598828 0.638359 Z M 0.638359 0.875508 " transform="matrix(100,0,0,100,450,1100)"/>
<path style="fill:none;stroke-width:0.01;stroke-linecap:butt;stroke-linejoin:miter;stroke:rgb(0%,0%,0%);stroke-opacity:1;stroke-miterlimit:10;" d="M 0.685195 0.786211 L 0.483164 0.853555 L 0.348477 0.920859 L 0.247461 0.954531 L 0.180117 0.786211 L 0.180117 0.752539 L 0.146445 0.617852 L 0.146445 0.483164 L 0.247461 0.348477 L 0.382148 0.247461 L 0.213789 0.180117 L 0.314805 0.112813 L 0.41582 0.112813 L 0.483164 0.0454687 L 0.550508 0.0454687 L 0.718867 0.112813 L 0.786211 0.213789 L 0.786211 0.314805 L 0.685195 0.483164 L 0.819883 0.483164 L 0.853555 0.516836 L 0.685195 0.651523 L 0.819883 0.651523 Z M 0.685195 0.786211 " transform="matrix(100,0,0,100,600,1100)"/>
<path style="fill:none;stroke-width:0.01;stroke-linecap:butt;stroke-linejoin:miter;stroke:rgb(0%,0%,0%);stroke-opacity:1;stroke-miterlimit:10;" d="M 0.272734 0.363633 L 0.363633 0.5 L 0.318164 0.681836 L 0.363633 0.818164 L 0.545469 0.909102 L 0.681836 0.954531 L 0.727266 0.681836 L 0.727266 0.0454687 L 0.409102 0.0908984 L 0.409102 0.136367 Z M 0.272734 0.363633 " transform="matrix(100,0,0,100,0,1250)"/>
<path style="fill:none;stroke-width:0.01;stroke-linecap:butt;stroke-linejoin:miter;stroke:rgb(0%,0%,0%);stroke-opacity:1;stroke-miterlimit:10;" d="M 0.772734 0.590898 L 0.772734 0.809102 L 0.627266 0.918164 L 0.445469 0.954531 L 0.336367 0.954531 L 0.227266 0.627266 L 0.227266 0.481836 L 0.409102 0.372734 L 0.554531 0.154531 L 0.7 0.0454687 L 0.736367 0.0818359 L 0.772734 0.336367 Z M 0.772734 0.590898 " transform="matrix(100,0,0,100,150,1250)"/>
<path style="fill:none;stroke-width:0.01;stroke-linecap:butt;stroke-linejoin:miter;stroke:rgb(0%,0%,0%);stroke-opacity:1;stroke-miterlimit:10;" d="M 0.695547 0.172305 L 0.685 0.0983203 L 0.674414 0.0454687 L 0.642695 0.0771484 L 0.632148 0.119453 L 0.579297 0.182891 L 0.536992 0.246289 L 0.431289 0.204023 L 0.283281 0.204023 L 0.272734 0.225156 L 0.336133 0.267461 L 0.346719 0.288594 L 0.336133 0.341445 L 0.420703 0.246289 L 0.431289 0.256875 L 0.484141 0.278008 L 0.505273 0.299141 L 0.473555 0.341445 L 0.558125 0.320312 L 0.568711 0.341445 L 0.558125 0.394297 L 0.547578 0.457734 L 0.579297 0.510586 L 0.579297 0.573984 L 0.589844 0.616289 L 0.60043 0.700859 L 0.60043 0.806563 L 0.610977 0.891133 L 0.632148 0.954531 L 0.685 0.954531 L 0.727266 0.838281 L 0.716719 0.721992 L 0.695547 0.595156 L 0.716719 0.299141 Z M 0.695547 0.172305 " transform="matrix(100,0,0,100,300,1250)"/>
<path style="fill:none;stroke-width:0.01;stroke-linecap:butt;stroke-linejoin:miter;stroke:rgb(0%,0%,0%);stroke-opacity:1;stroke-miterlimit:10;" d="M 0.592969 0.60332 L 0.510313 0.60332 L 0.448359 0.623984 L 0.407031 0.665273 L 0.345039 0.706602 L 0.283047 0.768594 L 0.241719 0.789258 L 0.221094 0.830586 L 0.324375 0.85125 L 0.407031 0.892578 L 0.469023 0.913242 L 0.551641 0.933867 L 0.654961 0.954531 L 0.758281 0.933867 L 0.758281 0.582656 L 0.778906 0.39668 L 0.778906 0.210742 L 0.758281 0.0661328 L 0.696289 0.0454687 L 0.634297 0.0867578 L 0.675625 0.190078 L 0.654961 0.376016 L 0.654961 0.623984 Z M 0.592969 0.60332 " transform="matrix(100,0,0,100,450,1250)"/>
<path style="fill:none;stroke-width:0.01;stroke-linecap:butt;stroke-linejoin:miter;stroke:rgb(0%,0%,0%);stroke-opacity:1;stroke-miterlimit:10;" d="M 0.954531 0.1 L 0.118164 0.1 L 0.0454688 0.172734 L 0.154531 0.281836 L 0.227266 0.463633 L 0.518164 0.754531 L 0.7 0.9 L 0.845469 0.790898 L 0.881836 0.645469 L 0.736367 0.863633 L 0.7 0.827266 L 0.7 0.9 L 0.954531 0.9 Z M 0.954531 0.1 " transform="matrix(100,0,0,100,600,1250)"/>
<path style="fill:none;stroke-width:0.01;stroke-linecap:butt;stroke-linejoin:miter;stroke:rgb(0%,0%,0%);stroke-opacity:1;stroke-miterlimit:10;" d="M 0.840898 0.334727 L 0.861563 0.541328 L 0.902891 0.685937 L 0.882227 0.768594 L 0.820234 0.830586 L 0.778906 0.954531 L 0.654961 0.913242 L 0.592969 0.830586 L 0.530977 0.727266 L 0.469023 0.665273 L 0.365703 0.685937 L 0.283047 0.644609 L 0.138437 0.60332 L 0.0971094 0.541328 L 0.221094 0.541328 L 0.221094 0.376016 L 0.241719 0.210742 L 0.241719 0.0867578 L 0.407031 0.0661328 L 0.572305 0.0661328 L 0.654961 0.0454687 L 0.737617 0.190078 L 0.820234 0.210742 Z M 0.840898 0.334727 " transform="matrix(100,0,0,100,0,1400)"/>
<path style="fill:none;stroke-width:0.01;stroke-linecap:butt;stroke-linejoin:miter;stroke:rgb(0%,0%,0%);stroke-opacity:1;stroke-miterlimit:10;" d="M 0.768594 0.458672 L 0.644609 0.541328 L 0.644609 0.74793 L 0.561992 0.954531 L 0.314063 0.830586 L 0.231406 0.623984 L 0.231406 0.0454687 L 0.438008 0.0867578 L 0.60332 0.210742 Z M 0.768594 0.458672 " transform="matrix(100,0,0,100,150,1400)"/>
<path style="fill:none;stroke-width:0.01;stroke-linecap:butt;stroke-linejoin:miter;stroke:rgb(0%,0%,0%);stroke-opacity:1;stroke-miterlimit:10;" d="M 0.667461 0.308594 L 0.954531 0.404297 L 0.954531 0.78707 L 0.763164 0.882773 L 0.428242 0.930625 L 0.141133 0.78707 L 0.332539 0.691406 L 0.188984 0.452148 L 0.332539 0.308594 L 0.0454687 0.165078 L 0.332539 0.069375 L 0.571758 0.069375 L 0.715313 0.117227 Z M 0.667461 0.308594 " transform="matrix(100,0,0,100,300,1400)"/>
<path style="fill:none;stroke-width:0.01;stroke-linecap:butt;stroke-linejoin:miter;stroke:rgb(0%,0%,0%);stroke-opacity:1;stroke-miterlimit:10;" d="M 0.954531 0.516836 L 0.870352 0.533672 L 0.786211 0.58418 L 0.58418 0.668359 L 0.314805 0.735703 L 0.348477 0.685195 L 0.617852 0.617852 L 0.196953 0.651523 L 0.180117 0.634688 L 0.601016 0.550508 L 0.196953 0.58418 L 0.129648 0.58418 L 0.533672 0.533672 L 0.0454688 0.516836 L 0.533672 0.5 L 0.348477 0.432656 L 0.0959766 0.41582 L 0.617852 0.432656 L 0.567344 0.331641 L 0.634688 0.348477 L 0.735703 0.382148 L 0.617852 0.264297 L 0.718867 0.281133 L 0.803047 0.432656 L 0.836719 0.466328 Z M 0.954531 0.516836 " transform="matrix(100,0,0,100,450,1400)"/>
<path style="fill:none;stroke-width:0.01;stroke-linecap:butt;stroke-linejoin:miter;stroke:rgb(0%,0%,0%);stroke-opacity:1;stroke-miterlimit:10;" d="M 0.954531 0.476289 L 0.298438 0.468398 L 0.0454688 0.492109 L 0.0533594 0.531602 L 0.851797 0.51582 L 0.93875 0.507891 Z M 0.954531 0.476289 " transform="matrix(100,0,0,100,600,1400)"/>
<path style="fill:none;stroke-width:0.01;stroke-linecap:butt;stroke-linejoin:miter;stroke:rgb(0%,0%,0%);stroke-opacity:1;stroke-miterlimit:10;" d="M 0.824688 0.68832 L 0.103906 0.681836 L 0.0649219 0.655859 L 0.0454688 0.636367 L 0.181836 0.629883 L 0.246758 0.623359 L 0.279219 0.629883 L 0.23375 0.603906 L 0.227266 0.558438 L 0.194805 0.538945 L 0.396094 0.525977 L 0.396094 0.519492 L 0.110391 0.506484 L 0.0908984 0.480508 L 0.103906 0.467539 L 0.0779297 0.428555 L 0.441563 0.409102 L 0.448047 0.389609 L 0.402578 0.370117 L 0.240273 0.350664 L 0.227266 0.337656 L 0.246758 0.324687 L 0.285703 0.31168 L 0.389609 0.318164 L 0.454531 0.324687 L 0.551953 0.344141 L 0.759727 0.435078 L 0.779219 0.441562 L 0.76625 0.428555 L 0.668828 0.376641 L 0.584414 0.344141 L 0.629883 0.318164 L 0.759727 0.370117 L 0.850664 0.415586 L 0.915586 0.461055 L 0.948047 0.512969 L 0.941562 0.564922 L 0.941562 0.603906 L 0.954531 0.662344 L 0.909102 0.68832 Z M 0.824688 0.68832 " transform="matrix(100,0,0,100,0,1550)"/>
<path style="fill:none;stroke-width:0.01;stroke-linecap:butt;stroke-linejoin:miter;stroke:rgb(0%,0%,0%);stroke-opacity:1;stroke-miterlimit:10;" d="M 0.596602 0.0795313 L 0.505664 0.0454687 L 0.426133 0.0681641 L 0.369336 0.136367 L 0.380664 0.204531 L 0.335234 0.215898 L 0.323867 0.25 L 0.335234 0.295469 L 0.323867 0.329531 L 0.289766 0.431836 L 0.335234 0.511367 L 0.301133 0.556836 L 0.323867 0.670469 L 0.369336 0.715898 L 0.3125 0.727266 L 0.335234 0.818164 L 0.460234 0.897734 L 0.528398 0.954531 L 0.585234 0.954531 L 0.664766 0.920469 L 0.676133 0.818164 L 0.698867 0.772734 L 0.710234 0.238633 L 0.653398 0.193164 L 0.619336 0.147734 Z M 0.596602 0.0795313 " transform="matrix(100,0,0,100,150,1550)"/>
<path style="fill:none;stroke-width:0.01;stroke-linecap:butt;stroke-linejoin:miter;stroke:rgb(0%,0%,0%);stroke-opacity:1;stroke-miterlimit:10;" d="M 0.730586 0.348477 L 0.74375 0.46707 L 0.796445 0.651523 L 0.809609 0.809609 L 0.796445 0.862305 L 0.756914 0.954531 L 0.625156 0.941367 L 0.559297 0.849141 L 0.453867 0.756914 L 0.348477 0.664687 L 0.25625 0.572461 L 0.216719 0.414375 L 0.190391 0.282617 L 0.229922 0.190391 L 0.295781 0.124492 L 0.348477 0.0717969 L 0.401172 0.0454687 L 0.440703 0.0981641 L 0.53293 0.137695 L 0.625156 0.177188 L 0.704219 0.229922 L 0.730586 0.269414 Z M 0.730586 0.348477 " transform="matrix(100,0,0,100,300,1550)"/>
<path style="fill:none;stroke-width:0.01;stroke-linecap:butt;stroke-linejoin:miter;stroke:rgb(0%,0%,0%);stroke-opacity:1;stroke-miterlimit:10;" d="M 0.765859 0.114063 L 0.611484 0.0454687 L 0.560039 0.114063 L 0.405664 0.131211 L 0.405664 0.251289 L 0.337031 0.319883 L 0.114063 0.319883 L 0.251289 0.439961 L 0.302734 0.542891 L 0.268438 0.542891 L 0.285586 0.611484 L 0.234141 0.783008 L 0.199844 0.817305 L 0.337031 0.954531 L 0.542891 0.954531 L 0.680117 0.920234 L 0.748711 0.868789 L 0.868789 0.748711 L 0.851641 0.594336 L 0.714414 0.594336 L 0.783008 0.474258 L 0.885937 0.371367 L 0.868789 0.268438 L 0.800156 0.165508 L 0.714414 0.114063 Z M 0.765859 0.114063 " transform="matrix(100,0,0,100,450,1550)"/>
<path style="fill:none;stroke-width:0.01;stroke-linecap:butt;stroke-linejoin:miter;stroke:rgb(0%,0%,0%);stroke-opacity:1;stroke-miterlimit:10;" d="M 0.651523 0.13457 L 0.651523 0.295 L 0.669336 0.473281 L 0.705 0.54457 L 0.687148 0.669336 L 0.633672 0.722812 L 0.687148 0.811953 L 0.705 0.954531 L 0.598047 0.954531 L 0.45543 0.847578 L 0.401953 0.651523 L 0.295 0.491094 L 0.295 0.366328 L 0.366328 0.241523 L 0.330664 0.0810938 L 0.437617 0.0454687 L 0.526719 0.0810938 Z M 0.651523 0.13457 " transform="matrix(100,0,0,100,600,1550)"/>
<path style="fill:none;stroke-width:0.01;stroke-linecap:butt;stroke-linejoin:miter;stroke:rgb(0%,0%,0%);stroke-opacity:1;stroke-miterlimit:10;" d="M 0.537109 0.0454688 L 0.388672 0.119648 L 0.388672 0.230977 L 0.351562 0.32375 L 0.258828 0.360859 L 0.240273 0.490742 L 0.277383 0.639141 L 0.277383 0.713359 L 0.314453 0.880352 L 0.295938 0.917422 L 0.425781 0.954531 L 0.555664 0.898906 L 0.648438 0.806133 L 0.722617 0.787578 L 0.759727 0.731914 L 0.741172 0.620586 L 0.741172 0.212422 L 0.685547 0.0825781 Z M 0.537109 0.0454688 " transform="matrix(100,0,0,100,0,1700)"/>
<path style="fill:none;stroke-width:0.01;stroke-linecap:butt;stroke-linejoin:miter;stroke:rgb(0%,0%,0%);stroke-opacity:1;stroke-miterlimit:10;" d="M 0.5175 0.0978906 L 0.360156 0.0454688 L 0.290195 0.0804297 L 0.290195 0.202813 L 0.325156 0.360156 L 0.307695 0.5 L 0.237773 0.587422 L 0.185312 0.727266 L 0.237773 0.779727 L 0.307695 0.832148 L 0.342656 0.884609 L 0.4825 0.91957 L 0.534961 0.884609 L 0.657344 0.954531 L 0.779727 0.93707 L 0.814688 0.814688 L 0.744766 0.709805 L 0.762227 0.657344 L 0.692305 0.465039 L 0.622383 0.255234 Z M 0.5175 0.0978906 " transform="matrix(100,0,0,100,150,1700)"/>
<path style="fill:none;stroke-width:0.01;stroke-linecap:butt;stroke-linejoin:miter;stroke:rgb(0%,0%,0%);stroke-opacity:1;stroke-miterlimit:10;" d="M 0.899453 0.224531 L 0.775469 0.169414 L 0.692852 0.238281 L 0.651523 0.128086 L 0.5 0.0454688 L 0.431133 0.183203 L 0.334727 0.238281 L 0.25207 0.279609 L 0.196953 0.362266 L 0.169414 0.444922 L 0.128086 0.5 L 0.0454687 0.555078 L 0.100547 0.568867 L 0.100547 0.637734 L 0.0730078 0.679063 L 0.0867578 0.74793 L 0.183203 0.803047 L 0.25207 0.803047 L 0.279609 0.899453 L 0.320937 0.954531 L 0.403594 0.954531 L 0.5 0.913242 L 0.417344 0.74793 L 0.403594 0.679063 L 0.5 0.651523 L 0.623984 0.637734 L 0.679063 0.610195 L 0.637734 0.527539 L 0.74793 0.513789 L 0.858125 0.513789 L 0.926992 0.486211 L 0.954531 0.389805 L 0.940781 0.320937 Z M 0.899453 0.224531 " transform="matrix(100,0,0,100,300,1700)"/>
<path style="fill:none;stroke-width:0.01;stroke-linecap:butt;stroke-linejoin:miter;stroke:rgb(0%,0%,0%);stroke-opacity:1;stroke-miterlimit:10;" d="M 0.401953 0.268281 L 0.259375 0.161328 L 0.152422 0.232617 L 0.116758 0.357383 L 0.0989453 0.464336 L 0.0454688 0.553477 L 0.348477 0.696094 L 0.473281 0.731719 L 0.651523 0.713906 L 0.776289 0.785195 L 0.86543 0.892148 L 0.918906 0.927813 L 0.954531 0.785195 L 0.918906 0.642617 L 0.918906 0.5 L 0.847578 0.375234 L 0.829766 0.268281 L 0.829766 0.0721875 L 0.740625 0.09 L 0.580195 0.179141 L 0.491094 0.232617 Z M 0.401953 0.268281 " transform="matrix(100,0,0,100,450,1700)"/>
<path style="fill:none;stroke-width:0.01;stroke-linecap:butt;stroke-linejoin:miter;stroke:rgb(0%,0%,0%);stroke-opacity:1;stroke-miterlimit:10;" d="M 0.954531 0.36582 L 0.651523 0.40043 L 0.417734 0.435078 L 0.209961 0.521641 L 0.132031 0.573594 L 0.0454688 0.660156 L 0.140703 0.573594 L 0.357148 0.452383 L 0.573594 0.417734 L 0.781367 0.357148 L 0.919922 0.339844 Z M 0.954531 0.36582 " transform="matrix(100,0,0,100,600,1700)"/>
<path style="fill:none;stroke-width:0.01;stroke-linecap:butt;stroke-linejoin:miter;stroke:rgb(0%,0%,0%);stroke-opacity:1;stroke-miterlimit:10;" d="M 0.356445 0.631563 L 0.200937 0.631563 L 0.12918 0.571758 L 0.069375 0.547852 L 0.0454688 0.476094 L 0.0454688 0.368437 L 0.069375 0.380391 L 0.224883 0.404297 L 0.260781 0.440195 L 0.296641 0.511953 L 0.368438 0.58375 L 0.5 0.631563 L 0.954531 0.595703 L 0.942578 0.631563 Z M 0.356445 0.631563 " transform="matrix(100,0,0,100,0,1850)"/>
<path style="fill:none;stroke-width:0.01;stroke-linecap:butt;stroke-linejoin:miter;stroke:rgb(0%,0%,0%);stroke-opacity:1;stroke-miterlimit:10;" d="M 0.694805 0.261914 L 0.694805 0.435078 L 0.91125 0.478359 L 0.91125 0.651523 L 0.564922 0.694805 L 0.608242 0.954531 L 0.348477 0.867969 L 0.08875 0.824687 L 0.08875 0.651523 L 0.132031 0.521641 L 0.305195 0.391758 L 0.261914 0.175313 L 0.218633 0.08875 L 0.348477 0.0454688 L 0.564922 0.132031 Z M 0.694805 0.261914 " transform="matrix(100,0,0,100,150,1850)"/>
<path style="fill:none;stroke-width:0.01;stroke-linecap:butt;stroke-linejoin:miter;stroke:rgb(0%,0%,0%);stroke-opacity:1;stroke-miterlimit:10;" d="M 0.70832 0.121211 L 0.329531 0.0454688 L 0.140156 0.159102 L 0.140156 0.5 L 0.215898 0.575742 L 0.329531 0.727266 L 0.29168 0.840898 L 0.367422 0.954531 L 0.594688 0.91668 L 0.70832 0.803047 L 0.746211 0.537891 L 0.784102 0.5 L 0.859844 0.348477 Z M 0.70832 0.121211 " transform="matrix(100,0,0,100,300,1850)"/>
<path style="fill:none;stroke-width:0.01;stroke-linecap:butt;stroke-linejoin:miter;stroke:rgb(0%,0%,0%);stroke-opacity:1;stroke-miterlimit:10;" d="M 0.820859 0.553477 L 0.580195 0.473281 L 0.446523 0.419805 L 0.419805 0.259375 L 0.259375 0.259375 L 0.366328 0.33957 L 0.179141 0.33957 L 0.125664 0.312852 L 0.232617 0.446523 L 0.0454688 0.473281 L 0.259375 0.553477 L 0.286094 0.606953 L 0.312852 0.687148 L 0.393047 0.580195 L 0.473281 0.526719 L 0.687148 0.5 L 0.901055 0.419805 L 0.954531 0.5 L 0.954531 0.633672 L 0.847578 0.740625 L 0.874336 0.66043 Z M 0.820859 0.553477 " transform="matrix(100,0,0,100,450,1850)"/>
<path style="fill:none;stroke-width:0.01;stroke-linecap:butt;stroke-linejoin:miter;stroke:rgb(0%,0%,0%);stroke-opacity:1;stroke-miterlimit:10;" d="M 0.428242 0.5 L 0.236836 0.308594 L 0.0454688 0.452148 L 0.0454688 0.547852 L 0.188984 0.643555 L 0.428242 0.691406 L 0.811016 0.5 L 0.954531 0.404297 L 0.715313 0.404297 Z M 0.428242 0.5 " transform="matrix(100,0,0,100,600,1850)"/>
<path style="fill:none;stroke-width:0.01;stroke-linecap:butt;stroke-linejoin:miter;stroke:rgb(0%,0%,0%);stroke-opacity:1;stroke-miterlimit:10;" d="M 0.604883 0.0454688 L 0.325156 0.0454688 L 0.0454688 0.325156 L 0.115391 0.674844 L 0.325156 0.814688 L 0.534961 0.954531 L 0.674844 0.814688 L 0.954531 0.744766 L 0.954531 0.604883 Z M 0.604883 0.0454688 " transform="matrix(100,0,0,100,0,2000)"/>
<path style="fill:none;stroke-width:0.01;stroke-linecap:butt;stroke-linejoin:miter;stroke:rgb(0%,0%,0%);stroke-opacity:1;stroke-miterlimit:10;" d="M 0.568164 0.340898 L 0.568164 0.431836 L 0.545469 0.545469 L 0.545469 0.659102 L 0.590898 0.75 L 0.568164 0.863633 L 0.522734 0.954531 L 0.454531 0.840898 L 0.454531 0.681836 L 0.386367 0.5 L 0.409102 0.318164 L 0.409102 0.136367 L 0.477266 0.0454688 L 0.613633 0.136367 Z M 0.568164 0.340898 " transform="matrix(100,0,0,100,150,2000)"/>
<path style="fill:none;stroke-width:0.01;stroke-linecap:butt;stroke-linejoin:miter;stroke:rgb(0%,0%,0%);stroke-opacity:1;stroke-miterlimit:10;" d="M 0.536367 0.545469 L 0.481836 0.418164 L 0.445469 0.290898 L 0.590898 0.163633 L 0.772734 0.218164 L 0.881836 0.2 L 0.718164 0.272734 L 0.536367 0.290898 L 0.518164 0.4 L 0.663633 0.509102 L 0.827266 0.527266 L 0.881836 0.545469 L 0.772734 0.563633 L 0.3 0.618164 L 0.0454687 0.6 L 0.445469 0.618164 L 0.427266 0.636367 L 0.336367 0.818164 L 0.281836 0.836367 L 0.372734 0.581836 L 0.445469 0.745469 L 0.5 0.654531 L 0.845469 0.618164 L 0.954531 0.636367 L 0.936367 0.6 L 0.9 0.527266 Z M 0.536367 0.545469 " transform="matrix(100,0,0,100,300,2000)"/>
<path style="fill:none;stroke-width:0.01;stroke-linecap:butt;stroke-linejoin:miter;stroke:rgb(0%,0%,0%);stroke-opacity:1;stroke-miterlimit:10;" d="M 0.835977 0.529648 L 0.727266 0.56918 L 0.56918 0.608711 L 0.401172 0.588945 L 0.312266 0.588945 L 0.252969 0.559297 L 0.173906 0.598828 L 0.114609 0.539531 L 0.0553516 0.559297 L 0.104727 0.509883 L 0.0454688 0.490117 L 0.0652344 0.470352 L 0.183789 0.420938 L 0.272734 0.420938 L 0.411055 0.391289 L 0.420937 0.440703 L 0.460469 0.480234 L 0.658086 0.480234 L 0.727266 0.490117 L 0.816211 0.490117 L 0.875508 0.5 L 0.924883 0.509883 L 0.944648 0.539531 L 0.954531 0.56918 L 0.915039 0.579062 L 0.865625 0.579062 Z M 0.835977 0.529648 " transform="matrix(100,0,0,100,450,2000)"/>
<path style="fill:none;stroke-width:0.01;stroke-linecap:butt;stroke-linejoin:miter;stroke:rgb(0%,0%,0%);stroke-opacity:1;stroke-miterlimit:10;" d="M 0.657031 0.921484 L 0.557852 0.921484 L 0.541328 0.938008 L 0.491719 0.954531 L 0.425625 0.904961 L 0.326445 0.838828 L 0.359492 0.690078 L 0.376016 0.491719 L 0.359492 0.326445 L 0.309922 0.177695 L 0.293398 0.128086 L 0.376016 0.0950391 L 0.409102 0.0454688 L 0.442148 0.111563 L 0.442148 0.276875 L 0.458672 0.508281 L 0.458672 0.673555 L 0.508281 0.739687 L 0.557852 0.623984 L 0.574375 0.557852 L 0.623984 0.690078 L 0.673555 0.789258 L 0.706602 0.888438 Z M 0.657031 0.921484 " transform="matrix(100,0,0,100,600,2000)"/>
<path style="fill:none;stroke-width:0.01;stroke-linecap:butt;stroke-linejoin:miter;stroke:rgb(0%,0%,0%);stroke-opacity:1;stroke-miterlimit:10;" d="M 0.479648 0.561055 L 0.126875 0.5475 L 0.0454688 0.466094 L 0.0997266 0.438945 L 0.14043 0.398242 L 0.438945 0.398242 L 0.493203 0.438945 L 0.656055 0.4525 L 0.696758 0.4525 L 0.778164 0.466094 L 0.832422 0.493203 L 0.873125 0.520352 L 0.927422 0.5475 L 0.954531 0.601758 Z M 0.479648 0.561055 " transform="matrix(100,0,0,100,0,2150)"/>
<path style="fill:none;stroke-width:0.01;stroke-linecap:butt;stroke-linejoin:miter;stroke:rgb(0%,0%,0%);stroke-opacity:1;stroke-miterlimit:10;" d="M 0.210742 0.169414 L 0.706602 0.417344 L 0.871914 0.169414 L 0.954531 0.5 L 0.954531 0.74793 L 0.789258 0.830586 L 0.541328 0.74793 L 0.210742 0.830586 L 0.0454687 0.74793 L 0.293398 0.665273 Z M 0.210742 0.169414 " transform="matrix(100,0,0,100,150,2150)"/>
<path style="fill:none;stroke-width:0.01;stroke-linecap:butt;stroke-linejoin:miter;stroke:rgb(0%,0%,0%);stroke-opacity:1;stroke-miterlimit:10;" d="M 0.452148 0.0933203 L 0.308594 0.0933203 L 0.21293 0.332539 L 0.260781 0.428242 L 0.404297 0.523906 L 0.404297 0.619609 L 0.452148 0.763164 L 0.452148 0.858867 L 0.260781 0.858867 L 0.547852 0.90668 L 0.643555 0.954531 L 0.691406 0.954531 L 0.78707 0.619609 L 0.78707 0.0454688 Z M 0.452148 0.0933203 " transform="matrix(100,0,0,100,300,2150)"/>
<path style="fill:none;stroke-width:0.01;stroke-linecap:butt;stroke-linejoin:miter;stroke:rgb(0%,0%,0%);stroke-opacity:1;stroke-miterlimit:10;" d="M 0.370117 0.142852 L 0.272734 0.175313 L 0.305195 0.305195 L 0.337656 0.467539 L 0.337656 0.564922 L 0.402578 0.662344 L 0.467539 0.759727 L 0.467539 0.792227 L 0.370117 0.889609 L 0.5 0.954531 L 0.564922 0.954531 L 0.564922 0.629883 L 0.662344 0.564922 L 0.727266 0.435078 L 0.662344 0.110391 L 0.629883 0.0454688 L 0.5 0.0454688 Z M 0.370117 0.142852 " transform="matrix(100,0,0,100,450,2150)"/>
<path style="fill:none;stroke-width:0.01;stroke-linecap:butt;stroke-linejoin:miter;stroke:rgb(0%,0%,0%);stroke-opacity:1;stroke-miterlimit:10;" d="M 0.0454688 0.550508 L 0.449492 0.449492 L 0.752539 0.146445 L 0.853555 0.146445 L 0.853555 0.752539 L 0.954531 0.752539 L 0.954531 0.550508 L 0.954531 0.853555 L 0.752539 0.651523 L 0.247461 0.550508 Z M 0.0454688 0.550508 " transform="matrix(100,0,0,100,600,2150)"/>
<path style="fill:none;stroke-width:0.01;stroke-linecap:butt;stroke-linejoin:miter;stroke:rgb(0%,0%,0%);stroke-opacity:1;stroke-miterlimit:10;" d="M 0.0454688 0.651523 L 0.702031 0.651523 L 0.803047 0.702031 L 0.954531 0.5 L 0.853555 0.348477 L 0.601016 0.297969 L 0.449492 0.348477 L 0.196953 0.398984 Z M 0.0454688 0.651523 " transform="matrix(100,0,0,100,0,2300)"/>
<path style="fill:none;stroke-width:0.01;stroke-linecap:butt;stroke-linejoin:miter;stroke:rgb(0%,0%,0%);stroke-opacity:1;stroke-miterlimit:10;" d="M 0.651523 0.121211 L 0.348477 0.0454688 L 0.121211 0.0454688 L 0.121211 0.424258 L 0.0454687 0.575742 L 0.0454687 0.803047 L 0.196953 0.878789 L 0.424258 0.954531 L 0.575742 0.878789 L 0.651523 0.803047 L 0.803047 0.878789 L 0.878789 0.727266 L 0.954531 0.121211 L 0.954531 0.0454688 Z M 0.651523 0.121211 " transform="matrix(100,0,0,100,150,2300)"/>
<path style="fill:none;stroke-width:0.01;stroke-linecap:butt;stroke-linejoin:miter;stroke:rgb(0%,0%,0%);stroke-opacity:1;stroke-miterlimit:10;" d="M 0.110391 0.597422 L 0.240273 0.857148 L 0.435078 0.857148 L 0.694805 0.792227 L 0.889609 0.727266 L 0.954531 0.597422 L 0.824688 0.532461 L 0.759727 0.337656 L 0.435078 0.207773 L 0.175312 0.142852 L 0.0454687 0.402578 Z M 0.110391 0.597422 " transform="matrix(100,0,0,100,300,2300)"/>
<path style="fill:none;stroke-width:0.01;stroke-linecap:butt;stroke-linejoin:miter;stroke:rgb(0%,0%,0%);stroke-opacity:1;stroke-miterlimit:10;" d="M 0.203555 0.282617 L 0.440703 0.401172 L 0.519766 0.440703 L 0.954531 0.440703 L 0.915039 0.519766 L 0.875508 0.677852 L 0.756914 0.717383 L 0.598828 0.638359 L 0.322148 0.598828 L 0.203555 0.638359 L 0.0454688 0.519766 L 0.203555 0.401172 Z M 0.203555 0.282617 " transform="matrix(100,0,0,100,450,2300)"/>
<path style="fill:none;stroke-width:0.01;stroke-linecap:butt;stroke-linejoin:miter;stroke:rgb(0%,0%,0%);stroke-opacity:1;stroke-miterlimit:10;" d="M 0.175313 0.597422 L 0.5 0.857148 L 0.824688 0.792227 L 0.954531 0.597422 L 0.824688 0.402578 L 0.564922 0.207773 L 0.175313 0.142852 L 0.0454688 0.402578 L 0.370117 0.467539 Z M 0.175313 0.597422 " transform="matrix(100,0,0,100,600,2300)"/>
<path style="fill:none;stroke-width:0.01;stroke-linecap:butt;stroke-linejoin:miter;stroke:rgb(0%,0%,0%);stroke-opacity:1;stroke-miterlimit:10;" d="M 0.465039 0.220273 L 0.185312 0.290195 L 0.0454688 0.5 L 0.0454688 0.639844 L 0.255234 0.709805 L 0.465039 0.779727 L 0.744766 0.709805 L 0.814688 0.569922 L 0.954531 0.569922 L 0.954531 0.5 L 0.814688 0.5 Z M 0.465039 0.220273 " transform="matrix(100,0,0,100,0,2450)"/>
<path style="fill:none;stroke-width:0.01;stroke-linecap:butt;stroke-linejoin:miter;stroke:rgb(0%,0%,0%);stroke-opacity:1;stroke-miterlimit:10;" d="M 0.558008 0.0454688 L 0.480664 0.142148 L 0.422617 0.238867 L 0.383945 0.296914 L 0.345273 0.451641 L 0.364609 0.587031 L 0.422617 0.799805 L 0.403281 0.896523 L 0.441992 0.954531 L 0.519336 0.935195 L 0.596719 0.722422 L 0.635391 0.432305 L 0.654727 0.200195 Z M 0.558008 0.0454688 " transform="matrix(100,0,0,100,150,2450)"/>
<path style="fill:none;stroke-width:0.01;stroke-linecap:butt;stroke-linejoin:miter;stroke:rgb(0%,0%,0%);stroke-opacity:1;stroke-miterlimit:10;" d="M 0.315117 0.1225 L 0.191836 0.245781 L 0.161016 0.307383 L 0.145625 0.415273 L 0.145625 0.553945 L 0.161016 0.692617 L 0.207227 0.815859 L 0.284297 0.8775 L 0.376719 0.939141 L 0.515391 0.954531 L 0.607852 0.954531 L 0.669492 0.90832 L 0.746523 0.800469 L 0.808164 0.661797 L 0.854375 0.584727 L 0.854375 0.430664 L 0.838984 0.307383 L 0.746523 0.184141 L 0.715703 0.10707 L 0.607852 0.0608594 L 0.5 0.0454688 L 0.422969 0.0608594 Z M 0.315117 0.1225 " transform="matrix(100,0,0,100,300,2450)"/>
<path style="fill:none;stroke-width:0.01;stroke-linecap:butt;stroke-linejoin:miter;stroke:rgb(0%,0%,0%);stroke-opacity:1;stroke-miterlimit:10;" d="M 0.128086 0.326445 L 0.111562 0.508281 L 0.128086 0.640508 L 0.177695 0.838828 L 0.243789 0.888438 L 0.342969 0.938008 L 0.425625 0.954531 L 0.541328 0.938008 L 0.640508 0.871914 L 0.723125 0.822305 L 0.772734 0.706602 L 0.805781 0.574375 L 0.871914 0.508281 L 0.888438 0.359492 L 0.871914 0.260313 L 0.756211 0.161172 L 0.640508 0.0785156 L 0.475195 0.0454688 L 0.376016 0.0454688 L 0.276875 0.0619922 L 0.210742 0.144609 L 0.161172 0.194219 L 0.144609 0.243789 Z M 0.128086 0.326445 " transform="matrix(100,0,0,100,450,2450)"/>
<path style="fill:none;stroke-width:0.01;stroke-linecap:butt;stroke-linejoin:miter;stroke:rgb(0%,0%,0%);stroke-opacity:1;stroke-miterlimit:10;" d="M 0.530312 0.0454688 L 0.378789 0.106055 L 0.196953 0.242422 L 0.121211 0.409102 L 0.0908984 0.484844 L 0.106055 0.575742 L 0.16668 0.727266 L 0.272734 0.848477 L 0.363633 0.924258 L 0.5 0.939375 L 0.590898 0.954531 L 0.696953 0.924258 L 0.803047 0.878789 L 0.863633 0.803047 L 0.909102 0.696953 L 0.893945 0.303047 L 0.757578 0.16668 L 0.606055 0.060625 Z M 0.530312 0.0454688 " transform="matrix(100,0,0,100,600,2450)"/>
<path style="fill:none;stroke-width:0.01;stroke-linecap:butt;stroke-linejoin:miter;stroke:rgb(0%,0%,0%);stroke-opacity:1;stroke-miterlimit:10;" d="M 0.276875 0.0454688 L 0.161172 0.210742 L 0.128086 0.359492 L 0.0950391 0.508281 L 0.0950391 0.723125 L 0.128086 0.855391 L 0.194219 0.954531 L 0.904961 0.954531 L 0.904961 0.359492 L 0.789258 0.293398 L 0.640508 0.161172 L 0.541328 0.0950391 L 0.376016 0.0619922 Z M 0.276875 0.0454688 " transform="matrix(100,0,0,100,0,2600)"/>
<path style="fill:none;stroke-width:0.01;stroke-linecap:butt;stroke-linejoin:miter;stroke:rgb(0%,0%,0%);stroke-opacity:1;stroke-miterlimit:10;" d="M 0.362031 0.0454688 L 0.232148 0.126641 L 0.183438 0.256484 L 0.150977 0.435078 L 0.167227 0.581172 L 0.232148 0.694805 L 0.280859 0.840898 L 0.345781 0.905859 L 0.394492 0.954531 L 0.426953 0.92207 L 0.491875 0.597422 L 0.589297 0.402578 L 0.637969 0.353906 L 0.800312 0.370117 L 0.849023 0.288945 L 0.816562 0.207773 L 0.670469 0.159102 L 0.589297 0.110391 L 0.508125 0.0941406 L 0.443164 0.0616797 Z M 0.362031 0.0454688 " transform="matrix(100,0,0,100,150,2600)"/>
<path style="fill:none;stroke-width:0.01;stroke-linecap:butt;stroke-linejoin:miter;stroke:rgb(0%,0%,0%);stroke-opacity:1;stroke-miterlimit:10;" d="M 0.386367 0.0454688 L 0.209609 0.146445 L 0.108594 0.348477 L 0.0833203 0.449492 L 0.0833203 0.550508 L 0.108594 0.702031 L 0.184336 0.954531 L 0.285352 0.904023 L 0.386367 0.601016 L 0.588398 0.424258 L 0.815664 0.247461 L 0.91668 0.247461 L 0.790391 0.171719 L 0.739883 0.121211 L 0.613633 0.0454688 L 0.512617 0.0454688 Z M 0.386367 0.0454688 " transform="matrix(100,0,0,100,300,2600)"/>
<path style="fill:none;stroke-width:0.01;stroke-linecap:butt;stroke-linejoin:miter;stroke:rgb(0%,0%,0%);stroke-opacity:1;stroke-miterlimit:10;" d="M 0.393633 0.122813 L 0.296914 0.200195 L 0.238867 0.354922 L 0.219531 0.529023 L 0.219531 0.625742 L 0.258203 0.741797 L 0.354922 0.877188 L 0.412969 0.915859 L 0.548359 0.954531 L 0.567695 0.877188 L 0.567695 0.664414 L 0.645078 0.451641 L 0.741797 0.335586 L 0.780469 0.296914 L 0.625742 0.161523 L 0.509688 0.0454688 Z M 0.393633 0.122813 " transform="matrix(100,0,0,100,450,2600)"/>
<path style="fill:none;stroke-width:0.01;stroke-linecap:butt;stroke-linejoin:miter;stroke:rgb(0%,0%,0%);stroke-opacity:1;stroke-miterlimit:10;" d="M 0.480664 0.142148 L 0.345273 0.296914 L 0.306563 0.335586 L 0.287227 0.432305 L 0.287227 0.606367 L 0.306563 0.722422 L 0.364609 0.838477 L 0.403281 0.896523 L 0.461328 0.935195 L 0.5 0.954531 L 0.558008 0.915859 L 0.519336 0.722422 L 0.538672 0.432305 L 0.596719 0.31625 L 0.712773 0.142148 L 0.693437 0.0454688 L 0.616055 0.0454688 L 0.577383 0.0648047 Z M 0.480664 0.142148 " transform="matrix(100,0,0,100,600,2600)"/>
<path style="fill:none;stroke-width:0.01;stroke-linecap:butt;stroke-linejoin:miter;stroke:rgb(0%,0%,0%);stroke-opacity:1;stroke-miterlimit:10;" d="M 0.0454688 0.417344 L 0.128086 0.520664 L 0.231406 0.561992 L 0.355391 0.541328 L 0.39668 0.582656 L 0.541328 0.561992 L 0.74793 0.5 L 0.933867 0.561992 L 0.954531 0.479336 L 0.954531 0.417344 Z M 0.0454688 0.417344 " transform="matrix(100,0,0,100,0,2750)"/>
<path style="fill:none;stroke-width:0.01;stroke-linecap:butt;stroke-linejoin:miter;stroke:rgb(0%,0%,0%);stroke-opacity:1;stroke-miterlimit:10;" d="M 0.954531 0.440391 L 0.745898 0.470195 L 0.611758 0.440391 L 0.462734 0.425469 L 0.403125 0.440391 L 0.23918 0.485078 L 0.105078 0.485078 L 0.0454687 0.514922 L 0.134883 0.514922 L 0.254102 0.485078 L 0.313711 0.5 L 0.403125 0.5 L 0.254102 0.574531 L 0.388242 0.574531 L 0.537266 0.544727 L 0.656484 0.529805 L 0.745898 0.529805 L 0.805508 0.514922 Z M 0.954531 0.440391 " transform="matrix(100,0,0,100,150,2750)"/>
<path style="fill:none;stroke-width:0.01;stroke-linecap:butt;stroke-linejoin:miter;stroke:rgb(0%,0%,0%);stroke-opacity:1;stroke-miterlimit:10;" d="M 0.623984 0.448359 L 0.871914 0.427695 L 0.933867 0.448359 L 0.954531 0.551641 L 0.892578 0.572305 L 0.706602 0.530977 L 0.293398 0.530977 L 0.169414 0.572305 L 0.0454687 0.696289 L 0.107422 0.592969 L 0.0867578 0.530977 L 0.0661328 0.489688 L 0.334727 0.469023 L 0.210742 0.303711 L 0.39668 0.469023 L 0.5 0.469023 Z M 0.623984 0.448359 " transform="matrix(100,0,0,100,300,2750)"/>
<path style="fill:none;stroke-width:0.01;stroke-linecap:butt;stroke-linejoin:miter;stroke:rgb(0%,0%,0%);stroke-opacity:1;stroke-miterlimit:10;" d="M 0.932734 0.634531 L 0.932734 0.954531 L 0.394531 0.947266 L 0.38 0.896367 L 0.336367 0.823633 L 0.307266 0.794531 L 0.241836 0.772734 L 0.205469 0.765469 L 0.154531 0.750898 L 0.132734 0.721836 L 0.169102 0.707266 L 0.154531 0.670898 L 0.183633 0.649102 L 0.169102 0.590898 L 0.154531 0.583633 L 0.176367 0.547266 L 0.154531 0.525469 L 0.0672656 0.518164 L 0.06 0.496367 L 0.0818359 0.474531 L 0.0745312 0.452734 L 0.06 0.416367 L 0.0963672 0.416367 L 0.103633 0.387266 L 0.14 0.372734 L 0.14 0.343633 L 0.147266 0.321836 L 0.154531 0.285469 L 0.154531 0.278164 L 0.161836 0.234531 L 0.22 0.227266 L 0.270898 0.227266 L 0.270898 0.198164 L 0.314531 0.161836 L 0.358164 0.161836 L 0.387266 0.176367 L 0.445469 0.161836 L 0.518164 0.125469 L 0.547266 0.103633 L 0.612734 0.0672656 L 0.670898 0.0818359 L 0.707266 0.0963672 L 0.7 0.118164 L 0.678164 0.161836 L 0.641836 0.212734 L 0.692734 0.22 L 0.721836 0.198164 L 0.750898 0.154531 L 0.801836 0.118164 L 0.867266 0.118164 L 0.889102 0.103633 L 0.910898 0.0745312 L 0.94 0.0454688 Z M 0.932734 0.634531 " transform="matrix(100,0,0,100,450,2750)"/>
<path style="fill:none;stroke-width:0.01;stroke-linecap:butt;stroke-linejoin:miter;stroke:rgb(0%,0%,0%);stroke-opacity:1;stroke-miterlimit:10;" d="M 0.932891 0.164492 L 0.954531 0.683984 L 0.803047 0.857148 L 0.716445 0.792227 L 0.738086 0.705625 L 0.564922 0.640703 L 0.478359 0.683984 L 0.391758 0.857148 L 0.370117 0.878789 L 0.326836 0.943711 L 0.218633 0.90043 L 0.218633 0.770547 L 0.240273 0.683984 L 0.175313 0.640703 L 0.132031 0.554102 L 0.132031 0.532461 L 0.08875 0.467539 L 0.0454688 0.402578 L 0.0671094 0.359297 L 0.132031 0.359297 L 0.153672 0.294375 L 0.132031 0.229453 L 0.196953 0.186133 L 0.240273 0.142852 L 0.283555 0.0779297 L 0.326836 0.0562891 L 0.370117 0.121211 L 0.456719 0.186133 L 0.5 0.207773 L 0.586563 0.229453 L 0.673164 0.164492 L 0.608242 0.0779297 L 0.759727 0.186133 L 0.846328 0.272734 Z M 0.932891 0.164492 " transform="matrix(100,0,0,100,600,2750)"/>
<path style="fill:none;stroke-width:0.01;stroke-linecap:butt;stroke-linejoin:miter;stroke:rgb(0%,0%,0%);stroke-opacity:1;stroke-miterlimit:10;" d="M 0.954531 0.417344 L 0.954531 0.35125 L 0.921484 0.235547 L 0.888437 0.219023 L 0.789258 0.185938 L 0.723125 0.136367 L 0.590898 0.169414 L 0.442148 0.152891 L 0.359492 0.136367 L 0.293398 0.10332 L 0.227266 0.169414 L 0.144609 0.152891 L 0.0785156 0.25207 L 0.0454688 0.285117 L 0.0454688 0.367773 L 0.111563 0.483477 L 0.227266 0.533047 L 0.326445 0.566133 L 0.309922 0.64875 L 0.458672 0.632227 L 0.557852 0.632227 L 0.458672 0.698359 L 0.326445 0.731406 L 0.524805 0.89668 L 0.590898 0.830586 L 0.756211 0.814063 L 0.838828 0.74793 L 0.871914 0.731406 L 0.954531 0.54957 Z M 0.954531 0.417344 " transform="matrix(100,0,0,100,0,2900)"/>
<path style="fill:none;stroke-width:0.01;stroke-linecap:butt;stroke-linejoin:miter;stroke:rgb(0%,0%,0%);stroke-opacity:1;stroke-miterlimit:10;" d="M 0.518945 0.0454688 L 0.670469 0.0833203 L 0.821953 0.234844 L 0.897734 0.424258 L 0.859844 0.613633 L 0.859844 0.803047 L 0.632578 0.954531 L 0.29168 0.954531 L 0.215898 0.91668 L 0.102266 0.727266 L 0.140156 0.462109 L 0.215898 0.272734 L 0.329531 0.121211 Z M 0.518945 0.0454688 " transform="matrix(100,0,0,100,150,2900)"/>
<path style="fill:none;stroke-width:0.01;stroke-linecap:butt;stroke-linejoin:miter;stroke:rgb(0%,0%,0%);stroke-opacity:1;stroke-miterlimit:10;" d="M 0.771133 0.954531 L 0.436211 0.938594 L 0.244805 0.874805 L 0.228867 0.779102 L 0.308594 0.747227 L 0.228867 0.699375 L 0.244805 0.603672 L 0.372422 0.603672 L 0.292656 0.507969 L 0.404297 0.507969 L 0.436211 0.460117 L 0.388359 0.412266 L 0.404297 0.252773 L 0.420273 0.252773 L 0.452148 0.188984 L 0.515938 0.125195 L 0.563789 0.188984 L 0.595703 0.0933203 L 0.707344 0.0933203 L 0.739219 0.0454688 L 0.771133 0.0614063 Z M 0.771133 0.954531 " transform="matrix(100,0,0,100,300,2900)"/>
<path style="fill:none;stroke-width:0.01;stroke-linecap:butt;stroke-linejoin:miter;stroke:rgb(0%,0%,0%);stroke-opacity:1;stroke-miterlimit:10;" d="M 0.777773 0.0454688 L 0.196953 0.0454688 L 0.196953 0.196953 L 0.348477 0.247461 L 0.398984 0.398984 L 0.5 0.424258 L 0.550508 0.525234 L 0.676758 0.727266 L 0.777773 0.904023 L 0.803047 0.954531 Z M 0.777773 0.0454688 " transform="matrix(100,0,0,100,450,2900)"/>
<path style="fill:none;stroke-width:0.01;stroke-linecap:butt;stroke-linejoin:miter;stroke:rgb(0%,0%,0%);stroke-opacity:1;stroke-miterlimit:10;" d="M 0.918164 0.936367 L 0.954531 0.172734 L 0.7 0.0636328 L 0.336367 0.281836 L 0.154531 0.536367 L 0.0454688 0.754531 L 0.0454688 0.936367 Z M 0.918164 0.936367 " transform="matrix(100,0,0,100,600,2900)"/>
<path style="fill:none;stroke-width:0.01;stroke-linecap:butt;stroke-linejoin:miter;stroke:rgb(0%,0%,0%);stroke-opacity:1;stroke-miterlimit:10;" d="M 0.878789 0.196953 L 0.651523 0.0454688 L 0.5 0.121211 L 0.272734 0.121211 L 0.196953 0.348477 L 0.121211 0.575742 L 0.196953 0.727266 L 0.272734 0.878789 L 0.424258 0.954531 L 0.727266 0.954531 L 0.878789 0.803047 L 0.878789 0.651523 Z M 0.878789 0.196953 " transform="matrix(100,0,0,100,0,3050)"/>
<path style="fill:none;stroke-width:0.01;stroke-linecap:butt;stroke-linejoin:miter;stroke:rgb(0%,0%,0%);stroke-opacity:1;stroke-miterlimit:10;" d="M 0.85625 0.757969 L 0.0700391 0.757969 L 0.0454687 0.610547 L 0.16832 0.389453 L 0.364883 0.291172 L 0.512266 0.242031 L 0.708828 0.266602 L 0.83168 0.340312 L 0.88082 0.487734 L 0.954531 0.733398 Z M 0.85625 0.757969 " transform="matrix(100,0,0,100,150,3050)"/>
<path style="fill:none;stroke-width:0.01;stroke-linecap:butt;stroke-linejoin:miter;stroke:rgb(0%,0%,0%);stroke-opacity:1;stroke-miterlimit:10;" d="M 0.712109 0.242422 L 0.954531 0.303047 L 0.954531 0.878789 L 0.742422 0.909102 L 0.742422 0.757578 L 0.712109 0.575742 L 0.560625 0.515156 L 0.409102 0.606055 L 0.257578 0.66668 L 0.136367 0.66668 L 0.0454687 0.606055 L 0.136367 0.545469 L 0.196953 0.484844 L 0.227266 0.272734 L 0.16668 0.212109 L 0.16668 0.151523 L 0.287891 0.151523 L 0.439375 0.0908984 L 0.681836 0.0908984 Z M 0.712109 0.242422 " transform="matrix(100,0,0,100,300,3050)"/>
<path style="fill:none;stroke-width:0.01;stroke-linecap:butt;stroke-linejoin:miter;stroke:rgb(0%,0%,0%);stroke-opacity:1;stroke-miterlimit:10;" d="M 0.579063 0.954531 L 0.460469 0.915039 L 0.381406 0.796445 L 0.341914 0.638359 L 0.381406 0.361641 L 0.420937 0.203555 L 0.5 0.0849609 L 0.579063 0.0454688 L 0.658086 0.124492 L 0.658086 0.559297 Z M 0.579063 0.954531 " transform="matrix(100,0,0,100,450,3050)"/>
<path style="fill:none;stroke-width:0.01;stroke-linecap:butt;stroke-linejoin:miter;stroke:rgb(0%,0%,0%);stroke-opacity:1;stroke-miterlimit:10;" d="M 0.657344 0.395117 L 0.727266 0.604883 L 0.727266 0.849648 L 0.657344 0.954531 L 0.412578 0.91957 L 0.272734 0.744766 L 0.272734 0.360156 L 0.412578 0.150352 L 0.447539 0.0454688 L 0.552461 0.0454688 L 0.692305 0.185313 L 0.727266 0.290195 Z M 0.657344 0.395117 " transform="matrix(100,0,0,100,600,3050)"/>
<path style="fill:none;stroke-width:0.01;stroke-linecap:butt;stroke-linejoin:miter;stroke:rgb(0%,0%,0%);stroke-opacity:1;stroke-miterlimit:10;" d="M 0.632578 0.196953 L 0.518945 0.121211 L 0.367422 0.159102 L 0.178047 0.272734 L 0.102266 0.348477 L 0.178047 0.5 L 0.140156 0.689375 L 0.329531 0.727266 L 0.367422 0.954531 L 0.670469 0.91668 L 0.859844 0.803047 L 0.821953 0.575742 L 0.897734 0.0833203 L 0.859844 0.0454687 Z M 0.632578 0.196953 " transform="matrix(100,0,0,100,0,3200)"/>
<path style="fill:none;stroke-width:0.01;stroke-linecap:butt;stroke-linejoin:miter;stroke:rgb(0%,0%,0%);stroke-opacity:1;stroke-miterlimit:10;" d="M 0.491016 0.0454687 L 0.581016 0.0544531 L 0.608008 0.117461 L 0.581016 0.144453 L 0.608008 0.198477 L 0.635 0.288477 L 0.59 0.315469 L 0.626016 0.423477 L 0.599023 0.5225 L 0.554023 0.6125 L 0.526992 0.729531 L 0.536016 0.819531 L 0.455 0.954531 L 0.400977 0.918555 L 0.365 0.837539 L 0.383008 0.621523 L 0.391992 0.504492 L 0.418984 0.450508 L 0.383008 0.4325 L 0.383008 0.369492 L 0.418984 0.3425 L 0.436992 0.153477 Z M 0.491016 0.0454687 " transform="matrix(100,0,0,100,150,3200)"/>
<path style="fill:none;stroke-width:0.01;stroke-linecap:butt;stroke-linejoin:miter;stroke:rgb(0%,0%,0%);stroke-opacity:1;stroke-miterlimit:10;" d="M 0.954531 0.317227 L 0.0454687 0.317227 L 0.0923047 0.364102 L 0.111055 0.373477 L 0.148555 0.401602 L 0.17668 0.448437 L 0.223516 0.420352 L 0.317227 0.495312 L 0.364102 0.392227 L 0.429727 0.476562 L 0.495313 0.448437 L 0.514063 0.514063 L 0.495313 0.570273 L 0.476562 0.635898 L 0.560938 0.682773 L 0.607773 0.635898 L 0.673398 0.654648 L 0.710859 0.617148 L 0.729609 0.626523 L 0.757734 0.654648 L 0.82332 0.626523 L 0.86082 0.673398 L 0.926445 0.645273 L 0.954531 0.682773 Z M 0.954531 0.317227 " transform="matrix(100,0,0,100,300,3200)"/>
<path style="fill:none;stroke-width:0.01;stroke-linecap:butt;stroke-linejoin:miter;stroke:rgb(0%,0%,0%);stroke-opacity:1;stroke-miterlimit:10;" d="M 0.651523 0.0454687 L 0.671719 0.328281 L 0.671719 0.388906 L 0.691914 0.590898 L 0.712109 0.732305 L 0.712109 0.893945 L 0.631328 0.954531 L 0.550508 0.954531 L 0.449492 0.83332 L 0.409102 0.732305 L 0.368672 0.631328 L 0.308086 0.590898 L 0.287891 0.510117 L 0.348477 0.449492 L 0.328281 0.368672 L 0.328281 0.16668 L 0.388906 0.106055 L 0.510117 0.0656641 Z M 0.651523 0.0454687 " transform="matrix(100,0,0,100,450,3200)"/>
<path style="fill:none;stroke-width:0.01;stroke-linecap:butt;stroke-linejoin:miter;stroke:rgb(0%,0%,0%);stroke-opacity:1;stroke-miterlimit:10;" d="M 0.67625 0.0825781 L 0.546367 0.0454687 L 0.360859 0.0454687 L 0.230977 0.101094 L 0.212422 0.193867 L 0.156758 0.435078 L 0.138203 0.583477 L 0.175313 0.694805 L 0.193867 0.824688 L 0.249531 0.880352 L 0.435078 0.917422 L 0.583477 0.954531 L 0.67625 0.898906 L 0.694805 0.806133 L 0.769023 0.639141 L 0.861797 0.602031 L 0.824688 0.156758 Z M 0.67625 0.0825781 " transform="matrix(100,0,0,100,600,3200)"/>
<path style="fill:none;stroke-width:0.01;stroke-linecap:butt;stroke-linejoin:miter;stroke:rgb(0%,0%,0%);stroke-opacity:1;stroke-miterlimit:10;" d="M 0.475547 0.636836 L 0.19207 0.587969 L 0.172539 0.646641 L 0.182305 0.715039 L 0.104102 0.724844 L 0.0454688 0.86168 L 0.104102 0.910547 L 0.827461 0.900781 L 0.817695 0.783477 L 0.895898 0.705273 L 0.954531 0.412031 L 0.856797 0.304492 L 0.749258 0.0894531 L 0.651523 0.255625 L 0.661289 0.441367 L 0.661289 0.636836 L 0.55375 0.636836 Z M 0.475547 0.636836 " transform="matrix(100,0,0,100,0,3350)"/>
<path style="fill:none;stroke-width:0.01;stroke-linecap:butt;stroke-linejoin:miter;stroke:rgb(0%,0%,0%);stroke-opacity:1;stroke-miterlimit:10;" d="M 0.594688 0.121211 L 0.481055 0.0833203 L 0.329531 0.121211 L 0.29168 0.234844 L 0.29168 0.5 L 0.253789 0.575742 L 0.178047 0.651523 L 0.29168 0.765156 L 0.367422 0.878789 L 0.481055 0.954531 L 0.70832 0.878789 L 0.821953 0.765156 L 0.784102 0.537891 L 0.784102 0.386367 L 0.746211 0.272734 L 0.70832 0.121211 L 0.594688 0.0454687 Z M 0.594688 0.121211 " transform="matrix(100,0,0,100,150,3350)"/>
<path style="fill:none;stroke-width:0.01;stroke-linecap:butt;stroke-linejoin:miter;stroke:rgb(0%,0%,0%);stroke-opacity:1;stroke-miterlimit:10;" d="M 0.954531 0.890391 L 0.0454687 0.901055 L 0.0454687 0.783437 L 0.0668359 0.623008 L 0.0775391 0.516055 L 0.141719 0.430469 L 0.227266 0.376992 L 0.312852 0.355625 L 0.441172 0.334219 L 0.537422 0.291445 L 0.590898 0.237969 L 0.601602 0.216563 L 0.590898 0.184492 L 0.676484 0.184492 L 0.729961 0.173789 L 0.762031 0.131016 L 0.815508 0.0989453 L 0.868984 0.131016 L 0.922461 0.216563 L 0.954531 0.312852 Z M 0.954531 0.890391 " transform="matrix(100,0,0,100,300,3350)"/>
<path style="fill:none;stroke-width:0.01;stroke-linecap:butt;stroke-linejoin:miter;stroke:rgb(0%,0%,0%);stroke-opacity:1;stroke-miterlimit:10;" d="M 0.465039 0.127031 L 0.0454688 0.0804297 L 0.0454688 0.91957 L 0.255234 0.896289 L 0.301875 0.779727 L 0.511641 0.756406 L 0.534961 0.5 L 0.674844 0.5 L 0.698125 0.243594 L 0.90793 0.243594 L 0.954531 0.0804297 Z M 0.465039 0.127031 " transform="matrix(100,0,0,100,450,3350)"/>
<path style="fill:none;stroke-width:0.01;stroke-linecap:butt;stroke-linejoin:miter;stroke:rgb(0%,0%,0%);stroke-opacity:1;stroke-miterlimit:10;" d="M 0.927812 0.780742 L 0.5 0.112305 L 0.312852 0.299453 L 0.419805 0.459883 L 0.33957 0.593594 L 0.0721875 0.406406 L 0.0454688 0.433164 L 0.259375 0.727266 L 0.179141 0.834219 L 0.954531 0.887695 Z M 0.927812 0.780742 " transform="matrix(100,0,0,100,600,3350)"/>
<path style="fill:none;stroke-width:0.01;stroke-linecap:butt;stroke-linejoin:miter;stroke:rgb(0%,0%,0%);stroke-opacity:1;stroke-miterlimit:10;" d="M 0.744766 0.884609 L 0.674844 0.856641 L 0.604883 0.884609 L 0.548945 0.912578 L 0.451055 0.954531 L 0.479023 0.856641 L 0.353164 0.856641 L 0.283203 0.814687 L 0.283203 0.730781 L 0.255234 0.534961 L 0.33918 0.604883 L 0.33918 0.576914 L 0.311172 0.506992 L 0.353164 0.479023 L 0.311172 0.451055 L 0.353164 0.381133 L 0.269219 0.395117 L 0.353164 0.353164 L 0.269219 0.311172 L 0.395117 0.24125 L 0.506992 0.283203 L 0.520977 0.199297 L 0.409102 0.199297 L 0.506992 0.213281 L 0.56293 0.171328 L 0.43707 0.0594531 L 0.56293 0.199297 L 0.590898 0.185313 L 0.520977 0.0454687 L 0.604883 0.129375 L 0.688828 0.129375 L 0.576914 0.213281 L 0.576914 0.269219 L 0.716797 0.255234 L 0.730781 0.33918 L 0.730781 0.506992 Z M 0.744766 0.884609 " transform="matrix(100,0,0,100,0,3500)"/>
<path style="fill:none;stroke-width:0.01;stroke-linecap:butt;stroke-linejoin:miter;stroke:rgb(0%,0%,0%);stroke-opacity:1;stroke-miterlimit:10;" d="M 0.929297 0.828281 L 0.0454687 0.828281 L 0.0454687 0.727266 L 0.121211 0.702031 L 0.171719 0.525234 L 0.247461 0.5 L 0.297969 0.398984 L 0.348477 0.323242 L 0.424258 0.247461 L 0.474766 0.272734 L 0.575742 0.247461 L 0.550508 0.171719 L 0.575742 0.297969 L 0.676758 0.348477 L 0.954531 0.424258 Z M 0.929297 0.828281 " transform="matrix(100,0,0,100,150,3500)"/>
<path style="fill:none;stroke-width:0.01;stroke-linecap:butt;stroke-linejoin:miter;stroke:rgb(0%,0%,0%);stroke-opacity:1;stroke-miterlimit:10;" d="M 0.66043 0.66043 L 0.553477 0.66043 L 0.580195 0.553477 L 0.446523 0.446523 L 0.286094 0.366328 L 0.179141 0.393047 L 0.0454687 0.366328 L 0.0721875 0.205898 L 0.954531 0.232617 L 0.954531 0.740625 L 0.874336 0.794102 L 0.767383 0.740625 Z M 0.66043 0.66043 " transform="matrix(100,0,0,100,300,3500)"/>
<path style="fill:none;stroke-width:0.01;stroke-linecap:butt;stroke-linejoin:miter;stroke:rgb(0%,0%,0%);stroke-opacity:1;stroke-miterlimit:10;" d="M 0.551445 0.199844 L 0.620078 0.954531 L 0.551445 0.920234 L 0.465703 0.851641 L 0.379922 0.834492 L 0.379922 0.783008 L 0.448555 0.783008 L 0.517148 0.680117 L 0.448555 0.508594 L 0.5 0.422812 L 0.448555 0.337031 L 0.482852 0.251289 L 0.465703 0.148359 L 0.431406 0.0454687 L 0.5 0.0626172 L 0.551445 0.0797656 Z M 0.551445 0.199844 " transform="matrix(100,0,0,100,450,3500)"/>
<path style="fill:none;stroke-width:0.01;stroke-linecap:butt;stroke-linejoin:miter;stroke:rgb(0%,0%,0%);stroke-opacity:1;stroke-miterlimit:10;" d="M 0.738086 0.435078 L 0.564922 0.391758 L 0.478359 0.0454687 L 0.435078 0.218633 L 0.305195 0.218633 L 0.435078 0.348477 L 0.261914 0.348477 L 0.348477 0.478359 L 0.132031 0.391758 L 0.0454688 0.521641 L 0.132031 0.608242 L 0.348477 0.694805 L 0.478359 0.651523 L 0.391758 0.824688 L 0.478359 0.954531 L 0.564922 0.824688 L 0.564922 0.954531 L 0.694805 0.781367 L 0.781367 0.608242 L 0.91125 0.608242 L 0.954531 0.435078 Z M 0.738086 0.435078 " transform="matrix(100,0,0,100,600,3500)"/>
<path style="fill:none;stroke-width:0.01;stroke-linecap:butt;stroke-linejoin:miter;stroke:rgb(0%,0%,0%);stroke-opacity:1;stroke-miterlimit:10;" d="M 0.837773 0.420781 L 0.687656 0.420781 L 0.620938 0.429102 L 0.5125 0.445781 L 0.429102 0.445781 L 0.329023 0.437461 L 0.228945 0.437461 L 0.203906 0.4875 L 0.0955078 0.50418 L 0.0454688 0.50418 L 0.137187 0.520859 L 0.228945 0.52918 L 0.278984 0.562539 L 0.387422 0.545859 L 0.50418 0.554219 L 0.595898 0.562539 L 0.696016 0.570898 L 0.771055 0.587578 L 0.887813 0.587578 L 0.904492 0.579219 L 0.929531 0.562539 L 0.946211 0.545859 L 0.954531 0.520859 L 0.929531 0.4875 L 0.921172 0.47082 L 0.887813 0.445781 L 0.887813 0.412422 Z M 0.837773 0.420781 " transform="matrix(100,0,0,100,0,3650)"/>
<path style="fill:none;stroke-width:0.01;stroke-linecap:butt;stroke-linejoin:miter;stroke:rgb(0%,0%,0%);stroke-opacity:1;stroke-miterlimit:10;" d="M 0.707773 0.954531 L 0.785703 0.694805 L 0.785703 0.590898 L 0.81168 0.461055 L 0.941562 0.227266 L 0.837656 0.0454687 L 0.655859 0.0974219 L 0.396094 0.0974219 L 0.240273 0.201289 L 0.110391 0.201289 L 0.110391 0.149336 L 0.162344 0.0974219 L 0.110391 0.123359 L 0.240273 0.175313 L 0.26625 0.201289 L 0.318164 0.279219 L 0.18832 0.357148 L 0.0584375 0.357148 L 0.214297 0.383125 L 0.26625 0.357148 L 0.292227 0.331172 L 0.18832 0.409102 L 0.162344 0.409102 L 0.136367 0.461055 L 0.0844141 0.487031 L 0.136367 0.590898 L 0.344141 0.590898 L 0.292227 0.694805 L 0.240273 0.720781 L 0.474023 0.746758 L 0.629883 0.850664 Z M 0.707773 0.954531 " transform="matrix(100,0,0,100,150,3650)"/>
<path style="fill:none;stroke-width:0.01;stroke-linecap:butt;stroke-linejoin:miter;stroke:rgb(0%,0%,0%);stroke-opacity:1;stroke-miterlimit:10;" d="M 0.744766 0.884609 L 0.779727 0.779727 L 0.814688 0.709805 L 0.814688 0.220273 L 0.779727 0.185313 L 0.569922 0.0454687 L 0.360156 0.115391 L 0.5 0.0804297 L 0.604883 0.185313 L 0.604883 0.255234 L 0.465039 0.325156 L 0.325156 0.395117 L 0.255234 0.5 L 0.5 0.534961 L 0.255234 0.569922 L 0.220273 0.604883 L 0.395117 0.639844 L 0.255234 0.779727 L 0.185313 0.91957 L 0.465039 0.954531 L 0.604883 0.91957 Z M 0.744766 0.884609 " transform="matrix(100,0,0,100,300,3650)"/>
<path style="fill:none;stroke-width:0.01;stroke-linecap:butt;stroke-linejoin:miter;stroke:rgb(0%,0%,0%);stroke-opacity:1;stroke-miterlimit:10;" d="M 0.0791406 0.398984 L 0.0454688 0.5 L 0.247461 0.466328 L 0.314805 0.466328 L 0.213789 0.601016 L 0.146445 0.634687 L 0.41582 0.634687 L 0.550508 0.601016 L 0.786211 0.803047 L 0.920859 0.836719 L 0.954531 0.769375 L 0.920859 0.601016 L 0.920859 0.365313 L 0.887188 0.230625 L 0.819883 0.163281 L 0.449492 0.163281 L 0.382148 0.230625 L 0.516836 0.331641 L 0.348477 0.297969 L 0.281133 0.230625 L 0.180117 0.264297 L 0.41582 0.331641 L 0.382148 0.365313 Z M 0.0791406 0.398984 " transform="matrix(100,0,0,100,450,3650)"/>
<path style="fill:none;stroke-width:0.01;stroke-linecap:butt;stroke-linejoin:miter;stroke:rgb(0%,0%,0%);stroke-opacity:1;stroke-miterlimit:10;" d="M 0.284688 0.344492 L 0.404297 0.224883 L 0.523906 0.392344 L 0.571758 0.488047 L 0.739219 0.488047 L 0.858867 0.41625 L 0.882773 0.368437 L 0.954531 0.535898 L 0.858867 0.607656 L 0.739219 0.703359 L 0.595703 0.775117 L 0.5 0.775117 L 0.476094 0.703359 L 0.452148 0.58375 L 0.380391 0.655508 L 0.284688 0.679414 L 0.117227 0.631563 L 0.0454688 0.535898 L 0.188984 0.559805 L 0.284688 0.559805 L 0.356445 0.535898 L 0.404297 0.511953 L 0.547852 0.559805 L 0.476094 0.535898 L 0.404297 0.511953 L 0.380391 0.464102 Z M 0.284688 0.344492 " transform="matrix(100,0,0,100,600,3650)"/>
<path style="fill:none;stroke-width:0.01;stroke-linecap:butt;stroke-linejoin:miter;stroke:rgb(0%,0%,0%);stroke-opacity:1;stroke-miterlimit:10;" d="M 0.0454688 0.196953 L 0.287891 0.5 L 0.651523 0.560625 L 0.83332 0.560625 L 0.893945 0.196953 L 0.954531 0.560625 L 0.83332 0.742422 L 0.651523 0.803047 L 0.530312 0.560625 L 0.469688 0.5 L 0.469688 0.257578 Z M 0.0454688 0.196953 " transform="matrix(100,0,0,100,0,3800)"/>
<path style="fill:none;stroke-width:0.01;stroke-linecap:butt;stroke-linejoin:miter;stroke:rgb(0%,0%,0%);stroke-opacity:1;stroke-miterlimit:10;" d="M 0.607656 0.0454687 L 0.392344 0.0933203 L 0.368437 0.117227 L 0.344492 0.284688 L 0.344492 0.571758 L 0.392344 0.858867 L 0.368437 0.954531 L 0.559805 0.882773 L 0.655508 0.78707 L 0.655508 0.404297 Z M 0.607656 0.0454687 " transform="matrix(100,0,0,100,150,3800)"/>
<path style="fill:none;stroke-width:0.01;stroke-linecap:butt;stroke-linejoin:miter;stroke:rgb(0%,0%,0%);stroke-opacity:1;stroke-miterlimit:10;" d="M 0.79957 0.809922 L 0.820234 0.727266 L 0.79957 0.60332 L 0.737617 0.438008 L 0.778906 0.334727 L 0.758281 0.231406 L 0.716953 0.14875 L 0.551641 0.128086 L 0.489688 0.14875 L 0.345039 0.0867578 L 0.262383 0.0454687 L 0.262383 0.0867578 L 0.303711 0.128086 L 0.407031 0.190078 L 0.469023 0.272734 L 0.386367 0.293398 L 0.283047 0.314062 L 0.241719 0.314062 L 0.179766 0.39668 L 0.221094 0.417344 L 0.303711 0.438008 L 0.386367 0.39668 L 0.469023 0.39668 L 0.489688 0.438008 L 0.510312 0.561992 L 0.469023 0.685938 L 0.365703 0.768594 L 0.365703 0.871914 L 0.448359 0.830586 L 0.551641 0.789258 L 0.613633 0.871914 L 0.696289 0.954531 L 0.758281 0.954531 Z M 0.79957 0.809922 " transform="matrix(100,0,0,100,300,3800)"/>
<path style="fill:none;stroke-width:0.01;stroke-linecap:butt;stroke-linejoin:miter;stroke:rgb(0%,0%,0%);stroke-opacity:1;stroke-miterlimit:10;" d="M 0.162773 0.514648 L 0.206758 0.587969 L 0.221406 0.602656 L 0.250742 0.631953 L 0.353359 0.675938 L 0.441367 0.690625 L 0.543984 0.734609 L 0.646641 0.734609 L 0.675937 0.661289 L 0.705273 0.57332 L 0.749258 0.529336 L 0.793242 0.412031 L 0.822578 0.338711 L 0.690625 0.265391 L 0.719922 0.280078 L 0.80793 0.324063 L 0.939883 0.368047 L 0.954531 0.338711 L 0.910547 0.309375 L 0.822578 0.353359 L 0.763945 0.280078 L 0.675937 0.280078 L 0.617305 0.338711 L 0.587969 0.412031 L 0.5 0.456016 L 0.42668 0.470664 L 0.42668 0.441367 L 0.353359 0.353359 L 0.265391 0.309375 L 0.177422 0.324063 L 0.11875 0.368047 L 0.221406 0.368047 L 0.221406 0.397344 L 0.148086 0.42668 L 0.0454688 0.470664 L 0.0601172 0.485352 Z M 0.162773 0.514648 " transform="matrix(100,0,0,100,450,3800)"/>
<path style="fill:none;stroke-width:0.01;stroke-linecap:butt;stroke-linejoin:miter;stroke:rgb(0%,0%,0%);stroke-opacity:1;stroke-miterlimit:10;" d="M 0.0908984 0.534102 L 0.0454688 0.602266 L 0.0681641 0.784102 L 0.113633 0.875 L 0.227266 0.920469 L 0.409102 0.761367 L 0.454531 0.738633 L 0.636367 0.693164 L 0.772734 0.670469 L 0.886367 0.511367 L 0.954531 0.397734 L 0.886367 0.261367 L 0.840898 0.193164 L 0.863633 0.125 L 0.840898 0.0795313 L 0.659102 0.147734 L 0.545469 0.284102 L 0.409102 0.352266 L 0.636367 0.375 L 0.772734 0.329531 L 0.840898 0.306836 L 0.863633 0.306836 L 0.818164 0.443164 L 0.795469 0.556836 L 0.704531 0.647734 L 0.545469 0.579531 L 0.409102 0.488633 L 0.409102 0.420469 L 0.295469 0.397734 L 0.340898 0.625 L 0.204531 0.534102 L 0.136367 0.443164 Z M 0.0908984 0.534102 " transform="matrix(100,0,0,100,600,3800)"/>
<path style="fill:none;stroke-width:0.01;stroke-linecap:butt;stroke-linejoin:miter;stroke:rgb(0%,0%,0%);stroke-opacity:1;stroke-miterlimit:10;" d="M 0.554258 0.52375 L 0.5 0.530547 L 0.466094 0.537305 L 0.425391 0.52375 L 0.384648 0.516953 L 0.357539 0.564453 L 0.357539 0.584805 L 0.364297 0.537305 L 0.296484 0.516953 L 0.276133 0.557656 L 0.262539 0.598359 L 0.248984 0.639063 L 0.23543 0.584805 L 0.18793 0.537305 L 0.113281 0.537305 L 0.079375 0.550898 L 0.0454688 0.52375 L 0.0522266 0.489805 L 0.120078 0.469453 L 0.567852 0.469453 L 0.696758 0.47625 L 0.730664 0.408398 L 0.76457 0.388047 L 0.784922 0.381289 L 0.81207 0.401641 L 0.839219 0.401641 L 0.873125 0.381289 L 0.940977 0.360937 L 0.954531 0.388047 L 0.920625 0.415195 L 0.873125 0.442344 L 0.839219 0.47625 L 0.784922 0.47625 L 0.757812 0.455898 L 0.717109 0.462695 L 0.696758 0.47625 L 0.703516 0.503398 L 0.656055 0.496602 L 0.615352 0.503398 Z M 0.554258 0.52375 " transform="matrix(100,0,0,100,0,3950)"/>
<path style="fill:none;stroke-width:0.01;stroke-linecap:butt;stroke-linejoin:miter;stroke:rgb(0%,0%,0%);stroke-opacity:1;stroke-miterlimit:10;" d="M 0.34625 0.406406 L 0.266055 0.406406 L 0.239297 0.473281 L 0.266055 0.553477 L 0.266055 0.580195 L 0.319531 0.633672 L 0.359609 0.700547 L 0.279414 0.713906 L 0.212578 0.767383 L 0.225938 0.8075 L 0.306133 0.767383 L 0.359609 0.754023 L 0.426484 0.860977 L 0.386367 0.941172 L 0.439844 0.927813 L 0.466562 0.927813 L 0.520039 0.914453 L 0.586914 0.954531 L 0.640391 0.860977 L 0.680469 0.860977 L 0.760703 0.820859 L 0.787422 0.740625 L 0.787422 0.580195 L 0.733945 0.540117 L 0.65375 0.473281 L 0.613633 0.379688 L 0.479961 0.35293 L 0.426484 0.35293 L 0.413086 0.259375 L 0.426484 0.139023 L 0.439844 0.0454687 L 0.413086 0.1925 L 0.399727 0.272734 L 0.413086 0.393047 L 0.453203 0.419805 L 0.466562 0.446523 L 0.359609 0.459883 Z M 0.34625 0.406406 " transform="matrix(100,0,0,100,150,3950)"/>
<path style="fill:none;stroke-width:0.01;stroke-linecap:butt;stroke-linejoin:miter;stroke:rgb(0%,0%,0%);stroke-opacity:1;stroke-miterlimit:10;" d="M 0.371797 0.406758 L 0.325156 0.430078 L 0.255234 0.47668 L 0.208633 0.52332 L 0.138711 0.593242 L 0.0454687 0.663164 L 0.791367 0.663164 L 0.93125 0.686484 L 0.954531 0.593242 L 0.954531 0.47668 L 0.768047 0.406758 L 0.674844 0.383437 L 0.581602 0.336836 L 0.558281 0.313516 L 0.465039 0.313516 L 0.581602 0.430078 Z M 0.371797 0.406758 " transform="matrix(100,0,0,100,300,3950)"/>
<path style="fill:none;stroke-width:0.01;stroke-linecap:butt;stroke-linejoin:miter;stroke:rgb(0%,0%,0%);stroke-opacity:1;stroke-miterlimit:10;" d="M 0.55625 0.579648 L 0.546875 0.542188 L 0.55625 0.514063 L 0.528125 0.429727 L 0.425039 0.429727 L 0.378164 0.410977 L 0.340664 0.476562 L 0.350039 0.448438 L 0.378164 0.439062 L 0.434414 0.420352 L 0.453125 0.410977 L 0.490625 0.392227 L 0.5375 0.373477 L 0.603086 0.335977 L 0.593711 0.289141 L 0.649961 0.242266 L 0.649961 0.17668 L 0.640586 0.111055 L 0.659336 0.0454687 L 0.649961 0.167305 L 0.649961 0.279766 L 0.640586 0.954531 L 0.621836 0.954531 L 0.574961 0.945156 L 0.528125 0.926445 L 0.5 0.907695 L 0.509375 0.851445 L 0.565586 0.832695 L 0.5 0.813945 L 0.4625 0.851445 L 0.425039 0.84207 L 0.387539 0.82332 L 0.490625 0.776484 L 0.44375 0.738984 L 0.434414 0.748359 L 0.406289 0.748359 L 0.396914 0.710859 L 0.396914 0.654648 L 0.406289 0.589023 L 0.434414 0.664023 L 0.471875 0.692109 L 0.51875 0.710859 L 0.528125 0.682773 L 0.5375 0.635898 L 0.5 0.598398 L 0.490625 0.551563 L 0.48125 0.560938 L 0.509375 0.579648 Z M 0.55625 0.579648 " transform="matrix(100,0,0,100,450,3950)"/>
<path style="fill:none;stroke-width:0.01;stroke-linecap:butt;stroke-linejoin:miter;stroke:rgb(0%,0%,0%);stroke-opacity:1;stroke-miterlimit:10;" d="M 0.121211 0.263242 L 0.0454688 0.149609 L 0.0833203 0.0928125 L 0.935625 0.149609 L 0.954531 0.888242 L 0.215898 0.907187 L 0.234844 0.850391 L 0.803047 0.774609 L 0.935625 0.736758 L 0.91668 0.585234 L 0.897734 0.528398 L 0.594688 0.471602 L 0.29168 0.414766 L 0.178047 0.39582 L 0.215898 0.339023 Z M 0.121211 0.263242 " transform="matrix(100,0,0,100,600,3950)"/>
</g>
</svg>
