<?xml version="1.0" encoding="UTF-8"?>
<svg xmlns="http://www.w3.org/2000/svg" xmlns:xlink="http://www.w3.org/1999/xlink" width="750pt" height="21200pt" viewBox="0 0 750 21200" version="1.1">
<g id="surface1">
<path style="fill:none;stroke-width:0.01;stroke-linecap:butt;stroke-linejoin:miter;stroke:rgb(0%,0%,0%);stroke-opacity:1;stroke-miterlimit:10;" d="M 0.0454688 0.467305 L 0.954531 0.493477 L 0.954531 0.532695 L 0.0454688 0.493477 Z M 0.0454688 0.467305 " transform="matrix(100,0,0,100,0,200)"/>
<path style="fill:none;stroke-width:0.01;stroke-linecap:butt;stroke-linejoin:miter;stroke:rgb(0%,0%,0%);stroke-opacity:1;stroke-miterlimit:10;" d="M 0.0943359 0.44625 L 0.954531 0.514648 L 0.944766 0.55375 L 0.0454687 0.465781 L 0.0552344 0.44625 Z M 0.0943359 0.44625 " transform="matrix(100,0,0,100,150,200)"/>
<path style="fill:none;stroke-width:0.01;stroke-linecap:butt;stroke-linejoin:miter;stroke:rgb(0%,0%,0%);stroke-opacity:1;stroke-miterlimit:10;" d="M 0.114336 0.506875 L 0.954531 0.479336 L 0.0454687 0.520664 Z M 0.114336 0.506875 " transform="matrix(100,0,0,100,300,200)"/>
<path style="fill:none;stroke-width:0.01;stroke-linecap:butt;stroke-linejoin:miter;stroke:rgb(0%,0%,0%);stroke-opacity:1;stroke-miterlimit:10;" d="M 0.954531 0.514922 L 0.134883 0.485078 L 0.0454688 0.485078 Z M 0.954531 0.514922 " transform="matrix(100,0,0,100,450,200)"/>
<path style="fill:none;stroke-width:0.01;stroke-linecap:butt;stroke-linejoin:miter;stroke:rgb(0%,0%,0%);stroke-opacity:1;stroke-miterlimit:10;" d="M 0.954531 0.497383 L 0.0454688 0.476484 L 0.0454688 0.486953 L 0.954531 0.523516 Z M 0.954531 0.497383 " transform="matrix(100,0,0,100,600,200)"/>
<path style="fill:none;stroke-width:0.01;stroke-linecap:butt;stroke-linejoin:miter;stroke:rgb(0%,0%,0%);stroke-opacity:1;stroke-miterlimit:10;" d="M 0.954531 0.5 L 0.0454688 0.474141 L 0.0454688 0.48707 L 0.950234 0.525859 Z M 0.954531 0.5 " transform="matrix(100,0,0,100,0,350)"/>
<path style="fill:none;stroke-width:0.01;stroke-linecap:butt;stroke-linejoin:miter;stroke:rgb(0%,0%,0%);stroke-opacity:1;stroke-miterlimit:10;" d="M 0.950156 0.495625 L 0.0454687 0.486875 L 0.0498437 0.495625 L 0.954531 0.513125 Z M 0.950156 0.495625 " transform="matrix(100,0,0,100,150,350)"/>
<path style="fill:none;stroke-width:0.01;stroke-linecap:butt;stroke-linejoin:miter;stroke:rgb(0%,0%,0%);stroke-opacity:1;stroke-miterlimit:10;" d="M 0.954531 0.488867 L 0.0454687 0.497773 L 0.0499219 0.50668 L 0.954531 0.511133 Z M 0.954531 0.488867 " transform="matrix(100,0,0,100,300,350)"/>
<path style="fill:none;stroke-width:0.01;stroke-linecap:butt;stroke-linejoin:miter;stroke:rgb(0%,0%,0%);stroke-opacity:1;stroke-miterlimit:10;" d="M 0.143359 0.493008 L 0.954531 0.493008 L 0.0454688 0.506992 Z M 0.143359 0.493008 " transform="matrix(100,0,0,100,450,350)"/>
<path style="fill:none;stroke-width:0.01;stroke-linecap:butt;stroke-linejoin:miter;stroke:rgb(0%,0%,0%);stroke-opacity:1;stroke-miterlimit:10;" d="M 0.665273 0.5 L 0.954531 0.5 L 0.0454688 0.5 Z M 0.665273 0.5 " transform="matrix(100,0,0,100,600,350)"/>
<path style="fill:none;stroke-width:0.01;stroke-linecap:butt;stroke-linejoin:miter;stroke:rgb(0%,0%,0%);stroke-opacity:1;stroke-miterlimit:10;" d="M 0.755664 0.507109 L 0.0454688 0.492891 L 0.954531 0.507109 Z M 0.755664 0.507109 " transform="matrix(100,0,0,100,0,500)"/>
<path style="fill:none;stroke-width:0.01;stroke-linecap:butt;stroke-linejoin:miter;stroke:rgb(0%,0%,0%);stroke-opacity:1;stroke-miterlimit:10;" d="M 0.954531 0.469023 L 0.0454687 0.448359 L 0.0454687 0.530977 L 0.954531 0.551641 Z M 0.954531 0.469023 " transform="matrix(100,0,0,100,150,500)"/>
<path style="fill:none;stroke-width:0.01;stroke-linecap:butt;stroke-linejoin:miter;stroke:rgb(0%,0%,0%);stroke-opacity:1;stroke-miterlimit:10;" d="M 0.954531 0.445898 L 0.0454687 0.445898 L 0.0454687 0.554102 L 0.954531 0.554102 Z M 0.954531 0.445898 " transform="matrix(100,0,0,100,300,500)"/>
<path style="fill:none;stroke-width:0.01;stroke-linecap:butt;stroke-linejoin:miter;stroke:rgb(0%,0%,0%);stroke-opacity:1;stroke-miterlimit:10;" d="M 0.954531 0.487891 L 0.0454688 0.487891 L 0.0454688 0.512109 Z M 0.954531 0.487891 " transform="matrix(100,0,0,100,450,500)"/>
<path style="fill:none;stroke-width:0.01;stroke-linecap:butt;stroke-linejoin:miter;stroke:rgb(0%,0%,0%);stroke-opacity:1;stroke-miterlimit:10;" d="M 0.954531 0.5 L 0.0454688 0.486836 L 0.0454688 0.513164 Z M 0.954531 0.5 " transform="matrix(100,0,0,100,600,500)"/>
<path style="fill:none;stroke-width:0.01;stroke-linecap:butt;stroke-linejoin:miter;stroke:rgb(0%,0%,0%);stroke-opacity:1;stroke-miterlimit:10;" d="M 0.954531 0.524961 L 0.0454688 0.521406 L 0.0454688 0.482188 L 0.690742 0.475039 L 0.694297 0.489297 L 0.954531 0.492852 Z M 0.954531 0.524961 " transform="matrix(100,0,0,100,0,650)"/>
<path style="fill:none;stroke-width:0.01;stroke-linecap:butt;stroke-linejoin:miter;stroke:rgb(0%,0%,0%);stroke-opacity:1;stroke-miterlimit:10;" d="M 0.954531 0.443867 L 0.56418 0.454531 L 0.558828 0.513359 L 0.0454687 0.524063 L 0.0454687 0.529414 L 0.553477 0.534766 L 0.569531 0.55082 L 0.954531 0.556133 Z M 0.954531 0.443867 " transform="matrix(100,0,0,100,150,650)"/>
<path style="fill:none;stroke-width:0.01;stroke-linecap:butt;stroke-linejoin:miter;stroke:rgb(0%,0%,0%);stroke-opacity:1;stroke-miterlimit:10;" d="M 0.862031 0.498008 L 0.0776172 0.46582 L 0.0454687 0.461797 L 0.890195 0.514063 L 0.902266 0.53418 L 0.934414 0.538203 L 0.946484 0.538203 L 0.954531 0.510039 L 0.942461 0.493984 Z M 0.862031 0.498008 " transform="matrix(100,0,0,100,300,650)"/>
<path style="fill:none;stroke-width:0.01;stroke-linecap:butt;stroke-linejoin:miter;stroke:rgb(0%,0%,0%);stroke-opacity:1;stroke-miterlimit:10;" d="M 0.256797 0.511953 L 0.882773 0.496016 L 0.914688 0.492031 L 0.926641 0.480078 L 0.950547 0.480078 L 0.954531 0.5 L 0.954531 0.515937 L 0.922656 0.519922 L 0.914688 0.507969 L 0.0454688 0.519922 Z M 0.256797 0.511953 " transform="matrix(100,0,0,100,450,650)"/>
<path style="fill:none;stroke-width:0.01;stroke-linecap:butt;stroke-linejoin:miter;stroke:rgb(0%,0%,0%);stroke-opacity:1;stroke-miterlimit:10;" d="M 0.0454688 0.533008 L 0.947227 0.445 L 0.954531 0.466992 L 0.624648 0.503672 L 0.360703 0.533008 L 0.0527734 0.555 Z M 0.0454688 0.533008 " transform="matrix(100,0,0,100,600,650)"/>
<path style="fill:none;stroke-width:0.01;stroke-linecap:butt;stroke-linejoin:miter;stroke:rgb(0%,0%,0%);stroke-opacity:1;stroke-miterlimit:10;" d="M 0.924844 0.490742 L 0.0454688 0.490742 L 0.0454688 0.51668 L 0.954531 0.512969 L 0.954531 0.48332 Z M 0.924844 0.490742 " transform="matrix(100,0,0,100,0,800)"/>
<path style="fill:none;stroke-width:0.01;stroke-linecap:butt;stroke-linejoin:miter;stroke:rgb(0%,0%,0%);stroke-opacity:1;stroke-miterlimit:10;" d="M 0.0454687 0.606055 L 0.954531 0.545469 L 0.954531 0.393945 L 0.0757422 0.454531 Z M 0.0454687 0.606055 " transform="matrix(100,0,0,100,150,800)"/>
<path style="fill:none;stroke-width:0.01;stroke-linecap:butt;stroke-linejoin:miter;stroke:rgb(0%,0%,0%);stroke-opacity:1;stroke-miterlimit:10;" d="M 0.0454687 0.437305 L 0.0454687 0.594062 L 0.954531 0.531367 L 0.923203 0.405938 Z M 0.0454687 0.437305 " transform="matrix(100,0,0,100,300,800)"/>
<path style="fill:none;stroke-width:0.01;stroke-linecap:butt;stroke-linejoin:miter;stroke:rgb(0%,0%,0%);stroke-opacity:1;stroke-miterlimit:10;" d="M 0.954531 0.427266 L 0.0454688 0.427266 L 0.0454688 0.572734 L 0.954531 0.572734 Z M 0.954531 0.427266 " transform="matrix(100,0,0,100,450,800)"/>
<path style="fill:none;stroke-width:0.01;stroke-linecap:butt;stroke-linejoin:miter;stroke:rgb(0%,0%,0%);stroke-opacity:1;stroke-miterlimit:10;" d="M 0.954531 0.401172 L 0.0454688 0.401172 L 0.0454688 0.598828 L 0.954531 0.598828 Z M 0.954531 0.401172 " transform="matrix(100,0,0,100,600,800)"/>
<path style="fill:none;stroke-width:0.01;stroke-linecap:butt;stroke-linejoin:miter;stroke:rgb(0%,0%,0%);stroke-opacity:1;stroke-miterlimit:10;" d="M 0.954531 0.431836 L 0.0454688 0.431836 L 0.0454688 0.568164 L 0.954531 0.568164 Z M 0.954531 0.431836 " transform="matrix(100,0,0,100,0,950)"/>
<path style="fill:none;stroke-width:0.01;stroke-linecap:butt;stroke-linejoin:miter;stroke:rgb(0%,0%,0%);stroke-opacity:1;stroke-miterlimit:10;" d="M 0.954531 0.428242 L 0.0454687 0.428242 L 0.0454687 0.523906 L 0.954531 0.571758 Z M 0.954531 0.428242 " transform="matrix(100,0,0,100,150,950)"/>
<path style="fill:none;stroke-width:0.01;stroke-linecap:butt;stroke-linejoin:miter;stroke:rgb(0%,0%,0%);stroke-opacity:1;stroke-miterlimit:10;" d="M 0.0454687 0.5 L 0.954531 0.5 Z M 0.0454687 0.5 " transform="matrix(100,0,0,100,300,950)"/>
<path style="fill:none;stroke-width:0.01;stroke-linecap:butt;stroke-linejoin:miter;stroke:rgb(0%,0%,0%);stroke-opacity:1;stroke-miterlimit:10;" d="M 0.152422 0.5 L 0.954531 0.446523 L 0.954531 0.553477 L 0.0454688 0.5 Z M 0.152422 0.5 " transform="matrix(100,0,0,100,450,950)"/>
<path style="fill:none;stroke-width:0.01;stroke-linecap:butt;stroke-linejoin:miter;stroke:rgb(0%,0%,0%);stroke-opacity:1;stroke-miterlimit:10;" d="M 0.0454688 0.467539 L 0.954531 0.467539 L 0.954531 0.532461 Z M 0.0454688 0.467539 " transform="matrix(100,0,0,100,600,950)"/>
<path style="fill:none;stroke-width:0.01;stroke-linecap:butt;stroke-linejoin:miter;stroke:rgb(0%,0%,0%);stroke-opacity:1;stroke-miterlimit:10;" d="M 0.461055 0.487031 L 0.954531 0.512969 L 0.0454688 0.487031 Z M 0.461055 0.487031 " transform="matrix(100,0,0,100,0,1100)"/>
<path style="fill:none;stroke-width:0.01;stroke-linecap:butt;stroke-linejoin:miter;stroke:rgb(0%,0%,0%);stroke-opacity:1;stroke-miterlimit:10;" d="M 0.0454687 0.428242 L 0.0454687 0.619609 L 0.954531 0.603672 L 0.954531 0.380391 Z M 0.0454687 0.428242 " transform="matrix(100,0,0,100,150,1100)"/>
<path style="fill:none;stroke-width:0.01;stroke-linecap:butt;stroke-linejoin:miter;stroke:rgb(0%,0%,0%);stroke-opacity:1;stroke-miterlimit:10;" d="M 0.0833203 0.784102 L 0.0454687 0.178047 L 0.954531 0.140156 L 0.954531 0.859844 Z M 0.0833203 0.784102 " transform="matrix(100,0,0,100,300,1100)"/>
<path style="fill:none;stroke-width:0.01;stroke-linecap:butt;stroke-linejoin:miter;stroke:rgb(0%,0%,0%);stroke-opacity:1;stroke-miterlimit:10;" d="M 0.220273 0.0454687 L 0.290195 0.954531 L 0.779727 0.884609 L 0.779727 0.0454687 Z M 0.220273 0.0454687 " transform="matrix(100,0,0,100,450,1100)"/>
<path style="fill:none;stroke-width:0.01;stroke-linecap:butt;stroke-linejoin:miter;stroke:rgb(0%,0%,0%);stroke-opacity:1;stroke-miterlimit:10;" d="M 0.0454688 0.469688 L 0.954531 0.530313 L 0.924258 0.530313 Z M 0.0454688 0.469688 " transform="matrix(100,0,0,100,600,1100)"/>
<path style="fill:none;stroke-width:0.01;stroke-linecap:butt;stroke-linejoin:miter;stroke:rgb(0%,0%,0%);stroke-opacity:1;stroke-miterlimit:10;" d="M 0.0454688 0.481836 L 0.954531 0.518164 L 0.3 0.481836 Z M 0.0454688 0.481836 " transform="matrix(100,0,0,100,0,1250)"/>
<path style="fill:none;stroke-width:0.01;stroke-linecap:butt;stroke-linejoin:miter;stroke:rgb(0%,0%,0%);stroke-opacity:1;stroke-miterlimit:10;" d="M 0.824688 0.521641 L 0.0454687 0.521641 L 0.954531 0.478359 Z M 0.824688 0.521641 " transform="matrix(100,0,0,100,150,1250)"/>
<path style="fill:none;stroke-width:0.01;stroke-linecap:butt;stroke-linejoin:miter;stroke:rgb(0%,0%,0%);stroke-opacity:1;stroke-miterlimit:10;" d="M 0.913242 0.355391 L 0.0454687 0.438008 L 0.0454687 0.644609 L 0.954531 0.644609 L 0.0454687 0.644609 L 0.0454687 0.39668 Z M 0.913242 0.355391 " transform="matrix(100,0,0,100,300,1250)"/>
<path style="fill:none;stroke-width:0.01;stroke-linecap:butt;stroke-linejoin:miter;stroke:rgb(0%,0%,0%);stroke-opacity:1;stroke-miterlimit:10;" d="M 0.0454688 0.52332 L 0.93125 0.47668 L 0.954531 0.5 Z M 0.0454688 0.52332 " transform="matrix(100,0,0,100,450,1250)"/>
<path style="fill:none;stroke-width:0.01;stroke-linecap:butt;stroke-linejoin:miter;stroke:rgb(0%,0%,0%);stroke-opacity:1;stroke-miterlimit:10;" d="M 0.0454688 0.543281 L 0.954531 0.456719 L 0.867969 0.456719 L 0.175313 0.543281 Z M 0.0454688 0.543281 " transform="matrix(100,0,0,100,600,1250)"/>
<path style="fill:none;stroke-width:0.01;stroke-linecap:butt;stroke-linejoin:miter;stroke:rgb(0%,0%,0%);stroke-opacity:1;stroke-miterlimit:10;" d="M 0.0454688 0.521641 L 0.954531 0.478359 L 0.218633 0.478359 Z M 0.0454688 0.521641 " transform="matrix(100,0,0,100,0,1400)"/>
<path style="fill:none;stroke-width:0.01;stroke-linecap:butt;stroke-linejoin:miter;stroke:rgb(0%,0%,0%);stroke-opacity:1;stroke-miterlimit:10;" d="M 0.0454687 0.516836 L 0.954531 0.483164 L 0.213789 0.516836 Z M 0.0454687 0.516836 " transform="matrix(100,0,0,100,150,1400)"/>
<path style="fill:none;stroke-width:0.01;stroke-linecap:butt;stroke-linejoin:miter;stroke:rgb(0%,0%,0%);stroke-opacity:1;stroke-miterlimit:10;" d="M 0.0454687 0.5 L 0.954531 0.5 L 0.794102 0.5 Z M 0.0454687 0.5 " transform="matrix(100,0,0,100,300,1400)"/>
<path style="fill:none;stroke-width:0.01;stroke-linecap:butt;stroke-linejoin:miter;stroke:rgb(0%,0%,0%);stroke-opacity:1;stroke-miterlimit:10;" d="M 0.0454688 0.534961 L 0.954531 0.465039 L 0.814687 0.465039 Z M 0.0454688 0.534961 " transform="matrix(100,0,0,100,450,1400)"/>
<path style="fill:none;stroke-width:0.01;stroke-linecap:butt;stroke-linejoin:miter;stroke:rgb(0%,0%,0%);stroke-opacity:1;stroke-miterlimit:10;" d="M 0.215898 0.471602 L 0.954531 0.471602 L 0.0454688 0.528398 Z M 0.215898 0.471602 " transform="matrix(100,0,0,100,600,1400)"/>
<path style="fill:none;stroke-width:0.01;stroke-linecap:butt;stroke-linejoin:miter;stroke:rgb(0%,0%,0%);stroke-opacity:1;stroke-miterlimit:10;" d="M 0.0454688 0.521641 L 0.954531 0.478359 Z M 0.0454688 0.521641 " transform="matrix(100,0,0,100,0,1550)"/>
<path style="fill:none;stroke-width:0.01;stroke-linecap:butt;stroke-linejoin:miter;stroke:rgb(0%,0%,0%);stroke-opacity:1;stroke-miterlimit:10;" d="M 0.0454687 0.5 L 0.954531 0.5 Z M 0.0454687 0.5 " transform="matrix(100,0,0,100,150,1550)"/>
<path style="fill:none;stroke-width:0.01;stroke-linecap:butt;stroke-linejoin:miter;stroke:rgb(0%,0%,0%);stroke-opacity:1;stroke-miterlimit:10;" d="M 0.0454687 0.5 L 0.954531 0.5 Z M 0.0454687 0.5 " transform="matrix(100,0,0,100,300,1550)"/>
<path style="fill:none;stroke-width:0.01;stroke-linecap:butt;stroke-linejoin:miter;stroke:rgb(0%,0%,0%);stroke-opacity:1;stroke-miterlimit:10;" d="M 0.0454688 0.5 L 0.954531 0.5 Z M 0.0454688 0.5 " transform="matrix(100,0,0,100,450,1550)"/>
<path style="fill:none;stroke-width:0.01;stroke-linecap:butt;stroke-linejoin:miter;stroke:rgb(0%,0%,0%);stroke-opacity:1;stroke-miterlimit:10;" d="M 0.0454688 0.485352 L 0.954531 0.485352 L 0.954531 0.514648 Z M 0.0454688 0.485352 " transform="matrix(100,0,0,100,600,1550)"/>
<path style="fill:none;stroke-width:0.01;stroke-linecap:butt;stroke-linejoin:miter;stroke:rgb(0%,0%,0%);stroke-opacity:1;stroke-miterlimit:10;" d="M 0.0454688 0.5 L 0.954531 0.463633 L 0.918164 0.536367 Z M 0.0454688 0.5 " transform="matrix(100,0,0,100,0,1700)"/>
<path style="fill:none;stroke-width:0.01;stroke-linecap:butt;stroke-linejoin:miter;stroke:rgb(0%,0%,0%);stroke-opacity:1;stroke-miterlimit:10;" d="M 0.0454687 0.467539 L 0.954531 0.532461 L 0.954531 0.467539 Z M 0.0454687 0.467539 " transform="matrix(100,0,0,100,150,1700)"/>
<path style="fill:none;stroke-width:0.01;stroke-linecap:butt;stroke-linejoin:miter;stroke:rgb(0%,0%,0%);stroke-opacity:1;stroke-miterlimit:10;" d="M 0.0454687 0.5 L 0.954531 0.5 Z M 0.0454687 0.5 " transform="matrix(100,0,0,100,300,1700)"/>
<path style="fill:none;stroke-width:0.01;stroke-linecap:butt;stroke-linejoin:miter;stroke:rgb(0%,0%,0%);stroke-opacity:1;stroke-miterlimit:10;" d="M 0.0454688 0.467539 L 0.954531 0.532461 L 0.889609 0.467539 Z M 0.0454688 0.467539 " transform="matrix(100,0,0,100,450,1700)"/>
<path style="fill:none;stroke-width:0.01;stroke-linecap:butt;stroke-linejoin:miter;stroke:rgb(0%,0%,0%);stroke-opacity:1;stroke-miterlimit:10;" d="M 0.0454688 0.5 L 0.954531 0.5 Z M 0.0454688 0.5 " transform="matrix(100,0,0,100,600,1700)"/>
<path style="fill:none;stroke-width:0.01;stroke-linecap:butt;stroke-linejoin:miter;stroke:rgb(0%,0%,0%);stroke-opacity:1;stroke-miterlimit:10;" d="M 0.0454688 0.5 L 0.954531 0.5 Z M 0.0454688 0.5 " transform="matrix(100,0,0,100,0,1850)"/>
<path style="fill:none;stroke-width:0.01;stroke-linecap:butt;stroke-linejoin:miter;stroke:rgb(0%,0%,0%);stroke-opacity:1;stroke-miterlimit:10;" d="M 0.56668 0.506055 L 0.0454687 0.493945 L 0.954531 0.506055 Z M 0.56668 0.506055 " transform="matrix(100,0,0,100,150,1850)"/>
<path style="fill:none;stroke-width:0.01;stroke-linecap:butt;stroke-linejoin:miter;stroke:rgb(0%,0%,0%);stroke-opacity:1;stroke-miterlimit:10;" d="M 0.259375 0.5 L 0.927812 0.526719 L 0.954531 0.526719 L 0.0454687 0.473281 Z M 0.259375 0.5 " transform="matrix(100,0,0,100,300,1850)"/>
<path style="fill:none;stroke-width:0.01;stroke-linecap:butt;stroke-linejoin:miter;stroke:rgb(0%,0%,0%);stroke-opacity:1;stroke-miterlimit:10;" d="M 0.799805 0.509688 L 0.0454688 0.490313 L 0.0454688 0.374258 L 0.0454688 0.625742 L 0.0454688 0.470977 L 0.200195 0.490313 L 0.200195 0.412969 L 0.200195 0.567695 L 0.200195 0.490313 L 0.954531 0.529023 Z M 0.799805 0.509688 " transform="matrix(100,0,0,100,450,1850)"/>
<path style="fill:none;stroke-width:0.01;stroke-linecap:butt;stroke-linejoin:miter;stroke:rgb(0%,0%,0%);stroke-opacity:1;stroke-miterlimit:10;" d="M 0.0454688 0.460469 L 0.915039 0.539531 L 0.954531 0.5 Z M 0.0454688 0.460469 " transform="matrix(100,0,0,100,600,1850)"/>
<path style="fill:none;stroke-width:0.01;stroke-linecap:butt;stroke-linejoin:miter;stroke:rgb(0%,0%,0%);stroke-opacity:1;stroke-miterlimit:10;" d="M 0.0454688 0.435078 L 0.954531 0.564922 L 0.954531 0.5 Z M 0.0454688 0.435078 " transform="matrix(100,0,0,100,0,2000)"/>
<path style="fill:none;stroke-width:0.01;stroke-linecap:butt;stroke-linejoin:miter;stroke:rgb(0%,0%,0%);stroke-opacity:1;stroke-miterlimit:10;" d="M 0.227266 0.681836 L 0.954531 0.621211 L 0.83332 0.378789 L 0.590898 0.5 L 0.348477 0.318164 L 0.0454687 0.378789 Z M 0.227266 0.681836 " transform="matrix(100,0,0,100,150,2000)"/>
<path style="fill:none;stroke-width:0.01;stroke-linecap:butt;stroke-linejoin:miter;stroke:rgb(0%,0%,0%);stroke-opacity:1;stroke-miterlimit:10;" d="M 0.337656 0.51625 L 0.954531 0.48375 L 0.0454687 0.51625 Z M 0.337656 0.51625 " transform="matrix(100,0,0,100,300,2000)"/>
<path style="fill:none;stroke-width:0.01;stroke-linecap:butt;stroke-linejoin:miter;stroke:rgb(0%,0%,0%);stroke-opacity:1;stroke-miterlimit:10;" d="M 0.756914 0.5 L 0.0454688 0.5 L 0.954531 0.5 Z M 0.756914 0.5 " transform="matrix(100,0,0,100,450,2000)"/>
<path style="fill:none;stroke-width:0.01;stroke-linecap:butt;stroke-linejoin:miter;stroke:rgb(0%,0%,0%);stroke-opacity:1;stroke-miterlimit:10;" d="M 0.0454688 0.5 L 0.954531 0.5 L 0.727266 0.5 Z M 0.0454688 0.5 " transform="matrix(100,0,0,100,600,2000)"/>
<path style="fill:none;stroke-width:0.01;stroke-linecap:butt;stroke-linejoin:miter;stroke:rgb(0%,0%,0%);stroke-opacity:1;stroke-miterlimit:10;" d="M 0.0454688 0.431836 L 0.954531 0.568164 L 0.545469 0.568164 Z M 0.0454688 0.431836 " transform="matrix(100,0,0,100,0,2150)"/>
<path style="fill:none;stroke-width:0.01;stroke-linecap:butt;stroke-linejoin:miter;stroke:rgb(0%,0%,0%);stroke-opacity:1;stroke-miterlimit:10;" d="M 0.0454687 0.532461 L 0.889609 0.467539 L 0.954531 0.532461 Z M 0.0454687 0.532461 " transform="matrix(100,0,0,100,150,2150)"/>
<path style="fill:none;stroke-width:0.01;stroke-linecap:butt;stroke-linejoin:miter;stroke:rgb(0%,0%,0%);stroke-opacity:1;stroke-miterlimit:10;" d="M 0.0454687 0.414766 L 0.784102 0.556836 L 0.954531 0.585234 L 0.159102 0.443164 Z M 0.0454687 0.414766 " transform="matrix(100,0,0,100,300,2150)"/>
<path style="fill:none;stroke-width:0.01;stroke-linecap:butt;stroke-linejoin:miter;stroke:rgb(0%,0%,0%);stroke-opacity:1;stroke-miterlimit:10;" d="M 0.0454688 0.378789 L 0.893945 0.621211 L 0.954531 0.621211 Z M 0.0454688 0.378789 " transform="matrix(100,0,0,100,450,2150)"/>
<path style="fill:none;stroke-width:0.01;stroke-linecap:butt;stroke-linejoin:miter;stroke:rgb(0%,0%,0%);stroke-opacity:1;stroke-miterlimit:10;" d="M 0.909102 0.454531 L 0.0454688 0.477266 L 0.0454688 0.545469 L 0.954531 0.545469 Z M 0.909102 0.454531 " transform="matrix(100,0,0,100,600,2150)"/>
<path style="fill:none;stroke-width:0.01;stroke-linecap:butt;stroke-linejoin:miter;stroke:rgb(0%,0%,0%);stroke-opacity:1;stroke-miterlimit:10;" d="M 0.90793 0.430078 L 0.0454688 0.453398 L 0.0454688 0.569922 L 0.954531 0.52332 Z M 0.90793 0.430078 " transform="matrix(100,0,0,100,0,2300)"/>
<path style="fill:none;stroke-width:0.01;stroke-linecap:butt;stroke-linejoin:miter;stroke:rgb(0%,0%,0%);stroke-opacity:1;stroke-miterlimit:10;" d="M 0.954531 0.456719 L 0.0454687 0.5 L 0.0454687 0.543281 Z M 0.954531 0.456719 " transform="matrix(100,0,0,100,150,2300)"/>
<path style="fill:none;stroke-width:0.01;stroke-linecap:butt;stroke-linejoin:miter;stroke:rgb(0%,0%,0%);stroke-opacity:1;stroke-miterlimit:10;" d="M 0.0454687 0.473281 L 0.954531 0.473281 L 0.954531 0.526719 Z M 0.0454687 0.473281 " transform="matrix(100,0,0,100,300,2300)"/>
<path style="fill:none;stroke-width:0.01;stroke-linecap:butt;stroke-linejoin:miter;stroke:rgb(0%,0%,0%);stroke-opacity:1;stroke-miterlimit:10;" d="M 0.0454688 0.454531 L 0.924258 0.424258 L 0.954531 0.560625 L 0.0908984 0.575742 Z M 0.0454688 0.454531 " transform="matrix(100,0,0,100,450,2300)"/>
<path style="fill:none;stroke-width:0.01;stroke-linecap:butt;stroke-linejoin:miter;stroke:rgb(0%,0%,0%);stroke-opacity:1;stroke-miterlimit:10;" d="M 0.0588281 0.426484 L 0.941172 0.373008 L 0.954531 0.520039 L 0.941172 0.586914 L 0.0588281 0.626992 L 0.0454688 0.573516 Z M 0.0588281 0.426484 " transform="matrix(100,0,0,100,600,2300)"/>
<path style="fill:none;stroke-width:0.01;stroke-linecap:butt;stroke-linejoin:miter;stroke:rgb(0%,0%,0%);stroke-opacity:1;stroke-miterlimit:10;" d="M 0.0454688 0.5 L 0.954531 0.5 Z M 0.0454688 0.5 " transform="matrix(100,0,0,100,0,2450)"/>
<path style="fill:none;stroke-width:0.01;stroke-linecap:butt;stroke-linejoin:miter;stroke:rgb(0%,0%,0%);stroke-opacity:1;stroke-miterlimit:10;" d="M 0.0454687 0.480234 L 0.875508 0.519766 L 0.954531 0.519766 Z M 0.0454687 0.480234 " transform="matrix(100,0,0,100,150,2450)"/>
<path style="fill:none;stroke-width:0.01;stroke-linecap:butt;stroke-linejoin:miter;stroke:rgb(0%,0%,0%);stroke-opacity:1;stroke-miterlimit:10;" d="M 0.0454687 0.5175 L 0.954531 0.4825 L 0.91957 0.4825 Z M 0.0454687 0.5175 " transform="matrix(100,0,0,100,300,2450)"/>
<path style="fill:none;stroke-width:0.01;stroke-linecap:butt;stroke-linejoin:miter;stroke:rgb(0%,0%,0%);stroke-opacity:1;stroke-miterlimit:10;" d="M 0.0454688 0.523906 L 0.954531 0.476094 L 0.284688 0.523906 Z M 0.0454688 0.523906 " transform="matrix(100,0,0,100,450,2450)"/>
<path style="fill:none;stroke-width:0.01;stroke-linecap:butt;stroke-linejoin:miter;stroke:rgb(0%,0%,0%);stroke-opacity:1;stroke-miterlimit:10;" d="M 0.0454688 0.553477 L 0.740625 0.446523 L 0.954531 0.5 Z M 0.0454688 0.553477 " transform="matrix(100,0,0,100,600,2450)"/>
<path style="fill:none;stroke-width:0.01;stroke-linecap:butt;stroke-linejoin:miter;stroke:rgb(0%,0%,0%);stroke-opacity:1;stroke-miterlimit:10;" d="M 0.193438 0.521133 L 0.954531 0.542266 L 0.0454688 0.5 L 0.0454688 0.373164 L 0.0454688 0.626836 L 0.0666016 0.5 Z M 0.193438 0.521133 " transform="matrix(100,0,0,100,0,2600)"/>
<path style="fill:none;stroke-width:0.01;stroke-linecap:butt;stroke-linejoin:miter;stroke:rgb(0%,0%,0%);stroke-opacity:1;stroke-miterlimit:10;" d="M 0.179141 0.486641 L 0.954531 0.513359 L 0.0454687 0.486641 Z M 0.179141 0.486641 " transform="matrix(100,0,0,100,150,2600)"/>
<path style="fill:none;stroke-width:0.01;stroke-linecap:butt;stroke-linejoin:miter;stroke:rgb(0%,0%,0%);stroke-opacity:1;stroke-miterlimit:10;" d="M 0.0454687 0.465039 L 0.93125 0.441719 L 0.954531 0.534961 L 0.06875 0.558281 Z M 0.0454687 0.465039 " transform="matrix(100,0,0,100,300,2600)"/>
<path style="fill:none;stroke-width:0.01;stroke-linecap:butt;stroke-linejoin:miter;stroke:rgb(0%,0%,0%);stroke-opacity:1;stroke-miterlimit:10;" d="M 0.0454688 0.550508 L 0.954531 0.449492 L 0.954531 0.483164 Z M 0.0454688 0.550508 " transform="matrix(100,0,0,100,450,2600)"/>
<path style="fill:none;stroke-width:0.01;stroke-linecap:butt;stroke-linejoin:miter;stroke:rgb(0%,0%,0%);stroke-opacity:1;stroke-miterlimit:10;" d="M 0.0454688 0.462109 L 0.954531 0.462109 L 0.954531 0.537891 Z M 0.0454688 0.462109 " transform="matrix(100,0,0,100,600,2600)"/>
<path style="fill:none;stroke-width:0.01;stroke-linecap:butt;stroke-linejoin:miter;stroke:rgb(0%,0%,0%);stroke-opacity:1;stroke-miterlimit:10;" d="M 0.884609 0.487305 L 0.0517969 0.506367 L 0.0454688 0.519063 L 0.954531 0.506367 L 0.954531 0.480937 Z M 0.884609 0.487305 " transform="matrix(100,0,0,100,0,2750)"/>
<path style="fill:none;stroke-width:0.01;stroke-linecap:butt;stroke-linejoin:miter;stroke:rgb(0%,0%,0%);stroke-opacity:1;stroke-miterlimit:10;" d="M 0.227266 0.465898 L 0.943164 0.5 L 0.954531 0.534102 L 0.0454687 0.5 L 0.0454687 0.465898 Z M 0.227266 0.465898 " transform="matrix(100,0,0,100,150,2750)"/>
<path style="fill:none;stroke-width:0.01;stroke-linecap:butt;stroke-linejoin:miter;stroke:rgb(0%,0%,0%);stroke-opacity:1;stroke-miterlimit:10;" d="M 0.424258 0.443164 L 0.954531 0.443164 L 0.954531 0.518945 L 0.0833203 0.556836 L 0.0454687 0.481055 Z M 0.424258 0.443164 " transform="matrix(100,0,0,100,300,2750)"/>
<path style="fill:none;stroke-width:0.01;stroke-linecap:butt;stroke-linejoin:miter;stroke:rgb(0%,0%,0%);stroke-opacity:1;stroke-miterlimit:10;" d="M 0.537891 0.443164 L 0.954531 0.443164 L 0.954531 0.556836 L 0.0454688 0.556836 L 0.0454688 0.443164 Z M 0.537891 0.443164 " transform="matrix(100,0,0,100,450,2750)"/>
<path style="fill:none;stroke-width:0.01;stroke-linecap:butt;stroke-linejoin:miter;stroke:rgb(0%,0%,0%);stroke-opacity:1;stroke-miterlimit:10;" d="M 0.796445 0.420938 L 0.0454688 0.420938 L 0.0454688 0.539531 L 0.915039 0.579062 L 0.954531 0.420938 Z M 0.796445 0.420938 " transform="matrix(100,0,0,100,600,2750)"/>
<path style="fill:none;stroke-width:0.01;stroke-linecap:butt;stroke-linejoin:miter;stroke:rgb(0%,0%,0%);stroke-opacity:1;stroke-miterlimit:10;" d="M 0.610547 0.487734 L 0.0454688 0.512266 L 0.954531 0.487734 Z M 0.610547 0.487734 " transform="matrix(100,0,0,100,0,2900)"/>
<path style="fill:none;stroke-width:0.01;stroke-linecap:butt;stroke-linejoin:miter;stroke:rgb(0%,0%,0%);stroke-opacity:1;stroke-miterlimit:10;" d="M 0.0454687 0.512617 L 0.285352 0.449492 L 0.954531 0.411602 L 0.954531 0.487383 L 0.260117 0.525234 L 0.0454687 0.588398 Z M 0.0454687 0.512617 " transform="matrix(100,0,0,100,150,2900)"/>
<path style="fill:none;stroke-width:0.01;stroke-linecap:butt;stroke-linejoin:miter;stroke:rgb(0%,0%,0%);stroke-opacity:1;stroke-miterlimit:10;" d="M 0.954531 0.428242 L 0.069375 0.404297 L 0.0454687 0.595703 L 0.954531 0.595703 Z M 0.954531 0.428242 " transform="matrix(100,0,0,100,300,2900)"/>
<path style="fill:none;stroke-width:0.01;stroke-linecap:butt;stroke-linejoin:miter;stroke:rgb(0%,0%,0%);stroke-opacity:1;stroke-miterlimit:10;" d="M 0.928555 0.435078 L 0.0454688 0.435078 L 0.0714453 0.538945 L 0.954531 0.564922 Z M 0.928555 0.435078 " transform="matrix(100,0,0,100,450,2900)"/>
<path style="fill:none;stroke-width:0.01;stroke-linecap:butt;stroke-linejoin:miter;stroke:rgb(0%,0%,0%);stroke-opacity:1;stroke-miterlimit:10;" d="M 0.0454688 0.440703 L 0.835977 0.440703 L 0.954531 0.519766 L 0.0454688 0.559297 Z M 0.0454688 0.440703 " transform="matrix(100,0,0,100,600,2900)"/>
<path style="fill:none;stroke-width:0.01;stroke-linecap:butt;stroke-linejoin:miter;stroke:rgb(0%,0%,0%);stroke-opacity:1;stroke-miterlimit:10;" d="M 0.181836 0.522734 L 0.954531 0.477266 L 0.0454688 0.477266 Z M 0.181836 0.522734 " transform="matrix(100,0,0,100,0,3050)"/>
<path style="fill:none;stroke-width:0.01;stroke-linecap:butt;stroke-linejoin:miter;stroke:rgb(0%,0%,0%);stroke-opacity:1;stroke-miterlimit:10;" d="M 0.0454687 0.5 L 0.954531 0.5 Z M 0.0454687 0.5 " transform="matrix(100,0,0,100,150,3050)"/>
<path style="fill:none;stroke-width:0.01;stroke-linecap:butt;stroke-linejoin:miter;stroke:rgb(0%,0%,0%);stroke-opacity:1;stroke-miterlimit:10;" d="M 0.0454687 0.465039 L 0.954531 0.534961 Z M 0.0454687 0.465039 " transform="matrix(100,0,0,100,300,3050)"/>
<path style="fill:none;stroke-width:0.01;stroke-linecap:butt;stroke-linejoin:miter;stroke:rgb(0%,0%,0%);stroke-opacity:1;stroke-miterlimit:10;" d="M 0.0454688 0.5 L 0.954531 0.5 L 0.293398 0.5 Z M 0.0454688 0.5 " transform="matrix(100,0,0,100,450,3050)"/>
<path style="fill:none;stroke-width:0.01;stroke-linecap:butt;stroke-linejoin:miter;stroke:rgb(0%,0%,0%);stroke-opacity:1;stroke-miterlimit:10;" d="M 0.0818359 0.281836 L 0.0454688 0.718164 L 0.954531 0.681836 L 0.954531 0.318164 Z M 0.0818359 0.281836 " transform="matrix(100,0,0,100,600,3050)"/>
<path style="fill:none;stroke-width:0.01;stroke-linecap:butt;stroke-linejoin:miter;stroke:rgb(0%,0%,0%);stroke-opacity:1;stroke-miterlimit:10;" d="M 0.0454688 0.283555 L 0.0454688 0.716445 L 0.91125 0.673164 L 0.954531 0.413438 L 0.91125 0.283555 Z M 0.0454688 0.283555 " transform="matrix(100,0,0,100,0,3200)"/>
<path style="fill:none;stroke-width:0.01;stroke-linecap:butt;stroke-linejoin:miter;stroke:rgb(0%,0%,0%);stroke-opacity:1;stroke-miterlimit:10;" d="M 0.0454687 0.340898 L 0.909102 0.295469 L 0.954531 0.659102 L 0.0454687 0.704531 Z M 0.0454687 0.340898 " transform="matrix(100,0,0,100,150,3200)"/>
<path style="fill:none;stroke-width:0.01;stroke-linecap:butt;stroke-linejoin:miter;stroke:rgb(0%,0%,0%);stroke-opacity:1;stroke-miterlimit:10;" d="M 0.954531 0.400234 L 0.954531 0.599766 L 0.156328 0.577617 L 0.0454687 0.533242 L 0.0676172 0.400234 Z M 0.954531 0.400234 " transform="matrix(100,0,0,100,300,3200)"/>
<path style="fill:none;stroke-width:0.01;stroke-linecap:butt;stroke-linejoin:miter;stroke:rgb(0%,0%,0%);stroke-opacity:1;stroke-miterlimit:10;" d="M 0.0959766 0.37375 L 0.954531 0.323242 L 0.954531 0.676758 L 0.0454688 0.62625 Z M 0.0959766 0.37375 " transform="matrix(100,0,0,100,450,3200)"/>
<path style="fill:none;stroke-width:0.01;stroke-linecap:butt;stroke-linejoin:miter;stroke:rgb(0%,0%,0%);stroke-opacity:1;stroke-miterlimit:10;" d="M 0.954531 0.48375 L 0.909922 0.495938 L 0.0454688 0.495938 L 0.0495313 0.51625 L 0.950469 0.51625 Z M 0.954531 0.48375 " transform="matrix(100,0,0,100,600,3200)"/>
<path style="fill:none;stroke-width:0.01;stroke-linecap:butt;stroke-linejoin:miter;stroke:rgb(0%,0%,0%);stroke-opacity:1;stroke-miterlimit:10;" d="M 0.954531 0.375781 L 0.0454688 0.477422 L 0.0454688 0.505664 L 0.0849609 0.5 L 0.113203 0.624219 L 0.135781 0.618594 L 0.107578 0.5 L 0.0849609 0.375781 L 0.0623828 0.375781 L 0.0793359 0.494336 L 0.152734 0.488711 L 0.175313 0.579062 L 0.192266 0.567773 L 0.152734 0.398359 L 0.135781 0.398359 L 0.152734 0.488711 Z M 0.954531 0.375781 " transform="matrix(100,0,0,100,0,3350)"/>
<path style="fill:none;stroke-width:0.01;stroke-linecap:butt;stroke-linejoin:miter;stroke:rgb(0%,0%,0%);stroke-opacity:1;stroke-miterlimit:10;" d="M 0.954531 0.472734 L 0.0454687 0.454531 L 0.0454687 0.527266 L 0.954531 0.545469 Z M 0.954531 0.472734 " transform="matrix(100,0,0,100,150,3350)"/>
<path style="fill:none;stroke-width:0.01;stroke-linecap:butt;stroke-linejoin:miter;stroke:rgb(0%,0%,0%);stroke-opacity:1;stroke-miterlimit:10;" d="M 0.849648 0.4825 L 0.0454687 0.4825 L 0.954531 0.5175 Z M 0.849648 0.4825 " transform="matrix(100,0,0,100,300,3350)"/>
<path style="fill:none;stroke-width:0.01;stroke-linecap:butt;stroke-linejoin:miter;stroke:rgb(0%,0%,0%);stroke-opacity:1;stroke-miterlimit:10;" d="M 0.954531 0.5 L 0.0454688 0.5 L 0.796445 0.5 Z M 0.954531 0.5 " transform="matrix(100,0,0,100,450,3350)"/>
<path style="fill:none;stroke-width:0.01;stroke-linecap:butt;stroke-linejoin:miter;stroke:rgb(0%,0%,0%);stroke-opacity:1;stroke-miterlimit:10;" d="M 0.954531 0.528398 L 0.272734 0.471602 L 0.0454688 0.528398 Z M 0.954531 0.528398 " transform="matrix(100,0,0,100,600,3350)"/>
<path style="fill:none;stroke-width:0.01;stroke-linecap:butt;stroke-linejoin:miter;stroke:rgb(0%,0%,0%);stroke-opacity:1;stroke-miterlimit:10;" d="M 0.515664 0.547031 L 0.923203 0.547031 L 0.954531 0.452969 L 0.0454688 0.515664 L 0.0767969 0.547031 Z M 0.515664 0.547031 " transform="matrix(100,0,0,100,0,3500)"/>
<path style="fill:none;stroke-width:0.01;stroke-linecap:butt;stroke-linejoin:miter;stroke:rgb(0%,0%,0%);stroke-opacity:1;stroke-miterlimit:10;" d="M 0.954531 0.456016 L 0.0454687 0.485352 L 0.0454687 0.543984 L 0.925234 0.543984 Z M 0.954531 0.456016 " transform="matrix(100,0,0,100,150,3500)"/>
<path style="fill:none;stroke-width:0.01;stroke-linecap:butt;stroke-linejoin:miter;stroke:rgb(0%,0%,0%);stroke-opacity:1;stroke-miterlimit:10;" d="M 0.954531 0.452148 L 0.0454687 0.404297 L 0.0454687 0.547852 L 0.954531 0.595703 Z M 0.954531 0.452148 " transform="matrix(100,0,0,100,300,3500)"/>
<path style="fill:none;stroke-width:0.01;stroke-linecap:butt;stroke-linejoin:miter;stroke:rgb(0%,0%,0%);stroke-opacity:1;stroke-miterlimit:10;" d="M 0.818164 0.5 L 0.0454688 0.5 L 0.954531 0.5 Z M 0.818164 0.5 " transform="matrix(100,0,0,100,450,3500)"/>
<path style="fill:none;stroke-width:0.01;stroke-linecap:butt;stroke-linejoin:miter;stroke:rgb(0%,0%,0%);stroke-opacity:1;stroke-miterlimit:10;" d="M 0.954531 0.467539 L 0.0454688 0.532461 Z M 0.954531 0.467539 " transform="matrix(100,0,0,100,600,3500)"/>
<path style="fill:none;stroke-width:0.01;stroke-linecap:butt;stroke-linejoin:miter;stroke:rgb(0%,0%,0%);stroke-opacity:1;stroke-miterlimit:10;" d="M 0.954531 0.478359 L 0.0454688 0.521641 L 0.738086 0.478359 Z M 0.954531 0.478359 " transform="matrix(100,0,0,100,0,3650)"/>
<path style="fill:none;stroke-width:0.01;stroke-linecap:butt;stroke-linejoin:miter;stroke:rgb(0%,0%,0%);stroke-opacity:1;stroke-miterlimit:10;" d="M 0.954531 0.530313 L 0.0454687 0.469687 L 0.712109 0.530313 Z M 0.954531 0.530313 " transform="matrix(100,0,0,100,150,3650)"/>
<path style="fill:none;stroke-width:0.01;stroke-linecap:butt;stroke-linejoin:miter;stroke:rgb(0%,0%,0%);stroke-opacity:1;stroke-miterlimit:10;" d="M 0.954531 0.5 L 0.0454687 0.5 L 0.674844 0.5 Z M 0.954531 0.5 " transform="matrix(100,0,0,100,300,3650)"/>
<path style="fill:none;stroke-width:0.01;stroke-linecap:butt;stroke-linejoin:miter;stroke:rgb(0%,0%,0%);stroke-opacity:1;stroke-miterlimit:10;" d="M 0.845469 0.481836 L 0.0454688 0.518164 L 0.954531 0.481836 Z M 0.845469 0.481836 " transform="matrix(100,0,0,100,450,3650)"/>
<path style="fill:none;stroke-width:0.01;stroke-linecap:butt;stroke-linejoin:miter;stroke:rgb(0%,0%,0%);stroke-opacity:1;stroke-miterlimit:10;" d="M 0.835977 0.480234 L 0.0454688 0.480234 L 0.954531 0.519766 Z M 0.835977 0.480234 " transform="matrix(100,0,0,100,600,3650)"/>
<path style="fill:none;stroke-width:0.01;stroke-linecap:butt;stroke-linejoin:miter;stroke:rgb(0%,0%,0%);stroke-opacity:1;stroke-miterlimit:10;" d="M 0.954531 0.473281 L 0.0454688 0.526719 L 0.740625 0.473281 Z M 0.954531 0.473281 " transform="matrix(100,0,0,100,0,3800)"/>
<path style="fill:none;stroke-width:0.01;stroke-linecap:butt;stroke-linejoin:miter;stroke:rgb(0%,0%,0%);stroke-opacity:1;stroke-miterlimit:10;" d="M 0.954531 0.5 L 0.0454687 0.5 L 0.772734 0.5 Z M 0.954531 0.5 " transform="matrix(100,0,0,100,150,3800)"/>
<path style="fill:none;stroke-width:0.01;stroke-linecap:butt;stroke-linejoin:miter;stroke:rgb(0%,0%,0%);stroke-opacity:1;stroke-miterlimit:10;" d="M 0.954531 0.5 L 0.0454687 0.5 L 0.651523 0.5 Z M 0.954531 0.5 " transform="matrix(100,0,0,100,300,3800)"/>
<path style="fill:none;stroke-width:0.01;stroke-linecap:butt;stroke-linejoin:miter;stroke:rgb(0%,0%,0%);stroke-opacity:1;stroke-miterlimit:10;" d="M 0.954531 0.5 L 0.0454688 0.5 L 0.772734 0.5 Z M 0.954531 0.5 " transform="matrix(100,0,0,100,450,3800)"/>
<path style="fill:none;stroke-width:0.01;stroke-linecap:butt;stroke-linejoin:miter;stroke:rgb(0%,0%,0%);stroke-opacity:1;stroke-miterlimit:10;" d="M 0.954531 0.5 L 0.0454688 0.5 L 0.629883 0.5 Z M 0.954531 0.5 " transform="matrix(100,0,0,100,600,3800)"/>
<path style="fill:none;stroke-width:0.01;stroke-linecap:butt;stroke-linejoin:miter;stroke:rgb(0%,0%,0%);stroke-opacity:1;stroke-miterlimit:10;" d="M 0.818164 0.477266 L 0.0454688 0.522734 L 0.954531 0.522734 Z M 0.818164 0.477266 " transform="matrix(100,0,0,100,0,3950)"/>
<path style="fill:none;stroke-width:0.01;stroke-linecap:butt;stroke-linejoin:miter;stroke:rgb(0%,0%,0%);stroke-opacity:1;stroke-miterlimit:10;" d="M 0.954531 0.4825 L 0.0454687 0.5175 L 0.115391 0.4825 Z M 0.954531 0.4825 " transform="matrix(100,0,0,100,150,3950)"/>
<path style="fill:none;stroke-width:0.01;stroke-linecap:butt;stroke-linejoin:miter;stroke:rgb(0%,0%,0%);stroke-opacity:1;stroke-miterlimit:10;" d="M 0.838008 0.48543 L 0.0454687 0.49707 L 0.0454687 0.520391 L 0.954531 0.50293 L 0.954531 0.479609 Z M 0.838008 0.48543 " transform="matrix(100,0,0,100,300,3950)"/>
<path style="fill:none;stroke-width:0.01;stroke-linecap:butt;stroke-linejoin:miter;stroke:rgb(0%,0%,0%);stroke-opacity:1;stroke-miterlimit:10;" d="M 0.628945 0.478867 L 0.0454688 0.533828 L 0.0496875 0.550742 L 0.950312 0.487305 L 0.954531 0.449258 Z M 0.628945 0.478867 " transform="matrix(100,0,0,100,450,3950)"/>
<path style="fill:none;stroke-width:0.01;stroke-linecap:butt;stroke-linejoin:miter;stroke:rgb(0%,0%,0%);stroke-opacity:1;stroke-miterlimit:10;" d="M 0.954531 0.477812 L 0.954531 0.503711 L 0.0676172 0.522188 L 0.0454688 0.522188 L 0.0454688 0.514766 L 0.0565234 0.518477 L 0.0639453 0.514766 Z M 0.954531 0.477812 " transform="matrix(100,0,0,100,600,3950)"/>
<path style="fill:none;stroke-width:0.01;stroke-linecap:butt;stroke-linejoin:miter;stroke:rgb(0%,0%,0%);stroke-opacity:1;stroke-miterlimit:10;" d="M 0.244336 0.457383 L 0.926133 0.457383 L 0.954531 0.542617 L 0.0454688 0.514219 Z M 0.244336 0.457383 " transform="matrix(100,0,0,100,0,4100)"/>
<path style="fill:none;stroke-width:0.01;stroke-linecap:butt;stroke-linejoin:miter;stroke:rgb(0%,0%,0%);stroke-opacity:1;stroke-miterlimit:10;" d="M 0.790117 0.47582 L 0.0454687 0.485508 L 0.0454687 0.514492 L 0.954531 0.52418 L 0.935195 0.495156 Z M 0.790117 0.47582 " transform="matrix(100,0,0,100,150,4100)"/>
<path style="fill:none;stroke-width:0.01;stroke-linecap:butt;stroke-linejoin:miter;stroke:rgb(0%,0%,0%);stroke-opacity:1;stroke-miterlimit:10;" d="M 0.436953 0.5 L 0.954531 0.480078 L 0.954531 0.506641 L 0.0454687 0.519922 Z M 0.436953 0.5 " transform="matrix(100,0,0,100,300,4100)"/>
<path style="fill:none;stroke-width:0.01;stroke-linecap:butt;stroke-linejoin:miter;stroke:rgb(0%,0%,0%);stroke-opacity:1;stroke-miterlimit:10;" d="M 0.346406 0.484336 L 0.954531 0.496875 L 0.954531 0.515664 L 0.0454688 0.496875 Z M 0.346406 0.484336 " transform="matrix(100,0,0,100,450,4100)"/>
<path style="fill:none;stroke-width:0.01;stroke-linecap:butt;stroke-linejoin:miter;stroke:rgb(0%,0%,0%);stroke-opacity:1;stroke-miterlimit:10;" d="M 0.509688 0.480664 L 0.954531 0.506445 L 0.954531 0.538672 L 0.0454688 0.461328 Z M 0.509688 0.480664 " transform="matrix(100,0,0,100,600,4100)"/>
<path style="fill:none;stroke-width:0.01;stroke-linecap:butt;stroke-linejoin:miter;stroke:rgb(0%,0%,0%);stroke-opacity:1;stroke-miterlimit:10;" d="M 0.954531 0.481563 L 0.0454688 0.481563 L 0.0454688 0.506133 L 0.948398 0.518437 Z M 0.954531 0.481563 " transform="matrix(100,0,0,100,0,4250)"/>
<path style="fill:none;stroke-width:0.01;stroke-linecap:butt;stroke-linejoin:miter;stroke:rgb(0%,0%,0%);stroke-opacity:1;stroke-miterlimit:10;" d="M 0.0532422 0.507773 L 0.954531 0.468906 L 0.954531 0.5 L 0.0454687 0.531094 Z M 0.0532422 0.507773 " transform="matrix(100,0,0,100,150,4250)"/>
<path style="fill:none;stroke-width:0.01;stroke-linecap:butt;stroke-linejoin:miter;stroke:rgb(0%,0%,0%);stroke-opacity:1;stroke-miterlimit:10;" d="M 0.0454687 0.492148 L 0.954531 0.484336 L 0.954531 0.515664 L 0.0532812 0.515664 Z M 0.0454687 0.492148 " transform="matrix(100,0,0,100,300,4250)"/>
<path style="fill:none;stroke-width:0.01;stroke-linecap:butt;stroke-linejoin:miter;stroke:rgb(0%,0%,0%);stroke-opacity:1;stroke-miterlimit:10;" d="M 0.0454688 0.486641 L 0.954531 0.473281 L 0.954531 0.513359 L 0.0454688 0.526719 Z M 0.0454688 0.486641 " transform="matrix(100,0,0,100,450,4250)"/>
<path style="fill:none;stroke-width:0.01;stroke-linecap:butt;stroke-linejoin:miter;stroke:rgb(0%,0%,0%);stroke-opacity:1;stroke-miterlimit:10;" d="M 0.0454688 0.482734 L 0.954531 0.482734 L 0.954531 0.517266 L 0.0684766 0.517266 Z M 0.0454688 0.482734 " transform="matrix(100,0,0,100,600,4250)"/>
<path style="fill:none;stroke-width:0.01;stroke-linecap:butt;stroke-linejoin:miter;stroke:rgb(0%,0%,0%);stroke-opacity:1;stroke-miterlimit:10;" d="M 0.0454688 0.476094 L 0.954531 0.492031 L 0.954531 0.523906 L 0.0933203 0.507969 Z M 0.0454688 0.476094 " transform="matrix(100,0,0,100,0,4400)"/>
<path style="fill:none;stroke-width:0.01;stroke-linecap:butt;stroke-linejoin:miter;stroke:rgb(0%,0%,0%);stroke-opacity:1;stroke-miterlimit:10;" d="M 0.0454687 0.488906 L 0.954531 0.466758 L 0.954531 0.511094 L 0.0454687 0.533242 Z M 0.0454687 0.488906 " transform="matrix(100,0,0,100,150,4400)"/>
<path style="fill:none;stroke-width:0.01;stroke-linecap:butt;stroke-linejoin:miter;stroke:rgb(0%,0%,0%);stroke-opacity:1;stroke-miterlimit:10;" d="M 0.0454687 0.470977 L 0.954531 0.470977 L 0.954531 0.529023 L 0.0454687 0.509687 Z M 0.0454687 0.470977 " transform="matrix(100,0,0,100,300,4400)"/>
<path style="fill:none;stroke-width:0.01;stroke-linecap:butt;stroke-linejoin:miter;stroke:rgb(0%,0%,0%);stroke-opacity:1;stroke-miterlimit:10;" d="M 0.0454688 0.468633 L 0.954531 0.468633 L 0.954531 0.531367 L 0.0454688 0.531367 Z M 0.0454688 0.468633 " transform="matrix(100,0,0,100,450,4400)"/>
<path style="fill:none;stroke-width:0.01;stroke-linecap:butt;stroke-linejoin:miter;stroke:rgb(0%,0%,0%);stroke-opacity:1;stroke-miterlimit:10;" d="M 0.954531 0.5 L 0.0454688 0.5 L 0.0454688 0.370117 L 0.0454688 0.629883 L 0.0454688 0.5 Z M 0.954531 0.5 " transform="matrix(100,0,0,100,600,4400)"/>
<path style="fill:none;stroke-width:0.01;stroke-linecap:butt;stroke-linejoin:miter;stroke:rgb(0%,0%,0%);stroke-opacity:1;stroke-miterlimit:10;" d="M 0.0454688 0.523906 L 0.954531 0.476094 L 0.90668 0.476094 Z M 0.0454688 0.523906 " transform="matrix(100,0,0,100,0,4550)"/>
<path style="fill:none;stroke-width:0.01;stroke-linecap:butt;stroke-linejoin:miter;stroke:rgb(0%,0%,0%);stroke-opacity:1;stroke-miterlimit:10;" d="M 0.0454687 0.519766 L 0.954531 0.480234 L 0.915039 0.480234 Z M 0.0454687 0.519766 " transform="matrix(100,0,0,100,150,4550)"/>
<path style="fill:none;stroke-width:0.01;stroke-linecap:butt;stroke-linejoin:miter;stroke:rgb(0%,0%,0%);stroke-opacity:1;stroke-miterlimit:10;" d="M 0.0454687 0.521641 L 0.954531 0.478359 L 0.91125 0.521641 Z M 0.0454687 0.521641 " transform="matrix(100,0,0,100,300,4550)"/>
<path style="fill:none;stroke-width:0.01;stroke-linecap:butt;stroke-linejoin:miter;stroke:rgb(0%,0%,0%);stroke-opacity:1;stroke-miterlimit:10;" d="M 0.235742 0.489414 L 0.954531 0.489414 L 0.0454688 0.510586 Z M 0.235742 0.489414 " transform="matrix(100,0,0,100,450,4550)"/>
<path style="fill:none;stroke-width:0.01;stroke-linecap:butt;stroke-linejoin:miter;stroke:rgb(0%,0%,0%);stroke-opacity:1;stroke-miterlimit:10;" d="M 0.582656 0.541328 L 0.293398 0.541328 L 0.25207 0.623984 L 0.210742 0.623984 L 0.0454688 0.541328 L 0.0867578 0.458672 L 0.169414 0.376016 L 0.293398 0.376016 L 0.293398 0.417344 L 0.913242 0.417344 L 0.954531 0.5 Z M 0.582656 0.541328 " transform="matrix(100,0,0,100,600,4550)"/>
<path style="fill:none;stroke-width:0.01;stroke-linecap:butt;stroke-linejoin:miter;stroke:rgb(0%,0%,0%);stroke-opacity:1;stroke-miterlimit:10;" d="M 0.849648 0.4825 L 0.325156 0.4825 L 0.150352 0.272734 L 0.0454688 0.237773 L 0.0454688 0.762227 L 0.115391 0.762227 L 0.325156 0.552461 L 0.954531 0.587422 L 0.954531 0.4825 Z M 0.849648 0.4825 " transform="matrix(100,0,0,100,0,4700)"/>
<path style="fill:none;stroke-width:0.01;stroke-linecap:butt;stroke-linejoin:miter;stroke:rgb(0%,0%,0%);stroke-opacity:1;stroke-miterlimit:10;" d="M 0.712109 0.469687 L 0.0454687 0.469687 L 0.0454687 0.530313 L 0.954531 0.530313 L 0.954531 0.469687 Z M 0.712109 0.469687 " transform="matrix(100,0,0,100,150,4700)"/>
<path style="fill:none;stroke-width:0.01;stroke-linecap:butt;stroke-linejoin:miter;stroke:rgb(0%,0%,0%);stroke-opacity:1;stroke-miterlimit:10;" d="M 0.0454687 0.621211 L 0.954531 0.560625 L 0.954531 0.378789 L 0.0454687 0.378789 Z M 0.0454687 0.621211 " transform="matrix(100,0,0,100,300,4700)"/>
<path style="fill:none;stroke-width:0.01;stroke-linecap:butt;stroke-linejoin:miter;stroke:rgb(0%,0%,0%);stroke-opacity:1;stroke-miterlimit:10;" d="M 0.950039 0.475234 L 0.0454688 0.51125 L 0.0499609 0.524766 L 0.954531 0.506758 Z M 0.950039 0.475234 " transform="matrix(100,0,0,100,450,4700)"/>
<path style="fill:none;stroke-width:0.01;stroke-linecap:butt;stroke-linejoin:miter;stroke:rgb(0%,0%,0%);stroke-opacity:1;stroke-miterlimit:10;" d="M 0.954531 0.476992 L 0.0454688 0.511523 L 0.0454688 0.523008 L 0.954531 0.505742 Z M 0.954531 0.476992 " transform="matrix(100,0,0,100,600,4700)"/>
<path style="fill:none;stroke-width:0.01;stroke-linecap:butt;stroke-linejoin:miter;stroke:rgb(0%,0%,0%);stroke-opacity:1;stroke-miterlimit:10;" d="M 0.954531 0.503633 L 0.0454688 0.525547 L 0.0454688 0.503633 L 0.954531 0.474453 Z M 0.954531 0.503633 " transform="matrix(100,0,0,100,0,4850)"/>
<path style="fill:none;stroke-width:0.01;stroke-linecap:butt;stroke-linejoin:miter;stroke:rgb(0%,0%,0%);stroke-opacity:1;stroke-miterlimit:10;" d="M 0.954531 0.5 L 0.0454687 0.527344 L 0.0454687 0.520508 L 0.954531 0.472656 Z M 0.954531 0.5 " transform="matrix(100,0,0,100,150,4850)"/>
<path style="fill:none;stroke-width:0.01;stroke-linecap:butt;stroke-linejoin:miter;stroke:rgb(0%,0%,0%);stroke-opacity:1;stroke-miterlimit:10;" d="M 0.389687 0.491172 L 0.945703 0.482344 L 0.954531 0.508828 L 0.0454687 0.517656 L 0.0454687 0.5 Z M 0.389687 0.491172 " transform="matrix(100,0,0,100,300,4850)"/>
<path style="fill:none;stroke-width:0.01;stroke-linecap:butt;stroke-linejoin:miter;stroke:rgb(0%,0%,0%);stroke-opacity:1;stroke-miterlimit:10;" d="M 0.954531 0.461484 L 0.0454688 0.46918 L 0.0531641 0.538516 L 0.800469 0.53082 L 0.939141 0.523125 Z M 0.954531 0.461484 " transform="matrix(100,0,0,100,450,4850)"/>
<path style="fill:none;stroke-width:0.01;stroke-linecap:butt;stroke-linejoin:miter;stroke:rgb(0%,0%,0%);stroke-opacity:1;stroke-miterlimit:10;" d="M 0.885195 0.492305 L 0.0454688 0.507695 L 0.669492 0.5 L 0.954531 0.492305 Z M 0.885195 0.492305 " transform="matrix(100,0,0,100,600,4850)"/>
<path style="fill:none;stroke-width:0.01;stroke-linecap:butt;stroke-linejoin:miter;stroke:rgb(0%,0%,0%);stroke-opacity:1;stroke-miterlimit:10;" d="M 0.834922 0.496016 L 0.0454688 0.503984 L 0.954531 0.503984 Z M 0.834922 0.496016 " transform="matrix(100,0,0,100,0,5000)"/>
<path style="fill:none;stroke-width:0.01;stroke-linecap:butt;stroke-linejoin:miter;stroke:rgb(0%,0%,0%);stroke-opacity:1;stroke-miterlimit:10;" d="M 0.0969141 0.508594 L 0.954531 0.491406 L 0.0454687 0.508594 Z M 0.0969141 0.508594 " transform="matrix(100,0,0,100,150,5000)"/>
<path style="fill:none;stroke-width:0.01;stroke-linecap:butt;stroke-linejoin:miter;stroke:rgb(0%,0%,0%);stroke-opacity:1;stroke-miterlimit:10;" d="M 0.954531 0.494375 L 0.0454687 0.471953 L 0.0454687 0.516836 L 0.932109 0.528047 Z M 0.954531 0.494375 " transform="matrix(100,0,0,100,300,5000)"/>
<path style="fill:none;stroke-width:0.01;stroke-linecap:butt;stroke-linejoin:miter;stroke:rgb(0%,0%,0%);stroke-opacity:1;stroke-miterlimit:10;" d="M 0.184687 0.47543 L 0.954531 0.483633 L 0.946367 0.52457 L 0.11918 0.516367 L 0.0454688 0.516367 L 0.0454688 0.47543 Z M 0.184687 0.47543 " transform="matrix(100,0,0,100,450,5000)"/>
<path style="fill:none;stroke-width:0.01;stroke-linecap:butt;stroke-linejoin:miter;stroke:rgb(0%,0%,0%);stroke-opacity:1;stroke-miterlimit:10;" d="M 0.191758 0.479102 L 0.954531 0.479102 L 0.954531 0.531367 L 0.0454688 0.5 L 0.0663672 0.468633 Z M 0.191758 0.479102 " transform="matrix(100,0,0,100,600,5000)"/>
<path style="fill:none;stroke-width:0.01;stroke-linecap:butt;stroke-linejoin:miter;stroke:rgb(0%,0%,0%);stroke-opacity:1;stroke-miterlimit:10;" d="M 0.40082 0.508281 L 0.921484 0.541328 L 0.954531 0.508281 L 0.904961 0.491719 L 0.0454688 0.458672 L 0.0454688 0.5 Z M 0.40082 0.508281 " transform="matrix(100,0,0,100,0,5150)"/>
<path style="fill:none;stroke-width:0.01;stroke-linecap:butt;stroke-linejoin:miter;stroke:rgb(0%,0%,0%);stroke-opacity:1;stroke-miterlimit:10;" d="M 0.954531 0.420938 L 0.0849609 0.420938 L 0.0454687 0.5 L 0.954531 0.579062 Z M 0.954531 0.420938 " transform="matrix(100,0,0,100,150,5150)"/>
<path style="fill:none;stroke-width:0.01;stroke-linecap:butt;stroke-linejoin:miter;stroke:rgb(0%,0%,0%);stroke-opacity:1;stroke-miterlimit:10;" d="M 0.545469 0.431836 L 0.0454687 0.431836 L 0.0454687 0.522734 L 0.954531 0.568164 L 0.954531 0.477266 Z M 0.545469 0.431836 " transform="matrix(100,0,0,100,300,5150)"/>
<path style="fill:none;stroke-width:0.01;stroke-linecap:butt;stroke-linejoin:miter;stroke:rgb(0%,0%,0%);stroke-opacity:1;stroke-miterlimit:10;" d="M 0.712109 0.454531 L 0.0454688 0.424258 L 0.0454688 0.575742 L 0.954531 0.545469 L 0.954531 0.454531 Z M 0.712109 0.454531 " transform="matrix(100,0,0,100,450,5150)"/>
<path style="fill:none;stroke-width:0.01;stroke-linecap:butt;stroke-linejoin:miter;stroke:rgb(0%,0%,0%);stroke-opacity:1;stroke-miterlimit:10;" d="M 0.597422 0.435078 L 0.0779297 0.467539 L 0.0454688 0.564922 L 0.824688 0.564922 L 0.954531 0.5 Z M 0.597422 0.435078 " transform="matrix(100,0,0,100,600,5150)"/>
<path style="fill:none;stroke-width:0.01;stroke-linecap:butt;stroke-linejoin:miter;stroke:rgb(0%,0%,0%);stroke-opacity:1;stroke-miterlimit:10;" d="M 0.526719 0.526719 L 0.954531 0.526719 L 0.954531 0.419805 L 0.0454688 0.419805 L 0.0454688 0.580195 Z M 0.526719 0.526719 " transform="matrix(100,0,0,100,0,5300)"/>
<path style="fill:none;stroke-width:0.01;stroke-linecap:butt;stroke-linejoin:miter;stroke:rgb(0%,0%,0%);stroke-opacity:1;stroke-miterlimit:10;" d="M 0.329531 0.471602 L 0.954531 0.414766 L 0.897734 0.585234 L 0.0454687 0.585234 L 0.0454687 0.414766 Z M 0.329531 0.471602 " transform="matrix(100,0,0,100,150,5300)"/>
<path style="fill:none;stroke-width:0.01;stroke-linecap:butt;stroke-linejoin:miter;stroke:rgb(0%,0%,0%);stroke-opacity:1;stroke-miterlimit:10;" d="M 0.0454687 0.487383 L 0.954531 0.512617 L 0.904023 0.512617 Z M 0.0454687 0.487383 " transform="matrix(100,0,0,100,300,5300)"/>
<path style="fill:none;stroke-width:0.01;stroke-linecap:butt;stroke-linejoin:miter;stroke:rgb(0%,0%,0%);stroke-opacity:1;stroke-miterlimit:10;" d="M 0.0454688 0.488047 L 0.954531 0.488047 L 0.954531 0.511953 Z M 0.0454688 0.488047 " transform="matrix(100,0,0,100,450,5300)"/>
<path style="fill:none;stroke-width:0.01;stroke-linecap:butt;stroke-linejoin:miter;stroke:rgb(0%,0%,0%);stroke-opacity:1;stroke-miterlimit:10;" d="M 0.0454688 0.484844 L 0.954531 0.484844 L 0.954531 0.515156 Z M 0.0454688 0.484844 " transform="matrix(100,0,0,100,600,5300)"/>
<path style="fill:none;stroke-width:0.01;stroke-linecap:butt;stroke-linejoin:miter;stroke:rgb(0%,0%,0%);stroke-opacity:1;stroke-miterlimit:10;" d="M 0.0454688 0.476094 L 0.954531 0.5 L 0.954531 0.523906 Z M 0.0454688 0.476094 " transform="matrix(100,0,0,100,0,5450)"/>
<path style="fill:none;stroke-width:0.01;stroke-linecap:butt;stroke-linejoin:miter;stroke:rgb(0%,0%,0%);stroke-opacity:1;stroke-miterlimit:10;" d="M 0.417344 0.5 L 0.954531 0.5 L 0.0454687 0.5 Z M 0.417344 0.5 " transform="matrix(100,0,0,100,150,5450)"/>
<path style="fill:none;stroke-width:0.01;stroke-linecap:butt;stroke-linejoin:miter;stroke:rgb(0%,0%,0%);stroke-opacity:1;stroke-miterlimit:10;" d="M 0.0454687 0.5 L 0.954531 0.5 Z M 0.0454687 0.5 " transform="matrix(100,0,0,100,300,5450)"/>
<path style="fill:none;stroke-width:0.01;stroke-linecap:butt;stroke-linejoin:miter;stroke:rgb(0%,0%,0%);stroke-opacity:1;stroke-miterlimit:10;" d="M 0.244336 0.485781 L 0.954531 0.514219 L 0.0454688 0.514219 Z M 0.244336 0.485781 " transform="matrix(100,0,0,100,450,5450)"/>
<path style="fill:none;stroke-width:0.01;stroke-linecap:butt;stroke-linejoin:miter;stroke:rgb(0%,0%,0%);stroke-opacity:1;stroke-miterlimit:10;" d="M 0.467539 0.48375 L 0.954531 0.51625 L 0.0454688 0.51625 Z M 0.467539 0.48375 " transform="matrix(100,0,0,100,600,5450)"/>
<path style="fill:none;stroke-width:0.01;stroke-linecap:butt;stroke-linejoin:miter;stroke:rgb(0%,0%,0%);stroke-opacity:1;stroke-miterlimit:10;" d="M 0.0454688 0.485352 L 0.866563 0.485352 L 0.954531 0.514648 Z M 0.0454688 0.485352 " transform="matrix(100,0,0,100,0,5600)"/>
<path style="fill:none;stroke-width:0.01;stroke-linecap:butt;stroke-linejoin:miter;stroke:rgb(0%,0%,0%);stroke-opacity:1;stroke-miterlimit:10;" d="M 0.305195 0.5 L 0.954531 0.456719 L 0.91125 0.5 L 0.0454687 0.543281 Z M 0.305195 0.5 " transform="matrix(100,0,0,100,150,5600)"/>
<path style="fill:none;stroke-width:0.01;stroke-linecap:butt;stroke-linejoin:miter;stroke:rgb(0%,0%,0%);stroke-opacity:1;stroke-miterlimit:10;" d="M 0.580195 0.419805 L 0.954531 0.419805 L 0.954531 0.580195 L 0.0454687 0.580195 L 0.0454687 0.419805 Z M 0.580195 0.419805 " transform="matrix(100,0,0,100,300,5600)"/>
<path style="fill:none;stroke-width:0.01;stroke-linecap:butt;stroke-linejoin:miter;stroke:rgb(0%,0%,0%);stroke-opacity:1;stroke-miterlimit:10;" d="M 0.772734 0.477266 L 0.0454688 0.522734 L 0.954531 0.477266 Z M 0.772734 0.477266 " transform="matrix(100,0,0,100,450,5600)"/>
<path style="fill:none;stroke-width:0.01;stroke-linecap:butt;stroke-linejoin:miter;stroke:rgb(0%,0%,0%);stroke-opacity:1;stroke-miterlimit:10;" d="M 0.0454688 0.481055 L 0.954531 0.518945 L 0.91668 0.518945 Z M 0.0454688 0.481055 " transform="matrix(100,0,0,100,600,5600)"/>
<path style="fill:none;stroke-width:0.01;stroke-linecap:butt;stroke-linejoin:miter;stroke:rgb(0%,0%,0%);stroke-opacity:1;stroke-miterlimit:10;" d="M 0.884609 0.441719 L 0.0454688 0.488359 L 0.954531 0.558281 Z M 0.884609 0.441719 " transform="matrix(100,0,0,100,0,5750)"/>
<path style="fill:none;stroke-width:0.01;stroke-linecap:butt;stroke-linejoin:miter;stroke:rgb(0%,0%,0%);stroke-opacity:1;stroke-miterlimit:10;" d="M 0.0454687 0.553477 L 0.901055 0.446523 L 0.954531 0.553477 Z M 0.0454687 0.553477 " transform="matrix(100,0,0,100,150,5750)"/>
<path style="fill:none;stroke-width:0.01;stroke-linecap:butt;stroke-linejoin:miter;stroke:rgb(0%,0%,0%);stroke-opacity:1;stroke-miterlimit:10;" d="M 0.111992 0.488906 L 0.954531 0.511094 L 0.0454687 0.488906 Z M 0.111992 0.488906 " transform="matrix(100,0,0,100,300,5750)"/>
<path style="fill:none;stroke-width:0.01;stroke-linecap:butt;stroke-linejoin:miter;stroke:rgb(0%,0%,0%);stroke-opacity:1;stroke-miterlimit:10;" d="M 0.240273 0.48375 L 0.954531 0.51625 L 0.0454688 0.51625 Z M 0.240273 0.48375 " transform="matrix(100,0,0,100,450,5750)"/>
<path style="fill:none;stroke-width:0.01;stroke-linecap:butt;stroke-linejoin:miter;stroke:rgb(0%,0%,0%);stroke-opacity:1;stroke-miterlimit:10;" d="M 0.0454688 0.515664 L 0.797813 0.484336 L 0.954531 0.484336 Z M 0.0454688 0.515664 " transform="matrix(100,0,0,100,600,5750)"/>
<path style="fill:none;stroke-width:0.01;stroke-linecap:butt;stroke-linejoin:miter;stroke:rgb(0%,0%,0%);stroke-opacity:1;stroke-miterlimit:10;" d="M 0.100547 0.486211 L 0.954531 0.513789 L 0.0454688 0.486211 Z M 0.100547 0.486211 " transform="matrix(100,0,0,100,0,5900)"/>
<path style="fill:none;stroke-width:0.01;stroke-linecap:butt;stroke-linejoin:miter;stroke:rgb(0%,0%,0%);stroke-opacity:1;stroke-miterlimit:10;" d="M 0.752539 0.525234 L 0.0454687 0.474766 L 0.954531 0.525234 Z M 0.752539 0.525234 " transform="matrix(100,0,0,100,150,5900)"/>
<path style="fill:none;stroke-width:0.01;stroke-linecap:butt;stroke-linejoin:miter;stroke:rgb(0%,0%,0%);stroke-opacity:1;stroke-miterlimit:10;" d="M 0.419805 0.526719 L 0.954531 0.526719 L 0.0454687 0.473281 Z M 0.419805 0.526719 " transform="matrix(100,0,0,100,300,5900)"/>
<path style="fill:none;stroke-width:0.01;stroke-linecap:butt;stroke-linejoin:miter;stroke:rgb(0%,0%,0%);stroke-opacity:1;stroke-miterlimit:10;" d="M 0.667461 0.5 L 0.0454688 0.5 L 0.954531 0.5 Z M 0.667461 0.5 " transform="matrix(100,0,0,100,450,5900)"/>
<path style="fill:none;stroke-width:0.01;stroke-linecap:butt;stroke-linejoin:miter;stroke:rgb(0%,0%,0%);stroke-opacity:1;stroke-miterlimit:10;" d="M 0.826719 0.507109 L 0.0454688 0.492891 L 0.954531 0.507109 Z M 0.826719 0.507109 " transform="matrix(100,0,0,100,600,5900)"/>
<path style="fill:none;stroke-width:0.01;stroke-linecap:butt;stroke-linejoin:miter;stroke:rgb(0%,0%,0%);stroke-opacity:1;stroke-miterlimit:10;" d="M 0.914648 0.477812 L 0.0454688 0.517734 L 0.0454688 0.526602 L 0.954531 0.495547 L 0.954531 0.473398 Z M 0.914648 0.477812 " transform="matrix(100,0,0,100,0,6050)"/>
<path style="fill:none;stroke-width:0.01;stroke-linecap:butt;stroke-linejoin:miter;stroke:rgb(0%,0%,0%);stroke-opacity:1;stroke-miterlimit:10;" d="M 0.824688 0.512969 L 0.0714453 0.538945 L 0.0454687 0.461055 L 0.928555 0.461055 L 0.954531 0.538945 Z M 0.824688 0.512969 " transform="matrix(100,0,0,100,150,6050)"/>
<path style="fill:none;stroke-width:0.01;stroke-linecap:butt;stroke-linejoin:miter;stroke:rgb(0%,0%,0%);stroke-opacity:1;stroke-miterlimit:10;" d="M 0.796445 0.5 L 0.0454687 0.5 L 0.954531 0.5 Z M 0.796445 0.5 " transform="matrix(100,0,0,100,300,6050)"/>
<path style="fill:none;stroke-width:0.01;stroke-linecap:butt;stroke-linejoin:miter;stroke:rgb(0%,0%,0%);stroke-opacity:1;stroke-miterlimit:10;" d="M 0.0966797 0.423164 L 0.954531 0.474375 L 0.224727 0.448789 L 0.186289 0.525625 L 0.0454688 0.512813 L 0.941758 0.576836 L 0.2375 0.538398 L 0.28875 0.448789 Z M 0.0966797 0.423164 " transform="matrix(100,0,0,100,450,6050)"/>
<path style="fill:none;stroke-width:0.01;stroke-linecap:butt;stroke-linejoin:miter;stroke:rgb(0%,0%,0%);stroke-opacity:1;stroke-miterlimit:10;" d="M 0.5 0.511953 L 0.0454688 0.488047 L 0.954531 0.488047 Z M 0.5 0.511953 " transform="matrix(100,0,0,100,600,6050)"/>
<path style="fill:none;stroke-width:0.01;stroke-linecap:butt;stroke-linejoin:miter;stroke:rgb(0%,0%,0%);stroke-opacity:1;stroke-miterlimit:10;" d="M 0.746758 0.512969 L 0.0454688 0.512969 L 0.227266 0.512969 L 0.227266 0.590898 L 0.227266 0.409102 L 0.227266 0.538945 L 0.954531 0.538945 Z M 0.746758 0.512969 " transform="matrix(100,0,0,100,0,6200)"/>
<path style="fill:none;stroke-width:0.01;stroke-linecap:butt;stroke-linejoin:miter;stroke:rgb(0%,0%,0%);stroke-opacity:1;stroke-miterlimit:10;" d="M 0.681836 0.454531 L 0.954531 0.5 L 0.0454687 0.5 L 0.272734 0.5 L 0.272734 0.590898 L 0.272734 0.409102 L 0.272734 0.5 Z M 0.681836 0.454531 " transform="matrix(100,0,0,100,150,6200)"/>
<path style="fill:none;stroke-width:0.01;stroke-linecap:butt;stroke-linejoin:miter;stroke:rgb(0%,0%,0%);stroke-opacity:1;stroke-miterlimit:10;" d="M 0.826523 0.493594 L 0.0454687 0.468008 L 0.0454687 0.519219 L 0.928945 0.531992 L 0.954531 0.480781 Z M 0.826523 0.493594 " transform="matrix(100,0,0,100,300,6200)"/>
<path style="fill:none;stroke-width:0.01;stroke-linecap:butt;stroke-linejoin:miter;stroke:rgb(0%,0%,0%);stroke-opacity:1;stroke-miterlimit:10;" d="M 0.265859 0.5 L 0.954531 0.5 L 0.0454688 0.5 Z M 0.265859 0.5 " transform="matrix(100,0,0,100,450,6200)"/>
<path style="fill:none;stroke-width:0.01;stroke-linecap:butt;stroke-linejoin:miter;stroke:rgb(0%,0%,0%);stroke-opacity:1;stroke-miterlimit:10;" d="M 0.0454688 0.5 L 0.954531 0.545469 L 0.272734 0.5 L 0.227266 0.636367 L 0.181836 0.363633 L 0.227266 0.5 Z M 0.0454688 0.5 " transform="matrix(100,0,0,100,600,6200)"/>
<path style="fill:none;stroke-width:0.01;stroke-linecap:butt;stroke-linejoin:miter;stroke:rgb(0%,0%,0%);stroke-opacity:1;stroke-miterlimit:10;" d="M 0.8125 0.5 L 0.0454688 0.485781 L 0.954531 0.514219 Z M 0.8125 0.5 " transform="matrix(100,0,0,100,0,6350)"/>
<path style="fill:none;stroke-width:0.01;stroke-linecap:butt;stroke-linejoin:miter;stroke:rgb(0%,0%,0%);stroke-opacity:1;stroke-miterlimit:10;" d="M 0.238281 0.486211 L 0.954531 0.513789 L 0.0454687 0.513789 Z M 0.238281 0.486211 " transform="matrix(100,0,0,100,150,6350)"/>
<path style="fill:none;stroke-width:0.01;stroke-linecap:butt;stroke-linejoin:miter;stroke:rgb(0%,0%,0%);stroke-opacity:1;stroke-miterlimit:10;" d="M 0.954531 0.487383 L 0.121211 0.512617 L 0.0454687 0.436875 L 0.0454687 0.462109 L 0.121211 0.563125 L 0.954531 0.563125 Z M 0.954531 0.487383 " transform="matrix(100,0,0,100,300,6350)"/>
<path style="fill:none;stroke-width:0.01;stroke-linecap:butt;stroke-linejoin:miter;stroke:rgb(0%,0%,0%);stroke-opacity:1;stroke-miterlimit:10;" d="M 0.840898 0.481055 L 0.0454688 0.531563 L 0.954531 0.468438 Z M 0.840898 0.481055 " transform="matrix(100,0,0,100,450,6350)"/>
<path style="fill:none;stroke-width:0.01;stroke-linecap:butt;stroke-linejoin:miter;stroke:rgb(0%,0%,0%);stroke-opacity:1;stroke-miterlimit:10;" d="M 0.0454688 0.479336 L 0.913242 0.520664 L 0.954531 0.520664 Z M 0.0454688 0.479336 " transform="matrix(100,0,0,100,600,6350)"/>
<path style="fill:none;stroke-width:0.01;stroke-linecap:butt;stroke-linejoin:miter;stroke:rgb(0%,0%,0%);stroke-opacity:1;stroke-miterlimit:10;" d="M 0.217461 0.47543 L 0.954531 0.47543 L 0.0946094 0.47543 L 0.0946094 0.401719 L 0.11918 0.598281 L 0.0946094 0.47543 L 0.0454688 0.450859 Z M 0.217461 0.47543 " transform="matrix(100,0,0,100,0,6500)"/>
<path style="fill:none;stroke-width:0.01;stroke-linecap:butt;stroke-linejoin:miter;stroke:rgb(0%,0%,0%);stroke-opacity:1;stroke-miterlimit:10;" d="M 0.130469 0.516367 L 0.948008 0.477109 L 0.954531 0.496719 L 0.0454687 0.522891 Z M 0.130469 0.516367 " transform="matrix(100,0,0,100,150,6500)"/>
<path style="fill:none;stroke-width:0.01;stroke-linecap:butt;stroke-linejoin:miter;stroke:rgb(0%,0%,0%);stroke-opacity:1;stroke-miterlimit:10;" d="M 0.0454687 0.5 L 0.954531 0.5 Z M 0.0454687 0.5 " transform="matrix(100,0,0,100,300,6500)"/>
<path style="fill:none;stroke-width:0.01;stroke-linecap:butt;stroke-linejoin:miter;stroke:rgb(0%,0%,0%);stroke-opacity:1;stroke-miterlimit:10;" d="M 0.435078 0.467539 L 0.954531 0.532461 L 0.0454688 0.467539 Z M 0.435078 0.467539 " transform="matrix(100,0,0,100,450,6500)"/>
<path style="fill:none;stroke-width:0.01;stroke-linecap:butt;stroke-linejoin:miter;stroke:rgb(0%,0%,0%);stroke-opacity:1;stroke-miterlimit:10;" d="M 0.169414 0.520664 L 0.954531 0.479336 L 0.0454688 0.520664 Z M 0.169414 0.520664 " transform="matrix(100,0,0,100,600,6500)"/>
<path style="fill:none;stroke-width:0.01;stroke-linecap:butt;stroke-linejoin:miter;stroke:rgb(0%,0%,0%);stroke-opacity:1;stroke-miterlimit:10;" d="M 0.196953 0.525234 L 0.954531 0.474766 L 0.0454688 0.525234 Z M 0.196953 0.525234 " transform="matrix(100,0,0,100,0,6650)"/>
<path style="fill:none;stroke-width:0.01;stroke-linecap:butt;stroke-linejoin:miter;stroke:rgb(0%,0%,0%);stroke-opacity:1;stroke-miterlimit:10;" d="M 0.0454687 0.460977 L 0.158594 0.472695 L 0.357578 0.503906 L 0.58 0.527305 L 0.778984 0.546836 L 0.954531 0.550703 L 0.954531 0.519492 L 0.732148 0.515625 L 0.572188 0.503906 L 0.400508 0.484375 L 0.20543 0.464883 L 0.049375 0.449297 Z M 0.0454687 0.460977 " transform="matrix(100,0,0,100,150,6650)"/>
<path style="fill:none;stroke-width:0.01;stroke-linecap:butt;stroke-linejoin:miter;stroke:rgb(0%,0%,0%);stroke-opacity:1;stroke-miterlimit:10;" d="M 0.91875 0.487461 L 0.496406 0.508945 L 0.249453 0.523281 L 0.156406 0.53043 L 0.0454687 0.537578 L 0.256641 0.516094 L 0.510742 0.487461 L 0.87582 0.462422 L 0.943789 0.462422 L 0.954531 0.491055 Z M 0.91875 0.487461 " transform="matrix(100,0,0,100,300,6650)"/>
<path style="fill:none;stroke-width:0.01;stroke-linecap:butt;stroke-linejoin:miter;stroke:rgb(0%,0%,0%);stroke-opacity:1;stroke-miterlimit:10;" d="M 0.926133 0.53375 L 0.58168 0.515977 L 0.0490234 0.480469 L 0.0454688 0.46625 L 0.123594 0.469805 L 0.947461 0.491133 L 0.954531 0.53375 Z M 0.926133 0.53375 " transform="matrix(100,0,0,100,450,6650)"/>
<path style="fill:none;stroke-width:0.01;stroke-linecap:butt;stroke-linejoin:miter;stroke:rgb(0%,0%,0%);stroke-opacity:1;stroke-miterlimit:10;" d="M 0.746133 0.493359 L 0.320391 0.488906 L 0.0454688 0.488906 L 0.0454688 0.502227 L 0.55543 0.502227 L 0.954531 0.511094 L 0.954531 0.493359 Z M 0.746133 0.493359 " transform="matrix(100,0,0,100,600,6650)"/>
<path style="fill:none;stroke-width:0.01;stroke-linecap:butt;stroke-linejoin:miter;stroke:rgb(0%,0%,0%);stroke-opacity:1;stroke-miterlimit:10;" d="M 0.949922 0.472305 L 0.936094 0.481523 L 0.0546875 0.513828 L 0.0454688 0.509219 L 0.0454688 0.523086 L 0.0592969 0.527695 L 0.520781 0.509219 L 0.936094 0.495391 L 0.945312 0.495391 L 0.954531 0.486172 Z M 0.949922 0.472305 " transform="matrix(100,0,0,100,0,6800)"/>
<path style="fill:none;stroke-width:0.01;stroke-linecap:butt;stroke-linejoin:miter;stroke:rgb(0%,0%,0%);stroke-opacity:1;stroke-miterlimit:10;" d="M 0.954531 0.484258 L 0.945547 0.497734 L 0.0679688 0.502266 L 0.0454687 0.502266 L 0.0454687 0.506758 L 0.0544531 0.51125 L 0.0634375 0.506758 L 0.945547 0.506758 L 0.954531 0.515742 Z M 0.954531 0.484258 " transform="matrix(100,0,0,100,150,6800)"/>
<path style="fill:none;stroke-width:0.01;stroke-linecap:butt;stroke-linejoin:miter;stroke:rgb(0%,0%,0%);stroke-opacity:1;stroke-miterlimit:10;" d="M 0.954531 0.491133 L 0.932383 0.5 L 0.0632031 0.477812 L 0.0498828 0.473398 L 0.0454687 0.48668 L 0.0498828 0.491133 L 0.05875 0.48668 L 0.0632031 0.482266 L 0.936797 0.51332 L 0.954531 0.526602 Z M 0.954531 0.491133 " transform="matrix(100,0,0,100,300,6800)"/>
<path style="fill:none;stroke-width:0.01;stroke-linecap:butt;stroke-linejoin:miter;stroke:rgb(0%,0%,0%);stroke-opacity:1;stroke-miterlimit:10;" d="M 0.875508 0.480234 L 0.0454688 0.519766 L 0.954531 0.480234 Z M 0.875508 0.480234 " transform="matrix(100,0,0,100,450,6800)"/>
<path style="fill:none;stroke-width:0.01;stroke-linecap:butt;stroke-linejoin:miter;stroke:rgb(0%,0%,0%);stroke-opacity:1;stroke-miterlimit:10;" d="M 0.0454688 0.47543 L 0.905391 0.52457 L 0.954531 0.5 Z M 0.0454688 0.47543 " transform="matrix(100,0,0,100,600,6800)"/>
<path style="fill:none;stroke-width:0.01;stroke-linecap:butt;stroke-linejoin:miter;stroke:rgb(0%,0%,0%);stroke-opacity:1;stroke-miterlimit:10;" d="M 0.155664 0.5 L 0.954531 0.5 L 0.0454688 0.5 Z M 0.155664 0.5 " transform="matrix(100,0,0,100,0,6950)"/>
<path style="fill:none;stroke-width:0.01;stroke-linecap:butt;stroke-linejoin:miter;stroke:rgb(0%,0%,0%);stroke-opacity:1;stroke-miterlimit:10;" d="M 0.857852 0.495156 L 0.0454687 0.504844 L 0.954531 0.495156 Z M 0.857852 0.495156 " transform="matrix(100,0,0,100,150,6950)"/>
<path style="fill:none;stroke-width:0.01;stroke-linecap:butt;stroke-linejoin:miter;stroke:rgb(0%,0%,0%);stroke-opacity:1;stroke-miterlimit:10;" d="M 0.878789 0.493672 L 0.0454687 0.506328 L 0.954531 0.493672 Z M 0.878789 0.493672 " transform="matrix(100,0,0,100,300,6950)"/>
<path style="fill:none;stroke-width:0.01;stroke-linecap:butt;stroke-linejoin:miter;stroke:rgb(0%,0%,0%);stroke-opacity:1;stroke-miterlimit:10;" d="M 0.829453 0.51668 L 0.0454688 0.51668 L 0.128867 0.525039 L 0.103828 0.458281 L 0.128867 0.525039 L 0.0454688 0.541719 L 0.937852 0.541719 L 0.954531 0.525039 Z M 0.829453 0.51668 " transform="matrix(100,0,0,100,450,6950)"/>
<path style="fill:none;stroke-width:0.01;stroke-linecap:butt;stroke-linejoin:miter;stroke:rgb(0%,0%,0%);stroke-opacity:1;stroke-miterlimit:10;" d="M 0.933086 0.503594 L 0.0454688 0.496406 L 0.954531 0.503594 Z M 0.933086 0.503594 " transform="matrix(100,0,0,100,600,6950)"/>
<path style="fill:none;stroke-width:0.01;stroke-linecap:butt;stroke-linejoin:miter;stroke:rgb(0%,0%,0%);stroke-opacity:1;stroke-miterlimit:10;" d="M 0.954531 0.572734 L 0.0454688 0.536367 L 0.0454688 0.427266 L 0.954531 0.463633 Z M 0.954531 0.572734 " transform="matrix(100,0,0,100,0,7100)"/>
<path style="fill:none;stroke-width:0.01;stroke-linecap:butt;stroke-linejoin:miter;stroke:rgb(0%,0%,0%);stroke-opacity:1;stroke-miterlimit:10;" d="M 0.0454687 0.5175 L 0.954531 0.552461 L 0.954531 0.447539 L 0.0454687 0.447539 Z M 0.0454687 0.5175 " transform="matrix(100,0,0,100,150,7100)"/>
<path style="fill:none;stroke-width:0.01;stroke-linecap:butt;stroke-linejoin:miter;stroke:rgb(0%,0%,0%);stroke-opacity:1;stroke-miterlimit:10;" d="M 0.0454687 0.536367 L 0.954531 0.536367 L 0.954531 0.463633 L 0.0454687 0.463633 Z M 0.0454687 0.536367 " transform="matrix(100,0,0,100,300,7100)"/>
<path style="fill:none;stroke-width:0.01;stroke-linecap:butt;stroke-linejoin:miter;stroke:rgb(0%,0%,0%);stroke-opacity:1;stroke-miterlimit:10;" d="M 0.0454688 0.519766 L 0.954531 0.559297 L 0.954531 0.480234 L 0.0849609 0.440703 Z M 0.0454688 0.519766 " transform="matrix(100,0,0,100,450,7100)"/>
<path style="fill:none;stroke-width:0.01;stroke-linecap:butt;stroke-linejoin:miter;stroke:rgb(0%,0%,0%);stroke-opacity:1;stroke-miterlimit:10;" d="M 0.142852 0.5 L 0.954531 0.5 L 0.0454688 0.5 Z M 0.142852 0.5 " transform="matrix(100,0,0,100,600,7100)"/>
<path style="fill:none;stroke-width:0.01;stroke-linecap:butt;stroke-linejoin:miter;stroke:rgb(0%,0%,0%);stroke-opacity:1;stroke-miterlimit:10;" d="M 0.130664 0.5 L 0.954531 0.5 L 0.0454688 0.5 Z M 0.130664 0.5 " transform="matrix(100,0,0,100,0,7250)"/>
<path style="fill:none;stroke-width:0.01;stroke-linecap:butt;stroke-linejoin:miter;stroke:rgb(0%,0%,0%);stroke-opacity:1;stroke-miterlimit:10;" d="M 0.0454687 0.5 L 0.954531 0.5 Z M 0.0454687 0.5 " transform="matrix(100,0,0,100,150,7250)"/>
<path style="fill:none;stroke-width:0.01;stroke-linecap:butt;stroke-linejoin:miter;stroke:rgb(0%,0%,0%);stroke-opacity:1;stroke-miterlimit:10;" d="M 0.954531 0.486211 L 0.596406 0.486211 L 0.0454687 0.513789 Z M 0.954531 0.486211 " transform="matrix(100,0,0,100,300,7250)"/>
<path style="fill:none;stroke-width:0.01;stroke-linecap:butt;stroke-linejoin:miter;stroke:rgb(0%,0%,0%);stroke-opacity:1;stroke-miterlimit:10;" d="M 0.954531 0.474023 L 0.435078 0.5 L 0.0454688 0.525977 Z M 0.954531 0.474023 " transform="matrix(100,0,0,100,450,7250)"/>
<path style="fill:none;stroke-width:0.01;stroke-linecap:butt;stroke-linejoin:miter;stroke:rgb(0%,0%,0%);stroke-opacity:1;stroke-miterlimit:10;" d="M 0.920859 0.432656 L 0.752539 0.432656 L 0.735703 0.466328 L 0.129648 0.449492 L 0.0623047 0.449492 L 0.0454688 0.483164 L 0.112813 0.5 L 0.718867 0.516836 L 0.752539 0.550508 L 0.803047 0.550508 L 0.904023 0.567344 L 0.920859 0.567344 L 0.954531 0.5 Z M 0.920859 0.432656 " transform="matrix(100,0,0,100,600,7250)"/>
<path style="fill:none;stroke-width:0.01;stroke-linecap:butt;stroke-linejoin:miter;stroke:rgb(0%,0%,0%);stroke-opacity:1;stroke-miterlimit:10;" d="M 0.954531 0.644609 L 0.954531 0.314063 L 0.582656 0.355391 L 0.0454688 0.438008 L 0.0454688 0.561992 L 0.5 0.644609 L 0.830586 0.685938 Z M 0.954531 0.644609 " transform="matrix(100,0,0,100,0,7400)"/>
<path style="fill:none;stroke-width:0.01;stroke-linecap:butt;stroke-linejoin:miter;stroke:rgb(0%,0%,0%);stroke-opacity:1;stroke-miterlimit:10;" d="M 0.954531 0.754531 L 0.954531 0.245469 L 0.627266 0.354531 L 0.0454687 0.463633 L 0.336367 0.572734 L 0.845469 0.681836 Z M 0.954531 0.754531 " transform="matrix(100,0,0,100,150,7400)"/>
<path style="fill:none;stroke-width:0.01;stroke-linecap:butt;stroke-linejoin:miter;stroke:rgb(0%,0%,0%);stroke-opacity:1;stroke-miterlimit:10;" d="M 0.796445 0.164023 L 0.282617 0.243086 L 0.0454687 0.322148 L 0.0849609 0.480234 L 0.203555 0.598828 L 0.243086 0.717383 L 0.519766 0.717383 L 0.796445 0.796445 L 0.915039 0.835977 L 0.954531 0.638359 L 0.954531 0.322148 Z M 0.796445 0.164023 " transform="matrix(100,0,0,100,300,7400)"/>
<path style="fill:none;stroke-width:0.01;stroke-linecap:butt;stroke-linejoin:miter;stroke:rgb(0%,0%,0%);stroke-opacity:1;stroke-miterlimit:10;" d="M 0.840898 0.178047 L 0.5 0.215898 L 0.234844 0.29168 L 0.0833203 0.367422 L 0.0454688 0.518945 L 0.0833203 0.670469 L 0.348477 0.746211 L 0.575742 0.821953 L 0.803047 0.821953 L 0.954531 0.746211 L 0.954531 0.481055 L 0.91668 0.367422 Z M 0.840898 0.178047 " transform="matrix(100,0,0,100,450,7400)"/>
</g>
</svg>
