<?xml version="1.0" encoding="UTF-8"?>
<svg xmlns="http://www.w3.org/2000/svg" xmlns:xlink="http://www.w3.org/1999/xlink" width="750pt" height="15200pt" viewBox="0 0 750 15200" version="1.1">
<g id="surface1">
<path style="fill:none;stroke-width:0.01;stroke-linecap:butt;stroke-linejoin:miter;stroke:rgb(0%,0%,0%);stroke-opacity:1;stroke-miterlimit:10;" d="M 0.777773 0.0791406 L 0.222227 0.0454687 L 0.239063 0.954531 L 0.777773 0.920859 Z M 0.777773 0.0791406 " transform="matrix(100,0,0,100,0,200)"/>
<path style="fill:none;stroke-width:0.01;stroke-linecap:butt;stroke-linejoin:miter;stroke:rgb(0%,0%,0%);stroke-opacity:1;stroke-miterlimit:10;" d="M 0.954531 0.069375 L 0.0933203 0.069375 L 0.0454687 0.882773 L 0.954531 0.930625 Z M 0.954531 0.069375 " transform="matrix(100,0,0,100,150,200)"/>
<path style="fill:none;stroke-width:0.01;stroke-linecap:butt;stroke-linejoin:miter;stroke:rgb(0%,0%,0%);stroke-opacity:1;stroke-miterlimit:10;" d="M 0.136367 0.0454687 L 0.227266 0.954531 L 0.863633 0.954531 L 0.863633 0.0454687 Z M 0.136367 0.0454687 " transform="matrix(100,0,0,100,300,200)"/>
<path style="fill:none;stroke-width:0.01;stroke-linecap:butt;stroke-linejoin:miter;stroke:rgb(0%,0%,0%);stroke-opacity:1;stroke-miterlimit:10;" d="M 0.244336 0.935625 L 0.755664 0.954531 L 0.736758 0.0454687 L 0.263242 0.0454687 Z M 0.244336 0.935625 " transform="matrix(100,0,0,100,450,200)"/>
<path style="fill:none;stroke-width:0.01;stroke-linecap:butt;stroke-linejoin:miter;stroke:rgb(0%,0%,0%);stroke-opacity:1;stroke-miterlimit:10;" d="M 0.858398 0.0629297 L 0.141602 0.0454687 L 0.141602 0.93707 L 0.840898 0.954531 Z M 0.858398 0.0629297 " transform="matrix(100,0,0,100,600,200)"/>
<path style="fill:none;stroke-width:0.01;stroke-linecap:butt;stroke-linejoin:miter;stroke:rgb(0%,0%,0%);stroke-opacity:1;stroke-miterlimit:10;" d="M 0.789258 0.0454687 L 0.210742 0.0454687 L 0.210742 0.954531 L 0.789258 0.913242 Z M 0.789258 0.0454687 " transform="matrix(100,0,0,100,0,350)"/>
<path style="fill:none;stroke-width:0.01;stroke-linecap:butt;stroke-linejoin:miter;stroke:rgb(0%,0%,0%);stroke-opacity:1;stroke-miterlimit:10;" d="M 0.954531 0.430078 L 0.0454687 0.472031 L 0.0454687 0.569922 L 0.954531 0.541953 Z M 0.954531 0.430078 " transform="matrix(100,0,0,100,150,350)"/>
<path style="fill:none;stroke-width:0.01;stroke-linecap:butt;stroke-linejoin:miter;stroke:rgb(0%,0%,0%);stroke-opacity:1;stroke-miterlimit:10;" d="M 0.0454687 0.46707 L 0.0586328 0.572461 L 0.954531 0.53293 L 0.954531 0.427539 Z M 0.0454687 0.46707 " transform="matrix(100,0,0,100,300,350)"/>
<path style="fill:none;stroke-width:0.01;stroke-linecap:butt;stroke-linejoin:miter;stroke:rgb(0%,0%,0%);stroke-opacity:1;stroke-miterlimit:10;" d="M 0.954531 0.534453 L 0.954531 0.424258 L 0.0454688 0.493125 L 0.0592188 0.575742 Z M 0.954531 0.534453 " transform="matrix(100,0,0,100,450,350)"/>
<path style="fill:none;stroke-width:0.01;stroke-linecap:butt;stroke-linejoin:miter;stroke:rgb(0%,0%,0%);stroke-opacity:1;stroke-miterlimit:10;" d="M 0.706602 0.0454687 L 0.25207 0.0454687 L 0.293398 0.954531 L 0.74793 0.954531 Z M 0.706602 0.0454687 " transform="matrix(100,0,0,100,600,350)"/>
<path style="fill:none;stroke-width:0.01;stroke-linecap:butt;stroke-linejoin:miter;stroke:rgb(0%,0%,0%);stroke-opacity:1;stroke-miterlimit:10;" d="M 0.0454688 0.5 L 0.0454688 0.249219 L 0.954531 0.562695 L 0.923203 0.750781 Z M 0.0454688 0.5 " transform="matrix(100,0,0,100,0,500)"/>
<path style="fill:none;stroke-width:0.01;stroke-linecap:butt;stroke-linejoin:miter;stroke:rgb(0%,0%,0%);stroke-opacity:1;stroke-miterlimit:10;" d="M 0.0454687 0.382148 L 0.0454687 0.617852 L 0.954531 0.617852 L 0.954531 0.382148 Z M 0.0454687 0.382148 " transform="matrix(100,0,0,100,150,500)"/>
<path style="fill:none;stroke-width:0.01;stroke-linecap:butt;stroke-linejoin:miter;stroke:rgb(0%,0%,0%);stroke-opacity:1;stroke-miterlimit:10;" d="M 0.697617 0.0454688 L 0.737148 0.835977 L 0.697617 0.915039 L 0.618594 0.954531 L 0.460469 0.954531 L 0.302383 0.875508 L 0.262852 0.0849609 Z M 0.697617 0.0454688 " transform="matrix(100,0,0,100,300,500)"/>
<path style="fill:none;stroke-width:0.01;stroke-linecap:butt;stroke-linejoin:miter;stroke:rgb(0%,0%,0%);stroke-opacity:1;stroke-miterlimit:10;" d="M 0.0454688 0.702031 L 0.0454688 0.297969 L 0.920859 0.331641 L 0.954531 0.702031 Z M 0.0454688 0.702031 " transform="matrix(100,0,0,100,450,500)"/>
<path style="fill:none;stroke-width:0.01;stroke-linecap:butt;stroke-linejoin:miter;stroke:rgb(0%,0%,0%);stroke-opacity:1;stroke-miterlimit:10;" d="M 0.954531 0.0867578 L 0.0454688 0.169414 L 0.0454688 0.830586 L 0.954531 0.913242 Z M 0.954531 0.0867578 " transform="matrix(100,0,0,100,600,500)"/>
<path style="fill:none;stroke-width:0.01;stroke-linecap:butt;stroke-linejoin:miter;stroke:rgb(0%,0%,0%);stroke-opacity:1;stroke-miterlimit:10;" d="M 0.954531 0.210742 L 0.0454688 0.210742 L 0.0454688 0.789258 L 0.871914 0.789258 Z M 0.954531 0.210742 " transform="matrix(100,0,0,100,0,650)"/>
<path style="fill:none;stroke-width:0.01;stroke-linecap:butt;stroke-linejoin:miter;stroke:rgb(0%,0%,0%);stroke-opacity:1;stroke-miterlimit:10;" d="M 0.947812 0.405742 L 0.0521875 0.432656 L 0.0454687 0.594258 L 0.954531 0.553867 Z M 0.947812 0.405742 " transform="matrix(100,0,0,100,150,650)"/>
<path style="fill:none;stroke-width:0.01;stroke-linecap:butt;stroke-linejoin:miter;stroke:rgb(0%,0%,0%);stroke-opacity:1;stroke-miterlimit:10;" d="M 0.289141 0.0454688 L 0.448438 0.954531 L 0.710859 0.945156 L 0.589023 0.0454688 Z M 0.289141 0.0454688 " transform="matrix(100,0,0,100,300,650)"/>
<path style="fill:none;stroke-width:0.01;stroke-linecap:butt;stroke-linejoin:miter;stroke:rgb(0%,0%,0%);stroke-opacity:1;stroke-miterlimit:10;" d="M 0.824688 0.954531 L 0.159102 0.93832 L 0.175313 0.0454688 L 0.711055 0.0454688 L 0.711055 0.288945 L 0.775977 0.370117 L 0.792227 0.48375 L 0.808438 0.564922 L 0.824688 0.678555 L 0.840898 0.905859 Z M 0.824688 0.954531 " transform="matrix(100,0,0,100,450,650)"/>
<path style="fill:none;stroke-width:0.01;stroke-linecap:butt;stroke-linejoin:miter;stroke:rgb(0%,0%,0%);stroke-opacity:1;stroke-miterlimit:10;" d="M 0.795469 0.0568359 L 0.204531 0.0454688 L 0.215898 0.920469 L 0.784102 0.954531 Z M 0.795469 0.0568359 " transform="matrix(100,0,0,100,600,650)"/>
<path style="fill:none;stroke-width:0.01;stroke-linecap:butt;stroke-linejoin:miter;stroke:rgb(0%,0%,0%);stroke-opacity:1;stroke-miterlimit:10;" d="M 0.0454688 0.417344 L 0.871914 0.169414 L 0.954531 0.293398 L 0.293398 0.5 L 0.871914 0.74793 L 0.871914 0.830586 Z M 0.0454688 0.417344 " transform="matrix(100,0,0,100,0,800)"/>
<path style="fill:none;stroke-width:0.01;stroke-linecap:butt;stroke-linejoin:miter;stroke:rgb(0%,0%,0%);stroke-opacity:1;stroke-miterlimit:10;" d="M 0.232617 0.0989453 L 0.286094 0.954531 L 0.767383 0.954531 L 0.767383 0.0454687 Z M 0.232617 0.0989453 " transform="matrix(100,0,0,100,150,800)"/>
<path style="fill:none;stroke-width:0.01;stroke-linecap:butt;stroke-linejoin:miter;stroke:rgb(0%,0%,0%);stroke-opacity:1;stroke-miterlimit:10;" d="M 0.628359 0.0668359 L 0.382344 0.0454687 L 0.371641 0.933164 L 0.617656 0.954531 Z M 0.628359 0.0668359 " transform="matrix(100,0,0,100,300,800)"/>
<path style="fill:none;stroke-width:0.01;stroke-linecap:butt;stroke-linejoin:miter;stroke:rgb(0%,0%,0%);stroke-opacity:1;stroke-miterlimit:10;" d="M 0.954531 0.188984 L 0.0454688 0.236836 L 0.0454688 0.811016 L 0.954531 0.811016 Z M 0.954531 0.188984 " transform="matrix(100,0,0,100,450,800)"/>
<path style="fill:none;stroke-width:0.01;stroke-linecap:butt;stroke-linejoin:miter;stroke:rgb(0%,0%,0%);stroke-opacity:1;stroke-miterlimit:10;" d="M 0.0454688 0.171719 L 0.0454688 0.828281 L 0.954531 0.828281 L 0.954531 0.171719 Z M 0.0454688 0.171719 " transform="matrix(100,0,0,100,600,800)"/>
<path style="fill:none;stroke-width:0.01;stroke-linecap:butt;stroke-linejoin:miter;stroke:rgb(0%,0%,0%);stroke-opacity:1;stroke-miterlimit:10;" d="M 0.954531 0.272734 L 0.0454688 0.272734 L 0.0454688 0.66668 L 0.954531 0.727266 Z M 0.954531 0.272734 " transform="matrix(100,0,0,100,0,950)"/>
<path style="fill:none;stroke-width:0.01;stroke-linecap:butt;stroke-linejoin:miter;stroke:rgb(0%,0%,0%);stroke-opacity:1;stroke-miterlimit:10;" d="M 0.923203 0.264883 L 0.0454687 0.327578 L 0.0767969 0.735117 L 0.954531 0.672422 Z M 0.923203 0.264883 " transform="matrix(100,0,0,100,150,950)"/>
<path style="fill:none;stroke-width:0.01;stroke-linecap:butt;stroke-linejoin:miter;stroke:rgb(0%,0%,0%);stroke-opacity:1;stroke-miterlimit:10;" d="M 0.404297 0.248789 L 0.0454687 0.679414 L 0.595703 0.799062 L 0.954531 0.392344 L 0.858867 0.344492 L 0.930625 0.224883 L 0.858867 0.344492 L 0.571758 0.296641 L 0.667461 0.200938 L 0.571758 0.296641 Z M 0.404297 0.248789 " transform="matrix(100,0,0,100,300,950)"/>
<path style="fill:none;stroke-width:0.01;stroke-linecap:butt;stroke-linejoin:miter;stroke:rgb(0%,0%,0%);stroke-opacity:1;stroke-miterlimit:10;" d="M 0.7 0.281836 L 0.0454688 0.463633 L 0.263633 0.718164 L 0.954531 0.645469 Z M 0.7 0.281836 " transform="matrix(100,0,0,100,450,950)"/>
<path style="fill:none;stroke-width:0.01;stroke-linecap:butt;stroke-linejoin:miter;stroke:rgb(0%,0%,0%);stroke-opacity:1;stroke-miterlimit:10;" d="M 0.210742 0.314063 L 0.0454688 0.685937 L 0.706602 0.685937 L 0.954531 0.314063 Z M 0.210742 0.314063 " transform="matrix(100,0,0,100,600,950)"/>
<path style="fill:none;stroke-width:0.01;stroke-linecap:butt;stroke-linejoin:miter;stroke:rgb(0%,0%,0%);stroke-opacity:1;stroke-miterlimit:10;" d="M 0.954531 0.130664 L 0.0454688 0.1875 L 0.0454688 0.869336 L 0.954531 0.8125 Z M 0.954531 0.130664 " transform="matrix(100,0,0,100,0,1100)"/>
<path style="fill:none;stroke-width:0.01;stroke-linecap:butt;stroke-linejoin:miter;stroke:rgb(0%,0%,0%);stroke-opacity:1;stroke-miterlimit:10;" d="M 0.409805 0.0779297 L 0.398984 0.146445 L 0.395391 0.326836 L 0.395391 0.507227 L 0.402578 0.691211 L 0.413438 0.867969 L 0.431445 0.954531 L 0.604609 0.954531 L 0.597422 0.878789 L 0.590195 0.694805 L 0.582969 0.507227 L 0.579375 0.316016 L 0.590195 0.139258 L 0.593789 0.0454687 L 0.406211 0.0454687 Z M 0.409805 0.0779297 " transform="matrix(100,0,0,100,150,1100)"/>
<path style="fill:none;stroke-width:0.01;stroke-linecap:butt;stroke-linejoin:miter;stroke:rgb(0%,0%,0%);stroke-opacity:1;stroke-miterlimit:10;" d="M 0.203555 0.0849609 L 0.440703 0.954531 L 0.796445 0.928203 L 0.638359 0.0454687 Z M 0.203555 0.0849609 " transform="matrix(100,0,0,100,300,1100)"/>
<path style="fill:none;stroke-width:0.01;stroke-linecap:butt;stroke-linejoin:miter;stroke:rgb(0%,0%,0%);stroke-opacity:1;stroke-miterlimit:10;" d="M 0.664141 0.0454687 L 0.260117 0.0454687 L 0.386367 0.954531 L 0.739883 0.954531 Z M 0.664141 0.0454687 " transform="matrix(100,0,0,100,450,1100)"/>
<path style="fill:none;stroke-width:0.01;stroke-linecap:butt;stroke-linejoin:miter;stroke:rgb(0%,0%,0%);stroke-opacity:1;stroke-miterlimit:10;" d="M 0.651523 0.0454687 L 0.386367 0.064375 L 0.348477 0.954531 L 0.632578 0.954531 Z M 0.651523 0.0454687 " transform="matrix(100,0,0,100,600,1100)"/>
<path style="fill:none;stroke-width:0.01;stroke-linecap:butt;stroke-linejoin:miter;stroke:rgb(0%,0%,0%);stroke-opacity:1;stroke-miterlimit:10;" d="M 0.0454688 0.25207 L 0.0730078 0.803047 L 0.954531 0.74793 L 0.954531 0.196953 Z M 0.0454688 0.25207 " transform="matrix(100,0,0,100,0,1250)"/>
<path style="fill:none;stroke-width:0.01;stroke-linecap:butt;stroke-linejoin:miter;stroke:rgb(0%,0%,0%);stroke-opacity:1;stroke-miterlimit:10;" d="M 0.0454687 0.1925 L 0.0454687 0.8075 L 0.954531 0.8075 L 0.927812 0.1925 Z M 0.0454687 0.1925 " transform="matrix(100,0,0,100,150,1250)"/>
<path style="fill:none;stroke-width:0.01;stroke-linecap:butt;stroke-linejoin:miter;stroke:rgb(0%,0%,0%);stroke-opacity:1;stroke-miterlimit:10;" d="M 0.233906 0.0898047 L 0.233906 0.954531 L 0.766094 0.932383 L 0.766094 0.0454687 Z M 0.233906 0.0898047 " transform="matrix(100,0,0,100,300,1250)"/>
<path style="fill:none;stroke-width:0.01;stroke-linecap:butt;stroke-linejoin:miter;stroke:rgb(0%,0%,0%);stroke-opacity:1;stroke-miterlimit:10;" d="M 0.343516 0.954531 L 0.62668 0.954531 L 0.656484 0.0454687 L 0.37332 0.0603516 Z M 0.343516 0.954531 " transform="matrix(100,0,0,100,450,1250)"/>
<path style="fill:none;stroke-width:0.01;stroke-linecap:butt;stroke-linejoin:miter;stroke:rgb(0%,0%,0%);stroke-opacity:1;stroke-miterlimit:10;" d="M 0.0454688 0.409102 L 0.0454688 0.590898 L 0.954531 0.568164 L 0.954531 0.409102 Z M 0.0454688 0.409102 " transform="matrix(100,0,0,100,600,1250)"/>
<path style="fill:none;stroke-width:0.01;stroke-linecap:butt;stroke-linejoin:miter;stroke:rgb(0%,0%,0%);stroke-opacity:1;stroke-miterlimit:10;" d="M 0.606953 0.0454687 L 0.457227 0.0561328 L 0.393047 0.954531 L 0.553477 0.954531 Z M 0.606953 0.0454687 " transform="matrix(100,0,0,100,0,1400)"/>
<path style="fill:none;stroke-width:0.01;stroke-linecap:butt;stroke-linejoin:miter;stroke:rgb(0%,0%,0%);stroke-opacity:1;stroke-miterlimit:10;" d="M 0.603672 0.0454687 L 0.412266 0.0454687 L 0.396328 0.938594 L 0.587734 0.954531 Z M 0.603672 0.0454687 " transform="matrix(100,0,0,100,150,1400)"/>
<path style="fill:none;stroke-width:0.01;stroke-linecap:butt;stroke-linejoin:miter;stroke:rgb(0%,0%,0%);stroke-opacity:1;stroke-miterlimit:10;" d="M 0.615781 0.122656 L 0.650078 0.945977 L 0.401367 0.954531 L 0.349922 0.0626172 L 0.615781 0.0454687 Z M 0.615781 0.122656 " transform="matrix(100,0,0,100,300,1400)"/>
<path style="fill:none;stroke-width:0.01;stroke-linecap:butt;stroke-linejoin:miter;stroke:rgb(0%,0%,0%);stroke-opacity:1;stroke-miterlimit:10;" d="M 0.336563 0.0556641 L 0.408086 0.954531 L 0.663437 0.944336 L 0.622578 0.0454687 Z M 0.336563 0.0556641 " transform="matrix(100,0,0,100,450,1400)"/>
<path style="fill:none;stroke-width:0.01;stroke-linecap:butt;stroke-linejoin:miter;stroke:rgb(0%,0%,0%);stroke-opacity:1;stroke-miterlimit:10;" d="M 0.901055 0.232617 L 0.0989453 0.286094 L 0.0454688 0.767383 L 0.954531 0.767383 Z M 0.901055 0.232617 " transform="matrix(100,0,0,100,600,1400)"/>
<path style="fill:none;stroke-width:0.01;stroke-linecap:butt;stroke-linejoin:miter;stroke:rgb(0%,0%,0%);stroke-opacity:1;stroke-miterlimit:10;" d="M 0.954531 0.259375 L 0.0454688 0.259375 L 0.0454688 0.687148 L 0.901055 0.740625 Z M 0.954531 0.259375 " transform="matrix(100,0,0,100,0,1550)"/>
<path style="fill:none;stroke-width:0.01;stroke-linecap:butt;stroke-linejoin:miter;stroke:rgb(0%,0%,0%);stroke-opacity:1;stroke-miterlimit:10;" d="M 0.743906 0.0454687 L 0.344805 0.0676172 L 0.30043 0.55543 L 0.256094 0.621953 L 0.233906 0.710625 L 0.256094 0.821523 L 0.30043 0.843672 L 0.389141 0.910195 L 0.5 0.954531 L 0.655195 0.910195 L 0.743906 0.821523 L 0.766094 0.755 L 0.743906 0.621953 L 0.69957 0.577617 Z M 0.743906 0.0454687 " transform="matrix(100,0,0,100,150,1550)"/>
<path style="fill:none;stroke-width:0.01;stroke-linecap:butt;stroke-linejoin:miter;stroke:rgb(0%,0%,0%);stroke-opacity:1;stroke-miterlimit:10;" d="M 0.212422 0.351562 L 0.230977 0.258828 L 0.602031 0.221719 L 0.620586 0.277383 L 0.880352 0.258828 L 0.954531 0.240273 L 0.954531 0.295938 L 0.898906 0.370117 L 0.602031 0.407227 L 0.898906 0.407227 L 0.935977 0.425781 L 0.954531 0.481445 L 0.620586 0.518555 L 0.861797 0.5 L 0.880352 0.778281 L 0.583477 0.778281 L 0.583477 0.537109 L 0.453633 0.537109 L 0.546367 0.592773 L 0.564922 0.648438 L 0.360859 0.574219 L 0.249531 0.537109 L 0.230977 0.481445 L 0.193867 0.462891 L 0.156758 0.518555 L 0.101094 0.518555 L 0.0640234 0.444336 L 0.0454687 0.388672 L 0.119648 0.370117 L 0.138203 0.370117 Z M 0.212422 0.351562 " transform="matrix(100,0,0,100,300,1550)"/>
<path style="fill:none;stroke-width:0.01;stroke-linecap:butt;stroke-linejoin:miter;stroke:rgb(0%,0%,0%);stroke-opacity:1;stroke-miterlimit:10;" d="M 0.954531 0.821953 L 0.0454688 0.821953 L 0.0454688 0.178047 L 0.91668 0.178047 Z M 0.954531 0.821953 " transform="matrix(100,0,0,100,450,1550)"/>
<path style="fill:none;stroke-width:0.01;stroke-linecap:butt;stroke-linejoin:miter;stroke:rgb(0%,0%,0%);stroke-opacity:1;stroke-miterlimit:10;" d="M 0.954531 0.738086 L 0.0454688 0.694805 L 0.08875 0.261914 L 0.954531 0.261914 Z M 0.954531 0.738086 " transform="matrix(100,0,0,100,600,1550)"/>
<path style="fill:none;stroke-width:0.01;stroke-linecap:butt;stroke-linejoin:miter;stroke:rgb(0%,0%,0%);stroke-opacity:1;stroke-miterlimit:10;" d="M 0.954531 0.381953 L 0.930937 0.64168 L 0.0454688 0.64168 L 0.0454688 0.57082 L 0.0808594 0.511797 L 0.128086 0.42918 L 0.175313 0.39375 L 0.187148 0.35832 Z M 0.954531 0.381953 " transform="matrix(100,0,0,100,0,1700)"/>
<path style="fill:none;stroke-width:0.01;stroke-linecap:butt;stroke-linejoin:miter;stroke:rgb(0%,0%,0%);stroke-opacity:1;stroke-miterlimit:10;" d="M 0.0454687 0.631953 L 0.0454687 0.338711 L 0.925234 0.338711 L 0.954531 0.661289 Z M 0.0454687 0.631953 " transform="matrix(100,0,0,100,150,1700)"/>
<path style="fill:none;stroke-width:0.01;stroke-linecap:butt;stroke-linejoin:miter;stroke:rgb(0%,0%,0%);stroke-opacity:1;stroke-miterlimit:10;" d="M 0.954531 0.0454688 L 0.0454687 0.136367 L 0.0454687 0.863633 L 0.954531 0.954531 Z M 0.954531 0.0454688 " transform="matrix(100,0,0,100,300,1700)"/>
<path style="fill:none;stroke-width:0.01;stroke-linecap:butt;stroke-linejoin:miter;stroke:rgb(0%,0%,0%);stroke-opacity:1;stroke-miterlimit:10;" d="M 0.863633 0.0454688 L 0.172734 0.0818359 L 0.136367 0.954531 L 0.863633 0.918164 Z M 0.863633 0.0454688 " transform="matrix(100,0,0,100,450,1700)"/>
<path style="fill:none;stroke-width:0.01;stroke-linecap:butt;stroke-linejoin:miter;stroke:rgb(0%,0%,0%);stroke-opacity:1;stroke-miterlimit:10;" d="M 0.124492 0.22332 L 0.0454688 0.5 L 0.164023 0.737148 L 0.203555 0.816211 L 0.954531 0.855742 L 0.875508 0.816211 L 0.875508 0.183789 L 0.954531 0.144258 Z M 0.124492 0.22332 " transform="matrix(100,0,0,100,600,1700)"/>
<path style="fill:none;stroke-width:0.01;stroke-linecap:butt;stroke-linejoin:miter;stroke:rgb(0%,0%,0%);stroke-opacity:1;stroke-miterlimit:10;" d="M 0.0454688 0.209102 L 0.118164 0.863633 L 0.954531 0.718164 L 0.772734 0.681836 L 0.7 0.209102 L 0.918164 0.136367 Z M 0.0454688 0.209102 " transform="matrix(100,0,0,100,0,1850)"/>
<path style="fill:none;stroke-width:0.01;stroke-linecap:butt;stroke-linejoin:miter;stroke:rgb(0%,0%,0%);stroke-opacity:1;stroke-miterlimit:10;" d="M 0.0454687 0.361094 L 0.904023 0.310625 L 0.777773 0.335859 L 0.752539 0.638906 L 0.954531 0.664141 L 0.0454687 0.689375 Z M 0.0454687 0.361094 " transform="matrix(100,0,0,100,150,1850)"/>
<path style="fill:none;stroke-width:0.01;stroke-linecap:butt;stroke-linejoin:miter;stroke:rgb(0%,0%,0%);stroke-opacity:1;stroke-miterlimit:10;" d="M 0.0454687 0.366953 L 0.932383 0.278281 L 0.843672 0.30043 L 0.821523 0.655195 L 0.954531 0.655195 L 0.0454687 0.721719 Z M 0.0454687 0.366953 " transform="matrix(100,0,0,100,300,1850)"/>
<path style="fill:none;stroke-width:0.01;stroke-linecap:butt;stroke-linejoin:miter;stroke:rgb(0%,0%,0%);stroke-opacity:1;stroke-miterlimit:10;" d="M 0.920859 0.466328 L 0.533672 0.483164 L 0.533672 0.314805 L 0.0623047 0.331641 L 0.0454688 0.651523 L 0.533672 0.685195 L 0.550508 0.533672 L 0.954531 0.516836 Z M 0.920859 0.466328 " transform="matrix(100,0,0,100,450,1850)"/>
<path style="fill:none;stroke-width:0.01;stroke-linecap:butt;stroke-linejoin:miter;stroke:rgb(0%,0%,0%);stroke-opacity:1;stroke-miterlimit:10;" d="M 0.0454688 0.0779297 L 0.110391 0.92207 L 0.694805 0.92207 L 0.694805 0.337656 L 0.954531 0.337656 L 0.694805 0.272734 L 0.629883 0.0779297 Z M 0.0454688 0.0779297 " transform="matrix(100,0,0,100,600,1850)"/>
<path style="fill:none;stroke-width:0.01;stroke-linecap:butt;stroke-linejoin:miter;stroke:rgb(0%,0%,0%);stroke-opacity:1;stroke-miterlimit:10;" d="M 0.954531 0.069375 L 0.0454688 0.165078 L 0.0454688 0.930625 L 0.90668 0.882773 Z M 0.954531 0.069375 " transform="matrix(100,0,0,100,0,2000)"/>
<path style="fill:none;stroke-width:0.01;stroke-linecap:butt;stroke-linejoin:miter;stroke:rgb(0%,0%,0%);stroke-opacity:1;stroke-miterlimit:10;" d="M 0.954531 0.106055 L 0.106055 0.106055 L 0.0454687 0.893945 L 0.954531 0.893945 Z M 0.954531 0.106055 " transform="matrix(100,0,0,100,150,2000)"/>
<path style="fill:none;stroke-width:0.01;stroke-linecap:butt;stroke-linejoin:miter;stroke:rgb(0%,0%,0%);stroke-opacity:1;stroke-miterlimit:10;" d="M 0.954531 0.178047 L 0.0454687 0.253789 L 0.0454687 0.821953 L 0.954531 0.821953 Z M 0.954531 0.178047 " transform="matrix(100,0,0,100,300,2000)"/>
<path style="fill:none;stroke-width:0.01;stroke-linecap:butt;stroke-linejoin:miter;stroke:rgb(0%,0%,0%);stroke-opacity:1;stroke-miterlimit:10;" d="M 0.793242 0.0454688 L 0.206758 0.104102 L 0.206758 0.954531 L 0.763945 0.925234 Z M 0.793242 0.0454688 " transform="matrix(100,0,0,100,450,2000)"/>
<path style="fill:none;stroke-width:0.01;stroke-linecap:butt;stroke-linejoin:miter;stroke:rgb(0%,0%,0%);stroke-opacity:1;stroke-miterlimit:10;" d="M 0.599414 0.0454688 L 0.34375 0.0454688 L 0.372148 0.954531 L 0.65625 0.954531 Z M 0.599414 0.0454688 " transform="matrix(100,0,0,100,600,2000)"/>
<path style="fill:none;stroke-width:0.01;stroke-linecap:butt;stroke-linejoin:miter;stroke:rgb(0%,0%,0%);stroke-opacity:1;stroke-miterlimit:10;" d="M 0.0611328 0.0454688 L 0.0611328 0.923203 L 0.938867 0.954531 L 0.938867 0.0454688 Z M 0.0611328 0.0454688 " transform="matrix(100,0,0,100,0,2150)"/>
<path style="fill:none;stroke-width:0.01;stroke-linecap:butt;stroke-linejoin:miter;stroke:rgb(0%,0%,0%);stroke-opacity:1;stroke-miterlimit:10;" d="M 0.867148 0.954531 L 0.0978906 0.954531 L 0.167852 0.0454688 L 0.902109 0.0454688 Z M 0.867148 0.954531 " transform="matrix(100,0,0,100,150,2150)"/>
<path style="fill:none;stroke-width:0.01;stroke-linecap:butt;stroke-linejoin:miter;stroke:rgb(0%,0%,0%);stroke-opacity:1;stroke-miterlimit:10;" d="M 0.954531 0.144258 L 0.0454687 0.183789 L 0.0454687 0.855742 L 0.954531 0.77668 Z M 0.954531 0.144258 " transform="matrix(100,0,0,100,300,2150)"/>
<path style="fill:none;stroke-width:0.01;stroke-linecap:butt;stroke-linejoin:miter;stroke:rgb(0%,0%,0%);stroke-opacity:1;stroke-miterlimit:10;" d="M 0.185313 0.954531 L 0.814687 0.954531 L 0.884609 0.0454688 L 0.115391 0.0454688 Z M 0.185313 0.954531 " transform="matrix(100,0,0,100,450,2150)"/>
<path style="fill:none;stroke-width:0.01;stroke-linecap:butt;stroke-linejoin:miter;stroke:rgb(0%,0%,0%);stroke-opacity:1;stroke-miterlimit:10;" d="M 0.175313 0.110391 L 0.175313 0.954531 L 0.824688 0.954531 L 0.824688 0.0454688 Z M 0.175313 0.110391 " transform="matrix(100,0,0,100,600,2150)"/>
<path style="fill:none;stroke-width:0.01;stroke-linecap:butt;stroke-linejoin:miter;stroke:rgb(0%,0%,0%);stroke-opacity:1;stroke-miterlimit:10;" d="M 0.9 0.0454688 L 0.1 0.0454688 L 0.1 0.918164 L 0.9 0.954531 Z M 0.9 0.0454688 " transform="matrix(100,0,0,100,0,2300)"/>
<path style="fill:none;stroke-width:0.01;stroke-linecap:butt;stroke-linejoin:miter;stroke:rgb(0%,0%,0%);stroke-opacity:1;stroke-miterlimit:10;" d="M 0.548555 0.473516 L 0.954531 0.473516 L 0.945703 0.517656 L 0.28375 0.508828 L 0.28375 0.632383 L 0.0454687 0.632383 L 0.0454687 0.367617 L 0.28375 0.367617 L 0.274922 0.482344 Z M 0.548555 0.473516 " transform="matrix(100,0,0,100,150,2300)"/>
<path style="fill:none;stroke-width:0.01;stroke-linecap:butt;stroke-linejoin:miter;stroke:rgb(0%,0%,0%);stroke-opacity:1;stroke-miterlimit:10;" d="M 0.942109 0.730391 L 0.954531 0.269609 L 0.0454687 0.28207 L 0.0454687 0.668125 Z M 0.942109 0.730391 " transform="matrix(100,0,0,100,300,2300)"/>
<path style="fill:none;stroke-width:0.01;stroke-linecap:butt;stroke-linejoin:miter;stroke:rgb(0%,0%,0%);stroke-opacity:1;stroke-miterlimit:10;" d="M 0.954531 0.0908984 L 0.0454688 0.0908984 L 0.0454688 0.909102 L 0.954531 0.909102 Z M 0.954531 0.0908984 " transform="matrix(100,0,0,100,450,2300)"/>
<path style="fill:none;stroke-width:0.01;stroke-linecap:butt;stroke-linejoin:miter;stroke:rgb(0%,0%,0%);stroke-opacity:1;stroke-miterlimit:10;" d="M 0.0804297 0.115391 L 0.150352 0.954531 L 0.91957 0.954531 L 0.884609 0.0454688 Z M 0.0804297 0.115391 " transform="matrix(100,0,0,100,600,2300)"/>
<path style="fill:none;stroke-width:0.01;stroke-linecap:butt;stroke-linejoin:miter;stroke:rgb(0%,0%,0%);stroke-opacity:1;stroke-miterlimit:10;" d="M 0.0454688 0.207773 L 0.240273 0.727266 L 0.954531 0.792227 L 0.889609 0.207773 Z M 0.0454688 0.207773 " transform="matrix(100,0,0,100,0,2450)"/>
<path style="fill:none;stroke-width:0.01;stroke-linecap:butt;stroke-linejoin:miter;stroke:rgb(0%,0%,0%);stroke-opacity:1;stroke-miterlimit:10;" d="M 0.954531 0.750781 L 0.0454687 0.782148 L 0.0454687 0.217852 L 0.954531 0.249219 Z M 0.954531 0.750781 " transform="matrix(100,0,0,100,150,2450)"/>
<path style="fill:none;stroke-width:0.01;stroke-linecap:butt;stroke-linejoin:miter;stroke:rgb(0%,0%,0%);stroke-opacity:1;stroke-miterlimit:10;" d="M 0.893945 0.742422 L 0.0454687 0.681836 L 0.106055 0.257578 L 0.954531 0.318164 Z M 0.893945 0.742422 " transform="matrix(100,0,0,100,300,2450)"/>
<path style="fill:none;stroke-width:0.01;stroke-linecap:butt;stroke-linejoin:miter;stroke:rgb(0%,0%,0%);stroke-opacity:1;stroke-miterlimit:10;" d="M 0.885664 0.0454688 L 0.0592188 0.100547 L 0.0867578 0.954531 L 0.940781 0.926992 Z M 0.885664 0.0454688 " transform="matrix(100,0,0,100,450,2450)"/>
<path style="fill:none;stroke-width:0.01;stroke-linecap:butt;stroke-linejoin:miter;stroke:rgb(0%,0%,0%);stroke-opacity:1;stroke-miterlimit:10;" d="M 0.0454688 0.0454688 L 0.0454688 0.954531 L 0.954531 0.91125 L 0.954531 0.0454688 Z M 0.0454688 0.0454688 " transform="matrix(100,0,0,100,600,2450)"/>
<path style="fill:none;stroke-width:0.01;stroke-linecap:butt;stroke-linejoin:miter;stroke:rgb(0%,0%,0%);stroke-opacity:1;stroke-miterlimit:10;" d="M 0.0747656 0.162773 L 0.954531 0.133437 L 0.954531 0.866563 L 0.0454688 0.837227 Z M 0.0747656 0.162773 " transform="matrix(100,0,0,100,0,2600)"/>
<path style="fill:none;stroke-width:0.01;stroke-linecap:butt;stroke-linejoin:miter;stroke:rgb(0%,0%,0%);stroke-opacity:1;stroke-miterlimit:10;" d="M 0.0454687 0.117227 L 0.0933203 0.930625 L 0.954531 0.882773 L 0.954531 0.069375 Z M 0.0454687 0.117227 " transform="matrix(100,0,0,100,150,2600)"/>
<path style="fill:none;stroke-width:0.01;stroke-linecap:butt;stroke-linejoin:miter;stroke:rgb(0%,0%,0%);stroke-opacity:1;stroke-miterlimit:10;" d="M 0.0454687 0.278555 L 0.06875 0.721445 L 0.954531 0.721445 L 0.90793 0.301875 Z M 0.0454687 0.278555 " transform="matrix(100,0,0,100,300,2600)"/>
<path style="fill:none;stroke-width:0.01;stroke-linecap:butt;stroke-linejoin:miter;stroke:rgb(0%,0%,0%);stroke-opacity:1;stroke-miterlimit:10;" d="M 0.595039 0.0867578 L 0.524805 0.954531 L 0.404961 0.954531 L 0.417344 0.462813 L 0.454531 0.0495703 L 0.590898 0.0454688 Z M 0.595039 0.0867578 " transform="matrix(100,0,0,100,450,2600)"/>
<path style="fill:none;stroke-width:0.01;stroke-linecap:butt;stroke-linejoin:miter;stroke:rgb(0%,0%,0%);stroke-opacity:1;stroke-miterlimit:10;" d="M 0.393047 0.0454688 L 0.125664 0.152422 L 0.0721875 0.473281 L 0.179141 0.794102 L 0.286094 0.954531 L 0.606953 0.954531 L 0.820859 0.847578 L 0.927812 0.473281 L 0.874336 0.152422 L 0.66043 0.0989453 Z M 0.393047 0.0454688 " transform="matrix(100,0,0,100,600,2600)"/>
<path style="fill:none;stroke-width:0.01;stroke-linecap:butt;stroke-linejoin:miter;stroke:rgb(0%,0%,0%);stroke-opacity:1;stroke-miterlimit:10;" d="M 0.759727 0.0454688 L 0.207773 0.0454688 L 0.272734 0.954531 L 0.792227 0.92207 Z M 0.759727 0.0454688 " transform="matrix(100,0,0,100,0,2750)"/>
<path style="fill:none;stroke-width:0.01;stroke-linecap:butt;stroke-linejoin:miter;stroke:rgb(0%,0%,0%);stroke-opacity:1;stroke-miterlimit:10;" d="M 0.136367 0.0454688 L 0.0757422 0.893945 L 0.924258 0.954531 L 0.924258 0.0454688 Z M 0.136367 0.0454688 " transform="matrix(100,0,0,100,150,2750)"/>
<path style="fill:none;stroke-width:0.01;stroke-linecap:butt;stroke-linejoin:miter;stroke:rgb(0%,0%,0%);stroke-opacity:1;stroke-miterlimit:10;" d="M 0.954531 0.447734 L 0.0454687 0.426836 L 0.0454687 0.541797 L 0.954531 0.573164 Z M 0.954531 0.447734 " transform="matrix(100,0,0,100,300,2750)"/>
<path style="fill:none;stroke-width:0.01;stroke-linecap:butt;stroke-linejoin:miter;stroke:rgb(0%,0%,0%);stroke-opacity:1;stroke-miterlimit:10;" d="M 0.454531 0.613633 L 0.0454688 0.568164 L 0.0454688 0.340898 L 0.954531 0.340898 L 0.954531 0.659102 Z M 0.454531 0.613633 " transform="matrix(100,0,0,100,450,2750)"/>
<path style="fill:none;stroke-width:0.01;stroke-linecap:butt;stroke-linejoin:miter;stroke:rgb(0%,0%,0%);stroke-opacity:1;stroke-miterlimit:10;" d="M 0.0933203 0.117227 L 0.0454688 0.930625 L 0.858867 0.930625 L 0.954531 0.069375 Z M 0.0933203 0.117227 " transform="matrix(100,0,0,100,600,2750)"/>
<path style="fill:none;stroke-width:0.01;stroke-linecap:butt;stroke-linejoin:miter;stroke:rgb(0%,0%,0%);stroke-opacity:1;stroke-miterlimit:10;" d="M 0.924258 0.893945 L 0.924258 0.106055 L 0.0757422 0.0454688 L 0.0757422 0.954531 Z M 0.924258 0.893945 " transform="matrix(100,0,0,100,0,2900)"/>
<path style="fill:none;stroke-width:0.01;stroke-linecap:butt;stroke-linejoin:miter;stroke:rgb(0%,0%,0%);stroke-opacity:1;stroke-miterlimit:10;" d="M 0.954531 0.924258 L 0.954531 0.0757422 L 0.0454687 0.0757422 L 0.16668 0.924258 Z M 0.954531 0.924258 " transform="matrix(100,0,0,100,150,2900)"/>
<path style="fill:none;stroke-width:0.01;stroke-linecap:butt;stroke-linejoin:miter;stroke:rgb(0%,0%,0%);stroke-opacity:1;stroke-miterlimit:10;" d="M 0.159102 0.954531 L 0.159102 0.0454688 L 0.840898 0.0454688 L 0.840898 0.954531 Z M 0.159102 0.954531 " transform="matrix(100,0,0,100,300,2900)"/>
<path style="fill:none;stroke-width:0.01;stroke-linecap:butt;stroke-linejoin:miter;stroke:rgb(0%,0%,0%);stroke-opacity:1;stroke-miterlimit:10;" d="M 0.0908984 0.136367 L 0.0908984 0.863633 L 0.818164 0.954531 L 0.909102 0.0454688 Z M 0.0908984 0.136367 " transform="matrix(100,0,0,100,450,2900)"/>
<path style="fill:none;stroke-width:0.01;stroke-linecap:butt;stroke-linejoin:miter;stroke:rgb(0%,0%,0%);stroke-opacity:1;stroke-miterlimit:10;" d="M 0.954531 0.238281 L 0.0730078 0.210742 L 0.0454688 0.789258 L 0.926992 0.761719 Z M 0.954531 0.238281 " transform="matrix(100,0,0,100,600,2900)"/>
<path style="fill:none;stroke-width:0.01;stroke-linecap:butt;stroke-linejoin:miter;stroke:rgb(0%,0%,0%);stroke-opacity:1;stroke-miterlimit:10;" d="M 0.954531 0.719922 L 0.0454688 0.690625 L 0.0454688 0.485352 L 0.162773 0.485352 L 0.162773 0.280078 L 0.162773 0.456016 L 0.866563 0.514648 L 0.866563 0.309375 L 0.866563 0.485352 L 0.954531 0.485352 Z M 0.954531 0.719922 " transform="matrix(100,0,0,100,0,3050)"/>
<path style="fill:none;stroke-width:0.01;stroke-linecap:butt;stroke-linejoin:miter;stroke:rgb(0%,0%,0%);stroke-opacity:1;stroke-miterlimit:10;" d="M 0.954531 0.803047 L 0.0454687 0.803047 L 0.0454687 0.257578 L 0.954531 0.196953 Z M 0.954531 0.803047 " transform="matrix(100,0,0,100,150,3050)"/>
<path style="fill:none;stroke-width:0.01;stroke-linecap:butt;stroke-linejoin:miter;stroke:rgb(0%,0%,0%);stroke-opacity:1;stroke-miterlimit:10;" d="M 0.727266 0.0707031 L 0.297969 0.0454688 L 0.272734 0.651523 L 0.297969 0.954531 L 0.297969 0.651523 L 0.676758 0.676758 L 0.651523 0.954531 Z M 0.727266 0.0707031 " transform="matrix(100,0,0,100,300,3050)"/>
<path style="fill:none;stroke-width:0.01;stroke-linecap:butt;stroke-linejoin:miter;stroke:rgb(0%,0%,0%);stroke-opacity:1;stroke-miterlimit:10;" d="M 0.827266 0.954531 L 0.172734 0.954531 L 0.209102 0.336367 L 0.245469 0.0818359 L 0.245469 0.3 L 0.827266 0.3 L 0.827266 0.0454688 Z M 0.827266 0.954531 " transform="matrix(100,0,0,100,450,3050)"/>
<path style="fill:none;stroke-width:0.01;stroke-linecap:butt;stroke-linejoin:miter;stroke:rgb(0%,0%,0%);stroke-opacity:1;stroke-miterlimit:10;" d="M 0.954531 0.434023 L 0.0601172 0.404688 L 0.0454688 0.580664 L 0.939883 0.595313 Z M 0.954531 0.434023 " transform="matrix(100,0,0,100,600,3050)"/>
<path style="fill:none;stroke-width:0.01;stroke-linecap:butt;stroke-linejoin:miter;stroke:rgb(0%,0%,0%);stroke-opacity:1;stroke-miterlimit:10;" d="M 0.954531 0.194219 L 0.177695 0.144609 L 0.0454688 0.855391 L 0.888437 0.855391 Z M 0.954531 0.194219 " transform="matrix(100,0,0,100,0,3200)"/>
<path style="fill:none;stroke-width:0.01;stroke-linecap:butt;stroke-linejoin:miter;stroke:rgb(0%,0%,0%);stroke-opacity:1;stroke-miterlimit:10;" d="M 0.913242 0.355391 L 0.0454687 0.355391 L 0.0867578 0.644609 L 0.954531 0.644609 Z M 0.913242 0.355391 " transform="matrix(100,0,0,100,150,3200)"/>
<path style="fill:none;stroke-width:0.01;stroke-linecap:butt;stroke-linejoin:miter;stroke:rgb(0%,0%,0%);stroke-opacity:1;stroke-miterlimit:10;" d="M 0.954531 0.814687 L 0.954531 0.185313 L 0.0454687 0.185313 L 0.0454687 0.814687 Z M 0.954531 0.814687 " transform="matrix(100,0,0,100,300,3200)"/>
<path style="fill:none;stroke-width:0.01;stroke-linecap:butt;stroke-linejoin:miter;stroke:rgb(0%,0%,0%);stroke-opacity:1;stroke-miterlimit:10;" d="M 0.0454688 0.45043 L 0.0619922 0.54957 L 0.954531 0.566133 L 0.954531 0.433867 Z M 0.0454688 0.45043 " transform="matrix(100,0,0,100,450,3200)"/>
<path style="fill:none;stroke-width:0.01;stroke-linecap:butt;stroke-linejoin:miter;stroke:rgb(0%,0%,0%);stroke-opacity:1;stroke-miterlimit:10;" d="M 0.657344 0.0454687 L 0.307695 0.0804297 L 0.307695 0.954531 L 0.692305 0.91957 Z M 0.657344 0.0454687 " transform="matrix(100,0,0,100,600,3200)"/>
<path style="fill:none;stroke-width:0.01;stroke-linecap:butt;stroke-linejoin:miter;stroke:rgb(0%,0%,0%);stroke-opacity:1;stroke-miterlimit:10;" d="M 0.853555 0.0454687 L 0.146445 0.0959766 L 0.146445 0.954531 L 0.853555 0.954531 Z M 0.853555 0.0454687 " transform="matrix(100,0,0,100,0,3350)"/>
<path style="fill:none;stroke-width:0.01;stroke-linecap:butt;stroke-linejoin:miter;stroke:rgb(0%,0%,0%);stroke-opacity:1;stroke-miterlimit:10;" d="M 0.91125 0.0454687 L 0.132031 0.08875 L 0.08875 0.91125 L 0.91125 0.954531 Z M 0.91125 0.0454687 " transform="matrix(100,0,0,100,150,3350)"/>
<path style="fill:none;stroke-width:0.01;stroke-linecap:butt;stroke-linejoin:miter;stroke:rgb(0%,0%,0%);stroke-opacity:1;stroke-miterlimit:10;" d="M 0.0454687 0.406406 L 0.179141 0.66043 L 0.954531 0.593594 L 0.914453 0.33957 Z M 0.0454687 0.406406 " transform="matrix(100,0,0,100,300,3350)"/>
<path style="fill:none;stroke-width:0.01;stroke-linecap:butt;stroke-linejoin:miter;stroke:rgb(0%,0%,0%);stroke-opacity:1;stroke-miterlimit:10;" d="M 0.06875 0.400937 L 0.208633 0.634023 L 0.954531 0.575742 L 0.90793 0.365977 L 0.0454688 0.365977 Z M 0.06875 0.400937 " transform="matrix(100,0,0,100,450,3350)"/>
<path style="fill:none;stroke-width:0.01;stroke-linecap:butt;stroke-linejoin:miter;stroke:rgb(0%,0%,0%);stroke-opacity:1;stroke-miterlimit:10;" d="M 0.954531 0.413789 L 0.0611328 0.429453 L 0.0454688 0.53918 L 0.954531 0.586211 Z M 0.954531 0.413789 " transform="matrix(100,0,0,100,600,3350)"/>
<path style="fill:none;stroke-width:0.01;stroke-linecap:butt;stroke-linejoin:miter;stroke:rgb(0%,0%,0%);stroke-opacity:1;stroke-miterlimit:10;" d="M 0.945898 0.404766 L 0.954531 0.586562 L 0.0454688 0.595234 L 0.0454688 0.448047 Z M 0.945898 0.404766 " transform="matrix(100,0,0,100,0,3500)"/>
<path style="fill:none;stroke-width:0.01;stroke-linecap:butt;stroke-linejoin:miter;stroke:rgb(0%,0%,0%);stroke-opacity:1;stroke-miterlimit:10;" d="M 0.954531 0.372148 L 0.0454687 0.372148 L 0.0454687 0.627852 L 0.954531 0.627852 Z M 0.954531 0.372148 " transform="matrix(100,0,0,100,150,3500)"/>
<path style="fill:none;stroke-width:0.01;stroke-linecap:butt;stroke-linejoin:miter;stroke:rgb(0%,0%,0%);stroke-opacity:1;stroke-miterlimit:10;" d="M 0.93125 0.593242 L 0.954531 0.406758 L 0.06875 0.406758 L 0.0454687 0.546602 Z M 0.93125 0.593242 " transform="matrix(100,0,0,100,300,3500)"/>
<path style="fill:none;stroke-width:0.01;stroke-linecap:butt;stroke-linejoin:miter;stroke:rgb(0%,0%,0%);stroke-opacity:1;stroke-miterlimit:10;" d="M 0.910195 0.344805 L 0.0676172 0.366953 L 0.0454688 0.566523 L 0.710625 0.588711 L 0.732813 0.655195 L 0.954531 0.655195 Z M 0.910195 0.344805 " transform="matrix(100,0,0,100,450,3500)"/>
<path style="fill:none;stroke-width:0.01;stroke-linecap:butt;stroke-linejoin:miter;stroke:rgb(0%,0%,0%);stroke-opacity:1;stroke-miterlimit:10;" d="M 0.954531 0.243086 L 0.0454688 0.322148 L 0.0454688 0.756914 L 0.954531 0.756914 Z M 0.954531 0.243086 " transform="matrix(100,0,0,100,600,3500)"/>
<path style="fill:none;stroke-width:0.01;stroke-linecap:butt;stroke-linejoin:miter;stroke:rgb(0%,0%,0%);stroke-opacity:1;stroke-miterlimit:10;" d="M 0.759727 0.0454687 L 0.240273 0.0454687 L 0.272734 0.92207 L 0.759727 0.954531 Z M 0.759727 0.0454687 " transform="matrix(100,0,0,100,0,3650)"/>
<path style="fill:none;stroke-width:0.01;stroke-linecap:butt;stroke-linejoin:miter;stroke:rgb(0%,0%,0%);stroke-opacity:1;stroke-miterlimit:10;" d="M 0.954531 0.840898 L 0.0833203 0.840898 L 0.0454687 0.159102 L 0.954531 0.159102 Z M 0.954531 0.840898 " transform="matrix(100,0,0,100,150,3650)"/>
<path style="fill:none;stroke-width:0.01;stroke-linecap:butt;stroke-linejoin:miter;stroke:rgb(0%,0%,0%);stroke-opacity:1;stroke-miterlimit:10;" d="M 0.279219 0.0454687 L 0.279219 0.954531 L 0.694805 0.954531 L 0.720781 0.0454687 Z M 0.279219 0.0454687 " transform="matrix(100,0,0,100,300,3650)"/>
<path style="fill:none;stroke-width:0.01;stroke-linecap:butt;stroke-linejoin:miter;stroke:rgb(0%,0%,0%);stroke-opacity:1;stroke-miterlimit:10;" d="M 0.0454688 0.424258 L 0.0571094 0.564102 L 0.954531 0.575742 L 0.954531 0.447539 Z M 0.0454688 0.424258 " transform="matrix(100,0,0,100,450,3650)"/>
<path style="fill:none;stroke-width:0.01;stroke-linecap:butt;stroke-linejoin:miter;stroke:rgb(0%,0%,0%);stroke-opacity:1;stroke-miterlimit:10;" d="M 0.926992 0.692852 L 0.0730078 0.720391 L 0.0454688 0.307148 L 0.954531 0.279609 Z M 0.926992 0.692852 " transform="matrix(100,0,0,100,600,3650)"/>
<path style="fill:none;stroke-width:0.01;stroke-linecap:butt;stroke-linejoin:miter;stroke:rgb(0%,0%,0%);stroke-opacity:1;stroke-miterlimit:10;" d="M 0.90668 0.236836 L 0.954531 0.763164 L 0.0454688 0.763164 L 0.0454688 0.858867 L 0.0933203 0.141133 L 0.0454688 0.284688 L 0.236836 0.332539 Z M 0.90668 0.236836 " transform="matrix(100,0,0,100,0,3800)"/>
<path style="fill:none;stroke-width:0.01;stroke-linecap:butt;stroke-linejoin:miter;stroke:rgb(0%,0%,0%);stroke-opacity:1;stroke-miterlimit:10;" d="M 0.954531 0.319219 L 0.0454687 0.339883 L 0.0454687 0.680781 L 0.954531 0.649805 L 0.789258 0.639453 L 0.79957 0.329531 Z M 0.954531 0.319219 " transform="matrix(100,0,0,100,150,3800)"/>
<path style="fill:none;stroke-width:0.01;stroke-linecap:butt;stroke-linejoin:miter;stroke:rgb(0%,0%,0%);stroke-opacity:1;stroke-miterlimit:10;" d="M 0.39668 0.0454687 L 0.355391 0.954531 L 0.355391 0.74793 L 0.520664 0.789258 L 0.644609 0.0454687 Z M 0.39668 0.0454687 " transform="matrix(100,0,0,100,300,3800)"/>
<path style="fill:none;stroke-width:0.01;stroke-linecap:butt;stroke-linejoin:miter;stroke:rgb(0%,0%,0%);stroke-opacity:1;stroke-miterlimit:10;" d="M 0.779727 0.307695 L 0.954531 0.412578 L 0.954531 0.727266 L 0.0454688 0.727266 L 0.0804297 0.272734 L 0.779727 0.5175 Z M 0.779727 0.307695 " transform="matrix(100,0,0,100,450,3800)"/>
<path style="fill:none;stroke-width:0.01;stroke-linecap:butt;stroke-linejoin:miter;stroke:rgb(0%,0%,0%);stroke-opacity:1;stroke-miterlimit:10;" d="M 0.954531 0.192188 L 0.747422 0.192188 L 0.0454688 0.807813 L 0.574805 0.80207 Z M 0.954531 0.192188 " transform="matrix(100,0,0,100,600,3800)"/>
<path style="fill:none;stroke-width:0.01;stroke-linecap:butt;stroke-linejoin:miter;stroke:rgb(0%,0%,0%);stroke-opacity:1;stroke-miterlimit:10;" d="M 0.221406 0.382695 L 0.456016 0.206758 L 0.749258 0.11875 L 0.954531 0.206758 L 0.954531 0.470664 L 0.837227 0.617305 L 0.661289 0.763945 L 0.456016 0.88125 L 0.250742 0.88125 L 0.104102 0.822578 L 0.0454688 0.705273 L 0.0747656 0.558633 L 0.162773 0.470664 Z M 0.221406 0.382695 " transform="matrix(100,0,0,100,0,3950)"/>
<path style="fill:none;stroke-width:0.01;stroke-linecap:butt;stroke-linejoin:miter;stroke:rgb(0%,0%,0%);stroke-opacity:1;stroke-miterlimit:10;" d="M 0.954531 0.366328 L 0.223711 0.312852 L 0.0454687 0.615859 L 0.758477 0.687148 Z M 0.954531 0.366328 " transform="matrix(100,0,0,100,150,3950)"/>
<path style="fill:none;stroke-width:0.01;stroke-linecap:butt;stroke-linejoin:miter;stroke:rgb(0%,0%,0%);stroke-opacity:1;stroke-miterlimit:10;" d="M 0.954531 0.263984 L 0.290195 0.246484 L 0.0454687 0.683555 L 0.709805 0.753516 Z M 0.954531 0.263984 " transform="matrix(100,0,0,100,300,3950)"/>
<path style="fill:none;stroke-width:0.01;stroke-linecap:butt;stroke-linejoin:miter;stroke:rgb(0%,0%,0%);stroke-opacity:1;stroke-miterlimit:10;" d="M 0.954531 0.263242 L 0.272734 0.225391 L 0.0454688 0.736758 L 0.765156 0.774609 Z M 0.954531 0.263242 " transform="matrix(100,0,0,100,450,3950)"/>
<path style="fill:none;stroke-width:0.01;stroke-linecap:butt;stroke-linejoin:miter;stroke:rgb(0%,0%,0%);stroke-opacity:1;stroke-miterlimit:10;" d="M 0.90668 0.356445 L 0.90668 0.069375 L 0.0454688 0.069375 L 0.0933203 0.930625 L 0.954531 0.930625 Z M 0.90668 0.356445 " transform="matrix(100,0,0,100,600,3950)"/>
<path style="fill:none;stroke-width:0.01;stroke-linecap:butt;stroke-linejoin:miter;stroke:rgb(0%,0%,0%);stroke-opacity:1;stroke-miterlimit:10;" d="M 0.0454688 0.175313 L 0.0454688 0.824688 L 0.954531 0.824688 L 0.954531 0.240273 Z M 0.0454688 0.175313 " transform="matrix(100,0,0,100,0,4100)"/>
<path style="fill:none;stroke-width:0.01;stroke-linecap:butt;stroke-linejoin:miter;stroke:rgb(0%,0%,0%);stroke-opacity:1;stroke-miterlimit:10;" d="M 0.0454687 0.803047 L 0.0454687 0.121211 L 0.954531 0.272734 L 0.878789 0.878789 Z M 0.0454687 0.803047 " transform="matrix(100,0,0,100,150,4100)"/>
<path style="fill:none;stroke-width:0.01;stroke-linecap:butt;stroke-linejoin:miter;stroke:rgb(0%,0%,0%);stroke-opacity:1;stroke-miterlimit:10;" d="M 0.121211 0.840898 L 0.0454687 0.234844 L 0.954531 0.159102 L 0.878789 0.840898 Z M 0.121211 0.840898 " transform="matrix(100,0,0,100,300,4100)"/>
<path style="fill:none;stroke-width:0.01;stroke-linecap:butt;stroke-linejoin:miter;stroke:rgb(0%,0%,0%);stroke-opacity:1;stroke-miterlimit:10;" d="M 0.923398 0.0454687 L 0.101484 0.0578906 L 0.0766016 0.942109 L 0.923398 0.954531 Z M 0.923398 0.0454687 " transform="matrix(100,0,0,100,450,4100)"/>
<path style="fill:none;stroke-width:0.01;stroke-linecap:butt;stroke-linejoin:miter;stroke:rgb(0%,0%,0%);stroke-opacity:1;stroke-miterlimit:10;" d="M 0.272734 0.0804297 L 0.272734 0.954531 L 0.727266 0.954531 L 0.727266 0.0454687 Z M 0.272734 0.0804297 " transform="matrix(100,0,0,100,600,4100)"/>
<path style="fill:none;stroke-width:0.01;stroke-linecap:butt;stroke-linejoin:miter;stroke:rgb(0%,0%,0%);stroke-opacity:1;stroke-miterlimit:10;" d="M 0.954531 0.391094 L 0.116484 0.386367 L 0.0454688 0.613633 L 0.945078 0.613633 L 0.954531 0.518945 L 0.954531 0.481055 Z M 0.954531 0.391094 " transform="matrix(100,0,0,100,0,4250)"/>
<path style="fill:none;stroke-width:0.01;stroke-linecap:butt;stroke-linejoin:miter;stroke:rgb(0%,0%,0%);stroke-opacity:1;stroke-miterlimit:10;" d="M 0.0454687 0.840898 L 0.0454687 0.159102 L 0.878789 0.159102 L 0.954531 0.840898 Z M 0.0454687 0.840898 " transform="matrix(100,0,0,100,150,4250)"/>
<path style="fill:none;stroke-width:0.01;stroke-linecap:butt;stroke-linejoin:miter;stroke:rgb(0%,0%,0%);stroke-opacity:1;stroke-miterlimit:10;" d="M 0.453633 0.611328 L 0.0454687 0.629883 L 0.0454687 0.407227 L 0.435078 0.370117 L 0.453633 0.444336 L 0.954531 0.462891 L 0.472187 0.481445 Z M 0.453633 0.611328 " transform="matrix(100,0,0,100,300,4250)"/>
<path style="fill:none;stroke-width:0.01;stroke-linecap:butt;stroke-linejoin:miter;stroke:rgb(0%,0%,0%);stroke-opacity:1;stroke-miterlimit:10;" d="M 0.530312 0.681836 L 0.0454688 0.651523 L 0.0454688 0.318164 L 0.560625 0.318164 L 0.560625 0.469687 L 0.954531 0.5 L 0.530312 0.5 Z M 0.530312 0.681836 " transform="matrix(100,0,0,100,450,4250)"/>
<path style="fill:none;stroke-width:0.01;stroke-linecap:butt;stroke-linejoin:miter;stroke:rgb(0%,0%,0%);stroke-opacity:1;stroke-miterlimit:10;" d="M 0.0454688 0.824688 L 0.954531 0.824688 L 0.954531 0.175313 L 0.0454688 0.175313 Z M 0.0454688 0.824688 " transform="matrix(100,0,0,100,600,4250)"/>
<path style="fill:none;stroke-width:0.01;stroke-linecap:butt;stroke-linejoin:miter;stroke:rgb(0%,0%,0%);stroke-opacity:1;stroke-miterlimit:10;" d="M 0.0454688 0.215898 L 0.0454688 0.784102 L 0.954531 0.784102 L 0.954531 0.215898 Z M 0.0454688 0.215898 " transform="matrix(100,0,0,100,0,4400)"/>
<path style="fill:none;stroke-width:0.01;stroke-linecap:butt;stroke-linejoin:miter;stroke:rgb(0%,0%,0%);stroke-opacity:1;stroke-miterlimit:10;" d="M 0.0454687 0.784102 L 0.159102 0.215898 L 0.954531 0.215898 L 0.954531 0.784102 Z M 0.0454687 0.784102 " transform="matrix(100,0,0,100,150,4400)"/>
<path style="fill:none;stroke-width:0.01;stroke-linecap:butt;stroke-linejoin:miter;stroke:rgb(0%,0%,0%);stroke-opacity:1;stroke-miterlimit:10;" d="M 0.815664 0.651523 L 0.840898 0.0454687 L 0.159102 0.0959766 L 0.159102 0.929297 L 0.840898 0.954531 Z M 0.815664 0.651523 " transform="matrix(100,0,0,100,300,4400)"/>
<path style="fill:none;stroke-width:0.01;stroke-linecap:butt;stroke-linejoin:miter;stroke:rgb(0%,0%,0%);stroke-opacity:1;stroke-miterlimit:10;" d="M 0.0454688 0.0454687 L 0.863633 0.0454687 L 0.954531 0.954531 L 0.0454688 0.954531 Z M 0.0454688 0.0454687 " transform="matrix(100,0,0,100,450,4400)"/>
<path style="fill:none;stroke-width:0.01;stroke-linecap:butt;stroke-linejoin:miter;stroke:rgb(0%,0%,0%);stroke-opacity:1;stroke-miterlimit:10;" d="M 0.806133 0.119648 L 0.342305 0.119648 L 0.305195 0.0454687 L 0.193867 0.175313 L 0.193867 0.954531 L 0.32375 0.861797 L 0.787578 0.861797 Z M 0.806133 0.119648 " transform="matrix(100,0,0,100,600,4400)"/>
<path style="fill:none;stroke-width:0.01;stroke-linecap:butt;stroke-linejoin:miter;stroke:rgb(0%,0%,0%);stroke-opacity:1;stroke-miterlimit:10;" d="M 0.201719 0.0738672 L 0.144883 0.954531 L 0.798281 0.954531 L 0.855117 0.0454687 Z M 0.201719 0.0738672 " transform="matrix(100,0,0,100,0,4550)"/>
<path style="fill:none;stroke-width:0.01;stroke-linecap:butt;stroke-linejoin:miter;stroke:rgb(0%,0%,0%);stroke-opacity:1;stroke-miterlimit:10;" d="M 0.889609 0.240273 L 0.0454687 0.175313 L 0.0454687 0.824688 L 0.954531 0.824688 Z M 0.889609 0.240273 " transform="matrix(100,0,0,100,150,4550)"/>
<path style="fill:none;stroke-width:0.01;stroke-linecap:butt;stroke-linejoin:miter;stroke:rgb(0%,0%,0%);stroke-opacity:1;stroke-miterlimit:10;" d="M 0.954531 0.159102 L 0.0454687 0.234844 L 0.0454687 0.840898 L 0.878789 0.840898 Z M 0.954531 0.159102 " transform="matrix(100,0,0,100,300,4550)"/>
<path style="fill:none;stroke-width:0.01;stroke-linecap:butt;stroke-linejoin:miter;stroke:rgb(0%,0%,0%);stroke-opacity:1;stroke-miterlimit:10;" d="M 0.0454688 0.849648 L 0.0454688 0.150352 L 0.884609 0.150352 L 0.954531 0.849648 Z M 0.0454688 0.849648 " transform="matrix(100,0,0,100,450,4550)"/>
<path style="fill:none;stroke-width:0.01;stroke-linecap:butt;stroke-linejoin:miter;stroke:rgb(0%,0%,0%);stroke-opacity:1;stroke-miterlimit:10;" d="M 0.0454688 0.727266 L 0.110391 0.207773 L 0.889609 0.142852 L 0.954531 0.857148 Z M 0.0454688 0.727266 " transform="matrix(100,0,0,100,600,4550)"/>
<path style="fill:none;stroke-width:0.01;stroke-linecap:butt;stroke-linejoin:miter;stroke:rgb(0%,0%,0%);stroke-opacity:1;stroke-miterlimit:10;" d="M 0.954531 0.159102 L 0.0454688 0.159102 L 0.0454688 0.840898 L 0.954531 0.840898 Z M 0.954531 0.159102 " transform="matrix(100,0,0,100,0,4700)"/>
<path style="fill:none;stroke-width:0.01;stroke-linecap:butt;stroke-linejoin:miter;stroke:rgb(0%,0%,0%);stroke-opacity:1;stroke-miterlimit:10;" d="M 0.954531 0.0989453 L 0.0989453 0.0989453 L 0.0454687 0.901055 L 0.954531 0.901055 Z M 0.954531 0.0989453 " transform="matrix(100,0,0,100,150,4700)"/>
<path style="fill:none;stroke-width:0.01;stroke-linecap:butt;stroke-linejoin:miter;stroke:rgb(0%,0%,0%);stroke-opacity:1;stroke-miterlimit:10;" d="M 0.834922 0.954531 L 0.21293 0.954531 L 0.165078 0.0933203 L 0.834922 0.0454687 Z M 0.834922 0.954531 " transform="matrix(100,0,0,100,300,4700)"/>
<path style="fill:none;stroke-width:0.01;stroke-linecap:butt;stroke-linejoin:miter;stroke:rgb(0%,0%,0%);stroke-opacity:1;stroke-miterlimit:10;" d="M 0.743516 0.0454687 L 0.224023 0.0454687 L 0.224023 0.954531 L 0.775977 0.954531 Z M 0.743516 0.0454687 " transform="matrix(100,0,0,100,450,4700)"/>
<path style="fill:none;stroke-width:0.01;stroke-linecap:butt;stroke-linejoin:miter;stroke:rgb(0%,0%,0%);stroke-opacity:1;stroke-miterlimit:10;" d="M 0.954531 0.255234 L 0.0454688 0.325156 L 0.0454688 0.744766 L 0.884609 0.744766 Z M 0.954531 0.255234 " transform="matrix(100,0,0,100,600,4700)"/>
<path style="fill:none;stroke-width:0.01;stroke-linecap:butt;stroke-linejoin:miter;stroke:rgb(0%,0%,0%);stroke-opacity:1;stroke-miterlimit:10;" d="M 0.824688 0.727266 L 0.0454688 0.727266 L 0.0454688 0.337656 L 0.954531 0.272734 Z M 0.824688 0.727266 " transform="matrix(100,0,0,100,0,4850)"/>
<path style="fill:none;stroke-width:0.01;stroke-linecap:butt;stroke-linejoin:miter;stroke:rgb(0%,0%,0%);stroke-opacity:1;stroke-miterlimit:10;" d="M 0.954531 0.638477 L 0.0454687 0.638477 L 0.0490234 0.368594 L 0.237227 0.361523 L 0.212344 0.610078 L 0.954531 0.599414 Z M 0.954531 0.638477 " transform="matrix(100,0,0,100,150,4850)"/>
<path style="fill:none;stroke-width:0.01;stroke-linecap:butt;stroke-linejoin:miter;stroke:rgb(0%,0%,0%);stroke-opacity:1;stroke-miterlimit:10;" d="M 0.934766 0.173906 L 0.954531 0.826094 L 0.104727 0.806328 L 0.0454687 0.173906 Z M 0.934766 0.173906 " transform="matrix(100,0,0,100,300,4850)"/>
<path style="fill:none;stroke-width:0.01;stroke-linecap:butt;stroke-linejoin:miter;stroke:rgb(0%,0%,0%);stroke-opacity:1;stroke-miterlimit:10;" d="M 0.211523 0.412578 L 0.954531 0.421328 L 0.954531 0.596172 L 0.211523 0.587422 L 0.202813 0.622383 L 0.202813 0.648594 L 0.194063 0.666094 L 0.185313 0.674844 L 0.167852 0.683555 L 0.159102 0.613633 L 0.141602 0.631133 L 0.141602 0.552461 L 0.115391 0.569922 L 0.0891797 0.543711 L 0.0804297 0.50875 L 0.0629297 0.5175 L 0.0454688 0.50875 L 0.0454688 0.4825 L 0.0716797 0.473789 L 0.0891797 0.473789 L 0.0978906 0.430078 L 0.132852 0.456289 L 0.132852 0.368867 L 0.159102 0.377617 L 0.150352 0.325156 L 0.159102 0.316445 L 0.176563 0.325156 L 0.194063 0.342656 L 0.211523 0.377617 Z M 0.211523 0.412578 " transform="matrix(100,0,0,100,450,4850)"/>
<path style="fill:none;stroke-width:0.01;stroke-linecap:butt;stroke-linejoin:miter;stroke:rgb(0%,0%,0%);stroke-opacity:1;stroke-miterlimit:10;" d="M 0.621211 0.0959766 L 0.621211 0.0555469 L 0.611094 0.0454687 L 0.439375 0.0454687 L 0.398984 0.0555469 L 0.398984 0.0757422 L 0.378789 0.924258 L 0.378789 0.944453 L 0.398984 0.954531 L 0.58082 0.954531 L 0.601016 0.944453 L 0.601016 0.924258 Z M 0.621211 0.0959766 " transform="matrix(100,0,0,100,600,4850)"/>
<path style="fill:none;stroke-width:0.01;stroke-linecap:butt;stroke-linejoin:miter;stroke:rgb(0%,0%,0%);stroke-opacity:1;stroke-miterlimit:10;" d="M 0.954531 0.173906 L 0.0454688 0.213437 L 0.0454688 0.826094 L 0.954531 0.806328 Z M 0.954531 0.173906 " transform="matrix(100,0,0,100,0,5000)"/>
<path style="fill:none;stroke-width:0.01;stroke-linecap:butt;stroke-linejoin:miter;stroke:rgb(0%,0%,0%);stroke-opacity:1;stroke-miterlimit:10;" d="M 0.567227 0.954531 L 0.336758 0.935352 L 0.464805 0.051875 L 0.663242 0.0454687 Z M 0.567227 0.954531 " transform="matrix(100,0,0,100,150,5000)"/>
<path style="fill:none;stroke-width:0.01;stroke-linecap:butt;stroke-linejoin:miter;stroke:rgb(0%,0%,0%);stroke-opacity:1;stroke-miterlimit:10;" d="M 0.796445 0.895273 L 0.0454687 0.855742 L 0.203555 0.104727 L 0.954531 0.144258 Z M 0.796445 0.895273 " transform="matrix(100,0,0,100,300,5000)"/>
<path style="fill:none;stroke-width:0.01;stroke-linecap:butt;stroke-linejoin:miter;stroke:rgb(0%,0%,0%);stroke-opacity:1;stroke-miterlimit:10;" d="M 0.0454688 0.293398 L 0.0454688 0.871914 L 0.513789 0.844336 L 0.596406 0.816797 L 0.679062 0.871914 L 0.789258 0.844336 L 0.871914 0.734141 L 0.926992 0.679063 L 0.954531 0.596406 L 0.899453 0.513789 L 0.844336 0.403594 L 0.734141 0.320937 L 0.679062 0.265859 L 0.596406 0.238281 L 0.541328 0.265859 L 0.458672 0.265859 L 0.376016 0.238281 L 0.376016 0.128086 L 0.128086 0.128086 L 0.128086 0.293398 Z M 0.0454688 0.293398 " transform="matrix(100,0,0,100,450,5000)"/>
<path style="fill:none;stroke-width:0.01;stroke-linecap:butt;stroke-linejoin:miter;stroke:rgb(0%,0%,0%);stroke-opacity:1;stroke-miterlimit:10;" d="M 0.541914 0.0454687 L 0.449258 0.0454687 L 0.471328 0.954531 L 0.550742 0.954531 Z M 0.541914 0.0454687 " transform="matrix(100,0,0,100,600,5000)"/>
<path style="fill:none;stroke-width:0.01;stroke-linecap:butt;stroke-linejoin:miter;stroke:rgb(0%,0%,0%);stroke-opacity:1;stroke-miterlimit:10;" d="M 0.407734 0.0728125 L 0.407734 0.947695 L 0.592266 0.954531 L 0.592266 0.0454687 Z M 0.407734 0.0728125 " transform="matrix(100,0,0,100,0,5150)"/>
<path style="fill:none;stroke-width:0.01;stroke-linecap:butt;stroke-linejoin:miter;stroke:rgb(0%,0%,0%);stroke-opacity:1;stroke-miterlimit:10;" d="M 0.3975 0.954531 L 0.620312 0.954531 L 0.620312 0.0454687 L 0.379687 0.0454687 Z M 0.3975 0.954531 " transform="matrix(100,0,0,100,150,5150)"/>
</g>
</svg>
