<?xml version="1.0" encoding="UTF-8"?>
<svg xmlns="http://www.w3.org/2000/svg" xmlns:xlink="http://www.w3.org/1999/xlink" width="750pt" height="13600pt" viewBox="0 0 750 13600" version="1.1">
<g id="surface1">
<path style="fill:none;stroke-width:0.01;stroke-linecap:butt;stroke-linejoin:miter;stroke:rgb(0%,0%,0%);stroke-opacity:1;stroke-miterlimit:10;" d="M 0.549414 0.0652344 L 0.588945 0.401172 L 0.628477 0.737148 L 0.588945 0.934766 L 0.529648 0.954531 L 0.470352 0.737148 L 0.450586 0.519766 L 0.411055 0.401172 L 0.391289 0.282617 L 0.371523 0.183789 L 0.411055 0.124492 L 0.470352 0.0454687 Z M 0.549414 0.0652344 " transform="matrix(100,0,0,100,0,200)"/>
<path style="fill:none;stroke-width:0.01;stroke-linecap:butt;stroke-linejoin:miter;stroke:rgb(0%,0%,0%);stroke-opacity:1;stroke-miterlimit:10;" d="M 0.417344 0.913242 L 0.417344 0.789258 L 0.376016 0.665273 L 0.376016 0.417344 L 0.458672 0.293398 L 0.458672 0.0867578 L 0.5 0.0454687 L 0.582656 0.128086 L 0.582656 0.541328 L 0.623984 0.871914 L 0.541328 0.954531 Z M 0.417344 0.913242 " transform="matrix(100,0,0,100,150,200)"/>
<path style="fill:none;stroke-width:0.01;stroke-linecap:butt;stroke-linejoin:miter;stroke:rgb(0%,0%,0%);stroke-opacity:1;stroke-miterlimit:10;" d="M 0.5 0.0454687 L 0.430078 0.395117 L 0.360156 0.674844 L 0.5 0.954531 L 0.639844 0.884609 L 0.639844 0.534961 Z M 0.5 0.0454687 " transform="matrix(100,0,0,100,300,200)"/>
<path style="fill:none;stroke-width:0.01;stroke-linecap:butt;stroke-linejoin:miter;stroke:rgb(0%,0%,0%);stroke-opacity:1;stroke-miterlimit:10;" d="M 0.424258 0.0454687 L 0.348477 0.424258 L 0.424258 0.954531 L 0.651523 0.878789 L 0.651523 0.575742 Z M 0.424258 0.0454687 " transform="matrix(100,0,0,100,450,200)"/>
<path style="fill:none;stroke-width:0.01;stroke-linecap:butt;stroke-linejoin:miter;stroke:rgb(0%,0%,0%);stroke-opacity:1;stroke-miterlimit:10;" d="M 0.847578 0.936719 L 0.116758 0.954531 L 0.170234 0.722812 L 0.384141 0.241523 L 0.580195 0.116758 L 0.740625 0.0810937 L 0.847578 0.0454687 L 0.883242 0.0810937 Z M 0.847578 0.936719 " transform="matrix(100,0,0,100,600,200)"/>
<path style="fill:none;stroke-width:0.01;stroke-linecap:butt;stroke-linejoin:miter;stroke:rgb(0%,0%,0%);stroke-opacity:1;stroke-miterlimit:10;" d="M 0.575742 0.140156 L 0.537891 0.367422 L 0.424258 0.518945 L 0.234844 0.670469 L 0.0454688 0.784102 L 0.765156 0.859844 L 0.91668 0.784102 L 0.954531 0.518945 L 0.878789 0.405312 L 0.803047 0.253789 L 0.765156 0.140156 Z M 0.575742 0.140156 " transform="matrix(100,0,0,100,0,350)"/>
<path style="fill:none;stroke-width:0.01;stroke-linecap:butt;stroke-linejoin:miter;stroke:rgb(0%,0%,0%);stroke-opacity:1;stroke-miterlimit:10;" d="M 0.521641 0.91125 L 0.348477 0.91125 L 0.175312 0.694805 L 0.261914 0.391758 L 0.478359 0.175312 L 0.651523 0.0454687 L 0.824688 0.08875 L 0.824688 0.608242 L 0.651523 0.954531 Z M 0.521641 0.91125 " transform="matrix(100,0,0,100,150,350)"/>
<path style="fill:none;stroke-width:0.01;stroke-linecap:butt;stroke-linejoin:miter;stroke:rgb(0%,0%,0%);stroke-opacity:1;stroke-miterlimit:10;" d="M 0.411289 0.932383 L 0.366953 0.821523 L 0.322617 0.666289 L 0.389141 0.511094 L 0.433477 0.333711 L 0.522188 0.156328 L 0.544336 0.0454687 L 0.588711 0.0898047 L 0.610859 0.200664 L 0.588711 0.378047 L 0.610859 0.55543 L 0.633047 0.688477 L 0.677383 0.865859 L 0.633047 0.932383 L 0.566523 0.954531 Z M 0.411289 0.932383 " transform="matrix(100,0,0,100,300,350)"/>
<path style="fill:none;stroke-width:0.01;stroke-linecap:butt;stroke-linejoin:miter;stroke:rgb(0%,0%,0%);stroke-opacity:1;stroke-miterlimit:10;" d="M 0.469688 0.106055 L 0.530312 0.318164 L 0.590898 0.590898 L 0.681836 0.530312 L 0.742422 0.287891 L 0.803047 0.106055 L 0.863633 0.0454687 L 0.803047 0.469688 L 0.742422 0.772734 L 0.651523 0.863633 L 0.5 0.954531 L 0.378789 0.924258 L 0.227266 0.924258 L 0.196953 0.742422 L 0.136367 0.530312 L 0.227266 0.318164 L 0.348477 0.106055 Z M 0.469688 0.106055 " transform="matrix(100,0,0,100,450,350)"/>
<path style="fill:none;stroke-width:0.01;stroke-linecap:butt;stroke-linejoin:miter;stroke:rgb(0%,0%,0%);stroke-opacity:1;stroke-miterlimit:10;" d="M 0.709805 0.0454687 L 0.639844 0.465039 L 0.779727 0.814687 L 0.779727 0.954531 L 0.569922 0.744766 L 0.360156 0.604883 L 0.360156 0.325156 L 0.220273 0.0454687 Z M 0.709805 0.0454687 " transform="matrix(100,0,0,100,600,350)"/>
<path style="fill:none;stroke-width:0.01;stroke-linecap:butt;stroke-linejoin:miter;stroke:rgb(0%,0%,0%);stroke-opacity:1;stroke-miterlimit:10;" d="M 0.739219 0.882773 L 0.715313 0.0454688 L 0.619609 0.117227 L 0.523906 0.308594 L 0.452148 0.452148 L 0.404297 0.619609 L 0.356445 0.715313 L 0.284687 0.78707 L 0.260781 0.858867 L 0.284687 0.930625 L 0.452148 0.954531 L 0.547852 0.954531 Z M 0.739219 0.882773 " transform="matrix(100,0,0,100,0,500)"/>
<path style="fill:none;stroke-width:0.01;stroke-linecap:butt;stroke-linejoin:miter;stroke:rgb(0%,0%,0%);stroke-opacity:1;stroke-miterlimit:10;" d="M 0.417344 0.0921484 L 0.399375 0.10293 L 0.392188 0.120898 L 0.399375 0.135273 L 0.395781 0.146055 L 0.402969 0.16043 L 0.395781 0.178398 L 0.399375 0.203555 L 0.402969 0.225117 L 0.417344 0.253867 L 0.438906 0.311367 L 0.438906 0.322148 L 0.446094 0.350898 L 0.464063 0.365234 L 0.5 0.372422 L 0.514375 0.408359 L 0.525156 0.433516 L 0.52875 0.469453 L 0.532344 0.519766 L 0.535938 0.544922 L 0.535938 0.598828 L 0.5575 0.620391 L 0.553906 0.641914 L 0.550312 0.659883 L 0.546719 0.69582 L 0.543125 0.710195 L 0.5575 0.670664 L 0.546719 0.703008 L 0.5575 0.728164 L 0.575469 0.764102 L 0.568281 0.78207 L 0.589844 0.814414 L 0.597031 0.835977 L 0.593437 0.83957 L 0.600625 0.861133 L 0.600625 0.879102 L 0.597031 0.89707 L 0.607813 0.936562 L 0.604219 0.954531 L 0.600625 0.0921484 L 0.607813 0.0526563 L 0.514375 0.0454688 L 0.449688 0.0526563 L 0.402969 0.0526563 L 0.406562 0.0598437 L 0.406562 0.0849609 Z M 0.417344 0.0921484 " transform="matrix(100,0,0,100,150,500)"/>
<path style="fill:none;stroke-width:0.01;stroke-linecap:butt;stroke-linejoin:miter;stroke:rgb(0%,0%,0%);stroke-opacity:1;stroke-miterlimit:10;" d="M 0.616055 0.780469 L 0.635391 0.0454688 L 0.519336 0.161523 L 0.538672 0.277578 L 0.596719 0.335586 L 0.519336 0.432305 L 0.461328 0.509688 L 0.403281 0.645078 L 0.364609 0.722422 L 0.441992 0.780469 L 0.5 0.877187 L 0.538672 0.954531 L 0.616055 0.954531 Z M 0.616055 0.780469 " transform="matrix(100,0,0,100,300,500)"/>
<path style="fill:none;stroke-width:0.01;stroke-linecap:butt;stroke-linejoin:miter;stroke:rgb(0%,0%,0%);stroke-opacity:1;stroke-miterlimit:10;" d="M 0.628594 0.0454688 L 0.622617 0.117227 L 0.640547 0.141133 L 0.640547 0.284688 L 0.6525 0.326563 L 0.646523 0.727266 L 0.658477 0.739219 L 0.658477 0.936602 L 0.598672 0.948555 L 0.556836 0.954531 L 0.538867 0.936602 L 0.473086 0.942578 L 0.461133 0.912695 L 0.467109 0.876797 L 0.479063 0.799062 L 0.508984 0.763164 L 0.520938 0.727266 L 0.461133 0.721289 L 0.443164 0.691406 L 0.419258 0.655508 L 0.371406 0.631563 L 0.341523 0.613633 L 0.383359 0.58375 L 0.425234 0.505977 L 0.44918 0.488047 L 0.455156 0.440195 L 0.455156 0.410273 L 0.479063 0.39832 L 0.467109 0.362422 L 0.479063 0.344492 L 0.496992 0.320586 L 0.503008 0.248789 L 0.55082 0.218906 L 0.568789 0.200938 L 0.592695 0.165078 L 0.610664 0.123203 Z M 0.628594 0.0454688 " transform="matrix(100,0,0,100,450,500)"/>
<path style="fill:none;stroke-width:0.01;stroke-linecap:butt;stroke-linejoin:miter;stroke:rgb(0%,0%,0%);stroke-opacity:1;stroke-miterlimit:10;" d="M 0.888672 0.895273 L 0.0454688 0.88207 L 0.137695 0.684453 L 0.243086 0.618594 L 0.282617 0.460469 L 0.374844 0.368242 L 0.401172 0.394609 L 0.414375 0.460469 L 0.427539 0.513164 L 0.46707 0.565859 L 0.493398 0.552695 L 0.53293 0.513164 L 0.651523 0.5 L 0.717383 0.486836 L 0.730586 0.447305 L 0.717383 0.381406 L 0.717383 0.328711 L 0.809609 0.328711 L 0.822813 0.210156 L 0.835977 0.144258 L 0.835977 0.104727 L 0.862305 0.328711 L 0.901836 0.368242 L 0.954531 0.394609 L 0.941367 0.513164 L 0.954531 0.579063 L 0.875508 0.592227 Z M 0.888672 0.895273 " transform="matrix(100,0,0,100,600,500)"/>
<path style="fill:none;stroke-width:0.01;stroke-linecap:butt;stroke-linejoin:miter;stroke:rgb(0%,0%,0%);stroke-opacity:1;stroke-miterlimit:10;" d="M 0.606953 0.366328 L 0.553477 0.794102 L 0.606953 0.954531 L 0.446523 0.901055 L 0.393047 0.580195 L 0.393047 0.366328 L 0.5 0.0454688 Z M 0.606953 0.366328 " transform="matrix(100,0,0,100,0,650)"/>
<path style="fill:none;stroke-width:0.01;stroke-linecap:butt;stroke-linejoin:miter;stroke:rgb(0%,0%,0%);stroke-opacity:1;stroke-miterlimit:10;" d="M 0.645781 0.817305 L 0.645781 0.0626172 L 0.542891 0.0454688 L 0.560039 0.216992 L 0.525742 0.354219 L 0.457109 0.491406 L 0.354219 0.560039 L 0.371367 0.680117 L 0.422813 0.783008 L 0.491406 0.834492 L 0.560039 0.868789 L 0.628633 0.954531 Z M 0.645781 0.817305 " transform="matrix(100,0,0,100,150,650)"/>
<path style="fill:none;stroke-width:0.01;stroke-linecap:butt;stroke-linejoin:miter;stroke:rgb(0%,0%,0%);stroke-opacity:1;stroke-miterlimit:10;" d="M 0.796953 0.215156 L 0.772734 0.312109 L 0.784844 0.457578 L 0.760625 0.554531 L 0.736367 0.639375 L 0.724258 0.7 L 0.687891 0.760625 L 0.663633 0.796953 L 0.663633 0.869688 L 0.639375 0.918164 L 0.627266 0.954531 L 0.578789 0.918164 L 0.578789 0.869688 L 0.554531 0.83332 L 0.506055 0.748477 L 0.409102 0.627266 L 0.360625 0.421211 L 0.324258 0.396953 L 0.287891 0.384844 L 0.215156 0.324258 L 0.203047 0.275742 L 0.190898 0.215156 L 0.203047 0.154531 L 0.3 0.106055 L 0.384844 0.0696875 L 0.469688 0.0575781 L 0.530312 0.0575781 L 0.603047 0.0454688 L 0.627266 0.0818359 L 0.7 0.0939453 L 0.760625 0.118164 L 0.809102 0.16668 Z M 0.796953 0.215156 " transform="matrix(100,0,0,100,300,650)"/>
<path style="fill:none;stroke-width:0.01;stroke-linecap:butt;stroke-linejoin:miter;stroke:rgb(0%,0%,0%);stroke-opacity:1;stroke-miterlimit:10;" d="M 0.590898 0.0454688 L 0.686602 0.217695 L 0.753594 0.36125 L 0.791875 0.485664 L 0.811016 0.600469 L 0.801445 0.686602 L 0.791875 0.811016 L 0.791875 0.897148 L 0.715313 0.944961 L 0.657891 0.954531 L 0.619609 0.935391 L 0.523906 0.897148 L 0.409102 0.849297 L 0.332539 0.801445 L 0.303828 0.744023 L 0.275117 0.715313 L 0.246406 0.696172 L 0.246406 0.571758 L 0.217695 0.523906 L 0.198555 0.466523 L 0.188984 0.399531 L 0.188984 0.265547 L 0.217695 0.217695 L 0.275117 0.169844 L 0.294258 0.141133 L 0.303828 0.102852 L 0.313398 0.08375 L 0.35168 0.0550391 L 0.380391 0.0646094 L 0.418672 0.0741797 L 0.456953 0.0646094 L 0.533477 0.0646094 Z M 0.590898 0.0454688 " transform="matrix(100,0,0,100,450,650)"/>
<path style="fill:none;stroke-width:0.01;stroke-linecap:butt;stroke-linejoin:miter;stroke:rgb(0%,0%,0%);stroke-opacity:1;stroke-miterlimit:10;" d="M 0.290195 0.352656 L 0.280234 0.317695 L 0.265234 0.307695 L 0.230273 0.337656 L 0.205312 0.392617 L 0.195312 0.467539 L 0.165352 0.5125 L 0.145352 0.542461 L 0.135352 0.607383 L 0.110391 0.667344 L 0.0903906 0.707305 L 0.0604297 0.762227 L 0.0454688 0.802188 L 0.954531 0.807188 L 0.909609 0.727266 L 0.889609 0.697305 L 0.874609 0.622383 L 0.839648 0.5175 L 0.799688 0.422578 L 0.764727 0.357656 L 0.724766 0.397617 L 0.689805 0.447539 L 0.674844 0.437578 L 0.664844 0.362656 L 0.624883 0.382617 L 0.599883 0.357656 L 0.534961 0.302695 L 0.495 0.222773 L 0.455039 0.192813 L 0.420078 0.217773 L 0.355156 0.237773 L 0.340156 0.267734 L 0.325156 0.307695 L 0.315195 0.327656 Z M 0.290195 0.352656 " transform="matrix(100,0,0,100,600,650)"/>
<path style="fill:none;stroke-width:0.01;stroke-linecap:butt;stroke-linejoin:miter;stroke:rgb(0%,0%,0%);stroke-opacity:1;stroke-miterlimit:10;" d="M 0.574102 0.203555 L 0.653164 0.361641 L 0.761875 0.559297 L 0.791484 0.648203 L 0.831016 0.737148 L 0.821133 0.875508 L 0.831016 0.924883 L 0.821133 0.934766 L 0.821133 0.954531 L 0.722344 0.895273 L 0.643281 0.806328 L 0.583984 0.727266 L 0.46543 0.648203 L 0.366602 0.490117 L 0.267773 0.272734 L 0.208516 0.134375 L 0.168984 0.0454687 L 0.495078 0.0454687 L 0.504922 0.0849609 L 0.524687 0.114609 L 0.544453 0.164023 Z M 0.574102 0.203555 " transform="matrix(100,0,0,100,0,800)"/>
<path style="fill:none;stroke-width:0.01;stroke-linecap:butt;stroke-linejoin:miter;stroke:rgb(0%,0%,0%);stroke-opacity:1;stroke-miterlimit:10;" d="M 0.954531 0.183555 L 0.885508 0.310117 L 0.827969 0.402188 L 0.781914 0.47125 L 0.747422 0.563281 L 0.712891 0.632344 L 0.62082 0.735898 L 0.540273 0.793437 L 0.425195 0.850977 L 0.264102 0.712891 L 0.241094 0.689883 L 0.22957 0.655352 L 0.22957 0.574805 L 0.172031 0.459727 L 0.183555 0.356172 L 0.126016 0.344648 L 0.103008 0.333125 L 0.0684766 0.22957 L 0.0454687 0.149023 Z M 0.954531 0.183555 " transform="matrix(100,0,0,100,150,800)"/>
<path style="fill:none;stroke-width:0.01;stroke-linecap:butt;stroke-linejoin:miter;stroke:rgb(0%,0%,0%);stroke-opacity:1;stroke-miterlimit:10;" d="M 0.562266 0.194883 L 0.524922 0.331875 L 0.475078 0.493789 L 0.487539 0.556055 L 0.537344 0.605859 L 0.549805 0.668125 L 0.562266 0.805117 L 0.537344 0.879844 L 0.5 0.954531 L 0.437734 0.842461 L 0.425273 0.0578906 L 0.562266 0.0454687 L 0.574727 0.132617 Z M 0.562266 0.194883 " transform="matrix(100,0,0,100,300,800)"/>
<path style="fill:none;stroke-width:0.01;stroke-linecap:butt;stroke-linejoin:miter;stroke:rgb(0%,0%,0%);stroke-opacity:1;stroke-miterlimit:10;" d="M 0.367031 0.0454687 L 0.385 0.286211 L 0.377813 0.300586 L 0.381406 0.314961 L 0.385 0.325742 L 0.385 0.336523 L 0.381406 0.358086 L 0.370625 0.376016 L 0.385 0.404766 L 0.388594 0.422734 L 0.399375 0.440703 L 0.402969 0.476641 L 0.402969 0.494609 L 0.395781 0.516172 L 0.402969 0.526953 L 0.406562 0.555703 L 0.402969 0.595234 L 0.410156 0.634766 L 0.395781 0.688633 L 0.399375 0.703008 L 0.410156 0.75332 L 0.410156 0.785664 L 0.406562 0.800039 L 0.399375 0.818008 L 0.402969 0.83957 L 0.406562 0.875508 L 0.399375 0.882695 L 0.395781 0.89707 L 0.406562 0.907852 L 0.410156 0.932969 L 0.402969 0.950938 L 0.399375 0.954531 L 0.632969 0.954531 L 0.632969 0.0454687 Z M 0.367031 0.0454687 " transform="matrix(100,0,0,100,450,800)"/>
<path style="fill:none;stroke-width:0.01;stroke-linecap:butt;stroke-linejoin:miter;stroke:rgb(0%,0%,0%);stroke-opacity:1;stroke-miterlimit:10;" d="M 0.805625 0.954531 L 0.601875 0.782148 L 0.445156 0.625391 L 0.319766 0.484336 L 0.194375 0.421641 L 0.25707 0.311914 L 0.398125 0.186523 L 0.476484 0.123828 L 0.554844 0.0454687 L 0.680234 0.0924609 L 0.74293 0.0767969 Z M 0.805625 0.954531 " transform="matrix(100,0,0,100,600,800)"/>
<path style="fill:none;stroke-width:0.01;stroke-linecap:butt;stroke-linejoin:miter;stroke:rgb(0%,0%,0%);stroke-opacity:1;stroke-miterlimit:10;" d="M 0.330078 0.589219 L 0.34707 0.504258 L 0.381055 0.410781 L 0.398047 0.359805 L 0.466016 0.300352 L 0.5425 0.223867 L 0.576484 0.181406 L 0.65293 0.113437 L 0.69543 0.0709375 L 0.703906 0.0539453 L 0.737891 0.0454687 L 0.737891 0.0964453 L 0.746406 0.929063 L 0.712422 0.954531 L 0.69543 0.903555 L 0.686914 0.852578 L 0.635938 0.827109 L 0.508516 0.886563 L 0.449023 0.920547 L 0.381055 0.886563 L 0.321563 0.861094 L 0.287578 0.810117 L 0.253594 0.725156 L 0.270586 0.682656 L 0.296094 0.589219 L 0.330078 0.563711 Z M 0.330078 0.589219 " transform="matrix(100,0,0,100,0,950)"/>
<path style="fill:none;stroke-width:0.01;stroke-linecap:butt;stroke-linejoin:miter;stroke:rgb(0%,0%,0%);stroke-opacity:1;stroke-miterlimit:10;" d="M 0.416523 0.824687 L 0.527813 0.824687 L 0.602031 0.787578 L 0.731914 0.67625 L 0.769023 0.416523 L 0.824688 0.435078 L 0.954531 0.286641 L 0.935977 0.175313 L 0.0454687 0.175313 L 0.101094 0.249531 L 0.119648 0.342305 L 0.175312 0.472188 L 0.249531 0.583477 L 0.32375 0.731914 Z M 0.416523 0.824687 " transform="matrix(100,0,0,100,150,950)"/>
<path style="fill:none;stroke-width:0.01;stroke-linecap:butt;stroke-linejoin:miter;stroke:rgb(0%,0%,0%);stroke-opacity:1;stroke-miterlimit:10;" d="M 0.848359 0.0964453 L 0.797383 0.453281 L 0.737891 0.461758 L 0.669922 0.444766 L 0.635938 0.470273 L 0.593477 0.529727 L 0.533984 0.563711 L 0.4575 0.606211 L 0.516992 0.640195 L 0.584961 0.648672 L 0.525508 0.691172 L 0.474492 0.708164 L 0.466016 0.776133 L 0.432031 0.818594 L 0.5425 0.878086 L 0.661445 0.878086 L 0.712422 0.861094 L 0.678438 0.937539 L 0.550977 0.954531 L 0.423516 0.827109 L 0.415039 0.733633 L 0.398047 0.648672 L 0.321563 0.597695 L 0.262109 0.563711 L 0.194141 0.555234 L 0.151641 0.563711 L 0.177148 0.444766 L 0.160156 0.419297 L 0.262109 0.385312 L 0.313086 0.410781 L 0.381055 0.436289 L 0.440508 0.47875 L 0.449023 0.419297 L 0.4575 0.36832 L 0.508516 0.300352 L 0.559492 0.215391 L 0.550977 0.155898 L 0.601953 0.113437 L 0.644453 0.0879297 L 0.746406 0.0454687 L 0.780391 0.0454687 Z M 0.848359 0.0964453 " transform="matrix(100,0,0,100,300,950)"/>
<path style="fill:none;stroke-width:0.01;stroke-linecap:butt;stroke-linejoin:miter;stroke:rgb(0%,0%,0%);stroke-opacity:1;stroke-miterlimit:10;" d="M 0.749258 0.0454687 L 0.602656 0.104102 L 0.485352 0.162773 L 0.42668 0.133437 L 0.250742 0.368047 L 0.250742 0.514648 L 0.280078 0.690625 L 0.338711 0.80793 L 0.42668 0.925234 L 0.514648 0.954531 L 0.602656 0.866563 L 0.690625 0.866563 L 0.719922 0.778594 L 0.602656 0.719922 L 0.42668 0.719922 L 0.280078 0.661289 L 0.250742 0.514648 L 0.397344 0.397344 L 0.543984 0.280078 L 0.690625 0.221406 Z M 0.749258 0.0454687 " transform="matrix(100,0,0,100,450,950)"/>
<path style="fill:none;stroke-width:0.01;stroke-linecap:butt;stroke-linejoin:miter;stroke:rgb(0%,0%,0%);stroke-opacity:1;stroke-miterlimit:10;" d="M 0.161992 0.331016 L 0.313516 0.470859 L 0.371797 0.4825 L 0.406758 0.564102 L 0.511641 0.610703 L 0.651523 0.727266 L 0.721445 0.750586 L 0.826328 0.773906 L 0.896289 0.727266 L 0.942891 0.657344 L 0.942891 0.575742 L 0.954531 0.459219 L 0.872969 0.412578 L 0.826328 0.49418 L 0.733086 0.4825 L 0.686484 0.540781 L 0.674844 0.587422 L 0.558281 0.5175 L 0.52332 0.435898 L 0.441719 0.354297 L 0.360156 0.307695 L 0.325156 0.249414 L 0.0454688 0.226094 Z M 0.161992 0.331016 " transform="matrix(100,0,0,100,600,950)"/>
<path style="fill:none;stroke-width:0.01;stroke-linecap:butt;stroke-linejoin:miter;stroke:rgb(0%,0%,0%);stroke-opacity:1;stroke-miterlimit:10;" d="M 0.510273 0.189258 L 0.520547 0.148164 L 0.520547 0.10707 L 0.510273 0.0814063 L 0.464062 0.0762891 L 0.412695 0.0660156 L 0.386992 0.0557422 L 0.366445 0.0454687 L 0.345898 0.0454687 L 0.299687 0.0557422 L 0.29457 0.10707 L 0.304844 0.101953 L 0.325391 0.10707 L 0.356172 0.137891 L 0.392148 0.178984 L 0.386992 0.209805 L 0.345898 0.235508 L 0.320234 0.271445 L 0.299687 0.307383 L 0.304844 0.851836 L 0.371602 0.872383 L 0.417813 0.90832 L 0.453789 0.933984 L 0.46918 0.923711 L 0.510273 0.949414 L 0.53082 0.954531 L 0.582187 0.918594 L 0.613008 0.867227 L 0.628398 0.851836 L 0.659219 0.841563 L 0.674609 0.821016 L 0.684883 0.774766 L 0.70543 0.718281 L 0.70543 0.620703 L 0.659219 0.656641 L 0.623281 0.687461 L 0.607852 0.677188 L 0.618125 0.64125 L 0.607852 0.605273 L 0.592461 0.543672 L 0.597578 0.507695 L 0.659219 0.440938 L 0.679766 0.399844 L 0.684883 0.363906 L 0.659219 0.322812 L 0.643828 0.281719 L 0.628398 0.266289 L 0.607852 0.235508 L 0.571914 0.230352 L 0.520547 0.214961 Z M 0.510273 0.189258 " transform="matrix(100,0,0,100,0,1100)"/>
<path style="fill:none;stroke-width:0.01;stroke-linecap:butt;stroke-linejoin:miter;stroke:rgb(0%,0%,0%);stroke-opacity:1;stroke-miterlimit:10;" d="M 0.799336 0.533242 L 0.732813 0.666289 L 0.644141 0.688477 L 0.533242 0.821523 L 0.466758 0.954531 L 0.311523 0.865859 L 0.178477 0.799336 L 0.156328 0.222852 L 0.289375 0.0454687 L 0.422383 0.0454687 L 0.511094 0.178477 L 0.666289 0.267188 L 0.843672 0.267188 L 0.821523 0.466758 Z M 0.799336 0.533242 " transform="matrix(100,0,0,100,150,1100)"/>
<path style="fill:none;stroke-width:0.01;stroke-linecap:butt;stroke-linejoin:miter;stroke:rgb(0%,0%,0%);stroke-opacity:1;stroke-miterlimit:10;" d="M 0.681836 0.736367 L 0.609102 0.881836 L 0.518164 0.936367 L 0.336367 0.954531 L 0.281836 0.936367 L 0.427266 0.809102 L 0.481836 0.681836 L 0.481836 0.536367 L 0.409102 0.5 L 0.318164 0.590898 L 0.263633 0.609102 L 0.136367 0.554531 L 0.172734 0.536367 L 0.227266 0.445469 L 0.190898 0.227266 L 0.209102 0.1 L 0.263633 0.0818359 L 0.354531 0.190898 L 0.463633 0.263633 L 0.518164 0.190898 L 0.518164 0.0454687 L 0.590898 0.0636328 L 0.627266 0.154531 L 0.7 0.3 L 0.790898 0.336367 L 0.863633 0.390898 L 0.845469 0.627266 L 0.772734 0.645469 L 0.7 0.681836 Z M 0.681836 0.736367 " transform="matrix(100,0,0,100,300,1100)"/>
<path style="fill:none;stroke-width:0.01;stroke-linecap:butt;stroke-linejoin:miter;stroke:rgb(0%,0%,0%);stroke-opacity:1;stroke-miterlimit:10;" d="M 0.749258 0.543984 L 0.778594 0.133437 L 0.778594 0.0454687 L 0.690625 0.0747656 L 0.514648 0.133437 L 0.338711 0.162773 L 0.19207 0.19207 L 0.19207 0.57332 L 0.250742 0.661289 L 0.368047 0.749258 L 0.57332 0.80793 L 0.690625 0.925234 L 0.749258 0.954531 L 0.80793 0.837227 Z M 0.749258 0.543984 " transform="matrix(100,0,0,100,450,1100)"/>
<path style="fill:none;stroke-width:0.01;stroke-linecap:butt;stroke-linejoin:miter;stroke:rgb(0%,0%,0%);stroke-opacity:1;stroke-miterlimit:10;" d="M 0.557344 0.0782031 L 0.590078 0.180586 L 0.626953 0.291172 L 0.647422 0.340312 L 0.651523 0.368945 L 0.688359 0.430391 L 0.692461 0.47543 L 0.717031 0.536836 L 0.733398 0.590078 L 0.745703 0.626953 L 0.774375 0.688359 L 0.798945 0.766172 L 0.819414 0.827617 L 0.827617 0.872656 L 0.839883 0.913594 L 0.827617 0.917695 L 0.827617 0.929961 L 0.819414 0.946367 L 0.798945 0.954531 L 0.774375 0.913594 L 0.717031 0.848086 L 0.667891 0.766172 L 0.610547 0.704766 L 0.545039 0.64332 L 0.483633 0.573711 L 0.438594 0.549141 L 0.418086 0.520469 L 0.38125 0.483633 L 0.348477 0.446758 L 0.303438 0.409922 L 0.2625 0.364883 L 0.233828 0.319805 L 0.217461 0.278867 L 0.180586 0.233828 L 0.160117 0.213359 L 0.16832 0.201055 L 0.205156 0.180586 L 0.270664 0.115078 L 0.303438 0.0864062 L 0.332109 0.0700391 L 0.348477 0.0454687 L 0.545039 0.0454687 Z M 0.557344 0.0782031 " transform="matrix(100,0,0,100,600,1100)"/>
<path style="fill:none;stroke-width:0.01;stroke-linecap:butt;stroke-linejoin:miter;stroke:rgb(0%,0%,0%);stroke-opacity:1;stroke-miterlimit:10;" d="M 0.537891 0.718867 L 0.537891 0.828281 L 0.529453 0.895625 L 0.487383 0.954531 L 0.462109 0.895625 L 0.470547 0.786211 L 0.453711 0.651523 L 0.428438 0.54207 L 0.453711 0.37375 L 0.445273 0.222227 L 0.462109 0.146445 L 0.478945 0.0875391 L 0.478945 0.0454687 L 0.521055 0.0707031 L 0.546289 0.0791406 L 0.563125 0.138047 L 0.571562 0.348477 L 0.554727 0.508398 L 0.537891 0.550508 L 0.537891 0.651523 Z M 0.537891 0.718867 " transform="matrix(100,0,0,100,0,1250)"/>
<path style="fill:none;stroke-width:0.01;stroke-linecap:butt;stroke-linejoin:miter;stroke:rgb(0%,0%,0%);stroke-opacity:1;stroke-miterlimit:10;" d="M 0.452148 0.0454687 L 0.576563 0.0646094 L 0.633984 0.0454687 L 0.643555 0.0646094 L 0.643555 0.322969 L 0.653125 0.562188 L 0.653125 0.954531 L 0.605273 0.868438 L 0.605273 0.782305 L 0.557422 0.686602 L 0.538281 0.581328 L 0.480859 0.456953 L 0.461719 0.322969 L 0.413867 0.188984 L 0.394727 0.102852 L 0.346875 0.0646094 Z M 0.452148 0.0454687 " transform="matrix(100,0,0,100,150,1250)"/>
<path style="fill:none;stroke-width:0.01;stroke-linecap:butt;stroke-linejoin:miter;stroke:rgb(0%,0%,0%);stroke-opacity:1;stroke-miterlimit:10;" d="M 0.230977 0.769023 L 0.360859 0.509258 L 0.527813 0.32375 L 0.657695 0.138203 L 0.694805 0.0640234 L 0.731914 0.0454687 L 0.787578 0.0454687 L 0.824688 0.509258 L 0.806133 0.769023 L 0.787578 0.824687 L 0.713359 0.898906 L 0.639141 0.954531 L 0.175312 0.954531 L 0.230977 0.898906 Z M 0.230977 0.769023 " transform="matrix(100,0,0,100,300,1250)"/>
<path style="fill:none;stroke-width:0.01;stroke-linecap:butt;stroke-linejoin:miter;stroke:rgb(0%,0%,0%);stroke-opacity:1;stroke-miterlimit:10;" d="M 0.244336 0.159102 L 0.528398 0.301133 L 0.642031 0.414766 L 0.727266 0.528398 L 0.840898 0.784102 L 0.954531 0.840898 L 0.727266 0.8125 L 0.585234 0.670469 L 0.244336 0.613633 L 0.130664 0.528398 L 0.0454688 0.386367 Z M 0.244336 0.159102 " transform="matrix(100,0,0,100,450,1250)"/>
<path style="fill:none;stroke-width:0.01;stroke-linecap:butt;stroke-linejoin:miter;stroke:rgb(0%,0%,0%);stroke-opacity:1;stroke-miterlimit:10;" d="M 0.653164 0.381406 L 0.653164 0.598828 L 0.67293 0.737148 L 0.653164 0.875508 L 0.653164 0.924883 L 0.623516 0.954531 L 0.554336 0.895273 L 0.524687 0.835977 L 0.445664 0.835977 L 0.445664 0.806328 L 0.455547 0.786563 L 0.475313 0.756914 L 0.504922 0.7075 L 0.504922 0.608711 L 0.475313 0.539531 L 0.455547 0.480234 L 0.39625 0.460469 L 0.346836 0.450586 L 0.32707 0.411055 L 0.336953 0.381406 L 0.346836 0.341914 L 0.39625 0.262852 L 0.416016 0.213437 L 0.455547 0.144258 L 0.504922 0.0948438 L 0.524687 0.0751172 L 0.564219 0.0454687 L 0.554336 0.0849609 L 0.574102 0.0948438 L 0.60375 0.114609 L 0.623516 0.164023 L 0.633398 0.213437 L 0.643281 0.272734 L 0.653164 0.302383 Z M 0.653164 0.381406 " transform="matrix(100,0,0,100,600,1250)"/>
<path style="fill:none;stroke-width:0.01;stroke-linecap:butt;stroke-linejoin:miter;stroke:rgb(0%,0%,0%);stroke-opacity:1;stroke-miterlimit:10;" d="M 0.585234 0.0454687 L 0.623125 0.215898 L 0.660977 0.954531 L 0.471602 0.954531 L 0.490547 0.821953 L 0.39582 0.765156 L 0.357969 0.70832 L 0.339023 0.651523 L 0.357969 0.575742 L 0.376875 0.518945 L 0.471602 0.481055 L 0.433711 0.424258 L 0.490547 0.348477 L 0.528398 0.29168 L 0.566289 0.234844 L 0.566289 0.121211 Z M 0.585234 0.0454687 " transform="matrix(100,0,0,100,0,1400)"/>
<path style="fill:none;stroke-width:0.01;stroke-linecap:butt;stroke-linejoin:miter;stroke:rgb(0%,0%,0%);stroke-opacity:1;stroke-miterlimit:10;" d="M 0.370117 0.305195 L 0.279219 0.240273 L 0.149336 0.240273 L 0.110391 0.292227 L 0.0714453 0.318164 L 0.0454687 0.383125 L 0.162344 0.435078 L 0.279219 0.474023 L 0.18832 0.512969 L 0.110391 0.5 L 0.0844141 0.603906 L 0.0844141 0.694805 L 0.253242 0.759727 L 0.396094 0.759727 L 0.5 0.73375 L 0.629883 0.73375 L 0.746758 0.746758 L 0.902578 0.707773 L 0.954531 0.668828 L 0.850664 0.564922 L 0.759727 0.590898 L 0.681836 0.57793 L 0.629883 0.5 L 0.5 0.551953 L 0.57793 0.487031 L 0.487031 0.383125 Z M 0.370117 0.305195 " transform="matrix(100,0,0,100,150,1400)"/>
<path style="fill:none;stroke-width:0.01;stroke-linecap:butt;stroke-linejoin:miter;stroke:rgb(0%,0%,0%);stroke-opacity:1;stroke-miterlimit:10;" d="M 0.533008 0.0454687 L 0.533008 0.185313 L 0.529141 0.200859 L 0.529141 0.247461 L 0.536914 0.321289 L 0.529141 0.329063 L 0.529141 0.371797 L 0.521367 0.453398 L 0.521367 0.573828 L 0.513594 0.569922 L 0.513594 0.624336 L 0.5175 0.756406 L 0.509727 0.756406 L 0.509727 0.803047 L 0.50582 0.872969 L 0.501953 0.896289 L 0.498047 0.927344 L 0.49418 0.942891 L 0.486406 0.954531 L 0.478633 0.93125 L 0.470859 0.90793 L 0.463086 0.876836 L 0.470859 0.803047 L 0.470859 0.752539 L 0.466992 0.736992 L 0.4825 0.725313 L 0.474766 0.713672 L 0.466992 0.709805 L 0.474766 0.670938 L 0.478633 0.616563 L 0.478633 0.589336 L 0.486406 0.573828 L 0.498047 0.546602 L 0.49418 0.527188 L 0.49418 0.52332 L 0.4825 0.492227 L 0.4825 0.480586 L 0.486406 0.465039 L 0.498047 0.426172 L 0.49418 0.406758 L 0.498047 0.395117 L 0.498047 0.360156 L 0.49418 0.348477 L 0.486406 0.336836 L 0.486406 0.325156 L 0.490273 0.309648 L 0.49418 0.286328 L 0.50582 0.266914 L 0.50582 0.247461 L 0.501953 0.243594 L 0.501953 0.231953 L 0.513594 0.220273 L 0.50582 0.208633 L 0.509727 0.177539 L 0.509727 0.142578 L 0.50582 0.107617 L 0.509727 0.0804297 L 0.513594 0.06875 L 0.509727 0.0609766 L 0.5175 0.0454687 Z M 0.533008 0.0454687 " transform="matrix(100,0,0,100,300,1400)"/>
<path style="fill:none;stroke-width:0.01;stroke-linecap:butt;stroke-linejoin:miter;stroke:rgb(0%,0%,0%);stroke-opacity:1;stroke-miterlimit:10;" d="M 0.221719 0.0454687 L 0.128945 0.0547266 L 0.0732812 0.0918359 L 0.0732812 0.203164 L 0.128945 0.295938 L 0.193867 0.342305 L 0.351562 0.425781 L 0.416523 0.518555 L 0.5 0.490742 L 0.537109 0.509258 L 0.583477 0.639141 L 0.648438 0.685547 L 0.731914 0.685547 L 0.796836 0.722617 L 0.843242 0.815391 L 0.806133 0.861797 L 0.815391 0.945273 L 0.889609 0.954531 L 0.926719 0.833945 L 0.898906 0.629883 L 0.861797 0.602031 L 0.880352 0.509258 L 0.871055 0.435078 L 0.871055 0.342305 L 0.880352 0.221719 L 0.861797 0.156758 L 0.833945 0.175313 L 0.824688 0.1475 L 0.731914 0.138203 L 0.67625 0.128945 L 0.648438 0.119648 L 0.602031 0.101094 L 0.518555 0.0918359 L 0.472188 0.0454687 L 0.397969 0.0454687 L 0.351562 0.0640234 L 0.286641 0.0640234 Z M 0.221719 0.0454687 " transform="matrix(100,0,0,100,450,1400)"/>
<path style="fill:none;stroke-width:0.01;stroke-linecap:butt;stroke-linejoin:miter;stroke:rgb(0%,0%,0%);stroke-opacity:1;stroke-miterlimit:10;" d="M 0.954531 0.638633 L 0.0454688 0.638633 L 0.0519141 0.587031 L 0.148633 0.509688 L 0.180859 0.483867 L 0.232422 0.483867 L 0.264648 0.477422 L 0.309805 0.425859 L 0.380703 0.387187 L 0.503242 0.361367 L 0.638633 0.361367 L 0.728867 0.367812 L 0.761133 0.374258 L 0.812695 0.393633 L 0.883633 0.387187 L 0.909414 0.387187 L 0.909414 0.425859 L 0.922305 0.490312 L 0.941641 0.535469 L 0.954531 0.612813 Z M 0.954531 0.638633 " transform="matrix(100,0,0,100,600,1400)"/>
<path style="fill:none;stroke-width:0.01;stroke-linecap:butt;stroke-linejoin:miter;stroke:rgb(0%,0%,0%);stroke-opacity:1;stroke-miterlimit:10;" d="M 0.636367 0.0454687 L 0.590898 0.409102 L 0.590898 0.818164 L 0.5 0.954531 L 0.363633 0.681836 L 0.363633 0.318164 L 0.454531 0.227266 Z M 0.636367 0.0454687 " transform="matrix(100,0,0,100,0,1550)"/>
<path style="fill:none;stroke-width:0.01;stroke-linecap:butt;stroke-linejoin:miter;stroke:rgb(0%,0%,0%);stroke-opacity:1;stroke-miterlimit:10;" d="M 0.727266 0.348477 L 0.727266 0.840898 L 0.651523 0.954531 L 0.575742 0.803047 L 0.462109 0.613633 L 0.348477 0.348477 L 0.310625 0.234844 L 0.272734 0.121211 L 0.386367 0.0833203 L 0.5 0.0454687 L 0.727266 0.0833203 Z M 0.727266 0.348477 " transform="matrix(100,0,0,100,150,1550)"/>
<path style="fill:none;stroke-width:0.01;stroke-linecap:butt;stroke-linejoin:miter;stroke:rgb(0%,0%,0%);stroke-opacity:1;stroke-miterlimit:10;" d="M 0.694805 0.564922 L 0.435078 0.857148 L 0.337656 0.954531 L 0.175312 0.727266 L 0.142852 0.435078 L 0.272734 0.370117 L 0.597422 0.142852 L 0.857148 0.0454687 L 0.857148 0.0779297 L 0.727266 0.435078 Z M 0.694805 0.564922 " transform="matrix(100,0,0,100,300,1550)"/>
<path style="fill:none;stroke-width:0.01;stroke-linecap:butt;stroke-linejoin:miter;stroke:rgb(0%,0%,0%);stroke-opacity:1;stroke-miterlimit:10;" d="M 0.649258 0.276133 L 0.649258 0.0454687 L 0.567852 0.113281 L 0.486445 0.289688 L 0.445742 0.4525 L 0.391445 0.520352 L 0.350742 0.615352 L 0.377891 0.751016 L 0.432148 0.846016 L 0.486445 0.873125 L 0.567852 0.913828 L 0.594961 0.940977 L 0.608555 0.954531 L 0.649258 0.954531 Z M 0.649258 0.276133 " transform="matrix(100,0,0,100,450,1550)"/>
<path style="fill:none;stroke-width:0.01;stroke-linecap:butt;stroke-linejoin:miter;stroke:rgb(0%,0%,0%);stroke-opacity:1;stroke-miterlimit:10;" d="M 0.465742 0.0454687 L 0.656914 0.0454687 L 0.656914 0.954531 L 0.397188 0.954531 L 0.393594 0.936523 L 0.397188 0.893203 L 0.397188 0.806641 L 0.400781 0.785 L 0.386367 0.781367 L 0.379141 0.792227 L 0.371953 0.810234 L 0.364727 0.817461 L 0.350273 0.813867 L 0.343086 0.770547 L 0.343086 0.61543 L 0.353906 0.629883 L 0.3575 0.651523 L 0.353906 0.691211 L 0.353906 0.712852 L 0.3575 0.723672 L 0.371953 0.734492 L 0.364727 0.709219 L 0.371953 0.702031 L 0.382773 0.698398 L 0.382773 0.709219 L 0.386367 0.720039 L 0.393594 0.712852 L 0.389961 0.694805 L 0.404414 0.673164 L 0.411602 0.673164 L 0.433242 0.730898 L 0.440469 0.745313 L 0.454922 0.752539 L 0.454922 0.730898 L 0.444102 0.727266 L 0.451289 0.702031 L 0.451289 0.676758 L 0.454922 0.665938 L 0.454922 0.63707 L 0.436875 0.608242 L 0.422422 0.590195 L 0.411602 0.572148 L 0.418828 0.557734 L 0.418828 0.546914 L 0.404414 0.557734 L 0.404414 0.525234 L 0.411602 0.503594 L 0.404414 0.48918 L 0.400781 0.5 L 0.393594 0.471133 L 0.393594 0.431445 L 0.382773 0.431445 L 0.375547 0.435078 L 0.371953 0.453086 L 0.371953 0.474766 L 0.375547 0.496406 L 0.371953 0.521641 L 0.371953 0.543281 L 0.364727 0.521641 L 0.361094 0.5 L 0.361094 0.48918 L 0.36832 0.442266 L 0.371953 0.424258 L 0.36832 0.391758 L 0.375547 0.370117 L 0.375547 0.36293 L 0.397188 0.348477 L 0.397188 0.323242 L 0.411602 0.297969 L 0.408008 0.258281 L 0.397188 0.247461 L 0.418828 0.20418 L 0.426055 0.182539 L 0.440469 0.0923437 L 0.440469 0.0562891 L 0.444102 0.0562891 Z M 0.465742 0.0454687 " transform="matrix(100,0,0,100,600,1550)"/>
<path style="fill:none;stroke-width:0.01;stroke-linecap:butt;stroke-linejoin:miter;stroke:rgb(0%,0%,0%);stroke-opacity:1;stroke-miterlimit:10;" d="M 0.693438 0.161523 L 0.712773 0.258203 L 0.693438 0.31625 L 0.674063 0.393633 L 0.732109 0.432305 L 0.770781 0.529023 L 0.770781 0.567695 L 0.712773 0.625742 L 0.674063 0.722422 L 0.616055 0.68375 L 0.558008 0.625742 L 0.519336 0.645078 L 0.5 0.722422 L 0.422617 0.799805 L 0.364609 0.954531 L 0.345273 0.954531 L 0.267891 0.935195 L 0.248555 0.780469 L 0.248555 0.664414 L 0.229219 0.567695 L 0.306563 0.393633 L 0.306563 0.103477 L 0.364609 0.0841406 L 0.441992 0.0648047 L 0.5 0.0841406 L 0.519336 0.142148 L 0.558008 0.161523 L 0.654727 0.0454688 L 0.693438 0.0454688 Z M 0.693438 0.161523 " transform="matrix(100,0,0,100,0,1700)"/>
<path style="fill:none;stroke-width:0.01;stroke-linecap:butt;stroke-linejoin:miter;stroke:rgb(0%,0%,0%);stroke-opacity:1;stroke-miterlimit:10;" d="M 0.587422 0.0454688 L 0.622383 0.360156 L 0.622383 0.604883 L 0.657344 0.814688 L 0.587422 0.954531 L 0.447539 0.91957 L 0.342656 0.639844 L 0.412578 0.395117 L 0.447539 0.150352 Z M 0.587422 0.0454688 " transform="matrix(100,0,0,100,150,1700)"/>
<path style="fill:none;stroke-width:0.01;stroke-linecap:butt;stroke-linejoin:miter;stroke:rgb(0%,0%,0%);stroke-opacity:1;stroke-miterlimit:10;" d="M 0.564922 0.0454688 L 0.694805 0.272734 L 0.694805 0.435078 L 0.662344 0.954531 L 0.435078 0.954531 L 0.402578 0.759727 L 0.305195 0.662344 L 0.337656 0.435078 L 0.370117 0.305195 L 0.435078 0.142852 L 0.467539 0.0454688 Z M 0.564922 0.0454688 " transform="matrix(100,0,0,100,300,1700)"/>
<path style="fill:none;stroke-width:0.01;stroke-linecap:butt;stroke-linejoin:miter;stroke:rgb(0%,0%,0%);stroke-opacity:1;stroke-miterlimit:10;" d="M 0.342188 0.651523 L 0.329531 0.537891 L 0.329531 0.474766 L 0.342188 0.37375 L 0.354805 0.285352 L 0.380039 0.234844 L 0.405312 0.209609 L 0.405312 0.108594 L 0.329531 0.159102 L 0.329531 0.108594 L 0.342188 0.0707031 L 0.380039 0.0707031 L 0.41793 0.0454688 L 0.45582 0.0707031 L 0.531562 0.0580859 L 0.569453 0.0580859 L 0.607305 0.0707031 L 0.594688 0.146445 L 0.58207 0.222227 L 0.58207 0.285352 L 0.518945 0.323242 L 0.569453 0.361094 L 0.58207 0.398984 L 0.594688 0.462109 L 0.645195 0.487383 L 0.657813 0.563125 L 0.645195 0.689375 L 0.645195 0.777773 L 0.657813 0.853555 L 0.670469 0.904023 L 0.645195 0.954531 L 0.54418 0.878789 L 0.493672 0.866172 L 0.468438 0.777773 L 0.468438 0.601016 L 0.556836 0.550508 L 0.58207 0.487383 L 0.54418 0.424258 L 0.518945 0.348477 L 0.45582 0.37375 L 0.392695 0.436875 L 0.354805 0.5 L 0.354805 0.550508 Z M 0.342188 0.651523 " transform="matrix(100,0,0,100,450,1700)"/>
<path style="fill:none;stroke-width:0.01;stroke-linecap:butt;stroke-linejoin:miter;stroke:rgb(0%,0%,0%);stroke-opacity:1;stroke-miterlimit:10;" d="M 0.404297 0.0454688 L 0.5 0.284688 L 0.643555 0.380391 L 0.691406 0.571758 L 0.691406 0.715312 L 0.834922 0.90668 L 0.643555 0.954531 L 0.452148 0.90668 L 0.404297 0.667461 L 0.404297 0.476094 L 0.165078 0.141133 Z M 0.404297 0.0454688 " transform="matrix(100,0,0,100,600,1700)"/>
<path style="fill:none;stroke-width:0.01;stroke-linecap:butt;stroke-linejoin:miter;stroke:rgb(0%,0%,0%);stroke-opacity:1;stroke-miterlimit:10;" d="M 0.590898 0.627266 L 0.590898 0.881836 L 0.554531 0.954531 L 0.409102 0.918164 L 0.3 0.809102 L 0.372734 0.590898 L 0.518164 0.481836 L 0.445469 0.263633 L 0.554531 0.0454688 L 0.590898 0.0454688 L 0.590898 0.227266 L 0.7 0.372734 Z M 0.590898 0.627266 " transform="matrix(100,0,0,100,0,1850)"/>
<path style="fill:none;stroke-width:0.01;stroke-linecap:butt;stroke-linejoin:miter;stroke:rgb(0%,0%,0%);stroke-opacity:1;stroke-miterlimit:10;" d="M 0.637422 0.447148 L 0.637422 0.869961 L 0.573984 0.891133 L 0.552852 0.954531 L 0.447148 0.869961 L 0.383711 0.721992 L 0.320312 0.637422 L 0.404844 0.510586 L 0.320312 0.383711 L 0.235742 0.299141 L 0.21457 0.21457 L 0.299141 0.108867 L 0.383711 0.0454688 L 0.426016 0.0666016 L 0.637422 0.108867 L 0.700859 0.130039 L 0.764258 0.151172 L 0.78543 0.235742 L 0.743125 0.320312 L 0.637422 0.383711 Z M 0.637422 0.447148 " transform="matrix(100,0,0,100,150,1850)"/>
<path style="fill:none;stroke-width:0.01;stroke-linecap:butt;stroke-linejoin:miter;stroke:rgb(0%,0%,0%);stroke-opacity:1;stroke-miterlimit:10;" d="M 0.597422 0.954531 L 0.272734 0.824687 L 0.272734 0.629883 L 0.467539 0.305195 L 0.597422 0.0454688 L 0.662344 0.240273 L 0.727266 0.629883 Z M 0.597422 0.954531 " transform="matrix(100,0,0,100,300,1850)"/>
<path style="fill:none;stroke-width:0.01;stroke-linecap:butt;stroke-linejoin:miter;stroke:rgb(0%,0%,0%);stroke-opacity:1;stroke-miterlimit:10;" d="M 0.377617 0.4825 L 0.325156 0.325156 L 0.325156 0.202813 L 0.342656 0.150352 L 0.395117 0.132852 L 0.447539 0.150352 L 0.4825 0.220273 L 0.4825 0.0978906 L 0.552461 0.0454688 L 0.587422 0.0629297 L 0.604883 0.115391 L 0.674844 0.237773 L 0.674844 0.342656 L 0.604883 0.430078 L 0.4825 0.5 L 0.412578 0.622383 L 0.5175 0.569922 L 0.569922 0.5175 L 0.587422 0.569922 L 0.744766 0.709805 L 0.744766 0.762227 L 0.639844 0.797187 L 0.587422 0.779727 L 0.622383 0.814688 L 0.692305 0.902109 L 0.587422 0.93707 L 0.465039 0.954531 L 0.377617 0.902109 L 0.342656 0.762227 L 0.272734 0.744766 L 0.255234 0.674844 L 0.290195 0.552461 L 0.307695 0.5175 Z M 0.377617 0.4825 " transform="matrix(100,0,0,100,450,1850)"/>
<path style="fill:none;stroke-width:0.01;stroke-linecap:butt;stroke-linejoin:miter;stroke:rgb(0%,0%,0%);stroke-opacity:1;stroke-miterlimit:10;" d="M 0.660977 0.5 L 0.679922 0.821953 L 0.642031 0.954531 L 0.452656 0.91668 L 0.357969 0.897734 L 0.301133 0.746211 L 0.282188 0.443164 L 0.320078 0.215898 L 0.320078 0.064375 L 0.717812 0.0454688 L 0.717812 0.196953 Z M 0.660977 0.5 " transform="matrix(100,0,0,100,600,1850)"/>
<path style="fill:none;stroke-width:0.01;stroke-linecap:butt;stroke-linejoin:miter;stroke:rgb(0%,0%,0%);stroke-opacity:1;stroke-miterlimit:10;" d="M 0.485 0.325156 L 0.375117 0.275234 L 0.355156 0.245273 L 0.375117 0.165352 L 0.415078 0.105391 L 0.435078 0.0754297 L 0.465039 0.0554297 L 0.564922 0.0454688 L 0.584922 0.0554297 L 0.614883 0.0854297 L 0.614883 0.125391 L 0.594922 0.175313 L 0.574922 0.235273 L 0.564922 0.285195 L 0.584922 0.345156 L 0.634883 0.415078 L 0.684805 0.475039 L 0.714805 0.574922 L 0.714805 0.654844 L 0.684805 0.754727 L 0.714805 0.93457 L 0.684805 0.954531 L 0.445039 0.954531 L 0.375117 0.91457 L 0.285195 0.91457 L 0.325156 0.884609 L 0.365117 0.894609 L 0.405078 0.874609 L 0.445039 0.834648 L 0.465039 0.814688 L 0.465039 0.804688 L 0.505 0.734766 L 0.544961 0.644844 L 0.584922 0.524961 L 0.574922 0.425078 L 0.554961 0.365117 L 0.515 0.335156 Z M 0.485 0.325156 " transform="matrix(100,0,0,100,0,2000)"/>
<path style="fill:none;stroke-width:0.01;stroke-linecap:butt;stroke-linejoin:miter;stroke:rgb(0%,0%,0%);stroke-opacity:1;stroke-miterlimit:10;" d="M 0.667461 0.0454688 L 0.667461 0.380391 L 0.619609 0.667461 L 0.619609 0.954531 L 0.476094 0.811016 L 0.428242 0.715312 L 0.332539 0.619609 L 0.428242 0.476094 L 0.523906 0.141133 Z M 0.667461 0.0454688 " transform="matrix(100,0,0,100,150,2000)"/>
<path style="fill:none;stroke-width:0.01;stroke-linecap:butt;stroke-linejoin:miter;stroke:rgb(0%,0%,0%);stroke-opacity:1;stroke-miterlimit:10;" d="M 0.609102 0.809102 L 0.584844 0.736367 L 0.609102 0.675742 L 0.621211 0.687891 L 0.681836 0.663633 L 0.657578 0.627266 L 0.609102 0.615156 L 0.584844 0.639375 L 0.548477 0.7 L 0.475742 0.712109 L 0.36668 0.687891 L 0.390898 0.590898 L 0.451523 0.481836 L 0.378789 0.360625 L 0.306055 0.263633 L 0.184844 0.118164 L 0.281836 0.118164 L 0.354531 0.106055 L 0.439375 0.106055 L 0.572734 0.0454688 L 0.657578 0.0575781 L 0.706055 0.0575781 L 0.790898 0.0696875 L 0.803047 0.215156 L 0.803047 0.43332 L 0.815156 0.603047 L 0.815156 0.675742 L 0.730313 0.687891 L 0.815156 0.748477 L 0.815156 0.83332 L 0.790898 0.893945 L 0.718164 0.942422 L 0.63332 0.954531 L 0.596953 0.893945 Z M 0.609102 0.809102 " transform="matrix(100,0,0,100,300,2000)"/>
<path style="fill:none;stroke-width:0.01;stroke-linecap:butt;stroke-linejoin:miter;stroke:rgb(0%,0%,0%);stroke-opacity:1;stroke-miterlimit:10;" d="M 0.954531 0.316016 L 0.0454688 0.316016 L 0.175313 0.467539 L 0.370117 0.554102 L 0.608242 0.575742 L 0.694805 0.575742 L 0.824688 0.662344 L 0.932891 0.683984 Z M 0.954531 0.316016 " transform="matrix(100,0,0,100,450,2000)"/>
<path style="fill:none;stroke-width:0.01;stroke-linecap:butt;stroke-linejoin:miter;stroke:rgb(0%,0%,0%);stroke-opacity:1;stroke-miterlimit:10;" d="M 0.871914 0.871914 L 0.0454688 0.128086 L 0.954531 0.128086 Z M 0.871914 0.871914 " transform="matrix(100,0,0,100,600,2000)"/>
<path style="fill:none;stroke-width:0.01;stroke-linecap:butt;stroke-linejoin:miter;stroke:rgb(0%,0%,0%);stroke-opacity:1;stroke-miterlimit:10;" d="M 0.466953 0.0454688 L 0.40082 0.177695 L 0.384297 0.293398 L 0.40082 0.359492 L 0.40082 0.541328 L 0.384297 0.706602 L 0.384297 0.838828 L 0.35125 0.921484 L 0.64875 0.954531 L 0.64875 0.706602 L 0.632227 0.475195 L 0.615703 0.326445 L 0.566133 0.210742 L 0.566133 0.111563 Z M 0.466953 0.0454688 " transform="matrix(100,0,0,100,0,2150)"/>
<path style="fill:none;stroke-width:0.01;stroke-linecap:butt;stroke-linejoin:miter;stroke:rgb(0%,0%,0%);stroke-opacity:1;stroke-miterlimit:10;" d="M 0.52332 0.0454688 L 0.52332 0.185313 L 0.546602 0.325156 L 0.569922 0.488359 L 0.593242 0.651523 L 0.639844 0.814688 L 0.616563 0.954531 L 0.52332 0.814688 L 0.453398 0.698125 L 0.453398 0.558281 L 0.360156 0.441719 L 0.383438 0.348477 L 0.360156 0.255234 L 0.453398 0.0920703 Z M 0.52332 0.0454688 " transform="matrix(100,0,0,100,150,2150)"/>
<path style="fill:none;stroke-width:0.01;stroke-linecap:butt;stroke-linejoin:miter;stroke:rgb(0%,0%,0%);stroke-opacity:1;stroke-miterlimit:10;" d="M 0.594336 0.0797656 L 0.611484 0.165508 L 0.645781 0.251289 L 0.645781 0.388516 L 0.662969 0.783008 L 0.645781 0.868789 L 0.560039 0.954531 L 0.457109 0.937383 L 0.388516 0.885938 L 0.337031 0.783008 L 0.354219 0.645781 L 0.388516 0.457109 L 0.457109 0.234141 L 0.439961 0.131211 L 0.491406 0.0454688 Z M 0.594336 0.0797656 " transform="matrix(100,0,0,100,300,2150)"/>
<path style="fill:none;stroke-width:0.01;stroke-linecap:butt;stroke-linejoin:miter;stroke:rgb(0%,0%,0%);stroke-opacity:1;stroke-miterlimit:10;" d="M 0.640508 0.409102 L 0.673555 0.607422 L 0.574375 0.475195 L 0.607422 0.673555 L 0.623984 0.822305 L 0.590898 0.954531 L 0.541328 0.954531 L 0.508281 0.805781 L 0.475195 0.723125 L 0.458672 0.607422 L 0.376016 0.557852 L 0.425625 0.458672 L 0.376016 0.342969 L 0.359492 0.342969 L 0.326445 0.276875 L 0.359492 0.210742 L 0.392578 0.128086 L 0.425625 0.0454688 L 0.508281 0.0454688 L 0.524805 0.0950391 L 0.541328 0.177695 L 0.590898 0.161172 L 0.623984 0.161172 L 0.640508 0.276875 L 0.657031 0.359492 Z M 0.640508 0.409102 " transform="matrix(100,0,0,100,450,2150)"/>
<path style="fill:none;stroke-width:0.01;stroke-linecap:butt;stroke-linejoin:miter;stroke:rgb(0%,0%,0%);stroke-opacity:1;stroke-miterlimit:10;" d="M 0.43457 0.0454688 L 0.620508 0.0454688 L 0.641172 0.128086 L 0.634297 0.38293 L 0.641172 0.672187 L 0.627422 0.754805 L 0.613633 0.906328 L 0.627422 0.913242 L 0.606758 0.954531 L 0.586094 0.933867 L 0.558555 0.858125 L 0.544766 0.789258 L 0.524102 0.741055 L 0.510313 0.706602 L 0.496563 0.61707 L 0.427695 0.465547 L 0.427695 0.348477 L 0.400156 0.272734 L 0.372578 0.183203 L 0.358828 0.0454688 Z M 0.43457 0.0454688 " transform="matrix(100,0,0,100,600,2150)"/>
<path style="fill:none;stroke-width:0.01;stroke-linecap:butt;stroke-linejoin:miter;stroke:rgb(0%,0%,0%);stroke-opacity:1;stroke-miterlimit:10;" d="M 0.657891 0.858867 L 0.64832 0.0454688 L 0.600469 0.0646094 L 0.600469 0.0933203 L 0.514336 0.150703 L 0.447383 0.208125 L 0.409102 0.265547 L 0.37082 0.313398 L 0.342109 0.36125 L 0.36125 0.428242 L 0.37082 0.485664 L 0.389961 0.514336 L 0.35168 0.533477 L 0.35168 0.552617 L 0.37082 0.590898 L 0.466523 0.600469 L 0.476094 0.63875 L 0.514336 0.686602 L 0.562188 0.734453 L 0.600469 0.744023 L 0.600469 0.791875 L 0.62918 0.839727 L 0.619609 0.90668 L 0.62918 0.954531 L 0.64832 0.935391 L 0.657891 0.935391 Z M 0.657891 0.858867 " transform="matrix(100,0,0,100,0,2300)"/>
<path style="fill:none;stroke-width:0.01;stroke-linecap:butt;stroke-linejoin:miter;stroke:rgb(0%,0%,0%);stroke-opacity:1;stroke-miterlimit:10;" d="M 0.647422 0.192891 L 0.671992 0.954531 L 0.573711 0.905391 L 0.426289 0.782539 L 0.328008 0.659688 L 0.352578 0.291172 L 0.47543 0.14375 L 0.598281 0.0454688 Z M 0.647422 0.192891 " transform="matrix(100,0,0,100,150,2300)"/>
<path style="fill:none;stroke-width:0.01;stroke-linecap:butt;stroke-linejoin:miter;stroke:rgb(0%,0%,0%);stroke-opacity:1;stroke-miterlimit:10;" d="M 0.102266 0.727266 L 0.5 0.386367 L 0.784102 0.0454688 L 0.784102 0.159102 L 0.897734 0.727266 L 0.840898 0.954531 L 0.102266 0.954531 Z M 0.102266 0.727266 " transform="matrix(100,0,0,100,300,2300)"/>
<path style="fill:none;stroke-width:0.01;stroke-linecap:butt;stroke-linejoin:miter;stroke:rgb(0%,0%,0%);stroke-opacity:1;stroke-miterlimit:10;" d="M 0.473281 0.0454688 L 0.232617 0.286094 L 0.232617 0.5 L 0.366328 0.740625 L 0.473281 0.820859 L 0.366328 0.901055 L 0.473281 0.954531 L 0.66043 0.901055 L 0.767383 0.954531 L 0.687148 0.740625 L 0.713906 0.526719 L 0.713906 0.419805 L 0.580195 0.286094 Z M 0.473281 0.0454688 " transform="matrix(100,0,0,100,450,2300)"/>
<path style="fill:none;stroke-width:0.01;stroke-linecap:butt;stroke-linejoin:miter;stroke:rgb(0%,0%,0%);stroke-opacity:1;stroke-miterlimit:10;" d="M 0.687148 0.0454688 L 0.794102 0.473281 L 0.740625 0.954531 L 0.526719 0.954531 L 0.205898 0.526719 L 0.259375 0.366328 L 0.312852 0.152422 Z M 0.687148 0.0454688 " transform="matrix(100,0,0,100,600,2300)"/>
<path style="fill:none;stroke-width:0.01;stroke-linecap:butt;stroke-linejoin:miter;stroke:rgb(0%,0%,0%);stroke-opacity:1;stroke-miterlimit:10;" d="M 0.670469 0.954531 L 0.405313 0.91668 L 0.329531 0.765156 L 0.481055 0.462109 L 0.518945 0.272734 L 0.594688 0.0833203 L 0.594688 0.0454688 Z M 0.670469 0.954531 " transform="matrix(100,0,0,100,0,2450)"/>
<path style="fill:none;stroke-width:0.01;stroke-linecap:butt;stroke-linejoin:miter;stroke:rgb(0%,0%,0%);stroke-opacity:1;stroke-miterlimit:10;" d="M 0.785547 0.954531 L 0.214453 0.954531 L 0.214453 0.779727 L 0.284375 0.581602 L 0.342656 0.441719 L 0.389297 0.371797 L 0.389297 0.325156 L 0.412578 0.266914 L 0.459219 0.220273 L 0.5175 0.196953 L 0.552461 0.185313 L 0.622383 0.103711 L 0.668984 0.0571094 L 0.727266 0.0571094 L 0.773906 0.0454688 Z M 0.785547 0.954531 " transform="matrix(100,0,0,100,150,2450)"/>
<path style="fill:none;stroke-width:0.01;stroke-linecap:butt;stroke-linejoin:miter;stroke:rgb(0%,0%,0%);stroke-opacity:1;stroke-miterlimit:10;" d="M 0.954531 0.667461 L 0.0454687 0.672266 L 0.069375 0.657891 L 0.107656 0.667461 L 0.150703 0.667461 L 0.165078 0.653125 L 0.165078 0.633984 L 0.160273 0.624414 L 0.169844 0.581328 L 0.188984 0.562188 L 0.184219 0.552617 L 0.169844 0.528711 L 0.165078 0.5 L 0.165078 0.476094 L 0.150703 0.404297 L 0.184219 0.37082 L 0.21293 0.375586 L 0.251211 0.413867 L 0.289492 0.418672 L 0.346875 0.394727 L 0.433008 0.36125 L 0.519141 0.380391 L 0.595703 0.394727 L 0.667461 0.394727 L 0.720078 0.346875 L 0.744023 0.35168 L 0.772734 0.342109 L 0.811016 0.327734 L 0.830156 0.327734 L 0.849297 0.342109 L 0.882773 0.366016 L 0.911484 0.389961 L 0.954531 0.37082 Z M 0.954531 0.667461 " transform="matrix(100,0,0,100,300,2450)"/>
<path style="fill:none;stroke-width:0.01;stroke-linecap:butt;stroke-linejoin:miter;stroke:rgb(0%,0%,0%);stroke-opacity:1;stroke-miterlimit:10;" d="M 0.421211 0.954531 L 0.287891 0.893945 L 0.16668 0.712109 L 0.130313 0.469687 L 0.16668 0.287891 L 0.227266 0.215156 L 0.372734 0.0454688 L 0.869688 0.0454688 L 0.796953 0.227266 L 0.639375 0.421211 L 0.56668 0.651523 L 0.469688 0.845469 Z M 0.421211 0.954531 " transform="matrix(100,0,0,100,450,2450)"/>
<path style="fill:none;stroke-width:0.01;stroke-linecap:butt;stroke-linejoin:miter;stroke:rgb(0%,0%,0%);stroke-opacity:1;stroke-miterlimit:10;" d="M 0.392344 0.0454688 L 0.12918 0.428242 L 0.105273 0.535898 L 0.308594 0.894727 L 0.464102 0.954531 L 0.894727 0.0454688 Z M 0.392344 0.0454688 " transform="matrix(100,0,0,100,600,2450)"/>
<path style="fill:none;stroke-width:0.01;stroke-linecap:butt;stroke-linejoin:miter;stroke:rgb(0%,0%,0%);stroke-opacity:1;stroke-miterlimit:10;" d="M 0.568867 0.0454688 L 0.522969 0.0454688 L 0.467852 0.146445 L 0.431133 0.376016 L 0.467852 0.844336 L 0.568867 0.954531 Z M 0.568867 0.0454688 " transform="matrix(100,0,0,100,0,2600)"/>
<path style="fill:none;stroke-width:0.01;stroke-linecap:butt;stroke-linejoin:miter;stroke:rgb(0%,0%,0%);stroke-opacity:1;stroke-miterlimit:10;" d="M 0.567344 0.0454688 L 0.516836 0.180117 L 0.550508 0.466328 L 0.516836 0.702031 L 0.533672 0.819883 L 0.466328 0.954531 L 0.449492 0.836719 L 0.466328 0.786211 L 0.432656 0.668359 L 0.449492 0.516836 L 0.449492 0.398984 L 0.466328 0.281133 L 0.483164 0.129648 Z M 0.567344 0.0454688 " transform="matrix(100,0,0,100,150,2600)"/>
<path style="fill:none;stroke-width:0.01;stroke-linecap:butt;stroke-linejoin:miter;stroke:rgb(0%,0%,0%);stroke-opacity:1;stroke-miterlimit:10;" d="M 0.193164 0.939375 L 0.625 0.954531 L 0.602266 0.931836 L 0.625 0.893945 L 0.662891 0.863633 L 0.693164 0.825742 L 0.738633 0.787891 L 0.761367 0.757578 L 0.731055 0.75 L 0.655312 0.772734 L 0.617422 0.75 L 0.556836 0.712109 L 0.511367 0.704531 L 0.481055 0.628789 L 0.496211 0.575742 L 0.534102 0.530313 L 0.564375 0.5 L 0.602266 0.469687 L 0.662891 0.462109 L 0.776523 0.477266 L 0.806836 0.439375 L 0.768945 0.363633 L 0.685625 0.33332 L 0.526523 0.303047 L 0.488633 0.25 L 0.443164 0.318164 L 0.405312 0.280313 L 0.375 0.212109 L 0.329531 0.16668 L 0.29168 0.121211 L 0.200742 0.0454688 Z M 0.193164 0.939375 " transform="matrix(100,0,0,100,300,2600)"/>
<path style="fill:none;stroke-width:0.01;stroke-linecap:butt;stroke-linejoin:miter;stroke:rgb(0%,0%,0%);stroke-opacity:1;stroke-miterlimit:10;" d="M 0.564922 0.0454688 L 0.824688 0.305195 L 0.889609 0.889609 L 0.694805 0.954531 L 0.435078 0.564922 L 0.110391 0.240273 Z M 0.564922 0.0454688 " transform="matrix(100,0,0,100,450,2600)"/>
<path style="fill:none;stroke-width:0.01;stroke-linecap:butt;stroke-linejoin:miter;stroke:rgb(0%,0%,0%);stroke-opacity:1;stroke-miterlimit:10;" d="M 0.215156 0.0939453 L 0.809102 0.0696875 L 0.942422 0.0939453 L 0.954531 0.578789 L 0.954531 0.930312 L 0.881836 0.881836 L 0.821211 0.821211 L 0.784844 0.821211 L 0.748477 0.893945 L 0.724258 0.881836 L 0.687891 0.724258 L 0.481836 0.43332 L 0.396953 0.469687 L 0.409102 0.554531 L 0.409102 0.627266 L 0.360625 0.542422 L 0.360625 0.493945 L 0.384844 0.421211 L 0.360625 0.396953 L 0.263633 0.372734 L 0.154531 0.312109 L 0.106055 0.203047 L 0.0454688 0.0939453 Z M 0.215156 0.0939453 " transform="matrix(100,0,0,100,600,2600)"/>
<path style="fill:none;stroke-width:0.01;stroke-linecap:butt;stroke-linejoin:miter;stroke:rgb(0%,0%,0%);stroke-opacity:1;stroke-miterlimit:10;" d="M 0.459336 0.939766 L 0.459336 0.562812 L 0.481523 0.437188 L 0.488906 0.333711 L 0.503711 0.27457 L 0.496289 0.178477 L 0.496289 0.075 L 0.511094 0.0454688 L 0.518477 0.119375 L 0.533242 0.326328 L 0.533242 0.548047 L 0.540664 0.636719 L 0.511094 0.740195 L 0.503711 0.880625 L 0.496289 0.939766 L 0.496289 0.954531 Z M 0.459336 0.939766 " transform="matrix(100,0,0,100,0,2750)"/>
<path style="fill:none;stroke-width:0.01;stroke-linecap:butt;stroke-linejoin:miter;stroke:rgb(0%,0%,0%);stroke-opacity:1;stroke-miterlimit:10;" d="M 0.256484 0.597422 L 0.353906 0.402578 L 0.353906 0.207773 L 0.613633 0.110391 L 0.711055 0.0454688 L 0.775977 0.110391 L 0.840898 0.240273 L 0.808438 0.402578 L 0.840898 0.759727 L 0.873359 0.954531 L 0.224023 0.954531 L 0.126641 0.889609 Z M 0.256484 0.597422 " transform="matrix(100,0,0,100,150,2750)"/>
<path style="fill:none;stroke-width:0.01;stroke-linecap:butt;stroke-linejoin:miter;stroke:rgb(0%,0%,0%);stroke-opacity:1;stroke-miterlimit:10;" d="M 0.681836 0.363633 L 0.742422 0.469687 L 0.803047 0.560625 L 0.803047 0.727266 L 0.757578 0.954531 L 0.484844 0.939375 L 0.33332 0.878789 L 0.227266 0.696953 L 0.409102 0.515156 L 0.530312 0.257578 L 0.66668 0.272734 L 0.5 0.0454688 L 0.378789 0.060625 L 0.227266 0.227266 L 0.196953 0.303047 L 0.227266 0.681836 L 0.424258 0.469687 L 0.530312 0.242422 L 0.651523 0.257578 Z M 0.681836 0.363633 " transform="matrix(100,0,0,100,300,2750)"/>
<path style="fill:none;stroke-width:0.01;stroke-linecap:butt;stroke-linejoin:miter;stroke:rgb(0%,0%,0%);stroke-opacity:1;stroke-miterlimit:10;" d="M 0.220898 0.0454688 L 0.220898 0.795039 L 0.300625 0.954531 L 0.460117 0.922656 L 0.55582 0.795039 L 0.55582 0.699375 L 0.587734 0.619609 L 0.651523 0.476094 L 0.699375 0.396328 L 0.715313 0.348477 L 0.779102 0.220898 L 0.779102 0.0773438 L 0.747227 0.0454688 Z M 0.220898 0.0454688 " transform="matrix(100,0,0,100,450,2750)"/>
<path style="fill:none;stroke-width:0.01;stroke-linecap:butt;stroke-linejoin:miter;stroke:rgb(0%,0%,0%);stroke-opacity:1;stroke-miterlimit:10;" d="M 0.0454688 0.469297 L 0.0946094 0.592148 L 0.192891 0.604414 L 0.340313 0.604414 L 0.438594 0.628984 L 0.561406 0.628984 L 0.635117 0.604414 L 0.622852 0.567578 L 0.88082 0.567578 L 0.917695 0.530703 L 0.954531 0.371016 L 0.0454688 0.371016 Z M 0.0454688 0.469297 " transform="matrix(100,0,0,100,600,2750)"/>
<path style="fill:none;stroke-width:0.01;stroke-linecap:butt;stroke-linejoin:miter;stroke:rgb(0%,0%,0%);stroke-opacity:1;stroke-miterlimit:10;" d="M 0.132852 0.255234 L 0.167852 0.569922 L 0.342656 0.849648 L 0.4825 0.954531 L 0.587422 0.91957 L 0.867148 0.954531 L 0.93707 0.884609 L 0.867148 0.709805 L 0.727266 0.569922 L 0.762227 0.395117 L 0.832148 0.220273 L 0.832148 0.0454688 L 0.0629297 0.0454688 Z M 0.132852 0.255234 " transform="matrix(100,0,0,100,0,2900)"/>
<path style="fill:none;stroke-width:0.01;stroke-linecap:butt;stroke-linejoin:miter;stroke:rgb(0%,0%,0%);stroke-opacity:1;stroke-miterlimit:10;" d="M 0.373164 0.954531 L 0.478867 0.78543 L 0.542266 0.700859 L 0.563438 0.679688 L 0.542266 0.616289 L 0.478867 0.573984 L 0.5 0.510586 L 0.563438 0.447148 L 0.542266 0.383711 L 0.5 0.362578 L 0.521133 0.256875 L 0.563438 0.172305 L 0.58457 0.0877344 L 0.626836 0.0454688 L 0.626836 0.573984 L 0.605703 0.891133 L 0.605703 0.954531 Z M 0.373164 0.954531 " transform="matrix(100,0,0,100,150,2900)"/>
<path style="fill:none;stroke-width:0.01;stroke-linecap:butt;stroke-linejoin:miter;stroke:rgb(0%,0%,0%);stroke-opacity:1;stroke-miterlimit:10;" d="M 0.52457 0.0454688 L 0.47543 0.340312 L 0.52457 0.463164 L 0.52457 0.585977 L 0.573711 0.757969 L 0.598281 0.83168 L 0.598281 0.954531 L 0.5 0.83168 L 0.450859 0.733398 L 0.426289 0.659688 L 0.47543 0.512266 L 0.401719 0.315742 Z M 0.52457 0.0454688 " transform="matrix(100,0,0,100,300,2900)"/>
<path style="fill:none;stroke-width:0.01;stroke-linecap:butt;stroke-linejoin:miter;stroke:rgb(0%,0%,0%);stroke-opacity:1;stroke-miterlimit:10;" d="M 0.636914 0.708086 L 0.450703 0.631445 L 0.30832 0.5 L 0.242617 0.445234 L 0.406914 0.401406 L 0.417852 0.237148 L 0.30832 0.259023 L 0.220703 0.27 L 0.133086 0.237148 L 0.0564063 0.237148 L 0.0454688 0.215234 L 0.636914 0.215234 L 0.69168 0.379531 L 0.757383 0.467148 L 0.812148 0.57668 L 0.888828 0.620469 L 0.954531 0.664297 L 0.910742 0.762852 L 0.779297 0.784766 Z M 0.636914 0.708086 " transform="matrix(100,0,0,100,450,2900)"/>
<path style="fill:none;stroke-width:0.01;stroke-linecap:butt;stroke-linejoin:miter;stroke:rgb(0%,0%,0%);stroke-opacity:1;stroke-miterlimit:10;" d="M 0.196953 0.742422 L 0.212109 0.643945 L 0.219688 0.530313 L 0.234844 0.431836 L 0.25 0.363633 L 0.265156 0.340898 L 0.257578 0.393945 L 0.257578 0.621211 L 0.25 0.696953 L 0.257578 0.787891 L 0.265156 0.886367 L 0.280312 0.840898 L 0.295469 0.795469 L 0.303047 0.727266 L 0.303047 0.681836 L 0.318164 0.689375 L 0.340898 0.696953 L 0.340898 0.66668 L 0.371211 0.598477 L 0.363633 0.522734 L 0.356055 0.507578 L 0.363633 0.469687 L 0.363633 0.431836 L 0.386367 0.424258 L 0.393945 0.439375 L 0.386367 0.477266 L 0.409102 0.492422 L 0.431836 0.492422 L 0.439375 0.462109 L 0.431836 0.401523 L 0.439375 0.363633 L 0.515156 0.318164 L 0.530312 0.265156 L 0.537891 0.234844 L 0.575742 0.174258 L 0.568164 0.128789 L 0.590898 0.0908984 L 0.628789 0.0681641 L 0.636367 0.0833203 L 0.621211 0.128789 L 0.613633 0.174258 L 0.621211 0.242422 L 0.613633 0.272734 L 0.613633 0.310625 L 0.606055 0.295469 L 0.636367 0.340898 L 0.651523 0.348477 L 0.696953 0.363633 L 0.704531 0.33332 L 0.719688 0.310625 L 0.742422 0.272734 L 0.742422 0.219687 L 0.772734 0.159102 L 0.795469 0.113633 L 0.803047 0.060625 L 0.810625 0.060625 L 0.795469 0.0454688 L 0.803047 0.265156 L 0.803047 0.643945 L 0.810625 0.772734 L 0.795469 0.83332 L 0.780312 0.848477 L 0.772734 0.787891 L 0.742422 0.734844 L 0.727266 0.696953 L 0.712109 0.689375 L 0.674258 0.719687 L 0.651523 0.742422 L 0.628789 0.787891 L 0.621211 0.795469 L 0.575742 0.75 L 0.553047 0.772734 L 0.522734 0.848477 L 0.507578 0.825742 L 0.469688 0.840898 L 0.462109 0.795469 L 0.439375 0.795469 L 0.424258 0.825742 L 0.424258 0.856055 L 0.431836 0.878789 L 0.431836 0.886367 L 0.378789 0.878789 L 0.363633 0.893945 L 0.340898 0.871211 L 0.33332 0.83332 L 0.265156 0.91668 L 0.265156 0.931836 L 0.25 0.954531 L 0.227266 0.931836 L 0.204531 0.893945 L 0.189375 0.886367 L 0.196953 0.856055 L 0.196953 0.803047 L 0.204531 0.765156 Z M 0.196953 0.742422 " transform="matrix(100,0,0,100,600,2900)"/>
<path style="fill:none;stroke-width:0.01;stroke-linecap:butt;stroke-linejoin:miter;stroke:rgb(0%,0%,0%);stroke-opacity:1;stroke-miterlimit:10;" d="M 0.312852 0.0454688 L 0.295 0.286094 L 0.321758 0.437617 L 0.330664 0.508906 L 0.366328 0.651523 L 0.330664 0.722812 L 0.384141 0.811953 L 0.419805 0.767383 L 0.464336 0.803047 L 0.464336 0.847578 L 0.491094 0.91 L 0.491094 0.954531 L 0.535664 0.954531 L 0.571289 0.91 L 0.598047 0.847578 L 0.598047 0.776289 L 0.615859 0.74957 L 0.642617 0.696094 L 0.615859 0.606953 L 0.624766 0.437617 L 0.642617 0.295 L 0.678242 0.170234 L 0.705 0.0632812 L 0.696094 0.0454688 Z M 0.312852 0.0454688 " transform="matrix(100,0,0,100,0,3050)"/>
<path style="fill:none;stroke-width:0.01;stroke-linecap:butt;stroke-linejoin:miter;stroke:rgb(0%,0%,0%);stroke-opacity:1;stroke-miterlimit:10;" d="M 0.590898 0.954531 L 0.477266 0.954531 L 0.511367 0.693164 L 0.488633 0.625 L 0.420469 0.613633 L 0.397734 0.579531 L 0.397734 0.522734 L 0.340898 0.488633 L 0.318164 0.454531 L 0.352266 0.420469 L 0.306836 0.397734 L 0.375 0.306836 L 0.454531 0.261367 L 0.545469 0.227266 L 0.545469 0.170469 L 0.5 0.113633 L 0.477266 0.0454688 L 0.545469 0.0795313 L 0.556836 0.125 L 0.556836 0.204531 L 0.579531 0.272734 L 0.647734 0.375 L 0.590898 0.397734 L 0.602266 0.431836 L 0.670469 0.465898 L 0.670469 0.579531 L 0.659102 0.625 L 0.659102 0.727266 L 0.693164 0.761367 L 0.681836 0.840898 L 0.693164 0.897734 L 0.681836 0.931836 Z M 0.590898 0.954531 " transform="matrix(100,0,0,100,150,3050)"/>
<path style="fill:none;stroke-width:0.01;stroke-linecap:butt;stroke-linejoin:miter;stroke:rgb(0%,0%,0%);stroke-opacity:1;stroke-miterlimit:10;" d="M 0.638359 0.0454688 L 0.677852 0.361641 L 0.677852 0.954531 L 0.401172 0.796445 L 0.322148 0.519766 L 0.361641 0.243086 Z M 0.638359 0.0454688 " transform="matrix(100,0,0,100,300,3050)"/>
<path style="fill:none;stroke-width:0.01;stroke-linecap:butt;stroke-linejoin:miter;stroke:rgb(0%,0%,0%);stroke-opacity:1;stroke-miterlimit:10;" d="M 0.296641 0.230859 L 0.954531 0.230859 L 0.954531 0.769141 L 0.727266 0.661484 L 0.691406 0.637578 L 0.607656 0.673438 L 0.511953 0.649531 L 0.452148 0.553828 L 0.308594 0.434219 L 0.200938 0.350469 L 0.117227 0.254766 L 0.0454688 0.230859 L 0.332539 0.242812 Z M 0.296641 0.230859 " transform="matrix(100,0,0,100,450,3050)"/>
<path style="fill:none;stroke-width:0.01;stroke-linecap:butt;stroke-linejoin:miter;stroke:rgb(0%,0%,0%);stroke-opacity:1;stroke-miterlimit:10;" d="M 0.0757422 0.0738672 L 0.58332 0.0738672 L 0.613633 0.111758 L 0.636367 0.134453 L 0.659102 0.164766 L 0.674258 0.183711 L 0.689375 0.214023 L 0.700742 0.22918 L 0.715898 0.259453 L 0.738633 0.27082 L 0.746211 0.282187 L 0.757578 0.304922 L 0.79168 0.320078 L 0.810625 0.373125 L 0.825742 0.392031 L 0.840898 0.410977 L 0.848477 0.4375 L 0.890156 0.464023 L 0.901523 0.448867 L 0.91668 0.452656 L 0.931836 0.471602 L 0.954531 0.426133 L 0.950742 0.623125 L 0.931836 0.596602 L 0.897734 0.585234 L 0.871211 0.589023 L 0.856055 0.619336 L 0.856055 0.64582 L 0.829531 0.660977 L 0.787891 0.657187 L 0.768945 0.6875 L 0.734844 0.702656 L 0.689375 0.695078 L 0.670469 0.683711 L 0.643945 0.64582 L 0.609844 0.664766 L 0.571953 0.72918 L 0.568164 0.820078 L 0.522734 0.839023 L 0.507578 0.846602 L 0.492422 0.89582 L 0.473477 0.899609 L 0.41668 0.880664 L 0.386367 0.869336 L 0.371211 0.910977 L 0.367422 0.926133 L 0.344688 0.922344 L 0.33332 0.907187 L 0.340898 0.873125 L 0.367422 0.831445 L 0.378789 0.808711 L 0.382578 0.808711 L 0.412891 0.8125 L 0.439375 0.797344 L 0.446953 0.77082 L 0.431836 0.736758 L 0.424258 0.714023 L 0.431836 0.664766 L 0.428047 0.626875 L 0.420469 0.592813 L 0.378789 0.600391 L 0.393945 0.532187 L 0.340898 0.528398 L 0.359844 0.494336 L 0.33332 0.460234 L 0.295469 0.426133 L 0.268945 0.410977 L 0.265156 0.433711 L 0.253789 0.452656 L 0.223477 0.464023 L 0.196953 0.460234 L 0.185625 0.433711 L 0.0984766 0.441289 L 0.0984766 0.407187 L 0.121211 0.399609 L 0.140156 0.388242 L 0.16668 0.361758 L 0.204531 0.365547 L 0.238633 0.39582 L 0.257578 0.414766 L 0.272734 0.384453 L 0.295469 0.301133 L 0.295469 0.274609 L 0.33332 0.267031 L 0.33332 0.236758 L 0.257578 0.221602 L 0.238633 0.157187 L 0.215898 0.191289 L 0.196953 0.202656 L 0.178047 0.202656 L 0.147734 0.176133 L 0.125 0.160977 L 0.0984766 0.157187 L 0.0795313 0.172344 L 0.060625 0.164766 L 0.0681641 0.142031 L 0.060625 0.10418 L 0.0454688 0.0738672 Z M 0.0757422 0.0738672 " transform="matrix(100,0,0,100,600,3050)"/>
<path style="fill:none;stroke-width:0.01;stroke-linecap:butt;stroke-linejoin:miter;stroke:rgb(0%,0%,0%);stroke-opacity:1;stroke-miterlimit:10;" d="M 0.560625 0.772734 L 0.560625 0.348477 L 0.439375 0.0454687 L 0.257578 0.287891 L 0.318164 0.712109 L 0.378789 0.954531 L 0.742422 0.893945 Z M 0.560625 0.772734 " transform="matrix(100,0,0,100,0,3200)"/>
<path style="fill:none;stroke-width:0.01;stroke-linecap:butt;stroke-linejoin:miter;stroke:rgb(0%,0%,0%);stroke-opacity:1;stroke-miterlimit:10;" d="M 0.653281 0.288594 L 0.653281 0.0454687 L 0.60043 0.0560156 L 0.536992 0.0983203 L 0.39957 0.204023 L 0.346719 0.235742 L 0.367852 0.309727 L 0.367852 0.478867 L 0.389023 0.531719 L 0.473555 0.637422 L 0.505273 0.732539 L 0.568711 0.838281 L 0.632148 0.922852 L 0.653281 0.954531 Z M 0.653281 0.288594 " transform="matrix(100,0,0,100,150,3200)"/>
<path style="fill:none;stroke-width:0.01;stroke-linecap:butt;stroke-linejoin:miter;stroke:rgb(0%,0%,0%);stroke-opacity:1;stroke-miterlimit:10;" d="M 0.559297 0.756914 L 0.559297 0.0454687 L 0.480234 0.124492 L 0.401172 0.519766 L 0.361641 0.717383 L 0.401172 0.875508 L 0.519766 0.954531 L 0.638359 0.915039 Z M 0.559297 0.756914 " transform="matrix(100,0,0,100,300,3200)"/>
<path style="fill:none;stroke-width:0.01;stroke-linecap:butt;stroke-linejoin:miter;stroke:rgb(0%,0%,0%);stroke-opacity:1;stroke-miterlimit:10;" d="M 0.558633 0.690625 L 0.558633 0.954531 L 0.441367 0.866563 L 0.470664 0.690625 L 0.470664 0.42668 L 0.5 0.19207 L 0.5 0.0454687 L 0.558633 0.19207 L 0.558633 0.456016 Z M 0.558633 0.690625 " transform="matrix(100,0,0,100,450,3200)"/>
<path style="fill:none;stroke-width:0.01;stroke-linecap:butt;stroke-linejoin:miter;stroke:rgb(0%,0%,0%);stroke-opacity:1;stroke-miterlimit:10;" d="M 0.954531 0.125664 L 0.918906 0.820859 L 0.776289 0.874336 L 0.598047 0.767383 L 0.437617 0.713906 L 0.277188 0.767383 L 0.205898 0.731719 L 0.188047 0.696094 L 0.188047 0.517812 L 0.0454688 0.446523 L 0.0632813 0.268281 L 0.116758 0.125664 Z M 0.954531 0.125664 " transform="matrix(100,0,0,100,600,3200)"/>
<path style="fill:none;stroke-width:0.01;stroke-linecap:butt;stroke-linejoin:miter;stroke:rgb(0%,0%,0%);stroke-opacity:1;stroke-miterlimit:10;" d="M 0.768359 0.954531 L 0.231641 0.954531 L 0.24625 0.928984 L 0.279102 0.903438 L 0.279102 0.837695 L 0.282773 0.801211 L 0.286406 0.779297 L 0.293711 0.75375 L 0.304688 0.731836 L 0.32293 0.69168 L 0.297383 0.636914 L 0.30832 0.611367 L 0.311992 0.585781 L 0.319258 0.593086 L 0.32293 0.622305 L 0.311992 0.673437 L 0.301016 0.771992 L 0.304688 0.812148 L 0.315625 0.83043 L 0.315625 0.812148 L 0.32293 0.83043 L 0.337539 0.812148 L 0.344844 0.793906 L 0.355781 0.779297 L 0.363086 0.786602 L 0.366758 0.797539 L 0.363086 0.83043 L 0.370391 0.848672 L 0.377695 0.863281 L 0.395937 0.859609 L 0.458008 0.870586 L 0.520078 0.863281 L 0.527383 0.855977 L 0.527383 0.786602 L 0.531016 0.768359 L 0.55293 0.724531 L 0.53832 0.69168 L 0.534687 0.673437 L 0.53832 0.658828 L 0.549297 0.640547 L 0.593086 0.618672 L 0.618672 0.607695 L 0.644219 0.596758 L 0.673438 0.571211 L 0.669766 0.549297 L 0.669766 0.516445 L 0.666133 0.505469 L 0.688008 0.472617 L 0.702617 0.46168 L 0.713594 0.450703 L 0.713594 0.406914 L 0.702617 0.388633 L 0.713594 0.348477 L 0.709922 0.330234 L 0.713594 0.268164 L 0.724531 0.249922 L 0.739141 0.217031 L 0.750078 0.202461 L 0.750078 0.176875 L 0.757383 0.165937 L 0.750078 0.176875 L 0.757383 0.147695 L 0.757383 0.122109 L 0.761055 0.100234 L 0.750078 0.0600391 L 0.75375 0.0454687 L 0.761055 0.0783203 L 0.761055 0.125781 L 0.757383 0.180547 L 0.761055 0.260859 L 0.761055 0.32293 L 0.768359 0.417852 L 0.768359 0.487227 L 0.764687 0.578477 L 0.764687 0.655156 L 0.768359 0.731836 L 0.768359 0.81582 Z M 0.768359 0.954531 " transform="matrix(100,0,0,100,0,3350)"/>
<path style="fill:none;stroke-width:0.01;stroke-linecap:butt;stroke-linejoin:miter;stroke:rgb(0%,0%,0%);stroke-opacity:1;stroke-miterlimit:10;" d="M 0.793242 0.0454687 L 0.617305 0.104102 L 0.470664 0.221406 L 0.353359 0.368047 L 0.324063 0.42668 L 0.177422 0.485352 L 0.11875 0.543984 L 0.148086 0.661289 L 0.265391 0.837227 L 0.470664 0.925234 L 0.558633 0.954531 L 0.675937 0.954531 L 0.763945 0.895898 L 0.851914 0.690625 L 0.88125 0.514648 L 0.88125 0.338711 L 0.851914 0.133437 Z M 0.793242 0.0454687 " transform="matrix(100,0,0,100,150,3350)"/>
<path style="fill:none;stroke-width:0.01;stroke-linecap:butt;stroke-linejoin:miter;stroke:rgb(0%,0%,0%);stroke-opacity:1;stroke-miterlimit:10;" d="M 0.318164 0.772734 L 0.390898 0.409102 L 0.463633 0.190898 L 0.536367 0.0818359 L 0.681836 0.0454687 L 0.645469 0.118164 L 0.609102 0.372734 L 0.645469 0.554531 L 0.645469 0.954531 L 0.5 0.845469 Z M 0.318164 0.772734 " transform="matrix(100,0,0,100,300,3350)"/>
<path style="fill:none;stroke-width:0.01;stroke-linecap:butt;stroke-linejoin:miter;stroke:rgb(0%,0%,0%);stroke-opacity:1;stroke-miterlimit:10;" d="M 0.217188 0.0454687 L 0.227266 0.106055 L 0.287891 0.186875 L 0.348477 0.318164 L 0.409102 0.41918 L 0.459609 0.530313 L 0.489883 0.621211 L 0.58082 0.752539 L 0.681836 0.83332 L 0.752539 0.924258 L 0.782813 0.954531 L 0.782813 0.0454687 Z M 0.217188 0.0454687 " transform="matrix(100,0,0,100,450,3350)"/>
<path style="fill:none;stroke-width:0.01;stroke-linecap:butt;stroke-linejoin:miter;stroke:rgb(0%,0%,0%);stroke-opacity:1;stroke-miterlimit:10;" d="M 0.0804297 0.808867 L 0.0454688 0.773906 L 0.0571094 0.657344 L 0.127031 0.4825 L 0.255234 0.459219 L 0.360156 0.4825 L 0.534961 0.4825 L 0.488359 0.342656 L 0.511641 0.226094 L 0.546602 0.179492 L 0.674844 0.179492 L 0.744766 0.191133 L 0.721445 0.354297 L 0.698125 0.529141 L 0.721445 0.668984 L 0.803047 0.610703 L 0.91957 0.564102 L 0.954531 0.552461 L 0.91957 0.634023 L 0.849648 0.715625 L 0.826328 0.773906 L 0.826328 0.820508 Z M 0.0804297 0.808867 " transform="matrix(100,0,0,100,600,3350)"/>
<path style="fill:none;stroke-width:0.01;stroke-linecap:butt;stroke-linejoin:miter;stroke:rgb(0%,0%,0%);stroke-opacity:1;stroke-miterlimit:10;" d="M 0.803047 0.0454687 L 0.398984 0.0959766 L 0.146445 0.247461 L 0.0454688 0.398984 L 0.0454688 0.550508 L 0.196953 0.803047 L 0.297969 0.954531 L 0.702031 0.954531 L 0.803047 0.853555 L 0.904023 0.702031 L 0.954531 0.5 L 0.904023 0.196953 Z M 0.803047 0.0454687 " transform="matrix(100,0,0,100,0,3500)"/>
<path style="fill:none;stroke-width:0.01;stroke-linecap:butt;stroke-linejoin:miter;stroke:rgb(0%,0%,0%);stroke-opacity:1;stroke-miterlimit:10;" d="M 0.220273 0.0454687 L 0.430078 0.185313 L 0.360156 0.325156 L 0.220273 0.534961 L 0.290195 0.674844 L 0.360156 0.954531 L 0.779727 0.884609 L 0.709805 0.674844 L 0.639844 0.395117 L 0.639844 0.185313 L 0.709805 0.0454687 Z M 0.220273 0.0454687 " transform="matrix(100,0,0,100,150,3500)"/>
<path style="fill:none;stroke-width:0.01;stroke-linecap:butt;stroke-linejoin:miter;stroke:rgb(0%,0%,0%);stroke-opacity:1;stroke-miterlimit:10;" d="M 0.590898 0.372734 L 0.687891 0.372734 L 0.712109 0.336367 L 0.712109 0.275742 L 0.724258 0.227266 L 0.748477 0.215156 L 0.748477 0.16668 L 0.7 0.154531 L 0.724258 0.142422 L 0.760625 0.178789 L 0.760625 0.203047 L 0.796953 0.227266 L 0.809102 0.275742 L 0.796953 0.409102 L 0.796953 0.469687 L 0.83332 0.530313 L 0.906055 0.554531 L 0.918164 0.56668 L 0.930312 0.590898 L 0.954531 0.663633 L 0.930312 0.724258 L 0.930312 0.772734 L 0.918164 0.821211 L 0.869687 0.857578 L 0.772734 0.809102 L 0.712109 0.809102 L 0.554531 0.821211 L 0.43332 0.845469 L 0.372734 0.821211 L 0.227266 0.760625 L 0.154531 0.736367 L 0.0939453 0.712109 L 0.0454687 0.675742 L 0.0939453 0.615156 L 0.106055 0.590898 L 0.142422 0.542422 L 0.178789 0.518164 L 0.227266 0.493945 L 0.263633 0.481836 L 0.312109 0.43332 L 0.312109 0.457578 L 0.372734 0.457578 L 0.409102 0.43332 L 0.445469 0.396953 L 0.469688 0.384844 L 0.542422 0.384844 Z M 0.590898 0.372734 " transform="matrix(100,0,0,100,300,3500)"/>
<path style="fill:none;stroke-width:0.01;stroke-linecap:butt;stroke-linejoin:miter;stroke:rgb(0%,0%,0%);stroke-opacity:1;stroke-miterlimit:10;" d="M 0.548711 0.0454687 L 0.564922 0.467539 L 0.548711 0.873359 L 0.548711 0.954531 L 0.5 0.905859 L 0.5 0.873359 L 0.48375 0.792227 L 0.48375 0.613633 L 0.435078 0.48375 L 0.435078 0.370117 L 0.48375 0.305195 L 0.51625 0.224023 L 0.532461 0.110391 Z M 0.548711 0.0454687 " transform="matrix(100,0,0,100,450,3500)"/>
<path style="fill:none;stroke-width:0.01;stroke-linecap:butt;stroke-linejoin:miter;stroke:rgb(0%,0%,0%);stroke-opacity:1;stroke-miterlimit:10;" d="M 0.566523 0.0454687 L 0.566523 0.888008 L 0.544336 0.954531 L 0.455664 0.799336 L 0.455664 0.621953 L 0.433477 0.422383 L 0.5 0.311523 L 0.477812 0.134141 Z M 0.566523 0.0454687 " transform="matrix(100,0,0,100,600,3500)"/>
<path style="fill:none;stroke-width:0.01;stroke-linecap:butt;stroke-linejoin:miter;stroke:rgb(0%,0%,0%);stroke-opacity:1;stroke-miterlimit:10;" d="M 0.673164 0.0454687 L 0.629883 0.305195 L 0.759727 0.521641 L 0.803047 0.694805 L 0.759727 0.91125 L 0.716445 0.954531 L 0.543281 0.954531 L 0.413438 0.824688 L 0.370117 0.694805 L 0.240273 0.608242 L 0.196953 0.521641 L 0.196953 0.218633 L 0.326836 0.132031 L 0.586562 0.175313 Z M 0.673164 0.0454687 " transform="matrix(100,0,0,100,0,3650)"/>
<path style="fill:none;stroke-width:0.01;stroke-linecap:butt;stroke-linejoin:miter;stroke:rgb(0%,0%,0%);stroke-opacity:1;stroke-miterlimit:10;" d="M 0.651523 0.0454687 L 0.651523 0.348477 L 0.878789 0.651523 L 0.727266 0.954531 L 0.424258 0.878789 L 0.272734 0.424258 L 0.121211 0.121211 L 0.424258 0.0454687 Z M 0.651523 0.0454687 " transform="matrix(100,0,0,100,150,3650)"/>
<path style="fill:none;stroke-width:0.01;stroke-linecap:butt;stroke-linejoin:miter;stroke:rgb(0%,0%,0%);stroke-opacity:1;stroke-miterlimit:10;" d="M 0.606953 0.0454687 L 0.66043 0.366328 L 0.66043 0.633672 L 0.713906 0.954531 L 0.606953 0.847578 L 0.5 0.687148 L 0.446523 0.580195 L 0.286094 0.312852 L 0.446523 0.259375 Z M 0.606953 0.0454687 " transform="matrix(100,0,0,100,300,3650)"/>
<path style="fill:none;stroke-width:0.01;stroke-linecap:butt;stroke-linejoin:miter;stroke:rgb(0%,0%,0%);stroke-opacity:1;stroke-miterlimit:10;" d="M 0.465039 0.954531 L 0.395117 0.849648 L 0.360156 0.639844 L 0.255234 0.5 L 0.360156 0.360156 L 0.465039 0.115391 L 0.465039 0.0454687 L 0.639844 0.150352 L 0.744766 0.150352 L 0.744766 0.325156 L 0.709805 0.954531 Z M 0.465039 0.954531 " transform="matrix(100,0,0,100,450,3650)"/>
<path style="fill:none;stroke-width:0.01;stroke-linecap:butt;stroke-linejoin:miter;stroke:rgb(0%,0%,0%);stroke-opacity:1;stroke-miterlimit:10;" d="M 0.673164 0.348477 L 0.629883 0.781367 L 0.543281 0.954531 L 0.456719 0.954531 L 0.370117 0.824688 L 0.326836 0.608242 L 0.326836 0.478359 L 0.370117 0.348477 L 0.456719 0.261914 L 0.586563 0.0454687 Z M 0.673164 0.348477 " transform="matrix(100,0,0,100,600,3650)"/>
<path style="fill:none;stroke-width:0.01;stroke-linecap:butt;stroke-linejoin:miter;stroke:rgb(0%,0%,0%);stroke-opacity:1;stroke-miterlimit:10;" d="M 0.803047 0.234844 L 0.0454688 0.0833203 L 0.121211 0.386367 L 0.196953 0.613633 L 0.424258 0.765156 L 0.727266 0.91668 L 0.878789 0.765156 L 0.954531 0.613633 Z M 0.803047 0.234844 " transform="matrix(100,0,0,100,0,3800)"/>
<path style="fill:none;stroke-width:0.01;stroke-linecap:butt;stroke-linejoin:miter;stroke:rgb(0%,0%,0%);stroke-opacity:1;stroke-miterlimit:10;" d="M 0.556836 0.272734 L 0.471602 0.528398 L 0.471602 0.727266 L 0.613633 0.869336 L 0.443164 0.954531 L 0.386367 0.869336 L 0.414766 0.642031 L 0.414766 0.386367 L 0.443164 0.1875 L 0.528398 0.0454687 Z M 0.556836 0.272734 " transform="matrix(100,0,0,100,150,3800)"/>
<path style="fill:none;stroke-width:0.01;stroke-linecap:butt;stroke-linejoin:miter;stroke:rgb(0%,0%,0%);stroke-opacity:1;stroke-miterlimit:10;" d="M 0.366328 0.633672 L 0.366328 0.446523 L 0.393047 0.286094 L 0.526719 0.125664 L 0.553477 0.0454687 L 0.580195 0.0989453 L 0.580195 0.713906 L 0.633672 0.874336 L 0.5 0.954531 L 0.393047 0.847578 L 0.393047 0.713906 Z M 0.366328 0.633672 " transform="matrix(100,0,0,100,300,3800)"/>
<path style="fill:none;stroke-width:0.01;stroke-linecap:butt;stroke-linejoin:miter;stroke:rgb(0%,0%,0%);stroke-opacity:1;stroke-miterlimit:10;" d="M 0.436094 0.556836 L 0.436094 0.471602 L 0.450273 0.414766 L 0.478711 0.357969 L 0.436094 0.301133 L 0.436094 0.215898 L 0.450273 0.102266 L 0.492891 0.0596484 L 0.535508 0.0454687 L 0.549727 0.0738672 L 0.578125 0.215898 L 0.578125 0.514219 L 0.535508 0.826719 L 0.549727 0.926133 L 0.436094 0.954531 L 0.436094 0.855117 L 0.450273 0.755664 L 0.421875 0.613633 Z M 0.436094 0.556836 " transform="matrix(100,0,0,100,450,3800)"/>
<path style="fill:none;stroke-width:0.01;stroke-linecap:butt;stroke-linejoin:miter;stroke:rgb(0%,0%,0%);stroke-opacity:1;stroke-miterlimit:10;" d="M 0.646367 0.0454687 L 0.646367 0.954531 L 0.569336 0.90832 L 0.461484 0.815859 L 0.384453 0.692617 L 0.384453 0.569336 L 0.353633 0.461484 L 0.369023 0.322812 L 0.461484 0.261172 L 0.476875 0.168711 L 0.430664 0.0454687 Z M 0.646367 0.0454687 " transform="matrix(100,0,0,100,600,3800)"/>
<path style="fill:none;stroke-width:0.01;stroke-linecap:butt;stroke-linejoin:miter;stroke:rgb(0%,0%,0%);stroke-opacity:1;stroke-miterlimit:10;" d="M 0.620313 0.179141 L 0.566836 0.366328 L 0.620313 0.473281 L 0.620313 0.553477 L 0.64707 0.767383 L 0.566836 0.874336 L 0.566836 0.954531 L 0.486641 0.847578 L 0.433164 0.713906 L 0.35293 0.580195 L 0.459883 0.5 L 0.433164 0.312852 L 0.379688 0.232617 L 0.540117 0.0454687 Z M 0.620313 0.179141 " transform="matrix(100,0,0,100,0,3950)"/>
<path style="fill:none;stroke-width:0.01;stroke-linecap:butt;stroke-linejoin:miter;stroke:rgb(0%,0%,0%);stroke-opacity:1;stroke-miterlimit:10;" d="M 0.293398 0.513789 L 0.403594 0.320937 L 0.513789 0.183203 L 0.513789 0.0454687 L 0.596406 0.100547 L 0.651523 0.348477 L 0.706602 0.679063 L 0.651523 0.816797 L 0.623984 0.954531 L 0.568867 0.954531 L 0.431133 0.899453 L 0.293398 0.816797 L 0.348477 0.679063 Z M 0.293398 0.513789 " transform="matrix(100,0,0,100,150,3950)"/>
<path style="fill:none;stroke-width:0.01;stroke-linecap:butt;stroke-linejoin:miter;stroke:rgb(0%,0%,0%);stroke-opacity:1;stroke-miterlimit:10;" d="M 0.651523 0.0454687 L 0.651523 0.954531 L 0.5 0.803047 L 0.5 0.575742 L 0.348477 0.348477 L 0.5 0.196953 Z M 0.651523 0.0454687 " transform="matrix(100,0,0,100,300,3950)"/>
<path style="fill:none;stroke-width:0.01;stroke-linecap:butt;stroke-linejoin:miter;stroke:rgb(0%,0%,0%);stroke-opacity:1;stroke-miterlimit:10;" d="M 0.185313 0.465039 L 0.255234 0.0454687 L 0.395117 0.0454687 L 0.534961 0.115391 L 0.674844 0.325156 L 0.814687 0.465039 L 0.814687 0.744766 L 0.744766 0.954531 L 0.604883 0.954531 Z M 0.185313 0.465039 " transform="matrix(100,0,0,100,450,3950)"/>
<path style="fill:none;stroke-width:0.01;stroke-linecap:butt;stroke-linejoin:miter;stroke:rgb(0%,0%,0%);stroke-opacity:1;stroke-miterlimit:10;" d="M 0.823242 0.409102 L 0.803047 0.631328 L 0.823242 0.813125 L 0.823242 0.893945 L 0.803047 0.954531 L 0.601016 0.914141 L 0.378789 0.893945 L 0.237383 0.893945 L 0.176758 0.83332 L 0.257578 0.712109 L 0.257578 0.550508 L 0.358594 0.449492 L 0.378789 0.368672 L 0.439375 0.308086 L 0.5 0.186875 L 0.560625 0.106055 L 0.58082 0.0454687 L 0.803047 0.0454687 L 0.803047 0.106055 L 0.823242 0.20707 L 0.803047 0.287891 Z M 0.823242 0.409102 " transform="matrix(100,0,0,100,600,3950)"/>
<path style="fill:none;stroke-width:0.01;stroke-linecap:butt;stroke-linejoin:miter;stroke:rgb(0%,0%,0%);stroke-opacity:1;stroke-miterlimit:10;" d="M 0.601016 0.954531 L 0.297969 0.803047 L 0.247461 0.5 L 0.449492 0.247461 L 0.550508 0.0454687 L 0.752539 0.247461 L 0.752539 0.550508 Z M 0.601016 0.954531 " transform="matrix(100,0,0,100,0,4100)"/>
<path style="fill:none;stroke-width:0.01;stroke-linecap:butt;stroke-linejoin:miter;stroke:rgb(0%,0%,0%);stroke-opacity:1;stroke-miterlimit:10;" d="M 0.0454687 0.0959766 L 0.853555 0.0959766 L 0.954531 0.398984 L 0.954531 0.702031 L 0.752539 0.904023 L 0.550508 0.702031 Z M 0.0454687 0.0959766 " transform="matrix(100,0,0,100,150,4100)"/>
<path style="fill:none;stroke-width:0.01;stroke-linecap:butt;stroke-linejoin:miter;stroke:rgb(0%,0%,0%);stroke-opacity:1;stroke-miterlimit:10;" d="M 0.52332 0.0454687 L 0.569922 0.954531 L 0.453398 0.861289 L 0.430078 0.791367 L 0.430078 0.628203 L 0.453398 0.511641 L 0.47668 0.395117 L 0.5 0.278555 Z M 0.52332 0.0454687 " transform="matrix(100,0,0,100,300,4100)"/>
<path style="fill:none;stroke-width:0.01;stroke-linecap:butt;stroke-linejoin:miter;stroke:rgb(0%,0%,0%);stroke-opacity:1;stroke-miterlimit:10;" d="M 0.742422 0.363633 L 0.727266 0.5 L 0.696953 0.560625 L 0.681836 0.636367 L 0.66668 0.909102 L 0.651523 0.954531 L 0.590898 0.803047 L 0.575742 0.712109 L 0.590898 0.651523 L 0.530312 0.606055 L 0.257578 0.636367 L 0.272734 0.560625 L 0.378789 0.5 L 0.378789 0.439375 L 0.33332 0.348477 L 0.378789 0.151523 L 0.5 0.0454687 L 0.545469 0.0908984 L 0.560625 0.121211 L 0.621211 0.151523 L 0.681836 0.136367 L 0.696953 0.106055 L 0.681836 0.136367 L 0.696953 0.196953 L 0.712109 0.257578 Z M 0.742422 0.363633 " transform="matrix(100,0,0,100,450,4100)"/>
<path style="fill:none;stroke-width:0.01;stroke-linecap:butt;stroke-linejoin:miter;stroke:rgb(0%,0%,0%);stroke-opacity:1;stroke-miterlimit:10;" d="M 0.828281 0.37375 L 0.853555 0.702031 L 0.803047 0.878789 L 0.727266 0.853555 L 0.651523 0.878789 L 0.575742 0.954531 L 0.424258 0.929297 L 0.247461 0.853555 L 0.146445 0.803047 L 0.196953 0.676758 L 0.196953 0.601016 L 0.297969 0.424258 L 0.398984 0.348477 L 0.525234 0.297969 L 0.601016 0.323242 L 0.62625 0.272734 L 0.62625 0.171719 L 0.651523 0.0959766 L 0.702031 0.0454687 L 0.777773 0.121211 L 0.752539 0.196953 L 0.752539 0.323242 Z M 0.828281 0.37375 " transform="matrix(100,0,0,100,600,4100)"/>
<path style="fill:none;stroke-width:0.01;stroke-linecap:butt;stroke-linejoin:miter;stroke:rgb(0%,0%,0%);stroke-opacity:1;stroke-miterlimit:10;" d="M 0.684805 0.954531 L 0.315195 0.94457 L 0.305195 0.854648 L 0.355156 0.734766 L 0.425078 0.644844 L 0.475039 0.475039 L 0.495 0.465039 L 0.505 0.425078 L 0.554961 0.355156 L 0.604883 0.285195 L 0.574922 0.205312 L 0.624883 0.0854297 L 0.664844 0.0454687 L 0.694805 0.0554297 Z M 0.684805 0.954531 " transform="matrix(100,0,0,100,0,4250)"/>
<path style="fill:none;stroke-width:0.01;stroke-linecap:butt;stroke-linejoin:miter;stroke:rgb(0%,0%,0%);stroke-opacity:1;stroke-miterlimit:10;" d="M 0.539531 0.0849609 L 0.539531 0.638359 L 0.579063 0.954531 L 0.5 0.954531 L 0.420937 0.0454687 Z M 0.539531 0.0849609 " transform="matrix(100,0,0,100,150,4250)"/>
<path style="fill:none;stroke-width:0.01;stroke-linecap:butt;stroke-linejoin:miter;stroke:rgb(0%,0%,0%);stroke-opacity:1;stroke-miterlimit:10;" d="M 0.586562 0.0454687 L 0.586562 0.867969 L 0.456719 0.954531 L 0.413438 0.0454687 Z M 0.586562 0.0454687 " transform="matrix(100,0,0,100,300,4250)"/>
<path style="fill:none;stroke-width:0.01;stroke-linecap:butt;stroke-linejoin:miter;stroke:rgb(0%,0%,0%);stroke-opacity:1;stroke-miterlimit:10;" d="M 0.585234 0.0454687 L 0.585234 0.954531 L 0.414766 0.954531 L 0.414766 0.0454687 Z M 0.585234 0.0454687 " transform="matrix(100,0,0,100,450,4250)"/>
<path style="fill:none;stroke-width:0.01;stroke-linecap:butt;stroke-linejoin:miter;stroke:rgb(0%,0%,0%);stroke-opacity:1;stroke-miterlimit:10;" d="M 0.580195 0.13457 L 0.562383 0.954531 L 0.508906 0.954531 L 0.45543 0.811953 L 0.437617 0.722813 L 0.473281 0.669336 L 0.419805 0.562383 L 0.419805 0.473281 L 0.45543 0.437617 L 0.437617 0.366328 L 0.473281 0.259375 L 0.491094 0.205898 L 0.437617 0.116758 L 0.491094 0.0454687 L 0.54457 0.0632813 Z M 0.580195 0.13457 " transform="matrix(100,0,0,100,600,4250)"/>
<path style="fill:none;stroke-width:0.01;stroke-linecap:butt;stroke-linejoin:miter;stroke:rgb(0%,0%,0%);stroke-opacity:1;stroke-miterlimit:10;" d="M 0.579727 0.125195 L 0.547852 0.922656 L 0.484063 0.954531 L 0.484063 0.667461 L 0.436211 0.476094 L 0.420273 0.348477 L 0.420273 0.252773 L 0.468086 0.173047 L 0.5 0.0773438 L 0.547852 0.0454687 Z M 0.579727 0.125195 " transform="matrix(100,0,0,100,0,4400)"/>
<path style="fill:none;stroke-width:0.01;stroke-linecap:butt;stroke-linejoin:miter;stroke:rgb(0%,0%,0%);stroke-opacity:1;stroke-miterlimit:10;" d="M 0.595156 0.0877344 L 0.573984 0.912266 L 0.447148 0.954531 L 0.404844 0.869961 L 0.404844 0.743125 L 0.489414 0.721992 L 0.489414 0.362578 L 0.468281 0.21457 L 0.468281 0.108867 L 0.489414 0.0454687 L 0.573984 0.0454687 Z M 0.595156 0.0877344 " transform="matrix(100,0,0,100,150,4400)"/>
<path style="fill:none;stroke-width:0.01;stroke-linecap:butt;stroke-linejoin:miter;stroke:rgb(0%,0%,0%);stroke-opacity:1;stroke-miterlimit:10;" d="M 0.426289 0.0454687 L 0.52457 0.0454687 L 0.622852 0.438594 L 0.622852 0.929961 L 0.549141 0.954531 L 0.377148 0.389453 Z M 0.426289 0.0454687 " transform="matrix(100,0,0,100,300,4400)"/>
<path style="fill:none;stroke-width:0.01;stroke-linecap:butt;stroke-linejoin:miter;stroke:rgb(0%,0%,0%);stroke-opacity:1;stroke-miterlimit:10;" d="M 0.53082 0.307383 L 0.561641 0.584727 L 0.53082 0.708008 L 0.5 0.954531 L 0.46918 0.923711 L 0.5 0.569336 L 0.438359 0.369023 L 0.453789 0.0608594 L 0.484609 0.0454687 L 0.5 0.1225 Z M 0.53082 0.307383 " transform="matrix(100,0,0,100,450,4400)"/>
<path style="fill:none;stroke-width:0.01;stroke-linecap:butt;stroke-linejoin:miter;stroke:rgb(0%,0%,0%);stroke-opacity:1;stroke-miterlimit:10;" d="M 0.414023 0.83168 L 0.414023 0.487734 L 0.438594 0.364883 L 0.438594 0.16832 L 0.463164 0.0700391 L 0.585977 0.0454687 L 0.585977 0.14375 L 0.561406 0.266602 L 0.536836 0.414023 L 0.487734 0.512266 L 0.512266 0.708828 L 0.536836 0.782539 L 0.487734 0.954531 Z M 0.414023 0.83168 " transform="matrix(100,0,0,100,600,4400)"/>
<path style="fill:none;stroke-width:0.01;stroke-linecap:butt;stroke-linejoin:miter;stroke:rgb(0%,0%,0%);stroke-opacity:1;stroke-miterlimit:10;" d="M 0.636367 0.245469 L 0.654531 0.881836 L 0.654531 0.936367 L 0.563633 0.954531 L 0.418164 0.845469 L 0.381836 0.754531 L 0.345469 0.572734 L 0.363633 0.463633 L 0.436367 0.354531 L 0.509102 0.263633 L 0.527266 0.172734 L 0.563633 0.0818359 L 0.6 0.0454687 L 0.618164 0.0818359 L 0.636367 0.172734 Z M 0.636367 0.245469 " transform="matrix(100,0,0,100,0,4550)"/>
</g>
</svg>
