<?xml version="1.0" encoding="UTF-8"?>
<svg xmlns="http://www.w3.org/2000/svg" xmlns:xlink="http://www.w3.org/1999/xlink" width="750pt" height="14800pt" viewBox="0 0 750 14800" version="1.1">
<g id="surface1">
<path style="fill:none;stroke-width:0.01;stroke-linecap:butt;stroke-linejoin:miter;stroke:rgb(0%,0%,0%);stroke-opacity:1;stroke-miterlimit:10;" d="M 0.599063 0.954531 L 0.564102 0.651523 L 0.564102 0.430078 L 0.529141 0.255234 L 0.49418 0.127031 L 0.435898 0.0454687 L 0.400938 0.0454687 L 0.400938 0.325156 L 0.459219 0.371797 L 0.4825 0.453398 L 0.447539 0.534961 L 0.459219 0.674844 L 0.4825 0.93125 Z M 0.599063 0.954531 " transform="matrix(100,0,0,100,0,200)"/>
<path style="fill:none;stroke-width:0.01;stroke-linecap:butt;stroke-linejoin:miter;stroke:rgb(0%,0%,0%);stroke-opacity:1;stroke-miterlimit:10;" d="M 0.908203 0.950117 L 0.0829688 0.954531 L 0.113867 0.866289 L 0.135938 0.804492 L 0.166797 0.733906 L 0.233008 0.663281 L 0.285977 0.570625 L 0.299219 0.566211 L 0.308047 0.566211 L 0.321289 0.557383 L 0.338906 0.566211 L 0.365391 0.552969 L 0.374219 0.535312 L 0.391875 0.495586 L 0.409531 0.469102 L 0.427188 0.451445 L 0.458086 0.433789 L 0.480156 0.411758 L 0.511016 0.398516 L 0.5375 0.380859 L 0.568398 0.363203 L 0.603711 0.314648 L 0.621367 0.288164 L 0.65668 0.252852 L 0.669922 0.226406 L 0.691953 0.195508 L 0.722852 0.177852 L 0.771406 0.160195 L 0.784648 0.155781 L 0.819961 0.120469 L 0.859648 0.0939844 L 0.881719 0.0719141 L 0.908203 0.063125 L 0.917031 0.0454687 Z M 0.908203 0.950117 " transform="matrix(100,0,0,100,150,200)"/>
<path style="fill:none;stroke-width:0.01;stroke-linecap:butt;stroke-linejoin:miter;stroke:rgb(0%,0%,0%);stroke-opacity:1;stroke-miterlimit:10;" d="M 0.516094 0.954531 L 0.483906 0.950977 L 0.483906 0.292422 L 0.491055 0.28168 L 0.483906 0.242305 L 0.491055 0.224414 L 0.483906 0.213672 L 0.491055 0.131367 L 0.494648 0.106289 L 0.501797 0.0454687 L 0.516094 0.0454687 Z M 0.516094 0.954531 " transform="matrix(100,0,0,100,300,200)"/>
<path style="fill:none;stroke-width:0.01;stroke-linecap:butt;stroke-linejoin:miter;stroke:rgb(0%,0%,0%);stroke-opacity:1;stroke-miterlimit:10;" d="M 0.488359 0.768047 L 0.418398 0.488359 L 0.418398 0.325156 L 0.465039 0.115391 L 0.511641 0.0454687 L 0.534961 0.325156 L 0.581602 0.698125 L 0.534961 0.954531 Z M 0.488359 0.768047 " transform="matrix(100,0,0,100,450,200)"/>
<path style="fill:none;stroke-width:0.01;stroke-linecap:butt;stroke-linejoin:miter;stroke:rgb(0%,0%,0%);stroke-opacity:1;stroke-miterlimit:10;" d="M 0.749102 0.0454687 L 0.250898 0.0454687 L 0.258164 0.150898 L 0.276367 0.136367 L 0.287266 0.121836 L 0.305469 0.110898 L 0.316367 0.103633 L 0.338164 0.118164 L 0.352734 0.136367 L 0.370898 0.169102 L 0.407266 0.234531 L 0.443633 0.307266 L 0.48 0.383633 L 0.545469 0.54 L 0.745469 0.954531 Z M 0.749102 0.0454687 " transform="matrix(100,0,0,100,600,200)"/>
<path style="fill:none;stroke-width:0.01;stroke-linecap:butt;stroke-linejoin:miter;stroke:rgb(0%,0%,0%);stroke-opacity:1;stroke-miterlimit:10;" d="M 0.363438 0.0454687 L 0.632969 0.0454687 L 0.636563 0.480234 L 0.632969 0.954531 L 0.553906 0.950938 L 0.503594 0.717383 L 0.464062 0.462266 L 0.435312 0.33293 L 0.417344 0.228711 L 0.402969 0.135273 L 0.381406 0.070625 Z M 0.363438 0.0454687 " transform="matrix(100,0,0,100,0,350)"/>
<path style="fill:none;stroke-width:0.01;stroke-linecap:butt;stroke-linejoin:miter;stroke:rgb(0%,0%,0%);stroke-opacity:1;stroke-miterlimit:10;" d="M 0.546797 0.0454687 L 0.225938 0.0454687 L 0.225938 0.473281 L 0.266055 0.740625 L 0.252656 0.820859 L 0.279414 0.901055 L 0.292773 0.954531 L 0.359609 0.754023 L 0.413086 0.580195 L 0.479961 0.406406 L 0.560156 0.286094 L 0.600273 0.179141 L 0.707227 0.0989453 L 0.774062 0.0454687 Z M 0.546797 0.0454687 " transform="matrix(100,0,0,100,150,350)"/>
<path style="fill:none;stroke-width:0.01;stroke-linecap:butt;stroke-linejoin:miter;stroke:rgb(0%,0%,0%);stroke-opacity:1;stroke-miterlimit:10;" d="M 0.478359 0.0562891 L 0.521641 0.0454687 L 0.521641 0.0941406 L 0.51625 0.159102 L 0.50543 0.429648 L 0.50543 0.797617 L 0.51625 0.954531 L 0.49457 0.943711 L 0.48918 0.857148 L 0.49457 0.673164 L 0.48375 0.532461 L 0.48918 0.429648 L 0.48375 0.316016 L 0.48918 0.148281 Z M 0.478359 0.0562891 " transform="matrix(100,0,0,100,300,350)"/>
<path style="fill:none;stroke-width:0.01;stroke-linecap:butt;stroke-linejoin:miter;stroke:rgb(0%,0%,0%);stroke-opacity:1;stroke-miterlimit:10;" d="M 0.60625 0.954531 L 0.399648 0.948633 L 0.399648 0.0867578 L 0.39375 0.0808594 L 0.42918 0.0808594 L 0.435078 0.0454687 L 0.494102 0.0985938 L 0.529531 0.151719 L 0.53543 0.228438 L 0.553125 0.25207 L 0.57082 0.305195 L 0.57082 0.381953 L 0.582656 0.42918 L 0.600352 0.435078 Z M 0.60625 0.954531 " transform="matrix(100,0,0,100,450,350)"/>
<path style="fill:none;stroke-width:0.01;stroke-linecap:butt;stroke-linejoin:miter;stroke:rgb(0%,0%,0%);stroke-opacity:1;stroke-miterlimit:10;" d="M 0.761719 0.954531 L 0.210742 0.954531 L 0.128086 0.128086 L 0.128086 0.0454687 L 0.183203 0.0454687 L 0.238281 0.155664 L 0.293398 0.238281 L 0.348477 0.376016 L 0.541328 0.623984 L 0.734141 0.651523 L 0.816797 0.623984 L 0.844336 0.651523 L 0.816797 0.734141 L 0.844336 0.844336 L 0.871914 0.926992 Z M 0.761719 0.954531 " transform="matrix(100,0,0,100,600,350)"/>
<path style="fill:none;stroke-width:0.01;stroke-linecap:butt;stroke-linejoin:miter;stroke:rgb(0%,0%,0%);stroke-opacity:1;stroke-miterlimit:10;" d="M 0.364258 0.0454688 L 0.360156 0.0701172 L 0.360156 0.0948047 L 0.356016 0.107148 L 0.347813 0.115391 L 0.351914 0.131836 L 0.372461 0.140078 L 0.384805 0.160625 L 0.393047 0.172969 L 0.388945 0.214102 L 0.450625 0.386875 L 0.487656 0.576094 L 0.528789 0.810586 L 0.545234 0.913398 L 0.557578 0.938086 L 0.569922 0.954531 L 0.586367 0.946328 L 0.598711 0.929883 L 0.586367 0.909297 L 0.578164 0.888711 L 0.574063 0.864063 L 0.582266 0.847578 L 0.602852 0.831133 L 0.623398 0.827031 L 0.643984 0.827031 L 0.648086 0.810586 L 0.631641 0.769453 L 0.652188 0.543203 L 0.648086 0.526719 L 0.635742 0.571992 L 0.611055 0.604883 L 0.598711 0.621367 L 0.582266 0.609023 L 0.578164 0.584336 L 0.569922 0.576094 L 0.532891 0.567891 L 0.541133 0.559648 L 0.532891 0.530859 L 0.528789 0.514414 L 0.532891 0.485586 L 0.528789 0.456797 L 0.524687 0.440352 L 0.516445 0.428008 L 0.504102 0.40332 L 0.512344 0.378633 L 0.516445 0.316953 L 0.504102 0.308711 L 0.475313 0.316953 L 0.450625 0.329297 L 0.454766 0.312852 L 0.446523 0.300508 L 0.446523 0.284023 L 0.442422 0.27582 L 0.43418 0.263477 L 0.450625 0.247031 L 0.438281 0.242891 L 0.438281 0.234687 L 0.442422 0.222344 L 0.446523 0.21 L 0.442422 0.197656 L 0.462969 0.214102 L 0.475313 0.21 L 0.495898 0.21 L 0.487656 0.189414 L 0.458867 0.160625 L 0.454766 0.119492 L 0.442422 0.0948047 L 0.430078 0.0536719 L 0.421836 0.0536719 L 0.417734 0.0783594 L 0.421836 0.0989453 L 0.409492 0.115391 L 0.401289 0.115391 L 0.388945 0.103047 L 0.380703 0.0824609 L 0.380703 0.0619141 Z M 0.364258 0.0454688 " transform="matrix(100,0,0,100,0,500)"/>
<path style="fill:none;stroke-width:0.01;stroke-linecap:butt;stroke-linejoin:miter;stroke:rgb(0%,0%,0%);stroke-opacity:1;stroke-miterlimit:10;" d="M 0.436367 0.0672656 L 0.44 0.241836 L 0.450898 0.94 L 0.454531 0.954531 L 0.490898 0.950898 L 0.498164 0.918164 L 0.516367 0.929102 L 0.516367 0.892734 L 0.505469 0.863633 L 0.490898 0.827266 L 0.494531 0.790898 L 0.498164 0.725469 L 0.498164 0.649102 L 0.487266 0.609102 L 0.476367 0.572734 L 0.454531 0.529102 L 0.461836 0.438164 L 0.458164 0.361836 L 0.447266 0.245469 L 0.458164 0.194531 L 0.461836 0.22 L 0.476367 0.270898 L 0.487266 0.278164 L 0.494531 0.241836 L 0.490898 0.14 L 0.483633 0.114531 L 0.483633 0.06 L 0.501836 0.0491016 L 0.501836 0.0745312 L 0.512734 0.143633 L 0.512734 0.223633 L 0.527266 0.187266 L 0.538164 0.281836 L 0.552734 0.318164 L 0.534531 0.318164 L 0.52 0.336367 L 0.534531 0.470898 L 0.545469 0.514531 L 0.556367 0.561836 L 0.56 0.598164 L 0.567266 0.710898 L 0.549102 0.0527344 L 0.432734 0.0454688 Z M 0.436367 0.0672656 " transform="matrix(100,0,0,100,150,500)"/>
<path style="fill:none;stroke-width:0.01;stroke-linecap:butt;stroke-linejoin:miter;stroke:rgb(0%,0%,0%);stroke-opacity:1;stroke-miterlimit:10;" d="M 0.295195 0.0454688 L 0.295195 0.106523 L 0.298789 0.146055 L 0.305977 0.174805 L 0.298789 0.232305 L 0.313164 0.307773 L 0.30957 0.358086 L 0.313164 0.379609 L 0.313164 0.473047 L 0.316758 0.508984 L 0.302383 0.534141 L 0.320352 0.570078 L 0.313164 0.620391 L 0.320352 0.69582 L 0.320352 0.789258 L 0.323945 0.875508 L 0.327539 0.911445 L 0.323945 0.950938 L 0.568281 0.954531 L 0.697617 0.954531 L 0.704805 0.818008 L 0.697617 0.645508 L 0.701211 0.429922 L 0.701211 0.0454688 L 0.302383 0.0454688 Z M 0.295195 0.0454688 " transform="matrix(100,0,0,100,300,500)"/>
<path style="fill:none;stroke-width:0.01;stroke-linecap:butt;stroke-linejoin:miter;stroke:rgb(0%,0%,0%);stroke-opacity:1;stroke-miterlimit:10;" d="M 0.62707 0.0454688 L 0.544727 0.0454688 L 0.537578 0.127773 L 0.516094 0.235156 L 0.498203 0.313906 L 0.498203 0.346094 L 0.46957 0.392617 L 0.444531 0.54293 L 0.437383 0.596641 L 0.430195 0.650313 L 0.423047 0.707578 L 0.412305 0.746953 L 0.401562 0.77918 L 0.387266 0.879375 L 0.37293 0.950977 L 0.551914 0.950977 L 0.555469 0.954531 L 0.559063 0.936641 L 0.566211 0.908008 L 0.584102 0.879375 L 0.576953 0.850742 L 0.573359 0.818555 L 0.60918 0.743359 L 0.60918 0.696836 L 0.619883 0.657461 L 0.62707 0.657461 Z M 0.62707 0.0454688 " transform="matrix(100,0,0,100,450,500)"/>
<path style="fill:none;stroke-width:0.01;stroke-linecap:butt;stroke-linejoin:miter;stroke:rgb(0%,0%,0%);stroke-opacity:1;stroke-miterlimit:10;" d="M 0.60918 0.0454688 L 0.462422 0.0454688 L 0.39082 0.947383 L 0.60918 0.954531 Z M 0.60918 0.0454688 " transform="matrix(100,0,0,100,600,500)"/>
<path style="fill:none;stroke-width:0.01;stroke-linecap:butt;stroke-linejoin:miter;stroke:rgb(0%,0%,0%);stroke-opacity:1;stroke-miterlimit:10;" d="M 0.697695 0.954531 L 0.309688 0.950859 L 0.302305 0.936055 L 0.305977 0.899102 L 0.309688 0.873242 L 0.320781 0.858477 L 0.357734 0.899102 L 0.379883 0.899102 L 0.420547 0.884336 L 0.446406 0.854766 L 0.468594 0.828906 L 0.4575 0.825195 L 0.479687 0.795625 L 0.505547 0.72543 L 0.524023 0.681094 L 0.557266 0.573906 L 0.590547 0.474141 L 0.609023 0.400234 L 0.642266 0.322617 L 0.664453 0.241328 L 0.671836 0.211758 L 0.679219 0.0971875 L 0.697695 0.0454688 Z M 0.697695 0.954531 " transform="matrix(100,0,0,100,0,650)"/>
<path style="fill:none;stroke-width:0.01;stroke-linecap:butt;stroke-linejoin:miter;stroke:rgb(0%,0%,0%);stroke-opacity:1;stroke-miterlimit:10;" d="M 0.615 0.0454688 L 0.496406 0.0490625 L 0.496406 0.322148 L 0.503594 0.483828 L 0.47125 0.552109 L 0.467656 0.649102 L 0.464063 0.677852 L 0.460469 0.72457 L 0.431719 0.814414 L 0.417344 0.850352 L 0.381406 0.950938 L 0.618594 0.954531 Z M 0.615 0.0454688 " transform="matrix(100,0,0,100,150,650)"/>
<path style="fill:none;stroke-width:0.01;stroke-linecap:butt;stroke-linejoin:miter;stroke:rgb(0%,0%,0%);stroke-opacity:1;stroke-miterlimit:10;" d="M 0.793477 0.0454688 L 0.235156 0.0490234 L 0.231562 0.403359 L 0.22082 0.406953 L 0.213672 0.607383 L 0.20293 0.628828 L 0.20293 0.950977 L 0.79707 0.954531 Z M 0.793477 0.0454688 " transform="matrix(100,0,0,100,300,650)"/>
<path style="fill:none;stroke-width:0.01;stroke-linecap:butt;stroke-linejoin:miter;stroke:rgb(0%,0%,0%);stroke-opacity:1;stroke-miterlimit:10;" d="M 0.651523 0.0454688 L 0.348477 0.0454688 L 0.473281 0.259375 L 0.598047 0.54457 L 0.615859 0.633672 L 0.651523 0.776289 L 0.651523 0.954531 Z M 0.651523 0.0454688 " transform="matrix(100,0,0,100,450,650)"/>
<path style="fill:none;stroke-width:0.01;stroke-linecap:butt;stroke-linejoin:miter;stroke:rgb(0%,0%,0%);stroke-opacity:1;stroke-miterlimit:10;" d="M 0.746211 0.0454688 L 0.664141 0.449492 L 0.537891 0.651523 L 0.443164 0.954531 L 0.361094 0.809336 L 0.316914 0.632578 L 0.304297 0.689375 L 0.297969 0.929297 L 0.272734 0.904023 L 0.272734 0.62625 L 0.253789 0.54418 L 0.260117 0.0454688 L 0.739883 0.0454688 Z M 0.746211 0.0454688 " transform="matrix(100,0,0,100,600,650)"/>
<path style="fill:none;stroke-width:0.01;stroke-linecap:butt;stroke-linejoin:miter;stroke:rgb(0%,0%,0%);stroke-opacity:1;stroke-miterlimit:10;" d="M 0.376016 0.954531 L 0.289805 0.954531 L 0.271836 0.609609 L 0.264648 0.591641 L 0.282617 0.559297 L 0.271836 0.462266 L 0.268242 0.419141 L 0.268242 0.397578 L 0.27543 0.379609 L 0.289805 0.368828 L 0.307773 0.354492 L 0.27543 0.325742 L 0.261055 0.279023 L 0.261055 0.210742 L 0.271836 0.181992 L 0.279023 0.146055 L 0.268242 0.117305 L 0.257461 0.106523 L 0.271836 0.0993359 L 0.268242 0.05625 L 0.264648 0.0454687 L 0.742539 0.0490625 L 0.742539 0.616797 L 0.713789 0.573672 L 0.713789 0.519766 L 0.692227 0.473047 L 0.69582 0.408359 L 0.688633 0.372422 L 0.663477 0.329336 L 0.649102 0.289805 L 0.631172 0.300586 L 0.620391 0.311367 L 0.598828 0.250273 L 0.602422 0.225117 L 0.566484 0.181992 L 0.548516 0.196367 L 0.526953 0.207148 L 0.519766 0.221523 L 0.516172 0.235898 L 0.498203 0.282617 L 0.476641 0.318555 L 0.480234 0.383203 L 0.465859 0.422734 L 0.473047 0.465859 L 0.437109 0.548516 L 0.422734 0.616797 L 0.411953 0.663477 L 0.393984 0.72457 L 0.390391 0.789258 L 0.379609 0.83957 L 0.376016 0.889883 L 0.376016 0.922187 Z M 0.376016 0.954531 " transform="matrix(100,0,0,100,0,800)"/>
<path style="fill:none;stroke-width:0.01;stroke-linecap:butt;stroke-linejoin:miter;stroke:rgb(0%,0%,0%);stroke-opacity:1;stroke-miterlimit:10;" d="M 0.324336 0.0454687 L 0.298984 0.0454687 L 0.302617 0.433008 L 0.302617 0.519922 L 0.298984 0.657539 L 0.298984 0.733594 L 0.309844 0.798789 L 0.317109 0.856758 L 0.302617 0.925586 L 0.298984 0.954531 L 0.320703 0.954531 L 0.327969 0.921953 L 0.327969 0.874883 L 0.335195 0.816914 L 0.327969 0.78793 L 0.331602 0.758945 L 0.342461 0.740859 L 0.331602 0.722734 L 0.335195 0.708242 L 0.317109 0.701016 L 0.313477 0.675664 L 0.324336 0.661172 L 0.338828 0.664805 L 0.349687 0.661172 L 0.356953 0.63582 L 0.35332 0.624961 L 0.360547 0.530781 L 0.367813 0.509063 L 0.382305 0.519922 L 0.382305 0.538047 L 0.385898 0.574258 L 0.393164 0.599609 L 0.393164 0.606836 L 0.404023 0.628594 L 0.41125 0.621328 L 0.404023 0.603242 L 0.407656 0.585117 L 0.414883 0.574258 L 0.418516 0.563398 L 0.433008 0.577852 L 0.433008 0.559766 L 0.443867 0.454727 L 0.465586 0.443867 L 0.487305 0.469219 L 0.487305 0.519922 L 0.49457 0.5525 L 0.501797 0.574258 L 0.516289 0.58875 L 0.534414 0.592344 L 0.5525 0.610469 L 0.574258 0.606836 L 0.58875 0.621328 L 0.614102 0.668398 L 0.624961 0.682891 L 0.639453 0.693789 L 0.650313 0.697383 L 0.661172 0.704648 L 0.668398 0.686523 L 0.672031 0.672031 L 0.690156 0.639453 L 0.701016 0.628594 L 0.701016 0.585117 L 0.690156 0.483711 L 0.682891 0.425742 L 0.672031 0.400391 L 0.661172 0.36418 L 0.643047 0.36418 L 0.603242 0.342461 L 0.595977 0.313477 L 0.58875 0.273633 L 0.559766 0.215664 L 0.563398 0.197578 L 0.556133 0.175859 L 0.556133 0.0961719 L 0.566992 0.0925391 L 0.566992 0.0816797 L 0.563398 0.0490625 L 0.563398 0.0454687 Z M 0.324336 0.0454687 " transform="matrix(100,0,0,100,150,800)"/>
<path style="fill:none;stroke-width:0.01;stroke-linecap:butt;stroke-linejoin:miter;stroke:rgb(0%,0%,0%);stroke-opacity:1;stroke-miterlimit:10;" d="M 0.654141 0.0454687 L 0.33793 0.0533594 L 0.393281 0.187734 L 0.440703 0.250977 L 0.448633 0.345859 L 0.496055 0.456523 L 0.559297 0.598828 L 0.606719 0.772734 L 0.622539 0.804336 L 0.654141 0.93082 L 0.66207 0.954531 Z M 0.654141 0.0454687 " transform="matrix(100,0,0,100,300,800)"/>
<path style="fill:none;stroke-width:0.01;stroke-linecap:butt;stroke-linejoin:miter;stroke:rgb(0%,0%,0%);stroke-opacity:1;stroke-miterlimit:10;" d="M 0.644141 0.954531 L 0.355859 0.954531 L 0.621953 0.0454687 Z M 0.644141 0.954531 " transform="matrix(100,0,0,100,450,800)"/>
<path style="fill:none;stroke-width:0.01;stroke-linecap:butt;stroke-linejoin:miter;stroke:rgb(0%,0%,0%);stroke-opacity:1;stroke-miterlimit:10;" d="M 0.561094 0.954531 L 0.438906 0.950938 L 0.438906 0.922187 L 0.453281 0.871914 L 0.460469 0.825195 L 0.464062 0.771289 L 0.47125 0.720977 L 0.474844 0.670664 L 0.474844 0.634766 L 0.478438 0.584453 L 0.478438 0.544922 L 0.485625 0.476641 L 0.485625 0.422734 L 0.496406 0.368828 L 0.5 0.30418 L 0.503594 0.250273 L 0.510781 0.18918 L 0.521562 0.110117 L 0.532344 0.0670312 L 0.550313 0.0454687 Z M 0.561094 0.954531 " transform="matrix(100,0,0,100,600,800)"/>
<path style="fill:none;stroke-width:0.01;stroke-linecap:butt;stroke-linejoin:miter;stroke:rgb(0%,0%,0%);stroke-opacity:1;stroke-miterlimit:10;" d="M 0.439375 0.0525781 L 0.685391 0.0454687 L 0.685391 0.765586 L 0.66043 0.779844 L 0.663984 0.811953 L 0.656875 0.851172 L 0.663984 0.858281 L 0.671133 0.879688 L 0.685391 0.879688 L 0.681836 0.954531 L 0.33957 0.947422 L 0.336016 0.83332 L 0.33957 0.797695 L 0.325313 0.76918 L 0.314609 0.765586 L 0.332461 0.751328 L 0.346719 0.708555 L 0.360977 0.626563 L 0.368086 0.516055 L 0.382344 0.376992 L 0.389492 0.266484 L 0.396602 0.145273 L 0.382344 0.1025 L 0.368086 0.0917969 L 0.360977 0.0810938 L 0.389492 0.0668359 L 0.40375 0.0525781 Z M 0.439375 0.0525781 " transform="matrix(100,0,0,100,0,950)"/>
<path style="fill:none;stroke-width:0.01;stroke-linecap:butt;stroke-linejoin:miter;stroke:rgb(0%,0%,0%);stroke-opacity:1;stroke-miterlimit:10;" d="M 0.617656 0.954531 L 0.371641 0.943867 L 0.371641 0.890391 L 0.382344 0.804805 L 0.414453 0.708555 L 0.425117 0.623008 L 0.43582 0.537422 L 0.46793 0.473281 L 0.478594 0.376992 L 0.46793 0.312852 L 0.521406 0.248672 L 0.574883 0.163086 L 0.606953 0.0775391 L 0.628359 0.0454687 Z M 0.617656 0.954531 " transform="matrix(100,0,0,100,150,950)"/>
<path style="fill:none;stroke-width:0.01;stroke-linecap:butt;stroke-linejoin:miter;stroke:rgb(0%,0%,0%);stroke-opacity:1;stroke-miterlimit:10;" d="M 0.629883 0.0454687 L 0.48918 0.0454687 L 0.5 0.0851563 L 0.48918 0.128438 L 0.474766 0.175313 L 0.460313 0.240273 L 0.449492 0.265508 L 0.449492 0.402578 L 0.445898 0.481953 L 0.431445 0.564922 L 0.424258 0.622656 L 0.395391 0.730898 L 0.377344 0.806641 L 0.37375 0.925703 L 0.370117 0.954531 L 0.398984 0.954531 L 0.406211 0.947344 L 0.424258 0.914844 L 0.442266 0.875195 L 0.445898 0.831875 L 0.456719 0.752539 L 0.456719 0.683984 L 0.467539 0.619063 L 0.474766 0.568555 L 0.48918 0.528867 L 0.507227 0.481953 L 0.532461 0.409805 L 0.546914 0.326836 L 0.568555 0.279961 L 0.575742 0.22582 L 0.582969 0.178945 L 0.593789 0.132031 L 0.611836 0.0851563 L 0.619063 0.0742969 Z M 0.629883 0.0454687 " transform="matrix(100,0,0,100,300,950)"/>
<path style="fill:none;stroke-width:0.01;stroke-linecap:butt;stroke-linejoin:miter;stroke:rgb(0%,0%,0%);stroke-opacity:1;stroke-miterlimit:10;" d="M 0.561094 0.0454687 L 0.453281 0.0454687 L 0.467656 0.135273 L 0.467656 0.33293 L 0.464062 0.393984 L 0.464062 0.512578 L 0.460469 0.595234 L 0.456875 0.710195 L 0.438906 0.947344 L 0.5575 0.954531 Z M 0.561094 0.0454687 " transform="matrix(100,0,0,100,450,950)"/>
<path style="fill:none;stroke-width:0.01;stroke-linecap:butt;stroke-linejoin:miter;stroke:rgb(0%,0%,0%);stroke-opacity:1;stroke-miterlimit:10;" d="M 0.530195 0.0454687 L 0.46625 0.0525391 L 0.491133 0.8125 L 0.505313 0.862227 L 0.491133 0.901289 L 0.491133 0.947461 L 0.53375 0.954531 Z M 0.530195 0.0454687 " transform="matrix(100,0,0,100,600,950)"/>
<path style="fill:none;stroke-width:0.01;stroke-linecap:butt;stroke-linejoin:miter;stroke:rgb(0%,0%,0%);stroke-opacity:1;stroke-miterlimit:10;" d="M 0.58625 0.0454687 L 0.582656 0.954531 L 0.449688 0.954531 L 0.449688 0.544922 L 0.492812 0.519766 L 0.52875 0.508984 L 0.539531 0.505391 L 0.550312 0.512578 L 0.553906 0.534141 L 0.5575 0.544922 L 0.5575 0.566484 L 0.561094 0.570078 L 0.575469 0.566484 L 0.579063 0.181992 L 0.571875 0.167617 L 0.550312 0.174805 L 0.52875 0.199961 L 0.496406 0.239492 L 0.467656 0.257461 L 0.453281 0.286211 L 0.431719 0.307773 L 0.431719 0.24668 L 0.435312 0.228711 L 0.435312 0.10293 L 0.41375 0.0454687 Z M 0.58625 0.0454687 " transform="matrix(100,0,0,100,0,1100)"/>
<path style="fill:none;stroke-width:0.01;stroke-linecap:butt;stroke-linejoin:miter;stroke:rgb(0%,0%,0%);stroke-opacity:1;stroke-miterlimit:10;" d="M 0.464219 0.0454687 L 0.417695 0.0454687 L 0.410508 0.0597656 L 0.410508 0.08125 L 0.428438 0.102734 L 0.431992 0.120625 L 0.431992 0.167148 L 0.428438 0.192188 L 0.428438 0.228008 L 0.431992 0.253047 L 0.439141 0.288828 L 0.446328 0.317461 L 0.446328 0.424844 L 0.453477 0.514297 L 0.460625 0.625273 L 0.45707 0.650313 L 0.460625 0.70043 L 0.449883 0.743359 L 0.442734 0.793477 L 0.431992 0.84 L 0.417695 0.872227 L 0.406953 0.940234 L 0.399805 0.954531 L 0.546523 0.947383 L 0.560859 0.868633 L 0.557266 0.818555 L 0.568008 0.771992 L 0.575156 0.71832 L 0.593047 0.63957 L 0.600195 0.625273 L 0.589492 0.618125 L 0.575156 0.585898 L 0.560859 0.539375 L 0.535781 0.45707 L 0.517891 0.367578 L 0.5 0.29957 L 0.485703 0.213672 L 0.471367 0.138516 L 0.464219 0.0955469 Z M 0.464219 0.0454687 " transform="matrix(100,0,0,100,150,1100)"/>
<path style="fill:none;stroke-width:0.01;stroke-linecap:butt;stroke-linejoin:miter;stroke:rgb(0%,0%,0%);stroke-opacity:1;stroke-miterlimit:10;" d="M 0.563789 0.954531 L 0.563789 0.0454687 L 0.531914 0.0454687 L 0.468086 0.0773438 L 0.452148 0.173047 L 0.436211 0.938594 Z M 0.563789 0.954531 " transform="matrix(100,0,0,100,300,1100)"/>
<path style="fill:none;stroke-width:0.01;stroke-linecap:butt;stroke-linejoin:miter;stroke:rgb(0%,0%,0%);stroke-opacity:1;stroke-miterlimit:10;" d="M 0.523203 0.193867 L 0.472188 0.0454687 L 0.472188 0.875703 L 0.467539 0.898906 L 0.476797 0.954531 L 0.5 0.875703 L 0.504648 0.829297 L 0.523203 0.759727 L 0.513906 0.722617 L 0.532461 0.662344 L 0.527813 0.643789 L 0.527813 0.235625 Z M 0.523203 0.193867 " transform="matrix(100,0,0,100,450,1100)"/>
<path style="fill:none;stroke-width:0.01;stroke-linecap:butt;stroke-linejoin:miter;stroke:rgb(0%,0%,0%);stroke-opacity:1;stroke-miterlimit:10;" d="M 0.518164 0.954531 L 0.486367 0.954531 L 0.504531 0.904531 L 0.495469 0.85 L 0.481836 0.781836 L 0.490898 0.718164 L 0.495469 0.686367 L 0.5 0.654531 L 0.490898 0.618164 L 0.490898 0.581836 L 0.5 0.5 L 0.509102 0.445469 L 0.5 0.440898 L 0.495469 0.404531 L 0.490898 0.35 L 0.504531 0.340898 L 0.504531 0.3 L 0.509102 0.286367 L 0.495469 0.263633 L 0.495469 0.236367 L 0.486367 0.0454687 L 0.513633 0.0454687 L 0.518164 0.254531 L 0.513633 0.545469 Z M 0.518164 0.954531 " transform="matrix(100,0,0,100,600,1100)"/>
<path style="fill:none;stroke-width:0.01;stroke-linecap:butt;stroke-linejoin:miter;stroke:rgb(0%,0%,0%);stroke-opacity:1;stroke-miterlimit:10;" d="M 0.767383 0.949687 L 0.276367 0.954531 L 0.276367 0.930234 L 0.266641 0.901055 L 0.2375 0.847578 L 0.232617 0.692031 L 0.261797 0.692031 L 0.29582 0.672578 L 0.344453 0.560781 L 0.397891 0.599648 L 0.422227 0.599648 L 0.436797 0.594805 L 0.446523 0.565625 L 0.48543 0.502422 L 0.602109 0.385742 L 0.61668 0.351719 L 0.645859 0.298242 L 0.670156 0.273945 L 0.694453 0.239922 L 0.694453 0.205898 L 0.70418 0.162148 L 0.713906 0.113516 L 0.728477 0.0843359 L 0.743086 0.0697656 L 0.767383 0.0454687 Z M 0.767383 0.949687 " transform="matrix(100,0,0,100,0,1250)"/>
<path style="fill:none;stroke-width:0.01;stroke-linecap:butt;stroke-linejoin:miter;stroke:rgb(0%,0%,0%);stroke-opacity:1;stroke-miterlimit:10;" d="M 0.47125 0.532617 L 0.459727 0.747422 L 0.436719 0.954531 L 0.467383 0.801094 L 0.482734 0.567109 L 0.486563 0.463555 L 0.494258 0.402188 L 0.498086 0.36 L 0.517266 0.271758 L 0.54793 0.11832 L 0.563281 0.0492969 L 0.540273 0.0454687 L 0.524922 0.126016 L 0.505742 0.264102 L 0.49043 0.36 L 0.482734 0.429023 Z M 0.47125 0.532617 " transform="matrix(100,0,0,100,150,1250)"/>
<path style="fill:none;stroke-width:0.01;stroke-linecap:butt;stroke-linejoin:miter;stroke:rgb(0%,0%,0%);stroke-opacity:1;stroke-miterlimit:10;" d="M 0.395469 0.0545313 L 0.55 0.0454687 L 0.559102 0.0545313 L 0.577266 0.0818359 L 0.595469 0.127266 L 0.6 0.15 L 0.609102 0.209102 L 0.631836 0.268164 L 0.654531 0.336367 L 0.681836 0.372734 L 0.695469 0.459102 L 0.704531 0.495469 L 0.704531 0.954531 L 0.681836 0.922734 L 0.686367 0.890898 L 0.686367 0.854531 L 0.663633 0.804531 L 0.659102 0.759102 L 0.65 0.709102 L 0.586367 0.55 L 0.572734 0.509102 L 0.55 0.477266 L 0.513633 0.413633 L 0.486367 0.340898 L 0.468164 0.309102 L 0.445469 0.268164 L 0.445469 0.25 L 0.390898 0.186367 L 0.386367 0.154531 L 0.345469 0.131836 L 0.313633 0.118164 L 0.295469 0.0545313 Z M 0.395469 0.0545313 " transform="matrix(100,0,0,100,300,1250)"/>
<path style="fill:none;stroke-width:0.01;stroke-linecap:butt;stroke-linejoin:miter;stroke:rgb(0%,0%,0%);stroke-opacity:1;stroke-miterlimit:10;" d="M 0.570898 0.0454687 L 0.579219 0.253945 L 0.554219 0.345703 L 0.537539 0.420781 L 0.520859 0.345703 L 0.50418 0.379062 L 0.49582 0.50418 L 0.479141 0.47082 L 0.462461 0.454141 L 0.454141 0.645938 L 0.462461 0.687656 L 0.47082 0.737695 L 0.454141 0.796094 L 0.437461 0.862813 L 0.462461 0.954531 L 0.420781 0.787734 L 0.462461 0.737695 L 0.437461 0.629258 L 0.437461 0.520859 L 0.445781 0.479141 L 0.47082 0.412422 L 0.47082 0.370742 L 0.454141 0.354062 L 0.47082 0.320703 L 0.47082 0.262305 L 0.50418 0.228945 L 0.52918 0.220586 L 0.52918 0.187227 L 0.5125 0.128867 L 0.5125 0.0704687 L 0.49582 0.0621484 Z M 0.570898 0.0454687 " transform="matrix(100,0,0,100,450,1250)"/>
<path style="fill:none;stroke-width:0.01;stroke-linecap:butt;stroke-linejoin:miter;stroke:rgb(0%,0%,0%);stroke-opacity:1;stroke-miterlimit:10;" d="M 0.613086 0.0585156 L 0.595703 0.149844 L 0.573945 0.228125 L 0.565234 0.271641 L 0.560898 0.245547 L 0.543516 0.280352 L 0.534805 0.319492 L 0.513047 0.37168 L 0.486953 0.406484 L 0.482617 0.476094 L 0.482617 0.523906 L 0.478242 0.623984 L 0.46957 0.715312 L 0.460859 0.7675 L 0.460859 0.893633 L 0.46957 0.937148 L 0.460859 0.950195 L 0.456484 0.954531 L 0.452148 0.941484 L 0.443437 0.919766 L 0.434766 0.898008 L 0.421719 0.889297 L 0.413008 0.898008 L 0.408672 0.915391 L 0.395625 0.924102 L 0.39125 0.911055 L 0.395625 0.889297 L 0.395625 0.850156 L 0.39125 0.771875 L 0.386914 0.754453 L 0.386914 0.719648 L 0.39125 0.676172 L 0.395625 0.650078 L 0.399961 0.637031 L 0.395625 0.563086 L 0.417344 0.445625 L 0.443437 0.376016 L 0.430391 0.319492 L 0.465195 0.206406 L 0.482617 0.136797 L 0.491289 0.0846094 L 0.495664 0.0585156 L 0.486953 0.0454687 Z M 0.613086 0.0585156 " transform="matrix(100,0,0,100,600,1250)"/>
<path style="fill:none;stroke-width:0.01;stroke-linecap:butt;stroke-linejoin:miter;stroke:rgb(0%,0%,0%);stroke-opacity:1;stroke-miterlimit:10;" d="M 0.861289 0.849648 L 0.0454688 0.849648 L 0.06875 0.546602 L 0.115391 0.336836 L 0.231953 0.243594 L 0.371797 0.150352 L 0.534961 0.173672 L 0.674844 0.266914 L 0.791367 0.47668 L 0.861289 0.569922 L 0.90793 0.686484 L 0.954531 0.779727 Z M 0.861289 0.849648 " transform="matrix(100,0,0,100,0,1400)"/>
<path style="fill:none;stroke-width:0.01;stroke-linecap:butt;stroke-linejoin:miter;stroke:rgb(0%,0%,0%);stroke-opacity:1;stroke-miterlimit:10;" d="M 0.591523 0.954531 L 0.427383 0.954531 L 0.421094 0.45582 L 0.402148 0.449492 L 0.39582 0.405313 L 0.39582 0.342187 L 0.421094 0.297969 L 0.440039 0.228555 L 0.446328 0.152773 L 0.465273 0.108594 L 0.477891 0.0707031 L 0.490547 0.0454687 L 0.515781 0.102266 L 0.534727 0.266406 L 0.566289 0.54418 L 0.591523 0.746211 L 0.597852 0.809336 L 0.60418 0.878789 Z M 0.591523 0.954531 " transform="matrix(100,0,0,100,150,1400)"/>
<path style="fill:none;stroke-width:0.01;stroke-linecap:butt;stroke-linejoin:miter;stroke:rgb(0%,0%,0%);stroke-opacity:1;stroke-miterlimit:10;" d="M 0.554844 0.0454687 L 0.445156 0.0454687 L 0.452969 0.476484 L 0.46082 0.5 L 0.468633 0.609727 L 0.468633 0.695937 L 0.452969 0.766445 L 0.46082 0.797813 L 0.46082 0.860508 L 0.468633 0.954531 L 0.484336 0.907539 L 0.492148 0.782148 L 0.492148 0.648906 L 0.515664 0.445156 L 0.531367 0.280547 L 0.53918 0.225703 L 0.554844 0.147344 Z M 0.554844 0.0454687 " transform="matrix(100,0,0,100,300,1400)"/>
<path style="fill:none;stroke-width:0.01;stroke-linecap:butt;stroke-linejoin:miter;stroke:rgb(0%,0%,0%);stroke-opacity:1;stroke-miterlimit:10;" d="M 0.579883 0.0454687 L 0.423633 0.0454687 L 0.434297 0.237227 L 0.430742 0.315352 L 0.430742 0.365039 L 0.434297 0.475156 L 0.434297 0.542617 L 0.437852 0.631406 L 0.430742 0.755664 L 0.427188 0.862227 L 0.420117 0.947461 L 0.579883 0.954531 Z M 0.579883 0.0454687 " transform="matrix(100,0,0,100,450,1400)"/>
<path style="fill:none;stroke-width:0.01;stroke-linecap:butt;stroke-linejoin:miter;stroke:rgb(0%,0%,0%);stroke-opacity:1;stroke-miterlimit:10;" d="M 0.628828 0.0454687 L 0.385469 0.0454687 L 0.371172 0.954531 L 0.628828 0.954531 Z M 0.628828 0.0454687 " transform="matrix(100,0,0,100,600,1400)"/>
<path style="fill:none;stroke-width:0.01;stroke-linecap:butt;stroke-linejoin:miter;stroke:rgb(0%,0%,0%);stroke-opacity:1;stroke-miterlimit:10;" d="M 0.626055 0.0454687 L 0.370391 0.0525391 L 0.3775 0.950977 L 0.629609 0.954531 Z M 0.626055 0.0454687 " transform="matrix(100,0,0,100,0,1550)"/>
<path style="fill:none;stroke-width:0.01;stroke-linecap:butt;stroke-linejoin:miter;stroke:rgb(0%,0%,0%);stroke-opacity:1;stroke-miterlimit:10;" d="M 0.595586 0.954531 L 0.48375 0.954531 L 0.422422 0.341289 L 0.411602 0.117617 L 0.400781 0.0454687 L 0.599219 0.0454687 L 0.599219 0.539687 Z M 0.595586 0.954531 " transform="matrix(100,0,0,100,150,1550)"/>
<path style="fill:none;stroke-width:0.01;stroke-linecap:butt;stroke-linejoin:miter;stroke:rgb(0%,0%,0%);stroke-opacity:1;stroke-miterlimit:10;" d="M 0.915195 0.0629297 L 0.906484 0.0454687 L 0.827813 0.0716797 L 0.784102 0.0804297 L 0.626758 0.167852 L 0.556836 0.185313 L 0.478164 0.237773 L 0.390742 0.333906 L 0.31207 0.421328 L 0.28582 0.456289 L 0.224648 0.552461 L 0.172188 0.613633 L 0.137227 0.674844 L 0.102266 0.727266 L 0.0935156 0.788477 L 0.0848047 0.91082 L 0.0848047 0.954531 L 0.119766 0.902109 L 0.154727 0.788477 L 0.224648 0.648594 L 0.338281 0.50875 L 0.390742 0.438828 L 0.495625 0.351406 L 0.618008 0.281484 L 0.69668 0.246484 L 0.749141 0.211523 L 0.836523 0.185313 L 0.897734 0.150352 Z M 0.915195 0.0629297 " transform="matrix(100,0,0,100,300,1550)"/>
<path style="fill:none;stroke-width:0.01;stroke-linecap:butt;stroke-linejoin:miter;stroke:rgb(0%,0%,0%);stroke-opacity:1;stroke-miterlimit:10;" d="M 0.847188 0.954531 L 0.195781 0.954531 L 0.195781 0.668203 L 0.192188 0.521484 L 0.188633 0.449883 L 0.185039 0.396211 L 0.181445 0.385469 L 0.192188 0.385469 L 0.195781 0.414102 L 0.20293 0.45707 L 0.210078 0.485703 L 0.217266 0.489258 L 0.213672 0.439141 L 0.231562 0.371172 L 0.231562 0.28168 L 0.235156 0.185039 L 0.231562 0.113477 L 0.245898 0.0454687 L 0.206523 0.0454687 L 0.206523 0.102734 L 0.213672 0.16 L 0.206523 0.16 L 0.192188 0.134922 L 0.188633 0.0991406 L 0.152813 0.0454687 L 0.847188 0.0454687 Z M 0.847188 0.954531 " transform="matrix(100,0,0,100,450,1550)"/>
<path style="fill:none;stroke-width:0.01;stroke-linecap:butt;stroke-linejoin:miter;stroke:rgb(0%,0%,0%);stroke-opacity:1;stroke-miterlimit:10;" d="M 0.530195 0.0454687 L 0.469805 0.0525391 L 0.469805 0.950977 L 0.530195 0.954531 Z M 0.530195 0.0454687 " transform="matrix(100,0,0,100,600,1550)"/>
<path style="fill:none;stroke-width:0.01;stroke-linecap:butt;stroke-linejoin:miter;stroke:rgb(0%,0%,0%);stroke-opacity:1;stroke-miterlimit:10;" d="M 0.595898 0.0454688 L 0.400586 0.0525391 L 0.421875 0.954531 L 0.599414 0.954531 Z M 0.595898 0.0454688 " transform="matrix(100,0,0,100,0,1700)"/>
<path style="fill:none;stroke-width:0.01;stroke-linecap:butt;stroke-linejoin:miter;stroke:rgb(0%,0%,0%);stroke-opacity:1;stroke-miterlimit:10;" d="M 0.569258 0.0525391 L 0.409453 0.0560937 L 0.398789 0.215898 L 0.430742 0.191055 L 0.444961 0.183945 L 0.46625 0.183945 L 0.480469 0.1875 L 0.491133 0.205273 L 0.494687 0.237227 L 0.498242 0.254961 L 0.487578 0.272734 L 0.45918 0.283398 L 0.430742 0.283398 L 0.420117 0.26918 L 0.405898 0.258516 L 0.395234 0.286914 L 0.398789 0.336641 L 0.405898 0.350859 L 0.423633 0.336641 L 0.448516 0.322461 L 0.473359 0.308242 L 0.487578 0.308242 L 0.494687 0.336641 L 0.501758 0.368594 L 0.494687 0.400586 L 0.501758 0.414766 L 0.480469 0.41832 L 0.46625 0.411211 L 0.448516 0.389922 L 0.437852 0.436094 L 0.441406 0.453828 L 0.45207 0.468047 L 0.473359 0.489336 L 0.487578 0.524844 L 0.491133 0.553281 L 0.487578 0.602969 L 0.480469 0.617188 L 0.498242 0.65625 L 0.498242 0.691758 L 0.494687 0.73793 L 0.484023 0.766328 L 0.46625 0.755664 L 0.444961 0.734375 L 0.444961 0.702422 L 0.441406 0.674023 L 0.455625 0.642031 L 0.45918 0.613633 L 0.434297 0.606523 L 0.430742 0.677539 L 0.423633 0.73082 L 0.420117 0.762773 L 0.402344 0.776992 L 0.398789 0.926133 L 0.395234 0.954531 L 0.597656 0.950977 L 0.604766 0.0454688 Z M 0.569258 0.0525391 " transform="matrix(100,0,0,100,150,1700)"/>
<path style="fill:none;stroke-width:0.01;stroke-linecap:butt;stroke-linejoin:miter;stroke:rgb(0%,0%,0%);stroke-opacity:1;stroke-miterlimit:10;" d="M 0.735352 0.954531 L 0.440703 0.950938 L 0.264648 0.0454688 L 0.444297 0.0454688 L 0.451484 0.0957422 L 0.480234 0.167617 L 0.516172 0.232305 L 0.555703 0.307773 L 0.588047 0.386797 L 0.616797 0.451484 L 0.645508 0.501797 L 0.688633 0.580859 L 0.703008 0.627578 L 0.717383 0.674258 L 0.735352 0.706602 Z M 0.735352 0.954531 " transform="matrix(100,0,0,100,300,1700)"/>
<path style="fill:none;stroke-width:0.01;stroke-linecap:butt;stroke-linejoin:miter;stroke:rgb(0%,0%,0%);stroke-opacity:1;stroke-miterlimit:10;" d="M 0.704023 0.0454688 L 0.321055 0.0490234 L 0.29957 0.596641 L 0.292422 0.689688 L 0.292422 0.754102 L 0.295977 0.807813 L 0.29957 0.868633 L 0.310313 0.933086 L 0.310313 0.954531 L 0.707578 0.954531 Z M 0.704023 0.0454688 " transform="matrix(100,0,0,100,450,1700)"/>
<path style="fill:none;stroke-width:0.01;stroke-linecap:butt;stroke-linejoin:miter;stroke:rgb(0%,0%,0%);stroke-opacity:1;stroke-miterlimit:10;" d="M 0.679336 0.947461 L 0.803633 0.954531 L 0.796523 0.0454688 L 0.217695 0.0525391 L 0.207031 0.148438 L 0.199922 0.304688 L 0.199922 0.457383 L 0.203477 0.617188 L 0.196367 0.755664 L 0.196367 0.801836 L 0.207031 0.645586 L 0.210586 0.521289 L 0.214141 0.372148 L 0.210586 0.286914 L 0.210586 0.237227 L 0.214141 0.194609 L 0.217695 0.159102 L 0.224805 0.127148 L 0.22832 0.0951562 L 0.238984 0.0596484 L 0.395234 0.0525391 L 0.413008 0.0845313 L 0.427188 0.130664 L 0.430742 0.162656 L 0.444961 0.208789 L 0.469805 0.279844 L 0.480469 0.308242 L 0.505313 0.354414 L 0.523086 0.411211 L 0.544375 0.450273 L 0.555039 0.503555 L 0.555039 0.528398 L 0.562148 0.571016 L 0.586992 0.610078 L 0.61543 0.649141 L 0.636719 0.698867 L 0.661563 0.791211 L 0.672227 0.833789 L 0.679336 0.876406 L 0.679336 0.915469 L 0.69 0.940352 Z M 0.679336 0.947461 " transform="matrix(100,0,0,100,600,1700)"/>
<path style="fill:none;stroke-width:0.01;stroke-linecap:butt;stroke-linejoin:miter;stroke:rgb(0%,0%,0%);stroke-opacity:1;stroke-miterlimit:10;" d="M 0.653906 0.0454688 L 0.346094 0.0454688 L 0.37832 0.399805 L 0.392617 0.636016 L 0.392617 0.764844 L 0.399805 0.836445 L 0.396211 0.882969 L 0.399805 0.915156 L 0.403359 0.936641 L 0.399805 0.947383 L 0.653906 0.954531 Z M 0.653906 0.0454688 " transform="matrix(100,0,0,100,0,1850)"/>
<path style="fill:none;stroke-width:0.01;stroke-linecap:butt;stroke-linejoin:miter;stroke:rgb(0%,0%,0%);stroke-opacity:1;stroke-miterlimit:10;" d="M 0.777383 0.0454688 L 0.322852 0.0454688 L 0.319258 0.12418 L 0.304922 0.131367 L 0.258398 0.127773 L 0.229766 0.156406 L 0.222617 0.167148 L 0.261992 0.217266 L 0.326406 0.256641 L 0.333555 0.29957 L 0.355039 0.439141 L 0.383672 0.571562 L 0.401563 0.714727 L 0.40875 0.861484 L 0.415898 0.954531 L 0.777383 0.954531 Z M 0.777383 0.0454688 " transform="matrix(100,0,0,100,150,1850)"/>
<path style="fill:none;stroke-width:0.01;stroke-linecap:butt;stroke-linejoin:miter;stroke:rgb(0%,0%,0%);stroke-opacity:1;stroke-miterlimit:10;" d="M 0.650313 0.0454688 L 0.349687 0.0454688 L 0.353242 0.954531 L 0.650313 0.954531 Z M 0.650313 0.0454688 " transform="matrix(100,0,0,100,300,1850)"/>
<path style="fill:none;stroke-width:0.01;stroke-linecap:butt;stroke-linejoin:miter;stroke:rgb(0%,0%,0%);stroke-opacity:1;stroke-miterlimit:10;" d="M 0.681094 0.0454688 L 0.411211 0.0525391 L 0.407656 0.123594 L 0.404102 0.173281 L 0.393477 0.233672 L 0.386367 0.318906 L 0.375703 0.393477 L 0.372148 0.42543 L 0.368594 0.468047 L 0.354414 0.521289 L 0.34375 0.592344 L 0.350859 0.634961 L 0.350859 0.698867 L 0.34375 0.759219 L 0.333086 0.8125 L 0.329531 0.840898 L 0.34375 0.844453 L 0.347305 0.851562 L 0.329531 0.858672 L 0.318906 0.954531 L 0.681094 0.954531 Z M 0.681094 0.0454688 " transform="matrix(100,0,0,100,450,1850)"/>
<path style="fill:none;stroke-width:0.01;stroke-linecap:butt;stroke-linejoin:miter;stroke:rgb(0%,0%,0%);stroke-opacity:1;stroke-miterlimit:10;" d="M 0.600625 0.0454688 L 0.456875 0.0454688 L 0.435313 0.300586 L 0.435313 0.33293 L 0.4425 0.368828 L 0.431719 0.498203 L 0.417344 0.66707 L 0.417344 0.75332 L 0.410156 0.850352 L 0.399375 0.879102 L 0.395781 0.954531 L 0.604219 0.954531 Z M 0.600625 0.0454688 " transform="matrix(100,0,0,100,600,1850)"/>
<path style="fill:none;stroke-width:0.01;stroke-linecap:butt;stroke-linejoin:miter;stroke:rgb(0%,0%,0%);stroke-opacity:1;stroke-miterlimit:10;" d="M 0.601211 0.0454688 L 0.444961 0.0525391 L 0.395234 0.954531 L 0.604766 0.954531 Z M 0.601211 0.0454688 " transform="matrix(100,0,0,100,0,2000)"/>
<path style="fill:none;stroke-width:0.01;stroke-linecap:butt;stroke-linejoin:miter;stroke:rgb(0%,0%,0%);stroke-opacity:1;stroke-miterlimit:10;" d="M 0.598438 0.0454688 L 0.444531 0.0454688 L 0.45168 0.582305 L 0.430195 0.589492 L 0.412305 0.596641 L 0.405156 0.603789 L 0.401563 0.618125 L 0.412305 0.628828 L 0.415898 0.628828 L 0.426641 0.643164 L 0.426641 0.618125 L 0.448086 0.62168 L 0.433789 0.933086 L 0.430195 0.950977 L 0.598438 0.954531 Z M 0.598438 0.0454688 " transform="matrix(100,0,0,100,150,2000)"/>
<path style="fill:none;stroke-width:0.01;stroke-linecap:butt;stroke-linejoin:miter;stroke:rgb(0%,0%,0%);stroke-opacity:1;stroke-miterlimit:10;" d="M 0.516094 0.0454688 L 0.480313 0.0454688 L 0.491055 0.381875 L 0.480313 0.42125 L 0.487461 0.449883 L 0.487461 0.517891 L 0.483906 0.646758 L 0.498203 0.736211 L 0.498203 0.746953 L 0.491055 0.818555 L 0.480313 0.950977 L 0.512539 0.954531 L 0.512539 0.750547 L 0.516094 0.57875 L 0.519687 0.424844 L 0.516094 0.292422 L 0.516094 0.174297 Z M 0.516094 0.0454688 " transform="matrix(100,0,0,100,300,2000)"/>
<path style="fill:none;stroke-width:0.01;stroke-linecap:butt;stroke-linejoin:miter;stroke:rgb(0%,0%,0%);stroke-opacity:1;stroke-miterlimit:10;" d="M 0.5275 0.954531 L 0.476758 0.954531 L 0.480977 0.662773 L 0.476758 0.396406 L 0.4725 0.235742 L 0.4725 0.0792969 L 0.476758 0.0454688 L 0.480977 0.0792969 L 0.480977 0.142695 L 0.489414 0.307617 L 0.502109 0.506328 L 0.514805 0.717773 L 0.5275 0.853047 Z M 0.5275 0.954531 " transform="matrix(100,0,0,100,450,2000)"/>
<path style="fill:none;stroke-width:0.01;stroke-linecap:butt;stroke-linejoin:miter;stroke:rgb(0%,0%,0%);stroke-opacity:1;stroke-miterlimit:10;" d="M 0.628828 0.0454688 L 0.593047 0.0454688 L 0.45707 0.471367 L 0.385469 0.696836 L 0.338945 0.843594 L 0.306719 0.954531 L 0.381875 0.954531 L 0.431992 0.829258 L 0.5 0.585898 L 0.557266 0.464219 L 0.62168 0.381875 L 0.678945 0.288828 L 0.693281 0.217266 L 0.686094 0.177891 L 0.636016 0.131367 Z M 0.628828 0.0454688 " transform="matrix(100,0,0,100,600,2000)"/>
<path style="fill:none;stroke-width:0.01;stroke-linecap:butt;stroke-linejoin:miter;stroke:rgb(0%,0%,0%);stroke-opacity:1;stroke-miterlimit:10;" d="M 0.6225 0.0454688 L 0.45918 0.0525391 L 0.370391 0.950977 L 0.629609 0.954531 Z M 0.6225 0.0454688 " transform="matrix(100,0,0,100,0,2150)"/>
<path style="fill:none;stroke-width:0.01;stroke-linecap:butt;stroke-linejoin:miter;stroke:rgb(0%,0%,0%);stroke-opacity:1;stroke-miterlimit:10;" d="M 0.255781 0.0525781 L 0.794102 0.0454688 L 0.80125 0.416211 L 0.804805 0.947422 L 0.80125 0.954531 L 0.220156 0.950977 L 0.205898 0.762031 L 0.213008 0.573086 L 0.213008 0.462578 L 0.205898 0.366328 L 0.195195 0.312852 L 0.202305 0.266484 L 0.195195 0.213008 L 0.19875 0.159531 L 0.195195 0.1025 L 0.195195 0.0525781 Z M 0.255781 0.0525781 " transform="matrix(100,0,0,100,150,2150)"/>
<path style="fill:none;stroke-width:0.01;stroke-linecap:butt;stroke-linejoin:miter;stroke:rgb(0%,0%,0%);stroke-opacity:1;stroke-miterlimit:10;" d="M 0.729062 0.0525391 L 0.366836 0.0454688 L 0.270938 0.954531 L 0.729062 0.954531 Z M 0.729062 0.0525391 " transform="matrix(100,0,0,100,300,2150)"/>
<path style="fill:none;stroke-width:0.01;stroke-linecap:butt;stroke-linejoin:miter;stroke:rgb(0%,0%,0%);stroke-opacity:1;stroke-miterlimit:10;" d="M 0.631914 0.0454688 L 0.471484 0.0525781 L 0.396602 0.754883 L 0.368086 0.765586 L 0.364531 0.779844 L 0.368086 0.790547 L 0.389492 0.797695 L 0.364531 0.954531 L 0.635469 0.954531 Z M 0.631914 0.0454688 " transform="matrix(100,0,0,100,450,2150)"/>
<path style="fill:none;stroke-width:0.01;stroke-linecap:butt;stroke-linejoin:miter;stroke:rgb(0%,0%,0%);stroke-opacity:1;stroke-miterlimit:10;" d="M 0.643164 0.954531 L 0.356836 0.954531 L 0.582305 0.0454688 L 0.636016 0.0454688 Z M 0.643164 0.954531 " transform="matrix(100,0,0,100,600,2150)"/>
<path style="fill:none;stroke-width:0.01;stroke-linecap:butt;stroke-linejoin:miter;stroke:rgb(0%,0%,0%);stroke-opacity:1;stroke-miterlimit:10;" d="M 0.813164 0.0454688 L 0.201133 0.0454688 L 0.186836 0.950977 L 0.813164 0.954531 Z M 0.813164 0.0454688 " transform="matrix(100,0,0,100,0,2300)"/>
<path style="fill:none;stroke-width:0.01;stroke-linecap:butt;stroke-linejoin:miter;stroke:rgb(0%,0%,0%);stroke-opacity:1;stroke-miterlimit:10;" d="M 0.549727 0.0454688 L 0.450273 0.0525391 L 0.464492 0.109375 L 0.468047 0.279844 L 0.464492 0.315352 L 0.478711 0.404102 L 0.478711 0.450273 L 0.482227 0.542617 L 0.5 0.610078 L 0.496445 0.649141 L 0.492891 0.705977 L 0.5 0.954531 L 0.546172 0.950977 Z M 0.549727 0.0454688 " transform="matrix(100,0,0,100,150,2300)"/>
<path style="fill:none;stroke-width:0.01;stroke-linecap:butt;stroke-linejoin:miter;stroke:rgb(0%,0%,0%);stroke-opacity:1;stroke-miterlimit:10;" d="M 0.710234 0.0454688 L 0.668555 0.0454688 L 0.676133 0.0757422 L 0.676133 0.113633 L 0.664766 0.159102 L 0.664766 0.170469 L 0.691289 0.185625 L 0.691289 0.200742 L 0.683711 0.223477 L 0.679922 0.257578 L 0.691289 0.272734 L 0.702656 0.284102 L 0.702656 0.310625 L 0.6875 0.41668 L 0.664766 0.431836 L 0.64582 0.439375 L 0.642031 0.465898 L 0.585234 0.507578 L 0.501875 0.579531 L 0.448867 0.625 L 0.373125 0.723477 L 0.323867 0.806836 L 0.285977 0.897734 L 0.278398 0.954531 L 0.316289 0.875 L 0.422344 0.734844 L 0.490547 0.670469 L 0.585234 0.594687 L 0.642031 0.526523 L 0.683711 0.45832 L 0.710234 0.378789 L 0.721602 0.299258 L 0.717812 0.227266 L 0.714023 0.140156 Z M 0.710234 0.0454688 " transform="matrix(100,0,0,100,300,2300)"/>
<path style="fill:none;stroke-width:0.01;stroke-linecap:butt;stroke-linejoin:miter;stroke:rgb(0%,0%,0%);stroke-opacity:1;stroke-miterlimit:10;" d="M 0.514297 0.0454688 L 0.503594 0.954531 L 0.489258 0.954531 L 0.485703 0.0454688 Z M 0.514297 0.0454688 " transform="matrix(100,0,0,100,450,2300)"/>
<path style="fill:none;stroke-width:0.01;stroke-linecap:butt;stroke-linejoin:miter;stroke:rgb(0%,0%,0%);stroke-opacity:1;stroke-miterlimit:10;" d="M 0.546523 0.0454688 L 0.453477 0.0454688 L 0.446328 0.943789 L 0.446328 0.954531 L 0.460625 0.954531 L 0.474961 0.5 L 0.478516 0.471367 L 0.482109 0.449883 L 0.485703 0.424844 L 0.496406 0.389063 L 0.503594 0.349688 L 0.507148 0.292422 L 0.514297 0.253047 L 0.521484 0.22082 L 0.532227 0.167148 L 0.539375 0.120625 L 0.550117 0.0919922 L 0.553672 0.0597656 Z M 0.546523 0.0454688 " transform="matrix(100,0,0,100,600,2300)"/>
<path style="fill:none;stroke-width:0.01;stroke-linecap:butt;stroke-linejoin:miter;stroke:rgb(0%,0%,0%);stroke-opacity:1;stroke-miterlimit:10;" d="M 0.653906 0.0454688 L 0.399805 0.0490234 L 0.36043 0.235156 L 0.356836 0.260195 L 0.353242 0.292422 L 0.346094 0.321055 L 0.349687 0.363984 L 0.349687 0.528633 L 0.356836 0.764844 L 0.349687 0.943789 L 0.353242 0.947383 L 0.653906 0.954531 Z M 0.653906 0.0454688 " transform="matrix(100,0,0,100,0,2450)"/>
<path style="fill:none;stroke-width:0.01;stroke-linecap:butt;stroke-linejoin:miter;stroke:rgb(0%,0%,0%);stroke-opacity:1;stroke-miterlimit:10;" d="M 0.73793 0.0454688 L 0.34375 0.0525391 L 0.354414 0.0880859 L 0.340195 0.215898 L 0.333086 0.26918 L 0.322461 0.325977 L 0.318906 0.347305 L 0.301133 0.397031 L 0.279844 0.382812 L 0.258516 0.365039 L 0.286914 0.954531 L 0.741484 0.950977 Z M 0.73793 0.0454688 " transform="matrix(100,0,0,100,150,2450)"/>
<path style="fill:none;stroke-width:0.01;stroke-linecap:butt;stroke-linejoin:miter;stroke:rgb(0%,0%,0%);stroke-opacity:1;stroke-miterlimit:10;" d="M 0.666445 0.954531 L 0.33 0.950977 L 0.480313 0.593047 L 0.526836 0.449883 L 0.60918 0.213672 L 0.641367 0.0454688 L 0.67 0.0454688 Z M 0.666445 0.954531 " transform="matrix(100,0,0,100,300,2450)"/>
<path style="fill:none;stroke-width:0.01;stroke-linecap:butt;stroke-linejoin:miter;stroke:rgb(0%,0%,0%);stroke-opacity:1;stroke-miterlimit:10;" d="M 0.571016 0.0454688 L 0.453828 0.0525391 L 0.421875 0.950977 L 0.578125 0.954531 Z M 0.571016 0.0454688 " transform="matrix(100,0,0,100,450,2450)"/>
<path style="fill:none;stroke-width:0.01;stroke-linecap:butt;stroke-linejoin:miter;stroke:rgb(0%,0%,0%);stroke-opacity:1;stroke-miterlimit:10;" d="M 0.781641 0.0454688 L 0.218359 0.0525781 L 0.303906 0.954531 L 0.781641 0.954531 Z M 0.781641 0.0454688 " transform="matrix(100,0,0,100,600,2450)"/>
<path style="fill:none;stroke-width:0.01;stroke-linecap:butt;stroke-linejoin:miter;stroke:rgb(0%,0%,0%);stroke-opacity:1;stroke-miterlimit:10;" d="M 0.541328 0.954531 L 0.458672 0.949023 L 0.541328 0.0454688 Z M 0.541328 0.954531 " transform="matrix(100,0,0,100,0,2600)"/>
<path style="fill:none;stroke-width:0.01;stroke-linecap:butt;stroke-linejoin:miter;stroke:rgb(0%,0%,0%);stroke-opacity:1;stroke-miterlimit:10;" d="M 0.573086 0.0454688 L 0.401953 0.0525781 L 0.409102 0.494648 L 0.412656 0.954531 L 0.462578 0.954531 L 0.469688 0.879687 L 0.512461 0.872539 L 0.519609 0.876133 L 0.526719 0.883242 L 0.533867 0.879687 L 0.569531 0.701445 L 0.562383 0.487539 L 0.576641 0.330664 L 0.598047 0.0454688 Z M 0.573086 0.0454688 " transform="matrix(100,0,0,100,150,2600)"/>
<path style="fill:none;stroke-width:0.01;stroke-linecap:butt;stroke-linejoin:miter;stroke:rgb(0%,0%,0%);stroke-opacity:1;stroke-miterlimit:10;" d="M 0.54082 0.0525391 L 0.469805 0.0454688 L 0.45918 0.954531 L 0.537305 0.950977 Z M 0.54082 0.0525391 " transform="matrix(100,0,0,100,300,2600)"/>
<path style="fill:none;stroke-width:0.01;stroke-linecap:butt;stroke-linejoin:miter;stroke:rgb(0%,0%,0%);stroke-opacity:1;stroke-miterlimit:10;" d="M 0.954531 0.880625 L 0.061875 0.880625 L 0.0564063 0.743711 L 0.0454688 0.584883 L 0.0564063 0.623203 L 0.061875 0.688945 L 0.0783203 0.74918 L 0.105703 0.825859 L 0.111172 0.869648 L 0.368555 0.875156 L 0.379531 0.86418 L 0.406914 0.86418 L 0.445234 0.842266 L 0.483555 0.793008 L 0.516445 0.694414 L 0.521914 0.677969 L 0.565703 0.601328 L 0.582148 0.568438 L 0.598594 0.524648 L 0.598594 0.486328 L 0.604063 0.508203 L 0.620469 0.524648 L 0.653359 0.491797 L 0.658828 0.447969 L 0.675234 0.491797 L 0.702617 0.469883 L 0.746445 0.322031 L 0.762852 0.36582 L 0.773828 0.393203 L 0.784766 0.415117 L 0.812148 0.40418 L 0.883359 0.179609 L 0.883359 0.157734 L 0.899766 0.163203 L 0.927148 0.163203 L 0.943594 0.146758 L 0.954531 0.119375 Z M 0.954531 0.880625 " transform="matrix(100,0,0,100,450,2600)"/>
<path style="fill:none;stroke-width:0.01;stroke-linecap:butt;stroke-linejoin:miter;stroke:rgb(0%,0%,0%);stroke-opacity:1;stroke-miterlimit:10;" d="M 0.550703 0.954531 L 0.471016 0.950938 L 0.442031 0.947305 L 0.460156 0.943672 L 0.456523 0.882109 L 0.471016 0.733594 L 0.489141 0.538047 L 0.507227 0.429375 L 0.514492 0.309844 L 0.528984 0.190313 L 0.550703 0.0454688 L 0.557969 0.0454688 L 0.557969 0.889336 Z M 0.550703 0.954531 " transform="matrix(100,0,0,100,600,2600)"/>
<path style="fill:none;stroke-width:0.01;stroke-linecap:butt;stroke-linejoin:miter;stroke:rgb(0%,0%,0%);stroke-opacity:1;stroke-miterlimit:10;" d="M 0.558828 0.0525781 L 0.715703 0.0454688 L 0.754883 0.0525781 L 0.754883 0.954531 L 0.245117 0.954531 L 0.248672 0.943867 L 0.277188 0.922461 L 0.287891 0.908203 L 0.309258 0.908203 L 0.323516 0.893945 L 0.330664 0.808359 L 0.330664 0.726367 L 0.344922 0.537422 L 0.409102 0.516055 L 0.45543 0.45543 L 0.469688 0.409102 L 0.498203 0.362734 L 0.494648 0.298555 L 0.512461 0.0953516 L 0.516055 0.0525781 Z M 0.558828 0.0525781 " transform="matrix(100,0,0,100,0,2750)"/>
<path style="fill:none;stroke-width:0.01;stroke-linecap:butt;stroke-linejoin:miter;stroke:rgb(0%,0%,0%);stroke-opacity:1;stroke-miterlimit:10;" d="M 0.113633 0.0908984 L 0.681836 0.0908984 L 0.863633 0.0454688 L 0.886367 0.0908984 L 0.886367 0.954531 L 0.636367 0.772734 L 0.386367 0.636367 L 0.204531 0.295469 Z M 0.113633 0.0908984 " transform="matrix(100,0,0,100,150,2750)"/>
<path style="fill:none;stroke-width:0.01;stroke-linecap:butt;stroke-linejoin:miter;stroke:rgb(0%,0%,0%);stroke-opacity:1;stroke-miterlimit:10;" d="M 0.474844 0.0454688 L 0.665273 0.0454688 L 0.672461 0.365234 L 0.672461 0.656289 L 0.668867 0.954531 L 0.535938 0.954531 L 0.546719 0.843164 L 0.535938 0.699414 L 0.514375 0.595234 L 0.489219 0.570078 L 0.456875 0.595234 L 0.449688 0.588047 L 0.438906 0.566484 L 0.424531 0.530547 L 0.410156 0.526953 L 0.381406 0.508984 L 0.381406 0.318555 L 0.399375 0.27543 L 0.435313 0.243086 L 0.431719 0.214336 L 0.406563 0.185586 L 0.392187 0.153242 L 0.370625 0.0742188 L 0.385 0.0849609 L 0.359883 0.0885547 L 0.359883 0.124492 L 0.370625 0.171211 L 0.359883 0.192773 L 0.345508 0.196367 L 0.331133 0.149648 L 0.327539 0.0526563 Z M 0.474844 0.0454688 " transform="matrix(100,0,0,100,300,2750)"/>
<path style="fill:none;stroke-width:0.01;stroke-linecap:butt;stroke-linejoin:miter;stroke:rgb(0%,0%,0%);stroke-opacity:1;stroke-miterlimit:10;" d="M 0.428125 0.0454688 L 0.607813 0.0454688 L 0.611406 0.911445 L 0.607813 0.954531 L 0.406562 0.950938 L 0.41375 0.846758 L 0.406562 0.602422 L 0.406562 0.440703 L 0.399375 0.243086 L 0.395781 0.0993359 L 0.388594 0.0454688 Z M 0.428125 0.0454688 " transform="matrix(100,0,0,100,450,2750)"/>
<path style="fill:none;stroke-width:0.01;stroke-linecap:butt;stroke-linejoin:miter;stroke:rgb(0%,0%,0%);stroke-opacity:1;stroke-miterlimit:10;" d="M 0.18918 0.954531 L 0.83957 0.950938 L 0.846758 0.656289 L 0.846758 0.0957422 L 0.843164 0.0454688 L 0.199961 0.0454688 L 0.181992 0.544922 L 0.178398 0.627578 L 0.171211 0.735352 L 0.16043 0.911445 L 0.153242 0.947344 Z M 0.18918 0.954531 " transform="matrix(100,0,0,100,600,2750)"/>
<path style="fill:none;stroke-width:0.01;stroke-linecap:butt;stroke-linejoin:miter;stroke:rgb(0%,0%,0%);stroke-opacity:1;stroke-miterlimit:10;" d="M 0.359883 0.0454688 L 0.402969 0.0454688 L 0.424531 0.0957422 L 0.474844 0.138867 L 0.5 0.138867 L 0.485625 0.164023 L 0.492812 0.171211 L 0.496406 0.199961 L 0.507188 0.210742 L 0.517969 0.192773 L 0.510781 0.164023 L 0.521563 0.146055 L 0.543125 0.174805 L 0.582656 0.21793 L 0.593438 0.243086 L 0.600625 0.286211 L 0.607812 0.289805 L 0.622188 0.279023 L 0.629375 0.257461 L 0.640117 0.279023 L 0.66168 0.289805 L 0.668867 0.30418 L 0.668867 0.947344 L 0.514375 0.954531 L 0.5 0.81082 L 0.507188 0.75332 L 0.485625 0.731758 L 0.467656 0.746133 L 0.424531 0.534141 L 0.41375 0.508984 L 0.410156 0.469453 L 0.388594 0.458672 L 0.341914 0.0885547 L 0.331133 0.0454688 Z M 0.359883 0.0454688 " transform="matrix(100,0,0,100,0,2900)"/>
<path style="fill:none;stroke-width:0.01;stroke-linecap:butt;stroke-linejoin:miter;stroke:rgb(0%,0%,0%);stroke-opacity:1;stroke-miterlimit:10;" d="M 0.305703 0.0454688 L 0.747773 0.0454688 L 0.751328 0.715703 L 0.751328 0.954531 L 0.248672 0.950977 L 0.284297 0.647969 L 0.287891 0.344922 L 0.291445 0.155977 L 0.295 0.0525781 Z M 0.305703 0.0454688 " transform="matrix(100,0,0,100,150,2900)"/>
<path style="fill:none;stroke-width:0.01;stroke-linecap:butt;stroke-linejoin:miter;stroke:rgb(0%,0%,0%);stroke-opacity:1;stroke-miterlimit:10;" d="M 0.600313 0.199102 L 0.600313 0.0454688 L 0.5875 0.0497266 L 0.5875 0.105195 L 0.557617 0.118008 L 0.523477 0.211914 L 0.510664 0.250312 L 0.514922 0.348477 L 0.519219 0.386914 L 0.514922 0.403984 L 0.489336 0.4125 L 0.493594 0.450898 L 0.502148 0.485078 L 0.497852 0.536289 L 0.468008 0.57043 L 0.450898 0.69418 L 0.399688 0.954531 L 0.446641 0.839297 L 0.463711 0.741133 L 0.489336 0.672852 L 0.506406 0.630156 L 0.531992 0.613086 L 0.544805 0.655781 L 0.544805 0.69418 L 0.540547 0.766758 L 0.553359 0.809414 L 0.566172 0.771016 L 0.561875 0.617383 L 0.578945 0.553359 L 0.600313 0.527734 Z M 0.600313 0.199102 " transform="matrix(100,0,0,100,300,2900)"/>
<path style="fill:none;stroke-width:0.01;stroke-linecap:butt;stroke-linejoin:miter;stroke:rgb(0%,0%,0%);stroke-opacity:1;stroke-miterlimit:10;" d="M 0.474766 0.0454688 L 0.525234 0.0454688 L 0.525234 0.954531 L 0.481953 0.954531 Z M 0.474766 0.0454688 " transform="matrix(100,0,0,100,450,2900)"/>
<path style="fill:none;stroke-width:0.01;stroke-linecap:butt;stroke-linejoin:miter;stroke:rgb(0%,0%,0%);stroke-opacity:1;stroke-miterlimit:10;" d="M 0.492852 0.0525781 L 0.489297 0.259375 L 0.517812 0.362734 L 0.517812 0.412656 L 0.528516 0.541016 L 0.542773 0.64082 L 0.578437 0.890391 L 0.578437 0.918906 L 0.585547 0.943867 L 0.585547 0.954531 L 0.464336 0.950977 L 0.464336 0.804805 L 0.453672 0.619414 L 0.453672 0.54457 L 0.442969 0.505352 L 0.428711 0.494648 L 0.414453 0.380586 L 0.428711 0.337773 L 0.418008 0.309258 L 0.428711 0.287891 L 0.425117 0.255781 L 0.425117 0.220156 L 0.428711 0.191641 L 0.418008 0.163086 L 0.425117 0.145273 L 0.418008 0.116758 L 0.428711 0.0953516 L 0.421563 0.0454688 Z M 0.492852 0.0525781 " transform="matrix(100,0,0,100,600,2900)"/>
<path style="fill:none;stroke-width:0.01;stroke-linecap:butt;stroke-linejoin:miter;stroke:rgb(0%,0%,0%);stroke-opacity:1;stroke-miterlimit:10;" d="M 0.453477 0.0454688 L 0.582305 0.0454688 L 0.57875 0.804219 L 0.582305 0.954531 L 0.503594 0.954531 L 0.507148 0.925898 L 0.510742 0.911602 L 0.5 0.900859 L 0.517891 0.890117 L 0.517891 0.886523 L 0.507148 0.87582 L 0.5 0.87582 L 0.496406 0.804219 L 0.478516 0.707578 L 0.478516 0.607383 L 0.464219 0.460625 L 0.442734 0.310313 L 0.431992 0.181445 L 0.417695 0.0454688 L 0.417695 0.0526172 Z M 0.453477 0.0454688 " transform="matrix(100,0,0,100,0,3050)"/>
<path style="fill:none;stroke-width:0.01;stroke-linecap:butt;stroke-linejoin:miter;stroke:rgb(0%,0%,0%);stroke-opacity:1;stroke-miterlimit:10;" d="M 0.528867 0.954531 L 0.453086 0.947344 L 0.406211 0.546914 L 0.366523 0.290781 L 0.341289 0.218633 L 0.337656 0.0779297 L 0.337656 0.0490625 L 0.655117 0.0454688 L 0.662344 0.323242 L 0.658711 0.586562 L 0.662344 0.759727 L 0.662344 0.954531 L 0.640703 0.954531 L 0.640703 0.904023 L 0.629883 0.831875 L 0.619063 0.781367 L 0.61543 0.741719 L 0.61543 0.680391 L 0.586562 0.655117 L 0.582969 0.62625 L 0.586562 0.593789 L 0.582969 0.568555 L 0.561328 0.564922 L 0.546914 0.590195 L 0.554102 0.644297 L 0.554102 0.698398 L 0.550508 0.723672 L 0.554102 0.748906 L 0.557734 0.763359 L 0.561328 0.788594 L 0.557734 0.799414 L 0.546914 0.810234 L 0.525234 0.824687 L 0.5 0.846328 L 0.48918 0.864375 L 0.478359 0.875195 L 0.478359 0.882383 L 0.492773 0.896836 L 0.514414 0.90043 L 0.5 0.914844 L 0.507227 0.925703 L 0.525234 0.929297 L 0.546914 0.932891 L 0.557734 0.925703 L 0.575742 0.91125 L 0.579375 0.907656 L 0.582969 0.907656 L 0.572148 0.932891 L 0.557734 0.954531 Z M 0.528867 0.954531 " transform="matrix(100,0,0,100,150,3050)"/>
<path style="fill:none;stroke-width:0.01;stroke-linecap:butt;stroke-linejoin:miter;stroke:rgb(0%,0%,0%);stroke-opacity:1;stroke-miterlimit:10;" d="M 0.318164 0.0454688 L 0.721016 0.0525781 L 0.721016 0.950977 L 0.713906 0.954531 L 0.286094 0.950977 L 0.282539 0.672891 L 0.278984 0.380586 L 0.286094 0.0775391 L 0.282539 0.0525781 Z M 0.318164 0.0454688 " transform="matrix(100,0,0,100,300,3050)"/>
<path style="fill:none;stroke-width:0.01;stroke-linecap:butt;stroke-linejoin:miter;stroke:rgb(0%,0%,0%);stroke-opacity:1;stroke-miterlimit:10;" d="M 0.691758 0.954531 L 0.468047 0.950977 L 0.450273 0.755664 L 0.436094 0.713086 L 0.436094 0.702422 L 0.421875 0.705977 L 0.393477 0.450273 L 0.375703 0.400586 L 0.372148 0.294023 L 0.354414 0.251406 L 0.34375 0.208789 L 0.336641 0.191055 L 0.325977 0.11293 L 0.308242 0.0525391 L 0.457383 0.0454688 L 0.464492 0.141328 L 0.471602 0.233672 L 0.489336 0.308242 L 0.496445 0.340195 L 0.507109 0.357969 L 0.510664 0.365039 L 0.524844 0.357969 L 0.531953 0.372148 L 0.535508 0.357969 L 0.546172 0.361523 L 0.549727 0.382812 L 0.571016 0.453828 L 0.578125 0.507109 L 0.585234 0.539062 L 0.595898 0.563906 L 0.606523 0.567461 L 0.613633 0.585234 L 0.617188 0.620742 L 0.624297 0.638477 L 0.634961 0.659805 L 0.634961 0.727266 L 0.645586 0.755664 L 0.645586 0.819609 L 0.649141 0.830273 L 0.65625 0.855117 L 0.666914 0.897734 L 0.681094 0.904844 L 0.688203 0.904844 L 0.691758 0.926133 Z M 0.691758 0.954531 " transform="matrix(100,0,0,100,450,3050)"/>
<path style="fill:none;stroke-width:0.01;stroke-linecap:butt;stroke-linejoin:miter;stroke:rgb(0%,0%,0%);stroke-opacity:1;stroke-miterlimit:10;" d="M 0.386992 0.0454688 L 0.668242 0.0454688 L 0.668242 0.954531 L 0.653203 0.934453 L 0.628086 0.879219 L 0.572813 0.728516 L 0.557773 0.648164 L 0.522617 0.557773 L 0.477383 0.452305 L 0.432188 0.331758 L 0.366914 0.140898 L 0.331758 0.0454688 Z M 0.386992 0.0454688 " transform="matrix(100,0,0,100,600,3050)"/>
<path style="fill:none;stroke-width:0.01;stroke-linecap:butt;stroke-linejoin:miter;stroke:rgb(0%,0%,0%);stroke-opacity:1;stroke-miterlimit:10;" d="M 0.348477 0.0454687 L 0.712109 0.0525781 L 0.712109 0.954531 L 0.373438 0.954531 L 0.341367 0.623008 L 0.312852 0.266484 L 0.287891 0.0525781 Z M 0.348477 0.0454687 " transform="matrix(100,0,0,100,0,3200)"/>
<path style="fill:none;stroke-width:0.01;stroke-linecap:butt;stroke-linejoin:miter;stroke:rgb(0%,0%,0%);stroke-opacity:1;stroke-miterlimit:10;" d="M 0.440039 0.0454687 L 0.654688 0.0454687 L 0.648359 0.550508 L 0.654688 0.904023 L 0.654688 0.954531 L 0.585234 0.910352 L 0.541055 0.866172 L 0.528398 0.784102 L 0.496836 0.702031 L 0.376875 0.512617 L 0.364258 0.468438 L 0.364258 0.392695 L 0.345313 0.297969 L 0.351641 0.215898 L 0.345313 0.0454687 Z M 0.440039 0.0454687 " transform="matrix(100,0,0,100,150,3200)"/>
<path style="fill:none;stroke-width:0.01;stroke-linecap:butt;stroke-linejoin:miter;stroke:rgb(0%,0%,0%);stroke-opacity:1;stroke-miterlimit:10;" d="M 0.303164 0.0454687 L 0.474961 0.0454687 L 0.514297 0.0633594 L 0.546523 0.0991406 L 0.600195 0.134922 L 0.62168 0.16 L 0.632422 0.185039 L 0.650313 0.192188 L 0.661055 0.192188 L 0.689688 0.177891 L 0.725469 0.199375 L 0.757695 0.217266 L 0.754102 0.210078 L 0.764844 0.217266 L 0.761289 0.607383 L 0.764844 0.91875 L 0.761289 0.954531 L 0.471367 0.950977 L 0.406953 0.607383 L 0.389063 0.535781 L 0.392617 0.514297 L 0.37832 0.503594 L 0.353242 0.424844 L 0.37832 0.399805 L 0.324609 0.317461 L 0.328203 0.29957 L 0.253047 0.0848437 L 0.235156 0.0454687 Z M 0.303164 0.0454687 " transform="matrix(100,0,0,100,300,3200)"/>
<path style="fill:none;stroke-width:0.01;stroke-linecap:butt;stroke-linejoin:miter;stroke:rgb(0%,0%,0%);stroke-opacity:1;stroke-miterlimit:10;" d="M 0.778789 0.954531 L 0.221211 0.954531 L 0.451523 0.263633 L 0.548477 0.469687 L 0.584844 0.493945 L 0.621211 0.445469 L 0.657578 0.409102 L 0.76668 0.0454687 Z M 0.778789 0.954531 " transform="matrix(100,0,0,100,450,3200)"/>
<path style="fill:none;stroke-width:0.01;stroke-linecap:butt;stroke-linejoin:miter;stroke:rgb(0%,0%,0%);stroke-opacity:1;stroke-miterlimit:10;" d="M 0.447891 0.0454687 L 0.609609 0.0454687 L 0.645508 0.358086 L 0.634766 0.393984 L 0.641914 0.476641 L 0.634766 0.526953 L 0.631172 0.577266 L 0.631172 0.613203 L 0.606016 0.703008 L 0.598828 0.871914 L 0.595234 0.922187 L 0.598828 0.954531 L 0.358086 0.954531 L 0.361641 0.904258 L 0.354492 0.889883 L 0.361641 0.871914 L 0.368828 0.821602 L 0.361641 0.771289 L 0.361641 0.710195 L 0.376016 0.598828 L 0.372422 0.512578 L 0.365234 0.465859 L 0.372422 0.455078 L 0.376016 0.429922 L 0.358086 0.397578 L 0.361641 0.343711 L 0.379609 0.318555 L 0.368828 0.286211 L 0.372422 0.261055 L 0.368828 0.199961 L 0.368828 0.10293 L 0.361641 0.0742188 L 0.361641 0.0454687 Z M 0.447891 0.0454687 " transform="matrix(100,0,0,100,600,3200)"/>
<path style="fill:none;stroke-width:0.01;stroke-linecap:butt;stroke-linejoin:miter;stroke:rgb(0%,0%,0%);stroke-opacity:1;stroke-miterlimit:10;" d="M 0.402578 0.0454687 L 0.629883 0.0454687 L 0.62625 0.954531 L 0.377344 0.954531 L 0.37375 0.0815234 L 0.370117 0.0454687 Z M 0.402578 0.0454687 " transform="matrix(100,0,0,100,0,3350)"/>
<path style="fill:none;stroke-width:0.01;stroke-linecap:butt;stroke-linejoin:miter;stroke:rgb(0%,0%,0%);stroke-opacity:1;stroke-miterlimit:10;" d="M 0.451875 0.0525781 L 0.590898 0.0454687 L 0.587344 0.950977 L 0.409102 0.954531 L 0.416211 0.0525781 Z M 0.451875 0.0525781 " transform="matrix(100,0,0,100,150,3350)"/>
<path style="fill:none;stroke-width:0.01;stroke-linecap:butt;stroke-linejoin:miter;stroke:rgb(0%,0%,0%);stroke-opacity:1;stroke-miterlimit:10;" d="M 0.509258 0.917422 L 0.509258 0.0454687 L 0.48332 0.253242 L 0.48332 0.95082 L 0.509258 0.954531 L 0.51668 0.913711 Z M 0.509258 0.917422 " transform="matrix(100,0,0,100,300,3350)"/>
<path style="fill:none;stroke-width:0.01;stroke-linecap:butt;stroke-linejoin:miter;stroke:rgb(0%,0%,0%);stroke-opacity:1;stroke-miterlimit:10;" d="M 0.358086 0.0454687 L 0.767695 0.0454687 L 0.749727 0.138867 L 0.720977 0.128086 L 0.717383 0.232305 L 0.692227 0.451484 L 0.685039 0.613203 L 0.663477 0.774883 L 0.645508 0.889883 L 0.645508 0.940156 L 0.634766 0.950938 L 0.570078 0.950938 L 0.534141 0.857539 L 0.508984 0.950938 L 0.483828 0.950938 L 0.476641 0.426328 L 0.444297 0.613203 L 0.433516 0.792852 L 0.404766 0.889883 L 0.383203 0.900664 L 0.386797 0.922187 L 0.386797 0.950938 L 0.232305 0.954531 L 0.24668 0.940156 L 0.243086 0.86832 L 0.257461 0.846758 L 0.264648 0.688633 L 0.286211 0.692227 L 0.286211 0.534141 L 0.296992 0.117305 L 0.293398 0.0526562 L 0.296992 0.0454687 Z M 0.358086 0.0454687 " transform="matrix(100,0,0,100,450,3350)"/>
<path style="fill:none;stroke-width:0.01;stroke-linecap:butt;stroke-linejoin:miter;stroke:rgb(0%,0%,0%);stroke-opacity:1;stroke-miterlimit:10;" d="M 0.601016 0.756133 L 0.597422 0.954531 L 0.395391 0.950938 L 0.435078 0.694805 L 0.438672 0.572148 L 0.456719 0.402578 L 0.474766 0.22582 L 0.474766 0.139258 L 0.5 0.142852 L 0.525234 0.0454687 L 0.604609 0.0454687 Z M 0.601016 0.756133 " transform="matrix(100,0,0,100,600,3350)"/>
<path style="fill:none;stroke-width:0.01;stroke-linecap:butt;stroke-linejoin:miter;stroke:rgb(0%,0%,0%);stroke-opacity:1;stroke-miterlimit:10;" d="M 0.624766 0.954531 L 0.5 0.950977 L 0.439375 0.444727 L 0.375234 0.0454687 L 0.624766 0.0454687 Z M 0.624766 0.954531 " transform="matrix(100,0,0,100,0,3500)"/>
<path style="fill:none;stroke-width:0.01;stroke-linecap:butt;stroke-linejoin:miter;stroke:rgb(0%,0%,0%);stroke-opacity:1;stroke-miterlimit:10;" d="M 0.615859 0.954531 L 0.384141 0.948594 L 0.609922 0.0454687 Z M 0.615859 0.954531 " transform="matrix(100,0,0,100,150,3500)"/>
<path style="fill:none;stroke-width:0.01;stroke-linecap:butt;stroke-linejoin:miter;stroke:rgb(0%,0%,0%);stroke-opacity:1;stroke-miterlimit:10;" d="M 0.232617 0.954531 L 0.168438 0.954531 L 0.182695 0.615859 L 0.186289 0.373438 L 0.193398 0.195195 L 0.204102 0.419805 L 0.236172 0.487539 L 0.25043 0.626562 L 0.25043 0.76918 L 0.24332 0.933164 L 0.246875 0.950977 L 0.282539 0.954531 L 0.293242 0.901055 L 0.278984 0.701445 L 0.275391 0.644375 L 0.278984 0.626562 L 0.314609 0.687148 L 0.325312 0.694297 L 0.357383 0.665781 L 0.482188 0.672891 L 0.539219 0.615859 L 0.585547 0.519609 L 0.610508 0.516055 L 0.635469 0.426914 L 0.653281 0.423359 L 0.781641 0.0525781 L 0.831562 0.0454687 L 0.831562 0.950977 Z M 0.232617 0.954531 " transform="matrix(100,0,0,100,300,3500)"/>
<path style="fill:none;stroke-width:0.01;stroke-linecap:butt;stroke-linejoin:miter;stroke:rgb(0%,0%,0%);stroke-opacity:1;stroke-miterlimit:10;" d="M 0.489297 0.412656 L 0.489297 0.0454687 L 0.507148 0.0454687 L 0.510703 0.954531 L 0.492852 0.954531 Z M 0.489297 0.412656 " transform="matrix(100,0,0,100,450,3500)"/>
<path style="fill:none;stroke-width:0.01;stroke-linecap:butt;stroke-linejoin:miter;stroke:rgb(0%,0%,0%);stroke-opacity:1;stroke-miterlimit:10;" d="M 0.647969 0.954531 L 0.380586 0.950977 L 0.35918 0.0846875 L 0.352031 0.0454687 L 0.644375 0.0454687 Z M 0.647969 0.954531 " transform="matrix(100,0,0,100,600,3500)"/>
<path style="fill:none;stroke-width:0.01;stroke-linecap:butt;stroke-linejoin:miter;stroke:rgb(0%,0%,0%);stroke-opacity:1;stroke-miterlimit:10;" d="M 0.519766 0.0454687 L 0.584453 0.0454687 L 0.584453 0.954531 L 0.415547 0.954531 L 0.440703 0.907852 L 0.444297 0.760508 L 0.447891 0.649102 L 0.462266 0.562891 L 0.480234 0.491016 L 0.501797 0.415547 L 0.505391 0.368828 L 0.487422 0.296992 L 0.491016 0.253867 L 0.483828 0.214336 L 0.480234 0.128086 L 0.469453 0.0778125 L 0.469453 0.0454687 Z M 0.519766 0.0454687 " transform="matrix(100,0,0,100,0,3650)"/>
<path style="fill:none;stroke-width:0.01;stroke-linecap:butt;stroke-linejoin:miter;stroke:rgb(0%,0%,0%);stroke-opacity:1;stroke-miterlimit:10;" d="M 0.611836 0.954531 L 0.438672 0.954531 L 0.442266 0.904023 L 0.398984 0.867969 L 0.377344 0.817461 L 0.398984 0.763359 L 0.395391 0.720039 L 0.398984 0.698398 L 0.388164 0.680391 L 0.391758 0.658711 L 0.406211 0.644297 L 0.402578 0.633477 L 0.420625 0.608242 L 0.456719 0.507227 L 0.485586 0.38457 L 0.518047 0.279961 L 0.528867 0.178945 L 0.564922 0.0634766 L 0.568555 0.0454687 L 0.61543 0.0454687 L 0.622656 0.536094 Z M 0.611836 0.954531 " transform="matrix(100,0,0,100,150,3650)"/>
<path style="fill:none;stroke-width:0.01;stroke-linecap:butt;stroke-linejoin:miter;stroke:rgb(0%,0%,0%);stroke-opacity:1;stroke-miterlimit:10;" d="M 0.740742 0.954531 L 0.262852 0.950938 L 0.259258 0.796445 L 0.270039 0.584453 L 0.291602 0.0885547 L 0.295195 0.0454687 L 0.737148 0.0454687 Z M 0.740742 0.954531 " transform="matrix(100,0,0,100,300,3650)"/>
<path style="fill:none;stroke-width:0.01;stroke-linecap:butt;stroke-linejoin:miter;stroke:rgb(0%,0%,0%);stroke-opacity:1;stroke-miterlimit:10;" d="M 0.607813 0.0454687 L 0.607813 0.950938 L 0.392188 0.954531 L 0.399375 0.0454687 Z M 0.607813 0.0454687 " transform="matrix(100,0,0,100,450,3650)"/>
<path style="fill:none;stroke-width:0.01;stroke-linecap:butt;stroke-linejoin:miter;stroke:rgb(0%,0%,0%);stroke-opacity:1;stroke-miterlimit:10;" d="M 0.431836 0.0454687 L 0.431836 0.136367 L 0.465898 0.204531 L 0.465898 0.261367 L 0.454531 0.318164 L 0.534102 0.420469 L 0.545469 0.556836 L 0.534102 0.704531 L 0.568164 0.795469 L 0.556836 0.795469 L 0.545469 0.909102 L 0.556836 0.954531 L 0.568164 0.0454687 Z M 0.431836 0.0454687 " transform="matrix(100,0,0,100,600,3650)"/>
<path style="fill:none;stroke-width:0.01;stroke-linecap:butt;stroke-linejoin:miter;stroke:rgb(0%,0%,0%);stroke-opacity:1;stroke-miterlimit:10;" d="M 0.549297 0.101211 L 0.545039 0.0454687 L 0.523594 0.0454687 L 0.510703 0.139805 L 0.506445 0.212695 L 0.510703 0.264141 L 0.515 0.341328 L 0.502148 0.427109 L 0.497852 0.538594 L 0.502148 0.63293 L 0.489297 0.697266 L 0.485 0.757305 L 0.476406 0.847344 L 0.459258 0.937383 L 0.450703 0.945977 L 0.446406 0.950273 L 0.489297 0.94168 L 0.502148 0.954531 L 0.510703 0.924531 L 0.532148 0.843047 L 0.532148 0.714414 L 0.545039 0.628633 L 0.553594 0.444258 L 0.549297 0.259844 Z M 0.549297 0.101211 " transform="matrix(100,0,0,100,0,3800)"/>
<path style="fill:none;stroke-width:0.01;stroke-linecap:butt;stroke-linejoin:miter;stroke:rgb(0%,0%,0%);stroke-opacity:1;stroke-miterlimit:10;" d="M 0.687148 0.954531 L 0.309258 0.950977 L 0.323516 0.0846875 L 0.330664 0.0525781 L 0.690742 0.0454687 Z M 0.687148 0.954531 " transform="matrix(100,0,0,100,150,3800)"/>
<path style="fill:none;stroke-width:0.01;stroke-linecap:butt;stroke-linejoin:miter;stroke:rgb(0%,0%,0%);stroke-opacity:1;stroke-miterlimit:10;" d="M 0.372422 0.954531 L 0.24668 0.950938 L 0.257461 0.843164 L 0.271836 0.818008 L 0.271836 0.764102 L 0.27543 0.688633 L 0.343711 0.656289 L 0.372422 0.609609 L 0.462266 0.429922 L 0.530547 0.286211 L 0.595234 0.149648 L 0.652695 0.0454687 L 0.749727 0.0454687 L 0.75332 0.789258 L 0.75332 0.954531 Z M 0.372422 0.954531 " transform="matrix(100,0,0,100,300,3800)"/>
<path style="fill:none;stroke-width:0.01;stroke-linecap:butt;stroke-linejoin:miter;stroke:rgb(0%,0%,0%);stroke-opacity:1;stroke-miterlimit:10;" d="M 0.58625 0.954531 L 0.510781 0.950938 L 0.474844 0.573672 L 0.41375 0.0454687 L 0.582656 0.0454687 Z M 0.58625 0.954531 " transform="matrix(100,0,0,100,450,3800)"/>
<path style="fill:none;stroke-width:0.01;stroke-linecap:butt;stroke-linejoin:miter;stroke:rgb(0%,0%,0%);stroke-opacity:1;stroke-miterlimit:10;" d="M 0.556328 0.0454687 L 0.443672 0.0454687 L 0.548281 0.769492 L 0.540234 0.954531 Z M 0.556328 0.0454687 " transform="matrix(100,0,0,100,600,3800)"/>
<path style="fill:none;stroke-width:0.01;stroke-linecap:butt;stroke-linejoin:miter;stroke:rgb(0%,0%,0%);stroke-opacity:1;stroke-miterlimit:10;" d="M 0.532305 0.0454687 L 0.536367 0.368672 L 0.536367 0.906055 L 0.532305 0.954531 L 0.524258 0.79293 L 0.524258 0.687891 L 0.520195 0.603047 L 0.512109 0.413125 L 0.479805 0.102031 L 0.463633 0.0454687 Z M 0.532305 0.0454687 " transform="matrix(100,0,0,100,0,3950)"/>
<path style="fill:none;stroke-width:0.01;stroke-linecap:butt;stroke-linejoin:miter;stroke:rgb(0%,0%,0%);stroke-opacity:1;stroke-miterlimit:10;" d="M 0.756914 0.0454687 L 0.491016 0.0454687 L 0.444297 0.250273 L 0.422734 0.268242 L 0.372422 0.523359 L 0.361641 0.516172 L 0.318555 0.663477 L 0.30418 0.677852 L 0.239492 0.950938 L 0.760508 0.954531 Z M 0.756914 0.0454687 " transform="matrix(100,0,0,100,150,3950)"/>
<path style="fill:none;stroke-width:0.01;stroke-linecap:butt;stroke-linejoin:miter;stroke:rgb(0%,0%,0%);stroke-opacity:1;stroke-miterlimit:10;" d="M 0.379141 0.0454687 L 0.252891 0.0454687 L 0.234844 0.103164 L 0.209609 0.113984 L 0.205977 0.132031 L 0.191562 0.157305 L 0.169922 0.196953 L 0.195156 0.247461 L 0.202383 0.243867 L 0.216797 0.240273 L 0.270938 0.240273 L 0.281758 0.236641 L 0.306992 0.196953 L 0.364727 0.215 L 0.393594 0.276328 L 0.411602 0.355703 L 0.433242 0.467539 L 0.469336 0.536094 L 0.509023 0.619062 L 0.541484 0.66957 L 0.624453 0.792227 L 0.739883 0.904023 L 0.772383 0.954531 L 0.822891 0.954531 L 0.830078 0.756133 L 0.822891 0.727266 L 0.812031 0.709219 L 0.772383 0.698398 L 0.775977 0.662344 L 0.797617 0.63707 L 0.801211 0.640703 L 0.794023 0.611836 L 0.786797 0.593789 L 0.76875 0.564922 L 0.743516 0.521641 L 0.721875 0.536094 L 0.700234 0.532461 L 0.685781 0.514414 L 0.689375 0.48918 L 0.703828 0.456719 L 0.714648 0.435078 L 0.718242 0.431445 L 0.729062 0.420625 L 0.725469 0.402578 L 0.707422 0.37375 L 0.682187 0.377344 L 0.667734 0.388164 L 0.65332 0.402578 L 0.649727 0.380938 L 0.65332 0.37375 L 0.646094 0.36293 L 0.617227 0.36293 L 0.591992 0.370117 L 0.610039 0.326836 L 0.573945 0.305195 L 0.548711 0.312422 L 0.534258 0.287148 L 0.563125 0.279961 L 0.555898 0.258281 L 0.541484 0.236641 L 0.519844 0.229453 L 0.545078 0.20418 L 0.50543 0.215 L 0.490977 0.207773 L 0.47293 0.218633 L 0.47293 0.186133 L 0.433242 0.193359 L 0.433242 0.178945 L 0.411602 0.171719 L 0.408008 0.160898 L 0.408008 0.135625 L 0.436875 0.142852 L 0.454922 0.135625 L 0.47293 0.121211 L 0.48375 0.106797 L 0.480156 0.0923437 L 0.447695 0.0815234 L 0.400781 0.0779297 L 0.400781 0.0598828 Z M 0.379141 0.0454687 " transform="matrix(100,0,0,100,300,3950)"/>
<path style="fill:none;stroke-width:0.01;stroke-linecap:butt;stroke-linejoin:miter;stroke:rgb(0%,0%,0%);stroke-opacity:1;stroke-miterlimit:10;" d="M 0.442969 0.950977 L 0.400195 0.954531 L 0.400195 0.840469 L 0.396602 0.719258 L 0.40375 0.55168 L 0.442969 0.526719 L 0.446523 0.466133 L 0.446523 0.227266 L 0.460781 0.241523 L 0.46793 0.241523 L 0.517812 0.0454687 L 0.603398 0.0454687 L 0.59625 0.0739844 L 0.592695 0.0953516 L 0.59625 0.120313 L 0.567734 0.152422 L 0.549922 0.180937 L 0.53207 0.202305 L 0.514258 0.255781 L 0.492852 0.298555 L 0.475039 0.348477 L 0.464336 0.380586 L 0.446523 0.441172 L 0.446523 0.523164 L 0.43582 0.826211 Z M 0.442969 0.950977 " transform="matrix(100,0,0,100,450,3950)"/>
<path style="fill:none;stroke-width:0.01;stroke-linecap:butt;stroke-linejoin:miter;stroke:rgb(0%,0%,0%);stroke-opacity:1;stroke-miterlimit:10;" d="M 0.385469 0.954531 L 0.270938 0.954531 L 0.260195 0.925898 L 0.235156 0.900859 L 0.224414 0.872227 L 0.224414 0.850742 L 0.210078 0.843594 L 0.199375 0.84 L 0.192188 0.829258 L 0.185039 0.804219 L 0.167148 0.786328 L 0.181445 0.739805 L 0.20293 0.757695 L 0.235156 0.768437 L 0.256641 0.761289 L 0.270938 0.754102 L 0.317461 0.79707 L 0.342539 0.79707 L 0.36043 0.77918 L 0.374727 0.739805 L 0.399805 0.675391 L 0.399805 0.62168 L 0.403359 0.571562 L 0.428438 0.557266 L 0.428438 0.510742 L 0.489258 0.371172 L 0.528633 0.303164 L 0.585898 0.22082 L 0.668203 0.127773 L 0.711172 0.0776563 L 0.721914 0.0526172 L 0.832852 0.0454687 L 0.811367 0.109883 L 0.79707 0.138516 L 0.804219 0.170742 L 0.793477 0.192188 L 0.775586 0.20293 L 0.775586 0.228008 L 0.77918 0.274531 L 0.768438 0.321055 L 0.789922 0.338945 L 0.771992 0.389063 L 0.761289 0.410508 L 0.736211 0.431992 L 0.721914 0.442734 L 0.714727 0.414102 L 0.696836 0.435586 L 0.689687 0.45707 L 0.678945 0.478516 L 0.689687 0.489258 L 0.689687 0.532227 L 0.714727 0.560859 L 0.721914 0.57875 L 0.711172 0.593047 L 0.689687 0.600195 L 0.668203 0.600195 L 0.653906 0.593047 L 0.618125 0.596641 L 0.628828 0.603789 L 0.653906 0.614531 L 0.636016 0.62168 L 0.57875 0.614531 L 0.57875 0.625273 L 0.582305 0.63957 L 0.600195 0.650312 L 0.607383 0.668203 L 0.528633 0.678945 L 0.521484 0.696836 L 0.54293 0.696836 L 0.571562 0.689687 L 0.600195 0.686094 L 0.582305 0.70043 L 0.568008 0.704023 L 0.550117 0.707578 L 0.535781 0.729062 L 0.54293 0.739805 L 0.546523 0.746953 L 0.528633 0.750547 L 0.521484 0.761289 L 0.54293 0.786328 L 0.535781 0.79707 L 0.528633 0.77918 L 0.507148 0.764844 L 0.503594 0.77918 L 0.496406 0.804219 L 0.496406 0.822109 L 0.482109 0.804219 L 0.489258 0.782734 L 0.471367 0.77918 L 0.460625 0.793477 L 0.453477 0.800625 L 0.424844 0.793477 L 0.42125 0.807813 L 0.403359 0.825703 L 0.410508 0.836445 L 0.414102 0.857891 L 0.424844 0.865078 L 0.431992 0.847188 L 0.446328 0.843594 L 0.45707 0.854336 L 0.460625 0.865078 L 0.471367 0.87582 L 0.474961 0.890117 L 0.467773 0.882969 L 0.442734 0.900859 L 0.442734 0.908008 L 0.431992 0.911602 L 0.417695 0.904453 L 0.399805 0.911602 L 0.403359 0.922344 L 0.417695 0.929492 L 0.406953 0.936641 L 0.396211 0.950977 Z M 0.385469 0.954531 " transform="matrix(100,0,0,100,600,3950)"/>
<path style="fill:none;stroke-width:0.01;stroke-linecap:butt;stroke-linejoin:miter;stroke:rgb(0%,0%,0%);stroke-opacity:1;stroke-miterlimit:10;" d="M 0.75668 0.0454687 L 0.75668 0.954531 L 0.24332 0.954531 L 0.246875 0.879688 L 0.264688 0.890391 L 0.293242 0.890391 L 0.321758 0.861836 L 0.332461 0.815508 L 0.375234 0.836914 L 0.421563 0.808359 L 0.696094 0.13457 L 0.710352 0.0525781 Z M 0.75668 0.0454687 " transform="matrix(100,0,0,100,0,4100)"/>
<path style="fill:none;stroke-width:0.01;stroke-linecap:butt;stroke-linejoin:miter;stroke:rgb(0%,0%,0%);stroke-opacity:1;stroke-miterlimit:10;" d="M 0.485664 0.0454687 L 0.480859 0.299062 L 0.504766 0.50957 L 0.514336 0.643555 L 0.523906 0.734453 L 0.538281 0.954531 L 0.519141 0.954531 L 0.495234 0.677031 L 0.485664 0.557422 L 0.461719 0.356445 L 0.461719 0.165078 Z M 0.485664 0.0454687 " transform="matrix(100,0,0,100,150,4100)"/>
<path style="fill:none;stroke-width:0.01;stroke-linecap:butt;stroke-linejoin:miter;stroke:rgb(0%,0%,0%);stroke-opacity:1;stroke-miterlimit:10;" d="M 0.721992 0.531719 L 0.679688 0.447148 L 0.595156 0.383711 L 0.404844 0.341445 L 0.404844 0.172305 L 0.320312 0.256875 L 0.278008 0.341445 L 0.278008 0.426016 L 0.172305 0.489414 L 0.0877344 0.531719 L 0.0454687 0.595156 L 0.130039 0.700859 L 0.616289 0.827695 L 0.764258 0.806562 L 0.891133 0.721992 L 0.954531 0.616289 L 0.933398 0.510586 Z M 0.721992 0.531719 " transform="matrix(100,0,0,100,300,4100)"/>
<path style="fill:none;stroke-width:0.01;stroke-linecap:butt;stroke-linejoin:miter;stroke:rgb(0%,0%,0%);stroke-opacity:1;stroke-miterlimit:10;" d="M 0.476445 0.0454687 L 0.471719 0.266836 L 0.467031 0.436406 L 0.471719 0.511758 L 0.476445 0.55418 L 0.476445 0.629531 L 0.485859 0.681328 L 0.5 0.719023 L 0.504727 0.751992 L 0.523555 0.799102 L 0.547109 0.855625 L 0.547109 0.916875 L 0.551797 0.954531 L 0.528281 0.916875 L 0.523555 0.841484 L 0.490586 0.775547 L 0.481172 0.737852 L 0.471719 0.686055 L 0.452891 0.638945 L 0.457617 0.540039 L 0.448203 0.361055 L 0.448203 0.210313 L 0.452891 0.12082 L 0.462305 0.0454687 Z M 0.476445 0.0454687 " transform="matrix(100,0,0,100,450,4100)"/>
<path style="fill:none;stroke-width:0.01;stroke-linecap:butt;stroke-linejoin:miter;stroke:rgb(0%,0%,0%);stroke-opacity:1;stroke-miterlimit:10;" d="M 0.521641 0.0454687 L 0.521641 0.954531 L 0.48918 0.813867 L 0.478359 0.629883 L 0.478359 0.218633 Z M 0.521641 0.0454687 " transform="matrix(100,0,0,100,600,4100)"/>
<path style="fill:none;stroke-width:0.01;stroke-linecap:butt;stroke-linejoin:miter;stroke:rgb(0%,0%,0%);stroke-opacity:1;stroke-miterlimit:10;" d="M 0.311797 0.0454687 L 0.365039 0.244336 L 0.407656 0.507109 L 0.41832 0.666914 L 0.446719 0.819609 L 0.453828 0.954531 L 0.684648 0.950977 L 0.688203 0.0454687 Z M 0.311797 0.0454687 " transform="matrix(100,0,0,100,0,4250)"/>
<path style="fill:none;stroke-width:0.01;stroke-linecap:butt;stroke-linejoin:miter;stroke:rgb(0%,0%,0%);stroke-opacity:1;stroke-miterlimit:10;" d="M 0.734609 0.954531 L 0.294727 0.954531 L 0.294727 0.397344 L 0.265391 0.19207 L 0.382695 0.0454687 L 0.412031 0.19207 L 0.441367 0.42668 L 0.441367 0.602656 L 0.529336 0.778594 L 0.587969 0.80793 L 0.705273 0.866563 Z M 0.734609 0.954531 " transform="matrix(100,0,0,100,150,4250)"/>
<path style="fill:none;stroke-width:0.01;stroke-linecap:butt;stroke-linejoin:miter;stroke:rgb(0%,0%,0%);stroke-opacity:1;stroke-miterlimit:10;" d="M 0.517813 0.950977 L 0.485742 0.954531 L 0.492852 0.950977 L 0.489297 0.334219 L 0.485742 0.0917969 L 0.482188 0.0525781 L 0.492852 0.0454687 L 0.503555 0.565938 L 0.514258 0.86543 Z M 0.517813 0.950977 " transform="matrix(100,0,0,100,300,4250)"/>
<path style="fill:none;stroke-width:0.01;stroke-linecap:butt;stroke-linejoin:miter;stroke:rgb(0%,0%,0%);stroke-opacity:1;stroke-miterlimit:10;" d="M 0.709492 0.0454687 L 0.282617 0.0533594 L 0.314219 0.156133 L 0.456523 0.314219 L 0.559297 0.480234 L 0.598828 0.551367 L 0.654141 0.717383 L 0.701563 0.867578 L 0.717383 0.954531 L 0.717383 0.92293 Z M 0.709492 0.0454687 " transform="matrix(100,0,0,100,450,4250)"/>
<path style="fill:none;stroke-width:0.01;stroke-linecap:butt;stroke-linejoin:miter;stroke:rgb(0%,0%,0%);stroke-opacity:1;stroke-miterlimit:10;" d="M 0.496406 0.763359 L 0.496406 0.828281 L 0.5 0.92207 L 0.496406 0.954531 L 0.507227 0.954531 L 0.507227 0.766953 L 0.503594 0.611836 L 0.503594 0.0454687 L 0.496406 0.0454687 L 0.492773 0.0923437 L 0.496406 0.186133 L 0.492773 0.323242 L 0.496406 0.413438 L 0.492773 0.564922 Z M 0.496406 0.763359 " transform="matrix(100,0,0,100,600,4250)"/>
<path style="fill:none;stroke-width:0.01;stroke-linecap:butt;stroke-linejoin:miter;stroke:rgb(0%,0%,0%);stroke-opacity:1;stroke-miterlimit:10;" d="M 0.29707 0.775977 L 0.31332 0.678555 L 0.362031 0.743516 L 0.378242 0.646094 L 0.459414 0.451289 L 0.524336 0.126641 L 0.540586 0.126641 L 0.589297 0.224023 L 0.605508 0.305195 L 0.670469 0.0454687 L 0.735391 0.0454687 L 0.751641 0.159102 L 0.800312 0.126641 L 0.800312 0.727266 L 0.816562 0.954531 L 0.199688 0.954531 L 0.183438 0.873359 L 0.248359 0.905859 Z M 0.29707 0.775977 " transform="matrix(100,0,0,100,0,4400)"/>
<path style="fill:none;stroke-width:0.01;stroke-linecap:butt;stroke-linejoin:miter;stroke:rgb(0%,0%,0%);stroke-opacity:1;stroke-miterlimit:10;" d="M 0.401445 0.170156 L 0.409492 0.27875 L 0.417539 0.371289 L 0.421563 0.475859 L 0.405469 0.544258 L 0.405469 0.60457 L 0.397422 0.685039 L 0.393398 0.73332 L 0.405469 0.81375 L 0.421563 0.849961 L 0.421563 0.926406 L 0.45375 0.950508 L 0.485938 0.954531 L 0.510039 0.878125 L 0.501992 0.817773 L 0.526133 0.765469 L 0.586484 0.72125 L 0.606602 0.685039 L 0.55832 0.616641 L 0.506016 0.584492 L 0.473867 0.51207 L 0.493984 0.463789 L 0.526133 0.435625 L 0.518086 0.39543 L 0.485938 0.355195 L 0.530156 0.27875 L 0.514063 0.234531 L 0.522109 0.133945 L 0.550273 0.0977344 L 0.54625 0.0615625 L 0.522109 0.0535156 L 0.493984 0.0454687 L 0.481914 0.0735938 L 0.469844 0.117852 L 0.477891 0.17418 L 0.457773 0.190273 Z M 0.401445 0.170156 " transform="matrix(100,0,0,100,150,4400)"/>
<path style="fill:none;stroke-width:0.01;stroke-linecap:butt;stroke-linejoin:miter;stroke:rgb(0%,0%,0%);stroke-opacity:1;stroke-miterlimit:10;" d="M 0.450234 0.0587109 L 0.463516 0.324141 L 0.470156 0.443594 L 0.483398 0.543125 L 0.476758 0.689102 L 0.483398 0.808555 L 0.483398 0.888203 L 0.49668 0.954531 L 0.509961 0.881563 L 0.523242 0.58957 L 0.549766 0.397148 L 0.543125 0.217969 L 0.536484 0.111797 L 0.523242 0.0454687 Z M 0.450234 0.0587109 " transform="matrix(100,0,0,100,300,4400)"/>
<path style="fill:none;stroke-width:0.01;stroke-linecap:butt;stroke-linejoin:miter;stroke:rgb(0%,0%,0%);stroke-opacity:1;stroke-miterlimit:10;" d="M 0.478438 0.954531 L 0.496406 0.458672 L 0.507187 0.235898 L 0.510781 0.0526562 L 0.507187 0.0454687 L 0.521562 0.0454687 L 0.517969 0.411953 L 0.510781 0.728164 L 0.507187 0.950938 Z M 0.478438 0.954531 " transform="matrix(100,0,0,100,450,4400)"/>
<path style="fill:none;stroke-width:0.01;stroke-linecap:butt;stroke-linejoin:miter;stroke:rgb(0%,0%,0%);stroke-opacity:1;stroke-miterlimit:10;" d="M 0.492852 0.954531 L 0.467773 0.950977 L 0.492852 0.925898 L 0.496406 0.646758 L 0.514297 0.0490234 L 0.532227 0.0454687 L 0.517891 0.467773 L 0.517891 0.696836 L 0.514297 0.950977 Z M 0.492852 0.954531 " transform="matrix(100,0,0,100,600,4400)"/>
<path style="fill:none;stroke-width:0.01;stroke-linecap:butt;stroke-linejoin:miter;stroke:rgb(0%,0%,0%);stroke-opacity:1;stroke-miterlimit:10;" d="M 0.573203 0.954531 L 0.542383 0.946836 L 0.519258 0.700313 L 0.503867 0.538516 L 0.503867 0.484609 L 0.488438 0.399844 L 0.480742 0.315117 L 0.473047 0.284297 L 0.465313 0.276563 L 0.449922 0.276563 L 0.442227 0.291992 L 0.434531 0.315117 L 0.426797 0.330508 L 0.426797 0.114805 L 0.434531 0.0839844 L 0.449922 0.0454687 L 0.480742 0.0685547 L 0.496133 0.099375 L 0.519258 0.114805 L 0.526953 0.15332 L 0.526953 0.176406 L 0.557773 0.446055 Z M 0.573203 0.954531 " transform="matrix(100,0,0,100,0,4550)"/>
<path style="fill:none;stroke-width:0.01;stroke-linecap:butt;stroke-linejoin:miter;stroke:rgb(0%,0%,0%);stroke-opacity:1;stroke-miterlimit:10;" d="M 0.749727 0.954531 L 0.501797 0.954531 L 0.372422 0.465859 L 0.358086 0.462266 L 0.350898 0.411953 L 0.350898 0.376016 L 0.340117 0.347305 L 0.33293 0.329336 L 0.271836 0.221523 L 0.268242 0.149648 L 0.250273 0.0454687 L 0.749727 0.0454687 Z M 0.749727 0.954531 " transform="matrix(100,0,0,100,150,4550)"/>
<path style="fill:none;stroke-width:0.01;stroke-linecap:butt;stroke-linejoin:miter;stroke:rgb(0%,0%,0%);stroke-opacity:1;stroke-miterlimit:10;" d="M 0.137383 0.87793 L 0.208867 0.683867 L 0.249727 0.663438 L 0.280391 0.704297 L 0.30082 0.775781 L 0.30082 0.816641 L 0.32125 0.826875 L 0.372305 0.765586 L 0.413164 0.704297 L 0.484688 0.663438 L 0.535742 0.673633 L 0.576602 0.694063 L 0.627695 0.704297 L 0.668555 0.683867 L 0.69918 0.622578 L 0.750273 0.540859 L 0.801328 0.540859 L 0.831953 0.561289 L 0.883047 0.561289 L 0.923906 0.540859 L 0.954531 0.469375 L 0.913672 0.377422 L 0.923906 0.336562 L 0.821758 0.12207 L 0.821758 0.285508 L 0.709414 0.346797 L 0.668555 0.367227 L 0.627695 0.367227 L 0.535742 0.387656 L 0.464258 0.408086 L 0.454023 0.346797 L 0.382539 0.551055 L 0.280391 0.5 L 0.208867 0.489805 L 0.137383 0.367227 L 0.116953 0.356992 L 0.116953 0.397852 L 0.147617 0.459141 L 0.157812 0.540859 L 0.106758 0.540859 L 0.116953 0.612344 L 0.0454687 0.673633 L 0.0658984 0.765586 L 0.0965234 0.775781 L 0.106758 0.765586 L 0.127188 0.796211 L 0.127188 0.83707 Z M 0.137383 0.87793 " transform="matrix(100,0,0,100,300,4550)"/>
<path style="fill:none;stroke-width:0.01;stroke-linecap:butt;stroke-linejoin:miter;stroke:rgb(0%,0%,0%);stroke-opacity:1;stroke-miterlimit:10;" d="M 0.491133 0.0525391 L 0.363281 0.0454687 L 0.565703 0.950977 L 0.636719 0.954531 L 0.636719 0.379258 L 0.629609 0.382812 L 0.611875 0.375703 L 0.579883 0.322461 L 0.579883 0.308242 L 0.569258 0.276289 L 0.579883 0.244336 L 0.569258 0.240781 L 0.562148 0.198164 L 0.54793 0.162656 L 0.526641 0.144883 L 0.498242 0.0987109 L 0.515977 0.0774219 L 0.491133 0.0951563 L 0.491133 0.0632031 Z M 0.491133 0.0525391 " transform="matrix(100,0,0,100,450,4550)"/>
<path style="fill:none;stroke-width:0.01;stroke-linecap:butt;stroke-linejoin:miter;stroke:rgb(0%,0%,0%);stroke-opacity:1;stroke-miterlimit:10;" d="M 0.370117 0.0454687 L 0.607266 0.0454687 L 0.595977 0.367305 L 0.607266 0.389883 L 0.624219 0.463281 L 0.641172 0.542344 L 0.641172 0.598828 L 0.652461 0.655273 L 0.669414 0.677852 L 0.66375 0.717383 L 0.686328 0.739961 L 0.66375 0.762578 L 0.697617 0.824688 L 0.691992 0.847266 L 0.675039 0.847266 L 0.652461 0.864219 L 0.658086 0.909375 L 0.680703 0.931953 L 0.66375 0.954531 L 0.646797 0.954531 L 0.624219 0.875508 L 0.618594 0.790781 L 0.601641 0.723047 L 0.573398 0.638359 L 0.556484 0.553633 L 0.522578 0.446367 L 0.460469 0.299531 L 0.420937 0.282617 L 0.404023 0.265664 L 0.392734 0.186602 L 0.364492 0.158398 L 0.347539 0.113203 L 0.302383 0.0510937 Z M 0.370117 0.0454687 " transform="matrix(100,0,0,100,600,4550)"/>
<path style="fill:none;stroke-width:0.01;stroke-linecap:butt;stroke-linejoin:miter;stroke:rgb(0%,0%,0%);stroke-opacity:1;stroke-miterlimit:10;" d="M 0.655195 0.0454687 L 0.344805 0.0528516 L 0.337383 0.108281 L 0.348477 0.115664 L 0.355859 0.0898047 L 0.370664 0.0934766 L 0.381758 0.148945 L 0.415 0.156328 L 0.415 0.167422 L 0.400234 0.182187 L 0.38543 0.193281 L 0.662617 0.954531 Z M 0.655195 0.0454687 " transform="matrix(100,0,0,100,0,4700)"/>
<path style="fill:none;stroke-width:0.01;stroke-linecap:butt;stroke-linejoin:miter;stroke:rgb(0%,0%,0%);stroke-opacity:1;stroke-miterlimit:10;" d="M 0.512539 0.0454687 L 0.516094 0.453477 L 0.523281 0.54293 L 0.505352 0.553672 L 0.523281 0.568008 L 0.526836 0.671797 L 0.526836 0.947383 L 0.476719 0.954531 L 0.501797 0.678945 L 0.491055 0.646758 L 0.476719 0.568008 L 0.483906 0.389063 L 0.476719 0.192188 L 0.473164 0.0454687 Z M 0.512539 0.0454687 " transform="matrix(100,0,0,100,150,4700)"/>
<path style="fill:none;stroke-width:0.01;stroke-linecap:butt;stroke-linejoin:miter;stroke:rgb(0%,0%,0%);stroke-opacity:1;stroke-miterlimit:10;" d="M 0.925547 0.0454687 L 0.0744531 0.0454687 L 0.0680078 0.335586 L 0.0808984 0.354922 L 0.100273 0.284023 L 0.126055 0.213086 L 0.209883 0.174414 L 0.313008 0.19375 L 0.403281 0.251758 L 0.441992 0.271133 L 0.474219 0.309805 L 0.538672 0.387188 L 0.667617 0.580586 L 0.732109 0.677305 L 0.880391 0.870742 L 0.925547 0.954531 L 0.931992 0.922305 Z M 0.925547 0.0454687 " transform="matrix(100,0,0,100,300,4700)"/>
<path style="fill:none;stroke-width:0.01;stroke-linecap:butt;stroke-linejoin:miter;stroke:rgb(0%,0%,0%);stroke-opacity:1;stroke-miterlimit:10;" d="M 0.477266 0.0584375 L 0.48375 0.162344 L 0.477266 0.318164 L 0.48375 0.389609 L 0.48375 0.474023 L 0.477266 0.623359 L 0.490273 0.798711 L 0.503242 0.876641 L 0.503242 0.954531 L 0.522734 0.629883 L 0.51625 0.0844141 L 0.51625 0.0454687 Z M 0.477266 0.0584375 " transform="matrix(100,0,0,100,450,4700)"/>
<path style="fill:none;stroke-width:0.01;stroke-linecap:butt;stroke-linejoin:miter;stroke:rgb(0%,0%,0%);stroke-opacity:1;stroke-miterlimit:10;" d="M 0.196953 0.0454687 L 0.170625 0.0454687 L 0.157461 0.618594 L 0.170625 0.546133 L 0.177188 0.355078 L 0.190391 0.249688 L 0.203555 0.183789 L 0.210156 0.164023 L 0.210156 0.150859 L 0.22332 0.150859 L 0.243086 0.170625 L 0.269414 0.203555 L 0.276016 0.236484 L 0.295781 0.22332 L 0.322148 0.170625 L 0.348477 0.137695 L 0.361641 0.131094 L 0.401172 0.144258 L 0.407773 0.157461 L 0.434141 0.177188 L 0.453867 0.229922 L 0.453867 0.315547 L 0.447305 0.374844 L 0.453867 0.394609 L 0.480234 0.374844 L 0.5 0.394609 L 0.519766 0.440703 L 0.526367 0.473633 L 0.53293 0.486836 L 0.565859 0.440703 L 0.592227 0.440703 L 0.625156 0.480234 L 0.723984 0.677852 L 0.756914 0.783281 L 0.770078 0.855742 L 0.77668 0.888672 L 0.783281 0.954531 L 0.796445 0.875508 L 0.822813 0.842539 L 0.829375 0.789844 L 0.829375 0.737148 L 0.789844 0.658086 L 0.763516 0.565859 L 0.783281 0.5 L 0.809609 0.434141 L 0.842539 0.381406 L 0.842539 0.322148 L 0.816211 0.25625 L 0.803047 0.183789 L 0.803047 0.111328 L 0.809609 0.0652344 L 0.809609 0.0454687 Z M 0.196953 0.0454687 " transform="matrix(100,0,0,100,600,4700)"/>
<path style="fill:none;stroke-width:0.01;stroke-linecap:butt;stroke-linejoin:miter;stroke:rgb(0%,0%,0%);stroke-opacity:1;stroke-miterlimit:10;" d="M 0.365625 0.0969141 L 0.411367 0.0626172 L 0.462852 0.0454687 L 0.48 0.0511719 L 0.514297 0.119766 L 0.577187 0.142656 L 0.600039 0.154102 L 0.542891 0.222695 L 0.514297 0.302734 L 0.508594 0.37707 L 0.462852 0.457109 L 0.462852 0.537148 L 0.474258 0.560039 L 0.531445 0.577188 L 0.514297 0.634375 L 0.502852 0.68582 L 0.542891 0.708672 L 0.571484 0.731563 L 0.588633 0.771602 L 0.662969 0.78875 L 0.645781 0.82875 L 0.668672 0.834492 L 0.68582 0.851641 L 0.714414 0.914531 L 0.737266 0.948828 L 0.725859 0.954531 L 0.279883 0.954531 L 0.262734 0.948828 L 0.285586 0.885938 L 0.291328 0.754414 L 0.297031 0.674375 L 0.31418 0.542891 L 0.325625 0.399961 Z M 0.365625 0.0969141 " transform="matrix(100,0,0,100,0,4850)"/>
<path style="fill:none;stroke-width:0.01;stroke-linecap:butt;stroke-linejoin:miter;stroke:rgb(0%,0%,0%);stroke-opacity:1;stroke-miterlimit:10;" d="M 0.507148 0.0454687 L 0.236172 0.0525781 L 0.221914 0.180937 L 0.236172 0.252227 L 0.25043 0.241523 L 0.257578 0.280742 L 0.268281 0.259375 L 0.282539 0.26293 L 0.289648 0.234414 L 0.303906 0.227266 L 0.321758 0.352031 L 0.314609 0.369883 L 0.33957 0.416211 L 0.368086 0.512461 L 0.393047 0.576641 L 0.385938 0.576641 L 0.393047 0.594492 L 0.40375 0.676484 L 0.421563 0.765586 L 0.425117 0.80125 L 0.43582 0.851172 L 0.439375 0.890391 L 0.446523 0.954531 L 0.778086 0.954531 L 0.774492 0.352031 L 0.760234 0.362734 L 0.753125 0.348477 L 0.703203 0.319961 L 0.66043 0.295 L 0.639023 0.284297 L 0.59625 0.305703 L 0.589141 0.255781 L 0.560625 0.270039 L 0.535664 0.291445 L 0.507148 0.302148 L 0.546328 0.23082 L 0.507148 0.259375 L 0.503555 0.245117 L 0.492852 0.241523 L 0.507148 0.202305 L 0.524961 0.184492 L 0.535664 0.163086 L 0.524961 0.127461 L 0.517813 0.0989453 L 0.524961 0.0525781 Z M 0.507148 0.0454687 " transform="matrix(100,0,0,100,150,4850)"/>
<path style="fill:none;stroke-width:0.01;stroke-linecap:butt;stroke-linejoin:miter;stroke:rgb(0%,0%,0%);stroke-opacity:1;stroke-miterlimit:10;" d="M 0.592969 0.0557813 L 0.582656 0.138438 L 0.541328 0.20043 L 0.541328 0.314062 L 0.530977 0.407031 L 0.5 0.489688 L 0.5 0.716953 L 0.489688 0.809922 L 0.489688 0.871914 L 0.479336 0.902891 L 0.479336 0.954531 L 0.458672 0.944219 L 0.469023 0.871914 L 0.448359 0.768594 L 0.458672 0.572305 L 0.427695 0.386367 L 0.438008 0.293398 L 0.417344 0.20043 L 0.407031 0.159102 L 0.438008 0.128086 L 0.479336 0.0867578 L 0.510312 0.0454687 L 0.551641 0.0454687 Z M 0.592969 0.0557813 " transform="matrix(100,0,0,100,300,4850)"/>
<path style="fill:none;stroke-width:0.01;stroke-linecap:butt;stroke-linejoin:miter;stroke:rgb(0%,0%,0%);stroke-opacity:1;stroke-miterlimit:10;" d="M 0.659258 0.0454687 L 0.494648 0.0454687 L 0.483906 0.0705078 L 0.487461 0.0955469 L 0.491055 0.117031 L 0.494648 0.142109 L 0.483906 0.167148 L 0.480313 0.177891 L 0.487461 0.235156 L 0.487461 0.256641 L 0.491055 0.295977 L 0.480313 0.331797 L 0.473164 0.367578 L 0.455273 0.435586 L 0.437383 0.471367 L 0.415898 0.517891 L 0.415898 0.54293 L 0.412305 0.575156 L 0.405156 0.593047 L 0.365781 0.678945 L 0.358633 0.711172 L 0.344297 0.804219 L 0.340742 0.829258 L 0.347891 0.854336 L 0.347891 0.886523 L 0.344297 0.904453 L 0.340742 0.925898 L 0.351484 0.954531 L 0.659258 0.954531 Z M 0.659258 0.0454687 " transform="matrix(100,0,0,100,450,4850)"/>
<path style="fill:none;stroke-width:0.01;stroke-linecap:butt;stroke-linejoin:miter;stroke:rgb(0%,0%,0%);stroke-opacity:1;stroke-miterlimit:10;" d="M 0.565313 0.0454687 L 0.429219 0.0454687 L 0.451016 0.246875 L 0.461875 0.301289 L 0.451016 0.37207 L 0.483672 0.366641 L 0.489102 0.382969 L 0.516328 0.464609 L 0.516328 0.535391 L 0.521758 0.584375 L 0.521758 0.644258 L 0.532656 0.687812 L 0.559883 0.79125 L 0.559883 0.840234 L 0.570781 0.954531 Z M 0.565313 0.0454687 " transform="matrix(100,0,0,100,600,4850)"/>
<path style="fill:none;stroke-width:0.01;stroke-linecap:butt;stroke-linejoin:miter;stroke:rgb(0%,0%,0%);stroke-opacity:1;stroke-miterlimit:10;" d="M 0.741484 0.0454687 L 0.393477 0.0525391 L 0.386367 0.265625 L 0.379258 0.389922 L 0.368594 0.5 L 0.365039 0.585234 L 0.361523 0.649141 L 0.354414 0.695312 L 0.354414 0.73793 L 0.333086 0.844453 L 0.318906 0.915469 L 0.315352 0.947461 L 0.301133 0.950977 L 0.283398 0.922578 L 0.286914 0.911914 L 0.279844 0.88707 L 0.265625 0.819609 L 0.26918 0.769883 L 0.258516 0.688203 L 0.254961 0.638477 L 0.251406 0.794727 L 0.254961 0.8125 L 0.265625 0.947461 L 0.265625 0.954531 L 0.748594 0.954531 Z M 0.741484 0.0454687 " transform="matrix(100,0,0,100,0,5000)"/>
<path style="fill:none;stroke-width:0.01;stroke-linecap:butt;stroke-linejoin:miter;stroke:rgb(0%,0%,0%);stroke-opacity:1;stroke-miterlimit:10;" d="M 0.806406 0.0454687 L 0.189531 0.0454687 L 0.213867 0.0900781 L 0.213867 0.0941406 L 0.230117 0.126641 L 0.266641 0.191563 L 0.307227 0.248359 L 0.355938 0.325469 L 0.380273 0.382305 L 0.404609 0.422891 L 0.428984 0.455352 L 0.45332 0.48375 L 0.506094 0.512188 L 0.538555 0.544648 L 0.587266 0.617695 L 0.644062 0.698867 L 0.684648 0.739453 L 0.709023 0.775977 L 0.737422 0.832773 L 0.76582 0.873359 L 0.790195 0.926133 L 0.810469 0.954531 Z M 0.806406 0.0454687 " transform="matrix(100,0,0,100,150,5000)"/>
<path style="fill:none;stroke-width:0.01;stroke-linecap:butt;stroke-linejoin:miter;stroke:rgb(0%,0%,0%);stroke-opacity:1;stroke-miterlimit:10;" d="M 0.715039 0.954531 L 0.284961 0.954531 L 0.368047 0.847031 L 0.402266 0.798125 L 0.412031 0.788359 L 0.44625 0.710156 L 0.460898 0.636836 L 0.480469 0.597734 L 0.5 0.57332 L 0.524453 0.55375 L 0.534219 0.539102 L 0.558633 0.504883 L 0.607539 0.416914 L 0.631953 0.353359 L 0.646641 0.299609 L 0.661289 0.236055 L 0.680859 0.143203 L 0.700391 0.0796484 L 0.715039 0.0454687 Z M 0.715039 0.954531 " transform="matrix(100,0,0,100,300,5000)"/>
</g>
</svg>
