<?xml version="1.0" encoding="UTF-8"?>
<svg xmlns="http://www.w3.org/2000/svg" xmlns:xlink="http://www.w3.org/1999/xlink" width="750pt" height="11600pt" viewBox="0 0 750 11600" version="1.1">
<g id="surface1">
<path style="fill:none;stroke-width:0.01;stroke-linecap:butt;stroke-linejoin:miter;stroke:rgb(0%,0%,0%);stroke-opacity:1;stroke-miterlimit:10;" d="M 0.0454688 0.309102 L 0.0636328 0.690898 L 0.936367 0.690898 L 0.954531 0.309102 Z M 0.0454688 0.309102 " transform="matrix(100,0,0,100,0,200)"/>
<path style="fill:none;stroke-width:0.01;stroke-linecap:butt;stroke-linejoin:miter;stroke:rgb(0%,0%,0%);stroke-opacity:1;stroke-miterlimit:10;" d="M 0.825742 0.0454687 L 0.174258 0.060625 L 0.189375 0.939375 L 0.825742 0.954531 Z M 0.825742 0.0454687 " transform="matrix(100,0,0,100,150,200)"/>
<path style="fill:none;stroke-width:0.01;stroke-linecap:butt;stroke-linejoin:miter;stroke:rgb(0%,0%,0%);stroke-opacity:1;stroke-miterlimit:10;" d="M 0.954531 0.25 L 0.0681641 0.25 L 0.0454687 0.75 L 0.954531 0.75 Z M 0.954531 0.25 " transform="matrix(100,0,0,100,300,200)"/>
<path style="fill:none;stroke-width:0.01;stroke-linecap:butt;stroke-linejoin:miter;stroke:rgb(0%,0%,0%);stroke-opacity:1;stroke-miterlimit:10;" d="M 0.19332 0.0454687 L 0.160469 0.943594 L 0.839531 0.954531 L 0.828594 0.636914 L 0.740977 0.593086 L 0.740977 0.571211 L 0.719062 0.450703 L 0.751914 0.417852 L 0.751914 0.395938 L 0.686211 0.319258 L 0.642383 0.385 L 0.609531 0.374023 L 0.664297 0.264531 L 0.554766 0.187852 L 0.620469 0.187852 L 0.631445 0.155 L 0.697148 0.198789 L 0.740977 0.144023 L 0.795742 0.111172 L 0.795742 0.0454687 Z M 0.19332 0.0454687 " transform="matrix(100,0,0,100,450,200)"/>
<path style="fill:none;stroke-width:0.01;stroke-linecap:butt;stroke-linejoin:miter;stroke:rgb(0%,0%,0%);stroke-opacity:1;stroke-miterlimit:10;" d="M 0.853555 0.0454687 L 0.146445 0.0454687 L 0.146445 0.954531 L 0.828281 0.954531 Z M 0.853555 0.0454687 " transform="matrix(100,0,0,100,600,200)"/>
<path style="fill:none;stroke-width:0.01;stroke-linecap:butt;stroke-linejoin:miter;stroke:rgb(0%,0%,0%);stroke-opacity:1;stroke-miterlimit:10;" d="M 0.0454688 0.272734 L 0.0454688 0.818164 L 0.954531 0.757578 L 0.954531 0.181836 L 0.0454688 0.181836 Z M 0.0454688 0.272734 " transform="matrix(100,0,0,100,0,350)"/>
<path style="fill:none;stroke-width:0.01;stroke-linecap:butt;stroke-linejoin:miter;stroke:rgb(0%,0%,0%);stroke-opacity:1;stroke-miterlimit:10;" d="M 0.179766 0.0661328 L 0.179766 0.933867 L 0.820234 0.954531 L 0.820234 0.727266 L 0.79957 0.541328 L 0.79957 0.0454687 Z M 0.179766 0.0661328 " transform="matrix(100,0,0,100,150,350)"/>
<path style="fill:none;stroke-width:0.01;stroke-linecap:butt;stroke-linejoin:miter;stroke:rgb(0%,0%,0%);stroke-opacity:1;stroke-miterlimit:10;" d="M 0.0454687 0.350547 L 0.0578906 0.649453 L 0.942109 0.636992 L 0.954531 0.363008 Z M 0.0454687 0.350547 " transform="matrix(100,0,0,100,300,350)"/>
<path style="fill:none;stroke-width:0.01;stroke-linecap:butt;stroke-linejoin:miter;stroke:rgb(0%,0%,0%);stroke-opacity:1;stroke-miterlimit:10;" d="M 0.909102 0.227266 L 0.0454688 0.227266 L 0.0454688 0.772734 L 0.954531 0.727266 Z M 0.909102 0.227266 " transform="matrix(100,0,0,100,450,350)"/>
<path style="fill:none;stroke-width:0.01;stroke-linecap:butt;stroke-linejoin:miter;stroke:rgb(0%,0%,0%);stroke-opacity:1;stroke-miterlimit:10;" d="M 0.0454688 0.428555 L 0.0844141 0.571445 L 0.954531 0.558438 L 0.941562 0.454531 Z M 0.0454688 0.428555 " transform="matrix(100,0,0,100,600,350)"/>
<path style="fill:none;stroke-width:0.01;stroke-linecap:butt;stroke-linejoin:miter;stroke:rgb(0%,0%,0%);stroke-opacity:1;stroke-miterlimit:10;" d="M 0.954531 0.0747656 L 0.19207 0.0747656 L 0.104102 0.221406 L 0.0747656 0.309375 L 0.0454688 0.441367 L 0.0601172 0.514648 L 0.0747656 0.602656 L 0.104102 0.719922 L 0.133438 0.80793 L 0.19207 0.895898 L 0.221406 0.925234 L 0.88125 0.910547 Z M 0.954531 0.0747656 " transform="matrix(100,0,0,100,0,500)"/>
<path style="fill:none;stroke-width:0.01;stroke-linecap:butt;stroke-linejoin:miter;stroke:rgb(0%,0%,0%);stroke-opacity:1;stroke-miterlimit:10;" d="M 0.837383 0.0548437 L 0.256328 0.0454688 L 0.228203 0.10168 L 0.209453 0.13918 L 0.181367 0.270391 L 0.171992 0.335977 L 0.162617 0.420352 L 0.162617 0.598398 L 0.181367 0.673398 L 0.209453 0.748359 L 0.237578 0.832695 L 0.265703 0.89832 L 0.293828 0.945156 L 0.781172 0.954531 Z M 0.837383 0.0548437 " transform="matrix(100,0,0,100,150,500)"/>
<path style="fill:none;stroke-width:0.01;stroke-linecap:butt;stroke-linejoin:miter;stroke:rgb(0%,0%,0%);stroke-opacity:1;stroke-miterlimit:10;" d="M 0.0454687 0.851914 L 0.0454687 0.148086 L 0.925234 0.148086 L 0.954531 0.851914 Z M 0.0454687 0.851914 " transform="matrix(100,0,0,100,300,500)"/>
<path style="fill:none;stroke-width:0.01;stroke-linecap:butt;stroke-linejoin:miter;stroke:rgb(0%,0%,0%);stroke-opacity:1;stroke-miterlimit:10;" d="M 0.901055 0.0454688 L 0.0632813 0.0454688 L 0.0810937 0.936719 L 0.794102 0.954531 L 0.829766 0.883242 L 0.936719 0.705 Z M 0.901055 0.0454688 " transform="matrix(100,0,0,100,450,500)"/>
<path style="fill:none;stroke-width:0.01;stroke-linecap:butt;stroke-linejoin:miter;stroke:rgb(0%,0%,0%);stroke-opacity:1;stroke-miterlimit:10;" d="M 0.111992 0.311523 L 0.0454688 0.710625 L 0.954531 0.710625 L 0.954531 0.289375 Z M 0.111992 0.311523 " transform="matrix(100,0,0,100,600,500)"/>
<path style="fill:none;stroke-width:0.01;stroke-linecap:butt;stroke-linejoin:miter;stroke:rgb(0%,0%,0%);stroke-opacity:1;stroke-miterlimit:10;" d="M 0.0454688 0.329531 L 0.0738672 0.670469 L 0.954531 0.642031 L 0.954531 0.329531 Z M 0.0454688 0.329531 " transform="matrix(100,0,0,100,0,650)"/>
<path style="fill:none;stroke-width:0.01;stroke-linecap:butt;stroke-linejoin:miter;stroke:rgb(0%,0%,0%);stroke-opacity:1;stroke-miterlimit:10;" d="M 0.0454687 0.227266 L 0.0454687 0.772734 L 0.954531 0.772734 L 0.954531 0.287891 Z M 0.0454687 0.227266 " transform="matrix(100,0,0,100,150,650)"/>
<path style="fill:none;stroke-width:0.01;stroke-linecap:butt;stroke-linejoin:miter;stroke:rgb(0%,0%,0%);stroke-opacity:1;stroke-miterlimit:10;" d="M 0.0454687 0.824688 L 0.954531 0.824688 L 0.954531 0.175313 L 0.0454687 0.175313 Z M 0.0454687 0.824688 " transform="matrix(100,0,0,100,300,650)"/>
<path style="fill:none;stroke-width:0.01;stroke-linecap:butt;stroke-linejoin:miter;stroke:rgb(0%,0%,0%);stroke-opacity:1;stroke-miterlimit:10;" d="M 0.926992 0.0730078 L 0.0730078 0.0454688 L 0.0730078 0.954531 L 0.926992 0.926992 Z M 0.926992 0.0730078 " transform="matrix(100,0,0,100,450,650)"/>
<path style="fill:none;stroke-width:0.01;stroke-linecap:butt;stroke-linejoin:miter;stroke:rgb(0%,0%,0%);stroke-opacity:1;stroke-miterlimit:10;" d="M 0.272734 0.0454688 L 0.272734 0.954531 L 0.727266 0.954531 L 0.727266 0.102266 Z M 0.272734 0.0454688 " transform="matrix(100,0,0,100,600,650)"/>
<path style="fill:none;stroke-width:0.01;stroke-linecap:butt;stroke-linejoin:miter;stroke:rgb(0%,0%,0%);stroke-opacity:1;stroke-miterlimit:10;" d="M 0.272734 0.904023 L 0.272734 0.0454687 L 0.727266 0.0454687 L 0.727266 0.954531 Z M 0.272734 0.904023 " transform="matrix(100,0,0,100,0,800)"/>
<path style="fill:none;stroke-width:0.01;stroke-linecap:butt;stroke-linejoin:miter;stroke:rgb(0%,0%,0%);stroke-opacity:1;stroke-miterlimit:10;" d="M 0.110391 0.727266 L 0.0454687 0.272734 L 0.889609 0.207773 L 0.954531 0.792227 Z M 0.110391 0.727266 " transform="matrix(100,0,0,100,150,800)"/>
<path style="fill:none;stroke-width:0.01;stroke-linecap:butt;stroke-linejoin:miter;stroke:rgb(0%,0%,0%);stroke-opacity:1;stroke-miterlimit:10;" d="M 0.0818359 0.0672656 L 0.889102 0.0454687 L 0.918164 0.94 L 0.0818359 0.954531 Z M 0.0818359 0.0672656 " transform="matrix(100,0,0,100,300,800)"/>
<path style="fill:none;stroke-width:0.01;stroke-linecap:butt;stroke-linejoin:miter;stroke:rgb(0%,0%,0%);stroke-opacity:1;stroke-miterlimit:10;" d="M 0.833086 0.0532812 L 0.213945 0.0454687 L 0.166914 0.954531 L 0.441211 0.954531 L 0.449063 0.782148 L 0.464727 0.641055 L 0.425547 0.609727 L 0.433398 0.413789 L 0.558789 0.413789 L 0.833086 0.398125 Z M 0.833086 0.0532812 " transform="matrix(100,0,0,100,450,800)"/>
<path style="fill:none;stroke-width:0.01;stroke-linecap:butt;stroke-linejoin:miter;stroke:rgb(0%,0%,0%);stroke-opacity:1;stroke-miterlimit:10;" d="M 0.954531 0.139492 L 0.0767969 0.123828 L 0.0454688 0.860508 L 0.923203 0.876172 Z M 0.954531 0.139492 " transform="matrix(100,0,0,100,600,800)"/>
<path style="fill:none;stroke-width:0.01;stroke-linecap:butt;stroke-linejoin:miter;stroke:rgb(0%,0%,0%);stroke-opacity:1;stroke-miterlimit:10;" d="M 0.954531 0.261641 L 0.0454688 0.272734 L 0.0787109 0.738359 L 0.943477 0.738359 Z M 0.954531 0.261641 " transform="matrix(100,0,0,100,0,950)"/>
<path style="fill:none;stroke-width:0.01;stroke-linecap:butt;stroke-linejoin:miter;stroke:rgb(0%,0%,0%);stroke-opacity:1;stroke-miterlimit:10;" d="M 0.0454687 0.798281 L 0.0738672 0.201719 L 0.954531 0.258516 L 0.954531 0.798281 Z M 0.0454687 0.798281 " transform="matrix(100,0,0,100,150,950)"/>
<path style="fill:none;stroke-width:0.01;stroke-linecap:butt;stroke-linejoin:miter;stroke:rgb(0%,0%,0%);stroke-opacity:1;stroke-miterlimit:10;" d="M 0.428242 0.0454687 L 0.246406 0.954531 L 0.657891 0.954531 L 0.753594 0.0550391 Z M 0.428242 0.0454687 " transform="matrix(100,0,0,100,300,950)"/>
<path style="fill:none;stroke-width:0.01;stroke-linecap:butt;stroke-linejoin:miter;stroke:rgb(0%,0%,0%);stroke-opacity:1;stroke-miterlimit:10;" d="M 0.0454688 0.954531 L 0.93707 0.954531 L 0.954531 0.867148 L 0.797187 0.622383 L 0.727266 0.0454687 L 0.132852 0.0454687 Z M 0.0454688 0.954531 " transform="matrix(100,0,0,100,450,950)"/>
<path style="fill:none;stroke-width:0.01;stroke-linecap:butt;stroke-linejoin:miter;stroke:rgb(0%,0%,0%);stroke-opacity:1;stroke-miterlimit:10;" d="M 0.954531 0.232617 L 0.0454688 0.25043 L 0.0810937 0.767383 L 0.954531 0.731719 Z M 0.954531 0.232617 " transform="matrix(100,0,0,100,600,950)"/>
<path style="fill:none;stroke-width:0.01;stroke-linecap:butt;stroke-linejoin:miter;stroke:rgb(0%,0%,0%);stroke-opacity:1;stroke-miterlimit:10;" d="M 0.954531 0.196953 L 0.0454688 0.234844 L 0.0833203 0.803047 L 0.935625 0.784102 Z M 0.954531 0.196953 " transform="matrix(100,0,0,100,0,1100)"/>
<path style="fill:none;stroke-width:0.01;stroke-linecap:butt;stroke-linejoin:miter;stroke:rgb(0%,0%,0%);stroke-opacity:1;stroke-miterlimit:10;" d="M 0.91957 0.115391 L 0.0454687 0.115391 L 0.0454687 0.884609 L 0.954531 0.884609 Z M 0.91957 0.115391 " transform="matrix(100,0,0,100,150,1100)"/>
<path style="fill:none;stroke-width:0.01;stroke-linecap:butt;stroke-linejoin:miter;stroke:rgb(0%,0%,0%);stroke-opacity:1;stroke-miterlimit:10;" d="M 0.914453 0.0454687 L 0.0855469 0.0454687 L 0.0855469 0.954531 L 0.914453 0.901055 Z M 0.914453 0.0454687 " transform="matrix(100,0,0,100,300,1100)"/>
<path style="fill:none;stroke-width:0.01;stroke-linecap:butt;stroke-linejoin:miter;stroke:rgb(0%,0%,0%);stroke-opacity:1;stroke-miterlimit:10;" d="M 0.954531 0.243086 L 0.0652344 0.183789 L 0.0454688 0.77668 L 0.915039 0.816211 Z M 0.954531 0.243086 " transform="matrix(100,0,0,100,450,1100)"/>
<path style="fill:none;stroke-width:0.01;stroke-linecap:butt;stroke-linejoin:miter;stroke:rgb(0%,0%,0%);stroke-opacity:1;stroke-miterlimit:10;" d="M 0.954531 0.227266 L 0.0656641 0.186875 L 0.0454688 0.79293 L 0.954531 0.813125 Z M 0.954531 0.227266 " transform="matrix(100,0,0,100,600,1100)"/>
<path style="fill:none;stroke-width:0.01;stroke-linecap:butt;stroke-linejoin:miter;stroke:rgb(0%,0%,0%);stroke-opacity:1;stroke-miterlimit:10;" d="M 0.954531 0.203555 L 0.0652344 0.203555 L 0.0454688 0.796445 L 0.934766 0.796445 Z M 0.954531 0.203555 " transform="matrix(100,0,0,100,0,1250)"/>
<path style="fill:none;stroke-width:0.01;stroke-linecap:butt;stroke-linejoin:miter;stroke:rgb(0%,0%,0%);stroke-opacity:1;stroke-miterlimit:10;" d="M 0.0454687 0.0894531 L 0.0454687 0.88125 L 0.368047 0.910547 L 0.42668 0.851914 L 0.543984 0.88125 L 0.631953 0.851914 L 0.895898 0.822578 L 0.954531 0.705273 L 0.954531 0.177422 L 0.866563 0.265391 L 0.837227 0.0894531 L 0.162773 0.11875 Z M 0.0454687 0.0894531 " transform="matrix(100,0,0,100,150,1250)"/>
<path style="fill:none;stroke-width:0.01;stroke-linecap:butt;stroke-linejoin:miter;stroke:rgb(0%,0%,0%);stroke-opacity:1;stroke-miterlimit:10;" d="M 0.0454687 0.0454687 L 0.0454687 0.924258 L 0.893945 0.954531 L 0.954531 0.0454687 Z M 0.0454687 0.0454687 " transform="matrix(100,0,0,100,300,1250)"/>
<path style="fill:none;stroke-width:0.01;stroke-linecap:butt;stroke-linejoin:miter;stroke:rgb(0%,0%,0%);stroke-opacity:1;stroke-miterlimit:10;" d="M 0.0596484 0.151992 L 0.0454688 0.819609 L 0.954531 0.848008 L 0.954531 0.166211 Z M 0.0596484 0.151992 " transform="matrix(100,0,0,100,450,1250)"/>
<path style="fill:none;stroke-width:0.01;stroke-linecap:butt;stroke-linejoin:miter;stroke:rgb(0%,0%,0%);stroke-opacity:1;stroke-miterlimit:10;" d="M 0.954531 0.261914 L 0.0454688 0.261914 L 0.0454688 0.723672 L 0.940117 0.738086 Z M 0.954531 0.261914 " transform="matrix(100,0,0,100,600,1250)"/>
<path style="fill:none;stroke-width:0.01;stroke-linecap:butt;stroke-linejoin:miter;stroke:rgb(0%,0%,0%);stroke-opacity:1;stroke-miterlimit:10;" d="M 0.0611328 0.139492 L 0.0454688 0.813477 L 0.954531 0.860508 L 0.954531 0.468633 L 0.923203 0.437305 L 0.891836 0.186523 Z M 0.0611328 0.139492 " transform="matrix(100,0,0,100,0,1400)"/>
<path style="fill:none;stroke-width:0.01;stroke-linecap:butt;stroke-linejoin:miter;stroke:rgb(0%,0%,0%);stroke-opacity:1;stroke-miterlimit:10;" d="M 0.0454687 0.268086 L 0.0454687 0.713359 L 0.935977 0.731914 L 0.954531 0.268086 Z M 0.0454687 0.268086 " transform="matrix(100,0,0,100,150,1400)"/>
<path style="fill:none;stroke-width:0.01;stroke-linecap:butt;stroke-linejoin:miter;stroke:rgb(0%,0%,0%);stroke-opacity:1;stroke-miterlimit:10;" d="M 0.0818359 0.227266 L 0.0454687 0.754531 L 0.7 0.772734 L 0.772734 0.627266 L 0.845469 0.536367 L 0.954531 0.5 L 0.954531 0.245469 Z M 0.0818359 0.227266 " transform="matrix(100,0,0,100,300,1400)"/>
<path style="fill:none;stroke-width:0.01;stroke-linecap:butt;stroke-linejoin:miter;stroke:rgb(0%,0%,0%);stroke-opacity:1;stroke-miterlimit:10;" d="M 0.194375 0.0454687 L 0.178672 0.938867 L 0.805625 0.954531 L 0.821328 0.311914 L 0.774297 0.233555 L 0.774297 0.0611328 Z M 0.194375 0.0454687 " transform="matrix(100,0,0,100,450,1400)"/>
<path style="fill:none;stroke-width:0.01;stroke-linecap:butt;stroke-linejoin:miter;stroke:rgb(0%,0%,0%);stroke-opacity:1;stroke-miterlimit:10;" d="M 0.140156 0.954531 L 0.178047 0.0454687 L 0.367422 0.0833203 L 0.405312 0.234844 L 0.746211 0.462109 L 0.859844 0.5 L 0.821953 0.954531 Z M 0.140156 0.954531 " transform="matrix(100,0,0,100,600,1400)"/>
<path style="fill:none;stroke-width:0.01;stroke-linecap:butt;stroke-linejoin:miter;stroke:rgb(0%,0%,0%);stroke-opacity:1;stroke-miterlimit:10;" d="M 0.0454688 0.406758 L 0.0454688 0.593242 L 0.884609 0.569922 L 0.954531 0.430078 Z M 0.0454688 0.406758 " transform="matrix(100,0,0,100,0,1550)"/>
<path style="fill:none;stroke-width:0.01;stroke-linecap:butt;stroke-linejoin:miter;stroke:rgb(0%,0%,0%);stroke-opacity:1;stroke-miterlimit:10;" d="M 0.0454687 0.588398 L 0.0454687 0.436875 L 0.929297 0.411602 L 0.954531 0.563125 Z M 0.0454687 0.588398 " transform="matrix(100,0,0,100,150,1550)"/>
<path style="fill:none;stroke-width:0.01;stroke-linecap:butt;stroke-linejoin:miter;stroke:rgb(0%,0%,0%);stroke-opacity:1;stroke-miterlimit:10;" d="M 0.0714453 0.564922 L 0.0454687 0.409102 L 0.954531 0.409102 L 0.902578 0.590898 Z M 0.0714453 0.564922 " transform="matrix(100,0,0,100,300,1550)"/>
<path style="fill:none;stroke-width:0.01;stroke-linecap:butt;stroke-linejoin:miter;stroke:rgb(0%,0%,0%);stroke-opacity:1;stroke-miterlimit:10;" d="M 0.0454688 0.533672 L 0.0791406 0.432656 L 0.920859 0.466328 L 0.954531 0.567344 Z M 0.0454688 0.533672 " transform="matrix(100,0,0,100,450,1550)"/>
<path style="fill:none;stroke-width:0.01;stroke-linecap:butt;stroke-linejoin:miter;stroke:rgb(0%,0%,0%);stroke-opacity:1;stroke-miterlimit:10;" d="M 0.0454688 0.11918 L 0.0454688 0.85625 L 0.929961 0.88082 L 0.954531 0.14375 Z M 0.0454688 0.11918 " transform="matrix(100,0,0,100,600,1550)"/>
<path style="fill:none;stroke-width:0.01;stroke-linecap:butt;stroke-linejoin:miter;stroke:rgb(0%,0%,0%);stroke-opacity:1;stroke-miterlimit:10;" d="M 0.0818359 0.1 L 0.0454688 0.9 L 0.954531 0.9 L 0.954531 0.1 Z M 0.0818359 0.1 " transform="matrix(100,0,0,100,0,1700)"/>
<path style="fill:none;stroke-width:0.01;stroke-linecap:butt;stroke-linejoin:miter;stroke:rgb(0%,0%,0%);stroke-opacity:1;stroke-miterlimit:10;" d="M 0.0959766 0.297969 L 0.0454687 0.702031 L 0.929297 0.702031 L 0.954531 0.323242 Z M 0.0959766 0.297969 " transform="matrix(100,0,0,100,150,1700)"/>
<path style="fill:none;stroke-width:0.01;stroke-linecap:butt;stroke-linejoin:miter;stroke:rgb(0%,0%,0%);stroke-opacity:1;stroke-miterlimit:10;" d="M 0.954531 0.332539 L 0.0454687 0.356445 L 0.0454687 0.667461 L 0.930625 0.643555 Z M 0.954531 0.332539 " transform="matrix(100,0,0,100,300,1700)"/>
<path style="fill:none;stroke-width:0.01;stroke-linecap:butt;stroke-linejoin:miter;stroke:rgb(0%,0%,0%);stroke-opacity:1;stroke-miterlimit:10;" d="M 0.929961 0.549141 L 0.0454688 0.549141 L 0.0454688 0.47543 L 0.954531 0.450859 Z M 0.929961 0.549141 " transform="matrix(100,0,0,100,450,1700)"/>
<path style="fill:none;stroke-width:0.01;stroke-linecap:butt;stroke-linejoin:miter;stroke:rgb(0%,0%,0%);stroke-opacity:1;stroke-miterlimit:10;" d="M 0.0725781 0.377891 L 0.0454688 0.622109 L 0.954531 0.622109 L 0.954531 0.377891 Z M 0.0725781 0.377891 " transform="matrix(100,0,0,100,600,1700)"/>
<path style="fill:none;stroke-width:0.01;stroke-linecap:butt;stroke-linejoin:miter;stroke:rgb(0%,0%,0%);stroke-opacity:1;stroke-miterlimit:10;" d="M 0.0454688 0.386367 L 0.0454688 0.613633 L 0.954531 0.613633 L 0.954531 0.400586 Z M 0.0454688 0.386367 " transform="matrix(100,0,0,100,0,1850)"/>
<path style="fill:none;stroke-width:0.01;stroke-linecap:butt;stroke-linejoin:miter;stroke:rgb(0%,0%,0%);stroke-opacity:1;stroke-miterlimit:10;" d="M 0.0707031 0.209609 L 0.0454687 0.512617 L 0.0454687 0.91668 L 0.777773 0.91668 L 0.803047 0.840898 L 0.904023 0.815664 L 0.954531 0.739883 L 0.954531 0.0833203 L 0.0454687 0.0833203 Z M 0.0707031 0.209609 " transform="matrix(100,0,0,100,150,1850)"/>
<path style="fill:none;stroke-width:0.01;stroke-linecap:butt;stroke-linejoin:miter;stroke:rgb(0%,0%,0%);stroke-opacity:1;stroke-miterlimit:10;" d="M 0.954531 0.0636328 L 0.0818359 0.1 L 0.0454687 0.936367 L 0.954531 0.936367 Z M 0.954531 0.0636328 " transform="matrix(100,0,0,100,300,1850)"/>
<path style="fill:none;stroke-width:0.01;stroke-linecap:butt;stroke-linejoin:miter;stroke:rgb(0%,0%,0%);stroke-opacity:1;stroke-miterlimit:10;" d="M 0.954531 0.150352 L 0.0454688 0.150352 L 0.0454688 0.779727 L 0.954531 0.849648 Z M 0.954531 0.150352 " transform="matrix(100,0,0,100,450,1850)"/>
<path style="fill:none;stroke-width:0.01;stroke-linecap:butt;stroke-linejoin:miter;stroke:rgb(0%,0%,0%);stroke-opacity:1;stroke-miterlimit:10;" d="M 0.937383 0.671523 L 0.954531 0.105508 L 0.0626172 0.208398 L 0.0454688 0.70582 L 0.0969141 0.894492 L 0.851641 0.894492 Z M 0.937383 0.671523 " transform="matrix(100,0,0,100,600,1850)"/>
<path style="fill:none;stroke-width:0.01;stroke-linecap:butt;stroke-linejoin:miter;stroke:rgb(0%,0%,0%);stroke-opacity:1;stroke-miterlimit:10;" d="M 0.0626172 0.379922 L 0.0454688 0.757305 L 0.954531 0.654375 L 0.954531 0.242695 Z M 0.0626172 0.379922 " transform="matrix(100,0,0,100,0,2000)"/>
<path style="fill:none;stroke-width:0.01;stroke-linecap:butt;stroke-linejoin:miter;stroke:rgb(0%,0%,0%);stroke-opacity:1;stroke-miterlimit:10;" d="M 0.157109 0.667461 L 0.0454687 0.683398 L 0.0773438 0.236836 L 0.954531 0.284688 L 0.954531 0.763164 Z M 0.157109 0.667461 " transform="matrix(100,0,0,100,150,2000)"/>
<path style="fill:none;stroke-width:0.01;stroke-linecap:butt;stroke-linejoin:miter;stroke:rgb(0%,0%,0%);stroke-opacity:1;stroke-miterlimit:10;" d="M 0.196953 0.29168 L 0.0454687 0.29168 L 0.0454687 0.70832 L 0.954531 0.70832 L 0.935625 0.310625 Z M 0.196953 0.29168 " transform="matrix(100,0,0,100,300,2000)"/>
<path style="fill:none;stroke-width:0.01;stroke-linecap:butt;stroke-linejoin:miter;stroke:rgb(0%,0%,0%);stroke-opacity:1;stroke-miterlimit:10;" d="M 0.932383 0.100898 L 0.0454688 0.211758 L 0.0676172 0.899102 L 0.954531 0.854766 Z M 0.932383 0.100898 " transform="matrix(100,0,0,100,450,2000)"/>
<path style="fill:none;stroke-width:0.01;stroke-linecap:butt;stroke-linejoin:miter;stroke:rgb(0%,0%,0%);stroke-opacity:1;stroke-miterlimit:10;" d="M 0.106055 0.41918 L 0.0454688 0.681836 L 0.954531 0.601016 L 0.954531 0.318164 Z M 0.106055 0.41918 " transform="matrix(100,0,0,100,600,2000)"/>
<path style="fill:none;stroke-width:0.01;stroke-linecap:butt;stroke-linejoin:miter;stroke:rgb(0%,0%,0%);stroke-opacity:1;stroke-miterlimit:10;" d="M 0.114062 0.337031 L 0.0454688 0.765859 L 0.954531 0.714414 L 0.937383 0.234141 Z M 0.114062 0.337031 " transform="matrix(100,0,0,100,0,2150)"/>
<path style="fill:none;stroke-width:0.01;stroke-linecap:butt;stroke-linejoin:miter;stroke:rgb(0%,0%,0%);stroke-opacity:1;stroke-miterlimit:10;" d="M 0.0454687 0.196953 L 0.129648 0.702031 L 0.954531 0.803047 L 0.937695 0.264297 Z M 0.0454687 0.196953 " transform="matrix(100,0,0,100,150,2150)"/>
<path style="fill:none;stroke-width:0.01;stroke-linecap:butt;stroke-linejoin:miter;stroke:rgb(0%,0%,0%);stroke-opacity:1;stroke-miterlimit:10;" d="M 0.263867 0.110391 L 0.257969 0.901406 L 0.482305 0.925039 L 0.653477 0.936836 L 0.724336 0.948633 L 0.742031 0.954531 L 0.742031 0.0454688 Z M 0.263867 0.110391 " transform="matrix(100,0,0,100,300,2150)"/>
<path style="fill:none;stroke-width:0.01;stroke-linecap:butt;stroke-linejoin:miter;stroke:rgb(0%,0%,0%);stroke-opacity:1;stroke-miterlimit:10;" d="M 0.0849609 0.875508 L 0.0454688 0.361641 L 0.915039 0.124492 L 0.954531 0.796445 Z M 0.0849609 0.875508 " transform="matrix(100,0,0,100,450,2150)"/>
<path style="fill:none;stroke-width:0.01;stroke-linecap:butt;stroke-linejoin:miter;stroke:rgb(0%,0%,0%);stroke-opacity:1;stroke-miterlimit:10;" d="M 0.106055 0.954531 L 0.924258 0.954531 L 0.893945 0.0454688 L 0.0757422 0.0757422 Z M 0.106055 0.954531 " transform="matrix(100,0,0,100,600,2150)"/>
<path style="fill:none;stroke-width:0.01;stroke-linecap:butt;stroke-linejoin:miter;stroke:rgb(0%,0%,0%);stroke-opacity:1;stroke-miterlimit:10;" d="M 0.954531 0.259375 L 0.0454688 0.259375 L 0.0454688 0.740625 L 0.954531 0.740625 Z M 0.954531 0.259375 " transform="matrix(100,0,0,100,0,2300)"/>
<path style="fill:none;stroke-width:0.01;stroke-linecap:butt;stroke-linejoin:miter;stroke:rgb(0%,0%,0%);stroke-opacity:1;stroke-miterlimit:10;" d="M 0.715313 0.954531 L 0.834922 0.954531 L 0.834922 0.0454688 L 0.165078 0.069375 L 0.165078 0.954531 Z M 0.715313 0.954531 " transform="matrix(100,0,0,100,150,2300)"/>
<path style="fill:none;stroke-width:0.01;stroke-linecap:butt;stroke-linejoin:miter;stroke:rgb(0%,0%,0%);stroke-opacity:1;stroke-miterlimit:10;" d="M 0.0454687 0.246992 L 0.0711719 0.744414 L 0.954531 0.753008 L 0.945977 0.272734 Z M 0.0454687 0.246992 " transform="matrix(100,0,0,100,300,2300)"/>
<path style="fill:none;stroke-width:0.01;stroke-linecap:butt;stroke-linejoin:miter;stroke:rgb(0%,0%,0%);stroke-opacity:1;stroke-miterlimit:10;" d="M 0.0454688 0.198398 L 0.0454688 0.86957 L 0.946055 0.844102 L 0.954531 0.13043 Z M 0.0454688 0.198398 " transform="matrix(100,0,0,100,450,2300)"/>
<path style="fill:none;stroke-width:0.01;stroke-linecap:butt;stroke-linejoin:miter;stroke:rgb(0%,0%,0%);stroke-opacity:1;stroke-miterlimit:10;" d="M 0.954531 0.196953 L 0.0454688 0.257578 L 0.106055 0.803047 L 0.924258 0.803047 Z M 0.954531 0.196953 " transform="matrix(100,0,0,100,600,2300)"/>
<path style="fill:none;stroke-width:0.01;stroke-linecap:butt;stroke-linejoin:miter;stroke:rgb(0%,0%,0%);stroke-opacity:1;stroke-miterlimit:10;" d="M 0.0454688 0.168555 L 0.064375 0.850391 L 0.954531 0.850391 L 0.935625 0.149609 Z M 0.0454688 0.168555 " transform="matrix(100,0,0,100,0,2450)"/>
<path style="fill:none;stroke-width:0.01;stroke-linecap:butt;stroke-linejoin:miter;stroke:rgb(0%,0%,0%);stroke-opacity:1;stroke-miterlimit:10;" d="M 0.0454687 0.138711 L 0.06875 0.838008 L 0.93125 0.861289 L 0.954531 0.138711 Z M 0.0454687 0.138711 " transform="matrix(100,0,0,100,150,2450)"/>
<path style="fill:none;stroke-width:0.01;stroke-linecap:butt;stroke-linejoin:miter;stroke:rgb(0%,0%,0%);stroke-opacity:1;stroke-miterlimit:10;" d="M 0.780469 0.954531 L 0.200195 0.954531 L 0.200195 0.0454688 L 0.799805 0.0648047 L 0.799805 0.142148 Z M 0.780469 0.954531 " transform="matrix(100,0,0,100,300,2450)"/>
<path style="fill:none;stroke-width:0.01;stroke-linecap:butt;stroke-linejoin:miter;stroke:rgb(0%,0%,0%);stroke-opacity:1;stroke-miterlimit:10;" d="M 0.159102 0.0454688 L 0.194063 0.91957 L 0.840898 0.954531 L 0.788477 0.0629297 Z M 0.159102 0.0454688 " transform="matrix(100,0,0,100,450,2450)"/>
<path style="fill:none;stroke-width:0.01;stroke-linecap:butt;stroke-linejoin:miter;stroke:rgb(0%,0%,0%);stroke-opacity:1;stroke-miterlimit:10;" d="M 0.106641 0.954531 L 0.0716797 0.0629297 L 0.561172 0.0454688 L 0.631133 0.115391 L 0.683555 0.0804297 L 0.770977 0.0978906 L 0.875859 0.150352 L 0.92832 0.91957 Z M 0.106641 0.954531 " transform="matrix(100,0,0,100,600,2450)"/>
<path style="fill:none;stroke-width:0.01;stroke-linecap:butt;stroke-linejoin:miter;stroke:rgb(0%,0%,0%);stroke-opacity:1;stroke-miterlimit:10;" d="M 0.954531 0.110391 L 0.0454688 0.110391 L 0.0779297 0.889609 L 0.92207 0.824687 Z M 0.954531 0.110391 " transform="matrix(100,0,0,100,0,2600)"/>
<path style="fill:none;stroke-width:0.01;stroke-linecap:butt;stroke-linejoin:miter;stroke:rgb(0%,0%,0%);stroke-opacity:1;stroke-miterlimit:10;" d="M 0.0454687 0.372734 L 0.0454687 0.663633 L 0.936367 0.663633 L 0.954531 0.336367 Z M 0.0454687 0.372734 " transform="matrix(100,0,0,100,150,2600)"/>
<path style="fill:none;stroke-width:0.01;stroke-linecap:butt;stroke-linejoin:miter;stroke:rgb(0%,0%,0%);stroke-opacity:1;stroke-miterlimit:10;" d="M 0.0454687 0.239062 L 0.0623047 0.760938 L 0.920859 0.744102 L 0.954531 0.239062 Z M 0.0454687 0.239062 " transform="matrix(100,0,0,100,300,2600)"/>
<path style="fill:none;stroke-width:0.01;stroke-linecap:butt;stroke-linejoin:miter;stroke:rgb(0%,0%,0%);stroke-opacity:1;stroke-miterlimit:10;" d="M 0.0454688 0.253789 L 0.064375 0.746211 L 0.803047 0.746211 L 0.878789 0.670469 L 0.954531 0.613633 L 0.954531 0.29168 Z M 0.0454688 0.253789 " transform="matrix(100,0,0,100,450,2600)"/>
<path style="fill:none;stroke-width:0.01;stroke-linecap:butt;stroke-linejoin:miter;stroke:rgb(0%,0%,0%);stroke-opacity:1;stroke-miterlimit:10;" d="M 0.876953 0.0454688 L 0.145234 0.0454688 L 0.123047 0.932383 L 0.876953 0.954531 Z M 0.876953 0.0454688 " transform="matrix(100,0,0,100,600,2600)"/>
<path style="fill:none;stroke-width:0.01;stroke-linecap:butt;stroke-linejoin:miter;stroke:rgb(0%,0%,0%);stroke-opacity:1;stroke-miterlimit:10;" d="M 0.0738672 0.0454688 L 0.0454688 0.954531 L 0.8125 0.954531 L 0.869336 0.926133 L 0.954531 0.926133 L 0.926133 0.0454688 Z M 0.0738672 0.0454688 " transform="matrix(100,0,0,100,0,2750)"/>
<path style="fill:none;stroke-width:0.01;stroke-linecap:butt;stroke-linejoin:miter;stroke:rgb(0%,0%,0%);stroke-opacity:1;stroke-miterlimit:10;" d="M 0.110391 0.902578 L 0.0844141 0.0454688 L 0.81168 0.0454688 L 0.81168 0.0974219 L 0.889609 0.149336 L 0.915586 0.798711 L 0.863633 0.876641 L 0.863633 0.954531 Z M 0.110391 0.902578 " transform="matrix(100,0,0,100,150,2750)"/>
<path style="fill:none;stroke-width:0.01;stroke-linecap:butt;stroke-linejoin:miter;stroke:rgb(0%,0%,0%);stroke-opacity:1;stroke-miterlimit:10;" d="M 0.0454687 0.108164 L 0.0767969 0.891836 L 0.578359 0.891836 L 0.421641 0.829141 L 0.515664 0.735117 L 0.672422 0.672422 L 0.766445 0.641055 L 0.954531 0.609727 L 0.923203 0.233555 L 0.766445 0.233555 L 0.515664 0.202188 L 0.452969 0.264883 L 0.390273 0.264883 L 0.358945 0.170859 L 0.358945 0.108164 Z M 0.0454687 0.108164 " transform="matrix(100,0,0,100,300,2750)"/>
<path style="fill:none;stroke-width:0.01;stroke-linecap:butt;stroke-linejoin:miter;stroke:rgb(0%,0%,0%);stroke-opacity:1;stroke-miterlimit:10;" d="M 0.0454688 0.272734 L 0.0636328 0.709102 L 0.936367 0.727266 L 0.954531 0.272734 Z M 0.0454688 0.272734 " transform="matrix(100,0,0,100,450,2750)"/>
<path style="fill:none;stroke-width:0.01;stroke-linecap:butt;stroke-linejoin:miter;stroke:rgb(0%,0%,0%);stroke-opacity:1;stroke-miterlimit:10;" d="M 0.737617 0.0454688 L 0.179766 0.0661328 L 0.221094 0.954531 L 0.820234 0.933867 Z M 0.737617 0.0454688 " transform="matrix(100,0,0,100,600,2750)"/>
<path style="fill:none;stroke-width:0.01;stroke-linecap:butt;stroke-linejoin:miter;stroke:rgb(0%,0%,0%);stroke-opacity:1;stroke-miterlimit:10;" d="M 0.0454688 0.243594 L 0.0454688 0.826328 L 0.954531 0.826328 L 0.93125 0.173672 Z M 0.0454688 0.243594 " transform="matrix(100,0,0,100,0,2900)"/>
<path style="fill:none;stroke-width:0.01;stroke-linecap:butt;stroke-linejoin:miter;stroke:rgb(0%,0%,0%);stroke-opacity:1;stroke-miterlimit:10;" d="M 0.0454687 0.378789 L 0.0454687 0.651523 L 0.954531 0.621211 L 0.924258 0.348477 Z M 0.0454687 0.378789 " transform="matrix(100,0,0,100,150,2900)"/>
<path style="fill:none;stroke-width:0.01;stroke-linecap:butt;stroke-linejoin:miter;stroke:rgb(0%,0%,0%);stroke-opacity:1;stroke-miterlimit:10;" d="M 0.0454687 0.421641 L 0.0454687 0.609727 L 0.923203 0.609727 L 0.954531 0.390273 Z M 0.0454687 0.421641 " transform="matrix(100,0,0,100,300,2900)"/>
<path style="fill:none;stroke-width:0.01;stroke-linecap:butt;stroke-linejoin:miter;stroke:rgb(0%,0%,0%);stroke-opacity:1;stroke-miterlimit:10;" d="M 0.831875 0.954531 L 0.160898 0.947344 L 0.139258 0.0454688 L 0.860742 0.0454688 Z M 0.831875 0.954531 " transform="matrix(100,0,0,100,450,2900)"/>
<path style="fill:none;stroke-width:0.01;stroke-linecap:butt;stroke-linejoin:miter;stroke:rgb(0%,0%,0%);stroke-opacity:1;stroke-miterlimit:10;" d="M 0.0454688 0.253789 L 0.0454688 0.70832 L 0.954531 0.746211 L 0.954531 0.253789 Z M 0.0454688 0.253789 " transform="matrix(100,0,0,100,600,2900)"/>
<path style="fill:none;stroke-width:0.01;stroke-linecap:butt;stroke-linejoin:miter;stroke:rgb(0%,0%,0%);stroke-opacity:1;stroke-miterlimit:10;" d="M 0.0454688 0.327578 L 0.0454688 0.672422 L 0.954531 0.672422 L 0.954531 0.421641 Z M 0.0454688 0.327578 " transform="matrix(100,0,0,100,0,3050)"/>
<path style="fill:none;stroke-width:0.01;stroke-linecap:butt;stroke-linejoin:miter;stroke:rgb(0%,0%,0%);stroke-opacity:1;stroke-miterlimit:10;" d="M 0.912109 0.554531 L 0.178789 0.572734 L 0.0454687 0.43332 L 0.954531 0.427266 Z M 0.912109 0.554531 " transform="matrix(100,0,0,100,150,3050)"/>
<path style="fill:none;stroke-width:0.01;stroke-linecap:butt;stroke-linejoin:miter;stroke:rgb(0%,0%,0%);stroke-opacity:1;stroke-miterlimit:10;" d="M 0.0454687 0.468281 L 0.108867 0.531719 L 0.943984 0.531719 L 0.954531 0.468281 L 0.0771484 0.478867 Z M 0.0454687 0.468281 " transform="matrix(100,0,0,100,300,3050)"/>
<path style="fill:none;stroke-width:0.01;stroke-linecap:butt;stroke-linejoin:miter;stroke:rgb(0%,0%,0%);stroke-opacity:1;stroke-miterlimit:10;" d="M 0.0454688 0.277578 L 0.0648047 0.722422 L 0.935195 0.703086 L 0.954531 0.296914 Z M 0.0454688 0.277578 " transform="matrix(100,0,0,100,450,3050)"/>
<path style="fill:none;stroke-width:0.01;stroke-linecap:butt;stroke-linejoin:miter;stroke:rgb(0%,0%,0%);stroke-opacity:1;stroke-miterlimit:10;" d="M 0.0454688 0.318164 L 0.0454688 0.651523 L 0.924258 0.712109 L 0.954531 0.287891 Z M 0.0454688 0.318164 " transform="matrix(100,0,0,100,600,3050)"/>
<path style="fill:none;stroke-width:0.01;stroke-linecap:butt;stroke-linejoin:miter;stroke:rgb(0%,0%,0%);stroke-opacity:1;stroke-miterlimit:10;" d="M 0.0700391 0.663789 L 0.889023 0.663789 L 0.954531 0.336211 L 0.0454688 0.344375 Z M 0.0700391 0.663789 " transform="matrix(100,0,0,100,0,3200)"/>
<path style="fill:none;stroke-width:0.01;stroke-linecap:butt;stroke-linejoin:miter;stroke:rgb(0%,0%,0%);stroke-opacity:1;stroke-miterlimit:10;" d="M 0.954531 0.443164 L 0.0454687 0.460664 L 0.185312 0.548086 L 0.840898 0.556836 Z M 0.954531 0.443164 " transform="matrix(100,0,0,100,150,3200)"/>
<path style="fill:none;stroke-width:0.01;stroke-linecap:butt;stroke-linejoin:miter;stroke:rgb(0%,0%,0%);stroke-opacity:1;stroke-miterlimit:10;" d="M 0.736992 0.579648 L 0.111484 0.579648 L 0.0493359 0.536914 L 0.0454687 0.420352 L 0.954531 0.420352 Z M 0.736992 0.579648 " transform="matrix(100,0,0,100,300,3200)"/>
<path style="fill:none;stroke-width:0.01;stroke-linecap:butt;stroke-linejoin:miter;stroke:rgb(0%,0%,0%);stroke-opacity:1;stroke-miterlimit:10;" d="M 0.819141 0.0454687 L 0.31625 0.0648047 L 0.238867 0.180859 L 0.180859 0.374258 L 0.180859 0.529023 L 0.200195 0.722422 L 0.277578 0.877187 L 0.31625 0.935195 L 0.819141 0.954531 Z M 0.819141 0.0454687 " transform="matrix(100,0,0,100,450,3200)"/>
<path style="fill:none;stroke-width:0.01;stroke-linecap:butt;stroke-linejoin:miter;stroke:rgb(0%,0%,0%);stroke-opacity:1;stroke-miterlimit:10;" d="M 0.954531 0.159102 L 0.0833203 0.196953 L 0.0454688 0.840898 L 0.91668 0.840898 Z M 0.954531 0.159102 " transform="matrix(100,0,0,100,600,3200)"/>
<path style="fill:none;stroke-width:0.01;stroke-linecap:butt;stroke-linejoin:miter;stroke:rgb(0%,0%,0%);stroke-opacity:1;stroke-miterlimit:10;" d="M 0.0454688 0.0611328 L 0.108164 0.938867 L 0.891836 0.907539 L 0.954531 0.0924609 Z M 0.0454688 0.0611328 " transform="matrix(100,0,0,100,0,3350)"/>
<path style="fill:none;stroke-width:0.01;stroke-linecap:butt;stroke-linejoin:miter;stroke:rgb(0%,0%,0%);stroke-opacity:1;stroke-miterlimit:10;" d="M 0.77043 0.827969 L 0.172031 0.850977 L 0.0454687 0.149023 L 0.954531 0.149023 Z M 0.77043 0.827969 " transform="matrix(100,0,0,100,150,3350)"/>
<path style="fill:none;stroke-width:0.01;stroke-linecap:butt;stroke-linejoin:miter;stroke:rgb(0%,0%,0%);stroke-opacity:1;stroke-miterlimit:10;" d="M 0.954531 0.243086 L 0.0454687 0.282617 L 0.183789 0.756914 L 0.835977 0.717383 Z M 0.954531 0.243086 " transform="matrix(100,0,0,100,300,3350)"/>
<path style="fill:none;stroke-width:0.01;stroke-linecap:butt;stroke-linejoin:miter;stroke:rgb(0%,0%,0%);stroke-opacity:1;stroke-miterlimit:10;" d="M 0.0454688 0.202188 L 0.139492 0.766445 L 0.891836 0.797812 L 0.954531 0.233555 Z M 0.0454688 0.202188 " transform="matrix(100,0,0,100,450,3350)"/>
<path style="fill:none;stroke-width:0.01;stroke-linecap:butt;stroke-linejoin:miter;stroke:rgb(0%,0%,0%);stroke-opacity:1;stroke-miterlimit:10;" d="M 0.204531 0.767031 L 0.829531 0.755664 L 0.954531 0.244336 L 0.0454688 0.232969 Z M 0.204531 0.767031 " transform="matrix(100,0,0,100,600,3350)"/>
<path style="fill:none;stroke-width:0.01;stroke-linecap:butt;stroke-linejoin:miter;stroke:rgb(0%,0%,0%);stroke-opacity:1;stroke-miterlimit:10;" d="M 0.129648 0.803047 L 0.870352 0.786211 L 0.954531 0.196953 L 0.0454688 0.196953 Z M 0.129648 0.803047 " transform="matrix(100,0,0,100,0,3500)"/>
<path style="fill:none;stroke-width:0.01;stroke-linecap:butt;stroke-linejoin:miter;stroke:rgb(0%,0%,0%);stroke-opacity:1;stroke-miterlimit:10;" d="M 0.929297 0.285352 L 0.121211 0.260117 L 0.0454687 0.714648 L 0.954531 0.739883 Z M 0.929297 0.285352 " transform="matrix(100,0,0,100,150,3500)"/>
<path style="fill:none;stroke-width:0.01;stroke-linecap:butt;stroke-linejoin:miter;stroke:rgb(0%,0%,0%);stroke-opacity:1;stroke-miterlimit:10;" d="M 0.954531 0.312852 L 0.205898 0.286094 L 0.0454687 0.687148 L 0.927812 0.713906 Z M 0.954531 0.312852 " transform="matrix(100,0,0,100,300,3500)"/>
<path style="fill:none;stroke-width:0.01;stroke-linecap:butt;stroke-linejoin:miter;stroke:rgb(0%,0%,0%);stroke-opacity:1;stroke-miterlimit:10;" d="M 0.954531 0.289375 L 0.0454688 0.333711 L 0.134141 0.710625 L 0.932383 0.666289 Z M 0.954531 0.289375 " transform="matrix(100,0,0,100,450,3500)"/>
<path style="fill:none;stroke-width:0.01;stroke-linecap:butt;stroke-linejoin:miter;stroke:rgb(0%,0%,0%);stroke-opacity:1;stroke-miterlimit:10;" d="M 0.954531 0.275547 L 0.954531 0.589805 L 0.94332 0.724453 L 0.0678906 0.713242 L 0.0454688 0.589805 L 0.0566797 0.297969 Z M 0.954531 0.275547 " transform="matrix(100,0,0,100,600,3500)"/>
<path style="fill:none;stroke-width:0.01;stroke-linecap:butt;stroke-linejoin:miter;stroke:rgb(0%,0%,0%);stroke-opacity:1;stroke-miterlimit:10;" d="M 0.932109 0.309219 L 0.954531 0.410195 L 0.94332 0.702031 L 0.0454688 0.702031 L 0.0566797 0.398984 L 0.101562 0.297969 Z M 0.932109 0.309219 " transform="matrix(100,0,0,100,0,3650)"/>
<path style="fill:none;stroke-width:0.01;stroke-linecap:butt;stroke-linejoin:miter;stroke:rgb(0%,0%,0%);stroke-opacity:1;stroke-miterlimit:10;" d="M 0.0454687 0.869687 L 0.0454687 0.130313 L 0.954531 0.130313 L 0.930312 0.845469 Z M 0.0454687 0.869687 " transform="matrix(100,0,0,100,150,3650)"/>
<path style="fill:none;stroke-width:0.01;stroke-linecap:butt;stroke-linejoin:miter;stroke:rgb(0%,0%,0%);stroke-opacity:1;stroke-miterlimit:10;" d="M 0.954531 0.0924609 L 0.0454687 0.0924609 L 0.0454687 0.891836 L 0.923203 0.907539 Z M 0.954531 0.0924609 " transform="matrix(100,0,0,100,300,3650)"/>
<path style="fill:none;stroke-width:0.01;stroke-linecap:butt;stroke-linejoin:miter;stroke:rgb(0%,0%,0%);stroke-opacity:1;stroke-miterlimit:10;" d="M 0.0773437 0.32457 L 0.0454688 0.659492 L 0.938594 0.67543 L 0.954531 0.340508 Z M 0.0773437 0.32457 " transform="matrix(100,0,0,100,450,3650)"/>
<path style="fill:none;stroke-width:0.01;stroke-linecap:butt;stroke-linejoin:miter;stroke:rgb(0%,0%,0%);stroke-opacity:1;stroke-miterlimit:10;" d="M 0.060625 0.318164 L 0.0454688 0.681836 L 0.924258 0.66668 L 0.954531 0.33332 Z M 0.060625 0.318164 " transform="matrix(100,0,0,100,600,3650)"/>
<path style="fill:none;stroke-width:0.01;stroke-linecap:butt;stroke-linejoin:miter;stroke:rgb(0%,0%,0%);stroke-opacity:1;stroke-miterlimit:10;" d="M 0.824102 0.946641 L 0.175898 0.954531 L 0.191719 0.0533594 L 0.816211 0.0454687 Z M 0.824102 0.946641 " transform="matrix(100,0,0,100,0,3800)"/>
<path style="fill:none;stroke-width:0.01;stroke-linecap:butt;stroke-linejoin:miter;stroke:rgb(0%,0%,0%);stroke-opacity:1;stroke-miterlimit:10;" d="M 0.704531 0.0568359 L 0.295469 0.0454687 L 0.295469 0.943164 L 0.681836 0.954531 Z M 0.704531 0.0568359 " transform="matrix(100,0,0,100,150,3800)"/>
</g>
</svg>
