<?xml version="1.0" encoding="UTF-8"?>
<svg xmlns="http://www.w3.org/2000/svg" xmlns:xlink="http://www.w3.org/1999/xlink" width="750pt" height="12800pt" viewBox="0 0 750 12800" version="1.1">
<g id="surface1">
<path style="fill:none;stroke-width:0.01;stroke-linecap:butt;stroke-linejoin:miter;stroke:rgb(0%,0%,0%);stroke-opacity:1;stroke-miterlimit:10;" d="M 0.624219 0.954531 L 0.375781 0.954531 L 0.381094 0.917539 L 0.391641 0.906992 L 0.391641 0.880547 L 0.396953 0.864688 L 0.402227 0.838281 L 0.396953 0.806563 L 0.4075 0.764258 L 0.428633 0.737852 L 0.423359 0.690273 L 0.418086 0.648008 L 0.412773 0.60043 L 0.386367 0.573984 L 0.396953 0.510586 L 0.4075 0.457734 L 0.465664 0.447148 L 0.50793 0.436562 L 0.529062 0.41543 L 0.555508 0.357305 L 0.550195 0.320312 L 0.529062 0.272734 L 0.529062 0.204023 L 0.534336 0.151172 L 0.534336 0.0877344 L 0.539648 0.0454687 L 0.555508 0.0983203 L 0.603047 0.579297 L 0.618906 0.795977 Z M 0.624219 0.954531 " transform="matrix(100,0,0,100,0,200)"/>
<path style="fill:none;stroke-width:0.01;stroke-linecap:butt;stroke-linejoin:miter;stroke:rgb(0%,0%,0%);stroke-opacity:1;stroke-miterlimit:10;" d="M 0.756914 0.0454687 L 0.506602 0.0717969 L 0.308945 0.0717969 L 0.190391 0.111328 L 0.124492 0.177188 L 0.190391 0.0981641 L 0.308945 0.0981641 L 0.401172 0.111328 L 0.46707 0.0981641 L 0.585625 0.0849609 L 0.625156 0.0981641 L 0.414375 0.164023 L 0.243086 0.269414 L 0.203555 0.295781 L 0.269414 0.243086 L 0.453867 0.190391 L 0.691055 0.111328 L 0.638359 0.150859 L 0.46707 0.269414 L 0.348477 0.322148 L 0.282617 0.414375 L 0.308945 0.401172 L 0.427539 0.322148 L 0.519766 0.269414 L 0.611992 0.190391 L 0.664687 0.177188 L 0.480234 0.335313 L 0.361641 0.480234 L 0.440703 0.480234 L 0.664687 0.243086 L 0.691055 0.25625 L 0.664687 0.348477 L 0.611992 0.414375 L 0.519766 0.53293 L 0.493398 0.730586 L 0.493398 0.756914 L 0.546133 0.783281 L 0.638359 0.835977 L 0.664687 0.875508 L 0.704219 0.954531 L 0.875508 0.835977 L 0.809609 0.717383 L 0.717383 0.691055 L 0.74375 0.625156 L 0.770078 0.572461 L 0.717383 0.453867 L 0.74375 0.348477 L 0.74375 0.229922 Z M 0.756914 0.0454687 " transform="matrix(100,0,0,100,150,200)"/>
<path style="fill:none;stroke-width:0.01;stroke-linecap:butt;stroke-linejoin:miter;stroke:rgb(0%,0%,0%);stroke-opacity:1;stroke-miterlimit:10;" d="M 0.813477 0.390273 L 0.844844 0.108164 L 0.688086 0.0767969 L 0.531367 0.202187 L 0.343242 0.0454687 L 0.5 0.264883 L 0.405938 0.327578 L 0.186523 0.202187 L 0.155156 0.202187 L 0.311914 0.29625 L 0.155156 0.358945 L 0.0611328 0.421641 L 0.343242 0.547031 L 0.186523 0.578359 L 0.468633 0.609727 L 0.562695 0.891836 L 0.594063 0.923203 L 0.938867 0.954531 L 0.907539 0.515664 Z M 0.813477 0.390273 " transform="matrix(100,0,0,100,300,200)"/>
<path style="fill:none;stroke-width:0.01;stroke-linecap:butt;stroke-linejoin:miter;stroke:rgb(0%,0%,0%);stroke-opacity:1;stroke-miterlimit:10;" d="M 0.867969 0.229453 L 0.673164 0.164492 L 0.5 0.186133 L 0.110391 0.186133 L 0.261914 0.272734 L 0.08875 0.272734 L 0.0454688 0.316016 L 0.261914 0.424258 L 0.132031 0.48918 L 0.305195 0.51082 L 0.521641 0.532461 L 0.629883 0.619063 L 0.824688 0.662344 L 0.889609 0.597422 L 0.932891 0.792227 L 0.673164 0.813867 L 0.543281 0.792227 L 0.91125 0.835508 L 0.91125 0.640703 L 0.954531 0.532461 Z M 0.867969 0.229453 " transform="matrix(100,0,0,100,450,200)"/>
<path style="fill:none;stroke-width:0.01;stroke-linecap:butt;stroke-linejoin:miter;stroke:rgb(0%,0%,0%);stroke-opacity:1;stroke-miterlimit:10;" d="M 0.649258 0.113281 L 0.567852 0.113281 L 0.486445 0.0454687 L 0.405039 0.0590234 L 0.405039 0.14043 L 0.486445 0.153984 L 0.554258 0.181133 L 0.540703 0.221836 L 0.337187 0.126875 L 0.255781 0.14043 L 0.296484 0.194727 L 0.391445 0.194727 L 0.255781 0.194727 L 0.405039 0.248984 L 0.540703 0.248984 L 0.418594 0.384648 L 0.554258 0.343945 L 0.635703 0.357539 L 0.635703 0.384648 L 0.472852 0.438945 L 0.377891 0.398242 L 0.215078 0.425391 L 0.5 0.398242 L 0.622109 0.466094 L 0.635703 0.533906 L 0.594961 0.656055 L 0.5 0.615352 L 0.432148 0.5475 L 0.5 0.656055 L 0.459297 0.656055 L 0.364297 0.642461 L 0.228633 0.642461 L 0.391445 0.656055 L 0.445742 0.696758 L 0.459297 0.76457 L 0.472852 0.791719 L 0.581406 0.710313 L 0.662813 0.696758 L 0.540703 0.818867 L 0.486445 0.832422 L 0.405039 0.913828 L 0.364297 0.954531 L 0.445742 0.927422 L 0.554258 0.805273 L 0.649258 0.683164 L 0.703516 0.5475 L 0.757812 0.384648 L 0.784922 0.23543 L 0.744219 0.153984 Z M 0.649258 0.113281 " transform="matrix(100,0,0,100,600,200)"/>
<path style="fill:none;stroke-width:0.01;stroke-linecap:butt;stroke-linejoin:miter;stroke:rgb(0%,0%,0%);stroke-opacity:1;stroke-miterlimit:10;" d="M 0.93125 0.47668 L 0.884609 0.336836 L 0.721445 0.266914 L 0.488359 0.173672 L 0.418398 0.0571094 L 0.348477 0.0571094 L 0.395117 0.196953 L 0.395117 0.220273 L 0.418398 0.336836 L 0.255234 0.220273 L 0.0920703 0.173672 L 0.185312 0.266914 L 0.348477 0.383437 L 0.278555 0.430078 L 0.185312 0.453398 L 0.255234 0.546602 L 0.208633 0.593242 L 0.0920703 0.686484 L 0.301875 0.756406 L 0.208633 0.849648 L 0.0454688 0.826328 L 0.278555 0.942891 L 0.441719 0.872969 L 0.534961 0.826328 L 0.674844 0.849648 L 0.721445 0.91957 L 0.884609 0.779727 L 0.954531 0.686484 Z M 0.93125 0.47668 " transform="matrix(100,0,0,100,0,350)"/>
<path style="fill:none;stroke-width:0.01;stroke-linecap:butt;stroke-linejoin:miter;stroke:rgb(0%,0%,0%);stroke-opacity:1;stroke-miterlimit:10;" d="M 0.824688 0.608242 L 0.824688 0.0454687 L 0.781367 0.0454687 L 0.564922 0.348477 L 0.391758 0.435078 L 0.175312 0.608242 L 0.175312 0.867969 L 0.564922 0.954531 L 0.738086 0.91125 L 0.824688 0.521641 Z M 0.824688 0.608242 " transform="matrix(100,0,0,100,150,350)"/>
<path style="fill:none;stroke-width:0.01;stroke-linecap:butt;stroke-linejoin:miter;stroke:rgb(0%,0%,0%);stroke-opacity:1;stroke-miterlimit:10;" d="M 0.554531 0.0454687 L 0.336367 0.190898 L 0.263633 0.227266 L 0.263633 0.445469 L 0.154531 0.590898 L 0.227266 0.736367 L 0.190898 0.881836 L 0.263633 0.954531 L 0.372734 0.918164 L 0.518164 0.772734 L 0.663633 0.663633 L 0.845469 0.409102 L 0.845469 0.190898 L 0.7 0.0818359 Z M 0.554531 0.0454687 " transform="matrix(100,0,0,100,300,350)"/>
<path style="fill:none;stroke-width:0.01;stroke-linecap:butt;stroke-linejoin:miter;stroke:rgb(0%,0%,0%);stroke-opacity:1;stroke-miterlimit:10;" d="M 0.885391 0.455547 L 0.77668 0.386367 L 0.658086 0.277656 L 0.56918 0.178867 L 0.56918 0.129453 L 0.549414 0.0701563 L 0.450586 0.11957 L 0.391289 0.159102 L 0.351797 0.218398 L 0.302383 0.267773 L 0.233203 0.317188 L 0.272734 0.376484 L 0.361641 0.39625 L 0.411055 0.485195 L 0.529648 0.504922 L 0.618594 0.544453 L 0.667969 0.455547 L 0.677852 0.455547 L 0.618594 0.564219 L 0.480234 0.554336 L 0.401172 0.475313 L 0.381406 0.53457 L 0.282617 0.504922 L 0.2925 0.435781 L 0.173906 0.39625 L 0.114609 0.416016 L 0.0849609 0.514805 L 0.0553516 0.60375 L 0.104727 0.682812 L 0.154141 0.722344 L 0.0652344 0.742109 L 0.0454688 0.791484 L 0.0454688 0.860664 L 0.114609 0.929844 L 0.164023 0.860664 L 0.262852 0.929844 L 0.193672 0.791484 L 0.272734 0.732227 L 0.2925 0.702578 L 0.371523 0.722344 L 0.420937 0.663047 L 0.490117 0.653164 L 0.519766 0.692695 L 0.559297 0.821133 L 0.658086 0.801367 L 0.687734 0.732227 L 0.658086 0.692695 L 0.559297 0.643281 L 0.588945 0.623516 L 0.766797 0.692695 L 0.628477 0.554336 L 0.687734 0.564219 L 0.7075 0.445664 L 0.806328 0.445664 L 0.954531 0.475313 Z M 0.885391 0.455547 " transform="matrix(100,0,0,100,450,350)"/>
<path style="fill:none;stroke-width:0.01;stroke-linecap:butt;stroke-linejoin:miter;stroke:rgb(0%,0%,0%);stroke-opacity:1;stroke-miterlimit:10;" d="M 0.884609 0.311172 L 0.66082 0.33918 L 0.479023 0.325156 L 0.255234 0.353164 L 0.227266 0.311172 L 0.143359 0.24125 L 0.0734375 0.297188 L 0.115391 0.367148 L 0.0734375 0.465039 L 0.227266 0.451055 L 0.24125 0.43707 L 0.129375 0.534961 L 0.0874219 0.604883 L 0.0454688 0.674844 L 0.101406 0.75875 L 0.185313 0.66082 L 0.311172 0.632852 L 0.548945 0.618867 L 0.856641 0.590898 L 0.954531 0.604883 L 0.33918 0.618867 L 0.199297 0.618867 L 0.143359 0.534961 L 0.227266 0.465039 L 0.199297 0.43707 L 0.24125 0.367148 L 0.409102 0.325156 Z M 0.884609 0.311172 " transform="matrix(100,0,0,100,600,350)"/>
<path style="fill:none;stroke-width:0.01;stroke-linecap:butt;stroke-linejoin:miter;stroke:rgb(0%,0%,0%);stroke-opacity:1;stroke-miterlimit:10;" d="M 0.694805 0.564922 L 0.546367 0.509258 L 0.472187 0.546367 L 0.453633 0.67625 L 0.453633 0.694805 L 0.564922 0.713359 L 0.583477 0.639141 L 0.620586 0.620586 L 0.453633 0.583477 L 0.360859 0.509258 L 0.268086 0.397969 L 0.193867 0.490742 L 0.193867 0.583477 L 0.0825781 0.657695 L 0.0454688 0.694805 L 0.249531 0.769023 L 0.360859 0.694805 L 0.397969 0.583477 L 0.509258 0.546367 L 0.657695 0.490742 L 0.564922 0.397969 L 0.583477 0.268086 L 0.731914 0.230977 L 0.67625 0.472188 L 0.694805 0.490742 L 0.954531 0.639141 Z M 0.694805 0.564922 " transform="matrix(100,0,0,100,0,500)"/>
<path style="fill:none;stroke-width:0.01;stroke-linecap:butt;stroke-linejoin:miter;stroke:rgb(0%,0%,0%);stroke-opacity:1;stroke-miterlimit:10;" d="M 0.511367 0.215898 L 0.465898 0.284102 L 0.488633 0.352266 L 0.511367 0.392031 L 0.471602 0.426133 L 0.454531 0.471602 L 0.460234 0.528398 L 0.465898 0.607969 L 0.471602 0.6875 L 0.460234 0.795469 L 0.443164 0.857969 L 0.477266 0.920469 L 0.517031 0.954531 L 0.545469 0.840898 L 0.556836 0.693164 L 0.539766 0.636367 L 0.556836 0.465898 L 0.556836 0.0625 L 0.522734 0.0454688 L 0.488633 0.0795313 L 0.522734 0.153398 L 0.511367 0.170469 Z M 0.511367 0.215898 " transform="matrix(100,0,0,100,150,500)"/>
<path style="fill:none;stroke-width:0.01;stroke-linecap:butt;stroke-linejoin:miter;stroke:rgb(0%,0%,0%);stroke-opacity:1;stroke-miterlimit:10;" d="M 0.321172 0.0454688 L 0.336055 0.0901562 L 0.350977 0.115 L 0.395664 0.0951172 L 0.43543 0.0951172 L 0.470195 0.124922 L 0.460273 0.214375 L 0.495039 0.229258 L 0.544727 0.278945 L 0.549688 0.383242 L 0.554648 0.467695 L 0.584453 0.517383 L 0.589414 0.581953 L 0.549688 0.621719 L 0.56457 0.765781 L 0.619219 0.835312 L 0.653984 0.880039 L 0.688789 0.875078 L 0.723555 0.914805 L 0.733477 0.94957 L 0.62918 0.954531 L 0.579492 0.944609 L 0.579492 0.924727 L 0.534766 0.904883 L 0.579492 0.865117 L 0.594375 0.855195 L 0.559609 0.830352 L 0.5 0.855195 L 0.56457 0.825391 L 0.554648 0.765781 L 0.534766 0.69125 L 0.534766 0.621719 L 0.5 0.572031 L 0.460273 0.601836 L 0.5 0.537266 L 0.5 0.517383 L 0.450312 0.527305 L 0.440391 0.56707 L 0.455273 0.522344 L 0.405625 0.537266 L 0.37582 0.542227 L 0.420508 0.492539 L 0.410586 0.477656 L 0.365859 0.467695 L 0.355938 0.423008 L 0.321172 0.363398 L 0.291367 0.328633 L 0.30625 0.259062 L 0.291367 0.194492 L 0.266523 0.164688 L 0.311211 0.134883 L 0.311211 0.0752734 Z M 0.321172 0.0454688 " transform="matrix(100,0,0,100,300,500)"/>
<path style="fill:none;stroke-width:0.01;stroke-linecap:butt;stroke-linejoin:miter;stroke:rgb(0%,0%,0%);stroke-opacity:1;stroke-miterlimit:10;" d="M 0.647422 0.929961 L 0.5 0.807109 L 0.426289 0.954531 L 0.278867 0.733398 L 0.254297 0.561406 L 0.131445 0.463164 L 0.278867 0.364883 L 0.205156 0.14375 L 0.47543 0.14375 L 0.5 0.0454688 L 0.721133 0.414023 L 0.770273 0.585977 L 0.868555 0.83168 L 0.721133 0.782539 Z M 0.647422 0.929961 " transform="matrix(100,0,0,100,450,500)"/>
<path style="fill:none;stroke-width:0.01;stroke-linecap:butt;stroke-linejoin:miter;stroke:rgb(0%,0%,0%);stroke-opacity:1;stroke-miterlimit:10;" d="M 0.62625 0.146445 L 0.62625 0.348477 L 0.643086 0.533672 L 0.643086 0.786211 L 0.609414 0.853555 L 0.508398 0.954531 L 0.390586 0.920859 L 0.407422 0.803047 L 0.37375 0.651523 L 0.356914 0.567344 L 0.390586 0.432656 L 0.407422 0.348477 L 0.609414 0.348477 L 0.54207 0.281133 L 0.491602 0.230625 L 0.474766 0.146445 L 0.558906 0.0454688 L 0.643086 0.0623047 Z M 0.62625 0.146445 " transform="matrix(100,0,0,100,600,500)"/>
<path style="fill:none;stroke-width:0.01;stroke-linecap:butt;stroke-linejoin:miter;stroke:rgb(0%,0%,0%);stroke-opacity:1;stroke-miterlimit:10;" d="M 0.662344 0.283555 L 0.683984 0.435078 L 0.683984 0.716445 L 0.662344 0.867969 L 0.597422 0.954531 L 0.424258 0.932891 L 0.359297 0.759727 L 0.316016 0.608242 L 0.316016 0.478359 L 0.337656 0.370117 L 0.424258 0.261914 L 0.532461 0.153672 L 0.575742 0.0671094 L 0.619062 0.0454688 L 0.640703 0.132031 Z M 0.662344 0.283555 " transform="matrix(100,0,0,100,0,650)"/>
<path style="fill:none;stroke-width:0.01;stroke-linecap:butt;stroke-linejoin:miter;stroke:rgb(0%,0%,0%);stroke-opacity:1;stroke-miterlimit:10;" d="M 0.557852 0.442148 L 0.508281 0.574375 L 0.491719 0.723125 L 0.475195 0.805781 L 0.475195 0.904961 L 0.409102 0.954531 L 0.326445 0.904961 L 0.326445 0.590898 L 0.342969 0.475195 L 0.376016 0.392578 L 0.475195 0.243789 L 0.541328 0.194219 L 0.607422 0.111562 L 0.623984 0.0454688 L 0.657031 0.0950391 L 0.673555 0.210742 L 0.623984 0.326445 Z M 0.557852 0.442148 " transform="matrix(100,0,0,100,150,650)"/>
<path style="fill:none;stroke-width:0.01;stroke-linecap:butt;stroke-linejoin:miter;stroke:rgb(0%,0%,0%);stroke-opacity:1;stroke-miterlimit:10;" d="M 0.551953 0.279219 L 0.603906 0.409102 L 0.707773 0.590898 L 0.73375 0.824688 L 0.73375 0.876641 L 0.707773 0.954531 L 0.57793 0.902578 L 0.474023 0.694805 L 0.370117 0.538945 L 0.318164 0.357148 L 0.344141 0.123359 L 0.26625 0.0974219 L 0.396094 0.0454688 L 0.5 0.123359 Z M 0.551953 0.279219 " transform="matrix(100,0,0,100,300,650)"/>
<path style="fill:none;stroke-width:0.01;stroke-linecap:butt;stroke-linejoin:miter;stroke:rgb(0%,0%,0%);stroke-opacity:1;stroke-miterlimit:10;" d="M 0.638359 0.460469 L 0.618594 0.579063 L 0.618594 0.717383 L 0.598828 0.855742 L 0.539531 0.954531 L 0.440703 0.915039 L 0.460469 0.796445 L 0.480234 0.697617 L 0.302383 0.519766 L 0.322148 0.480234 L 0.282617 0.420937 L 0.341914 0.282617 L 0.401172 0.144258 L 0.5 0.104727 L 0.717383 0.0454688 Z M 0.638359 0.460469 " transform="matrix(100,0,0,100,450,650)"/>
<path style="fill:none;stroke-width:0.01;stroke-linecap:butt;stroke-linejoin:miter;stroke:rgb(0%,0%,0%);stroke-opacity:1;stroke-miterlimit:10;" d="M 0.787891 0.560625 L 0.742422 0.393945 L 0.606055 0.16668 L 0.545469 0.0454688 L 0.424258 0.0908984 L 0.454531 0.136367 L 0.393945 0.196953 L 0.272734 0.227266 L 0.33332 0.257578 L 0.303047 0.287891 L 0.212109 0.303047 L 0.318164 0.318164 L 0.257578 0.393945 L 0.287891 0.469688 L 0.363633 0.484844 L 0.318164 0.545469 L 0.257578 0.606055 L 0.272734 0.66668 L 0.378789 0.66668 L 0.439375 0.712109 L 0.454531 0.803047 L 0.515156 0.893945 L 0.560625 0.954531 L 0.636367 0.954531 L 0.727266 0.848477 L 0.712109 0.757578 L 0.742422 0.66668 L 0.787891 0.651523 Z M 0.787891 0.560625 " transform="matrix(100,0,0,100,600,650)"/>
<path style="fill:none;stroke-width:0.01;stroke-linecap:butt;stroke-linejoin:miter;stroke:rgb(0%,0%,0%);stroke-opacity:1;stroke-miterlimit:10;" d="M 0.564922 0.156758 L 0.472187 0.0640234 L 0.397969 0.138203 L 0.490742 0.268086 L 0.397969 0.305195 L 0.472187 0.342305 L 0.360859 0.397969 L 0.268086 0.453633 L 0.397969 0.509258 L 0.379414 0.527812 L 0.193867 0.602031 L 0.32375 0.620586 L 0.360859 0.639141 L 0.286641 0.731914 L 0.490742 0.731914 L 0.490742 0.917422 L 0.546367 0.935977 L 0.694805 0.935977 L 0.750469 0.954531 L 0.787578 0.843242 L 0.750469 0.657695 L 0.750469 0.527812 L 0.806133 0.379414 L 0.806133 0.212422 L 0.694805 0.0454687 L 0.583477 0.212422 Z M 0.564922 0.156758 " transform="matrix(100,0,0,100,0,800)"/>
<path style="fill:none;stroke-width:0.01;stroke-linecap:butt;stroke-linejoin:miter;stroke:rgb(0%,0%,0%);stroke-opacity:1;stroke-miterlimit:10;" d="M 0.535742 0.127187 L 0.484687 0.0454687 L 0.423398 0.0863281 L 0.454023 0.198672 L 0.402969 0.239531 L 0.362109 0.290586 L 0.392734 0.362109 L 0.413164 0.392734 L 0.351875 0.402969 L 0.331445 0.454023 L 0.331445 0.607266 L 0.464258 0.576602 L 0.433594 0.617461 L 0.402969 0.65832 L 0.464258 0.69918 L 0.413164 0.760469 L 0.454023 0.750273 L 0.484687 0.842187 L 0.494883 0.883047 L 0.556172 0.903477 L 0.597031 0.923906 L 0.637891 0.954531 L 0.65832 0.852383 L 0.668555 0.627695 L 0.668555 0.32125 L 0.65832 0.198672 L 0.597031 0.188477 L 0.597031 0.137383 Z M 0.535742 0.127187 " transform="matrix(100,0,0,100,150,800)"/>
<path style="fill:none;stroke-width:0.01;stroke-linecap:butt;stroke-linejoin:miter;stroke:rgb(0%,0%,0%);stroke-opacity:1;stroke-miterlimit:10;" d="M 0.582656 0.210742 L 0.5 0.0867578 L 0.389805 0.0454687 L 0.320937 0.128086 L 0.265859 0.265859 L 0.238281 0.320937 L 0.293398 0.472461 L 0.376016 0.596406 L 0.431133 0.74793 L 0.5 0.844336 L 0.623984 0.926992 L 0.720391 0.954531 L 0.761719 0.871914 L 0.761719 0.734141 L 0.679063 0.610195 L 0.568867 0.389805 Z M 0.582656 0.210742 " transform="matrix(100,0,0,100,300,800)"/>
<path style="fill:none;stroke-width:0.01;stroke-linecap:butt;stroke-linejoin:miter;stroke:rgb(0%,0%,0%);stroke-opacity:1;stroke-miterlimit:10;" d="M 0.698867 0.301133 L 0.698867 0.642031 L 0.727266 0.8125 L 0.670469 0.954531 L 0.556836 0.840898 L 0.386367 0.869336 L 0.471602 0.755664 L 0.272734 0.755664 L 0.5 0.471602 L 0.357969 0.301133 L 0.272734 0.159102 L 0.386367 0.0454687 L 0.613633 0.244336 Z M 0.698867 0.301133 " transform="matrix(100,0,0,100,450,800)"/>
<path style="fill:none;stroke-width:0.01;stroke-linecap:butt;stroke-linejoin:miter;stroke:rgb(0%,0%,0%);stroke-opacity:1;stroke-miterlimit:10;" d="M 0.718164 0.227266 L 0.790898 0.7 L 0.754531 0.845469 L 0.681836 0.954531 L 0.463633 0.845469 L 0.318164 0.7 L 0.209102 0.518164 L 0.209102 0.372734 L 0.390898 0.190898 L 0.536367 0.0454687 L 0.645469 0.0454687 Z M 0.718164 0.227266 " transform="matrix(100,0,0,100,600,800)"/>
<path style="fill:none;stroke-width:0.01;stroke-linecap:butt;stroke-linejoin:miter;stroke:rgb(0%,0%,0%);stroke-opacity:1;stroke-miterlimit:10;" d="M 0.77668 0.322148 L 0.737148 0.519766 L 0.737148 0.717383 L 0.697617 0.875508 L 0.460469 0.954531 L 0.22332 0.677852 L 0.22332 0.440703 L 0.262852 0.243086 L 0.420938 0.124492 L 0.539531 0.0454687 L 0.658086 0.124492 Z M 0.77668 0.322148 " transform="matrix(100,0,0,100,0,950)"/>
<path style="fill:none;stroke-width:0.01;stroke-linecap:butt;stroke-linejoin:miter;stroke:rgb(0%,0%,0%);stroke-opacity:1;stroke-miterlimit:10;" d="M 0.715313 0.188984 L 0.715313 0.428242 L 0.763164 0.667461 L 0.763164 0.811016 L 0.571758 0.954531 L 0.380391 0.811016 L 0.284687 0.571758 L 0.236836 0.284688 L 0.428242 0.141133 L 0.667461 0.0454687 Z M 0.715313 0.188984 " transform="matrix(100,0,0,100,150,950)"/>
<path style="fill:none;stroke-width:0.01;stroke-linecap:butt;stroke-linejoin:miter;stroke:rgb(0%,0%,0%);stroke-opacity:1;stroke-miterlimit:10;" d="M 0.712109 0.287891 L 0.893945 0.530313 L 0.83332 0.772734 L 0.712109 0.954531 L 0.469688 0.893945 L 0.287891 0.712109 L 0.16668 0.348477 L 0.106055 0.16668 L 0.287891 0.0454687 L 0.651523 0.0454687 Z M 0.712109 0.287891 " transform="matrix(100,0,0,100,300,950)"/>
<path style="fill:none;stroke-width:0.01;stroke-linecap:butt;stroke-linejoin:miter;stroke:rgb(0%,0%,0%);stroke-opacity:1;stroke-miterlimit:10;" d="M 0.722227 0.429297 L 0.702031 0.712109 L 0.702031 0.87375 L 0.601016 0.954531 L 0.398984 0.954531 L 0.338398 0.83332 L 0.297969 0.732305 L 0.257578 0.570703 L 0.277773 0.409102 L 0.297969 0.267695 L 0.358594 0.146445 L 0.479805 0.0454687 L 0.641406 0.0858594 L 0.722227 0.106055 L 0.742422 0.247461 Z M 0.722227 0.429297 " transform="matrix(100,0,0,100,450,950)"/>
<path style="fill:none;stroke-width:0.01;stroke-linecap:butt;stroke-linejoin:miter;stroke:rgb(0%,0%,0%);stroke-opacity:1;stroke-miterlimit:10;" d="M 0.62625 0.222227 L 0.752539 0.323242 L 0.777773 0.525234 L 0.651523 0.651523 L 0.601016 0.702031 L 0.575742 0.828281 L 0.398984 0.954531 L 0.222227 0.727266 L 0.222227 0.348477 L 0.398984 0.171719 L 0.424258 0.0454687 L 0.676758 0.0959766 L 0.702031 0.247461 Z M 0.62625 0.222227 " transform="matrix(100,0,0,100,600,950)"/>
<path style="fill:none;stroke-width:0.01;stroke-linecap:butt;stroke-linejoin:miter;stroke:rgb(0%,0%,0%);stroke-opacity:1;stroke-miterlimit:10;" d="M 0.739219 0.380391 L 0.834922 0.954531 L 0.547852 0.954531 L 0.308594 0.90668 L 0.165078 0.571758 L 0.260781 0.332539 L 0.547852 0.0933203 L 0.643555 0.0454687 L 0.78707 0.188984 Z M 0.739219 0.380391 " transform="matrix(100,0,0,100,0,1100)"/>
<path style="fill:none;stroke-width:0.01;stroke-linecap:butt;stroke-linejoin:miter;stroke:rgb(0%,0%,0%);stroke-opacity:1;stroke-miterlimit:10;" d="M 0.886367 0.318164 L 0.886367 0.636367 L 0.613633 0.909102 L 0.386367 0.954531 L 0.295469 0.590898 L 0.113633 0.454531 L 0.522734 0.227266 L 0.568164 0.0454687 L 0.659102 0.136367 Z M 0.886367 0.318164 " transform="matrix(100,0,0,100,150,1100)"/>
<path style="fill:none;stroke-width:0.01;stroke-linecap:butt;stroke-linejoin:miter;stroke:rgb(0%,0%,0%);stroke-opacity:1;stroke-miterlimit:10;" d="M 0.909102 0.409102 L 0.636367 0.863633 L 0.363633 0.954531 L 0.181836 0.863633 L 0.0908984 0.681836 L 0.0908984 0.227266 L 0.363633 0.0454687 L 0.727266 0.136367 Z M 0.909102 0.409102 " transform="matrix(100,0,0,100,300,1100)"/>
<path style="fill:none;stroke-width:0.01;stroke-linecap:butt;stroke-linejoin:miter;stroke:rgb(0%,0%,0%);stroke-opacity:1;stroke-miterlimit:10;" d="M 0.909102 0.409102 L 0.909102 0.772734 L 0.363633 0.954531 L 0.181836 0.954531 L 0.0908984 0.772734 L 0.181836 0.590898 L 0.0908984 0.409102 L 0.454531 0.0454687 L 0.636367 0.0454687 Z M 0.909102 0.409102 " transform="matrix(100,0,0,100,450,1100)"/>
<path style="fill:none;stroke-width:0.01;stroke-linecap:butt;stroke-linejoin:miter;stroke:rgb(0%,0%,0%);stroke-opacity:1;stroke-miterlimit:10;" d="M 0.590898 0.348477 L 0.772734 0.590898 L 0.712109 0.83332 L 0.530312 0.893945 L 0.348477 0.954531 L 0.287891 0.772734 L 0.227266 0.469688 L 0.227266 0.16668 L 0.287891 0.0454687 L 0.469688 0.0454687 L 0.530312 0.16668 Z M 0.590898 0.348477 " transform="matrix(100,0,0,100,600,1100)"/>
<path style="fill:none;stroke-width:0.01;stroke-linecap:butt;stroke-linejoin:miter;stroke:rgb(0%,0%,0%);stroke-opacity:1;stroke-miterlimit:10;" d="M 0.824688 0.435078 L 0.694805 0.824687 L 0.564922 0.954531 L 0.240273 0.889609 L 0.175313 0.759727 L 0.175313 0.370117 L 0.240273 0.110391 L 0.370117 0.0454687 L 0.564922 0.305195 L 0.824688 0.305195 Z M 0.824688 0.435078 " transform="matrix(100,0,0,100,0,1250)"/>
<path style="fill:none;stroke-width:0.01;stroke-linecap:butt;stroke-linejoin:miter;stroke:rgb(0%,0%,0%);stroke-opacity:1;stroke-miterlimit:10;" d="M 0.709805 0.325156 L 0.849648 0.744766 L 0.430078 0.954531 L 0.150352 0.744766 L 0.430078 0.395117 L 0.5 0.255234 L 0.709805 0.0454687 Z M 0.709805 0.325156 " transform="matrix(100,0,0,100,150,1250)"/>
<path style="fill:none;stroke-width:0.01;stroke-linecap:butt;stroke-linejoin:miter;stroke:rgb(0%,0%,0%);stroke-opacity:1;stroke-miterlimit:10;" d="M 0.772734 0.106055 L 0.803047 0.378789 L 0.803047 0.954531 L 0.530312 0.772734 L 0.348477 0.590898 L 0.227266 0.378789 L 0.196953 0.318164 L 0.287891 0.16668 L 0.409102 0.0454687 L 0.621211 0.16668 Z M 0.772734 0.106055 " transform="matrix(100,0,0,100,300,1250)"/>
<path style="fill:none;stroke-width:0.01;stroke-linecap:butt;stroke-linejoin:miter;stroke:rgb(0%,0%,0%);stroke-opacity:1;stroke-miterlimit:10;" d="M 0.75 0.272734 L 0.795469 0.681836 L 0.75 0.818164 L 0.431836 0.954531 L 0.340898 0.818164 L 0.295469 0.590898 L 0.204531 0.136367 L 0.340898 0.0454687 L 0.431836 0.0454687 L 0.613633 0.181836 Z M 0.75 0.272734 " transform="matrix(100,0,0,100,450,1250)"/>
<path style="fill:none;stroke-width:0.01;stroke-linecap:butt;stroke-linejoin:miter;stroke:rgb(0%,0%,0%);stroke-opacity:1;stroke-miterlimit:10;" d="M 0.755 0.200664 L 0.666289 0.488906 L 0.688477 0.666289 L 0.777148 0.954531 L 0.688477 0.910195 L 0.44457 0.799336 L 0.333711 0.644141 L 0.222852 0.488906 L 0.267188 0.333711 L 0.355859 0.156328 L 0.488906 0.0454687 L 0.599766 0.0454687 L 0.755 0.0898047 Z M 0.755 0.200664 " transform="matrix(100,0,0,100,600,1250)"/>
<path style="fill:none;stroke-width:0.01;stroke-linecap:butt;stroke-linejoin:miter;stroke:rgb(0%,0%,0%);stroke-opacity:1;stroke-miterlimit:10;" d="M 0.760234 0.350781 L 0.788008 0.413242 L 0.836562 0.454883 L 0.885156 0.489609 L 0.926797 0.524297 L 0.919844 0.524297 L 0.808828 0.475703 L 0.801875 0.475703 L 0.815742 0.489609 L 0.878203 0.538164 L 0.940664 0.607578 L 0.954531 0.621445 L 0.899023 0.593672 L 0.829648 0.565938 L 0.899023 0.614492 L 0.947617 0.663086 L 0.843516 0.593672 L 0.822695 0.607578 L 0.899023 0.69082 L 0.919844 0.704727 L 0.843516 0.649219 L 0.774102 0.628398 L 0.704727 0.545117 L 0.614492 0.482656 L 0.676953 0.600625 L 0.600625 0.510391 L 0.531211 0.454883 L 0.482656 0.420195 L 0.406328 0.461836 L 0.454883 0.378555 L 0.406328 0.399375 L 0.343867 0.496523 L 0.316094 0.531211 L 0.378555 0.447969 L 0.406328 0.364688 L 0.329961 0.399375 L 0.288359 0.482656 L 0.260586 0.510391 L 0.288359 0.447969 L 0.253633 0.468789 L 0.149531 0.545117 L 0.211992 0.468789 L 0.198125 0.461836 L 0.128711 0.503477 L 0.205078 0.447969 L 0.246719 0.392422 L 0.246719 0.350781 L 0.170352 0.406328 L 0.218945 0.357734 L 0.177305 0.350781 L 0.0871094 0.406328 L 0.0523828 0.427148 L 0.121797 0.357734 L 0.121797 0.350781 L 0.0454688 0.371602 L 0.121797 0.329961 L 0.0940234 0.30918 L 0.0593359 0.302227 L 0.739414 0.295273 L 0.760234 0.316094 Z M 0.760234 0.350781 " transform="matrix(100,0,0,100,0,1400)"/>
<path style="fill:none;stroke-width:0.01;stroke-linecap:butt;stroke-linejoin:miter;stroke:rgb(0%,0%,0%);stroke-opacity:1;stroke-miterlimit:10;" d="M 0.399844 0.207227 L 0.384453 0.361328 L 0.430664 0.46918 L 0.615547 0.46918 L 0.769648 0.484609 L 0.831289 0.546211 L 0.84668 0.669492 L 0.954531 0.715703 L 0.923711 0.808164 L 0.923711 0.885195 L 0.8775 0.916016 L 0.769648 0.869805 L 0.630977 0.731133 L 0.461484 0.715703 L 0.338203 0.746523 L 0.291992 0.838984 L 0.199531 0.746523 L 0.137891 0.808164 L 0.0916797 0.777344 L 0.0916797 0.684883 L 0.1225 0.53082 L 0.0454687 0.515391 L 0.0454687 0.361328 L 0.0608594 0.284297 L 0.184141 0.207227 L 0.291992 0.145625 L 0.369023 0.0839844 Z M 0.399844 0.207227 " transform="matrix(100,0,0,100,150,1400)"/>
<path style="fill:none;stroke-width:0.01;stroke-linecap:butt;stroke-linejoin:miter;stroke:rgb(0%,0%,0%);stroke-opacity:1;stroke-miterlimit:10;" d="M 0.867969 0.326836 L 0.564922 0.370117 L 0.435078 0.413438 L 0.175312 0.456719 L 0.132031 0.413438 L 0.218633 0.5 L 0.0454687 0.543281 L 0.0454687 0.673164 L 0.175312 0.629883 L 0.521641 0.629883 L 0.824688 0.586562 L 0.954531 0.629883 Z M 0.867969 0.326836 " transform="matrix(100,0,0,100,300,1400)"/>
<path style="fill:none;stroke-width:0.01;stroke-linecap:butt;stroke-linejoin:miter;stroke:rgb(0%,0%,0%);stroke-opacity:1;stroke-miterlimit:10;" d="M 0.567148 0.314063 L 0.608477 0.272734 L 0.629141 0.221094 L 0.660117 0.138438 L 0.587813 0.0661328 L 0.494844 0.0454687 L 0.443164 0.14875 L 0.443164 0.262383 L 0.381211 0.355391 L 0.319219 0.293398 L 0.360547 0.169414 L 0.267578 0.241719 L 0.236562 0.345039 L 0.22625 0.448359 L 0.17457 0.469023 L 0.112617 0.479336 L 0.102266 0.541328 L 0.17457 0.510312 L 0.0609375 0.654961 L 0.195234 0.541328 L 0.12293 0.706602 L 0.236562 0.551641 L 0.267578 0.530977 L 0.267578 0.582656 L 0.308867 0.530977 L 0.360547 0.60332 L 0.422539 0.696289 L 0.350195 0.675625 L 0.422539 0.768594 L 0.329531 0.830586 L 0.412187 0.778906 L 0.350195 0.913242 L 0.443164 0.79957 L 0.505156 0.820234 L 0.546484 0.74793 L 0.618789 0.696289 L 0.639453 0.85125 L 0.701445 0.902891 L 0.77375 0.871914 L 0.835742 0.954531 L 0.908047 0.809922 L 0.918398 0.675625 L 0.939063 0.386367 L 0.846094 0.376016 L 0.784102 0.283047 L 0.732422 0.39668 L 0.660117 0.365703 L 0.598125 0.293398 Z M 0.567148 0.314063 " transform="matrix(100,0,0,100,450,1400)"/>
<path style="fill:none;stroke-width:0.01;stroke-linecap:butt;stroke-linejoin:miter;stroke:rgb(0%,0%,0%);stroke-opacity:1;stroke-miterlimit:10;" d="M 0.693164 0.227266 L 0.715898 0.340898 L 0.738633 0.590898 L 0.693164 0.840898 L 0.693164 0.931836 L 0.647734 0.954531 L 0.488633 0.954531 L 0.397734 0.818164 L 0.261367 0.659102 L 0.261367 0.477266 L 0.306836 0.318164 L 0.443164 0.113633 L 0.534102 0.0454687 L 0.579531 0.113633 L 0.693164 0.159102 Z M 0.693164 0.227266 " transform="matrix(100,0,0,100,600,1400)"/>
<path style="fill:none;stroke-width:0.01;stroke-linecap:butt;stroke-linejoin:miter;stroke:rgb(0%,0%,0%);stroke-opacity:1;stroke-miterlimit:10;" d="M 0.712109 0.12625 L 0.611094 0.267695 L 0.651523 0.348477 L 0.671719 0.530313 L 0.590898 0.611094 L 0.570703 0.691914 L 0.611094 0.853555 L 0.510117 0.954531 L 0.348477 0.893945 L 0.287891 0.813125 L 0.328281 0.651523 L 0.388906 0.510117 L 0.328281 0.449492 L 0.287891 0.328281 L 0.368672 0.16668 L 0.409102 0.0454687 L 0.510117 0.0656641 L 0.570703 0.146445 L 0.712109 0.0858594 Z M 0.712109 0.12625 " transform="matrix(100,0,0,100,0,1550)"/>
<path style="fill:none;stroke-width:0.01;stroke-linecap:butt;stroke-linejoin:miter;stroke:rgb(0%,0%,0%);stroke-opacity:1;stroke-miterlimit:10;" d="M 0.585234 0.215898 L 0.698867 0.727266 L 0.642031 0.840898 L 0.471602 0.954531 L 0.301133 0.840898 L 0.301133 0.670469 L 0.357969 0.329531 L 0.471602 0.0454687 L 0.642031 0.102266 Z M 0.585234 0.215898 " transform="matrix(100,0,0,100,150,1550)"/>
<path style="fill:none;stroke-width:0.01;stroke-linecap:butt;stroke-linejoin:miter;stroke:rgb(0%,0%,0%);stroke-opacity:1;stroke-miterlimit:10;" d="M 0.954531 0.412578 L 0.744766 0.342656 L 0.709805 0.202813 L 0.534961 0.0629297 L 0.395117 0.237773 L 0.220273 0.202813 L 0.395117 0.202813 L 0.430078 0.272734 L 0.255234 0.377617 L 0.0454687 0.447539 L 0.325156 0.412578 L 0.430078 0.377617 L 0.360156 0.552461 L 0.639844 0.552461 L 0.569922 0.622383 L 0.5 0.93707 L 0.674844 0.727266 L 0.709805 0.587422 Z M 0.954531 0.412578 " transform="matrix(100,0,0,100,300,1550)"/>
<path style="fill:none;stroke-width:0.01;stroke-linecap:butt;stroke-linejoin:miter;stroke:rgb(0%,0%,0%);stroke-opacity:1;stroke-miterlimit:10;" d="M 0.599414 0.5 L 0.684648 0.727266 L 0.65625 0.954531 L 0.485781 0.954531 L 0.400586 0.840898 L 0.315352 0.698867 L 0.315352 0.386367 L 0.485781 0.1875 L 0.400586 0.0454687 L 0.542617 0.0738672 L 0.542617 0.357969 L 0.514219 0.471602 Z M 0.599414 0.5 " transform="matrix(100,0,0,100,450,1550)"/>
<path style="fill:none;stroke-width:0.01;stroke-linecap:butt;stroke-linejoin:miter;stroke:rgb(0%,0%,0%);stroke-opacity:1;stroke-miterlimit:10;" d="M 0.639844 0.0454687 L 0.779727 0.395117 L 0.709805 0.884609 L 0.5 0.954531 L 0.430078 0.534961 L 0.220273 0.395117 L 0.360156 0.325156 Z M 0.639844 0.0454687 " transform="matrix(100,0,0,100,600,1550)"/>
<path style="fill:none;stroke-width:0.01;stroke-linecap:butt;stroke-linejoin:miter;stroke:rgb(0%,0%,0%);stroke-opacity:1;stroke-miterlimit:10;" d="M 0.886367 0.590898 L 0.704531 0.590898 L 0.522734 0.772734 L 0.477266 0.954531 L 0.295469 0.954531 L 0.204531 0.681836 L 0.113633 0.363633 L 0.477266 0.136367 L 0.568164 0.0454688 L 0.568164 0.272734 L 0.704531 0.409102 Z M 0.886367 0.590898 " transform="matrix(100,0,0,100,0,1700)"/>
<path style="fill:none;stroke-width:0.01;stroke-linecap:butt;stroke-linejoin:miter;stroke:rgb(0%,0%,0%);stroke-opacity:1;stroke-miterlimit:10;" d="M 0.954531 0.570703 L 0.914141 0.732305 L 0.772734 0.79293 L 0.550508 0.83332 L 0.409102 0.853555 L 0.328281 0.83332 L 0.267695 0.752539 L 0.106055 0.631328 L 0.186875 0.550508 L 0.0454687 0.449492 L 0.12625 0.388906 L 0.0858594 0.308086 L 0.267695 0.20707 L 0.489883 0.267695 L 0.530312 0.227266 L 0.611094 0.146445 L 0.893945 0.146445 L 0.79293 0.16668 L 0.954531 0.348477 L 0.954531 0.530313 Z M 0.954531 0.570703 " transform="matrix(100,0,0,100,150,1700)"/>
<path style="fill:none;stroke-width:0.01;stroke-linecap:butt;stroke-linejoin:miter;stroke:rgb(0%,0%,0%);stroke-opacity:1;stroke-miterlimit:10;" d="M 0.637422 0.140586 L 0.78543 0.309727 L 0.827695 0.373164 L 0.891133 0.521133 L 0.954531 0.626836 L 0.806563 0.669141 L 0.658555 0.626836 L 0.489414 0.753711 L 0.362578 0.859414 L 0.383711 0.817109 L 0.193437 0.774844 L 0.0454687 0.711406 L 0.0877344 0.58457 L 0.108867 0.457734 L 0.172305 0.436563 L 0.278008 0.351992 L 0.299141 0.161719 L 0.552852 0.161719 Z M 0.637422 0.140586 " transform="matrix(100,0,0,100,300,1700)"/>
<path style="fill:none;stroke-width:0.01;stroke-linecap:butt;stroke-linejoin:miter;stroke:rgb(0%,0%,0%);stroke-opacity:1;stroke-miterlimit:10;" d="M 0.759727 0.337656 L 0.857148 0.662344 L 0.694805 0.92207 L 0.435078 0.954531 L 0.435078 0.857148 L 0.240273 0.727266 L 0.370117 0.564922 L 0.207773 0.435078 L 0.142852 0.305195 L 0.402578 0.240273 L 0.305195 0.0779297 L 0.532461 0.175313 L 0.564922 0.0454688 L 0.629883 0.240273 Z M 0.759727 0.337656 " transform="matrix(100,0,0,100,450,1700)"/>
<path style="fill:none;stroke-width:0.01;stroke-linecap:butt;stroke-linejoin:miter;stroke:rgb(0%,0%,0%);stroke-opacity:1;stroke-miterlimit:10;" d="M 0.820859 0.508906 L 0.892148 0.651523 L 0.892148 0.811953 L 0.838672 0.86543 L 0.803047 0.829766 L 0.731719 0.811953 L 0.624766 0.954531 L 0.678242 0.758477 L 0.5 0.811953 L 0.357383 0.86543 L 0.642617 0.526719 L 0.446523 0.54457 L 0.286094 0.562383 L 0.107852 0.437617 L 0.143477 0.366328 L 0.303906 0.54457 L 0.517812 0.508906 L 0.66043 0.437617 L 0.571289 0.277188 L 0.410859 0.0454688 L 0.571289 0.152422 L 0.696094 0.312852 L 0.642617 0.0810938 L 0.785195 0.348477 L 0.838672 0.366328 L 0.892148 0.491094 L 0.892148 0.526719 Z M 0.820859 0.508906 " transform="matrix(100,0,0,100,600,1700)"/>
<path style="fill:none;stroke-width:0.01;stroke-linecap:butt;stroke-linejoin:miter;stroke:rgb(0%,0%,0%);stroke-opacity:1;stroke-miterlimit:10;" d="M 0.803047 0.376016 L 0.734141 0.279609 L 0.568867 0.293398 L 0.389805 0.210742 L 0.0454688 0.224531 L 0.320937 0.307148 L 0.169414 0.444922 L 0.362266 0.472461 L 0.582656 0.458672 L 0.555078 0.5 L 0.513789 0.610195 L 0.637734 0.665273 L 0.25207 0.761719 L 0.513789 0.789258 L 0.665273 0.706602 L 0.706602 0.74793 L 0.789258 0.734141 L 0.885664 0.692852 L 0.899453 0.74793 L 0.954531 0.775469 L 0.899453 0.637734 L 0.844336 0.527539 L 0.789258 0.5 Z M 0.803047 0.376016 " transform="matrix(100,0,0,100,0,1850)"/>
<path style="fill:none;stroke-width:0.01;stroke-linecap:butt;stroke-linejoin:miter;stroke:rgb(0%,0%,0%);stroke-opacity:1;stroke-miterlimit:10;" d="M 0.528398 0.0454688 L 0.613633 0.215898 L 0.613633 0.414766 L 0.698867 0.670469 L 0.698867 0.869336 L 0.613633 0.954531 L 0.386367 0.698867 L 0.301133 0.556836 Z M 0.528398 0.0454688 " transform="matrix(100,0,0,100,150,1850)"/>
<path style="fill:none;stroke-width:0.01;stroke-linecap:butt;stroke-linejoin:miter;stroke:rgb(0%,0%,0%);stroke-opacity:1;stroke-miterlimit:10;" d="M 0.954531 0.651523 L 0.91668 0.803047 L 0.897734 0.859844 L 0.746211 0.897734 L 0.575742 0.840898 L 0.159102 0.821953 L 0.443164 0.821953 L 0.462109 0.840898 L 0.310625 0.689375 L 0.0833203 0.670469 L 0.386367 0.651523 L 0.613633 0.765156 L 0.821953 0.803047 L 0.481055 0.727266 L 0.310625 0.594687 L 0.0454687 0.481055 L 0.329531 0.613633 L 0.70832 0.784102 L 0.878789 0.784102 L 0.821953 0.689375 L 0.575742 0.575742 L 0.253789 0.462109 L 0.121211 0.386367 L 0.386367 0.481055 L 0.575742 0.537891 L 0.765156 0.613633 L 0.840898 0.670469 L 0.897734 0.70832 L 0.821953 0.575742 L 0.70832 0.405313 L 0.5 0.310625 L 0.424258 0.272734 L 0.5 0.234844 L 0.651523 0.310625 L 0.746211 0.443164 L 0.784102 0.518945 L 0.878789 0.613633 L 0.859844 0.518945 L 0.878789 0.329531 L 0.954531 0.102266 L 0.897734 0.234844 L 0.746211 0.196953 L 0.746211 0.159102 L 0.859844 0.253789 L 0.821953 0.367422 L 0.840898 0.462109 Z M 0.954531 0.651523 " transform="matrix(100,0,0,100,300,1850)"/>
<path style="fill:none;stroke-width:0.01;stroke-linecap:butt;stroke-linejoin:miter;stroke:rgb(0%,0%,0%);stroke-opacity:1;stroke-miterlimit:10;" d="M 0.849648 0.272734 L 0.791367 0.354297 L 0.698125 0.435898 L 0.604883 0.49418 L 0.465039 0.587422 L 0.383438 0.645703 L 0.418398 0.645703 L 0.511641 0.564102 L 0.604883 0.49418 L 0.756406 0.424258 L 0.791367 0.400938 L 0.721445 0.564102 L 0.651523 0.738945 L 0.593242 0.843828 L 0.744766 0.610703 L 0.791367 0.435898 L 0.791367 0.331016 L 0.93125 0.179492 L 0.826328 0.167852 L 0.709805 0.214453 L 0.604883 0.319336 L 0.581602 0.5175 L 0.593242 0.657344 L 0.593242 0.680664 L 0.558281 0.587422 L 0.593242 0.412578 L 0.593242 0.319336 L 0.465039 0.400938 L 0.301875 0.435898 L 0.290195 0.470859 L 0.430078 0.400938 L 0.5 0.400938 L 0.488359 0.435898 L 0.441719 0.540781 L 0.47668 0.435898 L 0.488359 0.389297 L 0.569922 0.307695 L 0.663164 0.249414 L 0.756406 0.156172 L 0.593242 0.202813 L 0.465039 0.214453 L 0.360156 0.331016 L 0.266914 0.412578 L 0.185313 0.50582 L 0.0454688 0.622383 L 0.115391 0.540781 L 0.231953 0.424258 L 0.325156 0.354297 L 0.220273 0.284375 L 0.371797 0.319336 L 0.301875 0.319336 L 0.395117 0.272734 L 0.47668 0.214453 L 0.674844 0.179492 L 0.814687 0.156172 L 0.954531 0.167852 L 0.91957 0.202813 Z M 0.849648 0.272734 " transform="matrix(100,0,0,100,450,1850)"/>
<path style="fill:none;stroke-width:0.01;stroke-linecap:butt;stroke-linejoin:miter;stroke:rgb(0%,0%,0%);stroke-opacity:1;stroke-miterlimit:10;" d="M 0.846328 0.424258 L 0.781367 0.575742 L 0.759727 0.662344 L 0.586563 0.683984 L 0.456719 0.705625 L 0.326836 0.705625 L 0.196953 0.597422 L 0.0454688 0.51082 L 0.153672 0.467539 L 0.326836 0.294375 L 0.435078 0.316016 L 0.629883 0.424258 L 0.954531 0.380938 L 0.954531 0.445898 Z M 0.846328 0.424258 " transform="matrix(100,0,0,100,600,1850)"/>
<path style="fill:none;stroke-width:0.01;stroke-linecap:butt;stroke-linejoin:miter;stroke:rgb(0%,0%,0%);stroke-opacity:1;stroke-miterlimit:10;" d="M 0.798711 0.564922 L 0.850664 0.642852 L 0.824688 0.746758 L 0.564922 0.746758 L 0.435078 0.590898 L 0.279219 0.512969 L 0.123359 0.357148 L 0.0454688 0.331172 L 0.253242 0.253242 L 0.512969 0.279219 L 0.720781 0.409102 L 0.850664 0.435078 L 0.954531 0.487031 L 0.902578 0.642852 Z M 0.798711 0.564922 " transform="matrix(100,0,0,100,0,2000)"/>
<path style="fill:none;stroke-width:0.01;stroke-linecap:butt;stroke-linejoin:miter;stroke:rgb(0%,0%,0%);stroke-opacity:1;stroke-miterlimit:10;" d="M 0.629883 0.207773 L 0.662344 0.402578 L 0.662344 0.824687 L 0.532461 0.954531 L 0.370117 0.792227 L 0.402578 0.662344 L 0.337656 0.435078 L 0.370117 0.272734 L 0.435078 0.175313 L 0.5 0.0779297 L 0.5 0.0454688 Z M 0.629883 0.207773 " transform="matrix(100,0,0,100,150,2000)"/>
<path style="fill:none;stroke-width:0.01;stroke-linecap:butt;stroke-linejoin:miter;stroke:rgb(0%,0%,0%);stroke-opacity:1;stroke-miterlimit:10;" d="M 0.643086 0.331641 L 0.727266 0.466328 L 0.643086 0.601016 L 0.592578 0.752539 L 0.62625 0.870352 L 0.62625 0.954531 L 0.508398 0.937695 L 0.37375 0.836719 L 0.306406 0.752539 L 0.272734 0.668359 L 0.356914 0.516836 L 0.37375 0.382148 L 0.407422 0.264297 L 0.474766 0.129648 L 0.474766 0.0454688 L 0.54207 0.247461 L 0.592578 0.331641 Z M 0.643086 0.331641 " transform="matrix(100,0,0,100,300,2000)"/>
<path style="fill:none;stroke-width:0.01;stroke-linecap:butt;stroke-linejoin:miter;stroke:rgb(0%,0%,0%);stroke-opacity:1;stroke-miterlimit:10;" d="M 0.56707 0.194492 L 0.671367 0.343516 L 0.805508 0.552148 L 0.805508 0.701211 L 0.775703 0.82043 L 0.686289 0.894922 L 0.56707 0.954531 L 0.403125 0.850234 L 0.23918 0.641562 L 0.194492 0.492539 L 0.224297 0.268984 L 0.283906 0.105078 L 0.37332 0.0454688 L 0.492539 0.194492 Z M 0.56707 0.194492 " transform="matrix(100,0,0,100,450,2000)"/>
<path style="fill:none;stroke-width:0.01;stroke-linecap:butt;stroke-linejoin:miter;stroke:rgb(0%,0%,0%);stroke-opacity:1;stroke-miterlimit:10;" d="M 0.677383 0.289375 L 0.766094 0.577617 L 0.876953 0.666289 L 0.876953 0.799336 L 0.743906 0.910195 L 0.677383 0.954531 L 0.411289 0.910195 L 0.278281 0.821523 L 0.145234 0.710625 L 0.123047 0.488906 L 0.123047 0.400234 L 0.30043 0.178477 L 0.455664 0.0454688 L 0.610859 0.267188 Z M 0.677383 0.289375 " transform="matrix(100,0,0,100,600,2000)"/>
<path style="fill:none;stroke-width:0.01;stroke-linecap:butt;stroke-linejoin:miter;stroke:rgb(0%,0%,0%);stroke-opacity:1;stroke-miterlimit:10;" d="M 0.613633 0.159102 L 0.727266 0.462109 L 0.765156 0.727266 L 0.727266 0.878789 L 0.462109 0.954531 L 0.234844 0.765156 L 0.310625 0.234844 L 0.348477 0.0454688 Z M 0.613633 0.159102 " transform="matrix(100,0,0,100,0,2150)"/>
<path style="fill:none;stroke-width:0.01;stroke-linecap:butt;stroke-linejoin:miter;stroke:rgb(0%,0%,0%);stroke-opacity:1;stroke-miterlimit:10;" d="M 0.827266 0.227266 L 0.718164 0.481836 L 0.790898 0.881836 L 0.572734 0.954531 L 0.318164 0.663633 L 0.172734 0.590898 L 0.245469 0.3 L 0.209102 0.0454688 L 0.5 0.154531 Z M 0.827266 0.227266 " transform="matrix(100,0,0,100,150,2150)"/>
<path style="fill:none;stroke-width:0.01;stroke-linecap:butt;stroke-linejoin:miter;stroke:rgb(0%,0%,0%);stroke-opacity:1;stroke-miterlimit:10;" d="M 0.740625 0.259375 L 0.687148 0.366328 L 0.651523 0.562383 L 0.687148 0.651523 L 0.687148 0.758477 L 0.633672 0.847578 L 0.580195 0.954531 L 0.437617 0.936719 L 0.348477 0.776289 L 0.295 0.615859 L 0.259375 0.437617 L 0.259375 0.277188 L 0.277188 0.170234 L 0.366328 0.116758 L 0.437617 0.0989453 L 0.562383 0.0454688 L 0.615859 0.0810938 L 0.651523 0.170234 Z M 0.740625 0.259375 " transform="matrix(100,0,0,100,300,2150)"/>
<path style="fill:none;stroke-width:0.01;stroke-linecap:butt;stroke-linejoin:miter;stroke:rgb(0%,0%,0%);stroke-opacity:1;stroke-miterlimit:10;" d="M 0.819883 0.281133 L 0.819883 0.58418 L 0.853555 0.819883 L 0.685195 0.954531 L 0.449492 0.920859 L 0.180117 0.887187 L 0.146445 0.58418 L 0.247461 0.382148 L 0.41582 0.180117 L 0.516836 0.146445 L 0.651523 0.0454688 L 0.752539 0.0791406 Z M 0.819883 0.281133 " transform="matrix(100,0,0,100,450,2150)"/>
<path style="fill:none;stroke-width:0.01;stroke-linecap:butt;stroke-linejoin:miter;stroke:rgb(0%,0%,0%);stroke-opacity:1;stroke-miterlimit:10;" d="M 0.954531 0.334727 L 0.74793 0.582656 L 0.623984 0.830586 L 0.376016 0.913242 L 0.0454688 0.789258 L 0.0454688 0.623984 L 0.169414 0.293398 L 0.210742 0.210742 L 0.376016 0.128086 L 0.5 0.0867578 L 0.582656 0.0867578 L 0.706602 0.128086 L 0.830586 0.169414 Z M 0.954531 0.334727 " transform="matrix(100,0,0,100,600,2150)"/>
<path style="fill:none;stroke-width:0.01;stroke-linecap:butt;stroke-linejoin:miter;stroke:rgb(0%,0%,0%);stroke-opacity:1;stroke-miterlimit:10;" d="M 0.443164 0.130664 L 0.670469 0.272734 L 0.954531 0.727266 L 0.954531 0.897734 L 0.698867 0.755664 L 0.471602 0.698867 L 0.301133 0.613633 L 0.102266 0.528398 L 0.0454688 0.301133 L 0.215898 0.159102 L 0.301133 0.102266 Z M 0.443164 0.130664 " transform="matrix(100,0,0,100,0,2300)"/>
<path style="fill:none;stroke-width:0.01;stroke-linecap:butt;stroke-linejoin:miter;stroke:rgb(0%,0%,0%);stroke-opacity:1;stroke-miterlimit:10;" d="M 0.763164 0.308594 L 0.523906 0.069375 L 0.141133 0.069375 L 0.141133 0.404297 L 0.0454687 0.691406 L 0.0454687 0.882773 L 0.236836 0.930625 L 0.428242 0.78707 L 0.619609 0.78707 L 0.90668 0.691406 L 0.954531 0.643555 Z M 0.763164 0.308594 " transform="matrix(100,0,0,100,150,2300)"/>
<path style="fill:none;stroke-width:0.01;stroke-linecap:butt;stroke-linejoin:miter;stroke:rgb(0%,0%,0%);stroke-opacity:1;stroke-miterlimit:10;" d="M 0.654961 0.190078 L 0.510312 0.14875 L 0.386367 0.0454688 L 0.303711 0.0867578 L 0.262383 0.272734 L 0.221094 0.376016 L 0.241719 0.376016 L 0.221094 0.5 L 0.283047 0.60332 L 0.365703 0.665273 L 0.324375 0.789258 L 0.324375 0.933867 L 0.448359 0.954531 L 0.592969 0.768594 L 0.758281 0.768594 L 0.778906 0.623984 L 0.758281 0.25207 Z M 0.654961 0.190078 " transform="matrix(100,0,0,100,300,2300)"/>
<path style="fill:none;stroke-width:0.01;stroke-linecap:butt;stroke-linejoin:miter;stroke:rgb(0%,0%,0%);stroke-opacity:1;stroke-miterlimit:10;" d="M 0.744766 0.395117 L 0.674844 0.604883 L 0.569922 0.849648 L 0.5 0.954531 L 0.395117 0.709805 L 0.255234 0.604883 L 0.150352 0.360156 L 0.360156 0.185313 L 0.430078 0.0454688 L 0.5 0.0804297 L 0.604883 0.150352 L 0.779727 0.220273 L 0.849648 0.255234 Z M 0.744766 0.395117 " transform="matrix(100,0,0,100,450,2300)"/>
<path style="fill:none;stroke-width:0.01;stroke-linecap:butt;stroke-linejoin:miter;stroke:rgb(0%,0%,0%);stroke-opacity:1;stroke-miterlimit:10;" d="M 0.720391 0.238281 L 0.803047 0.486211 L 0.803047 0.651523 L 0.830586 0.816797 L 0.830586 0.954531 L 0.444922 0.954531 L 0.555078 0.789258 L 0.417344 0.734141 L 0.224531 0.596406 L 0.169414 0.403594 L 0.224531 0.238281 L 0.362266 0.100547 L 0.444922 0.0454688 L 0.555078 0.0730078 Z M 0.720391 0.238281 " transform="matrix(100,0,0,100,600,2300)"/>
<path style="fill:none;stroke-width:0.01;stroke-linecap:butt;stroke-linejoin:miter;stroke:rgb(0%,0%,0%);stroke-opacity:1;stroke-miterlimit:10;" d="M 0.78707 0.252773 L 0.78707 0.523906 L 0.723281 0.715312 L 0.67543 0.90668 L 0.515938 0.954531 L 0.420273 0.858867 L 0.388359 0.811016 L 0.32457 0.90668 L 0.260781 0.795039 L 0.276719 0.73125 L 0.181016 0.795039 L 0.165078 0.476094 L 0.260781 0.380391 L 0.308594 0.252773 L 0.388359 0.173047 L 0.563789 0.125195 L 0.691406 0.0454688 L 0.803047 0.0773438 L 0.834922 0.188984 Z M 0.78707 0.252773 " transform="matrix(100,0,0,100,0,2450)"/>
<path style="fill:none;stroke-width:0.01;stroke-linecap:butt;stroke-linejoin:miter;stroke:rgb(0%,0%,0%);stroke-opacity:1;stroke-miterlimit:10;" d="M 0.759727 0.256484 L 0.792227 0.451289 L 0.840898 0.581172 L 0.840898 0.792227 L 0.775977 0.93832 L 0.613633 0.93832 L 0.5 0.954531 L 0.418828 0.873359 L 0.353906 0.840898 L 0.272734 0.792227 L 0.353906 0.678555 L 0.159102 0.581172 L 0.159102 0.386367 L 0.175312 0.240273 L 0.256484 0.110391 L 0.386367 0.126641 L 0.564922 0.126641 L 0.662344 0.0454688 L 0.759727 0.126641 L 0.840898 0.321445 Z M 0.759727 0.256484 " transform="matrix(100,0,0,100,150,2450)"/>
<path style="fill:none;stroke-width:0.01;stroke-linecap:butt;stroke-linejoin:miter;stroke:rgb(0%,0%,0%);stroke-opacity:1;stroke-miterlimit:10;" d="M 0.674844 0.150352 L 0.744766 0.604883 L 0.709805 0.849648 L 0.5 0.954531 L 0.255234 0.744766 L 0.255234 0.465039 L 0.290195 0.290195 L 0.325156 0.0454688 L 0.5 0.0454688 Z M 0.674844 0.150352 " transform="matrix(100,0,0,100,300,2450)"/>
<path style="fill:none;stroke-width:0.01;stroke-linecap:butt;stroke-linejoin:miter;stroke:rgb(0%,0%,0%);stroke-opacity:1;stroke-miterlimit:10;" d="M 0.727266 0.196953 L 0.777773 0.601016 L 0.828281 0.853555 L 0.575742 0.954531 L 0.424258 0.702031 L 0.171719 0.550508 L 0.272734 0.247461 L 0.424258 0.0454688 L 0.676758 0.0454688 Z M 0.727266 0.196953 " transform="matrix(100,0,0,100,450,2450)"/>
<path style="fill:none;stroke-width:0.01;stroke-linecap:butt;stroke-linejoin:miter;stroke:rgb(0%,0%,0%);stroke-opacity:1;stroke-miterlimit:10;" d="M 0.861797 0.286641 L 0.861797 0.546367 L 0.843242 0.769023 L 0.639141 0.861797 L 0.546367 0.824687 L 0.546367 0.917422 L 0.435078 0.917422 L 0.360859 0.806133 L 0.342305 0.954531 L 0.193867 0.769023 L 0.138203 0.583477 L 0.138203 0.416523 L 0.249531 0.249531 L 0.379414 0.156758 L 0.490742 0.0454688 L 0.620586 0.119648 L 0.694805 0.0640234 L 0.750469 0.156758 L 0.843242 0.193867 Z M 0.861797 0.286641 " transform="matrix(100,0,0,100,600,2450)"/>
<path style="fill:none;stroke-width:0.01;stroke-linecap:butt;stroke-linejoin:miter;stroke:rgb(0%,0%,0%);stroke-opacity:1;stroke-miterlimit:10;" d="M 0.898711 0.284688 L 0.866836 0.523906 L 0.803047 0.73125 L 0.707344 0.811016 L 0.579727 0.874805 L 0.436211 0.954531 L 0.32457 0.874805 L 0.181016 0.890742 L 0.101289 0.73125 L 0.101289 0.539883 L 0.228867 0.300625 L 0.404297 0.204961 L 0.531914 0.0773438 L 0.643555 0.0454688 L 0.755195 0.0454688 L 0.866836 0.0933203 Z M 0.898711 0.284688 " transform="matrix(100,0,0,100,0,2600)"/>
<path style="fill:none;stroke-width:0.01;stroke-linecap:butt;stroke-linejoin:miter;stroke:rgb(0%,0%,0%);stroke-opacity:1;stroke-miterlimit:10;" d="M 0.783008 0.234141 L 0.817305 0.405664 L 0.851641 0.611484 L 0.817305 0.817305 L 0.765859 0.937383 L 0.611484 0.954531 L 0.525742 0.748711 L 0.491406 0.714414 L 0.285586 0.800156 L 0.216992 0.697266 L 0.165508 0.577188 L 0.182695 0.491406 L 0.148359 0.405664 L 0.251289 0.337031 L 0.354219 0.302734 L 0.337031 0.199844 L 0.525742 0.148359 L 0.645781 0.114062 L 0.628633 0.0454688 L 0.714414 0.0626172 Z M 0.783008 0.234141 " transform="matrix(100,0,0,100,150,2600)"/>
<path style="fill:none;stroke-width:0.01;stroke-linecap:butt;stroke-linejoin:miter;stroke:rgb(0%,0%,0%);stroke-opacity:1;stroke-miterlimit:10;" d="M 0.727266 0.227266 L 0.590898 0.363633 L 0.545469 0.454531 L 0.636367 0.590898 L 0.681836 0.954531 L 0.454531 0.909102 L 0.318164 0.590898 L 0.272734 0.454531 L 0.363633 0.0908984 L 0.545469 0.0454688 Z M 0.727266 0.227266 " transform="matrix(100,0,0,100,300,2600)"/>
<path style="fill:none;stroke-width:0.01;stroke-linecap:butt;stroke-linejoin:miter;stroke:rgb(0%,0%,0%);stroke-opacity:1;stroke-miterlimit:10;" d="M 0.8125 0.386367 L 0.8125 0.670469 L 0.755664 0.954531 L 0.642031 0.954531 L 0.471602 0.784102 L 0.244336 0.727266 L 0.414766 0.556836 L 0.1875 0.443164 L 0.1875 0.215898 L 0.301133 0.0454688 L 0.414766 0.215898 Z M 0.8125 0.386367 " transform="matrix(100,0,0,100,450,2600)"/>
<path style="fill:none;stroke-width:0.01;stroke-linecap:butt;stroke-linejoin:miter;stroke:rgb(0%,0%,0%);stroke-opacity:1;stroke-miterlimit:10;" d="M 0.698867 0.0454688 L 0.840898 0.329531 L 0.840898 0.698867 L 0.670469 0.784102 L 0.5 0.954531 L 0.215898 0.897734 L 0.159102 0.585234 L 0.159102 0.357969 L 0.244336 0.159102 L 0.414766 0.0454688 L 0.528398 0.0454688 Z M 0.698867 0.0454688 " transform="matrix(100,0,0,100,600,2600)"/>
<path style="fill:none;stroke-width:0.01;stroke-linecap:butt;stroke-linejoin:miter;stroke:rgb(0%,0%,0%);stroke-opacity:1;stroke-miterlimit:10;" d="M 0.822578 0.368047 L 0.88125 0.661289 L 0.851914 0.837227 L 0.793242 0.895898 L 0.675937 0.954531 L 0.470664 0.925234 L 0.324063 0.631953 L 0.206758 0.514648 L 0.11875 0.368047 L 0.11875 0.250742 L 0.294727 0.133437 L 0.353359 0.0454688 L 0.470664 0.162773 L 0.529336 0.19207 L 0.705273 0.162773 L 0.793242 0.19207 Z M 0.822578 0.368047 " transform="matrix(100,0,0,100,0,2750)"/>
<path style="fill:none;stroke-width:0.01;stroke-linecap:butt;stroke-linejoin:miter;stroke:rgb(0%,0%,0%);stroke-opacity:1;stroke-miterlimit:10;" d="M 0.866563 0.324063 L 0.925234 0.529336 L 0.954531 0.734609 L 0.925234 0.851914 L 0.719922 0.88125 L 0.602656 0.88125 L 0.456016 0.675937 L 0.280078 0.617305 L 0.133438 0.587969 L 0.0454687 0.412031 L 0.19207 0.265391 L 0.397344 0.11875 L 0.57332 0.11875 L 0.690625 0.148086 L 0.778594 0.324063 Z M 0.866563 0.324063 " transform="matrix(100,0,0,100,150,2750)"/>
<path style="fill:none;stroke-width:0.01;stroke-linecap:butt;stroke-linejoin:miter;stroke:rgb(0%,0%,0%);stroke-opacity:1;stroke-miterlimit:10;" d="M 0.684258 0.11918 L 0.635117 0.782539 L 0.635117 0.954531 L 0.463164 0.954531 L 0.315742 0.83168 L 0.315742 0.659688 L 0.364883 0.438594 L 0.414023 0.291172 L 0.512266 0.242031 L 0.659687 0.0454688 Z M 0.684258 0.11918 " transform="matrix(100,0,0,100,300,2750)"/>
<path style="fill:none;stroke-width:0.01;stroke-linecap:butt;stroke-linejoin:miter;stroke:rgb(0%,0%,0%);stroke-opacity:1;stroke-miterlimit:10;" d="M 0.697617 0.322148 L 0.658086 0.835977 L 0.539531 0.954531 L 0.381406 0.915039 L 0.341914 0.756914 L 0.302383 0.440703 L 0.302383 0.361641 L 0.420937 0.124492 L 0.460469 0.0454688 L 0.579063 0.0454688 Z M 0.697617 0.322148 " transform="matrix(100,0,0,100,450,2750)"/>
<path style="fill:none;stroke-width:0.01;stroke-linecap:butt;stroke-linejoin:miter;stroke:rgb(0%,0%,0%);stroke-opacity:1;stroke-miterlimit:10;" d="M 0.659688 0.266602 L 0.512266 0.217461 L 0.389453 0.291172 L 0.266602 0.291172 L 0.14375 0.340312 L 0.0454688 0.561406 L 0.0454688 0.757969 L 0.954531 0.782539 L 0.929961 0.659688 L 0.782539 0.438594 Z M 0.659688 0.266602 " transform="matrix(100,0,0,100,600,2750)"/>
<path style="fill:none;stroke-width:0.01;stroke-linecap:butt;stroke-linejoin:miter;stroke:rgb(0%,0%,0%);stroke-opacity:1;stroke-miterlimit:10;" d="M 0.83168 0.0454688 L 0.757969 0.315742 L 0.733398 0.536836 L 0.708828 0.635117 L 0.561406 0.708828 L 0.463164 0.905391 L 0.266602 0.954531 L 0.16832 0.85625 L 0.315742 0.610547 L 0.242031 0.561406 L 0.291172 0.389453 L 0.217461 0.291172 L 0.364883 0.16832 L 0.512266 0.0700391 Z M 0.83168 0.0454688 " transform="matrix(100,0,0,100,0,2900)"/>
<path style="fill:none;stroke-width:0.01;stroke-linecap:butt;stroke-linejoin:miter;stroke:rgb(0%,0%,0%);stroke-opacity:1;stroke-miterlimit:10;" d="M 0.809922 0.169414 L 0.809922 0.913242 L 0.644609 0.954531 L 0.520664 0.954531 L 0.355391 0.789258 L 0.231406 0.582656 L 0.190078 0.293398 L 0.272734 0.169414 L 0.438008 0.128086 L 0.561992 0.0454688 L 0.768594 0.0867578 Z M 0.809922 0.169414 " transform="matrix(100,0,0,100,150,2900)"/>
<path style="fill:none;stroke-width:0.01;stroke-linecap:butt;stroke-linejoin:miter;stroke:rgb(0%,0%,0%);stroke-opacity:1;stroke-miterlimit:10;" d="M 0.775117 0.284688 L 0.775117 0.78707 L 0.799063 0.954531 L 0.559805 0.882773 L 0.368438 0.78707 L 0.296641 0.547852 L 0.200938 0.428242 L 0.248789 0.308594 L 0.41625 0.21293 L 0.511953 0.141133 L 0.703359 0.0454688 Z M 0.775117 0.284688 " transform="matrix(100,0,0,100,300,2900)"/>
<path style="fill:none;stroke-width:0.01;stroke-linecap:butt;stroke-linejoin:miter;stroke:rgb(0%,0%,0%);stroke-opacity:1;stroke-miterlimit:10;" d="M 0.915039 0.401172 L 0.954531 0.598828 L 0.895273 0.796445 L 0.796445 0.875508 L 0.638359 0.737148 L 0.519766 0.677852 L 0.420937 0.796445 L 0.282617 0.756914 L 0.144258 0.638359 L 0.124492 0.5 L 0.0454688 0.401172 L 0.22332 0.243086 L 0.401172 0.282617 L 0.539531 0.322148 L 0.618594 0.203555 L 0.697617 0.124492 L 0.835977 0.144258 Z M 0.915039 0.401172 " transform="matrix(100,0,0,100,450,2900)"/>
<path style="fill:none;stroke-width:0.01;stroke-linecap:butt;stroke-linejoin:miter;stroke:rgb(0%,0%,0%);stroke-opacity:1;stroke-miterlimit:10;" d="M 0.692852 0.238281 L 0.775469 0.376016 L 0.803047 0.513789 L 0.803047 0.734141 L 0.692852 0.789258 L 0.582656 0.871914 L 0.472461 0.954531 L 0.334727 0.871914 L 0.307148 0.734141 L 0.196953 0.596406 L 0.25207 0.486211 L 0.307148 0.348477 L 0.307148 0.238281 L 0.334727 0.128086 L 0.444922 0.0730078 L 0.555078 0.0454688 L 0.637734 0.155664 Z M 0.692852 0.238281 " transform="matrix(100,0,0,100,600,2900)"/>
<path style="fill:none;stroke-width:0.01;stroke-linecap:butt;stroke-linejoin:miter;stroke:rgb(0%,0%,0%);stroke-opacity:1;stroke-miterlimit:10;" d="M 0.844844 0.29625 L 0.844844 0.515664 L 0.719453 0.797812 L 0.625391 0.891836 L 0.311914 0.954531 L 0.249219 0.797812 L 0.155156 0.547031 L 0.249219 0.421641 L 0.280547 0.233555 L 0.217852 0.0454688 L 0.468633 0.0454688 L 0.688086 0.170859 Z M 0.844844 0.29625 " transform="matrix(100,0,0,100,0,3050)"/>
<path style="fill:none;stroke-width:0.01;stroke-linecap:butt;stroke-linejoin:miter;stroke:rgb(0%,0%,0%);stroke-opacity:1;stroke-miterlimit:10;" d="M 0.803047 0.0454688 L 0.803047 0.348477 L 0.629883 0.435078 L 0.803047 0.738086 L 0.673164 0.954531 L 0.413438 0.824687 L 0.240273 0.521641 L 0.196953 0.261914 L 0.413438 0.08875 L 0.5 0.08875 Z M 0.803047 0.0454688 " transform="matrix(100,0,0,100,150,3050)"/>
<path style="fill:none;stroke-width:0.01;stroke-linecap:butt;stroke-linejoin:miter;stroke:rgb(0%,0%,0%);stroke-opacity:1;stroke-miterlimit:10;" d="M 0.736367 0.409102 L 0.663633 0.518164 L 0.845469 0.772734 L 0.772734 0.881836 L 0.590898 0.954531 L 0.190898 0.772734 L 0.154531 0.518164 L 0.336367 0.336367 L 0.481836 0.336367 L 0.663633 0.190898 L 0.663633 0.0454688 L 0.736367 0.336367 Z M 0.736367 0.409102 " transform="matrix(100,0,0,100,300,3050)"/>
<path style="fill:none;stroke-width:0.01;stroke-linecap:butt;stroke-linejoin:miter;stroke:rgb(0%,0%,0%);stroke-opacity:1;stroke-miterlimit:10;" d="M 0.62625 0.247461 L 0.828281 0.803047 L 0.575742 0.803047 L 0.474766 0.954531 L 0.222227 0.904023 L 0.171719 0.5 L 0.323242 0.449492 L 0.171719 0.146445 L 0.272734 0.0959766 L 0.37375 0.0454688 L 0.525234 0.0454688 Z M 0.62625 0.247461 " transform="matrix(100,0,0,100,450,3050)"/>
<path style="fill:none;stroke-width:0.01;stroke-linecap:butt;stroke-linejoin:miter;stroke:rgb(0%,0%,0%);stroke-opacity:1;stroke-miterlimit:10;" d="M 0.709805 0.115391 L 0.779727 0.360156 L 0.744766 0.709805 L 0.727266 0.867148 L 0.692305 0.954531 L 0.5175 0.762227 L 0.412578 0.639844 L 0.307695 0.587422 L 0.220273 0.412578 L 0.272734 0.325156 L 0.360156 0.237773 L 0.4825 0.115391 L 0.622383 0.0454688 Z M 0.709805 0.115391 " transform="matrix(100,0,0,100,600,3050)"/>
<path style="fill:none;stroke-width:0.01;stroke-linecap:butt;stroke-linejoin:miter;stroke:rgb(0%,0%,0%);stroke-opacity:1;stroke-miterlimit:10;" d="M 0.651523 0.116172 L 0.651523 0.328281 L 0.641406 0.409102 L 0.601016 0.479805 L 0.58082 0.520195 L 0.58082 0.601016 L 0.601016 0.691914 L 0.570703 0.782812 L 0.590898 0.87375 L 0.550508 0.954531 L 0.5 0.924258 L 0.439375 0.863633 L 0.409102 0.782812 L 0.409102 0.681836 L 0.348477 0.560625 L 0.368672 0.398984 L 0.439375 0.186875 L 0.439375 0.0555469 L 0.540391 0.0454687 L 0.601016 0.0656641 Z M 0.651523 0.116172 " transform="matrix(100,0,0,100,0,3200)"/>
<path style="fill:none;stroke-width:0.01;stroke-linecap:butt;stroke-linejoin:miter;stroke:rgb(0%,0%,0%);stroke-opacity:1;stroke-miterlimit:10;" d="M 0.633242 0.139492 L 0.66457 0.280547 L 0.680234 0.515664 L 0.695937 0.578359 L 0.66457 0.688086 L 0.601875 0.797812 L 0.633242 0.954531 L 0.523516 0.923203 L 0.382461 0.844844 L 0.304063 0.688086 L 0.319766 0.468633 L 0.351094 0.358945 L 0.429453 0.155156 L 0.53918 0.0454687 L 0.601875 0.0924609 Z M 0.633242 0.139492 " transform="matrix(100,0,0,100,150,3200)"/>
<path style="fill:none;stroke-width:0.01;stroke-linecap:butt;stroke-linejoin:miter;stroke:rgb(0%,0%,0%);stroke-opacity:1;stroke-miterlimit:10;" d="M 0.602656 0.954531 L 0.456016 0.954531 L 0.250742 0.778594 L 0.19207 0.602656 L 0.368047 0.456016 L 0.485352 0.397344 L 0.397344 0.162773 L 0.690625 0.0454687 L 0.719922 0.133437 L 0.778594 0.309375 L 0.80793 0.485352 L 0.778594 0.719922 Z M 0.602656 0.954531 " transform="matrix(100,0,0,100,300,3200)"/>
<path style="fill:none;stroke-width:0.01;stroke-linecap:butt;stroke-linejoin:miter;stroke:rgb(0%,0%,0%);stroke-opacity:1;stroke-miterlimit:10;" d="M 0.564922 0.954531 L 0.380937 0.954531 L 0.380937 0.936523 L 0.406211 0.882383 L 0.417031 0.857148 L 0.427852 0.835508 L 0.427852 0.824688 L 0.431445 0.817461 L 0.431445 0.803047 L 0.420625 0.777773 L 0.417031 0.785 L 0.445898 0.785 L 0.442266 0.777773 L 0.431445 0.770547 L 0.456719 0.77418 L 0.48918 0.770547 L 0.503594 0.759727 L 0.51082 0.745312 L 0.539688 0.694805 L 0.539688 0.687578 L 0.536094 0.673164 L 0.521641 0.662344 L 0.507227 0.651523 L 0.532461 0.62625 L 0.507227 0.611836 L 0.496406 0.601016 L 0.48918 0.590195 L 0.471133 0.586562 L 0.492773 0.575742 L 0.456719 0.564922 L 0.492773 0.550508 L 0.5 0.528867 L 0.503594 0.503594 L 0.503594 0.463906 L 0.445898 0.445898 L 0.460312 0.435078 L 0.518047 0.38457 L 0.514414 0.348477 L 0.503594 0.341289 L 0.48918 0.33043 L 0.478359 0.33043 L 0.463906 0.326836 L 0.460312 0.301602 L 0.467539 0.287148 L 0.478359 0.301602 L 0.496406 0.308789 L 0.507227 0.312422 L 0.525234 0.283555 L 0.525234 0.269102 L 0.496406 0.258281 L 0.463906 0.240273 L 0.485586 0.236641 L 0.445898 0.196953 L 0.474766 0.186133 L 0.474766 0.164492 L 0.496406 0.157305 L 0.521641 0.128438 L 0.507227 0.117617 L 0.521641 0.103164 L 0.543281 0.08875 L 0.543281 0.0742969 L 0.463906 0.0526562 L 0.463906 0.0454687 L 0.619063 0.0454687 L 0.619063 0.925703 L 0.61543 0.954531 Z M 0.564922 0.954531 " transform="matrix(100,0,0,100,450,3200)"/>
<path style="fill:none;stroke-width:0.01;stroke-linecap:butt;stroke-linejoin:miter;stroke:rgb(0%,0%,0%);stroke-opacity:1;stroke-miterlimit:10;" d="M 0.646367 0.245781 L 0.692617 0.369023 L 0.646367 0.430664 L 0.677188 0.615547 L 0.677188 0.90832 L 0.615547 0.954531 L 0.507695 0.954531 L 0.384453 0.8775 L 0.353633 0.800469 L 0.307383 0.738828 L 0.322813 0.630977 L 0.307383 0.523125 L 0.353633 0.523125 L 0.353633 0.476875 L 0.307383 0.399844 L 0.322813 0.322812 L 0.384453 0.322812 L 0.430664 0.199531 L 0.476875 0.0454687 L 0.569336 0.137891 L 0.615547 0.168711 Z M 0.646367 0.245781 " transform="matrix(100,0,0,100,600,3200)"/>
<path style="fill:none;stroke-width:0.01;stroke-linecap:butt;stroke-linejoin:miter;stroke:rgb(0%,0%,0%);stroke-opacity:1;stroke-miterlimit:10;" d="M 0.819883 0.213789 L 0.786211 0.41582 L 0.920859 0.651523 L 0.954531 0.853555 L 0.786211 0.920859 L 0.516836 0.954531 L 0.314805 0.752539 L 0.146445 0.550508 L 0.180117 0.382148 L 0.0454688 0.314805 L 0.281133 0.314805 L 0.247461 0.247461 L 0.146445 0.0454687 L 0.516836 0.112813 L 0.752539 0.112813 Z M 0.819883 0.213789 " transform="matrix(100,0,0,100,0,3350)"/>
<path style="fill:none;stroke-width:0.01;stroke-linecap:butt;stroke-linejoin:miter;stroke:rgb(0%,0%,0%);stroke-opacity:1;stroke-miterlimit:10;" d="M 0.795469 0.5 L 0.681836 0.636367 L 0.590898 0.840898 L 0.5 0.954531 L 0.340898 0.954531 L 0.204531 0.613633 L 0.227266 0.477266 L 0.363633 0.272734 L 0.454531 0.0908984 L 0.522734 0.0454687 L 0.704531 0.0681641 L 0.772734 0.113633 L 0.772734 0.340898 L 0.795469 0.409102 Z M 0.795469 0.5 " transform="matrix(100,0,0,100,150,3350)"/>
<path style="fill:none;stroke-width:0.01;stroke-linecap:butt;stroke-linejoin:miter;stroke:rgb(0%,0%,0%);stroke-opacity:1;stroke-miterlimit:10;" d="M 0.670469 0.0908984 L 0.715898 0.363633 L 0.625 0.568164 L 0.647734 0.863633 L 0.625 0.931836 L 0.420469 0.954531 L 0.465898 0.75 L 0.284102 0.636367 L 0.488633 0.431836 L 0.511367 0.295469 L 0.602266 0.159102 L 0.693164 0.0454687 Z M 0.670469 0.0908984 " transform="matrix(100,0,0,100,300,3350)"/>
<path style="fill:none;stroke-width:0.01;stroke-linecap:butt;stroke-linejoin:miter;stroke:rgb(0%,0%,0%);stroke-opacity:1;stroke-miterlimit:10;" d="M 0.727266 0.196953 L 0.676758 0.449492 L 0.727266 0.676758 L 0.727266 0.752539 L 0.601016 0.954531 L 0.449492 0.954531 L 0.575742 0.676758 L 0.702031 0.575742 L 0.474766 0.575742 L 0.323242 0.525234 L 0.272734 0.37375 L 0.323242 0.171719 L 0.474766 0.0959766 L 0.550508 0.0454687 Z M 0.727266 0.196953 " transform="matrix(100,0,0,100,450,3350)"/>
<path style="fill:none;stroke-width:0.01;stroke-linecap:butt;stroke-linejoin:miter;stroke:rgb(0%,0%,0%);stroke-opacity:1;stroke-miterlimit:10;" d="M 0.693516 0.171484 L 0.675508 0.333477 L 0.675508 0.414492 L 0.6575 0.513516 L 0.639531 0.630508 L 0.6125 0.738516 L 0.621523 0.846523 L 0.6125 0.918555 L 0.576523 0.954531 L 0.513516 0.936563 L 0.459492 0.882539 L 0.441484 0.801523 L 0.369492 0.765508 L 0.315469 0.675508 L 0.333477 0.603516 L 0.378477 0.549492 L 0.315469 0.495508 L 0.306484 0.423477 L 0.333477 0.3425 L 0.360469 0.261484 L 0.4325 0.171484 L 0.504492 0.162461 L 0.5675 0.0994531 L 0.621523 0.0454687 L 0.639531 0.0724609 L 0.666523 0.126445 Z M 0.693516 0.171484 " transform="matrix(100,0,0,100,600,3350)"/>
<path style="fill:none;stroke-width:0.01;stroke-linecap:butt;stroke-linejoin:miter;stroke:rgb(0%,0%,0%);stroke-opacity:1;stroke-miterlimit:10;" d="M 0.704531 0.257578 L 0.765156 0.318164 L 0.795469 0.424258 L 0.780312 0.560625 L 0.719688 0.66668 L 0.613633 0.787891 L 0.477266 0.924258 L 0.41668 0.954531 L 0.462109 0.863633 L 0.431836 0.803047 L 0.386367 0.696953 L 0.356055 0.66668 L 0.265156 0.681836 L 0.204531 0.621211 L 0.204531 0.530313 L 0.265156 0.484844 L 0.310625 0.393945 L 0.310625 0.303047 L 0.340898 0.181836 L 0.41668 0.136367 L 0.537891 0.0757422 L 0.598477 0.0454687 L 0.659102 0.121211 L 0.704531 0.196953 L 0.75 0.227266 L 0.765156 0.257578 Z M 0.704531 0.257578 " transform="matrix(100,0,0,100,0,3500)"/>
<path style="fill:none;stroke-width:0.01;stroke-linecap:butt;stroke-linejoin:miter;stroke:rgb(0%,0%,0%);stroke-opacity:1;stroke-miterlimit:10;" d="M 0.83168 0.0454687 L 0.782539 0.315742 L 0.782539 0.536836 L 0.708828 0.757969 L 0.561406 0.929961 L 0.487734 0.954531 L 0.389453 0.88082 L 0.242031 0.85625 L 0.16832 0.85625 L 0.364883 0.757969 L 0.414023 0.635117 L 0.340313 0.585977 L 0.291172 0.585977 L 0.291172 0.536836 L 0.266602 0.438594 L 0.315742 0.315742 L 0.389453 0.291172 L 0.487734 0.266602 L 0.561406 0.266602 L 0.757969 0.11918 Z M 0.83168 0.0454687 " transform="matrix(100,0,0,100,150,3500)"/>
<path style="fill:none;stroke-width:0.01;stroke-linecap:butt;stroke-linejoin:miter;stroke:rgb(0%,0%,0%);stroke-opacity:1;stroke-miterlimit:10;" d="M 0.527539 0.0730078 L 0.720391 0.0454687 L 0.858125 0.238281 L 0.913242 0.431133 L 0.940781 0.789258 L 0.775469 0.954531 L 0.444922 0.954531 L 0.389805 0.816797 L 0.224531 0.679063 L 0.0592187 0.651523 L 0.25207 0.596406 L 0.196953 0.513789 L 0.25207 0.431133 L 0.279609 0.403594 L 0.362266 0.293398 L 0.417344 0.210742 L 0.307148 0.128086 Z M 0.527539 0.0730078 " transform="matrix(100,0,0,100,300,3500)"/>
<path style="fill:none;stroke-width:0.01;stroke-linecap:butt;stroke-linejoin:miter;stroke:rgb(0%,0%,0%);stroke-opacity:1;stroke-miterlimit:10;" d="M 0.889609 0.305195 L 0.846328 0.521641 L 0.824688 0.651523 L 0.716445 0.694805 L 0.608242 0.738086 L 0.435078 0.846328 L 0.283555 0.954531 L 0.153672 0.867969 L 0.218633 0.803047 L 0.348477 0.694805 L 0.456719 0.651523 L 0.348477 0.629883 L 0.175313 0.673164 L 0.110391 0.716445 L 0.132031 0.651523 L 0.175313 0.586562 L 0.391758 0.521641 L 0.564922 0.478359 L 0.478359 0.456719 L 0.283555 0.456719 L 0.283555 0.348477 L 0.608242 0.348477 L 0.370117 0.283555 L 0.153672 0.196953 L 0.348477 0.175313 L 0.629883 0.240273 L 0.543281 0.196953 L 0.283555 0.0454687 L 0.370117 0.0454687 L 0.543281 0.175313 L 0.608242 0.196953 L 0.716445 0.175313 L 0.803047 0.153672 L 0.867969 0.132031 Z M 0.889609 0.305195 " transform="matrix(100,0,0,100,450,3500)"/>
<path style="fill:none;stroke-width:0.01;stroke-linecap:butt;stroke-linejoin:miter;stroke:rgb(0%,0%,0%);stroke-opacity:1;stroke-miterlimit:10;" d="M 0.348477 0.476992 L 0.302461 0.465469 L 0.24875 0.453984 L 0.145195 0.442461 L 0.0761328 0.438633 L 0.225742 0.381094 L 0.237227 0.384922 L 0.218086 0.354258 L 0.202734 0.365742 L 0.145195 0.354258 L 0.11832 0.319727 L 0.175859 0.319727 L 0.149023 0.273672 L 0.233398 0.315898 L 0.264102 0.319727 L 0.187383 0.269844 L 0.218086 0.258359 L 0.279453 0.300547 L 0.313945 0.296719 L 0.325469 0.292852 L 0.325469 0.285195 L 0.36 0.308203 L 0.37918 0.300547 L 0.363828 0.281367 L 0.26793 0.22 L 0.336992 0.235312 L 0.371484 0.235312 L 0.398359 0.243008 L 0.429023 0.254492 L 0.444375 0.269844 L 0.482734 0.243008 L 0.513438 0.23918 L 0.540273 0.269844 L 0.563281 0.269844 L 0.593984 0.250664 L 0.628516 0.227656 L 0.670703 0.204648 L 0.701367 0.196953 L 0.728242 0.189297 L 0.743594 0.170117 L 0.712891 0.327383 L 0.735898 0.315898 L 0.781914 0.254492 L 0.816445 0.216133 L 0.850977 0.196953 L 0.839453 0.23918 L 0.812617 0.292852 L 0.858633 0.235312 L 0.896992 0.181641 L 0.920039 0.166289 L 0.927695 0.154766 L 0.893164 0.196953 L 0.873984 0.22 L 0.908516 0.22 L 0.950703 0.204648 L 0.946875 0.208477 L 0.904688 0.227656 L 0.854805 0.273672 L 0.827969 0.296719 L 0.885508 0.273672 L 0.927695 0.254492 L 0.946875 0.250664 L 0.950703 0.235312 L 0.950703 0.250664 L 0.954531 0.254492 L 0.935352 0.269844 L 0.893164 0.285195 L 0.835625 0.296719 L 0.827969 0.312031 L 0.912344 0.292852 L 0.939219 0.285195 L 0.943047 0.304375 L 0.931523 0.304375 L 0.900859 0.319727 L 0.866328 0.346562 L 0.824141 0.373398 L 0.816445 0.381094 L 0.88168 0.400273 L 0.916172 0.404102 L 0.935352 0.40793 L 0.950703 0.411758 L 0.939219 0.434805 L 0.896992 0.446289 L 0.866328 0.415625 L 0.808789 0.400273 L 0.774258 0.400273 L 0.747422 0.40793 L 0.774258 0.430937 L 0.785781 0.442461 L 0.778086 0.457813 L 0.758906 0.469297 L 0.827969 0.457813 L 0.850977 0.461641 L 0.858633 0.457813 L 0.781914 0.465469 L 0.762773 0.465469 L 0.801094 0.496172 L 0.808789 0.526836 L 0.812617 0.546016 L 0.797266 0.557539 L 0.766602 0.561367 L 0.758906 0.569063 L 0.820273 0.572891 L 0.858633 0.634258 L 0.870156 0.680273 L 0.889336 0.718633 L 0.88168 0.753164 L 0.858633 0.684102 L 0.831797 0.622734 L 0.808789 0.595898 L 0.762773 0.584375 L 0.720547 0.569063 L 0.762773 0.603555 L 0.778086 0.649609 L 0.774258 0.680273 L 0.808789 0.714805 L 0.820273 0.764688 L 0.820273 0.795352 L 0.774258 0.737813 L 0.755078 0.687969 L 0.720547 0.699453 L 0.739727 0.745508 L 0.701367 0.76082 L 0.709062 0.803047 L 0.716719 0.829883 L 0.670703 0.841406 L 0.651523 0.818359 L 0.64 0.822227 L 0.632344 0.845234 L 0.624648 0.818359 L 0.590156 0.833711 L 0.593984 0.845234 L 0.582461 0.818359 L 0.574805 0.795352 L 0.559453 0.841406 L 0.551797 0.845234 L 0.498086 0.845234 L 0.524922 0.810703 L 0.478906 0.822227 L 0.432891 0.845234 L 0.421367 0.837539 L 0.440547 0.806875 L 0.475078 0.753164 L 0.501914 0.714805 L 0.448203 0.753164 L 0.432891 0.776172 L 0.421367 0.741641 L 0.398359 0.733984 L 0.386836 0.783867 L 0.375352 0.753164 L 0.367656 0.791523 L 0.352305 0.749336 L 0.325469 0.733984 L 0.283281 0.814531 L 0.264102 0.78 L 0.202734 0.806875 L 0.210391 0.756992 L 0.141367 0.768516 L 0.0454688 0.837539 L 0.106836 0.768516 L 0.114492 0.741641 L 0.0607812 0.737813 L 0.126016 0.737813 L 0.0607812 0.680273 L 0.106836 0.622734 L 0.1375 0.584375 L 0.149023 0.588242 L 0.172031 0.565195 L 0.210391 0.549883 L 0.195039 0.51918 L 0.233398 0.534531 L 0.283281 0.476992 Z M 0.348477 0.476992 " transform="matrix(100,0,0,100,600,3500)"/>
<path style="fill:none;stroke-width:0.01;stroke-linecap:butt;stroke-linejoin:miter;stroke:rgb(0%,0%,0%);stroke-opacity:1;stroke-miterlimit:10;" d="M 0.412969 0.0841406 L 0.509687 0.142148 L 0.625742 0.200195 L 0.722422 0.393633 L 0.741797 0.490313 L 0.741797 0.587031 L 0.625742 0.606367 L 0.625742 0.722422 L 0.645078 0.857852 L 0.664414 0.954531 L 0.567695 0.935195 L 0.490312 0.857852 L 0.335586 0.68375 L 0.335586 0.548359 L 0.296914 0.393633 L 0.258203 0.258203 L 0.258203 0.122813 L 0.335586 0.0454687 Z M 0.412969 0.0841406 " transform="matrix(100,0,0,100,0,3650)"/>
<path style="fill:none;stroke-width:0.01;stroke-linecap:butt;stroke-linejoin:miter;stroke:rgb(0%,0%,0%);stroke-opacity:1;stroke-miterlimit:10;" d="M 0.917773 0.725977 L 0.0454687 0.725977 L 0.0559766 0.552539 L 0.218867 0.484219 L 0.234648 0.478984 L 0.213594 0.5 L 0.197852 0.521016 L 0.150547 0.557813 L 0.15582 0.56832 L 0.208359 0.563047 L 0.260898 0.526289 L 0.292422 0.531523 L 0.323945 0.473711 L 0.408047 0.468477 L 0.429063 0.473711 L 0.43957 0.5 L 0.455352 0.494727 L 0.455352 0.468477 L 0.497383 0.447461 L 0.486875 0.400156 L 0.507891 0.358125 L 0.549922 0.373867 L 0.565703 0.352852 L 0.576211 0.342344 L 0.570937 0.300313 L 0.618242 0.326602 L 0.660273 0.337109 L 0.670781 0.337109 L 0.676055 0.321328 L 0.649766 0.284531 L 0.676055 0.274023 L 0.69707 0.279297 L 0.707578 0.316094 L 0.712813 0.352852 L 0.72332 0.379141 L 0.733828 0.384375 L 0.760117 0.40543 L 0.791641 0.40543 L 0.802148 0.43168 L 0.807422 0.447461 L 0.833672 0.468477 L 0.854688 0.489492 L 0.88625 0.494727 L 0.88625 0.510508 L 0.901992 0.536797 L 0.917773 0.531523 L 0.9125 0.578828 L 0.933516 0.605078 L 0.954531 0.589336 L 0.938789 0.615625 L 0.938789 0.657656 L 0.933516 0.673398 L 0.907266 0.710195 Z M 0.917773 0.725977 " transform="matrix(100,0,0,100,150,3650)"/>
<path style="fill:none;stroke-width:0.01;stroke-linecap:butt;stroke-linejoin:miter;stroke:rgb(0%,0%,0%);stroke-opacity:1;stroke-miterlimit:10;" d="M 0.827266 0.0454687 L 0.9 0.481836 L 0.827266 0.627266 L 0.827266 0.772734 L 0.790898 0.881836 L 0.718164 0.954531 L 0.609102 0.736367 L 0.536367 0.627266 L 0.172734 0.627266 L 0.390898 0.518164 L 0.209102 0.518164 L 0.1 0.409102 L 0.136367 0.3 L 0.281836 0.336367 L 0.318164 0.372734 L 0.354531 0.336367 L 0.318164 0.190898 L 0.536367 0.3 L 0.609102 0.372734 L 0.681836 0.263633 Z M 0.827266 0.0454687 " transform="matrix(100,0,0,100,300,3650)"/>
<path style="fill:none;stroke-width:0.01;stroke-linecap:butt;stroke-linejoin:miter;stroke:rgb(0%,0%,0%);stroke-opacity:1;stroke-miterlimit:10;" d="M 0.727266 0.954531 L 0.64707 0.847578 L 0.459883 0.606953 L 0.379688 0.473281 L 0.219258 0.312852 L 0.379688 0.312852 L 0.406406 0.152422 L 0.433164 0.0454687 L 0.540117 0.0989453 L 0.566836 0.259375 L 0.540117 0.33957 L 0.700547 0.286094 L 0.700547 0.419805 L 0.673789 0.553477 L 0.780742 0.687148 L 0.780742 0.767383 Z M 0.727266 0.954531 " transform="matrix(100,0,0,100,450,3650)"/>
<path style="fill:none;stroke-width:0.01;stroke-linecap:butt;stroke-linejoin:miter;stroke:rgb(0%,0%,0%);stroke-opacity:1;stroke-miterlimit:10;" d="M 0.534141 0.340117 L 0.534141 0.0454687 L 0.498203 0.0454687 L 0.491016 0.0598437 L 0.508984 0.0670312 L 0.491016 0.0849609 L 0.487422 0.110117 L 0.494609 0.153242 L 0.476641 0.174805 L 0.465859 0.18918 L 0.480234 0.214336 L 0.491016 0.24668 L 0.491016 0.264648 L 0.473047 0.296992 L 0.473047 0.318555 L 0.491016 0.365234 L 0.498203 0.397578 L 0.501797 0.419141 L 0.491016 0.444297 L 0.494609 0.469453 L 0.505391 0.483828 L 0.519766 0.505391 L 0.519766 0.519766 L 0.505391 0.552109 L 0.516172 0.573672 L 0.519766 0.588047 L 0.501797 0.602422 L 0.512578 0.627578 L 0.505391 0.652695 L 0.508984 0.659883 L 0.501797 0.677852 L 0.516172 0.69582 L 0.523359 0.713789 L 0.526953 0.742539 L 0.516172 0.774883 L 0.498203 0.785664 L 0.501797 0.796445 L 0.498203 0.814414 L 0.512578 0.821602 L 0.519766 0.850352 L 0.523359 0.857539 L 0.526953 0.875508 L 0.508984 0.889883 L 0.494609 0.904258 L 0.483828 0.918594 L 0.483828 0.936563 L 0.494609 0.947344 L 0.491016 0.950938 L 0.534141 0.954531 L 0.534141 0.501797 Z M 0.534141 0.340117 " transform="matrix(100,0,0,100,600,3650)"/>
<path style="fill:none;stroke-width:0.01;stroke-linecap:butt;stroke-linejoin:miter;stroke:rgb(0%,0%,0%);stroke-opacity:1;stroke-miterlimit:10;" d="M 0.642422 0.936367 L 0.636367 0.954531 L 0.357578 0.954531 L 0.375742 0.924258 L 0.387891 0.9 L 0.381836 0.881836 L 0.369688 0.863633 L 0.381836 0.83332 L 0.412109 0.815156 L 0.418164 0.815156 L 0.424258 0.784844 L 0.412109 0.772734 L 0.406055 0.748477 L 0.442422 0.742422 L 0.454531 0.730313 L 0.418164 0.7 L 0.448477 0.675742 L 0.454531 0.657578 L 0.454531 0.621211 L 0.448477 0.596953 L 0.460625 0.56668 L 0.484844 0.554531 L 0.472734 0.524258 L 0.478789 0.5 L 0.509102 0.487891 L 0.521211 0.463633 L 0.53332 0.427266 L 0.521211 0.415156 L 0.509102 0.378789 L 0.521211 0.36668 L 0.557578 0.354531 L 0.587891 0.342422 L 0.563633 0.312109 L 0.581836 0.293945 L 0.612109 0.263633 L 0.624258 0.251523 L 0.593945 0.227266 L 0.587891 0.203047 L 0.612109 0.203047 L 0.606055 0.190898 L 0.6 0.16668 L 0.624258 0.178789 L 0.630313 0.178789 L 0.642422 0.16668 L 0.612109 0.142422 L 0.630313 0.130313 L 0.636367 0.106055 L 0.642422 0.0757422 L 0.624258 0.0454687 L 0.630313 0.0515234 L 0.642422 0.136367 L 0.642422 0.239375 L 0.636367 0.396953 L 0.642422 0.572734 L 0.642422 0.76668 Z M 0.642422 0.936367 " transform="matrix(100,0,0,100,0,3800)"/>
<path style="fill:none;stroke-width:0.01;stroke-linecap:butt;stroke-linejoin:miter;stroke:rgb(0%,0%,0%);stroke-opacity:1;stroke-miterlimit:10;" d="M 0.564375 0.196953 L 0.571953 0.575742 L 0.571953 0.939375 L 0.564375 0.954531 L 0.488633 0.946953 L 0.473477 0.795469 L 0.443164 0.719687 L 0.481055 0.462109 L 0.465898 0.257578 L 0.428047 0.0530469 L 0.428047 0.0454687 L 0.488633 0.0908984 L 0.571953 0.136367 Z M 0.564375 0.196953 " transform="matrix(100,0,0,100,150,3800)"/>
<path style="fill:none;stroke-width:0.01;stroke-linecap:butt;stroke-linejoin:miter;stroke:rgb(0%,0%,0%);stroke-opacity:1;stroke-miterlimit:10;" d="M 0.688086 0.954531 L 0.586211 0.946719 L 0.594063 0.876172 L 0.547031 0.860508 L 0.507852 0.899687 L 0.445156 0.891836 L 0.492148 0.836992 L 0.492148 0.813477 L 0.398125 0.711602 L 0.445156 0.633242 L 0.46082 0.66457 L 0.476484 0.656758 L 0.53918 0.617539 L 0.547031 0.578359 L 0.523516 0.53918 L 0.5 0.507852 L 0.594063 0.398125 L 0.648906 0.327578 L 0.523516 0.249219 L 0.445156 0.25707 L 0.398125 0.280547 L 0.319766 0.233555 L 0.311914 0.194375 L 0.374609 0.115977 L 0.413789 0.115977 L 0.445156 0.13168 L 0.445156 0.186523 L 0.452969 0.202188 L 0.523516 0.170859 L 0.547031 0.123828 L 0.570547 0.0846484 L 0.617539 0.0689844 L 0.66457 0.0532812 L 0.688086 0.0454687 L 0.680234 0.813477 Z M 0.688086 0.954531 " transform="matrix(100,0,0,100,300,3800)"/>
<path style="fill:none;stroke-width:0.01;stroke-linecap:butt;stroke-linejoin:miter;stroke:rgb(0%,0%,0%);stroke-opacity:1;stroke-miterlimit:10;" d="M 0.631016 0.94918 L 0.433164 0.954531 L 0.406406 0.933164 L 0.417109 0.885039 L 0.427812 0.842227 L 0.417109 0.794102 L 0.395703 0.745977 L 0.374336 0.729961 L 0.310156 0.713906 L 0.299453 0.6925 L 0.278086 0.665781 L 0.326211 0.639023 L 0.35293 0.612305 L 0.358281 0.537422 L 0.374336 0.473281 L 0.368984 0.419805 L 0.395703 0.40375 L 0.411758 0.419805 L 0.438516 0.414453 L 0.497344 0.585547 L 0.518711 0.633672 L 0.55082 0.665781 L 0.566836 0.713906 L 0.588242 0.703203 L 0.566836 0.633672 L 0.566836 0.569531 L 0.545469 0.542773 L 0.556133 0.473281 L 0.561484 0.43582 L 0.577539 0.387695 L 0.556133 0.398398 L 0.459883 0.393047 L 0.411758 0.382344 L 0.336914 0.382344 L 0.278086 0.387695 L 0.417109 0.387695 L 0.475937 0.350273 L 0.534766 0.344922 L 0.561484 0.33957 L 0.631016 0.33957 L 0.631016 0.3075 L 0.545469 0.296797 L 0.459883 0.280742 L 0.363633 0.237969 L 0.304805 0.205898 L 0.406406 0.259375 L 0.481289 0.280742 L 0.556133 0.286094 L 0.577539 0.291445 L 0.593594 0.280742 L 0.593594 0.237969 L 0.577539 0.211211 L 0.593594 0.189844 L 0.614961 0.173789 L 0.604297 0.163086 L 0.636367 0.141719 L 0.636367 0.131016 L 0.614961 0.109609 L 0.588242 0.0935938 L 0.566836 0.0668359 L 0.561484 0.0454687 L 0.582891 0.0561328 L 0.609609 0.0614844 L 0.652422 0.0614844 L 0.684492 0.0721875 L 0.705898 0.0935938 L 0.705898 0.131016 L 0.721914 0.141719 L 0.711211 0.173789 L 0.684492 0.216563 L 0.673789 0.275391 L 0.663086 0.360977 L 0.663086 0.425117 L 0.631016 0.505352 L 0.620312 0.574883 L 0.614961 0.628359 L 0.604297 0.665781 L 0.631016 0.735312 L 0.668438 0.778086 L 0.695195 0.799453 L 0.705898 0.820859 L 0.721914 0.847578 L 0.705898 0.874336 L 0.689844 0.906406 L 0.684492 0.943867 Z M 0.631016 0.94918 " transform="matrix(100,0,0,100,450,3800)"/>
<path style="fill:none;stroke-width:0.01;stroke-linecap:butt;stroke-linejoin:miter;stroke:rgb(0%,0%,0%);stroke-opacity:1;stroke-miterlimit:10;" d="M 0.324219 0.0454687 L 0.284023 0.085625 L 0.344297 0.135859 L 0.359375 0.181055 L 0.374453 0.241328 L 0.384492 0.301602 L 0.424648 0.376953 L 0.469883 0.457305 L 0.550234 0.532656 L 0.600469 0.653203 L 0.605469 0.728516 L 0.600469 0.743594 L 0.665742 0.87418 L 0.695898 0.879219 L 0.700898 0.919375 L 0.715977 0.954531 L 0.715977 0.0454687 Z M 0.324219 0.0454687 " transform="matrix(100,0,0,100,600,3800)"/>
<path style="fill:none;stroke-width:0.01;stroke-linecap:butt;stroke-linejoin:miter;stroke:rgb(0%,0%,0%);stroke-opacity:1;stroke-miterlimit:10;" d="M 0.215898 0.0616797 L 0.256484 0.288945 L 0.378242 0.435078 L 0.491875 0.524336 L 0.5 0.573047 L 0.573047 0.532461 L 0.556836 0.597422 L 0.597422 0.662344 L 0.548711 0.670469 L 0.540586 0.759727 L 0.646094 0.784102 L 0.573047 0.905859 L 0.621758 0.93832 L 0.694805 0.913945 L 0.784102 0.954531 L 0.784102 0.0616797 L 0.775977 0.0454687 Z M 0.215898 0.0616797 " transform="matrix(100,0,0,100,0,3950)"/>
<path style="fill:none;stroke-width:0.01;stroke-linecap:butt;stroke-linejoin:miter;stroke:rgb(0%,0%,0%);stroke-opacity:1;stroke-miterlimit:10;" d="M 0.537266 0.0454687 L 0.43293 0.0752734 L 0.418047 0.119961 L 0.37332 0.209375 L 0.388242 0.283906 L 0.477656 0.283906 L 0.492539 0.343516 L 0.43293 0.388242 L 0.388242 0.492539 L 0.43293 0.581953 L 0.418047 0.671367 L 0.358437 0.686289 L 0.328633 0.716094 L 0.388242 0.805508 L 0.462734 0.954531 L 0.507461 0.313711 L 0.656484 0.149766 L 0.671367 0.0752734 Z M 0.537266 0.0454687 " transform="matrix(100,0,0,100,150,3950)"/>
<path style="fill:none;stroke-width:0.01;stroke-linecap:butt;stroke-linejoin:miter;stroke:rgb(0%,0%,0%);stroke-opacity:1;stroke-miterlimit:10;" d="M 0.642617 0.950977 L 0.457227 0.943867 L 0.425117 0.911758 L 0.425117 0.861836 L 0.43582 0.811953 L 0.464336 0.758477 L 0.485742 0.701445 L 0.46793 0.64082 L 0.450078 0.580195 L 0.428711 0.55168 L 0.40375 0.508906 L 0.371641 0.480391 L 0.336016 0.458984 L 0.314609 0.444727 L 0.321758 0.401953 L 0.350273 0.369883 L 0.353828 0.334219 L 0.346719 0.298555 L 0.357383 0.237969 L 0.350273 0.170234 L 0.328867 0.120313 L 0.296797 0.0810938 L 0.278984 0.0454687 L 0.53207 0.0490234 L 0.574883 0.45543 L 0.571289 0.523164 L 0.492852 0.836914 L 0.521406 0.858281 L 0.557031 0.844023 L 0.581992 0.786992 L 0.631914 0.64082 L 0.642617 0.697852 L 0.656875 0.694297 L 0.646172 0.598047 L 0.678242 0.580195 L 0.642617 0.109609 L 0.703203 0.0882422 L 0.721016 0.0775391 L 0.721016 0.954531 Z M 0.642617 0.950977 " transform="matrix(100,0,0,100,300,3950)"/>
<path style="fill:none;stroke-width:0.01;stroke-linecap:butt;stroke-linejoin:miter;stroke:rgb(0%,0%,0%);stroke-opacity:1;stroke-miterlimit:10;" d="M 0.846875 0.942578 L 0.236836 0.954531 L 0.224883 0.894727 L 0.188984 0.834922 L 0.12918 0.78707 L 0.165078 0.715313 L 0.224883 0.655508 L 0.248789 0.58375 L 0.236836 0.535898 L 0.248789 0.476094 L 0.248789 0.41625 L 0.308594 0.356445 L 0.308594 0.21293 L 0.368437 0.141133 L 0.464102 0.117227 L 0.595703 0.0933203 L 0.655508 0.0454687 L 0.703359 0.0813281 L 0.679414 0.153125 L 0.691406 0.332539 L 0.679414 0.404297 L 0.655508 0.452148 L 0.643555 0.5 L 0.691406 0.595703 L 0.691406 0.679414 L 0.739219 0.715313 L 0.822969 0.763164 L 0.87082 0.78707 L 0.87082 0.822969 Z M 0.846875 0.942578 " transform="matrix(100,0,0,100,450,3950)"/>
<path style="fill:none;stroke-width:0.01;stroke-linecap:butt;stroke-linejoin:miter;stroke:rgb(0%,0%,0%);stroke-opacity:1;stroke-miterlimit:10;" d="M 0.553906 0.0454687 L 0.561094 0.918594 L 0.5575 0.954531 L 0.482031 0.950938 L 0.492813 0.918594 L 0.478438 0.900664 L 0.485625 0.86832 L 0.467656 0.843164 L 0.485625 0.825195 L 0.47125 0.818008 L 0.482031 0.800039 L 0.456875 0.767695 L 0.474844 0.749727 L 0.47125 0.72457 L 0.478438 0.710195 L 0.467656 0.699414 L 0.489219 0.66707 L 0.47125 0.659883 L 0.464062 0.638359 L 0.489219 0.623984 L 0.492813 0.613203 L 0.474844 0.588047 L 0.47125 0.537734 L 0.464062 0.519766 L 0.482031 0.483828 L 0.482031 0.462266 L 0.456875 0.451484 L 0.467656 0.440703 L 0.453281 0.397578 L 0.474844 0.372422 L 0.482031 0.361641 L 0.464062 0.325742 L 0.474844 0.307773 L 0.464062 0.271836 L 0.453281 0.24668 L 0.47125 0.232305 L 0.460469 0.199961 L 0.438906 0.181992 L 0.456875 0.167617 L 0.456875 0.149648 L 0.464062 0.135273 L 0.467656 0.117305 L 0.467656 0.10293 L 0.449688 0.0778125 L 0.4425 0.0634375 L 0.449688 0.0454687 Z M 0.553906 0.0454687 " transform="matrix(100,0,0,100,600,3950)"/>
<path style="fill:none;stroke-width:0.01;stroke-linecap:butt;stroke-linejoin:miter;stroke:rgb(0%,0%,0%);stroke-opacity:1;stroke-miterlimit:10;" d="M 0.724609 0.0525781 L 0.275391 0.0454687 L 0.296797 0.0632813 L 0.3075 0.0810938 L 0.375234 0.0953516 L 0.382344 0.113203 L 0.371641 0.131016 L 0.336016 0.155977 L 0.311055 0.148828 L 0.3075 0.163086 L 0.328867 0.173789 L 0.332461 0.191641 L 0.357383 0.191641 L 0.368086 0.209453 L 0.385937 0.202305 L 0.396602 0.213008 L 0.439375 0.202305 L 0.421563 0.234414 L 0.460781 0.284297 L 0.439375 0.291445 L 0.442969 0.309258 L 0.46793 0.298555 L 0.503555 0.327109 L 0.492852 0.35918 L 0.542773 0.362734 L 0.546328 0.387695 L 0.59625 0.373438 L 0.628359 0.416211 L 0.585547 0.483945 L 0.578438 0.508906 L 0.592695 0.519609 L 0.606953 0.526719 L 0.628359 0.516055 L 0.688945 0.626562 L 0.678242 0.658633 L 0.671133 0.680039 L 0.667539 0.697852 L 0.685391 0.697852 L 0.713906 0.712109 L 0.713906 0.754883 L 0.717461 0.947422 L 0.724609 0.954531 Z M 0.724609 0.0525781 " transform="matrix(100,0,0,100,0,4100)"/>
<path style="fill:none;stroke-width:0.01;stroke-linecap:butt;stroke-linejoin:miter;stroke:rgb(0%,0%,0%);stroke-opacity:1;stroke-miterlimit:10;" d="M 0.793555 0.102266 L 0.850391 0.386367 L 0.926133 0.575742 L 0.907188 0.784102 L 0.8125 0.954531 L 0.547344 0.859844 L 0.471602 0.746211 L 0.414766 0.632578 L 0.301133 0.5 L 0.149609 0.424258 L 0.0738672 0.348477 L 0.244336 0.272734 L 0.206445 0.215898 L 0.225391 0.159102 L 0.339023 0.178047 L 0.263242 0.0833203 L 0.39582 0.0454687 L 0.471602 0.0833203 L 0.623125 0.064375 Z M 0.793555 0.102266 " transform="matrix(100,0,0,100,150,4100)"/>
<path style="fill:none;stroke-width:0.01;stroke-linecap:butt;stroke-linejoin:miter;stroke:rgb(0%,0%,0%);stroke-opacity:1;stroke-miterlimit:10;" d="M 0.875508 0.5 L 0.915039 0.658086 L 0.796445 0.77668 L 0.598828 0.737148 L 0.243086 0.697617 L 0.0849609 0.579062 L 0.0454687 0.341914 L 0.203555 0.302383 L 0.282617 0.22332 L 0.598828 0.302383 L 0.875508 0.262852 L 0.954531 0.420938 Z M 0.875508 0.5 " transform="matrix(100,0,0,100,300,4100)"/>
<path style="fill:none;stroke-width:0.01;stroke-linecap:butt;stroke-linejoin:miter;stroke:rgb(0%,0%,0%);stroke-opacity:1;stroke-miterlimit:10;" d="M 0.0833203 0.518945 L 0.0454688 0.329531 L 0.159102 0.178047 L 0.348477 0.329531 L 0.575742 0.253789 L 0.765156 0.29168 L 0.954531 0.481055 L 0.954531 0.70832 L 0.840898 0.821953 L 0.575742 0.746211 L 0.386367 0.70832 L 0.272734 0.518945 Z M 0.0833203 0.518945 " transform="matrix(100,0,0,100,450,4100)"/>
<path style="fill:none;stroke-width:0.01;stroke-linecap:butt;stroke-linejoin:miter;stroke:rgb(0%,0%,0%);stroke-opacity:1;stroke-miterlimit:10;" d="M 0.378789 0.0525781 L 0.639023 0.0454687 L 0.678242 0.0525781 L 0.685391 0.0525781 L 0.685391 0.573086 L 0.681836 0.829766 L 0.678242 0.954531 L 0.589141 0.950977 L 0.549922 0.886797 L 0.528516 0.868984 L 0.542773 0.854727 L 0.528516 0.840469 L 0.496445 0.83332 L 0.475039 0.804805 L 0.457227 0.783437 L 0.439375 0.779844 L 0.453672 0.751328 L 0.457227 0.712109 L 0.425117 0.697852 L 0.418008 0.672891 L 0.421563 0.651523 L 0.425117 0.633672 L 0.43582 0.619414 L 0.442969 0.587344 L 0.442969 0.569531 L 0.446523 0.55168 L 0.457227 0.519609 L 0.492852 0.45543 L 0.492852 0.437617 L 0.446523 0.423359 L 0.432266 0.394844 L 0.410859 0.380586 L 0.378789 0.380586 L 0.360977 0.39125 L 0.343125 0.412656 L 0.336016 0.419805 L 0.33957 0.387695 L 0.332461 0.341367 L 0.318164 0.330664 L 0.318164 0.295 L 0.328867 0.291445 L 0.336016 0.277188 L 0.314609 0.273633 L 0.321758 0.248672 L 0.346719 0.202305 L 0.350273 0.163086 L 0.364531 0.0917969 L 0.368086 0.0561328 Z M 0.378789 0.0525781 " transform="matrix(100,0,0,100,600,4100)"/>
</g>
</svg>
