<?xml version="1.0" encoding="UTF-8"?>
<svg xmlns="http://www.w3.org/2000/svg" xmlns:xlink="http://www.w3.org/1999/xlink" width="750pt" height="11200pt" viewBox="0 0 750 11200" version="1.1">
<g id="surface1">
<path style="fill:none;stroke-width:0.01;stroke-linecap:butt;stroke-linejoin:miter;stroke:rgb(0%,0%,0%);stroke-opacity:1;stroke-miterlimit:10;" d="M 0.759727 0.0454687 L 0.435078 0.0454687 L 0.240273 0.175312 L 0.240273 0.694805 L 0.305195 0.889609 L 0.5 0.954531 L 0.694805 0.954531 Z M 0.759727 0.0454687 " transform="matrix(100,0,0,100,0,200)"/>
<path style="fill:none;stroke-width:0.01;stroke-linecap:butt;stroke-linejoin:miter;stroke:rgb(0%,0%,0%);stroke-opacity:1;stroke-miterlimit:10;" d="M 0.909102 0.590898 L 0.727266 0.954531 L 0.272734 0.863633 L 0.0908984 0.681836 L 0.0908984 0.136367 L 0.363633 0.0454687 L 0.727266 0.0454687 L 0.818164 0.227266 Z M 0.909102 0.590898 " transform="matrix(100,0,0,100,150,200)"/>
<path style="fill:none;stroke-width:0.01;stroke-linecap:butt;stroke-linejoin:miter;stroke:rgb(0%,0%,0%);stroke-opacity:1;stroke-miterlimit:10;" d="M 0.797813 0.0767969 L 0.452969 0.108164 L 0.139492 0.170859 L 0.0454687 0.358945 L 0.202187 0.672422 L 0.452969 0.829141 L 0.641055 0.923203 L 0.766445 0.797813 L 0.891836 0.735117 L 0.954531 0.547031 Z M 0.797813 0.0767969 " transform="matrix(100,0,0,100,300,200)"/>
<path style="fill:none;stroke-width:0.01;stroke-linecap:butt;stroke-linejoin:miter;stroke:rgb(0%,0%,0%);stroke-opacity:1;stroke-miterlimit:10;" d="M 0.590898 0.106055 L 0.631328 0.429297 L 0.712109 0.631328 L 0.691914 0.772734 L 0.712109 0.893945 L 0.631328 0.954531 L 0.469688 0.914141 L 0.348477 0.87375 L 0.287891 0.712109 L 0.287891 0.227266 L 0.368672 0.146445 L 0.489883 0.0454687 L 0.550508 0.0858594 Z M 0.590898 0.106055 " transform="matrix(100,0,0,100,450,200)"/>
<path style="fill:none;stroke-width:0.01;stroke-linecap:butt;stroke-linejoin:miter;stroke:rgb(0%,0%,0%);stroke-opacity:1;stroke-miterlimit:10;" d="M 0.644609 0.0454687 L 0.809922 0.25207 L 0.809922 0.830586 L 0.685938 0.954531 L 0.479336 0.74793 L 0.272734 0.458672 L 0.190078 0.128086 L 0.355391 0.0454687 Z M 0.644609 0.0454687 " transform="matrix(100,0,0,100,600,200)"/>
<path style="fill:none;stroke-width:0.01;stroke-linecap:butt;stroke-linejoin:miter;stroke:rgb(0%,0%,0%);stroke-opacity:1;stroke-miterlimit:10;" d="M 0.518945 0.0454687 L 0.670469 0.272734 L 0.70832 0.575742 L 0.784102 0.689375 L 0.746211 0.840898 L 0.632578 0.954531 L 0.367422 0.878789 L 0.215898 0.651523 L 0.215898 0.5 L 0.29168 0.348477 Z M 0.518945 0.0454687 " transform="matrix(100,0,0,100,0,350)"/>
<path style="fill:none;stroke-width:0.01;stroke-linecap:butt;stroke-linejoin:miter;stroke:rgb(0%,0%,0%);stroke-opacity:1;stroke-miterlimit:10;" d="M 0.904023 0.348477 L 0.803047 0.954531 L 0.398984 0.752539 L 0.0959766 0.550508 L 0.196953 0.146445 L 0.398984 0.0454687 L 0.702031 0.0454687 Z M 0.904023 0.348477 " transform="matrix(100,0,0,100,150,350)"/>
<path style="fill:none;stroke-width:0.01;stroke-linecap:butt;stroke-linejoin:miter;stroke:rgb(0%,0%,0%);stroke-opacity:1;stroke-miterlimit:10;" d="M 0.824688 0.564922 L 0.629883 0.954531 L 0.370117 0.954531 L 0.240273 0.564922 L 0.175312 0.175312 L 0.435078 0.0454687 L 0.564922 0.240273 Z M 0.824688 0.564922 " transform="matrix(100,0,0,100,300,350)"/>
<path style="fill:none;stroke-width:0.01;stroke-linecap:butt;stroke-linejoin:miter;stroke:rgb(0%,0%,0%);stroke-opacity:1;stroke-miterlimit:10;" d="M 0.863633 0.5 L 0.772734 0.0454687 L 0.409102 0.0454687 L 0.136367 0.318164 L 0.590898 0.954531 Z M 0.863633 0.5 " transform="matrix(100,0,0,100,450,350)"/>
<path style="fill:none;stroke-width:0.01;stroke-linecap:butt;stroke-linejoin:miter;stroke:rgb(0%,0%,0%);stroke-opacity:1;stroke-miterlimit:10;" d="M 0.642031 0.0454687 L 0.698867 0.613633 L 0.585234 0.954531 L 0.414766 0.784102 L 0.301133 0.0454687 L 0.528398 0.0454687 Z M 0.642031 0.0454687 " transform="matrix(100,0,0,100,600,350)"/>
<path style="fill:none;stroke-width:0.01;stroke-linecap:butt;stroke-linejoin:miter;stroke:rgb(0%,0%,0%);stroke-opacity:1;stroke-miterlimit:10;" d="M 0.727266 0.0454688 L 0.840898 0.954531 L 0.272734 0.954531 L 0.159102 0.5 L 0.386367 0.0454688 Z M 0.727266 0.0454688 " transform="matrix(100,0,0,100,0,500)"/>
<path style="fill:none;stroke-width:0.01;stroke-linecap:butt;stroke-linejoin:miter;stroke:rgb(0%,0%,0%);stroke-opacity:1;stroke-miterlimit:10;" d="M 0.398984 0.0454688 L 0.0959766 0.146445 L 0.0959766 0.550508 L 0.398984 0.954531 L 0.904023 0.954531 L 0.904023 0.550508 Z M 0.398984 0.0454688 " transform="matrix(100,0,0,100,150,500)"/>
<path style="fill:none;stroke-width:0.01;stroke-linecap:butt;stroke-linejoin:miter;stroke:rgb(0%,0%,0%);stroke-opacity:1;stroke-miterlimit:10;" d="M 0.752539 0.247461 L 0.348477 0.0454688 L 0.146445 0.146445 L 0.146445 0.651523 L 0.348477 0.954531 L 0.651523 0.954531 L 0.853555 0.853555 Z M 0.752539 0.247461 " transform="matrix(100,0,0,100,300,500)"/>
<path style="fill:none;stroke-width:0.01;stroke-linecap:butt;stroke-linejoin:miter;stroke:rgb(0%,0%,0%);stroke-opacity:1;stroke-miterlimit:10;" d="M 0.954531 0.348477 L 0.853555 0.752539 L 0.550508 0.752539 L 0.247461 0.550508 L 0.0454688 0.247461 L 0.752539 0.247461 Z M 0.954531 0.348477 " transform="matrix(100,0,0,100,450,500)"/>
<path style="fill:none;stroke-width:0.01;stroke-linecap:butt;stroke-linejoin:miter;stroke:rgb(0%,0%,0%);stroke-opacity:1;stroke-miterlimit:10;" d="M 0.392344 0.141133 L 0.224883 0.284688 L 0.177031 0.595703 L 0.224883 0.858867 L 0.344492 0.90668 L 0.488047 0.954531 L 0.607656 0.930625 L 0.727266 0.78707 L 0.799062 0.643555 L 0.775117 0.523906 L 0.799062 0.404297 L 0.822969 0.188984 L 0.751211 0.0454688 L 0.631563 0.141133 Z M 0.392344 0.141133 " transform="matrix(100,0,0,100,600,500)"/>
<path style="fill:none;stroke-width:0.01;stroke-linecap:butt;stroke-linejoin:miter;stroke:rgb(0%,0%,0%);stroke-opacity:1;stroke-miterlimit:10;" d="M 0.407422 0.0454688 L 0.340078 0.129648 L 0.340078 0.314805 L 0.356914 0.398984 L 0.474766 0.58418 L 0.474766 0.601016 L 0.54207 0.769375 L 0.575742 0.870352 L 0.643086 0.954531 L 0.659922 0.836719 L 0.643086 0.651523 L 0.558906 0.432656 L 0.508398 0.247461 L 0.45793 0.0959766 Z M 0.407422 0.0454688 " transform="matrix(100,0,0,100,0,650)"/>
<path style="fill:none;stroke-width:0.01;stroke-linecap:butt;stroke-linejoin:miter;stroke:rgb(0%,0%,0%);stroke-opacity:1;stroke-miterlimit:10;" d="M 0.918164 0.390898 L 0.954531 0.645469 L 0.772734 0.790898 L 0.481836 0.790898 L 0.227266 0.572734 L 0.0454687 0.427266 L 0.263633 0.281836 L 0.518164 0.281836 L 0.736367 0.209102 L 0.918164 0.209102 Z M 0.918164 0.390898 " transform="matrix(100,0,0,100,150,650)"/>
<path style="fill:none;stroke-width:0.01;stroke-linecap:butt;stroke-linejoin:miter;stroke:rgb(0%,0%,0%);stroke-opacity:1;stroke-miterlimit:10;" d="M 0.819883 0.213789 L 0.954531 0.617852 L 0.887188 0.853555 L 0.58418 0.887188 L 0.382148 0.920859 L 0.146445 0.920859 L 0.0454687 0.853555 L 0.180117 0.483164 L 0.41582 0.247461 L 0.58418 0.112813 L 0.718867 0.0791406 Z M 0.819883 0.213789 " transform="matrix(100,0,0,100,300,650)"/>
<path style="fill:none;stroke-width:0.01;stroke-linecap:butt;stroke-linejoin:miter;stroke:rgb(0%,0%,0%);stroke-opacity:1;stroke-miterlimit:10;" d="M 0.183438 0.305195 L 0.167227 0.435078 L 0.183438 0.548711 L 0.199688 0.629883 L 0.199688 0.694805 L 0.232148 0.840898 L 0.280859 0.905859 L 0.31332 0.93832 L 0.832773 0.954531 L 0.832773 0.0454688 L 0.735391 0.126641 L 0.654219 0.207773 L 0.524336 0.224023 L 0.394492 0.224023 L 0.29707 0.256484 Z M 0.183438 0.305195 " transform="matrix(100,0,0,100,450,650)"/>
<path style="fill:none;stroke-width:0.01;stroke-linecap:butt;stroke-linejoin:miter;stroke:rgb(0%,0%,0%);stroke-opacity:1;stroke-miterlimit:10;" d="M 0.713086 0.329531 L 0.713086 0.159102 L 0.65625 0.102266 L 0.457383 0.0454688 L 0.372148 0.102266 L 0.173281 0.272734 L 0.144883 0.5 L 0.201719 0.670469 L 0.230117 0.840898 L 0.34375 0.926133 L 0.571016 0.954531 L 0.769883 0.897734 L 0.855117 0.755664 L 0.826719 0.585234 L 0.769883 0.5 Z M 0.713086 0.329531 " transform="matrix(100,0,0,100,600,650)"/>
<path style="fill:none;stroke-width:0.01;stroke-linecap:butt;stroke-linejoin:miter;stroke:rgb(0%,0%,0%);stroke-opacity:1;stroke-miterlimit:10;" d="M 0.582656 0.0454687 L 0.582656 0.871914 L 0.417344 0.954531 L 0.417344 0.376016 Z M 0.582656 0.0454687 " transform="matrix(100,0,0,100,0,800)"/>
<path style="fill:none;stroke-width:0.01;stroke-linecap:butt;stroke-linejoin:miter;stroke:rgb(0%,0%,0%);stroke-opacity:1;stroke-miterlimit:10;" d="M 0.784102 0.329531 L 0.613633 0.727266 L 0.5 0.954531 L 0.329531 0.954531 L 0.215898 0.727266 L 0.272734 0.5 L 0.386367 0.159102 L 0.5 0.0454687 Z M 0.784102 0.329531 " transform="matrix(100,0,0,100,150,800)"/>
<path style="fill:none;stroke-width:0.01;stroke-linecap:butt;stroke-linejoin:miter;stroke:rgb(0%,0%,0%);stroke-opacity:1;stroke-miterlimit:10;" d="M 0.569922 0.0454687 L 0.639844 0.674844 L 0.5 0.884609 L 0.430078 0.954531 L 0.360156 0.744766 L 0.360156 0.0454687 Z M 0.569922 0.0454687 " transform="matrix(100,0,0,100,300,800)"/>
<path style="fill:none;stroke-width:0.01;stroke-linecap:butt;stroke-linejoin:miter;stroke:rgb(0%,0%,0%);stroke-opacity:1;stroke-miterlimit:10;" d="M 0.284102 0.0908984 L 0.647734 0.0454687 L 0.761367 0.590898 L 0.647734 0.75 L 0.602266 0.954531 L 0.534102 0.909102 L 0.420469 0.727266 L 0.306836 0.5 L 0.238633 0.227266 Z M 0.284102 0.0908984 " transform="matrix(100,0,0,100,450,800)"/>
<path style="fill:none;stroke-width:0.01;stroke-linecap:butt;stroke-linejoin:miter;stroke:rgb(0%,0%,0%);stroke-opacity:1;stroke-miterlimit:10;" d="M 0.5 0.0454687 L 0.575742 0.424258 L 0.651523 0.727266 L 0.727266 0.878789 L 0.5 0.954531 L 0.424258 0.954531 L 0.272734 0.803047 L 0.272734 0.348477 Z M 0.5 0.0454687 " transform="matrix(100,0,0,100,600,800)"/>
<path style="fill:none;stroke-width:0.01;stroke-linecap:butt;stroke-linejoin:miter;stroke:rgb(0%,0%,0%);stroke-opacity:1;stroke-miterlimit:10;" d="M 0.727266 0.272734 L 0.727266 0.727266 L 0.636367 0.954531 L 0.5 0.909102 L 0.318164 0.681836 L 0.272734 0.363633 L 0.363633 0.181836 L 0.454531 0.0454687 L 0.590898 0.0454687 Z M 0.727266 0.272734 " transform="matrix(100,0,0,100,0,950)"/>
<path style="fill:none;stroke-width:0.01;stroke-linecap:butt;stroke-linejoin:miter;stroke:rgb(0%,0%,0%);stroke-opacity:1;stroke-miterlimit:10;" d="M 0.694805 0.0454687 L 0.694805 0.954531 L 0.5 0.889609 L 0.435078 0.759727 L 0.305195 0.564922 L 0.370117 0.370117 L 0.435078 0.240273 L 0.5 0.110391 Z M 0.694805 0.0454687 " transform="matrix(100,0,0,100,150,950)"/>
<path style="fill:none;stroke-width:0.01;stroke-linecap:butt;stroke-linejoin:miter;stroke:rgb(0%,0%,0%);stroke-opacity:1;stroke-miterlimit:10;" d="M 0.789258 0.623984 L 0.541328 0.706602 L 0.458672 0.871914 L 0.210742 0.706602 L 0.0454687 0.458672 L 0.128086 0.210742 L 0.210742 0.128086 L 0.458672 0.293398 L 0.541328 0.376016 L 0.623984 0.293398 L 0.954531 0.376016 Z M 0.789258 0.623984 " transform="matrix(100,0,0,100,300,950)"/>
<path style="fill:none;stroke-width:0.01;stroke-linecap:butt;stroke-linejoin:miter;stroke:rgb(0%,0%,0%);stroke-opacity:1;stroke-miterlimit:10;" d="M 0.606953 0.0454687 L 0.66043 0.366328 L 0.66043 0.740625 L 0.553477 0.954531 L 0.446523 0.740625 L 0.33957 0.580195 L 0.393047 0.259375 L 0.393047 0.0989453 Z M 0.606953 0.0454687 " transform="matrix(100,0,0,100,450,950)"/>
<path style="fill:none;stroke-width:0.01;stroke-linecap:butt;stroke-linejoin:miter;stroke:rgb(0%,0%,0%);stroke-opacity:1;stroke-miterlimit:10;" d="M 0.526719 0.0454687 L 0.366328 0.152422 L 0.259375 0.366328 L 0.259375 0.740625 L 0.312852 0.847578 L 0.580195 0.954531 L 0.740625 0.0454687 Z M 0.526719 0.0454687 " transform="matrix(100,0,0,100,600,950)"/>
<path style="fill:none;stroke-width:0.01;stroke-linecap:butt;stroke-linejoin:miter;stroke:rgb(0%,0%,0%);stroke-opacity:1;stroke-miterlimit:10;" d="M 0.569922 0.0454687 L 0.395117 0.255234 L 0.325156 0.430078 L 0.465039 0.779727 L 0.569922 0.954531 L 0.674844 0.954531 L 0.674844 0.185313 Z M 0.569922 0.0454687 " transform="matrix(100,0,0,100,0,1100)"/>
<path style="fill:none;stroke-width:0.01;stroke-linecap:butt;stroke-linejoin:miter;stroke:rgb(0%,0%,0%);stroke-opacity:1;stroke-miterlimit:10;" d="M 0.590898 0.0454687 L 0.489883 0.106055 L 0.449492 0.20707 L 0.429297 0.328281 L 0.449492 0.570703 L 0.449492 0.691914 L 0.348477 0.79293 L 0.449492 0.954531 L 0.550508 0.732305 L 0.570703 0.691914 L 0.611094 0.530313 L 0.651523 0.388906 Z M 0.590898 0.0454687 " transform="matrix(100,0,0,100,150,1100)"/>
<path style="fill:none;stroke-width:0.01;stroke-linecap:butt;stroke-linejoin:miter;stroke:rgb(0%,0%,0%);stroke-opacity:1;stroke-miterlimit:10;" d="M 0.550508 0.0454687 L 0.348477 0.213789 L 0.281133 0.348477 L 0.314805 0.550508 L 0.382148 0.617852 L 0.449492 0.853555 L 0.550508 0.954531 L 0.617852 0.887187 L 0.651523 0.685195 L 0.718867 0.41582 Z M 0.550508 0.0454687 " transform="matrix(100,0,0,100,300,1100)"/>
<path style="fill:none;stroke-width:0.01;stroke-linecap:butt;stroke-linejoin:miter;stroke:rgb(0%,0%,0%);stroke-opacity:1;stroke-miterlimit:10;" d="M 0.782148 0.202188 L 0.750781 0.578359 L 0.594062 0.829141 L 0.405938 0.954531 L 0.311914 0.829141 L 0.280547 0.641055 L 0.249219 0.515664 L 0.217852 0.421641 L 0.374609 0.264883 L 0.5 0.0454687 L 0.594062 0.0454687 Z M 0.782148 0.202188 " transform="matrix(100,0,0,100,450,1100)"/>
<path style="fill:none;stroke-width:0.01;stroke-linecap:butt;stroke-linejoin:miter;stroke:rgb(0%,0%,0%);stroke-opacity:1;stroke-miterlimit:10;" d="M 0.880352 0.397969 L 0.824688 0.639141 L 0.824688 0.880352 L 0.657695 0.898906 L 0.379414 0.861797 L 0.156758 0.787578 L 0.0454688 0.657695 L 0.138203 0.472188 L 0.286641 0.360859 L 0.435078 0.175313 L 0.583477 0.156758 L 0.769023 0.156758 L 0.861797 0.101094 L 0.935977 0.230977 L 0.954531 0.342305 Z M 0.880352 0.397969 " transform="matrix(100,0,0,100,600,1100)"/>
<path style="fill:none;stroke-width:0.01;stroke-linecap:butt;stroke-linejoin:miter;stroke:rgb(0%,0%,0%);stroke-opacity:1;stroke-miterlimit:10;" d="M 0.579063 0.0454687 L 0.381406 0.322148 L 0.262852 0.638359 L 0.341914 0.954531 L 0.618594 0.954531 L 0.697617 0.915039 L 0.697617 0.598828 L 0.737148 0.401172 L 0.658086 0.0849609 Z M 0.579063 0.0454687 " transform="matrix(100,0,0,100,0,1250)"/>
<path style="fill:none;stroke-width:0.01;stroke-linecap:butt;stroke-linejoin:miter;stroke:rgb(0%,0%,0%);stroke-opacity:1;stroke-miterlimit:10;" d="M 0.57793 0.305195 L 0.603906 0.590898 L 0.73375 0.824687 L 0.629883 0.954531 L 0.42207 0.902578 L 0.292227 0.746758 L 0.26625 0.616875 L 0.318164 0.435078 L 0.448047 0.123359 L 0.5 0.0454687 L 0.629883 0.227266 Z M 0.57793 0.305195 " transform="matrix(100,0,0,100,150,1250)"/>
<path style="fill:none;stroke-width:0.01;stroke-linecap:butt;stroke-linejoin:miter;stroke:rgb(0%,0%,0%);stroke-opacity:1;stroke-miterlimit:10;" d="M 0.646641 0.0454687 L 0.705273 0.397344 L 0.734609 0.602656 L 0.529336 0.719922 L 0.441367 0.954531 L 0.294727 0.895898 L 0.265391 0.661289 L 0.324063 0.456016 L 0.412031 0.280078 L 0.558633 0.104102 Z M 0.646641 0.0454687 " transform="matrix(100,0,0,100,300,1250)"/>
<path style="fill:none;stroke-width:0.01;stroke-linecap:butt;stroke-linejoin:miter;stroke:rgb(0%,0%,0%);stroke-opacity:1;stroke-miterlimit:10;" d="M 0.657344 0.290195 L 0.657344 0.465039 L 0.762227 0.709805 L 0.727266 0.954531 L 0.4825 0.91957 L 0.377617 0.604883 L 0.237773 0.325156 L 0.342656 0.150352 L 0.377617 0.0804297 L 0.552461 0.115391 L 0.587422 0.0454687 Z M 0.657344 0.290195 " transform="matrix(100,0,0,100,450,1250)"/>
<path style="fill:none;stroke-width:0.01;stroke-linecap:butt;stroke-linejoin:miter;stroke:rgb(0%,0%,0%);stroke-opacity:1;stroke-miterlimit:10;" d="M 0.491094 0.0810938 L 0.401953 0.295 L 0.366328 0.491094 L 0.384141 0.491094 L 0.419805 0.598047 L 0.473281 0.758477 L 0.473281 0.847578 L 0.508906 0.954531 L 0.615859 0.936719 L 0.633672 0.811953 L 0.54457 0.829766 L 0.491094 0.687148 L 0.491094 0.598047 L 0.508906 0.384141 L 0.562383 0.241523 L 0.508906 0.188047 L 0.580195 0.0454687 Z M 0.491094 0.0810938 " transform="matrix(100,0,0,100,600,1250)"/>
<path style="fill:none;stroke-width:0.01;stroke-linecap:butt;stroke-linejoin:miter;stroke:rgb(0%,0%,0%);stroke-opacity:1;stroke-miterlimit:10;" d="M 0.691406 0.0933203 L 0.78707 0.308594 L 0.763164 0.595703 L 0.691406 0.78707 L 0.595703 0.90668 L 0.5 0.954531 L 0.404297 0.930625 L 0.308594 0.78707 L 0.284687 0.571758 L 0.21293 0.476094 L 0.260781 0.260781 L 0.452148 0.117227 L 0.571758 0.0454687 Z M 0.691406 0.0933203 " transform="matrix(100,0,0,100,0,1400)"/>
<path style="fill:none;stroke-width:0.01;stroke-linecap:butt;stroke-linejoin:miter;stroke:rgb(0%,0%,0%);stroke-opacity:1;stroke-miterlimit:10;" d="M 0.597422 0.175313 L 0.759727 0.467539 L 0.727266 0.727266 L 0.532461 0.954531 L 0.305195 0.857148 L 0.240273 0.662344 L 0.240273 0.402578 L 0.272734 0.207773 L 0.370117 0.0454687 L 0.5 0.0454687 Z M 0.597422 0.175313 " transform="matrix(100,0,0,100,150,1400)"/>
<path style="fill:none;stroke-width:0.01;stroke-linecap:butt;stroke-linejoin:miter;stroke:rgb(0%,0%,0%);stroke-opacity:1;stroke-miterlimit:10;" d="M 0.550508 0.0454687 L 0.58418 0.247461 L 0.651523 0.58418 L 0.718867 0.786211 L 0.685195 0.954531 L 0.449492 0.920859 L 0.348477 0.887187 L 0.281133 0.752539 L 0.281133 0.281133 L 0.382148 0.0791406 Z M 0.550508 0.0454687 " transform="matrix(100,0,0,100,300,1400)"/>
<path style="fill:none;stroke-width:0.01;stroke-linecap:butt;stroke-linejoin:miter;stroke:rgb(0%,0%,0%);stroke-opacity:1;stroke-miterlimit:10;" d="M 0.537891 0.196953 L 0.803047 0.5 L 0.91668 0.689375 L 0.651523 0.840898 L 0.462109 0.954531 L 0.234844 0.91668 L 0.0833203 0.689375 L 0.121211 0.196953 L 0.424258 0.0454687 Z M 0.537891 0.196953 " transform="matrix(100,0,0,100,450,1400)"/>
<path style="fill:none;stroke-width:0.01;stroke-linecap:butt;stroke-linejoin:miter;stroke:rgb(0%,0%,0%);stroke-opacity:1;stroke-miterlimit:10;" d="M 0.167852 0.150352 L 0.167852 0.534961 L 0.272734 0.779727 L 0.342656 0.954531 L 0.412578 0.814687 L 0.622383 0.639844 L 0.832148 0.534961 L 0.657344 0.290195 L 0.552461 0.115391 L 0.342656 0.0454687 Z M 0.167852 0.150352 " transform="matrix(100,0,0,100,600,1400)"/>
<path style="fill:none;stroke-width:0.01;stroke-linecap:butt;stroke-linejoin:miter;stroke:rgb(0%,0%,0%);stroke-opacity:1;stroke-miterlimit:10;" d="M 0.370117 0.694805 L 0.5 0.954531 L 0.716445 0.954531 L 0.846328 0.651523 L 0.846328 0.218633 L 0.759727 0.0454687 L 0.413438 0.305195 L 0.153672 0.478359 Z M 0.370117 0.694805 " transform="matrix(100,0,0,100,0,1550)"/>
<path style="fill:none;stroke-width:0.01;stroke-linecap:butt;stroke-linejoin:miter;stroke:rgb(0%,0%,0%);stroke-opacity:1;stroke-miterlimit:10;" d="M 0.237773 0.360156 L 0.167852 0.779727 L 0.237773 0.954531 L 0.4825 0.91957 L 0.657344 0.814688 L 0.657344 0.604883 L 0.832148 0.604883 L 0.622383 0.360156 L 0.5175 0.185313 L 0.412578 0.0454687 L 0.342656 0.115391 Z M 0.237773 0.360156 " transform="matrix(100,0,0,100,150,1550)"/>
<path style="fill:none;stroke-width:0.01;stroke-linecap:butt;stroke-linejoin:miter;stroke:rgb(0%,0%,0%);stroke-opacity:1;stroke-miterlimit:10;" d="M 0.311914 0.421641 L 0.186523 0.735117 L 0.186523 0.891836 L 0.374609 0.954531 L 0.594063 0.891836 L 0.782148 0.829141 L 0.656758 0.578359 L 0.719453 0.452969 L 0.813477 0.29625 L 0.813477 0.0454687 L 0.562695 0.0454687 L 0.531367 0.170859 L 0.343242 0.233555 Z M 0.311914 0.421641 " transform="matrix(100,0,0,100,300,1550)"/>
<path style="fill:none;stroke-width:0.01;stroke-linecap:butt;stroke-linejoin:miter;stroke:rgb(0%,0%,0%);stroke-opacity:1;stroke-miterlimit:10;" d="M 0.302383 0.282617 L 0.341914 0.559297 L 0.5 0.835977 L 0.579063 0.954531 L 0.658086 0.677852 L 0.618594 0.401172 L 0.579063 0.243086 L 0.697617 0.0849609 L 0.460469 0.0849609 L 0.381406 0.0454687 Z M 0.302383 0.282617 " transform="matrix(100,0,0,100,450,1550)"/>
<path style="fill:none;stroke-width:0.01;stroke-linecap:butt;stroke-linejoin:miter;stroke:rgb(0%,0%,0%);stroke-opacity:1;stroke-miterlimit:10;" d="M 0.357148 0.305195 L 0.331172 0.616875 L 0.305195 0.798711 L 0.305195 0.928555 L 0.409102 0.954531 L 0.564922 0.824687 L 0.720781 0.668828 L 0.616875 0.461055 L 0.720781 0.331172 L 0.694805 0.123359 L 0.564922 0.0454687 L 0.435078 0.0714453 L 0.357148 0.0974219 L 0.279219 0.201289 Z M 0.357148 0.305195 " transform="matrix(100,0,0,100,600,1550)"/>
<path style="fill:none;stroke-width:0.01;stroke-linecap:butt;stroke-linejoin:miter;stroke:rgb(0%,0%,0%);stroke-opacity:1;stroke-miterlimit:10;" d="M 0.561992 0.210742 L 0.60332 0.541328 L 0.644609 0.706602 L 0.644609 0.830586 L 0.60332 0.954531 L 0.479336 0.830586 L 0.438008 0.541328 L 0.39668 0.293398 L 0.355391 0.128086 L 0.479336 0.0454688 Z M 0.561992 0.210742 " transform="matrix(100,0,0,100,0,1700)"/>
<path style="fill:none;stroke-width:0.01;stroke-linecap:butt;stroke-linejoin:miter;stroke:rgb(0%,0%,0%);stroke-opacity:1;stroke-miterlimit:10;" d="M 0.430078 0.0454688 L 0.290195 0.395117 L 0.430078 0.674844 L 0.5 0.884609 L 0.639844 0.954531 L 0.709805 0.884609 L 0.709805 0.255234 L 0.639844 0.0454688 Z M 0.430078 0.0454688 " transform="matrix(100,0,0,100,150,1700)"/>
<path style="fill:none;stroke-width:0.01;stroke-linecap:butt;stroke-linejoin:miter;stroke:rgb(0%,0%,0%);stroke-opacity:1;stroke-miterlimit:10;" d="M 0.727266 0.381406 L 0.766797 0.243086 L 0.687734 0.124492 L 0.588945 0.0454688 L 0.43082 0.164023 L 0.312266 0.282617 L 0.233203 0.480234 L 0.351797 0.677852 L 0.43082 0.77668 L 0.549414 0.915039 L 0.608711 0.954531 L 0.7075 0.835977 L 0.747031 0.677852 L 0.687734 0.322148 Z M 0.727266 0.381406 " transform="matrix(100,0,0,100,300,1700)"/>
<path style="fill:none;stroke-width:0.01;stroke-linecap:butt;stroke-linejoin:miter;stroke:rgb(0%,0%,0%);stroke-opacity:1;stroke-miterlimit:10;" d="M 0.314063 0.14875 L 0.272734 0.314063 L 0.293398 0.623984 L 0.39668 0.871914 L 0.417344 0.954531 L 0.60332 0.892578 L 0.644609 0.830586 L 0.727266 0.479336 L 0.685938 0.210742 L 0.582656 0.0454688 L 0.438008 0.0661328 L 0.355391 0.0454688 Z M 0.314063 0.14875 " transform="matrix(100,0,0,100,450,1700)"/>
<path style="fill:none;stroke-width:0.01;stroke-linecap:butt;stroke-linejoin:miter;stroke:rgb(0%,0%,0%);stroke-opacity:1;stroke-miterlimit:10;" d="M 0.668828 0.142852 L 0.0974219 0.129883 L 0.0454688 0.155859 L 0.136367 0.207773 L 0.149336 0.259727 L 0.18832 0.324687 L 0.214297 0.376641 L 0.253242 0.441562 L 0.331172 0.506484 L 0.383125 0.532461 L 0.448047 0.571445 L 0.5 0.623359 L 0.409102 0.675313 L 0.409102 0.753242 L 0.448047 0.831172 L 0.525977 0.857148 L 0.629883 0.870117 L 0.681836 0.844141 L 0.73375 0.675313 L 0.772734 0.610391 L 0.850664 0.532461 L 0.876641 0.480508 L 0.902578 0.415586 L 0.954531 0.337656 L 0.954531 0.285703 L 0.941562 0.23375 L 0.928555 0.207773 L 0.889609 0.168828 L 0.876641 0.129883 Z M 0.668828 0.142852 " transform="matrix(100,0,0,100,600,1700)"/>
<path style="fill:none;stroke-width:0.01;stroke-linecap:butt;stroke-linejoin:miter;stroke:rgb(0%,0%,0%);stroke-opacity:1;stroke-miterlimit:10;" d="M 0.433164 0.954531 L 0.326211 0.954531 L 0.299453 0.874336 L 0.326211 0.767383 L 0.35293 0.66043 L 0.379688 0.446523 L 0.433164 0.33957 L 0.513359 0.259375 L 0.566836 0.179141 L 0.540117 0.0721875 L 0.566836 0.0454688 L 0.64707 0.125664 L 0.700547 0.179141 L 0.673789 0.33957 L 0.673789 0.553477 L 0.700547 0.66043 L 0.700547 0.794102 L 0.673789 0.847578 L 0.620313 0.901055 Z M 0.433164 0.954531 " transform="matrix(100,0,0,100,0,1850)"/>
<path style="fill:none;stroke-width:0.01;stroke-linecap:butt;stroke-linejoin:miter;stroke:rgb(0%,0%,0%);stroke-opacity:1;stroke-miterlimit:10;" d="M 0.481055 0.121211 L 0.424258 0.234844 L 0.329531 0.272734 L 0.272734 0.405313 L 0.215898 0.424258 L 0.178047 0.424258 L 0.215898 0.575742 L 0.196953 0.689375 L 0.178047 0.765156 L 0.215898 0.878789 L 0.310625 0.935625 L 0.443164 0.954531 L 0.481055 0.954531 L 0.575742 0.840898 L 0.670469 0.746211 L 0.727266 0.689375 L 0.765156 0.594687 L 0.821953 0.443164 L 0.803047 0.405313 L 0.821953 0.329531 L 0.765156 0.178047 L 0.70832 0.0833203 L 0.727266 0.064375 L 0.632578 0.0454688 Z M 0.481055 0.121211 " transform="matrix(100,0,0,100,150,1850)"/>
<path style="fill:none;stroke-width:0.01;stroke-linecap:butt;stroke-linejoin:miter;stroke:rgb(0%,0%,0%);stroke-opacity:1;stroke-miterlimit:10;" d="M 0.329531 0.159102 L 0.215898 0.234844 L 0.178047 0.386367 L 0.29168 0.537891 L 0.367422 0.727266 L 0.329531 0.840898 L 0.405312 0.91668 L 0.518945 0.954531 L 0.670469 0.954531 L 0.784102 0.840898 L 0.821953 0.765156 L 0.746211 0.613633 L 0.746211 0.537891 L 0.821953 0.424258 L 0.746211 0.310625 L 0.70832 0.159102 L 0.556836 0.0454688 L 0.443164 0.196953 Z M 0.329531 0.159102 " transform="matrix(100,0,0,100,300,1850)"/>
<path style="fill:none;stroke-width:0.01;stroke-linecap:butt;stroke-linejoin:miter;stroke:rgb(0%,0%,0%);stroke-opacity:1;stroke-miterlimit:10;" d="M 0.716797 0.171328 L 0.75875 0.24125 L 0.75875 0.381133 L 0.702813 0.548945 L 0.646836 0.688828 L 0.604883 0.856641 L 0.479023 0.856641 L 0.43707 0.898594 L 0.409102 0.954531 L 0.395117 0.898594 L 0.325156 0.814688 L 0.24125 0.716797 L 0.255234 0.56293 L 0.297187 0.423086 L 0.381133 0.353164 L 0.534961 0.24125 L 0.56293 0.227266 L 0.56293 0.185313 L 0.576914 0.129375 L 0.604883 0.101406 L 0.66082 0.0594531 L 0.688828 0.0454688 L 0.716797 0.0454688 L 0.730781 0.0874219 Z M 0.716797 0.171328 " transform="matrix(100,0,0,100,450,1850)"/>
<path style="fill:none;stroke-width:0.01;stroke-linecap:butt;stroke-linejoin:miter;stroke:rgb(0%,0%,0%);stroke-opacity:1;stroke-miterlimit:10;" d="M 0.765156 0.272734 L 0.689375 0.405313 L 0.651523 0.462109 L 0.632578 0.537891 L 0.518945 0.556836 L 0.424258 0.575742 L 0.462109 0.727266 L 0.424258 0.803047 L 0.329531 0.897734 L 0.272734 0.954531 L 0.29168 0.878789 L 0.272734 0.803047 L 0.215898 0.784102 L 0.253789 0.670469 L 0.29168 0.594687 L 0.310625 0.5 L 0.329531 0.367422 L 0.386367 0.29168 L 0.481055 0.215898 L 0.537891 0.0833203 L 0.632578 0.0454688 L 0.689375 0.0454688 L 0.70832 0.121211 L 0.765156 0.140156 L 0.784102 0.178047 Z M 0.765156 0.272734 " transform="matrix(100,0,0,100,600,1850)"/>
<path style="fill:none;stroke-width:0.01;stroke-linecap:butt;stroke-linejoin:miter;stroke:rgb(0%,0%,0%);stroke-opacity:1;stroke-miterlimit:10;" d="M 0.5 0.0454688 L 0.413438 0.218633 L 0.283555 0.478359 L 0.326836 0.738086 L 0.326836 0.954531 L 0.5 0.867969 L 0.629883 0.824687 L 0.673164 0.608242 L 0.716445 0.391758 L 0.629883 0.218633 Z M 0.5 0.0454688 " transform="matrix(100,0,0,100,0,2000)"/>
<path style="fill:none;stroke-width:0.01;stroke-linecap:butt;stroke-linejoin:miter;stroke:rgb(0%,0%,0%);stroke-opacity:1;stroke-miterlimit:10;" d="M 0.375742 0.651523 L 0.351523 0.584844 L 0.33332 0.487891 L 0.315156 0.384844 L 0.296953 0.3 L 0.284844 0.203047 L 0.315156 0.130312 L 0.375742 0.0636328 L 0.442422 0.0454688 L 0.53332 0.0757422 L 0.593945 0.130312 L 0.660625 0.172734 L 0.690898 0.23332 L 0.715156 0.396953 L 0.715156 0.796953 L 0.709102 0.881836 L 0.660625 0.936367 L 0.642422 0.954531 L 0.593945 0.954531 L 0.551523 0.930312 L 0.509102 0.9 L 0.454531 0.869688 L 0.418164 0.796953 L 0.406055 0.748477 L 0.393945 0.706055 Z M 0.375742 0.651523 " transform="matrix(100,0,0,100,150,2000)"/>
<path style="fill:none;stroke-width:0.01;stroke-linecap:butt;stroke-linejoin:miter;stroke:rgb(0%,0%,0%);stroke-opacity:1;stroke-miterlimit:10;" d="M 0.909102 0.0454688 L 0.681836 0.125 L 0.613633 0.318164 L 0.477266 0.386367 L 0.363633 0.363633 L 0.204531 0.420469 L 0.147734 0.488633 L 0.0908984 0.727266 L 0.352266 0.920469 L 0.590898 0.886367 L 0.625 0.943164 L 0.909102 0.954531 Z M 0.909102 0.0454688 " transform="matrix(100,0,0,100,300,2000)"/>
<path style="fill:none;stroke-width:0.01;stroke-linecap:butt;stroke-linejoin:miter;stroke:rgb(0%,0%,0%);stroke-opacity:1;stroke-miterlimit:10;" d="M 0.452148 0.332539 L 0.413867 0.447383 L 0.404297 0.581328 L 0.394727 0.667461 L 0.413867 0.763164 L 0.423438 0.820586 L 0.413867 0.887578 L 0.433008 0.954531 L 0.595703 0.954531 L 0.605273 0.686602 L 0.605273 0.0646094 L 0.586133 0.0454688 L 0.538281 0.102852 L 0.49043 0.169844 L 0.452148 0.246406 L 0.433008 0.303828 Z M 0.452148 0.332539 " transform="matrix(100,0,0,100,450,2000)"/>
<path style="fill:none;stroke-width:0.01;stroke-linecap:butt;stroke-linejoin:miter;stroke:rgb(0%,0%,0%);stroke-opacity:1;stroke-miterlimit:10;" d="M 0.643555 0.0933203 L 0.739219 0.428242 L 0.739219 0.763164 L 0.643555 0.954531 L 0.452148 0.90668 L 0.356445 0.811016 L 0.260781 0.667461 L 0.356445 0.476094 L 0.308594 0.284688 L 0.404297 0.0933203 L 0.5 0.0454688 Z M 0.643555 0.0933203 " transform="matrix(100,0,0,100,600,2000)"/>
<path style="fill:none;stroke-width:0.01;stroke-linecap:butt;stroke-linejoin:miter;stroke:rgb(0%,0%,0%);stroke-opacity:1;stroke-miterlimit:10;" d="M 0.125312 0.0454688 L 0.113008 0.186719 L 0.131445 0.266602 L 0.156016 0.377148 L 0.174453 0.438594 L 0.217461 0.543008 L 0.254297 0.635117 L 0.291172 0.702695 L 0.328008 0.788711 L 0.407852 0.874688 L 0.463164 0.923828 L 0.52457 0.954531 L 0.592148 0.954531 L 0.659687 0.923828 L 0.727266 0.886992 L 0.788711 0.825547 L 0.825547 0.776406 L 0.868555 0.715 L 0.88082 0.659688 L 0.886992 0.543008 L 0.88082 0.463164 L 0.85625 0.352578 L 0.843984 0.272734 L 0.794844 0.174453 L 0.782539 0.11918 L 0.757969 0.0516016 Z M 0.125312 0.0454688 " transform="matrix(100,0,0,100,0,2150)"/>
<path style="fill:none;stroke-width:0.01;stroke-linecap:butt;stroke-linejoin:miter;stroke:rgb(0%,0%,0%);stroke-opacity:1;stroke-miterlimit:10;" d="M 0.552695 0.0454688 L 0.368242 0.0454688 L 0.420937 0.150859 L 0.460469 0.295781 L 0.526367 0.440703 L 0.579063 0.611992 L 0.605391 0.809609 L 0.631758 0.888672 L 0.618594 0.954531 L 0.618594 0.0454688 Z M 0.552695 0.0454688 " transform="matrix(100,0,0,100,150,2150)"/>
<path style="fill:none;stroke-width:0.01;stroke-linecap:butt;stroke-linejoin:miter;stroke:rgb(0%,0%,0%);stroke-opacity:1;stroke-miterlimit:10;" d="M 0.737148 0.440703 L 0.697617 0.796445 L 0.539531 0.954531 L 0.183789 0.677852 L 0.22332 0.440703 L 0.381406 0.282617 L 0.579063 0.164023 L 0.737148 0.0454688 L 0.816211 0.322148 Z M 0.737148 0.440703 " transform="matrix(100,0,0,100,300,2150)"/>
<path style="fill:none;stroke-width:0.01;stroke-linecap:butt;stroke-linejoin:miter;stroke:rgb(0%,0%,0%);stroke-opacity:1;stroke-miterlimit:10;" d="M 0.213789 0.348477 L 0.449492 0.213789 L 0.617852 0.146445 L 0.819883 0.180117 L 0.954531 0.449492 L 0.887188 0.617852 L 0.786211 0.786211 L 0.516836 0.853555 L 0.247461 0.819883 L 0.180117 0.752539 L 0.0454688 0.651523 L 0.0791406 0.58418 L 0.0791406 0.516836 Z M 0.213789 0.348477 " transform="matrix(100,0,0,100,450,2150)"/>
<path style="fill:none;stroke-width:0.01;stroke-linecap:butt;stroke-linejoin:miter;stroke:rgb(0%,0%,0%);stroke-opacity:1;stroke-miterlimit:10;" d="M 0.41582 0.853555 L 0.281133 0.651523 L 0.314805 0.651523 L 0.180117 0.651523 L 0.0454688 0.58418 L 0.0454688 0.483164 L 0.0791406 0.314805 L 0.281133 0.180117 L 0.483164 0.146445 L 0.718867 0.180117 L 0.786211 0.247461 L 0.853555 0.281133 L 0.954531 0.483164 L 0.920859 0.651523 L 0.752539 0.786211 L 0.58418 0.853555 Z M 0.41582 0.853555 " transform="matrix(100,0,0,100,600,2150)"/>
<path style="fill:none;stroke-width:0.01;stroke-linecap:butt;stroke-linejoin:miter;stroke:rgb(0%,0%,0%);stroke-opacity:1;stroke-miterlimit:10;" d="M 0.0941406 0.662344 L 0.159102 0.467539 L 0.288945 0.305195 L 0.353906 0.207773 L 0.418828 0.110391 L 0.548711 0.0454688 L 0.678555 0.142852 L 0.840898 0.207773 L 0.873359 0.402578 L 0.905859 0.564922 L 0.840898 0.727266 L 0.808438 0.954531 L 0.613633 0.92207 L 0.353906 0.889609 L 0.224023 0.857148 Z M 0.0941406 0.662344 " transform="matrix(100,0,0,100,0,2300)"/>
<path style="fill:none;stroke-width:0.01;stroke-linecap:butt;stroke-linejoin:miter;stroke:rgb(0%,0%,0%);stroke-opacity:1;stroke-miterlimit:10;" d="M 0.414766 0.556836 L 0.301133 0.272734 L 0.471602 0.0454688 L 0.585234 0.0454688 L 0.698867 0.386367 L 0.8125 0.670469 L 0.755664 0.840898 L 0.642031 0.954531 L 0.471602 0.727266 L 0.1875 0.613633 Z M 0.414766 0.556836 " transform="matrix(100,0,0,100,150,2300)"/>
<path style="fill:none;stroke-width:0.01;stroke-linecap:butt;stroke-linejoin:miter;stroke:rgb(0%,0%,0%);stroke-opacity:1;stroke-miterlimit:10;" d="M 0.435078 0.110391 L 0.824688 0.0454688 L 0.824688 0.694805 L 0.694805 0.889609 L 0.5 0.954531 L 0.175312 0.889609 L 0.175312 0.694805 L 0.240273 0.564922 L 0.240273 0.370117 Z M 0.435078 0.110391 " transform="matrix(100,0,0,100,300,2300)"/>
<path style="fill:none;stroke-width:0.01;stroke-linecap:butt;stroke-linejoin:miter;stroke:rgb(0%,0%,0%);stroke-opacity:1;stroke-miterlimit:10;" d="M 0.467539 0.0454688 L 0.142852 0.0454688 L 0.110391 0.110391 L 0.175313 0.175313 L 0.272734 0.240273 L 0.337656 0.305195 L 0.370117 0.435078 L 0.402578 0.662344 L 0.435078 0.792227 L 0.629883 0.857148 L 0.694805 0.889609 L 0.792227 0.954531 L 0.889609 0.889609 L 0.857148 0.694805 L 0.824688 0.435078 L 0.857148 0.110391 L 0.824688 0.0454688 Z M 0.467539 0.0454688 " transform="matrix(100,0,0,100,450,2300)"/>
<path style="fill:none;stroke-width:0.01;stroke-linecap:butt;stroke-linejoin:miter;stroke:rgb(0%,0%,0%);stroke-opacity:1;stroke-miterlimit:10;" d="M 0.830586 0.706602 L 0.706602 0.913242 L 0.458672 0.954531 L 0.25207 0.913242 L 0.169414 0.830586 L 0.169414 0.623984 L 0.25207 0.293398 L 0.417344 0.210742 L 0.458672 0.128086 L 0.541328 0.0867578 L 0.582656 0.0454688 L 0.665273 0.0454688 L 0.706602 0.128086 L 0.706602 0.458672 Z M 0.830586 0.706602 " transform="matrix(100,0,0,100,600,2300)"/>
<path style="fill:none;stroke-width:0.01;stroke-linecap:butt;stroke-linejoin:miter;stroke:rgb(0%,0%,0%);stroke-opacity:1;stroke-miterlimit:10;" d="M 0.430078 0.488359 L 0.383437 0.488359 L 0.336836 0.581602 L 0.290195 0.651523 L 0.266914 0.744766 L 0.266914 0.838008 L 0.360156 0.90793 L 0.47668 0.93125 L 0.639844 0.954531 L 0.733086 0.954531 L 0.733086 0.604883 L 0.709805 0.395117 L 0.639844 0.0454688 L 0.593242 0.185313 L 0.453398 0.255234 L 0.383437 0.371797 L 0.383437 0.418398 Z M 0.430078 0.488359 " transform="matrix(100,0,0,100,0,2450)"/>
<path style="fill:none;stroke-width:0.01;stroke-linecap:butt;stroke-linejoin:miter;stroke:rgb(0%,0%,0%);stroke-opacity:1;stroke-miterlimit:10;" d="M 0.0933203 0.428242 L 0.236836 0.763164 L 0.380391 0.858867 L 0.476094 0.954531 L 0.667461 0.90668 L 0.811016 0.811016 L 0.90668 0.523906 L 0.858867 0.236836 L 0.715313 0.0454688 L 0.236836 0.0454688 L 0.0933203 0.188984 Z M 0.0933203 0.428242 " transform="matrix(100,0,0,100,150,2450)"/>
<path style="fill:none;stroke-width:0.01;stroke-linecap:butt;stroke-linejoin:miter;stroke:rgb(0%,0%,0%);stroke-opacity:1;stroke-miterlimit:10;" d="M 0.36668 0.518164 L 0.427266 0.457578 L 0.439375 0.409102 L 0.463633 0.396953 L 0.487891 0.360625 L 0.512109 0.263633 L 0.524258 0.142422 L 0.536367 0.0818359 L 0.560625 0.0454688 L 0.609102 0.0939453 L 0.609102 0.190898 L 0.681836 0.312109 L 0.706055 0.481836 L 0.63332 0.554531 L 0.560625 0.615156 L 0.548477 0.724258 L 0.524258 0.83332 L 0.403047 0.954531 L 0.354531 0.918164 L 0.318164 0.869688 L 0.293945 0.845469 L 0.293945 0.760625 L 0.306055 0.675742 L 0.330313 0.639375 L 0.354531 0.554531 Z M 0.36668 0.518164 " transform="matrix(100,0,0,100,300,2450)"/>
<path style="fill:none;stroke-width:0.01;stroke-linecap:butt;stroke-linejoin:miter;stroke:rgb(0%,0%,0%);stroke-opacity:1;stroke-miterlimit:10;" d="M 0.302578 0.440313 L 0.330117 0.541328 L 0.348477 0.578047 L 0.394414 0.587227 L 0.431133 0.651523 L 0.458672 0.669883 L 0.477031 0.688242 L 0.449492 0.770898 L 0.302578 0.862734 L 0.311758 0.908633 L 0.265859 0.945352 L 0.201563 0.954531 L 0.183203 0.908633 L 0.183203 0.761719 L 0.219922 0.706602 L 0.219922 0.623984 L 0.247461 0.513789 L 0.229102 0.449492 L 0.238281 0.376016 L 0.238281 0.330117 L 0.256641 0.284219 L 0.275039 0.201563 L 0.330117 0.146445 L 0.357656 0.109727 L 0.421953 0.146445 L 0.467852 0.155664 L 0.522969 0.137266 L 0.568867 0.118906 L 0.633164 0.0730078 L 0.688242 0.0454688 L 0.743359 0.0454688 L 0.798438 0.109727 L 0.816797 0.219922 L 0.798438 0.265859 L 0.697422 0.311758 L 0.688242 0.348477 L 0.550508 0.394414 L 0.660703 0.293398 L 0.541328 0.339297 L 0.614766 0.238281 L 0.495391 0.330117 L 0.568867 0.210742 L 0.495391 0.247461 L 0.467852 0.311758 L 0.522969 0.174023 L 0.440313 0.219922 L 0.477031 0.174023 L 0.421953 0.146445 L 0.357656 0.109727 L 0.339297 0.128086 L 0.348477 0.174023 L 0.366836 0.210742 L 0.376016 0.247461 L 0.376016 0.311758 L 0.412773 0.320937 L 0.357656 0.348477 L 0.440313 0.366836 L 0.467852 0.348477 L 0.403594 0.403594 L 0.385234 0.431133 L 0.431133 0.421953 L 0.477031 0.403594 L 0.431133 0.449492 L 0.403594 0.458672 L 0.366836 0.431133 L 0.320938 0.403594 Z M 0.302578 0.440313 " transform="matrix(100,0,0,100,450,2450)"/>
<path style="fill:none;stroke-width:0.01;stroke-linecap:butt;stroke-linejoin:miter;stroke:rgb(0%,0%,0%);stroke-opacity:1;stroke-miterlimit:10;" d="M 0.459883 0.0454688 L 0.299453 0.152422 L 0.326211 0.393047 L 0.299453 0.580195 L 0.245977 0.687148 L 0.272734 0.847578 L 0.326211 0.954531 L 0.540117 0.874336 L 0.620312 0.767383 L 0.64707 0.553477 L 0.64707 0.366328 L 0.754023 0.259375 L 0.673789 0.0989453 L 0.64707 0.0454688 Z M 0.459883 0.0454688 " transform="matrix(100,0,0,100,600,2450)"/>
<path style="fill:none;stroke-width:0.01;stroke-linecap:butt;stroke-linejoin:miter;stroke:rgb(0%,0%,0%);stroke-opacity:1;stroke-miterlimit:10;" d="M 0.613633 0.689375 L 0.0454688 0.727266 L 0.0454688 0.613633 L 0.272734 0.462109 L 0.651523 0.272734 L 0.803047 0.272734 L 0.91668 0.5 L 0.954531 0.613633 Z M 0.613633 0.689375 " transform="matrix(100,0,0,100,0,2600)"/>
<path style="fill:none;stroke-width:0.01;stroke-linecap:butt;stroke-linejoin:miter;stroke:rgb(0%,0%,0%);stroke-opacity:1;stroke-miterlimit:10;" d="M 0.243086 0.282617 L 0.243086 0.796445 L 0.282617 0.954531 L 0.519766 0.915039 L 0.717383 0.875508 L 0.796445 0.519766 L 0.717383 0.282617 L 0.559297 0.203555 L 0.322148 0.0849609 L 0.203555 0.0454688 Z M 0.243086 0.282617 " transform="matrix(100,0,0,100,150,2600)"/>
<path style="fill:none;stroke-width:0.01;stroke-linecap:butt;stroke-linejoin:miter;stroke:rgb(0%,0%,0%);stroke-opacity:1;stroke-miterlimit:10;" d="M 0.557227 0.0517969 L 0.468203 0.185313 L 0.372852 0.420547 L 0.328359 0.541328 L 0.283867 0.668477 L 0.264766 0.776523 L 0.264766 0.840117 L 0.315625 0.897344 L 0.385586 0.941836 L 0.449141 0.954531 L 0.512695 0.884609 L 0.639844 0.757461 L 0.684375 0.725664 L 0.684375 0.655742 L 0.709805 0.592188 L 0.728867 0.573125 L 0.735234 0.420547 L 0.709805 0.331523 L 0.690703 0.236172 L 0.652578 0.14082 L 0.620781 0.0581641 L 0.608086 0.0454688 Z M 0.557227 0.0517969 " transform="matrix(100,0,0,100,300,2600)"/>
<path style="fill:none;stroke-width:0.01;stroke-linecap:butt;stroke-linejoin:miter;stroke:rgb(0%,0%,0%);stroke-opacity:1;stroke-miterlimit:10;" d="M 0.796445 0.0454688 L 0.835977 0.954531 L 0.598828 0.835977 L 0.322148 0.717383 L 0.203555 0.440703 L 0.164023 0.322148 L 0.164023 0.0454688 Z M 0.796445 0.0454688 " transform="matrix(100,0,0,100,450,2600)"/>
<path style="fill:none;stroke-width:0.01;stroke-linecap:butt;stroke-linejoin:miter;stroke:rgb(0%,0%,0%);stroke-opacity:1;stroke-miterlimit:10;" d="M 0.689375 0.575742 L 0.689375 0.878789 L 0.651523 0.954531 L 0.424258 0.803047 L 0.348477 0.727266 L 0.310625 0.575742 L 0.348477 0.424258 L 0.424258 0.310625 L 0.5 0.159102 L 0.613633 0.0833203 L 0.651523 0.0454688 L 0.651523 0.196953 Z M 0.689375 0.575742 " transform="matrix(100,0,0,100,600,2600)"/>
<path style="fill:none;stroke-width:0.01;stroke-linecap:butt;stroke-linejoin:miter;stroke:rgb(0%,0%,0%);stroke-opacity:1;stroke-miterlimit:10;" d="M 0.0454688 0.458672 L 0.0867578 0.665273 L 0.293398 0.871914 L 0.541328 0.954531 L 0.871914 0.74793 L 0.954531 0.541328 L 0.789258 0.293398 L 0.582656 0.0454688 L 0.417344 0.0454688 L 0.293398 0.128086 L 0.0867578 0.293398 Z M 0.0454688 0.458672 " transform="matrix(100,0,0,100,0,2750)"/>
<path style="fill:none;stroke-width:0.01;stroke-linecap:butt;stroke-linejoin:miter;stroke:rgb(0%,0%,0%);stroke-opacity:1;stroke-miterlimit:10;" d="M 0.0933203 0.523906 L 0.0933203 0.188984 L 0.284687 0.0454688 L 0.523906 0.0454688 L 0.811016 0.141133 L 0.90668 0.476094 L 0.90668 0.715312 L 0.811016 0.954531 L 0.428242 0.763164 Z M 0.0933203 0.523906 " transform="matrix(100,0,0,100,150,2750)"/>
<path style="fill:none;stroke-width:0.01;stroke-linecap:butt;stroke-linejoin:miter;stroke:rgb(0%,0%,0%);stroke-opacity:1;stroke-miterlimit:10;" d="M 0.484844 0.16668 L 0.363633 0.227266 L 0.393945 0.439375 L 0.272734 0.5 L 0.242422 0.83332 L 0.363633 0.954531 L 0.515156 0.893945 L 0.696953 0.893945 L 0.727266 0.590898 L 0.757578 0.409102 L 0.66668 0.0454688 L 0.606055 0.0454688 Z M 0.484844 0.16668 " transform="matrix(100,0,0,100,300,2750)"/>
<path style="fill:none;stroke-width:0.01;stroke-linecap:butt;stroke-linejoin:miter;stroke:rgb(0%,0%,0%);stroke-opacity:1;stroke-miterlimit:10;" d="M 0.468633 0.0767969 L 0.594062 0.0454688 L 0.719453 0.139492 L 0.750781 0.29625 L 0.782148 0.547031 L 0.750781 0.829141 L 0.625391 0.954531 L 0.468633 0.860508 L 0.343242 0.829141 L 0.280547 0.766445 L 0.249219 0.641055 L 0.249219 0.547031 L 0.217852 0.29625 L 0.280547 0.233555 L 0.405938 0.170859 Z M 0.468633 0.0767969 " transform="matrix(100,0,0,100,450,2750)"/>
<path style="fill:none;stroke-width:0.01;stroke-linecap:butt;stroke-linejoin:miter;stroke:rgb(0%,0%,0%);stroke-opacity:1;stroke-miterlimit:10;" d="M 0.926133 0.443164 L 0.926133 0.954531 L 0.471602 0.727266 L 0.0738672 0.443164 L 0.0738672 0.329531 L 0.357969 0.159102 L 0.642031 0.102266 L 0.869336 0.0454688 Z M 0.926133 0.443164 " transform="matrix(100,0,0,100,600,2750)"/>
<path style="fill:none;stroke-width:0.01;stroke-linecap:butt;stroke-linejoin:miter;stroke:rgb(0%,0%,0%);stroke-opacity:1;stroke-miterlimit:10;" d="M 0.269609 0.792656 L 0.257148 0.356797 L 0.257148 0.28207 L 0.269609 0.232266 L 0.431523 0.145078 L 0.518672 0.0828125 L 0.568477 0.0828125 L 0.61832 0.0578906 L 0.668125 0.0454688 L 0.655664 0.157539 L 0.668125 0.257148 L 0.705469 0.294531 L 0.693008 0.406602 L 0.71793 0.468867 L 0.730391 0.531133 L 0.730391 0.643203 L 0.742852 0.730391 L 0.730391 0.817578 L 0.668125 0.817578 L 0.605859 0.780195 L 0.605859 0.730391 L 0.518672 0.71793 L 0.506211 0.817578 L 0.506211 0.892266 L 0.481328 0.954531 L 0.431523 0.904727 Z M 0.269609 0.792656 " transform="matrix(100,0,0,100,0,2900)"/>
<path style="fill:none;stroke-width:0.01;stroke-linecap:butt;stroke-linejoin:miter;stroke:rgb(0%,0%,0%);stroke-opacity:1;stroke-miterlimit:10;" d="M 0.155156 0.421641 L 0.217852 0.202188 L 0.249219 0.0767969 L 0.311914 0.0454688 L 0.625391 0.233555 L 0.813477 0.29625 L 0.876172 0.484336 L 0.844844 0.609727 L 0.813477 0.829141 L 0.688086 0.860508 L 0.5 0.829141 L 0.374609 0.829141 L 0.217852 0.954531 L 0.186523 0.829141 L 0.155156 0.735117 L 0.123828 0.578359 Z M 0.155156 0.421641 " transform="matrix(100,0,0,100,150,2900)"/>
<path style="fill:none;stroke-width:0.01;stroke-linecap:butt;stroke-linejoin:miter;stroke:rgb(0%,0%,0%);stroke-opacity:1;stroke-miterlimit:10;" d="M 0.871914 0.190078 L 0.706602 0.14875 L 0.541328 0.14875 L 0.169414 0.190078 L 0.0867578 0.314063 L 0.0454687 0.438008 L 0.0867578 0.809922 L 0.376016 0.85125 L 0.623984 0.809922 L 0.74793 0.727266 L 0.913242 0.60332 L 0.954531 0.355391 Z M 0.871914 0.190078 " transform="matrix(100,0,0,100,300,2900)"/>
<path style="fill:none;stroke-width:0.01;stroke-linecap:butt;stroke-linejoin:miter;stroke:rgb(0%,0%,0%);stroke-opacity:1;stroke-miterlimit:10;" d="M 0.595391 0.0791406 L 0.528047 0.112813 L 0.449492 0.0566797 L 0.337266 0.101562 L 0.23625 0.258711 L 0.202578 0.370938 L 0.180117 0.561719 L 0.168906 0.808633 L 0.180117 0.932109 L 0.168906 0.954531 L 0.326055 0.954531 L 0.707617 0.94332 L 0.696406 0.831094 L 0.730078 0.629062 L 0.831094 0.427031 L 0.774961 0.303594 L 0.651523 0.112813 L 0.58418 0.0454688 Z M 0.595391 0.0791406 " transform="matrix(100,0,0,100,450,2900)"/>
<path style="fill:none;stroke-width:0.01;stroke-linecap:butt;stroke-linejoin:miter;stroke:rgb(0%,0%,0%);stroke-opacity:1;stroke-miterlimit:10;" d="M 0.578789 0.0454688 L 0.481836 0.0575781 L 0.445469 0.0818359 L 0.43332 0.178789 L 0.396953 0.190898 L 0.348477 0.215156 L 0.348477 0.275742 L 0.360625 0.348477 L 0.372734 0.590898 L 0.396953 0.724258 L 0.421211 0.809102 L 0.445469 0.845469 L 0.493945 0.857578 L 0.530312 0.918164 L 0.590898 0.954531 L 0.651523 0.918164 L 0.639375 0.821211 L 0.651523 0.348477 L 0.627266 0.142422 Z M 0.578789 0.0454688 " transform="matrix(100,0,0,100,600,2900)"/>
<path style="fill:none;stroke-width:0.01;stroke-linecap:butt;stroke-linejoin:miter;stroke:rgb(0%,0%,0%);stroke-opacity:1;stroke-miterlimit:10;" d="M 0.236055 0.338711 L 0.324063 0.661289 L 0.382695 0.80793 L 0.529336 0.954531 L 0.822578 0.954531 L 0.793242 0.690625 L 0.793242 0.485352 L 0.705273 0.162773 L 0.675937 0.0747656 L 0.177422 0.0454688 Z M 0.236055 0.338711 " transform="matrix(100,0,0,100,0,3050)"/>
<path style="fill:none;stroke-width:0.01;stroke-linecap:butt;stroke-linejoin:miter;stroke:rgb(0%,0%,0%);stroke-opacity:1;stroke-miterlimit:10;" d="M 0.307695 0.255234 L 0.255234 0.430078 L 0.237773 0.5 L 0.272734 0.569922 L 0.342656 0.657344 L 0.430078 0.762227 L 0.534961 0.832148 L 0.604883 0.91957 L 0.709805 0.954531 L 0.762227 0.954531 L 0.762227 0.360156 L 0.744766 0.0629297 L 0.674844 0.115391 L 0.569922 0.0454688 L 0.465039 0.150352 Z M 0.307695 0.255234 " transform="matrix(100,0,0,100,150,3050)"/>
<path style="fill:none;stroke-width:0.01;stroke-linecap:butt;stroke-linejoin:miter;stroke:rgb(0%,0%,0%);stroke-opacity:1;stroke-miterlimit:10;" d="M 0.193437 0.362578 L 0.341445 0.172305 L 0.531719 0.151172 L 0.912266 0.108867 L 0.954531 0.130039 L 0.912266 0.235742 L 0.933398 0.320312 L 0.891133 0.447148 L 0.869961 0.658555 L 0.78543 0.806563 L 0.743125 0.891133 L 0.510586 0.869961 L 0.299141 0.827695 L 0.151172 0.78543 L 0.0454687 0.700859 L 0.0666016 0.552852 Z M 0.193437 0.362578 " transform="matrix(100,0,0,100,300,3050)"/>
<path style="fill:none;stroke-width:0.01;stroke-linecap:butt;stroke-linejoin:miter;stroke:rgb(0%,0%,0%);stroke-opacity:1;stroke-miterlimit:10;" d="M 0.511641 0.0454688 L 0.395117 0.138711 L 0.348477 0.231953 L 0.348477 0.441719 L 0.441719 0.581602 L 0.465039 0.814688 L 0.488359 0.90793 L 0.534961 0.954531 L 0.604883 0.861289 L 0.651523 0.791367 L 0.604883 0.581602 L 0.651523 0.418398 L 0.604883 0.278555 L 0.604883 0.208633 Z M 0.511641 0.0454688 " transform="matrix(100,0,0,100,450,3050)"/>
<path style="fill:none;stroke-width:0.01;stroke-linecap:butt;stroke-linejoin:miter;stroke:rgb(0%,0%,0%);stroke-opacity:1;stroke-miterlimit:10;" d="M 0.165781 0.152422 L 0.219258 0.366328 L 0.299453 0.419805 L 0.35293 0.473281 L 0.406406 0.5 L 0.35293 0.606953 L 0.299453 0.687148 L 0.299453 0.794102 L 0.406406 0.901055 L 0.513359 0.954531 L 0.593594 0.874336 L 0.700547 0.847578 L 0.8075 0.820859 L 0.834219 0.740625 L 0.673789 0.633672 L 0.593594 0.5 L 0.593594 0.312852 L 0.513359 0.205898 L 0.406406 0.125664 L 0.566836 0.0454688 L 0.433164 0.0454688 L 0.299453 0.0721875 Z M 0.165781 0.152422 " transform="matrix(100,0,0,100,600,3050)"/>
<path style="fill:none;stroke-width:0.01;stroke-linecap:butt;stroke-linejoin:miter;stroke:rgb(0%,0%,0%);stroke-opacity:1;stroke-miterlimit:10;" d="M 0.272734 0.0454687 L 0.636367 0.181836 L 0.727266 0.409102 L 0.727266 0.681836 L 0.681836 0.863633 L 0.454531 0.954531 L 0.363633 0.772734 L 0.318164 0.5 L 0.363633 0.227266 Z M 0.272734 0.0454687 " transform="matrix(100,0,0,100,0,3200)"/>
<path style="fill:none;stroke-width:0.01;stroke-linecap:butt;stroke-linejoin:miter;stroke:rgb(0%,0%,0%);stroke-opacity:1;stroke-miterlimit:10;" d="M 0.355391 0.334727 L 0.39668 0.0454687 L 0.644609 0.169414 L 0.727266 0.169414 L 0.727266 0.376016 L 0.768594 0.623984 L 0.768594 0.830586 L 0.644609 0.913242 L 0.479336 0.954531 L 0.355391 0.830586 L 0.231406 0.623984 Z M 0.355391 0.334727 " transform="matrix(100,0,0,100,150,3200)"/>
<path style="fill:none;stroke-width:0.01;stroke-linecap:butt;stroke-linejoin:miter;stroke:rgb(0%,0%,0%);stroke-opacity:1;stroke-miterlimit:10;" d="M 0.70375 0.0454687 L 0.531367 0.233555 L 0.437305 0.374609 L 0.421641 0.452969 L 0.421641 0.547031 L 0.327578 0.641055 L 0.29625 0.797812 L 0.358945 0.923203 L 0.390273 0.954531 L 0.70375 0.954531 Z M 0.70375 0.0454687 " transform="matrix(100,0,0,100,300,3200)"/>
<path style="fill:none;stroke-width:0.01;stroke-linecap:butt;stroke-linejoin:miter;stroke:rgb(0%,0%,0%);stroke-opacity:1;stroke-miterlimit:10;" d="M 0.283906 0.82043 L 0.447852 0.954531 L 0.701211 0.954531 L 0.850234 0.745898 L 0.805508 0.581953 L 0.82043 0.403125 L 0.775703 0.134883 L 0.745898 0.0454687 L 0.462734 0.0454687 L 0.37332 0.0603516 L 0.298789 0.134883 L 0.23918 0.254102 L 0.209375 0.37332 L 0.17957 0.522344 L 0.149766 0.656484 L 0.17957 0.745898 Z M 0.283906 0.82043 " transform="matrix(100,0,0,100,450,3200)"/>
<path style="fill:none;stroke-width:0.01;stroke-linecap:butt;stroke-linejoin:miter;stroke:rgb(0%,0%,0%);stroke-opacity:1;stroke-miterlimit:10;" d="M 0.471602 0.0454687 L 0.386367 0.215898 L 0.329531 0.329531 L 0.272734 0.414766 L 0.272734 0.585234 L 0.329531 0.784102 L 0.329531 0.897734 L 0.386367 0.954531 L 0.556836 0.784102 L 0.613633 0.642031 L 0.727266 0.5 L 0.727266 0.386367 L 0.585234 0.130664 Z M 0.471602 0.0454687 " transform="matrix(100,0,0,100,600,3200)"/>
<path style="fill:none;stroke-width:0.01;stroke-linecap:butt;stroke-linejoin:miter;stroke:rgb(0%,0%,0%);stroke-opacity:1;stroke-miterlimit:10;" d="M 0.518555 0.138203 L 0.462891 0.212422 L 0.444336 0.305195 L 0.444336 0.435078 L 0.388672 0.583477 L 0.333008 0.713359 L 0.444336 0.806133 L 0.5 0.917422 L 0.574219 0.954531 L 0.666992 0.898906 L 0.666992 0.0454687 Z M 0.518555 0.138203 " transform="matrix(100,0,0,100,0,3350)"/>
<path style="fill:none;stroke-width:0.01;stroke-linecap:butt;stroke-linejoin:miter;stroke:rgb(0%,0%,0%);stroke-opacity:1;stroke-miterlimit:10;" d="M 0.364297 0.628906 L 0.418594 0.940977 L 0.527148 0.954531 L 0.622109 0.954531 L 0.649258 0.723867 L 0.635703 0.343945 L 0.622109 0.113281 L 0.581406 0.0725781 L 0.527148 0.0454687 L 0.432148 0.0725781 L 0.391445 0.181133 L 0.350742 0.248984 L 0.350742 0.5475 Z M 0.364297 0.628906 " transform="matrix(100,0,0,100,150,3350)"/>
<path style="fill:none;stroke-width:0.01;stroke-linecap:butt;stroke-linejoin:miter;stroke:rgb(0%,0%,0%);stroke-opacity:1;stroke-miterlimit:10;" d="M 0.176758 0.0454687 L 0.196953 0.348477 L 0.196953 0.449492 L 0.378789 0.712109 L 0.479805 0.83332 L 0.58082 0.914141 L 0.681836 0.954531 L 0.803047 0.934336 L 0.823242 0.752539 L 0.803047 0.308086 L 0.803047 0.0454687 Z M 0.176758 0.0454687 " transform="matrix(100,0,0,100,300,3350)"/>
<path style="fill:none;stroke-width:0.01;stroke-linecap:butt;stroke-linejoin:miter;stroke:rgb(0%,0%,0%);stroke-opacity:1;stroke-miterlimit:10;" d="M 0.232617 0.0810938 L 0.25043 0.259375 L 0.214805 0.384141 L 0.214805 0.54457 L 0.286094 0.580195 L 0.553477 0.86543 L 0.606953 0.918906 L 0.678242 0.954531 L 0.696094 0.936719 L 0.767383 0.776289 L 0.785195 0.651523 L 0.785195 0.330664 L 0.767383 0.188047 L 0.731719 0.0810938 L 0.731719 0.0454687 Z M 0.232617 0.0810938 " transform="matrix(100,0,0,100,450,3350)"/>
<path style="fill:none;stroke-width:0.01;stroke-linecap:butt;stroke-linejoin:miter;stroke:rgb(0%,0%,0%);stroke-opacity:1;stroke-miterlimit:10;" d="M 0.428984 0.1875 L 0.428984 0.329531 L 0.400586 0.528398 L 0.400586 0.784102 L 0.372148 0.954531 L 0.514219 0.926133 L 0.627852 0.698867 L 0.627852 0.130664 L 0.542617 0.0454687 Z M 0.428984 0.1875 " transform="matrix(100,0,0,100,600,3350)"/>
<path style="fill:none;stroke-width:0.01;stroke-linecap:butt;stroke-linejoin:miter;stroke:rgb(0%,0%,0%);stroke-opacity:1;stroke-miterlimit:10;" d="M 0.537891 0.0454687 L 0.613633 0.196953 L 0.689375 0.537891 L 0.727266 0.803047 L 0.651523 0.954531 L 0.537891 0.803047 L 0.348477 0.765156 L 0.310625 0.575742 L 0.272734 0.386367 L 0.386367 0.196953 Z M 0.537891 0.0454687 " transform="matrix(100,0,0,100,0,3500)"/>
<path style="fill:none;stroke-width:0.01;stroke-linecap:butt;stroke-linejoin:miter;stroke:rgb(0%,0%,0%);stroke-opacity:1;stroke-miterlimit:10;" d="M 0.374414 0.0813281 L 0.314609 0.200938 L 0.374414 0.344492 L 0.386367 0.440195 L 0.422266 0.58375 L 0.434219 0.739219 L 0.446172 0.930625 L 0.494023 0.954531 L 0.589727 0.942578 L 0.673437 0.846875 L 0.685391 0.655508 L 0.637578 0.380391 L 0.625586 0.188984 L 0.565781 0.069375 L 0.48207 0.0454687 L 0.422266 0.0574219 Z M 0.374414 0.0813281 " transform="matrix(100,0,0,100,150,3500)"/>
<path style="fill:none;stroke-width:0.01;stroke-linecap:butt;stroke-linejoin:miter;stroke:rgb(0%,0%,0%);stroke-opacity:1;stroke-miterlimit:10;" d="M 0.48375 0.0454687 L 0.451289 0.175313 L 0.386367 0.321445 L 0.337656 0.451289 L 0.321445 0.629883 L 0.370117 0.743516 L 0.435078 0.857148 L 0.5 0.954531 L 0.613633 0.857148 L 0.662344 0.711055 L 0.678555 0.272734 L 0.629883 0.159102 L 0.597422 0.0941406 Z M 0.48375 0.0454687 " transform="matrix(100,0,0,100,300,3500)"/>
<path style="fill:none;stroke-width:0.01;stroke-linecap:butt;stroke-linejoin:miter;stroke:rgb(0%,0%,0%);stroke-opacity:1;stroke-miterlimit:10;" d="M 0.348477 0.954531 L 0.310625 0.689375 L 0.348477 0.348477 L 0.386367 0.0454687 L 0.613633 0.121211 L 0.689375 0.234844 L 0.689375 0.5 L 0.613633 0.689375 L 0.5 0.878789 Z M 0.348477 0.954531 " transform="matrix(100,0,0,100,450,3500)"/>
<path style="fill:none;stroke-width:0.01;stroke-linecap:butt;stroke-linejoin:miter;stroke:rgb(0%,0%,0%);stroke-opacity:1;stroke-miterlimit:10;" d="M 0.0454688 0.278867 L 0.242031 0.47543 L 0.438594 0.622852 L 0.610547 0.696562 L 0.733398 0.721133 L 0.954531 0.52457 L 0.954531 0.328008 Z M 0.0454688 0.278867 " transform="matrix(100,0,0,100,600,3500)"/>
<path style="fill:none;stroke-width:0.01;stroke-linecap:butt;stroke-linejoin:miter;stroke:rgb(0%,0%,0%);stroke-opacity:1;stroke-miterlimit:10;" d="M 0.843672 0.30043 L 0.0454688 0.30043 L 0.178477 0.566523 L 0.400234 0.69957 L 0.799336 0.544336 L 0.954531 0.433477 Z M 0.843672 0.30043 " transform="matrix(100,0,0,100,0,3650)"/>
<path style="fill:none;stroke-width:0.01;stroke-linecap:butt;stroke-linejoin:miter;stroke:rgb(0%,0%,0%);stroke-opacity:1;stroke-miterlimit:10;" d="M 0.691406 0.165078 L 0.476094 0.0454687 L 0.236836 0.236836 L 0.141133 0.380391 L 0.141133 0.523906 L 0.284687 0.691406 L 0.332539 0.882773 L 0.452148 0.954531 L 0.691406 0.858867 L 0.78707 0.715313 L 0.858867 0.5 L 0.834922 0.356445 Z M 0.691406 0.165078 " transform="matrix(100,0,0,100,150,3650)"/>
<path style="fill:none;stroke-width:0.01;stroke-linecap:butt;stroke-linejoin:miter;stroke:rgb(0%,0%,0%);stroke-opacity:1;stroke-miterlimit:10;" d="M 0.304375 0.206563 L 0.373398 0.655352 L 0.442461 0.943047 L 0.511523 0.954531 L 0.672617 0.873984 L 0.695625 0.701367 L 0.638086 0.52875 L 0.638086 0.37918 L 0.649609 0.310117 L 0.626602 0.218086 L 0.557539 0.1375 L 0.5 0.0799609 L 0.465469 0.0684766 L 0.361914 0.0454687 L 0.315898 0.0684766 Z M 0.304375 0.206563 " transform="matrix(100,0,0,100,300,3650)"/>
</g>
</svg>
