<?xml version="1.0" encoding="UTF-8"?>
<svg xmlns="http://www.w3.org/2000/svg" xmlns:xlink="http://www.w3.org/1999/xlink" width="750pt" height="10000pt" viewBox="0 0 750 10000" version="1.1">
<g id="surface1">
<path style="fill:none;stroke-width:0.01;stroke-linecap:butt;stroke-linejoin:miter;stroke:rgb(0%,0%,0%);stroke-opacity:1;stroke-miterlimit:10;" d="M 0.608242 0.954531 L 0.348477 0.91125 L 0.218633 0.694805 L 0.218633 0.435078 L 0.348477 0.305195 L 0.348477 0.218633 L 0.521641 0.08875 L 0.694805 0.0454687 L 0.781367 0.175312 L 0.781367 0.348477 L 0.564922 0.478359 L 0.608242 0.651523 Z M 0.608242 0.954531 " transform="matrix(100,0,0,100,0,200)"/>
<path style="fill:none;stroke-width:0.01;stroke-linecap:butt;stroke-linejoin:miter;stroke:rgb(0%,0%,0%);stroke-opacity:1;stroke-miterlimit:10;" d="M 0.524336 0.711055 L 0.410703 0.646094 L 0.362031 0.51625 L 0.345781 0.402578 L 0.29707 0.272734 L 0.280859 0.191562 L 0.31332 0.0941406 L 0.345781 0.0454687 L 0.459414 0.0616797 L 0.556836 0.0941406 L 0.621758 0.142852 L 0.670469 0.272734 L 0.70293 0.451289 L 0.637969 0.564922 L 0.637969 0.629883 L 0.68668 0.727266 L 0.719141 0.873359 L 0.68668 0.954531 L 0.556836 0.840898 L 0.621758 0.775977 L 0.621758 0.711055 Z M 0.524336 0.711055 " transform="matrix(100,0,0,100,150,200)"/>
<path style="fill:none;stroke-width:0.01;stroke-linecap:butt;stroke-linejoin:miter;stroke:rgb(0%,0%,0%);stroke-opacity:1;stroke-miterlimit:10;" d="M 0.606641 0.359727 L 0.595391 0.427031 L 0.617852 0.528047 L 0.606641 0.595391 L 0.595391 0.629062 L 0.606641 0.718867 L 0.561719 0.730078 L 0.550508 0.741289 L 0.528047 0.797422 L 0.528047 0.864766 L 0.539297 0.94332 L 0.528047 0.954531 L 0.427031 0.94332 L 0.41582 0.909648 L 0.438281 0.842305 L 0.449492 0.76375 L 0.404609 0.696406 L 0.393359 0.617852 L 0.438281 0.572969 L 0.494375 0.539297 L 0.505625 0.483164 L 0.494375 0.438281 L 0.483164 0.41582 L 0.382148 0.393359 L 0.393359 0.337266 L 0.550508 0.314805 L 0.572969 0.292383 L 0.528047 0.23625 L 0.528047 0.202578 L 0.561719 0.168906 L 0.572969 0.0903516 L 0.606641 0.0454687 L 0.606641 0.124023 L 0.595391 0.157695 L 0.595391 0.202578 L 0.58418 0.213789 L 0.606641 0.292383 Z M 0.606641 0.359727 " transform="matrix(100,0,0,100,300,200)"/>
<path style="fill:none;stroke-width:0.01;stroke-linecap:butt;stroke-linejoin:miter;stroke:rgb(0%,0%,0%);stroke-opacity:1;stroke-miterlimit:10;" d="M 0.594805 0.0454687 L 0.477695 0.0566016 L 0.466523 0.0733594 L 0.455391 0.112383 L 0.472109 0.140273 L 0.472109 0.151406 L 0.449805 0.162578 L 0.449805 0.190469 L 0.460977 0.207187 L 0.460977 0.240664 L 0.466523 0.257383 L 0.449805 0.268555 L 0.438633 0.274141 L 0.449805 0.307578 L 0.477695 0.335469 L 0.472109 0.363359 L 0.472109 0.413555 L 0.466523 0.452578 L 0.460977 0.458164 L 0.466523 0.480469 L 0.460977 0.502773 L 0.449805 0.530664 L 0.449805 0.564141 L 0.433086 0.586445 L 0.449805 0.60875 L 0.449805 0.619922 L 0.433086 0.647813 L 0.444219 0.692422 L 0.433086 0.742617 L 0.444219 0.787227 L 0.421914 0.82625 L 0.416328 0.854141 L 0.405195 0.882031 L 0.4275 0.909922 L 0.438633 0.937813 L 0.460977 0.954531 L 0.483281 0.921094 L 0.522305 0.898789 L 0.544609 0.882031 L 0.539023 0.854141 L 0.550195 0.82625 L 0.544609 0.781641 L 0.522305 0.792813 L 0.505586 0.781641 L 0.494414 0.748203 L 0.488828 0.703555 L 0.483281 0.698008 L 0.483281 0.631055 L 0.516719 0.396836 L 0.527891 0.313164 L 0.533477 0.274141 L 0.516719 0.257383 L 0.516719 0.201602 L 0.511172 0.17375 L 0.539023 0.145859 L 0.5725 0.140273 L 0.583672 0.117969 Z M 0.594805 0.0454687 " transform="matrix(100,0,0,100,450,200)"/>
<path style="fill:none;stroke-width:0.01;stroke-linecap:butt;stroke-linejoin:miter;stroke:rgb(0%,0%,0%);stroke-opacity:1;stroke-miterlimit:10;" d="M 0.679883 0.0454687 L 0.463242 0.0532031 L 0.474844 0.091875 L 0.49418 0.122813 L 0.490312 0.138281 L 0.482578 0.161523 L 0.501953 0.169258 L 0.501953 0.200195 L 0.49418 0.215664 L 0.478711 0.231133 L 0.470977 0.26207 L 0.478711 0.296914 L 0.482578 0.312383 L 0.467109 0.320117 L 0.447773 0.331719 L 0.436172 0.34332 L 0.432305 0.354922 L 0.455508 0.385898 L 0.474844 0.412969 L 0.478711 0.436172 L 0.467109 0.447773 L 0.467109 0.474844 L 0.443906 0.490312 L 0.405234 0.486445 L 0.381992 0.490312 L 0.389766 0.517422 L 0.3975 0.556094 L 0.412969 0.590898 L 0.405234 0.610234 L 0.362656 0.637344 L 0.335586 0.660547 L 0.320117 0.676016 L 0.335586 0.714688 L 0.347188 0.749531 L 0.362656 0.772734 L 0.362656 0.795937 L 0.358789 0.834609 L 0.378125 0.87332 L 0.416836 0.919727 L 0.443906 0.94293 L 0.482578 0.954531 L 0.525156 0.94293 L 0.552227 0.935195 L 0.587031 0.94293 L 0.621875 0.935195 L 0.614102 0.911992 L 0.621875 0.87332 L 0.633477 0.819141 L 0.610234 0.776602 L 0.625742 0.718555 L 0.652813 0.65668 L 0.633477 0.629609 L 0.594766 0.590898 L 0.621875 0.571563 L 0.637344 0.490312 L 0.637344 0.409102 L 0.625742 0.354922 L 0.641211 0.293047 L 0.641211 0.227266 L 0.648945 0.157656 L 0.625742 0.176992 L 0.641211 0.149922 L 0.660547 0.107344 L 0.672148 0.0648047 Z M 0.679883 0.0454687 " transform="matrix(100,0,0,100,600,200)"/>
<path style="fill:none;stroke-width:0.01;stroke-linecap:butt;stroke-linejoin:miter;stroke:rgb(0%,0%,0%);stroke-opacity:1;stroke-miterlimit:10;" d="M 0.674844 0.167852 L 0.587422 0.167852 L 0.534961 0.272734 L 0.5 0.307695 L 0.4825 0.342656 L 0.430078 0.202813 L 0.342656 0.0454687 L 0.360156 0.307695 L 0.325156 0.307695 L 0.290195 0.412578 L 0.220273 0.465039 L 0.272734 0.552461 L 0.342656 0.657344 L 0.272734 0.692305 L 0.412578 0.744766 L 0.395117 0.832148 L 0.465039 0.954531 L 0.622383 0.954531 L 0.639844 0.779727 L 0.639844 0.622383 L 0.604883 0.569922 L 0.622383 0.552461 L 0.692305 0.5175 L 0.762227 0.5 L 0.779727 0.412578 L 0.692305 0.360156 L 0.762227 0.255234 L 0.744766 0.167852 Z M 0.674844 0.167852 " transform="matrix(100,0,0,100,0,350)"/>
<path style="fill:none;stroke-width:0.01;stroke-linecap:butt;stroke-linejoin:miter;stroke:rgb(0%,0%,0%);stroke-opacity:1;stroke-miterlimit:10;" d="M 0.497773 0.426094 L 0.479844 0.466406 L 0.448516 0.506719 L 0.426094 0.529102 L 0.417148 0.560469 L 0.412656 0.582852 L 0.417148 0.609727 L 0.444023 0.605234 L 0.457461 0.596289 L 0.461953 0.596289 L 0.448516 0.605234 L 0.439531 0.623164 L 0.417148 0.632109 L 0.408203 0.663477 L 0.394766 0.685859 L 0.390273 0.708242 L 0.408203 0.766445 L 0.412656 0.806758 L 0.412656 0.842578 L 0.426094 0.905273 L 0.444023 0.954531 L 0.470898 0.954531 L 0.488789 0.932148 L 0.497773 0.905273 L 0.502227 0.882891 L 0.533594 0.864961 L 0.555977 0.856016 L 0.538047 0.869453 L 0.533594 0.891836 L 0.524648 0.905273 L 0.542539 0.909766 L 0.564922 0.909766 L 0.582852 0.914258 L 0.600742 0.896328 L 0.609727 0.753008 L 0.609727 0.0454687 L 0.564922 0.0633594 L 0.560469 0.121602 L 0.555977 0.157422 L 0.547031 0.197734 L 0.511211 0.215625 L 0.479844 0.238008 L 0.457461 0.264883 L 0.426094 0.291758 L 0.403711 0.435078 L 0.452969 0.408203 L 0.479844 0.345508 L 0.488789 0.323125 L 0.506719 0.309687 L 0.524648 0.314141 L 0.538047 0.33207 L 0.538047 0.358945 L 0.542539 0.390273 L 0.542539 0.426094 Z M 0.497773 0.426094 " transform="matrix(100,0,0,100,150,350)"/>
<path style="fill:none;stroke-width:0.01;stroke-linecap:butt;stroke-linejoin:miter;stroke:rgb(0%,0%,0%);stroke-opacity:1;stroke-miterlimit:10;" d="M 0.828008 0.0501563 L 0.828008 0.467188 L 0.790547 0.509375 L 0.776484 0.570273 L 0.753047 0.584336 L 0.720234 0.593711 L 0.649961 0.640586 L 0.612461 0.682773 L 0.589023 0.664023 L 0.579648 0.673398 L 0.55625 0.668711 L 0.523438 0.668711 L 0.5 0.720234 L 0.467188 0.724922 L 0.439062 0.729609 L 0.406289 0.753047 L 0.368789 0.753047 L 0.345352 0.757734 L 0.303203 0.813945 L 0.237578 0.870195 L 0.228203 0.893633 L 0.190703 0.926445 L 0.171992 0.954531 L 0.171992 0.884258 L 0.190703 0.865508 L 0.186055 0.818633 L 0.209453 0.785859 L 0.232891 0.767109 L 0.256328 0.753047 L 0.284453 0.701484 L 0.303203 0.682773 L 0.321914 0.682773 L 0.312539 0.645273 L 0.326602 0.635898 L 0.359414 0.654648 L 0.368789 0.621836 L 0.382852 0.565586 L 0.382852 0.532813 L 0.429727 0.476562 L 0.439062 0.448438 L 0.453125 0.387539 L 0.485937 0.368789 L 0.551563 0.382852 L 0.607773 0.387539 L 0.612461 0.345352 L 0.593711 0.293828 L 0.584336 0.17668 L 0.579648 0.143867 L 0.579648 0.0829297 L 0.574961 0.0501563 L 0.574961 0.0454687 Z M 0.828008 0.0501563 " transform="matrix(100,0,0,100,300,350)"/>
<path style="fill:none;stroke-width:0.01;stroke-linecap:butt;stroke-linejoin:miter;stroke:rgb(0%,0%,0%);stroke-opacity:1;stroke-miterlimit:10;" d="M 0.507461 0.164687 L 0.544727 0.291367 L 0.596875 0.425469 L 0.634141 0.544727 L 0.649023 0.641563 L 0.671367 0.649023 L 0.656484 0.701211 L 0.678828 0.827852 L 0.671367 0.8875 L 0.619219 0.909844 L 0.574531 0.947109 L 0.514922 0.954531 L 0.485078 0.902383 L 0.462734 0.798047 L 0.418047 0.753359 L 0.388242 0.701211 L 0.380781 0.611758 L 0.343516 0.552148 L 0.343516 0.410586 L 0.321172 0.358437 L 0.343516 0.313711 L 0.358437 0.268984 L 0.343516 0.209375 L 0.343516 0.119961 L 0.358437 0.0901563 L 0.403125 0.0603516 L 0.425469 0.0454687 L 0.447852 0.0752734 L 0.507461 0.0976172 L 0.529805 0.119961 L 0.544727 0.149766 Z M 0.507461 0.164687 " transform="matrix(100,0,0,100,450,350)"/>
<path style="fill:none;stroke-width:0.01;stroke-linecap:butt;stroke-linejoin:miter;stroke:rgb(0%,0%,0%);stroke-opacity:1;stroke-miterlimit:10;" d="M 0.409102 0.0454687 L 0.518164 0.190898 L 0.481836 0.3 L 0.481836 0.445469 L 0.518164 0.518164 L 0.590898 0.7 L 0.627266 0.918164 L 0.590898 0.954531 L 0.518164 0.954531 L 0.445469 0.809102 L 0.445469 0.627266 L 0.409102 0.554531 L 0.409102 0.336367 L 0.372734 0.190898 Z M 0.409102 0.0454687 " transform="matrix(100,0,0,100,600,350)"/>
<path style="fill:none;stroke-width:0.01;stroke-linecap:butt;stroke-linejoin:miter;stroke:rgb(0%,0%,0%);stroke-opacity:1;stroke-miterlimit:10;" d="M 0.551953 0.0454688 L 0.551953 0.279219 L 0.57793 0.564922 L 0.551953 0.746758 L 0.57793 0.954531 L 0.474023 0.902578 L 0.474023 0.746758 L 0.5 0.487031 L 0.474023 0.357148 L 0.42207 0.253242 L 0.42207 0.0714453 Z M 0.551953 0.0454688 " transform="matrix(100,0,0,100,0,500)"/>
<path style="fill:none;stroke-width:0.01;stroke-linecap:butt;stroke-linejoin:miter;stroke:rgb(0%,0%,0%);stroke-opacity:1;stroke-miterlimit:10;" d="M 0.651523 0.954531 L 0.429023 0.950703 L 0.413711 0.88168 L 0.421367 0.781914 L 0.417539 0.689883 L 0.398359 0.616992 L 0.383008 0.609336 L 0.367656 0.643828 L 0.348477 0.628516 L 0.367656 0.563281 L 0.367656 0.475078 L 0.394531 0.371484 L 0.421367 0.344648 L 0.425195 0.321641 L 0.436719 0.317813 L 0.448203 0.333125 L 0.45207 0.37918 L 0.463555 0.398359 L 0.475078 0.371484 L 0.475078 0.333125 L 0.486563 0.363828 L 0.505742 0.448203 L 0.501914 0.463555 L 0.532617 0.455898 L 0.524922 0.394531 L 0.532617 0.333125 L 0.555625 0.298633 L 0.540273 0.244922 L 0.563281 0.164375 L 0.578633 0.0991406 L 0.597812 0.0454688 L 0.651523 0.0492969 Z M 0.651523 0.954531 " transform="matrix(100,0,0,100,150,500)"/>
<path style="fill:none;stroke-width:0.01;stroke-linecap:butt;stroke-linejoin:miter;stroke:rgb(0%,0%,0%);stroke-opacity:1;stroke-miterlimit:10;" d="M 0.421211 0.142422 L 0.360625 0.178789 L 0.3 0.203047 L 0.227266 0.130313 L 0.239375 0.3 L 0.336367 0.530312 L 0.384844 0.651523 L 0.481836 0.736367 L 0.493945 0.796953 L 0.542422 0.83332 L 0.603047 0.918164 L 0.675742 0.954531 L 0.736367 0.954531 L 0.772734 0.796953 L 0.748477 0.639375 L 0.675742 0.530312 L 0.675742 0.396953 L 0.7 0.275742 L 0.675742 0.190898 L 0.663633 0.0454688 L 0.578789 0.0454688 L 0.542422 0.142422 L 0.530312 0.251523 L 0.518164 0.336367 L 0.506055 0.348477 L 0.445469 0.251523 Z M 0.421211 0.142422 " transform="matrix(100,0,0,100,300,500)"/>
<path style="fill:none;stroke-width:0.01;stroke-linecap:butt;stroke-linejoin:miter;stroke:rgb(0%,0%,0%);stroke-opacity:1;stroke-miterlimit:10;" d="M 0.331797 0.0955469 L 0.367578 0.152813 L 0.389063 0.224414 L 0.453477 0.288828 L 0.489258 0.367578 L 0.489258 0.525039 L 0.503594 0.646758 L 0.510742 0.746953 L 0.482109 0.811367 L 0.482109 0.890117 L 0.517891 0.954531 L 0.560859 0.954531 L 0.603789 0.947383 L 0.646758 0.861484 L 0.63957 0.768438 L 0.653906 0.675391 L 0.668203 0.589492 L 0.653906 0.525039 L 0.618125 0.467773 L 0.618125 0.36043 L 0.632422 0.210078 L 0.582305 0.117031 L 0.517891 0.0597656 L 0.496406 0.12418 L 0.439141 0.0741016 L 0.410508 0.0454688 L 0.381875 0.0955469 L 0.36043 0.0669141 L 0.338945 0.0526172 Z M 0.331797 0.0955469 " transform="matrix(100,0,0,100,450,500)"/>
<path style="fill:none;stroke-width:0.01;stroke-linecap:butt;stroke-linejoin:miter;stroke:rgb(0%,0%,0%);stroke-opacity:1;stroke-miterlimit:10;" d="M 0.608242 0.0454688 L 0.478359 0.0454688 L 0.449492 0.132031 L 0.334062 0.20418 L 0.435078 0.377344 L 0.435078 0.435078 L 0.334062 0.536094 L 0.406211 0.665938 L 0.377344 0.752539 L 0.348477 0.839102 L 0.406211 0.896836 L 0.651523 0.954531 L 0.63707 0.853555 L 0.651523 0.752539 L 0.665938 0.665938 L 0.651523 0.564922 L 0.63707 0.463906 L 0.63707 0.406211 L 0.651523 0.348477 L 0.665938 0.189766 Z M 0.608242 0.0454688 " transform="matrix(100,0,0,100,600,500)"/>
<path style="fill:none;stroke-width:0.01;stroke-linecap:butt;stroke-linejoin:miter;stroke:rgb(0%,0%,0%);stroke-opacity:1;stroke-miterlimit:10;" d="M 0.519766 0.5 L 0.480234 0.677852 L 0.440703 0.816211 L 0.420938 0.954531 L 0.322148 0.875508 L 0.262852 0.697617 L 0.302383 0.440703 L 0.381406 0.282617 L 0.440703 0.22332 L 0.5 0.22332 L 0.539531 0.104727 L 0.677852 0.0454688 L 0.737148 0.144258 L 0.697617 0.302383 L 0.618594 0.420937 Z M 0.519766 0.5 " transform="matrix(100,0,0,100,0,650)"/>
<path style="fill:none;stroke-width:0.01;stroke-linecap:butt;stroke-linejoin:miter;stroke:rgb(0%,0%,0%);stroke-opacity:1;stroke-miterlimit:10;" d="M 0.424258 0.279609 L 0.369141 0.417344 L 0.355391 0.555078 L 0.369141 0.74793 L 0.38293 0.858125 L 0.39668 0.954531 L 0.534453 0.954531 L 0.589531 0.940781 L 0.589531 0.74793 L 0.60332 0.555078 L 0.630859 0.389805 L 0.630859 0.141875 L 0.644609 0.0454688 L 0.479336 0.128086 L 0.465547 0.210742 Z M 0.424258 0.279609 " transform="matrix(100,0,0,100,150,650)"/>
<path style="fill:none;stroke-width:0.01;stroke-linecap:butt;stroke-linejoin:miter;stroke:rgb(0%,0%,0%);stroke-opacity:1;stroke-miterlimit:10;" d="M 0.632422 0.0454688 L 0.36043 0.0454688 L 0.389063 0.525039 L 0.42125 0.954531 L 0.550117 0.954531 L 0.568008 0.79707 L 0.57875 0.63957 L 0.593047 0.514297 L 0.603789 0.403359 L 0.603789 0.295977 L 0.618125 0.242305 L 0.603789 0.199375 L 0.603789 0.156406 L 0.614531 0.134922 L 0.62168 0.109883 L 0.63957 0.0848438 Z M 0.632422 0.0454688 " transform="matrix(100,0,0,100,300,650)"/>
<path style="fill:none;stroke-width:0.01;stroke-linecap:butt;stroke-linejoin:miter;stroke:rgb(0%,0%,0%);stroke-opacity:1;stroke-miterlimit:10;" d="M 0.954531 0.709805 L 0.744766 0.756406 L 0.698125 0.826328 L 0.604883 0.826328 L 0.511641 0.779727 L 0.441719 0.849648 L 0.301875 0.849648 L 0.231953 0.803047 L 0.231953 0.663164 L 0.0920703 0.47668 L 0.0454688 0.360156 L 0.115391 0.220273 L 0.348477 0.150352 L 0.395117 0.150352 L 0.418398 0.290195 L 0.418398 0.453398 L 0.395117 0.546602 L 0.418398 0.616563 L 0.511641 0.663164 L 0.558281 0.569922 L 0.651523 0.546602 L 0.698125 0.546602 L 0.768047 0.5 L 0.838008 0.546602 L 0.861289 0.569922 L 0.954531 0.639844 Z M 0.954531 0.709805 " transform="matrix(100,0,0,100,450,650)"/>
<path style="fill:none;stroke-width:0.01;stroke-linecap:butt;stroke-linejoin:miter;stroke:rgb(0%,0%,0%);stroke-opacity:1;stroke-miterlimit:10;" d="M 0.445898 0.548711 L 0.413438 0.678555 L 0.402578 0.775977 L 0.326836 0.819258 L 0.294375 0.754336 L 0.207773 0.667734 L 0.251094 0.635273 L 0.196953 0.613633 L 0.132031 0.537891 L 0.0779297 0.51625 L 0.0454688 0.49457 L 0.0995703 0.440469 L 0.0779297 0.375547 L 0.132031 0.299766 L 0.261914 0.375547 L 0.316016 0.299766 L 0.359297 0.321445 L 0.380937 0.343086 L 0.391758 0.299766 L 0.445898 0.332266 L 0.543281 0.278125 L 0.608242 0.256484 L 0.619063 0.224023 L 0.651523 0.180742 L 0.683984 0.245664 L 0.716445 0.310625 L 0.803047 0.332266 L 0.878789 0.353906 L 0.91125 0.429648 L 0.954531 0.51625 L 0.857148 0.646094 L 0.803047 0.711055 L 0.738086 0.808438 L 0.716445 0.754336 L 0.640703 0.808438 L 0.619063 0.754336 L 0.51082 0.786797 L 0.521641 0.721875 L 0.5 0.624453 Z M 0.445898 0.548711 " transform="matrix(100,0,0,100,600,650)"/>
<path style="fill:none;stroke-width:0.01;stroke-linecap:butt;stroke-linejoin:miter;stroke:rgb(0%,0%,0%);stroke-opacity:1;stroke-miterlimit:10;" d="M 0.77668 0.203555 L 0.737148 0.677852 L 0.579063 0.954531 L 0.341914 0.954531 L 0.22332 0.835977 L 0.341914 0.519766 L 0.302383 0.361641 L 0.302383 0.243086 L 0.460469 0.124492 L 0.5 0.0454687 Z M 0.77668 0.203555 " transform="matrix(100,0,0,100,0,800)"/>
<path style="fill:none;stroke-width:0.01;stroke-linecap:butt;stroke-linejoin:miter;stroke:rgb(0%,0%,0%);stroke-opacity:1;stroke-miterlimit:10;" d="M 0.579883 0.0454687 L 0.420117 0.0525391 L 0.462695 0.0809766 L 0.480469 0.120039 L 0.480469 0.233672 L 0.469805 0.272734 L 0.444961 0.308242 L 0.441406 0.315352 L 0.45918 0.318906 L 0.480469 0.308242 L 0.498242 0.329531 L 0.494687 0.354414 L 0.484023 0.386367 L 0.476914 0.5 L 0.469805 0.531953 L 0.487578 0.528398 L 0.505313 0.535508 L 0.515977 0.563906 L 0.501758 0.599414 L 0.491133 0.649141 L 0.498242 0.652695 L 0.512422 0.606523 L 0.523086 0.624297 L 0.515977 0.670469 L 0.501758 0.723711 L 0.476914 0.776992 L 0.448516 0.826719 L 0.441406 0.858672 L 0.441406 0.88707 L 0.448516 0.904844 L 0.45918 0.926133 L 0.46625 0.936797 L 0.46625 0.954531 L 0.579883 0.950977 Z M 0.579883 0.0454687 " transform="matrix(100,0,0,100,150,800)"/>
<path style="fill:none;stroke-width:0.01;stroke-linecap:butt;stroke-linejoin:miter;stroke:rgb(0%,0%,0%);stroke-opacity:1;stroke-miterlimit:10;" d="M 0.723711 0.0454687 L 0.362188 0.0454687 L 0.387266 0.113477 L 0.351484 0.109883 L 0.340742 0.127773 L 0.290625 0.0883984 L 0.276289 0.174297 L 0.276289 0.206523 L 0.294219 0.288828 L 0.312109 0.403359 L 0.308516 0.482109 L 0.315664 0.528633 L 0.340742 0.607383 L 0.365781 0.739805 L 0.383672 0.882969 L 0.387266 0.950977 L 0.723711 0.954531 Z M 0.723711 0.0454687 " transform="matrix(100,0,0,100,300,800)"/>
<path style="fill:none;stroke-width:0.01;stroke-linecap:butt;stroke-linejoin:miter;stroke:rgb(0%,0%,0%);stroke-opacity:1;stroke-miterlimit:10;" d="M 0.635391 0.200195 L 0.674062 0.470977 L 0.712773 0.703086 L 0.751445 0.896523 L 0.693437 0.954531 L 0.616055 0.799805 L 0.519336 0.857852 L 0.403281 0.761133 L 0.306563 0.722422 L 0.248555 0.529023 L 0.306563 0.374258 L 0.383945 0.238867 L 0.5 0.103477 L 0.577383 0.0454687 L 0.635391 0.103477 Z M 0.635391 0.200195 " transform="matrix(100,0,0,100,450,800)"/>
<path style="fill:none;stroke-width:0.01;stroke-linecap:butt;stroke-linejoin:miter;stroke:rgb(0%,0%,0%);stroke-opacity:1;stroke-miterlimit:10;" d="M 0.441367 0.0454687 L 0.294727 0.19207 L 0.11875 0.368047 L 0.11875 0.631953 L 0.0894531 0.837227 L 0.11875 0.954531 L 0.412031 0.866563 L 0.529336 0.866563 L 0.587969 0.895898 L 0.617305 0.602656 L 0.705273 0.690625 L 0.763945 0.514648 L 0.910547 0.543984 L 0.705273 0.485352 L 0.587969 0.485352 Z M 0.441367 0.0454687 " transform="matrix(100,0,0,100,600,800)"/>
<path style="fill:none;stroke-width:0.01;stroke-linecap:butt;stroke-linejoin:miter;stroke:rgb(0%,0%,0%);stroke-opacity:1;stroke-miterlimit:10;" d="M 0.55543 0.156328 L 0.422383 0.311523 L 0.422383 0.466758 L 0.488906 0.577617 L 0.55543 0.644141 L 0.666289 0.666289 L 0.511094 0.732812 L 0.378047 0.688477 L 0.267188 0.621953 L 0.289375 0.954531 L 0.400234 0.932383 L 0.55543 0.954531 L 0.688477 0.843672 L 0.732812 0.621953 L 0.644141 0.466758 L 0.710625 0.134141 L 0.599766 0.0454687 Z M 0.55543 0.156328 " transform="matrix(100,0,0,100,0,950)"/>
<path style="fill:none;stroke-width:0.01;stroke-linecap:butt;stroke-linejoin:miter;stroke:rgb(0%,0%,0%);stroke-opacity:1;stroke-miterlimit:10;" d="M 0.579492 0.0821484 L 0.587656 0.188125 L 0.583555 0.290039 L 0.579492 0.379727 L 0.567266 0.42457 L 0.579492 0.461289 L 0.587656 0.497969 L 0.567266 0.534648 L 0.579492 0.57543 L 0.579492 0.6325 L 0.563203 0.68957 L 0.57543 0.738477 L 0.571328 0.78332 L 0.579492 0.848555 L 0.563203 0.873008 L 0.550977 0.942305 L 0.522422 0.954531 L 0.502031 0.913789 L 0.502031 0.815938 L 0.481641 0.734414 L 0.477578 0.640625 L 0.461289 0.534648 L 0.42457 0.465352 L 0.420508 0.224844 L 0.412344 0.0495312 L 0.583555 0.0454687 Z M 0.579492 0.0821484 " transform="matrix(100,0,0,100,150,950)"/>
<path style="fill:none;stroke-width:0.01;stroke-linecap:butt;stroke-linejoin:miter;stroke:rgb(0%,0%,0%);stroke-opacity:1;stroke-miterlimit:10;" d="M 0.488047 0.188984 L 0.272734 0.404297 L 0.200938 0.571758 L 0.296641 0.667461 L 0.392344 0.715312 L 0.488047 0.691406 L 0.535898 0.643555 L 0.464102 0.739219 L 0.488047 0.882773 L 0.535898 0.930625 L 0.631563 0.834922 L 0.655508 0.763164 L 0.631563 0.930625 L 0.727266 0.954531 L 0.799063 0.715312 L 0.679414 0.691406 L 0.679414 0.547852 L 0.703359 0.428242 L 0.727266 0.260781 L 0.703359 0.117227 L 0.631563 0.0454687 Z M 0.488047 0.188984 " transform="matrix(100,0,0,100,300,950)"/>
<path style="fill:none;stroke-width:0.01;stroke-linecap:butt;stroke-linejoin:miter;stroke:rgb(0%,0%,0%);stroke-opacity:1;stroke-miterlimit:10;" d="M 0.681836 0.154531 L 0.645469 0.354531 L 0.681836 0.390898 L 0.663633 0.5 L 0.663633 0.536367 L 0.627266 0.590898 L 0.536367 0.645469 L 0.481836 0.718164 L 0.463633 0.754531 L 0.409102 0.881836 L 0.354531 0.954531 L 0.336367 0.845469 L 0.318164 0.772734 L 0.336367 0.645469 L 0.372734 0.590898 L 0.409102 0.409102 L 0.390898 0.263633 L 0.427266 0.154531 L 0.390898 0.118164 L 0.518164 0.0636328 L 0.590898 0.0454687 L 0.627266 0.1 Z M 0.681836 0.154531 " transform="matrix(100,0,0,100,450,950)"/>
<path style="fill:none;stroke-width:0.01;stroke-linecap:butt;stroke-linejoin:miter;stroke:rgb(0%,0%,0%);stroke-opacity:1;stroke-miterlimit:10;" d="M 0.312852 0.179141 L 0.232617 0.473281 L 0.312852 0.553477 L 0.286094 0.687148 L 0.259375 0.901055 L 0.419805 0.954531 L 0.5 0.847578 L 0.606953 0.794102 L 0.687148 0.740625 L 0.740625 0.580195 L 0.767383 0.419805 L 0.767383 0.286094 L 0.713906 0.205898 L 0.606953 0.0454687 L 0.5 0.0989453 L 0.419805 0.0454687 Z M 0.312852 0.179141 " transform="matrix(100,0,0,100,600,950)"/>
<path style="fill:none;stroke-width:0.01;stroke-linecap:butt;stroke-linejoin:miter;stroke:rgb(0%,0%,0%);stroke-opacity:1;stroke-miterlimit:10;" d="M 0.222227 0.474766 L 0.222227 0.676758 L 0.323242 0.828281 L 0.297969 0.904023 L 0.37375 0.954531 L 0.525234 0.828281 L 0.550508 0.651523 L 0.676758 0.601016 L 0.777773 0.398984 L 0.702031 0.222227 L 0.575742 0.0454687 L 0.449492 0.146445 L 0.323242 0.247461 L 0.323242 0.323242 Z M 0.222227 0.474766 " transform="matrix(100,0,0,100,0,1100)"/>
<path style="fill:none;stroke-width:0.01;stroke-linecap:butt;stroke-linejoin:miter;stroke:rgb(0%,0%,0%);stroke-opacity:1;stroke-miterlimit:10;" d="M 0.0918359 0.509258 L 0.0547266 0.694805 L 0.1475 0.750469 L 0.203164 0.731914 L 0.203164 0.806133 L 0.240273 0.898906 L 0.314453 0.954531 L 0.388672 0.843242 L 0.444336 0.861797 L 0.5 0.824687 L 0.518555 0.898906 L 0.611328 0.898906 L 0.611328 0.824687 L 0.759727 0.880352 L 0.871055 0.880352 L 0.889609 0.806133 L 0.889609 0.620586 L 0.871055 0.397969 L 0.871055 0.230977 L 0.945273 0.0454687 L 0.741172 0.101094 L 0.648438 0.360859 L 0.574219 0.490742 L 0.555664 0.32375 L 0.518555 0.193867 L 0.462891 0.101094 L 0.370117 0.212422 L 0.333008 0.32375 L 0.258828 0.435078 L 0.166055 0.435078 Z M 0.0918359 0.509258 " transform="matrix(100,0,0,100,150,1100)"/>
<path style="fill:none;stroke-width:0.01;stroke-linecap:butt;stroke-linejoin:miter;stroke:rgb(0%,0%,0%);stroke-opacity:1;stroke-miterlimit:10;" d="M 0.484609 0.245781 L 0.376719 0.261172 L 0.438359 0.384453 L 0.422969 0.446055 L 0.361328 0.538516 L 0.330508 0.615547 L 0.361328 0.708008 L 0.315117 0.785039 L 0.345898 0.8775 L 0.361328 0.954531 L 0.5 0.831289 L 0.561641 0.89293 L 0.654102 0.862109 L 0.669492 0.754219 L 0.607852 0.538516 L 0.654102 0.492305 L 0.654102 0.276563 L 0.684883 0.184141 L 0.684883 0.0762891 L 0.623281 0.0454687 L 0.561641 0.10707 L 0.5 0.199531 Z M 0.484609 0.245781 " transform="matrix(100,0,0,100,300,1100)"/>
<path style="fill:none;stroke-width:0.01;stroke-linecap:butt;stroke-linejoin:miter;stroke:rgb(0%,0%,0%);stroke-opacity:1;stroke-miterlimit:10;" d="M 0.123047 0.289375 L 0.0565234 0.422383 L 0.123047 0.644141 L 0.0565234 0.688477 L 0.100898 0.865859 L 0.167422 0.954531 L 0.278281 0.777148 L 0.389141 0.688477 L 0.477812 0.777148 L 0.522188 0.843672 L 0.69957 0.799336 L 0.81043 0.821523 L 0.921289 0.688477 L 0.943477 0.533242 L 0.832578 0.44457 L 0.81043 0.245 L 0.69957 0.222852 L 0.677383 0.0454687 L 0.5 0.0898047 L 0.411289 0.245 L 0.344805 0.178477 L 0.18957 0.156328 Z M 0.123047 0.289375 " transform="matrix(100,0,0,100,450,1100)"/>
<path style="fill:none;stroke-width:0.01;stroke-linecap:butt;stroke-linejoin:miter;stroke:rgb(0%,0%,0%);stroke-opacity:1;stroke-miterlimit:10;" d="M 0.548789 0.0762891 L 0.528242 0.333086 L 0.528242 0.559062 L 0.523125 0.682344 L 0.507695 0.785039 L 0.502578 0.851836 L 0.497422 0.898047 L 0.446055 0.954531 L 0.482031 0.749102 L 0.497422 0.451211 L 0.523125 0.0557422 L 0.523125 0.0454687 L 0.543672 0.0505859 L 0.553945 0.0505859 Z M 0.548789 0.0762891 " transform="matrix(100,0,0,100,600,1100)"/>
<path style="fill:none;stroke-width:0.01;stroke-linecap:butt;stroke-linejoin:miter;stroke:rgb(0%,0%,0%);stroke-opacity:1;stroke-miterlimit:10;" d="M 0.364609 0.374258 L 0.287227 0.335586 L 0.306563 0.296914 L 0.383945 0.31625 L 0.441992 0.238867 L 0.441992 0.142148 L 0.480664 0.0648047 L 0.538672 0.0454687 L 0.654727 0.0454687 L 0.712773 0.0648047 L 0.693438 0.219531 L 0.674063 0.354922 L 0.674063 0.509688 L 0.654727 0.645078 L 0.616055 0.68375 L 0.616055 0.857852 L 0.596719 0.915859 L 0.538672 0.954531 L 0.461328 0.877187 L 0.461328 0.761133 L 0.403281 0.799805 L 0.403281 0.68375 L 0.422617 0.645078 L 0.364609 0.587031 L 0.403281 0.470977 Z M 0.364609 0.374258 " transform="matrix(100,0,0,100,0,1250)"/>
<path style="fill:none;stroke-width:0.01;stroke-linecap:butt;stroke-linejoin:miter;stroke:rgb(0%,0%,0%);stroke-opacity:1;stroke-miterlimit:10;" d="M 0.797813 0.829141 L 0.797813 0.0924609 L 0.750781 0.170859 L 0.688086 0.139492 L 0.547031 0.0454687 L 0.484336 0.0454687 L 0.374609 0.108164 L 0.29625 0.186523 L 0.202187 0.343242 L 0.217852 0.437305 L 0.249219 0.547031 L 0.29625 0.672422 L 0.374609 0.688086 L 0.452969 0.641055 L 0.515664 0.609727 L 0.547031 0.656758 L 0.562695 0.70375 L 0.594063 0.766445 L 0.641055 0.844844 L 0.688086 0.891836 L 0.719453 0.923203 L 0.766445 0.954531 L 0.797813 0.954531 Z M 0.797813 0.829141 " transform="matrix(100,0,0,100,150,1250)"/>
<path style="fill:none;stroke-width:0.01;stroke-linecap:butt;stroke-linejoin:miter;stroke:rgb(0%,0%,0%);stroke-opacity:1;stroke-miterlimit:10;" d="M 0.896914 0.0454687 L 0.5 0.0454687 L 0.435977 0.0838672 L 0.474375 0.186289 L 0.474375 0.2375 L 0.423164 0.28875 L 0.359141 0.352734 L 0.346367 0.416758 L 0.333555 0.493594 L 0.30793 0.583242 L 0.282344 0.596016 L 0.231133 0.596016 L 0.231133 0.634453 L 0.243906 0.698477 L 0.179883 0.749688 L 0.0902734 0.800898 L 0.115859 0.864922 L 0.141484 0.90332 L 0.154297 0.954531 L 0.179883 0.90332 L 0.21832 0.890508 L 0.231133 0.90332 L 0.282344 0.916133 L 0.30793 0.90332 L 0.346367 0.877734 L 0.410391 0.7625 L 0.487188 0.672852 L 0.371953 0.621641 L 0.359141 0.583242 L 0.538398 0.544805 L 0.666445 0.455195 L 0.717656 0.378359 L 0.756094 0.314336 L 0.832891 0.211914 L 0.909727 0.199102 Z M 0.896914 0.0454687 " transform="matrix(100,0,0,100,300,1250)"/>
<path style="fill:none;stroke-width:0.01;stroke-linecap:butt;stroke-linejoin:miter;stroke:rgb(0%,0%,0%);stroke-opacity:1;stroke-miterlimit:10;" d="M 0.561172 0.430078 L 0.578672 0.342656 L 0.622383 0.281484 L 0.666094 0.255234 L 0.692305 0.220273 L 0.657344 0.202813 L 0.596172 0.150352 L 0.631133 0.0891797 L 0.666094 0.0629297 L 0.718516 0.0454687 L 0.762227 0.0629297 L 0.770977 0.106641 L 0.762227 0.185313 L 0.779727 0.578672 L 0.718516 0.648594 L 0.666094 0.718516 L 0.613633 0.718516 L 0.569922 0.744766 L 0.5175 0.779727 L 0.4825 0.840898 L 0.438828 0.92832 L 0.386367 0.94582 L 0.333906 0.954531 L 0.246484 0.902109 L 0.220273 0.867148 L 0.298945 0.788477 L 0.351406 0.779727 L 0.386367 0.718516 L 0.368867 0.666094 L 0.395117 0.639844 L 0.430078 0.613633 L 0.473789 0.622383 L 0.526211 0.587422 L 0.526211 0.534961 L 0.561172 0.465039 Z M 0.561172 0.430078 " transform="matrix(100,0,0,100,450,1250)"/>
<path style="fill:none;stroke-width:0.01;stroke-linecap:butt;stroke-linejoin:miter;stroke:rgb(0%,0%,0%);stroke-opacity:1;stroke-miterlimit:10;" d="M 0.328281 0.449492 L 0.308086 0.590898 L 0.247461 0.651523 L 0.247461 0.712109 L 0.227266 0.79293 L 0.267695 0.87375 L 0.368672 0.914141 L 0.449492 0.954531 L 0.510117 0.893945 L 0.550508 0.83332 L 0.530312 0.813125 L 0.530312 0.772734 L 0.550508 0.691914 L 0.631328 0.671719 L 0.671719 0.611094 L 0.651523 0.469688 L 0.671719 0.368672 L 0.772734 0.368672 L 0.772734 0.287891 L 0.732305 0.16668 L 0.691914 0.0656641 L 0.611094 0.0454687 L 0.530312 0.146445 L 0.550508 0.247461 L 0.510117 0.348477 L 0.510117 0.388906 L 0.489883 0.409102 L 0.388906 0.409102 Z M 0.328281 0.449492 " transform="matrix(100,0,0,100,600,1250)"/>
<path style="fill:none;stroke-width:0.01;stroke-linecap:butt;stroke-linejoin:miter;stroke:rgb(0%,0%,0%);stroke-opacity:1;stroke-miterlimit:10;" d="M 0.266055 0.874336 L 0.172461 0.820859 L 0.239297 0.713906 L 0.252656 0.64707 L 0.279414 0.540117 L 0.306133 0.406406 L 0.332891 0.312852 L 0.386367 0.1925 L 0.49332 0.286094 L 0.520039 0.312852 L 0.546797 0.205898 L 0.573516 0.112305 L 0.640391 0.0454687 L 0.693867 0.0989453 L 0.693867 0.152422 L 0.80082 0.139023 L 0.81418 0.272734 L 0.774062 0.326211 L 0.80082 0.33957 L 0.827539 0.419805 L 0.787422 0.459883 L 0.827539 0.5 L 0.707227 0.593594 L 0.65375 0.687148 L 0.573516 0.820859 L 0.533438 0.874336 L 0.453203 0.927812 L 0.373008 0.954531 L 0.34625 0.954531 Z M 0.266055 0.874336 " transform="matrix(100,0,0,100,0,1400)"/>
<path style="fill:none;stroke-width:0.01;stroke-linecap:butt;stroke-linejoin:miter;stroke:rgb(0%,0%,0%);stroke-opacity:1;stroke-miterlimit:10;" d="M 0.560625 0.0757422 L 0.545469 0.257578 L 0.590898 0.227266 L 0.636367 0.272734 L 0.606055 0.348477 L 0.575742 0.424258 L 0.621211 0.530313 L 0.651523 0.590898 L 0.621211 0.681836 L 0.530312 0.742422 L 0.484844 0.757578 L 0.5 0.878789 L 0.409102 0.909102 L 0.348477 0.954531 L 0.378789 0.848477 L 0.378789 0.757578 L 0.469688 0.696953 L 0.530312 0.696953 L 0.560625 0.66668 L 0.575742 0.545469 L 0.469688 0.424258 L 0.469688 0.106055 L 0.515156 0.0454687 Z M 0.560625 0.0757422 " transform="matrix(100,0,0,100,150,1400)"/>
<path style="fill:none;stroke-width:0.01;stroke-linecap:butt;stroke-linejoin:miter;stroke:rgb(0%,0%,0%);stroke-opacity:1;stroke-miterlimit:10;" d="M 0.361328 0.723438 L 0.438359 0.538516 L 0.515391 0.430664 L 0.53082 0.399844 L 0.392148 0.307383 L 0.345898 0.184141 L 0.453789 0.0454687 L 0.561641 0.1225 L 0.561641 0.291992 L 0.577031 0.446055 L 0.607852 0.584727 L 0.654102 0.738828 L 0.638672 0.862109 L 0.5 0.954531 L 0.46918 0.923711 Z M 0.361328 0.723438 " transform="matrix(100,0,0,100,300,1400)"/>
<path style="fill:none;stroke-width:0.01;stroke-linecap:butt;stroke-linejoin:miter;stroke:rgb(0%,0%,0%);stroke-opacity:1;stroke-miterlimit:10;" d="M 0.448672 0.0454687 L 0.448672 0.104102 L 0.507344 0.162773 L 0.543984 0.19207 L 0.558633 0.206758 L 0.507344 0.250742 L 0.514648 0.309375 L 0.543984 0.353359 L 0.507344 0.375352 L 0.470664 0.419336 L 0.507344 0.470664 L 0.485352 0.521992 L 0.543984 0.565977 L 0.521992 0.602656 L 0.529336 0.675937 L 0.602656 0.749258 L 0.602656 0.763945 L 0.507344 0.77125 L 0.485352 0.800586 L 0.587969 0.829922 L 0.609961 0.873906 L 0.529336 0.910547 L 0.5 0.939883 L 0.42668 0.954531 L 0.434023 0.939883 L 0.441367 0.873906 L 0.397344 0.829922 L 0.419336 0.756602 L 0.434023 0.749258 L 0.448672 0.727266 L 0.478008 0.69793 L 0.478008 0.690625 L 0.470664 0.639297 L 0.42668 0.551328 L 0.397344 0.514648 L 0.404688 0.434023 L 0.404688 0.375352 L 0.390039 0.316719 L 0.419336 0.250742 L 0.448672 0.19207 L 0.404688 0.111445 L 0.404688 0.0527734 Z M 0.448672 0.0454687 " transform="matrix(100,0,0,100,450,1400)"/>
<path style="fill:none;stroke-width:0.01;stroke-linecap:butt;stroke-linejoin:miter;stroke:rgb(0%,0%,0%);stroke-opacity:1;stroke-miterlimit:10;" d="M 0.759102 0.954531 L 0.263633 0.936367 L 0.25 0.913633 L 0.263633 0.868164 L 0.254531 0.822734 L 0.227266 0.790898 L 0.218164 0.763633 L 0.222734 0.718164 L 0.227266 0.686367 L 0.231836 0.659102 L 0.213633 0.645469 L 0.195469 0.604531 L 0.195469 0.563633 L 0.2 0.531836 L 0.204531 0.509102 L 0.209102 0.490898 L 0.209102 0.459102 L 0.2 0.440898 L 0.195469 0.404531 L 0.204531 0.359102 L 0.209102 0.331836 L 0.218164 0.3 L 0.213633 0.263633 L 0.227266 0.227266 L 0.227266 0.2 L 0.231836 0.177266 L 0.231836 0.127266 L 0.218164 0.0954688 L 0.231836 0.0727344 L 0.25 0.0545313 L 0.272734 0.0454687 L 0.322734 0.15 L 0.35 0.218164 L 0.377266 0.277266 L 0.413633 0.331836 L 0.45 0.386367 L 0.490898 0.427266 L 0.495469 0.440898 L 0.477266 0.45 L 0.440898 0.45 L 0.422734 0.459102 L 0.431836 0.490898 L 0.472734 0.481836 L 0.495469 0.477266 L 0.481836 0.472734 L 0.481836 0.468164 L 0.509102 0.486367 L 0.531836 0.522734 L 0.527266 0.572734 L 0.513633 0.590898 L 0.522734 0.636367 L 0.540898 0.681836 L 0.595469 0.736367 L 0.595469 0.777266 L 0.604531 0.845469 L 0.586367 0.904531 L 0.568164 0.940898 L 0.595469 0.95 L 0.622734 0.927266 L 0.636367 0.895469 L 0.654531 0.877266 L 0.663633 0.836367 L 0.663633 0.795469 L 0.654531 0.772734 L 0.690898 0.772734 L 0.718164 0.777266 L 0.731836 0.781836 L 0.75 0.772734 L 0.768164 0.745469 L 0.754531 0.7 L 0.75 0.65 L 0.754531 0.609102 L 0.759102 0.590898 L 0.763633 0.586367 L 0.790898 0.577266 L 0.804531 0.95 L 0.75 0.940898 Z M 0.759102 0.954531 " transform="matrix(100,0,0,100,600,1400)"/>
<path style="fill:none;stroke-width:0.01;stroke-linecap:butt;stroke-linejoin:miter;stroke:rgb(0%,0%,0%);stroke-opacity:1;stroke-miterlimit:10;" d="M 0.179922 0.196055 L 0.201445 0.260625 L 0.228359 0.309023 L 0.228359 0.454258 L 0.260625 0.513438 L 0.271367 0.572617 L 0.249883 0.626406 L 0.292891 0.701719 L 0.35207 0.739375 L 0.368203 0.760898 L 0.405859 0.820078 L 0.421992 0.852344 L 0.443516 0.884609 L 0.454258 0.933047 L 0.47043 0.954531 L 0.836211 0.954531 L 0.83082 0.395117 L 0.803945 0.330547 L 0.766289 0.330547 L 0.739375 0.35207 L 0.696328 0.303672 L 0.674844 0.271367 L 0.658672 0.266016 L 0.674844 0.228359 L 0.674844 0.201445 L 0.64793 0.16918 L 0.631797 0.120781 L 0.583359 0.153047 L 0.561875 0.185313 L 0.599531 0.201445 L 0.621016 0.239102 L 0.621016 0.276758 L 0.599531 0.298281 L 0.578008 0.325156 L 0.572617 0.341328 L 0.567227 0.335938 L 0.567227 0.298281 L 0.556484 0.260625 L 0.556484 0.244492 L 0.513437 0.217578 L 0.486563 0.233711 L 0.481172 0.190703 L 0.454258 0.206836 L 0.421992 0.206836 L 0.389727 0.233711 L 0.389727 0.196055 L 0.378984 0.17457 L 0.362812 0.147656 L 0.389727 0.136914 L 0.421992 0.153047 L 0.448906 0.131523 L 0.448906 0.083125 L 0.443516 0.0616016 L 0.438125 0.0454687 L 0.384336 0.0884766 L 0.373594 0.126133 L 0.368203 0.147656 L 0.368203 0.17457 L 0.34668 0.163789 L 0.314414 0.158437 L 0.298281 0.179922 L 0.276758 0.190703 L 0.260625 0.179922 L 0.222969 0.147656 L 0.206836 0.131523 L 0.185312 0.126133 L 0.163789 0.142266 L 0.16918 0.163789 Z M 0.179922 0.196055 " transform="matrix(100,0,0,100,0,1550)"/>
<path style="fill:none;stroke-width:0.01;stroke-linecap:butt;stroke-linejoin:miter;stroke:rgb(0%,0%,0%);stroke-opacity:1;stroke-miterlimit:10;" d="M 0.0454687 0.324141 L 0.0454687 0.310898 L 0.947891 0.310898 L 0.954531 0.576328 L 0.908086 0.543125 L 0.855 0.516602 L 0.828477 0.470156 L 0.801914 0.436953 L 0.788672 0.41043 L 0.755469 0.456875 L 0.728945 0.490039 L 0.695742 0.509961 L 0.655937 0.490039 L 0.622773 0.456875 L 0.609492 0.423672 L 0.563047 0.377227 L 0.549766 0.436953 L 0.516602 0.463516 L 0.470156 0.50332 L 0.423672 0.516602 L 0.423672 0.649297 L 0.397148 0.689102 L 0.344062 0.6825 L 0.304258 0.655938 L 0.310898 0.649297 L 0.3175 0.629414 L 0.337422 0.549766 L 0.377227 0.516602 L 0.390508 0.476758 L 0.403789 0.463516 L 0.430313 0.436953 L 0.456875 0.390508 L 0.463516 0.350703 L 0.423672 0.363984 L 0.350703 0.350703 L 0.297617 0.450234 L 0.271055 0.476758 L 0.277695 0.509961 L 0.264414 0.549766 L 0.271055 0.596211 L 0.237891 0.629414 L 0.191445 0.649297 L 0.184805 0.602852 L 0.23125 0.569688 L 0.237891 0.563047 L 0.237891 0.549766 L 0.204727 0.529844 L 0.198086 0.490039 L 0.257812 0.463516 L 0.277695 0.443594 L 0.264414 0.41707 L 0.198086 0.383867 L 0.184805 0.436953 L 0.151641 0.456875 L 0.145 0.41707 L 0.111797 0.423672 L 0.0653516 0.490039 L 0.0521094 0.470156 L 0.0653516 0.423672 L 0.0521094 0.390508 L 0.0454687 0.344062 Z M 0.0454687 0.324141 " transform="matrix(100,0,0,100,150,1550)"/>
<path style="fill:none;stroke-width:0.01;stroke-linecap:butt;stroke-linejoin:miter;stroke:rgb(0%,0%,0%);stroke-opacity:1;stroke-miterlimit:10;" d="M 0.637305 0.859844 L 0.618359 0.91668 L 0.637305 0.954531 L 0.34375 0.945078 L 0.381641 0.878789 L 0.353203 0.821953 L 0.353203 0.774609 L 0.400586 0.736758 L 0.372148 0.670469 L 0.372148 0.651523 L 0.362695 0.60418 L 0.419492 0.556836 L 0.44793 0.518945 L 0.410039 0.471602 L 0.391094 0.405313 L 0.362695 0.376875 L 0.34375 0.367422 L 0.34375 0.225391 L 0.315352 0.130664 L 0.34375 0.0833203 L 0.400586 0.0454687 L 0.495273 0.064375 L 0.523672 0.0738672 L 0.580508 0.0928125 L 0.608906 0.0928125 L 0.599414 0.140156 L 0.618359 0.301133 L 0.589961 0.452656 L 0.599414 0.566289 L 0.637305 0.679922 L 0.637305 0.736758 L 0.684648 0.859844 Z M 0.637305 0.859844 " transform="matrix(100,0,0,100,300,1550)"/>
<path style="fill:none;stroke-width:0.01;stroke-linecap:butt;stroke-linejoin:miter;stroke:rgb(0%,0%,0%);stroke-opacity:1;stroke-miterlimit:10;" d="M 0.414766 0.0454687 L 0.481055 0.102266 L 0.5 0.159102 L 0.509453 0.206445 L 0.509453 0.244336 L 0.556836 0.263242 L 0.575742 0.244336 L 0.585234 0.215898 L 0.594688 0.1875 L 0.613633 0.178047 L 0.679922 0.159102 L 0.70832 0.178047 L 0.70832 0.206445 L 0.736758 0.159102 L 0.765156 0.225391 L 0.755664 0.386367 L 0.746211 0.528398 L 0.736758 0.585234 L 0.689375 0.594687 L 0.660977 0.566289 L 0.60418 0.528398 L 0.60418 0.613633 L 0.556836 0.60418 L 0.575742 0.679922 L 0.566289 0.689375 L 0.594688 0.784102 L 0.651523 0.8125 L 0.679922 0.859844 L 0.660977 0.935625 L 0.575742 0.954531 L 0.518945 0.907187 L 0.509453 0.878789 L 0.5 0.850391 L 0.5 0.793555 L 0.443164 0.765156 L 0.405312 0.717813 L 0.405312 0.642031 L 0.414766 0.613633 L 0.339023 0.585234 L 0.29168 0.509453 L 0.282188 0.471602 L 0.234844 0.471602 L 0.234844 0.357969 L 0.29168 0.339023 L 0.310625 0.301133 L 0.282188 0.253789 L 0.253789 0.215898 L 0.272734 0.1875 L 0.272734 0.159102 L 0.263242 0.130664 L 0.253789 0.102266 L 0.282188 0.0738672 L 0.348477 0.0738672 Z M 0.414766 0.0454687 " transform="matrix(100,0,0,100,450,1550)"/>
<path style="fill:none;stroke-width:0.01;stroke-linecap:butt;stroke-linejoin:miter;stroke:rgb(0%,0%,0%);stroke-opacity:1;stroke-miterlimit:10;" d="M 0.9 0.0454687 L 0.790898 0.445469 L 0.863633 0.772734 L 0.827266 0.845469 L 0.790898 0.954531 L 0.681836 0.881836 L 0.536367 0.736367 L 0.463633 0.627266 L 0.354531 0.663633 L 0.209102 0.554531 L 0.1 0.409102 L 0.136367 0.3 L 0.245469 0.372734 L 0.318164 0.372734 L 0.390898 0.409102 L 0.427266 0.481836 L 0.390898 0.554531 L 0.463633 0.445469 L 0.5 0.409102 L 0.536367 0.336367 L 0.718164 0.3 L 0.754531 0.190898 Z M 0.9 0.0454687 " transform="matrix(100,0,0,100,600,1550)"/>
<path style="fill:none;stroke-width:0.01;stroke-linecap:butt;stroke-linejoin:miter;stroke:rgb(0%,0%,0%);stroke-opacity:1;stroke-miterlimit:10;" d="M 0.568164 0.0908984 L 0.454531 0.181836 L 0.431836 0.318164 L 0.431836 0.363633 L 0.340898 0.272734 L 0.272734 0.318164 L 0.272734 0.5 L 0.295469 0.636367 L 0.318164 0.704531 L 0.431836 0.681836 L 0.477266 0.590898 L 0.454531 0.636367 L 0.522734 0.727266 L 0.636367 0.795469 L 0.681836 0.886367 L 0.727266 0.954531 L 0.727266 0.136367 L 0.704531 0.0908984 L 0.636367 0.0454688 Z M 0.568164 0.0908984 " transform="matrix(100,0,0,100,0,1700)"/>
<path style="fill:none;stroke-width:0.01;stroke-linecap:butt;stroke-linejoin:miter;stroke:rgb(0%,0%,0%);stroke-opacity:1;stroke-miterlimit:10;" d="M 0.409102 0.257578 L 0.469688 0.0757422 L 0.530312 0.0454688 L 0.560625 0.16668 L 0.590898 0.287891 L 0.590898 0.378789 L 0.530312 0.378789 L 0.590898 0.409102 L 0.621211 0.5 L 0.621211 0.924258 L 0.530312 0.954531 L 0.439375 0.924258 L 0.439375 0.712109 L 0.378789 0.560625 L 0.409102 0.469687 L 0.5 0.409102 L 0.5 0.348477 Z M 0.409102 0.257578 " transform="matrix(100,0,0,100,150,1700)"/>
<path style="fill:none;stroke-width:0.01;stroke-linecap:butt;stroke-linejoin:miter;stroke:rgb(0%,0%,0%);stroke-opacity:1;stroke-miterlimit:10;" d="M 0.169414 0.458672 L 0.169414 0.128086 L 0.582656 0.0454688 L 0.665273 0.0454688 L 0.830586 0.458672 L 0.74793 0.789258 L 0.665273 0.954531 L 0.5 0.954531 L 0.334727 0.871914 Z M 0.169414 0.458672 " transform="matrix(100,0,0,100,300,1700)"/>
<path style="fill:none;stroke-width:0.01;stroke-linecap:butt;stroke-linejoin:miter;stroke:rgb(0%,0%,0%);stroke-opacity:1;stroke-miterlimit:10;" d="M 0.285586 0.319883 L 0.182695 0.216992 L 0.148359 0.319883 L 0.0454688 0.491406 L 0.0797656 0.628633 L 0.0797656 0.731562 L 0.148359 0.800156 L 0.234141 0.817305 L 0.337031 0.714414 L 0.422813 0.611484 L 0.457109 0.594336 L 0.645781 0.628633 L 0.714414 0.680117 L 0.783008 0.645781 L 0.868789 0.577188 L 0.954531 0.508594 L 0.885937 0.457109 L 0.748711 0.354219 L 0.662969 0.285586 L 0.577187 0.199844 L 0.474258 0.182695 L 0.337031 0.251289 L 0.268438 0.251289 Z M 0.285586 0.319883 " transform="matrix(100,0,0,100,450,1700)"/>
<path style="fill:none;stroke-width:0.01;stroke-linecap:butt;stroke-linejoin:miter;stroke:rgb(0%,0%,0%);stroke-opacity:1;stroke-miterlimit:10;" d="M 0.41582 0.382148 L 0.382148 0.264297 L 0.449492 0.163281 L 0.516836 0.112813 L 0.567344 0.0791406 L 0.58418 0.0454688 L 0.58418 0.163281 L 0.617852 0.314805 L 0.567344 0.41582 L 0.567344 0.516836 L 0.550508 0.702031 L 0.567344 0.853555 L 0.533672 0.954531 L 0.5 0.853555 L 0.466328 0.786211 L 0.466328 0.668359 L 0.483164 0.550508 L 0.483164 0.483164 Z M 0.41582 0.382148 " transform="matrix(100,0,0,100,600,1700)"/>
<path style="fill:none;stroke-width:0.01;stroke-linecap:butt;stroke-linejoin:miter;stroke:rgb(0%,0%,0%);stroke-opacity:1;stroke-miterlimit:10;" d="M 0.444414 0.0716016 L 0.437852 0.156641 L 0.444414 0.235117 L 0.39207 0.300508 L 0.372461 0.398633 L 0.346289 0.450938 L 0.313594 0.503281 L 0.30707 0.535977 L 0.313594 0.575195 L 0.248203 0.634062 L 0.235117 0.627539 L 0.24168 0.686406 L 0.254727 0.725625 L 0.24168 0.764883 L 0.235117 0.791055 L 0.261289 0.804102 L 0.30707 0.771406 L 0.313594 0.706016 L 0.320156 0.67332 L 0.346289 0.679844 L 0.359375 0.732188 L 0.359375 0.751797 L 0.405156 0.745273 L 0.418242 0.732188 L 0.450937 0.732188 L 0.444414 0.777969 L 0.431328 0.843359 L 0.444414 0.90875 L 0.464023 0.948008 L 0.503281 0.954531 L 0.549063 0.928398 L 0.555586 0.849883 L 0.555586 0.771406 L 0.549063 0.679844 L 0.535977 0.535977 L 0.529414 0.477109 L 0.5425 0.411719 L 0.555586 0.398633 L 0.614453 0.444414 L 0.640625 0.450938 L 0.666758 0.418242 L 0.699492 0.379023 L 0.732187 0.313594 L 0.75832 0.228594 L 0.764883 0.163164 L 0.764883 0.0454688 L 0.437852 0.0454688 Z M 0.444414 0.0716016 " transform="matrix(100,0,0,100,0,1850)"/>
<path style="fill:none;stroke-width:0.01;stroke-linecap:butt;stroke-linejoin:miter;stroke:rgb(0%,0%,0%);stroke-opacity:1;stroke-miterlimit:10;" d="M 0.142227 0.432539 L 0.136367 0.456016 L 0.142227 0.49707 L 0.153945 0.50293 L 0.177422 0.473594 L 0.195 0.444297 L 0.247812 0.368047 L 0.288867 0.338711 L 0.318164 0.338711 L 0.335781 0.368047 L 0.359219 0.409102 L 0.394414 0.42668 L 0.429609 0.508789 L 0.458945 0.520547 L 0.541055 0.602656 L 0.570391 0.620234 L 0.564531 0.661289 L 0.582109 0.73168 L 0.658359 0.80793 L 0.675937 0.878281 L 0.675937 0.931094 L 0.681836 0.954531 L 0.863633 0.948672 L 0.863633 0.854844 L 0.828438 0.848984 L 0.793242 0.88418 L 0.787383 0.919336 L 0.763945 0.942812 L 0.740469 0.919336 L 0.705273 0.825508 L 0.670078 0.72582 L 0.658359 0.667148 L 0.664219 0.626094 L 0.687695 0.64957 L 0.716992 0.719922 L 0.746328 0.755117 L 0.746328 0.772734 L 0.758047 0.790312 L 0.793242 0.719922 L 0.775664 0.614375 L 0.746328 0.57332 L 0.687695 0.561602 L 0.6525 0.585039 L 0.611445 0.520547 L 0.541055 0.438398 L 0.523477 0.332852 L 0.488281 0.26832 L 0.488281 0.233125 L 0.482422 0.162773 L 0.458945 0.104102 L 0.417891 0.0806641 L 0.400313 0.0454688 L 0.365117 0.0454688 L 0.341641 0.0923828 L 0.306445 0.180352 L 0.165703 0.379766 L 0.148086 0.403242 Z M 0.142227 0.432539 " transform="matrix(100,0,0,100,150,1850)"/>
<path style="fill:none;stroke-width:0.01;stroke-linecap:butt;stroke-linejoin:miter;stroke:rgb(0%,0%,0%);stroke-opacity:1;stroke-miterlimit:10;" d="M 0.206758 0.151016 L 0.236055 0.0689063 L 0.288867 0.0454688 L 0.288867 0.109961 L 0.329922 0.0689063 L 0.335781 0.127578 L 0.394414 0.0923828 L 0.453086 0.0513281 L 0.453086 0.109961 L 0.412031 0.156875 L 0.42375 0.162773 L 0.476523 0.139297 L 0.482422 0.121719 L 0.517578 0.139297 L 0.529336 0.174492 L 0.529336 0.215547 L 0.546914 0.215547 L 0.57625 0.186211 L 0.605586 0.221406 L 0.617305 0.27418 L 0.640781 0.209688 L 0.629023 0.180352 L 0.664219 0.127578 L 0.705273 0.0865234 L 0.740469 0.0865234 L 0.787383 0.156875 L 0.787383 0.227266 L 0.746328 0.26832 L 0.681836 0.291797 L 0.681836 0.34457 L 0.711133 0.397344 L 0.734609 0.432539 L 0.769805 0.520547 L 0.787383 0.608516 L 0.769805 0.64957 L 0.763945 0.72582 L 0.769805 0.790312 L 0.787383 0.878281 L 0.793242 0.936953 L 0.763945 0.954531 L 0.734609 0.925234 L 0.722891 0.796172 L 0.699414 0.772734 L 0.623164 0.72582 L 0.611445 0.719922 L 0.611445 0.749258 L 0.564531 0.737539 L 0.535195 0.65543 L 0.494141 0.631953 L 0.435469 0.64957 L 0.406172 0.620234 L 0.376836 0.585039 L 0.341641 0.549844 L 0.324063 0.555703 L 0.329922 0.485352 L 0.370977 0.520547 L 0.412031 0.491211 L 0.42375 0.479453 L 0.376836 0.438398 L 0.318164 0.42082 L 0.294727 0.379766 L 0.335781 0.34457 L 0.359219 0.391484 L 0.412031 0.34457 L 0.388555 0.315234 L 0.353359 0.26832 L 0.306445 0.238984 L 0.277109 0.297656 L 0.265391 0.315234 L 0.236055 0.26832 L 0.247813 0.227266 L 0.230195 0.180352 Z M 0.206758 0.151016 " transform="matrix(100,0,0,100,300,1850)"/>
<path style="fill:none;stroke-width:0.01;stroke-linecap:butt;stroke-linejoin:miter;stroke:rgb(0%,0%,0%);stroke-opacity:1;stroke-miterlimit:10;" d="M 0.0727344 0.340898 L 0.0454688 0.386367 L 0.0636328 0.459102 L 0.0727344 0.486367 L 0.1 0.540898 L 0.109102 0.595469 L 0.109102 0.659102 L 0.118164 0.677266 L 0.172734 0.659102 L 0.245469 0.668164 L 0.290898 0.586367 L 0.4 0.622734 L 0.472734 0.586367 L 0.554531 0.613633 L 0.6 0.504531 L 0.645469 0.55 L 0.709102 0.531836 L 0.718164 0.395469 L 0.745469 0.340898 L 0.809102 0.377266 L 0.845469 0.395469 L 0.909102 0.377266 L 0.954531 0.322734 L 0.0545313 0.322734 Z M 0.0727344 0.340898 " transform="matrix(100,0,0,100,450,1850)"/>
<path style="fill:none;stroke-width:0.01;stroke-linecap:butt;stroke-linejoin:miter;stroke:rgb(0%,0%,0%);stroke-opacity:1;stroke-miterlimit:10;" d="M 0.384297 0.425625 L 0.384297 0.359492 L 0.433867 0.293398 L 0.433867 0.128086 L 0.466953 0.0454688 L 0.516523 0.0454688 L 0.59918 0.111563 L 0.59918 0.243789 L 0.615703 0.409102 L 0.64875 0.590898 L 0.681836 0.673555 L 0.74793 0.838828 L 0.698359 0.954531 L 0.64875 0.838828 L 0.59918 0.640508 L 0.466953 0.590898 L 0.334727 0.557852 L 0.25207 0.409102 L 0.334727 0.376016 Z M 0.384297 0.425625 " transform="matrix(100,0,0,100,600,1850)"/>
<path style="fill:none;stroke-width:0.01;stroke-linecap:butt;stroke-linejoin:miter;stroke:rgb(0%,0%,0%);stroke-opacity:1;stroke-miterlimit:10;" d="M 0.310625 0.752539 L 0.411602 0.601016 L 0.462109 0.525234 L 0.411602 0.474766 L 0.335859 0.37375 L 0.335859 0.0959766 L 0.436875 0.0454688 L 0.462109 0.297969 L 0.487383 0.449492 L 0.638906 0.474766 L 0.689375 0.575742 L 0.689375 0.752539 L 0.588398 0.828281 L 0.588398 0.929297 L 0.487383 0.954531 L 0.436875 0.904023 Z M 0.310625 0.752539 " transform="matrix(100,0,0,100,0,2000)"/>
<path style="fill:none;stroke-width:0.01;stroke-linecap:butt;stroke-linejoin:miter;stroke:rgb(0%,0%,0%);stroke-opacity:1;stroke-miterlimit:10;" d="M 0.351484 0.37832 L 0.33 0.342539 L 0.319258 0.306719 L 0.319258 0.242305 L 0.322852 0.22082 L 0.337148 0.206523 L 0.344297 0.192187 L 0.351484 0.177891 L 0.383672 0.170742 L 0.419453 0.134922 L 0.433789 0.106289 L 0.46957 0.0848438 L 0.491055 0.0705078 L 0.505352 0.0633594 L 0.53043 0.0454688 L 0.687891 0.0454688 L 0.687891 0.0776563 L 0.695078 0.102734 L 0.712969 0.120625 L 0.727266 0.127773 L 0.745156 0.131367 L 0.74875 0.453477 L 0.716523 0.324609 L 0.691484 0.270937 L 0.67 0.242305 L 0.648516 0.245898 L 0.594844 0.317461 L 0.54832 0.431992 L 0.523281 0.503594 L 0.487461 0.600195 L 0.483906 0.689688 L 0.483906 0.707578 L 0.46957 0.721914 L 0.46957 0.764844 L 0.440937 0.775586 L 0.437383 0.836445 L 0.448086 0.843594 L 0.483906 0.843594 L 0.501797 0.804219 L 0.526836 0.793477 L 0.569805 0.793477 L 0.584102 0.804219 L 0.605586 0.79707 L 0.619883 0.793477 L 0.655703 0.822109 L 0.659258 0.786328 L 0.655703 0.757695 L 0.695078 0.750547 L 0.705781 0.768438 L 0.716523 0.793477 L 0.720117 0.825703 L 0.716523 0.865078 L 0.712969 0.908008 L 0.705781 0.940234 L 0.25125 0.954531 L 0.258398 0.915156 L 0.276289 0.882969 L 0.294219 0.868633 L 0.283477 0.84 L 0.283477 0.789922 L 0.276289 0.761289 L 0.269141 0.736211 L 0.283477 0.711172 L 0.301367 0.704023 L 0.287031 0.696836 L 0.283477 0.686094 L 0.301367 0.653906 L 0.312109 0.63957 L 0.308516 0.610938 L 0.326406 0.57875 L 0.333555 0.54293 L 0.344297 0.517891 L 0.347891 0.467773 L 0.355039 0.449883 L 0.355039 0.410508 Z M 0.351484 0.37832 " transform="matrix(100,0,0,100,150,2000)"/>
<path style="fill:none;stroke-width:0.01;stroke-linecap:butt;stroke-linejoin:miter;stroke:rgb(0%,0%,0%);stroke-opacity:1;stroke-miterlimit:10;" d="M 0.732227 0.954531 L 0.613633 0.954531 L 0.504922 0.895273 L 0.544453 0.826094 L 0.623516 0.756914 L 0.633398 0.677852 L 0.53457 0.667969 L 0.475313 0.7075 L 0.406133 0.677852 L 0.366602 0.608711 L 0.336953 0.559297 L 0.32707 0.5 L 0.307305 0.470352 L 0.267773 0.450586 L 0.287539 0.391289 L 0.32707 0.351797 L 0.336953 0.322148 L 0.366602 0.2925 L 0.46543 0.233203 L 0.455547 0.203555 L 0.366602 0.193672 L 0.297422 0.144258 L 0.317188 0.104727 L 0.356719 0.0454688 L 0.39625 0.0454688 L 0.425898 0.0948437 L 0.475313 0.124492 L 0.514805 0.193672 L 0.53457 0.243086 L 0.574102 0.252969 L 0.643281 0.22332 L 0.67293 0.173906 L 0.732227 0.173906 Z M 0.732227 0.954531 " transform="matrix(100,0,0,100,300,2000)"/>
<path style="fill:none;stroke-width:0.01;stroke-linecap:butt;stroke-linejoin:miter;stroke:rgb(0%,0%,0%);stroke-opacity:1;stroke-miterlimit:10;" d="M 0.220625 0.0764844 L 0.242813 0.151875 L 0.264961 0.200664 L 0.296016 0.267188 L 0.287148 0.293789 L 0.322617 0.378047 L 0.344805 0.404648 L 0.37582 0.44457 L 0.424609 0.502227 L 0.415742 0.524375 L 0.371406 0.524375 L 0.344805 0.56875 L 0.389141 0.599766 L 0.398008 0.635273 L 0.398008 0.670742 L 0.415742 0.706211 L 0.451211 0.728398 L 0.468945 0.737266 L 0.5 0.763867 L 0.544336 0.790469 L 0.56207 0.830391 L 0.593125 0.896914 L 0.548789 0.905781 L 0.526602 0.932383 L 0.522188 0.954531 L 0.779375 0.954531 L 0.779375 0.515508 L 0.717305 0.511094 L 0.677383 0.475625 L 0.690703 0.44457 L 0.721719 0.426836 L 0.735039 0.400234 L 0.690703 0.378047 L 0.664062 0.400234 L 0.619727 0.355859 L 0.593125 0.289375 L 0.56207 0.289375 L 0.593125 0.236133 L 0.606445 0.213984 L 0.570938 0.187344 L 0.548789 0.134141 L 0.517734 0.138594 L 0.477812 0.0853516 L 0.446797 0.156328 L 0.420195 0.129727 L 0.384688 0.103086 L 0.335938 0.129727 L 0.296016 0.0853516 L 0.256094 0.0853516 L 0.242813 0.0454688 L 0.220625 0.05875 Z M 0.220625 0.0764844 " transform="matrix(100,0,0,100,450,2000)"/>
<path style="fill:none;stroke-width:0.01;stroke-linecap:butt;stroke-linejoin:miter;stroke:rgb(0%,0%,0%);stroke-opacity:1;stroke-miterlimit:10;" d="M 0.868984 0.954531 L 0.569531 0.954531 L 0.537422 0.943867 L 0.548125 0.847578 L 0.516055 0.783438 L 0.473281 0.719258 L 0.441172 0.665781 L 0.430469 0.537422 L 0.355625 0.548125 L 0.291445 0.558828 L 0.216563 0.494648 L 0.173789 0.419805 L 0.141719 0.366328 L 0.0668359 0.323516 L 0.0882422 0.259375 L 0.120312 0.173789 L 0.152422 0.0454688 L 0.173789 0.0775391 L 0.237969 0.131016 L 0.259375 0.163086 L 0.248672 0.216563 L 0.184492 0.237969 L 0.163086 0.259375 L 0.163086 0.344922 L 0.302148 0.334219 L 0.376992 0.344922 L 0.398398 0.387695 L 0.451875 0.516055 L 0.451875 0.590898 L 0.473281 0.697852 L 0.655078 0.708555 L 0.708555 0.719258 L 0.751328 0.676484 L 0.815508 0.665781 L 0.847578 0.719258 L 0.879688 0.794102 L 0.901055 0.879687 L 0.933164 0.943867 Z M 0.868984 0.954531 " transform="matrix(100,0,0,100,600,2000)"/>
<path style="fill:none;stroke-width:0.01;stroke-linecap:butt;stroke-linejoin:miter;stroke:rgb(0%,0%,0%);stroke-opacity:1;stroke-miterlimit:10;" d="M 0.776328 0.954531 L 0.456094 0.939063 L 0.466406 0.923555 L 0.471602 0.892578 L 0.466406 0.871914 L 0.471602 0.820234 L 0.46125 0.778906 L 0.425117 0.74793 L 0.394102 0.742773 L 0.378633 0.74793 L 0.363125 0.77375 L 0.347617 0.809922 L 0.342461 0.789258 L 0.321797 0.763438 L 0.316641 0.732422 L 0.363125 0.727266 L 0.414766 0.716953 L 0.419922 0.691133 L 0.404453 0.670469 L 0.409609 0.618789 L 0.394102 0.577461 L 0.383789 0.541328 L 0.368281 0.536172 L 0.352773 0.515508 L 0.342461 0.484492 L 0.342461 0.438008 L 0.368281 0.422539 L 0.378633 0.391523 L 0.368281 0.355391 L 0.352773 0.334727 L 0.347617 0.314063 L 0.332109 0.277891 L 0.321797 0.190078 L 0.306289 0.164258 L 0.280469 0.159102 L 0.29082 0.190078 L 0.259805 0.143594 L 0.244336 0.107422 L 0.228828 0.0712891 L 0.223672 0.0609375 L 0.295977 0.0454688 L 0.332109 0.0661328 L 0.337305 0.0867578 L 0.347617 0.117773 L 0.347617 0.159102 L 0.394102 0.159102 L 0.409609 0.22625 L 0.404453 0.262383 L 0.440586 0.303711 L 0.450937 0.329531 L 0.481914 0.365703 L 0.51293 0.391523 L 0.518086 0.407031 L 0.533594 0.412188 L 0.559414 0.339883 L 0.616211 0.319219 L 0.636875 0.288242 L 0.657539 0.308867 L 0.693711 0.314063 L 0.719531 0.329531 L 0.724688 0.360547 L 0.729844 0.391523 L 0.755664 0.407031 L 0.776328 0.401875 Z M 0.776328 0.954531 " transform="matrix(100,0,0,100,0,2150)"/>
<path style="fill:none;stroke-width:0.01;stroke-linecap:butt;stroke-linejoin:miter;stroke:rgb(0%,0%,0%);stroke-opacity:1;stroke-miterlimit:10;" d="M 0.954531 0.175313 L 0.240273 0.175313 L 0.277383 0.230977 L 0.295937 0.305195 L 0.258828 0.370117 L 0.175312 0.388672 L 0.1475 0.379414 L 0.1475 0.435078 L 0.0825781 0.444336 L 0.0547266 0.481445 L 0.0454687 0.546367 L 0.0918359 0.639141 L 0.175312 0.666992 L 0.240273 0.685547 L 0.277383 0.704062 L 0.286641 0.648438 L 0.305195 0.629883 L 0.342305 0.666992 L 0.407227 0.67625 L 0.444336 0.694805 L 0.5 0.722617 L 0.527813 0.778281 L 0.555664 0.824687 L 0.574219 0.778281 L 0.620586 0.787578 L 0.602031 0.704062 L 0.629883 0.620586 L 0.704063 0.564922 L 0.741172 0.583477 L 0.769023 0.666992 L 0.815391 0.685547 L 0.648438 0.583477 L 0.704063 0.574219 L 0.778281 0.685547 L 0.8525 0.694805 L 0.898906 0.685547 L 0.917422 0.602031 L 0.908164 0.555664 L 0.945273 0.537109 Z M 0.954531 0.175313 " transform="matrix(100,0,0,100,150,2150)"/>
<path style="fill:none;stroke-width:0.01;stroke-linecap:butt;stroke-linejoin:miter;stroke:rgb(0%,0%,0%);stroke-opacity:1;stroke-miterlimit:10;" d="M 0.0454687 0.646094 L 0.0779297 0.732695 L 0.164492 0.743516 L 0.261914 0.775977 L 0.326836 0.775977 L 0.370117 0.711055 L 0.380937 0.646094 L 0.424258 0.624453 L 0.478359 0.613633 L 0.51082 0.613633 L 0.586562 0.624453 L 0.673164 0.581172 L 0.727266 0.548711 L 0.738086 0.50543 L 0.813867 0.51625 L 0.846328 0.559531 L 0.835508 0.646094 L 0.878789 0.732695 L 0.889609 0.743516 L 0.92207 0.667734 L 0.932891 0.602812 L 0.954531 0.537891 L 0.954531 0.321445 L 0.91125 0.288945 L 0.813867 0.332266 L 0.694805 0.332266 L 0.662344 0.245664 L 0.586562 0.224023 L 0.543281 0.267305 L 0.521641 0.353906 L 0.48918 0.332266 L 0.380937 0.332266 L 0.348477 0.343086 L 0.305195 0.386367 L 0.229453 0.397188 L 0.164492 0.440469 L 0.153672 0.48375 L 0.164492 0.548711 L 0.132031 0.559531 L 0.0779297 0.570352 L 0.0562891 0.602812 Z M 0.0454687 0.646094 " transform="matrix(100,0,0,100,300,2150)"/>
<path style="fill:none;stroke-width:0.01;stroke-linecap:butt;stroke-linejoin:miter;stroke:rgb(0%,0%,0%);stroke-opacity:1;stroke-miterlimit:10;" d="M 0.218633 0.240273 L 0.110391 0.370117 L 0.08875 0.435078 L 0.0671094 0.586562 L 0.0454688 0.759727 L 0.0671094 0.803047 L 0.153672 0.781367 L 0.175313 0.716445 L 0.240273 0.651523 L 0.305195 0.694805 L 0.413437 0.651523 L 0.478359 0.694805 L 0.543281 0.694805 L 0.608242 0.889609 L 0.694805 0.867969 L 0.738086 0.846328 L 0.846328 0.781367 L 0.91125 0.738086 L 0.954531 0.651523 L 0.932891 0.521641 L 0.91125 0.413438 L 0.781367 0.348477 L 0.608242 0.370117 L 0.543281 0.370117 L 0.391758 0.261914 L 0.348477 0.153672 L 0.305195 0.110391 L 0.283555 0.153672 Z M 0.218633 0.240273 " transform="matrix(100,0,0,100,450,2150)"/>
<path style="fill:none;stroke-width:0.01;stroke-linecap:butt;stroke-linejoin:miter;stroke:rgb(0%,0%,0%);stroke-opacity:1;stroke-miterlimit:10;" d="M 0.204961 0.428242 L 0.284688 0.460117 L 0.364453 0.44418 L 0.460117 0.460117 L 0.460117 0.507969 L 0.492031 0.55582 L 0.523906 0.619609 L 0.55582 0.683398 L 0.635547 0.715312 L 0.667461 0.747227 L 0.715313 0.763164 L 0.795039 0.811016 L 0.858867 0.826953 L 0.922656 0.795039 L 0.954531 0.747227 L 0.874805 0.603672 L 0.763164 0.460117 L 0.73125 0.412266 L 0.635547 0.348477 L 0.603672 0.300625 L 0.571758 0.300625 L 0.428242 0.284688 L 0.396328 0.26875 L 0.348477 0.252773 L 0.204961 0.173047 L 0.157109 0.204961 L 0.109258 0.236836 L 0.0773437 0.26875 L 0.0454688 0.316602 L 0.0614063 0.348477 L 0.0933203 0.428242 L 0.125195 0.44418 Z M 0.204961 0.428242 " transform="matrix(100,0,0,100,600,2150)"/>
<path style="fill:none;stroke-width:0.01;stroke-linecap:butt;stroke-linejoin:miter;stroke:rgb(0%,0%,0%);stroke-opacity:1;stroke-miterlimit:10;" d="M 0.704375 0.729023 L 0.711406 0.912266 L 0.711406 0.954531 L 0.697305 0.813594 L 0.676172 0.764258 L 0.669141 0.729023 L 0.66207 0.665625 L 0.640938 0.630391 L 0.605703 0.581055 L 0.612773 0.54582 L 0.591602 0.531719 L 0.549336 0.503516 L 0.535234 0.468281 L 0.5 0.418945 L 0.450664 0.426016 L 0.401328 0.447148 L 0.33793 0.411914 L 0.302695 0.397813 L 0.288594 0.383711 L 0.302695 0.348477 L 0.33793 0.292109 L 0.394297 0.263906 L 0.429531 0.242773 L 0.492969 0.207539 L 0.514102 0.207539 L 0.563438 0.186406 L 0.612773 0.13707 L 0.619805 0.108867 L 0.640938 0.0595312 L 0.676172 0.0454688 L 0.711406 0.0454688 Z M 0.704375 0.729023 " transform="matrix(100,0,0,100,0,2300)"/>
<path style="fill:none;stroke-width:0.01;stroke-linecap:butt;stroke-linejoin:miter;stroke:rgb(0%,0%,0%);stroke-opacity:1;stroke-miterlimit:10;" d="M 0.615 0.0454688 L 0.478438 0.135273 L 0.449688 0.174805 L 0.381406 0.232305 L 0.33832 0.293398 L 0.341914 0.350898 L 0.374219 0.415547 L 0.406562 0.491016 L 0.460469 0.638359 L 0.514375 0.72457 L 0.535938 0.771289 L 0.543125 0.78207 L 0.503594 0.864727 L 0.5 0.907852 L 0.503594 0.947344 L 0.507188 0.950938 L 0.507188 0.954531 L 0.66168 0.954531 L 0.66168 0.0454688 Z M 0.615 0.0454688 " transform="matrix(100,0,0,100,150,2300)"/>
<path style="fill:none;stroke-width:0.01;stroke-linecap:butt;stroke-linejoin:miter;stroke:rgb(0%,0%,0%);stroke-opacity:1;stroke-miterlimit:10;" d="M 0.0454687 0.248672 L 0.131016 0.409102 L 0.163086 0.505352 L 0.248672 0.644375 L 0.270039 0.751328 L 0.323516 0.729961 L 0.462578 0.623008 L 0.526719 0.537422 L 0.580195 0.494648 L 0.783438 0.355625 L 0.954531 0.248672 Z M 0.0454687 0.248672 " transform="matrix(100,0,0,100,300,2300)"/>
<path style="fill:none;stroke-width:0.01;stroke-linecap:butt;stroke-linejoin:miter;stroke:rgb(0%,0%,0%);stroke-opacity:1;stroke-miterlimit:10;" d="M 0.400938 0.214453 L 0.360156 0.301875 L 0.336836 0.371797 L 0.354297 0.447539 L 0.389297 0.529141 L 0.406758 0.581602 L 0.424258 0.634023 L 0.424258 0.657344 L 0.406758 0.680664 L 0.354297 0.698125 L 0.331016 0.750586 L 0.325156 0.779727 L 0.342656 0.826328 L 0.365977 0.861289 L 0.395117 0.872969 L 0.418398 0.896289 L 0.453398 0.93125 L 0.470859 0.954531 L 0.511641 0.89043 L 0.552461 0.849648 L 0.587422 0.820508 L 0.610703 0.832148 L 0.639844 0.843828 L 0.674844 0.820508 L 0.663164 0.768047 L 0.581602 0.558281 L 0.47668 0.336836 L 0.47668 0.272734 L 0.470859 0.237773 L 0.488359 0.202813 L 0.534961 0.132852 L 0.558281 0.0920703 L 0.540781 0.0920703 L 0.5175 0.0454688 L 0.50582 0.103711 L 0.459219 0.144531 L 0.430078 0.173672 Z M 0.400938 0.214453 " transform="matrix(100,0,0,100,450,2300)"/>
<path style="fill:none;stroke-width:0.01;stroke-linecap:butt;stroke-linejoin:miter;stroke:rgb(0%,0%,0%);stroke-opacity:1;stroke-miterlimit:10;" d="M 0.525234 0.0656641 L 0.585859 0.156562 L 0.606055 0.227266 L 0.575742 0.368672 L 0.585859 0.560625 L 0.535352 0.641406 L 0.565664 0.732305 L 0.555547 0.87375 L 0.535352 0.954531 L 0.505039 0.924258 L 0.464648 0.782813 L 0.464648 0.742422 L 0.494961 0.681836 L 0.494961 0.621211 L 0.444453 0.5 L 0.414141 0.388906 L 0.393945 0.358594 L 0.404023 0.328281 L 0.434336 0.277773 L 0.474766 0.217188 L 0.474766 0.156562 L 0.454531 0.0454688 L 0.484844 0.0454688 Z M 0.525234 0.0656641 " transform="matrix(100,0,0,100,600,2300)"/>
<path style="fill:none;stroke-width:0.01;stroke-linecap:butt;stroke-linejoin:miter;stroke:rgb(0%,0%,0%);stroke-opacity:1;stroke-miterlimit:10;" d="M 0.365039 0.109375 L 0.365039 0.151992 L 0.336641 0.151992 L 0.329531 0.180391 L 0.34375 0.215898 L 0.34375 0.237227 L 0.329531 0.322461 L 0.329531 0.357969 L 0.301133 0.357969 L 0.329531 0.393477 L 0.329531 0.407656 L 0.34375 0.421875 L 0.336641 0.471602 L 0.350859 0.5 L 0.421875 0.514219 L 0.393477 0.571016 L 0.407656 0.592344 L 0.450273 0.613633 L 0.485781 0.620742 L 0.478711 0.670469 L 0.478711 0.713086 L 0.492891 0.776992 L 0.492891 0.833789 L 0.528398 0.876406 L 0.549727 0.883516 L 0.556836 0.926133 L 0.585234 0.947461 L 0.627852 0.947461 L 0.65625 0.954531 L 0.663359 0.919023 L 0.698867 0.876406 L 0.642031 0.791211 L 0.663359 0.727266 L 0.670469 0.684648 L 0.634961 0.634961 L 0.663359 0.613633 L 0.627852 0.585234 L 0.606523 0.563906 L 0.571016 0.592344 L 0.514219 0.563906 L 0.542617 0.507109 L 0.542617 0.443164 L 0.514219 0.400586 L 0.485781 0.386367 L 0.485781 0.350859 L 0.492891 0.286914 L 0.471602 0.230117 L 0.464492 0.180391 L 0.414766 0.173281 L 0.464492 0.130664 L 0.478711 0.102266 L 0.450273 0.0596484 L 0.407656 0.0454688 L 0.379258 0.0738672 Z M 0.365039 0.109375 " transform="matrix(100,0,0,100,0,2450)"/>
<path style="fill:none;stroke-width:0.01;stroke-linecap:butt;stroke-linejoin:miter;stroke:rgb(0%,0%,0%);stroke-opacity:1;stroke-miterlimit:10;" d="M 0.772734 0.0454688 L 0.772734 0.954531 L 0.677852 0.843867 L 0.63043 0.772734 L 0.583008 0.733203 L 0.527656 0.638359 L 0.511875 0.622539 L 0.488125 0.669961 L 0.448633 0.677852 L 0.416992 0.677852 L 0.393281 0.64625 L 0.322148 0.606719 L 0.306328 0.598828 L 0.282617 0.669961 L 0.258906 0.64625 L 0.258906 0.590898 L 0.243086 0.480234 L 0.243086 0.164023 L 0.250977 0.0928906 L 0.227266 0.0454688 Z M 0.772734 0.0454688 " transform="matrix(100,0,0,100,150,2450)"/>
<path style="fill:none;stroke-width:0.01;stroke-linecap:butt;stroke-linejoin:miter;stroke:rgb(0%,0%,0%);stroke-opacity:1;stroke-miterlimit:10;" d="M 0.515 0.195312 L 0.614883 0.125391 L 0.684805 0.0654297 L 0.754727 0.0454688 L 0.754727 0.195312 L 0.744766 0.275234 L 0.764727 0.335156 L 0.844648 0.355156 L 0.884609 0.385117 L 0.774727 0.435078 L 0.714805 0.495 L 0.644844 0.594922 L 0.584922 0.634883 L 0.584922 0.684805 L 0.614883 0.804688 L 0.515 0.874609 L 0.405078 0.94457 L 0.305195 0.954531 L 0.275234 0.954531 L 0.305195 0.824687 L 0.325156 0.784727 L 0.135352 0.734766 L 0.115391 0.435078 L 0.155352 0.425078 L 0.145352 0.564922 L 0.185313 0.614883 L 0.215273 0.674844 L 0.235273 0.704805 L 0.295195 0.614883 L 0.405078 0.634883 L 0.465039 0.534961 L 0.495 0.554961 L 0.574922 0.495 L 0.584922 0.395117 L 0.564922 0.275234 L 0.524961 0.255234 Z M 0.515 0.195312 " transform="matrix(100,0,0,100,300,2450)"/>
<path style="fill:none;stroke-width:0.01;stroke-linecap:butt;stroke-linejoin:miter;stroke:rgb(0%,0%,0%);stroke-opacity:1;stroke-miterlimit:10;" d="M 0.703516 0.0454688 L 0.343945 0.0454688 L 0.357539 0.0929297 L 0.330391 0.120078 L 0.391445 0.153984 L 0.377891 0.194727 L 0.384648 0.221836 L 0.371094 0.255781 L 0.350742 0.269336 L 0.289688 0.310039 L 0.296484 0.337187 L 0.303242 0.398242 L 0.296484 0.4525 L 0.303242 0.472852 L 0.337187 0.472852 L 0.343945 0.479648 L 0.350742 0.493203 L 0.343945 0.5475 L 0.330391 0.574609 L 0.323594 0.635703 L 0.337187 0.656055 L 0.391445 0.581406 L 0.445742 0.581406 L 0.472852 0.608555 L 0.459297 0.676406 L 0.425391 0.696758 L 0.438945 0.751016 L 0.438945 0.778164 L 0.479648 0.784922 L 0.493203 0.784922 L 0.527148 0.791719 L 0.540703 0.818867 L 0.567852 0.873125 L 0.567852 0.920625 L 0.574609 0.954531 L 0.615352 0.886719 L 0.649258 0.846016 L 0.669609 0.825625 L 0.696758 0.846016 L 0.710312 0.832422 Z M 0.703516 0.0454688 " transform="matrix(100,0,0,100,450,2450)"/>
<path style="fill:none;stroke-width:0.01;stroke-linecap:butt;stroke-linejoin:miter;stroke:rgb(0%,0%,0%);stroke-opacity:1;stroke-miterlimit:10;" d="M 0.667578 0.926992 L 0.667578 0.362266 L 0.640039 0.376016 L 0.630859 0.343906 L 0.63543 0.27043 L 0.62625 0.196953 L 0.61707 0.174023 L 0.607891 0.118906 L 0.60332 0.0454688 L 0.456367 0.0454688 L 0.433438 0.0959766 L 0.447188 0.201563 L 0.447188 0.215352 L 0.456367 0.25207 L 0.442617 0.279609 L 0.433438 0.297969 L 0.39668 0.334727 L 0.359961 0.357656 L 0.341602 0.385234 L 0.332422 0.431133 L 0.36457 0.463281 L 0.37832 0.5 L 0.369141 0.578047 L 0.359961 0.568867 L 0.341602 0.628555 L 0.341602 0.679063 L 0.392109 0.73875 L 0.415078 0.784648 L 0.438008 0.812227 L 0.479336 0.803047 L 0.534453 0.784648 L 0.571172 0.770898 L 0.584922 0.821406 L 0.598711 0.867305 L 0.6125 0.917813 L 0.640039 0.949961 L 0.667578 0.954531 Z M 0.667578 0.926992 " transform="matrix(100,0,0,100,600,2450)"/>
<path style="fill:none;stroke-width:0.01;stroke-linecap:butt;stroke-linejoin:miter;stroke:rgb(0%,0%,0%);stroke-opacity:1;stroke-miterlimit:10;" d="M 0.67625 0.397969 L 0.694805 0.509258 L 0.639141 0.583477 L 0.620586 0.67625 L 0.564922 0.713359 L 0.546367 0.843242 L 0.527813 0.917422 L 0.490742 0.954531 L 0.360859 0.861797 L 0.32375 0.787578 L 0.342305 0.694805 L 0.305195 0.639141 L 0.342305 0.527812 L 0.453633 0.435078 L 0.509258 0.435078 L 0.453633 0.379414 L 0.453633 0.286641 L 0.472187 0.175313 L 0.509258 0.0454688 L 0.583477 0.0640234 L 0.602031 0.138203 L 0.583477 0.230977 L 0.602031 0.286641 Z M 0.67625 0.397969 " transform="matrix(100,0,0,100,0,2600)"/>
<path style="fill:none;stroke-width:0.01;stroke-linecap:butt;stroke-linejoin:miter;stroke:rgb(0%,0%,0%);stroke-opacity:1;stroke-miterlimit:10;" d="M 0.251094 0.0725 L 0.288945 0.0671094 L 0.316016 0.126641 L 0.332266 0.159102 L 0.370117 0.121211 L 0.408008 0.121211 L 0.418828 0.153672 L 0.429648 0.202383 L 0.451289 0.224023 L 0.49457 0.294375 L 0.5 0.299766 L 0.52707 0.299766 L 0.537891 0.321445 L 0.554102 0.326836 L 0.586562 0.359297 L 0.591992 0.391758 L 0.608242 0.391758 L 0.602813 0.435078 L 0.586562 0.48375 L 0.581172 0.51082 L 0.597422 0.521641 L 0.629883 0.50543 L 0.646094 0.521641 L 0.667734 0.564922 L 0.683984 0.613633 L 0.727266 0.608242 L 0.748906 0.624453 L 0.770547 0.619063 L 0.786797 0.575742 L 0.803047 0.581172 L 0.813867 0.954531 L 0.792227 0.932891 L 0.743516 0.943711 L 0.705625 0.932891 L 0.667734 0.830078 L 0.602813 0.808438 L 0.548711 0.743516 L 0.51082 0.748906 L 0.48375 0.656914 L 0.467539 0.602812 L 0.467539 0.52707 L 0.47293 0.48918 L 0.50543 0.467539 L 0.5 0.408008 L 0.48375 0.348477 L 0.445898 0.310625 L 0.386367 0.256484 L 0.332266 0.207773 L 0.283555 0.169922 L 0.224023 0.159102 L 0.207773 0.126641 L 0.186133 0.0779297 L 0.191563 0.0454688 L 0.218633 0.0508594 L 0.234844 0.0779297 Z M 0.251094 0.0725 " transform="matrix(100,0,0,100,150,2600)"/>
<path style="fill:none;stroke-width:0.01;stroke-linecap:butt;stroke-linejoin:miter;stroke:rgb(0%,0%,0%);stroke-opacity:1;stroke-miterlimit:10;" d="M 0.462813 0.466953 L 0.39668 0.54957 L 0.355391 0.632227 L 0.355391 0.673555 L 0.438008 0.789258 L 0.462813 0.830586 L 0.446289 0.855391 L 0.404961 0.929766 L 0.380156 0.954531 L 0.644609 0.954531 L 0.644609 0.111563 L 0.561992 0.0454688 L 0.504141 0.0785156 L 0.504141 0.210742 L 0.471094 0.194219 L 0.479336 0.25207 L 0.471094 0.318164 L 0.454531 0.367773 Z M 0.462813 0.466953 " transform="matrix(100,0,0,100,300,2600)"/>
<path style="fill:none;stroke-width:0.01;stroke-linecap:butt;stroke-linejoin:miter;stroke:rgb(0%,0%,0%);stroke-opacity:1;stroke-miterlimit:10;" d="M 0.388789 0.954531 L 0.350078 0.828828 L 0.335586 0.712773 L 0.34043 0.645078 L 0.306563 0.562852 L 0.311406 0.456484 L 0.325938 0.364609 L 0.335586 0.311406 L 0.350078 0.29207 L 0.374258 0.253398 L 0.388789 0.224375 L 0.364609 0.176016 L 0.335586 0.10832 L 0.321094 0.0744531 L 0.321094 0.0551172 L 0.582187 0.0454688 L 0.591875 0.146992 L 0.562852 0.142148 L 0.558008 0.229219 L 0.558008 0.272734 L 0.587031 0.364609 L 0.620898 0.388789 L 0.640234 0.427461 L 0.664414 0.495156 L 0.68375 0.548359 L 0.693437 0.601562 L 0.693437 0.649922 L 0.65957 0.664414 L 0.640234 0.611211 L 0.625742 0.567695 L 0.625742 0.538672 L 0.601562 0.52418 L 0.587031 0.519336 L 0.596719 0.558008 L 0.611211 0.587031 L 0.582187 0.620898 L 0.548359 0.65957 L 0.509688 0.70793 L 0.504844 0.756289 L 0.470977 0.823984 L 0.456484 0.877188 L 0.461328 0.944883 L 0.437148 0.940039 L 0.441992 0.906172 L 0.422617 0.877188 L 0.417813 0.930352 Z M 0.388789 0.954531 " transform="matrix(100,0,0,100,450,2600)"/>
<path style="fill:none;stroke-width:0.01;stroke-linecap:butt;stroke-linejoin:miter;stroke:rgb(0%,0%,0%);stroke-opacity:1;stroke-miterlimit:10;" d="M 0.175313 0.954531 L 0.210742 0.694805 L 0.269766 0.482305 L 0.328789 0.305195 L 0.340625 0.175313 L 0.316992 0.116289 L 0.423242 0.0572656 L 0.494102 0.0572656 L 0.647578 0.0690625 L 0.765625 0.0454688 L 0.824688 0.104492 L 0.812852 0.198945 L 0.777461 0.316992 L 0.647578 0.470469 L 0.647578 0.553125 L 0.718398 0.647578 L 0.777461 0.706602 L 0.801055 0.765625 L 0.706602 0.907305 L 0.671211 0.954531 Z M 0.175313 0.954531 " transform="matrix(100,0,0,100,600,2600)"/>
<path style="fill:none;stroke-width:0.01;stroke-linecap:butt;stroke-linejoin:miter;stroke:rgb(0%,0%,0%);stroke-opacity:1;stroke-miterlimit:10;" d="M 0.731719 0.954531 L 0.0989453 0.954531 L 0.179141 0.731719 L 0.241523 0.589141 L 0.25043 0.526719 L 0.295 0.553477 L 0.366328 0.589141 L 0.419805 0.606953 L 0.45543 0.571289 L 0.491094 0.526719 L 0.508906 0.517813 L 0.535664 0.54457 L 0.54457 0.589141 L 0.624766 0.589141 L 0.66043 0.526719 L 0.669336 0.357383 L 0.678242 0.232617 L 0.678242 0.13457 L 0.696094 0.0810938 L 0.731719 0.0454688 L 0.785195 0.0989453 L 0.838672 0.170234 L 0.874336 0.277188 L 0.86543 0.393047 L 0.856523 0.491094 L 0.847578 0.571289 L 0.838672 0.633672 L 0.847578 0.669336 L 0.883242 0.758477 L 0.901055 0.86543 L 0.892148 0.918906 L 0.856523 0.954531 Z M 0.731719 0.954531 " transform="matrix(100,0,0,100,0,2750)"/>
<path style="fill:none;stroke-width:0.01;stroke-linecap:butt;stroke-linejoin:miter;stroke:rgb(0%,0%,0%);stroke-opacity:1;stroke-miterlimit:10;" d="M 0.258633 0.139492 L 0.227266 0.246094 L 0.233555 0.3025 L 0.258633 0.409102 L 0.271172 0.484336 L 0.289961 0.540742 L 0.29625 0.597188 L 0.3025 0.6975 L 0.340117 0.810352 L 0.346406 0.898125 L 0.352656 0.935742 L 0.377734 0.910664 L 0.402813 0.873047 L 0.421641 0.923203 L 0.44043 0.954531 L 0.471797 0.941992 L 0.465508 0.854219 L 0.471797 0.772734 L 0.503125 0.70375 L 0.509414 0.628516 L 0.540742 0.584648 L 0.597187 0.55957 L 0.647344 0.484336 L 0.684961 0.452969 L 0.70375 0.43418 L 0.735117 0.540742 L 0.772734 0.515664 L 0.760195 0.409102 L 0.735117 0.277422 L 0.691211 0.15832 L 0.615977 0.0893359 L 0.56582 0.0454688 L 0.528203 0.0705469 L 0.446719 0.120703 L 0.396562 0.139492 L 0.358945 0.16457 L 0.315039 0.139492 L 0.29625 0.108164 L 0.271172 0.0893359 L 0.246094 0.108164 L 0.239805 0.139492 Z M 0.258633 0.139492 " transform="matrix(100,0,0,100,150,2750)"/>
<path style="fill:none;stroke-width:0.01;stroke-linecap:butt;stroke-linejoin:miter;stroke:rgb(0%,0%,0%);stroke-opacity:1;stroke-miterlimit:10;" d="M 0.483281 0.239297 L 0.429805 0.279414 L 0.423125 0.359609 L 0.403086 0.439844 L 0.396406 0.546797 L 0.396406 0.65375 L 0.409766 0.707227 L 0.436484 0.720586 L 0.423125 0.754023 L 0.423125 0.787422 L 0.436484 0.881016 L 0.449883 0.954531 L 0.489961 0.901055 L 0.483281 0.820859 L 0.530078 0.80082 L 0.523398 0.733945 L 0.530078 0.673789 L 0.576875 0.633672 L 0.563516 0.573516 L 0.536758 0.540117 L 0.523398 0.426484 L 0.563516 0.393047 L 0.596914 0.366328 L 0.570195 0.319531 L 0.596914 0.252656 L 0.603594 0.165781 L 0.603594 0.0989453 L 0.556836 0.0588281 L 0.530078 0.0454688 L 0.489961 0.0521484 L 0.483281 0.118984 L 0.489961 0.172461 L 0.463242 0.19918 Z M 0.483281 0.239297 " transform="matrix(100,0,0,100,300,2750)"/>
<path style="fill:none;stroke-width:0.01;stroke-linecap:butt;stroke-linejoin:miter;stroke:rgb(0%,0%,0%);stroke-opacity:1;stroke-miterlimit:10;" d="M 0.539883 0.0614063 L 0.55582 0.141133 L 0.539883 0.220898 L 0.515937 0.284688 L 0.515937 0.348477 L 0.587734 0.404297 L 0.579727 0.460117 L 0.531914 0.5 L 0.5 0.515937 L 0.468086 0.492031 L 0.380391 0.452148 L 0.356445 0.492031 L 0.380391 0.579727 L 0.348477 0.595703 L 0.284688 0.627578 L 0.276719 0.739219 L 0.244805 0.73125 L 0.300625 0.874805 L 0.356445 0.922656 L 0.404297 0.930625 L 0.515937 0.882773 L 0.547852 0.850859 L 0.55582 0.882773 L 0.595703 0.938594 L 0.611641 0.946562 L 0.67543 0.954531 L 0.723281 0.930625 L 0.73125 0.866836 L 0.739219 0.811016 L 0.739219 0.755195 L 0.699375 0.715312 L 0.651523 0.723281 L 0.603672 0.755195 L 0.571758 0.755195 L 0.547852 0.747227 L 0.563789 0.691406 L 0.659492 0.683398 L 0.699375 0.659492 L 0.707344 0.587734 L 0.723281 0.484063 L 0.723281 0.388359 L 0.747227 0.316602 L 0.723281 0.276719 L 0.739219 0.21293 L 0.755195 0.165078 L 0.747227 0.0454688 Z M 0.539883 0.0614063 " transform="matrix(100,0,0,100,450,2750)"/>
<path style="fill:none;stroke-width:0.01;stroke-linecap:butt;stroke-linejoin:miter;stroke:rgb(0%,0%,0%);stroke-opacity:1;stroke-miterlimit:10;" d="M 0.327148 0.0454688 L 0.263125 0.0966797 L 0.275938 0.199102 L 0.314336 0.28875 L 0.327148 0.378359 L 0.352734 0.493594 L 0.416758 0.583242 L 0.468008 0.634453 L 0.506406 0.749688 L 0.506406 0.813711 L 0.493594 0.877734 L 0.519219 0.954531 L 0.685664 0.954531 L 0.736875 0.877734 L 0.71125 0.775273 L 0.71125 0.672852 L 0.698477 0.634453 L 0.608828 0.480781 L 0.480781 0.263125 L 0.391172 0.173477 L 0.378359 0.0838672 Z M 0.327148 0.0454688 " transform="matrix(100,0,0,100,600,2750)"/>
<path style="fill:none;stroke-width:0.01;stroke-linecap:butt;stroke-linejoin:miter;stroke:rgb(0%,0%,0%);stroke-opacity:1;stroke-miterlimit:10;" d="M 0.821523 0.0454688 L 0.178477 0.0454688 L 0.233906 0.18957 L 0.311523 0.245 L 0.411289 0.355859 L 0.422383 0.44457 L 0.411289 0.55543 L 0.411289 0.621953 L 0.5 0.69957 L 0.566523 0.843672 L 0.599766 0.876953 L 0.732812 0.910195 L 0.821523 0.954531 Z M 0.821523 0.0454688 " transform="matrix(100,0,0,100,0,2900)"/>
<path style="fill:none;stroke-width:0.01;stroke-linecap:butt;stroke-linejoin:miter;stroke:rgb(0%,0%,0%);stroke-opacity:1;stroke-miterlimit:10;" d="M 0.814688 0.954531 L 0.534961 0.902109 L 0.412578 0.849648 L 0.272734 0.779727 L 0.185312 0.657344 L 0.202813 0.447539 L 0.272734 0.307695 L 0.342656 0.202813 L 0.5175 0.0978906 L 0.657344 0.0454688 L 0.779727 0.167852 L 0.814688 0.307695 Z M 0.814688 0.954531 " transform="matrix(100,0,0,100,150,2900)"/>
<path style="fill:none;stroke-width:0.01;stroke-linecap:butt;stroke-linejoin:miter;stroke:rgb(0%,0%,0%);stroke-opacity:1;stroke-miterlimit:10;" d="M 0.345898 0.268867 L 0.399844 0.222656 L 0.446055 0.199531 L 0.515391 0.168711 L 0.546211 0.114805 L 0.592461 0.0685547 L 0.623281 0.0454688 L 0.600156 0.207227 L 0.646367 0.230352 L 0.715703 0.284297 L 0.677188 0.392148 L 0.607852 0.422969 L 0.577031 0.438359 L 0.53082 0.484609 L 0.538516 0.553945 L 0.607852 0.600156 L 0.677188 0.677188 L 0.677188 0.838984 L 0.607852 0.954531 L 0.538516 0.869805 L 0.453789 0.769648 L 0.407539 0.715703 L 0.415273 0.777344 L 0.46918 0.869805 L 0.438359 0.939141 L 0.338203 0.869805 L 0.307383 0.738828 L 0.284297 0.646367 L 0.376719 0.561641 L 0.484609 0.476875 L 0.461484 0.422969 L 0.384453 0.299688 Z M 0.345898 0.268867 " transform="matrix(100,0,0,100,300,2900)"/>
<path style="fill:none;stroke-width:0.01;stroke-linecap:butt;stroke-linejoin:miter;stroke:rgb(0%,0%,0%);stroke-opacity:1;stroke-miterlimit:10;" d="M 0.0454688 0.0915625 L 0.0454688 0.157461 L 0.111328 0.28918 L 0.111328 0.368242 L 0.150859 0.473633 L 0.137695 0.579062 L 0.25625 0.644922 L 0.335312 0.658086 L 0.440703 0.658086 L 0.427539 0.816211 L 0.453867 0.908438 L 0.611992 0.921602 L 0.730586 0.934766 L 0.875508 0.921602 L 0.941367 0.868906 L 0.954531 0.0652344 Z M 0.0454688 0.0915625 " transform="matrix(100,0,0,100,450,2900)"/>
<path style="fill:none;stroke-width:0.01;stroke-linecap:butt;stroke-linejoin:miter;stroke:rgb(0%,0%,0%);stroke-opacity:1;stroke-miterlimit:10;" d="M 0.365977 0.138711 L 0.365977 0.243594 L 0.389297 0.301875 L 0.447539 0.266914 L 0.49418 0.266914 L 0.4825 0.336836 L 0.400938 0.430078 L 0.365977 0.511641 L 0.354297 0.639844 L 0.459219 0.686484 L 0.50582 0.733086 L 0.50582 0.91957 L 0.587422 0.954531 L 0.599063 0.861289 L 0.634023 0.756406 L 0.610703 0.639844 L 0.622383 0.593242 L 0.634023 0.5 L 0.645703 0.255234 L 0.575742 0.313516 L 0.5175 0.278555 L 0.4825 0.243594 L 0.49418 0.138711 L 0.5175 0.0454688 L 0.4825 0.0454688 L 0.400938 0.0920703 Z M 0.365977 0.138711 " transform="matrix(100,0,0,100,600,2900)"/>
<path style="fill:none;stroke-width:0.01;stroke-linecap:butt;stroke-linejoin:miter;stroke:rgb(0%,0%,0%);stroke-opacity:1;stroke-miterlimit:10;" d="M 0.185312 0.301875 L 0.371797 0.231953 L 0.511641 0.185313 L 0.511641 0.0920703 L 0.581602 0.0454688 L 0.698125 0.06875 L 0.791367 0.161992 L 0.814688 0.395117 L 0.814688 0.838008 L 0.651523 0.954531 L 0.581602 0.93125 L 0.511641 0.791367 L 0.465039 0.698125 L 0.278555 0.628203 L 0.255234 0.534961 L 0.208633 0.371797 Z M 0.185312 0.301875 " transform="matrix(100,0,0,100,0,3050)"/>
<path style="fill:none;stroke-width:0.01;stroke-linecap:butt;stroke-linejoin:miter;stroke:rgb(0%,0%,0%);stroke-opacity:1;stroke-miterlimit:10;" d="M 0.570547 0.0924609 L 0.351094 0.0611328 L 0.25707 0.0924609 L 0.178672 0.123828 L 0.163008 0.170859 L 0.178672 0.264883 L 0.319766 0.452969 L 0.398125 0.531367 L 0.445156 0.656758 L 0.46082 0.813477 L 0.554844 0.891836 L 0.601875 0.938867 L 0.695937 0.954531 L 0.774297 0.844844 L 0.774297 0.782148 L 0.821328 0.735117 L 0.805625 0.547031 L 0.836992 0.452969 L 0.727266 0.374609 L 0.695937 0.327578 L 0.680234 0.217852 L 0.586211 0.0454688 Z M 0.570547 0.0924609 " transform="matrix(100,0,0,100,150,3050)"/>
<path style="fill:none;stroke-width:0.01;stroke-linecap:butt;stroke-linejoin:miter;stroke:rgb(0%,0%,0%);stroke-opacity:1;stroke-miterlimit:10;" d="M 0.803047 0.25625 L 0.77668 0.124492 L 0.71082 0.0849609 L 0.631758 0.0454688 L 0.526367 0.111328 L 0.460469 0.150859 L 0.407773 0.282617 L 0.420937 0.308945 L 0.341914 0.348477 L 0.196953 0.46707 L 0.157461 0.53293 L 0.183789 0.651523 L 0.210156 0.74375 L 0.28918 0.783281 L 0.328711 0.796445 L 0.355078 0.849141 L 0.381406 0.954531 L 0.434141 0.835977 L 0.473633 0.756914 L 0.434141 0.664687 L 0.473633 0.559297 L 0.565859 0.572461 L 0.618594 0.46707 L 0.631758 0.401172 L 0.697617 0.440703 L 0.750313 0.401172 L 0.842539 0.308945 Z M 0.803047 0.25625 " transform="matrix(100,0,0,100,300,3050)"/>
<path style="fill:none;stroke-width:0.01;stroke-linecap:butt;stroke-linejoin:miter;stroke:rgb(0%,0%,0%);stroke-opacity:1;stroke-miterlimit:10;" d="M 0.800703 0.534961 L 0.856641 0.409102 L 0.954531 0.269219 L 0.954531 0.157344 L 0.730781 0.157344 L 0.772734 0.297187 L 0.800703 0.423086 L 0.730781 0.465039 L 0.730781 0.311172 L 0.688828 0.213281 L 0.618867 0.297187 L 0.632852 0.395117 L 0.576914 0.409102 L 0.56293 0.576914 L 0.534961 0.409102 L 0.493008 0.143359 L 0.0454688 0.157344 L 0.157344 0.311172 L 0.311172 0.325156 L 0.43707 0.33918 L 0.423086 0.423086 L 0.423086 0.493008 L 0.506992 0.534961 L 0.506992 0.646836 L 0.479023 0.702813 L 0.534961 0.856641 L 0.604883 0.842656 L 0.66082 0.856641 L 0.744766 0.842656 L 0.828672 0.730781 L 0.828672 0.688828 Z M 0.800703 0.534961 " transform="matrix(100,0,0,100,450,3050)"/>
<path style="fill:none;stroke-width:0.01;stroke-linecap:butt;stroke-linejoin:miter;stroke:rgb(0%,0%,0%);stroke-opacity:1;stroke-miterlimit:10;" d="M 0.566836 0.566836 L 0.526719 0.713906 L 0.5 0.834219 L 0.486641 0.914453 L 0.393047 0.954531 L 0.379688 0.754023 L 0.33957 0.606953 L 0.326211 0.433164 L 0.286094 0.286094 L 0.366328 0.0989453 L 0.393047 0.0454688 L 0.433164 0.165781 L 0.486641 0.232617 L 0.459883 0.259375 L 0.446523 0.35293 L 0.540117 0.419805 L 0.566836 0.33957 L 0.620312 0.272734 L 0.673789 0.219258 L 0.700547 0.35293 L 0.713906 0.446523 L 0.633672 0.406406 L 0.593594 0.433164 Z M 0.566836 0.566836 " transform="matrix(100,0,0,100,600,3050)"/>
<path style="fill:none;stroke-width:0.01;stroke-linecap:butt;stroke-linejoin:miter;stroke:rgb(0%,0%,0%);stroke-opacity:1;stroke-miterlimit:10;" d="M 0.163555 0.115234 L 0.131367 0.0830469 L 0.0848437 0.0758594 L 0.0597656 0.0794531 L 0.0454688 0.161758 L 0.0454688 0.347891 L 0.102734 0.376523 L 0.102734 0.476719 L 0.127773 0.555469 L 0.138516 0.598438 L 0.174297 0.644961 L 0.195781 0.684336 L 0.20293 0.720117 L 0.228008 0.763047 L 0.267344 0.841797 L 0.317461 0.87043 L 0.414102 0.834648 L 0.525039 0.863281 L 0.582305 0.895508 L 0.636016 0.895508 L 0.711172 0.931289 L 0.739805 0.931289 L 0.947383 0.942031 L 0.954531 0.942031 L 0.950977 0.720117 L 0.435586 0.752344 L 0.371172 0.734414 L 0.338945 0.741602 L 0.321055 0.691484 L 0.288828 0.541172 L 0.303164 0.45168 L 0.306719 0.444531 L 0.36043 0.448086 L 0.603789 0.398008 L 0.954531 0.315664 L 0.954531 0.279883 L 0.793477 0.304922 L 0.689688 0.287031 L 0.62168 0.233359 L 0.560859 0.233359 L 0.478516 0.269141 L 0.42125 0.290625 L 0.342539 0.297773 L 0.285273 0.276289 L 0.256641 0.20832 L 0.260195 0.122422 L 0.231563 0.0615625 L 0.217266 0.0579688 L 0.206523 0.0723047 L 0.192188 0.100938 L 0.188633 0.12957 Z M 0.163555 0.115234 " transform="matrix(100,0,0,100,0,3200)"/>
<path style="fill:none;stroke-width:0.01;stroke-linecap:butt;stroke-linejoin:miter;stroke:rgb(0%,0%,0%);stroke-opacity:1;stroke-miterlimit:10;" d="M 0.403125 0.425469 L 0.410586 0.529805 L 0.418047 0.56707 L 0.43293 0.634141 L 0.403125 0.678828 L 0.350977 0.731016 L 0.37332 0.798047 L 0.410586 0.8875 L 0.425469 0.954531 L 0.492539 0.909844 L 0.56707 0.8875 L 0.596875 0.857656 L 0.604336 0.783164 L 0.62668 0.708633 L 0.649023 0.619219 L 0.641563 0.581953 L 0.581953 0.380781 L 0.522344 0.0454687 L 0.462734 0.0528906 L 0.43293 0.149766 L 0.470195 0.231758 L 0.485078 0.313711 L 0.440391 0.358438 L 0.403125 0.395664 Z M 0.403125 0.425469 " transform="matrix(100,0,0,100,150,3200)"/>
<path style="fill:none;stroke-width:0.01;stroke-linecap:butt;stroke-linejoin:miter;stroke:rgb(0%,0%,0%);stroke-opacity:1;stroke-miterlimit:10;" d="M 0.519687 0.954531 L 0.405156 0.954531 L 0.401563 0.0454687 L 0.533984 0.0454687 L 0.541172 0.0669141 L 0.516094 0.127773 L 0.505352 0.149258 L 0.505352 0.192188 L 0.501797 0.242305 L 0.491055 0.28168 L 0.45168 0.285273 L 0.448086 0.29957 L 0.46957 0.346094 L 0.473164 0.399805 L 0.476719 0.453477 L 0.480313 0.471367 L 0.516094 0.478516 L 0.544727 0.474961 L 0.562617 0.478516 L 0.573359 0.514297 L 0.569805 0.54293 L 0.551914 0.568008 L 0.498203 0.57875 L 0.480313 0.600195 L 0.476719 0.63957 L 0.46957 0.704023 L 0.487461 0.764844 L 0.516094 0.818555 L 0.537578 0.879375 L 0.541172 0.91875 L 0.559063 0.929492 L 0.584102 0.933086 L 0.598438 0.950977 L 0.53043 0.954531 Z M 0.519687 0.954531 " transform="matrix(100,0,0,100,300,3200)"/>
<path style="fill:none;stroke-width:0.01;stroke-linecap:butt;stroke-linejoin:miter;stroke:rgb(0%,0%,0%);stroke-opacity:1;stroke-miterlimit:10;" d="M 0.592695 0.954531 L 0.475039 0.954531 L 0.464336 0.908203 L 0.460781 0.829766 L 0.457227 0.779844 L 0.446523 0.719258 L 0.439375 0.655078 L 0.428711 0.615859 L 0.421563 0.576641 L 0.418008 0.548125 L 0.418008 0.512461 L 0.439375 0.483945 L 0.439375 0.462578 L 0.442969 0.419805 L 0.421563 0.373438 L 0.407305 0.327109 L 0.414453 0.305703 L 0.421563 0.284297 L 0.439375 0.255781 L 0.450078 0.216563 L 0.439375 0.163086 L 0.432266 0.123867 L 0.428711 0.0882422 L 0.432266 0.0525781 L 0.585547 0.0454687 Z M 0.592695 0.954531 " transform="matrix(100,0,0,100,450,3200)"/>
</g>
</svg>
