<?xml version="1.0" encoding="UTF-8"?>
<svg xmlns="http://www.w3.org/2000/svg" xmlns:xlink="http://www.w3.org/1999/xlink" width="750pt" height="10400pt" viewBox="0 0 750 10400" version="1.1">
<g id="surface1">
<path style="fill:none;stroke-width:0.01;stroke-linecap:butt;stroke-linejoin:miter;stroke:rgb(0%,0%,0%);stroke-opacity:1;stroke-miterlimit:10;" d="M 0.692305 0.849648 L 0.4825 0.814688 L 0.412578 0.709805 L 0.342656 0.954531 L 0.307695 0.0454687 L 0.447539 0.115391 L 0.692305 0.220273 Z M 0.692305 0.849648 " transform="matrix(100,0,0,100,0,200)"/>
<path style="fill:none;stroke-width:0.01;stroke-linecap:butt;stroke-linejoin:miter;stroke:rgb(0%,0%,0%);stroke-opacity:1;stroke-miterlimit:10;" d="M 0.583438 0.0454687 L 0.423633 0.0525391 L 0.416562 0.950977 L 0.583438 0.954531 Z M 0.583438 0.0454687 " transform="matrix(100,0,0,100,150,200)"/>
<path style="fill:none;stroke-width:0.01;stroke-linecap:butt;stroke-linejoin:miter;stroke:rgb(0%,0%,0%);stroke-opacity:1;stroke-miterlimit:10;" d="M 0.855391 0.938008 L 0.144609 0.954531 L 0.260312 0.0454687 L 0.342969 0.0619922 L 0.359492 0.128086 L 0.590898 0.128086 L 0.640508 0.210742 L 0.855391 0.260312 Z M 0.855391 0.938008 " transform="matrix(100,0,0,100,300,200)"/>
<path style="fill:none;stroke-width:0.01;stroke-linecap:butt;stroke-linejoin:miter;stroke:rgb(0%,0%,0%);stroke-opacity:1;stroke-miterlimit:10;" d="M 0.721445 0.0454687 L 0.278555 0.0454687 L 0.301875 0.93125 L 0.651523 0.954531 L 0.674844 0.534961 Z M 0.721445 0.0454687 " transform="matrix(100,0,0,100,450,200)"/>
<path style="fill:none;stroke-width:0.01;stroke-linecap:butt;stroke-linejoin:miter;stroke:rgb(0%,0%,0%);stroke-opacity:1;stroke-miterlimit:10;" d="M 0.554961 0.879609 L 0.51 0.954531 L 0.450039 0.94457 L 0.445039 0.0504687 L 0.480039 0.0454687 L 0.480039 0.0754297 L 0.554961 0.0854297 L 0.554961 0.579922 L 0.549961 0.769727 Z M 0.554961 0.879609 " transform="matrix(100,0,0,100,600,200)"/>
<path style="fill:none;stroke-width:0.01;stroke-linecap:butt;stroke-linejoin:miter;stroke:rgb(0%,0%,0%);stroke-opacity:1;stroke-miterlimit:10;" d="M 0.670469 0.954531 L 0.310625 0.935625 L 0.310625 0.518945 L 0.253789 0.518945 L 0.234844 0.178047 L 0.234844 0.0454687 L 0.518945 0.0454687 L 0.556836 0.556836 L 0.765156 0.821953 L 0.70832 0.897734 Z M 0.670469 0.954531 " transform="matrix(100,0,0,100,0,350)"/>
<path style="fill:none;stroke-width:0.01;stroke-linecap:butt;stroke-linejoin:miter;stroke:rgb(0%,0%,0%);stroke-opacity:1;stroke-miterlimit:10;" d="M 0.56 0.0777734 L 0.555391 0.0454687 L 0.444609 0.0454687 L 0.44 0.954531 L 0.56 0.954531 Z M 0.56 0.0777734 " transform="matrix(100,0,0,100,150,350)"/>
<path style="fill:none;stroke-width:0.01;stroke-linecap:butt;stroke-linejoin:miter;stroke:rgb(0%,0%,0%);stroke-opacity:1;stroke-miterlimit:10;" d="M 0.732422 0.0454687 L 0.267578 0.0454687 L 0.329531 0.933867 L 0.701445 0.954531 Z M 0.732422 0.0454687 " transform="matrix(100,0,0,100,300,350)"/>
<path style="fill:none;stroke-width:0.01;stroke-linecap:butt;stroke-linejoin:miter;stroke:rgb(0%,0%,0%);stroke-opacity:1;stroke-miterlimit:10;" d="M 0.579063 0.0652344 L 0.420937 0.0454687 L 0.420937 0.944648 L 0.519766 0.954531 Z M 0.579063 0.0652344 " transform="matrix(100,0,0,100,450,350)"/>
<path style="fill:none;stroke-width:0.01;stroke-linecap:butt;stroke-linejoin:miter;stroke:rgb(0%,0%,0%);stroke-opacity:1;stroke-miterlimit:10;" d="M 0.295273 0.833086 L 0.392422 0.819219 L 0.392422 0.611016 L 0.447969 0.604102 L 0.447969 0.569414 L 0.524297 0.569414 L 0.524297 0.534688 L 0.586758 0.527773 L 0.600625 0.506953 L 0.663086 0.513867 L 0.663086 0.458359 L 0.753281 0.458359 L 0.753281 0.402852 L 0.857383 0.409766 L 0.864336 0.361211 L 0.954531 0.361211 L 0.954531 0.166914 L 0.288359 0.166914 L 0.0523828 0.409766 L 0.0454688 0.617969 L 0.260586 0.819219 Z M 0.295273 0.833086 " transform="matrix(100,0,0,100,600,350)"/>
<path style="fill:none;stroke-width:0.01;stroke-linecap:butt;stroke-linejoin:miter;stroke:rgb(0%,0%,0%);stroke-opacity:1;stroke-miterlimit:10;" d="M 0.526719 0.112305 L 0.0721875 0.700547 L 0.0454688 0.887695 L 0.954531 0.887695 L 0.927813 0.794102 L 0.8075 0.794102 L 0.820859 0.754023 L 0.713906 0.740625 L 0.713906 0.112305 Z M 0.526719 0.112305 " transform="matrix(100,0,0,100,0,500)"/>
<path style="fill:none;stroke-width:0.01;stroke-linecap:butt;stroke-linejoin:miter;stroke:rgb(0%,0%,0%);stroke-opacity:1;stroke-miterlimit:10;" d="M 0.430625 0.954531 L 0.526328 0.954531 L 0.569375 0.260781 L 0.569375 0.198555 L 0.516758 0.0646094 L 0.468906 0.0646094 L 0.464102 0.0550391 L 0.444961 0.0454688 L 0.454531 0.23207 Z M 0.430625 0.954531 " transform="matrix(100,0,0,100,150,500)"/>
<path style="fill:none;stroke-width:0.01;stroke-linecap:butt;stroke-linejoin:miter;stroke:rgb(0%,0%,0%);stroke-opacity:1;stroke-miterlimit:10;" d="M 0.491133 0.0525391 L 0.45207 0.954531 L 0.54793 0.954531 L 0.54793 0.0454688 Z M 0.491133 0.0525391 " transform="matrix(100,0,0,100,300,500)"/>
<path style="fill:none;stroke-width:0.01;stroke-linecap:butt;stroke-linejoin:miter;stroke:rgb(0%,0%,0%);stroke-opacity:1;stroke-miterlimit:10;" d="M 0.509102 0.954531 L 0.254531 0.954531 L 0.327266 0.590898 L 0.327266 0.0818359 L 0.509102 0.0454688 L 0.509102 0.263633 L 0.618164 0.3 L 0.618164 0.409102 L 0.690898 0.409102 L 0.672734 0.590898 L 0.745469 0.609102 L 0.672734 0.954531 Z M 0.509102 0.954531 " transform="matrix(100,0,0,100,450,500)"/>
<path style="fill:none;stroke-width:0.01;stroke-linecap:butt;stroke-linejoin:miter;stroke:rgb(0%,0%,0%);stroke-opacity:1;stroke-miterlimit:10;" d="M 0.562266 0.0454688 L 0.350547 0.0703516 L 0.363008 0.954531 L 0.450195 0.954531 L 0.450195 0.531133 L 0.487539 0.481328 L 0.487539 0.120156 L 0.61207 0.120156 L 0.649453 0.182422 L 0.636992 0.0703516 Z M 0.562266 0.0454688 " transform="matrix(100,0,0,100,600,500)"/>
<path style="fill:none;stroke-width:0.01;stroke-linecap:butt;stroke-linejoin:miter;stroke:rgb(0%,0%,0%);stroke-opacity:1;stroke-miterlimit:10;" d="M 0.514531 0.954531 L 0.439805 0.954531 L 0.448125 0.871523 L 0.443945 0.817578 L 0.522813 0.0496094 L 0.560195 0.0454688 L 0.535273 0.954531 Z M 0.514531 0.954531 " transform="matrix(100,0,0,100,0,650)"/>
<path style="fill:none;stroke-width:0.01;stroke-linecap:butt;stroke-linejoin:miter;stroke:rgb(0%,0%,0%);stroke-opacity:1;stroke-miterlimit:10;" d="M 0.562617 0.954531 L 0.437383 0.954531 L 0.465664 0.0777734 L 0.554531 0.0454688 L 0.554531 0.0979687 L 0.558594 0.20707 L 0.534336 0.227266 L 0.542422 0.441406 L 0.554531 0.457578 L 0.562617 0.485859 Z M 0.562617 0.954531 " transform="matrix(100,0,0,100,150,650)"/>
<path style="fill:none;stroke-width:0.01;stroke-linecap:butt;stroke-linejoin:miter;stroke:rgb(0%,0%,0%);stroke-opacity:1;stroke-miterlimit:10;" d="M 0.598281 0.323906 L 0.598281 0.0454688 L 0.581914 0.0536328 L 0.434492 0.307539 L 0.418086 0.463164 L 0.401719 0.946367 L 0.491797 0.954531 L 0.508203 0.323906 Z M 0.598281 0.323906 " transform="matrix(100,0,0,100,300,650)"/>
<path style="fill:none;stroke-width:0.01;stroke-linecap:butt;stroke-linejoin:miter;stroke:rgb(0%,0%,0%);stroke-opacity:1;stroke-miterlimit:10;" d="M 0.482305 0.954531 L 0.305195 0.954531 L 0.340625 0.0454688 L 0.541328 0.0454688 L 0.553125 0.529531 L 0.588555 0.553125 L 0.623984 0.895508 L 0.694805 0.919141 L 0.694805 0.954531 Z M 0.482305 0.954531 " transform="matrix(100,0,0,100,450,650)"/>
<path style="fill:none;stroke-width:0.01;stroke-linecap:butt;stroke-linejoin:miter;stroke:rgb(0%,0%,0%);stroke-opacity:1;stroke-miterlimit:10;" d="M 0.730234 0.133984 L 0.0690625 0.133984 L 0.0690625 0.547227 L 0.0454688 0.830586 L 0.269766 0.866016 L 0.942734 0.889609 L 0.954531 0.559023 L 0.860078 0.110391 Z M 0.730234 0.133984 " transform="matrix(100,0,0,100,600,650)"/>
<path style="fill:none;stroke-width:0.01;stroke-linecap:butt;stroke-linejoin:miter;stroke:rgb(0%,0%,0%);stroke-opacity:1;stroke-miterlimit:10;" d="M 0.619883 0.0454687 L 0.39082 0.0454687 L 0.355039 0.142109 L 0.351484 0.954531 L 0.648516 0.954531 L 0.630625 0.142109 Z M 0.619883 0.0454687 " transform="matrix(100,0,0,100,0,800)"/>
<path style="fill:none;stroke-width:0.01;stroke-linecap:butt;stroke-linejoin:miter;stroke:rgb(0%,0%,0%);stroke-opacity:1;stroke-miterlimit:10;" d="M 0.929297 0.361094 L 0.0454687 0.361094 L 0.146445 0.462109 L 0.323242 0.563125 L 0.398984 0.613633 L 0.727266 0.638906 L 0.954531 0.537891 Z M 0.929297 0.361094 " transform="matrix(100,0,0,100,150,800)"/>
<path style="fill:none;stroke-width:0.01;stroke-linecap:butt;stroke-linejoin:miter;stroke:rgb(0%,0%,0%);stroke-opacity:1;stroke-miterlimit:10;" d="M 0.67 0.0454687 L 0.415898 0.0454687 L 0.33 0.954531 L 0.519687 0.954531 Z M 0.67 0.0454687 " transform="matrix(100,0,0,100,300,800)"/>
<path style="fill:none;stroke-width:0.01;stroke-linecap:butt;stroke-linejoin:miter;stroke:rgb(0%,0%,0%);stroke-opacity:1;stroke-miterlimit:10;" d="M 0.53375 0.0525391 L 0.487578 0.0454687 L 0.46625 0.954531 L 0.53375 0.954531 Z M 0.53375 0.0525391 " transform="matrix(100,0,0,100,450,800)"/>
<path style="fill:none;stroke-width:0.01;stroke-linecap:butt;stroke-linejoin:miter;stroke:rgb(0%,0%,0%);stroke-opacity:1;stroke-miterlimit:10;" d="M 0.575156 0.0454687 L 0.267344 0.0454687 L 0.270938 0.0526172 L 0.28168 0.0562109 L 0.285273 0.0991406 L 0.306719 0.156406 L 0.321055 0.192187 L 0.317461 0.213672 L 0.310313 0.242305 L 0.310313 0.267344 L 0.306719 0.288828 L 0.295977 0.324609 L 0.295977 0.356836 L 0.321055 0.36043 L 0.328203 0.37832 L 0.317461 0.392617 L 0.321055 0.417695 L 0.303164 0.42125 L 0.285273 0.435586 L 0.285273 0.485703 L 0.310313 0.496406 L 0.310313 0.525039 L 0.317461 0.546523 L 0.303164 0.582305 L 0.324609 0.62168 L 0.328203 0.643164 L 0.317461 0.664648 L 0.342539 0.714727 L 0.353242 0.729062 L 0.342539 0.768438 L 0.331797 0.811367 L 0.328203 0.843594 L 0.356836 0.908008 L 0.371172 0.940234 L 0.335352 0.954531 L 0.525039 0.950977 L 0.5 0.936641 L 0.564414 0.936641 L 0.600195 0.925898 L 0.625273 0.922344 L 0.636016 0.950977 L 0.732656 0.954531 L 0.732656 0.732656 L 0.714727 0.514297 L 0.643164 0.238711 Z M 0.575156 0.0454687 " transform="matrix(100,0,0,100,600,800)"/>
<path style="fill:none;stroke-width:0.01;stroke-linecap:butt;stroke-linejoin:miter;stroke:rgb(0%,0%,0%);stroke-opacity:1;stroke-miterlimit:10;" d="M 0.540977 0.127422 L 0.518633 0.462734 L 0.511172 0.932187 L 0.503711 0.954531 L 0.459023 0.954531 L 0.466484 0.611758 L 0.466484 0.0826953 L 0.481367 0.0678125 L 0.503711 0.0528906 L 0.526094 0.0454687 L 0.540977 0.0528906 Z M 0.540977 0.127422 " transform="matrix(100,0,0,100,0,950)"/>
<path style="fill:none;stroke-width:0.01;stroke-linecap:butt;stroke-linejoin:miter;stroke:rgb(0%,0%,0%);stroke-opacity:1;stroke-miterlimit:10;" d="M 0.5 0.954531 L 0.469805 0.954531 L 0.488672 0.74707 L 0.488672 0.3925 L 0.496211 0.298203 L 0.522617 0.298203 L 0.522617 0.279336 L 0.503789 0.275547 L 0.5 0.128438 L 0.5 0.0454687 L 0.515078 0.0869531 L 0.522617 0.143516 L 0.522617 0.185039 L 0.526406 0.215195 L 0.526406 0.286875 L 0.522617 0.332148 L 0.515078 0.373633 L 0.518867 0.384961 L 0.515078 0.422656 L 0.515078 0.437773 L 0.526406 0.460391 L 0.515078 0.498125 L 0.518867 0.53207 L 0.518867 0.588633 L 0.515078 0.611289 L 0.511328 0.641445 L 0.522617 0.660312 L 0.522617 0.735742 L 0.530195 0.758398 L 0.522617 0.784805 L 0.526406 0.822539 L 0.530195 0.856484 L 0.530195 0.879102 L 0.511328 0.905508 L 0.503789 0.928125 Z M 0.5 0.954531 " transform="matrix(100,0,0,100,150,950)"/>
<path style="fill:none;stroke-width:0.01;stroke-linecap:butt;stroke-linejoin:miter;stroke:rgb(0%,0%,0%);stroke-opacity:1;stroke-miterlimit:10;" d="M 0.580195 0.954531 L 0.473281 0.936719 L 0.473281 0.241523 L 0.401953 0.312852 L 0.401953 0.223711 L 0.526719 0.0454687 L 0.598047 0.0454687 Z M 0.580195 0.954531 " transform="matrix(100,0,0,100,300,950)"/>
<path style="fill:none;stroke-width:0.01;stroke-linecap:butt;stroke-linejoin:miter;stroke:rgb(0%,0%,0%);stroke-opacity:1;stroke-miterlimit:10;" d="M 0.544727 0.0454687 L 0.455273 0.0454687 L 0.462422 0.954531 L 0.516094 0.954531 L 0.53043 0.671797 L 0.537578 0.428437 L 0.537578 0.22082 Z M 0.544727 0.0454687 " transform="matrix(100,0,0,100,450,950)"/>
<path style="fill:none;stroke-width:0.01;stroke-linecap:butt;stroke-linejoin:miter;stroke:rgb(0%,0%,0%);stroke-opacity:1;stroke-miterlimit:10;" d="M 0.837227 0.0454687 L 0.631953 0.0454687 L 0.514648 0.30207 L 0.470664 0.419336 L 0.368047 0.609961 L 0.250742 0.785938 L 0.199414 0.851914 L 0.162773 0.888555 L 0.170078 0.939883 L 0.265391 0.954531 L 0.294727 0.866563 L 0.397344 0.756602 L 0.551328 0.661289 L 0.719922 0.521992 L 0.829922 0.456016 Z M 0.837227 0.0454687 " transform="matrix(100,0,0,100,600,950)"/>
<path style="fill:none;stroke-width:0.01;stroke-linecap:butt;stroke-linejoin:miter;stroke:rgb(0%,0%,0%);stroke-opacity:1;stroke-miterlimit:10;" d="M 0.733594 0.954531 L 0.392695 0.954531 L 0.266406 0.361094 L 0.29168 0.0580859 L 0.481055 0.0454687 Z M 0.733594 0.954531 " transform="matrix(100,0,0,100,0,1100)"/>
<path style="fill:none;stroke-width:0.01;stroke-linecap:butt;stroke-linejoin:miter;stroke:rgb(0%,0%,0%);stroke-opacity:1;stroke-miterlimit:10;" d="M 0.433867 0.954531 L 0.533047 0.954531 L 0.45043 0.566133 L 0.466953 0.367773 L 0.590898 0.342969 L 0.615703 0.161172 L 0.590898 0.0454687 L 0.384297 0.0454687 L 0.384297 0.954531 Z M 0.433867 0.954531 " transform="matrix(100,0,0,100,150,1100)"/>
<path style="fill:none;stroke-width:0.01;stroke-linecap:butt;stroke-linejoin:miter;stroke:rgb(0%,0%,0%);stroke-opacity:1;stroke-miterlimit:10;" d="M 0.692852 0.155664 L 0.610195 0.871914 L 0.527539 0.954531 L 0.362266 0.926992 L 0.307148 0.128086 L 0.362266 0.0454687 L 0.665273 0.0454687 Z M 0.692852 0.155664 " transform="matrix(100,0,0,100,300,1100)"/>
<path style="fill:none;stroke-width:0.01;stroke-linecap:butt;stroke-linejoin:miter;stroke:rgb(0%,0%,0%);stroke-opacity:1;stroke-miterlimit:10;" d="M 0.444648 0.124492 L 0.428867 0.06125 L 0.413047 0.0928906 L 0.326094 0.108711 L 0.365625 0.377461 L 0.428867 0.164023 L 0.460469 0.409102 L 0.460469 0.622539 L 0.436758 0.954531 L 0.5 0.954531 L 0.5 0.132422 L 0.673906 0.132422 L 0.666016 0.116602 L 0.594844 0.108711 L 0.555352 0.0454687 L 0.428867 0.0533594 Z M 0.444648 0.124492 " transform="matrix(100,0,0,100,450,1100)"/>
<path style="fill:none;stroke-width:0.01;stroke-linecap:butt;stroke-linejoin:miter;stroke:rgb(0%,0%,0%);stroke-opacity:1;stroke-miterlimit:10;" d="M 0.659922 0.0454687 L 0.424258 0.954531 L 0.37375 0.954531 L 0.340078 0.769375 L 0.424258 0.0623047 Z M 0.659922 0.0454687 " transform="matrix(100,0,0,100,600,1100)"/>
<path style="fill:none;stroke-width:0.01;stroke-linecap:butt;stroke-linejoin:miter;stroke:rgb(0%,0%,0%);stroke-opacity:1;stroke-miterlimit:10;" d="M 0.556836 0.0454687 L 0.375 0.0681641 L 0.443164 0.954531 L 0.488633 0.954531 L 0.625 0.0454687 Z M 0.556836 0.0454687 " transform="matrix(100,0,0,100,0,1250)"/>
<path style="fill:none;stroke-width:0.01;stroke-linecap:butt;stroke-linejoin:miter;stroke:rgb(0%,0%,0%);stroke-opacity:1;stroke-miterlimit:10;" d="M 0.699727 0.0454687 L 0.410469 0.0454687 L 0.300273 0.899453 L 0.438008 0.913242 L 0.548203 0.954531 Z M 0.699727 0.0454687 " transform="matrix(100,0,0,100,150,1250)"/>
<path style="fill:none;stroke-width:0.01;stroke-linecap:butt;stroke-linejoin:miter;stroke:rgb(0%,0%,0%);stroke-opacity:1;stroke-miterlimit:10;" d="M 0.954531 0.616055 L 0.0454687 0.616055 L 0.0841406 0.422617 L 0.180859 0.383945 L 0.722422 0.403281 Z M 0.954531 0.616055 " transform="matrix(100,0,0,100,300,1250)"/>
<path style="fill:none;stroke-width:0.01;stroke-linecap:butt;stroke-linejoin:miter;stroke:rgb(0%,0%,0%);stroke-opacity:1;stroke-miterlimit:10;" d="M 0.78707 0.571758 L 0.803047 0.332539 L 0.707344 0.316602 L 0.707344 0.141133 L 0.595703 0.141133 L 0.611641 0.0454687 L 0.244805 0.0454687 L 0.196953 0.938594 L 0.356445 0.954531 L 0.372422 0.795039 L 0.404297 0.699375 L 0.420273 0.571758 Z M 0.78707 0.571758 " transform="matrix(100,0,0,100,450,1250)"/>
<path style="fill:none;stroke-width:0.01;stroke-linecap:butt;stroke-linejoin:miter;stroke:rgb(0%,0%,0%);stroke-opacity:1;stroke-miterlimit:10;" d="M 0.628633 0.491406 L 0.560039 0.0797656 L 0.422813 0.0454687 L 0.371367 0.937383 L 0.491406 0.954531 L 0.525742 0.868789 L 0.422813 0.851641 L 0.457109 0.285586 L 0.560039 0.268438 Z M 0.628633 0.491406 " transform="matrix(100,0,0,100,600,1250)"/>
<path style="fill:none;stroke-width:0.01;stroke-linecap:butt;stroke-linejoin:miter;stroke:rgb(0%,0%,0%);stroke-opacity:1;stroke-miterlimit:10;" d="M 0.698867 0.954531 L 0.698867 0.102266 L 0.357969 0.0454687 L 0.301133 0.784102 Z M 0.698867 0.954531 " transform="matrix(100,0,0,100,0,1400)"/>
<path style="fill:none;stroke-width:0.01;stroke-linecap:butt;stroke-linejoin:miter;stroke:rgb(0%,0%,0%);stroke-opacity:1;stroke-miterlimit:10;" d="M 0.629062 0.954531 L 0.483164 0.124023 L 0.41582 0.0454687 L 0.370938 0.0678906 L 0.41582 0.94332 Z M 0.629062 0.954531 " transform="matrix(100,0,0,100,150,1400)"/>
<path style="fill:none;stroke-width:0.01;stroke-linecap:butt;stroke-linejoin:miter;stroke:rgb(0%,0%,0%);stroke-opacity:1;stroke-miterlimit:10;" d="M 0.830586 0.334727 L 0.789258 0.0454687 L 0.210742 0.0454687 L 0.0867578 0.541328 L 0.334727 0.871914 L 0.582656 0.954531 L 0.706602 0.830586 L 0.913242 0.789258 Z M 0.830586 0.334727 " transform="matrix(100,0,0,100,300,1400)"/>
<path style="fill:none;stroke-width:0.01;stroke-linecap:butt;stroke-linejoin:miter;stroke:rgb(0%,0%,0%);stroke-opacity:1;stroke-miterlimit:10;" d="M 0.763945 0.42668 L 0.793242 0.309375 L 0.705273 0.250742 L 0.705273 0.0454687 L 0.558633 0.0454687 L 0.236055 0.250742 L 0.206758 0.514648 L 0.412031 0.80793 L 0.441367 0.954531 L 0.675937 0.954531 L 0.675937 0.837227 L 0.705273 0.690625 L 0.763945 0.661289 Z M 0.763945 0.42668 " transform="matrix(100,0,0,100,450,1400)"/>
<path style="fill:none;stroke-width:0.01;stroke-linecap:butt;stroke-linejoin:miter;stroke:rgb(0%,0%,0%);stroke-opacity:1;stroke-miterlimit:10;" d="M 0.954531 0.934766 L 0.460469 0.934766 L 0.420937 0.579063 L 0.381406 0.420938 L 0.282617 0.302383 L 0.164023 0.164023 L 0.0454688 0.0849609 L 0.598828 0.0652344 L 0.697617 0.144258 L 0.816211 0.282617 L 0.915039 0.460469 L 0.954531 0.638359 Z M 0.954531 0.934766 " transform="matrix(100,0,0,100,600,1400)"/>
<path style="fill:none;stroke-width:0.01;stroke-linecap:butt;stroke-linejoin:miter;stroke:rgb(0%,0%,0%);stroke-opacity:1;stroke-miterlimit:10;" d="M 0.599688 0.532266 L 0.406172 0.954531 L 0.353359 0.931094 L 0.365117 0.673008 L 0.394414 0.0513281 L 0.570391 0.0454687 L 0.582109 0.0630469 L 0.593828 0.11582 L 0.617305 0.121719 L 0.617305 0.186211 L 0.634883 0.19207 L 0.640781 0.256602 L 0.646641 0.262461 L 0.646641 0.397344 Z M 0.599688 0.532266 " transform="matrix(100,0,0,100,0,1550)"/>
<path style="fill:none;stroke-width:0.01;stroke-linecap:butt;stroke-linejoin:miter;stroke:rgb(0%,0%,0%);stroke-opacity:1;stroke-miterlimit:10;" d="M 0.570352 0.445898 L 0.570352 0.954531 L 0.429648 0.954531 L 0.429648 0.575742 L 0.47293 0.0454687 L 0.559531 0.0671094 Z M 0.570352 0.445898 " transform="matrix(100,0,0,100,150,1550)"/>
<path style="fill:none;stroke-width:0.01;stroke-linecap:butt;stroke-linejoin:miter;stroke:rgb(0%,0%,0%);stroke-opacity:1;stroke-miterlimit:10;" d="M 0.589297 0.0454687 L 0.637969 0.775977 L 0.621758 0.954531 L 0.443164 0.92207 L 0.475664 0.840898 L 0.459414 0.743516 L 0.362031 0.727266 L 0.443164 0.662344 L 0.443164 0.467539 L 0.426953 0.240273 L 0.443164 0.0779297 Z M 0.589297 0.0454687 " transform="matrix(100,0,0,100,300,1550)"/>
<path style="fill:none;stroke-width:0.01;stroke-linecap:butt;stroke-linejoin:miter;stroke:rgb(0%,0%,0%);stroke-opacity:1;stroke-miterlimit:10;" d="M 0.565859 0.0454687 L 0.434141 0.0454687 L 0.447305 0.928203 L 0.552695 0.954531 Z M 0.565859 0.0454687 " transform="matrix(100,0,0,100,450,1550)"/>
<path style="fill:none;stroke-width:0.01;stroke-linecap:butt;stroke-linejoin:miter;stroke:rgb(0%,0%,0%);stroke-opacity:1;stroke-miterlimit:10;" d="M 0.590898 0.954531 L 0.409102 0.954531 L 0.409102 0.0454687 L 0.590898 0.0454687 Z M 0.590898 0.954531 " transform="matrix(100,0,0,100,600,1550)"/>
<path style="fill:none;stroke-width:0.01;stroke-linecap:butt;stroke-linejoin:miter;stroke:rgb(0%,0%,0%);stroke-opacity:1;stroke-miterlimit:10;" d="M 0.670469 0.064375 L 0.594688 0.954531 L 0.405313 0.91668 L 0.329531 0.784102 L 0.462109 0.632578 L 0.481055 0.0454688 Z M 0.670469 0.064375 " transform="matrix(100,0,0,100,0,1700)"/>
<path style="fill:none;stroke-width:0.01;stroke-linecap:butt;stroke-linejoin:miter;stroke:rgb(0%,0%,0%);stroke-opacity:1;stroke-miterlimit:10;" d="M 0.529102 0.954531 L 0.5 0.954531 L 0.5 0.336367 L 0.470898 0.343633 L 0.478164 0.278164 L 0.5 0.249102 L 0.492734 0.0527344 L 0.514531 0.0454688 Z M 0.529102 0.954531 " transform="matrix(100,0,0,100,150,1700)"/>
<path style="fill:none;stroke-width:0.01;stroke-linecap:butt;stroke-linejoin:miter;stroke:rgb(0%,0%,0%);stroke-opacity:1;stroke-miterlimit:10;" d="M 0.525117 0.950352 L 0.50418 0.954531 L 0.487422 0.543984 L 0.474883 0.137617 L 0.483242 0.0454688 L 0.50418 0.0538281 L 0.520938 0.560742 Z M 0.525117 0.950352 " transform="matrix(100,0,0,100,300,1700)"/>
<path style="fill:none;stroke-width:0.01;stroke-linecap:butt;stroke-linejoin:miter;stroke:rgb(0%,0%,0%);stroke-opacity:1;stroke-miterlimit:10;" d="M 0.608711 0.0454688 L 0.233203 0.0454688 L 0.2925 0.816211 L 0.529648 0.816211 L 0.549414 0.954531 L 0.628477 0.934766 L 0.687734 0.835977 L 0.766797 0.737148 L 0.648203 0.440703 Z M 0.608711 0.0454688 " transform="matrix(100,0,0,100,450,1700)"/>
<path style="fill:none;stroke-width:0.01;stroke-linecap:butt;stroke-linejoin:miter;stroke:rgb(0%,0%,0%);stroke-opacity:1;stroke-miterlimit:10;" d="M 0.563633 0.0454688 L 0.4 0.354531 L 0.327266 0.954531 L 0.472734 0.936367 L 0.636367 0.245469 L 0.672734 0.0818359 Z M 0.563633 0.0454688 " transform="matrix(100,0,0,100,600,1700)"/>
<path style="fill:none;stroke-width:0.01;stroke-linecap:butt;stroke-linejoin:miter;stroke:rgb(0%,0%,0%);stroke-opacity:1;stroke-miterlimit:10;" d="M 0.681836 0.0454688 L 0.40082 0.243789 L 0.318164 0.838828 L 0.582656 0.954531 L 0.681836 0.657031 Z M 0.681836 0.0454688 " transform="matrix(100,0,0,100,0,1850)"/>
<path style="fill:none;stroke-width:0.01;stroke-linecap:butt;stroke-linejoin:miter;stroke:rgb(0%,0%,0%);stroke-opacity:1;stroke-miterlimit:10;" d="M 0.503945 0.0454688 L 0.476289 0.0533594 L 0.48418 0.0968359 L 0.488125 0.128477 L 0.492109 0.175898 L 0.492109 0.330039 L 0.488125 0.420938 L 0.492109 0.543477 L 0.480234 0.610664 L 0.480234 0.681836 L 0.472344 0.749023 L 0.480234 0.847812 L 0.488125 0.911055 L 0.492109 0.946641 L 0.5 0.954531 L 0.527656 0.954531 L 0.523711 0.92293 L 0.511875 0.883398 L 0.503945 0.737148 L 0.507891 0.610664 L 0.511875 0.511875 L 0.503945 0.436758 L 0.51582 0.357695 L 0.519766 0.2075 L 0.51582 0.124492 Z M 0.503945 0.0454688 " transform="matrix(100,0,0,100,150,1850)"/>
<path style="fill:none;stroke-width:0.01;stroke-linecap:butt;stroke-linejoin:miter;stroke:rgb(0%,0%,0%);stroke-opacity:1;stroke-miterlimit:10;" d="M 0.684453 0.954531 L 0.453867 0.954531 L 0.447305 0.631758 L 0.302383 0.611992 L 0.414375 0.552695 L 0.618594 0.434141 L 0.638359 0.0652344 L 0.697617 0.0454688 Z M 0.684453 0.954531 " transform="matrix(100,0,0,100,300,1850)"/>
<path style="fill:none;stroke-width:0.01;stroke-linecap:butt;stroke-linejoin:miter;stroke:rgb(0%,0%,0%);stroke-opacity:1;stroke-miterlimit:10;" d="M 0.840898 0.0454688 L 0.159102 0.0454688 L 0.1875 0.130664 L 0.840898 0.954531 Z M 0.840898 0.0454688 " transform="matrix(100,0,0,100,450,1850)"/>
<path style="fill:none;stroke-width:0.01;stroke-linecap:butt;stroke-linejoin:miter;stroke:rgb(0%,0%,0%);stroke-opacity:1;stroke-miterlimit:10;" d="M 0.548555 0.204336 L 0.548555 0.063125 L 0.486758 0.0454688 L 0.486758 0.601484 L 0.451445 0.619141 L 0.47793 0.733906 L 0.548555 0.954531 Z M 0.548555 0.204336 " transform="matrix(100,0,0,100,600,1850)"/>
<path style="fill:none;stroke-width:0.01;stroke-linecap:butt;stroke-linejoin:miter;stroke:rgb(0%,0%,0%);stroke-opacity:1;stroke-miterlimit:10;" d="M 0.427695 0.768594 L 0.324375 0.933867 L 0.241719 0.954531 L 0.634297 0.128086 L 0.696289 0.0454688 L 0.758281 0.0661328 L 0.634297 0.479336 L 0.551641 0.768594 Z M 0.427695 0.768594 " transform="matrix(100,0,0,100,0,2000)"/>
<path style="fill:none;stroke-width:0.01;stroke-linecap:butt;stroke-linejoin:miter;stroke:rgb(0%,0%,0%);stroke-opacity:1;stroke-miterlimit:10;" d="M 0.53043 0.0454688 L 0.505352 0.0454688 L 0.46957 0.954531 L 0.494648 0.950977 L 0.53043 0.231562 Z M 0.53043 0.0454688 " transform="matrix(100,0,0,100,150,2000)"/>
<path style="fill:none;stroke-width:0.01;stroke-linecap:butt;stroke-linejoin:miter;stroke:rgb(0%,0%,0%);stroke-opacity:1;stroke-miterlimit:10;" d="M 0.558906 0.112813 L 0.558906 0.702031 L 0.525234 0.803047 L 0.508398 0.887187 L 0.491602 0.937695 L 0.474766 0.954531 L 0.407422 0.937695 L 0.45793 0.483164 L 0.441094 0.129648 L 0.424258 0.0623047 L 0.558906 0.0454688 L 0.592578 0.0623047 Z M 0.558906 0.112813 " transform="matrix(100,0,0,100,300,2000)"/>
<path style="fill:none;stroke-width:0.01;stroke-linecap:butt;stroke-linejoin:miter;stroke:rgb(0%,0%,0%);stroke-opacity:1;stroke-miterlimit:10;" d="M 0.581836 0.172734 L 0.563633 0.936367 L 0.418164 0.954531 L 0.418164 0.463633 L 0.436367 0.0818359 L 0.509102 0.0454688 Z M 0.581836 0.172734 " transform="matrix(100,0,0,100,450,2000)"/>
<path style="fill:none;stroke-width:0.01;stroke-linecap:butt;stroke-linejoin:miter;stroke:rgb(0%,0%,0%);stroke-opacity:1;stroke-miterlimit:10;" d="M 0.572148 0.20418 L 0.557734 0.0742969 L 0.413438 0.0454688 L 0.413438 0.954531 L 0.557734 0.954531 L 0.586563 0.694805 L 0.586563 0.261914 Z M 0.572148 0.20418 " transform="matrix(100,0,0,100,600,2000)"/>
<path style="fill:none;stroke-width:0.01;stroke-linecap:butt;stroke-linejoin:miter;stroke:rgb(0%,0%,0%);stroke-opacity:1;stroke-miterlimit:10;" d="M 0.288828 0.947383 L 0.389063 0.729063 L 0.474961 0.503594 L 0.582305 0.235156 L 0.661055 0.0454688 L 0.711172 0.0454688 L 0.63957 0.260195 L 0.507148 0.532227 L 0.403359 0.782734 L 0.335352 0.954531 Z M 0.288828 0.947383 " transform="matrix(100,0,0,100,0,2150)"/>
<path style="fill:none;stroke-width:0.01;stroke-linecap:butt;stroke-linejoin:miter;stroke:rgb(0%,0%,0%);stroke-opacity:1;stroke-miterlimit:10;" d="M 0.590898 0.0714453 L 0.0714453 0.0714453 L 0.0454687 0.746758 L 0.201289 0.798711 L 0.512969 0.902578 L 0.590898 0.928555 L 0.772734 0.642852 L 0.876641 0.409102 L 0.954531 0.175313 L 0.876641 0.123359 Z M 0.590898 0.0714453 " transform="matrix(100,0,0,100,150,2150)"/>
<path style="fill:none;stroke-width:0.01;stroke-linecap:butt;stroke-linejoin:miter;stroke:rgb(0%,0%,0%);stroke-opacity:1;stroke-miterlimit:10;" d="M 0.532812 0.0454688 L 0.467188 0.0555469 L 0.532812 0.954531 Z M 0.532812 0.0454688 " transform="matrix(100,0,0,100,300,2150)"/>
<path style="fill:none;stroke-width:0.01;stroke-linecap:butt;stroke-linejoin:miter;stroke:rgb(0%,0%,0%);stroke-opacity:1;stroke-miterlimit:10;" d="M 0.466016 0.0454688 L 0.512539 0.0454688 L 0.544727 0.950977 L 0.466016 0.954531 L 0.458828 0.278086 L 0.455273 0.0454688 Z M 0.466016 0.0454688 " transform="matrix(100,0,0,100,450,2150)"/>
<path style="fill:none;stroke-width:0.01;stroke-linecap:butt;stroke-linejoin:miter;stroke:rgb(0%,0%,0%);stroke-opacity:1;stroke-miterlimit:10;" d="M 0.477148 0.0454688 L 0.468008 0.918008 L 0.477148 0.922578 L 0.477148 0.954531 L 0.486289 0.954531 L 0.531992 0.0454688 Z M 0.477148 0.0454688 " transform="matrix(100,0,0,100,600,2150)"/>
<path style="fill:none;stroke-width:0.01;stroke-linecap:butt;stroke-linejoin:miter;stroke:rgb(0%,0%,0%);stroke-opacity:1;stroke-miterlimit:10;" d="M 0.954531 0.0497266 L 0.800156 0.0497266 L 0.199844 0.847344 L 0.139805 0.924531 L 0.0454688 0.907383 L 0.174102 0.950273 L 0.225547 0.924531 L 0.277031 0.933086 L 0.474258 0.727266 L 0.620078 0.718711 Z M 0.954531 0.0497266 " transform="matrix(100,0,0,100,0,2300)"/>
<path style="fill:none;stroke-width:0.01;stroke-linecap:butt;stroke-linejoin:miter;stroke:rgb(0%,0%,0%);stroke-opacity:1;stroke-miterlimit:10;" d="M 0.809609 0.954531 L 0.625156 0.954531 L 0.243086 0.229922 L 0.124492 0.0717969 L 0.124492 0.0454688 L 0.368242 0.315547 L 0.875508 0.947969 Z M 0.809609 0.954531 " transform="matrix(100,0,0,100,150,2300)"/>
<path style="fill:none;stroke-width:0.01;stroke-linecap:butt;stroke-linejoin:miter;stroke:rgb(0%,0%,0%);stroke-opacity:1;stroke-miterlimit:10;" d="M 0.559922 0.0454688 L 0.440078 0.0454688 L 0.450039 0.954531 L 0.539961 0.93457 Z M 0.559922 0.0454688 " transform="matrix(100,0,0,100,300,2300)"/>
<path style="fill:none;stroke-width:0.01;stroke-linecap:butt;stroke-linejoin:miter;stroke:rgb(0%,0%,0%);stroke-opacity:1;stroke-miterlimit:10;" d="M 0.513281 0.0454688 L 0.387188 0.0454688 L 0.466836 0.954531 L 0.612813 0.0454688 Z M 0.513281 0.0454688 " transform="matrix(100,0,0,100,450,2300)"/>
<path style="fill:none;stroke-width:0.01;stroke-linecap:butt;stroke-linejoin:miter;stroke:rgb(0%,0%,0%);stroke-opacity:1;stroke-miterlimit:10;" d="M 0.553672 0.0454688 L 0.446328 0.0454688 L 0.464219 0.431992 L 0.471367 0.564414 L 0.460625 0.582305 L 0.45707 0.750547 L 0.449883 0.954531 L 0.485703 0.950977 L 0.5 0.707578 L 0.503594 0.553672 L 0.510742 0.381875 L 0.517891 0.28168 L 0.528633 0.145664 L 0.54293 0.0705078 Z M 0.553672 0.0454688 " transform="matrix(100,0,0,100,600,2300)"/>
<path style="fill:none;stroke-width:0.01;stroke-linecap:butt;stroke-linejoin:miter;stroke:rgb(0%,0%,0%);stroke-opacity:1;stroke-miterlimit:10;" d="M 0.575039 0.954531 L 0.319063 0.928086 L 0.292578 0.107227 L 0.319063 0.0454688 L 0.707422 0.945703 Z M 0.575039 0.954531 " transform="matrix(100,0,0,100,0,2450)"/>
<path style="fill:none;stroke-width:0.01;stroke-linecap:butt;stroke-linejoin:miter;stroke:rgb(0%,0%,0%);stroke-opacity:1;stroke-miterlimit:10;" d="M 0.665273 0.0454688 L 0.376016 0.0454688 L 0.334727 0.830586 L 0.417344 0.954531 L 0.623984 0.954531 Z M 0.665273 0.0454688 " transform="matrix(100,0,0,100,150,2450)"/>
<path style="fill:none;stroke-width:0.01;stroke-linecap:butt;stroke-linejoin:miter;stroke:rgb(0%,0%,0%);stroke-opacity:1;stroke-miterlimit:10;" d="M 0.532852 0.0454688 L 0.467148 0.0564063 L 0.5 0.543828 L 0.472617 0.954531 L 0.5 0.888828 L 0.521914 0.445234 L 0.527383 0.220703 Z M 0.532852 0.0454688 " transform="matrix(100,0,0,100,300,2450)"/>
<path style="fill:none;stroke-width:0.01;stroke-linecap:butt;stroke-linejoin:miter;stroke:rgb(0%,0%,0%);stroke-opacity:1;stroke-miterlimit:10;" d="M 0.593711 0.0454688 L 0.478086 0.0454688 L 0.458125 0.476094 L 0.442188 0.631563 L 0.430234 0.751211 L 0.414258 0.858867 L 0.410273 0.934609 L 0.406289 0.954531 L 0.430234 0.902695 L 0.450156 0.75918 L 0.470078 0.627578 L 0.490039 0.503984 L 0.513945 0.380391 L 0.557812 0.177031 L 0.577734 0.0853125 Z M 0.593711 0.0454688 " transform="matrix(100,0,0,100,450,2450)"/>
<path style="fill:none;stroke-width:0.01;stroke-linecap:butt;stroke-linejoin:miter;stroke:rgb(0%,0%,0%);stroke-opacity:1;stroke-miterlimit:10;" d="M 0.547852 0.165078 L 0.488047 0.954531 L 0.440195 0.924648 L 0.452148 0.0454688 L 0.541875 0.0933203 L 0.559805 0.0933203 Z M 0.547852 0.165078 " transform="matrix(100,0,0,100,600,2450)"/>
<path style="fill:none;stroke-width:0.01;stroke-linecap:butt;stroke-linejoin:miter;stroke:rgb(0%,0%,0%);stroke-opacity:1;stroke-miterlimit:10;" d="M 0.5 0.272734 L 0.613633 0.954531 L 0.571016 0.954531 L 0.471602 0.372148 L 0.386367 0.0596484 L 0.414766 0.0454688 Z M 0.5 0.272734 " transform="matrix(100,0,0,100,0,2600)"/>
<path style="fill:none;stroke-width:0.01;stroke-linecap:butt;stroke-linejoin:miter;stroke:rgb(0%,0%,0%);stroke-opacity:1;stroke-miterlimit:10;" d="M 0.568359 0.0454688 L 0.431641 0.0454688 L 0.458984 0.175313 L 0.479492 0.175313 L 0.472656 0.353047 L 0.479492 0.503398 L 0.472656 0.681133 L 0.5 0.927188 L 0.5 0.954531 L 0.527344 0.947695 L 0.53418 0.756328 L 0.472656 0.687969 L 0.472656 0.523906 L 0.547852 0.469258 Z M 0.568359 0.0454688 " transform="matrix(100,0,0,100,150,2600)"/>
<path style="fill:none;stroke-width:0.01;stroke-linecap:butt;stroke-linejoin:miter;stroke:rgb(0%,0%,0%);stroke-opacity:1;stroke-miterlimit:10;" d="M 0.814688 0.0454688 L 0.185313 0.0454688 L 0.278555 0.651523 L 0.465039 0.954531 L 0.488359 0.674844 L 0.791367 0.465039 Z M 0.814688 0.0454688 " transform="matrix(100,0,0,100,300,2600)"/>
<path style="fill:none;stroke-width:0.01;stroke-linecap:butt;stroke-linejoin:miter;stroke:rgb(0%,0%,0%);stroke-opacity:1;stroke-miterlimit:10;" d="M 0.784766 0.954531 L 0.215234 0.954531 L 0.467148 0.0564063 L 0.543828 0.0454688 L 0.609531 0.439766 L 0.664297 0.593086 L 0.719062 0.735469 L 0.762852 0.899766 Z M 0.784766 0.954531 " transform="matrix(100,0,0,100,450,2600)"/>
<path style="fill:none;stroke-width:0.01;stroke-linecap:butt;stroke-linejoin:miter;stroke:rgb(0%,0%,0%);stroke-opacity:1;stroke-miterlimit:10;" d="M 0.954531 0.761719 L 0.0454688 0.761719 L 0.0730078 0.238281 L 0.761719 0.238281 Z M 0.954531 0.761719 " transform="matrix(100,0,0,100,600,2600)"/>
<path style="fill:none;stroke-width:0.01;stroke-linecap:butt;stroke-linejoin:miter;stroke:rgb(0%,0%,0%);stroke-opacity:1;stroke-miterlimit:10;" d="M 0.557305 0.954531 L 0.435078 0.954531 L 0.496172 0.580195 L 0.503828 0.435078 L 0.526719 0.282266 L 0.534375 0.0454688 L 0.564922 0.0683594 L 0.549648 0.137109 L 0.549648 0.335742 L 0.534375 0.480898 L 0.526719 0.648984 L 0.534375 0.809414 L 0.542031 0.916367 Z M 0.557305 0.954531 " transform="matrix(100,0,0,100,0,2750)"/>
<path style="fill:none;stroke-width:0.01;stroke-linecap:butt;stroke-linejoin:miter;stroke:rgb(0%,0%,0%);stroke-opacity:1;stroke-miterlimit:10;" d="M 0.742109 0.954531 L 0.257891 0.954531 L 0.554336 0.0849609 L 0.554336 0.0454688 L 0.692695 0.0553516 Z M 0.742109 0.954531 " transform="matrix(100,0,0,100,150,2750)"/>
<path style="fill:none;stroke-width:0.01;stroke-linecap:butt;stroke-linejoin:miter;stroke:rgb(0%,0%,0%);stroke-opacity:1;stroke-miterlimit:10;" d="M 0.90168 0.9475 L 0.0983203 0.954531 L 0.436562 0.369609 L 0.535234 0.299141 L 0.619805 0.0736328 L 0.690273 0.0525 L 0.697305 0.0454688 Z M 0.90168 0.9475 " transform="matrix(100,0,0,100,300,2750)"/>
<path style="fill:none;stroke-width:0.01;stroke-linecap:butt;stroke-linejoin:miter;stroke:rgb(0%,0%,0%);stroke-opacity:1;stroke-miterlimit:10;" d="M 0.803047 0.954531 L 0.196953 0.954531 L 0.5 0.277188 L 0.580195 0.116758 L 0.624766 0.054375 L 0.713906 0.0454688 L 0.731719 0.223711 Z M 0.803047 0.954531 " transform="matrix(100,0,0,100,450,2750)"/>
<path style="fill:none;stroke-width:0.01;stroke-linecap:butt;stroke-linejoin:miter;stroke:rgb(0%,0%,0%);stroke-opacity:1;stroke-miterlimit:10;" d="M 0.821953 0.954531 L 0.140156 0.954531 L 0.215898 0.727266 L 0.443164 0.537891 L 0.481055 0.310625 L 0.556836 0.159102 L 0.594688 0.0454688 L 0.859844 0.121211 L 0.859844 0.310625 L 0.821953 0.575742 Z M 0.821953 0.954531 " transform="matrix(100,0,0,100,600,2750)"/>
<path style="fill:none;stroke-width:0.01;stroke-linecap:butt;stroke-linejoin:miter;stroke:rgb(0%,0%,0%);stroke-opacity:1;stroke-miterlimit:10;" d="M 0.613633 0.954531 L 0.184336 0.954531 L 0.613633 0.0454688 L 0.815664 0.108594 L 0.790391 0.323242 L 0.664141 0.752539 L 0.651523 0.853555 Z M 0.613633 0.954531 " transform="matrix(100,0,0,100,0,2900)"/>
<path style="fill:none;stroke-width:0.01;stroke-linecap:butt;stroke-linejoin:miter;stroke:rgb(0%,0%,0%);stroke-opacity:1;stroke-miterlimit:10;" d="M 0.547266 0.0454688 L 0.452734 0.0454688 L 0.457227 0.301992 L 0.46625 0.473008 L 0.479766 0.743008 L 0.493242 0.941055 L 0.520234 0.954531 L 0.53375 0.738516 L 0.547266 0.369492 Z M 0.547266 0.0454688 " transform="matrix(100,0,0,100,150,2900)"/>
<path style="fill:none;stroke-width:0.01;stroke-linecap:butt;stroke-linejoin:miter;stroke:rgb(0%,0%,0%);stroke-opacity:1;stroke-miterlimit:10;" d="M 0.688984 0.954531 L 0.311016 0.944336 L 0.494883 0.0760938 L 0.494883 0.0454688 L 0.597031 0.0556641 L 0.627695 0.0556641 Z M 0.688984 0.954531 " transform="matrix(100,0,0,100,300,2900)"/>
<path style="fill:none;stroke-width:0.01;stroke-linecap:butt;stroke-linejoin:miter;stroke:rgb(0%,0%,0%);stroke-opacity:1;stroke-miterlimit:10;" d="M 0.684453 0.954531 L 0.315547 0.947969 L 0.381406 0.723984 L 0.401172 0.565859 L 0.407773 0.53293 L 0.453867 0.46707 L 0.447305 0.414375 L 0.440703 0.401172 L 0.460469 0.374844 L 0.486836 0.302383 L 0.5 0.229922 L 0.513164 0.150859 L 0.519766 0.131094 L 0.546133 0.0586328 L 0.559297 0.0454688 L 0.572461 0.0520312 L 0.605391 0.0520312 L 0.611992 0.137695 L 0.625156 0.434141 L 0.651523 0.638359 L 0.677852 0.855742 Z M 0.684453 0.954531 " transform="matrix(100,0,0,100,450,2900)"/>
<path style="fill:none;stroke-width:0.01;stroke-linecap:butt;stroke-linejoin:miter;stroke:rgb(0%,0%,0%);stroke-opacity:1;stroke-miterlimit:10;" d="M 0.680586 0.954531 L 0.319414 0.950391 L 0.448125 0.443945 L 0.493789 0.223945 L 0.518672 0.103555 L 0.543594 0.05375 L 0.568477 0.0454688 L 0.589258 0.0454688 Z M 0.680586 0.954531 " transform="matrix(100,0,0,100,600,2900)"/>
<path style="fill:none;stroke-width:0.01;stroke-linecap:butt;stroke-linejoin:miter;stroke:rgb(0%,0%,0%);stroke-opacity:1;stroke-miterlimit:10;" d="M 0.724648 0.954531 L 0.275352 0.954531 L 0.338047 0.0454688 L 0.651523 0.0663672 Z M 0.724648 0.954531 " transform="matrix(100,0,0,100,0,3050)"/>
<path style="fill:none;stroke-width:0.01;stroke-linecap:butt;stroke-linejoin:miter;stroke:rgb(0%,0%,0%);stroke-opacity:1;stroke-miterlimit:10;" d="M 0.78707 0.0454688 L 0.531914 0.0454688 L 0.372422 0.842891 L 0.340508 0.890742 L 0.21293 0.90668 L 0.260781 0.954531 L 0.404297 0.90668 L 0.468086 0.890742 L 0.579727 0.699375 L 0.755195 0.220898 Z M 0.78707 0.0454688 " transform="matrix(100,0,0,100,150,3050)"/>
<path style="fill:none;stroke-width:0.01;stroke-linecap:butt;stroke-linejoin:miter;stroke:rgb(0%,0%,0%);stroke-opacity:1;stroke-miterlimit:10;" d="M 0.676758 0.0454688 L 0.348477 0.0959766 L 0.323242 0.954531 L 0.575742 0.954531 Z M 0.676758 0.0454688 " transform="matrix(100,0,0,100,300,3050)"/>
<path style="fill:none;stroke-width:0.01;stroke-linecap:butt;stroke-linejoin:miter;stroke:rgb(0%,0%,0%);stroke-opacity:1;stroke-miterlimit:10;" d="M 0.575742 0.060625 L 0.469688 0.954531 L 0.424258 0.954531 L 0.454531 0.712109 L 0.469688 0.575742 L 0.484844 0.0454688 Z M 0.575742 0.060625 " transform="matrix(100,0,0,100,450,3050)"/>
<path style="fill:none;stroke-width:0.01;stroke-linecap:butt;stroke-linejoin:miter;stroke:rgb(0%,0%,0%);stroke-opacity:1;stroke-miterlimit:10;" d="M 0.954531 0.292578 L 0.954531 0.707422 L 0.0454688 0.707422 Z M 0.954531 0.292578 " transform="matrix(100,0,0,100,600,3050)"/>
<path style="fill:none;stroke-width:0.01;stroke-linecap:butt;stroke-linejoin:miter;stroke:rgb(0%,0%,0%);stroke-opacity:1;stroke-miterlimit:10;" d="M 0.895625 0.0454687 L 0.878789 0.5 L 0.811445 0.601016 L 0.643086 0.786211 L 0.558906 0.904023 L 0.205391 0.954531 L 0.205391 0.718867 L 0.154883 0.382148 L 0.121211 0.146445 L 0.104375 0.0454687 Z M 0.895625 0.0454687 " transform="matrix(100,0,0,100,0,3200)"/>
<path style="fill:none;stroke-width:0.01;stroke-linecap:butt;stroke-linejoin:miter;stroke:rgb(0%,0%,0%);stroke-opacity:1;stroke-miterlimit:10;" d="M 0.431719 0.954531 L 0.470742 0.240547 L 0.501953 0.131289 L 0.533164 0.0610547 L 0.568281 0.0454687 L 0.568281 0.950625 Z M 0.431719 0.954531 " transform="matrix(100,0,0,100,150,3200)"/>
<path style="fill:none;stroke-width:0.01;stroke-linecap:butt;stroke-linejoin:miter;stroke:rgb(0%,0%,0%);stroke-opacity:1;stroke-miterlimit:10;" d="M 0.65957 0.664414 L 0.727266 0.645078 L 0.630547 0.848164 L 0.65957 0.954531 L 0.253398 0.925547 L 0.29207 0.354922 L 0.282383 0.122813 L 0.29207 0.0454687 L 0.562852 0.0454687 L 0.572539 0.113164 L 0.29207 0.103477 L 0.301758 0.325938 L 0.29207 0.354922 L 0.591875 0.354922 L 0.688594 0.412969 L 0.736953 0.548359 L 0.746602 0.635391 Z M 0.65957 0.664414 " transform="matrix(100,0,0,100,300,3200)"/>
<path style="fill:none;stroke-width:0.01;stroke-linecap:butt;stroke-linejoin:miter;stroke:rgb(0%,0%,0%);stroke-opacity:1;stroke-miterlimit:10;" d="M 0.750273 0.954531 L 0.491367 0.954531 L 0.43957 0.459727 L 0.433828 0.264102 L 0.382031 0.258359 L 0.266992 0.114492 L 0.249727 0.114492 L 0.249727 0.0972266 L 0.261211 0.0454687 L 0.272734 0.0454687 L 0.428086 0.22957 L 0.462617 0.235312 L 0.502891 0.430937 L 0.566172 0.436719 L 0.58918 0.465469 L 0.606445 0.482734 L 0.600703 0.494258 L 0.623711 0.494258 L 0.640977 0.534531 L 0.669727 0.551797 L 0.675508 0.59207 L 0.692734 0.609336 L 0.71 0.781914 L 0.733008 0.787695 L 0.727266 0.839453 L 0.750273 0.850977 Z M 0.750273 0.954531 " transform="matrix(100,0,0,100,450,3200)"/>
<path style="fill:none;stroke-width:0.01;stroke-linecap:butt;stroke-linejoin:miter;stroke:rgb(0%,0%,0%);stroke-opacity:1;stroke-miterlimit:10;" d="M 0.0454688 0.610547 L 0.0700391 0.389453 L 0.954531 0.414023 L 0.905391 0.610547 Z M 0.0454688 0.610547 " transform="matrix(100,0,0,100,600,3200)"/>
<path style="fill:none;stroke-width:0.01;stroke-linecap:butt;stroke-linejoin:miter;stroke:rgb(0%,0%,0%);stroke-opacity:1;stroke-miterlimit:10;" d="M 0.573125 0.954531 L 0.426875 0.954531 L 0.43875 0.673906 L 0.446641 0.669961 L 0.458516 0.381406 L 0.470352 0.385391 L 0.470352 0.274687 L 0.482227 0.254922 L 0.478242 0.116602 L 0.494063 0.112656 L 0.505938 0.0454687 L 0.509883 0.389336 L 0.565234 0.393281 Z M 0.573125 0.954531 " transform="matrix(100,0,0,100,0,3350)"/>
<path style="fill:none;stroke-width:0.01;stroke-linecap:butt;stroke-linejoin:miter;stroke:rgb(0%,0%,0%);stroke-opacity:1;stroke-miterlimit:10;" d="M 0.491953 0.0454687 L 0.419531 0.0615625 L 0.451719 0.238555 L 0.467812 0.946484 L 0.548281 0.954531 L 0.556328 0.898242 L 0.548281 0.898242 L 0.548281 0.745391 L 0.556328 0.632734 L 0.548281 0.528164 L 0.540234 0.504023 L 0.508047 0.455742 L 0.508047 0.423555 L 0.580469 0.270703 L 0.540234 0.230508 L 0.540234 0.125898 L 0.508047 0.101758 Z M 0.491953 0.0454687 " transform="matrix(100,0,0,100,150,3350)"/>
</g>
</svg>
